G04 #@! TF.GenerationSoftware,KiCad,Pcbnew,5.1.9+dfsg1-1*
G04 #@! TF.CreationDate,2023-01-30T08:20:38+09:00*
G04 #@! TF.ProjectId,bottom,626f7474-6f6d-42e6-9b69-6361645f7063,rev?*
G04 #@! TF.SameCoordinates,Original*
G04 #@! TF.FileFunction,Copper,L3,Inr*
G04 #@! TF.FilePolarity,Positive*
%FSLAX46Y46*%
G04 Gerber Fmt 4.6, Leading zero omitted, Abs format (unit mm)*
G04 Created by KiCad (PCBNEW 5.1.9+dfsg1-1) date 2023-01-30 08:20:38*
%MOMM*%
%LPD*%
G01*
G04 APERTURE LIST*
G04 #@! TA.AperFunction,ComponentPad*
%ADD10C,8.000000*%
G04 #@! TD*
G04 #@! TA.AperFunction,ComponentPad*
%ADD11C,12.000000*%
G04 #@! TD*
G04 #@! TA.AperFunction,Conductor*
%ADD12C,0.254000*%
G04 #@! TD*
G04 #@! TA.AperFunction,Conductor*
%ADD13C,0.100000*%
G04 #@! TD*
G04 APERTURE END LIST*
D10*
X60000000Y-90000000D03*
X67000000Y-103000000D03*
X100000000Y-90000000D03*
G04 #@! TA.AperFunction,ComponentPad*
G36*
G01*
X57250000Y-99500000D02*
X60750000Y-99500000D01*
G75*
G02*
X61500000Y-100250000I0J-750000D01*
G01*
X61500000Y-101750000D01*
G75*
G02*
X60750000Y-102500000I-750000J0D01*
G01*
X57250000Y-102500000D01*
G75*
G02*
X56500000Y-101750000I0J750000D01*
G01*
X56500000Y-100250000D01*
G75*
G02*
X57250000Y-99500000I750000J0D01*
G01*
G37*
G04 #@! TD.AperFunction*
G04 #@! TA.AperFunction,ComponentPad*
G36*
G01*
X57250000Y-103500000D02*
X60750000Y-103500000D01*
G75*
G02*
X61500000Y-104250000I0J-750000D01*
G01*
X61500000Y-105750000D01*
G75*
G02*
X60750000Y-106500000I-750000J0D01*
G01*
X57250000Y-106500000D01*
G75*
G02*
X56500000Y-105750000I0J750000D01*
G01*
X56500000Y-104250000D01*
G75*
G02*
X57250000Y-103500000I750000J0D01*
G01*
G37*
G04 #@! TD.AperFunction*
G04 #@! TA.AperFunction,ComponentPad*
G36*
G01*
X99250000Y-103500000D02*
X102750000Y-103500000D01*
G75*
G02*
X103500000Y-104250000I0J-750000D01*
G01*
X103500000Y-105750000D01*
G75*
G02*
X102750000Y-106500000I-750000J0D01*
G01*
X99250000Y-106500000D01*
G75*
G02*
X98500000Y-105750000I0J750000D01*
G01*
X98500000Y-104250000D01*
G75*
G02*
X99250000Y-103500000I750000J0D01*
G01*
G37*
G04 #@! TD.AperFunction*
G04 #@! TA.AperFunction,ComponentPad*
G36*
G01*
X99250000Y-99500000D02*
X102750000Y-99500000D01*
G75*
G02*
X103500000Y-100250000I0J-750000D01*
G01*
X103500000Y-101750000D01*
G75*
G02*
X102750000Y-102500000I-750000J0D01*
G01*
X99250000Y-102500000D01*
G75*
G02*
X98500000Y-101750000I0J750000D01*
G01*
X98500000Y-100250000D01*
G75*
G02*
X99250000Y-99500000I750000J0D01*
G01*
G37*
G04 #@! TD.AperFunction*
X93000000Y-103000000D03*
D11*
X80000000Y-90000000D03*
D12*
X103259659Y-82688625D02*
X103509429Y-82764035D01*
X103739792Y-82886522D01*
X103941980Y-83051422D01*
X104108286Y-83252450D01*
X104232378Y-83481954D01*
X104309531Y-83731195D01*
X104340000Y-84021089D01*
X104340000Y-88365847D01*
X104107484Y-87804504D01*
X103600240Y-87045360D01*
X102954640Y-86399760D01*
X102195496Y-85892516D01*
X101351980Y-85543120D01*
X100456508Y-85365000D01*
X99543492Y-85365000D01*
X98648020Y-85543120D01*
X97804504Y-85892516D01*
X97045360Y-86399760D01*
X96399760Y-87045360D01*
X95892516Y-87804504D01*
X95543120Y-88648020D01*
X95365000Y-89543492D01*
X95365000Y-90456508D01*
X95543120Y-91351980D01*
X95892516Y-92195496D01*
X96399760Y-92954640D01*
X97045360Y-93600240D01*
X97804504Y-94107484D01*
X98648020Y-94456880D01*
X99543492Y-94635000D01*
X100456508Y-94635000D01*
X101351980Y-94456880D01*
X102195496Y-94107484D01*
X102954640Y-93600240D01*
X103600240Y-92954640D01*
X104107484Y-92195496D01*
X104340000Y-91634153D01*
X104340001Y-105967711D01*
X104311375Y-106259660D01*
X104235965Y-106509429D01*
X104113477Y-106739794D01*
X103948579Y-106941979D01*
X103747546Y-107108288D01*
X103518046Y-107232378D01*
X103268805Y-107309531D01*
X102978911Y-107340000D01*
X94634153Y-107340000D01*
X95195496Y-107107484D01*
X95954640Y-106600240D01*
X96600240Y-105954640D01*
X97107484Y-105195496D01*
X97456880Y-104351980D01*
X97635000Y-103456508D01*
X97635000Y-102543492D01*
X97626349Y-102500000D01*
X97861928Y-102500000D01*
X97874188Y-102624482D01*
X97910498Y-102744180D01*
X97969463Y-102854494D01*
X98048815Y-102951185D01*
X98145506Y-103030537D01*
X98255820Y-103089502D01*
X98375518Y-103125812D01*
X98435173Y-103131687D01*
X98268485Y-103268485D01*
X98095860Y-103478829D01*
X97967589Y-103718808D01*
X97888599Y-103979201D01*
X97861928Y-104250000D01*
X97861928Y-105750000D01*
X97888599Y-106020799D01*
X97967589Y-106281192D01*
X98095860Y-106521171D01*
X98268485Y-106731515D01*
X98478829Y-106904140D01*
X98718808Y-107032411D01*
X98979201Y-107111401D01*
X99250000Y-107138072D01*
X102750000Y-107138072D01*
X103020799Y-107111401D01*
X103281192Y-107032411D01*
X103521171Y-106904140D01*
X103731515Y-106731515D01*
X103904140Y-106521171D01*
X104032411Y-106281192D01*
X104111401Y-106020799D01*
X104138072Y-105750000D01*
X104138072Y-104250000D01*
X104111401Y-103979201D01*
X104032411Y-103718808D01*
X103904140Y-103478829D01*
X103731515Y-103268485D01*
X103564827Y-103131687D01*
X103624482Y-103125812D01*
X103744180Y-103089502D01*
X103854494Y-103030537D01*
X103951185Y-102951185D01*
X104030537Y-102854494D01*
X104089502Y-102744180D01*
X104125812Y-102624482D01*
X104138072Y-102500000D01*
X104135000Y-101285750D01*
X103976250Y-101127000D01*
X101127000Y-101127000D01*
X101127000Y-101147000D01*
X100873000Y-101147000D01*
X100873000Y-101127000D01*
X98023750Y-101127000D01*
X97865000Y-101285750D01*
X97861928Y-102500000D01*
X97626349Y-102500000D01*
X97456880Y-101648020D01*
X97107484Y-100804504D01*
X96600240Y-100045360D01*
X96054880Y-99500000D01*
X97861928Y-99500000D01*
X97865000Y-100714250D01*
X98023750Y-100873000D01*
X100873000Y-100873000D01*
X100873000Y-99023750D01*
X101127000Y-99023750D01*
X101127000Y-100873000D01*
X103976250Y-100873000D01*
X104135000Y-100714250D01*
X104138072Y-99500000D01*
X104125812Y-99375518D01*
X104089502Y-99255820D01*
X104030537Y-99145506D01*
X103951185Y-99048815D01*
X103854494Y-98969463D01*
X103744180Y-98910498D01*
X103624482Y-98874188D01*
X103500000Y-98861928D01*
X101285750Y-98865000D01*
X101127000Y-99023750D01*
X100873000Y-99023750D01*
X100714250Y-98865000D01*
X98500000Y-98861928D01*
X98375518Y-98874188D01*
X98255820Y-98910498D01*
X98145506Y-98969463D01*
X98048815Y-99048815D01*
X97969463Y-99145506D01*
X97910498Y-99255820D01*
X97874188Y-99375518D01*
X97861928Y-99500000D01*
X96054880Y-99500000D01*
X95954640Y-99399760D01*
X95195496Y-98892516D01*
X94351980Y-98543120D01*
X93456508Y-98365000D01*
X92543492Y-98365000D01*
X91648020Y-98543120D01*
X90804504Y-98892516D01*
X90045360Y-99399760D01*
X89399760Y-100045360D01*
X88892516Y-100804504D01*
X88543120Y-101648020D01*
X88365000Y-102543492D01*
X88365000Y-103456508D01*
X88543120Y-104351980D01*
X88892516Y-105195496D01*
X89399760Y-105954640D01*
X90045360Y-106600240D01*
X90804504Y-107107484D01*
X91365847Y-107340000D01*
X68634153Y-107340000D01*
X69195496Y-107107484D01*
X69954640Y-106600240D01*
X70600240Y-105954640D01*
X71107484Y-105195496D01*
X71456880Y-104351980D01*
X71635000Y-103456508D01*
X71635000Y-102543492D01*
X71456880Y-101648020D01*
X71107484Y-100804504D01*
X70600240Y-100045360D01*
X69954640Y-99399760D01*
X69195496Y-98892516D01*
X68351980Y-98543120D01*
X67456508Y-98365000D01*
X66543492Y-98365000D01*
X65648020Y-98543120D01*
X64804504Y-98892516D01*
X64045360Y-99399760D01*
X63399760Y-100045360D01*
X62892516Y-100804504D01*
X62543120Y-101648020D01*
X62365000Y-102543492D01*
X62365000Y-103456508D01*
X62543120Y-104351980D01*
X62892516Y-105195496D01*
X63399760Y-105954640D01*
X64045360Y-106600240D01*
X64804504Y-107107484D01*
X65365847Y-107340000D01*
X57032279Y-107340000D01*
X56740340Y-107311375D01*
X56490571Y-107235965D01*
X56260206Y-107113477D01*
X56058021Y-106948579D01*
X55891712Y-106747546D01*
X55767622Y-106518046D01*
X55690469Y-106268805D01*
X55660000Y-105978911D01*
X55660000Y-102500000D01*
X55861928Y-102500000D01*
X55874188Y-102624482D01*
X55910498Y-102744180D01*
X55969463Y-102854494D01*
X56048815Y-102951185D01*
X56145506Y-103030537D01*
X56255820Y-103089502D01*
X56375518Y-103125812D01*
X56435173Y-103131687D01*
X56268485Y-103268485D01*
X56095860Y-103478829D01*
X55967589Y-103718808D01*
X55888599Y-103979201D01*
X55861928Y-104250000D01*
X55861928Y-105750000D01*
X55888599Y-106020799D01*
X55967589Y-106281192D01*
X56095860Y-106521171D01*
X56268485Y-106731515D01*
X56478829Y-106904140D01*
X56718808Y-107032411D01*
X56979201Y-107111401D01*
X57250000Y-107138072D01*
X60750000Y-107138072D01*
X61020799Y-107111401D01*
X61281192Y-107032411D01*
X61521171Y-106904140D01*
X61731515Y-106731515D01*
X61904140Y-106521171D01*
X62032411Y-106281192D01*
X62111401Y-106020799D01*
X62138072Y-105750000D01*
X62138072Y-104250000D01*
X62111401Y-103979201D01*
X62032411Y-103718808D01*
X61904140Y-103478829D01*
X61731515Y-103268485D01*
X61564827Y-103131687D01*
X61624482Y-103125812D01*
X61744180Y-103089502D01*
X61854494Y-103030537D01*
X61951185Y-102951185D01*
X62030537Y-102854494D01*
X62089502Y-102744180D01*
X62125812Y-102624482D01*
X62138072Y-102500000D01*
X62135000Y-101285750D01*
X61976250Y-101127000D01*
X59127000Y-101127000D01*
X59127000Y-101147000D01*
X58873000Y-101147000D01*
X58873000Y-101127000D01*
X56023750Y-101127000D01*
X55865000Y-101285750D01*
X55861928Y-102500000D01*
X55660000Y-102500000D01*
X55660000Y-99500000D01*
X55861928Y-99500000D01*
X55865000Y-100714250D01*
X56023750Y-100873000D01*
X58873000Y-100873000D01*
X58873000Y-99023750D01*
X59127000Y-99023750D01*
X59127000Y-100873000D01*
X61976250Y-100873000D01*
X62135000Y-100714250D01*
X62138072Y-99500000D01*
X62125812Y-99375518D01*
X62089502Y-99255820D01*
X62030537Y-99145506D01*
X61951185Y-99048815D01*
X61854494Y-98969463D01*
X61744180Y-98910498D01*
X61624482Y-98874188D01*
X61500000Y-98861928D01*
X59285750Y-98865000D01*
X59127000Y-99023750D01*
X58873000Y-99023750D01*
X58714250Y-98865000D01*
X56500000Y-98861928D01*
X56375518Y-98874188D01*
X56255820Y-98910498D01*
X56145506Y-98969463D01*
X56048815Y-99048815D01*
X55969463Y-99145506D01*
X55910498Y-99255820D01*
X55874188Y-99375518D01*
X55861928Y-99500000D01*
X55660000Y-99500000D01*
X55660000Y-94691028D01*
X75488577Y-94691028D01*
X76184631Y-95467471D01*
X77324592Y-96106757D01*
X78567369Y-96511363D01*
X79865200Y-96665741D01*
X81168212Y-96563960D01*
X82426330Y-96209928D01*
X83591206Y-95617253D01*
X83815369Y-95467471D01*
X84511423Y-94691028D01*
X80000000Y-90179605D01*
X75488577Y-94691028D01*
X55660000Y-94691028D01*
X55660000Y-91634153D01*
X55892516Y-92195496D01*
X56399760Y-92954640D01*
X57045360Y-93600240D01*
X57804504Y-94107484D01*
X58648020Y-94456880D01*
X59543492Y-94635000D01*
X60456508Y-94635000D01*
X61351980Y-94456880D01*
X62195496Y-94107484D01*
X62954640Y-93600240D01*
X63600240Y-92954640D01*
X64107484Y-92195496D01*
X64456880Y-91351980D01*
X64635000Y-90456508D01*
X64635000Y-89865200D01*
X73334259Y-89865200D01*
X73436040Y-91168212D01*
X73790072Y-92426330D01*
X74382747Y-93591206D01*
X74532529Y-93815369D01*
X75308972Y-94511423D01*
X79820395Y-90000000D01*
X80179605Y-90000000D01*
X84691028Y-94511423D01*
X85467471Y-93815369D01*
X86106757Y-92675408D01*
X86511363Y-91432631D01*
X86665741Y-90134800D01*
X86563960Y-88831788D01*
X86209928Y-87573670D01*
X85617253Y-86408794D01*
X85467471Y-86184631D01*
X84691028Y-85488577D01*
X80179605Y-90000000D01*
X79820395Y-90000000D01*
X75308972Y-85488577D01*
X74532529Y-86184631D01*
X73893243Y-87324592D01*
X73488637Y-88567369D01*
X73334259Y-89865200D01*
X64635000Y-89865200D01*
X64635000Y-89543492D01*
X64456880Y-88648020D01*
X64107484Y-87804504D01*
X63600240Y-87045360D01*
X62954640Y-86399760D01*
X62195496Y-85892516D01*
X61351980Y-85543120D01*
X60456508Y-85365000D01*
X59543492Y-85365000D01*
X58648020Y-85543120D01*
X57804504Y-85892516D01*
X57045360Y-86399760D01*
X56399760Y-87045360D01*
X55892516Y-87804504D01*
X55660000Y-88365847D01*
X55660000Y-85308972D01*
X75488577Y-85308972D01*
X80000000Y-89820395D01*
X84511423Y-85308972D01*
X83815369Y-84532529D01*
X82675408Y-83893243D01*
X81432631Y-83488637D01*
X80134800Y-83334259D01*
X78831788Y-83436040D01*
X77573670Y-83790072D01*
X76408794Y-84382747D01*
X76184631Y-84532529D01*
X75488577Y-85308972D01*
X55660000Y-85308972D01*
X55660000Y-84032279D01*
X55688625Y-83740341D01*
X55764035Y-83490571D01*
X55886522Y-83260208D01*
X56051422Y-83058020D01*
X56252450Y-82891714D01*
X56481954Y-82767622D01*
X56731195Y-82690469D01*
X57021088Y-82660000D01*
X102967721Y-82660000D01*
X103259659Y-82688625D01*
G04 #@! TA.AperFunction,Conductor*
D13*
G36*
X103259659Y-82688625D02*
G01*
X103509429Y-82764035D01*
X103739792Y-82886522D01*
X103941980Y-83051422D01*
X104108286Y-83252450D01*
X104232378Y-83481954D01*
X104309531Y-83731195D01*
X104340000Y-84021089D01*
X104340000Y-88365847D01*
X104107484Y-87804504D01*
X103600240Y-87045360D01*
X102954640Y-86399760D01*
X102195496Y-85892516D01*
X101351980Y-85543120D01*
X100456508Y-85365000D01*
X99543492Y-85365000D01*
X98648020Y-85543120D01*
X97804504Y-85892516D01*
X97045360Y-86399760D01*
X96399760Y-87045360D01*
X95892516Y-87804504D01*
X95543120Y-88648020D01*
X95365000Y-89543492D01*
X95365000Y-90456508D01*
X95543120Y-91351980D01*
X95892516Y-92195496D01*
X96399760Y-92954640D01*
X97045360Y-93600240D01*
X97804504Y-94107484D01*
X98648020Y-94456880D01*
X99543492Y-94635000D01*
X100456508Y-94635000D01*
X101351980Y-94456880D01*
X102195496Y-94107484D01*
X102954640Y-93600240D01*
X103600240Y-92954640D01*
X104107484Y-92195496D01*
X104340000Y-91634153D01*
X104340001Y-105967711D01*
X104311375Y-106259660D01*
X104235965Y-106509429D01*
X104113477Y-106739794D01*
X103948579Y-106941979D01*
X103747546Y-107108288D01*
X103518046Y-107232378D01*
X103268805Y-107309531D01*
X102978911Y-107340000D01*
X94634153Y-107340000D01*
X95195496Y-107107484D01*
X95954640Y-106600240D01*
X96600240Y-105954640D01*
X97107484Y-105195496D01*
X97456880Y-104351980D01*
X97635000Y-103456508D01*
X97635000Y-102543492D01*
X97626349Y-102500000D01*
X97861928Y-102500000D01*
X97874188Y-102624482D01*
X97910498Y-102744180D01*
X97969463Y-102854494D01*
X98048815Y-102951185D01*
X98145506Y-103030537D01*
X98255820Y-103089502D01*
X98375518Y-103125812D01*
X98435173Y-103131687D01*
X98268485Y-103268485D01*
X98095860Y-103478829D01*
X97967589Y-103718808D01*
X97888599Y-103979201D01*
X97861928Y-104250000D01*
X97861928Y-105750000D01*
X97888599Y-106020799D01*
X97967589Y-106281192D01*
X98095860Y-106521171D01*
X98268485Y-106731515D01*
X98478829Y-106904140D01*
X98718808Y-107032411D01*
X98979201Y-107111401D01*
X99250000Y-107138072D01*
X102750000Y-107138072D01*
X103020799Y-107111401D01*
X103281192Y-107032411D01*
X103521171Y-106904140D01*
X103731515Y-106731515D01*
X103904140Y-106521171D01*
X104032411Y-106281192D01*
X104111401Y-106020799D01*
X104138072Y-105750000D01*
X104138072Y-104250000D01*
X104111401Y-103979201D01*
X104032411Y-103718808D01*
X103904140Y-103478829D01*
X103731515Y-103268485D01*
X103564827Y-103131687D01*
X103624482Y-103125812D01*
X103744180Y-103089502D01*
X103854494Y-103030537D01*
X103951185Y-102951185D01*
X104030537Y-102854494D01*
X104089502Y-102744180D01*
X104125812Y-102624482D01*
X104138072Y-102500000D01*
X104135000Y-101285750D01*
X103976250Y-101127000D01*
X101127000Y-101127000D01*
X101127000Y-101147000D01*
X100873000Y-101147000D01*
X100873000Y-101127000D01*
X98023750Y-101127000D01*
X97865000Y-101285750D01*
X97861928Y-102500000D01*
X97626349Y-102500000D01*
X97456880Y-101648020D01*
X97107484Y-100804504D01*
X96600240Y-100045360D01*
X96054880Y-99500000D01*
X97861928Y-99500000D01*
X97865000Y-100714250D01*
X98023750Y-100873000D01*
X100873000Y-100873000D01*
X100873000Y-99023750D01*
X101127000Y-99023750D01*
X101127000Y-100873000D01*
X103976250Y-100873000D01*
X104135000Y-100714250D01*
X104138072Y-99500000D01*
X104125812Y-99375518D01*
X104089502Y-99255820D01*
X104030537Y-99145506D01*
X103951185Y-99048815D01*
X103854494Y-98969463D01*
X103744180Y-98910498D01*
X103624482Y-98874188D01*
X103500000Y-98861928D01*
X101285750Y-98865000D01*
X101127000Y-99023750D01*
X100873000Y-99023750D01*
X100714250Y-98865000D01*
X98500000Y-98861928D01*
X98375518Y-98874188D01*
X98255820Y-98910498D01*
X98145506Y-98969463D01*
X98048815Y-99048815D01*
X97969463Y-99145506D01*
X97910498Y-99255820D01*
X97874188Y-99375518D01*
X97861928Y-99500000D01*
X96054880Y-99500000D01*
X95954640Y-99399760D01*
X95195496Y-98892516D01*
X94351980Y-98543120D01*
X93456508Y-98365000D01*
X92543492Y-98365000D01*
X91648020Y-98543120D01*
X90804504Y-98892516D01*
X90045360Y-99399760D01*
X89399760Y-100045360D01*
X88892516Y-100804504D01*
X88543120Y-101648020D01*
X88365000Y-102543492D01*
X88365000Y-103456508D01*
X88543120Y-104351980D01*
X88892516Y-105195496D01*
X89399760Y-105954640D01*
X90045360Y-106600240D01*
X90804504Y-107107484D01*
X91365847Y-107340000D01*
X68634153Y-107340000D01*
X69195496Y-107107484D01*
X69954640Y-106600240D01*
X70600240Y-105954640D01*
X71107484Y-105195496D01*
X71456880Y-104351980D01*
X71635000Y-103456508D01*
X71635000Y-102543492D01*
X71456880Y-101648020D01*
X71107484Y-100804504D01*
X70600240Y-100045360D01*
X69954640Y-99399760D01*
X69195496Y-98892516D01*
X68351980Y-98543120D01*
X67456508Y-98365000D01*
X66543492Y-98365000D01*
X65648020Y-98543120D01*
X64804504Y-98892516D01*
X64045360Y-99399760D01*
X63399760Y-100045360D01*
X62892516Y-100804504D01*
X62543120Y-101648020D01*
X62365000Y-102543492D01*
X62365000Y-103456508D01*
X62543120Y-104351980D01*
X62892516Y-105195496D01*
X63399760Y-105954640D01*
X64045360Y-106600240D01*
X64804504Y-107107484D01*
X65365847Y-107340000D01*
X57032279Y-107340000D01*
X56740340Y-107311375D01*
X56490571Y-107235965D01*
X56260206Y-107113477D01*
X56058021Y-106948579D01*
X55891712Y-106747546D01*
X55767622Y-106518046D01*
X55690469Y-106268805D01*
X55660000Y-105978911D01*
X55660000Y-102500000D01*
X55861928Y-102500000D01*
X55874188Y-102624482D01*
X55910498Y-102744180D01*
X55969463Y-102854494D01*
X56048815Y-102951185D01*
X56145506Y-103030537D01*
X56255820Y-103089502D01*
X56375518Y-103125812D01*
X56435173Y-103131687D01*
X56268485Y-103268485D01*
X56095860Y-103478829D01*
X55967589Y-103718808D01*
X55888599Y-103979201D01*
X55861928Y-104250000D01*
X55861928Y-105750000D01*
X55888599Y-106020799D01*
X55967589Y-106281192D01*
X56095860Y-106521171D01*
X56268485Y-106731515D01*
X56478829Y-106904140D01*
X56718808Y-107032411D01*
X56979201Y-107111401D01*
X57250000Y-107138072D01*
X60750000Y-107138072D01*
X61020799Y-107111401D01*
X61281192Y-107032411D01*
X61521171Y-106904140D01*
X61731515Y-106731515D01*
X61904140Y-106521171D01*
X62032411Y-106281192D01*
X62111401Y-106020799D01*
X62138072Y-105750000D01*
X62138072Y-104250000D01*
X62111401Y-103979201D01*
X62032411Y-103718808D01*
X61904140Y-103478829D01*
X61731515Y-103268485D01*
X61564827Y-103131687D01*
X61624482Y-103125812D01*
X61744180Y-103089502D01*
X61854494Y-103030537D01*
X61951185Y-102951185D01*
X62030537Y-102854494D01*
X62089502Y-102744180D01*
X62125812Y-102624482D01*
X62138072Y-102500000D01*
X62135000Y-101285750D01*
X61976250Y-101127000D01*
X59127000Y-101127000D01*
X59127000Y-101147000D01*
X58873000Y-101147000D01*
X58873000Y-101127000D01*
X56023750Y-101127000D01*
X55865000Y-101285750D01*
X55861928Y-102500000D01*
X55660000Y-102500000D01*
X55660000Y-99500000D01*
X55861928Y-99500000D01*
X55865000Y-100714250D01*
X56023750Y-100873000D01*
X58873000Y-100873000D01*
X58873000Y-99023750D01*
X59127000Y-99023750D01*
X59127000Y-100873000D01*
X61976250Y-100873000D01*
X62135000Y-100714250D01*
X62138072Y-99500000D01*
X62125812Y-99375518D01*
X62089502Y-99255820D01*
X62030537Y-99145506D01*
X61951185Y-99048815D01*
X61854494Y-98969463D01*
X61744180Y-98910498D01*
X61624482Y-98874188D01*
X61500000Y-98861928D01*
X59285750Y-98865000D01*
X59127000Y-99023750D01*
X58873000Y-99023750D01*
X58714250Y-98865000D01*
X56500000Y-98861928D01*
X56375518Y-98874188D01*
X56255820Y-98910498D01*
X56145506Y-98969463D01*
X56048815Y-99048815D01*
X55969463Y-99145506D01*
X55910498Y-99255820D01*
X55874188Y-99375518D01*
X55861928Y-99500000D01*
X55660000Y-99500000D01*
X55660000Y-94691028D01*
X75488577Y-94691028D01*
X76184631Y-95467471D01*
X77324592Y-96106757D01*
X78567369Y-96511363D01*
X79865200Y-96665741D01*
X81168212Y-96563960D01*
X82426330Y-96209928D01*
X83591206Y-95617253D01*
X83815369Y-95467471D01*
X84511423Y-94691028D01*
X80000000Y-90179605D01*
X75488577Y-94691028D01*
X55660000Y-94691028D01*
X55660000Y-91634153D01*
X55892516Y-92195496D01*
X56399760Y-92954640D01*
X57045360Y-93600240D01*
X57804504Y-94107484D01*
X58648020Y-94456880D01*
X59543492Y-94635000D01*
X60456508Y-94635000D01*
X61351980Y-94456880D01*
X62195496Y-94107484D01*
X62954640Y-93600240D01*
X63600240Y-92954640D01*
X64107484Y-92195496D01*
X64456880Y-91351980D01*
X64635000Y-90456508D01*
X64635000Y-89865200D01*
X73334259Y-89865200D01*
X73436040Y-91168212D01*
X73790072Y-92426330D01*
X74382747Y-93591206D01*
X74532529Y-93815369D01*
X75308972Y-94511423D01*
X79820395Y-90000000D01*
X80179605Y-90000000D01*
X84691028Y-94511423D01*
X85467471Y-93815369D01*
X86106757Y-92675408D01*
X86511363Y-91432631D01*
X86665741Y-90134800D01*
X86563960Y-88831788D01*
X86209928Y-87573670D01*
X85617253Y-86408794D01*
X85467471Y-86184631D01*
X84691028Y-85488577D01*
X80179605Y-90000000D01*
X79820395Y-90000000D01*
X75308972Y-85488577D01*
X74532529Y-86184631D01*
X73893243Y-87324592D01*
X73488637Y-88567369D01*
X73334259Y-89865200D01*
X64635000Y-89865200D01*
X64635000Y-89543492D01*
X64456880Y-88648020D01*
X64107484Y-87804504D01*
X63600240Y-87045360D01*
X62954640Y-86399760D01*
X62195496Y-85892516D01*
X61351980Y-85543120D01*
X60456508Y-85365000D01*
X59543492Y-85365000D01*
X58648020Y-85543120D01*
X57804504Y-85892516D01*
X57045360Y-86399760D01*
X56399760Y-87045360D01*
X55892516Y-87804504D01*
X55660000Y-88365847D01*
X55660000Y-85308972D01*
X75488577Y-85308972D01*
X80000000Y-89820395D01*
X84511423Y-85308972D01*
X83815369Y-84532529D01*
X82675408Y-83893243D01*
X81432631Y-83488637D01*
X80134800Y-83334259D01*
X78831788Y-83436040D01*
X77573670Y-83790072D01*
X76408794Y-84382747D01*
X76184631Y-84532529D01*
X75488577Y-85308972D01*
X55660000Y-85308972D01*
X55660000Y-84032279D01*
X55688625Y-83740341D01*
X55764035Y-83490571D01*
X55886522Y-83260208D01*
X56051422Y-83058020D01*
X56252450Y-82891714D01*
X56481954Y-82767622D01*
X56731195Y-82690469D01*
X57021088Y-82660000D01*
X102967721Y-82660000D01*
X103259659Y-82688625D01*
G37*
G04 #@! TD.AperFunction*
M02*
