G04 #@! TF.GenerationSoftware,KiCad,Pcbnew,5.1.9+dfsg1-1*
G04 #@! TF.CreationDate,2023-01-30T08:20:38+09:00*
G04 #@! TF.ProjectId,bottom,626f7474-6f6d-42e6-9b69-6361645f7063,rev?*
G04 #@! TF.SameCoordinates,Original*
G04 #@! TF.FileFunction,Copper,L2,Inr*
G04 #@! TF.FilePolarity,Positive*
%FSLAX46Y46*%
G04 Gerber Fmt 4.6, Leading zero omitted, Abs format (unit mm)*
G04 Created by KiCad (PCBNEW 5.1.9+dfsg1-1) date 2023-01-30 08:20:38*
%MOMM*%
%LPD*%
G01*
G04 APERTURE LIST*
G04 #@! TA.AperFunction,ComponentPad*
%ADD10C,8.000000*%
G04 #@! TD*
G04 #@! TA.AperFunction,ComponentPad*
%ADD11C,12.000000*%
G04 #@! TD*
G04 #@! TA.AperFunction,Conductor*
%ADD12C,0.254000*%
G04 #@! TD*
G04 #@! TA.AperFunction,Conductor*
%ADD13C,0.100000*%
G04 #@! TD*
G04 APERTURE END LIST*
D10*
X60000000Y-90000000D03*
X67000000Y-103000000D03*
X100000000Y-90000000D03*
G04 #@! TA.AperFunction,ComponentPad*
G36*
G01*
X57250000Y-99500000D02*
X60750000Y-99500000D01*
G75*
G02*
X61500000Y-100250000I0J-750000D01*
G01*
X61500000Y-101750000D01*
G75*
G02*
X60750000Y-102500000I-750000J0D01*
G01*
X57250000Y-102500000D01*
G75*
G02*
X56500000Y-101750000I0J750000D01*
G01*
X56500000Y-100250000D01*
G75*
G02*
X57250000Y-99500000I750000J0D01*
G01*
G37*
G04 #@! TD.AperFunction*
G04 #@! TA.AperFunction,ComponentPad*
G36*
G01*
X57250000Y-103500000D02*
X60750000Y-103500000D01*
G75*
G02*
X61500000Y-104250000I0J-750000D01*
G01*
X61500000Y-105750000D01*
G75*
G02*
X60750000Y-106500000I-750000J0D01*
G01*
X57250000Y-106500000D01*
G75*
G02*
X56500000Y-105750000I0J750000D01*
G01*
X56500000Y-104250000D01*
G75*
G02*
X57250000Y-103500000I750000J0D01*
G01*
G37*
G04 #@! TD.AperFunction*
G04 #@! TA.AperFunction,ComponentPad*
G36*
G01*
X99250000Y-103500000D02*
X102750000Y-103500000D01*
G75*
G02*
X103500000Y-104250000I0J-750000D01*
G01*
X103500000Y-105750000D01*
G75*
G02*
X102750000Y-106500000I-750000J0D01*
G01*
X99250000Y-106500000D01*
G75*
G02*
X98500000Y-105750000I0J750000D01*
G01*
X98500000Y-104250000D01*
G75*
G02*
X99250000Y-103500000I750000J0D01*
G01*
G37*
G04 #@! TD.AperFunction*
G04 #@! TA.AperFunction,ComponentPad*
G36*
G01*
X99250000Y-99500000D02*
X102750000Y-99500000D01*
G75*
G02*
X103500000Y-100250000I0J-750000D01*
G01*
X103500000Y-101750000D01*
G75*
G02*
X102750000Y-102500000I-750000J0D01*
G01*
X99250000Y-102500000D01*
G75*
G02*
X98500000Y-101750000I0J750000D01*
G01*
X98500000Y-100250000D01*
G75*
G02*
X99250000Y-99500000I750000J0D01*
G01*
G37*
G04 #@! TD.AperFunction*
X93000000Y-103000000D03*
D11*
X80000000Y-90000000D03*
D12*
X103259659Y-82688625D02*
X103509429Y-82764035D01*
X103739792Y-82886522D01*
X103941980Y-83051422D01*
X104108286Y-83252450D01*
X104232378Y-83481954D01*
X104309531Y-83731195D01*
X104340000Y-84021089D01*
X104340000Y-88324638D01*
X104323975Y-88269434D01*
X103903275Y-87459121D01*
X103841185Y-87366197D01*
X103269580Y-86910025D01*
X100179605Y-90000000D01*
X103269580Y-93089975D01*
X103841185Y-92633803D01*
X104281207Y-91833817D01*
X104340000Y-91648054D01*
X104340001Y-105967711D01*
X104311375Y-106259660D01*
X104235965Y-106509429D01*
X104113477Y-106739794D01*
X104050709Y-106816755D01*
X104089502Y-106744180D01*
X104125812Y-106624482D01*
X104138072Y-106500000D01*
X104135000Y-105285750D01*
X103976250Y-105127000D01*
X101127000Y-105127000D01*
X101127000Y-106976250D01*
X101285750Y-107135000D01*
X103500000Y-107138072D01*
X103624482Y-107125812D01*
X103744180Y-107089502D01*
X103817862Y-107050117D01*
X103747546Y-107108288D01*
X103518046Y-107232378D01*
X103268805Y-107309531D01*
X102978911Y-107340000D01*
X94675363Y-107340000D01*
X94730566Y-107323975D01*
X95540879Y-106903275D01*
X95633803Y-106841185D01*
X95906087Y-106500000D01*
X97861928Y-106500000D01*
X97874188Y-106624482D01*
X97910498Y-106744180D01*
X97969463Y-106854494D01*
X98048815Y-106951185D01*
X98145506Y-107030537D01*
X98255820Y-107089502D01*
X98375518Y-107125812D01*
X98500000Y-107138072D01*
X100714250Y-107135000D01*
X100873000Y-106976250D01*
X100873000Y-105127000D01*
X98023750Y-105127000D01*
X97865000Y-105285750D01*
X97861928Y-106500000D01*
X95906087Y-106500000D01*
X96089975Y-106269580D01*
X93000000Y-103179605D01*
X89910025Y-106269580D01*
X90366197Y-106841185D01*
X91166183Y-107281207D01*
X91351945Y-107340000D01*
X68675363Y-107340000D01*
X68730566Y-107323975D01*
X69540879Y-106903275D01*
X69633803Y-106841185D01*
X70089975Y-106269580D01*
X67000000Y-103179605D01*
X63910025Y-106269580D01*
X64366197Y-106841185D01*
X65166183Y-107281207D01*
X65351945Y-107340000D01*
X57032279Y-107340000D01*
X56740340Y-107311375D01*
X56490571Y-107235965D01*
X56260206Y-107113477D01*
X56183245Y-107050709D01*
X56255820Y-107089502D01*
X56375518Y-107125812D01*
X56500000Y-107138072D01*
X58714250Y-107135000D01*
X58873000Y-106976250D01*
X58873000Y-105127000D01*
X59127000Y-105127000D01*
X59127000Y-106976250D01*
X59285750Y-107135000D01*
X61500000Y-107138072D01*
X61624482Y-107125812D01*
X61744180Y-107089502D01*
X61854494Y-107030537D01*
X61951185Y-106951185D01*
X62030537Y-106854494D01*
X62089502Y-106744180D01*
X62125812Y-106624482D01*
X62138072Y-106500000D01*
X62135000Y-105285750D01*
X61976250Y-105127000D01*
X59127000Y-105127000D01*
X58873000Y-105127000D01*
X56023750Y-105127000D01*
X55865000Y-105285750D01*
X55861928Y-106500000D01*
X55874188Y-106624482D01*
X55910498Y-106744180D01*
X55949883Y-106817862D01*
X55891712Y-106747546D01*
X55767622Y-106518046D01*
X55690469Y-106268805D01*
X55660000Y-105978911D01*
X55660000Y-100250000D01*
X55861928Y-100250000D01*
X55861928Y-101750000D01*
X55888599Y-102020799D01*
X55967589Y-102281192D01*
X56095860Y-102521171D01*
X56268485Y-102731515D01*
X56435173Y-102868313D01*
X56375518Y-102874188D01*
X56255820Y-102910498D01*
X56145506Y-102969463D01*
X56048815Y-103048815D01*
X55969463Y-103145506D01*
X55910498Y-103255820D01*
X55874188Y-103375518D01*
X55861928Y-103500000D01*
X55865000Y-104714250D01*
X56023750Y-104873000D01*
X58873000Y-104873000D01*
X58873000Y-104853000D01*
X59127000Y-104853000D01*
X59127000Y-104873000D01*
X61976250Y-104873000D01*
X62135000Y-104714250D01*
X62138072Y-103500000D01*
X62125812Y-103375518D01*
X62089502Y-103255820D01*
X62030537Y-103145506D01*
X61951185Y-103048815D01*
X61854494Y-102969463D01*
X61807084Y-102944121D01*
X62342909Y-102944121D01*
X62421492Y-103853748D01*
X62676025Y-104730566D01*
X63096725Y-105540879D01*
X63158815Y-105633803D01*
X63730420Y-106089975D01*
X66820395Y-103000000D01*
X67179605Y-103000000D01*
X70269580Y-106089975D01*
X70841185Y-105633803D01*
X71281207Y-104833817D01*
X71556704Y-103963359D01*
X71657091Y-103055879D01*
X71647437Y-102944121D01*
X88342909Y-102944121D01*
X88421492Y-103853748D01*
X88676025Y-104730566D01*
X89096725Y-105540879D01*
X89158815Y-105633803D01*
X89730420Y-106089975D01*
X92820395Y-103000000D01*
X93179605Y-103000000D01*
X96269580Y-106089975D01*
X96841185Y-105633803D01*
X97281207Y-104833817D01*
X97556704Y-103963359D01*
X97657091Y-103055879D01*
X97578508Y-102146252D01*
X97323975Y-101269434D01*
X96903275Y-100459121D01*
X96841185Y-100366197D01*
X96695585Y-100250000D01*
X97861928Y-100250000D01*
X97861928Y-101750000D01*
X97888599Y-102020799D01*
X97967589Y-102281192D01*
X98095860Y-102521171D01*
X98268485Y-102731515D01*
X98435173Y-102868313D01*
X98375518Y-102874188D01*
X98255820Y-102910498D01*
X98145506Y-102969463D01*
X98048815Y-103048815D01*
X97969463Y-103145506D01*
X97910498Y-103255820D01*
X97874188Y-103375518D01*
X97861928Y-103500000D01*
X97865000Y-104714250D01*
X98023750Y-104873000D01*
X100873000Y-104873000D01*
X100873000Y-104853000D01*
X101127000Y-104853000D01*
X101127000Y-104873000D01*
X103976250Y-104873000D01*
X104135000Y-104714250D01*
X104138072Y-103500000D01*
X104125812Y-103375518D01*
X104089502Y-103255820D01*
X104030537Y-103145506D01*
X103951185Y-103048815D01*
X103854494Y-102969463D01*
X103744180Y-102910498D01*
X103624482Y-102874188D01*
X103564827Y-102868313D01*
X103731515Y-102731515D01*
X103904140Y-102521171D01*
X104032411Y-102281192D01*
X104111401Y-102020799D01*
X104138072Y-101750000D01*
X104138072Y-100250000D01*
X104111401Y-99979201D01*
X104032411Y-99718808D01*
X103904140Y-99478829D01*
X103731515Y-99268485D01*
X103521171Y-99095860D01*
X103281192Y-98967589D01*
X103020799Y-98888599D01*
X102750000Y-98861928D01*
X99250000Y-98861928D01*
X98979201Y-98888599D01*
X98718808Y-98967589D01*
X98478829Y-99095860D01*
X98268485Y-99268485D01*
X98095860Y-99478829D01*
X97967589Y-99718808D01*
X97888599Y-99979201D01*
X97861928Y-100250000D01*
X96695585Y-100250000D01*
X96269580Y-99910025D01*
X93179605Y-103000000D01*
X92820395Y-103000000D01*
X89730420Y-99910025D01*
X89158815Y-100366197D01*
X88718793Y-101166183D01*
X88443296Y-102036641D01*
X88342909Y-102944121D01*
X71647437Y-102944121D01*
X71578508Y-102146252D01*
X71323975Y-101269434D01*
X70903275Y-100459121D01*
X70841185Y-100366197D01*
X70269580Y-99910025D01*
X67179605Y-103000000D01*
X66820395Y-103000000D01*
X63730420Y-99910025D01*
X63158815Y-100366197D01*
X62718793Y-101166183D01*
X62443296Y-102036641D01*
X62342909Y-102944121D01*
X61807084Y-102944121D01*
X61744180Y-102910498D01*
X61624482Y-102874188D01*
X61564827Y-102868313D01*
X61731515Y-102731515D01*
X61904140Y-102521171D01*
X62032411Y-102281192D01*
X62111401Y-102020799D01*
X62138072Y-101750000D01*
X62138072Y-100250000D01*
X62111401Y-99979201D01*
X62035934Y-99730420D01*
X63910025Y-99730420D01*
X67000000Y-102820395D01*
X70089975Y-99730420D01*
X89910025Y-99730420D01*
X93000000Y-102820395D01*
X96089975Y-99730420D01*
X95633803Y-99158815D01*
X94833817Y-98718793D01*
X93963359Y-98443296D01*
X93055879Y-98342909D01*
X92146252Y-98421492D01*
X91269434Y-98676025D01*
X90459121Y-99096725D01*
X90366197Y-99158815D01*
X89910025Y-99730420D01*
X70089975Y-99730420D01*
X69633803Y-99158815D01*
X68833817Y-98718793D01*
X67963359Y-98443296D01*
X67055879Y-98342909D01*
X66146252Y-98421492D01*
X65269434Y-98676025D01*
X64459121Y-99096725D01*
X64366197Y-99158815D01*
X63910025Y-99730420D01*
X62035934Y-99730420D01*
X62032411Y-99718808D01*
X61904140Y-99478829D01*
X61731515Y-99268485D01*
X61521171Y-99095860D01*
X61281192Y-98967589D01*
X61020799Y-98888599D01*
X60750000Y-98861928D01*
X57250000Y-98861928D01*
X56979201Y-98888599D01*
X56718808Y-98967589D01*
X56478829Y-99095860D01*
X56268485Y-99268485D01*
X56095860Y-99478829D01*
X55967589Y-99718808D01*
X55888599Y-99979201D01*
X55861928Y-100250000D01*
X55660000Y-100250000D01*
X55660000Y-93269580D01*
X56910025Y-93269580D01*
X57366197Y-93841185D01*
X58166183Y-94281207D01*
X59036641Y-94556704D01*
X59944121Y-94657091D01*
X60853748Y-94578508D01*
X61730566Y-94323975D01*
X62540879Y-93903275D01*
X62633803Y-93841185D01*
X63089975Y-93269580D01*
X60000000Y-90179605D01*
X56910025Y-93269580D01*
X55660000Y-93269580D01*
X55660000Y-91675363D01*
X55676025Y-91730566D01*
X56096725Y-92540879D01*
X56158815Y-92633803D01*
X56730420Y-93089975D01*
X59820395Y-90000000D01*
X60179605Y-90000000D01*
X63269580Y-93089975D01*
X63841185Y-92633803D01*
X64281207Y-91833817D01*
X64556704Y-90963359D01*
X64657091Y-90055879D01*
X64595809Y-89346510D01*
X73365000Y-89346510D01*
X73365000Y-90653490D01*
X73619979Y-91935358D01*
X74120139Y-93142851D01*
X74846259Y-94229566D01*
X75770434Y-95153741D01*
X76857149Y-95879861D01*
X78064642Y-96380021D01*
X79346510Y-96635000D01*
X80653490Y-96635000D01*
X81935358Y-96380021D01*
X83142851Y-95879861D01*
X84229566Y-95153741D01*
X85153741Y-94229566D01*
X85795183Y-93269580D01*
X96910025Y-93269580D01*
X97366197Y-93841185D01*
X98166183Y-94281207D01*
X99036641Y-94556704D01*
X99944121Y-94657091D01*
X100853748Y-94578508D01*
X101730566Y-94323975D01*
X102540879Y-93903275D01*
X102633803Y-93841185D01*
X103089975Y-93269580D01*
X100000000Y-90179605D01*
X96910025Y-93269580D01*
X85795183Y-93269580D01*
X85879861Y-93142851D01*
X86380021Y-91935358D01*
X86635000Y-90653490D01*
X86635000Y-89944121D01*
X95342909Y-89944121D01*
X95421492Y-90853748D01*
X95676025Y-91730566D01*
X96096725Y-92540879D01*
X96158815Y-92633803D01*
X96730420Y-93089975D01*
X99820395Y-90000000D01*
X96730420Y-86910025D01*
X96158815Y-87366197D01*
X95718793Y-88166183D01*
X95443296Y-89036641D01*
X95342909Y-89944121D01*
X86635000Y-89944121D01*
X86635000Y-89346510D01*
X86380021Y-88064642D01*
X85879861Y-86857149D01*
X85795184Y-86730420D01*
X96910025Y-86730420D01*
X100000000Y-89820395D01*
X103089975Y-86730420D01*
X102633803Y-86158815D01*
X101833817Y-85718793D01*
X100963359Y-85443296D01*
X100055879Y-85342909D01*
X99146252Y-85421492D01*
X98269434Y-85676025D01*
X97459121Y-86096725D01*
X97366197Y-86158815D01*
X96910025Y-86730420D01*
X85795184Y-86730420D01*
X85153741Y-85770434D01*
X84229566Y-84846259D01*
X83142851Y-84120139D01*
X81935358Y-83619979D01*
X80653490Y-83365000D01*
X79346510Y-83365000D01*
X78064642Y-83619979D01*
X76857149Y-84120139D01*
X75770434Y-84846259D01*
X74846259Y-85770434D01*
X74120139Y-86857149D01*
X73619979Y-88064642D01*
X73365000Y-89346510D01*
X64595809Y-89346510D01*
X64578508Y-89146252D01*
X64323975Y-88269434D01*
X63903275Y-87459121D01*
X63841185Y-87366197D01*
X63269580Y-86910025D01*
X60179605Y-90000000D01*
X59820395Y-90000000D01*
X56730420Y-86910025D01*
X56158815Y-87366197D01*
X55718793Y-88166183D01*
X55660000Y-88351945D01*
X55660000Y-86730420D01*
X56910025Y-86730420D01*
X60000000Y-89820395D01*
X63089975Y-86730420D01*
X62633803Y-86158815D01*
X61833817Y-85718793D01*
X60963359Y-85443296D01*
X60055879Y-85342909D01*
X59146252Y-85421492D01*
X58269434Y-85676025D01*
X57459121Y-86096725D01*
X57366197Y-86158815D01*
X56910025Y-86730420D01*
X55660000Y-86730420D01*
X55660000Y-84032279D01*
X55688625Y-83740341D01*
X55764035Y-83490571D01*
X55886522Y-83260208D01*
X56051422Y-83058020D01*
X56252450Y-82891714D01*
X56481954Y-82767622D01*
X56731195Y-82690469D01*
X57021088Y-82660000D01*
X102967721Y-82660000D01*
X103259659Y-82688625D01*
G04 #@! TA.AperFunction,Conductor*
D13*
G36*
X103259659Y-82688625D02*
G01*
X103509429Y-82764035D01*
X103739792Y-82886522D01*
X103941980Y-83051422D01*
X104108286Y-83252450D01*
X104232378Y-83481954D01*
X104309531Y-83731195D01*
X104340000Y-84021089D01*
X104340000Y-88324638D01*
X104323975Y-88269434D01*
X103903275Y-87459121D01*
X103841185Y-87366197D01*
X103269580Y-86910025D01*
X100179605Y-90000000D01*
X103269580Y-93089975D01*
X103841185Y-92633803D01*
X104281207Y-91833817D01*
X104340000Y-91648054D01*
X104340001Y-105967711D01*
X104311375Y-106259660D01*
X104235965Y-106509429D01*
X104113477Y-106739794D01*
X104050709Y-106816755D01*
X104089502Y-106744180D01*
X104125812Y-106624482D01*
X104138072Y-106500000D01*
X104135000Y-105285750D01*
X103976250Y-105127000D01*
X101127000Y-105127000D01*
X101127000Y-106976250D01*
X101285750Y-107135000D01*
X103500000Y-107138072D01*
X103624482Y-107125812D01*
X103744180Y-107089502D01*
X103817862Y-107050117D01*
X103747546Y-107108288D01*
X103518046Y-107232378D01*
X103268805Y-107309531D01*
X102978911Y-107340000D01*
X94675363Y-107340000D01*
X94730566Y-107323975D01*
X95540879Y-106903275D01*
X95633803Y-106841185D01*
X95906087Y-106500000D01*
X97861928Y-106500000D01*
X97874188Y-106624482D01*
X97910498Y-106744180D01*
X97969463Y-106854494D01*
X98048815Y-106951185D01*
X98145506Y-107030537D01*
X98255820Y-107089502D01*
X98375518Y-107125812D01*
X98500000Y-107138072D01*
X100714250Y-107135000D01*
X100873000Y-106976250D01*
X100873000Y-105127000D01*
X98023750Y-105127000D01*
X97865000Y-105285750D01*
X97861928Y-106500000D01*
X95906087Y-106500000D01*
X96089975Y-106269580D01*
X93000000Y-103179605D01*
X89910025Y-106269580D01*
X90366197Y-106841185D01*
X91166183Y-107281207D01*
X91351945Y-107340000D01*
X68675363Y-107340000D01*
X68730566Y-107323975D01*
X69540879Y-106903275D01*
X69633803Y-106841185D01*
X70089975Y-106269580D01*
X67000000Y-103179605D01*
X63910025Y-106269580D01*
X64366197Y-106841185D01*
X65166183Y-107281207D01*
X65351945Y-107340000D01*
X57032279Y-107340000D01*
X56740340Y-107311375D01*
X56490571Y-107235965D01*
X56260206Y-107113477D01*
X56183245Y-107050709D01*
X56255820Y-107089502D01*
X56375518Y-107125812D01*
X56500000Y-107138072D01*
X58714250Y-107135000D01*
X58873000Y-106976250D01*
X58873000Y-105127000D01*
X59127000Y-105127000D01*
X59127000Y-106976250D01*
X59285750Y-107135000D01*
X61500000Y-107138072D01*
X61624482Y-107125812D01*
X61744180Y-107089502D01*
X61854494Y-107030537D01*
X61951185Y-106951185D01*
X62030537Y-106854494D01*
X62089502Y-106744180D01*
X62125812Y-106624482D01*
X62138072Y-106500000D01*
X62135000Y-105285750D01*
X61976250Y-105127000D01*
X59127000Y-105127000D01*
X58873000Y-105127000D01*
X56023750Y-105127000D01*
X55865000Y-105285750D01*
X55861928Y-106500000D01*
X55874188Y-106624482D01*
X55910498Y-106744180D01*
X55949883Y-106817862D01*
X55891712Y-106747546D01*
X55767622Y-106518046D01*
X55690469Y-106268805D01*
X55660000Y-105978911D01*
X55660000Y-100250000D01*
X55861928Y-100250000D01*
X55861928Y-101750000D01*
X55888599Y-102020799D01*
X55967589Y-102281192D01*
X56095860Y-102521171D01*
X56268485Y-102731515D01*
X56435173Y-102868313D01*
X56375518Y-102874188D01*
X56255820Y-102910498D01*
X56145506Y-102969463D01*
X56048815Y-103048815D01*
X55969463Y-103145506D01*
X55910498Y-103255820D01*
X55874188Y-103375518D01*
X55861928Y-103500000D01*
X55865000Y-104714250D01*
X56023750Y-104873000D01*
X58873000Y-104873000D01*
X58873000Y-104853000D01*
X59127000Y-104853000D01*
X59127000Y-104873000D01*
X61976250Y-104873000D01*
X62135000Y-104714250D01*
X62138072Y-103500000D01*
X62125812Y-103375518D01*
X62089502Y-103255820D01*
X62030537Y-103145506D01*
X61951185Y-103048815D01*
X61854494Y-102969463D01*
X61807084Y-102944121D01*
X62342909Y-102944121D01*
X62421492Y-103853748D01*
X62676025Y-104730566D01*
X63096725Y-105540879D01*
X63158815Y-105633803D01*
X63730420Y-106089975D01*
X66820395Y-103000000D01*
X67179605Y-103000000D01*
X70269580Y-106089975D01*
X70841185Y-105633803D01*
X71281207Y-104833817D01*
X71556704Y-103963359D01*
X71657091Y-103055879D01*
X71647437Y-102944121D01*
X88342909Y-102944121D01*
X88421492Y-103853748D01*
X88676025Y-104730566D01*
X89096725Y-105540879D01*
X89158815Y-105633803D01*
X89730420Y-106089975D01*
X92820395Y-103000000D01*
X93179605Y-103000000D01*
X96269580Y-106089975D01*
X96841185Y-105633803D01*
X97281207Y-104833817D01*
X97556704Y-103963359D01*
X97657091Y-103055879D01*
X97578508Y-102146252D01*
X97323975Y-101269434D01*
X96903275Y-100459121D01*
X96841185Y-100366197D01*
X96695585Y-100250000D01*
X97861928Y-100250000D01*
X97861928Y-101750000D01*
X97888599Y-102020799D01*
X97967589Y-102281192D01*
X98095860Y-102521171D01*
X98268485Y-102731515D01*
X98435173Y-102868313D01*
X98375518Y-102874188D01*
X98255820Y-102910498D01*
X98145506Y-102969463D01*
X98048815Y-103048815D01*
X97969463Y-103145506D01*
X97910498Y-103255820D01*
X97874188Y-103375518D01*
X97861928Y-103500000D01*
X97865000Y-104714250D01*
X98023750Y-104873000D01*
X100873000Y-104873000D01*
X100873000Y-104853000D01*
X101127000Y-104853000D01*
X101127000Y-104873000D01*
X103976250Y-104873000D01*
X104135000Y-104714250D01*
X104138072Y-103500000D01*
X104125812Y-103375518D01*
X104089502Y-103255820D01*
X104030537Y-103145506D01*
X103951185Y-103048815D01*
X103854494Y-102969463D01*
X103744180Y-102910498D01*
X103624482Y-102874188D01*
X103564827Y-102868313D01*
X103731515Y-102731515D01*
X103904140Y-102521171D01*
X104032411Y-102281192D01*
X104111401Y-102020799D01*
X104138072Y-101750000D01*
X104138072Y-100250000D01*
X104111401Y-99979201D01*
X104032411Y-99718808D01*
X103904140Y-99478829D01*
X103731515Y-99268485D01*
X103521171Y-99095860D01*
X103281192Y-98967589D01*
X103020799Y-98888599D01*
X102750000Y-98861928D01*
X99250000Y-98861928D01*
X98979201Y-98888599D01*
X98718808Y-98967589D01*
X98478829Y-99095860D01*
X98268485Y-99268485D01*
X98095860Y-99478829D01*
X97967589Y-99718808D01*
X97888599Y-99979201D01*
X97861928Y-100250000D01*
X96695585Y-100250000D01*
X96269580Y-99910025D01*
X93179605Y-103000000D01*
X92820395Y-103000000D01*
X89730420Y-99910025D01*
X89158815Y-100366197D01*
X88718793Y-101166183D01*
X88443296Y-102036641D01*
X88342909Y-102944121D01*
X71647437Y-102944121D01*
X71578508Y-102146252D01*
X71323975Y-101269434D01*
X70903275Y-100459121D01*
X70841185Y-100366197D01*
X70269580Y-99910025D01*
X67179605Y-103000000D01*
X66820395Y-103000000D01*
X63730420Y-99910025D01*
X63158815Y-100366197D01*
X62718793Y-101166183D01*
X62443296Y-102036641D01*
X62342909Y-102944121D01*
X61807084Y-102944121D01*
X61744180Y-102910498D01*
X61624482Y-102874188D01*
X61564827Y-102868313D01*
X61731515Y-102731515D01*
X61904140Y-102521171D01*
X62032411Y-102281192D01*
X62111401Y-102020799D01*
X62138072Y-101750000D01*
X62138072Y-100250000D01*
X62111401Y-99979201D01*
X62035934Y-99730420D01*
X63910025Y-99730420D01*
X67000000Y-102820395D01*
X70089975Y-99730420D01*
X89910025Y-99730420D01*
X93000000Y-102820395D01*
X96089975Y-99730420D01*
X95633803Y-99158815D01*
X94833817Y-98718793D01*
X93963359Y-98443296D01*
X93055879Y-98342909D01*
X92146252Y-98421492D01*
X91269434Y-98676025D01*
X90459121Y-99096725D01*
X90366197Y-99158815D01*
X89910025Y-99730420D01*
X70089975Y-99730420D01*
X69633803Y-99158815D01*
X68833817Y-98718793D01*
X67963359Y-98443296D01*
X67055879Y-98342909D01*
X66146252Y-98421492D01*
X65269434Y-98676025D01*
X64459121Y-99096725D01*
X64366197Y-99158815D01*
X63910025Y-99730420D01*
X62035934Y-99730420D01*
X62032411Y-99718808D01*
X61904140Y-99478829D01*
X61731515Y-99268485D01*
X61521171Y-99095860D01*
X61281192Y-98967589D01*
X61020799Y-98888599D01*
X60750000Y-98861928D01*
X57250000Y-98861928D01*
X56979201Y-98888599D01*
X56718808Y-98967589D01*
X56478829Y-99095860D01*
X56268485Y-99268485D01*
X56095860Y-99478829D01*
X55967589Y-99718808D01*
X55888599Y-99979201D01*
X55861928Y-100250000D01*
X55660000Y-100250000D01*
X55660000Y-93269580D01*
X56910025Y-93269580D01*
X57366197Y-93841185D01*
X58166183Y-94281207D01*
X59036641Y-94556704D01*
X59944121Y-94657091D01*
X60853748Y-94578508D01*
X61730566Y-94323975D01*
X62540879Y-93903275D01*
X62633803Y-93841185D01*
X63089975Y-93269580D01*
X60000000Y-90179605D01*
X56910025Y-93269580D01*
X55660000Y-93269580D01*
X55660000Y-91675363D01*
X55676025Y-91730566D01*
X56096725Y-92540879D01*
X56158815Y-92633803D01*
X56730420Y-93089975D01*
X59820395Y-90000000D01*
X60179605Y-90000000D01*
X63269580Y-93089975D01*
X63841185Y-92633803D01*
X64281207Y-91833817D01*
X64556704Y-90963359D01*
X64657091Y-90055879D01*
X64595809Y-89346510D01*
X73365000Y-89346510D01*
X73365000Y-90653490D01*
X73619979Y-91935358D01*
X74120139Y-93142851D01*
X74846259Y-94229566D01*
X75770434Y-95153741D01*
X76857149Y-95879861D01*
X78064642Y-96380021D01*
X79346510Y-96635000D01*
X80653490Y-96635000D01*
X81935358Y-96380021D01*
X83142851Y-95879861D01*
X84229566Y-95153741D01*
X85153741Y-94229566D01*
X85795183Y-93269580D01*
X96910025Y-93269580D01*
X97366197Y-93841185D01*
X98166183Y-94281207D01*
X99036641Y-94556704D01*
X99944121Y-94657091D01*
X100853748Y-94578508D01*
X101730566Y-94323975D01*
X102540879Y-93903275D01*
X102633803Y-93841185D01*
X103089975Y-93269580D01*
X100000000Y-90179605D01*
X96910025Y-93269580D01*
X85795183Y-93269580D01*
X85879861Y-93142851D01*
X86380021Y-91935358D01*
X86635000Y-90653490D01*
X86635000Y-89944121D01*
X95342909Y-89944121D01*
X95421492Y-90853748D01*
X95676025Y-91730566D01*
X96096725Y-92540879D01*
X96158815Y-92633803D01*
X96730420Y-93089975D01*
X99820395Y-90000000D01*
X96730420Y-86910025D01*
X96158815Y-87366197D01*
X95718793Y-88166183D01*
X95443296Y-89036641D01*
X95342909Y-89944121D01*
X86635000Y-89944121D01*
X86635000Y-89346510D01*
X86380021Y-88064642D01*
X85879861Y-86857149D01*
X85795184Y-86730420D01*
X96910025Y-86730420D01*
X100000000Y-89820395D01*
X103089975Y-86730420D01*
X102633803Y-86158815D01*
X101833817Y-85718793D01*
X100963359Y-85443296D01*
X100055879Y-85342909D01*
X99146252Y-85421492D01*
X98269434Y-85676025D01*
X97459121Y-86096725D01*
X97366197Y-86158815D01*
X96910025Y-86730420D01*
X85795184Y-86730420D01*
X85153741Y-85770434D01*
X84229566Y-84846259D01*
X83142851Y-84120139D01*
X81935358Y-83619979D01*
X80653490Y-83365000D01*
X79346510Y-83365000D01*
X78064642Y-83619979D01*
X76857149Y-84120139D01*
X75770434Y-84846259D01*
X74846259Y-85770434D01*
X74120139Y-86857149D01*
X73619979Y-88064642D01*
X73365000Y-89346510D01*
X64595809Y-89346510D01*
X64578508Y-89146252D01*
X64323975Y-88269434D01*
X63903275Y-87459121D01*
X63841185Y-87366197D01*
X63269580Y-86910025D01*
X60179605Y-90000000D01*
X59820395Y-90000000D01*
X56730420Y-86910025D01*
X56158815Y-87366197D01*
X55718793Y-88166183D01*
X55660000Y-88351945D01*
X55660000Y-86730420D01*
X56910025Y-86730420D01*
X60000000Y-89820395D01*
X63089975Y-86730420D01*
X62633803Y-86158815D01*
X61833817Y-85718793D01*
X60963359Y-85443296D01*
X60055879Y-85342909D01*
X59146252Y-85421492D01*
X58269434Y-85676025D01*
X57459121Y-86096725D01*
X57366197Y-86158815D01*
X56910025Y-86730420D01*
X55660000Y-86730420D01*
X55660000Y-84032279D01*
X55688625Y-83740341D01*
X55764035Y-83490571D01*
X55886522Y-83260208D01*
X56051422Y-83058020D01*
X56252450Y-82891714D01*
X56481954Y-82767622D01*
X56731195Y-82690469D01*
X57021088Y-82660000D01*
X102967721Y-82660000D01*
X103259659Y-82688625D01*
G37*
G04 #@! TD.AperFunction*
M02*
