G04 #@! TF.GenerationSoftware,KiCad,Pcbnew,5.1.9+dfsg1-1*
G04 #@! TF.CreationDate,2023-01-30T08:20:38+09:00*
G04 #@! TF.ProjectId,bottom,626f7474-6f6d-42e6-9b69-6361645f7063,rev?*
G04 #@! TF.SameCoordinates,Original*
G04 #@! TF.FileFunction,Soldermask,Bot*
G04 #@! TF.FilePolarity,Negative*
%FSLAX46Y46*%
G04 Gerber Fmt 4.6, Leading zero omitted, Abs format (unit mm)*
G04 Created by KiCad (PCBNEW 5.1.9+dfsg1-1) date 2023-01-30 08:20:38*
%MOMM*%
%LPD*%
G01*
G04 APERTURE LIST*
%ADD10C,8.000000*%
%ADD11C,12.000000*%
G04 APERTURE END LIST*
D10*
X60000000Y-90000000D03*
X67000000Y-103000000D03*
X100000000Y-90000000D03*
G36*
G01*
X57250000Y-99500000D02*
X60750000Y-99500000D01*
G75*
G02*
X61500000Y-100250000I0J-750000D01*
G01*
X61500000Y-101750000D01*
G75*
G02*
X60750000Y-102500000I-750000J0D01*
G01*
X57250000Y-102500000D01*
G75*
G02*
X56500000Y-101750000I0J750000D01*
G01*
X56500000Y-100250000D01*
G75*
G02*
X57250000Y-99500000I750000J0D01*
G01*
G37*
G36*
G01*
X57250000Y-103500000D02*
X60750000Y-103500000D01*
G75*
G02*
X61500000Y-104250000I0J-750000D01*
G01*
X61500000Y-105750000D01*
G75*
G02*
X60750000Y-106500000I-750000J0D01*
G01*
X57250000Y-106500000D01*
G75*
G02*
X56500000Y-105750000I0J750000D01*
G01*
X56500000Y-104250000D01*
G75*
G02*
X57250000Y-103500000I750000J0D01*
G01*
G37*
G36*
G01*
X99250000Y-103500000D02*
X102750000Y-103500000D01*
G75*
G02*
X103500000Y-104250000I0J-750000D01*
G01*
X103500000Y-105750000D01*
G75*
G02*
X102750000Y-106500000I-750000J0D01*
G01*
X99250000Y-106500000D01*
G75*
G02*
X98500000Y-105750000I0J750000D01*
G01*
X98500000Y-104250000D01*
G75*
G02*
X99250000Y-103500000I750000J0D01*
G01*
G37*
G36*
G01*
X99250000Y-99500000D02*
X102750000Y-99500000D01*
G75*
G02*
X103500000Y-100250000I0J-750000D01*
G01*
X103500000Y-101750000D01*
G75*
G02*
X102750000Y-102500000I-750000J0D01*
G01*
X99250000Y-102500000D01*
G75*
G02*
X98500000Y-101750000I0J750000D01*
G01*
X98500000Y-100250000D01*
G75*
G02*
X99250000Y-99500000I750000J0D01*
G01*
G37*
X93000000Y-103000000D03*
D11*
X80000000Y-90000000D03*
M02*
