G04 #@! TF.GenerationSoftware,KiCad,Pcbnew,5.1.9+dfsg1-1*
G04 #@! TF.CreationDate,2023-03-08T14:36:01+09:00*
G04 #@! TF.ProjectId,top,746f702e-6b69-4636-9164-5f7063625858,rev?*
G04 #@! TF.SameCoordinates,Original*
G04 #@! TF.FileFunction,Profile,NP*
%FSLAX46Y46*%
G04 Gerber Fmt 4.6, Leading zero omitted, Abs format (unit mm)*
G04 Created by KiCad (PCBNEW 5.1.9+dfsg1-1) date 2023-03-08 14:36:01*
%MOMM*%
%LPD*%
G01*
G04 APERTURE LIST*
G04 #@! TA.AperFunction,Profile*
%ADD10C,0.050000*%
G04 #@! TD*
G04 APERTURE END LIST*
D10*
X165344828Y-99859409D02*
G75*
G02*
X165000000Y-99997340I-344828J362069D01*
G01*
X180000000Y-126497340D02*
G75*
G02*
X179500000Y-126997340I-500000J0D01*
G01*
X170500000Y-126997340D02*
X179500000Y-126997340D01*
X169689655Y-122951113D02*
G75*
G02*
X170000000Y-123413748I-189655J-462635D01*
G01*
X197000000Y-99997340D02*
X185000000Y-99997340D01*
X167000000Y-96497340D02*
G75*
G02*
X167500000Y-95997340I500000J0D01*
G01*
X167000000Y-96497340D02*
X167000000Y-98250000D01*
X153000000Y-119997340D02*
X165000000Y-119997340D01*
X170000000Y-123413748D02*
X170000000Y-126497340D01*
X183000000Y-98250000D02*
X183000000Y-96497340D01*
X150000000Y-102997340D02*
G75*
G02*
X153000000Y-99997340I3000000J0D01*
G01*
X183206896Y-98655080D02*
G75*
G02*
X184655172Y-99859409I-8206896J-11342260D01*
G01*
X165344828Y-99859410D02*
G75*
G02*
X166793104Y-98655081I9655172J-10137930D01*
G01*
X165000000Y-99997340D02*
X153000000Y-99997340D01*
X170500000Y-126997340D02*
G75*
G02*
X170000000Y-126497340I0J500000D01*
G01*
X150000000Y-102997340D02*
X150000000Y-116997340D01*
X180000000Y-126497340D02*
X180000000Y-123413748D01*
X182500000Y-95997340D02*
X167500000Y-95997340D01*
X167000001Y-98250000D02*
G75*
G02*
X166793104Y-98655081I-500001J0D01*
G01*
X185000000Y-119997340D02*
X197000000Y-119997340D01*
X184655172Y-120135272D02*
G75*
G02*
X180310344Y-122951113I-9655172J10137932D01*
G01*
X200000000Y-116997340D02*
G75*
G02*
X197000000Y-119997340I-3000000J0D01*
G01*
X184655172Y-120135271D02*
G75*
G02*
X185000000Y-119997340I344828J-362069D01*
G01*
X179999999Y-123413749D02*
G75*
G02*
X180310344Y-122951113I500001J1D01*
G01*
X185000000Y-99997340D02*
G75*
G02*
X184655172Y-99859409I0J500000D01*
G01*
X200000000Y-116997340D02*
X200000000Y-102997340D01*
X182500000Y-95997340D02*
G75*
G02*
X183000000Y-96497340I0J-500000D01*
G01*
X165000000Y-119997340D02*
G75*
G02*
X165344828Y-120135271I0J-500000D01*
G01*
X169689655Y-122951113D02*
G75*
G02*
X165344828Y-120135271I5310345J12953773D01*
G01*
X153000000Y-119997340D02*
G75*
G02*
X150000000Y-116997340I0J3000000D01*
G01*
X197000000Y-99997340D02*
G75*
G02*
X200000000Y-102997340I0J-3000000D01*
G01*
X183206897Y-98655081D02*
G75*
G02*
X183000000Y-98250000I293103J405081D01*
G01*
M02*
