G04 #@! TF.GenerationSoftware,KiCad,Pcbnew,5.1.9+dfsg1-1*
G04 #@! TF.CreationDate,2023-03-08T14:36:01+09:00*
G04 #@! TF.ProjectId,top,746f702e-6b69-4636-9164-5f7063625858,rev?*
G04 #@! TF.SameCoordinates,Original*
G04 #@! TF.FileFunction,Legend,Top*
G04 #@! TF.FilePolarity,Positive*
%FSLAX46Y46*%
G04 Gerber Fmt 4.6, Leading zero omitted, Abs format (unit mm)*
G04 Created by KiCad (PCBNEW 5.1.9+dfsg1-1) date 2023-03-08 14:36:01*
%MOMM*%
%LPD*%
G01*
G04 APERTURE LIST*
%ADD10C,0.150000*%
%ADD11R,3.000000X4.000000*%
%ADD12C,5.000000*%
%ADD13C,6.000000*%
G04 APERTURE END LIST*
D10*
X174666666Y-124202380D02*
X174666666Y-124916666D01*
X174619047Y-125059523D01*
X174523809Y-125154761D01*
X174380952Y-125202380D01*
X174285714Y-125202380D01*
X175666666Y-125202380D02*
X175095238Y-125202380D01*
X175380952Y-125202380D02*
X175380952Y-124202380D01*
X175285714Y-124345238D01*
X175190476Y-124440476D01*
X175095238Y-124488095D01*
X152666666Y-116952380D02*
X152666666Y-117666666D01*
X152619047Y-117809523D01*
X152523809Y-117904761D01*
X152380952Y-117952380D01*
X152285714Y-117952380D01*
X153095238Y-117047619D02*
X153142857Y-117000000D01*
X153238095Y-116952380D01*
X153476190Y-116952380D01*
X153571428Y-117000000D01*
X153619047Y-117047619D01*
X153666666Y-117142857D01*
X153666666Y-117238095D01*
X153619047Y-117380952D01*
X153047619Y-117952380D01*
X153666666Y-117952380D01*
X196666666Y-116952380D02*
X196666666Y-117666666D01*
X196619047Y-117809523D01*
X196523809Y-117904761D01*
X196380952Y-117952380D01*
X196285714Y-117952380D01*
X197047619Y-116952380D02*
X197666666Y-116952380D01*
X197333333Y-117333333D01*
X197476190Y-117333333D01*
X197571428Y-117380952D01*
X197619047Y-117428571D01*
X197666666Y-117523809D01*
X197666666Y-117761904D01*
X197619047Y-117857142D01*
X197571428Y-117904761D01*
X197476190Y-117952380D01*
X197190476Y-117952380D01*
X197095238Y-117904761D01*
X197047619Y-117857142D01*
X152916666Y-109952380D02*
X152916666Y-110666666D01*
X152869047Y-110809523D01*
X152773809Y-110904761D01*
X152630952Y-110952380D01*
X152535714Y-110952380D01*
X153821428Y-110285714D02*
X153821428Y-110952380D01*
X153583333Y-109904761D02*
X153345238Y-110619047D01*
X153964285Y-110619047D01*
X196666666Y-102952380D02*
X196666666Y-103666666D01*
X196619047Y-103809523D01*
X196523809Y-103904761D01*
X196380952Y-103952380D01*
X196285714Y-103952380D01*
X197619047Y-102952380D02*
X197142857Y-102952380D01*
X197095238Y-103428571D01*
X197142857Y-103380952D01*
X197238095Y-103333333D01*
X197476190Y-103333333D01*
X197571428Y-103380952D01*
X197619047Y-103428571D01*
X197666666Y-103523809D01*
X197666666Y-103761904D01*
X197619047Y-103857142D01*
X197571428Y-103904761D01*
X197476190Y-103952380D01*
X197238095Y-103952380D01*
X197142857Y-103904761D01*
X197095238Y-103857142D01*
X196416666Y-109952380D02*
X196416666Y-110666666D01*
X196369047Y-110809523D01*
X196273809Y-110904761D01*
X196130952Y-110952380D01*
X196035714Y-110952380D01*
X197321428Y-109952380D02*
X197130952Y-109952380D01*
X197035714Y-110000000D01*
X196988095Y-110047619D01*
X196892857Y-110190476D01*
X196845238Y-110380952D01*
X196845238Y-110761904D01*
X196892857Y-110857142D01*
X196940476Y-110904761D01*
X197035714Y-110952380D01*
X197226190Y-110952380D01*
X197321428Y-110904761D01*
X197369047Y-110857142D01*
X197416666Y-110761904D01*
X197416666Y-110523809D01*
X197369047Y-110428571D01*
X197321428Y-110380952D01*
X197226190Y-110333333D01*
X197035714Y-110333333D01*
X196940476Y-110380952D01*
X196892857Y-110428571D01*
X196845238Y-110523809D01*
X152666666Y-102952380D02*
X152666666Y-103666666D01*
X152619047Y-103809523D01*
X152523809Y-103904761D01*
X152380952Y-103952380D01*
X152285714Y-103952380D01*
X153047619Y-102952380D02*
X153714285Y-102952380D01*
X153285714Y-103952380D01*
X160666666Y-102952380D02*
X160666666Y-103666666D01*
X160619047Y-103809523D01*
X160523809Y-103904761D01*
X160380952Y-103952380D01*
X160285714Y-103952380D01*
X161285714Y-103380952D02*
X161190476Y-103333333D01*
X161142857Y-103285714D01*
X161095238Y-103190476D01*
X161095238Y-103142857D01*
X161142857Y-103047619D01*
X161190476Y-103000000D01*
X161285714Y-102952380D01*
X161476190Y-102952380D01*
X161571428Y-103000000D01*
X161619047Y-103047619D01*
X161666666Y-103142857D01*
X161666666Y-103190476D01*
X161619047Y-103285714D01*
X161571428Y-103333333D01*
X161476190Y-103380952D01*
X161285714Y-103380952D01*
X161190476Y-103428571D01*
X161142857Y-103476190D01*
X161095238Y-103571428D01*
X161095238Y-103761904D01*
X161142857Y-103857142D01*
X161190476Y-103904761D01*
X161285714Y-103952380D01*
X161476190Y-103952380D01*
X161571428Y-103904761D01*
X161619047Y-103857142D01*
X161666666Y-103761904D01*
X161666666Y-103571428D01*
X161619047Y-103476190D01*
X161571428Y-103428571D01*
X161476190Y-103380952D01*
X188666666Y-102952380D02*
X188666666Y-103666666D01*
X188619047Y-103809523D01*
X188523809Y-103904761D01*
X188380952Y-103952380D01*
X188285714Y-103952380D01*
X189190476Y-103952380D02*
X189380952Y-103952380D01*
X189476190Y-103904761D01*
X189523809Y-103857142D01*
X189619047Y-103714285D01*
X189666666Y-103523809D01*
X189666666Y-103142857D01*
X189619047Y-103047619D01*
X189571428Y-103000000D01*
X189476190Y-102952380D01*
X189285714Y-102952380D01*
X189190476Y-103000000D01*
X189142857Y-103047619D01*
X189095238Y-103142857D01*
X189095238Y-103380952D01*
X189142857Y-103476190D01*
X189190476Y-103523809D01*
X189285714Y-103571428D01*
X189476190Y-103571428D01*
X189571428Y-103523809D01*
X189619047Y-103476190D01*
X189666666Y-103380952D01*
X174393908Y-110538747D02*
X174898984Y-111043823D01*
X174966327Y-111178510D01*
X174966327Y-111313197D01*
X174898984Y-111447884D01*
X174831640Y-111515228D01*
X175808121Y-110538747D02*
X175404060Y-110942808D01*
X175606091Y-110740778D02*
X174898984Y-110033671D01*
X174932656Y-110202030D01*
X174932656Y-110336717D01*
X174898984Y-110437732D01*
X175538747Y-109393908D02*
X175606091Y-109326564D01*
X175707106Y-109292892D01*
X175774449Y-109292892D01*
X175875465Y-109326564D01*
X176043823Y-109427579D01*
X176212182Y-109595938D01*
X176313197Y-109764297D01*
X176346869Y-109865312D01*
X176346869Y-109932656D01*
X176313197Y-110033671D01*
X176245854Y-110101014D01*
X176144839Y-110134686D01*
X176077495Y-110134686D01*
X175976480Y-110101014D01*
X175808121Y-109999999D01*
X175639762Y-109831640D01*
X175538747Y-109663282D01*
X175505075Y-109562266D01*
X175505075Y-109494923D01*
X175538747Y-109393908D01*
%LPC*%
D11*
X172500000Y-124250000D03*
X177500000Y-124250000D03*
D12*
X153000000Y-117000000D03*
X197000000Y-117000000D03*
X153250000Y-110000000D03*
X197000000Y-103000000D03*
X196750000Y-110000000D03*
X153000000Y-103000000D03*
X161000000Y-103000000D03*
X189000000Y-103000000D03*
D13*
X169343146Y-104343146D03*
X180656854Y-104343146D03*
X180656854Y-115656854D03*
X169343146Y-115656854D03*
D12*
X175000000Y-110000000D03*
M02*
