G04 #@! TF.GenerationSoftware,KiCad,Pcbnew,5.1.9+dfsg1-1*
G04 #@! TF.CreationDate,2023-01-27T16:49:02+09:00*
G04 #@! TF.ProjectId,bottom,626f7474-6f6d-42e6-9b69-6361645f7063,rev?*
G04 #@! TF.SameCoordinates,Original*
G04 #@! TF.FileFunction,Copper,L2,Inr*
G04 #@! TF.FilePolarity,Positive*
%FSLAX46Y46*%
G04 Gerber Fmt 4.6, Leading zero omitted, Abs format (unit mm)*
G04 Created by KiCad (PCBNEW 5.1.9+dfsg1-1) date 2023-01-27 16:49:02*
%MOMM*%
%LPD*%
G01*
G04 APERTURE LIST*
G04 #@! TA.AperFunction,ComponentPad*
%ADD10C,8.000000*%
G04 #@! TD*
G04 #@! TA.AperFunction,ComponentPad*
%ADD11C,14.000000*%
G04 #@! TD*
G04 #@! TA.AperFunction,Conductor*
%ADD12C,0.254000*%
G04 #@! TD*
G04 #@! TA.AperFunction,Conductor*
%ADD13C,0.100000*%
G04 #@! TD*
G04 APERTURE END LIST*
D10*
X67000000Y-90000000D03*
X80000000Y-103000000D03*
X93000000Y-90000000D03*
D11*
X80000000Y-90000000D03*
G04 #@! TA.AperFunction,ComponentPad*
G36*
G01*
X64250000Y-99500000D02*
X67750000Y-99500000D01*
G75*
G02*
X68500000Y-100250000I0J-750000D01*
G01*
X68500000Y-101750000D01*
G75*
G02*
X67750000Y-102500000I-750000J0D01*
G01*
X64250000Y-102500000D01*
G75*
G02*
X63500000Y-101750000I0J750000D01*
G01*
X63500000Y-100250000D01*
G75*
G02*
X64250000Y-99500000I750000J0D01*
G01*
G37*
G04 #@! TD.AperFunction*
G04 #@! TA.AperFunction,ComponentPad*
G36*
G01*
X64250000Y-103500000D02*
X67750000Y-103500000D01*
G75*
G02*
X68500000Y-104250000I0J-750000D01*
G01*
X68500000Y-105750000D01*
G75*
G02*
X67750000Y-106500000I-750000J0D01*
G01*
X64250000Y-106500000D01*
G75*
G02*
X63500000Y-105750000I0J750000D01*
G01*
X63500000Y-104250000D01*
G75*
G02*
X64250000Y-103500000I750000J0D01*
G01*
G37*
G04 #@! TD.AperFunction*
G04 #@! TA.AperFunction,ComponentPad*
G36*
G01*
X92250000Y-103500000D02*
X95750000Y-103500000D01*
G75*
G02*
X96500000Y-104250000I0J-750000D01*
G01*
X96500000Y-105750000D01*
G75*
G02*
X95750000Y-106500000I-750000J0D01*
G01*
X92250000Y-106500000D01*
G75*
G02*
X91500000Y-105750000I0J750000D01*
G01*
X91500000Y-104250000D01*
G75*
G02*
X92250000Y-103500000I750000J0D01*
G01*
G37*
G04 #@! TD.AperFunction*
G04 #@! TA.AperFunction,ComponentPad*
G36*
G01*
X92250000Y-99500000D02*
X95750000Y-99500000D01*
G75*
G02*
X96500000Y-100250000I0J-750000D01*
G01*
X96500000Y-101750000D01*
G75*
G02*
X95750000Y-102500000I-750000J0D01*
G01*
X92250000Y-102500000D01*
G75*
G02*
X91500000Y-101750000I0J750000D01*
G01*
X91500000Y-100250000D01*
G75*
G02*
X92250000Y-99500000I750000J0D01*
G01*
G37*
G04 #@! TD.AperFunction*
D12*
X76383471Y-83233950D02*
X75132971Y-84069508D01*
X74069508Y-85132971D01*
X73233950Y-86383471D01*
X72658408Y-87772953D01*
X72365000Y-89248018D01*
X72365000Y-90751982D01*
X72658408Y-92227047D01*
X73233950Y-93616529D01*
X74069508Y-94867029D01*
X75132971Y-95930492D01*
X76383471Y-96766050D01*
X77772953Y-97341592D01*
X79248018Y-97635000D01*
X80751982Y-97635000D01*
X82227047Y-97341592D01*
X83616529Y-96766050D01*
X84867029Y-95930492D01*
X85930492Y-94867029D01*
X86766050Y-93616529D01*
X86909760Y-93269580D01*
X89910025Y-93269580D01*
X90366197Y-93841185D01*
X91166183Y-94281207D01*
X92036641Y-94556704D01*
X92944121Y-94657091D01*
X93853748Y-94578508D01*
X94730566Y-94323975D01*
X95540879Y-93903275D01*
X95633803Y-93841185D01*
X96089975Y-93269580D01*
X93000000Y-90179605D01*
X89910025Y-93269580D01*
X86909760Y-93269580D01*
X87341592Y-92227047D01*
X87635000Y-90751982D01*
X87635000Y-89944121D01*
X88342909Y-89944121D01*
X88421492Y-90853748D01*
X88676025Y-91730566D01*
X89096725Y-92540879D01*
X89158815Y-92633803D01*
X89730420Y-93089975D01*
X92820395Y-90000000D01*
X89730420Y-86910025D01*
X89158815Y-87366197D01*
X88718793Y-88166183D01*
X88443296Y-89036641D01*
X88342909Y-89944121D01*
X87635000Y-89944121D01*
X87635000Y-89248018D01*
X87341592Y-87772953D01*
X86909761Y-86730420D01*
X89910025Y-86730420D01*
X93000000Y-89820395D01*
X96089975Y-86730420D01*
X95633803Y-86158815D01*
X94833817Y-85718793D01*
X93963359Y-85443296D01*
X93055879Y-85342909D01*
X92146252Y-85421492D01*
X91269434Y-85676025D01*
X90459121Y-86096725D01*
X90366197Y-86158815D01*
X89910025Y-86730420D01*
X86909761Y-86730420D01*
X86766050Y-86383471D01*
X85930492Y-85132971D01*
X84867029Y-84069508D01*
X83616529Y-83233950D01*
X82230890Y-82660000D01*
X95967721Y-82660000D01*
X96259659Y-82688625D01*
X96509429Y-82764035D01*
X96739792Y-82886522D01*
X96941980Y-83051422D01*
X97108286Y-83252450D01*
X97232378Y-83481954D01*
X97309531Y-83731195D01*
X97340000Y-84021089D01*
X97340000Y-88324638D01*
X97323975Y-88269434D01*
X96903275Y-87459121D01*
X96841185Y-87366197D01*
X96269580Y-86910025D01*
X93179605Y-90000000D01*
X96269580Y-93089975D01*
X96841185Y-92633803D01*
X97281207Y-91833817D01*
X97340000Y-91648054D01*
X97340001Y-105967711D01*
X97311375Y-106259660D01*
X97235965Y-106509429D01*
X97113477Y-106739794D01*
X97050709Y-106816755D01*
X97089502Y-106744180D01*
X97125812Y-106624482D01*
X97138072Y-106500000D01*
X97135000Y-105285750D01*
X96976250Y-105127000D01*
X94127000Y-105127000D01*
X94127000Y-106976250D01*
X94285750Y-107135000D01*
X96500000Y-107138072D01*
X96624482Y-107125812D01*
X96744180Y-107089502D01*
X96817862Y-107050117D01*
X96747546Y-107108288D01*
X96518046Y-107232378D01*
X96268805Y-107309531D01*
X95978911Y-107340000D01*
X81675363Y-107340000D01*
X81730566Y-107323975D01*
X82540879Y-106903275D01*
X82633803Y-106841185D01*
X82906087Y-106500000D01*
X90861928Y-106500000D01*
X90874188Y-106624482D01*
X90910498Y-106744180D01*
X90969463Y-106854494D01*
X91048815Y-106951185D01*
X91145506Y-107030537D01*
X91255820Y-107089502D01*
X91375518Y-107125812D01*
X91500000Y-107138072D01*
X93714250Y-107135000D01*
X93873000Y-106976250D01*
X93873000Y-105127000D01*
X91023750Y-105127000D01*
X90865000Y-105285750D01*
X90861928Y-106500000D01*
X82906087Y-106500000D01*
X83089975Y-106269580D01*
X80000000Y-103179605D01*
X76910025Y-106269580D01*
X77366197Y-106841185D01*
X78166183Y-107281207D01*
X78351945Y-107340000D01*
X64032279Y-107340000D01*
X63740340Y-107311375D01*
X63490571Y-107235965D01*
X63260206Y-107113477D01*
X63183245Y-107050709D01*
X63255820Y-107089502D01*
X63375518Y-107125812D01*
X63500000Y-107138072D01*
X65714250Y-107135000D01*
X65873000Y-106976250D01*
X65873000Y-105127000D01*
X66127000Y-105127000D01*
X66127000Y-106976250D01*
X66285750Y-107135000D01*
X68500000Y-107138072D01*
X68624482Y-107125812D01*
X68744180Y-107089502D01*
X68854494Y-107030537D01*
X68951185Y-106951185D01*
X69030537Y-106854494D01*
X69089502Y-106744180D01*
X69125812Y-106624482D01*
X69138072Y-106500000D01*
X69135000Y-105285750D01*
X68976250Y-105127000D01*
X66127000Y-105127000D01*
X65873000Y-105127000D01*
X63023750Y-105127000D01*
X62865000Y-105285750D01*
X62861928Y-106500000D01*
X62874188Y-106624482D01*
X62910498Y-106744180D01*
X62949883Y-106817862D01*
X62891712Y-106747546D01*
X62767622Y-106518046D01*
X62690469Y-106268805D01*
X62660000Y-105978911D01*
X62660000Y-100250000D01*
X62861928Y-100250000D01*
X62861928Y-101750000D01*
X62888599Y-102020799D01*
X62967589Y-102281192D01*
X63095860Y-102521171D01*
X63268485Y-102731515D01*
X63435173Y-102868313D01*
X63375518Y-102874188D01*
X63255820Y-102910498D01*
X63145506Y-102969463D01*
X63048815Y-103048815D01*
X62969463Y-103145506D01*
X62910498Y-103255820D01*
X62874188Y-103375518D01*
X62861928Y-103500000D01*
X62865000Y-104714250D01*
X63023750Y-104873000D01*
X65873000Y-104873000D01*
X65873000Y-104853000D01*
X66127000Y-104853000D01*
X66127000Y-104873000D01*
X68976250Y-104873000D01*
X69135000Y-104714250D01*
X69138072Y-103500000D01*
X69125812Y-103375518D01*
X69089502Y-103255820D01*
X69030537Y-103145506D01*
X68951185Y-103048815D01*
X68854494Y-102969463D01*
X68807084Y-102944121D01*
X75342909Y-102944121D01*
X75421492Y-103853748D01*
X75676025Y-104730566D01*
X76096725Y-105540879D01*
X76158815Y-105633803D01*
X76730420Y-106089975D01*
X79820395Y-103000000D01*
X80179605Y-103000000D01*
X83269580Y-106089975D01*
X83841185Y-105633803D01*
X84281207Y-104833817D01*
X84556704Y-103963359D01*
X84657091Y-103055879D01*
X84578508Y-102146252D01*
X84323975Y-101269434D01*
X83903275Y-100459121D01*
X83841185Y-100366197D01*
X83695585Y-100250000D01*
X90861928Y-100250000D01*
X90861928Y-101750000D01*
X90888599Y-102020799D01*
X90967589Y-102281192D01*
X91095860Y-102521171D01*
X91268485Y-102731515D01*
X91435173Y-102868313D01*
X91375518Y-102874188D01*
X91255820Y-102910498D01*
X91145506Y-102969463D01*
X91048815Y-103048815D01*
X90969463Y-103145506D01*
X90910498Y-103255820D01*
X90874188Y-103375518D01*
X90861928Y-103500000D01*
X90865000Y-104714250D01*
X91023750Y-104873000D01*
X93873000Y-104873000D01*
X93873000Y-104853000D01*
X94127000Y-104853000D01*
X94127000Y-104873000D01*
X96976250Y-104873000D01*
X97135000Y-104714250D01*
X97138072Y-103500000D01*
X97125812Y-103375518D01*
X97089502Y-103255820D01*
X97030537Y-103145506D01*
X96951185Y-103048815D01*
X96854494Y-102969463D01*
X96744180Y-102910498D01*
X96624482Y-102874188D01*
X96564827Y-102868313D01*
X96731515Y-102731515D01*
X96904140Y-102521171D01*
X97032411Y-102281192D01*
X97111401Y-102020799D01*
X97138072Y-101750000D01*
X97138072Y-100250000D01*
X97111401Y-99979201D01*
X97032411Y-99718808D01*
X96904140Y-99478829D01*
X96731515Y-99268485D01*
X96521171Y-99095860D01*
X96281192Y-98967589D01*
X96020799Y-98888599D01*
X95750000Y-98861928D01*
X92250000Y-98861928D01*
X91979201Y-98888599D01*
X91718808Y-98967589D01*
X91478829Y-99095860D01*
X91268485Y-99268485D01*
X91095860Y-99478829D01*
X90967589Y-99718808D01*
X90888599Y-99979201D01*
X90861928Y-100250000D01*
X83695585Y-100250000D01*
X83269580Y-99910025D01*
X80179605Y-103000000D01*
X79820395Y-103000000D01*
X76730420Y-99910025D01*
X76158815Y-100366197D01*
X75718793Y-101166183D01*
X75443296Y-102036641D01*
X75342909Y-102944121D01*
X68807084Y-102944121D01*
X68744180Y-102910498D01*
X68624482Y-102874188D01*
X68564827Y-102868313D01*
X68731515Y-102731515D01*
X68904140Y-102521171D01*
X69032411Y-102281192D01*
X69111401Y-102020799D01*
X69138072Y-101750000D01*
X69138072Y-100250000D01*
X69111401Y-99979201D01*
X69035934Y-99730420D01*
X76910025Y-99730420D01*
X80000000Y-102820395D01*
X83089975Y-99730420D01*
X82633803Y-99158815D01*
X81833817Y-98718793D01*
X80963359Y-98443296D01*
X80055879Y-98342909D01*
X79146252Y-98421492D01*
X78269434Y-98676025D01*
X77459121Y-99096725D01*
X77366197Y-99158815D01*
X76910025Y-99730420D01*
X69035934Y-99730420D01*
X69032411Y-99718808D01*
X68904140Y-99478829D01*
X68731515Y-99268485D01*
X68521171Y-99095860D01*
X68281192Y-98967589D01*
X68020799Y-98888599D01*
X67750000Y-98861928D01*
X64250000Y-98861928D01*
X63979201Y-98888599D01*
X63718808Y-98967589D01*
X63478829Y-99095860D01*
X63268485Y-99268485D01*
X63095860Y-99478829D01*
X62967589Y-99718808D01*
X62888599Y-99979201D01*
X62861928Y-100250000D01*
X62660000Y-100250000D01*
X62660000Y-93269580D01*
X63910025Y-93269580D01*
X64366197Y-93841185D01*
X65166183Y-94281207D01*
X66036641Y-94556704D01*
X66944121Y-94657091D01*
X67853748Y-94578508D01*
X68730566Y-94323975D01*
X69540879Y-93903275D01*
X69633803Y-93841185D01*
X70089975Y-93269580D01*
X67000000Y-90179605D01*
X63910025Y-93269580D01*
X62660000Y-93269580D01*
X62660000Y-91675363D01*
X62676025Y-91730566D01*
X63096725Y-92540879D01*
X63158815Y-92633803D01*
X63730420Y-93089975D01*
X66820395Y-90000000D01*
X67179605Y-90000000D01*
X70269580Y-93089975D01*
X70841185Y-92633803D01*
X71281207Y-91833817D01*
X71556704Y-90963359D01*
X71657091Y-90055879D01*
X71578508Y-89146252D01*
X71323975Y-88269434D01*
X70903275Y-87459121D01*
X70841185Y-87366197D01*
X70269580Y-86910025D01*
X67179605Y-90000000D01*
X66820395Y-90000000D01*
X63730420Y-86910025D01*
X63158815Y-87366197D01*
X62718793Y-88166183D01*
X62660000Y-88351945D01*
X62660000Y-86730420D01*
X63910025Y-86730420D01*
X67000000Y-89820395D01*
X70089975Y-86730420D01*
X69633803Y-86158815D01*
X68833817Y-85718793D01*
X67963359Y-85443296D01*
X67055879Y-85342909D01*
X66146252Y-85421492D01*
X65269434Y-85676025D01*
X64459121Y-86096725D01*
X64366197Y-86158815D01*
X63910025Y-86730420D01*
X62660000Y-86730420D01*
X62660000Y-84032279D01*
X62688625Y-83740341D01*
X62764035Y-83490571D01*
X62886522Y-83260208D01*
X63051422Y-83058020D01*
X63252450Y-82891714D01*
X63481954Y-82767622D01*
X63731195Y-82690469D01*
X64021088Y-82660000D01*
X77769110Y-82660000D01*
X76383471Y-83233950D01*
G04 #@! TA.AperFunction,Conductor*
D13*
G36*
X76383471Y-83233950D02*
G01*
X75132971Y-84069508D01*
X74069508Y-85132971D01*
X73233950Y-86383471D01*
X72658408Y-87772953D01*
X72365000Y-89248018D01*
X72365000Y-90751982D01*
X72658408Y-92227047D01*
X73233950Y-93616529D01*
X74069508Y-94867029D01*
X75132971Y-95930492D01*
X76383471Y-96766050D01*
X77772953Y-97341592D01*
X79248018Y-97635000D01*
X80751982Y-97635000D01*
X82227047Y-97341592D01*
X83616529Y-96766050D01*
X84867029Y-95930492D01*
X85930492Y-94867029D01*
X86766050Y-93616529D01*
X86909760Y-93269580D01*
X89910025Y-93269580D01*
X90366197Y-93841185D01*
X91166183Y-94281207D01*
X92036641Y-94556704D01*
X92944121Y-94657091D01*
X93853748Y-94578508D01*
X94730566Y-94323975D01*
X95540879Y-93903275D01*
X95633803Y-93841185D01*
X96089975Y-93269580D01*
X93000000Y-90179605D01*
X89910025Y-93269580D01*
X86909760Y-93269580D01*
X87341592Y-92227047D01*
X87635000Y-90751982D01*
X87635000Y-89944121D01*
X88342909Y-89944121D01*
X88421492Y-90853748D01*
X88676025Y-91730566D01*
X89096725Y-92540879D01*
X89158815Y-92633803D01*
X89730420Y-93089975D01*
X92820395Y-90000000D01*
X89730420Y-86910025D01*
X89158815Y-87366197D01*
X88718793Y-88166183D01*
X88443296Y-89036641D01*
X88342909Y-89944121D01*
X87635000Y-89944121D01*
X87635000Y-89248018D01*
X87341592Y-87772953D01*
X86909761Y-86730420D01*
X89910025Y-86730420D01*
X93000000Y-89820395D01*
X96089975Y-86730420D01*
X95633803Y-86158815D01*
X94833817Y-85718793D01*
X93963359Y-85443296D01*
X93055879Y-85342909D01*
X92146252Y-85421492D01*
X91269434Y-85676025D01*
X90459121Y-86096725D01*
X90366197Y-86158815D01*
X89910025Y-86730420D01*
X86909761Y-86730420D01*
X86766050Y-86383471D01*
X85930492Y-85132971D01*
X84867029Y-84069508D01*
X83616529Y-83233950D01*
X82230890Y-82660000D01*
X95967721Y-82660000D01*
X96259659Y-82688625D01*
X96509429Y-82764035D01*
X96739792Y-82886522D01*
X96941980Y-83051422D01*
X97108286Y-83252450D01*
X97232378Y-83481954D01*
X97309531Y-83731195D01*
X97340000Y-84021089D01*
X97340000Y-88324638D01*
X97323975Y-88269434D01*
X96903275Y-87459121D01*
X96841185Y-87366197D01*
X96269580Y-86910025D01*
X93179605Y-90000000D01*
X96269580Y-93089975D01*
X96841185Y-92633803D01*
X97281207Y-91833817D01*
X97340000Y-91648054D01*
X97340001Y-105967711D01*
X97311375Y-106259660D01*
X97235965Y-106509429D01*
X97113477Y-106739794D01*
X97050709Y-106816755D01*
X97089502Y-106744180D01*
X97125812Y-106624482D01*
X97138072Y-106500000D01*
X97135000Y-105285750D01*
X96976250Y-105127000D01*
X94127000Y-105127000D01*
X94127000Y-106976250D01*
X94285750Y-107135000D01*
X96500000Y-107138072D01*
X96624482Y-107125812D01*
X96744180Y-107089502D01*
X96817862Y-107050117D01*
X96747546Y-107108288D01*
X96518046Y-107232378D01*
X96268805Y-107309531D01*
X95978911Y-107340000D01*
X81675363Y-107340000D01*
X81730566Y-107323975D01*
X82540879Y-106903275D01*
X82633803Y-106841185D01*
X82906087Y-106500000D01*
X90861928Y-106500000D01*
X90874188Y-106624482D01*
X90910498Y-106744180D01*
X90969463Y-106854494D01*
X91048815Y-106951185D01*
X91145506Y-107030537D01*
X91255820Y-107089502D01*
X91375518Y-107125812D01*
X91500000Y-107138072D01*
X93714250Y-107135000D01*
X93873000Y-106976250D01*
X93873000Y-105127000D01*
X91023750Y-105127000D01*
X90865000Y-105285750D01*
X90861928Y-106500000D01*
X82906087Y-106500000D01*
X83089975Y-106269580D01*
X80000000Y-103179605D01*
X76910025Y-106269580D01*
X77366197Y-106841185D01*
X78166183Y-107281207D01*
X78351945Y-107340000D01*
X64032279Y-107340000D01*
X63740340Y-107311375D01*
X63490571Y-107235965D01*
X63260206Y-107113477D01*
X63183245Y-107050709D01*
X63255820Y-107089502D01*
X63375518Y-107125812D01*
X63500000Y-107138072D01*
X65714250Y-107135000D01*
X65873000Y-106976250D01*
X65873000Y-105127000D01*
X66127000Y-105127000D01*
X66127000Y-106976250D01*
X66285750Y-107135000D01*
X68500000Y-107138072D01*
X68624482Y-107125812D01*
X68744180Y-107089502D01*
X68854494Y-107030537D01*
X68951185Y-106951185D01*
X69030537Y-106854494D01*
X69089502Y-106744180D01*
X69125812Y-106624482D01*
X69138072Y-106500000D01*
X69135000Y-105285750D01*
X68976250Y-105127000D01*
X66127000Y-105127000D01*
X65873000Y-105127000D01*
X63023750Y-105127000D01*
X62865000Y-105285750D01*
X62861928Y-106500000D01*
X62874188Y-106624482D01*
X62910498Y-106744180D01*
X62949883Y-106817862D01*
X62891712Y-106747546D01*
X62767622Y-106518046D01*
X62690469Y-106268805D01*
X62660000Y-105978911D01*
X62660000Y-100250000D01*
X62861928Y-100250000D01*
X62861928Y-101750000D01*
X62888599Y-102020799D01*
X62967589Y-102281192D01*
X63095860Y-102521171D01*
X63268485Y-102731515D01*
X63435173Y-102868313D01*
X63375518Y-102874188D01*
X63255820Y-102910498D01*
X63145506Y-102969463D01*
X63048815Y-103048815D01*
X62969463Y-103145506D01*
X62910498Y-103255820D01*
X62874188Y-103375518D01*
X62861928Y-103500000D01*
X62865000Y-104714250D01*
X63023750Y-104873000D01*
X65873000Y-104873000D01*
X65873000Y-104853000D01*
X66127000Y-104853000D01*
X66127000Y-104873000D01*
X68976250Y-104873000D01*
X69135000Y-104714250D01*
X69138072Y-103500000D01*
X69125812Y-103375518D01*
X69089502Y-103255820D01*
X69030537Y-103145506D01*
X68951185Y-103048815D01*
X68854494Y-102969463D01*
X68807084Y-102944121D01*
X75342909Y-102944121D01*
X75421492Y-103853748D01*
X75676025Y-104730566D01*
X76096725Y-105540879D01*
X76158815Y-105633803D01*
X76730420Y-106089975D01*
X79820395Y-103000000D01*
X80179605Y-103000000D01*
X83269580Y-106089975D01*
X83841185Y-105633803D01*
X84281207Y-104833817D01*
X84556704Y-103963359D01*
X84657091Y-103055879D01*
X84578508Y-102146252D01*
X84323975Y-101269434D01*
X83903275Y-100459121D01*
X83841185Y-100366197D01*
X83695585Y-100250000D01*
X90861928Y-100250000D01*
X90861928Y-101750000D01*
X90888599Y-102020799D01*
X90967589Y-102281192D01*
X91095860Y-102521171D01*
X91268485Y-102731515D01*
X91435173Y-102868313D01*
X91375518Y-102874188D01*
X91255820Y-102910498D01*
X91145506Y-102969463D01*
X91048815Y-103048815D01*
X90969463Y-103145506D01*
X90910498Y-103255820D01*
X90874188Y-103375518D01*
X90861928Y-103500000D01*
X90865000Y-104714250D01*
X91023750Y-104873000D01*
X93873000Y-104873000D01*
X93873000Y-104853000D01*
X94127000Y-104853000D01*
X94127000Y-104873000D01*
X96976250Y-104873000D01*
X97135000Y-104714250D01*
X97138072Y-103500000D01*
X97125812Y-103375518D01*
X97089502Y-103255820D01*
X97030537Y-103145506D01*
X96951185Y-103048815D01*
X96854494Y-102969463D01*
X96744180Y-102910498D01*
X96624482Y-102874188D01*
X96564827Y-102868313D01*
X96731515Y-102731515D01*
X96904140Y-102521171D01*
X97032411Y-102281192D01*
X97111401Y-102020799D01*
X97138072Y-101750000D01*
X97138072Y-100250000D01*
X97111401Y-99979201D01*
X97032411Y-99718808D01*
X96904140Y-99478829D01*
X96731515Y-99268485D01*
X96521171Y-99095860D01*
X96281192Y-98967589D01*
X96020799Y-98888599D01*
X95750000Y-98861928D01*
X92250000Y-98861928D01*
X91979201Y-98888599D01*
X91718808Y-98967589D01*
X91478829Y-99095860D01*
X91268485Y-99268485D01*
X91095860Y-99478829D01*
X90967589Y-99718808D01*
X90888599Y-99979201D01*
X90861928Y-100250000D01*
X83695585Y-100250000D01*
X83269580Y-99910025D01*
X80179605Y-103000000D01*
X79820395Y-103000000D01*
X76730420Y-99910025D01*
X76158815Y-100366197D01*
X75718793Y-101166183D01*
X75443296Y-102036641D01*
X75342909Y-102944121D01*
X68807084Y-102944121D01*
X68744180Y-102910498D01*
X68624482Y-102874188D01*
X68564827Y-102868313D01*
X68731515Y-102731515D01*
X68904140Y-102521171D01*
X69032411Y-102281192D01*
X69111401Y-102020799D01*
X69138072Y-101750000D01*
X69138072Y-100250000D01*
X69111401Y-99979201D01*
X69035934Y-99730420D01*
X76910025Y-99730420D01*
X80000000Y-102820395D01*
X83089975Y-99730420D01*
X82633803Y-99158815D01*
X81833817Y-98718793D01*
X80963359Y-98443296D01*
X80055879Y-98342909D01*
X79146252Y-98421492D01*
X78269434Y-98676025D01*
X77459121Y-99096725D01*
X77366197Y-99158815D01*
X76910025Y-99730420D01*
X69035934Y-99730420D01*
X69032411Y-99718808D01*
X68904140Y-99478829D01*
X68731515Y-99268485D01*
X68521171Y-99095860D01*
X68281192Y-98967589D01*
X68020799Y-98888599D01*
X67750000Y-98861928D01*
X64250000Y-98861928D01*
X63979201Y-98888599D01*
X63718808Y-98967589D01*
X63478829Y-99095860D01*
X63268485Y-99268485D01*
X63095860Y-99478829D01*
X62967589Y-99718808D01*
X62888599Y-99979201D01*
X62861928Y-100250000D01*
X62660000Y-100250000D01*
X62660000Y-93269580D01*
X63910025Y-93269580D01*
X64366197Y-93841185D01*
X65166183Y-94281207D01*
X66036641Y-94556704D01*
X66944121Y-94657091D01*
X67853748Y-94578508D01*
X68730566Y-94323975D01*
X69540879Y-93903275D01*
X69633803Y-93841185D01*
X70089975Y-93269580D01*
X67000000Y-90179605D01*
X63910025Y-93269580D01*
X62660000Y-93269580D01*
X62660000Y-91675363D01*
X62676025Y-91730566D01*
X63096725Y-92540879D01*
X63158815Y-92633803D01*
X63730420Y-93089975D01*
X66820395Y-90000000D01*
X67179605Y-90000000D01*
X70269580Y-93089975D01*
X70841185Y-92633803D01*
X71281207Y-91833817D01*
X71556704Y-90963359D01*
X71657091Y-90055879D01*
X71578508Y-89146252D01*
X71323975Y-88269434D01*
X70903275Y-87459121D01*
X70841185Y-87366197D01*
X70269580Y-86910025D01*
X67179605Y-90000000D01*
X66820395Y-90000000D01*
X63730420Y-86910025D01*
X63158815Y-87366197D01*
X62718793Y-88166183D01*
X62660000Y-88351945D01*
X62660000Y-86730420D01*
X63910025Y-86730420D01*
X67000000Y-89820395D01*
X70089975Y-86730420D01*
X69633803Y-86158815D01*
X68833817Y-85718793D01*
X67963359Y-85443296D01*
X67055879Y-85342909D01*
X66146252Y-85421492D01*
X65269434Y-85676025D01*
X64459121Y-86096725D01*
X64366197Y-86158815D01*
X63910025Y-86730420D01*
X62660000Y-86730420D01*
X62660000Y-84032279D01*
X62688625Y-83740341D01*
X62764035Y-83490571D01*
X62886522Y-83260208D01*
X63051422Y-83058020D01*
X63252450Y-82891714D01*
X63481954Y-82767622D01*
X63731195Y-82690469D01*
X64021088Y-82660000D01*
X77769110Y-82660000D01*
X76383471Y-83233950D01*
G37*
G04 #@! TD.AperFunction*
M02*
