M48
;DRILL file {KiCad 5.0.2+dfsg1-1} date Sun 03 Apr 2022 01:42:20 PM JST
;FORMAT={-:-/ absolute / inch / decimal}
FMAT,2
INCH,TZ
T1C0.0157
T2C0.0394
T3C0.0748
%
G90
G05
T1
X5.7283Y-2.185
X5.7283Y-2.2457
X5.7283Y-2.3031
X5.7283Y-2.6831
X5.7283Y-2.7437
X5.7283Y-2.8012
X5.7283Y-3.1811
X5.7283Y-3.2417
X5.7283Y-3.2992
X5.7283Y-3.6791
X5.7283Y-3.7398
X5.7283Y-3.7972
X5.7283Y-4.1772
X5.7283Y-4.2378
X5.7283Y-4.2953
X5.7283Y-4.6752
X5.7283Y-4.7358
X5.7283Y-4.7933
X5.8268Y-2.185
X5.8268Y-2.2457
X5.8268Y-2.3031
X5.8268Y-2.6831
X5.8268Y-2.7437
X5.8268Y-2.8012
X5.8268Y-3.1811
X5.8268Y-3.2417
X5.8268Y-3.2992
X5.8268Y-3.6791
X5.8268Y-3.7398
X5.8268Y-3.7972
X5.8268Y-4.1772
X5.8268Y-4.2378
X5.8268Y-4.2953
X5.8268Y-4.6752
X5.8268Y-4.7358
X5.8268Y-4.7933
X6.1417Y-2.185
X6.1417Y-2.2457
X6.1417Y-2.3031
X6.1417Y-2.6831
X6.1417Y-2.7437
X6.1417Y-2.8012
X6.1417Y-3.1811
X6.1417Y-3.2417
X6.1417Y-3.2992
X6.1417Y-3.6791
X6.1417Y-3.7398
X6.1417Y-3.7972
X6.1417Y-4.1772
X6.1417Y-4.2378
X6.1417Y-4.2953
X6.1417Y-4.6752
X6.1417Y-4.7358
X6.1417Y-4.7933
X6.2402Y-2.185
X6.2402Y-2.2457
X6.2402Y-2.3031
X6.2402Y-2.6831
X6.2402Y-2.7437
X6.2402Y-2.8012
X6.2402Y-3.1811
X6.2402Y-3.2417
X6.2402Y-3.2992
X6.2402Y-3.6791
X6.2402Y-3.7398
X6.2402Y-3.7972
X6.2402Y-4.1772
X6.2402Y-4.2378
X6.2402Y-4.2953
X6.2402Y-4.6752
X6.2402Y-4.7358
X6.2402Y-4.7933
X6.8169Y-2.185
X6.8169Y-2.2457
X6.8169Y-2.3031
X6.8169Y-2.6831
X6.8169Y-2.7437
X6.8169Y-2.8012
X6.8169Y-3.1811
X6.8169Y-3.2417
X6.8169Y-3.2992
X6.8169Y-3.6791
X6.8169Y-3.7398
X6.8169Y-3.7972
X6.8169Y-4.1772
X6.8169Y-4.2378
X6.8169Y-4.2953
X6.8169Y-4.6752
X6.8169Y-4.7358
X6.8169Y-4.7933
X6.9154Y-2.185
X6.9154Y-2.2457
X6.9154Y-2.3031
X6.9154Y-2.6831
X6.9154Y-2.7437
X6.9154Y-2.8012
X6.9154Y-3.1811
X6.9154Y-3.2417
X6.9154Y-3.2992
X6.9154Y-3.6791
X6.9154Y-3.7398
X6.9154Y-3.7972
X6.9154Y-4.1772
X6.9154Y-4.2378
X6.9154Y-4.2953
X6.9154Y-4.6752
X6.9154Y-4.7358
X6.9154Y-4.7933
X7.2303Y-2.185
X7.2303Y-2.2457
X7.2303Y-2.3031
X7.2303Y-2.6831
X7.2303Y-2.7437
X7.2303Y-2.8012
X7.2303Y-3.1811
X7.2303Y-3.2417
X7.2303Y-3.2992
X7.2303Y-3.6791
X7.2303Y-3.7398
X7.2303Y-3.7972
X7.2303Y-4.1772
X7.2303Y-4.2378
X7.2303Y-4.2953
X7.2303Y-4.6752
X7.2303Y-4.7358
X7.2303Y-4.7933
X7.3287Y-2.185
X7.3287Y-2.2457
X7.3287Y-2.3031
X7.3287Y-2.6831
X7.3287Y-2.7437
X7.3287Y-2.8012
X7.3287Y-3.1811
X7.3287Y-3.2417
X7.3287Y-3.2992
X7.3287Y-3.6791
X7.3287Y-3.7398
X7.3287Y-3.7972
X7.3287Y-4.1772
X7.3287Y-4.2378
X7.3287Y-4.2953
X7.3287Y-4.6752
X7.3287Y-4.7358
X7.3287Y-4.7933
X7.9055Y-2.185
X7.9055Y-2.2457
X7.9055Y-2.3031
X7.9055Y-2.6831
X7.9055Y-2.7437
X7.9055Y-2.8012
X7.9055Y-3.1811
X7.9055Y-3.2417
X7.9055Y-3.2992
X7.9055Y-3.6791
X7.9055Y-3.7398
X7.9055Y-3.7972
X7.9055Y-4.1772
X7.9055Y-4.2378
X7.9055Y-4.2953
X7.9055Y-4.6752
X7.9055Y-4.7358
X7.9055Y-4.7933
X8.0039Y-2.185
X8.0039Y-2.2457
X8.0039Y-2.3031
X8.0039Y-2.6831
X8.0039Y-2.7437
X8.0039Y-2.8012
X8.0039Y-3.1811
X8.0039Y-3.2417
X8.0039Y-3.2992
X8.0039Y-3.6791
X8.0039Y-3.7398
X8.0039Y-3.7972
X8.0039Y-4.1772
X8.0039Y-4.2378
X8.0039Y-4.2953
X8.0039Y-4.6752
X8.0039Y-4.7358
X8.0039Y-4.7933
X8.3189Y-2.185
X8.3189Y-2.2457
X8.3189Y-2.3031
X8.3189Y-2.6831
X8.3189Y-2.7437
X8.3189Y-2.8012
X8.3189Y-3.1811
X8.3189Y-3.2417
X8.3189Y-3.2992
X8.3189Y-3.6791
X8.3189Y-3.7398
X8.3189Y-3.7972
X8.3189Y-4.1772
X8.3189Y-4.2378
X8.3189Y-4.2953
X8.3189Y-4.6752
X8.3189Y-4.7358
X8.3189Y-4.7933
X8.4173Y-2.185
X8.4173Y-2.2457
X8.4173Y-2.3031
X8.4173Y-2.6831
X8.4173Y-2.7437
X8.4173Y-2.8012
X8.4173Y-3.1811
X8.4173Y-3.2417
X8.4173Y-3.2992
X8.4173Y-3.6791
X8.4173Y-3.7398
X8.4173Y-3.7972
X8.4173Y-4.1772
X8.4173Y-4.2378
X8.4173Y-4.2953
X8.4173Y-4.6752
X8.4173Y-4.7358
X8.4173Y-4.7933
T2
X6.8169Y-3.5157
X6.9154Y-3.5157
X7.2303Y-4.5118
X7.3287Y-4.5118
X7.9055Y-4.5118
X8.0039Y-4.5118
X8.3189Y-5.0098
X8.4173Y-5.0098
X8.3189Y-3.5157
X8.4173Y-3.5157
X6.8169Y-4.5118
X6.9154Y-4.5118
X7.9055Y-2.5197
X8.0039Y-2.5197
X7.9055Y-4.0138
X8.0039Y-4.0138
X5.7283Y-2.5197
X5.8268Y-2.5197
X8.3189Y-4.0138
X8.4173Y-4.0138
X6.8169Y-4.0138
X6.9154Y-4.0138
X6.1417Y-5.0098
X6.2402Y-5.0098
X7.2303Y-3.5157
X7.3287Y-3.5157
X8.3189Y-2.5197
X8.4173Y-2.5197
X6.8169Y-2.5197
X6.9154Y-2.5197
X7.9055Y-5.0098
X8.0039Y-5.0098
X5.7283Y-5.0098
X5.8268Y-5.0098
X7.2303Y-5.0098
X7.3287Y-5.0098
X5.7283Y-4.0138
X5.8268Y-4.0138
X7.2303Y-3.0177
X7.3287Y-3.0177
X6.1417Y-3.5157
X6.2402Y-3.5157
X5.7283Y-3.0177
X5.8268Y-3.0177
X6.1417Y-3.0177
X6.2402Y-3.0177
X6.1417Y-4.0138
X6.2402Y-4.0138
X7.9055Y-3.5157
X8.0039Y-3.5157
X7.2303Y-2.5197
X7.3287Y-2.5197
X8.3189Y-3.0177
X8.4173Y-3.0177
X5.7283Y-4.5118
X5.8268Y-4.5118
X6.1417Y-2.5197
X6.2402Y-2.5197
X6.1417Y-4.5118
X6.2402Y-4.5118
X6.8169Y-3.0177
X6.9154Y-3.0177
X6.8169Y-5.0098
X6.9154Y-5.0098
X8.3189Y-4.5118
X8.4173Y-4.5118
X7.2303Y-4.0138
X7.3287Y-4.0138
X5.7283Y-3.5157
X5.8268Y-3.5157
X7.9055Y-3.0177
X8.0039Y-3.0177
T3
X6.437Y-4.5512
X6.6004Y-2.7224
X5.5118Y-4.5512
X7.5256Y-3.7185
X5.5118Y-2.2244
X8.6142Y-4.0531
X8.6142Y-3.2205
X7.689Y-3.7185
X7.689Y-5.0492
X8.6142Y-4.7146
X7.5256Y-5.0492
X6.6004Y-4.5512
X6.6004Y-4.0531
X7.689Y-2.5591
X6.6004Y-2.2244
X6.437Y-4.7146
X7.689Y-4.2165
X8.6142Y-2.2244
X7.5256Y-3.0571
X7.5256Y-2.5591
X6.437Y-5.0492
X5.5118Y-5.0492
X8.6142Y-4.5512
X6.6004Y-4.7146
X5.5118Y-3.2205
X6.437Y-3.0571
X6.437Y-2.7224
X5.5118Y-3.0571
X8.6142Y-2.5591
X7.5256Y-4.2165
X7.689Y-3.0571
X8.6142Y-5.0492
X7.689Y-4.7146
X6.6004Y-3.2205
X6.437Y-2.2244
X7.5256Y-3.5551
X6.6004Y-4.2165
X5.5118Y-2.7224
X7.689Y-2.2244
X6.6004Y-2.5591
X7.5256Y-2.2244
X5.5118Y-3.7185
X6.437Y-3.5551
X8.6142Y-3.7185
X5.5118Y-4.7146
X5.5118Y-3.5551
X6.437Y-2.5591
X8.6142Y-2.7224
X8.6142Y-4.2165
X8.6142Y-3.0571
X7.689Y-4.0531
X7.689Y-3.5551
X6.437Y-3.2205
X6.6004Y-3.7185
X7.5256Y-4.0531
X7.689Y-3.2205
X7.689Y-2.7224
X6.6004Y-3.0571
X5.5118Y-4.2165
X7.5256Y-2.7224
X6.437Y-4.0531
X5.5118Y-4.0531
X5.5118Y-2.5591
X6.6004Y-5.0492
X8.6142Y-3.5551
X7.689Y-4.5512
X6.437Y-3.7185
X7.5256Y-4.5512
X6.6004Y-3.5551
X7.5256Y-4.7146
X7.5256Y-3.2205
X6.437Y-4.2165
T0
M30
