%TF.GenerationSoftware,KiCad,Pcbnew,5.0.2+dfsg1-1*%
%TF.CreationDate,2022-04-03T13:42:16+09:00*%
%TF.ProjectId,JST-mounter_panelized,4a53542d-6d6f-4756-9e74-65725f70616e,rev?*%
%TF.SameCoordinates,Original*%
%TF.FileFunction,Soldermask,Bot*%
%TF.FilePolarity,Negative*%
%FSLAX46Y46*%
G04 Gerber Fmt 4.6, Leading zero omitted, Abs format (unit mm)*
G04 Created by KiCad (PCBNEW 5.0.2+dfsg1-1) date Sun 03 Apr 2022 01:42:16 PM JST*
%MOMM*%
%LPD*%
G01*
G04 APERTURE LIST*
%ADD10C,0.150000*%
%ADD11C,0.100000*%
G04 APERTURE END LIST*
D10*
X137899998Y-117600008D02*
X220900006Y-117600008D01*
X137899998Y-104950006D02*
X220900006Y-104950006D01*
X137899998Y-92300004D02*
X220900006Y-92300004D01*
X137899998Y-79650002D02*
X220900006Y-79650002D01*
X137899998Y-67000000D02*
X220900006Y-67000000D01*
X193150002Y-54399998D02*
X193150002Y-130350012D01*
X165500000Y-54399998D02*
X165500000Y-130350012D01*
X137924999Y-130325011D02*
X137924999Y-54424999D01*
X220875005Y-130325011D02*
X137924999Y-130325011D01*
X220875005Y-54424999D02*
X220875005Y-130325011D01*
X137924999Y-54424999D02*
X220875005Y-54424999D01*
D11*
G36*
X219152531Y-126738746D02*
X219252414Y-126758614D01*
X219534678Y-126875531D01*
X219788709Y-127045269D01*
X220004745Y-127261305D01*
X220174483Y-127515336D01*
X220270224Y-127746477D01*
X220291400Y-127797601D01*
X220349107Y-128087709D01*
X220351004Y-128097250D01*
X220351004Y-128402770D01*
X220291400Y-128702420D01*
X220174483Y-128984684D01*
X220004745Y-129238715D01*
X219788709Y-129454751D01*
X219534678Y-129624489D01*
X219252414Y-129741406D01*
X219152531Y-129761274D01*
X218952766Y-129801010D01*
X218647242Y-129801010D01*
X218447477Y-129761274D01*
X218347594Y-129741406D01*
X218065330Y-129624489D01*
X217811299Y-129454751D01*
X217595263Y-129238715D01*
X217425525Y-128984684D01*
X217308608Y-128702420D01*
X217249004Y-128402770D01*
X217249004Y-128097250D01*
X217250902Y-128087709D01*
X217308608Y-127797601D01*
X217329784Y-127746477D01*
X217425525Y-127515336D01*
X217595263Y-127261305D01*
X217811299Y-127045269D01*
X218065330Y-126875531D01*
X218347594Y-126758614D01*
X218447477Y-126738746D01*
X218647242Y-126699010D01*
X218952766Y-126699010D01*
X219152531Y-126738746D01*
X219152531Y-126738746D01*
G37*
G36*
X191502529Y-126738746D02*
X191602412Y-126758614D01*
X191884676Y-126875531D01*
X192138707Y-127045269D01*
X192354743Y-127261305D01*
X192524481Y-127515336D01*
X192620222Y-127746477D01*
X192641398Y-127797601D01*
X192699105Y-128087709D01*
X192701002Y-128097250D01*
X192701002Y-128402770D01*
X192641398Y-128702420D01*
X192524481Y-128984684D01*
X192354743Y-129238715D01*
X192138707Y-129454751D01*
X191884676Y-129624489D01*
X191602412Y-129741406D01*
X191502529Y-129761274D01*
X191302764Y-129801010D01*
X190997240Y-129801010D01*
X190797475Y-129761274D01*
X190697592Y-129741406D01*
X190415328Y-129624489D01*
X190161297Y-129454751D01*
X189945261Y-129238715D01*
X189775523Y-128984684D01*
X189658606Y-128702420D01*
X189599002Y-128402770D01*
X189599002Y-128097250D01*
X189600900Y-128087709D01*
X189658606Y-127797601D01*
X189679782Y-127746477D01*
X189775523Y-127515336D01*
X189945261Y-127261305D01*
X190161297Y-127045269D01*
X190415328Y-126875531D01*
X190697592Y-126758614D01*
X190797475Y-126738746D01*
X190997240Y-126699010D01*
X191302764Y-126699010D01*
X191502529Y-126738746D01*
X191502529Y-126738746D01*
G37*
G36*
X163852527Y-126738746D02*
X163952410Y-126758614D01*
X164234674Y-126875531D01*
X164488705Y-127045269D01*
X164704741Y-127261305D01*
X164874479Y-127515336D01*
X164970220Y-127746477D01*
X164991396Y-127797601D01*
X165049103Y-128087709D01*
X165051000Y-128097250D01*
X165051000Y-128402770D01*
X164991396Y-128702420D01*
X164874479Y-128984684D01*
X164704741Y-129238715D01*
X164488705Y-129454751D01*
X164234674Y-129624489D01*
X163952410Y-129741406D01*
X163852527Y-129761274D01*
X163652762Y-129801010D01*
X163347238Y-129801010D01*
X163147473Y-129761274D01*
X163047590Y-129741406D01*
X162765326Y-129624489D01*
X162511295Y-129454751D01*
X162295259Y-129238715D01*
X162125521Y-128984684D01*
X162008604Y-128702420D01*
X161949000Y-128402770D01*
X161949000Y-128097250D01*
X161950898Y-128087709D01*
X162008604Y-127797601D01*
X162029780Y-127746477D01*
X162125521Y-127515336D01*
X162295259Y-127261305D01*
X162511295Y-127045269D01*
X162765326Y-126875531D01*
X163047590Y-126758614D01*
X163147473Y-126738746D01*
X163347238Y-126699010D01*
X163652762Y-126699010D01*
X163852527Y-126738746D01*
X163852527Y-126738746D01*
G37*
G36*
X168002529Y-126738746D02*
X168102412Y-126758614D01*
X168384676Y-126875531D01*
X168638707Y-127045269D01*
X168854743Y-127261305D01*
X169024481Y-127515336D01*
X169120222Y-127746477D01*
X169141398Y-127797601D01*
X169199105Y-128087709D01*
X169201002Y-128097250D01*
X169201002Y-128402770D01*
X169141398Y-128702420D01*
X169024481Y-128984684D01*
X168854743Y-129238715D01*
X168638707Y-129454751D01*
X168384676Y-129624489D01*
X168102412Y-129741406D01*
X168002529Y-129761274D01*
X167802764Y-129801010D01*
X167497240Y-129801010D01*
X167297475Y-129761274D01*
X167197592Y-129741406D01*
X166915328Y-129624489D01*
X166661297Y-129454751D01*
X166445261Y-129238715D01*
X166275523Y-128984684D01*
X166158606Y-128702420D01*
X166099002Y-128402770D01*
X166099002Y-128097250D01*
X166100900Y-128087709D01*
X166158606Y-127797601D01*
X166179782Y-127746477D01*
X166275523Y-127515336D01*
X166445261Y-127261305D01*
X166661297Y-127045269D01*
X166915328Y-126875531D01*
X167197592Y-126758614D01*
X167297475Y-126738746D01*
X167497240Y-126699010D01*
X167802764Y-126699010D01*
X168002529Y-126738746D01*
X168002529Y-126738746D01*
G37*
G36*
X140352527Y-126738746D02*
X140452410Y-126758614D01*
X140734674Y-126875531D01*
X140988705Y-127045269D01*
X141204741Y-127261305D01*
X141374479Y-127515336D01*
X141470220Y-127746477D01*
X141491396Y-127797601D01*
X141549103Y-128087709D01*
X141551000Y-128097250D01*
X141551000Y-128402770D01*
X141491396Y-128702420D01*
X141374479Y-128984684D01*
X141204741Y-129238715D01*
X140988705Y-129454751D01*
X140734674Y-129624489D01*
X140452410Y-129741406D01*
X140352527Y-129761274D01*
X140152762Y-129801010D01*
X139847238Y-129801010D01*
X139647473Y-129761274D01*
X139547590Y-129741406D01*
X139265326Y-129624489D01*
X139011295Y-129454751D01*
X138795259Y-129238715D01*
X138625521Y-128984684D01*
X138508604Y-128702420D01*
X138449000Y-128402770D01*
X138449000Y-128097250D01*
X138450898Y-128087709D01*
X138508604Y-127797601D01*
X138529780Y-127746477D01*
X138625521Y-127515336D01*
X138795259Y-127261305D01*
X139011295Y-127045269D01*
X139265326Y-126875531D01*
X139547590Y-126758614D01*
X139647473Y-126738746D01*
X139847238Y-126699010D01*
X140152762Y-126699010D01*
X140352527Y-126738746D01*
X140352527Y-126738746D01*
G37*
G36*
X195652531Y-126738746D02*
X195752414Y-126758614D01*
X196034678Y-126875531D01*
X196288709Y-127045269D01*
X196504745Y-127261305D01*
X196674483Y-127515336D01*
X196770224Y-127746477D01*
X196791400Y-127797601D01*
X196849107Y-128087709D01*
X196851004Y-128097250D01*
X196851004Y-128402770D01*
X196791400Y-128702420D01*
X196674483Y-128984684D01*
X196504745Y-129238715D01*
X196288709Y-129454751D01*
X196034678Y-129624489D01*
X195752414Y-129741406D01*
X195652531Y-129761274D01*
X195452766Y-129801010D01*
X195147242Y-129801010D01*
X194947477Y-129761274D01*
X194847594Y-129741406D01*
X194565330Y-129624489D01*
X194311299Y-129454751D01*
X194095263Y-129238715D01*
X193925525Y-128984684D01*
X193808608Y-128702420D01*
X193749004Y-128402770D01*
X193749004Y-128097250D01*
X193750902Y-128087709D01*
X193808608Y-127797601D01*
X193829784Y-127746477D01*
X193925525Y-127515336D01*
X194095263Y-127261305D01*
X194311299Y-127045269D01*
X194565330Y-126875531D01*
X194847594Y-126758614D01*
X194947477Y-126738746D01*
X195147242Y-126699010D01*
X195452766Y-126699010D01*
X195652531Y-126738746D01*
X195652531Y-126738746D01*
G37*
G36*
X173326629Y-126212047D02*
X173439855Y-126246394D01*
X173496469Y-126263567D01*
X173635089Y-126337662D01*
X173652993Y-126347232D01*
X173688731Y-126376562D01*
X173790188Y-126459824D01*
X173873450Y-126561281D01*
X173902780Y-126597019D01*
X173986445Y-126753544D01*
X174037965Y-126923384D01*
X174037965Y-126923386D01*
X174049970Y-127045269D01*
X174051002Y-127055753D01*
X174051002Y-127444268D01*
X174037965Y-127576637D01*
X174003618Y-127689863D01*
X173986445Y-127746477D01*
X173959118Y-127797601D01*
X173902780Y-127903001D01*
X173873450Y-127938739D01*
X173790188Y-128040196D01*
X173652991Y-128152789D01*
X173496468Y-128236453D01*
X173455735Y-128248809D01*
X173326628Y-128287973D01*
X173150002Y-128305369D01*
X172973375Y-128287973D01*
X172844268Y-128248809D01*
X172803535Y-128236453D01*
X172647013Y-128152789D01*
X172647011Y-128152788D01*
X172579338Y-128097250D01*
X172509816Y-128040196D01*
X172397223Y-127902999D01*
X172313559Y-127746476D01*
X172296386Y-127689862D01*
X172262039Y-127576636D01*
X172249002Y-127444267D01*
X172249002Y-127055752D01*
X172262039Y-126923383D01*
X172313559Y-126753544D01*
X172313559Y-126753543D01*
X172397224Y-126597018D01*
X172509814Y-126459827D01*
X172604752Y-126381914D01*
X172647012Y-126347232D01*
X172664916Y-126337662D01*
X172803536Y-126263567D01*
X172860150Y-126246394D01*
X172973376Y-126212047D01*
X173150002Y-126194651D01*
X173326629Y-126212047D01*
X173326629Y-126212047D01*
G37*
G36*
X200976631Y-126212047D02*
X201089857Y-126246394D01*
X201146471Y-126263567D01*
X201285091Y-126337662D01*
X201302995Y-126347232D01*
X201338733Y-126376562D01*
X201440190Y-126459824D01*
X201523452Y-126561281D01*
X201552782Y-126597019D01*
X201636447Y-126753544D01*
X201687967Y-126923384D01*
X201687967Y-126923386D01*
X201699972Y-127045269D01*
X201701004Y-127055753D01*
X201701004Y-127444268D01*
X201687967Y-127576637D01*
X201653620Y-127689863D01*
X201636447Y-127746477D01*
X201609120Y-127797601D01*
X201552782Y-127903001D01*
X201523452Y-127938739D01*
X201440190Y-128040196D01*
X201302993Y-128152789D01*
X201146470Y-128236453D01*
X201105737Y-128248809D01*
X200976630Y-128287973D01*
X200800004Y-128305369D01*
X200623377Y-128287973D01*
X200494270Y-128248809D01*
X200453537Y-128236453D01*
X200297015Y-128152789D01*
X200297013Y-128152788D01*
X200229340Y-128097250D01*
X200159818Y-128040196D01*
X200047225Y-127902999D01*
X199963561Y-127746476D01*
X199946388Y-127689862D01*
X199912041Y-127576636D01*
X199899004Y-127444267D01*
X199899004Y-127055752D01*
X199912041Y-126923383D01*
X199963561Y-126753544D01*
X199963561Y-126753543D01*
X200047226Y-126597018D01*
X200159816Y-126459827D01*
X200254754Y-126381914D01*
X200297014Y-126347232D01*
X200314918Y-126337662D01*
X200453538Y-126263567D01*
X200510152Y-126246394D01*
X200623378Y-126212047D01*
X200800004Y-126194651D01*
X200976631Y-126212047D01*
X200976631Y-126212047D01*
G37*
G36*
X145676627Y-126212047D02*
X145789853Y-126246394D01*
X145846467Y-126263567D01*
X145985087Y-126337662D01*
X146002991Y-126347232D01*
X146038729Y-126376562D01*
X146140186Y-126459824D01*
X146223448Y-126561281D01*
X146252778Y-126597019D01*
X146336443Y-126753544D01*
X146387963Y-126923384D01*
X146387963Y-126923386D01*
X146399968Y-127045269D01*
X146401000Y-127055753D01*
X146401000Y-127444268D01*
X146387963Y-127576637D01*
X146353616Y-127689863D01*
X146336443Y-127746477D01*
X146309116Y-127797601D01*
X146252778Y-127903001D01*
X146223448Y-127938739D01*
X146140186Y-128040196D01*
X146002989Y-128152789D01*
X145846466Y-128236453D01*
X145805733Y-128248809D01*
X145676626Y-128287973D01*
X145500000Y-128305369D01*
X145323373Y-128287973D01*
X145194266Y-128248809D01*
X145153533Y-128236453D01*
X144997011Y-128152789D01*
X144997009Y-128152788D01*
X144929336Y-128097250D01*
X144859814Y-128040196D01*
X144747221Y-127902999D01*
X144663557Y-127746476D01*
X144646384Y-127689862D01*
X144612037Y-127576636D01*
X144599000Y-127444267D01*
X144599000Y-127055752D01*
X144612037Y-126923383D01*
X144663557Y-126753544D01*
X144663557Y-126753543D01*
X144747222Y-126597018D01*
X144859812Y-126459827D01*
X144954750Y-126381914D01*
X144997010Y-126347232D01*
X145014914Y-126337662D01*
X145153534Y-126263567D01*
X145210148Y-126246394D01*
X145323374Y-126212047D01*
X145500000Y-126194651D01*
X145676627Y-126212047D01*
X145676627Y-126212047D01*
G37*
G36*
X156176627Y-126212047D02*
X156289853Y-126246394D01*
X156346467Y-126263567D01*
X156485087Y-126337662D01*
X156502991Y-126347232D01*
X156538729Y-126376562D01*
X156640186Y-126459824D01*
X156723448Y-126561281D01*
X156752778Y-126597019D01*
X156836443Y-126753544D01*
X156887963Y-126923384D01*
X156887963Y-126923386D01*
X156899968Y-127045269D01*
X156901000Y-127055753D01*
X156901000Y-127444268D01*
X156887963Y-127576637D01*
X156853616Y-127689863D01*
X156836443Y-127746477D01*
X156809116Y-127797601D01*
X156752778Y-127903001D01*
X156723448Y-127938739D01*
X156640186Y-128040196D01*
X156502989Y-128152789D01*
X156346466Y-128236453D01*
X156305733Y-128248809D01*
X156176626Y-128287973D01*
X156000000Y-128305369D01*
X155823373Y-128287973D01*
X155694266Y-128248809D01*
X155653533Y-128236453D01*
X155497011Y-128152789D01*
X155497009Y-128152788D01*
X155429336Y-128097250D01*
X155359814Y-128040196D01*
X155247221Y-127902999D01*
X155163557Y-127746476D01*
X155146384Y-127689862D01*
X155112037Y-127576636D01*
X155099000Y-127444267D01*
X155099000Y-127055752D01*
X155112037Y-126923383D01*
X155163557Y-126753544D01*
X155163557Y-126753543D01*
X155247222Y-126597018D01*
X155359812Y-126459827D01*
X155454750Y-126381914D01*
X155497010Y-126347232D01*
X155514914Y-126337662D01*
X155653534Y-126263567D01*
X155710148Y-126246394D01*
X155823374Y-126212047D01*
X156000000Y-126194651D01*
X156176627Y-126212047D01*
X156176627Y-126212047D01*
G37*
G36*
X183826629Y-126212047D02*
X183939855Y-126246394D01*
X183996469Y-126263567D01*
X184135089Y-126337662D01*
X184152993Y-126347232D01*
X184188731Y-126376562D01*
X184290188Y-126459824D01*
X184373450Y-126561281D01*
X184402780Y-126597019D01*
X184486445Y-126753544D01*
X184537965Y-126923384D01*
X184537965Y-126923386D01*
X184549970Y-127045269D01*
X184551002Y-127055753D01*
X184551002Y-127444268D01*
X184537965Y-127576637D01*
X184503618Y-127689863D01*
X184486445Y-127746477D01*
X184459118Y-127797601D01*
X184402780Y-127903001D01*
X184373450Y-127938739D01*
X184290188Y-128040196D01*
X184152991Y-128152789D01*
X183996468Y-128236453D01*
X183955735Y-128248809D01*
X183826628Y-128287973D01*
X183650002Y-128305369D01*
X183473375Y-128287973D01*
X183344268Y-128248809D01*
X183303535Y-128236453D01*
X183147013Y-128152789D01*
X183147011Y-128152788D01*
X183079338Y-128097250D01*
X183009816Y-128040196D01*
X182897223Y-127902999D01*
X182813559Y-127746476D01*
X182796386Y-127689862D01*
X182762039Y-127576636D01*
X182749002Y-127444267D01*
X182749002Y-127055752D01*
X182762039Y-126923383D01*
X182813559Y-126753544D01*
X182813559Y-126753543D01*
X182897224Y-126597018D01*
X183009814Y-126459827D01*
X183104752Y-126381914D01*
X183147012Y-126347232D01*
X183164916Y-126337662D01*
X183303536Y-126263567D01*
X183360150Y-126246394D01*
X183473376Y-126212047D01*
X183650002Y-126194651D01*
X183826629Y-126212047D01*
X183826629Y-126212047D01*
G37*
G36*
X211476631Y-126212047D02*
X211589857Y-126246394D01*
X211646471Y-126263567D01*
X211785091Y-126337662D01*
X211802995Y-126347232D01*
X211838733Y-126376562D01*
X211940190Y-126459824D01*
X212023452Y-126561281D01*
X212052782Y-126597019D01*
X212136447Y-126753544D01*
X212187967Y-126923384D01*
X212187967Y-126923386D01*
X212199972Y-127045269D01*
X212201004Y-127055753D01*
X212201004Y-127444268D01*
X212187967Y-127576637D01*
X212153620Y-127689863D01*
X212136447Y-127746477D01*
X212109120Y-127797601D01*
X212052782Y-127903001D01*
X212023452Y-127938739D01*
X211940190Y-128040196D01*
X211802993Y-128152789D01*
X211646470Y-128236453D01*
X211605737Y-128248809D01*
X211476630Y-128287973D01*
X211300004Y-128305369D01*
X211123377Y-128287973D01*
X210994270Y-128248809D01*
X210953537Y-128236453D01*
X210797015Y-128152789D01*
X210797013Y-128152788D01*
X210729340Y-128097250D01*
X210659818Y-128040196D01*
X210547225Y-127902999D01*
X210463561Y-127746476D01*
X210446388Y-127689862D01*
X210412041Y-127576636D01*
X210399004Y-127444267D01*
X210399004Y-127055752D01*
X210412041Y-126923383D01*
X210463561Y-126753544D01*
X210463561Y-126753543D01*
X210547226Y-126597018D01*
X210659816Y-126459827D01*
X210754754Y-126381914D01*
X210797014Y-126347232D01*
X210814918Y-126337662D01*
X210953538Y-126263567D01*
X211010152Y-126246394D01*
X211123378Y-126212047D01*
X211300004Y-126194651D01*
X211476631Y-126212047D01*
X211476631Y-126212047D01*
G37*
G36*
X186908602Y-126202999D02*
X186941651Y-126213024D01*
X186972108Y-126229304D01*
X186998801Y-126251211D01*
X187020708Y-126277904D01*
X187036988Y-126308361D01*
X187047013Y-126341410D01*
X187051002Y-126381914D01*
X187051002Y-128118106D01*
X187047013Y-128158610D01*
X187036988Y-128191659D01*
X187020708Y-128222116D01*
X186998801Y-128248809D01*
X186972108Y-128270716D01*
X186941651Y-128286996D01*
X186908602Y-128297021D01*
X186868098Y-128301010D01*
X185431906Y-128301010D01*
X185391402Y-128297021D01*
X185358353Y-128286996D01*
X185327896Y-128270716D01*
X185301203Y-128248809D01*
X185279296Y-128222116D01*
X185263016Y-128191659D01*
X185252991Y-128158610D01*
X185249002Y-128118106D01*
X185249002Y-126381914D01*
X185252991Y-126341410D01*
X185263016Y-126308361D01*
X185279296Y-126277904D01*
X185301203Y-126251211D01*
X185327896Y-126229304D01*
X185358353Y-126213024D01*
X185391402Y-126202999D01*
X185431906Y-126199010D01*
X186868098Y-126199010D01*
X186908602Y-126202999D01*
X186908602Y-126202999D01*
G37*
G36*
X214558604Y-126202999D02*
X214591653Y-126213024D01*
X214622110Y-126229304D01*
X214648803Y-126251211D01*
X214670710Y-126277904D01*
X214686990Y-126308361D01*
X214697015Y-126341410D01*
X214701004Y-126381914D01*
X214701004Y-128118106D01*
X214697015Y-128158610D01*
X214686990Y-128191659D01*
X214670710Y-128222116D01*
X214648803Y-128248809D01*
X214622110Y-128270716D01*
X214591653Y-128286996D01*
X214558604Y-128297021D01*
X214518100Y-128301010D01*
X213081908Y-128301010D01*
X213041404Y-128297021D01*
X213008355Y-128286996D01*
X212977898Y-128270716D01*
X212951205Y-128248809D01*
X212929298Y-128222116D01*
X212913018Y-128191659D01*
X212902993Y-128158610D01*
X212899004Y-128118106D01*
X212899004Y-126381914D01*
X212902993Y-126341410D01*
X212913018Y-126308361D01*
X212929298Y-126277904D01*
X212951205Y-126251211D01*
X212977898Y-126229304D01*
X213008355Y-126213024D01*
X213041404Y-126202999D01*
X213081908Y-126199010D01*
X214518100Y-126199010D01*
X214558604Y-126202999D01*
X214558604Y-126202999D01*
G37*
G36*
X204058604Y-126202999D02*
X204091653Y-126213024D01*
X204122110Y-126229304D01*
X204148803Y-126251211D01*
X204170710Y-126277904D01*
X204186990Y-126308361D01*
X204197015Y-126341410D01*
X204201004Y-126381914D01*
X204201004Y-128118106D01*
X204197015Y-128158610D01*
X204186990Y-128191659D01*
X204170710Y-128222116D01*
X204148803Y-128248809D01*
X204122110Y-128270716D01*
X204091653Y-128286996D01*
X204058604Y-128297021D01*
X204018100Y-128301010D01*
X202581908Y-128301010D01*
X202541404Y-128297021D01*
X202508355Y-128286996D01*
X202477898Y-128270716D01*
X202451205Y-128248809D01*
X202429298Y-128222116D01*
X202413018Y-128191659D01*
X202402993Y-128158610D01*
X202399004Y-128118106D01*
X202399004Y-126381914D01*
X202402993Y-126341410D01*
X202413018Y-126308361D01*
X202429298Y-126277904D01*
X202451205Y-126251211D01*
X202477898Y-126229304D01*
X202508355Y-126213024D01*
X202541404Y-126202999D01*
X202581908Y-126199010D01*
X204018100Y-126199010D01*
X204058604Y-126202999D01*
X204058604Y-126202999D01*
G37*
G36*
X159258600Y-126202999D02*
X159291649Y-126213024D01*
X159322106Y-126229304D01*
X159348799Y-126251211D01*
X159370706Y-126277904D01*
X159386986Y-126308361D01*
X159397011Y-126341410D01*
X159401000Y-126381914D01*
X159401000Y-128118106D01*
X159397011Y-128158610D01*
X159386986Y-128191659D01*
X159370706Y-128222116D01*
X159348799Y-128248809D01*
X159322106Y-128270716D01*
X159291649Y-128286996D01*
X159258600Y-128297021D01*
X159218096Y-128301010D01*
X157781904Y-128301010D01*
X157741400Y-128297021D01*
X157708351Y-128286996D01*
X157677894Y-128270716D01*
X157651201Y-128248809D01*
X157629294Y-128222116D01*
X157613014Y-128191659D01*
X157602989Y-128158610D01*
X157599000Y-128118106D01*
X157599000Y-126381914D01*
X157602989Y-126341410D01*
X157613014Y-126308361D01*
X157629294Y-126277904D01*
X157651201Y-126251211D01*
X157677894Y-126229304D01*
X157708351Y-126213024D01*
X157741400Y-126202999D01*
X157781904Y-126199010D01*
X159218096Y-126199010D01*
X159258600Y-126202999D01*
X159258600Y-126202999D01*
G37*
G36*
X176408602Y-126202999D02*
X176441651Y-126213024D01*
X176472108Y-126229304D01*
X176498801Y-126251211D01*
X176520708Y-126277904D01*
X176536988Y-126308361D01*
X176547013Y-126341410D01*
X176551002Y-126381914D01*
X176551002Y-128118106D01*
X176547013Y-128158610D01*
X176536988Y-128191659D01*
X176520708Y-128222116D01*
X176498801Y-128248809D01*
X176472108Y-128270716D01*
X176441651Y-128286996D01*
X176408602Y-128297021D01*
X176368098Y-128301010D01*
X174931906Y-128301010D01*
X174891402Y-128297021D01*
X174858353Y-128286996D01*
X174827896Y-128270716D01*
X174801203Y-128248809D01*
X174779296Y-128222116D01*
X174763016Y-128191659D01*
X174752991Y-128158610D01*
X174749002Y-128118106D01*
X174749002Y-126381914D01*
X174752991Y-126341410D01*
X174763016Y-126308361D01*
X174779296Y-126277904D01*
X174801203Y-126251211D01*
X174827896Y-126229304D01*
X174858353Y-126213024D01*
X174891402Y-126202999D01*
X174931906Y-126199010D01*
X176368098Y-126199010D01*
X176408602Y-126202999D01*
X176408602Y-126202999D01*
G37*
G36*
X148758600Y-126202999D02*
X148791649Y-126213024D01*
X148822106Y-126229304D01*
X148848799Y-126251211D01*
X148870706Y-126277904D01*
X148886986Y-126308361D01*
X148897011Y-126341410D01*
X148901000Y-126381914D01*
X148901000Y-128118106D01*
X148897011Y-128158610D01*
X148886986Y-128191659D01*
X148870706Y-128222116D01*
X148848799Y-128248809D01*
X148822106Y-128270716D01*
X148791649Y-128286996D01*
X148758600Y-128297021D01*
X148718096Y-128301010D01*
X147281904Y-128301010D01*
X147241400Y-128297021D01*
X147208351Y-128286996D01*
X147177894Y-128270716D01*
X147151201Y-128248809D01*
X147129294Y-128222116D01*
X147113014Y-128191659D01*
X147102989Y-128158610D01*
X147099000Y-128118106D01*
X147099000Y-126381914D01*
X147102989Y-126341410D01*
X147113014Y-126308361D01*
X147129294Y-126277904D01*
X147151201Y-126251211D01*
X147177894Y-126229304D01*
X147208351Y-126213024D01*
X147241400Y-126202999D01*
X147281904Y-126199010D01*
X148718096Y-126199010D01*
X148758600Y-126202999D01*
X148758600Y-126202999D01*
G37*
G36*
X184701002Y-122341010D02*
X182599002Y-122341010D01*
X182599002Y-118239010D01*
X184701002Y-118239010D01*
X184701002Y-122341010D01*
X184701002Y-122341010D01*
G37*
G36*
X214851004Y-122341010D02*
X212749004Y-122341010D01*
X212749004Y-118239010D01*
X214851004Y-118239010D01*
X214851004Y-122341010D01*
X214851004Y-122341010D01*
G37*
G36*
X187201002Y-122341010D02*
X185099002Y-122341010D01*
X185099002Y-118239010D01*
X187201002Y-118239010D01*
X187201002Y-122341010D01*
X187201002Y-122341010D01*
G37*
G36*
X212351004Y-122341010D02*
X210249004Y-122341010D01*
X210249004Y-118239010D01*
X212351004Y-118239010D01*
X212351004Y-122341010D01*
X212351004Y-122341010D01*
G37*
G36*
X204351004Y-122341010D02*
X202249004Y-122341010D01*
X202249004Y-118239010D01*
X204351004Y-118239010D01*
X204351004Y-122341010D01*
X204351004Y-122341010D01*
G37*
G36*
X201851004Y-122341010D02*
X199749004Y-122341010D01*
X199749004Y-118239010D01*
X201851004Y-118239010D01*
X201851004Y-122341010D01*
X201851004Y-122341010D01*
G37*
G36*
X176701002Y-122341010D02*
X174599002Y-122341010D01*
X174599002Y-118239010D01*
X176701002Y-118239010D01*
X176701002Y-122341010D01*
X176701002Y-122341010D01*
G37*
G36*
X174201002Y-122341010D02*
X172099002Y-122341010D01*
X172099002Y-118239010D01*
X174201002Y-118239010D01*
X174201002Y-122341010D01*
X174201002Y-122341010D01*
G37*
G36*
X159551000Y-122341010D02*
X157449000Y-122341010D01*
X157449000Y-118239010D01*
X159551000Y-118239010D01*
X159551000Y-122341010D01*
X159551000Y-122341010D01*
G37*
G36*
X157051000Y-122341010D02*
X154949000Y-122341010D01*
X154949000Y-118239010D01*
X157051000Y-118239010D01*
X157051000Y-122341010D01*
X157051000Y-122341010D01*
G37*
G36*
X149051000Y-122341010D02*
X146949000Y-122341010D01*
X146949000Y-118239010D01*
X149051000Y-118239010D01*
X149051000Y-122341010D01*
X149051000Y-122341010D01*
G37*
G36*
X146551000Y-122341010D02*
X144449000Y-122341010D01*
X144449000Y-118239010D01*
X146551000Y-118239010D01*
X146551000Y-122341010D01*
X146551000Y-122341010D01*
G37*
G36*
X191502529Y-118238746D02*
X191602412Y-118258614D01*
X191884676Y-118375531D01*
X192138707Y-118545269D01*
X192354743Y-118761305D01*
X192524481Y-119015336D01*
X192641398Y-119297600D01*
X192701002Y-119597250D01*
X192701002Y-119902770D01*
X192641398Y-120202420D01*
X192524481Y-120484684D01*
X192354743Y-120738715D01*
X192138707Y-120954751D01*
X191884676Y-121124489D01*
X191602412Y-121241406D01*
X191502529Y-121261274D01*
X191302764Y-121301010D01*
X190997240Y-121301010D01*
X190797475Y-121261274D01*
X190697592Y-121241406D01*
X190415328Y-121124489D01*
X190161297Y-120954751D01*
X189945261Y-120738715D01*
X189775523Y-120484684D01*
X189658606Y-120202420D01*
X189599002Y-119902770D01*
X189599002Y-119597250D01*
X189658606Y-119297600D01*
X189775523Y-119015336D01*
X189945261Y-118761305D01*
X190161297Y-118545269D01*
X190415328Y-118375531D01*
X190697592Y-118258614D01*
X190797475Y-118238746D01*
X190997240Y-118199010D01*
X191302764Y-118199010D01*
X191502529Y-118238746D01*
X191502529Y-118238746D01*
G37*
G36*
X219152531Y-118238746D02*
X219252414Y-118258614D01*
X219534678Y-118375531D01*
X219788709Y-118545269D01*
X220004745Y-118761305D01*
X220174483Y-119015336D01*
X220291400Y-119297600D01*
X220351004Y-119597250D01*
X220351004Y-119902770D01*
X220291400Y-120202420D01*
X220174483Y-120484684D01*
X220004745Y-120738715D01*
X219788709Y-120954751D01*
X219534678Y-121124489D01*
X219252414Y-121241406D01*
X219152531Y-121261274D01*
X218952766Y-121301010D01*
X218647242Y-121301010D01*
X218447477Y-121261274D01*
X218347594Y-121241406D01*
X218065330Y-121124489D01*
X217811299Y-120954751D01*
X217595263Y-120738715D01*
X217425525Y-120484684D01*
X217308608Y-120202420D01*
X217249004Y-119902770D01*
X217249004Y-119597250D01*
X217308608Y-119297600D01*
X217425525Y-119015336D01*
X217595263Y-118761305D01*
X217811299Y-118545269D01*
X218065330Y-118375531D01*
X218347594Y-118258614D01*
X218447477Y-118238746D01*
X218647242Y-118199010D01*
X218952766Y-118199010D01*
X219152531Y-118238746D01*
X219152531Y-118238746D01*
G37*
G36*
X140352527Y-118238746D02*
X140452410Y-118258614D01*
X140734674Y-118375531D01*
X140988705Y-118545269D01*
X141204741Y-118761305D01*
X141374479Y-119015336D01*
X141491396Y-119297600D01*
X141551000Y-119597250D01*
X141551000Y-119902770D01*
X141491396Y-120202420D01*
X141374479Y-120484684D01*
X141204741Y-120738715D01*
X140988705Y-120954751D01*
X140734674Y-121124489D01*
X140452410Y-121241406D01*
X140352527Y-121261274D01*
X140152762Y-121301010D01*
X139847238Y-121301010D01*
X139647473Y-121261274D01*
X139547590Y-121241406D01*
X139265326Y-121124489D01*
X139011295Y-120954751D01*
X138795259Y-120738715D01*
X138625521Y-120484684D01*
X138508604Y-120202420D01*
X138449000Y-119902770D01*
X138449000Y-119597250D01*
X138508604Y-119297600D01*
X138625521Y-119015336D01*
X138795259Y-118761305D01*
X139011295Y-118545269D01*
X139265326Y-118375531D01*
X139547590Y-118258614D01*
X139647473Y-118238746D01*
X139847238Y-118199010D01*
X140152762Y-118199010D01*
X140352527Y-118238746D01*
X140352527Y-118238746D01*
G37*
G36*
X195652531Y-118238746D02*
X195752414Y-118258614D01*
X196034678Y-118375531D01*
X196288709Y-118545269D01*
X196504745Y-118761305D01*
X196674483Y-119015336D01*
X196791400Y-119297600D01*
X196851004Y-119597250D01*
X196851004Y-119902770D01*
X196791400Y-120202420D01*
X196674483Y-120484684D01*
X196504745Y-120738715D01*
X196288709Y-120954751D01*
X196034678Y-121124489D01*
X195752414Y-121241406D01*
X195652531Y-121261274D01*
X195452766Y-121301010D01*
X195147242Y-121301010D01*
X194947477Y-121261274D01*
X194847594Y-121241406D01*
X194565330Y-121124489D01*
X194311299Y-120954751D01*
X194095263Y-120738715D01*
X193925525Y-120484684D01*
X193808608Y-120202420D01*
X193749004Y-119902770D01*
X193749004Y-119597250D01*
X193808608Y-119297600D01*
X193925525Y-119015336D01*
X194095263Y-118761305D01*
X194311299Y-118545269D01*
X194565330Y-118375531D01*
X194847594Y-118258614D01*
X194947477Y-118238746D01*
X195147242Y-118199010D01*
X195452766Y-118199010D01*
X195652531Y-118238746D01*
X195652531Y-118238746D01*
G37*
G36*
X168002529Y-118238746D02*
X168102412Y-118258614D01*
X168384676Y-118375531D01*
X168638707Y-118545269D01*
X168854743Y-118761305D01*
X169024481Y-119015336D01*
X169141398Y-119297600D01*
X169201002Y-119597250D01*
X169201002Y-119902770D01*
X169141398Y-120202420D01*
X169024481Y-120484684D01*
X168854743Y-120738715D01*
X168638707Y-120954751D01*
X168384676Y-121124489D01*
X168102412Y-121241406D01*
X168002529Y-121261274D01*
X167802764Y-121301010D01*
X167497240Y-121301010D01*
X167297475Y-121261274D01*
X167197592Y-121241406D01*
X166915328Y-121124489D01*
X166661297Y-120954751D01*
X166445261Y-120738715D01*
X166275523Y-120484684D01*
X166158606Y-120202420D01*
X166099002Y-119902770D01*
X166099002Y-119597250D01*
X166158606Y-119297600D01*
X166275523Y-119015336D01*
X166445261Y-118761305D01*
X166661297Y-118545269D01*
X166915328Y-118375531D01*
X167197592Y-118258614D01*
X167297475Y-118238746D01*
X167497240Y-118199010D01*
X167802764Y-118199010D01*
X168002529Y-118238746D01*
X168002529Y-118238746D01*
G37*
G36*
X163852527Y-118238746D02*
X163952410Y-118258614D01*
X164234674Y-118375531D01*
X164488705Y-118545269D01*
X164704741Y-118761305D01*
X164874479Y-119015336D01*
X164991396Y-119297600D01*
X165051000Y-119597250D01*
X165051000Y-119902770D01*
X164991396Y-120202420D01*
X164874479Y-120484684D01*
X164704741Y-120738715D01*
X164488705Y-120954751D01*
X164234674Y-121124489D01*
X163952410Y-121241406D01*
X163852527Y-121261274D01*
X163652762Y-121301010D01*
X163347238Y-121301010D01*
X163147473Y-121261274D01*
X163047590Y-121241406D01*
X162765326Y-121124489D01*
X162511295Y-120954751D01*
X162295259Y-120738715D01*
X162125521Y-120484684D01*
X162008604Y-120202420D01*
X161949000Y-119902770D01*
X161949000Y-119597250D01*
X162008604Y-119297600D01*
X162125521Y-119015336D01*
X162295259Y-118761305D01*
X162511295Y-118545269D01*
X162765326Y-118375531D01*
X163047590Y-118258614D01*
X163147473Y-118238746D01*
X163347238Y-118199010D01*
X163652762Y-118199010D01*
X163852527Y-118238746D01*
X163852527Y-118238746D01*
G37*
G36*
X163852527Y-114088744D02*
X163952410Y-114108612D01*
X164234674Y-114225529D01*
X164488705Y-114395267D01*
X164704741Y-114611303D01*
X164874479Y-114865334D01*
X164970220Y-115096475D01*
X164991396Y-115147599D01*
X165049103Y-115437707D01*
X165051000Y-115447248D01*
X165051000Y-115752768D01*
X164991396Y-116052418D01*
X164874479Y-116334682D01*
X164704741Y-116588713D01*
X164488705Y-116804749D01*
X164234674Y-116974487D01*
X163952410Y-117091404D01*
X163852527Y-117111272D01*
X163652762Y-117151008D01*
X163347238Y-117151008D01*
X163147473Y-117111272D01*
X163047590Y-117091404D01*
X162765326Y-116974487D01*
X162511295Y-116804749D01*
X162295259Y-116588713D01*
X162125521Y-116334682D01*
X162008604Y-116052418D01*
X161949000Y-115752768D01*
X161949000Y-115447248D01*
X161950898Y-115437707D01*
X162008604Y-115147599D01*
X162029780Y-115096475D01*
X162125521Y-114865334D01*
X162295259Y-114611303D01*
X162511295Y-114395267D01*
X162765326Y-114225529D01*
X163047590Y-114108612D01*
X163147473Y-114088744D01*
X163347238Y-114049008D01*
X163652762Y-114049008D01*
X163852527Y-114088744D01*
X163852527Y-114088744D01*
G37*
G36*
X168002529Y-114088744D02*
X168102412Y-114108612D01*
X168384676Y-114225529D01*
X168638707Y-114395267D01*
X168854743Y-114611303D01*
X169024481Y-114865334D01*
X169120222Y-115096475D01*
X169141398Y-115147599D01*
X169199105Y-115437707D01*
X169201002Y-115447248D01*
X169201002Y-115752768D01*
X169141398Y-116052418D01*
X169024481Y-116334682D01*
X168854743Y-116588713D01*
X168638707Y-116804749D01*
X168384676Y-116974487D01*
X168102412Y-117091404D01*
X168002529Y-117111272D01*
X167802764Y-117151008D01*
X167497240Y-117151008D01*
X167297475Y-117111272D01*
X167197592Y-117091404D01*
X166915328Y-116974487D01*
X166661297Y-116804749D01*
X166445261Y-116588713D01*
X166275523Y-116334682D01*
X166158606Y-116052418D01*
X166099002Y-115752768D01*
X166099002Y-115447248D01*
X166100900Y-115437707D01*
X166158606Y-115147599D01*
X166179782Y-115096475D01*
X166275523Y-114865334D01*
X166445261Y-114611303D01*
X166661297Y-114395267D01*
X166915328Y-114225529D01*
X167197592Y-114108612D01*
X167297475Y-114088744D01*
X167497240Y-114049008D01*
X167802764Y-114049008D01*
X168002529Y-114088744D01*
X168002529Y-114088744D01*
G37*
G36*
X191502529Y-114088744D02*
X191602412Y-114108612D01*
X191884676Y-114225529D01*
X192138707Y-114395267D01*
X192354743Y-114611303D01*
X192524481Y-114865334D01*
X192620222Y-115096475D01*
X192641398Y-115147599D01*
X192699105Y-115437707D01*
X192701002Y-115447248D01*
X192701002Y-115752768D01*
X192641398Y-116052418D01*
X192524481Y-116334682D01*
X192354743Y-116588713D01*
X192138707Y-116804749D01*
X191884676Y-116974487D01*
X191602412Y-117091404D01*
X191502529Y-117111272D01*
X191302764Y-117151008D01*
X190997240Y-117151008D01*
X190797475Y-117111272D01*
X190697592Y-117091404D01*
X190415328Y-116974487D01*
X190161297Y-116804749D01*
X189945261Y-116588713D01*
X189775523Y-116334682D01*
X189658606Y-116052418D01*
X189599002Y-115752768D01*
X189599002Y-115447248D01*
X189600900Y-115437707D01*
X189658606Y-115147599D01*
X189679782Y-115096475D01*
X189775523Y-114865334D01*
X189945261Y-114611303D01*
X190161297Y-114395267D01*
X190415328Y-114225529D01*
X190697592Y-114108612D01*
X190797475Y-114088744D01*
X190997240Y-114049008D01*
X191302764Y-114049008D01*
X191502529Y-114088744D01*
X191502529Y-114088744D01*
G37*
G36*
X195652531Y-114088744D02*
X195752414Y-114108612D01*
X196034678Y-114225529D01*
X196288709Y-114395267D01*
X196504745Y-114611303D01*
X196674483Y-114865334D01*
X196770224Y-115096475D01*
X196791400Y-115147599D01*
X196849107Y-115437707D01*
X196851004Y-115447248D01*
X196851004Y-115752768D01*
X196791400Y-116052418D01*
X196674483Y-116334682D01*
X196504745Y-116588713D01*
X196288709Y-116804749D01*
X196034678Y-116974487D01*
X195752414Y-117091404D01*
X195652531Y-117111272D01*
X195452766Y-117151008D01*
X195147242Y-117151008D01*
X194947477Y-117111272D01*
X194847594Y-117091404D01*
X194565330Y-116974487D01*
X194311299Y-116804749D01*
X194095263Y-116588713D01*
X193925525Y-116334682D01*
X193808608Y-116052418D01*
X193749004Y-115752768D01*
X193749004Y-115447248D01*
X193750902Y-115437707D01*
X193808608Y-115147599D01*
X193829784Y-115096475D01*
X193925525Y-114865334D01*
X194095263Y-114611303D01*
X194311299Y-114395267D01*
X194565330Y-114225529D01*
X194847594Y-114108612D01*
X194947477Y-114088744D01*
X195147242Y-114049008D01*
X195452766Y-114049008D01*
X195652531Y-114088744D01*
X195652531Y-114088744D01*
G37*
G36*
X219152531Y-114088744D02*
X219252414Y-114108612D01*
X219534678Y-114225529D01*
X219788709Y-114395267D01*
X220004745Y-114611303D01*
X220174483Y-114865334D01*
X220270224Y-115096475D01*
X220291400Y-115147599D01*
X220349107Y-115437707D01*
X220351004Y-115447248D01*
X220351004Y-115752768D01*
X220291400Y-116052418D01*
X220174483Y-116334682D01*
X220004745Y-116588713D01*
X219788709Y-116804749D01*
X219534678Y-116974487D01*
X219252414Y-117091404D01*
X219152531Y-117111272D01*
X218952766Y-117151008D01*
X218647242Y-117151008D01*
X218447477Y-117111272D01*
X218347594Y-117091404D01*
X218065330Y-116974487D01*
X217811299Y-116804749D01*
X217595263Y-116588713D01*
X217425525Y-116334682D01*
X217308608Y-116052418D01*
X217249004Y-115752768D01*
X217249004Y-115447248D01*
X217250902Y-115437707D01*
X217308608Y-115147599D01*
X217329784Y-115096475D01*
X217425525Y-114865334D01*
X217595263Y-114611303D01*
X217811299Y-114395267D01*
X218065330Y-114225529D01*
X218347594Y-114108612D01*
X218447477Y-114088744D01*
X218647242Y-114049008D01*
X218952766Y-114049008D01*
X219152531Y-114088744D01*
X219152531Y-114088744D01*
G37*
G36*
X140352527Y-114088744D02*
X140452410Y-114108612D01*
X140734674Y-114225529D01*
X140988705Y-114395267D01*
X141204741Y-114611303D01*
X141374479Y-114865334D01*
X141470220Y-115096475D01*
X141491396Y-115147599D01*
X141549103Y-115437707D01*
X141551000Y-115447248D01*
X141551000Y-115752768D01*
X141491396Y-116052418D01*
X141374479Y-116334682D01*
X141204741Y-116588713D01*
X140988705Y-116804749D01*
X140734674Y-116974487D01*
X140452410Y-117091404D01*
X140352527Y-117111272D01*
X140152762Y-117151008D01*
X139847238Y-117151008D01*
X139647473Y-117111272D01*
X139547590Y-117091404D01*
X139265326Y-116974487D01*
X139011295Y-116804749D01*
X138795259Y-116588713D01*
X138625521Y-116334682D01*
X138508604Y-116052418D01*
X138449000Y-115752768D01*
X138449000Y-115447248D01*
X138450898Y-115437707D01*
X138508604Y-115147599D01*
X138529780Y-115096475D01*
X138625521Y-114865334D01*
X138795259Y-114611303D01*
X139011295Y-114395267D01*
X139265326Y-114225529D01*
X139547590Y-114108612D01*
X139647473Y-114088744D01*
X139847238Y-114049008D01*
X140152762Y-114049008D01*
X140352527Y-114088744D01*
X140352527Y-114088744D01*
G37*
G36*
X200976631Y-113562045D02*
X201089857Y-113596392D01*
X201146471Y-113613565D01*
X201285091Y-113687660D01*
X201302995Y-113697230D01*
X201338733Y-113726560D01*
X201440190Y-113809822D01*
X201523452Y-113911279D01*
X201552782Y-113947017D01*
X201636447Y-114103542D01*
X201687967Y-114273382D01*
X201687967Y-114273384D01*
X201699972Y-114395267D01*
X201701004Y-114405751D01*
X201701004Y-114794266D01*
X201687967Y-114926635D01*
X201653620Y-115039861D01*
X201636447Y-115096475D01*
X201609120Y-115147599D01*
X201552782Y-115252999D01*
X201523452Y-115288737D01*
X201440190Y-115390194D01*
X201302993Y-115502787D01*
X201146470Y-115586451D01*
X201105737Y-115598807D01*
X200976630Y-115637971D01*
X200800004Y-115655367D01*
X200623377Y-115637971D01*
X200494270Y-115598807D01*
X200453537Y-115586451D01*
X200297015Y-115502787D01*
X200297013Y-115502786D01*
X200229340Y-115447248D01*
X200159818Y-115390194D01*
X200047225Y-115252997D01*
X199963561Y-115096474D01*
X199946388Y-115039860D01*
X199912041Y-114926634D01*
X199899004Y-114794265D01*
X199899004Y-114405750D01*
X199912041Y-114273381D01*
X199963561Y-114103542D01*
X199963561Y-114103541D01*
X200047226Y-113947016D01*
X200159816Y-113809825D01*
X200254754Y-113731912D01*
X200297014Y-113697230D01*
X200314918Y-113687660D01*
X200453538Y-113613565D01*
X200510152Y-113596392D01*
X200623378Y-113562045D01*
X200800004Y-113544649D01*
X200976631Y-113562045D01*
X200976631Y-113562045D01*
G37*
G36*
X173326629Y-113562045D02*
X173439855Y-113596392D01*
X173496469Y-113613565D01*
X173635089Y-113687660D01*
X173652993Y-113697230D01*
X173688731Y-113726560D01*
X173790188Y-113809822D01*
X173873450Y-113911279D01*
X173902780Y-113947017D01*
X173986445Y-114103542D01*
X174037965Y-114273382D01*
X174037965Y-114273384D01*
X174049970Y-114395267D01*
X174051002Y-114405751D01*
X174051002Y-114794266D01*
X174037965Y-114926635D01*
X174003618Y-115039861D01*
X173986445Y-115096475D01*
X173959118Y-115147599D01*
X173902780Y-115252999D01*
X173873450Y-115288737D01*
X173790188Y-115390194D01*
X173652991Y-115502787D01*
X173496468Y-115586451D01*
X173455735Y-115598807D01*
X173326628Y-115637971D01*
X173150002Y-115655367D01*
X172973375Y-115637971D01*
X172844268Y-115598807D01*
X172803535Y-115586451D01*
X172647013Y-115502787D01*
X172647011Y-115502786D01*
X172579338Y-115447248D01*
X172509816Y-115390194D01*
X172397223Y-115252997D01*
X172313559Y-115096474D01*
X172296386Y-115039860D01*
X172262039Y-114926634D01*
X172249002Y-114794265D01*
X172249002Y-114405750D01*
X172262039Y-114273381D01*
X172313559Y-114103542D01*
X172313559Y-114103541D01*
X172397224Y-113947016D01*
X172509814Y-113809825D01*
X172604752Y-113731912D01*
X172647012Y-113697230D01*
X172664916Y-113687660D01*
X172803536Y-113613565D01*
X172860150Y-113596392D01*
X172973376Y-113562045D01*
X173150002Y-113544649D01*
X173326629Y-113562045D01*
X173326629Y-113562045D01*
G37*
G36*
X145676627Y-113562045D02*
X145789853Y-113596392D01*
X145846467Y-113613565D01*
X145985087Y-113687660D01*
X146002991Y-113697230D01*
X146038729Y-113726560D01*
X146140186Y-113809822D01*
X146223448Y-113911279D01*
X146252778Y-113947017D01*
X146336443Y-114103542D01*
X146387963Y-114273382D01*
X146387963Y-114273384D01*
X146399968Y-114395267D01*
X146401000Y-114405751D01*
X146401000Y-114794266D01*
X146387963Y-114926635D01*
X146353616Y-115039861D01*
X146336443Y-115096475D01*
X146309116Y-115147599D01*
X146252778Y-115252999D01*
X146223448Y-115288737D01*
X146140186Y-115390194D01*
X146002989Y-115502787D01*
X145846466Y-115586451D01*
X145805733Y-115598807D01*
X145676626Y-115637971D01*
X145500000Y-115655367D01*
X145323373Y-115637971D01*
X145194266Y-115598807D01*
X145153533Y-115586451D01*
X144997011Y-115502787D01*
X144997009Y-115502786D01*
X144929336Y-115447248D01*
X144859814Y-115390194D01*
X144747221Y-115252997D01*
X144663557Y-115096474D01*
X144646384Y-115039860D01*
X144612037Y-114926634D01*
X144599000Y-114794265D01*
X144599000Y-114405750D01*
X144612037Y-114273381D01*
X144663557Y-114103542D01*
X144663557Y-114103541D01*
X144747222Y-113947016D01*
X144859812Y-113809825D01*
X144954750Y-113731912D01*
X144997010Y-113697230D01*
X145014914Y-113687660D01*
X145153534Y-113613565D01*
X145210148Y-113596392D01*
X145323374Y-113562045D01*
X145500000Y-113544649D01*
X145676627Y-113562045D01*
X145676627Y-113562045D01*
G37*
G36*
X156176627Y-113562045D02*
X156289853Y-113596392D01*
X156346467Y-113613565D01*
X156485087Y-113687660D01*
X156502991Y-113697230D01*
X156538729Y-113726560D01*
X156640186Y-113809822D01*
X156723448Y-113911279D01*
X156752778Y-113947017D01*
X156836443Y-114103542D01*
X156887963Y-114273382D01*
X156887963Y-114273384D01*
X156899968Y-114395267D01*
X156901000Y-114405751D01*
X156901000Y-114794266D01*
X156887963Y-114926635D01*
X156853616Y-115039861D01*
X156836443Y-115096475D01*
X156809116Y-115147599D01*
X156752778Y-115252999D01*
X156723448Y-115288737D01*
X156640186Y-115390194D01*
X156502989Y-115502787D01*
X156346466Y-115586451D01*
X156305733Y-115598807D01*
X156176626Y-115637971D01*
X156000000Y-115655367D01*
X155823373Y-115637971D01*
X155694266Y-115598807D01*
X155653533Y-115586451D01*
X155497011Y-115502787D01*
X155497009Y-115502786D01*
X155429336Y-115447248D01*
X155359814Y-115390194D01*
X155247221Y-115252997D01*
X155163557Y-115096474D01*
X155146384Y-115039860D01*
X155112037Y-114926634D01*
X155099000Y-114794265D01*
X155099000Y-114405750D01*
X155112037Y-114273381D01*
X155163557Y-114103542D01*
X155163557Y-114103541D01*
X155247222Y-113947016D01*
X155359812Y-113809825D01*
X155454750Y-113731912D01*
X155497010Y-113697230D01*
X155514914Y-113687660D01*
X155653534Y-113613565D01*
X155710148Y-113596392D01*
X155823374Y-113562045D01*
X156000000Y-113544649D01*
X156176627Y-113562045D01*
X156176627Y-113562045D01*
G37*
G36*
X183826629Y-113562045D02*
X183939855Y-113596392D01*
X183996469Y-113613565D01*
X184135089Y-113687660D01*
X184152993Y-113697230D01*
X184188731Y-113726560D01*
X184290188Y-113809822D01*
X184373450Y-113911279D01*
X184402780Y-113947017D01*
X184486445Y-114103542D01*
X184537965Y-114273382D01*
X184537965Y-114273384D01*
X184549970Y-114395267D01*
X184551002Y-114405751D01*
X184551002Y-114794266D01*
X184537965Y-114926635D01*
X184503618Y-115039861D01*
X184486445Y-115096475D01*
X184459118Y-115147599D01*
X184402780Y-115252999D01*
X184373450Y-115288737D01*
X184290188Y-115390194D01*
X184152991Y-115502787D01*
X183996468Y-115586451D01*
X183955735Y-115598807D01*
X183826628Y-115637971D01*
X183650002Y-115655367D01*
X183473375Y-115637971D01*
X183344268Y-115598807D01*
X183303535Y-115586451D01*
X183147013Y-115502787D01*
X183147011Y-115502786D01*
X183079338Y-115447248D01*
X183009816Y-115390194D01*
X182897223Y-115252997D01*
X182813559Y-115096474D01*
X182796386Y-115039860D01*
X182762039Y-114926634D01*
X182749002Y-114794265D01*
X182749002Y-114405750D01*
X182762039Y-114273381D01*
X182813559Y-114103542D01*
X182813559Y-114103541D01*
X182897224Y-113947016D01*
X183009814Y-113809825D01*
X183104752Y-113731912D01*
X183147012Y-113697230D01*
X183164916Y-113687660D01*
X183303536Y-113613565D01*
X183360150Y-113596392D01*
X183473376Y-113562045D01*
X183650002Y-113544649D01*
X183826629Y-113562045D01*
X183826629Y-113562045D01*
G37*
G36*
X211476631Y-113562045D02*
X211589857Y-113596392D01*
X211646471Y-113613565D01*
X211785091Y-113687660D01*
X211802995Y-113697230D01*
X211838733Y-113726560D01*
X211940190Y-113809822D01*
X212023452Y-113911279D01*
X212052782Y-113947017D01*
X212136447Y-114103542D01*
X212187967Y-114273382D01*
X212187967Y-114273384D01*
X212199972Y-114395267D01*
X212201004Y-114405751D01*
X212201004Y-114794266D01*
X212187967Y-114926635D01*
X212153620Y-115039861D01*
X212136447Y-115096475D01*
X212109120Y-115147599D01*
X212052782Y-115252999D01*
X212023452Y-115288737D01*
X211940190Y-115390194D01*
X211802993Y-115502787D01*
X211646470Y-115586451D01*
X211605737Y-115598807D01*
X211476630Y-115637971D01*
X211300004Y-115655367D01*
X211123377Y-115637971D01*
X210994270Y-115598807D01*
X210953537Y-115586451D01*
X210797015Y-115502787D01*
X210797013Y-115502786D01*
X210729340Y-115447248D01*
X210659818Y-115390194D01*
X210547225Y-115252997D01*
X210463561Y-115096474D01*
X210446388Y-115039860D01*
X210412041Y-114926634D01*
X210399004Y-114794265D01*
X210399004Y-114405750D01*
X210412041Y-114273381D01*
X210463561Y-114103542D01*
X210463561Y-114103541D01*
X210547226Y-113947016D01*
X210659816Y-113809825D01*
X210754754Y-113731912D01*
X210797014Y-113697230D01*
X210814918Y-113687660D01*
X210953538Y-113613565D01*
X211010152Y-113596392D01*
X211123378Y-113562045D01*
X211300004Y-113544649D01*
X211476631Y-113562045D01*
X211476631Y-113562045D01*
G37*
G36*
X214558604Y-113552997D02*
X214591653Y-113563022D01*
X214622110Y-113579302D01*
X214648803Y-113601209D01*
X214670710Y-113627902D01*
X214686990Y-113658359D01*
X214697015Y-113691408D01*
X214701004Y-113731912D01*
X214701004Y-115468104D01*
X214697015Y-115508608D01*
X214686990Y-115541657D01*
X214670710Y-115572114D01*
X214648803Y-115598807D01*
X214622110Y-115620714D01*
X214591653Y-115636994D01*
X214558604Y-115647019D01*
X214518100Y-115651008D01*
X213081908Y-115651008D01*
X213041404Y-115647019D01*
X213008355Y-115636994D01*
X212977898Y-115620714D01*
X212951205Y-115598807D01*
X212929298Y-115572114D01*
X212913018Y-115541657D01*
X212902993Y-115508608D01*
X212899004Y-115468104D01*
X212899004Y-113731912D01*
X212902993Y-113691408D01*
X212913018Y-113658359D01*
X212929298Y-113627902D01*
X212951205Y-113601209D01*
X212977898Y-113579302D01*
X213008355Y-113563022D01*
X213041404Y-113552997D01*
X213081908Y-113549008D01*
X214518100Y-113549008D01*
X214558604Y-113552997D01*
X214558604Y-113552997D01*
G37*
G36*
X186908602Y-113552997D02*
X186941651Y-113563022D01*
X186972108Y-113579302D01*
X186998801Y-113601209D01*
X187020708Y-113627902D01*
X187036988Y-113658359D01*
X187047013Y-113691408D01*
X187051002Y-113731912D01*
X187051002Y-115468104D01*
X187047013Y-115508608D01*
X187036988Y-115541657D01*
X187020708Y-115572114D01*
X186998801Y-115598807D01*
X186972108Y-115620714D01*
X186941651Y-115636994D01*
X186908602Y-115647019D01*
X186868098Y-115651008D01*
X185431906Y-115651008D01*
X185391402Y-115647019D01*
X185358353Y-115636994D01*
X185327896Y-115620714D01*
X185301203Y-115598807D01*
X185279296Y-115572114D01*
X185263016Y-115541657D01*
X185252991Y-115508608D01*
X185249002Y-115468104D01*
X185249002Y-113731912D01*
X185252991Y-113691408D01*
X185263016Y-113658359D01*
X185279296Y-113627902D01*
X185301203Y-113601209D01*
X185327896Y-113579302D01*
X185358353Y-113563022D01*
X185391402Y-113552997D01*
X185431906Y-113549008D01*
X186868098Y-113549008D01*
X186908602Y-113552997D01*
X186908602Y-113552997D01*
G37*
G36*
X204058604Y-113552997D02*
X204091653Y-113563022D01*
X204122110Y-113579302D01*
X204148803Y-113601209D01*
X204170710Y-113627902D01*
X204186990Y-113658359D01*
X204197015Y-113691408D01*
X204201004Y-113731912D01*
X204201004Y-115468104D01*
X204197015Y-115508608D01*
X204186990Y-115541657D01*
X204170710Y-115572114D01*
X204148803Y-115598807D01*
X204122110Y-115620714D01*
X204091653Y-115636994D01*
X204058604Y-115647019D01*
X204018100Y-115651008D01*
X202581908Y-115651008D01*
X202541404Y-115647019D01*
X202508355Y-115636994D01*
X202477898Y-115620714D01*
X202451205Y-115598807D01*
X202429298Y-115572114D01*
X202413018Y-115541657D01*
X202402993Y-115508608D01*
X202399004Y-115468104D01*
X202399004Y-113731912D01*
X202402993Y-113691408D01*
X202413018Y-113658359D01*
X202429298Y-113627902D01*
X202451205Y-113601209D01*
X202477898Y-113579302D01*
X202508355Y-113563022D01*
X202541404Y-113552997D01*
X202581908Y-113549008D01*
X204018100Y-113549008D01*
X204058604Y-113552997D01*
X204058604Y-113552997D01*
G37*
G36*
X148758600Y-113552997D02*
X148791649Y-113563022D01*
X148822106Y-113579302D01*
X148848799Y-113601209D01*
X148870706Y-113627902D01*
X148886986Y-113658359D01*
X148897011Y-113691408D01*
X148901000Y-113731912D01*
X148901000Y-115468104D01*
X148897011Y-115508608D01*
X148886986Y-115541657D01*
X148870706Y-115572114D01*
X148848799Y-115598807D01*
X148822106Y-115620714D01*
X148791649Y-115636994D01*
X148758600Y-115647019D01*
X148718096Y-115651008D01*
X147281904Y-115651008D01*
X147241400Y-115647019D01*
X147208351Y-115636994D01*
X147177894Y-115620714D01*
X147151201Y-115598807D01*
X147129294Y-115572114D01*
X147113014Y-115541657D01*
X147102989Y-115508608D01*
X147099000Y-115468104D01*
X147099000Y-113731912D01*
X147102989Y-113691408D01*
X147113014Y-113658359D01*
X147129294Y-113627902D01*
X147151201Y-113601209D01*
X147177894Y-113579302D01*
X147208351Y-113563022D01*
X147241400Y-113552997D01*
X147281904Y-113549008D01*
X148718096Y-113549008D01*
X148758600Y-113552997D01*
X148758600Y-113552997D01*
G37*
G36*
X176408602Y-113552997D02*
X176441651Y-113563022D01*
X176472108Y-113579302D01*
X176498801Y-113601209D01*
X176520708Y-113627902D01*
X176536988Y-113658359D01*
X176547013Y-113691408D01*
X176551002Y-113731912D01*
X176551002Y-115468104D01*
X176547013Y-115508608D01*
X176536988Y-115541657D01*
X176520708Y-115572114D01*
X176498801Y-115598807D01*
X176472108Y-115620714D01*
X176441651Y-115636994D01*
X176408602Y-115647019D01*
X176368098Y-115651008D01*
X174931906Y-115651008D01*
X174891402Y-115647019D01*
X174858353Y-115636994D01*
X174827896Y-115620714D01*
X174801203Y-115598807D01*
X174779296Y-115572114D01*
X174763016Y-115541657D01*
X174752991Y-115508608D01*
X174749002Y-115468104D01*
X174749002Y-113731912D01*
X174752991Y-113691408D01*
X174763016Y-113658359D01*
X174779296Y-113627902D01*
X174801203Y-113601209D01*
X174827896Y-113579302D01*
X174858353Y-113563022D01*
X174891402Y-113552997D01*
X174931906Y-113549008D01*
X176368098Y-113549008D01*
X176408602Y-113552997D01*
X176408602Y-113552997D01*
G37*
G36*
X159258600Y-113552997D02*
X159291649Y-113563022D01*
X159322106Y-113579302D01*
X159348799Y-113601209D01*
X159370706Y-113627902D01*
X159386986Y-113658359D01*
X159397011Y-113691408D01*
X159401000Y-113731912D01*
X159401000Y-115468104D01*
X159397011Y-115508608D01*
X159386986Y-115541657D01*
X159370706Y-115572114D01*
X159348799Y-115598807D01*
X159322106Y-115620714D01*
X159291649Y-115636994D01*
X159258600Y-115647019D01*
X159218096Y-115651008D01*
X157781904Y-115651008D01*
X157741400Y-115647019D01*
X157708351Y-115636994D01*
X157677894Y-115620714D01*
X157651201Y-115598807D01*
X157629294Y-115572114D01*
X157613014Y-115541657D01*
X157602989Y-115508608D01*
X157599000Y-115468104D01*
X157599000Y-113731912D01*
X157602989Y-113691408D01*
X157613014Y-113658359D01*
X157629294Y-113627902D01*
X157651201Y-113601209D01*
X157677894Y-113579302D01*
X157708351Y-113563022D01*
X157741400Y-113552997D01*
X157781904Y-113549008D01*
X159218096Y-113549008D01*
X159258600Y-113552997D01*
X159258600Y-113552997D01*
G37*
G36*
X184701002Y-109691008D02*
X182599002Y-109691008D01*
X182599002Y-105589008D01*
X184701002Y-105589008D01*
X184701002Y-109691008D01*
X184701002Y-109691008D01*
G37*
G36*
X159551000Y-109691008D02*
X157449000Y-109691008D01*
X157449000Y-105589008D01*
X159551000Y-105589008D01*
X159551000Y-109691008D01*
X159551000Y-109691008D01*
G37*
G36*
X157051000Y-109691008D02*
X154949000Y-109691008D01*
X154949000Y-105589008D01*
X157051000Y-105589008D01*
X157051000Y-109691008D01*
X157051000Y-109691008D01*
G37*
G36*
X187201002Y-109691008D02*
X185099002Y-109691008D01*
X185099002Y-105589008D01*
X187201002Y-105589008D01*
X187201002Y-109691008D01*
X187201002Y-109691008D01*
G37*
G36*
X146551000Y-109691008D02*
X144449000Y-109691008D01*
X144449000Y-105589008D01*
X146551000Y-105589008D01*
X146551000Y-109691008D01*
X146551000Y-109691008D01*
G37*
G36*
X174201002Y-109691008D02*
X172099002Y-109691008D01*
X172099002Y-105589008D01*
X174201002Y-105589008D01*
X174201002Y-109691008D01*
X174201002Y-109691008D01*
G37*
G36*
X149051000Y-109691008D02*
X146949000Y-109691008D01*
X146949000Y-105589008D01*
X149051000Y-105589008D01*
X149051000Y-109691008D01*
X149051000Y-109691008D01*
G37*
G36*
X212351004Y-109691008D02*
X210249004Y-109691008D01*
X210249004Y-105589008D01*
X212351004Y-105589008D01*
X212351004Y-109691008D01*
X212351004Y-109691008D01*
G37*
G36*
X176701002Y-109691008D02*
X174599002Y-109691008D01*
X174599002Y-105589008D01*
X176701002Y-105589008D01*
X176701002Y-109691008D01*
X176701002Y-109691008D01*
G37*
G36*
X204351004Y-109691008D02*
X202249004Y-109691008D01*
X202249004Y-105589008D01*
X204351004Y-105589008D01*
X204351004Y-109691008D01*
X204351004Y-109691008D01*
G37*
G36*
X214851004Y-109691008D02*
X212749004Y-109691008D01*
X212749004Y-105589008D01*
X214851004Y-105589008D01*
X214851004Y-109691008D01*
X214851004Y-109691008D01*
G37*
G36*
X201851004Y-109691008D02*
X199749004Y-109691008D01*
X199749004Y-105589008D01*
X201851004Y-105589008D01*
X201851004Y-109691008D01*
X201851004Y-109691008D01*
G37*
G36*
X168002529Y-105588744D02*
X168102412Y-105608612D01*
X168384676Y-105725529D01*
X168638707Y-105895267D01*
X168854743Y-106111303D01*
X169024481Y-106365334D01*
X169141398Y-106647598D01*
X169201002Y-106947248D01*
X169201002Y-107252768D01*
X169141398Y-107552418D01*
X169024481Y-107834682D01*
X168854743Y-108088713D01*
X168638707Y-108304749D01*
X168384676Y-108474487D01*
X168102412Y-108591404D01*
X168002529Y-108611272D01*
X167802764Y-108651008D01*
X167497240Y-108651008D01*
X167297475Y-108611272D01*
X167197592Y-108591404D01*
X166915328Y-108474487D01*
X166661297Y-108304749D01*
X166445261Y-108088713D01*
X166275523Y-107834682D01*
X166158606Y-107552418D01*
X166099002Y-107252768D01*
X166099002Y-106947248D01*
X166158606Y-106647598D01*
X166275523Y-106365334D01*
X166445261Y-106111303D01*
X166661297Y-105895267D01*
X166915328Y-105725529D01*
X167197592Y-105608612D01*
X167297475Y-105588744D01*
X167497240Y-105549008D01*
X167802764Y-105549008D01*
X168002529Y-105588744D01*
X168002529Y-105588744D01*
G37*
G36*
X195652531Y-105588744D02*
X195752414Y-105608612D01*
X196034678Y-105725529D01*
X196288709Y-105895267D01*
X196504745Y-106111303D01*
X196674483Y-106365334D01*
X196791400Y-106647598D01*
X196851004Y-106947248D01*
X196851004Y-107252768D01*
X196791400Y-107552418D01*
X196674483Y-107834682D01*
X196504745Y-108088713D01*
X196288709Y-108304749D01*
X196034678Y-108474487D01*
X195752414Y-108591404D01*
X195652531Y-108611272D01*
X195452766Y-108651008D01*
X195147242Y-108651008D01*
X194947477Y-108611272D01*
X194847594Y-108591404D01*
X194565330Y-108474487D01*
X194311299Y-108304749D01*
X194095263Y-108088713D01*
X193925525Y-107834682D01*
X193808608Y-107552418D01*
X193749004Y-107252768D01*
X193749004Y-106947248D01*
X193808608Y-106647598D01*
X193925525Y-106365334D01*
X194095263Y-106111303D01*
X194311299Y-105895267D01*
X194565330Y-105725529D01*
X194847594Y-105608612D01*
X194947477Y-105588744D01*
X195147242Y-105549008D01*
X195452766Y-105549008D01*
X195652531Y-105588744D01*
X195652531Y-105588744D01*
G37*
G36*
X191502529Y-105588744D02*
X191602412Y-105608612D01*
X191884676Y-105725529D01*
X192138707Y-105895267D01*
X192354743Y-106111303D01*
X192524481Y-106365334D01*
X192641398Y-106647598D01*
X192701002Y-106947248D01*
X192701002Y-107252768D01*
X192641398Y-107552418D01*
X192524481Y-107834682D01*
X192354743Y-108088713D01*
X192138707Y-108304749D01*
X191884676Y-108474487D01*
X191602412Y-108591404D01*
X191502529Y-108611272D01*
X191302764Y-108651008D01*
X190997240Y-108651008D01*
X190797475Y-108611272D01*
X190697592Y-108591404D01*
X190415328Y-108474487D01*
X190161297Y-108304749D01*
X189945261Y-108088713D01*
X189775523Y-107834682D01*
X189658606Y-107552418D01*
X189599002Y-107252768D01*
X189599002Y-106947248D01*
X189658606Y-106647598D01*
X189775523Y-106365334D01*
X189945261Y-106111303D01*
X190161297Y-105895267D01*
X190415328Y-105725529D01*
X190697592Y-105608612D01*
X190797475Y-105588744D01*
X190997240Y-105549008D01*
X191302764Y-105549008D01*
X191502529Y-105588744D01*
X191502529Y-105588744D01*
G37*
G36*
X163852527Y-105588744D02*
X163952410Y-105608612D01*
X164234674Y-105725529D01*
X164488705Y-105895267D01*
X164704741Y-106111303D01*
X164874479Y-106365334D01*
X164991396Y-106647598D01*
X165051000Y-106947248D01*
X165051000Y-107252768D01*
X164991396Y-107552418D01*
X164874479Y-107834682D01*
X164704741Y-108088713D01*
X164488705Y-108304749D01*
X164234674Y-108474487D01*
X163952410Y-108591404D01*
X163852527Y-108611272D01*
X163652762Y-108651008D01*
X163347238Y-108651008D01*
X163147473Y-108611272D01*
X163047590Y-108591404D01*
X162765326Y-108474487D01*
X162511295Y-108304749D01*
X162295259Y-108088713D01*
X162125521Y-107834682D01*
X162008604Y-107552418D01*
X161949000Y-107252768D01*
X161949000Y-106947248D01*
X162008604Y-106647598D01*
X162125521Y-106365334D01*
X162295259Y-106111303D01*
X162511295Y-105895267D01*
X162765326Y-105725529D01*
X163047590Y-105608612D01*
X163147473Y-105588744D01*
X163347238Y-105549008D01*
X163652762Y-105549008D01*
X163852527Y-105588744D01*
X163852527Y-105588744D01*
G37*
G36*
X140352527Y-105588744D02*
X140452410Y-105608612D01*
X140734674Y-105725529D01*
X140988705Y-105895267D01*
X141204741Y-106111303D01*
X141374479Y-106365334D01*
X141491396Y-106647598D01*
X141551000Y-106947248D01*
X141551000Y-107252768D01*
X141491396Y-107552418D01*
X141374479Y-107834682D01*
X141204741Y-108088713D01*
X140988705Y-108304749D01*
X140734674Y-108474487D01*
X140452410Y-108591404D01*
X140352527Y-108611272D01*
X140152762Y-108651008D01*
X139847238Y-108651008D01*
X139647473Y-108611272D01*
X139547590Y-108591404D01*
X139265326Y-108474487D01*
X139011295Y-108304749D01*
X138795259Y-108088713D01*
X138625521Y-107834682D01*
X138508604Y-107552418D01*
X138449000Y-107252768D01*
X138449000Y-106947248D01*
X138508604Y-106647598D01*
X138625521Y-106365334D01*
X138795259Y-106111303D01*
X139011295Y-105895267D01*
X139265326Y-105725529D01*
X139547590Y-105608612D01*
X139647473Y-105588744D01*
X139847238Y-105549008D01*
X140152762Y-105549008D01*
X140352527Y-105588744D01*
X140352527Y-105588744D01*
G37*
G36*
X219152531Y-105588744D02*
X219252414Y-105608612D01*
X219534678Y-105725529D01*
X219788709Y-105895267D01*
X220004745Y-106111303D01*
X220174483Y-106365334D01*
X220291400Y-106647598D01*
X220351004Y-106947248D01*
X220351004Y-107252768D01*
X220291400Y-107552418D01*
X220174483Y-107834682D01*
X220004745Y-108088713D01*
X219788709Y-108304749D01*
X219534678Y-108474487D01*
X219252414Y-108591404D01*
X219152531Y-108611272D01*
X218952766Y-108651008D01*
X218647242Y-108651008D01*
X218447477Y-108611272D01*
X218347594Y-108591404D01*
X218065330Y-108474487D01*
X217811299Y-108304749D01*
X217595263Y-108088713D01*
X217425525Y-107834682D01*
X217308608Y-107552418D01*
X217249004Y-107252768D01*
X217249004Y-106947248D01*
X217308608Y-106647598D01*
X217425525Y-106365334D01*
X217595263Y-106111303D01*
X217811299Y-105895267D01*
X218065330Y-105725529D01*
X218347594Y-105608612D01*
X218447477Y-105588744D01*
X218647242Y-105549008D01*
X218952766Y-105549008D01*
X219152531Y-105588744D01*
X219152531Y-105588744D01*
G37*
G36*
X191502529Y-101438742D02*
X191602412Y-101458610D01*
X191884676Y-101575527D01*
X192138707Y-101745265D01*
X192354743Y-101961301D01*
X192524481Y-102215332D01*
X192620222Y-102446473D01*
X192641398Y-102497597D01*
X192699105Y-102787705D01*
X192701002Y-102797246D01*
X192701002Y-103102766D01*
X192641398Y-103402416D01*
X192524481Y-103684680D01*
X192354743Y-103938711D01*
X192138707Y-104154747D01*
X191884676Y-104324485D01*
X191602412Y-104441402D01*
X191502529Y-104461270D01*
X191302764Y-104501006D01*
X190997240Y-104501006D01*
X190797475Y-104461270D01*
X190697592Y-104441402D01*
X190415328Y-104324485D01*
X190161297Y-104154747D01*
X189945261Y-103938711D01*
X189775523Y-103684680D01*
X189658606Y-103402416D01*
X189599002Y-103102766D01*
X189599002Y-102797246D01*
X189600900Y-102787705D01*
X189658606Y-102497597D01*
X189679782Y-102446473D01*
X189775523Y-102215332D01*
X189945261Y-101961301D01*
X190161297Y-101745265D01*
X190415328Y-101575527D01*
X190697592Y-101458610D01*
X190797475Y-101438742D01*
X190997240Y-101399006D01*
X191302764Y-101399006D01*
X191502529Y-101438742D01*
X191502529Y-101438742D01*
G37*
G36*
X168002529Y-101438742D02*
X168102412Y-101458610D01*
X168384676Y-101575527D01*
X168638707Y-101745265D01*
X168854743Y-101961301D01*
X169024481Y-102215332D01*
X169120222Y-102446473D01*
X169141398Y-102497597D01*
X169199105Y-102787705D01*
X169201002Y-102797246D01*
X169201002Y-103102766D01*
X169141398Y-103402416D01*
X169024481Y-103684680D01*
X168854743Y-103938711D01*
X168638707Y-104154747D01*
X168384676Y-104324485D01*
X168102412Y-104441402D01*
X168002529Y-104461270D01*
X167802764Y-104501006D01*
X167497240Y-104501006D01*
X167297475Y-104461270D01*
X167197592Y-104441402D01*
X166915328Y-104324485D01*
X166661297Y-104154747D01*
X166445261Y-103938711D01*
X166275523Y-103684680D01*
X166158606Y-103402416D01*
X166099002Y-103102766D01*
X166099002Y-102797246D01*
X166100900Y-102787705D01*
X166158606Y-102497597D01*
X166179782Y-102446473D01*
X166275523Y-102215332D01*
X166445261Y-101961301D01*
X166661297Y-101745265D01*
X166915328Y-101575527D01*
X167197592Y-101458610D01*
X167297475Y-101438742D01*
X167497240Y-101399006D01*
X167802764Y-101399006D01*
X168002529Y-101438742D01*
X168002529Y-101438742D01*
G37*
G36*
X219152531Y-101438742D02*
X219252414Y-101458610D01*
X219534678Y-101575527D01*
X219788709Y-101745265D01*
X220004745Y-101961301D01*
X220174483Y-102215332D01*
X220270224Y-102446473D01*
X220291400Y-102497597D01*
X220349107Y-102787705D01*
X220351004Y-102797246D01*
X220351004Y-103102766D01*
X220291400Y-103402416D01*
X220174483Y-103684680D01*
X220004745Y-103938711D01*
X219788709Y-104154747D01*
X219534678Y-104324485D01*
X219252414Y-104441402D01*
X219152531Y-104461270D01*
X218952766Y-104501006D01*
X218647242Y-104501006D01*
X218447477Y-104461270D01*
X218347594Y-104441402D01*
X218065330Y-104324485D01*
X217811299Y-104154747D01*
X217595263Y-103938711D01*
X217425525Y-103684680D01*
X217308608Y-103402416D01*
X217249004Y-103102766D01*
X217249004Y-102797246D01*
X217250902Y-102787705D01*
X217308608Y-102497597D01*
X217329784Y-102446473D01*
X217425525Y-102215332D01*
X217595263Y-101961301D01*
X217811299Y-101745265D01*
X218065330Y-101575527D01*
X218347594Y-101458610D01*
X218447477Y-101438742D01*
X218647242Y-101399006D01*
X218952766Y-101399006D01*
X219152531Y-101438742D01*
X219152531Y-101438742D01*
G37*
G36*
X163852527Y-101438742D02*
X163952410Y-101458610D01*
X164234674Y-101575527D01*
X164488705Y-101745265D01*
X164704741Y-101961301D01*
X164874479Y-102215332D01*
X164970220Y-102446473D01*
X164991396Y-102497597D01*
X165049103Y-102787705D01*
X165051000Y-102797246D01*
X165051000Y-103102766D01*
X164991396Y-103402416D01*
X164874479Y-103684680D01*
X164704741Y-103938711D01*
X164488705Y-104154747D01*
X164234674Y-104324485D01*
X163952410Y-104441402D01*
X163852527Y-104461270D01*
X163652762Y-104501006D01*
X163347238Y-104501006D01*
X163147473Y-104461270D01*
X163047590Y-104441402D01*
X162765326Y-104324485D01*
X162511295Y-104154747D01*
X162295259Y-103938711D01*
X162125521Y-103684680D01*
X162008604Y-103402416D01*
X161949000Y-103102766D01*
X161949000Y-102797246D01*
X161950898Y-102787705D01*
X162008604Y-102497597D01*
X162029780Y-102446473D01*
X162125521Y-102215332D01*
X162295259Y-101961301D01*
X162511295Y-101745265D01*
X162765326Y-101575527D01*
X163047590Y-101458610D01*
X163147473Y-101438742D01*
X163347238Y-101399006D01*
X163652762Y-101399006D01*
X163852527Y-101438742D01*
X163852527Y-101438742D01*
G37*
G36*
X195652531Y-101438742D02*
X195752414Y-101458610D01*
X196034678Y-101575527D01*
X196288709Y-101745265D01*
X196504745Y-101961301D01*
X196674483Y-102215332D01*
X196770224Y-102446473D01*
X196791400Y-102497597D01*
X196849107Y-102787705D01*
X196851004Y-102797246D01*
X196851004Y-103102766D01*
X196791400Y-103402416D01*
X196674483Y-103684680D01*
X196504745Y-103938711D01*
X196288709Y-104154747D01*
X196034678Y-104324485D01*
X195752414Y-104441402D01*
X195652531Y-104461270D01*
X195452766Y-104501006D01*
X195147242Y-104501006D01*
X194947477Y-104461270D01*
X194847594Y-104441402D01*
X194565330Y-104324485D01*
X194311299Y-104154747D01*
X194095263Y-103938711D01*
X193925525Y-103684680D01*
X193808608Y-103402416D01*
X193749004Y-103102766D01*
X193749004Y-102797246D01*
X193750902Y-102787705D01*
X193808608Y-102497597D01*
X193829784Y-102446473D01*
X193925525Y-102215332D01*
X194095263Y-101961301D01*
X194311299Y-101745265D01*
X194565330Y-101575527D01*
X194847594Y-101458610D01*
X194947477Y-101438742D01*
X195147242Y-101399006D01*
X195452766Y-101399006D01*
X195652531Y-101438742D01*
X195652531Y-101438742D01*
G37*
G36*
X140352527Y-101438742D02*
X140452410Y-101458610D01*
X140734674Y-101575527D01*
X140988705Y-101745265D01*
X141204741Y-101961301D01*
X141374479Y-102215332D01*
X141470220Y-102446473D01*
X141491396Y-102497597D01*
X141549103Y-102787705D01*
X141551000Y-102797246D01*
X141551000Y-103102766D01*
X141491396Y-103402416D01*
X141374479Y-103684680D01*
X141204741Y-103938711D01*
X140988705Y-104154747D01*
X140734674Y-104324485D01*
X140452410Y-104441402D01*
X140352527Y-104461270D01*
X140152762Y-104501006D01*
X139847238Y-104501006D01*
X139647473Y-104461270D01*
X139547590Y-104441402D01*
X139265326Y-104324485D01*
X139011295Y-104154747D01*
X138795259Y-103938711D01*
X138625521Y-103684680D01*
X138508604Y-103402416D01*
X138449000Y-103102766D01*
X138449000Y-102797246D01*
X138450898Y-102787705D01*
X138508604Y-102497597D01*
X138529780Y-102446473D01*
X138625521Y-102215332D01*
X138795259Y-101961301D01*
X139011295Y-101745265D01*
X139265326Y-101575527D01*
X139547590Y-101458610D01*
X139647473Y-101438742D01*
X139847238Y-101399006D01*
X140152762Y-101399006D01*
X140352527Y-101438742D01*
X140352527Y-101438742D01*
G37*
G36*
X145676627Y-100912043D02*
X145789853Y-100946390D01*
X145846467Y-100963563D01*
X145985087Y-101037658D01*
X146002991Y-101047228D01*
X146038729Y-101076558D01*
X146140186Y-101159820D01*
X146223448Y-101261277D01*
X146252778Y-101297015D01*
X146336443Y-101453540D01*
X146387963Y-101623380D01*
X146387963Y-101623382D01*
X146399968Y-101745265D01*
X146401000Y-101755749D01*
X146401000Y-102144264D01*
X146387963Y-102276633D01*
X146353616Y-102389859D01*
X146336443Y-102446473D01*
X146309116Y-102497597D01*
X146252778Y-102602997D01*
X146223448Y-102638735D01*
X146140186Y-102740192D01*
X146002989Y-102852785D01*
X145846466Y-102936449D01*
X145805733Y-102948805D01*
X145676626Y-102987969D01*
X145500000Y-103005365D01*
X145323373Y-102987969D01*
X145194266Y-102948805D01*
X145153533Y-102936449D01*
X144997011Y-102852785D01*
X144997009Y-102852784D01*
X144929336Y-102797246D01*
X144859814Y-102740192D01*
X144747221Y-102602995D01*
X144663557Y-102446472D01*
X144646384Y-102389858D01*
X144612037Y-102276632D01*
X144599000Y-102144263D01*
X144599000Y-101755748D01*
X144612037Y-101623379D01*
X144663557Y-101453540D01*
X144663557Y-101453539D01*
X144747222Y-101297014D01*
X144859812Y-101159823D01*
X144954750Y-101081910D01*
X144997010Y-101047228D01*
X145014914Y-101037658D01*
X145153534Y-100963563D01*
X145210148Y-100946390D01*
X145323374Y-100912043D01*
X145500000Y-100894647D01*
X145676627Y-100912043D01*
X145676627Y-100912043D01*
G37*
G36*
X173326629Y-100912043D02*
X173439855Y-100946390D01*
X173496469Y-100963563D01*
X173635089Y-101037658D01*
X173652993Y-101047228D01*
X173688731Y-101076558D01*
X173790188Y-101159820D01*
X173873450Y-101261277D01*
X173902780Y-101297015D01*
X173986445Y-101453540D01*
X174037965Y-101623380D01*
X174037965Y-101623382D01*
X174049970Y-101745265D01*
X174051002Y-101755749D01*
X174051002Y-102144264D01*
X174037965Y-102276633D01*
X174003618Y-102389859D01*
X173986445Y-102446473D01*
X173959118Y-102497597D01*
X173902780Y-102602997D01*
X173873450Y-102638735D01*
X173790188Y-102740192D01*
X173652991Y-102852785D01*
X173496468Y-102936449D01*
X173455735Y-102948805D01*
X173326628Y-102987969D01*
X173150002Y-103005365D01*
X172973375Y-102987969D01*
X172844268Y-102948805D01*
X172803535Y-102936449D01*
X172647013Y-102852785D01*
X172647011Y-102852784D01*
X172579338Y-102797246D01*
X172509816Y-102740192D01*
X172397223Y-102602995D01*
X172313559Y-102446472D01*
X172296386Y-102389858D01*
X172262039Y-102276632D01*
X172249002Y-102144263D01*
X172249002Y-101755748D01*
X172262039Y-101623379D01*
X172313559Y-101453540D01*
X172313559Y-101453539D01*
X172397224Y-101297014D01*
X172509814Y-101159823D01*
X172604752Y-101081910D01*
X172647012Y-101047228D01*
X172664916Y-101037658D01*
X172803536Y-100963563D01*
X172860150Y-100946390D01*
X172973376Y-100912043D01*
X173150002Y-100894647D01*
X173326629Y-100912043D01*
X173326629Y-100912043D01*
G37*
G36*
X156176627Y-100912043D02*
X156289853Y-100946390D01*
X156346467Y-100963563D01*
X156485087Y-101037658D01*
X156502991Y-101047228D01*
X156538729Y-101076558D01*
X156640186Y-101159820D01*
X156723448Y-101261277D01*
X156752778Y-101297015D01*
X156836443Y-101453540D01*
X156887963Y-101623380D01*
X156887963Y-101623382D01*
X156899968Y-101745265D01*
X156901000Y-101755749D01*
X156901000Y-102144264D01*
X156887963Y-102276633D01*
X156853616Y-102389859D01*
X156836443Y-102446473D01*
X156809116Y-102497597D01*
X156752778Y-102602997D01*
X156723448Y-102638735D01*
X156640186Y-102740192D01*
X156502989Y-102852785D01*
X156346466Y-102936449D01*
X156305733Y-102948805D01*
X156176626Y-102987969D01*
X156000000Y-103005365D01*
X155823373Y-102987969D01*
X155694266Y-102948805D01*
X155653533Y-102936449D01*
X155497011Y-102852785D01*
X155497009Y-102852784D01*
X155429336Y-102797246D01*
X155359814Y-102740192D01*
X155247221Y-102602995D01*
X155163557Y-102446472D01*
X155146384Y-102389858D01*
X155112037Y-102276632D01*
X155099000Y-102144263D01*
X155099000Y-101755748D01*
X155112037Y-101623379D01*
X155163557Y-101453540D01*
X155163557Y-101453539D01*
X155247222Y-101297014D01*
X155359812Y-101159823D01*
X155454750Y-101081910D01*
X155497010Y-101047228D01*
X155514914Y-101037658D01*
X155653534Y-100963563D01*
X155710148Y-100946390D01*
X155823374Y-100912043D01*
X156000000Y-100894647D01*
X156176627Y-100912043D01*
X156176627Y-100912043D01*
G37*
G36*
X183826629Y-100912043D02*
X183939855Y-100946390D01*
X183996469Y-100963563D01*
X184135089Y-101037658D01*
X184152993Y-101047228D01*
X184188731Y-101076558D01*
X184290188Y-101159820D01*
X184373450Y-101261277D01*
X184402780Y-101297015D01*
X184486445Y-101453540D01*
X184537965Y-101623380D01*
X184537965Y-101623382D01*
X184549970Y-101745265D01*
X184551002Y-101755749D01*
X184551002Y-102144264D01*
X184537965Y-102276633D01*
X184503618Y-102389859D01*
X184486445Y-102446473D01*
X184459118Y-102497597D01*
X184402780Y-102602997D01*
X184373450Y-102638735D01*
X184290188Y-102740192D01*
X184152991Y-102852785D01*
X183996468Y-102936449D01*
X183955735Y-102948805D01*
X183826628Y-102987969D01*
X183650002Y-103005365D01*
X183473375Y-102987969D01*
X183344268Y-102948805D01*
X183303535Y-102936449D01*
X183147013Y-102852785D01*
X183147011Y-102852784D01*
X183079338Y-102797246D01*
X183009816Y-102740192D01*
X182897223Y-102602995D01*
X182813559Y-102446472D01*
X182796386Y-102389858D01*
X182762039Y-102276632D01*
X182749002Y-102144263D01*
X182749002Y-101755748D01*
X182762039Y-101623379D01*
X182813559Y-101453540D01*
X182813559Y-101453539D01*
X182897224Y-101297014D01*
X183009814Y-101159823D01*
X183104752Y-101081910D01*
X183147012Y-101047228D01*
X183164916Y-101037658D01*
X183303536Y-100963563D01*
X183360150Y-100946390D01*
X183473376Y-100912043D01*
X183650002Y-100894647D01*
X183826629Y-100912043D01*
X183826629Y-100912043D01*
G37*
G36*
X200976631Y-100912043D02*
X201089857Y-100946390D01*
X201146471Y-100963563D01*
X201285091Y-101037658D01*
X201302995Y-101047228D01*
X201338733Y-101076558D01*
X201440190Y-101159820D01*
X201523452Y-101261277D01*
X201552782Y-101297015D01*
X201636447Y-101453540D01*
X201687967Y-101623380D01*
X201687967Y-101623382D01*
X201699972Y-101745265D01*
X201701004Y-101755749D01*
X201701004Y-102144264D01*
X201687967Y-102276633D01*
X201653620Y-102389859D01*
X201636447Y-102446473D01*
X201609120Y-102497597D01*
X201552782Y-102602997D01*
X201523452Y-102638735D01*
X201440190Y-102740192D01*
X201302993Y-102852785D01*
X201146470Y-102936449D01*
X201105737Y-102948805D01*
X200976630Y-102987969D01*
X200800004Y-103005365D01*
X200623377Y-102987969D01*
X200494270Y-102948805D01*
X200453537Y-102936449D01*
X200297015Y-102852785D01*
X200297013Y-102852784D01*
X200229340Y-102797246D01*
X200159818Y-102740192D01*
X200047225Y-102602995D01*
X199963561Y-102446472D01*
X199946388Y-102389858D01*
X199912041Y-102276632D01*
X199899004Y-102144263D01*
X199899004Y-101755748D01*
X199912041Y-101623379D01*
X199963561Y-101453540D01*
X199963561Y-101453539D01*
X200047226Y-101297014D01*
X200159816Y-101159823D01*
X200254754Y-101081910D01*
X200297014Y-101047228D01*
X200314918Y-101037658D01*
X200453538Y-100963563D01*
X200510152Y-100946390D01*
X200623378Y-100912043D01*
X200800004Y-100894647D01*
X200976631Y-100912043D01*
X200976631Y-100912043D01*
G37*
G36*
X211476631Y-100912043D02*
X211589857Y-100946390D01*
X211646471Y-100963563D01*
X211785091Y-101037658D01*
X211802995Y-101047228D01*
X211838733Y-101076558D01*
X211940190Y-101159820D01*
X212023452Y-101261277D01*
X212052782Y-101297015D01*
X212136447Y-101453540D01*
X212187967Y-101623380D01*
X212187967Y-101623382D01*
X212199972Y-101745265D01*
X212201004Y-101755749D01*
X212201004Y-102144264D01*
X212187967Y-102276633D01*
X212153620Y-102389859D01*
X212136447Y-102446473D01*
X212109120Y-102497597D01*
X212052782Y-102602997D01*
X212023452Y-102638735D01*
X211940190Y-102740192D01*
X211802993Y-102852785D01*
X211646470Y-102936449D01*
X211605737Y-102948805D01*
X211476630Y-102987969D01*
X211300004Y-103005365D01*
X211123377Y-102987969D01*
X210994270Y-102948805D01*
X210953537Y-102936449D01*
X210797015Y-102852785D01*
X210797013Y-102852784D01*
X210729340Y-102797246D01*
X210659818Y-102740192D01*
X210547225Y-102602995D01*
X210463561Y-102446472D01*
X210446388Y-102389858D01*
X210412041Y-102276632D01*
X210399004Y-102144263D01*
X210399004Y-101755748D01*
X210412041Y-101623379D01*
X210463561Y-101453540D01*
X210463561Y-101453539D01*
X210547226Y-101297014D01*
X210659816Y-101159823D01*
X210754754Y-101081910D01*
X210797014Y-101047228D01*
X210814918Y-101037658D01*
X210953538Y-100963563D01*
X211010152Y-100946390D01*
X211123378Y-100912043D01*
X211300004Y-100894647D01*
X211476631Y-100912043D01*
X211476631Y-100912043D01*
G37*
G36*
X186908602Y-100902995D02*
X186941651Y-100913020D01*
X186972108Y-100929300D01*
X186998801Y-100951207D01*
X187020708Y-100977900D01*
X187036988Y-101008357D01*
X187047013Y-101041406D01*
X187051002Y-101081910D01*
X187051002Y-102818102D01*
X187047013Y-102858606D01*
X187036988Y-102891655D01*
X187020708Y-102922112D01*
X186998801Y-102948805D01*
X186972108Y-102970712D01*
X186941651Y-102986992D01*
X186908602Y-102997017D01*
X186868098Y-103001006D01*
X185431906Y-103001006D01*
X185391402Y-102997017D01*
X185358353Y-102986992D01*
X185327896Y-102970712D01*
X185301203Y-102948805D01*
X185279296Y-102922112D01*
X185263016Y-102891655D01*
X185252991Y-102858606D01*
X185249002Y-102818102D01*
X185249002Y-101081910D01*
X185252991Y-101041406D01*
X185263016Y-101008357D01*
X185279296Y-100977900D01*
X185301203Y-100951207D01*
X185327896Y-100929300D01*
X185358353Y-100913020D01*
X185391402Y-100902995D01*
X185431906Y-100899006D01*
X186868098Y-100899006D01*
X186908602Y-100902995D01*
X186908602Y-100902995D01*
G37*
G36*
X148758600Y-100902995D02*
X148791649Y-100913020D01*
X148822106Y-100929300D01*
X148848799Y-100951207D01*
X148870706Y-100977900D01*
X148886986Y-101008357D01*
X148897011Y-101041406D01*
X148901000Y-101081910D01*
X148901000Y-102818102D01*
X148897011Y-102858606D01*
X148886986Y-102891655D01*
X148870706Y-102922112D01*
X148848799Y-102948805D01*
X148822106Y-102970712D01*
X148791649Y-102986992D01*
X148758600Y-102997017D01*
X148718096Y-103001006D01*
X147281904Y-103001006D01*
X147241400Y-102997017D01*
X147208351Y-102986992D01*
X147177894Y-102970712D01*
X147151201Y-102948805D01*
X147129294Y-102922112D01*
X147113014Y-102891655D01*
X147102989Y-102858606D01*
X147099000Y-102818102D01*
X147099000Y-101081910D01*
X147102989Y-101041406D01*
X147113014Y-101008357D01*
X147129294Y-100977900D01*
X147151201Y-100951207D01*
X147177894Y-100929300D01*
X147208351Y-100913020D01*
X147241400Y-100902995D01*
X147281904Y-100899006D01*
X148718096Y-100899006D01*
X148758600Y-100902995D01*
X148758600Y-100902995D01*
G37*
G36*
X214558604Y-100902995D02*
X214591653Y-100913020D01*
X214622110Y-100929300D01*
X214648803Y-100951207D01*
X214670710Y-100977900D01*
X214686990Y-101008357D01*
X214697015Y-101041406D01*
X214701004Y-101081910D01*
X214701004Y-102818102D01*
X214697015Y-102858606D01*
X214686990Y-102891655D01*
X214670710Y-102922112D01*
X214648803Y-102948805D01*
X214622110Y-102970712D01*
X214591653Y-102986992D01*
X214558604Y-102997017D01*
X214518100Y-103001006D01*
X213081908Y-103001006D01*
X213041404Y-102997017D01*
X213008355Y-102986992D01*
X212977898Y-102970712D01*
X212951205Y-102948805D01*
X212929298Y-102922112D01*
X212913018Y-102891655D01*
X212902993Y-102858606D01*
X212899004Y-102818102D01*
X212899004Y-101081910D01*
X212902993Y-101041406D01*
X212913018Y-101008357D01*
X212929298Y-100977900D01*
X212951205Y-100951207D01*
X212977898Y-100929300D01*
X213008355Y-100913020D01*
X213041404Y-100902995D01*
X213081908Y-100899006D01*
X214518100Y-100899006D01*
X214558604Y-100902995D01*
X214558604Y-100902995D01*
G37*
G36*
X159258600Y-100902995D02*
X159291649Y-100913020D01*
X159322106Y-100929300D01*
X159348799Y-100951207D01*
X159370706Y-100977900D01*
X159386986Y-101008357D01*
X159397011Y-101041406D01*
X159401000Y-101081910D01*
X159401000Y-102818102D01*
X159397011Y-102858606D01*
X159386986Y-102891655D01*
X159370706Y-102922112D01*
X159348799Y-102948805D01*
X159322106Y-102970712D01*
X159291649Y-102986992D01*
X159258600Y-102997017D01*
X159218096Y-103001006D01*
X157781904Y-103001006D01*
X157741400Y-102997017D01*
X157708351Y-102986992D01*
X157677894Y-102970712D01*
X157651201Y-102948805D01*
X157629294Y-102922112D01*
X157613014Y-102891655D01*
X157602989Y-102858606D01*
X157599000Y-102818102D01*
X157599000Y-101081910D01*
X157602989Y-101041406D01*
X157613014Y-101008357D01*
X157629294Y-100977900D01*
X157651201Y-100951207D01*
X157677894Y-100929300D01*
X157708351Y-100913020D01*
X157741400Y-100902995D01*
X157781904Y-100899006D01*
X159218096Y-100899006D01*
X159258600Y-100902995D01*
X159258600Y-100902995D01*
G37*
G36*
X176408602Y-100902995D02*
X176441651Y-100913020D01*
X176472108Y-100929300D01*
X176498801Y-100951207D01*
X176520708Y-100977900D01*
X176536988Y-101008357D01*
X176547013Y-101041406D01*
X176551002Y-101081910D01*
X176551002Y-102818102D01*
X176547013Y-102858606D01*
X176536988Y-102891655D01*
X176520708Y-102922112D01*
X176498801Y-102948805D01*
X176472108Y-102970712D01*
X176441651Y-102986992D01*
X176408602Y-102997017D01*
X176368098Y-103001006D01*
X174931906Y-103001006D01*
X174891402Y-102997017D01*
X174858353Y-102986992D01*
X174827896Y-102970712D01*
X174801203Y-102948805D01*
X174779296Y-102922112D01*
X174763016Y-102891655D01*
X174752991Y-102858606D01*
X174749002Y-102818102D01*
X174749002Y-101081910D01*
X174752991Y-101041406D01*
X174763016Y-101008357D01*
X174779296Y-100977900D01*
X174801203Y-100951207D01*
X174827896Y-100929300D01*
X174858353Y-100913020D01*
X174891402Y-100902995D01*
X174931906Y-100899006D01*
X176368098Y-100899006D01*
X176408602Y-100902995D01*
X176408602Y-100902995D01*
G37*
G36*
X204058604Y-100902995D02*
X204091653Y-100913020D01*
X204122110Y-100929300D01*
X204148803Y-100951207D01*
X204170710Y-100977900D01*
X204186990Y-101008357D01*
X204197015Y-101041406D01*
X204201004Y-101081910D01*
X204201004Y-102818102D01*
X204197015Y-102858606D01*
X204186990Y-102891655D01*
X204170710Y-102922112D01*
X204148803Y-102948805D01*
X204122110Y-102970712D01*
X204091653Y-102986992D01*
X204058604Y-102997017D01*
X204018100Y-103001006D01*
X202581908Y-103001006D01*
X202541404Y-102997017D01*
X202508355Y-102986992D01*
X202477898Y-102970712D01*
X202451205Y-102948805D01*
X202429298Y-102922112D01*
X202413018Y-102891655D01*
X202402993Y-102858606D01*
X202399004Y-102818102D01*
X202399004Y-101081910D01*
X202402993Y-101041406D01*
X202413018Y-101008357D01*
X202429298Y-100977900D01*
X202451205Y-100951207D01*
X202477898Y-100929300D01*
X202508355Y-100913020D01*
X202541404Y-100902995D01*
X202581908Y-100899006D01*
X204018100Y-100899006D01*
X204058604Y-100902995D01*
X204058604Y-100902995D01*
G37*
G36*
X174201002Y-97041006D02*
X172099002Y-97041006D01*
X172099002Y-92939006D01*
X174201002Y-92939006D01*
X174201002Y-97041006D01*
X174201002Y-97041006D01*
G37*
G36*
X149051000Y-97041006D02*
X146949000Y-97041006D01*
X146949000Y-92939006D01*
X149051000Y-92939006D01*
X149051000Y-97041006D01*
X149051000Y-97041006D01*
G37*
G36*
X146551000Y-97041006D02*
X144449000Y-97041006D01*
X144449000Y-92939006D01*
X146551000Y-92939006D01*
X146551000Y-97041006D01*
X146551000Y-97041006D01*
G37*
G36*
X201851004Y-97041006D02*
X199749004Y-97041006D01*
X199749004Y-92939006D01*
X201851004Y-92939006D01*
X201851004Y-97041006D01*
X201851004Y-97041006D01*
G37*
G36*
X184701002Y-97041006D02*
X182599002Y-97041006D01*
X182599002Y-92939006D01*
X184701002Y-92939006D01*
X184701002Y-97041006D01*
X184701002Y-97041006D01*
G37*
G36*
X157051000Y-97041006D02*
X154949000Y-97041006D01*
X154949000Y-92939006D01*
X157051000Y-92939006D01*
X157051000Y-97041006D01*
X157051000Y-97041006D01*
G37*
G36*
X159551000Y-97041006D02*
X157449000Y-97041006D01*
X157449000Y-92939006D01*
X159551000Y-92939006D01*
X159551000Y-97041006D01*
X159551000Y-97041006D01*
G37*
G36*
X212351004Y-97041006D02*
X210249004Y-97041006D01*
X210249004Y-92939006D01*
X212351004Y-92939006D01*
X212351004Y-97041006D01*
X212351004Y-97041006D01*
G37*
G36*
X214851004Y-97041006D02*
X212749004Y-97041006D01*
X212749004Y-92939006D01*
X214851004Y-92939006D01*
X214851004Y-97041006D01*
X214851004Y-97041006D01*
G37*
G36*
X176701002Y-97041006D02*
X174599002Y-97041006D01*
X174599002Y-92939006D01*
X176701002Y-92939006D01*
X176701002Y-97041006D01*
X176701002Y-97041006D01*
G37*
G36*
X204351004Y-97041006D02*
X202249004Y-97041006D01*
X202249004Y-92939006D01*
X204351004Y-92939006D01*
X204351004Y-97041006D01*
X204351004Y-97041006D01*
G37*
G36*
X187201002Y-97041006D02*
X185099002Y-97041006D01*
X185099002Y-92939006D01*
X187201002Y-92939006D01*
X187201002Y-97041006D01*
X187201002Y-97041006D01*
G37*
G36*
X219152531Y-92938742D02*
X219252414Y-92958610D01*
X219534678Y-93075527D01*
X219788709Y-93245265D01*
X220004745Y-93461301D01*
X220174483Y-93715332D01*
X220291400Y-93997596D01*
X220351004Y-94297246D01*
X220351004Y-94602766D01*
X220291400Y-94902416D01*
X220174483Y-95184680D01*
X220004745Y-95438711D01*
X219788709Y-95654747D01*
X219534678Y-95824485D01*
X219252414Y-95941402D01*
X219152531Y-95961270D01*
X218952766Y-96001006D01*
X218647242Y-96001006D01*
X218447477Y-95961270D01*
X218347594Y-95941402D01*
X218065330Y-95824485D01*
X217811299Y-95654747D01*
X217595263Y-95438711D01*
X217425525Y-95184680D01*
X217308608Y-94902416D01*
X217249004Y-94602766D01*
X217249004Y-94297246D01*
X217308608Y-93997596D01*
X217425525Y-93715332D01*
X217595263Y-93461301D01*
X217811299Y-93245265D01*
X218065330Y-93075527D01*
X218347594Y-92958610D01*
X218447477Y-92938742D01*
X218647242Y-92899006D01*
X218952766Y-92899006D01*
X219152531Y-92938742D01*
X219152531Y-92938742D01*
G37*
G36*
X195652531Y-92938742D02*
X195752414Y-92958610D01*
X196034678Y-93075527D01*
X196288709Y-93245265D01*
X196504745Y-93461301D01*
X196674483Y-93715332D01*
X196791400Y-93997596D01*
X196851004Y-94297246D01*
X196851004Y-94602766D01*
X196791400Y-94902416D01*
X196674483Y-95184680D01*
X196504745Y-95438711D01*
X196288709Y-95654747D01*
X196034678Y-95824485D01*
X195752414Y-95941402D01*
X195652531Y-95961270D01*
X195452766Y-96001006D01*
X195147242Y-96001006D01*
X194947477Y-95961270D01*
X194847594Y-95941402D01*
X194565330Y-95824485D01*
X194311299Y-95654747D01*
X194095263Y-95438711D01*
X193925525Y-95184680D01*
X193808608Y-94902416D01*
X193749004Y-94602766D01*
X193749004Y-94297246D01*
X193808608Y-93997596D01*
X193925525Y-93715332D01*
X194095263Y-93461301D01*
X194311299Y-93245265D01*
X194565330Y-93075527D01*
X194847594Y-92958610D01*
X194947477Y-92938742D01*
X195147242Y-92899006D01*
X195452766Y-92899006D01*
X195652531Y-92938742D01*
X195652531Y-92938742D01*
G37*
G36*
X163852527Y-92938742D02*
X163952410Y-92958610D01*
X164234674Y-93075527D01*
X164488705Y-93245265D01*
X164704741Y-93461301D01*
X164874479Y-93715332D01*
X164991396Y-93997596D01*
X165051000Y-94297246D01*
X165051000Y-94602766D01*
X164991396Y-94902416D01*
X164874479Y-95184680D01*
X164704741Y-95438711D01*
X164488705Y-95654747D01*
X164234674Y-95824485D01*
X163952410Y-95941402D01*
X163852527Y-95961270D01*
X163652762Y-96001006D01*
X163347238Y-96001006D01*
X163147473Y-95961270D01*
X163047590Y-95941402D01*
X162765326Y-95824485D01*
X162511295Y-95654747D01*
X162295259Y-95438711D01*
X162125521Y-95184680D01*
X162008604Y-94902416D01*
X161949000Y-94602766D01*
X161949000Y-94297246D01*
X162008604Y-93997596D01*
X162125521Y-93715332D01*
X162295259Y-93461301D01*
X162511295Y-93245265D01*
X162765326Y-93075527D01*
X163047590Y-92958610D01*
X163147473Y-92938742D01*
X163347238Y-92899006D01*
X163652762Y-92899006D01*
X163852527Y-92938742D01*
X163852527Y-92938742D01*
G37*
G36*
X168002529Y-92938742D02*
X168102412Y-92958610D01*
X168384676Y-93075527D01*
X168638707Y-93245265D01*
X168854743Y-93461301D01*
X169024481Y-93715332D01*
X169141398Y-93997596D01*
X169201002Y-94297246D01*
X169201002Y-94602766D01*
X169141398Y-94902416D01*
X169024481Y-95184680D01*
X168854743Y-95438711D01*
X168638707Y-95654747D01*
X168384676Y-95824485D01*
X168102412Y-95941402D01*
X168002529Y-95961270D01*
X167802764Y-96001006D01*
X167497240Y-96001006D01*
X167297475Y-95961270D01*
X167197592Y-95941402D01*
X166915328Y-95824485D01*
X166661297Y-95654747D01*
X166445261Y-95438711D01*
X166275523Y-95184680D01*
X166158606Y-94902416D01*
X166099002Y-94602766D01*
X166099002Y-94297246D01*
X166158606Y-93997596D01*
X166275523Y-93715332D01*
X166445261Y-93461301D01*
X166661297Y-93245265D01*
X166915328Y-93075527D01*
X167197592Y-92958610D01*
X167297475Y-92938742D01*
X167497240Y-92899006D01*
X167802764Y-92899006D01*
X168002529Y-92938742D01*
X168002529Y-92938742D01*
G37*
G36*
X191502529Y-92938742D02*
X191602412Y-92958610D01*
X191884676Y-93075527D01*
X192138707Y-93245265D01*
X192354743Y-93461301D01*
X192524481Y-93715332D01*
X192641398Y-93997596D01*
X192701002Y-94297246D01*
X192701002Y-94602766D01*
X192641398Y-94902416D01*
X192524481Y-95184680D01*
X192354743Y-95438711D01*
X192138707Y-95654747D01*
X191884676Y-95824485D01*
X191602412Y-95941402D01*
X191502529Y-95961270D01*
X191302764Y-96001006D01*
X190997240Y-96001006D01*
X190797475Y-95961270D01*
X190697592Y-95941402D01*
X190415328Y-95824485D01*
X190161297Y-95654747D01*
X189945261Y-95438711D01*
X189775523Y-95184680D01*
X189658606Y-94902416D01*
X189599002Y-94602766D01*
X189599002Y-94297246D01*
X189658606Y-93997596D01*
X189775523Y-93715332D01*
X189945261Y-93461301D01*
X190161297Y-93245265D01*
X190415328Y-93075527D01*
X190697592Y-92958610D01*
X190797475Y-92938742D01*
X190997240Y-92899006D01*
X191302764Y-92899006D01*
X191502529Y-92938742D01*
X191502529Y-92938742D01*
G37*
G36*
X140352527Y-92938742D02*
X140452410Y-92958610D01*
X140734674Y-93075527D01*
X140988705Y-93245265D01*
X141204741Y-93461301D01*
X141374479Y-93715332D01*
X141491396Y-93997596D01*
X141551000Y-94297246D01*
X141551000Y-94602766D01*
X141491396Y-94902416D01*
X141374479Y-95184680D01*
X141204741Y-95438711D01*
X140988705Y-95654747D01*
X140734674Y-95824485D01*
X140452410Y-95941402D01*
X140352527Y-95961270D01*
X140152762Y-96001006D01*
X139847238Y-96001006D01*
X139647473Y-95961270D01*
X139547590Y-95941402D01*
X139265326Y-95824485D01*
X139011295Y-95654747D01*
X138795259Y-95438711D01*
X138625521Y-95184680D01*
X138508604Y-94902416D01*
X138449000Y-94602766D01*
X138449000Y-94297246D01*
X138508604Y-93997596D01*
X138625521Y-93715332D01*
X138795259Y-93461301D01*
X139011295Y-93245265D01*
X139265326Y-93075527D01*
X139547590Y-92958610D01*
X139647473Y-92938742D01*
X139847238Y-92899006D01*
X140152762Y-92899006D01*
X140352527Y-92938742D01*
X140352527Y-92938742D01*
G37*
G36*
X219152531Y-88788740D02*
X219252414Y-88808608D01*
X219534678Y-88925525D01*
X219788709Y-89095263D01*
X220004745Y-89311299D01*
X220174483Y-89565330D01*
X220270224Y-89796471D01*
X220291400Y-89847595D01*
X220349107Y-90137703D01*
X220351004Y-90147244D01*
X220351004Y-90452764D01*
X220291400Y-90752414D01*
X220174483Y-91034678D01*
X220004745Y-91288709D01*
X219788709Y-91504745D01*
X219534678Y-91674483D01*
X219252414Y-91791400D01*
X219152531Y-91811268D01*
X218952766Y-91851004D01*
X218647242Y-91851004D01*
X218447477Y-91811268D01*
X218347594Y-91791400D01*
X218065330Y-91674483D01*
X217811299Y-91504745D01*
X217595263Y-91288709D01*
X217425525Y-91034678D01*
X217308608Y-90752414D01*
X217249004Y-90452764D01*
X217249004Y-90147244D01*
X217250902Y-90137703D01*
X217308608Y-89847595D01*
X217329784Y-89796471D01*
X217425525Y-89565330D01*
X217595263Y-89311299D01*
X217811299Y-89095263D01*
X218065330Y-88925525D01*
X218347594Y-88808608D01*
X218447477Y-88788740D01*
X218647242Y-88749004D01*
X218952766Y-88749004D01*
X219152531Y-88788740D01*
X219152531Y-88788740D01*
G37*
G36*
X163852527Y-88788740D02*
X163952410Y-88808608D01*
X164234674Y-88925525D01*
X164488705Y-89095263D01*
X164704741Y-89311299D01*
X164874479Y-89565330D01*
X164970220Y-89796471D01*
X164991396Y-89847595D01*
X165049103Y-90137703D01*
X165051000Y-90147244D01*
X165051000Y-90452764D01*
X164991396Y-90752414D01*
X164874479Y-91034678D01*
X164704741Y-91288709D01*
X164488705Y-91504745D01*
X164234674Y-91674483D01*
X163952410Y-91791400D01*
X163852527Y-91811268D01*
X163652762Y-91851004D01*
X163347238Y-91851004D01*
X163147473Y-91811268D01*
X163047590Y-91791400D01*
X162765326Y-91674483D01*
X162511295Y-91504745D01*
X162295259Y-91288709D01*
X162125521Y-91034678D01*
X162008604Y-90752414D01*
X161949000Y-90452764D01*
X161949000Y-90147244D01*
X161950898Y-90137703D01*
X162008604Y-89847595D01*
X162029780Y-89796471D01*
X162125521Y-89565330D01*
X162295259Y-89311299D01*
X162511295Y-89095263D01*
X162765326Y-88925525D01*
X163047590Y-88808608D01*
X163147473Y-88788740D01*
X163347238Y-88749004D01*
X163652762Y-88749004D01*
X163852527Y-88788740D01*
X163852527Y-88788740D01*
G37*
G36*
X140352527Y-88788740D02*
X140452410Y-88808608D01*
X140734674Y-88925525D01*
X140988705Y-89095263D01*
X141204741Y-89311299D01*
X141374479Y-89565330D01*
X141470220Y-89796471D01*
X141491396Y-89847595D01*
X141549103Y-90137703D01*
X141551000Y-90147244D01*
X141551000Y-90452764D01*
X141491396Y-90752414D01*
X141374479Y-91034678D01*
X141204741Y-91288709D01*
X140988705Y-91504745D01*
X140734674Y-91674483D01*
X140452410Y-91791400D01*
X140352527Y-91811268D01*
X140152762Y-91851004D01*
X139847238Y-91851004D01*
X139647473Y-91811268D01*
X139547590Y-91791400D01*
X139265326Y-91674483D01*
X139011295Y-91504745D01*
X138795259Y-91288709D01*
X138625521Y-91034678D01*
X138508604Y-90752414D01*
X138449000Y-90452764D01*
X138449000Y-90147244D01*
X138450898Y-90137703D01*
X138508604Y-89847595D01*
X138529780Y-89796471D01*
X138625521Y-89565330D01*
X138795259Y-89311299D01*
X139011295Y-89095263D01*
X139265326Y-88925525D01*
X139547590Y-88808608D01*
X139647473Y-88788740D01*
X139847238Y-88749004D01*
X140152762Y-88749004D01*
X140352527Y-88788740D01*
X140352527Y-88788740D01*
G37*
G36*
X195652531Y-88788740D02*
X195752414Y-88808608D01*
X196034678Y-88925525D01*
X196288709Y-89095263D01*
X196504745Y-89311299D01*
X196674483Y-89565330D01*
X196770224Y-89796471D01*
X196791400Y-89847595D01*
X196849107Y-90137703D01*
X196851004Y-90147244D01*
X196851004Y-90452764D01*
X196791400Y-90752414D01*
X196674483Y-91034678D01*
X196504745Y-91288709D01*
X196288709Y-91504745D01*
X196034678Y-91674483D01*
X195752414Y-91791400D01*
X195652531Y-91811268D01*
X195452766Y-91851004D01*
X195147242Y-91851004D01*
X194947477Y-91811268D01*
X194847594Y-91791400D01*
X194565330Y-91674483D01*
X194311299Y-91504745D01*
X194095263Y-91288709D01*
X193925525Y-91034678D01*
X193808608Y-90752414D01*
X193749004Y-90452764D01*
X193749004Y-90147244D01*
X193750902Y-90137703D01*
X193808608Y-89847595D01*
X193829784Y-89796471D01*
X193925525Y-89565330D01*
X194095263Y-89311299D01*
X194311299Y-89095263D01*
X194565330Y-88925525D01*
X194847594Y-88808608D01*
X194947477Y-88788740D01*
X195147242Y-88749004D01*
X195452766Y-88749004D01*
X195652531Y-88788740D01*
X195652531Y-88788740D01*
G37*
G36*
X168002529Y-88788740D02*
X168102412Y-88808608D01*
X168384676Y-88925525D01*
X168638707Y-89095263D01*
X168854743Y-89311299D01*
X169024481Y-89565330D01*
X169120222Y-89796471D01*
X169141398Y-89847595D01*
X169199105Y-90137703D01*
X169201002Y-90147244D01*
X169201002Y-90452764D01*
X169141398Y-90752414D01*
X169024481Y-91034678D01*
X168854743Y-91288709D01*
X168638707Y-91504745D01*
X168384676Y-91674483D01*
X168102412Y-91791400D01*
X168002529Y-91811268D01*
X167802764Y-91851004D01*
X167497240Y-91851004D01*
X167297475Y-91811268D01*
X167197592Y-91791400D01*
X166915328Y-91674483D01*
X166661297Y-91504745D01*
X166445261Y-91288709D01*
X166275523Y-91034678D01*
X166158606Y-90752414D01*
X166099002Y-90452764D01*
X166099002Y-90147244D01*
X166100900Y-90137703D01*
X166158606Y-89847595D01*
X166179782Y-89796471D01*
X166275523Y-89565330D01*
X166445261Y-89311299D01*
X166661297Y-89095263D01*
X166915328Y-88925525D01*
X167197592Y-88808608D01*
X167297475Y-88788740D01*
X167497240Y-88749004D01*
X167802764Y-88749004D01*
X168002529Y-88788740D01*
X168002529Y-88788740D01*
G37*
G36*
X191502529Y-88788740D02*
X191602412Y-88808608D01*
X191884676Y-88925525D01*
X192138707Y-89095263D01*
X192354743Y-89311299D01*
X192524481Y-89565330D01*
X192620222Y-89796471D01*
X192641398Y-89847595D01*
X192699105Y-90137703D01*
X192701002Y-90147244D01*
X192701002Y-90452764D01*
X192641398Y-90752414D01*
X192524481Y-91034678D01*
X192354743Y-91288709D01*
X192138707Y-91504745D01*
X191884676Y-91674483D01*
X191602412Y-91791400D01*
X191502529Y-91811268D01*
X191302764Y-91851004D01*
X190997240Y-91851004D01*
X190797475Y-91811268D01*
X190697592Y-91791400D01*
X190415328Y-91674483D01*
X190161297Y-91504745D01*
X189945261Y-91288709D01*
X189775523Y-91034678D01*
X189658606Y-90752414D01*
X189599002Y-90452764D01*
X189599002Y-90147244D01*
X189600900Y-90137703D01*
X189658606Y-89847595D01*
X189679782Y-89796471D01*
X189775523Y-89565330D01*
X189945261Y-89311299D01*
X190161297Y-89095263D01*
X190415328Y-88925525D01*
X190697592Y-88808608D01*
X190797475Y-88788740D01*
X190997240Y-88749004D01*
X191302764Y-88749004D01*
X191502529Y-88788740D01*
X191502529Y-88788740D01*
G37*
G36*
X211476631Y-88262041D02*
X211589857Y-88296388D01*
X211646471Y-88313561D01*
X211785091Y-88387656D01*
X211802995Y-88397226D01*
X211838733Y-88426556D01*
X211940190Y-88509818D01*
X212023452Y-88611275D01*
X212052782Y-88647013D01*
X212136447Y-88803538D01*
X212187967Y-88973378D01*
X212187967Y-88973380D01*
X212199972Y-89095263D01*
X212201004Y-89105747D01*
X212201004Y-89494262D01*
X212187967Y-89626631D01*
X212153620Y-89739857D01*
X212136447Y-89796471D01*
X212109120Y-89847595D01*
X212052782Y-89952995D01*
X212023452Y-89988733D01*
X211940190Y-90090190D01*
X211802993Y-90202783D01*
X211646470Y-90286447D01*
X211605737Y-90298803D01*
X211476630Y-90337967D01*
X211300004Y-90355363D01*
X211123377Y-90337967D01*
X210994270Y-90298803D01*
X210953537Y-90286447D01*
X210797015Y-90202783D01*
X210797013Y-90202782D01*
X210729340Y-90147244D01*
X210659818Y-90090190D01*
X210547225Y-89952993D01*
X210463561Y-89796470D01*
X210446388Y-89739856D01*
X210412041Y-89626630D01*
X210399004Y-89494261D01*
X210399004Y-89105746D01*
X210412041Y-88973377D01*
X210463561Y-88803538D01*
X210463561Y-88803537D01*
X210547226Y-88647012D01*
X210659816Y-88509821D01*
X210754754Y-88431908D01*
X210797014Y-88397226D01*
X210814918Y-88387656D01*
X210953538Y-88313561D01*
X211010152Y-88296388D01*
X211123378Y-88262041D01*
X211300004Y-88244645D01*
X211476631Y-88262041D01*
X211476631Y-88262041D01*
G37*
G36*
X173326629Y-88262041D02*
X173439855Y-88296388D01*
X173496469Y-88313561D01*
X173635089Y-88387656D01*
X173652993Y-88397226D01*
X173688731Y-88426556D01*
X173790188Y-88509818D01*
X173873450Y-88611275D01*
X173902780Y-88647013D01*
X173986445Y-88803538D01*
X174037965Y-88973378D01*
X174037965Y-88973380D01*
X174049970Y-89095263D01*
X174051002Y-89105747D01*
X174051002Y-89494262D01*
X174037965Y-89626631D01*
X174003618Y-89739857D01*
X173986445Y-89796471D01*
X173959118Y-89847595D01*
X173902780Y-89952995D01*
X173873450Y-89988733D01*
X173790188Y-90090190D01*
X173652991Y-90202783D01*
X173496468Y-90286447D01*
X173455735Y-90298803D01*
X173326628Y-90337967D01*
X173150002Y-90355363D01*
X172973375Y-90337967D01*
X172844268Y-90298803D01*
X172803535Y-90286447D01*
X172647013Y-90202783D01*
X172647011Y-90202782D01*
X172579338Y-90147244D01*
X172509816Y-90090190D01*
X172397223Y-89952993D01*
X172313559Y-89796470D01*
X172296386Y-89739856D01*
X172262039Y-89626630D01*
X172249002Y-89494261D01*
X172249002Y-89105746D01*
X172262039Y-88973377D01*
X172313559Y-88803538D01*
X172313559Y-88803537D01*
X172397224Y-88647012D01*
X172509814Y-88509821D01*
X172604752Y-88431908D01*
X172647012Y-88397226D01*
X172664916Y-88387656D01*
X172803536Y-88313561D01*
X172860150Y-88296388D01*
X172973376Y-88262041D01*
X173150002Y-88244645D01*
X173326629Y-88262041D01*
X173326629Y-88262041D01*
G37*
G36*
X183826629Y-88262041D02*
X183939855Y-88296388D01*
X183996469Y-88313561D01*
X184135089Y-88387656D01*
X184152993Y-88397226D01*
X184188731Y-88426556D01*
X184290188Y-88509818D01*
X184373450Y-88611275D01*
X184402780Y-88647013D01*
X184486445Y-88803538D01*
X184537965Y-88973378D01*
X184537965Y-88973380D01*
X184549970Y-89095263D01*
X184551002Y-89105747D01*
X184551002Y-89494262D01*
X184537965Y-89626631D01*
X184503618Y-89739857D01*
X184486445Y-89796471D01*
X184459118Y-89847595D01*
X184402780Y-89952995D01*
X184373450Y-89988733D01*
X184290188Y-90090190D01*
X184152991Y-90202783D01*
X183996468Y-90286447D01*
X183955735Y-90298803D01*
X183826628Y-90337967D01*
X183650002Y-90355363D01*
X183473375Y-90337967D01*
X183344268Y-90298803D01*
X183303535Y-90286447D01*
X183147013Y-90202783D01*
X183147011Y-90202782D01*
X183079338Y-90147244D01*
X183009816Y-90090190D01*
X182897223Y-89952993D01*
X182813559Y-89796470D01*
X182796386Y-89739856D01*
X182762039Y-89626630D01*
X182749002Y-89494261D01*
X182749002Y-89105746D01*
X182762039Y-88973377D01*
X182813559Y-88803538D01*
X182813559Y-88803537D01*
X182897224Y-88647012D01*
X183009814Y-88509821D01*
X183104752Y-88431908D01*
X183147012Y-88397226D01*
X183164916Y-88387656D01*
X183303536Y-88313561D01*
X183360150Y-88296388D01*
X183473376Y-88262041D01*
X183650002Y-88244645D01*
X183826629Y-88262041D01*
X183826629Y-88262041D01*
G37*
G36*
X156176627Y-88262041D02*
X156289853Y-88296388D01*
X156346467Y-88313561D01*
X156485087Y-88387656D01*
X156502991Y-88397226D01*
X156538729Y-88426556D01*
X156640186Y-88509818D01*
X156723448Y-88611275D01*
X156752778Y-88647013D01*
X156836443Y-88803538D01*
X156887963Y-88973378D01*
X156887963Y-88973380D01*
X156899968Y-89095263D01*
X156901000Y-89105747D01*
X156901000Y-89494262D01*
X156887963Y-89626631D01*
X156853616Y-89739857D01*
X156836443Y-89796471D01*
X156809116Y-89847595D01*
X156752778Y-89952995D01*
X156723448Y-89988733D01*
X156640186Y-90090190D01*
X156502989Y-90202783D01*
X156346466Y-90286447D01*
X156305733Y-90298803D01*
X156176626Y-90337967D01*
X156000000Y-90355363D01*
X155823373Y-90337967D01*
X155694266Y-90298803D01*
X155653533Y-90286447D01*
X155497011Y-90202783D01*
X155497009Y-90202782D01*
X155429336Y-90147244D01*
X155359814Y-90090190D01*
X155247221Y-89952993D01*
X155163557Y-89796470D01*
X155146384Y-89739856D01*
X155112037Y-89626630D01*
X155099000Y-89494261D01*
X155099000Y-89105746D01*
X155112037Y-88973377D01*
X155163557Y-88803538D01*
X155163557Y-88803537D01*
X155247222Y-88647012D01*
X155359812Y-88509821D01*
X155454750Y-88431908D01*
X155497010Y-88397226D01*
X155514914Y-88387656D01*
X155653534Y-88313561D01*
X155710148Y-88296388D01*
X155823374Y-88262041D01*
X156000000Y-88244645D01*
X156176627Y-88262041D01*
X156176627Y-88262041D01*
G37*
G36*
X200976631Y-88262041D02*
X201089857Y-88296388D01*
X201146471Y-88313561D01*
X201285091Y-88387656D01*
X201302995Y-88397226D01*
X201338733Y-88426556D01*
X201440190Y-88509818D01*
X201523452Y-88611275D01*
X201552782Y-88647013D01*
X201636447Y-88803538D01*
X201687967Y-88973378D01*
X201687967Y-88973380D01*
X201699972Y-89095263D01*
X201701004Y-89105747D01*
X201701004Y-89494262D01*
X201687967Y-89626631D01*
X201653620Y-89739857D01*
X201636447Y-89796471D01*
X201609120Y-89847595D01*
X201552782Y-89952995D01*
X201523452Y-89988733D01*
X201440190Y-90090190D01*
X201302993Y-90202783D01*
X201146470Y-90286447D01*
X201105737Y-90298803D01*
X200976630Y-90337967D01*
X200800004Y-90355363D01*
X200623377Y-90337967D01*
X200494270Y-90298803D01*
X200453537Y-90286447D01*
X200297015Y-90202783D01*
X200297013Y-90202782D01*
X200229340Y-90147244D01*
X200159818Y-90090190D01*
X200047225Y-89952993D01*
X199963561Y-89796470D01*
X199946388Y-89739856D01*
X199912041Y-89626630D01*
X199899004Y-89494261D01*
X199899004Y-89105746D01*
X199912041Y-88973377D01*
X199963561Y-88803538D01*
X199963561Y-88803537D01*
X200047226Y-88647012D01*
X200159816Y-88509821D01*
X200254754Y-88431908D01*
X200297014Y-88397226D01*
X200314918Y-88387656D01*
X200453538Y-88313561D01*
X200510152Y-88296388D01*
X200623378Y-88262041D01*
X200800004Y-88244645D01*
X200976631Y-88262041D01*
X200976631Y-88262041D01*
G37*
G36*
X145676627Y-88262041D02*
X145789853Y-88296388D01*
X145846467Y-88313561D01*
X145985087Y-88387656D01*
X146002991Y-88397226D01*
X146038729Y-88426556D01*
X146140186Y-88509818D01*
X146223448Y-88611275D01*
X146252778Y-88647013D01*
X146336443Y-88803538D01*
X146387963Y-88973378D01*
X146387963Y-88973380D01*
X146399968Y-89095263D01*
X146401000Y-89105747D01*
X146401000Y-89494262D01*
X146387963Y-89626631D01*
X146353616Y-89739857D01*
X146336443Y-89796471D01*
X146309116Y-89847595D01*
X146252778Y-89952995D01*
X146223448Y-89988733D01*
X146140186Y-90090190D01*
X146002989Y-90202783D01*
X145846466Y-90286447D01*
X145805733Y-90298803D01*
X145676626Y-90337967D01*
X145500000Y-90355363D01*
X145323373Y-90337967D01*
X145194266Y-90298803D01*
X145153533Y-90286447D01*
X144997011Y-90202783D01*
X144997009Y-90202782D01*
X144929336Y-90147244D01*
X144859814Y-90090190D01*
X144747221Y-89952993D01*
X144663557Y-89796470D01*
X144646384Y-89739856D01*
X144612037Y-89626630D01*
X144599000Y-89494261D01*
X144599000Y-89105746D01*
X144612037Y-88973377D01*
X144663557Y-88803538D01*
X144663557Y-88803537D01*
X144747222Y-88647012D01*
X144859812Y-88509821D01*
X144954750Y-88431908D01*
X144997010Y-88397226D01*
X145014914Y-88387656D01*
X145153534Y-88313561D01*
X145210148Y-88296388D01*
X145323374Y-88262041D01*
X145500000Y-88244645D01*
X145676627Y-88262041D01*
X145676627Y-88262041D01*
G37*
G36*
X186908602Y-88252993D02*
X186941651Y-88263018D01*
X186972108Y-88279298D01*
X186998801Y-88301205D01*
X187020708Y-88327898D01*
X187036988Y-88358355D01*
X187047013Y-88391404D01*
X187051002Y-88431908D01*
X187051002Y-90168100D01*
X187047013Y-90208604D01*
X187036988Y-90241653D01*
X187020708Y-90272110D01*
X186998801Y-90298803D01*
X186972108Y-90320710D01*
X186941651Y-90336990D01*
X186908602Y-90347015D01*
X186868098Y-90351004D01*
X185431906Y-90351004D01*
X185391402Y-90347015D01*
X185358353Y-90336990D01*
X185327896Y-90320710D01*
X185301203Y-90298803D01*
X185279296Y-90272110D01*
X185263016Y-90241653D01*
X185252991Y-90208604D01*
X185249002Y-90168100D01*
X185249002Y-88431908D01*
X185252991Y-88391404D01*
X185263016Y-88358355D01*
X185279296Y-88327898D01*
X185301203Y-88301205D01*
X185327896Y-88279298D01*
X185358353Y-88263018D01*
X185391402Y-88252993D01*
X185431906Y-88249004D01*
X186868098Y-88249004D01*
X186908602Y-88252993D01*
X186908602Y-88252993D01*
G37*
G36*
X148758600Y-88252993D02*
X148791649Y-88263018D01*
X148822106Y-88279298D01*
X148848799Y-88301205D01*
X148870706Y-88327898D01*
X148886986Y-88358355D01*
X148897011Y-88391404D01*
X148901000Y-88431908D01*
X148901000Y-90168100D01*
X148897011Y-90208604D01*
X148886986Y-90241653D01*
X148870706Y-90272110D01*
X148848799Y-90298803D01*
X148822106Y-90320710D01*
X148791649Y-90336990D01*
X148758600Y-90347015D01*
X148718096Y-90351004D01*
X147281904Y-90351004D01*
X147241400Y-90347015D01*
X147208351Y-90336990D01*
X147177894Y-90320710D01*
X147151201Y-90298803D01*
X147129294Y-90272110D01*
X147113014Y-90241653D01*
X147102989Y-90208604D01*
X147099000Y-90168100D01*
X147099000Y-88431908D01*
X147102989Y-88391404D01*
X147113014Y-88358355D01*
X147129294Y-88327898D01*
X147151201Y-88301205D01*
X147177894Y-88279298D01*
X147208351Y-88263018D01*
X147241400Y-88252993D01*
X147281904Y-88249004D01*
X148718096Y-88249004D01*
X148758600Y-88252993D01*
X148758600Y-88252993D01*
G37*
G36*
X214558604Y-88252993D02*
X214591653Y-88263018D01*
X214622110Y-88279298D01*
X214648803Y-88301205D01*
X214670710Y-88327898D01*
X214686990Y-88358355D01*
X214697015Y-88391404D01*
X214701004Y-88431908D01*
X214701004Y-90168100D01*
X214697015Y-90208604D01*
X214686990Y-90241653D01*
X214670710Y-90272110D01*
X214648803Y-90298803D01*
X214622110Y-90320710D01*
X214591653Y-90336990D01*
X214558604Y-90347015D01*
X214518100Y-90351004D01*
X213081908Y-90351004D01*
X213041404Y-90347015D01*
X213008355Y-90336990D01*
X212977898Y-90320710D01*
X212951205Y-90298803D01*
X212929298Y-90272110D01*
X212913018Y-90241653D01*
X212902993Y-90208604D01*
X212899004Y-90168100D01*
X212899004Y-88431908D01*
X212902993Y-88391404D01*
X212913018Y-88358355D01*
X212929298Y-88327898D01*
X212951205Y-88301205D01*
X212977898Y-88279298D01*
X213008355Y-88263018D01*
X213041404Y-88252993D01*
X213081908Y-88249004D01*
X214518100Y-88249004D01*
X214558604Y-88252993D01*
X214558604Y-88252993D01*
G37*
G36*
X176408602Y-88252993D02*
X176441651Y-88263018D01*
X176472108Y-88279298D01*
X176498801Y-88301205D01*
X176520708Y-88327898D01*
X176536988Y-88358355D01*
X176547013Y-88391404D01*
X176551002Y-88431908D01*
X176551002Y-90168100D01*
X176547013Y-90208604D01*
X176536988Y-90241653D01*
X176520708Y-90272110D01*
X176498801Y-90298803D01*
X176472108Y-90320710D01*
X176441651Y-90336990D01*
X176408602Y-90347015D01*
X176368098Y-90351004D01*
X174931906Y-90351004D01*
X174891402Y-90347015D01*
X174858353Y-90336990D01*
X174827896Y-90320710D01*
X174801203Y-90298803D01*
X174779296Y-90272110D01*
X174763016Y-90241653D01*
X174752991Y-90208604D01*
X174749002Y-90168100D01*
X174749002Y-88431908D01*
X174752991Y-88391404D01*
X174763016Y-88358355D01*
X174779296Y-88327898D01*
X174801203Y-88301205D01*
X174827896Y-88279298D01*
X174858353Y-88263018D01*
X174891402Y-88252993D01*
X174931906Y-88249004D01*
X176368098Y-88249004D01*
X176408602Y-88252993D01*
X176408602Y-88252993D01*
G37*
G36*
X204058604Y-88252993D02*
X204091653Y-88263018D01*
X204122110Y-88279298D01*
X204148803Y-88301205D01*
X204170710Y-88327898D01*
X204186990Y-88358355D01*
X204197015Y-88391404D01*
X204201004Y-88431908D01*
X204201004Y-90168100D01*
X204197015Y-90208604D01*
X204186990Y-90241653D01*
X204170710Y-90272110D01*
X204148803Y-90298803D01*
X204122110Y-90320710D01*
X204091653Y-90336990D01*
X204058604Y-90347015D01*
X204018100Y-90351004D01*
X202581908Y-90351004D01*
X202541404Y-90347015D01*
X202508355Y-90336990D01*
X202477898Y-90320710D01*
X202451205Y-90298803D01*
X202429298Y-90272110D01*
X202413018Y-90241653D01*
X202402993Y-90208604D01*
X202399004Y-90168100D01*
X202399004Y-88431908D01*
X202402993Y-88391404D01*
X202413018Y-88358355D01*
X202429298Y-88327898D01*
X202451205Y-88301205D01*
X202477898Y-88279298D01*
X202508355Y-88263018D01*
X202541404Y-88252993D01*
X202581908Y-88249004D01*
X204018100Y-88249004D01*
X204058604Y-88252993D01*
X204058604Y-88252993D01*
G37*
G36*
X159258600Y-88252993D02*
X159291649Y-88263018D01*
X159322106Y-88279298D01*
X159348799Y-88301205D01*
X159370706Y-88327898D01*
X159386986Y-88358355D01*
X159397011Y-88391404D01*
X159401000Y-88431908D01*
X159401000Y-90168100D01*
X159397011Y-90208604D01*
X159386986Y-90241653D01*
X159370706Y-90272110D01*
X159348799Y-90298803D01*
X159322106Y-90320710D01*
X159291649Y-90336990D01*
X159258600Y-90347015D01*
X159218096Y-90351004D01*
X157781904Y-90351004D01*
X157741400Y-90347015D01*
X157708351Y-90336990D01*
X157677894Y-90320710D01*
X157651201Y-90298803D01*
X157629294Y-90272110D01*
X157613014Y-90241653D01*
X157602989Y-90208604D01*
X157599000Y-90168100D01*
X157599000Y-88431908D01*
X157602989Y-88391404D01*
X157613014Y-88358355D01*
X157629294Y-88327898D01*
X157651201Y-88301205D01*
X157677894Y-88279298D01*
X157708351Y-88263018D01*
X157741400Y-88252993D01*
X157781904Y-88249004D01*
X159218096Y-88249004D01*
X159258600Y-88252993D01*
X159258600Y-88252993D01*
G37*
G36*
X184701002Y-84391004D02*
X182599002Y-84391004D01*
X182599002Y-80289004D01*
X184701002Y-80289004D01*
X184701002Y-84391004D01*
X184701002Y-84391004D01*
G37*
G36*
X214851004Y-84391004D02*
X212749004Y-84391004D01*
X212749004Y-80289004D01*
X214851004Y-80289004D01*
X214851004Y-84391004D01*
X214851004Y-84391004D01*
G37*
G36*
X212351004Y-84391004D02*
X210249004Y-84391004D01*
X210249004Y-80289004D01*
X212351004Y-80289004D01*
X212351004Y-84391004D01*
X212351004Y-84391004D01*
G37*
G36*
X176701002Y-84391004D02*
X174599002Y-84391004D01*
X174599002Y-80289004D01*
X176701002Y-80289004D01*
X176701002Y-84391004D01*
X176701002Y-84391004D01*
G37*
G36*
X204351004Y-84391004D02*
X202249004Y-84391004D01*
X202249004Y-80289004D01*
X204351004Y-80289004D01*
X204351004Y-84391004D01*
X204351004Y-84391004D01*
G37*
G36*
X146551000Y-84391004D02*
X144449000Y-84391004D01*
X144449000Y-80289004D01*
X146551000Y-80289004D01*
X146551000Y-84391004D01*
X146551000Y-84391004D01*
G37*
G36*
X149051000Y-84391004D02*
X146949000Y-84391004D01*
X146949000Y-80289004D01*
X149051000Y-80289004D01*
X149051000Y-84391004D01*
X149051000Y-84391004D01*
G37*
G36*
X157051000Y-84391004D02*
X154949000Y-84391004D01*
X154949000Y-80289004D01*
X157051000Y-80289004D01*
X157051000Y-84391004D01*
X157051000Y-84391004D01*
G37*
G36*
X159551000Y-84391004D02*
X157449000Y-84391004D01*
X157449000Y-80289004D01*
X159551000Y-80289004D01*
X159551000Y-84391004D01*
X159551000Y-84391004D01*
G37*
G36*
X174201002Y-84391004D02*
X172099002Y-84391004D01*
X172099002Y-80289004D01*
X174201002Y-80289004D01*
X174201002Y-84391004D01*
X174201002Y-84391004D01*
G37*
G36*
X201851004Y-84391004D02*
X199749004Y-84391004D01*
X199749004Y-80289004D01*
X201851004Y-80289004D01*
X201851004Y-84391004D01*
X201851004Y-84391004D01*
G37*
G36*
X187201002Y-84391004D02*
X185099002Y-84391004D01*
X185099002Y-80289004D01*
X187201002Y-80289004D01*
X187201002Y-84391004D01*
X187201002Y-84391004D01*
G37*
G36*
X140352527Y-80288740D02*
X140452410Y-80308608D01*
X140734674Y-80425525D01*
X140988705Y-80595263D01*
X141204741Y-80811299D01*
X141374479Y-81065330D01*
X141491396Y-81347594D01*
X141551000Y-81647244D01*
X141551000Y-81952764D01*
X141491396Y-82252414D01*
X141374479Y-82534678D01*
X141204741Y-82788709D01*
X140988705Y-83004745D01*
X140734674Y-83174483D01*
X140452410Y-83291400D01*
X140352527Y-83311268D01*
X140152762Y-83351004D01*
X139847238Y-83351004D01*
X139647473Y-83311268D01*
X139547590Y-83291400D01*
X139265326Y-83174483D01*
X139011295Y-83004745D01*
X138795259Y-82788709D01*
X138625521Y-82534678D01*
X138508604Y-82252414D01*
X138449000Y-81952764D01*
X138449000Y-81647244D01*
X138508604Y-81347594D01*
X138625521Y-81065330D01*
X138795259Y-80811299D01*
X139011295Y-80595263D01*
X139265326Y-80425525D01*
X139547590Y-80308608D01*
X139647473Y-80288740D01*
X139847238Y-80249004D01*
X140152762Y-80249004D01*
X140352527Y-80288740D01*
X140352527Y-80288740D01*
G37*
G36*
X168002529Y-80288740D02*
X168102412Y-80308608D01*
X168384676Y-80425525D01*
X168638707Y-80595263D01*
X168854743Y-80811299D01*
X169024481Y-81065330D01*
X169141398Y-81347594D01*
X169201002Y-81647244D01*
X169201002Y-81952764D01*
X169141398Y-82252414D01*
X169024481Y-82534678D01*
X168854743Y-82788709D01*
X168638707Y-83004745D01*
X168384676Y-83174483D01*
X168102412Y-83291400D01*
X168002529Y-83311268D01*
X167802764Y-83351004D01*
X167497240Y-83351004D01*
X167297475Y-83311268D01*
X167197592Y-83291400D01*
X166915328Y-83174483D01*
X166661297Y-83004745D01*
X166445261Y-82788709D01*
X166275523Y-82534678D01*
X166158606Y-82252414D01*
X166099002Y-81952764D01*
X166099002Y-81647244D01*
X166158606Y-81347594D01*
X166275523Y-81065330D01*
X166445261Y-80811299D01*
X166661297Y-80595263D01*
X166915328Y-80425525D01*
X167197592Y-80308608D01*
X167297475Y-80288740D01*
X167497240Y-80249004D01*
X167802764Y-80249004D01*
X168002529Y-80288740D01*
X168002529Y-80288740D01*
G37*
G36*
X191502529Y-80288740D02*
X191602412Y-80308608D01*
X191884676Y-80425525D01*
X192138707Y-80595263D01*
X192354743Y-80811299D01*
X192524481Y-81065330D01*
X192641398Y-81347594D01*
X192701002Y-81647244D01*
X192701002Y-81952764D01*
X192641398Y-82252414D01*
X192524481Y-82534678D01*
X192354743Y-82788709D01*
X192138707Y-83004745D01*
X191884676Y-83174483D01*
X191602412Y-83291400D01*
X191502529Y-83311268D01*
X191302764Y-83351004D01*
X190997240Y-83351004D01*
X190797475Y-83311268D01*
X190697592Y-83291400D01*
X190415328Y-83174483D01*
X190161297Y-83004745D01*
X189945261Y-82788709D01*
X189775523Y-82534678D01*
X189658606Y-82252414D01*
X189599002Y-81952764D01*
X189599002Y-81647244D01*
X189658606Y-81347594D01*
X189775523Y-81065330D01*
X189945261Y-80811299D01*
X190161297Y-80595263D01*
X190415328Y-80425525D01*
X190697592Y-80308608D01*
X190797475Y-80288740D01*
X190997240Y-80249004D01*
X191302764Y-80249004D01*
X191502529Y-80288740D01*
X191502529Y-80288740D01*
G37*
G36*
X219152531Y-80288740D02*
X219252414Y-80308608D01*
X219534678Y-80425525D01*
X219788709Y-80595263D01*
X220004745Y-80811299D01*
X220174483Y-81065330D01*
X220291400Y-81347594D01*
X220351004Y-81647244D01*
X220351004Y-81952764D01*
X220291400Y-82252414D01*
X220174483Y-82534678D01*
X220004745Y-82788709D01*
X219788709Y-83004745D01*
X219534678Y-83174483D01*
X219252414Y-83291400D01*
X219152531Y-83311268D01*
X218952766Y-83351004D01*
X218647242Y-83351004D01*
X218447477Y-83311268D01*
X218347594Y-83291400D01*
X218065330Y-83174483D01*
X217811299Y-83004745D01*
X217595263Y-82788709D01*
X217425525Y-82534678D01*
X217308608Y-82252414D01*
X217249004Y-81952764D01*
X217249004Y-81647244D01*
X217308608Y-81347594D01*
X217425525Y-81065330D01*
X217595263Y-80811299D01*
X217811299Y-80595263D01*
X218065330Y-80425525D01*
X218347594Y-80308608D01*
X218447477Y-80288740D01*
X218647242Y-80249004D01*
X218952766Y-80249004D01*
X219152531Y-80288740D01*
X219152531Y-80288740D01*
G37*
G36*
X195652531Y-80288740D02*
X195752414Y-80308608D01*
X196034678Y-80425525D01*
X196288709Y-80595263D01*
X196504745Y-80811299D01*
X196674483Y-81065330D01*
X196791400Y-81347594D01*
X196851004Y-81647244D01*
X196851004Y-81952764D01*
X196791400Y-82252414D01*
X196674483Y-82534678D01*
X196504745Y-82788709D01*
X196288709Y-83004745D01*
X196034678Y-83174483D01*
X195752414Y-83291400D01*
X195652531Y-83311268D01*
X195452766Y-83351004D01*
X195147242Y-83351004D01*
X194947477Y-83311268D01*
X194847594Y-83291400D01*
X194565330Y-83174483D01*
X194311299Y-83004745D01*
X194095263Y-82788709D01*
X193925525Y-82534678D01*
X193808608Y-82252414D01*
X193749004Y-81952764D01*
X193749004Y-81647244D01*
X193808608Y-81347594D01*
X193925525Y-81065330D01*
X194095263Y-80811299D01*
X194311299Y-80595263D01*
X194565330Y-80425525D01*
X194847594Y-80308608D01*
X194947477Y-80288740D01*
X195147242Y-80249004D01*
X195452766Y-80249004D01*
X195652531Y-80288740D01*
X195652531Y-80288740D01*
G37*
G36*
X163852527Y-80288740D02*
X163952410Y-80308608D01*
X164234674Y-80425525D01*
X164488705Y-80595263D01*
X164704741Y-80811299D01*
X164874479Y-81065330D01*
X164991396Y-81347594D01*
X165051000Y-81647244D01*
X165051000Y-81952764D01*
X164991396Y-82252414D01*
X164874479Y-82534678D01*
X164704741Y-82788709D01*
X164488705Y-83004745D01*
X164234674Y-83174483D01*
X163952410Y-83291400D01*
X163852527Y-83311268D01*
X163652762Y-83351004D01*
X163347238Y-83351004D01*
X163147473Y-83311268D01*
X163047590Y-83291400D01*
X162765326Y-83174483D01*
X162511295Y-83004745D01*
X162295259Y-82788709D01*
X162125521Y-82534678D01*
X162008604Y-82252414D01*
X161949000Y-81952764D01*
X161949000Y-81647244D01*
X162008604Y-81347594D01*
X162125521Y-81065330D01*
X162295259Y-80811299D01*
X162511295Y-80595263D01*
X162765326Y-80425525D01*
X163047590Y-80308608D01*
X163147473Y-80288740D01*
X163347238Y-80249004D01*
X163652762Y-80249004D01*
X163852527Y-80288740D01*
X163852527Y-80288740D01*
G37*
G36*
X163852527Y-76138738D02*
X163952410Y-76158606D01*
X164234674Y-76275523D01*
X164488705Y-76445261D01*
X164704741Y-76661297D01*
X164874479Y-76915328D01*
X164970220Y-77146469D01*
X164991396Y-77197593D01*
X165049103Y-77487701D01*
X165051000Y-77497242D01*
X165051000Y-77802762D01*
X164991396Y-78102412D01*
X164874479Y-78384676D01*
X164704741Y-78638707D01*
X164488705Y-78854743D01*
X164234674Y-79024481D01*
X163952410Y-79141398D01*
X163852527Y-79161266D01*
X163652762Y-79201002D01*
X163347238Y-79201002D01*
X163147473Y-79161266D01*
X163047590Y-79141398D01*
X162765326Y-79024481D01*
X162511295Y-78854743D01*
X162295259Y-78638707D01*
X162125521Y-78384676D01*
X162008604Y-78102412D01*
X161949000Y-77802762D01*
X161949000Y-77497242D01*
X161950898Y-77487701D01*
X162008604Y-77197593D01*
X162029780Y-77146469D01*
X162125521Y-76915328D01*
X162295259Y-76661297D01*
X162511295Y-76445261D01*
X162765326Y-76275523D01*
X163047590Y-76158606D01*
X163147473Y-76138738D01*
X163347238Y-76099002D01*
X163652762Y-76099002D01*
X163852527Y-76138738D01*
X163852527Y-76138738D01*
G37*
G36*
X140352527Y-76138738D02*
X140452410Y-76158606D01*
X140734674Y-76275523D01*
X140988705Y-76445261D01*
X141204741Y-76661297D01*
X141374479Y-76915328D01*
X141470220Y-77146469D01*
X141491396Y-77197593D01*
X141549103Y-77487701D01*
X141551000Y-77497242D01*
X141551000Y-77802762D01*
X141491396Y-78102412D01*
X141374479Y-78384676D01*
X141204741Y-78638707D01*
X140988705Y-78854743D01*
X140734674Y-79024481D01*
X140452410Y-79141398D01*
X140352527Y-79161266D01*
X140152762Y-79201002D01*
X139847238Y-79201002D01*
X139647473Y-79161266D01*
X139547590Y-79141398D01*
X139265326Y-79024481D01*
X139011295Y-78854743D01*
X138795259Y-78638707D01*
X138625521Y-78384676D01*
X138508604Y-78102412D01*
X138449000Y-77802762D01*
X138449000Y-77497242D01*
X138450898Y-77487701D01*
X138508604Y-77197593D01*
X138529780Y-77146469D01*
X138625521Y-76915328D01*
X138795259Y-76661297D01*
X139011295Y-76445261D01*
X139265326Y-76275523D01*
X139547590Y-76158606D01*
X139647473Y-76138738D01*
X139847238Y-76099002D01*
X140152762Y-76099002D01*
X140352527Y-76138738D01*
X140352527Y-76138738D01*
G37*
G36*
X195652531Y-76138738D02*
X195752414Y-76158606D01*
X196034678Y-76275523D01*
X196288709Y-76445261D01*
X196504745Y-76661297D01*
X196674483Y-76915328D01*
X196770224Y-77146469D01*
X196791400Y-77197593D01*
X196849107Y-77487701D01*
X196851004Y-77497242D01*
X196851004Y-77802762D01*
X196791400Y-78102412D01*
X196674483Y-78384676D01*
X196504745Y-78638707D01*
X196288709Y-78854743D01*
X196034678Y-79024481D01*
X195752414Y-79141398D01*
X195652531Y-79161266D01*
X195452766Y-79201002D01*
X195147242Y-79201002D01*
X194947477Y-79161266D01*
X194847594Y-79141398D01*
X194565330Y-79024481D01*
X194311299Y-78854743D01*
X194095263Y-78638707D01*
X193925525Y-78384676D01*
X193808608Y-78102412D01*
X193749004Y-77802762D01*
X193749004Y-77497242D01*
X193750902Y-77487701D01*
X193808608Y-77197593D01*
X193829784Y-77146469D01*
X193925525Y-76915328D01*
X194095263Y-76661297D01*
X194311299Y-76445261D01*
X194565330Y-76275523D01*
X194847594Y-76158606D01*
X194947477Y-76138738D01*
X195147242Y-76099002D01*
X195452766Y-76099002D01*
X195652531Y-76138738D01*
X195652531Y-76138738D01*
G37*
G36*
X191502529Y-76138738D02*
X191602412Y-76158606D01*
X191884676Y-76275523D01*
X192138707Y-76445261D01*
X192354743Y-76661297D01*
X192524481Y-76915328D01*
X192620222Y-77146469D01*
X192641398Y-77197593D01*
X192699105Y-77487701D01*
X192701002Y-77497242D01*
X192701002Y-77802762D01*
X192641398Y-78102412D01*
X192524481Y-78384676D01*
X192354743Y-78638707D01*
X192138707Y-78854743D01*
X191884676Y-79024481D01*
X191602412Y-79141398D01*
X191502529Y-79161266D01*
X191302764Y-79201002D01*
X190997240Y-79201002D01*
X190797475Y-79161266D01*
X190697592Y-79141398D01*
X190415328Y-79024481D01*
X190161297Y-78854743D01*
X189945261Y-78638707D01*
X189775523Y-78384676D01*
X189658606Y-78102412D01*
X189599002Y-77802762D01*
X189599002Y-77497242D01*
X189600900Y-77487701D01*
X189658606Y-77197593D01*
X189679782Y-77146469D01*
X189775523Y-76915328D01*
X189945261Y-76661297D01*
X190161297Y-76445261D01*
X190415328Y-76275523D01*
X190697592Y-76158606D01*
X190797475Y-76138738D01*
X190997240Y-76099002D01*
X191302764Y-76099002D01*
X191502529Y-76138738D01*
X191502529Y-76138738D01*
G37*
G36*
X219152531Y-76138738D02*
X219252414Y-76158606D01*
X219534678Y-76275523D01*
X219788709Y-76445261D01*
X220004745Y-76661297D01*
X220174483Y-76915328D01*
X220270224Y-77146469D01*
X220291400Y-77197593D01*
X220349107Y-77487701D01*
X220351004Y-77497242D01*
X220351004Y-77802762D01*
X220291400Y-78102412D01*
X220174483Y-78384676D01*
X220004745Y-78638707D01*
X219788709Y-78854743D01*
X219534678Y-79024481D01*
X219252414Y-79141398D01*
X219152531Y-79161266D01*
X218952766Y-79201002D01*
X218647242Y-79201002D01*
X218447477Y-79161266D01*
X218347594Y-79141398D01*
X218065330Y-79024481D01*
X217811299Y-78854743D01*
X217595263Y-78638707D01*
X217425525Y-78384676D01*
X217308608Y-78102412D01*
X217249004Y-77802762D01*
X217249004Y-77497242D01*
X217250902Y-77487701D01*
X217308608Y-77197593D01*
X217329784Y-77146469D01*
X217425525Y-76915328D01*
X217595263Y-76661297D01*
X217811299Y-76445261D01*
X218065330Y-76275523D01*
X218347594Y-76158606D01*
X218447477Y-76138738D01*
X218647242Y-76099002D01*
X218952766Y-76099002D01*
X219152531Y-76138738D01*
X219152531Y-76138738D01*
G37*
G36*
X168002529Y-76138738D02*
X168102412Y-76158606D01*
X168384676Y-76275523D01*
X168638707Y-76445261D01*
X168854743Y-76661297D01*
X169024481Y-76915328D01*
X169120222Y-77146469D01*
X169141398Y-77197593D01*
X169199105Y-77487701D01*
X169201002Y-77497242D01*
X169201002Y-77802762D01*
X169141398Y-78102412D01*
X169024481Y-78384676D01*
X168854743Y-78638707D01*
X168638707Y-78854743D01*
X168384676Y-79024481D01*
X168102412Y-79141398D01*
X168002529Y-79161266D01*
X167802764Y-79201002D01*
X167497240Y-79201002D01*
X167297475Y-79161266D01*
X167197592Y-79141398D01*
X166915328Y-79024481D01*
X166661297Y-78854743D01*
X166445261Y-78638707D01*
X166275523Y-78384676D01*
X166158606Y-78102412D01*
X166099002Y-77802762D01*
X166099002Y-77497242D01*
X166100900Y-77487701D01*
X166158606Y-77197593D01*
X166179782Y-77146469D01*
X166275523Y-76915328D01*
X166445261Y-76661297D01*
X166661297Y-76445261D01*
X166915328Y-76275523D01*
X167197592Y-76158606D01*
X167297475Y-76138738D01*
X167497240Y-76099002D01*
X167802764Y-76099002D01*
X168002529Y-76138738D01*
X168002529Y-76138738D01*
G37*
G36*
X173326629Y-75612039D02*
X173439855Y-75646386D01*
X173496469Y-75663559D01*
X173635089Y-75737654D01*
X173652993Y-75747224D01*
X173688731Y-75776554D01*
X173790188Y-75859816D01*
X173873450Y-75961273D01*
X173902780Y-75997011D01*
X173986445Y-76153536D01*
X174037965Y-76323376D01*
X174037965Y-76323378D01*
X174049970Y-76445261D01*
X174051002Y-76455745D01*
X174051002Y-76844260D01*
X174037965Y-76976629D01*
X174003618Y-77089855D01*
X173986445Y-77146469D01*
X173959118Y-77197593D01*
X173902780Y-77302993D01*
X173873450Y-77338731D01*
X173790188Y-77440188D01*
X173652991Y-77552781D01*
X173496468Y-77636445D01*
X173455735Y-77648801D01*
X173326628Y-77687965D01*
X173150002Y-77705361D01*
X172973375Y-77687965D01*
X172844268Y-77648801D01*
X172803535Y-77636445D01*
X172647013Y-77552781D01*
X172647011Y-77552780D01*
X172579338Y-77497242D01*
X172509816Y-77440188D01*
X172397223Y-77302991D01*
X172313559Y-77146468D01*
X172296386Y-77089854D01*
X172262039Y-76976628D01*
X172249002Y-76844259D01*
X172249002Y-76455744D01*
X172262039Y-76323375D01*
X172313559Y-76153536D01*
X172313559Y-76153535D01*
X172397224Y-75997010D01*
X172509814Y-75859819D01*
X172604752Y-75781906D01*
X172647012Y-75747224D01*
X172664916Y-75737654D01*
X172803536Y-75663559D01*
X172860150Y-75646386D01*
X172973376Y-75612039D01*
X173150002Y-75594643D01*
X173326629Y-75612039D01*
X173326629Y-75612039D01*
G37*
G36*
X156176627Y-75612039D02*
X156289853Y-75646386D01*
X156346467Y-75663559D01*
X156485087Y-75737654D01*
X156502991Y-75747224D01*
X156538729Y-75776554D01*
X156640186Y-75859816D01*
X156723448Y-75961273D01*
X156752778Y-75997011D01*
X156836443Y-76153536D01*
X156887963Y-76323376D01*
X156887963Y-76323378D01*
X156899968Y-76445261D01*
X156901000Y-76455745D01*
X156901000Y-76844260D01*
X156887963Y-76976629D01*
X156853616Y-77089855D01*
X156836443Y-77146469D01*
X156809116Y-77197593D01*
X156752778Y-77302993D01*
X156723448Y-77338731D01*
X156640186Y-77440188D01*
X156502989Y-77552781D01*
X156346466Y-77636445D01*
X156305733Y-77648801D01*
X156176626Y-77687965D01*
X156000000Y-77705361D01*
X155823373Y-77687965D01*
X155694266Y-77648801D01*
X155653533Y-77636445D01*
X155497011Y-77552781D01*
X155497009Y-77552780D01*
X155429336Y-77497242D01*
X155359814Y-77440188D01*
X155247221Y-77302991D01*
X155163557Y-77146468D01*
X155146384Y-77089854D01*
X155112037Y-76976628D01*
X155099000Y-76844259D01*
X155099000Y-76455744D01*
X155112037Y-76323375D01*
X155163557Y-76153536D01*
X155163557Y-76153535D01*
X155247222Y-75997010D01*
X155359812Y-75859819D01*
X155454750Y-75781906D01*
X155497010Y-75747224D01*
X155514914Y-75737654D01*
X155653534Y-75663559D01*
X155710148Y-75646386D01*
X155823374Y-75612039D01*
X156000000Y-75594643D01*
X156176627Y-75612039D01*
X156176627Y-75612039D01*
G37*
G36*
X200976631Y-75612039D02*
X201089857Y-75646386D01*
X201146471Y-75663559D01*
X201285091Y-75737654D01*
X201302995Y-75747224D01*
X201338733Y-75776554D01*
X201440190Y-75859816D01*
X201523452Y-75961273D01*
X201552782Y-75997011D01*
X201636447Y-76153536D01*
X201687967Y-76323376D01*
X201687967Y-76323378D01*
X201699972Y-76445261D01*
X201701004Y-76455745D01*
X201701004Y-76844260D01*
X201687967Y-76976629D01*
X201653620Y-77089855D01*
X201636447Y-77146469D01*
X201609120Y-77197593D01*
X201552782Y-77302993D01*
X201523452Y-77338731D01*
X201440190Y-77440188D01*
X201302993Y-77552781D01*
X201146470Y-77636445D01*
X201105737Y-77648801D01*
X200976630Y-77687965D01*
X200800004Y-77705361D01*
X200623377Y-77687965D01*
X200494270Y-77648801D01*
X200453537Y-77636445D01*
X200297015Y-77552781D01*
X200297013Y-77552780D01*
X200229340Y-77497242D01*
X200159818Y-77440188D01*
X200047225Y-77302991D01*
X199963561Y-77146468D01*
X199946388Y-77089854D01*
X199912041Y-76976628D01*
X199899004Y-76844259D01*
X199899004Y-76455744D01*
X199912041Y-76323375D01*
X199963561Y-76153536D01*
X199963561Y-76153535D01*
X200047226Y-75997010D01*
X200159816Y-75859819D01*
X200254754Y-75781906D01*
X200297014Y-75747224D01*
X200314918Y-75737654D01*
X200453538Y-75663559D01*
X200510152Y-75646386D01*
X200623378Y-75612039D01*
X200800004Y-75594643D01*
X200976631Y-75612039D01*
X200976631Y-75612039D01*
G37*
G36*
X211476631Y-75612039D02*
X211589857Y-75646386D01*
X211646471Y-75663559D01*
X211785091Y-75737654D01*
X211802995Y-75747224D01*
X211838733Y-75776554D01*
X211940190Y-75859816D01*
X212023452Y-75961273D01*
X212052782Y-75997011D01*
X212136447Y-76153536D01*
X212187967Y-76323376D01*
X212187967Y-76323378D01*
X212199972Y-76445261D01*
X212201004Y-76455745D01*
X212201004Y-76844260D01*
X212187967Y-76976629D01*
X212153620Y-77089855D01*
X212136447Y-77146469D01*
X212109120Y-77197593D01*
X212052782Y-77302993D01*
X212023452Y-77338731D01*
X211940190Y-77440188D01*
X211802993Y-77552781D01*
X211646470Y-77636445D01*
X211605737Y-77648801D01*
X211476630Y-77687965D01*
X211300004Y-77705361D01*
X211123377Y-77687965D01*
X210994270Y-77648801D01*
X210953537Y-77636445D01*
X210797015Y-77552781D01*
X210797013Y-77552780D01*
X210729340Y-77497242D01*
X210659818Y-77440188D01*
X210547225Y-77302991D01*
X210463561Y-77146468D01*
X210446388Y-77089854D01*
X210412041Y-76976628D01*
X210399004Y-76844259D01*
X210399004Y-76455744D01*
X210412041Y-76323375D01*
X210463561Y-76153536D01*
X210463561Y-76153535D01*
X210547226Y-75997010D01*
X210659816Y-75859819D01*
X210754754Y-75781906D01*
X210797014Y-75747224D01*
X210814918Y-75737654D01*
X210953538Y-75663559D01*
X211010152Y-75646386D01*
X211123378Y-75612039D01*
X211300004Y-75594643D01*
X211476631Y-75612039D01*
X211476631Y-75612039D01*
G37*
G36*
X145676627Y-75612039D02*
X145789853Y-75646386D01*
X145846467Y-75663559D01*
X145985087Y-75737654D01*
X146002991Y-75747224D01*
X146038729Y-75776554D01*
X146140186Y-75859816D01*
X146223448Y-75961273D01*
X146252778Y-75997011D01*
X146336443Y-76153536D01*
X146387963Y-76323376D01*
X146387963Y-76323378D01*
X146399968Y-76445261D01*
X146401000Y-76455745D01*
X146401000Y-76844260D01*
X146387963Y-76976629D01*
X146353616Y-77089855D01*
X146336443Y-77146469D01*
X146309116Y-77197593D01*
X146252778Y-77302993D01*
X146223448Y-77338731D01*
X146140186Y-77440188D01*
X146002989Y-77552781D01*
X145846466Y-77636445D01*
X145805733Y-77648801D01*
X145676626Y-77687965D01*
X145500000Y-77705361D01*
X145323373Y-77687965D01*
X145194266Y-77648801D01*
X145153533Y-77636445D01*
X144997011Y-77552781D01*
X144997009Y-77552780D01*
X144929336Y-77497242D01*
X144859814Y-77440188D01*
X144747221Y-77302991D01*
X144663557Y-77146468D01*
X144646384Y-77089854D01*
X144612037Y-76976628D01*
X144599000Y-76844259D01*
X144599000Y-76455744D01*
X144612037Y-76323375D01*
X144663557Y-76153536D01*
X144663557Y-76153535D01*
X144747222Y-75997010D01*
X144859812Y-75859819D01*
X144954750Y-75781906D01*
X144997010Y-75747224D01*
X145014914Y-75737654D01*
X145153534Y-75663559D01*
X145210148Y-75646386D01*
X145323374Y-75612039D01*
X145500000Y-75594643D01*
X145676627Y-75612039D01*
X145676627Y-75612039D01*
G37*
G36*
X183826629Y-75612039D02*
X183939855Y-75646386D01*
X183996469Y-75663559D01*
X184135089Y-75737654D01*
X184152993Y-75747224D01*
X184188731Y-75776554D01*
X184290188Y-75859816D01*
X184373450Y-75961273D01*
X184402780Y-75997011D01*
X184486445Y-76153536D01*
X184537965Y-76323376D01*
X184537965Y-76323378D01*
X184549970Y-76445261D01*
X184551002Y-76455745D01*
X184551002Y-76844260D01*
X184537965Y-76976629D01*
X184503618Y-77089855D01*
X184486445Y-77146469D01*
X184459118Y-77197593D01*
X184402780Y-77302993D01*
X184373450Y-77338731D01*
X184290188Y-77440188D01*
X184152991Y-77552781D01*
X183996468Y-77636445D01*
X183955735Y-77648801D01*
X183826628Y-77687965D01*
X183650002Y-77705361D01*
X183473375Y-77687965D01*
X183344268Y-77648801D01*
X183303535Y-77636445D01*
X183147013Y-77552781D01*
X183147011Y-77552780D01*
X183079338Y-77497242D01*
X183009816Y-77440188D01*
X182897223Y-77302991D01*
X182813559Y-77146468D01*
X182796386Y-77089854D01*
X182762039Y-76976628D01*
X182749002Y-76844259D01*
X182749002Y-76455744D01*
X182762039Y-76323375D01*
X182813559Y-76153536D01*
X182813559Y-76153535D01*
X182897224Y-75997010D01*
X183009814Y-75859819D01*
X183104752Y-75781906D01*
X183147012Y-75747224D01*
X183164916Y-75737654D01*
X183303536Y-75663559D01*
X183360150Y-75646386D01*
X183473376Y-75612039D01*
X183650002Y-75594643D01*
X183826629Y-75612039D01*
X183826629Y-75612039D01*
G37*
G36*
X176408602Y-75602991D02*
X176441651Y-75613016D01*
X176472108Y-75629296D01*
X176498801Y-75651203D01*
X176520708Y-75677896D01*
X176536988Y-75708353D01*
X176547013Y-75741402D01*
X176551002Y-75781906D01*
X176551002Y-77518098D01*
X176547013Y-77558602D01*
X176536988Y-77591651D01*
X176520708Y-77622108D01*
X176498801Y-77648801D01*
X176472108Y-77670708D01*
X176441651Y-77686988D01*
X176408602Y-77697013D01*
X176368098Y-77701002D01*
X174931906Y-77701002D01*
X174891402Y-77697013D01*
X174858353Y-77686988D01*
X174827896Y-77670708D01*
X174801203Y-77648801D01*
X174779296Y-77622108D01*
X174763016Y-77591651D01*
X174752991Y-77558602D01*
X174749002Y-77518098D01*
X174749002Y-75781906D01*
X174752991Y-75741402D01*
X174763016Y-75708353D01*
X174779296Y-75677896D01*
X174801203Y-75651203D01*
X174827896Y-75629296D01*
X174858353Y-75613016D01*
X174891402Y-75602991D01*
X174931906Y-75599002D01*
X176368098Y-75599002D01*
X176408602Y-75602991D01*
X176408602Y-75602991D01*
G37*
G36*
X186908602Y-75602991D02*
X186941651Y-75613016D01*
X186972108Y-75629296D01*
X186998801Y-75651203D01*
X187020708Y-75677896D01*
X187036988Y-75708353D01*
X187047013Y-75741402D01*
X187051002Y-75781906D01*
X187051002Y-77518098D01*
X187047013Y-77558602D01*
X187036988Y-77591651D01*
X187020708Y-77622108D01*
X186998801Y-77648801D01*
X186972108Y-77670708D01*
X186941651Y-77686988D01*
X186908602Y-77697013D01*
X186868098Y-77701002D01*
X185431906Y-77701002D01*
X185391402Y-77697013D01*
X185358353Y-77686988D01*
X185327896Y-77670708D01*
X185301203Y-77648801D01*
X185279296Y-77622108D01*
X185263016Y-77591651D01*
X185252991Y-77558602D01*
X185249002Y-77518098D01*
X185249002Y-75781906D01*
X185252991Y-75741402D01*
X185263016Y-75708353D01*
X185279296Y-75677896D01*
X185301203Y-75651203D01*
X185327896Y-75629296D01*
X185358353Y-75613016D01*
X185391402Y-75602991D01*
X185431906Y-75599002D01*
X186868098Y-75599002D01*
X186908602Y-75602991D01*
X186908602Y-75602991D01*
G37*
G36*
X214558604Y-75602991D02*
X214591653Y-75613016D01*
X214622110Y-75629296D01*
X214648803Y-75651203D01*
X214670710Y-75677896D01*
X214686990Y-75708353D01*
X214697015Y-75741402D01*
X214701004Y-75781906D01*
X214701004Y-77518098D01*
X214697015Y-77558602D01*
X214686990Y-77591651D01*
X214670710Y-77622108D01*
X214648803Y-77648801D01*
X214622110Y-77670708D01*
X214591653Y-77686988D01*
X214558604Y-77697013D01*
X214518100Y-77701002D01*
X213081908Y-77701002D01*
X213041404Y-77697013D01*
X213008355Y-77686988D01*
X212977898Y-77670708D01*
X212951205Y-77648801D01*
X212929298Y-77622108D01*
X212913018Y-77591651D01*
X212902993Y-77558602D01*
X212899004Y-77518098D01*
X212899004Y-75781906D01*
X212902993Y-75741402D01*
X212913018Y-75708353D01*
X212929298Y-75677896D01*
X212951205Y-75651203D01*
X212977898Y-75629296D01*
X213008355Y-75613016D01*
X213041404Y-75602991D01*
X213081908Y-75599002D01*
X214518100Y-75599002D01*
X214558604Y-75602991D01*
X214558604Y-75602991D01*
G37*
G36*
X159258600Y-75602991D02*
X159291649Y-75613016D01*
X159322106Y-75629296D01*
X159348799Y-75651203D01*
X159370706Y-75677896D01*
X159386986Y-75708353D01*
X159397011Y-75741402D01*
X159401000Y-75781906D01*
X159401000Y-77518098D01*
X159397011Y-77558602D01*
X159386986Y-77591651D01*
X159370706Y-77622108D01*
X159348799Y-77648801D01*
X159322106Y-77670708D01*
X159291649Y-77686988D01*
X159258600Y-77697013D01*
X159218096Y-77701002D01*
X157781904Y-77701002D01*
X157741400Y-77697013D01*
X157708351Y-77686988D01*
X157677894Y-77670708D01*
X157651201Y-77648801D01*
X157629294Y-77622108D01*
X157613014Y-77591651D01*
X157602989Y-77558602D01*
X157599000Y-77518098D01*
X157599000Y-75781906D01*
X157602989Y-75741402D01*
X157613014Y-75708353D01*
X157629294Y-75677896D01*
X157651201Y-75651203D01*
X157677894Y-75629296D01*
X157708351Y-75613016D01*
X157741400Y-75602991D01*
X157781904Y-75599002D01*
X159218096Y-75599002D01*
X159258600Y-75602991D01*
X159258600Y-75602991D01*
G37*
G36*
X204058604Y-75602991D02*
X204091653Y-75613016D01*
X204122110Y-75629296D01*
X204148803Y-75651203D01*
X204170710Y-75677896D01*
X204186990Y-75708353D01*
X204197015Y-75741402D01*
X204201004Y-75781906D01*
X204201004Y-77518098D01*
X204197015Y-77558602D01*
X204186990Y-77591651D01*
X204170710Y-77622108D01*
X204148803Y-77648801D01*
X204122110Y-77670708D01*
X204091653Y-77686988D01*
X204058604Y-77697013D01*
X204018100Y-77701002D01*
X202581908Y-77701002D01*
X202541404Y-77697013D01*
X202508355Y-77686988D01*
X202477898Y-77670708D01*
X202451205Y-77648801D01*
X202429298Y-77622108D01*
X202413018Y-77591651D01*
X202402993Y-77558602D01*
X202399004Y-77518098D01*
X202399004Y-75781906D01*
X202402993Y-75741402D01*
X202413018Y-75708353D01*
X202429298Y-75677896D01*
X202451205Y-75651203D01*
X202477898Y-75629296D01*
X202508355Y-75613016D01*
X202541404Y-75602991D01*
X202581908Y-75599002D01*
X204018100Y-75599002D01*
X204058604Y-75602991D01*
X204058604Y-75602991D01*
G37*
G36*
X148758600Y-75602991D02*
X148791649Y-75613016D01*
X148822106Y-75629296D01*
X148848799Y-75651203D01*
X148870706Y-75677896D01*
X148886986Y-75708353D01*
X148897011Y-75741402D01*
X148901000Y-75781906D01*
X148901000Y-77518098D01*
X148897011Y-77558602D01*
X148886986Y-77591651D01*
X148870706Y-77622108D01*
X148848799Y-77648801D01*
X148822106Y-77670708D01*
X148791649Y-77686988D01*
X148758600Y-77697013D01*
X148718096Y-77701002D01*
X147281904Y-77701002D01*
X147241400Y-77697013D01*
X147208351Y-77686988D01*
X147177894Y-77670708D01*
X147151201Y-77648801D01*
X147129294Y-77622108D01*
X147113014Y-77591651D01*
X147102989Y-77558602D01*
X147099000Y-77518098D01*
X147099000Y-75781906D01*
X147102989Y-75741402D01*
X147113014Y-75708353D01*
X147129294Y-75677896D01*
X147151201Y-75651203D01*
X147177894Y-75629296D01*
X147208351Y-75613016D01*
X147241400Y-75602991D01*
X147281904Y-75599002D01*
X148718096Y-75599002D01*
X148758600Y-75602991D01*
X148758600Y-75602991D01*
G37*
G36*
X176701002Y-71741002D02*
X174599002Y-71741002D01*
X174599002Y-67639002D01*
X176701002Y-67639002D01*
X176701002Y-71741002D01*
X176701002Y-71741002D01*
G37*
G36*
X201851004Y-71741002D02*
X199749004Y-71741002D01*
X199749004Y-67639002D01*
X201851004Y-67639002D01*
X201851004Y-71741002D01*
X201851004Y-71741002D01*
G37*
G36*
X184701002Y-71741002D02*
X182599002Y-71741002D01*
X182599002Y-67639002D01*
X184701002Y-67639002D01*
X184701002Y-71741002D01*
X184701002Y-71741002D01*
G37*
G36*
X212351004Y-71741002D02*
X210249004Y-71741002D01*
X210249004Y-67639002D01*
X212351004Y-67639002D01*
X212351004Y-71741002D01*
X212351004Y-71741002D01*
G37*
G36*
X214851004Y-71741002D02*
X212749004Y-71741002D01*
X212749004Y-67639002D01*
X214851004Y-67639002D01*
X214851004Y-71741002D01*
X214851004Y-71741002D01*
G37*
G36*
X159551000Y-71741002D02*
X157449000Y-71741002D01*
X157449000Y-67639002D01*
X159551000Y-67639002D01*
X159551000Y-71741002D01*
X159551000Y-71741002D01*
G37*
G36*
X187201002Y-71741002D02*
X185099002Y-71741002D01*
X185099002Y-67639002D01*
X187201002Y-67639002D01*
X187201002Y-71741002D01*
X187201002Y-71741002D01*
G37*
G36*
X149051000Y-71741002D02*
X146949000Y-71741002D01*
X146949000Y-67639002D01*
X149051000Y-67639002D01*
X149051000Y-71741002D01*
X149051000Y-71741002D01*
G37*
G36*
X146551000Y-71741002D02*
X144449000Y-71741002D01*
X144449000Y-67639002D01*
X146551000Y-67639002D01*
X146551000Y-71741002D01*
X146551000Y-71741002D01*
G37*
G36*
X174201002Y-71741002D02*
X172099002Y-71741002D01*
X172099002Y-67639002D01*
X174201002Y-67639002D01*
X174201002Y-71741002D01*
X174201002Y-71741002D01*
G37*
G36*
X204351004Y-71741002D02*
X202249004Y-71741002D01*
X202249004Y-67639002D01*
X204351004Y-67639002D01*
X204351004Y-71741002D01*
X204351004Y-71741002D01*
G37*
G36*
X157051000Y-71741002D02*
X154949000Y-71741002D01*
X154949000Y-67639002D01*
X157051000Y-67639002D01*
X157051000Y-71741002D01*
X157051000Y-71741002D01*
G37*
G36*
X140352527Y-67638738D02*
X140452410Y-67658606D01*
X140734674Y-67775523D01*
X140988705Y-67945261D01*
X141204741Y-68161297D01*
X141374479Y-68415328D01*
X141491396Y-68697592D01*
X141551000Y-68997242D01*
X141551000Y-69302762D01*
X141491396Y-69602412D01*
X141374479Y-69884676D01*
X141204741Y-70138707D01*
X140988705Y-70354743D01*
X140734674Y-70524481D01*
X140452410Y-70641398D01*
X140352527Y-70661266D01*
X140152762Y-70701002D01*
X139847238Y-70701002D01*
X139647473Y-70661266D01*
X139547590Y-70641398D01*
X139265326Y-70524481D01*
X139011295Y-70354743D01*
X138795259Y-70138707D01*
X138625521Y-69884676D01*
X138508604Y-69602412D01*
X138449000Y-69302762D01*
X138449000Y-68997242D01*
X138508604Y-68697592D01*
X138625521Y-68415328D01*
X138795259Y-68161297D01*
X139011295Y-67945261D01*
X139265326Y-67775523D01*
X139547590Y-67658606D01*
X139647473Y-67638738D01*
X139847238Y-67599002D01*
X140152762Y-67599002D01*
X140352527Y-67638738D01*
X140352527Y-67638738D01*
G37*
G36*
X168002529Y-67638738D02*
X168102412Y-67658606D01*
X168384676Y-67775523D01*
X168638707Y-67945261D01*
X168854743Y-68161297D01*
X169024481Y-68415328D01*
X169141398Y-68697592D01*
X169201002Y-68997242D01*
X169201002Y-69302762D01*
X169141398Y-69602412D01*
X169024481Y-69884676D01*
X168854743Y-70138707D01*
X168638707Y-70354743D01*
X168384676Y-70524481D01*
X168102412Y-70641398D01*
X168002529Y-70661266D01*
X167802764Y-70701002D01*
X167497240Y-70701002D01*
X167297475Y-70661266D01*
X167197592Y-70641398D01*
X166915328Y-70524481D01*
X166661297Y-70354743D01*
X166445261Y-70138707D01*
X166275523Y-69884676D01*
X166158606Y-69602412D01*
X166099002Y-69302762D01*
X166099002Y-68997242D01*
X166158606Y-68697592D01*
X166275523Y-68415328D01*
X166445261Y-68161297D01*
X166661297Y-67945261D01*
X166915328Y-67775523D01*
X167197592Y-67658606D01*
X167297475Y-67638738D01*
X167497240Y-67599002D01*
X167802764Y-67599002D01*
X168002529Y-67638738D01*
X168002529Y-67638738D01*
G37*
G36*
X191502529Y-67638738D02*
X191602412Y-67658606D01*
X191884676Y-67775523D01*
X192138707Y-67945261D01*
X192354743Y-68161297D01*
X192524481Y-68415328D01*
X192641398Y-68697592D01*
X192701002Y-68997242D01*
X192701002Y-69302762D01*
X192641398Y-69602412D01*
X192524481Y-69884676D01*
X192354743Y-70138707D01*
X192138707Y-70354743D01*
X191884676Y-70524481D01*
X191602412Y-70641398D01*
X191502529Y-70661266D01*
X191302764Y-70701002D01*
X190997240Y-70701002D01*
X190797475Y-70661266D01*
X190697592Y-70641398D01*
X190415328Y-70524481D01*
X190161297Y-70354743D01*
X189945261Y-70138707D01*
X189775523Y-69884676D01*
X189658606Y-69602412D01*
X189599002Y-69302762D01*
X189599002Y-68997242D01*
X189658606Y-68697592D01*
X189775523Y-68415328D01*
X189945261Y-68161297D01*
X190161297Y-67945261D01*
X190415328Y-67775523D01*
X190697592Y-67658606D01*
X190797475Y-67638738D01*
X190997240Y-67599002D01*
X191302764Y-67599002D01*
X191502529Y-67638738D01*
X191502529Y-67638738D01*
G37*
G36*
X163852527Y-67638738D02*
X163952410Y-67658606D01*
X164234674Y-67775523D01*
X164488705Y-67945261D01*
X164704741Y-68161297D01*
X164874479Y-68415328D01*
X164991396Y-68697592D01*
X165051000Y-68997242D01*
X165051000Y-69302762D01*
X164991396Y-69602412D01*
X164874479Y-69884676D01*
X164704741Y-70138707D01*
X164488705Y-70354743D01*
X164234674Y-70524481D01*
X163952410Y-70641398D01*
X163852527Y-70661266D01*
X163652762Y-70701002D01*
X163347238Y-70701002D01*
X163147473Y-70661266D01*
X163047590Y-70641398D01*
X162765326Y-70524481D01*
X162511295Y-70354743D01*
X162295259Y-70138707D01*
X162125521Y-69884676D01*
X162008604Y-69602412D01*
X161949000Y-69302762D01*
X161949000Y-68997242D01*
X162008604Y-68697592D01*
X162125521Y-68415328D01*
X162295259Y-68161297D01*
X162511295Y-67945261D01*
X162765326Y-67775523D01*
X163047590Y-67658606D01*
X163147473Y-67638738D01*
X163347238Y-67599002D01*
X163652762Y-67599002D01*
X163852527Y-67638738D01*
X163852527Y-67638738D01*
G37*
G36*
X195652531Y-67638738D02*
X195752414Y-67658606D01*
X196034678Y-67775523D01*
X196288709Y-67945261D01*
X196504745Y-68161297D01*
X196674483Y-68415328D01*
X196791400Y-68697592D01*
X196851004Y-68997242D01*
X196851004Y-69302762D01*
X196791400Y-69602412D01*
X196674483Y-69884676D01*
X196504745Y-70138707D01*
X196288709Y-70354743D01*
X196034678Y-70524481D01*
X195752414Y-70641398D01*
X195652531Y-70661266D01*
X195452766Y-70701002D01*
X195147242Y-70701002D01*
X194947477Y-70661266D01*
X194847594Y-70641398D01*
X194565330Y-70524481D01*
X194311299Y-70354743D01*
X194095263Y-70138707D01*
X193925525Y-69884676D01*
X193808608Y-69602412D01*
X193749004Y-69302762D01*
X193749004Y-68997242D01*
X193808608Y-68697592D01*
X193925525Y-68415328D01*
X194095263Y-68161297D01*
X194311299Y-67945261D01*
X194565330Y-67775523D01*
X194847594Y-67658606D01*
X194947477Y-67638738D01*
X195147242Y-67599002D01*
X195452766Y-67599002D01*
X195652531Y-67638738D01*
X195652531Y-67638738D01*
G37*
G36*
X219152531Y-67638738D02*
X219252414Y-67658606D01*
X219534678Y-67775523D01*
X219788709Y-67945261D01*
X220004745Y-68161297D01*
X220174483Y-68415328D01*
X220291400Y-68697592D01*
X220351004Y-68997242D01*
X220351004Y-69302762D01*
X220291400Y-69602412D01*
X220174483Y-69884676D01*
X220004745Y-70138707D01*
X219788709Y-70354743D01*
X219534678Y-70524481D01*
X219252414Y-70641398D01*
X219152531Y-70661266D01*
X218952766Y-70701002D01*
X218647242Y-70701002D01*
X218447477Y-70661266D01*
X218347594Y-70641398D01*
X218065330Y-70524481D01*
X217811299Y-70354743D01*
X217595263Y-70138707D01*
X217425525Y-69884676D01*
X217308608Y-69602412D01*
X217249004Y-69302762D01*
X217249004Y-68997242D01*
X217308608Y-68697592D01*
X217425525Y-68415328D01*
X217595263Y-68161297D01*
X217811299Y-67945261D01*
X218065330Y-67775523D01*
X218347594Y-67658606D01*
X218447477Y-67638738D01*
X218647242Y-67599002D01*
X218952766Y-67599002D01*
X219152531Y-67638738D01*
X219152531Y-67638738D01*
G37*
G36*
X219152531Y-63488736D02*
X219252414Y-63508604D01*
X219534678Y-63625521D01*
X219788709Y-63795259D01*
X220004745Y-64011295D01*
X220174483Y-64265326D01*
X220270224Y-64496467D01*
X220291400Y-64547591D01*
X220349107Y-64837699D01*
X220351004Y-64847240D01*
X220351004Y-65152760D01*
X220291400Y-65452410D01*
X220174483Y-65734674D01*
X220004745Y-65988705D01*
X219788709Y-66204741D01*
X219534678Y-66374479D01*
X219252414Y-66491396D01*
X219152531Y-66511264D01*
X218952766Y-66551000D01*
X218647242Y-66551000D01*
X218447477Y-66511264D01*
X218347594Y-66491396D01*
X218065330Y-66374479D01*
X217811299Y-66204741D01*
X217595263Y-65988705D01*
X217425525Y-65734674D01*
X217308608Y-65452410D01*
X217249004Y-65152760D01*
X217249004Y-64847240D01*
X217250902Y-64837699D01*
X217308608Y-64547591D01*
X217329784Y-64496467D01*
X217425525Y-64265326D01*
X217595263Y-64011295D01*
X217811299Y-63795259D01*
X218065330Y-63625521D01*
X218347594Y-63508604D01*
X218447477Y-63488736D01*
X218647242Y-63449000D01*
X218952766Y-63449000D01*
X219152531Y-63488736D01*
X219152531Y-63488736D01*
G37*
G36*
X163852527Y-63488736D02*
X163952410Y-63508604D01*
X164234674Y-63625521D01*
X164488705Y-63795259D01*
X164704741Y-64011295D01*
X164874479Y-64265326D01*
X164970220Y-64496467D01*
X164991396Y-64547591D01*
X165049103Y-64837699D01*
X165051000Y-64847240D01*
X165051000Y-65152760D01*
X164991396Y-65452410D01*
X164874479Y-65734674D01*
X164704741Y-65988705D01*
X164488705Y-66204741D01*
X164234674Y-66374479D01*
X163952410Y-66491396D01*
X163852527Y-66511264D01*
X163652762Y-66551000D01*
X163347238Y-66551000D01*
X163147473Y-66511264D01*
X163047590Y-66491396D01*
X162765326Y-66374479D01*
X162511295Y-66204741D01*
X162295259Y-65988705D01*
X162125521Y-65734674D01*
X162008604Y-65452410D01*
X161949000Y-65152760D01*
X161949000Y-64847240D01*
X161950898Y-64837699D01*
X162008604Y-64547591D01*
X162029780Y-64496467D01*
X162125521Y-64265326D01*
X162295259Y-64011295D01*
X162511295Y-63795259D01*
X162765326Y-63625521D01*
X163047590Y-63508604D01*
X163147473Y-63488736D01*
X163347238Y-63449000D01*
X163652762Y-63449000D01*
X163852527Y-63488736D01*
X163852527Y-63488736D01*
G37*
G36*
X140352527Y-63488736D02*
X140452410Y-63508604D01*
X140734674Y-63625521D01*
X140988705Y-63795259D01*
X141204741Y-64011295D01*
X141374479Y-64265326D01*
X141470220Y-64496467D01*
X141491396Y-64547591D01*
X141549103Y-64837699D01*
X141551000Y-64847240D01*
X141551000Y-65152760D01*
X141491396Y-65452410D01*
X141374479Y-65734674D01*
X141204741Y-65988705D01*
X140988705Y-66204741D01*
X140734674Y-66374479D01*
X140452410Y-66491396D01*
X140352527Y-66511264D01*
X140152762Y-66551000D01*
X139847238Y-66551000D01*
X139647473Y-66511264D01*
X139547590Y-66491396D01*
X139265326Y-66374479D01*
X139011295Y-66204741D01*
X138795259Y-65988705D01*
X138625521Y-65734674D01*
X138508604Y-65452410D01*
X138449000Y-65152760D01*
X138449000Y-64847240D01*
X138450898Y-64837699D01*
X138508604Y-64547591D01*
X138529780Y-64496467D01*
X138625521Y-64265326D01*
X138795259Y-64011295D01*
X139011295Y-63795259D01*
X139265326Y-63625521D01*
X139547590Y-63508604D01*
X139647473Y-63488736D01*
X139847238Y-63449000D01*
X140152762Y-63449000D01*
X140352527Y-63488736D01*
X140352527Y-63488736D01*
G37*
G36*
X168002529Y-63488736D02*
X168102412Y-63508604D01*
X168384676Y-63625521D01*
X168638707Y-63795259D01*
X168854743Y-64011295D01*
X169024481Y-64265326D01*
X169120222Y-64496467D01*
X169141398Y-64547591D01*
X169199105Y-64837699D01*
X169201002Y-64847240D01*
X169201002Y-65152760D01*
X169141398Y-65452410D01*
X169024481Y-65734674D01*
X168854743Y-65988705D01*
X168638707Y-66204741D01*
X168384676Y-66374479D01*
X168102412Y-66491396D01*
X168002529Y-66511264D01*
X167802764Y-66551000D01*
X167497240Y-66551000D01*
X167297475Y-66511264D01*
X167197592Y-66491396D01*
X166915328Y-66374479D01*
X166661297Y-66204741D01*
X166445261Y-65988705D01*
X166275523Y-65734674D01*
X166158606Y-65452410D01*
X166099002Y-65152760D01*
X166099002Y-64847240D01*
X166100900Y-64837699D01*
X166158606Y-64547591D01*
X166179782Y-64496467D01*
X166275523Y-64265326D01*
X166445261Y-64011295D01*
X166661297Y-63795259D01*
X166915328Y-63625521D01*
X167197592Y-63508604D01*
X167297475Y-63488736D01*
X167497240Y-63449000D01*
X167802764Y-63449000D01*
X168002529Y-63488736D01*
X168002529Y-63488736D01*
G37*
G36*
X191502529Y-63488736D02*
X191602412Y-63508604D01*
X191884676Y-63625521D01*
X192138707Y-63795259D01*
X192354743Y-64011295D01*
X192524481Y-64265326D01*
X192620222Y-64496467D01*
X192641398Y-64547591D01*
X192699105Y-64837699D01*
X192701002Y-64847240D01*
X192701002Y-65152760D01*
X192641398Y-65452410D01*
X192524481Y-65734674D01*
X192354743Y-65988705D01*
X192138707Y-66204741D01*
X191884676Y-66374479D01*
X191602412Y-66491396D01*
X191502529Y-66511264D01*
X191302764Y-66551000D01*
X190997240Y-66551000D01*
X190797475Y-66511264D01*
X190697592Y-66491396D01*
X190415328Y-66374479D01*
X190161297Y-66204741D01*
X189945261Y-65988705D01*
X189775523Y-65734674D01*
X189658606Y-65452410D01*
X189599002Y-65152760D01*
X189599002Y-64847240D01*
X189600900Y-64837699D01*
X189658606Y-64547591D01*
X189679782Y-64496467D01*
X189775523Y-64265326D01*
X189945261Y-64011295D01*
X190161297Y-63795259D01*
X190415328Y-63625521D01*
X190697592Y-63508604D01*
X190797475Y-63488736D01*
X190997240Y-63449000D01*
X191302764Y-63449000D01*
X191502529Y-63488736D01*
X191502529Y-63488736D01*
G37*
G36*
X195652531Y-63488736D02*
X195752414Y-63508604D01*
X196034678Y-63625521D01*
X196288709Y-63795259D01*
X196504745Y-64011295D01*
X196674483Y-64265326D01*
X196770224Y-64496467D01*
X196791400Y-64547591D01*
X196849107Y-64837699D01*
X196851004Y-64847240D01*
X196851004Y-65152760D01*
X196791400Y-65452410D01*
X196674483Y-65734674D01*
X196504745Y-65988705D01*
X196288709Y-66204741D01*
X196034678Y-66374479D01*
X195752414Y-66491396D01*
X195652531Y-66511264D01*
X195452766Y-66551000D01*
X195147242Y-66551000D01*
X194947477Y-66511264D01*
X194847594Y-66491396D01*
X194565330Y-66374479D01*
X194311299Y-66204741D01*
X194095263Y-65988705D01*
X193925525Y-65734674D01*
X193808608Y-65452410D01*
X193749004Y-65152760D01*
X193749004Y-64847240D01*
X193750902Y-64837699D01*
X193808608Y-64547591D01*
X193829784Y-64496467D01*
X193925525Y-64265326D01*
X194095263Y-64011295D01*
X194311299Y-63795259D01*
X194565330Y-63625521D01*
X194847594Y-63508604D01*
X194947477Y-63488736D01*
X195147242Y-63449000D01*
X195452766Y-63449000D01*
X195652531Y-63488736D01*
X195652531Y-63488736D01*
G37*
G36*
X183826629Y-62962037D02*
X183939855Y-62996384D01*
X183996469Y-63013557D01*
X184135089Y-63087652D01*
X184152993Y-63097222D01*
X184188731Y-63126552D01*
X184290188Y-63209814D01*
X184373450Y-63311271D01*
X184402780Y-63347009D01*
X184486445Y-63503534D01*
X184537965Y-63673374D01*
X184537965Y-63673376D01*
X184549970Y-63795259D01*
X184551002Y-63805743D01*
X184551002Y-64194258D01*
X184537965Y-64326627D01*
X184503618Y-64439853D01*
X184486445Y-64496467D01*
X184459118Y-64547591D01*
X184402780Y-64652991D01*
X184373450Y-64688729D01*
X184290188Y-64790186D01*
X184152991Y-64902779D01*
X183996468Y-64986443D01*
X183955735Y-64998799D01*
X183826628Y-65037963D01*
X183650002Y-65055359D01*
X183473375Y-65037963D01*
X183344268Y-64998799D01*
X183303535Y-64986443D01*
X183147013Y-64902779D01*
X183147011Y-64902778D01*
X183079338Y-64847240D01*
X183009816Y-64790186D01*
X182897223Y-64652989D01*
X182813559Y-64496466D01*
X182796386Y-64439852D01*
X182762039Y-64326626D01*
X182749002Y-64194257D01*
X182749002Y-63805742D01*
X182762039Y-63673373D01*
X182813559Y-63503534D01*
X182813559Y-63503533D01*
X182897224Y-63347008D01*
X183009814Y-63209817D01*
X183104752Y-63131904D01*
X183147012Y-63097222D01*
X183164916Y-63087652D01*
X183303536Y-63013557D01*
X183360150Y-62996384D01*
X183473376Y-62962037D01*
X183650002Y-62944641D01*
X183826629Y-62962037D01*
X183826629Y-62962037D01*
G37*
G36*
X145676627Y-62962037D02*
X145789853Y-62996384D01*
X145846467Y-63013557D01*
X145985087Y-63087652D01*
X146002991Y-63097222D01*
X146038729Y-63126552D01*
X146140186Y-63209814D01*
X146223448Y-63311271D01*
X146252778Y-63347009D01*
X146336443Y-63503534D01*
X146387963Y-63673374D01*
X146387963Y-63673376D01*
X146399968Y-63795259D01*
X146401000Y-63805743D01*
X146401000Y-64194258D01*
X146387963Y-64326627D01*
X146353616Y-64439853D01*
X146336443Y-64496467D01*
X146309116Y-64547591D01*
X146252778Y-64652991D01*
X146223448Y-64688729D01*
X146140186Y-64790186D01*
X146002989Y-64902779D01*
X145846466Y-64986443D01*
X145805733Y-64998799D01*
X145676626Y-65037963D01*
X145500000Y-65055359D01*
X145323373Y-65037963D01*
X145194266Y-64998799D01*
X145153533Y-64986443D01*
X144997011Y-64902779D01*
X144997009Y-64902778D01*
X144929336Y-64847240D01*
X144859814Y-64790186D01*
X144747221Y-64652989D01*
X144663557Y-64496466D01*
X144646384Y-64439852D01*
X144612037Y-64326626D01*
X144599000Y-64194257D01*
X144599000Y-63805742D01*
X144612037Y-63673373D01*
X144663557Y-63503534D01*
X144663557Y-63503533D01*
X144747222Y-63347008D01*
X144859812Y-63209817D01*
X144954750Y-63131904D01*
X144997010Y-63097222D01*
X145014914Y-63087652D01*
X145153534Y-63013557D01*
X145210148Y-62996384D01*
X145323374Y-62962037D01*
X145500000Y-62944641D01*
X145676627Y-62962037D01*
X145676627Y-62962037D01*
G37*
G36*
X156176627Y-62962037D02*
X156289853Y-62996384D01*
X156346467Y-63013557D01*
X156485087Y-63087652D01*
X156502991Y-63097222D01*
X156538729Y-63126552D01*
X156640186Y-63209814D01*
X156723448Y-63311271D01*
X156752778Y-63347009D01*
X156836443Y-63503534D01*
X156887963Y-63673374D01*
X156887963Y-63673376D01*
X156899968Y-63795259D01*
X156901000Y-63805743D01*
X156901000Y-64194258D01*
X156887963Y-64326627D01*
X156853616Y-64439853D01*
X156836443Y-64496467D01*
X156809116Y-64547591D01*
X156752778Y-64652991D01*
X156723448Y-64688729D01*
X156640186Y-64790186D01*
X156502989Y-64902779D01*
X156346466Y-64986443D01*
X156305733Y-64998799D01*
X156176626Y-65037963D01*
X156000000Y-65055359D01*
X155823373Y-65037963D01*
X155694266Y-64998799D01*
X155653533Y-64986443D01*
X155497011Y-64902779D01*
X155497009Y-64902778D01*
X155429336Y-64847240D01*
X155359814Y-64790186D01*
X155247221Y-64652989D01*
X155163557Y-64496466D01*
X155146384Y-64439852D01*
X155112037Y-64326626D01*
X155099000Y-64194257D01*
X155099000Y-63805742D01*
X155112037Y-63673373D01*
X155163557Y-63503534D01*
X155163557Y-63503533D01*
X155247222Y-63347008D01*
X155359812Y-63209817D01*
X155454750Y-63131904D01*
X155497010Y-63097222D01*
X155514914Y-63087652D01*
X155653534Y-63013557D01*
X155710148Y-62996384D01*
X155823374Y-62962037D01*
X156000000Y-62944641D01*
X156176627Y-62962037D01*
X156176627Y-62962037D01*
G37*
G36*
X173326629Y-62962037D02*
X173439855Y-62996384D01*
X173496469Y-63013557D01*
X173635089Y-63087652D01*
X173652993Y-63097222D01*
X173688731Y-63126552D01*
X173790188Y-63209814D01*
X173873450Y-63311271D01*
X173902780Y-63347009D01*
X173986445Y-63503534D01*
X174037965Y-63673374D01*
X174037965Y-63673376D01*
X174049970Y-63795259D01*
X174051002Y-63805743D01*
X174051002Y-64194258D01*
X174037965Y-64326627D01*
X174003618Y-64439853D01*
X173986445Y-64496467D01*
X173959118Y-64547591D01*
X173902780Y-64652991D01*
X173873450Y-64688729D01*
X173790188Y-64790186D01*
X173652991Y-64902779D01*
X173496468Y-64986443D01*
X173455735Y-64998799D01*
X173326628Y-65037963D01*
X173150002Y-65055359D01*
X172973375Y-65037963D01*
X172844268Y-64998799D01*
X172803535Y-64986443D01*
X172647013Y-64902779D01*
X172647011Y-64902778D01*
X172579338Y-64847240D01*
X172509816Y-64790186D01*
X172397223Y-64652989D01*
X172313559Y-64496466D01*
X172296386Y-64439852D01*
X172262039Y-64326626D01*
X172249002Y-64194257D01*
X172249002Y-63805742D01*
X172262039Y-63673373D01*
X172313559Y-63503534D01*
X172313559Y-63503533D01*
X172397224Y-63347008D01*
X172509814Y-63209817D01*
X172604752Y-63131904D01*
X172647012Y-63097222D01*
X172664916Y-63087652D01*
X172803536Y-63013557D01*
X172860150Y-62996384D01*
X172973376Y-62962037D01*
X173150002Y-62944641D01*
X173326629Y-62962037D01*
X173326629Y-62962037D01*
G37*
G36*
X200976631Y-62962037D02*
X201089857Y-62996384D01*
X201146471Y-63013557D01*
X201285091Y-63087652D01*
X201302995Y-63097222D01*
X201338733Y-63126552D01*
X201440190Y-63209814D01*
X201523452Y-63311271D01*
X201552782Y-63347009D01*
X201636447Y-63503534D01*
X201687967Y-63673374D01*
X201687967Y-63673376D01*
X201699972Y-63795259D01*
X201701004Y-63805743D01*
X201701004Y-64194258D01*
X201687967Y-64326627D01*
X201653620Y-64439853D01*
X201636447Y-64496467D01*
X201609120Y-64547591D01*
X201552782Y-64652991D01*
X201523452Y-64688729D01*
X201440190Y-64790186D01*
X201302993Y-64902779D01*
X201146470Y-64986443D01*
X201105737Y-64998799D01*
X200976630Y-65037963D01*
X200800004Y-65055359D01*
X200623377Y-65037963D01*
X200494270Y-64998799D01*
X200453537Y-64986443D01*
X200297015Y-64902779D01*
X200297013Y-64902778D01*
X200229340Y-64847240D01*
X200159818Y-64790186D01*
X200047225Y-64652989D01*
X199963561Y-64496466D01*
X199946388Y-64439852D01*
X199912041Y-64326626D01*
X199899004Y-64194257D01*
X199899004Y-63805742D01*
X199912041Y-63673373D01*
X199963561Y-63503534D01*
X199963561Y-63503533D01*
X200047226Y-63347008D01*
X200159816Y-63209817D01*
X200254754Y-63131904D01*
X200297014Y-63097222D01*
X200314918Y-63087652D01*
X200453538Y-63013557D01*
X200510152Y-62996384D01*
X200623378Y-62962037D01*
X200800004Y-62944641D01*
X200976631Y-62962037D01*
X200976631Y-62962037D01*
G37*
G36*
X211476631Y-62962037D02*
X211589857Y-62996384D01*
X211646471Y-63013557D01*
X211785091Y-63087652D01*
X211802995Y-63097222D01*
X211838733Y-63126552D01*
X211940190Y-63209814D01*
X212023452Y-63311271D01*
X212052782Y-63347009D01*
X212136447Y-63503534D01*
X212187967Y-63673374D01*
X212187967Y-63673376D01*
X212199972Y-63795259D01*
X212201004Y-63805743D01*
X212201004Y-64194258D01*
X212187967Y-64326627D01*
X212153620Y-64439853D01*
X212136447Y-64496467D01*
X212109120Y-64547591D01*
X212052782Y-64652991D01*
X212023452Y-64688729D01*
X211940190Y-64790186D01*
X211802993Y-64902779D01*
X211646470Y-64986443D01*
X211605737Y-64998799D01*
X211476630Y-65037963D01*
X211300004Y-65055359D01*
X211123377Y-65037963D01*
X210994270Y-64998799D01*
X210953537Y-64986443D01*
X210797015Y-64902779D01*
X210797013Y-64902778D01*
X210729340Y-64847240D01*
X210659818Y-64790186D01*
X210547225Y-64652989D01*
X210463561Y-64496466D01*
X210446388Y-64439852D01*
X210412041Y-64326626D01*
X210399004Y-64194257D01*
X210399004Y-63805742D01*
X210412041Y-63673373D01*
X210463561Y-63503534D01*
X210463561Y-63503533D01*
X210547226Y-63347008D01*
X210659816Y-63209817D01*
X210754754Y-63131904D01*
X210797014Y-63097222D01*
X210814918Y-63087652D01*
X210953538Y-63013557D01*
X211010152Y-62996384D01*
X211123378Y-62962037D01*
X211300004Y-62944641D01*
X211476631Y-62962037D01*
X211476631Y-62962037D01*
G37*
G36*
X186908602Y-62952989D02*
X186941651Y-62963014D01*
X186972108Y-62979294D01*
X186998801Y-63001201D01*
X187020708Y-63027894D01*
X187036988Y-63058351D01*
X187047013Y-63091400D01*
X187051002Y-63131904D01*
X187051002Y-64868096D01*
X187047013Y-64908600D01*
X187036988Y-64941649D01*
X187020708Y-64972106D01*
X186998801Y-64998799D01*
X186972108Y-65020706D01*
X186941651Y-65036986D01*
X186908602Y-65047011D01*
X186868098Y-65051000D01*
X185431906Y-65051000D01*
X185391402Y-65047011D01*
X185358353Y-65036986D01*
X185327896Y-65020706D01*
X185301203Y-64998799D01*
X185279296Y-64972106D01*
X185263016Y-64941649D01*
X185252991Y-64908600D01*
X185249002Y-64868096D01*
X185249002Y-63131904D01*
X185252991Y-63091400D01*
X185263016Y-63058351D01*
X185279296Y-63027894D01*
X185301203Y-63001201D01*
X185327896Y-62979294D01*
X185358353Y-62963014D01*
X185391402Y-62952989D01*
X185431906Y-62949000D01*
X186868098Y-62949000D01*
X186908602Y-62952989D01*
X186908602Y-62952989D01*
G37*
G36*
X214558604Y-62952989D02*
X214591653Y-62963014D01*
X214622110Y-62979294D01*
X214648803Y-63001201D01*
X214670710Y-63027894D01*
X214686990Y-63058351D01*
X214697015Y-63091400D01*
X214701004Y-63131904D01*
X214701004Y-64868096D01*
X214697015Y-64908600D01*
X214686990Y-64941649D01*
X214670710Y-64972106D01*
X214648803Y-64998799D01*
X214622110Y-65020706D01*
X214591653Y-65036986D01*
X214558604Y-65047011D01*
X214518100Y-65051000D01*
X213081908Y-65051000D01*
X213041404Y-65047011D01*
X213008355Y-65036986D01*
X212977898Y-65020706D01*
X212951205Y-64998799D01*
X212929298Y-64972106D01*
X212913018Y-64941649D01*
X212902993Y-64908600D01*
X212899004Y-64868096D01*
X212899004Y-63131904D01*
X212902993Y-63091400D01*
X212913018Y-63058351D01*
X212929298Y-63027894D01*
X212951205Y-63001201D01*
X212977898Y-62979294D01*
X213008355Y-62963014D01*
X213041404Y-62952989D01*
X213081908Y-62949000D01*
X214518100Y-62949000D01*
X214558604Y-62952989D01*
X214558604Y-62952989D01*
G37*
G36*
X204058604Y-62952989D02*
X204091653Y-62963014D01*
X204122110Y-62979294D01*
X204148803Y-63001201D01*
X204170710Y-63027894D01*
X204186990Y-63058351D01*
X204197015Y-63091400D01*
X204201004Y-63131904D01*
X204201004Y-64868096D01*
X204197015Y-64908600D01*
X204186990Y-64941649D01*
X204170710Y-64972106D01*
X204148803Y-64998799D01*
X204122110Y-65020706D01*
X204091653Y-65036986D01*
X204058604Y-65047011D01*
X204018100Y-65051000D01*
X202581908Y-65051000D01*
X202541404Y-65047011D01*
X202508355Y-65036986D01*
X202477898Y-65020706D01*
X202451205Y-64998799D01*
X202429298Y-64972106D01*
X202413018Y-64941649D01*
X202402993Y-64908600D01*
X202399004Y-64868096D01*
X202399004Y-63131904D01*
X202402993Y-63091400D01*
X202413018Y-63058351D01*
X202429298Y-63027894D01*
X202451205Y-63001201D01*
X202477898Y-62979294D01*
X202508355Y-62963014D01*
X202541404Y-62952989D01*
X202581908Y-62949000D01*
X204018100Y-62949000D01*
X204058604Y-62952989D01*
X204058604Y-62952989D01*
G37*
G36*
X159258600Y-62952989D02*
X159291649Y-62963014D01*
X159322106Y-62979294D01*
X159348799Y-63001201D01*
X159370706Y-63027894D01*
X159386986Y-63058351D01*
X159397011Y-63091400D01*
X159401000Y-63131904D01*
X159401000Y-64868096D01*
X159397011Y-64908600D01*
X159386986Y-64941649D01*
X159370706Y-64972106D01*
X159348799Y-64998799D01*
X159322106Y-65020706D01*
X159291649Y-65036986D01*
X159258600Y-65047011D01*
X159218096Y-65051000D01*
X157781904Y-65051000D01*
X157741400Y-65047011D01*
X157708351Y-65036986D01*
X157677894Y-65020706D01*
X157651201Y-64998799D01*
X157629294Y-64972106D01*
X157613014Y-64941649D01*
X157602989Y-64908600D01*
X157599000Y-64868096D01*
X157599000Y-63131904D01*
X157602989Y-63091400D01*
X157613014Y-63058351D01*
X157629294Y-63027894D01*
X157651201Y-63001201D01*
X157677894Y-62979294D01*
X157708351Y-62963014D01*
X157741400Y-62952989D01*
X157781904Y-62949000D01*
X159218096Y-62949000D01*
X159258600Y-62952989D01*
X159258600Y-62952989D01*
G37*
G36*
X176408602Y-62952989D02*
X176441651Y-62963014D01*
X176472108Y-62979294D01*
X176498801Y-63001201D01*
X176520708Y-63027894D01*
X176536988Y-63058351D01*
X176547013Y-63091400D01*
X176551002Y-63131904D01*
X176551002Y-64868096D01*
X176547013Y-64908600D01*
X176536988Y-64941649D01*
X176520708Y-64972106D01*
X176498801Y-64998799D01*
X176472108Y-65020706D01*
X176441651Y-65036986D01*
X176408602Y-65047011D01*
X176368098Y-65051000D01*
X174931906Y-65051000D01*
X174891402Y-65047011D01*
X174858353Y-65036986D01*
X174827896Y-65020706D01*
X174801203Y-64998799D01*
X174779296Y-64972106D01*
X174763016Y-64941649D01*
X174752991Y-64908600D01*
X174749002Y-64868096D01*
X174749002Y-63131904D01*
X174752991Y-63091400D01*
X174763016Y-63058351D01*
X174779296Y-63027894D01*
X174801203Y-63001201D01*
X174827896Y-62979294D01*
X174858353Y-62963014D01*
X174891402Y-62952989D01*
X174931906Y-62949000D01*
X176368098Y-62949000D01*
X176408602Y-62952989D01*
X176408602Y-62952989D01*
G37*
G36*
X148758600Y-62952989D02*
X148791649Y-62963014D01*
X148822106Y-62979294D01*
X148848799Y-63001201D01*
X148870706Y-63027894D01*
X148886986Y-63058351D01*
X148897011Y-63091400D01*
X148901000Y-63131904D01*
X148901000Y-64868096D01*
X148897011Y-64908600D01*
X148886986Y-64941649D01*
X148870706Y-64972106D01*
X148848799Y-64998799D01*
X148822106Y-65020706D01*
X148791649Y-65036986D01*
X148758600Y-65047011D01*
X148718096Y-65051000D01*
X147281904Y-65051000D01*
X147241400Y-65047011D01*
X147208351Y-65036986D01*
X147177894Y-65020706D01*
X147151201Y-64998799D01*
X147129294Y-64972106D01*
X147113014Y-64941649D01*
X147102989Y-64908600D01*
X147099000Y-64868096D01*
X147099000Y-63131904D01*
X147102989Y-63091400D01*
X147113014Y-63058351D01*
X147129294Y-63027894D01*
X147151201Y-63001201D01*
X147177894Y-62979294D01*
X147208351Y-62963014D01*
X147241400Y-62952989D01*
X147281904Y-62949000D01*
X148718096Y-62949000D01*
X148758600Y-62952989D01*
X148758600Y-62952989D01*
G37*
G36*
X214851004Y-59091000D02*
X212749004Y-59091000D01*
X212749004Y-54989000D01*
X214851004Y-54989000D01*
X214851004Y-59091000D01*
X214851004Y-59091000D01*
G37*
G36*
X204351004Y-59091000D02*
X202249004Y-59091000D01*
X202249004Y-54989000D01*
X204351004Y-54989000D01*
X204351004Y-59091000D01*
X204351004Y-59091000D01*
G37*
G36*
X184701002Y-59091000D02*
X182599002Y-59091000D01*
X182599002Y-54989000D01*
X184701002Y-54989000D01*
X184701002Y-59091000D01*
X184701002Y-59091000D01*
G37*
G36*
X176701002Y-59091000D02*
X174599002Y-59091000D01*
X174599002Y-54989000D01*
X176701002Y-54989000D01*
X176701002Y-59091000D01*
X176701002Y-59091000D01*
G37*
G36*
X187201002Y-59091000D02*
X185099002Y-59091000D01*
X185099002Y-54989000D01*
X187201002Y-54989000D01*
X187201002Y-59091000D01*
X187201002Y-59091000D01*
G37*
G36*
X159551000Y-59091000D02*
X157449000Y-59091000D01*
X157449000Y-54989000D01*
X159551000Y-54989000D01*
X159551000Y-59091000D01*
X159551000Y-59091000D01*
G37*
G36*
X157051000Y-59091000D02*
X154949000Y-59091000D01*
X154949000Y-54989000D01*
X157051000Y-54989000D01*
X157051000Y-59091000D01*
X157051000Y-59091000D01*
G37*
G36*
X149051000Y-59091000D02*
X146949000Y-59091000D01*
X146949000Y-54989000D01*
X149051000Y-54989000D01*
X149051000Y-59091000D01*
X149051000Y-59091000D01*
G37*
G36*
X146551000Y-59091000D02*
X144449000Y-59091000D01*
X144449000Y-54989000D01*
X146551000Y-54989000D01*
X146551000Y-59091000D01*
X146551000Y-59091000D01*
G37*
G36*
X174201002Y-59091000D02*
X172099002Y-59091000D01*
X172099002Y-54989000D01*
X174201002Y-54989000D01*
X174201002Y-59091000D01*
X174201002Y-59091000D01*
G37*
G36*
X201851004Y-59091000D02*
X199749004Y-59091000D01*
X199749004Y-54989000D01*
X201851004Y-54989000D01*
X201851004Y-59091000D01*
X201851004Y-59091000D01*
G37*
G36*
X212351004Y-59091000D02*
X210249004Y-59091000D01*
X210249004Y-54989000D01*
X212351004Y-54989000D01*
X212351004Y-59091000D01*
X212351004Y-59091000D01*
G37*
G36*
X140352527Y-54988736D02*
X140452410Y-55008604D01*
X140734674Y-55125521D01*
X140988705Y-55295259D01*
X141204741Y-55511295D01*
X141374479Y-55765326D01*
X141491396Y-56047590D01*
X141551000Y-56347240D01*
X141551000Y-56652760D01*
X141491396Y-56952410D01*
X141374479Y-57234674D01*
X141204741Y-57488705D01*
X140988705Y-57704741D01*
X140734674Y-57874479D01*
X140452410Y-57991396D01*
X140352527Y-58011264D01*
X140152762Y-58051000D01*
X139847238Y-58051000D01*
X139647473Y-58011264D01*
X139547590Y-57991396D01*
X139265326Y-57874479D01*
X139011295Y-57704741D01*
X138795259Y-57488705D01*
X138625521Y-57234674D01*
X138508604Y-56952410D01*
X138449000Y-56652760D01*
X138449000Y-56347240D01*
X138508604Y-56047590D01*
X138625521Y-55765326D01*
X138795259Y-55511295D01*
X139011295Y-55295259D01*
X139265326Y-55125521D01*
X139547590Y-55008604D01*
X139647473Y-54988736D01*
X139847238Y-54949000D01*
X140152762Y-54949000D01*
X140352527Y-54988736D01*
X140352527Y-54988736D01*
G37*
G36*
X168002529Y-54988736D02*
X168102412Y-55008604D01*
X168384676Y-55125521D01*
X168638707Y-55295259D01*
X168854743Y-55511295D01*
X169024481Y-55765326D01*
X169141398Y-56047590D01*
X169201002Y-56347240D01*
X169201002Y-56652760D01*
X169141398Y-56952410D01*
X169024481Y-57234674D01*
X168854743Y-57488705D01*
X168638707Y-57704741D01*
X168384676Y-57874479D01*
X168102412Y-57991396D01*
X168002529Y-58011264D01*
X167802764Y-58051000D01*
X167497240Y-58051000D01*
X167297475Y-58011264D01*
X167197592Y-57991396D01*
X166915328Y-57874479D01*
X166661297Y-57704741D01*
X166445261Y-57488705D01*
X166275523Y-57234674D01*
X166158606Y-56952410D01*
X166099002Y-56652760D01*
X166099002Y-56347240D01*
X166158606Y-56047590D01*
X166275523Y-55765326D01*
X166445261Y-55511295D01*
X166661297Y-55295259D01*
X166915328Y-55125521D01*
X167197592Y-55008604D01*
X167297475Y-54988736D01*
X167497240Y-54949000D01*
X167802764Y-54949000D01*
X168002529Y-54988736D01*
X168002529Y-54988736D01*
G37*
G36*
X163852527Y-54988736D02*
X163952410Y-55008604D01*
X164234674Y-55125521D01*
X164488705Y-55295259D01*
X164704741Y-55511295D01*
X164874479Y-55765326D01*
X164991396Y-56047590D01*
X165051000Y-56347240D01*
X165051000Y-56652760D01*
X164991396Y-56952410D01*
X164874479Y-57234674D01*
X164704741Y-57488705D01*
X164488705Y-57704741D01*
X164234674Y-57874479D01*
X163952410Y-57991396D01*
X163852527Y-58011264D01*
X163652762Y-58051000D01*
X163347238Y-58051000D01*
X163147473Y-58011264D01*
X163047590Y-57991396D01*
X162765326Y-57874479D01*
X162511295Y-57704741D01*
X162295259Y-57488705D01*
X162125521Y-57234674D01*
X162008604Y-56952410D01*
X161949000Y-56652760D01*
X161949000Y-56347240D01*
X162008604Y-56047590D01*
X162125521Y-55765326D01*
X162295259Y-55511295D01*
X162511295Y-55295259D01*
X162765326Y-55125521D01*
X163047590Y-55008604D01*
X163147473Y-54988736D01*
X163347238Y-54949000D01*
X163652762Y-54949000D01*
X163852527Y-54988736D01*
X163852527Y-54988736D01*
G37*
G36*
X195652531Y-54988736D02*
X195752414Y-55008604D01*
X196034678Y-55125521D01*
X196288709Y-55295259D01*
X196504745Y-55511295D01*
X196674483Y-55765326D01*
X196791400Y-56047590D01*
X196851004Y-56347240D01*
X196851004Y-56652760D01*
X196791400Y-56952410D01*
X196674483Y-57234674D01*
X196504745Y-57488705D01*
X196288709Y-57704741D01*
X196034678Y-57874479D01*
X195752414Y-57991396D01*
X195652531Y-58011264D01*
X195452766Y-58051000D01*
X195147242Y-58051000D01*
X194947477Y-58011264D01*
X194847594Y-57991396D01*
X194565330Y-57874479D01*
X194311299Y-57704741D01*
X194095263Y-57488705D01*
X193925525Y-57234674D01*
X193808608Y-56952410D01*
X193749004Y-56652760D01*
X193749004Y-56347240D01*
X193808608Y-56047590D01*
X193925525Y-55765326D01*
X194095263Y-55511295D01*
X194311299Y-55295259D01*
X194565330Y-55125521D01*
X194847594Y-55008604D01*
X194947477Y-54988736D01*
X195147242Y-54949000D01*
X195452766Y-54949000D01*
X195652531Y-54988736D01*
X195652531Y-54988736D01*
G37*
G36*
X191502529Y-54988736D02*
X191602412Y-55008604D01*
X191884676Y-55125521D01*
X192138707Y-55295259D01*
X192354743Y-55511295D01*
X192524481Y-55765326D01*
X192641398Y-56047590D01*
X192701002Y-56347240D01*
X192701002Y-56652760D01*
X192641398Y-56952410D01*
X192524481Y-57234674D01*
X192354743Y-57488705D01*
X192138707Y-57704741D01*
X191884676Y-57874479D01*
X191602412Y-57991396D01*
X191502529Y-58011264D01*
X191302764Y-58051000D01*
X190997240Y-58051000D01*
X190797475Y-58011264D01*
X190697592Y-57991396D01*
X190415328Y-57874479D01*
X190161297Y-57704741D01*
X189945261Y-57488705D01*
X189775523Y-57234674D01*
X189658606Y-56952410D01*
X189599002Y-56652760D01*
X189599002Y-56347240D01*
X189658606Y-56047590D01*
X189775523Y-55765326D01*
X189945261Y-55511295D01*
X190161297Y-55295259D01*
X190415328Y-55125521D01*
X190697592Y-55008604D01*
X190797475Y-54988736D01*
X190997240Y-54949000D01*
X191302764Y-54949000D01*
X191502529Y-54988736D01*
X191502529Y-54988736D01*
G37*
G36*
X219152531Y-54988736D02*
X219252414Y-55008604D01*
X219534678Y-55125521D01*
X219788709Y-55295259D01*
X220004745Y-55511295D01*
X220174483Y-55765326D01*
X220291400Y-56047590D01*
X220351004Y-56347240D01*
X220351004Y-56652760D01*
X220291400Y-56952410D01*
X220174483Y-57234674D01*
X220004745Y-57488705D01*
X219788709Y-57704741D01*
X219534678Y-57874479D01*
X219252414Y-57991396D01*
X219152531Y-58011264D01*
X218952766Y-58051000D01*
X218647242Y-58051000D01*
X218447477Y-58011264D01*
X218347594Y-57991396D01*
X218065330Y-57874479D01*
X217811299Y-57704741D01*
X217595263Y-57488705D01*
X217425525Y-57234674D01*
X217308608Y-56952410D01*
X217249004Y-56652760D01*
X217249004Y-56347240D01*
X217308608Y-56047590D01*
X217425525Y-55765326D01*
X217595263Y-55511295D01*
X217811299Y-55295259D01*
X218065330Y-55125521D01*
X218347594Y-55008604D01*
X218447477Y-54988736D01*
X218647242Y-54949000D01*
X218952766Y-54949000D01*
X219152531Y-54988736D01*
X219152531Y-54988736D01*
G37*
M02*
