%TF.GenerationSoftware,KiCad,Pcbnew,5.0.2+dfsg1-1*%
%TF.CreationDate,2022-04-03T13:42:16+09:00*%
%TF.ProjectId,JST-mounter_panelized,4a53542d-6d6f-4756-9e74-65725f70616e,rev?*%
%TF.SameCoordinates,Original*%
%TF.FileFunction,Copper,L2,Bot*%
%TF.FilePolarity,Positive*%
%FSLAX46Y46*%
G04 Gerber Fmt 4.6, Leading zero omitted, Abs format (unit mm)*
G04 Created by KiCad (PCBNEW 5.0.2+dfsg1-1) date Sun 03 Apr 2022 01:42:16 PM JST*
%MOMM*%
%LPD*%
G01*
G04 APERTURE LIST*
%ADD10C,0.150000*%
%ADD11C,3.000000*%
%ADD12O,1.700000X2.000000*%
%ADD13C,0.100000*%
%ADD14C,1.700000*%
%ADD15R,2.000000X4.000000*%
%ADD16C,0.800000*%
%ADD17C,2.000000*%
%ADD18C,1.000000*%
G04 APERTURE END LIST*
D10*
X137899998Y-117600008D02*
X220900006Y-117600008D01*
X137899998Y-104950006D02*
X220900006Y-104950006D01*
X137899998Y-92300004D02*
X220900006Y-92300004D01*
X137899998Y-79650002D02*
X220900006Y-79650002D01*
X137899998Y-67000000D02*
X220900006Y-67000000D01*
X193150002Y-54399998D02*
X193150002Y-130350012D01*
X165500000Y-54399998D02*
X165500000Y-130350012D01*
X137924999Y-130325011D02*
X137924999Y-54424999D01*
X220875005Y-130325011D02*
X137924999Y-130325011D01*
X220875005Y-54424999D02*
X220875005Y-130325011D01*
X137924999Y-54424999D02*
X220875005Y-54424999D01*
D11*
X218800004Y-119750010D03*
X218800004Y-107100008D03*
X218800004Y-94450006D03*
X218800004Y-81800004D03*
X218800004Y-69150002D03*
X218800004Y-56500000D03*
X191150002Y-119750010D03*
X191150002Y-107100008D03*
X191150002Y-94450006D03*
X191150002Y-81800004D03*
X191150002Y-69150002D03*
X191150002Y-56500000D03*
X163500000Y-119750010D03*
X163500000Y-107100008D03*
X163500000Y-94450006D03*
X163500000Y-81800004D03*
X163500000Y-69150002D03*
X195300004Y-119750010D03*
X195300004Y-107100008D03*
X195300004Y-94450006D03*
X195300004Y-81800004D03*
X195300004Y-69150002D03*
X195300004Y-56500000D03*
X167650002Y-119750010D03*
X167650002Y-107100008D03*
X167650002Y-94450006D03*
X167650002Y-81800004D03*
X167650002Y-69150002D03*
X167650002Y-56500000D03*
X140000000Y-119750010D03*
X140000000Y-107100008D03*
X140000000Y-94450006D03*
X140000000Y-81800004D03*
X140000000Y-69150002D03*
D12*
X211300004Y-127250010D03*
D13*
G36*
X214424508Y-126251214D02*
X214448777Y-126254814D01*
X214472575Y-126260775D01*
X214495675Y-126269040D01*
X214517853Y-126279530D01*
X214538897Y-126292143D01*
X214558602Y-126306757D01*
X214576781Y-126323233D01*
X214593257Y-126341412D01*
X214607871Y-126361117D01*
X214620484Y-126382161D01*
X214630974Y-126404339D01*
X214639239Y-126427439D01*
X214645200Y-126451237D01*
X214648800Y-126475506D01*
X214650004Y-126500010D01*
X214650004Y-128000010D01*
X214648800Y-128024514D01*
X214645200Y-128048783D01*
X214639239Y-128072581D01*
X214630974Y-128095681D01*
X214620484Y-128117859D01*
X214607871Y-128138903D01*
X214593257Y-128158608D01*
X214576781Y-128176787D01*
X214558602Y-128193263D01*
X214538897Y-128207877D01*
X214517853Y-128220490D01*
X214495675Y-128230980D01*
X214472575Y-128239245D01*
X214448777Y-128245206D01*
X214424508Y-128248806D01*
X214400004Y-128250010D01*
X213200004Y-128250010D01*
X213175500Y-128248806D01*
X213151231Y-128245206D01*
X213127433Y-128239245D01*
X213104333Y-128230980D01*
X213082155Y-128220490D01*
X213061111Y-128207877D01*
X213041406Y-128193263D01*
X213023227Y-128176787D01*
X213006751Y-128158608D01*
X212992137Y-128138903D01*
X212979524Y-128117859D01*
X212969034Y-128095681D01*
X212960769Y-128072581D01*
X212954808Y-128048783D01*
X212951208Y-128024514D01*
X212950004Y-128000010D01*
X212950004Y-126500010D01*
X212951208Y-126475506D01*
X212954808Y-126451237D01*
X212960769Y-126427439D01*
X212969034Y-126404339D01*
X212979524Y-126382161D01*
X212992137Y-126361117D01*
X213006751Y-126341412D01*
X213023227Y-126323233D01*
X213041406Y-126306757D01*
X213061111Y-126292143D01*
X213082155Y-126279530D01*
X213104333Y-126269040D01*
X213127433Y-126260775D01*
X213151231Y-126254814D01*
X213175500Y-126251214D01*
X213200004Y-126250010D01*
X214400004Y-126250010D01*
X214424508Y-126251214D01*
X214424508Y-126251214D01*
G37*
D14*
X213800004Y-127250010D03*
D12*
X211300004Y-114600008D03*
D13*
G36*
X214424508Y-113601212D02*
X214448777Y-113604812D01*
X214472575Y-113610773D01*
X214495675Y-113619038D01*
X214517853Y-113629528D01*
X214538897Y-113642141D01*
X214558602Y-113656755D01*
X214576781Y-113673231D01*
X214593257Y-113691410D01*
X214607871Y-113711115D01*
X214620484Y-113732159D01*
X214630974Y-113754337D01*
X214639239Y-113777437D01*
X214645200Y-113801235D01*
X214648800Y-113825504D01*
X214650004Y-113850008D01*
X214650004Y-115350008D01*
X214648800Y-115374512D01*
X214645200Y-115398781D01*
X214639239Y-115422579D01*
X214630974Y-115445679D01*
X214620484Y-115467857D01*
X214607871Y-115488901D01*
X214593257Y-115508606D01*
X214576781Y-115526785D01*
X214558602Y-115543261D01*
X214538897Y-115557875D01*
X214517853Y-115570488D01*
X214495675Y-115580978D01*
X214472575Y-115589243D01*
X214448777Y-115595204D01*
X214424508Y-115598804D01*
X214400004Y-115600008D01*
X213200004Y-115600008D01*
X213175500Y-115598804D01*
X213151231Y-115595204D01*
X213127433Y-115589243D01*
X213104333Y-115580978D01*
X213082155Y-115570488D01*
X213061111Y-115557875D01*
X213041406Y-115543261D01*
X213023227Y-115526785D01*
X213006751Y-115508606D01*
X212992137Y-115488901D01*
X212979524Y-115467857D01*
X212969034Y-115445679D01*
X212960769Y-115422579D01*
X212954808Y-115398781D01*
X212951208Y-115374512D01*
X212950004Y-115350008D01*
X212950004Y-113850008D01*
X212951208Y-113825504D01*
X212954808Y-113801235D01*
X212960769Y-113777437D01*
X212969034Y-113754337D01*
X212979524Y-113732159D01*
X212992137Y-113711115D01*
X213006751Y-113691410D01*
X213023227Y-113673231D01*
X213041406Y-113656755D01*
X213061111Y-113642141D01*
X213082155Y-113629528D01*
X213104333Y-113619038D01*
X213127433Y-113610773D01*
X213151231Y-113604812D01*
X213175500Y-113601212D01*
X213200004Y-113600008D01*
X214400004Y-113600008D01*
X214424508Y-113601212D01*
X214424508Y-113601212D01*
G37*
D14*
X213800004Y-114600008D03*
D12*
X211300004Y-101950006D03*
D13*
G36*
X214424508Y-100951210D02*
X214448777Y-100954810D01*
X214472575Y-100960771D01*
X214495675Y-100969036D01*
X214517853Y-100979526D01*
X214538897Y-100992139D01*
X214558602Y-101006753D01*
X214576781Y-101023229D01*
X214593257Y-101041408D01*
X214607871Y-101061113D01*
X214620484Y-101082157D01*
X214630974Y-101104335D01*
X214639239Y-101127435D01*
X214645200Y-101151233D01*
X214648800Y-101175502D01*
X214650004Y-101200006D01*
X214650004Y-102700006D01*
X214648800Y-102724510D01*
X214645200Y-102748779D01*
X214639239Y-102772577D01*
X214630974Y-102795677D01*
X214620484Y-102817855D01*
X214607871Y-102838899D01*
X214593257Y-102858604D01*
X214576781Y-102876783D01*
X214558602Y-102893259D01*
X214538897Y-102907873D01*
X214517853Y-102920486D01*
X214495675Y-102930976D01*
X214472575Y-102939241D01*
X214448777Y-102945202D01*
X214424508Y-102948802D01*
X214400004Y-102950006D01*
X213200004Y-102950006D01*
X213175500Y-102948802D01*
X213151231Y-102945202D01*
X213127433Y-102939241D01*
X213104333Y-102930976D01*
X213082155Y-102920486D01*
X213061111Y-102907873D01*
X213041406Y-102893259D01*
X213023227Y-102876783D01*
X213006751Y-102858604D01*
X212992137Y-102838899D01*
X212979524Y-102817855D01*
X212969034Y-102795677D01*
X212960769Y-102772577D01*
X212954808Y-102748779D01*
X212951208Y-102724510D01*
X212950004Y-102700006D01*
X212950004Y-101200006D01*
X212951208Y-101175502D01*
X212954808Y-101151233D01*
X212960769Y-101127435D01*
X212969034Y-101104335D01*
X212979524Y-101082157D01*
X212992137Y-101061113D01*
X213006751Y-101041408D01*
X213023227Y-101023229D01*
X213041406Y-101006753D01*
X213061111Y-100992139D01*
X213082155Y-100979526D01*
X213104333Y-100969036D01*
X213127433Y-100960771D01*
X213151231Y-100954810D01*
X213175500Y-100951210D01*
X213200004Y-100950006D01*
X214400004Y-100950006D01*
X214424508Y-100951210D01*
X214424508Y-100951210D01*
G37*
D14*
X213800004Y-101950006D03*
D12*
X211300004Y-89300004D03*
D13*
G36*
X214424508Y-88301208D02*
X214448777Y-88304808D01*
X214472575Y-88310769D01*
X214495675Y-88319034D01*
X214517853Y-88329524D01*
X214538897Y-88342137D01*
X214558602Y-88356751D01*
X214576781Y-88373227D01*
X214593257Y-88391406D01*
X214607871Y-88411111D01*
X214620484Y-88432155D01*
X214630974Y-88454333D01*
X214639239Y-88477433D01*
X214645200Y-88501231D01*
X214648800Y-88525500D01*
X214650004Y-88550004D01*
X214650004Y-90050004D01*
X214648800Y-90074508D01*
X214645200Y-90098777D01*
X214639239Y-90122575D01*
X214630974Y-90145675D01*
X214620484Y-90167853D01*
X214607871Y-90188897D01*
X214593257Y-90208602D01*
X214576781Y-90226781D01*
X214558602Y-90243257D01*
X214538897Y-90257871D01*
X214517853Y-90270484D01*
X214495675Y-90280974D01*
X214472575Y-90289239D01*
X214448777Y-90295200D01*
X214424508Y-90298800D01*
X214400004Y-90300004D01*
X213200004Y-90300004D01*
X213175500Y-90298800D01*
X213151231Y-90295200D01*
X213127433Y-90289239D01*
X213104333Y-90280974D01*
X213082155Y-90270484D01*
X213061111Y-90257871D01*
X213041406Y-90243257D01*
X213023227Y-90226781D01*
X213006751Y-90208602D01*
X212992137Y-90188897D01*
X212979524Y-90167853D01*
X212969034Y-90145675D01*
X212960769Y-90122575D01*
X212954808Y-90098777D01*
X212951208Y-90074508D01*
X212950004Y-90050004D01*
X212950004Y-88550004D01*
X212951208Y-88525500D01*
X212954808Y-88501231D01*
X212960769Y-88477433D01*
X212969034Y-88454333D01*
X212979524Y-88432155D01*
X212992137Y-88411111D01*
X213006751Y-88391406D01*
X213023227Y-88373227D01*
X213041406Y-88356751D01*
X213061111Y-88342137D01*
X213082155Y-88329524D01*
X213104333Y-88319034D01*
X213127433Y-88310769D01*
X213151231Y-88304808D01*
X213175500Y-88301208D01*
X213200004Y-88300004D01*
X214400004Y-88300004D01*
X214424508Y-88301208D01*
X214424508Y-88301208D01*
G37*
D14*
X213800004Y-89300004D03*
D12*
X211300004Y-76650002D03*
D13*
G36*
X214424508Y-75651206D02*
X214448777Y-75654806D01*
X214472575Y-75660767D01*
X214495675Y-75669032D01*
X214517853Y-75679522D01*
X214538897Y-75692135D01*
X214558602Y-75706749D01*
X214576781Y-75723225D01*
X214593257Y-75741404D01*
X214607871Y-75761109D01*
X214620484Y-75782153D01*
X214630974Y-75804331D01*
X214639239Y-75827431D01*
X214645200Y-75851229D01*
X214648800Y-75875498D01*
X214650004Y-75900002D01*
X214650004Y-77400002D01*
X214648800Y-77424506D01*
X214645200Y-77448775D01*
X214639239Y-77472573D01*
X214630974Y-77495673D01*
X214620484Y-77517851D01*
X214607871Y-77538895D01*
X214593257Y-77558600D01*
X214576781Y-77576779D01*
X214558602Y-77593255D01*
X214538897Y-77607869D01*
X214517853Y-77620482D01*
X214495675Y-77630972D01*
X214472575Y-77639237D01*
X214448777Y-77645198D01*
X214424508Y-77648798D01*
X214400004Y-77650002D01*
X213200004Y-77650002D01*
X213175500Y-77648798D01*
X213151231Y-77645198D01*
X213127433Y-77639237D01*
X213104333Y-77630972D01*
X213082155Y-77620482D01*
X213061111Y-77607869D01*
X213041406Y-77593255D01*
X213023227Y-77576779D01*
X213006751Y-77558600D01*
X212992137Y-77538895D01*
X212979524Y-77517851D01*
X212969034Y-77495673D01*
X212960769Y-77472573D01*
X212954808Y-77448775D01*
X212951208Y-77424506D01*
X212950004Y-77400002D01*
X212950004Y-75900002D01*
X212951208Y-75875498D01*
X212954808Y-75851229D01*
X212960769Y-75827431D01*
X212969034Y-75804331D01*
X212979524Y-75782153D01*
X212992137Y-75761109D01*
X213006751Y-75741404D01*
X213023227Y-75723225D01*
X213041406Y-75706749D01*
X213061111Y-75692135D01*
X213082155Y-75679522D01*
X213104333Y-75669032D01*
X213127433Y-75660767D01*
X213151231Y-75654806D01*
X213175500Y-75651206D01*
X213200004Y-75650002D01*
X214400004Y-75650002D01*
X214424508Y-75651206D01*
X214424508Y-75651206D01*
G37*
D14*
X213800004Y-76650002D03*
D12*
X211300004Y-64000000D03*
D13*
G36*
X214424508Y-63001204D02*
X214448777Y-63004804D01*
X214472575Y-63010765D01*
X214495675Y-63019030D01*
X214517853Y-63029520D01*
X214538897Y-63042133D01*
X214558602Y-63056747D01*
X214576781Y-63073223D01*
X214593257Y-63091402D01*
X214607871Y-63111107D01*
X214620484Y-63132151D01*
X214630974Y-63154329D01*
X214639239Y-63177429D01*
X214645200Y-63201227D01*
X214648800Y-63225496D01*
X214650004Y-63250000D01*
X214650004Y-64750000D01*
X214648800Y-64774504D01*
X214645200Y-64798773D01*
X214639239Y-64822571D01*
X214630974Y-64845671D01*
X214620484Y-64867849D01*
X214607871Y-64888893D01*
X214593257Y-64908598D01*
X214576781Y-64926777D01*
X214558602Y-64943253D01*
X214538897Y-64957867D01*
X214517853Y-64970480D01*
X214495675Y-64980970D01*
X214472575Y-64989235D01*
X214448777Y-64995196D01*
X214424508Y-64998796D01*
X214400004Y-65000000D01*
X213200004Y-65000000D01*
X213175500Y-64998796D01*
X213151231Y-64995196D01*
X213127433Y-64989235D01*
X213104333Y-64980970D01*
X213082155Y-64970480D01*
X213061111Y-64957867D01*
X213041406Y-64943253D01*
X213023227Y-64926777D01*
X213006751Y-64908598D01*
X212992137Y-64888893D01*
X212979524Y-64867849D01*
X212969034Y-64845671D01*
X212960769Y-64822571D01*
X212954808Y-64798773D01*
X212951208Y-64774504D01*
X212950004Y-64750000D01*
X212950004Y-63250000D01*
X212951208Y-63225496D01*
X212954808Y-63201227D01*
X212960769Y-63177429D01*
X212969034Y-63154329D01*
X212979524Y-63132151D01*
X212992137Y-63111107D01*
X213006751Y-63091402D01*
X213023227Y-63073223D01*
X213041406Y-63056747D01*
X213061111Y-63042133D01*
X213082155Y-63029520D01*
X213104333Y-63019030D01*
X213127433Y-63010765D01*
X213151231Y-63004804D01*
X213175500Y-63001204D01*
X213200004Y-63000000D01*
X214400004Y-63000000D01*
X214424508Y-63001204D01*
X214424508Y-63001204D01*
G37*
D14*
X213800004Y-64000000D03*
D12*
X183650002Y-127250010D03*
D13*
G36*
X186774506Y-126251214D02*
X186798775Y-126254814D01*
X186822573Y-126260775D01*
X186845673Y-126269040D01*
X186867851Y-126279530D01*
X186888895Y-126292143D01*
X186908600Y-126306757D01*
X186926779Y-126323233D01*
X186943255Y-126341412D01*
X186957869Y-126361117D01*
X186970482Y-126382161D01*
X186980972Y-126404339D01*
X186989237Y-126427439D01*
X186995198Y-126451237D01*
X186998798Y-126475506D01*
X187000002Y-126500010D01*
X187000002Y-128000010D01*
X186998798Y-128024514D01*
X186995198Y-128048783D01*
X186989237Y-128072581D01*
X186980972Y-128095681D01*
X186970482Y-128117859D01*
X186957869Y-128138903D01*
X186943255Y-128158608D01*
X186926779Y-128176787D01*
X186908600Y-128193263D01*
X186888895Y-128207877D01*
X186867851Y-128220490D01*
X186845673Y-128230980D01*
X186822573Y-128239245D01*
X186798775Y-128245206D01*
X186774506Y-128248806D01*
X186750002Y-128250010D01*
X185550002Y-128250010D01*
X185525498Y-128248806D01*
X185501229Y-128245206D01*
X185477431Y-128239245D01*
X185454331Y-128230980D01*
X185432153Y-128220490D01*
X185411109Y-128207877D01*
X185391404Y-128193263D01*
X185373225Y-128176787D01*
X185356749Y-128158608D01*
X185342135Y-128138903D01*
X185329522Y-128117859D01*
X185319032Y-128095681D01*
X185310767Y-128072581D01*
X185304806Y-128048783D01*
X185301206Y-128024514D01*
X185300002Y-128000010D01*
X185300002Y-126500010D01*
X185301206Y-126475506D01*
X185304806Y-126451237D01*
X185310767Y-126427439D01*
X185319032Y-126404339D01*
X185329522Y-126382161D01*
X185342135Y-126361117D01*
X185356749Y-126341412D01*
X185373225Y-126323233D01*
X185391404Y-126306757D01*
X185411109Y-126292143D01*
X185432153Y-126279530D01*
X185454331Y-126269040D01*
X185477431Y-126260775D01*
X185501229Y-126254814D01*
X185525498Y-126251214D01*
X185550002Y-126250010D01*
X186750002Y-126250010D01*
X186774506Y-126251214D01*
X186774506Y-126251214D01*
G37*
D14*
X186150002Y-127250010D03*
D12*
X183650002Y-114600008D03*
D13*
G36*
X186774506Y-113601212D02*
X186798775Y-113604812D01*
X186822573Y-113610773D01*
X186845673Y-113619038D01*
X186867851Y-113629528D01*
X186888895Y-113642141D01*
X186908600Y-113656755D01*
X186926779Y-113673231D01*
X186943255Y-113691410D01*
X186957869Y-113711115D01*
X186970482Y-113732159D01*
X186980972Y-113754337D01*
X186989237Y-113777437D01*
X186995198Y-113801235D01*
X186998798Y-113825504D01*
X187000002Y-113850008D01*
X187000002Y-115350008D01*
X186998798Y-115374512D01*
X186995198Y-115398781D01*
X186989237Y-115422579D01*
X186980972Y-115445679D01*
X186970482Y-115467857D01*
X186957869Y-115488901D01*
X186943255Y-115508606D01*
X186926779Y-115526785D01*
X186908600Y-115543261D01*
X186888895Y-115557875D01*
X186867851Y-115570488D01*
X186845673Y-115580978D01*
X186822573Y-115589243D01*
X186798775Y-115595204D01*
X186774506Y-115598804D01*
X186750002Y-115600008D01*
X185550002Y-115600008D01*
X185525498Y-115598804D01*
X185501229Y-115595204D01*
X185477431Y-115589243D01*
X185454331Y-115580978D01*
X185432153Y-115570488D01*
X185411109Y-115557875D01*
X185391404Y-115543261D01*
X185373225Y-115526785D01*
X185356749Y-115508606D01*
X185342135Y-115488901D01*
X185329522Y-115467857D01*
X185319032Y-115445679D01*
X185310767Y-115422579D01*
X185304806Y-115398781D01*
X185301206Y-115374512D01*
X185300002Y-115350008D01*
X185300002Y-113850008D01*
X185301206Y-113825504D01*
X185304806Y-113801235D01*
X185310767Y-113777437D01*
X185319032Y-113754337D01*
X185329522Y-113732159D01*
X185342135Y-113711115D01*
X185356749Y-113691410D01*
X185373225Y-113673231D01*
X185391404Y-113656755D01*
X185411109Y-113642141D01*
X185432153Y-113629528D01*
X185454331Y-113619038D01*
X185477431Y-113610773D01*
X185501229Y-113604812D01*
X185525498Y-113601212D01*
X185550002Y-113600008D01*
X186750002Y-113600008D01*
X186774506Y-113601212D01*
X186774506Y-113601212D01*
G37*
D14*
X186150002Y-114600008D03*
D12*
X183650002Y-101950006D03*
D13*
G36*
X186774506Y-100951210D02*
X186798775Y-100954810D01*
X186822573Y-100960771D01*
X186845673Y-100969036D01*
X186867851Y-100979526D01*
X186888895Y-100992139D01*
X186908600Y-101006753D01*
X186926779Y-101023229D01*
X186943255Y-101041408D01*
X186957869Y-101061113D01*
X186970482Y-101082157D01*
X186980972Y-101104335D01*
X186989237Y-101127435D01*
X186995198Y-101151233D01*
X186998798Y-101175502D01*
X187000002Y-101200006D01*
X187000002Y-102700006D01*
X186998798Y-102724510D01*
X186995198Y-102748779D01*
X186989237Y-102772577D01*
X186980972Y-102795677D01*
X186970482Y-102817855D01*
X186957869Y-102838899D01*
X186943255Y-102858604D01*
X186926779Y-102876783D01*
X186908600Y-102893259D01*
X186888895Y-102907873D01*
X186867851Y-102920486D01*
X186845673Y-102930976D01*
X186822573Y-102939241D01*
X186798775Y-102945202D01*
X186774506Y-102948802D01*
X186750002Y-102950006D01*
X185550002Y-102950006D01*
X185525498Y-102948802D01*
X185501229Y-102945202D01*
X185477431Y-102939241D01*
X185454331Y-102930976D01*
X185432153Y-102920486D01*
X185411109Y-102907873D01*
X185391404Y-102893259D01*
X185373225Y-102876783D01*
X185356749Y-102858604D01*
X185342135Y-102838899D01*
X185329522Y-102817855D01*
X185319032Y-102795677D01*
X185310767Y-102772577D01*
X185304806Y-102748779D01*
X185301206Y-102724510D01*
X185300002Y-102700006D01*
X185300002Y-101200006D01*
X185301206Y-101175502D01*
X185304806Y-101151233D01*
X185310767Y-101127435D01*
X185319032Y-101104335D01*
X185329522Y-101082157D01*
X185342135Y-101061113D01*
X185356749Y-101041408D01*
X185373225Y-101023229D01*
X185391404Y-101006753D01*
X185411109Y-100992139D01*
X185432153Y-100979526D01*
X185454331Y-100969036D01*
X185477431Y-100960771D01*
X185501229Y-100954810D01*
X185525498Y-100951210D01*
X185550002Y-100950006D01*
X186750002Y-100950006D01*
X186774506Y-100951210D01*
X186774506Y-100951210D01*
G37*
D14*
X186150002Y-101950006D03*
D12*
X183650002Y-89300004D03*
D13*
G36*
X186774506Y-88301208D02*
X186798775Y-88304808D01*
X186822573Y-88310769D01*
X186845673Y-88319034D01*
X186867851Y-88329524D01*
X186888895Y-88342137D01*
X186908600Y-88356751D01*
X186926779Y-88373227D01*
X186943255Y-88391406D01*
X186957869Y-88411111D01*
X186970482Y-88432155D01*
X186980972Y-88454333D01*
X186989237Y-88477433D01*
X186995198Y-88501231D01*
X186998798Y-88525500D01*
X187000002Y-88550004D01*
X187000002Y-90050004D01*
X186998798Y-90074508D01*
X186995198Y-90098777D01*
X186989237Y-90122575D01*
X186980972Y-90145675D01*
X186970482Y-90167853D01*
X186957869Y-90188897D01*
X186943255Y-90208602D01*
X186926779Y-90226781D01*
X186908600Y-90243257D01*
X186888895Y-90257871D01*
X186867851Y-90270484D01*
X186845673Y-90280974D01*
X186822573Y-90289239D01*
X186798775Y-90295200D01*
X186774506Y-90298800D01*
X186750002Y-90300004D01*
X185550002Y-90300004D01*
X185525498Y-90298800D01*
X185501229Y-90295200D01*
X185477431Y-90289239D01*
X185454331Y-90280974D01*
X185432153Y-90270484D01*
X185411109Y-90257871D01*
X185391404Y-90243257D01*
X185373225Y-90226781D01*
X185356749Y-90208602D01*
X185342135Y-90188897D01*
X185329522Y-90167853D01*
X185319032Y-90145675D01*
X185310767Y-90122575D01*
X185304806Y-90098777D01*
X185301206Y-90074508D01*
X185300002Y-90050004D01*
X185300002Y-88550004D01*
X185301206Y-88525500D01*
X185304806Y-88501231D01*
X185310767Y-88477433D01*
X185319032Y-88454333D01*
X185329522Y-88432155D01*
X185342135Y-88411111D01*
X185356749Y-88391406D01*
X185373225Y-88373227D01*
X185391404Y-88356751D01*
X185411109Y-88342137D01*
X185432153Y-88329524D01*
X185454331Y-88319034D01*
X185477431Y-88310769D01*
X185501229Y-88304808D01*
X185525498Y-88301208D01*
X185550002Y-88300004D01*
X186750002Y-88300004D01*
X186774506Y-88301208D01*
X186774506Y-88301208D01*
G37*
D14*
X186150002Y-89300004D03*
D12*
X183650002Y-76650002D03*
D13*
G36*
X186774506Y-75651206D02*
X186798775Y-75654806D01*
X186822573Y-75660767D01*
X186845673Y-75669032D01*
X186867851Y-75679522D01*
X186888895Y-75692135D01*
X186908600Y-75706749D01*
X186926779Y-75723225D01*
X186943255Y-75741404D01*
X186957869Y-75761109D01*
X186970482Y-75782153D01*
X186980972Y-75804331D01*
X186989237Y-75827431D01*
X186995198Y-75851229D01*
X186998798Y-75875498D01*
X187000002Y-75900002D01*
X187000002Y-77400002D01*
X186998798Y-77424506D01*
X186995198Y-77448775D01*
X186989237Y-77472573D01*
X186980972Y-77495673D01*
X186970482Y-77517851D01*
X186957869Y-77538895D01*
X186943255Y-77558600D01*
X186926779Y-77576779D01*
X186908600Y-77593255D01*
X186888895Y-77607869D01*
X186867851Y-77620482D01*
X186845673Y-77630972D01*
X186822573Y-77639237D01*
X186798775Y-77645198D01*
X186774506Y-77648798D01*
X186750002Y-77650002D01*
X185550002Y-77650002D01*
X185525498Y-77648798D01*
X185501229Y-77645198D01*
X185477431Y-77639237D01*
X185454331Y-77630972D01*
X185432153Y-77620482D01*
X185411109Y-77607869D01*
X185391404Y-77593255D01*
X185373225Y-77576779D01*
X185356749Y-77558600D01*
X185342135Y-77538895D01*
X185329522Y-77517851D01*
X185319032Y-77495673D01*
X185310767Y-77472573D01*
X185304806Y-77448775D01*
X185301206Y-77424506D01*
X185300002Y-77400002D01*
X185300002Y-75900002D01*
X185301206Y-75875498D01*
X185304806Y-75851229D01*
X185310767Y-75827431D01*
X185319032Y-75804331D01*
X185329522Y-75782153D01*
X185342135Y-75761109D01*
X185356749Y-75741404D01*
X185373225Y-75723225D01*
X185391404Y-75706749D01*
X185411109Y-75692135D01*
X185432153Y-75679522D01*
X185454331Y-75669032D01*
X185477431Y-75660767D01*
X185501229Y-75654806D01*
X185525498Y-75651206D01*
X185550002Y-75650002D01*
X186750002Y-75650002D01*
X186774506Y-75651206D01*
X186774506Y-75651206D01*
G37*
D14*
X186150002Y-76650002D03*
D12*
X183650002Y-64000000D03*
D13*
G36*
X186774506Y-63001204D02*
X186798775Y-63004804D01*
X186822573Y-63010765D01*
X186845673Y-63019030D01*
X186867851Y-63029520D01*
X186888895Y-63042133D01*
X186908600Y-63056747D01*
X186926779Y-63073223D01*
X186943255Y-63091402D01*
X186957869Y-63111107D01*
X186970482Y-63132151D01*
X186980972Y-63154329D01*
X186989237Y-63177429D01*
X186995198Y-63201227D01*
X186998798Y-63225496D01*
X187000002Y-63250000D01*
X187000002Y-64750000D01*
X186998798Y-64774504D01*
X186995198Y-64798773D01*
X186989237Y-64822571D01*
X186980972Y-64845671D01*
X186970482Y-64867849D01*
X186957869Y-64888893D01*
X186943255Y-64908598D01*
X186926779Y-64926777D01*
X186908600Y-64943253D01*
X186888895Y-64957867D01*
X186867851Y-64970480D01*
X186845673Y-64980970D01*
X186822573Y-64989235D01*
X186798775Y-64995196D01*
X186774506Y-64998796D01*
X186750002Y-65000000D01*
X185550002Y-65000000D01*
X185525498Y-64998796D01*
X185501229Y-64995196D01*
X185477431Y-64989235D01*
X185454331Y-64980970D01*
X185432153Y-64970480D01*
X185411109Y-64957867D01*
X185391404Y-64943253D01*
X185373225Y-64926777D01*
X185356749Y-64908598D01*
X185342135Y-64888893D01*
X185329522Y-64867849D01*
X185319032Y-64845671D01*
X185310767Y-64822571D01*
X185304806Y-64798773D01*
X185301206Y-64774504D01*
X185300002Y-64750000D01*
X185300002Y-63250000D01*
X185301206Y-63225496D01*
X185304806Y-63201227D01*
X185310767Y-63177429D01*
X185319032Y-63154329D01*
X185329522Y-63132151D01*
X185342135Y-63111107D01*
X185356749Y-63091402D01*
X185373225Y-63073223D01*
X185391404Y-63056747D01*
X185411109Y-63042133D01*
X185432153Y-63029520D01*
X185454331Y-63019030D01*
X185477431Y-63010765D01*
X185501229Y-63004804D01*
X185525498Y-63001204D01*
X185550002Y-63000000D01*
X186750002Y-63000000D01*
X186774506Y-63001204D01*
X186774506Y-63001204D01*
G37*
D14*
X186150002Y-64000000D03*
D12*
X156000000Y-127250010D03*
D13*
G36*
X159124504Y-126251214D02*
X159148773Y-126254814D01*
X159172571Y-126260775D01*
X159195671Y-126269040D01*
X159217849Y-126279530D01*
X159238893Y-126292143D01*
X159258598Y-126306757D01*
X159276777Y-126323233D01*
X159293253Y-126341412D01*
X159307867Y-126361117D01*
X159320480Y-126382161D01*
X159330970Y-126404339D01*
X159339235Y-126427439D01*
X159345196Y-126451237D01*
X159348796Y-126475506D01*
X159350000Y-126500010D01*
X159350000Y-128000010D01*
X159348796Y-128024514D01*
X159345196Y-128048783D01*
X159339235Y-128072581D01*
X159330970Y-128095681D01*
X159320480Y-128117859D01*
X159307867Y-128138903D01*
X159293253Y-128158608D01*
X159276777Y-128176787D01*
X159258598Y-128193263D01*
X159238893Y-128207877D01*
X159217849Y-128220490D01*
X159195671Y-128230980D01*
X159172571Y-128239245D01*
X159148773Y-128245206D01*
X159124504Y-128248806D01*
X159100000Y-128250010D01*
X157900000Y-128250010D01*
X157875496Y-128248806D01*
X157851227Y-128245206D01*
X157827429Y-128239245D01*
X157804329Y-128230980D01*
X157782151Y-128220490D01*
X157761107Y-128207877D01*
X157741402Y-128193263D01*
X157723223Y-128176787D01*
X157706747Y-128158608D01*
X157692133Y-128138903D01*
X157679520Y-128117859D01*
X157669030Y-128095681D01*
X157660765Y-128072581D01*
X157654804Y-128048783D01*
X157651204Y-128024514D01*
X157650000Y-128000010D01*
X157650000Y-126500010D01*
X157651204Y-126475506D01*
X157654804Y-126451237D01*
X157660765Y-126427439D01*
X157669030Y-126404339D01*
X157679520Y-126382161D01*
X157692133Y-126361117D01*
X157706747Y-126341412D01*
X157723223Y-126323233D01*
X157741402Y-126306757D01*
X157761107Y-126292143D01*
X157782151Y-126279530D01*
X157804329Y-126269040D01*
X157827429Y-126260775D01*
X157851227Y-126254814D01*
X157875496Y-126251214D01*
X157900000Y-126250010D01*
X159100000Y-126250010D01*
X159124504Y-126251214D01*
X159124504Y-126251214D01*
G37*
D14*
X158500000Y-127250010D03*
D12*
X156000000Y-114600008D03*
D13*
G36*
X159124504Y-113601212D02*
X159148773Y-113604812D01*
X159172571Y-113610773D01*
X159195671Y-113619038D01*
X159217849Y-113629528D01*
X159238893Y-113642141D01*
X159258598Y-113656755D01*
X159276777Y-113673231D01*
X159293253Y-113691410D01*
X159307867Y-113711115D01*
X159320480Y-113732159D01*
X159330970Y-113754337D01*
X159339235Y-113777437D01*
X159345196Y-113801235D01*
X159348796Y-113825504D01*
X159350000Y-113850008D01*
X159350000Y-115350008D01*
X159348796Y-115374512D01*
X159345196Y-115398781D01*
X159339235Y-115422579D01*
X159330970Y-115445679D01*
X159320480Y-115467857D01*
X159307867Y-115488901D01*
X159293253Y-115508606D01*
X159276777Y-115526785D01*
X159258598Y-115543261D01*
X159238893Y-115557875D01*
X159217849Y-115570488D01*
X159195671Y-115580978D01*
X159172571Y-115589243D01*
X159148773Y-115595204D01*
X159124504Y-115598804D01*
X159100000Y-115600008D01*
X157900000Y-115600008D01*
X157875496Y-115598804D01*
X157851227Y-115595204D01*
X157827429Y-115589243D01*
X157804329Y-115580978D01*
X157782151Y-115570488D01*
X157761107Y-115557875D01*
X157741402Y-115543261D01*
X157723223Y-115526785D01*
X157706747Y-115508606D01*
X157692133Y-115488901D01*
X157679520Y-115467857D01*
X157669030Y-115445679D01*
X157660765Y-115422579D01*
X157654804Y-115398781D01*
X157651204Y-115374512D01*
X157650000Y-115350008D01*
X157650000Y-113850008D01*
X157651204Y-113825504D01*
X157654804Y-113801235D01*
X157660765Y-113777437D01*
X157669030Y-113754337D01*
X157679520Y-113732159D01*
X157692133Y-113711115D01*
X157706747Y-113691410D01*
X157723223Y-113673231D01*
X157741402Y-113656755D01*
X157761107Y-113642141D01*
X157782151Y-113629528D01*
X157804329Y-113619038D01*
X157827429Y-113610773D01*
X157851227Y-113604812D01*
X157875496Y-113601212D01*
X157900000Y-113600008D01*
X159100000Y-113600008D01*
X159124504Y-113601212D01*
X159124504Y-113601212D01*
G37*
D14*
X158500000Y-114600008D03*
D12*
X156000000Y-101950006D03*
D13*
G36*
X159124504Y-100951210D02*
X159148773Y-100954810D01*
X159172571Y-100960771D01*
X159195671Y-100969036D01*
X159217849Y-100979526D01*
X159238893Y-100992139D01*
X159258598Y-101006753D01*
X159276777Y-101023229D01*
X159293253Y-101041408D01*
X159307867Y-101061113D01*
X159320480Y-101082157D01*
X159330970Y-101104335D01*
X159339235Y-101127435D01*
X159345196Y-101151233D01*
X159348796Y-101175502D01*
X159350000Y-101200006D01*
X159350000Y-102700006D01*
X159348796Y-102724510D01*
X159345196Y-102748779D01*
X159339235Y-102772577D01*
X159330970Y-102795677D01*
X159320480Y-102817855D01*
X159307867Y-102838899D01*
X159293253Y-102858604D01*
X159276777Y-102876783D01*
X159258598Y-102893259D01*
X159238893Y-102907873D01*
X159217849Y-102920486D01*
X159195671Y-102930976D01*
X159172571Y-102939241D01*
X159148773Y-102945202D01*
X159124504Y-102948802D01*
X159100000Y-102950006D01*
X157900000Y-102950006D01*
X157875496Y-102948802D01*
X157851227Y-102945202D01*
X157827429Y-102939241D01*
X157804329Y-102930976D01*
X157782151Y-102920486D01*
X157761107Y-102907873D01*
X157741402Y-102893259D01*
X157723223Y-102876783D01*
X157706747Y-102858604D01*
X157692133Y-102838899D01*
X157679520Y-102817855D01*
X157669030Y-102795677D01*
X157660765Y-102772577D01*
X157654804Y-102748779D01*
X157651204Y-102724510D01*
X157650000Y-102700006D01*
X157650000Y-101200006D01*
X157651204Y-101175502D01*
X157654804Y-101151233D01*
X157660765Y-101127435D01*
X157669030Y-101104335D01*
X157679520Y-101082157D01*
X157692133Y-101061113D01*
X157706747Y-101041408D01*
X157723223Y-101023229D01*
X157741402Y-101006753D01*
X157761107Y-100992139D01*
X157782151Y-100979526D01*
X157804329Y-100969036D01*
X157827429Y-100960771D01*
X157851227Y-100954810D01*
X157875496Y-100951210D01*
X157900000Y-100950006D01*
X159100000Y-100950006D01*
X159124504Y-100951210D01*
X159124504Y-100951210D01*
G37*
D14*
X158500000Y-101950006D03*
D12*
X156000000Y-89300004D03*
D13*
G36*
X159124504Y-88301208D02*
X159148773Y-88304808D01*
X159172571Y-88310769D01*
X159195671Y-88319034D01*
X159217849Y-88329524D01*
X159238893Y-88342137D01*
X159258598Y-88356751D01*
X159276777Y-88373227D01*
X159293253Y-88391406D01*
X159307867Y-88411111D01*
X159320480Y-88432155D01*
X159330970Y-88454333D01*
X159339235Y-88477433D01*
X159345196Y-88501231D01*
X159348796Y-88525500D01*
X159350000Y-88550004D01*
X159350000Y-90050004D01*
X159348796Y-90074508D01*
X159345196Y-90098777D01*
X159339235Y-90122575D01*
X159330970Y-90145675D01*
X159320480Y-90167853D01*
X159307867Y-90188897D01*
X159293253Y-90208602D01*
X159276777Y-90226781D01*
X159258598Y-90243257D01*
X159238893Y-90257871D01*
X159217849Y-90270484D01*
X159195671Y-90280974D01*
X159172571Y-90289239D01*
X159148773Y-90295200D01*
X159124504Y-90298800D01*
X159100000Y-90300004D01*
X157900000Y-90300004D01*
X157875496Y-90298800D01*
X157851227Y-90295200D01*
X157827429Y-90289239D01*
X157804329Y-90280974D01*
X157782151Y-90270484D01*
X157761107Y-90257871D01*
X157741402Y-90243257D01*
X157723223Y-90226781D01*
X157706747Y-90208602D01*
X157692133Y-90188897D01*
X157679520Y-90167853D01*
X157669030Y-90145675D01*
X157660765Y-90122575D01*
X157654804Y-90098777D01*
X157651204Y-90074508D01*
X157650000Y-90050004D01*
X157650000Y-88550004D01*
X157651204Y-88525500D01*
X157654804Y-88501231D01*
X157660765Y-88477433D01*
X157669030Y-88454333D01*
X157679520Y-88432155D01*
X157692133Y-88411111D01*
X157706747Y-88391406D01*
X157723223Y-88373227D01*
X157741402Y-88356751D01*
X157761107Y-88342137D01*
X157782151Y-88329524D01*
X157804329Y-88319034D01*
X157827429Y-88310769D01*
X157851227Y-88304808D01*
X157875496Y-88301208D01*
X157900000Y-88300004D01*
X159100000Y-88300004D01*
X159124504Y-88301208D01*
X159124504Y-88301208D01*
G37*
D14*
X158500000Y-89300004D03*
D12*
X156000000Y-76650002D03*
D13*
G36*
X159124504Y-75651206D02*
X159148773Y-75654806D01*
X159172571Y-75660767D01*
X159195671Y-75669032D01*
X159217849Y-75679522D01*
X159238893Y-75692135D01*
X159258598Y-75706749D01*
X159276777Y-75723225D01*
X159293253Y-75741404D01*
X159307867Y-75761109D01*
X159320480Y-75782153D01*
X159330970Y-75804331D01*
X159339235Y-75827431D01*
X159345196Y-75851229D01*
X159348796Y-75875498D01*
X159350000Y-75900002D01*
X159350000Y-77400002D01*
X159348796Y-77424506D01*
X159345196Y-77448775D01*
X159339235Y-77472573D01*
X159330970Y-77495673D01*
X159320480Y-77517851D01*
X159307867Y-77538895D01*
X159293253Y-77558600D01*
X159276777Y-77576779D01*
X159258598Y-77593255D01*
X159238893Y-77607869D01*
X159217849Y-77620482D01*
X159195671Y-77630972D01*
X159172571Y-77639237D01*
X159148773Y-77645198D01*
X159124504Y-77648798D01*
X159100000Y-77650002D01*
X157900000Y-77650002D01*
X157875496Y-77648798D01*
X157851227Y-77645198D01*
X157827429Y-77639237D01*
X157804329Y-77630972D01*
X157782151Y-77620482D01*
X157761107Y-77607869D01*
X157741402Y-77593255D01*
X157723223Y-77576779D01*
X157706747Y-77558600D01*
X157692133Y-77538895D01*
X157679520Y-77517851D01*
X157669030Y-77495673D01*
X157660765Y-77472573D01*
X157654804Y-77448775D01*
X157651204Y-77424506D01*
X157650000Y-77400002D01*
X157650000Y-75900002D01*
X157651204Y-75875498D01*
X157654804Y-75851229D01*
X157660765Y-75827431D01*
X157669030Y-75804331D01*
X157679520Y-75782153D01*
X157692133Y-75761109D01*
X157706747Y-75741404D01*
X157723223Y-75723225D01*
X157741402Y-75706749D01*
X157761107Y-75692135D01*
X157782151Y-75679522D01*
X157804329Y-75669032D01*
X157827429Y-75660767D01*
X157851227Y-75654806D01*
X157875496Y-75651206D01*
X157900000Y-75650002D01*
X159100000Y-75650002D01*
X159124504Y-75651206D01*
X159124504Y-75651206D01*
G37*
D14*
X158500000Y-76650002D03*
D12*
X200800004Y-127250010D03*
D13*
G36*
X203924508Y-126251214D02*
X203948777Y-126254814D01*
X203972575Y-126260775D01*
X203995675Y-126269040D01*
X204017853Y-126279530D01*
X204038897Y-126292143D01*
X204058602Y-126306757D01*
X204076781Y-126323233D01*
X204093257Y-126341412D01*
X204107871Y-126361117D01*
X204120484Y-126382161D01*
X204130974Y-126404339D01*
X204139239Y-126427439D01*
X204145200Y-126451237D01*
X204148800Y-126475506D01*
X204150004Y-126500010D01*
X204150004Y-128000010D01*
X204148800Y-128024514D01*
X204145200Y-128048783D01*
X204139239Y-128072581D01*
X204130974Y-128095681D01*
X204120484Y-128117859D01*
X204107871Y-128138903D01*
X204093257Y-128158608D01*
X204076781Y-128176787D01*
X204058602Y-128193263D01*
X204038897Y-128207877D01*
X204017853Y-128220490D01*
X203995675Y-128230980D01*
X203972575Y-128239245D01*
X203948777Y-128245206D01*
X203924508Y-128248806D01*
X203900004Y-128250010D01*
X202700004Y-128250010D01*
X202675500Y-128248806D01*
X202651231Y-128245206D01*
X202627433Y-128239245D01*
X202604333Y-128230980D01*
X202582155Y-128220490D01*
X202561111Y-128207877D01*
X202541406Y-128193263D01*
X202523227Y-128176787D01*
X202506751Y-128158608D01*
X202492137Y-128138903D01*
X202479524Y-128117859D01*
X202469034Y-128095681D01*
X202460769Y-128072581D01*
X202454808Y-128048783D01*
X202451208Y-128024514D01*
X202450004Y-128000010D01*
X202450004Y-126500010D01*
X202451208Y-126475506D01*
X202454808Y-126451237D01*
X202460769Y-126427439D01*
X202469034Y-126404339D01*
X202479524Y-126382161D01*
X202492137Y-126361117D01*
X202506751Y-126341412D01*
X202523227Y-126323233D01*
X202541406Y-126306757D01*
X202561111Y-126292143D01*
X202582155Y-126279530D01*
X202604333Y-126269040D01*
X202627433Y-126260775D01*
X202651231Y-126254814D01*
X202675500Y-126251214D01*
X202700004Y-126250010D01*
X203900004Y-126250010D01*
X203924508Y-126251214D01*
X203924508Y-126251214D01*
G37*
D14*
X203300004Y-127250010D03*
D12*
X200800004Y-114600008D03*
D13*
G36*
X203924508Y-113601212D02*
X203948777Y-113604812D01*
X203972575Y-113610773D01*
X203995675Y-113619038D01*
X204017853Y-113629528D01*
X204038897Y-113642141D01*
X204058602Y-113656755D01*
X204076781Y-113673231D01*
X204093257Y-113691410D01*
X204107871Y-113711115D01*
X204120484Y-113732159D01*
X204130974Y-113754337D01*
X204139239Y-113777437D01*
X204145200Y-113801235D01*
X204148800Y-113825504D01*
X204150004Y-113850008D01*
X204150004Y-115350008D01*
X204148800Y-115374512D01*
X204145200Y-115398781D01*
X204139239Y-115422579D01*
X204130974Y-115445679D01*
X204120484Y-115467857D01*
X204107871Y-115488901D01*
X204093257Y-115508606D01*
X204076781Y-115526785D01*
X204058602Y-115543261D01*
X204038897Y-115557875D01*
X204017853Y-115570488D01*
X203995675Y-115580978D01*
X203972575Y-115589243D01*
X203948777Y-115595204D01*
X203924508Y-115598804D01*
X203900004Y-115600008D01*
X202700004Y-115600008D01*
X202675500Y-115598804D01*
X202651231Y-115595204D01*
X202627433Y-115589243D01*
X202604333Y-115580978D01*
X202582155Y-115570488D01*
X202561111Y-115557875D01*
X202541406Y-115543261D01*
X202523227Y-115526785D01*
X202506751Y-115508606D01*
X202492137Y-115488901D01*
X202479524Y-115467857D01*
X202469034Y-115445679D01*
X202460769Y-115422579D01*
X202454808Y-115398781D01*
X202451208Y-115374512D01*
X202450004Y-115350008D01*
X202450004Y-113850008D01*
X202451208Y-113825504D01*
X202454808Y-113801235D01*
X202460769Y-113777437D01*
X202469034Y-113754337D01*
X202479524Y-113732159D01*
X202492137Y-113711115D01*
X202506751Y-113691410D01*
X202523227Y-113673231D01*
X202541406Y-113656755D01*
X202561111Y-113642141D01*
X202582155Y-113629528D01*
X202604333Y-113619038D01*
X202627433Y-113610773D01*
X202651231Y-113604812D01*
X202675500Y-113601212D01*
X202700004Y-113600008D01*
X203900004Y-113600008D01*
X203924508Y-113601212D01*
X203924508Y-113601212D01*
G37*
D14*
X203300004Y-114600008D03*
D12*
X200800004Y-101950006D03*
D13*
G36*
X203924508Y-100951210D02*
X203948777Y-100954810D01*
X203972575Y-100960771D01*
X203995675Y-100969036D01*
X204017853Y-100979526D01*
X204038897Y-100992139D01*
X204058602Y-101006753D01*
X204076781Y-101023229D01*
X204093257Y-101041408D01*
X204107871Y-101061113D01*
X204120484Y-101082157D01*
X204130974Y-101104335D01*
X204139239Y-101127435D01*
X204145200Y-101151233D01*
X204148800Y-101175502D01*
X204150004Y-101200006D01*
X204150004Y-102700006D01*
X204148800Y-102724510D01*
X204145200Y-102748779D01*
X204139239Y-102772577D01*
X204130974Y-102795677D01*
X204120484Y-102817855D01*
X204107871Y-102838899D01*
X204093257Y-102858604D01*
X204076781Y-102876783D01*
X204058602Y-102893259D01*
X204038897Y-102907873D01*
X204017853Y-102920486D01*
X203995675Y-102930976D01*
X203972575Y-102939241D01*
X203948777Y-102945202D01*
X203924508Y-102948802D01*
X203900004Y-102950006D01*
X202700004Y-102950006D01*
X202675500Y-102948802D01*
X202651231Y-102945202D01*
X202627433Y-102939241D01*
X202604333Y-102930976D01*
X202582155Y-102920486D01*
X202561111Y-102907873D01*
X202541406Y-102893259D01*
X202523227Y-102876783D01*
X202506751Y-102858604D01*
X202492137Y-102838899D01*
X202479524Y-102817855D01*
X202469034Y-102795677D01*
X202460769Y-102772577D01*
X202454808Y-102748779D01*
X202451208Y-102724510D01*
X202450004Y-102700006D01*
X202450004Y-101200006D01*
X202451208Y-101175502D01*
X202454808Y-101151233D01*
X202460769Y-101127435D01*
X202469034Y-101104335D01*
X202479524Y-101082157D01*
X202492137Y-101061113D01*
X202506751Y-101041408D01*
X202523227Y-101023229D01*
X202541406Y-101006753D01*
X202561111Y-100992139D01*
X202582155Y-100979526D01*
X202604333Y-100969036D01*
X202627433Y-100960771D01*
X202651231Y-100954810D01*
X202675500Y-100951210D01*
X202700004Y-100950006D01*
X203900004Y-100950006D01*
X203924508Y-100951210D01*
X203924508Y-100951210D01*
G37*
D14*
X203300004Y-101950006D03*
D12*
X200800004Y-89300004D03*
D13*
G36*
X203924508Y-88301208D02*
X203948777Y-88304808D01*
X203972575Y-88310769D01*
X203995675Y-88319034D01*
X204017853Y-88329524D01*
X204038897Y-88342137D01*
X204058602Y-88356751D01*
X204076781Y-88373227D01*
X204093257Y-88391406D01*
X204107871Y-88411111D01*
X204120484Y-88432155D01*
X204130974Y-88454333D01*
X204139239Y-88477433D01*
X204145200Y-88501231D01*
X204148800Y-88525500D01*
X204150004Y-88550004D01*
X204150004Y-90050004D01*
X204148800Y-90074508D01*
X204145200Y-90098777D01*
X204139239Y-90122575D01*
X204130974Y-90145675D01*
X204120484Y-90167853D01*
X204107871Y-90188897D01*
X204093257Y-90208602D01*
X204076781Y-90226781D01*
X204058602Y-90243257D01*
X204038897Y-90257871D01*
X204017853Y-90270484D01*
X203995675Y-90280974D01*
X203972575Y-90289239D01*
X203948777Y-90295200D01*
X203924508Y-90298800D01*
X203900004Y-90300004D01*
X202700004Y-90300004D01*
X202675500Y-90298800D01*
X202651231Y-90295200D01*
X202627433Y-90289239D01*
X202604333Y-90280974D01*
X202582155Y-90270484D01*
X202561111Y-90257871D01*
X202541406Y-90243257D01*
X202523227Y-90226781D01*
X202506751Y-90208602D01*
X202492137Y-90188897D01*
X202479524Y-90167853D01*
X202469034Y-90145675D01*
X202460769Y-90122575D01*
X202454808Y-90098777D01*
X202451208Y-90074508D01*
X202450004Y-90050004D01*
X202450004Y-88550004D01*
X202451208Y-88525500D01*
X202454808Y-88501231D01*
X202460769Y-88477433D01*
X202469034Y-88454333D01*
X202479524Y-88432155D01*
X202492137Y-88411111D01*
X202506751Y-88391406D01*
X202523227Y-88373227D01*
X202541406Y-88356751D01*
X202561111Y-88342137D01*
X202582155Y-88329524D01*
X202604333Y-88319034D01*
X202627433Y-88310769D01*
X202651231Y-88304808D01*
X202675500Y-88301208D01*
X202700004Y-88300004D01*
X203900004Y-88300004D01*
X203924508Y-88301208D01*
X203924508Y-88301208D01*
G37*
D14*
X203300004Y-89300004D03*
D12*
X200800004Y-76650002D03*
D13*
G36*
X203924508Y-75651206D02*
X203948777Y-75654806D01*
X203972575Y-75660767D01*
X203995675Y-75669032D01*
X204017853Y-75679522D01*
X204038897Y-75692135D01*
X204058602Y-75706749D01*
X204076781Y-75723225D01*
X204093257Y-75741404D01*
X204107871Y-75761109D01*
X204120484Y-75782153D01*
X204130974Y-75804331D01*
X204139239Y-75827431D01*
X204145200Y-75851229D01*
X204148800Y-75875498D01*
X204150004Y-75900002D01*
X204150004Y-77400002D01*
X204148800Y-77424506D01*
X204145200Y-77448775D01*
X204139239Y-77472573D01*
X204130974Y-77495673D01*
X204120484Y-77517851D01*
X204107871Y-77538895D01*
X204093257Y-77558600D01*
X204076781Y-77576779D01*
X204058602Y-77593255D01*
X204038897Y-77607869D01*
X204017853Y-77620482D01*
X203995675Y-77630972D01*
X203972575Y-77639237D01*
X203948777Y-77645198D01*
X203924508Y-77648798D01*
X203900004Y-77650002D01*
X202700004Y-77650002D01*
X202675500Y-77648798D01*
X202651231Y-77645198D01*
X202627433Y-77639237D01*
X202604333Y-77630972D01*
X202582155Y-77620482D01*
X202561111Y-77607869D01*
X202541406Y-77593255D01*
X202523227Y-77576779D01*
X202506751Y-77558600D01*
X202492137Y-77538895D01*
X202479524Y-77517851D01*
X202469034Y-77495673D01*
X202460769Y-77472573D01*
X202454808Y-77448775D01*
X202451208Y-77424506D01*
X202450004Y-77400002D01*
X202450004Y-75900002D01*
X202451208Y-75875498D01*
X202454808Y-75851229D01*
X202460769Y-75827431D01*
X202469034Y-75804331D01*
X202479524Y-75782153D01*
X202492137Y-75761109D01*
X202506751Y-75741404D01*
X202523227Y-75723225D01*
X202541406Y-75706749D01*
X202561111Y-75692135D01*
X202582155Y-75679522D01*
X202604333Y-75669032D01*
X202627433Y-75660767D01*
X202651231Y-75654806D01*
X202675500Y-75651206D01*
X202700004Y-75650002D01*
X203900004Y-75650002D01*
X203924508Y-75651206D01*
X203924508Y-75651206D01*
G37*
D14*
X203300004Y-76650002D03*
D12*
X200800004Y-64000000D03*
D13*
G36*
X203924508Y-63001204D02*
X203948777Y-63004804D01*
X203972575Y-63010765D01*
X203995675Y-63019030D01*
X204017853Y-63029520D01*
X204038897Y-63042133D01*
X204058602Y-63056747D01*
X204076781Y-63073223D01*
X204093257Y-63091402D01*
X204107871Y-63111107D01*
X204120484Y-63132151D01*
X204130974Y-63154329D01*
X204139239Y-63177429D01*
X204145200Y-63201227D01*
X204148800Y-63225496D01*
X204150004Y-63250000D01*
X204150004Y-64750000D01*
X204148800Y-64774504D01*
X204145200Y-64798773D01*
X204139239Y-64822571D01*
X204130974Y-64845671D01*
X204120484Y-64867849D01*
X204107871Y-64888893D01*
X204093257Y-64908598D01*
X204076781Y-64926777D01*
X204058602Y-64943253D01*
X204038897Y-64957867D01*
X204017853Y-64970480D01*
X203995675Y-64980970D01*
X203972575Y-64989235D01*
X203948777Y-64995196D01*
X203924508Y-64998796D01*
X203900004Y-65000000D01*
X202700004Y-65000000D01*
X202675500Y-64998796D01*
X202651231Y-64995196D01*
X202627433Y-64989235D01*
X202604333Y-64980970D01*
X202582155Y-64970480D01*
X202561111Y-64957867D01*
X202541406Y-64943253D01*
X202523227Y-64926777D01*
X202506751Y-64908598D01*
X202492137Y-64888893D01*
X202479524Y-64867849D01*
X202469034Y-64845671D01*
X202460769Y-64822571D01*
X202454808Y-64798773D01*
X202451208Y-64774504D01*
X202450004Y-64750000D01*
X202450004Y-63250000D01*
X202451208Y-63225496D01*
X202454808Y-63201227D01*
X202460769Y-63177429D01*
X202469034Y-63154329D01*
X202479524Y-63132151D01*
X202492137Y-63111107D01*
X202506751Y-63091402D01*
X202523227Y-63073223D01*
X202541406Y-63056747D01*
X202561111Y-63042133D01*
X202582155Y-63029520D01*
X202604333Y-63019030D01*
X202627433Y-63010765D01*
X202651231Y-63004804D01*
X202675500Y-63001204D01*
X202700004Y-63000000D01*
X203900004Y-63000000D01*
X203924508Y-63001204D01*
X203924508Y-63001204D01*
G37*
D14*
X203300004Y-64000000D03*
D12*
X173150002Y-127250010D03*
D13*
G36*
X176274506Y-126251214D02*
X176298775Y-126254814D01*
X176322573Y-126260775D01*
X176345673Y-126269040D01*
X176367851Y-126279530D01*
X176388895Y-126292143D01*
X176408600Y-126306757D01*
X176426779Y-126323233D01*
X176443255Y-126341412D01*
X176457869Y-126361117D01*
X176470482Y-126382161D01*
X176480972Y-126404339D01*
X176489237Y-126427439D01*
X176495198Y-126451237D01*
X176498798Y-126475506D01*
X176500002Y-126500010D01*
X176500002Y-128000010D01*
X176498798Y-128024514D01*
X176495198Y-128048783D01*
X176489237Y-128072581D01*
X176480972Y-128095681D01*
X176470482Y-128117859D01*
X176457869Y-128138903D01*
X176443255Y-128158608D01*
X176426779Y-128176787D01*
X176408600Y-128193263D01*
X176388895Y-128207877D01*
X176367851Y-128220490D01*
X176345673Y-128230980D01*
X176322573Y-128239245D01*
X176298775Y-128245206D01*
X176274506Y-128248806D01*
X176250002Y-128250010D01*
X175050002Y-128250010D01*
X175025498Y-128248806D01*
X175001229Y-128245206D01*
X174977431Y-128239245D01*
X174954331Y-128230980D01*
X174932153Y-128220490D01*
X174911109Y-128207877D01*
X174891404Y-128193263D01*
X174873225Y-128176787D01*
X174856749Y-128158608D01*
X174842135Y-128138903D01*
X174829522Y-128117859D01*
X174819032Y-128095681D01*
X174810767Y-128072581D01*
X174804806Y-128048783D01*
X174801206Y-128024514D01*
X174800002Y-128000010D01*
X174800002Y-126500010D01*
X174801206Y-126475506D01*
X174804806Y-126451237D01*
X174810767Y-126427439D01*
X174819032Y-126404339D01*
X174829522Y-126382161D01*
X174842135Y-126361117D01*
X174856749Y-126341412D01*
X174873225Y-126323233D01*
X174891404Y-126306757D01*
X174911109Y-126292143D01*
X174932153Y-126279530D01*
X174954331Y-126269040D01*
X174977431Y-126260775D01*
X175001229Y-126254814D01*
X175025498Y-126251214D01*
X175050002Y-126250010D01*
X176250002Y-126250010D01*
X176274506Y-126251214D01*
X176274506Y-126251214D01*
G37*
D14*
X175650002Y-127250010D03*
D12*
X173150002Y-114600008D03*
D13*
G36*
X176274506Y-113601212D02*
X176298775Y-113604812D01*
X176322573Y-113610773D01*
X176345673Y-113619038D01*
X176367851Y-113629528D01*
X176388895Y-113642141D01*
X176408600Y-113656755D01*
X176426779Y-113673231D01*
X176443255Y-113691410D01*
X176457869Y-113711115D01*
X176470482Y-113732159D01*
X176480972Y-113754337D01*
X176489237Y-113777437D01*
X176495198Y-113801235D01*
X176498798Y-113825504D01*
X176500002Y-113850008D01*
X176500002Y-115350008D01*
X176498798Y-115374512D01*
X176495198Y-115398781D01*
X176489237Y-115422579D01*
X176480972Y-115445679D01*
X176470482Y-115467857D01*
X176457869Y-115488901D01*
X176443255Y-115508606D01*
X176426779Y-115526785D01*
X176408600Y-115543261D01*
X176388895Y-115557875D01*
X176367851Y-115570488D01*
X176345673Y-115580978D01*
X176322573Y-115589243D01*
X176298775Y-115595204D01*
X176274506Y-115598804D01*
X176250002Y-115600008D01*
X175050002Y-115600008D01*
X175025498Y-115598804D01*
X175001229Y-115595204D01*
X174977431Y-115589243D01*
X174954331Y-115580978D01*
X174932153Y-115570488D01*
X174911109Y-115557875D01*
X174891404Y-115543261D01*
X174873225Y-115526785D01*
X174856749Y-115508606D01*
X174842135Y-115488901D01*
X174829522Y-115467857D01*
X174819032Y-115445679D01*
X174810767Y-115422579D01*
X174804806Y-115398781D01*
X174801206Y-115374512D01*
X174800002Y-115350008D01*
X174800002Y-113850008D01*
X174801206Y-113825504D01*
X174804806Y-113801235D01*
X174810767Y-113777437D01*
X174819032Y-113754337D01*
X174829522Y-113732159D01*
X174842135Y-113711115D01*
X174856749Y-113691410D01*
X174873225Y-113673231D01*
X174891404Y-113656755D01*
X174911109Y-113642141D01*
X174932153Y-113629528D01*
X174954331Y-113619038D01*
X174977431Y-113610773D01*
X175001229Y-113604812D01*
X175025498Y-113601212D01*
X175050002Y-113600008D01*
X176250002Y-113600008D01*
X176274506Y-113601212D01*
X176274506Y-113601212D01*
G37*
D14*
X175650002Y-114600008D03*
D12*
X173150002Y-101950006D03*
D13*
G36*
X176274506Y-100951210D02*
X176298775Y-100954810D01*
X176322573Y-100960771D01*
X176345673Y-100969036D01*
X176367851Y-100979526D01*
X176388895Y-100992139D01*
X176408600Y-101006753D01*
X176426779Y-101023229D01*
X176443255Y-101041408D01*
X176457869Y-101061113D01*
X176470482Y-101082157D01*
X176480972Y-101104335D01*
X176489237Y-101127435D01*
X176495198Y-101151233D01*
X176498798Y-101175502D01*
X176500002Y-101200006D01*
X176500002Y-102700006D01*
X176498798Y-102724510D01*
X176495198Y-102748779D01*
X176489237Y-102772577D01*
X176480972Y-102795677D01*
X176470482Y-102817855D01*
X176457869Y-102838899D01*
X176443255Y-102858604D01*
X176426779Y-102876783D01*
X176408600Y-102893259D01*
X176388895Y-102907873D01*
X176367851Y-102920486D01*
X176345673Y-102930976D01*
X176322573Y-102939241D01*
X176298775Y-102945202D01*
X176274506Y-102948802D01*
X176250002Y-102950006D01*
X175050002Y-102950006D01*
X175025498Y-102948802D01*
X175001229Y-102945202D01*
X174977431Y-102939241D01*
X174954331Y-102930976D01*
X174932153Y-102920486D01*
X174911109Y-102907873D01*
X174891404Y-102893259D01*
X174873225Y-102876783D01*
X174856749Y-102858604D01*
X174842135Y-102838899D01*
X174829522Y-102817855D01*
X174819032Y-102795677D01*
X174810767Y-102772577D01*
X174804806Y-102748779D01*
X174801206Y-102724510D01*
X174800002Y-102700006D01*
X174800002Y-101200006D01*
X174801206Y-101175502D01*
X174804806Y-101151233D01*
X174810767Y-101127435D01*
X174819032Y-101104335D01*
X174829522Y-101082157D01*
X174842135Y-101061113D01*
X174856749Y-101041408D01*
X174873225Y-101023229D01*
X174891404Y-101006753D01*
X174911109Y-100992139D01*
X174932153Y-100979526D01*
X174954331Y-100969036D01*
X174977431Y-100960771D01*
X175001229Y-100954810D01*
X175025498Y-100951210D01*
X175050002Y-100950006D01*
X176250002Y-100950006D01*
X176274506Y-100951210D01*
X176274506Y-100951210D01*
G37*
D14*
X175650002Y-101950006D03*
D12*
X173150002Y-89300004D03*
D13*
G36*
X176274506Y-88301208D02*
X176298775Y-88304808D01*
X176322573Y-88310769D01*
X176345673Y-88319034D01*
X176367851Y-88329524D01*
X176388895Y-88342137D01*
X176408600Y-88356751D01*
X176426779Y-88373227D01*
X176443255Y-88391406D01*
X176457869Y-88411111D01*
X176470482Y-88432155D01*
X176480972Y-88454333D01*
X176489237Y-88477433D01*
X176495198Y-88501231D01*
X176498798Y-88525500D01*
X176500002Y-88550004D01*
X176500002Y-90050004D01*
X176498798Y-90074508D01*
X176495198Y-90098777D01*
X176489237Y-90122575D01*
X176480972Y-90145675D01*
X176470482Y-90167853D01*
X176457869Y-90188897D01*
X176443255Y-90208602D01*
X176426779Y-90226781D01*
X176408600Y-90243257D01*
X176388895Y-90257871D01*
X176367851Y-90270484D01*
X176345673Y-90280974D01*
X176322573Y-90289239D01*
X176298775Y-90295200D01*
X176274506Y-90298800D01*
X176250002Y-90300004D01*
X175050002Y-90300004D01*
X175025498Y-90298800D01*
X175001229Y-90295200D01*
X174977431Y-90289239D01*
X174954331Y-90280974D01*
X174932153Y-90270484D01*
X174911109Y-90257871D01*
X174891404Y-90243257D01*
X174873225Y-90226781D01*
X174856749Y-90208602D01*
X174842135Y-90188897D01*
X174829522Y-90167853D01*
X174819032Y-90145675D01*
X174810767Y-90122575D01*
X174804806Y-90098777D01*
X174801206Y-90074508D01*
X174800002Y-90050004D01*
X174800002Y-88550004D01*
X174801206Y-88525500D01*
X174804806Y-88501231D01*
X174810767Y-88477433D01*
X174819032Y-88454333D01*
X174829522Y-88432155D01*
X174842135Y-88411111D01*
X174856749Y-88391406D01*
X174873225Y-88373227D01*
X174891404Y-88356751D01*
X174911109Y-88342137D01*
X174932153Y-88329524D01*
X174954331Y-88319034D01*
X174977431Y-88310769D01*
X175001229Y-88304808D01*
X175025498Y-88301208D01*
X175050002Y-88300004D01*
X176250002Y-88300004D01*
X176274506Y-88301208D01*
X176274506Y-88301208D01*
G37*
D14*
X175650002Y-89300004D03*
D12*
X173150002Y-76650002D03*
D13*
G36*
X176274506Y-75651206D02*
X176298775Y-75654806D01*
X176322573Y-75660767D01*
X176345673Y-75669032D01*
X176367851Y-75679522D01*
X176388895Y-75692135D01*
X176408600Y-75706749D01*
X176426779Y-75723225D01*
X176443255Y-75741404D01*
X176457869Y-75761109D01*
X176470482Y-75782153D01*
X176480972Y-75804331D01*
X176489237Y-75827431D01*
X176495198Y-75851229D01*
X176498798Y-75875498D01*
X176500002Y-75900002D01*
X176500002Y-77400002D01*
X176498798Y-77424506D01*
X176495198Y-77448775D01*
X176489237Y-77472573D01*
X176480972Y-77495673D01*
X176470482Y-77517851D01*
X176457869Y-77538895D01*
X176443255Y-77558600D01*
X176426779Y-77576779D01*
X176408600Y-77593255D01*
X176388895Y-77607869D01*
X176367851Y-77620482D01*
X176345673Y-77630972D01*
X176322573Y-77639237D01*
X176298775Y-77645198D01*
X176274506Y-77648798D01*
X176250002Y-77650002D01*
X175050002Y-77650002D01*
X175025498Y-77648798D01*
X175001229Y-77645198D01*
X174977431Y-77639237D01*
X174954331Y-77630972D01*
X174932153Y-77620482D01*
X174911109Y-77607869D01*
X174891404Y-77593255D01*
X174873225Y-77576779D01*
X174856749Y-77558600D01*
X174842135Y-77538895D01*
X174829522Y-77517851D01*
X174819032Y-77495673D01*
X174810767Y-77472573D01*
X174804806Y-77448775D01*
X174801206Y-77424506D01*
X174800002Y-77400002D01*
X174800002Y-75900002D01*
X174801206Y-75875498D01*
X174804806Y-75851229D01*
X174810767Y-75827431D01*
X174819032Y-75804331D01*
X174829522Y-75782153D01*
X174842135Y-75761109D01*
X174856749Y-75741404D01*
X174873225Y-75723225D01*
X174891404Y-75706749D01*
X174911109Y-75692135D01*
X174932153Y-75679522D01*
X174954331Y-75669032D01*
X174977431Y-75660767D01*
X175001229Y-75654806D01*
X175025498Y-75651206D01*
X175050002Y-75650002D01*
X176250002Y-75650002D01*
X176274506Y-75651206D01*
X176274506Y-75651206D01*
G37*
D14*
X175650002Y-76650002D03*
D12*
X173150002Y-64000000D03*
D13*
G36*
X176274506Y-63001204D02*
X176298775Y-63004804D01*
X176322573Y-63010765D01*
X176345673Y-63019030D01*
X176367851Y-63029520D01*
X176388895Y-63042133D01*
X176408600Y-63056747D01*
X176426779Y-63073223D01*
X176443255Y-63091402D01*
X176457869Y-63111107D01*
X176470482Y-63132151D01*
X176480972Y-63154329D01*
X176489237Y-63177429D01*
X176495198Y-63201227D01*
X176498798Y-63225496D01*
X176500002Y-63250000D01*
X176500002Y-64750000D01*
X176498798Y-64774504D01*
X176495198Y-64798773D01*
X176489237Y-64822571D01*
X176480972Y-64845671D01*
X176470482Y-64867849D01*
X176457869Y-64888893D01*
X176443255Y-64908598D01*
X176426779Y-64926777D01*
X176408600Y-64943253D01*
X176388895Y-64957867D01*
X176367851Y-64970480D01*
X176345673Y-64980970D01*
X176322573Y-64989235D01*
X176298775Y-64995196D01*
X176274506Y-64998796D01*
X176250002Y-65000000D01*
X175050002Y-65000000D01*
X175025498Y-64998796D01*
X175001229Y-64995196D01*
X174977431Y-64989235D01*
X174954331Y-64980970D01*
X174932153Y-64970480D01*
X174911109Y-64957867D01*
X174891404Y-64943253D01*
X174873225Y-64926777D01*
X174856749Y-64908598D01*
X174842135Y-64888893D01*
X174829522Y-64867849D01*
X174819032Y-64845671D01*
X174810767Y-64822571D01*
X174804806Y-64798773D01*
X174801206Y-64774504D01*
X174800002Y-64750000D01*
X174800002Y-63250000D01*
X174801206Y-63225496D01*
X174804806Y-63201227D01*
X174810767Y-63177429D01*
X174819032Y-63154329D01*
X174829522Y-63132151D01*
X174842135Y-63111107D01*
X174856749Y-63091402D01*
X174873225Y-63073223D01*
X174891404Y-63056747D01*
X174911109Y-63042133D01*
X174932153Y-63029520D01*
X174954331Y-63019030D01*
X174977431Y-63010765D01*
X175001229Y-63004804D01*
X175025498Y-63001204D01*
X175050002Y-63000000D01*
X176250002Y-63000000D01*
X176274506Y-63001204D01*
X176274506Y-63001204D01*
G37*
D14*
X175650002Y-64000000D03*
D12*
X145500000Y-127250010D03*
D13*
G36*
X148624504Y-126251214D02*
X148648773Y-126254814D01*
X148672571Y-126260775D01*
X148695671Y-126269040D01*
X148717849Y-126279530D01*
X148738893Y-126292143D01*
X148758598Y-126306757D01*
X148776777Y-126323233D01*
X148793253Y-126341412D01*
X148807867Y-126361117D01*
X148820480Y-126382161D01*
X148830970Y-126404339D01*
X148839235Y-126427439D01*
X148845196Y-126451237D01*
X148848796Y-126475506D01*
X148850000Y-126500010D01*
X148850000Y-128000010D01*
X148848796Y-128024514D01*
X148845196Y-128048783D01*
X148839235Y-128072581D01*
X148830970Y-128095681D01*
X148820480Y-128117859D01*
X148807867Y-128138903D01*
X148793253Y-128158608D01*
X148776777Y-128176787D01*
X148758598Y-128193263D01*
X148738893Y-128207877D01*
X148717849Y-128220490D01*
X148695671Y-128230980D01*
X148672571Y-128239245D01*
X148648773Y-128245206D01*
X148624504Y-128248806D01*
X148600000Y-128250010D01*
X147400000Y-128250010D01*
X147375496Y-128248806D01*
X147351227Y-128245206D01*
X147327429Y-128239245D01*
X147304329Y-128230980D01*
X147282151Y-128220490D01*
X147261107Y-128207877D01*
X147241402Y-128193263D01*
X147223223Y-128176787D01*
X147206747Y-128158608D01*
X147192133Y-128138903D01*
X147179520Y-128117859D01*
X147169030Y-128095681D01*
X147160765Y-128072581D01*
X147154804Y-128048783D01*
X147151204Y-128024514D01*
X147150000Y-128000010D01*
X147150000Y-126500010D01*
X147151204Y-126475506D01*
X147154804Y-126451237D01*
X147160765Y-126427439D01*
X147169030Y-126404339D01*
X147179520Y-126382161D01*
X147192133Y-126361117D01*
X147206747Y-126341412D01*
X147223223Y-126323233D01*
X147241402Y-126306757D01*
X147261107Y-126292143D01*
X147282151Y-126279530D01*
X147304329Y-126269040D01*
X147327429Y-126260775D01*
X147351227Y-126254814D01*
X147375496Y-126251214D01*
X147400000Y-126250010D01*
X148600000Y-126250010D01*
X148624504Y-126251214D01*
X148624504Y-126251214D01*
G37*
D14*
X148000000Y-127250010D03*
D12*
X145500000Y-114600008D03*
D13*
G36*
X148624504Y-113601212D02*
X148648773Y-113604812D01*
X148672571Y-113610773D01*
X148695671Y-113619038D01*
X148717849Y-113629528D01*
X148738893Y-113642141D01*
X148758598Y-113656755D01*
X148776777Y-113673231D01*
X148793253Y-113691410D01*
X148807867Y-113711115D01*
X148820480Y-113732159D01*
X148830970Y-113754337D01*
X148839235Y-113777437D01*
X148845196Y-113801235D01*
X148848796Y-113825504D01*
X148850000Y-113850008D01*
X148850000Y-115350008D01*
X148848796Y-115374512D01*
X148845196Y-115398781D01*
X148839235Y-115422579D01*
X148830970Y-115445679D01*
X148820480Y-115467857D01*
X148807867Y-115488901D01*
X148793253Y-115508606D01*
X148776777Y-115526785D01*
X148758598Y-115543261D01*
X148738893Y-115557875D01*
X148717849Y-115570488D01*
X148695671Y-115580978D01*
X148672571Y-115589243D01*
X148648773Y-115595204D01*
X148624504Y-115598804D01*
X148600000Y-115600008D01*
X147400000Y-115600008D01*
X147375496Y-115598804D01*
X147351227Y-115595204D01*
X147327429Y-115589243D01*
X147304329Y-115580978D01*
X147282151Y-115570488D01*
X147261107Y-115557875D01*
X147241402Y-115543261D01*
X147223223Y-115526785D01*
X147206747Y-115508606D01*
X147192133Y-115488901D01*
X147179520Y-115467857D01*
X147169030Y-115445679D01*
X147160765Y-115422579D01*
X147154804Y-115398781D01*
X147151204Y-115374512D01*
X147150000Y-115350008D01*
X147150000Y-113850008D01*
X147151204Y-113825504D01*
X147154804Y-113801235D01*
X147160765Y-113777437D01*
X147169030Y-113754337D01*
X147179520Y-113732159D01*
X147192133Y-113711115D01*
X147206747Y-113691410D01*
X147223223Y-113673231D01*
X147241402Y-113656755D01*
X147261107Y-113642141D01*
X147282151Y-113629528D01*
X147304329Y-113619038D01*
X147327429Y-113610773D01*
X147351227Y-113604812D01*
X147375496Y-113601212D01*
X147400000Y-113600008D01*
X148600000Y-113600008D01*
X148624504Y-113601212D01*
X148624504Y-113601212D01*
G37*
D14*
X148000000Y-114600008D03*
D12*
X145500000Y-101950006D03*
D13*
G36*
X148624504Y-100951210D02*
X148648773Y-100954810D01*
X148672571Y-100960771D01*
X148695671Y-100969036D01*
X148717849Y-100979526D01*
X148738893Y-100992139D01*
X148758598Y-101006753D01*
X148776777Y-101023229D01*
X148793253Y-101041408D01*
X148807867Y-101061113D01*
X148820480Y-101082157D01*
X148830970Y-101104335D01*
X148839235Y-101127435D01*
X148845196Y-101151233D01*
X148848796Y-101175502D01*
X148850000Y-101200006D01*
X148850000Y-102700006D01*
X148848796Y-102724510D01*
X148845196Y-102748779D01*
X148839235Y-102772577D01*
X148830970Y-102795677D01*
X148820480Y-102817855D01*
X148807867Y-102838899D01*
X148793253Y-102858604D01*
X148776777Y-102876783D01*
X148758598Y-102893259D01*
X148738893Y-102907873D01*
X148717849Y-102920486D01*
X148695671Y-102930976D01*
X148672571Y-102939241D01*
X148648773Y-102945202D01*
X148624504Y-102948802D01*
X148600000Y-102950006D01*
X147400000Y-102950006D01*
X147375496Y-102948802D01*
X147351227Y-102945202D01*
X147327429Y-102939241D01*
X147304329Y-102930976D01*
X147282151Y-102920486D01*
X147261107Y-102907873D01*
X147241402Y-102893259D01*
X147223223Y-102876783D01*
X147206747Y-102858604D01*
X147192133Y-102838899D01*
X147179520Y-102817855D01*
X147169030Y-102795677D01*
X147160765Y-102772577D01*
X147154804Y-102748779D01*
X147151204Y-102724510D01*
X147150000Y-102700006D01*
X147150000Y-101200006D01*
X147151204Y-101175502D01*
X147154804Y-101151233D01*
X147160765Y-101127435D01*
X147169030Y-101104335D01*
X147179520Y-101082157D01*
X147192133Y-101061113D01*
X147206747Y-101041408D01*
X147223223Y-101023229D01*
X147241402Y-101006753D01*
X147261107Y-100992139D01*
X147282151Y-100979526D01*
X147304329Y-100969036D01*
X147327429Y-100960771D01*
X147351227Y-100954810D01*
X147375496Y-100951210D01*
X147400000Y-100950006D01*
X148600000Y-100950006D01*
X148624504Y-100951210D01*
X148624504Y-100951210D01*
G37*
D14*
X148000000Y-101950006D03*
D12*
X145500000Y-89300004D03*
D13*
G36*
X148624504Y-88301208D02*
X148648773Y-88304808D01*
X148672571Y-88310769D01*
X148695671Y-88319034D01*
X148717849Y-88329524D01*
X148738893Y-88342137D01*
X148758598Y-88356751D01*
X148776777Y-88373227D01*
X148793253Y-88391406D01*
X148807867Y-88411111D01*
X148820480Y-88432155D01*
X148830970Y-88454333D01*
X148839235Y-88477433D01*
X148845196Y-88501231D01*
X148848796Y-88525500D01*
X148850000Y-88550004D01*
X148850000Y-90050004D01*
X148848796Y-90074508D01*
X148845196Y-90098777D01*
X148839235Y-90122575D01*
X148830970Y-90145675D01*
X148820480Y-90167853D01*
X148807867Y-90188897D01*
X148793253Y-90208602D01*
X148776777Y-90226781D01*
X148758598Y-90243257D01*
X148738893Y-90257871D01*
X148717849Y-90270484D01*
X148695671Y-90280974D01*
X148672571Y-90289239D01*
X148648773Y-90295200D01*
X148624504Y-90298800D01*
X148600000Y-90300004D01*
X147400000Y-90300004D01*
X147375496Y-90298800D01*
X147351227Y-90295200D01*
X147327429Y-90289239D01*
X147304329Y-90280974D01*
X147282151Y-90270484D01*
X147261107Y-90257871D01*
X147241402Y-90243257D01*
X147223223Y-90226781D01*
X147206747Y-90208602D01*
X147192133Y-90188897D01*
X147179520Y-90167853D01*
X147169030Y-90145675D01*
X147160765Y-90122575D01*
X147154804Y-90098777D01*
X147151204Y-90074508D01*
X147150000Y-90050004D01*
X147150000Y-88550004D01*
X147151204Y-88525500D01*
X147154804Y-88501231D01*
X147160765Y-88477433D01*
X147169030Y-88454333D01*
X147179520Y-88432155D01*
X147192133Y-88411111D01*
X147206747Y-88391406D01*
X147223223Y-88373227D01*
X147241402Y-88356751D01*
X147261107Y-88342137D01*
X147282151Y-88329524D01*
X147304329Y-88319034D01*
X147327429Y-88310769D01*
X147351227Y-88304808D01*
X147375496Y-88301208D01*
X147400000Y-88300004D01*
X148600000Y-88300004D01*
X148624504Y-88301208D01*
X148624504Y-88301208D01*
G37*
D14*
X148000000Y-89300004D03*
D12*
X145500000Y-76650002D03*
D13*
G36*
X148624504Y-75651206D02*
X148648773Y-75654806D01*
X148672571Y-75660767D01*
X148695671Y-75669032D01*
X148717849Y-75679522D01*
X148738893Y-75692135D01*
X148758598Y-75706749D01*
X148776777Y-75723225D01*
X148793253Y-75741404D01*
X148807867Y-75761109D01*
X148820480Y-75782153D01*
X148830970Y-75804331D01*
X148839235Y-75827431D01*
X148845196Y-75851229D01*
X148848796Y-75875498D01*
X148850000Y-75900002D01*
X148850000Y-77400002D01*
X148848796Y-77424506D01*
X148845196Y-77448775D01*
X148839235Y-77472573D01*
X148830970Y-77495673D01*
X148820480Y-77517851D01*
X148807867Y-77538895D01*
X148793253Y-77558600D01*
X148776777Y-77576779D01*
X148758598Y-77593255D01*
X148738893Y-77607869D01*
X148717849Y-77620482D01*
X148695671Y-77630972D01*
X148672571Y-77639237D01*
X148648773Y-77645198D01*
X148624504Y-77648798D01*
X148600000Y-77650002D01*
X147400000Y-77650002D01*
X147375496Y-77648798D01*
X147351227Y-77645198D01*
X147327429Y-77639237D01*
X147304329Y-77630972D01*
X147282151Y-77620482D01*
X147261107Y-77607869D01*
X147241402Y-77593255D01*
X147223223Y-77576779D01*
X147206747Y-77558600D01*
X147192133Y-77538895D01*
X147179520Y-77517851D01*
X147169030Y-77495673D01*
X147160765Y-77472573D01*
X147154804Y-77448775D01*
X147151204Y-77424506D01*
X147150000Y-77400002D01*
X147150000Y-75900002D01*
X147151204Y-75875498D01*
X147154804Y-75851229D01*
X147160765Y-75827431D01*
X147169030Y-75804331D01*
X147179520Y-75782153D01*
X147192133Y-75761109D01*
X147206747Y-75741404D01*
X147223223Y-75723225D01*
X147241402Y-75706749D01*
X147261107Y-75692135D01*
X147282151Y-75679522D01*
X147304329Y-75669032D01*
X147327429Y-75660767D01*
X147351227Y-75654806D01*
X147375496Y-75651206D01*
X147400000Y-75650002D01*
X148600000Y-75650002D01*
X148624504Y-75651206D01*
X148624504Y-75651206D01*
G37*
D14*
X148000000Y-76650002D03*
D11*
X218800004Y-128250010D03*
X218800004Y-115600008D03*
X218800004Y-102950006D03*
X218800004Y-90300004D03*
X218800004Y-77650002D03*
X218800004Y-65000000D03*
X191150002Y-128250010D03*
X191150002Y-115600008D03*
X191150002Y-102950006D03*
X191150002Y-90300004D03*
X191150002Y-77650002D03*
X191150002Y-65000000D03*
X163500000Y-128250010D03*
X163500000Y-115600008D03*
X163500000Y-102950006D03*
X163500000Y-90300004D03*
X163500000Y-77650002D03*
X195300004Y-128250010D03*
X195300004Y-115600008D03*
X195300004Y-102950006D03*
X195300004Y-90300004D03*
X195300004Y-77650002D03*
X195300004Y-65000000D03*
X167650002Y-128250010D03*
X167650002Y-115600008D03*
X167650002Y-102950006D03*
X167650002Y-90300004D03*
X167650002Y-77650002D03*
X167650002Y-65000000D03*
X140000000Y-128250010D03*
X140000000Y-115600008D03*
X140000000Y-102950006D03*
X140000000Y-90300004D03*
X140000000Y-77650002D03*
D15*
X213800004Y-120290010D03*
X213800004Y-107640008D03*
X213800004Y-94990006D03*
X213800004Y-82340004D03*
X213800004Y-69690002D03*
X213800004Y-57040000D03*
X186150002Y-120290010D03*
X186150002Y-107640008D03*
X186150002Y-94990006D03*
X186150002Y-82340004D03*
X186150002Y-69690002D03*
X186150002Y-57040000D03*
X158500000Y-120290010D03*
X158500000Y-107640008D03*
X158500000Y-94990006D03*
X158500000Y-82340004D03*
X158500000Y-69690002D03*
X211300004Y-120290010D03*
X211300004Y-107640008D03*
X211300004Y-94990006D03*
X211300004Y-82340004D03*
X211300004Y-69690002D03*
X211300004Y-57040000D03*
X183650002Y-120290010D03*
X183650002Y-107640008D03*
X183650002Y-94990006D03*
X183650002Y-82340004D03*
X183650002Y-69690002D03*
X183650002Y-57040000D03*
X156000000Y-120290010D03*
X156000000Y-107640008D03*
X156000000Y-94990006D03*
X156000000Y-82340004D03*
X156000000Y-69690002D03*
X203300004Y-120290010D03*
X203300004Y-107640008D03*
X203300004Y-94990006D03*
X203300004Y-82340004D03*
X203300004Y-69690002D03*
X203300004Y-57040000D03*
X175650002Y-120290010D03*
X175650002Y-107640008D03*
X175650002Y-94990006D03*
X175650002Y-82340004D03*
X175650002Y-69690002D03*
X175650002Y-57040000D03*
X148000000Y-120290010D03*
X148000000Y-107640008D03*
X148000000Y-94990006D03*
X148000000Y-82340004D03*
X148000000Y-69690002D03*
X200800004Y-120290010D03*
X200800004Y-107640008D03*
X200800004Y-94990006D03*
X200800004Y-82340004D03*
X200800004Y-69690002D03*
X200800004Y-57040000D03*
X173150002Y-120290010D03*
X173150002Y-107640008D03*
X173150002Y-94990006D03*
X173150002Y-82340004D03*
X173150002Y-69690002D03*
X173150002Y-57040000D03*
X145500000Y-120290010D03*
X145500000Y-107640008D03*
X145500000Y-94990006D03*
X145500000Y-82340004D03*
X145500000Y-69690002D03*
X145500000Y-57040000D03*
X148000000Y-57040000D03*
X156000000Y-57040000D03*
X158500000Y-57040000D03*
D11*
X140000000Y-65000000D03*
X163500000Y-65000000D03*
D13*
G36*
X148624504Y-63001204D02*
X148648773Y-63004804D01*
X148672571Y-63010765D01*
X148695671Y-63019030D01*
X148717849Y-63029520D01*
X148738893Y-63042133D01*
X148758598Y-63056747D01*
X148776777Y-63073223D01*
X148793253Y-63091402D01*
X148807867Y-63111107D01*
X148820480Y-63132151D01*
X148830970Y-63154329D01*
X148839235Y-63177429D01*
X148845196Y-63201227D01*
X148848796Y-63225496D01*
X148850000Y-63250000D01*
X148850000Y-64750000D01*
X148848796Y-64774504D01*
X148845196Y-64798773D01*
X148839235Y-64822571D01*
X148830970Y-64845671D01*
X148820480Y-64867849D01*
X148807867Y-64888893D01*
X148793253Y-64908598D01*
X148776777Y-64926777D01*
X148758598Y-64943253D01*
X148738893Y-64957867D01*
X148717849Y-64970480D01*
X148695671Y-64980970D01*
X148672571Y-64989235D01*
X148648773Y-64995196D01*
X148624504Y-64998796D01*
X148600000Y-65000000D01*
X147400000Y-65000000D01*
X147375496Y-64998796D01*
X147351227Y-64995196D01*
X147327429Y-64989235D01*
X147304329Y-64980970D01*
X147282151Y-64970480D01*
X147261107Y-64957867D01*
X147241402Y-64943253D01*
X147223223Y-64926777D01*
X147206747Y-64908598D01*
X147192133Y-64888893D01*
X147179520Y-64867849D01*
X147169030Y-64845671D01*
X147160765Y-64822571D01*
X147154804Y-64798773D01*
X147151204Y-64774504D01*
X147150000Y-64750000D01*
X147150000Y-63250000D01*
X147151204Y-63225496D01*
X147154804Y-63201227D01*
X147160765Y-63177429D01*
X147169030Y-63154329D01*
X147179520Y-63132151D01*
X147192133Y-63111107D01*
X147206747Y-63091402D01*
X147223223Y-63073223D01*
X147241402Y-63056747D01*
X147261107Y-63042133D01*
X147282151Y-63029520D01*
X147304329Y-63019030D01*
X147327429Y-63010765D01*
X147351227Y-63004804D01*
X147375496Y-63001204D01*
X147400000Y-63000000D01*
X148600000Y-63000000D01*
X148624504Y-63001204D01*
X148624504Y-63001204D01*
G37*
D14*
X148000000Y-64000000D03*
D12*
X145500000Y-64000000D03*
D13*
G36*
X159124504Y-63001204D02*
X159148773Y-63004804D01*
X159172571Y-63010765D01*
X159195671Y-63019030D01*
X159217849Y-63029520D01*
X159238893Y-63042133D01*
X159258598Y-63056747D01*
X159276777Y-63073223D01*
X159293253Y-63091402D01*
X159307867Y-63111107D01*
X159320480Y-63132151D01*
X159330970Y-63154329D01*
X159339235Y-63177429D01*
X159345196Y-63201227D01*
X159348796Y-63225496D01*
X159350000Y-63250000D01*
X159350000Y-64750000D01*
X159348796Y-64774504D01*
X159345196Y-64798773D01*
X159339235Y-64822571D01*
X159330970Y-64845671D01*
X159320480Y-64867849D01*
X159307867Y-64888893D01*
X159293253Y-64908598D01*
X159276777Y-64926777D01*
X159258598Y-64943253D01*
X159238893Y-64957867D01*
X159217849Y-64970480D01*
X159195671Y-64980970D01*
X159172571Y-64989235D01*
X159148773Y-64995196D01*
X159124504Y-64998796D01*
X159100000Y-65000000D01*
X157900000Y-65000000D01*
X157875496Y-64998796D01*
X157851227Y-64995196D01*
X157827429Y-64989235D01*
X157804329Y-64980970D01*
X157782151Y-64970480D01*
X157761107Y-64957867D01*
X157741402Y-64943253D01*
X157723223Y-64926777D01*
X157706747Y-64908598D01*
X157692133Y-64888893D01*
X157679520Y-64867849D01*
X157669030Y-64845671D01*
X157660765Y-64822571D01*
X157654804Y-64798773D01*
X157651204Y-64774504D01*
X157650000Y-64750000D01*
X157650000Y-63250000D01*
X157651204Y-63225496D01*
X157654804Y-63201227D01*
X157660765Y-63177429D01*
X157669030Y-63154329D01*
X157679520Y-63132151D01*
X157692133Y-63111107D01*
X157706747Y-63091402D01*
X157723223Y-63073223D01*
X157741402Y-63056747D01*
X157761107Y-63042133D01*
X157782151Y-63029520D01*
X157804329Y-63019030D01*
X157827429Y-63010765D01*
X157851227Y-63004804D01*
X157875496Y-63001204D01*
X157900000Y-63000000D01*
X159100000Y-63000000D01*
X159124504Y-63001204D01*
X159124504Y-63001204D01*
G37*
D14*
X158500000Y-64000000D03*
D12*
X156000000Y-64000000D03*
D11*
X140000000Y-56500000D03*
X163500000Y-56500000D03*
D16*
X148000000Y-55500000D03*
X148000000Y-57040000D03*
X148000000Y-58500000D03*
X148000000Y-68150002D03*
X148000000Y-80800004D03*
X148000000Y-93450006D03*
X148000000Y-106100008D03*
X148000000Y-118750010D03*
X175650002Y-55500000D03*
X175650002Y-68150002D03*
X175650002Y-80800004D03*
X175650002Y-93450006D03*
X175650002Y-106100008D03*
X175650002Y-118750010D03*
X203300004Y-55500000D03*
X203300004Y-68150002D03*
X203300004Y-80800004D03*
X203300004Y-93450006D03*
X203300004Y-106100008D03*
X203300004Y-118750010D03*
X148000000Y-69690002D03*
X148000000Y-82340004D03*
X148000000Y-94990006D03*
X148000000Y-107640008D03*
X148000000Y-120290010D03*
X175650002Y-57040000D03*
X175650002Y-69690002D03*
X175650002Y-82340004D03*
X175650002Y-94990006D03*
X175650002Y-107640008D03*
X175650002Y-120290010D03*
X203300004Y-57040000D03*
X203300004Y-69690002D03*
X203300004Y-82340004D03*
X203300004Y-94990006D03*
X203300004Y-107640008D03*
X203300004Y-120290010D03*
X148000000Y-71150002D03*
X148000000Y-83800004D03*
X148000000Y-96450006D03*
X148000000Y-109100008D03*
X148000000Y-121750010D03*
X175650002Y-58500000D03*
X175650002Y-71150002D03*
X175650002Y-83800004D03*
X175650002Y-96450006D03*
X175650002Y-109100008D03*
X175650002Y-121750010D03*
X203300004Y-58500000D03*
X203300004Y-71150002D03*
X203300004Y-83800004D03*
X203300004Y-96450006D03*
X203300004Y-109100008D03*
X203300004Y-121750010D03*
X145500000Y-55500000D03*
X145500000Y-57040000D03*
X145500000Y-58500000D03*
X145500000Y-68150002D03*
X145500000Y-80800004D03*
X145500000Y-93450006D03*
X145500000Y-106100008D03*
X145500000Y-118750010D03*
X173150002Y-55500000D03*
X173150002Y-68150002D03*
X173150002Y-80800004D03*
X173150002Y-93450006D03*
X173150002Y-106100008D03*
X173150002Y-118750010D03*
X200800004Y-55500000D03*
X200800004Y-68150002D03*
X200800004Y-80800004D03*
X200800004Y-93450006D03*
X200800004Y-106100008D03*
X200800004Y-118750010D03*
X145500000Y-69690002D03*
X145500000Y-82340004D03*
X145500000Y-94990006D03*
X145500000Y-107640008D03*
X145500000Y-120290010D03*
X173150002Y-57040000D03*
X173150002Y-69690002D03*
X173150002Y-82340004D03*
X173150002Y-94990006D03*
X173150002Y-107640008D03*
X173150002Y-120290010D03*
X200800004Y-57040000D03*
X200800004Y-69690002D03*
X200800004Y-82340004D03*
X200800004Y-94990006D03*
X200800004Y-107640008D03*
X200800004Y-120290010D03*
X145500000Y-71150002D03*
X145500000Y-83800004D03*
X145500000Y-96450006D03*
X145500000Y-109100008D03*
X145500000Y-121750010D03*
X173150002Y-58500000D03*
X173150002Y-71150002D03*
X173150002Y-83800004D03*
X173150002Y-96450006D03*
X173150002Y-109100008D03*
X173150002Y-121750010D03*
X200800004Y-58500000D03*
X200800004Y-71150002D03*
X200800004Y-83800004D03*
X200800004Y-96450006D03*
X200800004Y-109100008D03*
X200800004Y-121750010D03*
X156000000Y-55500000D03*
X156000000Y-57040000D03*
X156000000Y-58500000D03*
X156000000Y-68150002D03*
X156000000Y-80800004D03*
X156000000Y-93450006D03*
X156000000Y-106100008D03*
X156000000Y-118750010D03*
X183650002Y-55500000D03*
X183650002Y-68150002D03*
X183650002Y-80800004D03*
X183650002Y-93450006D03*
X183650002Y-106100008D03*
X183650002Y-118750010D03*
X211300004Y-55500000D03*
X211300004Y-68150002D03*
X211300004Y-80800004D03*
X211300004Y-93450006D03*
X211300004Y-106100008D03*
X211300004Y-118750010D03*
X156000000Y-69690002D03*
X156000000Y-82340004D03*
X156000000Y-94990006D03*
X156000000Y-107640008D03*
X156000000Y-120290010D03*
X183650002Y-57040000D03*
X183650002Y-69690002D03*
X183650002Y-82340004D03*
X183650002Y-94990006D03*
X183650002Y-107640008D03*
X183650002Y-120290010D03*
X211300004Y-57040000D03*
X211300004Y-69690002D03*
X211300004Y-82340004D03*
X211300004Y-94990006D03*
X211300004Y-107640008D03*
X211300004Y-120290010D03*
X156000000Y-71150002D03*
X156000000Y-83800004D03*
X156000000Y-96450006D03*
X156000000Y-109100008D03*
X156000000Y-121750010D03*
X183650002Y-58500000D03*
X183650002Y-71150002D03*
X183650002Y-83800004D03*
X183650002Y-96450006D03*
X183650002Y-109100008D03*
X183650002Y-121750010D03*
X211300004Y-58500000D03*
X211300004Y-71150002D03*
X211300004Y-83800004D03*
X211300004Y-96450006D03*
X211300004Y-109100008D03*
X211300004Y-121750010D03*
X158500000Y-55500000D03*
X158500000Y-57040000D03*
X158500000Y-58500000D03*
X158500000Y-68150002D03*
X158500000Y-80800004D03*
X158500000Y-93450006D03*
X158500000Y-106100008D03*
X158500000Y-118750010D03*
X186150002Y-55500000D03*
X186150002Y-68150002D03*
X186150002Y-80800004D03*
X186150002Y-93450006D03*
X186150002Y-106100008D03*
X186150002Y-118750010D03*
X213800004Y-55500000D03*
X213800004Y-68150002D03*
X213800004Y-80800004D03*
X213800004Y-93450006D03*
X213800004Y-106100008D03*
X213800004Y-118750010D03*
X158500000Y-69690002D03*
X158500000Y-82340004D03*
X158500000Y-94990006D03*
X158500000Y-107640008D03*
X158500000Y-120290010D03*
X186150002Y-57040000D03*
X186150002Y-69690002D03*
X186150002Y-82340004D03*
X186150002Y-94990006D03*
X186150002Y-107640008D03*
X186150002Y-120290010D03*
X213800004Y-57040000D03*
X213800004Y-69690002D03*
X213800004Y-82340004D03*
X213800004Y-94990006D03*
X213800004Y-107640008D03*
X213800004Y-120290010D03*
X158500000Y-71150002D03*
X158500000Y-83800004D03*
X158500000Y-96450006D03*
X158500000Y-109100008D03*
X158500000Y-121750010D03*
X186150002Y-58500000D03*
X186150002Y-71150002D03*
X186150002Y-83800004D03*
X186150002Y-96450006D03*
X186150002Y-109100008D03*
X186150002Y-121750010D03*
X213800004Y-58500000D03*
X213800004Y-71150002D03*
X213800004Y-83800004D03*
X213800004Y-96450006D03*
X213800004Y-109100008D03*
X213800004Y-121750010D03*
D17*
X148000000Y-57040000D02*
X148000000Y-57040000D01*
D18*
X148000000Y-57040000D02*
X148000000Y-64000000D01*
D17*
X148000000Y-69690002D02*
X148000000Y-69690002D01*
X148000000Y-82340004D02*
X148000000Y-82340004D01*
X148000000Y-94990006D02*
X148000000Y-94990006D01*
X148000000Y-107640008D02*
X148000000Y-107640008D01*
X148000000Y-120290010D02*
X148000000Y-120290010D01*
X175650002Y-57040000D02*
X175650002Y-57040000D01*
X175650002Y-69690002D02*
X175650002Y-69690002D01*
X175650002Y-82340004D02*
X175650002Y-82340004D01*
X175650002Y-94990006D02*
X175650002Y-94990006D01*
X175650002Y-107640008D02*
X175650002Y-107640008D01*
X175650002Y-120290010D02*
X175650002Y-120290010D01*
X203300004Y-57040000D02*
X203300004Y-57040000D01*
X203300004Y-69690002D02*
X203300004Y-69690002D01*
X203300004Y-82340004D02*
X203300004Y-82340004D01*
X203300004Y-94990006D02*
X203300004Y-94990006D01*
X203300004Y-107640008D02*
X203300004Y-107640008D01*
X203300004Y-120290010D02*
X203300004Y-120290010D01*
D18*
X148000000Y-69690002D02*
X148000000Y-76650002D01*
X148000000Y-82340004D02*
X148000000Y-89300004D01*
X148000000Y-94990006D02*
X148000000Y-101950006D01*
X148000000Y-107640008D02*
X148000000Y-114600008D01*
X148000000Y-120290010D02*
X148000000Y-127250010D01*
X175650002Y-57040000D02*
X175650002Y-64000000D01*
X175650002Y-69690002D02*
X175650002Y-76650002D01*
X175650002Y-82340004D02*
X175650002Y-89300004D01*
X175650002Y-94990006D02*
X175650002Y-101950006D01*
X175650002Y-107640008D02*
X175650002Y-114600008D01*
X175650002Y-120290010D02*
X175650002Y-127250010D01*
X203300004Y-57040000D02*
X203300004Y-64000000D01*
X203300004Y-69690002D02*
X203300004Y-76650002D01*
X203300004Y-82340004D02*
X203300004Y-89300004D01*
X203300004Y-94990006D02*
X203300004Y-101950006D01*
X203300004Y-107640008D02*
X203300004Y-114600008D01*
X203300004Y-120290010D02*
X203300004Y-127250010D01*
D17*
X145500000Y-57040000D02*
X145500000Y-57040000D01*
D18*
X145500000Y-57040000D02*
X145500000Y-64000000D01*
D17*
X145500000Y-69690002D02*
X145500000Y-69690002D01*
X145500000Y-82340004D02*
X145500000Y-82340004D01*
X145500000Y-94990006D02*
X145500000Y-94990006D01*
X145500000Y-107640008D02*
X145500000Y-107640008D01*
X145500000Y-120290010D02*
X145500000Y-120290010D01*
X173150002Y-57040000D02*
X173150002Y-57040000D01*
X173150002Y-69690002D02*
X173150002Y-69690002D01*
X173150002Y-82340004D02*
X173150002Y-82340004D01*
X173150002Y-94990006D02*
X173150002Y-94990006D01*
X173150002Y-107640008D02*
X173150002Y-107640008D01*
X173150002Y-120290010D02*
X173150002Y-120290010D01*
X200800004Y-57040000D02*
X200800004Y-57040000D01*
X200800004Y-69690002D02*
X200800004Y-69690002D01*
X200800004Y-82340004D02*
X200800004Y-82340004D01*
X200800004Y-94990006D02*
X200800004Y-94990006D01*
X200800004Y-107640008D02*
X200800004Y-107640008D01*
X200800004Y-120290010D02*
X200800004Y-120290010D01*
D18*
X145500000Y-69690002D02*
X145500000Y-76650002D01*
X145500000Y-82340004D02*
X145500000Y-89300004D01*
X145500000Y-94990006D02*
X145500000Y-101950006D01*
X145500000Y-107640008D02*
X145500000Y-114600008D01*
X145500000Y-120290010D02*
X145500000Y-127250010D01*
X173150002Y-57040000D02*
X173150002Y-64000000D01*
X173150002Y-69690002D02*
X173150002Y-76650002D01*
X173150002Y-82340004D02*
X173150002Y-89300004D01*
X173150002Y-94990006D02*
X173150002Y-101950006D01*
X173150002Y-107640008D02*
X173150002Y-114600008D01*
X173150002Y-120290010D02*
X173150002Y-127250010D01*
X200800004Y-57040000D02*
X200800004Y-64000000D01*
X200800004Y-69690002D02*
X200800004Y-76650002D01*
X200800004Y-82340004D02*
X200800004Y-89300004D01*
X200800004Y-94990006D02*
X200800004Y-101950006D01*
X200800004Y-107640008D02*
X200800004Y-114600008D01*
X200800004Y-120290010D02*
X200800004Y-127250010D01*
D17*
X156000000Y-57040000D02*
X156000000Y-57040000D01*
D18*
X156000000Y-57040000D02*
X156000000Y-64000000D01*
D17*
X156000000Y-69690002D02*
X156000000Y-69690002D01*
X156000000Y-82340004D02*
X156000000Y-82340004D01*
X156000000Y-94990006D02*
X156000000Y-94990006D01*
X156000000Y-107640008D02*
X156000000Y-107640008D01*
X156000000Y-120290010D02*
X156000000Y-120290010D01*
X183650002Y-57040000D02*
X183650002Y-57040000D01*
X183650002Y-69690002D02*
X183650002Y-69690002D01*
X183650002Y-82340004D02*
X183650002Y-82340004D01*
X183650002Y-94990006D02*
X183650002Y-94990006D01*
X183650002Y-107640008D02*
X183650002Y-107640008D01*
X183650002Y-120290010D02*
X183650002Y-120290010D01*
X211300004Y-57040000D02*
X211300004Y-57040000D01*
X211300004Y-69690002D02*
X211300004Y-69690002D01*
X211300004Y-82340004D02*
X211300004Y-82340004D01*
X211300004Y-94990006D02*
X211300004Y-94990006D01*
X211300004Y-107640008D02*
X211300004Y-107640008D01*
X211300004Y-120290010D02*
X211300004Y-120290010D01*
D18*
X156000000Y-69690002D02*
X156000000Y-76650002D01*
X156000000Y-82340004D02*
X156000000Y-89300004D01*
X156000000Y-94990006D02*
X156000000Y-101950006D01*
X156000000Y-107640008D02*
X156000000Y-114600008D01*
X156000000Y-120290010D02*
X156000000Y-127250010D01*
X183650002Y-57040000D02*
X183650002Y-64000000D01*
X183650002Y-69690002D02*
X183650002Y-76650002D01*
X183650002Y-82340004D02*
X183650002Y-89300004D01*
X183650002Y-94990006D02*
X183650002Y-101950006D01*
X183650002Y-107640008D02*
X183650002Y-114600008D01*
X183650002Y-120290010D02*
X183650002Y-127250010D01*
X211300004Y-57040000D02*
X211300004Y-64000000D01*
X211300004Y-69690002D02*
X211300004Y-76650002D01*
X211300004Y-82340004D02*
X211300004Y-89300004D01*
X211300004Y-94990006D02*
X211300004Y-101950006D01*
X211300004Y-107640008D02*
X211300004Y-114600008D01*
X211300004Y-120290010D02*
X211300004Y-127250010D01*
D17*
X158500000Y-57040000D02*
X158500000Y-57040000D01*
D18*
X158500000Y-57040000D02*
X158500000Y-64000000D01*
D17*
X158500000Y-69690002D02*
X158500000Y-69690002D01*
X158500000Y-82340004D02*
X158500000Y-82340004D01*
X158500000Y-94990006D02*
X158500000Y-94990006D01*
X158500000Y-107640008D02*
X158500000Y-107640008D01*
X158500000Y-120290010D02*
X158500000Y-120290010D01*
X186150002Y-57040000D02*
X186150002Y-57040000D01*
X186150002Y-69690002D02*
X186150002Y-69690002D01*
X186150002Y-82340004D02*
X186150002Y-82340004D01*
X186150002Y-94990006D02*
X186150002Y-94990006D01*
X186150002Y-107640008D02*
X186150002Y-107640008D01*
X186150002Y-120290010D02*
X186150002Y-120290010D01*
X213800004Y-57040000D02*
X213800004Y-57040000D01*
X213800004Y-69690002D02*
X213800004Y-69690002D01*
X213800004Y-82340004D02*
X213800004Y-82340004D01*
X213800004Y-94990006D02*
X213800004Y-94990006D01*
X213800004Y-107640008D02*
X213800004Y-107640008D01*
X213800004Y-120290010D02*
X213800004Y-120290010D01*
D18*
X158500000Y-69690002D02*
X158500000Y-76650002D01*
X158500000Y-82340004D02*
X158500000Y-89300004D01*
X158500000Y-94990006D02*
X158500000Y-101950006D01*
X158500000Y-107640008D02*
X158500000Y-114600008D01*
X158500000Y-120290010D02*
X158500000Y-127250010D01*
X186150002Y-57040000D02*
X186150002Y-64000000D01*
X186150002Y-69690002D02*
X186150002Y-76650002D01*
X186150002Y-82340004D02*
X186150002Y-89300004D01*
X186150002Y-94990006D02*
X186150002Y-101950006D01*
X186150002Y-107640008D02*
X186150002Y-114600008D01*
X186150002Y-120290010D02*
X186150002Y-127250010D01*
X213800004Y-57040000D02*
X213800004Y-64000000D01*
X213800004Y-69690002D02*
X213800004Y-76650002D01*
X213800004Y-82340004D02*
X213800004Y-89300004D01*
X213800004Y-94990006D02*
X213800004Y-101950006D01*
X213800004Y-107640008D02*
X213800004Y-114600008D01*
X213800004Y-120290010D02*
X213800004Y-127250010D01*
M02*
