%TF.GenerationSoftware,KiCad,Pcbnew,5.0.2+dfsg1-1*%
%TF.CreationDate,2022-04-03T13:42:16+09:00*%
%TF.ProjectId,JST-mounter_panelized,4a53542d-6d6f-4756-9e74-65725f70616e,rev?*%
%TF.SameCoordinates,Original*%
%TF.FileFunction,Paste,Bot*%
%TF.FilePolarity,Positive*%
%FSLAX46Y46*%
G04 Gerber Fmt 4.6, Leading zero omitted, Abs format (unit mm)*
G04 Created by KiCad (PCBNEW 5.0.2+dfsg1-1) date Sun 03 Apr 2022 01:42:16 PM JST*
%MOMM*%
%LPD*%
G01*
G04 APERTURE LIST*
%ADD10C,0.150000*%
%ADD11R,2.000000X4.000000*%
G04 APERTURE END LIST*
D10*
X137899998Y-117600008D02*
X220900006Y-117600008D01*
X137899998Y-104950006D02*
X220900006Y-104950006D01*
X137899998Y-92300004D02*
X220900006Y-92300004D01*
X137899998Y-79650002D02*
X220900006Y-79650002D01*
X137899998Y-67000000D02*
X220900006Y-67000000D01*
X193150002Y-54399998D02*
X193150002Y-130350012D01*
X165500000Y-54399998D02*
X165500000Y-130350012D01*
X137924999Y-130325011D02*
X137924999Y-54424999D01*
X220875005Y-130325011D02*
X137924999Y-130325011D01*
X220875005Y-54424999D02*
X220875005Y-130325011D01*
X137924999Y-54424999D02*
X220875005Y-54424999D01*
D11*
X213800004Y-120290010D03*
X213800004Y-107640008D03*
X213800004Y-94990006D03*
X213800004Y-82340004D03*
X213800004Y-69690002D03*
X213800004Y-57040000D03*
X186150002Y-120290010D03*
X186150002Y-107640008D03*
X186150002Y-94990006D03*
X186150002Y-82340004D03*
X186150002Y-69690002D03*
X186150002Y-57040000D03*
X158500000Y-120290010D03*
X158500000Y-107640008D03*
X158500000Y-94990006D03*
X158500000Y-82340004D03*
X158500000Y-69690002D03*
X211300004Y-120290010D03*
X211300004Y-107640008D03*
X211300004Y-94990006D03*
X211300004Y-82340004D03*
X211300004Y-69690002D03*
X211300004Y-57040000D03*
X183650002Y-120290010D03*
X183650002Y-107640008D03*
X183650002Y-94990006D03*
X183650002Y-82340004D03*
X183650002Y-69690002D03*
X183650002Y-57040000D03*
X156000000Y-120290010D03*
X156000000Y-107640008D03*
X156000000Y-94990006D03*
X156000000Y-82340004D03*
X156000000Y-69690002D03*
X203300004Y-120290010D03*
X203300004Y-107640008D03*
X203300004Y-94990006D03*
X203300004Y-82340004D03*
X203300004Y-69690002D03*
X203300004Y-57040000D03*
X175650002Y-120290010D03*
X175650002Y-107640008D03*
X175650002Y-94990006D03*
X175650002Y-82340004D03*
X175650002Y-69690002D03*
X175650002Y-57040000D03*
X148000000Y-120290010D03*
X148000000Y-107640008D03*
X148000000Y-94990006D03*
X148000000Y-82340004D03*
X148000000Y-69690002D03*
X200800004Y-120290010D03*
X200800004Y-107640008D03*
X200800004Y-94990006D03*
X200800004Y-82340004D03*
X200800004Y-69690002D03*
X200800004Y-57040000D03*
X173150002Y-120290010D03*
X173150002Y-107640008D03*
X173150002Y-94990006D03*
X173150002Y-82340004D03*
X173150002Y-69690002D03*
X173150002Y-57040000D03*
X145500000Y-120290010D03*
X145500000Y-107640008D03*
X145500000Y-94990006D03*
X145500000Y-82340004D03*
X145500000Y-69690002D03*
X145500000Y-57040000D03*
X148000000Y-57040000D03*
X156000000Y-57040000D03*
X158500000Y-57040000D03*
M02*
