%TF.GenerationSoftware,KiCad,Pcbnew,5.0.2+dfsg1-1*%
%TF.CreationDate,2022-04-03T13:42:16+09:00*%
%TF.ProjectId,JST-mounter_panelized,4a53542d-6d6f-4756-9e74-65725f70616e,rev?*%
%TF.SameCoordinates,Original*%
%TF.FileFunction,Legend,Top*%
%TF.FilePolarity,Positive*%
%FSLAX46Y46*%
G04 Gerber Fmt 4.6, Leading zero omitted, Abs format (unit mm)*
G04 Created by KiCad (PCBNEW 5.0.2+dfsg1-1) date Sun 03 Apr 2022 01:42:16 PM JST*
%MOMM*%
%LPD*%
G01*
G04 APERTURE LIST*
%ADD10C,0.150000*%
%ADD11C,0.120000*%
G04 APERTURE END LIST*
D10*
X137899998Y-117600008D02*
X220900006Y-117600008D01*
X137899998Y-104950006D02*
X220900006Y-104950006D01*
X137899998Y-92300004D02*
X220900006Y-92300004D01*
X137899998Y-79650002D02*
X220900006Y-79650002D01*
X137899998Y-67000000D02*
X220900006Y-67000000D01*
X193150002Y-54399998D02*
X193150002Y-130350012D01*
X165500000Y-54399998D02*
X165500000Y-130350012D01*
X137924999Y-130325011D02*
X137924999Y-54424999D01*
X220875005Y-130325011D02*
X137924999Y-130325011D01*
X220875005Y-54424999D02*
X220875005Y-130325011D01*
X137924999Y-54424999D02*
X220875005Y-54424999D01*
D11*
X216650004Y-130000010D02*
X216650004Y-128750010D01*
X215400004Y-130000010D02*
X216650004Y-130000010D01*
X209500004Y-124500010D02*
X212550004Y-124500010D01*
X209500004Y-127450010D02*
X209500004Y-124500010D01*
X208750004Y-127450010D02*
X209500004Y-127450010D01*
X215600004Y-124500010D02*
X212550004Y-124500010D01*
X215600004Y-127450010D02*
X215600004Y-124500010D01*
X216350004Y-127450010D02*
X215600004Y-127450010D01*
X208750004Y-129700010D02*
X210550004Y-129700010D01*
X208750004Y-128950010D02*
X208750004Y-129700010D01*
X210550004Y-128950010D02*
X208750004Y-128950010D01*
X210550004Y-129700010D02*
X210550004Y-128950010D01*
X214550004Y-129700010D02*
X216350004Y-129700010D01*
X214550004Y-128950010D02*
X214550004Y-129700010D01*
X216350004Y-128950010D02*
X214550004Y-128950010D01*
X216350004Y-129700010D02*
X216350004Y-128950010D01*
X212050004Y-129700010D02*
X213050004Y-129700010D01*
X212050004Y-128950010D02*
X212050004Y-129700010D01*
X213050004Y-128950010D02*
X212050004Y-128950010D01*
X213050004Y-129700010D02*
X213050004Y-128950010D01*
X208740004Y-129710010D02*
X216360004Y-129710010D01*
X208740004Y-123740010D02*
X208740004Y-129710010D01*
X216360004Y-123740010D02*
X208740004Y-123740010D01*
X216360004Y-129710010D02*
X216360004Y-123740010D01*
X216650004Y-117350008D02*
X216650004Y-116100008D01*
X215400004Y-117350008D02*
X216650004Y-117350008D01*
X209500004Y-111850008D02*
X212550004Y-111850008D01*
X209500004Y-114800008D02*
X209500004Y-111850008D01*
X208750004Y-114800008D02*
X209500004Y-114800008D01*
X215600004Y-111850008D02*
X212550004Y-111850008D01*
X215600004Y-114800008D02*
X215600004Y-111850008D01*
X216350004Y-114800008D02*
X215600004Y-114800008D01*
X208750004Y-117050008D02*
X210550004Y-117050008D01*
X208750004Y-116300008D02*
X208750004Y-117050008D01*
X210550004Y-116300008D02*
X208750004Y-116300008D01*
X210550004Y-117050008D02*
X210550004Y-116300008D01*
X214550004Y-117050008D02*
X216350004Y-117050008D01*
X214550004Y-116300008D02*
X214550004Y-117050008D01*
X216350004Y-116300008D02*
X214550004Y-116300008D01*
X216350004Y-117050008D02*
X216350004Y-116300008D01*
X212050004Y-117050008D02*
X213050004Y-117050008D01*
X212050004Y-116300008D02*
X212050004Y-117050008D01*
X213050004Y-116300008D02*
X212050004Y-116300008D01*
X213050004Y-117050008D02*
X213050004Y-116300008D01*
X208740004Y-117060008D02*
X216360004Y-117060008D01*
X208740004Y-111090008D02*
X208740004Y-117060008D01*
X216360004Y-111090008D02*
X208740004Y-111090008D01*
X216360004Y-117060008D02*
X216360004Y-111090008D01*
X216650004Y-104700006D02*
X216650004Y-103450006D01*
X215400004Y-104700006D02*
X216650004Y-104700006D01*
X209500004Y-99200006D02*
X212550004Y-99200006D01*
X209500004Y-102150006D02*
X209500004Y-99200006D01*
X208750004Y-102150006D02*
X209500004Y-102150006D01*
X215600004Y-99200006D02*
X212550004Y-99200006D01*
X215600004Y-102150006D02*
X215600004Y-99200006D01*
X216350004Y-102150006D02*
X215600004Y-102150006D01*
X208750004Y-104400006D02*
X210550004Y-104400006D01*
X208750004Y-103650006D02*
X208750004Y-104400006D01*
X210550004Y-103650006D02*
X208750004Y-103650006D01*
X210550004Y-104400006D02*
X210550004Y-103650006D01*
X214550004Y-104400006D02*
X216350004Y-104400006D01*
X214550004Y-103650006D02*
X214550004Y-104400006D01*
X216350004Y-103650006D02*
X214550004Y-103650006D01*
X216350004Y-104400006D02*
X216350004Y-103650006D01*
X212050004Y-104400006D02*
X213050004Y-104400006D01*
X212050004Y-103650006D02*
X212050004Y-104400006D01*
X213050004Y-103650006D02*
X212050004Y-103650006D01*
X213050004Y-104400006D02*
X213050004Y-103650006D01*
X208740004Y-104410006D02*
X216360004Y-104410006D01*
X208740004Y-98440006D02*
X208740004Y-104410006D01*
X216360004Y-98440006D02*
X208740004Y-98440006D01*
X216360004Y-104410006D02*
X216360004Y-98440006D01*
X216650004Y-92050004D02*
X216650004Y-90800004D01*
X215400004Y-92050004D02*
X216650004Y-92050004D01*
X209500004Y-86550004D02*
X212550004Y-86550004D01*
X209500004Y-89500004D02*
X209500004Y-86550004D01*
X208750004Y-89500004D02*
X209500004Y-89500004D01*
X215600004Y-86550004D02*
X212550004Y-86550004D01*
X215600004Y-89500004D02*
X215600004Y-86550004D01*
X216350004Y-89500004D02*
X215600004Y-89500004D01*
X208750004Y-91750004D02*
X210550004Y-91750004D01*
X208750004Y-91000004D02*
X208750004Y-91750004D01*
X210550004Y-91000004D02*
X208750004Y-91000004D01*
X210550004Y-91750004D02*
X210550004Y-91000004D01*
X214550004Y-91750004D02*
X216350004Y-91750004D01*
X214550004Y-91000004D02*
X214550004Y-91750004D01*
X216350004Y-91000004D02*
X214550004Y-91000004D01*
X216350004Y-91750004D02*
X216350004Y-91000004D01*
X212050004Y-91750004D02*
X213050004Y-91750004D01*
X212050004Y-91000004D02*
X212050004Y-91750004D01*
X213050004Y-91000004D02*
X212050004Y-91000004D01*
X213050004Y-91750004D02*
X213050004Y-91000004D01*
X208740004Y-91760004D02*
X216360004Y-91760004D01*
X208740004Y-85790004D02*
X208740004Y-91760004D01*
X216360004Y-85790004D02*
X208740004Y-85790004D01*
X216360004Y-91760004D02*
X216360004Y-85790004D01*
X216650004Y-79400002D02*
X216650004Y-78150002D01*
X215400004Y-79400002D02*
X216650004Y-79400002D01*
X209500004Y-73900002D02*
X212550004Y-73900002D01*
X209500004Y-76850002D02*
X209500004Y-73900002D01*
X208750004Y-76850002D02*
X209500004Y-76850002D01*
X215600004Y-73900002D02*
X212550004Y-73900002D01*
X215600004Y-76850002D02*
X215600004Y-73900002D01*
X216350004Y-76850002D02*
X215600004Y-76850002D01*
X208750004Y-79100002D02*
X210550004Y-79100002D01*
X208750004Y-78350002D02*
X208750004Y-79100002D01*
X210550004Y-78350002D02*
X208750004Y-78350002D01*
X210550004Y-79100002D02*
X210550004Y-78350002D01*
X214550004Y-79100002D02*
X216350004Y-79100002D01*
X214550004Y-78350002D02*
X214550004Y-79100002D01*
X216350004Y-78350002D02*
X214550004Y-78350002D01*
X216350004Y-79100002D02*
X216350004Y-78350002D01*
X212050004Y-79100002D02*
X213050004Y-79100002D01*
X212050004Y-78350002D02*
X212050004Y-79100002D01*
X213050004Y-78350002D02*
X212050004Y-78350002D01*
X213050004Y-79100002D02*
X213050004Y-78350002D01*
X208740004Y-79110002D02*
X216360004Y-79110002D01*
X208740004Y-73140002D02*
X208740004Y-79110002D01*
X216360004Y-73140002D02*
X208740004Y-73140002D01*
X216360004Y-79110002D02*
X216360004Y-73140002D01*
X216650004Y-66750000D02*
X216650004Y-65500000D01*
X215400004Y-66750000D02*
X216650004Y-66750000D01*
X209500004Y-61250000D02*
X212550004Y-61250000D01*
X209500004Y-64200000D02*
X209500004Y-61250000D01*
X208750004Y-64200000D02*
X209500004Y-64200000D01*
X215600004Y-61250000D02*
X212550004Y-61250000D01*
X215600004Y-64200000D02*
X215600004Y-61250000D01*
X216350004Y-64200000D02*
X215600004Y-64200000D01*
X208750004Y-66450000D02*
X210550004Y-66450000D01*
X208750004Y-65700000D02*
X208750004Y-66450000D01*
X210550004Y-65700000D02*
X208750004Y-65700000D01*
X210550004Y-66450000D02*
X210550004Y-65700000D01*
X214550004Y-66450000D02*
X216350004Y-66450000D01*
X214550004Y-65700000D02*
X214550004Y-66450000D01*
X216350004Y-65700000D02*
X214550004Y-65700000D01*
X216350004Y-66450000D02*
X216350004Y-65700000D01*
X212050004Y-66450000D02*
X213050004Y-66450000D01*
X212050004Y-65700000D02*
X212050004Y-66450000D01*
X213050004Y-65700000D02*
X212050004Y-65700000D01*
X213050004Y-66450000D02*
X213050004Y-65700000D01*
X208740004Y-66460000D02*
X216360004Y-66460000D01*
X208740004Y-60490000D02*
X208740004Y-66460000D01*
X216360004Y-60490000D02*
X208740004Y-60490000D01*
X216360004Y-66460000D02*
X216360004Y-60490000D01*
X189000002Y-130000010D02*
X189000002Y-128750010D01*
X187750002Y-130000010D02*
X189000002Y-130000010D01*
X181850002Y-124500010D02*
X184900002Y-124500010D01*
X181850002Y-127450010D02*
X181850002Y-124500010D01*
X181100002Y-127450010D02*
X181850002Y-127450010D01*
X187950002Y-124500010D02*
X184900002Y-124500010D01*
X187950002Y-127450010D02*
X187950002Y-124500010D01*
X188700002Y-127450010D02*
X187950002Y-127450010D01*
X181100002Y-129700010D02*
X182900002Y-129700010D01*
X181100002Y-128950010D02*
X181100002Y-129700010D01*
X182900002Y-128950010D02*
X181100002Y-128950010D01*
X182900002Y-129700010D02*
X182900002Y-128950010D01*
X186900002Y-129700010D02*
X188700002Y-129700010D01*
X186900002Y-128950010D02*
X186900002Y-129700010D01*
X188700002Y-128950010D02*
X186900002Y-128950010D01*
X188700002Y-129700010D02*
X188700002Y-128950010D01*
X184400002Y-129700010D02*
X185400002Y-129700010D01*
X184400002Y-128950010D02*
X184400002Y-129700010D01*
X185400002Y-128950010D02*
X184400002Y-128950010D01*
X185400002Y-129700010D02*
X185400002Y-128950010D01*
X181090002Y-129710010D02*
X188710002Y-129710010D01*
X181090002Y-123740010D02*
X181090002Y-129710010D01*
X188710002Y-123740010D02*
X181090002Y-123740010D01*
X188710002Y-129710010D02*
X188710002Y-123740010D01*
X189000002Y-117350008D02*
X189000002Y-116100008D01*
X187750002Y-117350008D02*
X189000002Y-117350008D01*
X181850002Y-111850008D02*
X184900002Y-111850008D01*
X181850002Y-114800008D02*
X181850002Y-111850008D01*
X181100002Y-114800008D02*
X181850002Y-114800008D01*
X187950002Y-111850008D02*
X184900002Y-111850008D01*
X187950002Y-114800008D02*
X187950002Y-111850008D01*
X188700002Y-114800008D02*
X187950002Y-114800008D01*
X181100002Y-117050008D02*
X182900002Y-117050008D01*
X181100002Y-116300008D02*
X181100002Y-117050008D01*
X182900002Y-116300008D02*
X181100002Y-116300008D01*
X182900002Y-117050008D02*
X182900002Y-116300008D01*
X186900002Y-117050008D02*
X188700002Y-117050008D01*
X186900002Y-116300008D02*
X186900002Y-117050008D01*
X188700002Y-116300008D02*
X186900002Y-116300008D01*
X188700002Y-117050008D02*
X188700002Y-116300008D01*
X184400002Y-117050008D02*
X185400002Y-117050008D01*
X184400002Y-116300008D02*
X184400002Y-117050008D01*
X185400002Y-116300008D02*
X184400002Y-116300008D01*
X185400002Y-117050008D02*
X185400002Y-116300008D01*
X181090002Y-117060008D02*
X188710002Y-117060008D01*
X181090002Y-111090008D02*
X181090002Y-117060008D01*
X188710002Y-111090008D02*
X181090002Y-111090008D01*
X188710002Y-117060008D02*
X188710002Y-111090008D01*
X189000002Y-104700006D02*
X189000002Y-103450006D01*
X187750002Y-104700006D02*
X189000002Y-104700006D01*
X181850002Y-99200006D02*
X184900002Y-99200006D01*
X181850002Y-102150006D02*
X181850002Y-99200006D01*
X181100002Y-102150006D02*
X181850002Y-102150006D01*
X187950002Y-99200006D02*
X184900002Y-99200006D01*
X187950002Y-102150006D02*
X187950002Y-99200006D01*
X188700002Y-102150006D02*
X187950002Y-102150006D01*
X181100002Y-104400006D02*
X182900002Y-104400006D01*
X181100002Y-103650006D02*
X181100002Y-104400006D01*
X182900002Y-103650006D02*
X181100002Y-103650006D01*
X182900002Y-104400006D02*
X182900002Y-103650006D01*
X186900002Y-104400006D02*
X188700002Y-104400006D01*
X186900002Y-103650006D02*
X186900002Y-104400006D01*
X188700002Y-103650006D02*
X186900002Y-103650006D01*
X188700002Y-104400006D02*
X188700002Y-103650006D01*
X184400002Y-104400006D02*
X185400002Y-104400006D01*
X184400002Y-103650006D02*
X184400002Y-104400006D01*
X185400002Y-103650006D02*
X184400002Y-103650006D01*
X185400002Y-104400006D02*
X185400002Y-103650006D01*
X181090002Y-104410006D02*
X188710002Y-104410006D01*
X181090002Y-98440006D02*
X181090002Y-104410006D01*
X188710002Y-98440006D02*
X181090002Y-98440006D01*
X188710002Y-104410006D02*
X188710002Y-98440006D01*
X189000002Y-92050004D02*
X189000002Y-90800004D01*
X187750002Y-92050004D02*
X189000002Y-92050004D01*
X181850002Y-86550004D02*
X184900002Y-86550004D01*
X181850002Y-89500004D02*
X181850002Y-86550004D01*
X181100002Y-89500004D02*
X181850002Y-89500004D01*
X187950002Y-86550004D02*
X184900002Y-86550004D01*
X187950002Y-89500004D02*
X187950002Y-86550004D01*
X188700002Y-89500004D02*
X187950002Y-89500004D01*
X181100002Y-91750004D02*
X182900002Y-91750004D01*
X181100002Y-91000004D02*
X181100002Y-91750004D01*
X182900002Y-91000004D02*
X181100002Y-91000004D01*
X182900002Y-91750004D02*
X182900002Y-91000004D01*
X186900002Y-91750004D02*
X188700002Y-91750004D01*
X186900002Y-91000004D02*
X186900002Y-91750004D01*
X188700002Y-91000004D02*
X186900002Y-91000004D01*
X188700002Y-91750004D02*
X188700002Y-91000004D01*
X184400002Y-91750004D02*
X185400002Y-91750004D01*
X184400002Y-91000004D02*
X184400002Y-91750004D01*
X185400002Y-91000004D02*
X184400002Y-91000004D01*
X185400002Y-91750004D02*
X185400002Y-91000004D01*
X181090002Y-91760004D02*
X188710002Y-91760004D01*
X181090002Y-85790004D02*
X181090002Y-91760004D01*
X188710002Y-85790004D02*
X181090002Y-85790004D01*
X188710002Y-91760004D02*
X188710002Y-85790004D01*
X189000002Y-79400002D02*
X189000002Y-78150002D01*
X187750002Y-79400002D02*
X189000002Y-79400002D01*
X181850002Y-73900002D02*
X184900002Y-73900002D01*
X181850002Y-76850002D02*
X181850002Y-73900002D01*
X181100002Y-76850002D02*
X181850002Y-76850002D01*
X187950002Y-73900002D02*
X184900002Y-73900002D01*
X187950002Y-76850002D02*
X187950002Y-73900002D01*
X188700002Y-76850002D02*
X187950002Y-76850002D01*
X181100002Y-79100002D02*
X182900002Y-79100002D01*
X181100002Y-78350002D02*
X181100002Y-79100002D01*
X182900002Y-78350002D02*
X181100002Y-78350002D01*
X182900002Y-79100002D02*
X182900002Y-78350002D01*
X186900002Y-79100002D02*
X188700002Y-79100002D01*
X186900002Y-78350002D02*
X186900002Y-79100002D01*
X188700002Y-78350002D02*
X186900002Y-78350002D01*
X188700002Y-79100002D02*
X188700002Y-78350002D01*
X184400002Y-79100002D02*
X185400002Y-79100002D01*
X184400002Y-78350002D02*
X184400002Y-79100002D01*
X185400002Y-78350002D02*
X184400002Y-78350002D01*
X185400002Y-79100002D02*
X185400002Y-78350002D01*
X181090002Y-79110002D02*
X188710002Y-79110002D01*
X181090002Y-73140002D02*
X181090002Y-79110002D01*
X188710002Y-73140002D02*
X181090002Y-73140002D01*
X188710002Y-79110002D02*
X188710002Y-73140002D01*
X189000002Y-66750000D02*
X189000002Y-65500000D01*
X187750002Y-66750000D02*
X189000002Y-66750000D01*
X181850002Y-61250000D02*
X184900002Y-61250000D01*
X181850002Y-64200000D02*
X181850002Y-61250000D01*
X181100002Y-64200000D02*
X181850002Y-64200000D01*
X187950002Y-61250000D02*
X184900002Y-61250000D01*
X187950002Y-64200000D02*
X187950002Y-61250000D01*
X188700002Y-64200000D02*
X187950002Y-64200000D01*
X181100002Y-66450000D02*
X182900002Y-66450000D01*
X181100002Y-65700000D02*
X181100002Y-66450000D01*
X182900002Y-65700000D02*
X181100002Y-65700000D01*
X182900002Y-66450000D02*
X182900002Y-65700000D01*
X186900002Y-66450000D02*
X188700002Y-66450000D01*
X186900002Y-65700000D02*
X186900002Y-66450000D01*
X188700002Y-65700000D02*
X186900002Y-65700000D01*
X188700002Y-66450000D02*
X188700002Y-65700000D01*
X184400002Y-66450000D02*
X185400002Y-66450000D01*
X184400002Y-65700000D02*
X184400002Y-66450000D01*
X185400002Y-65700000D02*
X184400002Y-65700000D01*
X185400002Y-66450000D02*
X185400002Y-65700000D01*
X181090002Y-66460000D02*
X188710002Y-66460000D01*
X181090002Y-60490000D02*
X181090002Y-66460000D01*
X188710002Y-60490000D02*
X181090002Y-60490000D01*
X188710002Y-66460000D02*
X188710002Y-60490000D01*
X161350000Y-130000010D02*
X161350000Y-128750010D01*
X160100000Y-130000010D02*
X161350000Y-130000010D01*
X154200000Y-124500010D02*
X157250000Y-124500010D01*
X154200000Y-127450010D02*
X154200000Y-124500010D01*
X153450000Y-127450010D02*
X154200000Y-127450010D01*
X160300000Y-124500010D02*
X157250000Y-124500010D01*
X160300000Y-127450010D02*
X160300000Y-124500010D01*
X161050000Y-127450010D02*
X160300000Y-127450010D01*
X153450000Y-129700010D02*
X155250000Y-129700010D01*
X153450000Y-128950010D02*
X153450000Y-129700010D01*
X155250000Y-128950010D02*
X153450000Y-128950010D01*
X155250000Y-129700010D02*
X155250000Y-128950010D01*
X159250000Y-129700010D02*
X161050000Y-129700010D01*
X159250000Y-128950010D02*
X159250000Y-129700010D01*
X161050000Y-128950010D02*
X159250000Y-128950010D01*
X161050000Y-129700010D02*
X161050000Y-128950010D01*
X156750000Y-129700010D02*
X157750000Y-129700010D01*
X156750000Y-128950010D02*
X156750000Y-129700010D01*
X157750000Y-128950010D02*
X156750000Y-128950010D01*
X157750000Y-129700010D02*
X157750000Y-128950010D01*
X153440000Y-129710010D02*
X161060000Y-129710010D01*
X153440000Y-123740010D02*
X153440000Y-129710010D01*
X161060000Y-123740010D02*
X153440000Y-123740010D01*
X161060000Y-129710010D02*
X161060000Y-123740010D01*
X161350000Y-117350008D02*
X161350000Y-116100008D01*
X160100000Y-117350008D02*
X161350000Y-117350008D01*
X154200000Y-111850008D02*
X157250000Y-111850008D01*
X154200000Y-114800008D02*
X154200000Y-111850008D01*
X153450000Y-114800008D02*
X154200000Y-114800008D01*
X160300000Y-111850008D02*
X157250000Y-111850008D01*
X160300000Y-114800008D02*
X160300000Y-111850008D01*
X161050000Y-114800008D02*
X160300000Y-114800008D01*
X153450000Y-117050008D02*
X155250000Y-117050008D01*
X153450000Y-116300008D02*
X153450000Y-117050008D01*
X155250000Y-116300008D02*
X153450000Y-116300008D01*
X155250000Y-117050008D02*
X155250000Y-116300008D01*
X159250000Y-117050008D02*
X161050000Y-117050008D01*
X159250000Y-116300008D02*
X159250000Y-117050008D01*
X161050000Y-116300008D02*
X159250000Y-116300008D01*
X161050000Y-117050008D02*
X161050000Y-116300008D01*
X156750000Y-117050008D02*
X157750000Y-117050008D01*
X156750000Y-116300008D02*
X156750000Y-117050008D01*
X157750000Y-116300008D02*
X156750000Y-116300008D01*
X157750000Y-117050008D02*
X157750000Y-116300008D01*
X153440000Y-117060008D02*
X161060000Y-117060008D01*
X153440000Y-111090008D02*
X153440000Y-117060008D01*
X161060000Y-111090008D02*
X153440000Y-111090008D01*
X161060000Y-117060008D02*
X161060000Y-111090008D01*
X161350000Y-104700006D02*
X161350000Y-103450006D01*
X160100000Y-104700006D02*
X161350000Y-104700006D01*
X154200000Y-99200006D02*
X157250000Y-99200006D01*
X154200000Y-102150006D02*
X154200000Y-99200006D01*
X153450000Y-102150006D02*
X154200000Y-102150006D01*
X160300000Y-99200006D02*
X157250000Y-99200006D01*
X160300000Y-102150006D02*
X160300000Y-99200006D01*
X161050000Y-102150006D02*
X160300000Y-102150006D01*
X153450000Y-104400006D02*
X155250000Y-104400006D01*
X153450000Y-103650006D02*
X153450000Y-104400006D01*
X155250000Y-103650006D02*
X153450000Y-103650006D01*
X155250000Y-104400006D02*
X155250000Y-103650006D01*
X159250000Y-104400006D02*
X161050000Y-104400006D01*
X159250000Y-103650006D02*
X159250000Y-104400006D01*
X161050000Y-103650006D02*
X159250000Y-103650006D01*
X161050000Y-104400006D02*
X161050000Y-103650006D01*
X156750000Y-104400006D02*
X157750000Y-104400006D01*
X156750000Y-103650006D02*
X156750000Y-104400006D01*
X157750000Y-103650006D02*
X156750000Y-103650006D01*
X157750000Y-104400006D02*
X157750000Y-103650006D01*
X153440000Y-104410006D02*
X161060000Y-104410006D01*
X153440000Y-98440006D02*
X153440000Y-104410006D01*
X161060000Y-98440006D02*
X153440000Y-98440006D01*
X161060000Y-104410006D02*
X161060000Y-98440006D01*
X161350000Y-92050004D02*
X161350000Y-90800004D01*
X160100000Y-92050004D02*
X161350000Y-92050004D01*
X154200000Y-86550004D02*
X157250000Y-86550004D01*
X154200000Y-89500004D02*
X154200000Y-86550004D01*
X153450000Y-89500004D02*
X154200000Y-89500004D01*
X160300000Y-86550004D02*
X157250000Y-86550004D01*
X160300000Y-89500004D02*
X160300000Y-86550004D01*
X161050000Y-89500004D02*
X160300000Y-89500004D01*
X153450000Y-91750004D02*
X155250000Y-91750004D01*
X153450000Y-91000004D02*
X153450000Y-91750004D01*
X155250000Y-91000004D02*
X153450000Y-91000004D01*
X155250000Y-91750004D02*
X155250000Y-91000004D01*
X159250000Y-91750004D02*
X161050000Y-91750004D01*
X159250000Y-91000004D02*
X159250000Y-91750004D01*
X161050000Y-91000004D02*
X159250000Y-91000004D01*
X161050000Y-91750004D02*
X161050000Y-91000004D01*
X156750000Y-91750004D02*
X157750000Y-91750004D01*
X156750000Y-91000004D02*
X156750000Y-91750004D01*
X157750000Y-91000004D02*
X156750000Y-91000004D01*
X157750000Y-91750004D02*
X157750000Y-91000004D01*
X153440000Y-91760004D02*
X161060000Y-91760004D01*
X153440000Y-85790004D02*
X153440000Y-91760004D01*
X161060000Y-85790004D02*
X153440000Y-85790004D01*
X161060000Y-91760004D02*
X161060000Y-85790004D01*
X161350000Y-79400002D02*
X161350000Y-78150002D01*
X160100000Y-79400002D02*
X161350000Y-79400002D01*
X154200000Y-73900002D02*
X157250000Y-73900002D01*
X154200000Y-76850002D02*
X154200000Y-73900002D01*
X153450000Y-76850002D02*
X154200000Y-76850002D01*
X160300000Y-73900002D02*
X157250000Y-73900002D01*
X160300000Y-76850002D02*
X160300000Y-73900002D01*
X161050000Y-76850002D02*
X160300000Y-76850002D01*
X153450000Y-79100002D02*
X155250000Y-79100002D01*
X153450000Y-78350002D02*
X153450000Y-79100002D01*
X155250000Y-78350002D02*
X153450000Y-78350002D01*
X155250000Y-79100002D02*
X155250000Y-78350002D01*
X159250000Y-79100002D02*
X161050000Y-79100002D01*
X159250000Y-78350002D02*
X159250000Y-79100002D01*
X161050000Y-78350002D02*
X159250000Y-78350002D01*
X161050000Y-79100002D02*
X161050000Y-78350002D01*
X156750000Y-79100002D02*
X157750000Y-79100002D01*
X156750000Y-78350002D02*
X156750000Y-79100002D01*
X157750000Y-78350002D02*
X156750000Y-78350002D01*
X157750000Y-79100002D02*
X157750000Y-78350002D01*
X153440000Y-79110002D02*
X161060000Y-79110002D01*
X153440000Y-73140002D02*
X153440000Y-79110002D01*
X161060000Y-73140002D02*
X153440000Y-73140002D01*
X161060000Y-79110002D02*
X161060000Y-73140002D01*
X206150004Y-130000010D02*
X206150004Y-128750010D01*
X204900004Y-130000010D02*
X206150004Y-130000010D01*
X199000004Y-124500010D02*
X202050004Y-124500010D01*
X199000004Y-127450010D02*
X199000004Y-124500010D01*
X198250004Y-127450010D02*
X199000004Y-127450010D01*
X205100004Y-124500010D02*
X202050004Y-124500010D01*
X205100004Y-127450010D02*
X205100004Y-124500010D01*
X205850004Y-127450010D02*
X205100004Y-127450010D01*
X198250004Y-129700010D02*
X200050004Y-129700010D01*
X198250004Y-128950010D02*
X198250004Y-129700010D01*
X200050004Y-128950010D02*
X198250004Y-128950010D01*
X200050004Y-129700010D02*
X200050004Y-128950010D01*
X204050004Y-129700010D02*
X205850004Y-129700010D01*
X204050004Y-128950010D02*
X204050004Y-129700010D01*
X205850004Y-128950010D02*
X204050004Y-128950010D01*
X205850004Y-129700010D02*
X205850004Y-128950010D01*
X201550004Y-129700010D02*
X202550004Y-129700010D01*
X201550004Y-128950010D02*
X201550004Y-129700010D01*
X202550004Y-128950010D02*
X201550004Y-128950010D01*
X202550004Y-129700010D02*
X202550004Y-128950010D01*
X198240004Y-129710010D02*
X205860004Y-129710010D01*
X198240004Y-123740010D02*
X198240004Y-129710010D01*
X205860004Y-123740010D02*
X198240004Y-123740010D01*
X205860004Y-129710010D02*
X205860004Y-123740010D01*
X206150004Y-117350008D02*
X206150004Y-116100008D01*
X204900004Y-117350008D02*
X206150004Y-117350008D01*
X199000004Y-111850008D02*
X202050004Y-111850008D01*
X199000004Y-114800008D02*
X199000004Y-111850008D01*
X198250004Y-114800008D02*
X199000004Y-114800008D01*
X205100004Y-111850008D02*
X202050004Y-111850008D01*
X205100004Y-114800008D02*
X205100004Y-111850008D01*
X205850004Y-114800008D02*
X205100004Y-114800008D01*
X198250004Y-117050008D02*
X200050004Y-117050008D01*
X198250004Y-116300008D02*
X198250004Y-117050008D01*
X200050004Y-116300008D02*
X198250004Y-116300008D01*
X200050004Y-117050008D02*
X200050004Y-116300008D01*
X204050004Y-117050008D02*
X205850004Y-117050008D01*
X204050004Y-116300008D02*
X204050004Y-117050008D01*
X205850004Y-116300008D02*
X204050004Y-116300008D01*
X205850004Y-117050008D02*
X205850004Y-116300008D01*
X201550004Y-117050008D02*
X202550004Y-117050008D01*
X201550004Y-116300008D02*
X201550004Y-117050008D01*
X202550004Y-116300008D02*
X201550004Y-116300008D01*
X202550004Y-117050008D02*
X202550004Y-116300008D01*
X198240004Y-117060008D02*
X205860004Y-117060008D01*
X198240004Y-111090008D02*
X198240004Y-117060008D01*
X205860004Y-111090008D02*
X198240004Y-111090008D01*
X205860004Y-117060008D02*
X205860004Y-111090008D01*
X206150004Y-104700006D02*
X206150004Y-103450006D01*
X204900004Y-104700006D02*
X206150004Y-104700006D01*
X199000004Y-99200006D02*
X202050004Y-99200006D01*
X199000004Y-102150006D02*
X199000004Y-99200006D01*
X198250004Y-102150006D02*
X199000004Y-102150006D01*
X205100004Y-99200006D02*
X202050004Y-99200006D01*
X205100004Y-102150006D02*
X205100004Y-99200006D01*
X205850004Y-102150006D02*
X205100004Y-102150006D01*
X198250004Y-104400006D02*
X200050004Y-104400006D01*
X198250004Y-103650006D02*
X198250004Y-104400006D01*
X200050004Y-103650006D02*
X198250004Y-103650006D01*
X200050004Y-104400006D02*
X200050004Y-103650006D01*
X204050004Y-104400006D02*
X205850004Y-104400006D01*
X204050004Y-103650006D02*
X204050004Y-104400006D01*
X205850004Y-103650006D02*
X204050004Y-103650006D01*
X205850004Y-104400006D02*
X205850004Y-103650006D01*
X201550004Y-104400006D02*
X202550004Y-104400006D01*
X201550004Y-103650006D02*
X201550004Y-104400006D01*
X202550004Y-103650006D02*
X201550004Y-103650006D01*
X202550004Y-104400006D02*
X202550004Y-103650006D01*
X198240004Y-104410006D02*
X205860004Y-104410006D01*
X198240004Y-98440006D02*
X198240004Y-104410006D01*
X205860004Y-98440006D02*
X198240004Y-98440006D01*
X205860004Y-104410006D02*
X205860004Y-98440006D01*
X206150004Y-92050004D02*
X206150004Y-90800004D01*
X204900004Y-92050004D02*
X206150004Y-92050004D01*
X199000004Y-86550004D02*
X202050004Y-86550004D01*
X199000004Y-89500004D02*
X199000004Y-86550004D01*
X198250004Y-89500004D02*
X199000004Y-89500004D01*
X205100004Y-86550004D02*
X202050004Y-86550004D01*
X205100004Y-89500004D02*
X205100004Y-86550004D01*
X205850004Y-89500004D02*
X205100004Y-89500004D01*
X198250004Y-91750004D02*
X200050004Y-91750004D01*
X198250004Y-91000004D02*
X198250004Y-91750004D01*
X200050004Y-91000004D02*
X198250004Y-91000004D01*
X200050004Y-91750004D02*
X200050004Y-91000004D01*
X204050004Y-91750004D02*
X205850004Y-91750004D01*
X204050004Y-91000004D02*
X204050004Y-91750004D01*
X205850004Y-91000004D02*
X204050004Y-91000004D01*
X205850004Y-91750004D02*
X205850004Y-91000004D01*
X201550004Y-91750004D02*
X202550004Y-91750004D01*
X201550004Y-91000004D02*
X201550004Y-91750004D01*
X202550004Y-91000004D02*
X201550004Y-91000004D01*
X202550004Y-91750004D02*
X202550004Y-91000004D01*
X198240004Y-91760004D02*
X205860004Y-91760004D01*
X198240004Y-85790004D02*
X198240004Y-91760004D01*
X205860004Y-85790004D02*
X198240004Y-85790004D01*
X205860004Y-91760004D02*
X205860004Y-85790004D01*
X206150004Y-79400002D02*
X206150004Y-78150002D01*
X204900004Y-79400002D02*
X206150004Y-79400002D01*
X199000004Y-73900002D02*
X202050004Y-73900002D01*
X199000004Y-76850002D02*
X199000004Y-73900002D01*
X198250004Y-76850002D02*
X199000004Y-76850002D01*
X205100004Y-73900002D02*
X202050004Y-73900002D01*
X205100004Y-76850002D02*
X205100004Y-73900002D01*
X205850004Y-76850002D02*
X205100004Y-76850002D01*
X198250004Y-79100002D02*
X200050004Y-79100002D01*
X198250004Y-78350002D02*
X198250004Y-79100002D01*
X200050004Y-78350002D02*
X198250004Y-78350002D01*
X200050004Y-79100002D02*
X200050004Y-78350002D01*
X204050004Y-79100002D02*
X205850004Y-79100002D01*
X204050004Y-78350002D02*
X204050004Y-79100002D01*
X205850004Y-78350002D02*
X204050004Y-78350002D01*
X205850004Y-79100002D02*
X205850004Y-78350002D01*
X201550004Y-79100002D02*
X202550004Y-79100002D01*
X201550004Y-78350002D02*
X201550004Y-79100002D01*
X202550004Y-78350002D02*
X201550004Y-78350002D01*
X202550004Y-79100002D02*
X202550004Y-78350002D01*
X198240004Y-79110002D02*
X205860004Y-79110002D01*
X198240004Y-73140002D02*
X198240004Y-79110002D01*
X205860004Y-73140002D02*
X198240004Y-73140002D01*
X205860004Y-79110002D02*
X205860004Y-73140002D01*
X206150004Y-66750000D02*
X206150004Y-65500000D01*
X204900004Y-66750000D02*
X206150004Y-66750000D01*
X199000004Y-61250000D02*
X202050004Y-61250000D01*
X199000004Y-64200000D02*
X199000004Y-61250000D01*
X198250004Y-64200000D02*
X199000004Y-64200000D01*
X205100004Y-61250000D02*
X202050004Y-61250000D01*
X205100004Y-64200000D02*
X205100004Y-61250000D01*
X205850004Y-64200000D02*
X205100004Y-64200000D01*
X198250004Y-66450000D02*
X200050004Y-66450000D01*
X198250004Y-65700000D02*
X198250004Y-66450000D01*
X200050004Y-65700000D02*
X198250004Y-65700000D01*
X200050004Y-66450000D02*
X200050004Y-65700000D01*
X204050004Y-66450000D02*
X205850004Y-66450000D01*
X204050004Y-65700000D02*
X204050004Y-66450000D01*
X205850004Y-65700000D02*
X204050004Y-65700000D01*
X205850004Y-66450000D02*
X205850004Y-65700000D01*
X201550004Y-66450000D02*
X202550004Y-66450000D01*
X201550004Y-65700000D02*
X201550004Y-66450000D01*
X202550004Y-65700000D02*
X201550004Y-65700000D01*
X202550004Y-66450000D02*
X202550004Y-65700000D01*
X198240004Y-66460000D02*
X205860004Y-66460000D01*
X198240004Y-60490000D02*
X198240004Y-66460000D01*
X205860004Y-60490000D02*
X198240004Y-60490000D01*
X205860004Y-66460000D02*
X205860004Y-60490000D01*
X178500002Y-130000010D02*
X178500002Y-128750010D01*
X177250002Y-130000010D02*
X178500002Y-130000010D01*
X171350002Y-124500010D02*
X174400002Y-124500010D01*
X171350002Y-127450010D02*
X171350002Y-124500010D01*
X170600002Y-127450010D02*
X171350002Y-127450010D01*
X177450002Y-124500010D02*
X174400002Y-124500010D01*
X177450002Y-127450010D02*
X177450002Y-124500010D01*
X178200002Y-127450010D02*
X177450002Y-127450010D01*
X170600002Y-129700010D02*
X172400002Y-129700010D01*
X170600002Y-128950010D02*
X170600002Y-129700010D01*
X172400002Y-128950010D02*
X170600002Y-128950010D01*
X172400002Y-129700010D02*
X172400002Y-128950010D01*
X176400002Y-129700010D02*
X178200002Y-129700010D01*
X176400002Y-128950010D02*
X176400002Y-129700010D01*
X178200002Y-128950010D02*
X176400002Y-128950010D01*
X178200002Y-129700010D02*
X178200002Y-128950010D01*
X173900002Y-129700010D02*
X174900002Y-129700010D01*
X173900002Y-128950010D02*
X173900002Y-129700010D01*
X174900002Y-128950010D02*
X173900002Y-128950010D01*
X174900002Y-129700010D02*
X174900002Y-128950010D01*
X170590002Y-129710010D02*
X178210002Y-129710010D01*
X170590002Y-123740010D02*
X170590002Y-129710010D01*
X178210002Y-123740010D02*
X170590002Y-123740010D01*
X178210002Y-129710010D02*
X178210002Y-123740010D01*
X178500002Y-117350008D02*
X178500002Y-116100008D01*
X177250002Y-117350008D02*
X178500002Y-117350008D01*
X171350002Y-111850008D02*
X174400002Y-111850008D01*
X171350002Y-114800008D02*
X171350002Y-111850008D01*
X170600002Y-114800008D02*
X171350002Y-114800008D01*
X177450002Y-111850008D02*
X174400002Y-111850008D01*
X177450002Y-114800008D02*
X177450002Y-111850008D01*
X178200002Y-114800008D02*
X177450002Y-114800008D01*
X170600002Y-117050008D02*
X172400002Y-117050008D01*
X170600002Y-116300008D02*
X170600002Y-117050008D01*
X172400002Y-116300008D02*
X170600002Y-116300008D01*
X172400002Y-117050008D02*
X172400002Y-116300008D01*
X176400002Y-117050008D02*
X178200002Y-117050008D01*
X176400002Y-116300008D02*
X176400002Y-117050008D01*
X178200002Y-116300008D02*
X176400002Y-116300008D01*
X178200002Y-117050008D02*
X178200002Y-116300008D01*
X173900002Y-117050008D02*
X174900002Y-117050008D01*
X173900002Y-116300008D02*
X173900002Y-117050008D01*
X174900002Y-116300008D02*
X173900002Y-116300008D01*
X174900002Y-117050008D02*
X174900002Y-116300008D01*
X170590002Y-117060008D02*
X178210002Y-117060008D01*
X170590002Y-111090008D02*
X170590002Y-117060008D01*
X178210002Y-111090008D02*
X170590002Y-111090008D01*
X178210002Y-117060008D02*
X178210002Y-111090008D01*
X178500002Y-104700006D02*
X178500002Y-103450006D01*
X177250002Y-104700006D02*
X178500002Y-104700006D01*
X171350002Y-99200006D02*
X174400002Y-99200006D01*
X171350002Y-102150006D02*
X171350002Y-99200006D01*
X170600002Y-102150006D02*
X171350002Y-102150006D01*
X177450002Y-99200006D02*
X174400002Y-99200006D01*
X177450002Y-102150006D02*
X177450002Y-99200006D01*
X178200002Y-102150006D02*
X177450002Y-102150006D01*
X170600002Y-104400006D02*
X172400002Y-104400006D01*
X170600002Y-103650006D02*
X170600002Y-104400006D01*
X172400002Y-103650006D02*
X170600002Y-103650006D01*
X172400002Y-104400006D02*
X172400002Y-103650006D01*
X176400002Y-104400006D02*
X178200002Y-104400006D01*
X176400002Y-103650006D02*
X176400002Y-104400006D01*
X178200002Y-103650006D02*
X176400002Y-103650006D01*
X178200002Y-104400006D02*
X178200002Y-103650006D01*
X173900002Y-104400006D02*
X174900002Y-104400006D01*
X173900002Y-103650006D02*
X173900002Y-104400006D01*
X174900002Y-103650006D02*
X173900002Y-103650006D01*
X174900002Y-104400006D02*
X174900002Y-103650006D01*
X170590002Y-104410006D02*
X178210002Y-104410006D01*
X170590002Y-98440006D02*
X170590002Y-104410006D01*
X178210002Y-98440006D02*
X170590002Y-98440006D01*
X178210002Y-104410006D02*
X178210002Y-98440006D01*
X178500002Y-92050004D02*
X178500002Y-90800004D01*
X177250002Y-92050004D02*
X178500002Y-92050004D01*
X171350002Y-86550004D02*
X174400002Y-86550004D01*
X171350002Y-89500004D02*
X171350002Y-86550004D01*
X170600002Y-89500004D02*
X171350002Y-89500004D01*
X177450002Y-86550004D02*
X174400002Y-86550004D01*
X177450002Y-89500004D02*
X177450002Y-86550004D01*
X178200002Y-89500004D02*
X177450002Y-89500004D01*
X170600002Y-91750004D02*
X172400002Y-91750004D01*
X170600002Y-91000004D02*
X170600002Y-91750004D01*
X172400002Y-91000004D02*
X170600002Y-91000004D01*
X172400002Y-91750004D02*
X172400002Y-91000004D01*
X176400002Y-91750004D02*
X178200002Y-91750004D01*
X176400002Y-91000004D02*
X176400002Y-91750004D01*
X178200002Y-91000004D02*
X176400002Y-91000004D01*
X178200002Y-91750004D02*
X178200002Y-91000004D01*
X173900002Y-91750004D02*
X174900002Y-91750004D01*
X173900002Y-91000004D02*
X173900002Y-91750004D01*
X174900002Y-91000004D02*
X173900002Y-91000004D01*
X174900002Y-91750004D02*
X174900002Y-91000004D01*
X170590002Y-91760004D02*
X178210002Y-91760004D01*
X170590002Y-85790004D02*
X170590002Y-91760004D01*
X178210002Y-85790004D02*
X170590002Y-85790004D01*
X178210002Y-91760004D02*
X178210002Y-85790004D01*
X178500002Y-79400002D02*
X178500002Y-78150002D01*
X177250002Y-79400002D02*
X178500002Y-79400002D01*
X171350002Y-73900002D02*
X174400002Y-73900002D01*
X171350002Y-76850002D02*
X171350002Y-73900002D01*
X170600002Y-76850002D02*
X171350002Y-76850002D01*
X177450002Y-73900002D02*
X174400002Y-73900002D01*
X177450002Y-76850002D02*
X177450002Y-73900002D01*
X178200002Y-76850002D02*
X177450002Y-76850002D01*
X170600002Y-79100002D02*
X172400002Y-79100002D01*
X170600002Y-78350002D02*
X170600002Y-79100002D01*
X172400002Y-78350002D02*
X170600002Y-78350002D01*
X172400002Y-79100002D02*
X172400002Y-78350002D01*
X176400002Y-79100002D02*
X178200002Y-79100002D01*
X176400002Y-78350002D02*
X176400002Y-79100002D01*
X178200002Y-78350002D02*
X176400002Y-78350002D01*
X178200002Y-79100002D02*
X178200002Y-78350002D01*
X173900002Y-79100002D02*
X174900002Y-79100002D01*
X173900002Y-78350002D02*
X173900002Y-79100002D01*
X174900002Y-78350002D02*
X173900002Y-78350002D01*
X174900002Y-79100002D02*
X174900002Y-78350002D01*
X170590002Y-79110002D02*
X178210002Y-79110002D01*
X170590002Y-73140002D02*
X170590002Y-79110002D01*
X178210002Y-73140002D02*
X170590002Y-73140002D01*
X178210002Y-79110002D02*
X178210002Y-73140002D01*
X178500002Y-66750000D02*
X178500002Y-65500000D01*
X177250002Y-66750000D02*
X178500002Y-66750000D01*
X171350002Y-61250000D02*
X174400002Y-61250000D01*
X171350002Y-64200000D02*
X171350002Y-61250000D01*
X170600002Y-64200000D02*
X171350002Y-64200000D01*
X177450002Y-61250000D02*
X174400002Y-61250000D01*
X177450002Y-64200000D02*
X177450002Y-61250000D01*
X178200002Y-64200000D02*
X177450002Y-64200000D01*
X170600002Y-66450000D02*
X172400002Y-66450000D01*
X170600002Y-65700000D02*
X170600002Y-66450000D01*
X172400002Y-65700000D02*
X170600002Y-65700000D01*
X172400002Y-66450000D02*
X172400002Y-65700000D01*
X176400002Y-66450000D02*
X178200002Y-66450000D01*
X176400002Y-65700000D02*
X176400002Y-66450000D01*
X178200002Y-65700000D02*
X176400002Y-65700000D01*
X178200002Y-66450000D02*
X178200002Y-65700000D01*
X173900002Y-66450000D02*
X174900002Y-66450000D01*
X173900002Y-65700000D02*
X173900002Y-66450000D01*
X174900002Y-65700000D02*
X173900002Y-65700000D01*
X174900002Y-66450000D02*
X174900002Y-65700000D01*
X170590002Y-66460000D02*
X178210002Y-66460000D01*
X170590002Y-60490000D02*
X170590002Y-66460000D01*
X178210002Y-60490000D02*
X170590002Y-60490000D01*
X178210002Y-66460000D02*
X178210002Y-60490000D01*
X150850000Y-130000010D02*
X150850000Y-128750010D01*
X149600000Y-130000010D02*
X150850000Y-130000010D01*
X143700000Y-124500010D02*
X146750000Y-124500010D01*
X143700000Y-127450010D02*
X143700000Y-124500010D01*
X142950000Y-127450010D02*
X143700000Y-127450010D01*
X149800000Y-124500010D02*
X146750000Y-124500010D01*
X149800000Y-127450010D02*
X149800000Y-124500010D01*
X150550000Y-127450010D02*
X149800000Y-127450010D01*
X142950000Y-129700010D02*
X144750000Y-129700010D01*
X142950000Y-128950010D02*
X142950000Y-129700010D01*
X144750000Y-128950010D02*
X142950000Y-128950010D01*
X144750000Y-129700010D02*
X144750000Y-128950010D01*
X148750000Y-129700010D02*
X150550000Y-129700010D01*
X148750000Y-128950010D02*
X148750000Y-129700010D01*
X150550000Y-128950010D02*
X148750000Y-128950010D01*
X150550000Y-129700010D02*
X150550000Y-128950010D01*
X146250000Y-129700010D02*
X147250000Y-129700010D01*
X146250000Y-128950010D02*
X146250000Y-129700010D01*
X147250000Y-128950010D02*
X146250000Y-128950010D01*
X147250000Y-129700010D02*
X147250000Y-128950010D01*
X142940000Y-129710010D02*
X150560000Y-129710010D01*
X142940000Y-123740010D02*
X142940000Y-129710010D01*
X150560000Y-123740010D02*
X142940000Y-123740010D01*
X150560000Y-129710010D02*
X150560000Y-123740010D01*
X150850000Y-117350008D02*
X150850000Y-116100008D01*
X149600000Y-117350008D02*
X150850000Y-117350008D01*
X143700000Y-111850008D02*
X146750000Y-111850008D01*
X143700000Y-114800008D02*
X143700000Y-111850008D01*
X142950000Y-114800008D02*
X143700000Y-114800008D01*
X149800000Y-111850008D02*
X146750000Y-111850008D01*
X149800000Y-114800008D02*
X149800000Y-111850008D01*
X150550000Y-114800008D02*
X149800000Y-114800008D01*
X142950000Y-117050008D02*
X144750000Y-117050008D01*
X142950000Y-116300008D02*
X142950000Y-117050008D01*
X144750000Y-116300008D02*
X142950000Y-116300008D01*
X144750000Y-117050008D02*
X144750000Y-116300008D01*
X148750000Y-117050008D02*
X150550000Y-117050008D01*
X148750000Y-116300008D02*
X148750000Y-117050008D01*
X150550000Y-116300008D02*
X148750000Y-116300008D01*
X150550000Y-117050008D02*
X150550000Y-116300008D01*
X146250000Y-117050008D02*
X147250000Y-117050008D01*
X146250000Y-116300008D02*
X146250000Y-117050008D01*
X147250000Y-116300008D02*
X146250000Y-116300008D01*
X147250000Y-117050008D02*
X147250000Y-116300008D01*
X142940000Y-117060008D02*
X150560000Y-117060008D01*
X142940000Y-111090008D02*
X142940000Y-117060008D01*
X150560000Y-111090008D02*
X142940000Y-111090008D01*
X150560000Y-117060008D02*
X150560000Y-111090008D01*
X150850000Y-104700006D02*
X150850000Y-103450006D01*
X149600000Y-104700006D02*
X150850000Y-104700006D01*
X143700000Y-99200006D02*
X146750000Y-99200006D01*
X143700000Y-102150006D02*
X143700000Y-99200006D01*
X142950000Y-102150006D02*
X143700000Y-102150006D01*
X149800000Y-99200006D02*
X146750000Y-99200006D01*
X149800000Y-102150006D02*
X149800000Y-99200006D01*
X150550000Y-102150006D02*
X149800000Y-102150006D01*
X142950000Y-104400006D02*
X144750000Y-104400006D01*
X142950000Y-103650006D02*
X142950000Y-104400006D01*
X144750000Y-103650006D02*
X142950000Y-103650006D01*
X144750000Y-104400006D02*
X144750000Y-103650006D01*
X148750000Y-104400006D02*
X150550000Y-104400006D01*
X148750000Y-103650006D02*
X148750000Y-104400006D01*
X150550000Y-103650006D02*
X148750000Y-103650006D01*
X150550000Y-104400006D02*
X150550000Y-103650006D01*
X146250000Y-104400006D02*
X147250000Y-104400006D01*
X146250000Y-103650006D02*
X146250000Y-104400006D01*
X147250000Y-103650006D02*
X146250000Y-103650006D01*
X147250000Y-104400006D02*
X147250000Y-103650006D01*
X142940000Y-104410006D02*
X150560000Y-104410006D01*
X142940000Y-98440006D02*
X142940000Y-104410006D01*
X150560000Y-98440006D02*
X142940000Y-98440006D01*
X150560000Y-104410006D02*
X150560000Y-98440006D01*
X150850000Y-92050004D02*
X150850000Y-90800004D01*
X149600000Y-92050004D02*
X150850000Y-92050004D01*
X143700000Y-86550004D02*
X146750000Y-86550004D01*
X143700000Y-89500004D02*
X143700000Y-86550004D01*
X142950000Y-89500004D02*
X143700000Y-89500004D01*
X149800000Y-86550004D02*
X146750000Y-86550004D01*
X149800000Y-89500004D02*
X149800000Y-86550004D01*
X150550000Y-89500004D02*
X149800000Y-89500004D01*
X142950000Y-91750004D02*
X144750000Y-91750004D01*
X142950000Y-91000004D02*
X142950000Y-91750004D01*
X144750000Y-91000004D02*
X142950000Y-91000004D01*
X144750000Y-91750004D02*
X144750000Y-91000004D01*
X148750000Y-91750004D02*
X150550000Y-91750004D01*
X148750000Y-91000004D02*
X148750000Y-91750004D01*
X150550000Y-91000004D02*
X148750000Y-91000004D01*
X150550000Y-91750004D02*
X150550000Y-91000004D01*
X146250000Y-91750004D02*
X147250000Y-91750004D01*
X146250000Y-91000004D02*
X146250000Y-91750004D01*
X147250000Y-91000004D02*
X146250000Y-91000004D01*
X147250000Y-91750004D02*
X147250000Y-91000004D01*
X142940000Y-91760004D02*
X150560000Y-91760004D01*
X142940000Y-85790004D02*
X142940000Y-91760004D01*
X150560000Y-85790004D02*
X142940000Y-85790004D01*
X150560000Y-91760004D02*
X150560000Y-85790004D01*
X150850000Y-79400002D02*
X150850000Y-78150002D01*
X149600000Y-79400002D02*
X150850000Y-79400002D01*
X143700000Y-73900002D02*
X146750000Y-73900002D01*
X143700000Y-76850002D02*
X143700000Y-73900002D01*
X142950000Y-76850002D02*
X143700000Y-76850002D01*
X149800000Y-73900002D02*
X146750000Y-73900002D01*
X149800000Y-76850002D02*
X149800000Y-73900002D01*
X150550000Y-76850002D02*
X149800000Y-76850002D01*
X142950000Y-79100002D02*
X144750000Y-79100002D01*
X142950000Y-78350002D02*
X142950000Y-79100002D01*
X144750000Y-78350002D02*
X142950000Y-78350002D01*
X144750000Y-79100002D02*
X144750000Y-78350002D01*
X148750000Y-79100002D02*
X150550000Y-79100002D01*
X148750000Y-78350002D02*
X148750000Y-79100002D01*
X150550000Y-78350002D02*
X148750000Y-78350002D01*
X150550000Y-79100002D02*
X150550000Y-78350002D01*
X146250000Y-79100002D02*
X147250000Y-79100002D01*
X146250000Y-78350002D02*
X146250000Y-79100002D01*
X147250000Y-78350002D02*
X146250000Y-78350002D01*
X147250000Y-79100002D02*
X147250000Y-78350002D01*
X142940000Y-79110002D02*
X150560000Y-79110002D01*
X142940000Y-73140002D02*
X142940000Y-79110002D01*
X150560000Y-73140002D02*
X142940000Y-73140002D01*
X150560000Y-79110002D02*
X150560000Y-73140002D01*
X150560000Y-66460000D02*
X150560000Y-60490000D01*
X150560000Y-60490000D02*
X142940000Y-60490000D01*
X142940000Y-60490000D02*
X142940000Y-66460000D01*
X142940000Y-66460000D02*
X150560000Y-66460000D01*
X147250000Y-66450000D02*
X147250000Y-65700000D01*
X147250000Y-65700000D02*
X146250000Y-65700000D01*
X146250000Y-65700000D02*
X146250000Y-66450000D01*
X146250000Y-66450000D02*
X147250000Y-66450000D01*
X150550000Y-66450000D02*
X150550000Y-65700000D01*
X150550000Y-65700000D02*
X148750000Y-65700000D01*
X148750000Y-65700000D02*
X148750000Y-66450000D01*
X148750000Y-66450000D02*
X150550000Y-66450000D01*
X144750000Y-66450000D02*
X144750000Y-65700000D01*
X144750000Y-65700000D02*
X142950000Y-65700000D01*
X142950000Y-65700000D02*
X142950000Y-66450000D01*
X142950000Y-66450000D02*
X144750000Y-66450000D01*
X150550000Y-64200000D02*
X149800000Y-64200000D01*
X149800000Y-64200000D02*
X149800000Y-61250000D01*
X149800000Y-61250000D02*
X146750000Y-61250000D01*
X142950000Y-64200000D02*
X143700000Y-64200000D01*
X143700000Y-64200000D02*
X143700000Y-61250000D01*
X143700000Y-61250000D02*
X146750000Y-61250000D01*
X149600000Y-66750000D02*
X150850000Y-66750000D01*
X150850000Y-66750000D02*
X150850000Y-65500000D01*
X161060000Y-66460000D02*
X161060000Y-60490000D01*
X161060000Y-60490000D02*
X153440000Y-60490000D01*
X153440000Y-60490000D02*
X153440000Y-66460000D01*
X153440000Y-66460000D02*
X161060000Y-66460000D01*
X157750000Y-66450000D02*
X157750000Y-65700000D01*
X157750000Y-65700000D02*
X156750000Y-65700000D01*
X156750000Y-65700000D02*
X156750000Y-66450000D01*
X156750000Y-66450000D02*
X157750000Y-66450000D01*
X161050000Y-66450000D02*
X161050000Y-65700000D01*
X161050000Y-65700000D02*
X159250000Y-65700000D01*
X159250000Y-65700000D02*
X159250000Y-66450000D01*
X159250000Y-66450000D02*
X161050000Y-66450000D01*
X155250000Y-66450000D02*
X155250000Y-65700000D01*
X155250000Y-65700000D02*
X153450000Y-65700000D01*
X153450000Y-65700000D02*
X153450000Y-66450000D01*
X153450000Y-66450000D02*
X155250000Y-66450000D01*
X161050000Y-64200000D02*
X160300000Y-64200000D01*
X160300000Y-64200000D02*
X160300000Y-61250000D01*
X160300000Y-61250000D02*
X157250000Y-61250000D01*
X153450000Y-64200000D02*
X154200000Y-64200000D01*
X154200000Y-64200000D02*
X154200000Y-61250000D01*
X154200000Y-61250000D02*
X157250000Y-61250000D01*
X160100000Y-66750000D02*
X161350000Y-66750000D01*
X161350000Y-66750000D02*
X161350000Y-65500000D01*
D10*
X212216670Y-123952390D02*
X212216670Y-124666676D01*
X212169051Y-124809533D01*
X212073813Y-124904771D01*
X211930956Y-124952390D01*
X211835718Y-124952390D01*
X212645242Y-124047629D02*
X212692861Y-124000010D01*
X212788099Y-123952390D01*
X213026194Y-123952390D01*
X213121432Y-124000010D01*
X213169051Y-124047629D01*
X213216670Y-124142867D01*
X213216670Y-124238105D01*
X213169051Y-124380962D01*
X212597623Y-124952390D01*
X213216670Y-124952390D01*
X212216670Y-111302388D02*
X212216670Y-112016674D01*
X212169051Y-112159531D01*
X212073813Y-112254769D01*
X211930956Y-112302388D01*
X211835718Y-112302388D01*
X212645242Y-111397627D02*
X212692861Y-111350008D01*
X212788099Y-111302388D01*
X213026194Y-111302388D01*
X213121432Y-111350008D01*
X213169051Y-111397627D01*
X213216670Y-111492865D01*
X213216670Y-111588103D01*
X213169051Y-111730960D01*
X212597623Y-112302388D01*
X213216670Y-112302388D01*
X212216670Y-98652386D02*
X212216670Y-99366672D01*
X212169051Y-99509529D01*
X212073813Y-99604767D01*
X211930956Y-99652386D01*
X211835718Y-99652386D01*
X212645242Y-98747625D02*
X212692861Y-98700006D01*
X212788099Y-98652386D01*
X213026194Y-98652386D01*
X213121432Y-98700006D01*
X213169051Y-98747625D01*
X213216670Y-98842863D01*
X213216670Y-98938101D01*
X213169051Y-99080958D01*
X212597623Y-99652386D01*
X213216670Y-99652386D01*
X212216670Y-86002384D02*
X212216670Y-86716670D01*
X212169051Y-86859527D01*
X212073813Y-86954765D01*
X211930956Y-87002384D01*
X211835718Y-87002384D01*
X212645242Y-86097623D02*
X212692861Y-86050004D01*
X212788099Y-86002384D01*
X213026194Y-86002384D01*
X213121432Y-86050004D01*
X213169051Y-86097623D01*
X213216670Y-86192861D01*
X213216670Y-86288099D01*
X213169051Y-86430956D01*
X212597623Y-87002384D01*
X213216670Y-87002384D01*
X212216670Y-73352382D02*
X212216670Y-74066668D01*
X212169051Y-74209525D01*
X212073813Y-74304763D01*
X211930956Y-74352382D01*
X211835718Y-74352382D01*
X212645242Y-73447621D02*
X212692861Y-73400002D01*
X212788099Y-73352382D01*
X213026194Y-73352382D01*
X213121432Y-73400002D01*
X213169051Y-73447621D01*
X213216670Y-73542859D01*
X213216670Y-73638097D01*
X213169051Y-73780954D01*
X212597623Y-74352382D01*
X213216670Y-74352382D01*
X212216670Y-60702380D02*
X212216670Y-61416666D01*
X212169051Y-61559523D01*
X212073813Y-61654761D01*
X211930956Y-61702380D01*
X211835718Y-61702380D01*
X212645242Y-60797619D02*
X212692861Y-60750000D01*
X212788099Y-60702380D01*
X213026194Y-60702380D01*
X213121432Y-60750000D01*
X213169051Y-60797619D01*
X213216670Y-60892857D01*
X213216670Y-60988095D01*
X213169051Y-61130952D01*
X212597623Y-61702380D01*
X213216670Y-61702380D01*
X184566668Y-123952390D02*
X184566668Y-124666676D01*
X184519049Y-124809533D01*
X184423811Y-124904771D01*
X184280954Y-124952390D01*
X184185716Y-124952390D01*
X184995240Y-124047629D02*
X185042859Y-124000010D01*
X185138097Y-123952390D01*
X185376192Y-123952390D01*
X185471430Y-124000010D01*
X185519049Y-124047629D01*
X185566668Y-124142867D01*
X185566668Y-124238105D01*
X185519049Y-124380962D01*
X184947621Y-124952390D01*
X185566668Y-124952390D01*
X184566668Y-111302388D02*
X184566668Y-112016674D01*
X184519049Y-112159531D01*
X184423811Y-112254769D01*
X184280954Y-112302388D01*
X184185716Y-112302388D01*
X184995240Y-111397627D02*
X185042859Y-111350008D01*
X185138097Y-111302388D01*
X185376192Y-111302388D01*
X185471430Y-111350008D01*
X185519049Y-111397627D01*
X185566668Y-111492865D01*
X185566668Y-111588103D01*
X185519049Y-111730960D01*
X184947621Y-112302388D01*
X185566668Y-112302388D01*
X184566668Y-98652386D02*
X184566668Y-99366672D01*
X184519049Y-99509529D01*
X184423811Y-99604767D01*
X184280954Y-99652386D01*
X184185716Y-99652386D01*
X184995240Y-98747625D02*
X185042859Y-98700006D01*
X185138097Y-98652386D01*
X185376192Y-98652386D01*
X185471430Y-98700006D01*
X185519049Y-98747625D01*
X185566668Y-98842863D01*
X185566668Y-98938101D01*
X185519049Y-99080958D01*
X184947621Y-99652386D01*
X185566668Y-99652386D01*
X184566668Y-86002384D02*
X184566668Y-86716670D01*
X184519049Y-86859527D01*
X184423811Y-86954765D01*
X184280954Y-87002384D01*
X184185716Y-87002384D01*
X184995240Y-86097623D02*
X185042859Y-86050004D01*
X185138097Y-86002384D01*
X185376192Y-86002384D01*
X185471430Y-86050004D01*
X185519049Y-86097623D01*
X185566668Y-86192861D01*
X185566668Y-86288099D01*
X185519049Y-86430956D01*
X184947621Y-87002384D01*
X185566668Y-87002384D01*
X184566668Y-73352382D02*
X184566668Y-74066668D01*
X184519049Y-74209525D01*
X184423811Y-74304763D01*
X184280954Y-74352382D01*
X184185716Y-74352382D01*
X184995240Y-73447621D02*
X185042859Y-73400002D01*
X185138097Y-73352382D01*
X185376192Y-73352382D01*
X185471430Y-73400002D01*
X185519049Y-73447621D01*
X185566668Y-73542859D01*
X185566668Y-73638097D01*
X185519049Y-73780954D01*
X184947621Y-74352382D01*
X185566668Y-74352382D01*
X184566668Y-60702380D02*
X184566668Y-61416666D01*
X184519049Y-61559523D01*
X184423811Y-61654761D01*
X184280954Y-61702380D01*
X184185716Y-61702380D01*
X184995240Y-60797619D02*
X185042859Y-60750000D01*
X185138097Y-60702380D01*
X185376192Y-60702380D01*
X185471430Y-60750000D01*
X185519049Y-60797619D01*
X185566668Y-60892857D01*
X185566668Y-60988095D01*
X185519049Y-61130952D01*
X184947621Y-61702380D01*
X185566668Y-61702380D01*
X156916666Y-123952390D02*
X156916666Y-124666676D01*
X156869047Y-124809533D01*
X156773809Y-124904771D01*
X156630952Y-124952390D01*
X156535714Y-124952390D01*
X157345238Y-124047629D02*
X157392857Y-124000010D01*
X157488095Y-123952390D01*
X157726190Y-123952390D01*
X157821428Y-124000010D01*
X157869047Y-124047629D01*
X157916666Y-124142867D01*
X157916666Y-124238105D01*
X157869047Y-124380962D01*
X157297619Y-124952390D01*
X157916666Y-124952390D01*
X156916666Y-111302388D02*
X156916666Y-112016674D01*
X156869047Y-112159531D01*
X156773809Y-112254769D01*
X156630952Y-112302388D01*
X156535714Y-112302388D01*
X157345238Y-111397627D02*
X157392857Y-111350008D01*
X157488095Y-111302388D01*
X157726190Y-111302388D01*
X157821428Y-111350008D01*
X157869047Y-111397627D01*
X157916666Y-111492865D01*
X157916666Y-111588103D01*
X157869047Y-111730960D01*
X157297619Y-112302388D01*
X157916666Y-112302388D01*
X156916666Y-98652386D02*
X156916666Y-99366672D01*
X156869047Y-99509529D01*
X156773809Y-99604767D01*
X156630952Y-99652386D01*
X156535714Y-99652386D01*
X157345238Y-98747625D02*
X157392857Y-98700006D01*
X157488095Y-98652386D01*
X157726190Y-98652386D01*
X157821428Y-98700006D01*
X157869047Y-98747625D01*
X157916666Y-98842863D01*
X157916666Y-98938101D01*
X157869047Y-99080958D01*
X157297619Y-99652386D01*
X157916666Y-99652386D01*
X156916666Y-86002384D02*
X156916666Y-86716670D01*
X156869047Y-86859527D01*
X156773809Y-86954765D01*
X156630952Y-87002384D01*
X156535714Y-87002384D01*
X157345238Y-86097623D02*
X157392857Y-86050004D01*
X157488095Y-86002384D01*
X157726190Y-86002384D01*
X157821428Y-86050004D01*
X157869047Y-86097623D01*
X157916666Y-86192861D01*
X157916666Y-86288099D01*
X157869047Y-86430956D01*
X157297619Y-87002384D01*
X157916666Y-87002384D01*
X156916666Y-73352382D02*
X156916666Y-74066668D01*
X156869047Y-74209525D01*
X156773809Y-74304763D01*
X156630952Y-74352382D01*
X156535714Y-74352382D01*
X157345238Y-73447621D02*
X157392857Y-73400002D01*
X157488095Y-73352382D01*
X157726190Y-73352382D01*
X157821428Y-73400002D01*
X157869047Y-73447621D01*
X157916666Y-73542859D01*
X157916666Y-73638097D01*
X157869047Y-73780954D01*
X157297619Y-74352382D01*
X157916666Y-74352382D01*
X201716670Y-123952390D02*
X201716670Y-124666676D01*
X201669051Y-124809533D01*
X201573813Y-124904771D01*
X201430956Y-124952390D01*
X201335718Y-124952390D01*
X202716670Y-124952390D02*
X202145242Y-124952390D01*
X202430956Y-124952390D02*
X202430956Y-123952390D01*
X202335718Y-124095248D01*
X202240480Y-124190486D01*
X202145242Y-124238105D01*
X201716670Y-111302388D02*
X201716670Y-112016674D01*
X201669051Y-112159531D01*
X201573813Y-112254769D01*
X201430956Y-112302388D01*
X201335718Y-112302388D01*
X202716670Y-112302388D02*
X202145242Y-112302388D01*
X202430956Y-112302388D02*
X202430956Y-111302388D01*
X202335718Y-111445246D01*
X202240480Y-111540484D01*
X202145242Y-111588103D01*
X201716670Y-98652386D02*
X201716670Y-99366672D01*
X201669051Y-99509529D01*
X201573813Y-99604767D01*
X201430956Y-99652386D01*
X201335718Y-99652386D01*
X202716670Y-99652386D02*
X202145242Y-99652386D01*
X202430956Y-99652386D02*
X202430956Y-98652386D01*
X202335718Y-98795244D01*
X202240480Y-98890482D01*
X202145242Y-98938101D01*
X201716670Y-86002384D02*
X201716670Y-86716670D01*
X201669051Y-86859527D01*
X201573813Y-86954765D01*
X201430956Y-87002384D01*
X201335718Y-87002384D01*
X202716670Y-87002384D02*
X202145242Y-87002384D01*
X202430956Y-87002384D02*
X202430956Y-86002384D01*
X202335718Y-86145242D01*
X202240480Y-86240480D01*
X202145242Y-86288099D01*
X201716670Y-73352382D02*
X201716670Y-74066668D01*
X201669051Y-74209525D01*
X201573813Y-74304763D01*
X201430956Y-74352382D01*
X201335718Y-74352382D01*
X202716670Y-74352382D02*
X202145242Y-74352382D01*
X202430956Y-74352382D02*
X202430956Y-73352382D01*
X202335718Y-73495240D01*
X202240480Y-73590478D01*
X202145242Y-73638097D01*
X201716670Y-60702380D02*
X201716670Y-61416666D01*
X201669051Y-61559523D01*
X201573813Y-61654761D01*
X201430956Y-61702380D01*
X201335718Y-61702380D01*
X202716670Y-61702380D02*
X202145242Y-61702380D01*
X202430956Y-61702380D02*
X202430956Y-60702380D01*
X202335718Y-60845238D01*
X202240480Y-60940476D01*
X202145242Y-60988095D01*
X174066668Y-123952390D02*
X174066668Y-124666676D01*
X174019049Y-124809533D01*
X173923811Y-124904771D01*
X173780954Y-124952390D01*
X173685716Y-124952390D01*
X175066668Y-124952390D02*
X174495240Y-124952390D01*
X174780954Y-124952390D02*
X174780954Y-123952390D01*
X174685716Y-124095248D01*
X174590478Y-124190486D01*
X174495240Y-124238105D01*
X174066668Y-111302388D02*
X174066668Y-112016674D01*
X174019049Y-112159531D01*
X173923811Y-112254769D01*
X173780954Y-112302388D01*
X173685716Y-112302388D01*
X175066668Y-112302388D02*
X174495240Y-112302388D01*
X174780954Y-112302388D02*
X174780954Y-111302388D01*
X174685716Y-111445246D01*
X174590478Y-111540484D01*
X174495240Y-111588103D01*
X174066668Y-98652386D02*
X174066668Y-99366672D01*
X174019049Y-99509529D01*
X173923811Y-99604767D01*
X173780954Y-99652386D01*
X173685716Y-99652386D01*
X175066668Y-99652386D02*
X174495240Y-99652386D01*
X174780954Y-99652386D02*
X174780954Y-98652386D01*
X174685716Y-98795244D01*
X174590478Y-98890482D01*
X174495240Y-98938101D01*
X174066668Y-86002384D02*
X174066668Y-86716670D01*
X174019049Y-86859527D01*
X173923811Y-86954765D01*
X173780954Y-87002384D01*
X173685716Y-87002384D01*
X175066668Y-87002384D02*
X174495240Y-87002384D01*
X174780954Y-87002384D02*
X174780954Y-86002384D01*
X174685716Y-86145242D01*
X174590478Y-86240480D01*
X174495240Y-86288099D01*
X174066668Y-73352382D02*
X174066668Y-74066668D01*
X174019049Y-74209525D01*
X173923811Y-74304763D01*
X173780954Y-74352382D01*
X173685716Y-74352382D01*
X175066668Y-74352382D02*
X174495240Y-74352382D01*
X174780954Y-74352382D02*
X174780954Y-73352382D01*
X174685716Y-73495240D01*
X174590478Y-73590478D01*
X174495240Y-73638097D01*
X174066668Y-60702380D02*
X174066668Y-61416666D01*
X174019049Y-61559523D01*
X173923811Y-61654761D01*
X173780954Y-61702380D01*
X173685716Y-61702380D01*
X175066668Y-61702380D02*
X174495240Y-61702380D01*
X174780954Y-61702380D02*
X174780954Y-60702380D01*
X174685716Y-60845238D01*
X174590478Y-60940476D01*
X174495240Y-60988095D01*
X146416666Y-123952390D02*
X146416666Y-124666676D01*
X146369047Y-124809533D01*
X146273809Y-124904771D01*
X146130952Y-124952390D01*
X146035714Y-124952390D01*
X147416666Y-124952390D02*
X146845238Y-124952390D01*
X147130952Y-124952390D02*
X147130952Y-123952390D01*
X147035714Y-124095248D01*
X146940476Y-124190486D01*
X146845238Y-124238105D01*
X146416666Y-111302388D02*
X146416666Y-112016674D01*
X146369047Y-112159531D01*
X146273809Y-112254769D01*
X146130952Y-112302388D01*
X146035714Y-112302388D01*
X147416666Y-112302388D02*
X146845238Y-112302388D01*
X147130952Y-112302388D02*
X147130952Y-111302388D01*
X147035714Y-111445246D01*
X146940476Y-111540484D01*
X146845238Y-111588103D01*
X146416666Y-98652386D02*
X146416666Y-99366672D01*
X146369047Y-99509529D01*
X146273809Y-99604767D01*
X146130952Y-99652386D01*
X146035714Y-99652386D01*
X147416666Y-99652386D02*
X146845238Y-99652386D01*
X147130952Y-99652386D02*
X147130952Y-98652386D01*
X147035714Y-98795244D01*
X146940476Y-98890482D01*
X146845238Y-98938101D01*
X146416666Y-86002384D02*
X146416666Y-86716670D01*
X146369047Y-86859527D01*
X146273809Y-86954765D01*
X146130952Y-87002384D01*
X146035714Y-87002384D01*
X147416666Y-87002384D02*
X146845238Y-87002384D01*
X147130952Y-87002384D02*
X147130952Y-86002384D01*
X147035714Y-86145242D01*
X146940476Y-86240480D01*
X146845238Y-86288099D01*
X146416666Y-73352382D02*
X146416666Y-74066668D01*
X146369047Y-74209525D01*
X146273809Y-74304763D01*
X146130952Y-74352382D01*
X146035714Y-74352382D01*
X147416666Y-74352382D02*
X146845238Y-74352382D01*
X147130952Y-74352382D02*
X147130952Y-73352382D01*
X147035714Y-73495240D01*
X146940476Y-73590478D01*
X146845238Y-73638097D01*
X146416666Y-60702380D02*
X146416666Y-61416666D01*
X146369047Y-61559523D01*
X146273809Y-61654761D01*
X146130952Y-61702380D01*
X146035714Y-61702380D01*
X147416666Y-61702380D02*
X146845238Y-61702380D01*
X147130952Y-61702380D02*
X147130952Y-60702380D01*
X147035714Y-60845238D01*
X146940476Y-60940476D01*
X146845238Y-60988095D01*
X156916666Y-60702380D02*
X156916666Y-61416666D01*
X156869047Y-61559523D01*
X156773809Y-61654761D01*
X156630952Y-61702380D01*
X156535714Y-61702380D01*
X157345238Y-60797619D02*
X157392857Y-60750000D01*
X157488095Y-60702380D01*
X157726190Y-60702380D01*
X157821428Y-60750000D01*
X157869047Y-60797619D01*
X157916666Y-60892857D01*
X157916666Y-60988095D01*
X157869047Y-61130952D01*
X157297619Y-61702380D01*
X157916666Y-61702380D01*
M02*
