G04 #@! TF.GenerationSoftware,KiCad,Pcbnew,5.0.2+dfsg1-1*
G04 #@! TF.CreationDate,2021-08-07T23:33:46+09:00*
G04 #@! TF.ProjectId,juice-plus,6a756963-652d-4706-9c75-732e6b696361,rev?*
G04 #@! TF.SameCoordinates,Original*
G04 #@! TF.FileFunction,Legend,Top*
G04 #@! TF.FilePolarity,Positive*
%FSLAX46Y46*%
G04 Gerber Fmt 4.6, Leading zero omitted, Abs format (unit mm)*
G04 Created by KiCad (PCBNEW 5.0.2+dfsg1-1) date Sat 07 Aug 2021 11:33:46 PM JST*
%MOMM*%
%LPD*%
G01*
G04 APERTURE LIST*
%ADD10C,0.200000*%
%ADD11C,0.300000*%
%ADD12C,0.150000*%
%ADD13C,0.120000*%
G04 APERTURE END LIST*
D10*
X121467619Y-124515714D02*
X121943809Y-124182380D01*
X121467619Y-123944285D02*
X122467619Y-123944285D01*
X122467619Y-124325238D01*
X122420000Y-124420476D01*
X122372380Y-124468095D01*
X122277142Y-124515714D01*
X122134285Y-124515714D01*
X122039047Y-124468095D01*
X121991428Y-124420476D01*
X121943809Y-124325238D01*
X121943809Y-123944285D01*
X121515238Y-125325238D02*
X121467619Y-125230000D01*
X121467619Y-125039523D01*
X121515238Y-124944285D01*
X121610476Y-124896666D01*
X121991428Y-124896666D01*
X122086666Y-124944285D01*
X122134285Y-125039523D01*
X122134285Y-125230000D01*
X122086666Y-125325238D01*
X121991428Y-125372857D01*
X121896190Y-125372857D01*
X121800952Y-124896666D01*
X122134285Y-125706190D02*
X121467619Y-125944285D01*
X122134285Y-126182380D01*
X121562857Y-126563333D02*
X121515238Y-126610952D01*
X121467619Y-126563333D01*
X121515238Y-126515714D01*
X121562857Y-126563333D01*
X121467619Y-126563333D01*
X121467619Y-127563333D02*
X121467619Y-126991904D01*
X121467619Y-127277619D02*
X122467619Y-127277619D01*
X122324761Y-127182380D01*
X122229523Y-127087142D01*
X122181904Y-126991904D01*
D11*
X122741428Y-106557857D02*
X121670000Y-106557857D01*
X121455714Y-106486428D01*
X121312857Y-106343571D01*
X121241428Y-106129285D01*
X121241428Y-105986428D01*
X122241428Y-107915000D02*
X121241428Y-107915000D01*
X122241428Y-107272142D02*
X121455714Y-107272142D01*
X121312857Y-107343571D01*
X121241428Y-107486428D01*
X121241428Y-107700714D01*
X121312857Y-107843571D01*
X121384285Y-107915000D01*
X121241428Y-108629285D02*
X122241428Y-108629285D01*
X122741428Y-108629285D02*
X122670000Y-108557857D01*
X122598571Y-108629285D01*
X122670000Y-108700714D01*
X122741428Y-108629285D01*
X122598571Y-108629285D01*
X121312857Y-109986428D02*
X121241428Y-109843571D01*
X121241428Y-109557857D01*
X121312857Y-109415000D01*
X121384285Y-109343571D01*
X121527142Y-109272142D01*
X121955714Y-109272142D01*
X122098571Y-109343571D01*
X122170000Y-109415000D01*
X122241428Y-109557857D01*
X122241428Y-109843571D01*
X122170000Y-109986428D01*
X121312857Y-111200714D02*
X121241428Y-111057857D01*
X121241428Y-110772142D01*
X121312857Y-110629285D01*
X121455714Y-110557857D01*
X122027142Y-110557857D01*
X122170000Y-110629285D01*
X122241428Y-110772142D01*
X122241428Y-111057857D01*
X122170000Y-111200714D01*
X122027142Y-111272142D01*
X121884285Y-111272142D01*
X121741428Y-110557857D01*
X121241428Y-113057857D02*
X122741428Y-113057857D01*
X122741428Y-113629285D01*
X122670000Y-113772142D01*
X122598571Y-113843571D01*
X122455714Y-113915000D01*
X122241428Y-113915000D01*
X122098571Y-113843571D01*
X122027142Y-113772142D01*
X121955714Y-113629285D01*
X121955714Y-113057857D01*
X121241428Y-114772142D02*
X121312857Y-114629285D01*
X121455714Y-114557857D01*
X122741428Y-114557857D01*
X122241428Y-115986428D02*
X121241428Y-115986428D01*
X122241428Y-115343571D02*
X121455714Y-115343571D01*
X121312857Y-115415000D01*
X121241428Y-115557857D01*
X121241428Y-115772142D01*
X121312857Y-115915000D01*
X121384285Y-115986428D01*
X121312857Y-116629285D02*
X121241428Y-116772142D01*
X121241428Y-117057857D01*
X121312857Y-117200714D01*
X121455714Y-117272142D01*
X121527142Y-117272142D01*
X121670000Y-117200714D01*
X121741428Y-117057857D01*
X121741428Y-116843571D01*
X121812857Y-116700714D01*
X121955714Y-116629285D01*
X122027142Y-116629285D01*
X122170000Y-116700714D01*
X122241428Y-116843571D01*
X122241428Y-117057857D01*
X122170000Y-117200714D01*
X121241428Y-119057857D02*
X122741428Y-119057857D01*
X122027142Y-119057857D02*
X122027142Y-119914999D01*
X121241428Y-119914999D02*
X122741428Y-119914999D01*
X122741428Y-120414999D02*
X121241428Y-120914999D01*
X122741428Y-121414999D01*
X50137142Y-141067857D02*
X50208571Y-140853571D01*
X50208571Y-140496428D01*
X50137142Y-140353571D01*
X50065714Y-140282142D01*
X49922857Y-140210714D01*
X49780000Y-140210714D01*
X49637142Y-140282142D01*
X49565714Y-140353571D01*
X49494285Y-140496428D01*
X49422857Y-140782142D01*
X49351428Y-140925000D01*
X49280000Y-140996428D01*
X49137142Y-141067857D01*
X48994285Y-141067857D01*
X48851428Y-140996428D01*
X48780000Y-140925000D01*
X48708571Y-140782142D01*
X48708571Y-140425000D01*
X48780000Y-140210714D01*
X49208571Y-139567857D02*
X50208571Y-139567857D01*
X49351428Y-139567857D02*
X49280000Y-139496428D01*
X49208571Y-139353571D01*
X49208571Y-139139285D01*
X49280000Y-138996428D01*
X49422857Y-138925000D01*
X50208571Y-138925000D01*
X50208571Y-137567857D02*
X49422857Y-137567857D01*
X49280000Y-137639285D01*
X49208571Y-137782142D01*
X49208571Y-138067857D01*
X49280000Y-138210714D01*
X50137142Y-137567857D02*
X50208571Y-137710714D01*
X50208571Y-138067857D01*
X50137142Y-138210714D01*
X49994285Y-138282142D01*
X49851428Y-138282142D01*
X49708571Y-138210714D01*
X49637142Y-138067857D01*
X49637142Y-137710714D01*
X49565714Y-137567857D01*
X50208571Y-136853571D02*
X48708571Y-136853571D01*
X49637142Y-136710714D02*
X50208571Y-136282142D01*
X49208571Y-136282142D02*
X49780000Y-136853571D01*
X50137142Y-135067857D02*
X50208571Y-135210714D01*
X50208571Y-135496428D01*
X50137142Y-135639285D01*
X49994285Y-135710714D01*
X49422857Y-135710714D01*
X49280000Y-135639285D01*
X49208571Y-135496428D01*
X49208571Y-135210714D01*
X49280000Y-135067857D01*
X49422857Y-134996428D01*
X49565714Y-134996428D01*
X49708571Y-135710714D01*
X48708571Y-132925000D02*
X48708571Y-132639285D01*
X48780000Y-132496428D01*
X48922857Y-132353571D01*
X49208571Y-132282142D01*
X49708571Y-132282142D01*
X49994285Y-132353571D01*
X50137142Y-132496428D01*
X50208571Y-132639285D01*
X50208571Y-132925000D01*
X50137142Y-133067857D01*
X49994285Y-133210714D01*
X49708571Y-133282142D01*
X49208571Y-133282142D01*
X48922857Y-133210714D01*
X48780000Y-133067857D01*
X48708571Y-132925000D01*
X50208571Y-131639285D02*
X49208571Y-131639285D01*
X48708571Y-131639285D02*
X48780000Y-131710714D01*
X48851428Y-131639285D01*
X48780000Y-131567857D01*
X48708571Y-131639285D01*
X48851428Y-131639285D01*
X50208571Y-130710714D02*
X50137142Y-130853571D01*
X49994285Y-130925000D01*
X48708571Y-130925000D01*
X50208571Y-128996428D02*
X48708571Y-128996428D01*
X49422857Y-128996428D02*
X49422857Y-128139285D01*
X50208571Y-128139285D02*
X48708571Y-128139285D01*
X50208571Y-126782142D02*
X49422857Y-126782142D01*
X49280000Y-126853571D01*
X49208571Y-126996428D01*
X49208571Y-127282142D01*
X49280000Y-127425000D01*
X50137142Y-126782142D02*
X50208571Y-126925000D01*
X50208571Y-127282142D01*
X50137142Y-127425000D01*
X49994285Y-127496428D01*
X49851428Y-127496428D01*
X49708571Y-127425000D01*
X49637142Y-127282142D01*
X49637142Y-126925000D01*
X49565714Y-126782142D01*
X50208571Y-126067857D02*
X49208571Y-126067857D01*
X49494285Y-126067857D02*
X49351428Y-125996428D01*
X49280000Y-125925000D01*
X49208571Y-125782142D01*
X49208571Y-125639285D01*
X50208571Y-124496428D02*
X48708571Y-124496428D01*
X50137142Y-124496428D02*
X50208571Y-124639285D01*
X50208571Y-124925000D01*
X50137142Y-125067857D01*
X50065714Y-125139285D01*
X49922857Y-125210714D01*
X49494285Y-125210714D01*
X49351428Y-125139285D01*
X49280000Y-125067857D01*
X49208571Y-124925000D01*
X49208571Y-124639285D01*
X49280000Y-124496428D01*
X49208571Y-123925000D02*
X50208571Y-123639285D01*
X49494285Y-123353571D01*
X50208571Y-123067857D01*
X49208571Y-122782142D01*
X50208571Y-121567857D02*
X49422857Y-121567857D01*
X49280000Y-121639285D01*
X49208571Y-121782142D01*
X49208571Y-122067857D01*
X49280000Y-122210714D01*
X50137142Y-121567857D02*
X50208571Y-121710714D01*
X50208571Y-122067857D01*
X50137142Y-122210714D01*
X49994285Y-122282142D01*
X49851428Y-122282142D01*
X49708571Y-122210714D01*
X49637142Y-122067857D01*
X49637142Y-121710714D01*
X49565714Y-121567857D01*
X50208571Y-120853571D02*
X49208571Y-120853571D01*
X49494285Y-120853571D02*
X49351428Y-120782142D01*
X49280000Y-120710714D01*
X49208571Y-120567857D01*
X49208571Y-120425000D01*
X50137142Y-119353571D02*
X50208571Y-119496428D01*
X50208571Y-119782142D01*
X50137142Y-119925000D01*
X49994285Y-119996428D01*
X49422857Y-119996428D01*
X49280000Y-119925000D01*
X49208571Y-119782142D01*
X49208571Y-119496428D01*
X49280000Y-119353571D01*
X49422857Y-119282142D01*
X49565714Y-119282142D01*
X49708571Y-119996428D01*
D12*
G36*
X116205000Y-144145000D02*
X116205000Y-145415000D01*
X116840000Y-144780000D01*
X116205000Y-144145000D01*
G37*
X116205000Y-144145000D02*
X116205000Y-145415000D01*
X116840000Y-144780000D01*
X116205000Y-144145000D01*
G36*
X53975000Y-144145000D02*
X53975000Y-145415000D01*
X54610000Y-144780000D01*
X53975000Y-144145000D01*
G37*
X53975000Y-144145000D02*
X53975000Y-145415000D01*
X54610000Y-144780000D01*
X53975000Y-144145000D01*
D10*
X110490000Y-153035000D02*
X110490000Y-149860000D01*
X115570000Y-153035000D02*
X110490000Y-153035000D01*
X115570000Y-149860000D02*
X115570000Y-153035000D01*
X110490000Y-149860000D02*
X115570000Y-149860000D01*
X60960000Y-153035000D02*
X60960000Y-149860000D01*
X66040000Y-153035000D02*
X60960000Y-153035000D01*
X66040000Y-149860000D02*
X66040000Y-153035000D01*
X60960000Y-149860000D02*
X66040000Y-149860000D01*
X83820000Y-151130000D02*
X87630000Y-151130000D01*
X84963095Y-151900000D02*
X84867857Y-151852380D01*
X84725000Y-151852380D01*
X84582142Y-151900000D01*
X84486904Y-151995238D01*
X84439285Y-152090476D01*
X84391666Y-152280952D01*
X84391666Y-152423809D01*
X84439285Y-152614285D01*
X84486904Y-152709523D01*
X84582142Y-152804761D01*
X84725000Y-152852380D01*
X84820238Y-152852380D01*
X84963095Y-152804761D01*
X85010714Y-152757142D01*
X85010714Y-152423809D01*
X84820238Y-152423809D01*
X85439285Y-152852380D02*
X85439285Y-151852380D01*
X86010714Y-152852380D01*
X86010714Y-151852380D01*
X86486904Y-152852380D02*
X86486904Y-151852380D01*
X86725000Y-151852380D01*
X86867857Y-151900000D01*
X86963095Y-151995238D01*
X87010714Y-152090476D01*
X87058333Y-152280952D01*
X87058333Y-152423809D01*
X87010714Y-152614285D01*
X86963095Y-152709523D01*
X86867857Y-152804761D01*
X86725000Y-152852380D01*
X86486904Y-152852380D01*
D12*
G36*
X105410000Y-149860000D02*
X110490000Y-149860000D01*
X110490000Y-153035000D01*
X105410000Y-153035000D01*
X105410000Y-149860000D01*
G37*
X105410000Y-149860000D02*
X110490000Y-149860000D01*
X110490000Y-153035000D01*
X105410000Y-153035000D01*
X105410000Y-149860000D01*
G36*
X55880000Y-149860000D02*
X60960000Y-149860000D01*
X60960000Y-153035000D01*
X55880000Y-153035000D01*
X55880000Y-149860000D01*
G37*
X55880000Y-149860000D02*
X60960000Y-149860000D01*
X60960000Y-153035000D01*
X55880000Y-153035000D01*
X55880000Y-149860000D01*
D11*
X116737142Y-142053571D02*
X117237142Y-143553571D01*
X117737142Y-142053571D01*
X118522857Y-142053571D02*
X118808571Y-142053571D01*
X118951428Y-142125000D01*
X119094285Y-142267857D01*
X119165714Y-142553571D01*
X119165714Y-143053571D01*
X119094285Y-143339285D01*
X118951428Y-143482142D01*
X118808571Y-143553571D01*
X118522857Y-143553571D01*
X118380000Y-143482142D01*
X118237142Y-143339285D01*
X118165714Y-143053571D01*
X118165714Y-142553571D01*
X118237142Y-142267857D01*
X118380000Y-142125000D01*
X118522857Y-142053571D01*
X119808571Y-142053571D02*
X119808571Y-143267857D01*
X119880000Y-143410714D01*
X119951428Y-143482142D01*
X120094285Y-143553571D01*
X120380000Y-143553571D01*
X120522857Y-143482142D01*
X120594285Y-143410714D01*
X120665714Y-143267857D01*
X120665714Y-142053571D01*
X121165714Y-142053571D02*
X122022857Y-142053571D01*
X121594285Y-143553571D02*
X121594285Y-142053571D01*
X51062142Y-142053571D02*
X51562142Y-143553571D01*
X52062142Y-142053571D01*
X52562142Y-143553571D02*
X52562142Y-142053571D01*
X53276428Y-143553571D02*
X53276428Y-142053571D01*
X54133571Y-143553571D01*
X54133571Y-142053571D01*
D13*
G04 #@! TO.C,D1*
X68380000Y-152090000D02*
X71240000Y-152090000D01*
X68380000Y-150170000D02*
X68380000Y-152090000D01*
X71240000Y-150170000D02*
X68380000Y-150170000D01*
G04 #@! TO.C,D2*
X100210000Y-152090000D02*
X103070000Y-152090000D01*
X103070000Y-152090000D02*
X103070000Y-150170000D01*
X103070000Y-150170000D02*
X100210000Y-150170000D01*
G04 #@! TO.C,F1*
X84180000Y-149315000D02*
X84180000Y-142375000D01*
X84180000Y-142375000D02*
X67980000Y-142375000D01*
X67980000Y-142375000D02*
X67980000Y-149315000D01*
X67980000Y-149315000D02*
X84180000Y-149315000D01*
X76830000Y-145845000D02*
X75330000Y-145845000D01*
X74480000Y-143845000D02*
X77680000Y-143845000D01*
X77680000Y-147845000D02*
X74480000Y-147845000D01*
G04 #@! TO.C,F2*
X96970000Y-147845000D02*
X93770000Y-147845000D01*
X93770000Y-143845000D02*
X96970000Y-143845000D01*
X96120000Y-145845000D02*
X94620000Y-145845000D01*
X87270000Y-149315000D02*
X103470000Y-149315000D01*
X87270000Y-142375000D02*
X87270000Y-149315000D01*
X103470000Y-142375000D02*
X87270000Y-142375000D01*
X103470000Y-149315000D02*
X103470000Y-142375000D01*
G04 #@! TO.C,R1*
X76071252Y-150420000D02*
X75548748Y-150420000D01*
X76071252Y-151840000D02*
X75548748Y-151840000D01*
G04 #@! TO.C,R2*
X95233748Y-151840000D02*
X95756252Y-151840000D01*
X95233748Y-150420000D02*
X95756252Y-150420000D01*
D12*
G04 #@! TO.C,TP1*
X83080000Y-152030000D02*
X79480000Y-152030000D01*
X79480000Y-152030000D02*
X78980000Y-151530000D01*
X78980000Y-151530000D02*
X78980000Y-150730000D01*
X78980000Y-150730000D02*
X79480000Y-150230000D01*
X79480000Y-150230000D02*
X83080000Y-150230000D01*
X83080000Y-150230000D02*
X83580000Y-150730000D01*
X83580000Y-150730000D02*
X83580000Y-151530000D01*
X83580000Y-151530000D02*
X83080000Y-152030000D01*
G04 #@! TO.C,TP2*
X87870000Y-150730000D02*
X88370000Y-150230000D01*
X87870000Y-151530000D02*
X87870000Y-150730000D01*
X88370000Y-152030000D02*
X87870000Y-151530000D01*
X91970000Y-152030000D02*
X88370000Y-152030000D01*
X92470000Y-151530000D02*
X91970000Y-152030000D01*
X92470000Y-150730000D02*
X92470000Y-151530000D01*
X91970000Y-150230000D02*
X92470000Y-150730000D01*
X88370000Y-150230000D02*
X91970000Y-150230000D01*
D13*
G04 #@! TO.C,J1*
X60600000Y-146685000D02*
G75*
G03X60600000Y-146685000I-2180000J0D01*
G01*
X65600000Y-146685000D02*
G75*
G03X65600000Y-146685000I-2180000J0D01*
G01*
X55860000Y-151285000D02*
X65980000Y-151285000D01*
X55860000Y-150185000D02*
X65980000Y-150185000D01*
X55860000Y-142625000D02*
X65980000Y-142625000D01*
X55860000Y-151745000D02*
X65980000Y-151745000D01*
X55860000Y-142625000D02*
X55860000Y-151745000D01*
X65980000Y-142625000D02*
X65980000Y-151745000D01*
X60074000Y-145297000D02*
X59967000Y-145404000D01*
X57138000Y-148232000D02*
X57032000Y-148339000D01*
X59808000Y-145031000D02*
X59701000Y-145138000D01*
X56872000Y-147966000D02*
X56766000Y-148073000D01*
X65074000Y-145297000D02*
X64679000Y-145693000D01*
X62413000Y-147959000D02*
X62033000Y-148339000D01*
X64808000Y-145031000D02*
X64428000Y-145411000D01*
X62162000Y-147677000D02*
X61767000Y-148073000D01*
X55620000Y-151345000D02*
X55620000Y-151985000D01*
X55620000Y-151985000D02*
X56020000Y-151985000D01*
G04 #@! TO.C,C1*
X66715000Y-99100000D02*
G75*
G03X66715000Y-99100000I-5120000J0D01*
G01*
X56515000Y-99100000D02*
X66675000Y-99100000D01*
X56515000Y-99060000D02*
X66675000Y-99060000D01*
X56515000Y-99020000D02*
X66675000Y-99020000D01*
X56516000Y-98980000D02*
X66674000Y-98980000D01*
X56517000Y-98940000D02*
X66673000Y-98940000D01*
X56518000Y-98900000D02*
X66672000Y-98900000D01*
X56520000Y-98860000D02*
X66670000Y-98860000D01*
X56522000Y-98820000D02*
X66668000Y-98820000D01*
X56525000Y-98780000D02*
X66665000Y-98780000D01*
X56527000Y-98740000D02*
X66663000Y-98740000D01*
X56530000Y-98700000D02*
X66660000Y-98700000D01*
X56533000Y-98660000D02*
X66657000Y-98660000D01*
X56537000Y-98620000D02*
X66653000Y-98620000D01*
X56541000Y-98580000D02*
X66649000Y-98580000D01*
X56545000Y-98540000D02*
X66645000Y-98540000D01*
X56550000Y-98500000D02*
X66640000Y-98500000D01*
X56555000Y-98460000D02*
X66635000Y-98460000D01*
X56560000Y-98420000D02*
X66630000Y-98420000D01*
X56565000Y-98379000D02*
X66625000Y-98379000D01*
X56571000Y-98339000D02*
X66619000Y-98339000D01*
X56577000Y-98299000D02*
X66613000Y-98299000D01*
X56584000Y-98259000D02*
X66606000Y-98259000D01*
X56591000Y-98219000D02*
X66599000Y-98219000D01*
X56598000Y-98179000D02*
X66592000Y-98179000D01*
X56605000Y-98139000D02*
X66585000Y-98139000D01*
X56613000Y-98099000D02*
X66577000Y-98099000D01*
X56621000Y-98059000D02*
X66569000Y-98059000D01*
X56630000Y-98019000D02*
X66560000Y-98019000D01*
X56639000Y-97979000D02*
X66551000Y-97979000D01*
X56648000Y-97939000D02*
X66542000Y-97939000D01*
X56657000Y-97899000D02*
X66533000Y-97899000D01*
X56667000Y-97859000D02*
X66523000Y-97859000D01*
X56677000Y-97819000D02*
X60354000Y-97819000D01*
X62836000Y-97819000D02*
X66513000Y-97819000D01*
X56688000Y-97779000D02*
X60354000Y-97779000D01*
X62836000Y-97779000D02*
X66502000Y-97779000D01*
X56698000Y-97739000D02*
X60354000Y-97739000D01*
X62836000Y-97739000D02*
X66492000Y-97739000D01*
X56710000Y-97699000D02*
X60354000Y-97699000D01*
X62836000Y-97699000D02*
X66480000Y-97699000D01*
X56721000Y-97659000D02*
X60354000Y-97659000D01*
X62836000Y-97659000D02*
X66469000Y-97659000D01*
X56733000Y-97619000D02*
X60354000Y-97619000D01*
X62836000Y-97619000D02*
X66457000Y-97619000D01*
X56745000Y-97579000D02*
X60354000Y-97579000D01*
X62836000Y-97579000D02*
X66445000Y-97579000D01*
X56758000Y-97539000D02*
X60354000Y-97539000D01*
X62836000Y-97539000D02*
X66432000Y-97539000D01*
X56771000Y-97499000D02*
X60354000Y-97499000D01*
X62836000Y-97499000D02*
X66419000Y-97499000D01*
X56784000Y-97459000D02*
X60354000Y-97459000D01*
X62836000Y-97459000D02*
X66406000Y-97459000D01*
X56798000Y-97419000D02*
X60354000Y-97419000D01*
X62836000Y-97419000D02*
X66392000Y-97419000D01*
X56812000Y-97379000D02*
X60354000Y-97379000D01*
X62836000Y-97379000D02*
X66378000Y-97379000D01*
X56827000Y-97339000D02*
X60354000Y-97339000D01*
X62836000Y-97339000D02*
X66363000Y-97339000D01*
X56841000Y-97299000D02*
X60354000Y-97299000D01*
X62836000Y-97299000D02*
X66349000Y-97299000D01*
X56857000Y-97259000D02*
X60354000Y-97259000D01*
X62836000Y-97259000D02*
X66333000Y-97259000D01*
X56872000Y-97219000D02*
X60354000Y-97219000D01*
X62836000Y-97219000D02*
X66318000Y-97219000D01*
X56888000Y-97179000D02*
X60354000Y-97179000D01*
X62836000Y-97179000D02*
X66302000Y-97179000D01*
X56905000Y-97139000D02*
X60354000Y-97139000D01*
X62836000Y-97139000D02*
X66285000Y-97139000D01*
X56921000Y-97099000D02*
X60354000Y-97099000D01*
X62836000Y-97099000D02*
X66269000Y-97099000D01*
X56938000Y-97059000D02*
X60354000Y-97059000D01*
X62836000Y-97059000D02*
X66252000Y-97059000D01*
X56956000Y-97019000D02*
X60354000Y-97019000D01*
X62836000Y-97019000D02*
X66234000Y-97019000D01*
X56974000Y-96979000D02*
X60354000Y-96979000D01*
X62836000Y-96979000D02*
X66216000Y-96979000D01*
X56992000Y-96939000D02*
X60354000Y-96939000D01*
X62836000Y-96939000D02*
X66198000Y-96939000D01*
X57011000Y-96899000D02*
X60354000Y-96899000D01*
X62836000Y-96899000D02*
X66179000Y-96899000D01*
X57031000Y-96859000D02*
X60354000Y-96859000D01*
X62836000Y-96859000D02*
X66159000Y-96859000D01*
X57050000Y-96819000D02*
X60354000Y-96819000D01*
X62836000Y-96819000D02*
X66140000Y-96819000D01*
X57070000Y-96779000D02*
X60354000Y-96779000D01*
X62836000Y-96779000D02*
X66120000Y-96779000D01*
X57091000Y-96739000D02*
X60354000Y-96739000D01*
X62836000Y-96739000D02*
X66099000Y-96739000D01*
X57112000Y-96699000D02*
X60354000Y-96699000D01*
X62836000Y-96699000D02*
X66078000Y-96699000D01*
X57133000Y-96659000D02*
X60354000Y-96659000D01*
X62836000Y-96659000D02*
X66057000Y-96659000D01*
X57155000Y-96619000D02*
X60354000Y-96619000D01*
X62836000Y-96619000D02*
X66035000Y-96619000D01*
X57178000Y-96579000D02*
X60354000Y-96579000D01*
X62836000Y-96579000D02*
X66012000Y-96579000D01*
X57200000Y-96539000D02*
X60354000Y-96539000D01*
X62836000Y-96539000D02*
X65990000Y-96539000D01*
X57224000Y-96499000D02*
X60354000Y-96499000D01*
X62836000Y-96499000D02*
X65966000Y-96499000D01*
X57248000Y-96459000D02*
X60354000Y-96459000D01*
X62836000Y-96459000D02*
X65942000Y-96459000D01*
X57272000Y-96419000D02*
X60354000Y-96419000D01*
X62836000Y-96419000D02*
X65918000Y-96419000D01*
X57297000Y-96379000D02*
X60354000Y-96379000D01*
X62836000Y-96379000D02*
X65893000Y-96379000D01*
X57322000Y-96339000D02*
X60354000Y-96339000D01*
X62836000Y-96339000D02*
X65868000Y-96339000D01*
X57348000Y-96299000D02*
X60354000Y-96299000D01*
X62836000Y-96299000D02*
X65842000Y-96299000D01*
X57374000Y-96259000D02*
X60354000Y-96259000D01*
X62836000Y-96259000D02*
X65816000Y-96259000D01*
X57401000Y-96219000D02*
X60354000Y-96219000D01*
X62836000Y-96219000D02*
X65789000Y-96219000D01*
X57429000Y-96179000D02*
X60354000Y-96179000D01*
X62836000Y-96179000D02*
X65761000Y-96179000D01*
X57457000Y-96139000D02*
X60354000Y-96139000D01*
X62836000Y-96139000D02*
X65733000Y-96139000D01*
X57485000Y-96099000D02*
X60354000Y-96099000D01*
X62836000Y-96099000D02*
X65705000Y-96099000D01*
X57515000Y-96059000D02*
X60354000Y-96059000D01*
X62836000Y-96059000D02*
X65675000Y-96059000D01*
X57545000Y-96019000D02*
X60354000Y-96019000D01*
X62836000Y-96019000D02*
X65645000Y-96019000D01*
X57575000Y-95979000D02*
X60354000Y-95979000D01*
X62836000Y-95979000D02*
X65615000Y-95979000D01*
X57606000Y-95939000D02*
X60354000Y-95939000D01*
X62836000Y-95939000D02*
X65584000Y-95939000D01*
X57638000Y-95899000D02*
X60354000Y-95899000D01*
X62836000Y-95899000D02*
X65552000Y-95899000D01*
X57670000Y-95859000D02*
X60354000Y-95859000D01*
X62836000Y-95859000D02*
X65520000Y-95859000D01*
X57703000Y-95819000D02*
X60354000Y-95819000D01*
X62836000Y-95819000D02*
X65487000Y-95819000D01*
X57737000Y-95779000D02*
X60354000Y-95779000D01*
X62836000Y-95779000D02*
X65453000Y-95779000D01*
X57771000Y-95739000D02*
X60354000Y-95739000D01*
X62836000Y-95739000D02*
X65419000Y-95739000D01*
X57806000Y-95699000D02*
X60354000Y-95699000D01*
X62836000Y-95699000D02*
X65384000Y-95699000D01*
X57842000Y-95659000D02*
X60354000Y-95659000D01*
X62836000Y-95659000D02*
X65348000Y-95659000D01*
X57879000Y-95619000D02*
X60354000Y-95619000D01*
X62836000Y-95619000D02*
X65311000Y-95619000D01*
X57916000Y-95579000D02*
X60354000Y-95579000D01*
X62836000Y-95579000D02*
X65274000Y-95579000D01*
X57955000Y-95539000D02*
X60354000Y-95539000D01*
X62836000Y-95539000D02*
X65235000Y-95539000D01*
X57994000Y-95499000D02*
X60354000Y-95499000D01*
X62836000Y-95499000D02*
X65196000Y-95499000D01*
X58034000Y-95459000D02*
X60354000Y-95459000D01*
X62836000Y-95459000D02*
X65156000Y-95459000D01*
X58075000Y-95419000D02*
X60354000Y-95419000D01*
X62836000Y-95419000D02*
X65115000Y-95419000D01*
X58117000Y-95379000D02*
X60354000Y-95379000D01*
X62836000Y-95379000D02*
X65073000Y-95379000D01*
X58159000Y-95339000D02*
X65031000Y-95339000D01*
X58203000Y-95299000D02*
X64987000Y-95299000D01*
X58248000Y-95259000D02*
X64942000Y-95259000D01*
X58294000Y-95219000D02*
X64896000Y-95219000D01*
X58341000Y-95179000D02*
X64849000Y-95179000D01*
X58389000Y-95139000D02*
X64801000Y-95139000D01*
X58439000Y-95099000D02*
X64751000Y-95099000D01*
X58489000Y-95059000D02*
X64701000Y-95059000D01*
X58541000Y-95019000D02*
X64649000Y-95019000D01*
X58595000Y-94979000D02*
X64595000Y-94979000D01*
X58650000Y-94939000D02*
X64540000Y-94939000D01*
X58706000Y-94899000D02*
X64484000Y-94899000D01*
X58765000Y-94859000D02*
X64425000Y-94859000D01*
X58825000Y-94819000D02*
X64365000Y-94819000D01*
X58886000Y-94779000D02*
X64304000Y-94779000D01*
X58950000Y-94739000D02*
X64240000Y-94739000D01*
X59016000Y-94699000D02*
X64174000Y-94699000D01*
X59085000Y-94659000D02*
X64105000Y-94659000D01*
X59156000Y-94619000D02*
X64034000Y-94619000D01*
X59230000Y-94579000D02*
X63960000Y-94579000D01*
X59306000Y-94539000D02*
X63884000Y-94539000D01*
X59386000Y-94499000D02*
X63804000Y-94499000D01*
X59470000Y-94459000D02*
X63720000Y-94459000D01*
X59558000Y-94419000D02*
X63632000Y-94419000D01*
X59651000Y-94379000D02*
X63539000Y-94379000D01*
X59749000Y-94339000D02*
X63441000Y-94339000D01*
X59853000Y-94299000D02*
X63337000Y-94299000D01*
X59965000Y-94259000D02*
X63225000Y-94259000D01*
X60085000Y-94219000D02*
X63105000Y-94219000D01*
X60217000Y-94179000D02*
X62973000Y-94179000D01*
X60365000Y-94139000D02*
X62825000Y-94139000D01*
X60533000Y-94099000D02*
X62657000Y-94099000D01*
X60733000Y-94059000D02*
X62457000Y-94059000D01*
X60996000Y-94019000D02*
X62194000Y-94019000D01*
X58720000Y-104579646D02*
X58720000Y-103579646D01*
X58220000Y-104079646D02*
X59220000Y-104079646D01*
G04 #@! TO.C,J2*
X110130000Y-146685000D02*
G75*
G03X110130000Y-146685000I-2180000J0D01*
G01*
X115130000Y-146685000D02*
G75*
G03X115130000Y-146685000I-2180000J0D01*
G01*
X105390000Y-151285000D02*
X115510000Y-151285000D01*
X105390000Y-150185000D02*
X115510000Y-150185000D01*
X105390000Y-142625000D02*
X115510000Y-142625000D01*
X105390000Y-151745000D02*
X115510000Y-151745000D01*
X105390000Y-142625000D02*
X105390000Y-151745000D01*
X115510000Y-142625000D02*
X115510000Y-151745000D01*
X109604000Y-145297000D02*
X109497000Y-145404000D01*
X106668000Y-148232000D02*
X106562000Y-148339000D01*
X109338000Y-145031000D02*
X109231000Y-145138000D01*
X106402000Y-147966000D02*
X106296000Y-148073000D01*
X114604000Y-145297000D02*
X114209000Y-145693000D01*
X111943000Y-147959000D02*
X111563000Y-148339000D01*
X114338000Y-145031000D02*
X113958000Y-145411000D01*
X111692000Y-147677000D02*
X111297000Y-148073000D01*
X105150000Y-151345000D02*
X105150000Y-151985000D01*
X105150000Y-151985000D02*
X105550000Y-151985000D01*
D12*
G04 #@! TO.C,U1*
X50864000Y-141430000D02*
X50864000Y-105430000D01*
X50864000Y-105430000D02*
X120864000Y-105430000D01*
X120864000Y-105430000D02*
X120864000Y-141430000D01*
X120864000Y-141430000D02*
X50864000Y-141430000D01*
D13*
G04 #@! TO.C,C5*
X94415000Y-104079646D02*
X95415000Y-104079646D01*
X94915000Y-104579646D02*
X94915000Y-103579646D01*
X97191000Y-94019000D02*
X98389000Y-94019000D01*
X96928000Y-94059000D02*
X98652000Y-94059000D01*
X96728000Y-94099000D02*
X98852000Y-94099000D01*
X96560000Y-94139000D02*
X99020000Y-94139000D01*
X96412000Y-94179000D02*
X99168000Y-94179000D01*
X96280000Y-94219000D02*
X99300000Y-94219000D01*
X96160000Y-94259000D02*
X99420000Y-94259000D01*
X96048000Y-94299000D02*
X99532000Y-94299000D01*
X95944000Y-94339000D02*
X99636000Y-94339000D01*
X95846000Y-94379000D02*
X99734000Y-94379000D01*
X95753000Y-94419000D02*
X99827000Y-94419000D01*
X95665000Y-94459000D02*
X99915000Y-94459000D01*
X95581000Y-94499000D02*
X99999000Y-94499000D01*
X95501000Y-94539000D02*
X100079000Y-94539000D01*
X95425000Y-94579000D02*
X100155000Y-94579000D01*
X95351000Y-94619000D02*
X100229000Y-94619000D01*
X95280000Y-94659000D02*
X100300000Y-94659000D01*
X95211000Y-94699000D02*
X100369000Y-94699000D01*
X95145000Y-94739000D02*
X100435000Y-94739000D01*
X95081000Y-94779000D02*
X100499000Y-94779000D01*
X95020000Y-94819000D02*
X100560000Y-94819000D01*
X94960000Y-94859000D02*
X100620000Y-94859000D01*
X94901000Y-94899000D02*
X100679000Y-94899000D01*
X94845000Y-94939000D02*
X100735000Y-94939000D01*
X94790000Y-94979000D02*
X100790000Y-94979000D01*
X94736000Y-95019000D02*
X100844000Y-95019000D01*
X94684000Y-95059000D02*
X100896000Y-95059000D01*
X94634000Y-95099000D02*
X100946000Y-95099000D01*
X94584000Y-95139000D02*
X100996000Y-95139000D01*
X94536000Y-95179000D02*
X101044000Y-95179000D01*
X94489000Y-95219000D02*
X101091000Y-95219000D01*
X94443000Y-95259000D02*
X101137000Y-95259000D01*
X94398000Y-95299000D02*
X101182000Y-95299000D01*
X94354000Y-95339000D02*
X101226000Y-95339000D01*
X99031000Y-95379000D02*
X101268000Y-95379000D01*
X94312000Y-95379000D02*
X96549000Y-95379000D01*
X99031000Y-95419000D02*
X101310000Y-95419000D01*
X94270000Y-95419000D02*
X96549000Y-95419000D01*
X99031000Y-95459000D02*
X101351000Y-95459000D01*
X94229000Y-95459000D02*
X96549000Y-95459000D01*
X99031000Y-95499000D02*
X101391000Y-95499000D01*
X94189000Y-95499000D02*
X96549000Y-95499000D01*
X99031000Y-95539000D02*
X101430000Y-95539000D01*
X94150000Y-95539000D02*
X96549000Y-95539000D01*
X99031000Y-95579000D02*
X101469000Y-95579000D01*
X94111000Y-95579000D02*
X96549000Y-95579000D01*
X99031000Y-95619000D02*
X101506000Y-95619000D01*
X94074000Y-95619000D02*
X96549000Y-95619000D01*
X99031000Y-95659000D02*
X101543000Y-95659000D01*
X94037000Y-95659000D02*
X96549000Y-95659000D01*
X99031000Y-95699000D02*
X101579000Y-95699000D01*
X94001000Y-95699000D02*
X96549000Y-95699000D01*
X99031000Y-95739000D02*
X101614000Y-95739000D01*
X93966000Y-95739000D02*
X96549000Y-95739000D01*
X99031000Y-95779000D02*
X101648000Y-95779000D01*
X93932000Y-95779000D02*
X96549000Y-95779000D01*
X99031000Y-95819000D02*
X101682000Y-95819000D01*
X93898000Y-95819000D02*
X96549000Y-95819000D01*
X99031000Y-95859000D02*
X101715000Y-95859000D01*
X93865000Y-95859000D02*
X96549000Y-95859000D01*
X99031000Y-95899000D02*
X101747000Y-95899000D01*
X93833000Y-95899000D02*
X96549000Y-95899000D01*
X99031000Y-95939000D02*
X101779000Y-95939000D01*
X93801000Y-95939000D02*
X96549000Y-95939000D01*
X99031000Y-95979000D02*
X101810000Y-95979000D01*
X93770000Y-95979000D02*
X96549000Y-95979000D01*
X99031000Y-96019000D02*
X101840000Y-96019000D01*
X93740000Y-96019000D02*
X96549000Y-96019000D01*
X99031000Y-96059000D02*
X101870000Y-96059000D01*
X93710000Y-96059000D02*
X96549000Y-96059000D01*
X99031000Y-96099000D02*
X101900000Y-96099000D01*
X93680000Y-96099000D02*
X96549000Y-96099000D01*
X99031000Y-96139000D02*
X101928000Y-96139000D01*
X93652000Y-96139000D02*
X96549000Y-96139000D01*
X99031000Y-96179000D02*
X101956000Y-96179000D01*
X93624000Y-96179000D02*
X96549000Y-96179000D01*
X99031000Y-96219000D02*
X101984000Y-96219000D01*
X93596000Y-96219000D02*
X96549000Y-96219000D01*
X99031000Y-96259000D02*
X102011000Y-96259000D01*
X93569000Y-96259000D02*
X96549000Y-96259000D01*
X99031000Y-96299000D02*
X102037000Y-96299000D01*
X93543000Y-96299000D02*
X96549000Y-96299000D01*
X99031000Y-96339000D02*
X102063000Y-96339000D01*
X93517000Y-96339000D02*
X96549000Y-96339000D01*
X99031000Y-96379000D02*
X102088000Y-96379000D01*
X93492000Y-96379000D02*
X96549000Y-96379000D01*
X99031000Y-96419000D02*
X102113000Y-96419000D01*
X93467000Y-96419000D02*
X96549000Y-96419000D01*
X99031000Y-96459000D02*
X102137000Y-96459000D01*
X93443000Y-96459000D02*
X96549000Y-96459000D01*
X99031000Y-96499000D02*
X102161000Y-96499000D01*
X93419000Y-96499000D02*
X96549000Y-96499000D01*
X99031000Y-96539000D02*
X102185000Y-96539000D01*
X93395000Y-96539000D02*
X96549000Y-96539000D01*
X99031000Y-96579000D02*
X102207000Y-96579000D01*
X93373000Y-96579000D02*
X96549000Y-96579000D01*
X99031000Y-96619000D02*
X102230000Y-96619000D01*
X93350000Y-96619000D02*
X96549000Y-96619000D01*
X99031000Y-96659000D02*
X102252000Y-96659000D01*
X93328000Y-96659000D02*
X96549000Y-96659000D01*
X99031000Y-96699000D02*
X102273000Y-96699000D01*
X93307000Y-96699000D02*
X96549000Y-96699000D01*
X99031000Y-96739000D02*
X102294000Y-96739000D01*
X93286000Y-96739000D02*
X96549000Y-96739000D01*
X99031000Y-96779000D02*
X102315000Y-96779000D01*
X93265000Y-96779000D02*
X96549000Y-96779000D01*
X99031000Y-96819000D02*
X102335000Y-96819000D01*
X93245000Y-96819000D02*
X96549000Y-96819000D01*
X99031000Y-96859000D02*
X102354000Y-96859000D01*
X93226000Y-96859000D02*
X96549000Y-96859000D01*
X99031000Y-96899000D02*
X102374000Y-96899000D01*
X93206000Y-96899000D02*
X96549000Y-96899000D01*
X99031000Y-96939000D02*
X102393000Y-96939000D01*
X93187000Y-96939000D02*
X96549000Y-96939000D01*
X99031000Y-96979000D02*
X102411000Y-96979000D01*
X93169000Y-96979000D02*
X96549000Y-96979000D01*
X99031000Y-97019000D02*
X102429000Y-97019000D01*
X93151000Y-97019000D02*
X96549000Y-97019000D01*
X99031000Y-97059000D02*
X102447000Y-97059000D01*
X93133000Y-97059000D02*
X96549000Y-97059000D01*
X99031000Y-97099000D02*
X102464000Y-97099000D01*
X93116000Y-97099000D02*
X96549000Y-97099000D01*
X99031000Y-97139000D02*
X102480000Y-97139000D01*
X93100000Y-97139000D02*
X96549000Y-97139000D01*
X99031000Y-97179000D02*
X102497000Y-97179000D01*
X93083000Y-97179000D02*
X96549000Y-97179000D01*
X99031000Y-97219000D02*
X102513000Y-97219000D01*
X93067000Y-97219000D02*
X96549000Y-97219000D01*
X99031000Y-97259000D02*
X102528000Y-97259000D01*
X93052000Y-97259000D02*
X96549000Y-97259000D01*
X99031000Y-97299000D02*
X102544000Y-97299000D01*
X93036000Y-97299000D02*
X96549000Y-97299000D01*
X99031000Y-97339000D02*
X102558000Y-97339000D01*
X93022000Y-97339000D02*
X96549000Y-97339000D01*
X99031000Y-97379000D02*
X102573000Y-97379000D01*
X93007000Y-97379000D02*
X96549000Y-97379000D01*
X99031000Y-97419000D02*
X102587000Y-97419000D01*
X92993000Y-97419000D02*
X96549000Y-97419000D01*
X99031000Y-97459000D02*
X102601000Y-97459000D01*
X92979000Y-97459000D02*
X96549000Y-97459000D01*
X99031000Y-97499000D02*
X102614000Y-97499000D01*
X92966000Y-97499000D02*
X96549000Y-97499000D01*
X99031000Y-97539000D02*
X102627000Y-97539000D01*
X92953000Y-97539000D02*
X96549000Y-97539000D01*
X99031000Y-97579000D02*
X102640000Y-97579000D01*
X92940000Y-97579000D02*
X96549000Y-97579000D01*
X99031000Y-97619000D02*
X102652000Y-97619000D01*
X92928000Y-97619000D02*
X96549000Y-97619000D01*
X99031000Y-97659000D02*
X102664000Y-97659000D01*
X92916000Y-97659000D02*
X96549000Y-97659000D01*
X99031000Y-97699000D02*
X102675000Y-97699000D01*
X92905000Y-97699000D02*
X96549000Y-97699000D01*
X99031000Y-97739000D02*
X102687000Y-97739000D01*
X92893000Y-97739000D02*
X96549000Y-97739000D01*
X99031000Y-97779000D02*
X102697000Y-97779000D01*
X92883000Y-97779000D02*
X96549000Y-97779000D01*
X99031000Y-97819000D02*
X102708000Y-97819000D01*
X92872000Y-97819000D02*
X96549000Y-97819000D01*
X92862000Y-97859000D02*
X102718000Y-97859000D01*
X92852000Y-97899000D02*
X102728000Y-97899000D01*
X92843000Y-97939000D02*
X102737000Y-97939000D01*
X92834000Y-97979000D02*
X102746000Y-97979000D01*
X92825000Y-98019000D02*
X102755000Y-98019000D01*
X92816000Y-98059000D02*
X102764000Y-98059000D01*
X92808000Y-98099000D02*
X102772000Y-98099000D01*
X92800000Y-98139000D02*
X102780000Y-98139000D01*
X92793000Y-98179000D02*
X102787000Y-98179000D01*
X92786000Y-98219000D02*
X102794000Y-98219000D01*
X92779000Y-98259000D02*
X102801000Y-98259000D01*
X92772000Y-98299000D02*
X102808000Y-98299000D01*
X92766000Y-98339000D02*
X102814000Y-98339000D01*
X92760000Y-98379000D02*
X102820000Y-98379000D01*
X92755000Y-98420000D02*
X102825000Y-98420000D01*
X92750000Y-98460000D02*
X102830000Y-98460000D01*
X92745000Y-98500000D02*
X102835000Y-98500000D01*
X92740000Y-98540000D02*
X102840000Y-98540000D01*
X92736000Y-98580000D02*
X102844000Y-98580000D01*
X92732000Y-98620000D02*
X102848000Y-98620000D01*
X92728000Y-98660000D02*
X102852000Y-98660000D01*
X92725000Y-98700000D02*
X102855000Y-98700000D01*
X92722000Y-98740000D02*
X102858000Y-98740000D01*
X92720000Y-98780000D02*
X102860000Y-98780000D01*
X92717000Y-98820000D02*
X102863000Y-98820000D01*
X92715000Y-98860000D02*
X102865000Y-98860000D01*
X92713000Y-98900000D02*
X102867000Y-98900000D01*
X92712000Y-98940000D02*
X102868000Y-98940000D01*
X92711000Y-98980000D02*
X102869000Y-98980000D01*
X92710000Y-99020000D02*
X102870000Y-99020000D01*
X92710000Y-99060000D02*
X102870000Y-99060000D01*
X92710000Y-99100000D02*
X102870000Y-99100000D01*
X102910000Y-99100000D02*
G75*
G03X102910000Y-99100000I-5120000J0D01*
G01*
G04 #@! TO.C,C6*
X90845000Y-99100000D02*
G75*
G03X90845000Y-99100000I-5120000J0D01*
G01*
X80645000Y-99100000D02*
X90805000Y-99100000D01*
X80645000Y-99060000D02*
X90805000Y-99060000D01*
X80645000Y-99020000D02*
X90805000Y-99020000D01*
X80646000Y-98980000D02*
X90804000Y-98980000D01*
X80647000Y-98940000D02*
X90803000Y-98940000D01*
X80648000Y-98900000D02*
X90802000Y-98900000D01*
X80650000Y-98860000D02*
X90800000Y-98860000D01*
X80652000Y-98820000D02*
X90798000Y-98820000D01*
X80655000Y-98780000D02*
X90795000Y-98780000D01*
X80657000Y-98740000D02*
X90793000Y-98740000D01*
X80660000Y-98700000D02*
X90790000Y-98700000D01*
X80663000Y-98660000D02*
X90787000Y-98660000D01*
X80667000Y-98620000D02*
X90783000Y-98620000D01*
X80671000Y-98580000D02*
X90779000Y-98580000D01*
X80675000Y-98540000D02*
X90775000Y-98540000D01*
X80680000Y-98500000D02*
X90770000Y-98500000D01*
X80685000Y-98460000D02*
X90765000Y-98460000D01*
X80690000Y-98420000D02*
X90760000Y-98420000D01*
X80695000Y-98379000D02*
X90755000Y-98379000D01*
X80701000Y-98339000D02*
X90749000Y-98339000D01*
X80707000Y-98299000D02*
X90743000Y-98299000D01*
X80714000Y-98259000D02*
X90736000Y-98259000D01*
X80721000Y-98219000D02*
X90729000Y-98219000D01*
X80728000Y-98179000D02*
X90722000Y-98179000D01*
X80735000Y-98139000D02*
X90715000Y-98139000D01*
X80743000Y-98099000D02*
X90707000Y-98099000D01*
X80751000Y-98059000D02*
X90699000Y-98059000D01*
X80760000Y-98019000D02*
X90690000Y-98019000D01*
X80769000Y-97979000D02*
X90681000Y-97979000D01*
X80778000Y-97939000D02*
X90672000Y-97939000D01*
X80787000Y-97899000D02*
X90663000Y-97899000D01*
X80797000Y-97859000D02*
X90653000Y-97859000D01*
X80807000Y-97819000D02*
X84484000Y-97819000D01*
X86966000Y-97819000D02*
X90643000Y-97819000D01*
X80818000Y-97779000D02*
X84484000Y-97779000D01*
X86966000Y-97779000D02*
X90632000Y-97779000D01*
X80828000Y-97739000D02*
X84484000Y-97739000D01*
X86966000Y-97739000D02*
X90622000Y-97739000D01*
X80840000Y-97699000D02*
X84484000Y-97699000D01*
X86966000Y-97699000D02*
X90610000Y-97699000D01*
X80851000Y-97659000D02*
X84484000Y-97659000D01*
X86966000Y-97659000D02*
X90599000Y-97659000D01*
X80863000Y-97619000D02*
X84484000Y-97619000D01*
X86966000Y-97619000D02*
X90587000Y-97619000D01*
X80875000Y-97579000D02*
X84484000Y-97579000D01*
X86966000Y-97579000D02*
X90575000Y-97579000D01*
X80888000Y-97539000D02*
X84484000Y-97539000D01*
X86966000Y-97539000D02*
X90562000Y-97539000D01*
X80901000Y-97499000D02*
X84484000Y-97499000D01*
X86966000Y-97499000D02*
X90549000Y-97499000D01*
X80914000Y-97459000D02*
X84484000Y-97459000D01*
X86966000Y-97459000D02*
X90536000Y-97459000D01*
X80928000Y-97419000D02*
X84484000Y-97419000D01*
X86966000Y-97419000D02*
X90522000Y-97419000D01*
X80942000Y-97379000D02*
X84484000Y-97379000D01*
X86966000Y-97379000D02*
X90508000Y-97379000D01*
X80957000Y-97339000D02*
X84484000Y-97339000D01*
X86966000Y-97339000D02*
X90493000Y-97339000D01*
X80971000Y-97299000D02*
X84484000Y-97299000D01*
X86966000Y-97299000D02*
X90479000Y-97299000D01*
X80987000Y-97259000D02*
X84484000Y-97259000D01*
X86966000Y-97259000D02*
X90463000Y-97259000D01*
X81002000Y-97219000D02*
X84484000Y-97219000D01*
X86966000Y-97219000D02*
X90448000Y-97219000D01*
X81018000Y-97179000D02*
X84484000Y-97179000D01*
X86966000Y-97179000D02*
X90432000Y-97179000D01*
X81035000Y-97139000D02*
X84484000Y-97139000D01*
X86966000Y-97139000D02*
X90415000Y-97139000D01*
X81051000Y-97099000D02*
X84484000Y-97099000D01*
X86966000Y-97099000D02*
X90399000Y-97099000D01*
X81068000Y-97059000D02*
X84484000Y-97059000D01*
X86966000Y-97059000D02*
X90382000Y-97059000D01*
X81086000Y-97019000D02*
X84484000Y-97019000D01*
X86966000Y-97019000D02*
X90364000Y-97019000D01*
X81104000Y-96979000D02*
X84484000Y-96979000D01*
X86966000Y-96979000D02*
X90346000Y-96979000D01*
X81122000Y-96939000D02*
X84484000Y-96939000D01*
X86966000Y-96939000D02*
X90328000Y-96939000D01*
X81141000Y-96899000D02*
X84484000Y-96899000D01*
X86966000Y-96899000D02*
X90309000Y-96899000D01*
X81161000Y-96859000D02*
X84484000Y-96859000D01*
X86966000Y-96859000D02*
X90289000Y-96859000D01*
X81180000Y-96819000D02*
X84484000Y-96819000D01*
X86966000Y-96819000D02*
X90270000Y-96819000D01*
X81200000Y-96779000D02*
X84484000Y-96779000D01*
X86966000Y-96779000D02*
X90250000Y-96779000D01*
X81221000Y-96739000D02*
X84484000Y-96739000D01*
X86966000Y-96739000D02*
X90229000Y-96739000D01*
X81242000Y-96699000D02*
X84484000Y-96699000D01*
X86966000Y-96699000D02*
X90208000Y-96699000D01*
X81263000Y-96659000D02*
X84484000Y-96659000D01*
X86966000Y-96659000D02*
X90187000Y-96659000D01*
X81285000Y-96619000D02*
X84484000Y-96619000D01*
X86966000Y-96619000D02*
X90165000Y-96619000D01*
X81308000Y-96579000D02*
X84484000Y-96579000D01*
X86966000Y-96579000D02*
X90142000Y-96579000D01*
X81330000Y-96539000D02*
X84484000Y-96539000D01*
X86966000Y-96539000D02*
X90120000Y-96539000D01*
X81354000Y-96499000D02*
X84484000Y-96499000D01*
X86966000Y-96499000D02*
X90096000Y-96499000D01*
X81378000Y-96459000D02*
X84484000Y-96459000D01*
X86966000Y-96459000D02*
X90072000Y-96459000D01*
X81402000Y-96419000D02*
X84484000Y-96419000D01*
X86966000Y-96419000D02*
X90048000Y-96419000D01*
X81427000Y-96379000D02*
X84484000Y-96379000D01*
X86966000Y-96379000D02*
X90023000Y-96379000D01*
X81452000Y-96339000D02*
X84484000Y-96339000D01*
X86966000Y-96339000D02*
X89998000Y-96339000D01*
X81478000Y-96299000D02*
X84484000Y-96299000D01*
X86966000Y-96299000D02*
X89972000Y-96299000D01*
X81504000Y-96259000D02*
X84484000Y-96259000D01*
X86966000Y-96259000D02*
X89946000Y-96259000D01*
X81531000Y-96219000D02*
X84484000Y-96219000D01*
X86966000Y-96219000D02*
X89919000Y-96219000D01*
X81559000Y-96179000D02*
X84484000Y-96179000D01*
X86966000Y-96179000D02*
X89891000Y-96179000D01*
X81587000Y-96139000D02*
X84484000Y-96139000D01*
X86966000Y-96139000D02*
X89863000Y-96139000D01*
X81615000Y-96099000D02*
X84484000Y-96099000D01*
X86966000Y-96099000D02*
X89835000Y-96099000D01*
X81645000Y-96059000D02*
X84484000Y-96059000D01*
X86966000Y-96059000D02*
X89805000Y-96059000D01*
X81675000Y-96019000D02*
X84484000Y-96019000D01*
X86966000Y-96019000D02*
X89775000Y-96019000D01*
X81705000Y-95979000D02*
X84484000Y-95979000D01*
X86966000Y-95979000D02*
X89745000Y-95979000D01*
X81736000Y-95939000D02*
X84484000Y-95939000D01*
X86966000Y-95939000D02*
X89714000Y-95939000D01*
X81768000Y-95899000D02*
X84484000Y-95899000D01*
X86966000Y-95899000D02*
X89682000Y-95899000D01*
X81800000Y-95859000D02*
X84484000Y-95859000D01*
X86966000Y-95859000D02*
X89650000Y-95859000D01*
X81833000Y-95819000D02*
X84484000Y-95819000D01*
X86966000Y-95819000D02*
X89617000Y-95819000D01*
X81867000Y-95779000D02*
X84484000Y-95779000D01*
X86966000Y-95779000D02*
X89583000Y-95779000D01*
X81901000Y-95739000D02*
X84484000Y-95739000D01*
X86966000Y-95739000D02*
X89549000Y-95739000D01*
X81936000Y-95699000D02*
X84484000Y-95699000D01*
X86966000Y-95699000D02*
X89514000Y-95699000D01*
X81972000Y-95659000D02*
X84484000Y-95659000D01*
X86966000Y-95659000D02*
X89478000Y-95659000D01*
X82009000Y-95619000D02*
X84484000Y-95619000D01*
X86966000Y-95619000D02*
X89441000Y-95619000D01*
X82046000Y-95579000D02*
X84484000Y-95579000D01*
X86966000Y-95579000D02*
X89404000Y-95579000D01*
X82085000Y-95539000D02*
X84484000Y-95539000D01*
X86966000Y-95539000D02*
X89365000Y-95539000D01*
X82124000Y-95499000D02*
X84484000Y-95499000D01*
X86966000Y-95499000D02*
X89326000Y-95499000D01*
X82164000Y-95459000D02*
X84484000Y-95459000D01*
X86966000Y-95459000D02*
X89286000Y-95459000D01*
X82205000Y-95419000D02*
X84484000Y-95419000D01*
X86966000Y-95419000D02*
X89245000Y-95419000D01*
X82247000Y-95379000D02*
X84484000Y-95379000D01*
X86966000Y-95379000D02*
X89203000Y-95379000D01*
X82289000Y-95339000D02*
X89161000Y-95339000D01*
X82333000Y-95299000D02*
X89117000Y-95299000D01*
X82378000Y-95259000D02*
X89072000Y-95259000D01*
X82424000Y-95219000D02*
X89026000Y-95219000D01*
X82471000Y-95179000D02*
X88979000Y-95179000D01*
X82519000Y-95139000D02*
X88931000Y-95139000D01*
X82569000Y-95099000D02*
X88881000Y-95099000D01*
X82619000Y-95059000D02*
X88831000Y-95059000D01*
X82671000Y-95019000D02*
X88779000Y-95019000D01*
X82725000Y-94979000D02*
X88725000Y-94979000D01*
X82780000Y-94939000D02*
X88670000Y-94939000D01*
X82836000Y-94899000D02*
X88614000Y-94899000D01*
X82895000Y-94859000D02*
X88555000Y-94859000D01*
X82955000Y-94819000D02*
X88495000Y-94819000D01*
X83016000Y-94779000D02*
X88434000Y-94779000D01*
X83080000Y-94739000D02*
X88370000Y-94739000D01*
X83146000Y-94699000D02*
X88304000Y-94699000D01*
X83215000Y-94659000D02*
X88235000Y-94659000D01*
X83286000Y-94619000D02*
X88164000Y-94619000D01*
X83360000Y-94579000D02*
X88090000Y-94579000D01*
X83436000Y-94539000D02*
X88014000Y-94539000D01*
X83516000Y-94499000D02*
X87934000Y-94499000D01*
X83600000Y-94459000D02*
X87850000Y-94459000D01*
X83688000Y-94419000D02*
X87762000Y-94419000D01*
X83781000Y-94379000D02*
X87669000Y-94379000D01*
X83879000Y-94339000D02*
X87571000Y-94339000D01*
X83983000Y-94299000D02*
X87467000Y-94299000D01*
X84095000Y-94259000D02*
X87355000Y-94259000D01*
X84215000Y-94219000D02*
X87235000Y-94219000D01*
X84347000Y-94179000D02*
X87103000Y-94179000D01*
X84495000Y-94139000D02*
X86955000Y-94139000D01*
X84663000Y-94099000D02*
X86787000Y-94099000D01*
X84863000Y-94059000D02*
X86587000Y-94059000D01*
X85126000Y-94019000D02*
X86324000Y-94019000D01*
X82850000Y-104579646D02*
X82850000Y-103579646D01*
X82350000Y-104079646D02*
X83350000Y-104079646D01*
G04 #@! TO.C,C3*
X58169564Y-119925000D02*
X56965436Y-119925000D01*
X58169564Y-122645000D02*
X56965436Y-122645000D01*
G04 #@! TO.C,C8*
X97065000Y-138814564D02*
X97065000Y-137610436D01*
X99785000Y-138814564D02*
X99785000Y-137610436D01*
G04 #@! TO.C,C9*
X101510000Y-138814564D02*
X101510000Y-137610436D01*
X104230000Y-138814564D02*
X104230000Y-137610436D01*
G04 #@! TO.C,C2*
X70285000Y-104079646D02*
X71285000Y-104079646D01*
X70785000Y-104579646D02*
X70785000Y-103579646D01*
X73061000Y-94019000D02*
X74259000Y-94019000D01*
X72798000Y-94059000D02*
X74522000Y-94059000D01*
X72598000Y-94099000D02*
X74722000Y-94099000D01*
X72430000Y-94139000D02*
X74890000Y-94139000D01*
X72282000Y-94179000D02*
X75038000Y-94179000D01*
X72150000Y-94219000D02*
X75170000Y-94219000D01*
X72030000Y-94259000D02*
X75290000Y-94259000D01*
X71918000Y-94299000D02*
X75402000Y-94299000D01*
X71814000Y-94339000D02*
X75506000Y-94339000D01*
X71716000Y-94379000D02*
X75604000Y-94379000D01*
X71623000Y-94419000D02*
X75697000Y-94419000D01*
X71535000Y-94459000D02*
X75785000Y-94459000D01*
X71451000Y-94499000D02*
X75869000Y-94499000D01*
X71371000Y-94539000D02*
X75949000Y-94539000D01*
X71295000Y-94579000D02*
X76025000Y-94579000D01*
X71221000Y-94619000D02*
X76099000Y-94619000D01*
X71150000Y-94659000D02*
X76170000Y-94659000D01*
X71081000Y-94699000D02*
X76239000Y-94699000D01*
X71015000Y-94739000D02*
X76305000Y-94739000D01*
X70951000Y-94779000D02*
X76369000Y-94779000D01*
X70890000Y-94819000D02*
X76430000Y-94819000D01*
X70830000Y-94859000D02*
X76490000Y-94859000D01*
X70771000Y-94899000D02*
X76549000Y-94899000D01*
X70715000Y-94939000D02*
X76605000Y-94939000D01*
X70660000Y-94979000D02*
X76660000Y-94979000D01*
X70606000Y-95019000D02*
X76714000Y-95019000D01*
X70554000Y-95059000D02*
X76766000Y-95059000D01*
X70504000Y-95099000D02*
X76816000Y-95099000D01*
X70454000Y-95139000D02*
X76866000Y-95139000D01*
X70406000Y-95179000D02*
X76914000Y-95179000D01*
X70359000Y-95219000D02*
X76961000Y-95219000D01*
X70313000Y-95259000D02*
X77007000Y-95259000D01*
X70268000Y-95299000D02*
X77052000Y-95299000D01*
X70224000Y-95339000D02*
X77096000Y-95339000D01*
X74901000Y-95379000D02*
X77138000Y-95379000D01*
X70182000Y-95379000D02*
X72419000Y-95379000D01*
X74901000Y-95419000D02*
X77180000Y-95419000D01*
X70140000Y-95419000D02*
X72419000Y-95419000D01*
X74901000Y-95459000D02*
X77221000Y-95459000D01*
X70099000Y-95459000D02*
X72419000Y-95459000D01*
X74901000Y-95499000D02*
X77261000Y-95499000D01*
X70059000Y-95499000D02*
X72419000Y-95499000D01*
X74901000Y-95539000D02*
X77300000Y-95539000D01*
X70020000Y-95539000D02*
X72419000Y-95539000D01*
X74901000Y-95579000D02*
X77339000Y-95579000D01*
X69981000Y-95579000D02*
X72419000Y-95579000D01*
X74901000Y-95619000D02*
X77376000Y-95619000D01*
X69944000Y-95619000D02*
X72419000Y-95619000D01*
X74901000Y-95659000D02*
X77413000Y-95659000D01*
X69907000Y-95659000D02*
X72419000Y-95659000D01*
X74901000Y-95699000D02*
X77449000Y-95699000D01*
X69871000Y-95699000D02*
X72419000Y-95699000D01*
X74901000Y-95739000D02*
X77484000Y-95739000D01*
X69836000Y-95739000D02*
X72419000Y-95739000D01*
X74901000Y-95779000D02*
X77518000Y-95779000D01*
X69802000Y-95779000D02*
X72419000Y-95779000D01*
X74901000Y-95819000D02*
X77552000Y-95819000D01*
X69768000Y-95819000D02*
X72419000Y-95819000D01*
X74901000Y-95859000D02*
X77585000Y-95859000D01*
X69735000Y-95859000D02*
X72419000Y-95859000D01*
X74901000Y-95899000D02*
X77617000Y-95899000D01*
X69703000Y-95899000D02*
X72419000Y-95899000D01*
X74901000Y-95939000D02*
X77649000Y-95939000D01*
X69671000Y-95939000D02*
X72419000Y-95939000D01*
X74901000Y-95979000D02*
X77680000Y-95979000D01*
X69640000Y-95979000D02*
X72419000Y-95979000D01*
X74901000Y-96019000D02*
X77710000Y-96019000D01*
X69610000Y-96019000D02*
X72419000Y-96019000D01*
X74901000Y-96059000D02*
X77740000Y-96059000D01*
X69580000Y-96059000D02*
X72419000Y-96059000D01*
X74901000Y-96099000D02*
X77770000Y-96099000D01*
X69550000Y-96099000D02*
X72419000Y-96099000D01*
X74901000Y-96139000D02*
X77798000Y-96139000D01*
X69522000Y-96139000D02*
X72419000Y-96139000D01*
X74901000Y-96179000D02*
X77826000Y-96179000D01*
X69494000Y-96179000D02*
X72419000Y-96179000D01*
X74901000Y-96219000D02*
X77854000Y-96219000D01*
X69466000Y-96219000D02*
X72419000Y-96219000D01*
X74901000Y-96259000D02*
X77881000Y-96259000D01*
X69439000Y-96259000D02*
X72419000Y-96259000D01*
X74901000Y-96299000D02*
X77907000Y-96299000D01*
X69413000Y-96299000D02*
X72419000Y-96299000D01*
X74901000Y-96339000D02*
X77933000Y-96339000D01*
X69387000Y-96339000D02*
X72419000Y-96339000D01*
X74901000Y-96379000D02*
X77958000Y-96379000D01*
X69362000Y-96379000D02*
X72419000Y-96379000D01*
X74901000Y-96419000D02*
X77983000Y-96419000D01*
X69337000Y-96419000D02*
X72419000Y-96419000D01*
X74901000Y-96459000D02*
X78007000Y-96459000D01*
X69313000Y-96459000D02*
X72419000Y-96459000D01*
X74901000Y-96499000D02*
X78031000Y-96499000D01*
X69289000Y-96499000D02*
X72419000Y-96499000D01*
X74901000Y-96539000D02*
X78055000Y-96539000D01*
X69265000Y-96539000D02*
X72419000Y-96539000D01*
X74901000Y-96579000D02*
X78077000Y-96579000D01*
X69243000Y-96579000D02*
X72419000Y-96579000D01*
X74901000Y-96619000D02*
X78100000Y-96619000D01*
X69220000Y-96619000D02*
X72419000Y-96619000D01*
X74901000Y-96659000D02*
X78122000Y-96659000D01*
X69198000Y-96659000D02*
X72419000Y-96659000D01*
X74901000Y-96699000D02*
X78143000Y-96699000D01*
X69177000Y-96699000D02*
X72419000Y-96699000D01*
X74901000Y-96739000D02*
X78164000Y-96739000D01*
X69156000Y-96739000D02*
X72419000Y-96739000D01*
X74901000Y-96779000D02*
X78185000Y-96779000D01*
X69135000Y-96779000D02*
X72419000Y-96779000D01*
X74901000Y-96819000D02*
X78205000Y-96819000D01*
X69115000Y-96819000D02*
X72419000Y-96819000D01*
X74901000Y-96859000D02*
X78224000Y-96859000D01*
X69096000Y-96859000D02*
X72419000Y-96859000D01*
X74901000Y-96899000D02*
X78244000Y-96899000D01*
X69076000Y-96899000D02*
X72419000Y-96899000D01*
X74901000Y-96939000D02*
X78263000Y-96939000D01*
X69057000Y-96939000D02*
X72419000Y-96939000D01*
X74901000Y-96979000D02*
X78281000Y-96979000D01*
X69039000Y-96979000D02*
X72419000Y-96979000D01*
X74901000Y-97019000D02*
X78299000Y-97019000D01*
X69021000Y-97019000D02*
X72419000Y-97019000D01*
X74901000Y-97059000D02*
X78317000Y-97059000D01*
X69003000Y-97059000D02*
X72419000Y-97059000D01*
X74901000Y-97099000D02*
X78334000Y-97099000D01*
X68986000Y-97099000D02*
X72419000Y-97099000D01*
X74901000Y-97139000D02*
X78350000Y-97139000D01*
X68970000Y-97139000D02*
X72419000Y-97139000D01*
X74901000Y-97179000D02*
X78367000Y-97179000D01*
X68953000Y-97179000D02*
X72419000Y-97179000D01*
X74901000Y-97219000D02*
X78383000Y-97219000D01*
X68937000Y-97219000D02*
X72419000Y-97219000D01*
X74901000Y-97259000D02*
X78398000Y-97259000D01*
X68922000Y-97259000D02*
X72419000Y-97259000D01*
X74901000Y-97299000D02*
X78414000Y-97299000D01*
X68906000Y-97299000D02*
X72419000Y-97299000D01*
X74901000Y-97339000D02*
X78428000Y-97339000D01*
X68892000Y-97339000D02*
X72419000Y-97339000D01*
X74901000Y-97379000D02*
X78443000Y-97379000D01*
X68877000Y-97379000D02*
X72419000Y-97379000D01*
X74901000Y-97419000D02*
X78457000Y-97419000D01*
X68863000Y-97419000D02*
X72419000Y-97419000D01*
X74901000Y-97459000D02*
X78471000Y-97459000D01*
X68849000Y-97459000D02*
X72419000Y-97459000D01*
X74901000Y-97499000D02*
X78484000Y-97499000D01*
X68836000Y-97499000D02*
X72419000Y-97499000D01*
X74901000Y-97539000D02*
X78497000Y-97539000D01*
X68823000Y-97539000D02*
X72419000Y-97539000D01*
X74901000Y-97579000D02*
X78510000Y-97579000D01*
X68810000Y-97579000D02*
X72419000Y-97579000D01*
X74901000Y-97619000D02*
X78522000Y-97619000D01*
X68798000Y-97619000D02*
X72419000Y-97619000D01*
X74901000Y-97659000D02*
X78534000Y-97659000D01*
X68786000Y-97659000D02*
X72419000Y-97659000D01*
X74901000Y-97699000D02*
X78545000Y-97699000D01*
X68775000Y-97699000D02*
X72419000Y-97699000D01*
X74901000Y-97739000D02*
X78557000Y-97739000D01*
X68763000Y-97739000D02*
X72419000Y-97739000D01*
X74901000Y-97779000D02*
X78567000Y-97779000D01*
X68753000Y-97779000D02*
X72419000Y-97779000D01*
X74901000Y-97819000D02*
X78578000Y-97819000D01*
X68742000Y-97819000D02*
X72419000Y-97819000D01*
X68732000Y-97859000D02*
X78588000Y-97859000D01*
X68722000Y-97899000D02*
X78598000Y-97899000D01*
X68713000Y-97939000D02*
X78607000Y-97939000D01*
X68704000Y-97979000D02*
X78616000Y-97979000D01*
X68695000Y-98019000D02*
X78625000Y-98019000D01*
X68686000Y-98059000D02*
X78634000Y-98059000D01*
X68678000Y-98099000D02*
X78642000Y-98099000D01*
X68670000Y-98139000D02*
X78650000Y-98139000D01*
X68663000Y-98179000D02*
X78657000Y-98179000D01*
X68656000Y-98219000D02*
X78664000Y-98219000D01*
X68649000Y-98259000D02*
X78671000Y-98259000D01*
X68642000Y-98299000D02*
X78678000Y-98299000D01*
X68636000Y-98339000D02*
X78684000Y-98339000D01*
X68630000Y-98379000D02*
X78690000Y-98379000D01*
X68625000Y-98420000D02*
X78695000Y-98420000D01*
X68620000Y-98460000D02*
X78700000Y-98460000D01*
X68615000Y-98500000D02*
X78705000Y-98500000D01*
X68610000Y-98540000D02*
X78710000Y-98540000D01*
X68606000Y-98580000D02*
X78714000Y-98580000D01*
X68602000Y-98620000D02*
X78718000Y-98620000D01*
X68598000Y-98660000D02*
X78722000Y-98660000D01*
X68595000Y-98700000D02*
X78725000Y-98700000D01*
X68592000Y-98740000D02*
X78728000Y-98740000D01*
X68590000Y-98780000D02*
X78730000Y-98780000D01*
X68587000Y-98820000D02*
X78733000Y-98820000D01*
X68585000Y-98860000D02*
X78735000Y-98860000D01*
X68583000Y-98900000D02*
X78737000Y-98900000D01*
X68582000Y-98940000D02*
X78738000Y-98940000D01*
X68581000Y-98980000D02*
X78739000Y-98980000D01*
X68580000Y-99020000D02*
X78740000Y-99020000D01*
X68580000Y-99060000D02*
X78740000Y-99060000D01*
X68580000Y-99100000D02*
X78740000Y-99100000D01*
X78780000Y-99100000D02*
G75*
G03X78780000Y-99100000I-5120000J0D01*
G01*
G04 #@! TO.C,C4*
X58169564Y-127090000D02*
X56965436Y-127090000D01*
X58169564Y-124370000D02*
X56965436Y-124370000D01*
G04 #@! TO.C,C7*
X114975000Y-99100000D02*
G75*
G03X114975000Y-99100000I-5120000J0D01*
G01*
X104775000Y-99100000D02*
X114935000Y-99100000D01*
X104775000Y-99060000D02*
X114935000Y-99060000D01*
X104775000Y-99020000D02*
X114935000Y-99020000D01*
X104776000Y-98980000D02*
X114934000Y-98980000D01*
X104777000Y-98940000D02*
X114933000Y-98940000D01*
X104778000Y-98900000D02*
X114932000Y-98900000D01*
X104780000Y-98860000D02*
X114930000Y-98860000D01*
X104782000Y-98820000D02*
X114928000Y-98820000D01*
X104785000Y-98780000D02*
X114925000Y-98780000D01*
X104787000Y-98740000D02*
X114923000Y-98740000D01*
X104790000Y-98700000D02*
X114920000Y-98700000D01*
X104793000Y-98660000D02*
X114917000Y-98660000D01*
X104797000Y-98620000D02*
X114913000Y-98620000D01*
X104801000Y-98580000D02*
X114909000Y-98580000D01*
X104805000Y-98540000D02*
X114905000Y-98540000D01*
X104810000Y-98500000D02*
X114900000Y-98500000D01*
X104815000Y-98460000D02*
X114895000Y-98460000D01*
X104820000Y-98420000D02*
X114890000Y-98420000D01*
X104825000Y-98379000D02*
X114885000Y-98379000D01*
X104831000Y-98339000D02*
X114879000Y-98339000D01*
X104837000Y-98299000D02*
X114873000Y-98299000D01*
X104844000Y-98259000D02*
X114866000Y-98259000D01*
X104851000Y-98219000D02*
X114859000Y-98219000D01*
X104858000Y-98179000D02*
X114852000Y-98179000D01*
X104865000Y-98139000D02*
X114845000Y-98139000D01*
X104873000Y-98099000D02*
X114837000Y-98099000D01*
X104881000Y-98059000D02*
X114829000Y-98059000D01*
X104890000Y-98019000D02*
X114820000Y-98019000D01*
X104899000Y-97979000D02*
X114811000Y-97979000D01*
X104908000Y-97939000D02*
X114802000Y-97939000D01*
X104917000Y-97899000D02*
X114793000Y-97899000D01*
X104927000Y-97859000D02*
X114783000Y-97859000D01*
X104937000Y-97819000D02*
X108614000Y-97819000D01*
X111096000Y-97819000D02*
X114773000Y-97819000D01*
X104948000Y-97779000D02*
X108614000Y-97779000D01*
X111096000Y-97779000D02*
X114762000Y-97779000D01*
X104958000Y-97739000D02*
X108614000Y-97739000D01*
X111096000Y-97739000D02*
X114752000Y-97739000D01*
X104970000Y-97699000D02*
X108614000Y-97699000D01*
X111096000Y-97699000D02*
X114740000Y-97699000D01*
X104981000Y-97659000D02*
X108614000Y-97659000D01*
X111096000Y-97659000D02*
X114729000Y-97659000D01*
X104993000Y-97619000D02*
X108614000Y-97619000D01*
X111096000Y-97619000D02*
X114717000Y-97619000D01*
X105005000Y-97579000D02*
X108614000Y-97579000D01*
X111096000Y-97579000D02*
X114705000Y-97579000D01*
X105018000Y-97539000D02*
X108614000Y-97539000D01*
X111096000Y-97539000D02*
X114692000Y-97539000D01*
X105031000Y-97499000D02*
X108614000Y-97499000D01*
X111096000Y-97499000D02*
X114679000Y-97499000D01*
X105044000Y-97459000D02*
X108614000Y-97459000D01*
X111096000Y-97459000D02*
X114666000Y-97459000D01*
X105058000Y-97419000D02*
X108614000Y-97419000D01*
X111096000Y-97419000D02*
X114652000Y-97419000D01*
X105072000Y-97379000D02*
X108614000Y-97379000D01*
X111096000Y-97379000D02*
X114638000Y-97379000D01*
X105087000Y-97339000D02*
X108614000Y-97339000D01*
X111096000Y-97339000D02*
X114623000Y-97339000D01*
X105101000Y-97299000D02*
X108614000Y-97299000D01*
X111096000Y-97299000D02*
X114609000Y-97299000D01*
X105117000Y-97259000D02*
X108614000Y-97259000D01*
X111096000Y-97259000D02*
X114593000Y-97259000D01*
X105132000Y-97219000D02*
X108614000Y-97219000D01*
X111096000Y-97219000D02*
X114578000Y-97219000D01*
X105148000Y-97179000D02*
X108614000Y-97179000D01*
X111096000Y-97179000D02*
X114562000Y-97179000D01*
X105165000Y-97139000D02*
X108614000Y-97139000D01*
X111096000Y-97139000D02*
X114545000Y-97139000D01*
X105181000Y-97099000D02*
X108614000Y-97099000D01*
X111096000Y-97099000D02*
X114529000Y-97099000D01*
X105198000Y-97059000D02*
X108614000Y-97059000D01*
X111096000Y-97059000D02*
X114512000Y-97059000D01*
X105216000Y-97019000D02*
X108614000Y-97019000D01*
X111096000Y-97019000D02*
X114494000Y-97019000D01*
X105234000Y-96979000D02*
X108614000Y-96979000D01*
X111096000Y-96979000D02*
X114476000Y-96979000D01*
X105252000Y-96939000D02*
X108614000Y-96939000D01*
X111096000Y-96939000D02*
X114458000Y-96939000D01*
X105271000Y-96899000D02*
X108614000Y-96899000D01*
X111096000Y-96899000D02*
X114439000Y-96899000D01*
X105291000Y-96859000D02*
X108614000Y-96859000D01*
X111096000Y-96859000D02*
X114419000Y-96859000D01*
X105310000Y-96819000D02*
X108614000Y-96819000D01*
X111096000Y-96819000D02*
X114400000Y-96819000D01*
X105330000Y-96779000D02*
X108614000Y-96779000D01*
X111096000Y-96779000D02*
X114380000Y-96779000D01*
X105351000Y-96739000D02*
X108614000Y-96739000D01*
X111096000Y-96739000D02*
X114359000Y-96739000D01*
X105372000Y-96699000D02*
X108614000Y-96699000D01*
X111096000Y-96699000D02*
X114338000Y-96699000D01*
X105393000Y-96659000D02*
X108614000Y-96659000D01*
X111096000Y-96659000D02*
X114317000Y-96659000D01*
X105415000Y-96619000D02*
X108614000Y-96619000D01*
X111096000Y-96619000D02*
X114295000Y-96619000D01*
X105438000Y-96579000D02*
X108614000Y-96579000D01*
X111096000Y-96579000D02*
X114272000Y-96579000D01*
X105460000Y-96539000D02*
X108614000Y-96539000D01*
X111096000Y-96539000D02*
X114250000Y-96539000D01*
X105484000Y-96499000D02*
X108614000Y-96499000D01*
X111096000Y-96499000D02*
X114226000Y-96499000D01*
X105508000Y-96459000D02*
X108614000Y-96459000D01*
X111096000Y-96459000D02*
X114202000Y-96459000D01*
X105532000Y-96419000D02*
X108614000Y-96419000D01*
X111096000Y-96419000D02*
X114178000Y-96419000D01*
X105557000Y-96379000D02*
X108614000Y-96379000D01*
X111096000Y-96379000D02*
X114153000Y-96379000D01*
X105582000Y-96339000D02*
X108614000Y-96339000D01*
X111096000Y-96339000D02*
X114128000Y-96339000D01*
X105608000Y-96299000D02*
X108614000Y-96299000D01*
X111096000Y-96299000D02*
X114102000Y-96299000D01*
X105634000Y-96259000D02*
X108614000Y-96259000D01*
X111096000Y-96259000D02*
X114076000Y-96259000D01*
X105661000Y-96219000D02*
X108614000Y-96219000D01*
X111096000Y-96219000D02*
X114049000Y-96219000D01*
X105689000Y-96179000D02*
X108614000Y-96179000D01*
X111096000Y-96179000D02*
X114021000Y-96179000D01*
X105717000Y-96139000D02*
X108614000Y-96139000D01*
X111096000Y-96139000D02*
X113993000Y-96139000D01*
X105745000Y-96099000D02*
X108614000Y-96099000D01*
X111096000Y-96099000D02*
X113965000Y-96099000D01*
X105775000Y-96059000D02*
X108614000Y-96059000D01*
X111096000Y-96059000D02*
X113935000Y-96059000D01*
X105805000Y-96019000D02*
X108614000Y-96019000D01*
X111096000Y-96019000D02*
X113905000Y-96019000D01*
X105835000Y-95979000D02*
X108614000Y-95979000D01*
X111096000Y-95979000D02*
X113875000Y-95979000D01*
X105866000Y-95939000D02*
X108614000Y-95939000D01*
X111096000Y-95939000D02*
X113844000Y-95939000D01*
X105898000Y-95899000D02*
X108614000Y-95899000D01*
X111096000Y-95899000D02*
X113812000Y-95899000D01*
X105930000Y-95859000D02*
X108614000Y-95859000D01*
X111096000Y-95859000D02*
X113780000Y-95859000D01*
X105963000Y-95819000D02*
X108614000Y-95819000D01*
X111096000Y-95819000D02*
X113747000Y-95819000D01*
X105997000Y-95779000D02*
X108614000Y-95779000D01*
X111096000Y-95779000D02*
X113713000Y-95779000D01*
X106031000Y-95739000D02*
X108614000Y-95739000D01*
X111096000Y-95739000D02*
X113679000Y-95739000D01*
X106066000Y-95699000D02*
X108614000Y-95699000D01*
X111096000Y-95699000D02*
X113644000Y-95699000D01*
X106102000Y-95659000D02*
X108614000Y-95659000D01*
X111096000Y-95659000D02*
X113608000Y-95659000D01*
X106139000Y-95619000D02*
X108614000Y-95619000D01*
X111096000Y-95619000D02*
X113571000Y-95619000D01*
X106176000Y-95579000D02*
X108614000Y-95579000D01*
X111096000Y-95579000D02*
X113534000Y-95579000D01*
X106215000Y-95539000D02*
X108614000Y-95539000D01*
X111096000Y-95539000D02*
X113495000Y-95539000D01*
X106254000Y-95499000D02*
X108614000Y-95499000D01*
X111096000Y-95499000D02*
X113456000Y-95499000D01*
X106294000Y-95459000D02*
X108614000Y-95459000D01*
X111096000Y-95459000D02*
X113416000Y-95459000D01*
X106335000Y-95419000D02*
X108614000Y-95419000D01*
X111096000Y-95419000D02*
X113375000Y-95419000D01*
X106377000Y-95379000D02*
X108614000Y-95379000D01*
X111096000Y-95379000D02*
X113333000Y-95379000D01*
X106419000Y-95339000D02*
X113291000Y-95339000D01*
X106463000Y-95299000D02*
X113247000Y-95299000D01*
X106508000Y-95259000D02*
X113202000Y-95259000D01*
X106554000Y-95219000D02*
X113156000Y-95219000D01*
X106601000Y-95179000D02*
X113109000Y-95179000D01*
X106649000Y-95139000D02*
X113061000Y-95139000D01*
X106699000Y-95099000D02*
X113011000Y-95099000D01*
X106749000Y-95059000D02*
X112961000Y-95059000D01*
X106801000Y-95019000D02*
X112909000Y-95019000D01*
X106855000Y-94979000D02*
X112855000Y-94979000D01*
X106910000Y-94939000D02*
X112800000Y-94939000D01*
X106966000Y-94899000D02*
X112744000Y-94899000D01*
X107025000Y-94859000D02*
X112685000Y-94859000D01*
X107085000Y-94819000D02*
X112625000Y-94819000D01*
X107146000Y-94779000D02*
X112564000Y-94779000D01*
X107210000Y-94739000D02*
X112500000Y-94739000D01*
X107276000Y-94699000D02*
X112434000Y-94699000D01*
X107345000Y-94659000D02*
X112365000Y-94659000D01*
X107416000Y-94619000D02*
X112294000Y-94619000D01*
X107490000Y-94579000D02*
X112220000Y-94579000D01*
X107566000Y-94539000D02*
X112144000Y-94539000D01*
X107646000Y-94499000D02*
X112064000Y-94499000D01*
X107730000Y-94459000D02*
X111980000Y-94459000D01*
X107818000Y-94419000D02*
X111892000Y-94419000D01*
X107911000Y-94379000D02*
X111799000Y-94379000D01*
X108009000Y-94339000D02*
X111701000Y-94339000D01*
X108113000Y-94299000D02*
X111597000Y-94299000D01*
X108225000Y-94259000D02*
X111485000Y-94259000D01*
X108345000Y-94219000D02*
X111365000Y-94219000D01*
X108477000Y-94179000D02*
X111233000Y-94179000D01*
X108625000Y-94139000D02*
X111085000Y-94139000D01*
X108793000Y-94099000D02*
X110917000Y-94099000D01*
X108993000Y-94059000D02*
X110717000Y-94059000D01*
X109256000Y-94019000D02*
X110454000Y-94019000D01*
X106980000Y-104579646D02*
X106980000Y-103579646D01*
X106480000Y-104079646D02*
X107480000Y-104079646D01*
G04 #@! TO.C,C10*
X108675000Y-138814564D02*
X108675000Y-137610436D01*
X105955000Y-138814564D02*
X105955000Y-137610436D01*
G04 #@! TO.C,D1*
D12*
X67762380Y-151868095D02*
X66762380Y-151868095D01*
X66762380Y-151630000D01*
X66810000Y-151487142D01*
X66905238Y-151391904D01*
X67000476Y-151344285D01*
X67190952Y-151296666D01*
X67333809Y-151296666D01*
X67524285Y-151344285D01*
X67619523Y-151391904D01*
X67714761Y-151487142D01*
X67762380Y-151630000D01*
X67762380Y-151868095D01*
X67762380Y-150344285D02*
X67762380Y-150915714D01*
X67762380Y-150630000D02*
X66762380Y-150630000D01*
X66905238Y-150725238D01*
X67000476Y-150820476D01*
X67048095Y-150915714D01*
G04 #@! TO.C,D2*
X104592380Y-151868095D02*
X103592380Y-151868095D01*
X103592380Y-151630000D01*
X103640000Y-151487142D01*
X103735238Y-151391904D01*
X103830476Y-151344285D01*
X104020952Y-151296666D01*
X104163809Y-151296666D01*
X104354285Y-151344285D01*
X104449523Y-151391904D01*
X104544761Y-151487142D01*
X104592380Y-151630000D01*
X104592380Y-151868095D01*
X103687619Y-150915714D02*
X103640000Y-150868095D01*
X103592380Y-150772857D01*
X103592380Y-150534761D01*
X103640000Y-150439523D01*
X103687619Y-150391904D01*
X103782857Y-150344285D01*
X103878095Y-150344285D01*
X104020952Y-150391904D01*
X104592380Y-150963333D01*
X104592380Y-150344285D01*
G04 #@! TO.C,F1*
X73961666Y-147248571D02*
X73628333Y-147248571D01*
X73628333Y-147772380D02*
X73628333Y-146772380D01*
X74104523Y-146772380D01*
X75009285Y-147772380D02*
X74437857Y-147772380D01*
X74723571Y-147772380D02*
X74723571Y-146772380D01*
X74628333Y-146915238D01*
X74533095Y-147010476D01*
X74437857Y-147058095D01*
G04 #@! TO.C,F2*
X93011666Y-147473571D02*
X92678333Y-147473571D01*
X92678333Y-147997380D02*
X92678333Y-146997380D01*
X93154523Y-146997380D01*
X93487857Y-147092619D02*
X93535476Y-147045000D01*
X93630714Y-146997380D01*
X93868809Y-146997380D01*
X93964047Y-147045000D01*
X94011666Y-147092619D01*
X94059285Y-147187857D01*
X94059285Y-147283095D01*
X94011666Y-147425952D01*
X93440238Y-147997380D01*
X94059285Y-147997380D01*
G04 #@! TO.C,R1*
X73477380Y-151296666D02*
X73001190Y-151630000D01*
X73477380Y-151868095D02*
X72477380Y-151868095D01*
X72477380Y-151487142D01*
X72525000Y-151391904D01*
X72572619Y-151344285D01*
X72667857Y-151296666D01*
X72810714Y-151296666D01*
X72905952Y-151344285D01*
X72953571Y-151391904D01*
X73001190Y-151487142D01*
X73001190Y-151868095D01*
X73477380Y-150344285D02*
X73477380Y-150915714D01*
X73477380Y-150630000D02*
X72477380Y-150630000D01*
X72620238Y-150725238D01*
X72715476Y-150820476D01*
X72763095Y-150915714D01*
G04 #@! TO.C,R2*
X98877380Y-151296666D02*
X98401190Y-151630000D01*
X98877380Y-151868095D02*
X97877380Y-151868095D01*
X97877380Y-151487142D01*
X97925000Y-151391904D01*
X97972619Y-151344285D01*
X98067857Y-151296666D01*
X98210714Y-151296666D01*
X98305952Y-151344285D01*
X98353571Y-151391904D01*
X98401190Y-151487142D01*
X98401190Y-151868095D01*
X97972619Y-150915714D02*
X97925000Y-150868095D01*
X97877380Y-150772857D01*
X97877380Y-150534761D01*
X97925000Y-150439523D01*
X97972619Y-150391904D01*
X98067857Y-150344285D01*
X98163095Y-150344285D01*
X98305952Y-150391904D01*
X98877380Y-150963333D01*
X98877380Y-150344285D01*
G04 #@! TO.C,TP1*
X84542380Y-150486904D02*
X84542380Y-149915476D01*
X85542380Y-150201190D02*
X84542380Y-150201190D01*
X85542380Y-149582142D02*
X84542380Y-149582142D01*
X84542380Y-149201190D01*
X84590000Y-149105952D01*
X84637619Y-149058333D01*
X84732857Y-149010714D01*
X84875714Y-149010714D01*
X84970952Y-149058333D01*
X85018571Y-149105952D01*
X85066190Y-149201190D01*
X85066190Y-149582142D01*
X85542380Y-148058333D02*
X85542380Y-148629761D01*
X85542380Y-148344047D02*
X84542380Y-148344047D01*
X84685238Y-148439285D01*
X84780476Y-148534523D01*
X84828095Y-148629761D01*
G04 #@! TO.C,TP2*
X85812380Y-150486904D02*
X85812380Y-149915476D01*
X86812380Y-150201190D02*
X85812380Y-150201190D01*
X86812380Y-149582142D02*
X85812380Y-149582142D01*
X85812380Y-149201190D01*
X85860000Y-149105952D01*
X85907619Y-149058333D01*
X86002857Y-149010714D01*
X86145714Y-149010714D01*
X86240952Y-149058333D01*
X86288571Y-149105952D01*
X86336190Y-149201190D01*
X86336190Y-149582142D01*
X85907619Y-148629761D02*
X85860000Y-148582142D01*
X85812380Y-148486904D01*
X85812380Y-148248809D01*
X85860000Y-148153571D01*
X85907619Y-148105952D01*
X86002857Y-148058333D01*
X86098095Y-148058333D01*
X86240952Y-148105952D01*
X86812380Y-148677380D01*
X86812380Y-148058333D01*
G04 #@! TO.C,J1*
X60586666Y-141077380D02*
X60586666Y-141791666D01*
X60539047Y-141934523D01*
X60443809Y-142029761D01*
X60300952Y-142077380D01*
X60205714Y-142077380D01*
X61586666Y-142077380D02*
X61015238Y-142077380D01*
X61300952Y-142077380D02*
X61300952Y-141077380D01*
X61205714Y-141220238D01*
X61110476Y-141315476D01*
X61015238Y-141363095D01*
G04 #@! TO.C,C1*
X55702142Y-99266666D02*
X55749761Y-99314285D01*
X55797380Y-99457142D01*
X55797380Y-99552380D01*
X55749761Y-99695238D01*
X55654523Y-99790476D01*
X55559285Y-99838095D01*
X55368809Y-99885714D01*
X55225952Y-99885714D01*
X55035476Y-99838095D01*
X54940238Y-99790476D01*
X54845000Y-99695238D01*
X54797380Y-99552380D01*
X54797380Y-99457142D01*
X54845000Y-99314285D01*
X54892619Y-99266666D01*
X55797380Y-98314285D02*
X55797380Y-98885714D01*
X55797380Y-98600000D02*
X54797380Y-98600000D01*
X54940238Y-98695238D01*
X55035476Y-98790476D01*
X55083095Y-98885714D01*
G04 #@! TO.C,J2*
X110116666Y-141077380D02*
X110116666Y-141791666D01*
X110069047Y-141934523D01*
X109973809Y-142029761D01*
X109830952Y-142077380D01*
X109735714Y-142077380D01*
X110545238Y-141172619D02*
X110592857Y-141125000D01*
X110688095Y-141077380D01*
X110926190Y-141077380D01*
X111021428Y-141125000D01*
X111069047Y-141172619D01*
X111116666Y-141267857D01*
X111116666Y-141363095D01*
X111069047Y-141505952D01*
X110497619Y-142077380D01*
X111116666Y-142077380D01*
G04 #@! TO.C,U1*
X84963095Y-139787380D02*
X84963095Y-140596904D01*
X85010714Y-140692142D01*
X85058333Y-140739761D01*
X85153571Y-140787380D01*
X85344047Y-140787380D01*
X85439285Y-140739761D01*
X85486904Y-140692142D01*
X85534523Y-140596904D01*
X85534523Y-139787380D01*
X86534523Y-140787380D02*
X85963095Y-140787380D01*
X86248809Y-140787380D02*
X86248809Y-139787380D01*
X86153571Y-139930238D01*
X86058333Y-140025476D01*
X85963095Y-140073095D01*
G04 #@! TO.C,C5*
X91897142Y-99266666D02*
X91944761Y-99314285D01*
X91992380Y-99457142D01*
X91992380Y-99552380D01*
X91944761Y-99695238D01*
X91849523Y-99790476D01*
X91754285Y-99838095D01*
X91563809Y-99885714D01*
X91420952Y-99885714D01*
X91230476Y-99838095D01*
X91135238Y-99790476D01*
X91040000Y-99695238D01*
X90992380Y-99552380D01*
X90992380Y-99457142D01*
X91040000Y-99314285D01*
X91087619Y-99266666D01*
X90992380Y-98361904D02*
X90992380Y-98838095D01*
X91468571Y-98885714D01*
X91420952Y-98838095D01*
X91373333Y-98742857D01*
X91373333Y-98504761D01*
X91420952Y-98409523D01*
X91468571Y-98361904D01*
X91563809Y-98314285D01*
X91801904Y-98314285D01*
X91897142Y-98361904D01*
X91944761Y-98409523D01*
X91992380Y-98504761D01*
X91992380Y-98742857D01*
X91944761Y-98838095D01*
X91897142Y-98885714D01*
G04 #@! TO.C,C6*
X79832142Y-99266666D02*
X79879761Y-99314285D01*
X79927380Y-99457142D01*
X79927380Y-99552380D01*
X79879761Y-99695238D01*
X79784523Y-99790476D01*
X79689285Y-99838095D01*
X79498809Y-99885714D01*
X79355952Y-99885714D01*
X79165476Y-99838095D01*
X79070238Y-99790476D01*
X78975000Y-99695238D01*
X78927380Y-99552380D01*
X78927380Y-99457142D01*
X78975000Y-99314285D01*
X79022619Y-99266666D01*
X78927380Y-98409523D02*
X78927380Y-98600000D01*
X78975000Y-98695238D01*
X79022619Y-98742857D01*
X79165476Y-98838095D01*
X79355952Y-98885714D01*
X79736904Y-98885714D01*
X79832142Y-98838095D01*
X79879761Y-98790476D01*
X79927380Y-98695238D01*
X79927380Y-98504761D01*
X79879761Y-98409523D01*
X79832142Y-98361904D01*
X79736904Y-98314285D01*
X79498809Y-98314285D01*
X79403571Y-98361904D01*
X79355952Y-98409523D01*
X79308333Y-98504761D01*
X79308333Y-98695238D01*
X79355952Y-98790476D01*
X79403571Y-98838095D01*
X79498809Y-98885714D01*
G04 #@! TO.C,C3*
X57400833Y-123922142D02*
X57353214Y-123969761D01*
X57210357Y-124017380D01*
X57115119Y-124017380D01*
X56972261Y-123969761D01*
X56877023Y-123874523D01*
X56829404Y-123779285D01*
X56781785Y-123588809D01*
X56781785Y-123445952D01*
X56829404Y-123255476D01*
X56877023Y-123160238D01*
X56972261Y-123065000D01*
X57115119Y-123017380D01*
X57210357Y-123017380D01*
X57353214Y-123065000D01*
X57400833Y-123112619D01*
X57734166Y-123017380D02*
X58353214Y-123017380D01*
X58019880Y-123398333D01*
X58162738Y-123398333D01*
X58257976Y-123445952D01*
X58305595Y-123493571D01*
X58353214Y-123588809D01*
X58353214Y-123826904D01*
X58305595Y-123922142D01*
X58257976Y-123969761D01*
X58162738Y-124017380D01*
X57877023Y-124017380D01*
X57781785Y-123969761D01*
X57734166Y-123922142D01*
G04 #@! TO.C,C8*
X96502142Y-138379166D02*
X96549761Y-138426785D01*
X96597380Y-138569642D01*
X96597380Y-138664880D01*
X96549761Y-138807738D01*
X96454523Y-138902976D01*
X96359285Y-138950595D01*
X96168809Y-138998214D01*
X96025952Y-138998214D01*
X95835476Y-138950595D01*
X95740238Y-138902976D01*
X95645000Y-138807738D01*
X95597380Y-138664880D01*
X95597380Y-138569642D01*
X95645000Y-138426785D01*
X95692619Y-138379166D01*
X96025952Y-137807738D02*
X95978333Y-137902976D01*
X95930714Y-137950595D01*
X95835476Y-137998214D01*
X95787857Y-137998214D01*
X95692619Y-137950595D01*
X95645000Y-137902976D01*
X95597380Y-137807738D01*
X95597380Y-137617261D01*
X95645000Y-137522023D01*
X95692619Y-137474404D01*
X95787857Y-137426785D01*
X95835476Y-137426785D01*
X95930714Y-137474404D01*
X95978333Y-137522023D01*
X96025952Y-137617261D01*
X96025952Y-137807738D01*
X96073571Y-137902976D01*
X96121190Y-137950595D01*
X96216428Y-137998214D01*
X96406904Y-137998214D01*
X96502142Y-137950595D01*
X96549761Y-137902976D01*
X96597380Y-137807738D01*
X96597380Y-137617261D01*
X96549761Y-137522023D01*
X96502142Y-137474404D01*
X96406904Y-137426785D01*
X96216428Y-137426785D01*
X96121190Y-137474404D01*
X96073571Y-137522023D01*
X96025952Y-137617261D01*
G04 #@! TO.C,C9*
X100947142Y-138379166D02*
X100994761Y-138426785D01*
X101042380Y-138569642D01*
X101042380Y-138664880D01*
X100994761Y-138807738D01*
X100899523Y-138902976D01*
X100804285Y-138950595D01*
X100613809Y-138998214D01*
X100470952Y-138998214D01*
X100280476Y-138950595D01*
X100185238Y-138902976D01*
X100090000Y-138807738D01*
X100042380Y-138664880D01*
X100042380Y-138569642D01*
X100090000Y-138426785D01*
X100137619Y-138379166D01*
X101042380Y-137902976D02*
X101042380Y-137712500D01*
X100994761Y-137617261D01*
X100947142Y-137569642D01*
X100804285Y-137474404D01*
X100613809Y-137426785D01*
X100232857Y-137426785D01*
X100137619Y-137474404D01*
X100090000Y-137522023D01*
X100042380Y-137617261D01*
X100042380Y-137807738D01*
X100090000Y-137902976D01*
X100137619Y-137950595D01*
X100232857Y-137998214D01*
X100470952Y-137998214D01*
X100566190Y-137950595D01*
X100613809Y-137902976D01*
X100661428Y-137807738D01*
X100661428Y-137617261D01*
X100613809Y-137522023D01*
X100566190Y-137474404D01*
X100470952Y-137426785D01*
G04 #@! TO.C,C2*
X67767142Y-99266666D02*
X67814761Y-99314285D01*
X67862380Y-99457142D01*
X67862380Y-99552380D01*
X67814761Y-99695238D01*
X67719523Y-99790476D01*
X67624285Y-99838095D01*
X67433809Y-99885714D01*
X67290952Y-99885714D01*
X67100476Y-99838095D01*
X67005238Y-99790476D01*
X66910000Y-99695238D01*
X66862380Y-99552380D01*
X66862380Y-99457142D01*
X66910000Y-99314285D01*
X66957619Y-99266666D01*
X66957619Y-98885714D02*
X66910000Y-98838095D01*
X66862380Y-98742857D01*
X66862380Y-98504761D01*
X66910000Y-98409523D01*
X66957619Y-98361904D01*
X67052857Y-98314285D01*
X67148095Y-98314285D01*
X67290952Y-98361904D01*
X67862380Y-98933333D01*
X67862380Y-98314285D01*
G04 #@! TO.C,C4*
X57400833Y-128367142D02*
X57353214Y-128414761D01*
X57210357Y-128462380D01*
X57115119Y-128462380D01*
X56972261Y-128414761D01*
X56877023Y-128319523D01*
X56829404Y-128224285D01*
X56781785Y-128033809D01*
X56781785Y-127890952D01*
X56829404Y-127700476D01*
X56877023Y-127605238D01*
X56972261Y-127510000D01*
X57115119Y-127462380D01*
X57210357Y-127462380D01*
X57353214Y-127510000D01*
X57400833Y-127557619D01*
X58257976Y-127795714D02*
X58257976Y-128462380D01*
X58019880Y-127414761D02*
X57781785Y-128129047D01*
X58400833Y-128129047D01*
G04 #@! TO.C,C7*
X103962142Y-99266666D02*
X104009761Y-99314285D01*
X104057380Y-99457142D01*
X104057380Y-99552380D01*
X104009761Y-99695238D01*
X103914523Y-99790476D01*
X103819285Y-99838095D01*
X103628809Y-99885714D01*
X103485952Y-99885714D01*
X103295476Y-99838095D01*
X103200238Y-99790476D01*
X103105000Y-99695238D01*
X103057380Y-99552380D01*
X103057380Y-99457142D01*
X103105000Y-99314285D01*
X103152619Y-99266666D01*
X103057380Y-98933333D02*
X103057380Y-98266666D01*
X104057380Y-98695238D01*
G04 #@! TO.C,C10*
X105392142Y-138855357D02*
X105439761Y-138902976D01*
X105487380Y-139045833D01*
X105487380Y-139141071D01*
X105439761Y-139283928D01*
X105344523Y-139379166D01*
X105249285Y-139426785D01*
X105058809Y-139474404D01*
X104915952Y-139474404D01*
X104725476Y-139426785D01*
X104630238Y-139379166D01*
X104535000Y-139283928D01*
X104487380Y-139141071D01*
X104487380Y-139045833D01*
X104535000Y-138902976D01*
X104582619Y-138855357D01*
X105487380Y-137902976D02*
X105487380Y-138474404D01*
X105487380Y-138188690D02*
X104487380Y-138188690D01*
X104630238Y-138283928D01*
X104725476Y-138379166D01*
X104773095Y-138474404D01*
X104487380Y-137283928D02*
X104487380Y-137188690D01*
X104535000Y-137093452D01*
X104582619Y-137045833D01*
X104677857Y-136998214D01*
X104868333Y-136950595D01*
X105106428Y-136950595D01*
X105296904Y-136998214D01*
X105392142Y-137045833D01*
X105439761Y-137093452D01*
X105487380Y-137188690D01*
X105487380Y-137283928D01*
X105439761Y-137379166D01*
X105392142Y-137426785D01*
X105296904Y-137474404D01*
X105106428Y-137522023D01*
X104868333Y-137522023D01*
X104677857Y-137474404D01*
X104582619Y-137426785D01*
X104535000Y-137379166D01*
X104487380Y-137283928D01*
G04 #@! TO.C,REF\002A\002A*
X43116666Y-147137380D02*
X42783333Y-146661190D01*
X42545238Y-147137380D02*
X42545238Y-146137380D01*
X42926190Y-146137380D01*
X43021428Y-146185000D01*
X43069047Y-146232619D01*
X43116666Y-146327857D01*
X43116666Y-146470714D01*
X43069047Y-146565952D01*
X43021428Y-146613571D01*
X42926190Y-146661190D01*
X42545238Y-146661190D01*
X43545238Y-146613571D02*
X43878571Y-146613571D01*
X44021428Y-147137380D02*
X43545238Y-147137380D01*
X43545238Y-146137380D01*
X44021428Y-146137380D01*
X44783333Y-146613571D02*
X44450000Y-146613571D01*
X44450000Y-147137380D02*
X44450000Y-146137380D01*
X44926190Y-146137380D01*
X45450000Y-146137380D02*
X45450000Y-146375476D01*
X45211904Y-146280238D02*
X45450000Y-146375476D01*
X45688095Y-146280238D01*
X45307142Y-146565952D02*
X45450000Y-146375476D01*
X45592857Y-146565952D01*
X46211904Y-146137380D02*
X46211904Y-146375476D01*
X45973809Y-146280238D02*
X46211904Y-146375476D01*
X46450000Y-146280238D01*
X46069047Y-146565952D02*
X46211904Y-146375476D01*
X46354761Y-146565952D01*
X125666666Y-146502380D02*
X125333333Y-146026190D01*
X125095238Y-146502380D02*
X125095238Y-145502380D01*
X125476190Y-145502380D01*
X125571428Y-145550000D01*
X125619047Y-145597619D01*
X125666666Y-145692857D01*
X125666666Y-145835714D01*
X125619047Y-145930952D01*
X125571428Y-145978571D01*
X125476190Y-146026190D01*
X125095238Y-146026190D01*
X126095238Y-145978571D02*
X126428571Y-145978571D01*
X126571428Y-146502380D02*
X126095238Y-146502380D01*
X126095238Y-145502380D01*
X126571428Y-145502380D01*
X127333333Y-145978571D02*
X127000000Y-145978571D01*
X127000000Y-146502380D02*
X127000000Y-145502380D01*
X127476190Y-145502380D01*
X128000000Y-145502380D02*
X128000000Y-145740476D01*
X127761904Y-145645238D02*
X128000000Y-145740476D01*
X128238095Y-145645238D01*
X127857142Y-145930952D02*
X128000000Y-145740476D01*
X128142857Y-145930952D01*
X128761904Y-145502380D02*
X128761904Y-145740476D01*
X128523809Y-145645238D02*
X128761904Y-145740476D01*
X129000000Y-145645238D01*
X128619047Y-145930952D02*
X128761904Y-145740476D01*
X128904761Y-145930952D01*
X125666666Y-97607380D02*
X125333333Y-97131190D01*
X125095238Y-97607380D02*
X125095238Y-96607380D01*
X125476190Y-96607380D01*
X125571428Y-96655000D01*
X125619047Y-96702619D01*
X125666666Y-96797857D01*
X125666666Y-96940714D01*
X125619047Y-97035952D01*
X125571428Y-97083571D01*
X125476190Y-97131190D01*
X125095238Y-97131190D01*
X126095238Y-97083571D02*
X126428571Y-97083571D01*
X126571428Y-97607380D02*
X126095238Y-97607380D01*
X126095238Y-96607380D01*
X126571428Y-96607380D01*
X127333333Y-97083571D02*
X127000000Y-97083571D01*
X127000000Y-97607380D02*
X127000000Y-96607380D01*
X127476190Y-96607380D01*
X128000000Y-96607380D02*
X128000000Y-96845476D01*
X127761904Y-96750238D02*
X128000000Y-96845476D01*
X128238095Y-96750238D01*
X127857142Y-97035952D02*
X128000000Y-96845476D01*
X128142857Y-97035952D01*
X128761904Y-96607380D02*
X128761904Y-96845476D01*
X128523809Y-96750238D02*
X128761904Y-96845476D01*
X129000000Y-96750238D01*
X128619047Y-97035952D02*
X128761904Y-96845476D01*
X128904761Y-97035952D01*
X43116666Y-96972380D02*
X42783333Y-96496190D01*
X42545238Y-96972380D02*
X42545238Y-95972380D01*
X42926190Y-95972380D01*
X43021428Y-96020000D01*
X43069047Y-96067619D01*
X43116666Y-96162857D01*
X43116666Y-96305714D01*
X43069047Y-96400952D01*
X43021428Y-96448571D01*
X42926190Y-96496190D01*
X42545238Y-96496190D01*
X43545238Y-96448571D02*
X43878571Y-96448571D01*
X44021428Y-96972380D02*
X43545238Y-96972380D01*
X43545238Y-95972380D01*
X44021428Y-95972380D01*
X44783333Y-96448571D02*
X44450000Y-96448571D01*
X44450000Y-96972380D02*
X44450000Y-95972380D01*
X44926190Y-95972380D01*
X45450000Y-95972380D02*
X45450000Y-96210476D01*
X45211904Y-96115238D02*
X45450000Y-96210476D01*
X45688095Y-96115238D01*
X45307142Y-96400952D02*
X45450000Y-96210476D01*
X45592857Y-96400952D01*
X46211904Y-95972380D02*
X46211904Y-96210476D01*
X45973809Y-96115238D02*
X46211904Y-96210476D01*
X46450000Y-96115238D01*
X46069047Y-96400952D02*
X46211904Y-96210476D01*
X46354761Y-96400952D01*
G04 #@! TD*
M02*
