G04 #@! TF.GenerationSoftware,KiCad,Pcbnew,5.0.2+dfsg1-1*
G04 #@! TF.CreationDate,2021-08-07T23:33:46+09:00*
G04 #@! TF.ProjectId,juice-plus,6a756963-652d-4706-9c75-732e6b696361,rev?*
G04 #@! TF.SameCoordinates,Original*
G04 #@! TF.FileFunction,Copper,L1,Top*
G04 #@! TF.FilePolarity,Positive*
%FSLAX46Y46*%
G04 Gerber Fmt 4.6, Leading zero omitted, Abs format (unit mm)*
G04 Created by KiCad (PCBNEW 5.0.2+dfsg1-1) date Sat 07 Aug 2021 11:33:46 PM JST*
%MOMM*%
%LPD*%
G01*
G04 APERTURE LIST*
G04 #@! TA.AperFunction,Conductor*
%ADD10C,0.100000*%
G04 #@! TD*
G04 #@! TA.AperFunction,SMDPad,CuDef*
%ADD11C,1.150000*%
G04 #@! TD*
G04 #@! TA.AperFunction,ComponentPad*
%ADD12C,2.780000*%
G04 #@! TD*
G04 #@! TA.AperFunction,ComponentPad*
%ADD13C,1.400000*%
G04 #@! TD*
G04 #@! TA.AperFunction,ComponentPad*
%ADD14R,2.600000X2.600000*%
G04 #@! TD*
G04 #@! TA.AperFunction,ComponentPad*
%ADD15C,2.600000*%
G04 #@! TD*
G04 #@! TA.AperFunction,ComponentPad*
%ADD16R,2.000000X2.000000*%
G04 #@! TD*
G04 #@! TA.AperFunction,ComponentPad*
%ADD17C,2.000000*%
G04 #@! TD*
G04 #@! TA.AperFunction,ComponentPad*
%ADD18C,6.000000*%
G04 #@! TD*
G04 #@! TA.AperFunction,ComponentPad*
%ADD19C,4.000000*%
G04 #@! TD*
G04 #@! TA.AperFunction,SMDPad,CuDef*
%ADD20C,1.425000*%
G04 #@! TD*
G04 #@! TA.AperFunction,ViaPad*
%ADD21C,0.800000*%
G04 #@! TD*
G04 #@! TA.AperFunction,Conductor*
%ADD22C,2.000000*%
G04 #@! TD*
G04 #@! TA.AperFunction,Conductor*
%ADD23C,0.250000*%
G04 #@! TD*
G04 #@! TA.AperFunction,Conductor*
%ADD24C,0.254000*%
G04 #@! TD*
G04 APERTURE END LIST*
D10*
G04 #@! TO.N,Net-(D1-Pad2)*
G04 #@! TO.C,D1*
G36*
X71614505Y-150431204D02*
X71638773Y-150434804D01*
X71662572Y-150440765D01*
X71685671Y-150449030D01*
X71707850Y-150459520D01*
X71728893Y-150472132D01*
X71748599Y-150486747D01*
X71766777Y-150503223D01*
X71783253Y-150521401D01*
X71797868Y-150541107D01*
X71810480Y-150562150D01*
X71820970Y-150584329D01*
X71829235Y-150607428D01*
X71835196Y-150631227D01*
X71838796Y-150655495D01*
X71840000Y-150679999D01*
X71840000Y-151580001D01*
X71838796Y-151604505D01*
X71835196Y-151628773D01*
X71829235Y-151652572D01*
X71820970Y-151675671D01*
X71810480Y-151697850D01*
X71797868Y-151718893D01*
X71783253Y-151738599D01*
X71766777Y-151756777D01*
X71748599Y-151773253D01*
X71728893Y-151787868D01*
X71707850Y-151800480D01*
X71685671Y-151810970D01*
X71662572Y-151819235D01*
X71638773Y-151825196D01*
X71614505Y-151828796D01*
X71590001Y-151830000D01*
X70939999Y-151830000D01*
X70915495Y-151828796D01*
X70891227Y-151825196D01*
X70867428Y-151819235D01*
X70844329Y-151810970D01*
X70822150Y-151800480D01*
X70801107Y-151787868D01*
X70781401Y-151773253D01*
X70763223Y-151756777D01*
X70746747Y-151738599D01*
X70732132Y-151718893D01*
X70719520Y-151697850D01*
X70709030Y-151675671D01*
X70700765Y-151652572D01*
X70694804Y-151628773D01*
X70691204Y-151604505D01*
X70690000Y-151580001D01*
X70690000Y-150679999D01*
X70691204Y-150655495D01*
X70694804Y-150631227D01*
X70700765Y-150607428D01*
X70709030Y-150584329D01*
X70719520Y-150562150D01*
X70732132Y-150541107D01*
X70746747Y-150521401D01*
X70763223Y-150503223D01*
X70781401Y-150486747D01*
X70801107Y-150472132D01*
X70822150Y-150459520D01*
X70844329Y-150449030D01*
X70867428Y-150440765D01*
X70891227Y-150434804D01*
X70915495Y-150431204D01*
X70939999Y-150430000D01*
X71590001Y-150430000D01*
X71614505Y-150431204D01*
X71614505Y-150431204D01*
G37*
D11*
G04 #@! TD*
G04 #@! TO.P,D1,2*
G04 #@! TO.N,Net-(D1-Pad2)*
X71265000Y-151130000D03*
D10*
G04 #@! TO.N,GND*
G04 #@! TO.C,D1*
G36*
X69564505Y-150431204D02*
X69588773Y-150434804D01*
X69612572Y-150440765D01*
X69635671Y-150449030D01*
X69657850Y-150459520D01*
X69678893Y-150472132D01*
X69698599Y-150486747D01*
X69716777Y-150503223D01*
X69733253Y-150521401D01*
X69747868Y-150541107D01*
X69760480Y-150562150D01*
X69770970Y-150584329D01*
X69779235Y-150607428D01*
X69785196Y-150631227D01*
X69788796Y-150655495D01*
X69790000Y-150679999D01*
X69790000Y-151580001D01*
X69788796Y-151604505D01*
X69785196Y-151628773D01*
X69779235Y-151652572D01*
X69770970Y-151675671D01*
X69760480Y-151697850D01*
X69747868Y-151718893D01*
X69733253Y-151738599D01*
X69716777Y-151756777D01*
X69698599Y-151773253D01*
X69678893Y-151787868D01*
X69657850Y-151800480D01*
X69635671Y-151810970D01*
X69612572Y-151819235D01*
X69588773Y-151825196D01*
X69564505Y-151828796D01*
X69540001Y-151830000D01*
X68889999Y-151830000D01*
X68865495Y-151828796D01*
X68841227Y-151825196D01*
X68817428Y-151819235D01*
X68794329Y-151810970D01*
X68772150Y-151800480D01*
X68751107Y-151787868D01*
X68731401Y-151773253D01*
X68713223Y-151756777D01*
X68696747Y-151738599D01*
X68682132Y-151718893D01*
X68669520Y-151697850D01*
X68659030Y-151675671D01*
X68650765Y-151652572D01*
X68644804Y-151628773D01*
X68641204Y-151604505D01*
X68640000Y-151580001D01*
X68640000Y-150679999D01*
X68641204Y-150655495D01*
X68644804Y-150631227D01*
X68650765Y-150607428D01*
X68659030Y-150584329D01*
X68669520Y-150562150D01*
X68682132Y-150541107D01*
X68696747Y-150521401D01*
X68713223Y-150503223D01*
X68731401Y-150486747D01*
X68751107Y-150472132D01*
X68772150Y-150459520D01*
X68794329Y-150449030D01*
X68817428Y-150440765D01*
X68841227Y-150434804D01*
X68865495Y-150431204D01*
X68889999Y-150430000D01*
X69540001Y-150430000D01*
X69564505Y-150431204D01*
X69564505Y-150431204D01*
G37*
D11*
G04 #@! TD*
G04 #@! TO.P,D1,1*
G04 #@! TO.N,GND*
X69215000Y-151130000D03*
D10*
G04 #@! TO.N,GND*
G04 #@! TO.C,D2*
G36*
X102584505Y-150431204D02*
X102608773Y-150434804D01*
X102632572Y-150440765D01*
X102655671Y-150449030D01*
X102677850Y-150459520D01*
X102698893Y-150472132D01*
X102718599Y-150486747D01*
X102736777Y-150503223D01*
X102753253Y-150521401D01*
X102767868Y-150541107D01*
X102780480Y-150562150D01*
X102790970Y-150584329D01*
X102799235Y-150607428D01*
X102805196Y-150631227D01*
X102808796Y-150655495D01*
X102810000Y-150679999D01*
X102810000Y-151580001D01*
X102808796Y-151604505D01*
X102805196Y-151628773D01*
X102799235Y-151652572D01*
X102790970Y-151675671D01*
X102780480Y-151697850D01*
X102767868Y-151718893D01*
X102753253Y-151738599D01*
X102736777Y-151756777D01*
X102718599Y-151773253D01*
X102698893Y-151787868D01*
X102677850Y-151800480D01*
X102655671Y-151810970D01*
X102632572Y-151819235D01*
X102608773Y-151825196D01*
X102584505Y-151828796D01*
X102560001Y-151830000D01*
X101909999Y-151830000D01*
X101885495Y-151828796D01*
X101861227Y-151825196D01*
X101837428Y-151819235D01*
X101814329Y-151810970D01*
X101792150Y-151800480D01*
X101771107Y-151787868D01*
X101751401Y-151773253D01*
X101733223Y-151756777D01*
X101716747Y-151738599D01*
X101702132Y-151718893D01*
X101689520Y-151697850D01*
X101679030Y-151675671D01*
X101670765Y-151652572D01*
X101664804Y-151628773D01*
X101661204Y-151604505D01*
X101660000Y-151580001D01*
X101660000Y-150679999D01*
X101661204Y-150655495D01*
X101664804Y-150631227D01*
X101670765Y-150607428D01*
X101679030Y-150584329D01*
X101689520Y-150562150D01*
X101702132Y-150541107D01*
X101716747Y-150521401D01*
X101733223Y-150503223D01*
X101751401Y-150486747D01*
X101771107Y-150472132D01*
X101792150Y-150459520D01*
X101814329Y-150449030D01*
X101837428Y-150440765D01*
X101861227Y-150434804D01*
X101885495Y-150431204D01*
X101909999Y-150430000D01*
X102560001Y-150430000D01*
X102584505Y-150431204D01*
X102584505Y-150431204D01*
G37*
D11*
G04 #@! TD*
G04 #@! TO.P,D2,1*
G04 #@! TO.N,GND*
X102235000Y-151130000D03*
D10*
G04 #@! TO.N,Net-(D2-Pad2)*
G04 #@! TO.C,D2*
G36*
X100534505Y-150431204D02*
X100558773Y-150434804D01*
X100582572Y-150440765D01*
X100605671Y-150449030D01*
X100627850Y-150459520D01*
X100648893Y-150472132D01*
X100668599Y-150486747D01*
X100686777Y-150503223D01*
X100703253Y-150521401D01*
X100717868Y-150541107D01*
X100730480Y-150562150D01*
X100740970Y-150584329D01*
X100749235Y-150607428D01*
X100755196Y-150631227D01*
X100758796Y-150655495D01*
X100760000Y-150679999D01*
X100760000Y-151580001D01*
X100758796Y-151604505D01*
X100755196Y-151628773D01*
X100749235Y-151652572D01*
X100740970Y-151675671D01*
X100730480Y-151697850D01*
X100717868Y-151718893D01*
X100703253Y-151738599D01*
X100686777Y-151756777D01*
X100668599Y-151773253D01*
X100648893Y-151787868D01*
X100627850Y-151800480D01*
X100605671Y-151810970D01*
X100582572Y-151819235D01*
X100558773Y-151825196D01*
X100534505Y-151828796D01*
X100510001Y-151830000D01*
X99859999Y-151830000D01*
X99835495Y-151828796D01*
X99811227Y-151825196D01*
X99787428Y-151819235D01*
X99764329Y-151810970D01*
X99742150Y-151800480D01*
X99721107Y-151787868D01*
X99701401Y-151773253D01*
X99683223Y-151756777D01*
X99666747Y-151738599D01*
X99652132Y-151718893D01*
X99639520Y-151697850D01*
X99629030Y-151675671D01*
X99620765Y-151652572D01*
X99614804Y-151628773D01*
X99611204Y-151604505D01*
X99610000Y-151580001D01*
X99610000Y-150679999D01*
X99611204Y-150655495D01*
X99614804Y-150631227D01*
X99620765Y-150607428D01*
X99629030Y-150584329D01*
X99639520Y-150562150D01*
X99652132Y-150541107D01*
X99666747Y-150521401D01*
X99683223Y-150503223D01*
X99701401Y-150486747D01*
X99721107Y-150472132D01*
X99742150Y-150459520D01*
X99764329Y-150449030D01*
X99787428Y-150440765D01*
X99811227Y-150434804D01*
X99835495Y-150431204D01*
X99859999Y-150430000D01*
X100510001Y-150430000D01*
X100534505Y-150431204D01*
X100534505Y-150431204D01*
G37*
D11*
G04 #@! TD*
G04 #@! TO.P,D2,2*
G04 #@! TO.N,Net-(D2-Pad2)*
X100185000Y-151130000D03*
D12*
G04 #@! TO.P,F1,1*
G04 #@! TO.N,+24V*
X81040000Y-147545000D03*
X81040000Y-144145000D03*
G04 #@! TO.P,F1,2*
G04 #@! TO.N,Net-(F1-Pad2)*
X71120000Y-147545000D03*
X71120000Y-144145000D03*
G04 #@! TD*
G04 #@! TO.P,F2,2*
G04 #@! TO.N,Net-(F2-Pad2)*
X90410000Y-144145000D03*
X90410000Y-147545000D03*
G04 #@! TO.P,F2,1*
G04 #@! TO.N,Net-(C10-Pad1)*
X100330000Y-144145000D03*
X100330000Y-147545000D03*
G04 #@! TD*
D10*
G04 #@! TO.N,Net-(D1-Pad2)*
G04 #@! TO.C,R1*
G36*
X75134505Y-150431204D02*
X75158773Y-150434804D01*
X75182572Y-150440765D01*
X75205671Y-150449030D01*
X75227850Y-150459520D01*
X75248893Y-150472132D01*
X75268599Y-150486747D01*
X75286777Y-150503223D01*
X75303253Y-150521401D01*
X75317868Y-150541107D01*
X75330480Y-150562150D01*
X75340970Y-150584329D01*
X75349235Y-150607428D01*
X75355196Y-150631227D01*
X75358796Y-150655495D01*
X75360000Y-150679999D01*
X75360000Y-151580001D01*
X75358796Y-151604505D01*
X75355196Y-151628773D01*
X75349235Y-151652572D01*
X75340970Y-151675671D01*
X75330480Y-151697850D01*
X75317868Y-151718893D01*
X75303253Y-151738599D01*
X75286777Y-151756777D01*
X75268599Y-151773253D01*
X75248893Y-151787868D01*
X75227850Y-151800480D01*
X75205671Y-151810970D01*
X75182572Y-151819235D01*
X75158773Y-151825196D01*
X75134505Y-151828796D01*
X75110001Y-151830000D01*
X74459999Y-151830000D01*
X74435495Y-151828796D01*
X74411227Y-151825196D01*
X74387428Y-151819235D01*
X74364329Y-151810970D01*
X74342150Y-151800480D01*
X74321107Y-151787868D01*
X74301401Y-151773253D01*
X74283223Y-151756777D01*
X74266747Y-151738599D01*
X74252132Y-151718893D01*
X74239520Y-151697850D01*
X74229030Y-151675671D01*
X74220765Y-151652572D01*
X74214804Y-151628773D01*
X74211204Y-151604505D01*
X74210000Y-151580001D01*
X74210000Y-150679999D01*
X74211204Y-150655495D01*
X74214804Y-150631227D01*
X74220765Y-150607428D01*
X74229030Y-150584329D01*
X74239520Y-150562150D01*
X74252132Y-150541107D01*
X74266747Y-150521401D01*
X74283223Y-150503223D01*
X74301401Y-150486747D01*
X74321107Y-150472132D01*
X74342150Y-150459520D01*
X74364329Y-150449030D01*
X74387428Y-150440765D01*
X74411227Y-150434804D01*
X74435495Y-150431204D01*
X74459999Y-150430000D01*
X75110001Y-150430000D01*
X75134505Y-150431204D01*
X75134505Y-150431204D01*
G37*
D11*
G04 #@! TD*
G04 #@! TO.P,R1,2*
G04 #@! TO.N,Net-(D1-Pad2)*
X74785000Y-151130000D03*
D10*
G04 #@! TO.N,+24V*
G04 #@! TO.C,R1*
G36*
X77184505Y-150431204D02*
X77208773Y-150434804D01*
X77232572Y-150440765D01*
X77255671Y-150449030D01*
X77277850Y-150459520D01*
X77298893Y-150472132D01*
X77318599Y-150486747D01*
X77336777Y-150503223D01*
X77353253Y-150521401D01*
X77367868Y-150541107D01*
X77380480Y-150562150D01*
X77390970Y-150584329D01*
X77399235Y-150607428D01*
X77405196Y-150631227D01*
X77408796Y-150655495D01*
X77410000Y-150679999D01*
X77410000Y-151580001D01*
X77408796Y-151604505D01*
X77405196Y-151628773D01*
X77399235Y-151652572D01*
X77390970Y-151675671D01*
X77380480Y-151697850D01*
X77367868Y-151718893D01*
X77353253Y-151738599D01*
X77336777Y-151756777D01*
X77318599Y-151773253D01*
X77298893Y-151787868D01*
X77277850Y-151800480D01*
X77255671Y-151810970D01*
X77232572Y-151819235D01*
X77208773Y-151825196D01*
X77184505Y-151828796D01*
X77160001Y-151830000D01*
X76509999Y-151830000D01*
X76485495Y-151828796D01*
X76461227Y-151825196D01*
X76437428Y-151819235D01*
X76414329Y-151810970D01*
X76392150Y-151800480D01*
X76371107Y-151787868D01*
X76351401Y-151773253D01*
X76333223Y-151756777D01*
X76316747Y-151738599D01*
X76302132Y-151718893D01*
X76289520Y-151697850D01*
X76279030Y-151675671D01*
X76270765Y-151652572D01*
X76264804Y-151628773D01*
X76261204Y-151604505D01*
X76260000Y-151580001D01*
X76260000Y-150679999D01*
X76261204Y-150655495D01*
X76264804Y-150631227D01*
X76270765Y-150607428D01*
X76279030Y-150584329D01*
X76289520Y-150562150D01*
X76302132Y-150541107D01*
X76316747Y-150521401D01*
X76333223Y-150503223D01*
X76351401Y-150486747D01*
X76371107Y-150472132D01*
X76392150Y-150459520D01*
X76414329Y-150449030D01*
X76437428Y-150440765D01*
X76461227Y-150434804D01*
X76485495Y-150431204D01*
X76509999Y-150430000D01*
X77160001Y-150430000D01*
X77184505Y-150431204D01*
X77184505Y-150431204D01*
G37*
D11*
G04 #@! TD*
G04 #@! TO.P,R1,1*
G04 #@! TO.N,+24V*
X76835000Y-151130000D03*
D10*
G04 #@! TO.N,Net-(D2-Pad2)*
G04 #@! TO.C,R2*
G36*
X96869505Y-150431204D02*
X96893773Y-150434804D01*
X96917572Y-150440765D01*
X96940671Y-150449030D01*
X96962850Y-150459520D01*
X96983893Y-150472132D01*
X97003599Y-150486747D01*
X97021777Y-150503223D01*
X97038253Y-150521401D01*
X97052868Y-150541107D01*
X97065480Y-150562150D01*
X97075970Y-150584329D01*
X97084235Y-150607428D01*
X97090196Y-150631227D01*
X97093796Y-150655495D01*
X97095000Y-150679999D01*
X97095000Y-151580001D01*
X97093796Y-151604505D01*
X97090196Y-151628773D01*
X97084235Y-151652572D01*
X97075970Y-151675671D01*
X97065480Y-151697850D01*
X97052868Y-151718893D01*
X97038253Y-151738599D01*
X97021777Y-151756777D01*
X97003599Y-151773253D01*
X96983893Y-151787868D01*
X96962850Y-151800480D01*
X96940671Y-151810970D01*
X96917572Y-151819235D01*
X96893773Y-151825196D01*
X96869505Y-151828796D01*
X96845001Y-151830000D01*
X96194999Y-151830000D01*
X96170495Y-151828796D01*
X96146227Y-151825196D01*
X96122428Y-151819235D01*
X96099329Y-151810970D01*
X96077150Y-151800480D01*
X96056107Y-151787868D01*
X96036401Y-151773253D01*
X96018223Y-151756777D01*
X96001747Y-151738599D01*
X95987132Y-151718893D01*
X95974520Y-151697850D01*
X95964030Y-151675671D01*
X95955765Y-151652572D01*
X95949804Y-151628773D01*
X95946204Y-151604505D01*
X95945000Y-151580001D01*
X95945000Y-150679999D01*
X95946204Y-150655495D01*
X95949804Y-150631227D01*
X95955765Y-150607428D01*
X95964030Y-150584329D01*
X95974520Y-150562150D01*
X95987132Y-150541107D01*
X96001747Y-150521401D01*
X96018223Y-150503223D01*
X96036401Y-150486747D01*
X96056107Y-150472132D01*
X96077150Y-150459520D01*
X96099329Y-150449030D01*
X96122428Y-150440765D01*
X96146227Y-150434804D01*
X96170495Y-150431204D01*
X96194999Y-150430000D01*
X96845001Y-150430000D01*
X96869505Y-150431204D01*
X96869505Y-150431204D01*
G37*
D11*
G04 #@! TD*
G04 #@! TO.P,R2,2*
G04 #@! TO.N,Net-(D2-Pad2)*
X96520000Y-151130000D03*
D10*
G04 #@! TO.N,Net-(C10-Pad1)*
G04 #@! TO.C,R2*
G36*
X94819505Y-150431204D02*
X94843773Y-150434804D01*
X94867572Y-150440765D01*
X94890671Y-150449030D01*
X94912850Y-150459520D01*
X94933893Y-150472132D01*
X94953599Y-150486747D01*
X94971777Y-150503223D01*
X94988253Y-150521401D01*
X95002868Y-150541107D01*
X95015480Y-150562150D01*
X95025970Y-150584329D01*
X95034235Y-150607428D01*
X95040196Y-150631227D01*
X95043796Y-150655495D01*
X95045000Y-150679999D01*
X95045000Y-151580001D01*
X95043796Y-151604505D01*
X95040196Y-151628773D01*
X95034235Y-151652572D01*
X95025970Y-151675671D01*
X95015480Y-151697850D01*
X95002868Y-151718893D01*
X94988253Y-151738599D01*
X94971777Y-151756777D01*
X94953599Y-151773253D01*
X94933893Y-151787868D01*
X94912850Y-151800480D01*
X94890671Y-151810970D01*
X94867572Y-151819235D01*
X94843773Y-151825196D01*
X94819505Y-151828796D01*
X94795001Y-151830000D01*
X94144999Y-151830000D01*
X94120495Y-151828796D01*
X94096227Y-151825196D01*
X94072428Y-151819235D01*
X94049329Y-151810970D01*
X94027150Y-151800480D01*
X94006107Y-151787868D01*
X93986401Y-151773253D01*
X93968223Y-151756777D01*
X93951747Y-151738599D01*
X93937132Y-151718893D01*
X93924520Y-151697850D01*
X93914030Y-151675671D01*
X93905765Y-151652572D01*
X93899804Y-151628773D01*
X93896204Y-151604505D01*
X93895000Y-151580001D01*
X93895000Y-150679999D01*
X93896204Y-150655495D01*
X93899804Y-150631227D01*
X93905765Y-150607428D01*
X93914030Y-150584329D01*
X93924520Y-150562150D01*
X93937132Y-150541107D01*
X93951747Y-150521401D01*
X93968223Y-150503223D01*
X93986401Y-150486747D01*
X94006107Y-150472132D01*
X94027150Y-150459520D01*
X94049329Y-150449030D01*
X94072428Y-150440765D01*
X94096227Y-150434804D01*
X94120495Y-150431204D01*
X94144999Y-150430000D01*
X94795001Y-150430000D01*
X94819505Y-150431204D01*
X94819505Y-150431204D01*
G37*
D11*
G04 #@! TD*
G04 #@! TO.P,R2,1*
G04 #@! TO.N,Net-(C10-Pad1)*
X94470000Y-151130000D03*
D13*
G04 #@! TO.P,TP1,1*
G04 #@! TO.N,GND*
X82550000Y-151130000D03*
G04 #@! TO.P,TP1,2*
G04 #@! TO.N,+24V*
X80010000Y-151130000D03*
G04 #@! TD*
G04 #@! TO.P,TP2,2*
G04 #@! TO.N,Net-(C10-Pad1)*
X91440000Y-151130000D03*
G04 #@! TO.P,TP2,1*
G04 #@! TO.N,GND*
X88900000Y-151130000D03*
G04 #@! TD*
D14*
G04 #@! TO.P,J1,1*
G04 #@! TO.N,GND*
X58420000Y-146685000D03*
D15*
G04 #@! TO.P,J1,2*
G04 #@! TO.N,Net-(F1-Pad2)*
X63420000Y-146685000D03*
G04 #@! TD*
D16*
G04 #@! TO.P,C1,1*
G04 #@! TO.N,+24V*
X61595000Y-101600000D03*
D17*
G04 #@! TO.P,C1,2*
G04 #@! TO.N,GND*
X61595000Y-96600000D03*
G04 #@! TD*
D14*
G04 #@! TO.P,J2,1*
G04 #@! TO.N,GND*
X107950000Y-146685000D03*
D15*
G04 #@! TO.P,J2,2*
G04 #@! TO.N,Net-(C10-Pad1)*
X112950000Y-146685000D03*
G04 #@! TD*
D18*
G04 #@! TO.P,U1,*
G04 #@! TO.N,*
X54864000Y-138430000D03*
X54864000Y-108430000D03*
X116864000Y-138430000D03*
X116864000Y-108430000D03*
D19*
G04 #@! TO.P,U1,1*
G04 #@! TO.N,GND*
X54864000Y-131430000D03*
G04 #@! TO.P,U1,2*
G04 #@! TO.N,+24V*
X54864000Y-115430000D03*
G04 #@! TO.P,U1,3*
G04 #@! TO.N,GND*
X116864000Y-131430000D03*
G04 #@! TO.P,U1,4*
G04 #@! TO.N,Net-(F2-Pad2)*
X116864000Y-115430000D03*
G04 #@! TD*
D17*
G04 #@! TO.P,C5,2*
G04 #@! TO.N,GND*
X97790000Y-96600000D03*
D16*
G04 #@! TO.P,C5,1*
G04 #@! TO.N,Net-(C10-Pad1)*
X97790000Y-101600000D03*
G04 #@! TD*
G04 #@! TO.P,C6,1*
G04 #@! TO.N,Net-(C10-Pad1)*
X85725000Y-101600000D03*
D17*
G04 #@! TO.P,C6,2*
G04 #@! TO.N,GND*
X85725000Y-96600000D03*
G04 #@! TD*
D10*
G04 #@! TO.N,GND*
G04 #@! TO.C,C3*
G36*
X56567004Y-119961204D02*
X56591273Y-119964804D01*
X56615071Y-119970765D01*
X56638171Y-119979030D01*
X56660349Y-119989520D01*
X56681393Y-120002133D01*
X56701098Y-120016747D01*
X56719277Y-120033223D01*
X56735753Y-120051402D01*
X56750367Y-120071107D01*
X56762980Y-120092151D01*
X56773470Y-120114329D01*
X56781735Y-120137429D01*
X56787696Y-120161227D01*
X56791296Y-120185496D01*
X56792500Y-120210000D01*
X56792500Y-122360000D01*
X56791296Y-122384504D01*
X56787696Y-122408773D01*
X56781735Y-122432571D01*
X56773470Y-122455671D01*
X56762980Y-122477849D01*
X56750367Y-122498893D01*
X56735753Y-122518598D01*
X56719277Y-122536777D01*
X56701098Y-122553253D01*
X56681393Y-122567867D01*
X56660349Y-122580480D01*
X56638171Y-122590970D01*
X56615071Y-122599235D01*
X56591273Y-122605196D01*
X56567004Y-122608796D01*
X56542500Y-122610000D01*
X55617500Y-122610000D01*
X55592996Y-122608796D01*
X55568727Y-122605196D01*
X55544929Y-122599235D01*
X55521829Y-122590970D01*
X55499651Y-122580480D01*
X55478607Y-122567867D01*
X55458902Y-122553253D01*
X55440723Y-122536777D01*
X55424247Y-122518598D01*
X55409633Y-122498893D01*
X55397020Y-122477849D01*
X55386530Y-122455671D01*
X55378265Y-122432571D01*
X55372304Y-122408773D01*
X55368704Y-122384504D01*
X55367500Y-122360000D01*
X55367500Y-120210000D01*
X55368704Y-120185496D01*
X55372304Y-120161227D01*
X55378265Y-120137429D01*
X55386530Y-120114329D01*
X55397020Y-120092151D01*
X55409633Y-120071107D01*
X55424247Y-120051402D01*
X55440723Y-120033223D01*
X55458902Y-120016747D01*
X55478607Y-120002133D01*
X55499651Y-119989520D01*
X55521829Y-119979030D01*
X55544929Y-119970765D01*
X55568727Y-119964804D01*
X55592996Y-119961204D01*
X55617500Y-119960000D01*
X56542500Y-119960000D01*
X56567004Y-119961204D01*
X56567004Y-119961204D01*
G37*
D20*
G04 #@! TD*
G04 #@! TO.P,C3,2*
G04 #@! TO.N,GND*
X56080000Y-121285000D03*
D10*
G04 #@! TO.N,+24V*
G04 #@! TO.C,C3*
G36*
X59542004Y-119961204D02*
X59566273Y-119964804D01*
X59590071Y-119970765D01*
X59613171Y-119979030D01*
X59635349Y-119989520D01*
X59656393Y-120002133D01*
X59676098Y-120016747D01*
X59694277Y-120033223D01*
X59710753Y-120051402D01*
X59725367Y-120071107D01*
X59737980Y-120092151D01*
X59748470Y-120114329D01*
X59756735Y-120137429D01*
X59762696Y-120161227D01*
X59766296Y-120185496D01*
X59767500Y-120210000D01*
X59767500Y-122360000D01*
X59766296Y-122384504D01*
X59762696Y-122408773D01*
X59756735Y-122432571D01*
X59748470Y-122455671D01*
X59737980Y-122477849D01*
X59725367Y-122498893D01*
X59710753Y-122518598D01*
X59694277Y-122536777D01*
X59676098Y-122553253D01*
X59656393Y-122567867D01*
X59635349Y-122580480D01*
X59613171Y-122590970D01*
X59590071Y-122599235D01*
X59566273Y-122605196D01*
X59542004Y-122608796D01*
X59517500Y-122610000D01*
X58592500Y-122610000D01*
X58567996Y-122608796D01*
X58543727Y-122605196D01*
X58519929Y-122599235D01*
X58496829Y-122590970D01*
X58474651Y-122580480D01*
X58453607Y-122567867D01*
X58433902Y-122553253D01*
X58415723Y-122536777D01*
X58399247Y-122518598D01*
X58384633Y-122498893D01*
X58372020Y-122477849D01*
X58361530Y-122455671D01*
X58353265Y-122432571D01*
X58347304Y-122408773D01*
X58343704Y-122384504D01*
X58342500Y-122360000D01*
X58342500Y-120210000D01*
X58343704Y-120185496D01*
X58347304Y-120161227D01*
X58353265Y-120137429D01*
X58361530Y-120114329D01*
X58372020Y-120092151D01*
X58384633Y-120071107D01*
X58399247Y-120051402D01*
X58415723Y-120033223D01*
X58433902Y-120016747D01*
X58453607Y-120002133D01*
X58474651Y-119989520D01*
X58496829Y-119979030D01*
X58519929Y-119970765D01*
X58543727Y-119964804D01*
X58567996Y-119961204D01*
X58592500Y-119960000D01*
X59517500Y-119960000D01*
X59542004Y-119961204D01*
X59542004Y-119961204D01*
G37*
D20*
G04 #@! TD*
G04 #@! TO.P,C3,1*
G04 #@! TO.N,+24V*
X59055000Y-121285000D03*
D10*
G04 #@! TO.N,Net-(C10-Pad1)*
G04 #@! TO.C,C8*
G36*
X99524504Y-138988704D02*
X99548773Y-138992304D01*
X99572571Y-138998265D01*
X99595671Y-139006530D01*
X99617849Y-139017020D01*
X99638893Y-139029633D01*
X99658598Y-139044247D01*
X99676777Y-139060723D01*
X99693253Y-139078902D01*
X99707867Y-139098607D01*
X99720480Y-139119651D01*
X99730970Y-139141829D01*
X99739235Y-139164929D01*
X99745196Y-139188727D01*
X99748796Y-139212996D01*
X99750000Y-139237500D01*
X99750000Y-140162500D01*
X99748796Y-140187004D01*
X99745196Y-140211273D01*
X99739235Y-140235071D01*
X99730970Y-140258171D01*
X99720480Y-140280349D01*
X99707867Y-140301393D01*
X99693253Y-140321098D01*
X99676777Y-140339277D01*
X99658598Y-140355753D01*
X99638893Y-140370367D01*
X99617849Y-140382980D01*
X99595671Y-140393470D01*
X99572571Y-140401735D01*
X99548773Y-140407696D01*
X99524504Y-140411296D01*
X99500000Y-140412500D01*
X97350000Y-140412500D01*
X97325496Y-140411296D01*
X97301227Y-140407696D01*
X97277429Y-140401735D01*
X97254329Y-140393470D01*
X97232151Y-140382980D01*
X97211107Y-140370367D01*
X97191402Y-140355753D01*
X97173223Y-140339277D01*
X97156747Y-140321098D01*
X97142133Y-140301393D01*
X97129520Y-140280349D01*
X97119030Y-140258171D01*
X97110765Y-140235071D01*
X97104804Y-140211273D01*
X97101204Y-140187004D01*
X97100000Y-140162500D01*
X97100000Y-139237500D01*
X97101204Y-139212996D01*
X97104804Y-139188727D01*
X97110765Y-139164929D01*
X97119030Y-139141829D01*
X97129520Y-139119651D01*
X97142133Y-139098607D01*
X97156747Y-139078902D01*
X97173223Y-139060723D01*
X97191402Y-139044247D01*
X97211107Y-139029633D01*
X97232151Y-139017020D01*
X97254329Y-139006530D01*
X97277429Y-138998265D01*
X97301227Y-138992304D01*
X97325496Y-138988704D01*
X97350000Y-138987500D01*
X99500000Y-138987500D01*
X99524504Y-138988704D01*
X99524504Y-138988704D01*
G37*
D20*
G04 #@! TD*
G04 #@! TO.P,C8,1*
G04 #@! TO.N,Net-(C10-Pad1)*
X98425000Y-139700000D03*
D10*
G04 #@! TO.N,GND*
G04 #@! TO.C,C8*
G36*
X99524504Y-136013704D02*
X99548773Y-136017304D01*
X99572571Y-136023265D01*
X99595671Y-136031530D01*
X99617849Y-136042020D01*
X99638893Y-136054633D01*
X99658598Y-136069247D01*
X99676777Y-136085723D01*
X99693253Y-136103902D01*
X99707867Y-136123607D01*
X99720480Y-136144651D01*
X99730970Y-136166829D01*
X99739235Y-136189929D01*
X99745196Y-136213727D01*
X99748796Y-136237996D01*
X99750000Y-136262500D01*
X99750000Y-137187500D01*
X99748796Y-137212004D01*
X99745196Y-137236273D01*
X99739235Y-137260071D01*
X99730970Y-137283171D01*
X99720480Y-137305349D01*
X99707867Y-137326393D01*
X99693253Y-137346098D01*
X99676777Y-137364277D01*
X99658598Y-137380753D01*
X99638893Y-137395367D01*
X99617849Y-137407980D01*
X99595671Y-137418470D01*
X99572571Y-137426735D01*
X99548773Y-137432696D01*
X99524504Y-137436296D01*
X99500000Y-137437500D01*
X97350000Y-137437500D01*
X97325496Y-137436296D01*
X97301227Y-137432696D01*
X97277429Y-137426735D01*
X97254329Y-137418470D01*
X97232151Y-137407980D01*
X97211107Y-137395367D01*
X97191402Y-137380753D01*
X97173223Y-137364277D01*
X97156747Y-137346098D01*
X97142133Y-137326393D01*
X97129520Y-137305349D01*
X97119030Y-137283171D01*
X97110765Y-137260071D01*
X97104804Y-137236273D01*
X97101204Y-137212004D01*
X97100000Y-137187500D01*
X97100000Y-136262500D01*
X97101204Y-136237996D01*
X97104804Y-136213727D01*
X97110765Y-136189929D01*
X97119030Y-136166829D01*
X97129520Y-136144651D01*
X97142133Y-136123607D01*
X97156747Y-136103902D01*
X97173223Y-136085723D01*
X97191402Y-136069247D01*
X97211107Y-136054633D01*
X97232151Y-136042020D01*
X97254329Y-136031530D01*
X97277429Y-136023265D01*
X97301227Y-136017304D01*
X97325496Y-136013704D01*
X97350000Y-136012500D01*
X99500000Y-136012500D01*
X99524504Y-136013704D01*
X99524504Y-136013704D01*
G37*
D20*
G04 #@! TD*
G04 #@! TO.P,C8,2*
G04 #@! TO.N,GND*
X98425000Y-136725000D03*
D10*
G04 #@! TO.N,Net-(C10-Pad1)*
G04 #@! TO.C,C9*
G36*
X103969504Y-138988704D02*
X103993773Y-138992304D01*
X104017571Y-138998265D01*
X104040671Y-139006530D01*
X104062849Y-139017020D01*
X104083893Y-139029633D01*
X104103598Y-139044247D01*
X104121777Y-139060723D01*
X104138253Y-139078902D01*
X104152867Y-139098607D01*
X104165480Y-139119651D01*
X104175970Y-139141829D01*
X104184235Y-139164929D01*
X104190196Y-139188727D01*
X104193796Y-139212996D01*
X104195000Y-139237500D01*
X104195000Y-140162500D01*
X104193796Y-140187004D01*
X104190196Y-140211273D01*
X104184235Y-140235071D01*
X104175970Y-140258171D01*
X104165480Y-140280349D01*
X104152867Y-140301393D01*
X104138253Y-140321098D01*
X104121777Y-140339277D01*
X104103598Y-140355753D01*
X104083893Y-140370367D01*
X104062849Y-140382980D01*
X104040671Y-140393470D01*
X104017571Y-140401735D01*
X103993773Y-140407696D01*
X103969504Y-140411296D01*
X103945000Y-140412500D01*
X101795000Y-140412500D01*
X101770496Y-140411296D01*
X101746227Y-140407696D01*
X101722429Y-140401735D01*
X101699329Y-140393470D01*
X101677151Y-140382980D01*
X101656107Y-140370367D01*
X101636402Y-140355753D01*
X101618223Y-140339277D01*
X101601747Y-140321098D01*
X101587133Y-140301393D01*
X101574520Y-140280349D01*
X101564030Y-140258171D01*
X101555765Y-140235071D01*
X101549804Y-140211273D01*
X101546204Y-140187004D01*
X101545000Y-140162500D01*
X101545000Y-139237500D01*
X101546204Y-139212996D01*
X101549804Y-139188727D01*
X101555765Y-139164929D01*
X101564030Y-139141829D01*
X101574520Y-139119651D01*
X101587133Y-139098607D01*
X101601747Y-139078902D01*
X101618223Y-139060723D01*
X101636402Y-139044247D01*
X101656107Y-139029633D01*
X101677151Y-139017020D01*
X101699329Y-139006530D01*
X101722429Y-138998265D01*
X101746227Y-138992304D01*
X101770496Y-138988704D01*
X101795000Y-138987500D01*
X103945000Y-138987500D01*
X103969504Y-138988704D01*
X103969504Y-138988704D01*
G37*
D20*
G04 #@! TD*
G04 #@! TO.P,C9,1*
G04 #@! TO.N,Net-(C10-Pad1)*
X102870000Y-139700000D03*
D10*
G04 #@! TO.N,GND*
G04 #@! TO.C,C9*
G36*
X103969504Y-136013704D02*
X103993773Y-136017304D01*
X104017571Y-136023265D01*
X104040671Y-136031530D01*
X104062849Y-136042020D01*
X104083893Y-136054633D01*
X104103598Y-136069247D01*
X104121777Y-136085723D01*
X104138253Y-136103902D01*
X104152867Y-136123607D01*
X104165480Y-136144651D01*
X104175970Y-136166829D01*
X104184235Y-136189929D01*
X104190196Y-136213727D01*
X104193796Y-136237996D01*
X104195000Y-136262500D01*
X104195000Y-137187500D01*
X104193796Y-137212004D01*
X104190196Y-137236273D01*
X104184235Y-137260071D01*
X104175970Y-137283171D01*
X104165480Y-137305349D01*
X104152867Y-137326393D01*
X104138253Y-137346098D01*
X104121777Y-137364277D01*
X104103598Y-137380753D01*
X104083893Y-137395367D01*
X104062849Y-137407980D01*
X104040671Y-137418470D01*
X104017571Y-137426735D01*
X103993773Y-137432696D01*
X103969504Y-137436296D01*
X103945000Y-137437500D01*
X101795000Y-137437500D01*
X101770496Y-137436296D01*
X101746227Y-137432696D01*
X101722429Y-137426735D01*
X101699329Y-137418470D01*
X101677151Y-137407980D01*
X101656107Y-137395367D01*
X101636402Y-137380753D01*
X101618223Y-137364277D01*
X101601747Y-137346098D01*
X101587133Y-137326393D01*
X101574520Y-137305349D01*
X101564030Y-137283171D01*
X101555765Y-137260071D01*
X101549804Y-137236273D01*
X101546204Y-137212004D01*
X101545000Y-137187500D01*
X101545000Y-136262500D01*
X101546204Y-136237996D01*
X101549804Y-136213727D01*
X101555765Y-136189929D01*
X101564030Y-136166829D01*
X101574520Y-136144651D01*
X101587133Y-136123607D01*
X101601747Y-136103902D01*
X101618223Y-136085723D01*
X101636402Y-136069247D01*
X101656107Y-136054633D01*
X101677151Y-136042020D01*
X101699329Y-136031530D01*
X101722429Y-136023265D01*
X101746227Y-136017304D01*
X101770496Y-136013704D01*
X101795000Y-136012500D01*
X103945000Y-136012500D01*
X103969504Y-136013704D01*
X103969504Y-136013704D01*
G37*
D20*
G04 #@! TD*
G04 #@! TO.P,C9,2*
G04 #@! TO.N,GND*
X102870000Y-136725000D03*
D17*
G04 #@! TO.P,C2,2*
G04 #@! TO.N,GND*
X73660000Y-96600000D03*
D16*
G04 #@! TO.P,C2,1*
G04 #@! TO.N,+24V*
X73660000Y-101600000D03*
G04 #@! TD*
D10*
G04 #@! TO.N,+24V*
G04 #@! TO.C,C4*
G36*
X59542004Y-124406204D02*
X59566273Y-124409804D01*
X59590071Y-124415765D01*
X59613171Y-124424030D01*
X59635349Y-124434520D01*
X59656393Y-124447133D01*
X59676098Y-124461747D01*
X59694277Y-124478223D01*
X59710753Y-124496402D01*
X59725367Y-124516107D01*
X59737980Y-124537151D01*
X59748470Y-124559329D01*
X59756735Y-124582429D01*
X59762696Y-124606227D01*
X59766296Y-124630496D01*
X59767500Y-124655000D01*
X59767500Y-126805000D01*
X59766296Y-126829504D01*
X59762696Y-126853773D01*
X59756735Y-126877571D01*
X59748470Y-126900671D01*
X59737980Y-126922849D01*
X59725367Y-126943893D01*
X59710753Y-126963598D01*
X59694277Y-126981777D01*
X59676098Y-126998253D01*
X59656393Y-127012867D01*
X59635349Y-127025480D01*
X59613171Y-127035970D01*
X59590071Y-127044235D01*
X59566273Y-127050196D01*
X59542004Y-127053796D01*
X59517500Y-127055000D01*
X58592500Y-127055000D01*
X58567996Y-127053796D01*
X58543727Y-127050196D01*
X58519929Y-127044235D01*
X58496829Y-127035970D01*
X58474651Y-127025480D01*
X58453607Y-127012867D01*
X58433902Y-126998253D01*
X58415723Y-126981777D01*
X58399247Y-126963598D01*
X58384633Y-126943893D01*
X58372020Y-126922849D01*
X58361530Y-126900671D01*
X58353265Y-126877571D01*
X58347304Y-126853773D01*
X58343704Y-126829504D01*
X58342500Y-126805000D01*
X58342500Y-124655000D01*
X58343704Y-124630496D01*
X58347304Y-124606227D01*
X58353265Y-124582429D01*
X58361530Y-124559329D01*
X58372020Y-124537151D01*
X58384633Y-124516107D01*
X58399247Y-124496402D01*
X58415723Y-124478223D01*
X58433902Y-124461747D01*
X58453607Y-124447133D01*
X58474651Y-124434520D01*
X58496829Y-124424030D01*
X58519929Y-124415765D01*
X58543727Y-124409804D01*
X58567996Y-124406204D01*
X58592500Y-124405000D01*
X59517500Y-124405000D01*
X59542004Y-124406204D01*
X59542004Y-124406204D01*
G37*
D20*
G04 #@! TD*
G04 #@! TO.P,C4,1*
G04 #@! TO.N,+24V*
X59055000Y-125730000D03*
D10*
G04 #@! TO.N,GND*
G04 #@! TO.C,C4*
G36*
X56567004Y-124406204D02*
X56591273Y-124409804D01*
X56615071Y-124415765D01*
X56638171Y-124424030D01*
X56660349Y-124434520D01*
X56681393Y-124447133D01*
X56701098Y-124461747D01*
X56719277Y-124478223D01*
X56735753Y-124496402D01*
X56750367Y-124516107D01*
X56762980Y-124537151D01*
X56773470Y-124559329D01*
X56781735Y-124582429D01*
X56787696Y-124606227D01*
X56791296Y-124630496D01*
X56792500Y-124655000D01*
X56792500Y-126805000D01*
X56791296Y-126829504D01*
X56787696Y-126853773D01*
X56781735Y-126877571D01*
X56773470Y-126900671D01*
X56762980Y-126922849D01*
X56750367Y-126943893D01*
X56735753Y-126963598D01*
X56719277Y-126981777D01*
X56701098Y-126998253D01*
X56681393Y-127012867D01*
X56660349Y-127025480D01*
X56638171Y-127035970D01*
X56615071Y-127044235D01*
X56591273Y-127050196D01*
X56567004Y-127053796D01*
X56542500Y-127055000D01*
X55617500Y-127055000D01*
X55592996Y-127053796D01*
X55568727Y-127050196D01*
X55544929Y-127044235D01*
X55521829Y-127035970D01*
X55499651Y-127025480D01*
X55478607Y-127012867D01*
X55458902Y-126998253D01*
X55440723Y-126981777D01*
X55424247Y-126963598D01*
X55409633Y-126943893D01*
X55397020Y-126922849D01*
X55386530Y-126900671D01*
X55378265Y-126877571D01*
X55372304Y-126853773D01*
X55368704Y-126829504D01*
X55367500Y-126805000D01*
X55367500Y-124655000D01*
X55368704Y-124630496D01*
X55372304Y-124606227D01*
X55378265Y-124582429D01*
X55386530Y-124559329D01*
X55397020Y-124537151D01*
X55409633Y-124516107D01*
X55424247Y-124496402D01*
X55440723Y-124478223D01*
X55458902Y-124461747D01*
X55478607Y-124447133D01*
X55499651Y-124434520D01*
X55521829Y-124424030D01*
X55544929Y-124415765D01*
X55568727Y-124409804D01*
X55592996Y-124406204D01*
X55617500Y-124405000D01*
X56542500Y-124405000D01*
X56567004Y-124406204D01*
X56567004Y-124406204D01*
G37*
D20*
G04 #@! TD*
G04 #@! TO.P,C4,2*
G04 #@! TO.N,GND*
X56080000Y-125730000D03*
D16*
G04 #@! TO.P,C7,1*
G04 #@! TO.N,Net-(C10-Pad1)*
X109855000Y-101600000D03*
D17*
G04 #@! TO.P,C7,2*
G04 #@! TO.N,GND*
X109855000Y-96600000D03*
G04 #@! TD*
D10*
G04 #@! TO.N,GND*
G04 #@! TO.C,C10*
G36*
X108414504Y-136013704D02*
X108438773Y-136017304D01*
X108462571Y-136023265D01*
X108485671Y-136031530D01*
X108507849Y-136042020D01*
X108528893Y-136054633D01*
X108548598Y-136069247D01*
X108566777Y-136085723D01*
X108583253Y-136103902D01*
X108597867Y-136123607D01*
X108610480Y-136144651D01*
X108620970Y-136166829D01*
X108629235Y-136189929D01*
X108635196Y-136213727D01*
X108638796Y-136237996D01*
X108640000Y-136262500D01*
X108640000Y-137187500D01*
X108638796Y-137212004D01*
X108635196Y-137236273D01*
X108629235Y-137260071D01*
X108620970Y-137283171D01*
X108610480Y-137305349D01*
X108597867Y-137326393D01*
X108583253Y-137346098D01*
X108566777Y-137364277D01*
X108548598Y-137380753D01*
X108528893Y-137395367D01*
X108507849Y-137407980D01*
X108485671Y-137418470D01*
X108462571Y-137426735D01*
X108438773Y-137432696D01*
X108414504Y-137436296D01*
X108390000Y-137437500D01*
X106240000Y-137437500D01*
X106215496Y-137436296D01*
X106191227Y-137432696D01*
X106167429Y-137426735D01*
X106144329Y-137418470D01*
X106122151Y-137407980D01*
X106101107Y-137395367D01*
X106081402Y-137380753D01*
X106063223Y-137364277D01*
X106046747Y-137346098D01*
X106032133Y-137326393D01*
X106019520Y-137305349D01*
X106009030Y-137283171D01*
X106000765Y-137260071D01*
X105994804Y-137236273D01*
X105991204Y-137212004D01*
X105990000Y-137187500D01*
X105990000Y-136262500D01*
X105991204Y-136237996D01*
X105994804Y-136213727D01*
X106000765Y-136189929D01*
X106009030Y-136166829D01*
X106019520Y-136144651D01*
X106032133Y-136123607D01*
X106046747Y-136103902D01*
X106063223Y-136085723D01*
X106081402Y-136069247D01*
X106101107Y-136054633D01*
X106122151Y-136042020D01*
X106144329Y-136031530D01*
X106167429Y-136023265D01*
X106191227Y-136017304D01*
X106215496Y-136013704D01*
X106240000Y-136012500D01*
X108390000Y-136012500D01*
X108414504Y-136013704D01*
X108414504Y-136013704D01*
G37*
D20*
G04 #@! TD*
G04 #@! TO.P,C10,2*
G04 #@! TO.N,GND*
X107315000Y-136725000D03*
D10*
G04 #@! TO.N,Net-(C10-Pad1)*
G04 #@! TO.C,C10*
G36*
X108414504Y-138988704D02*
X108438773Y-138992304D01*
X108462571Y-138998265D01*
X108485671Y-139006530D01*
X108507849Y-139017020D01*
X108528893Y-139029633D01*
X108548598Y-139044247D01*
X108566777Y-139060723D01*
X108583253Y-139078902D01*
X108597867Y-139098607D01*
X108610480Y-139119651D01*
X108620970Y-139141829D01*
X108629235Y-139164929D01*
X108635196Y-139188727D01*
X108638796Y-139212996D01*
X108640000Y-139237500D01*
X108640000Y-140162500D01*
X108638796Y-140187004D01*
X108635196Y-140211273D01*
X108629235Y-140235071D01*
X108620970Y-140258171D01*
X108610480Y-140280349D01*
X108597867Y-140301393D01*
X108583253Y-140321098D01*
X108566777Y-140339277D01*
X108548598Y-140355753D01*
X108528893Y-140370367D01*
X108507849Y-140382980D01*
X108485671Y-140393470D01*
X108462571Y-140401735D01*
X108438773Y-140407696D01*
X108414504Y-140411296D01*
X108390000Y-140412500D01*
X106240000Y-140412500D01*
X106215496Y-140411296D01*
X106191227Y-140407696D01*
X106167429Y-140401735D01*
X106144329Y-140393470D01*
X106122151Y-140382980D01*
X106101107Y-140370367D01*
X106081402Y-140355753D01*
X106063223Y-140339277D01*
X106046747Y-140321098D01*
X106032133Y-140301393D01*
X106019520Y-140280349D01*
X106009030Y-140258171D01*
X106000765Y-140235071D01*
X105994804Y-140211273D01*
X105991204Y-140187004D01*
X105990000Y-140162500D01*
X105990000Y-139237500D01*
X105991204Y-139212996D01*
X105994804Y-139188727D01*
X106000765Y-139164929D01*
X106009030Y-139141829D01*
X106019520Y-139119651D01*
X106032133Y-139098607D01*
X106046747Y-139078902D01*
X106063223Y-139060723D01*
X106081402Y-139044247D01*
X106101107Y-139029633D01*
X106122151Y-139017020D01*
X106144329Y-139006530D01*
X106167429Y-138998265D01*
X106191227Y-138992304D01*
X106215496Y-138988704D01*
X106240000Y-138987500D01*
X108390000Y-138987500D01*
X108414504Y-138988704D01*
X108414504Y-138988704D01*
G37*
D20*
G04 #@! TD*
G04 #@! TO.P,C10,1*
G04 #@! TO.N,Net-(C10-Pad1)*
X107315000Y-139700000D03*
D21*
G04 #@! TO.N,GND*
X53975000Y-125730000D03*
X53975000Y-121285000D03*
X98425000Y-134620000D03*
X102870000Y-134620000D03*
X107315000Y-134620000D03*
X48895000Y-143510000D03*
X48895000Y-138430000D03*
X48895000Y-133350000D03*
X48895000Y-128270000D03*
X48895000Y-123190000D03*
X48895000Y-118110000D03*
X48895000Y-113030000D03*
X48895000Y-107950000D03*
X48895000Y-102870000D03*
X122555000Y-102870000D03*
X122555000Y-107950000D03*
X122555000Y-113030000D03*
X122555000Y-118110000D03*
X122555000Y-123190000D03*
X122555000Y-128270000D03*
X122555000Y-133350000D03*
X122555000Y-138430000D03*
X122555000Y-143510000D03*
G04 #@! TD*
D22*
G04 #@! TO.N,+24V*
X81040000Y-147545000D02*
X81040000Y-144145000D01*
X73660000Y-101600000D02*
X61595000Y-101600000D01*
X77470000Y-144145000D02*
X81040000Y-144145000D01*
X59055000Y-125730000D02*
X77470000Y-144145000D01*
D23*
X81040000Y-150100000D02*
X80010000Y-151130000D01*
X81040000Y-147545000D02*
X81040000Y-150100000D01*
X80010000Y-151130000D02*
X76345000Y-151130000D01*
D22*
X57692427Y-115430000D02*
X61595000Y-111527427D01*
X54864000Y-115430000D02*
X57692427Y-115430000D01*
X61595000Y-111527427D02*
X61595000Y-101600000D01*
X59055000Y-116792573D02*
X57692427Y-115430000D01*
X59055000Y-125730000D02*
X59055000Y-116792573D01*
G04 #@! TO.N,Net-(C10-Pad1)*
X92710000Y-135410000D02*
X97000000Y-139700000D01*
X92710000Y-101600000D02*
X92710000Y-135410000D01*
X92710000Y-101600000D02*
X109855000Y-101600000D01*
X97000000Y-139700000D02*
X98425000Y-139700000D01*
X85725000Y-101600000D02*
X92710000Y-101600000D01*
X100330000Y-139700000D02*
X100330000Y-147320000D01*
X100330000Y-139700000D02*
X107315000Y-139700000D01*
X98425000Y-139700000D02*
X100330000Y-139700000D01*
X107315000Y-139700000D02*
X109220000Y-139700000D01*
X112950000Y-143430000D02*
X112950000Y-146685000D01*
X109220000Y-139700000D02*
X112950000Y-143430000D01*
D23*
X100330000Y-147545000D02*
X96295000Y-147545000D01*
X94470000Y-149370000D02*
X94470000Y-151130000D01*
X96295000Y-147545000D02*
X94470000Y-149370000D01*
X91440000Y-151130000D02*
X94470000Y-151130000D01*
G04 #@! TO.N,Net-(D1-Pad2)*
X71265000Y-151130000D02*
X74785000Y-151130000D01*
G04 #@! TO.N,Net-(D2-Pad2)*
X96520000Y-151130000D02*
X100185000Y-151130000D01*
D22*
G04 #@! TO.N,Net-(F1-Pad2)*
X70260000Y-146685000D02*
X71120000Y-147545000D01*
X63420000Y-146685000D02*
X70260000Y-146685000D01*
X71120000Y-147545000D02*
X71120000Y-144145000D01*
G04 #@! TD*
D24*
G04 #@! TO.N,GND*
G36*
X116007643Y-94477370D02*
X115288000Y-96214741D01*
X115288000Y-98095259D01*
X116007643Y-99832630D01*
X117337370Y-101162357D01*
X119074741Y-101882000D01*
X120955259Y-101882000D01*
X122692630Y-101162357D01*
X123115000Y-100739987D01*
X123115001Y-145640014D01*
X122692630Y-145217643D01*
X120955259Y-144498000D01*
X119074741Y-144498000D01*
X117337370Y-145217643D01*
X116007643Y-146547370D01*
X115288000Y-148284741D01*
X115288000Y-150165259D01*
X116007643Y-151902630D01*
X116430013Y-152325000D01*
X103213025Y-152325000D01*
X103348327Y-152189699D01*
X103445000Y-151956310D01*
X103445000Y-151415750D01*
X103286250Y-151257000D01*
X102362000Y-151257000D01*
X102362000Y-151277000D01*
X102108000Y-151277000D01*
X102108000Y-151257000D01*
X102088000Y-151257000D01*
X102088000Y-151003000D01*
X102108000Y-151003000D01*
X102108000Y-149953750D01*
X102362000Y-149953750D01*
X102362000Y-151003000D01*
X103286250Y-151003000D01*
X103445000Y-150844250D01*
X103445000Y-150303690D01*
X103348327Y-150070301D01*
X103169698Y-149891673D01*
X102936309Y-149795000D01*
X102520750Y-149795000D01*
X102362000Y-149953750D01*
X102108000Y-149953750D01*
X101949250Y-149795000D01*
X101533691Y-149795000D01*
X101300302Y-149891673D01*
X101145377Y-150046597D01*
X101144586Y-150045414D01*
X100853436Y-149850873D01*
X100510001Y-149782560D01*
X99859999Y-149782560D01*
X99516564Y-149850873D01*
X99225414Y-150045414D01*
X99030873Y-150336564D01*
X99024222Y-150370000D01*
X97680778Y-150370000D01*
X97674127Y-150336564D01*
X97479586Y-150045414D01*
X97188436Y-149850873D01*
X96845001Y-149782560D01*
X96194999Y-149782560D01*
X95851564Y-149850873D01*
X95560414Y-150045414D01*
X95495000Y-150143313D01*
X95429586Y-150045414D01*
X95230000Y-149912054D01*
X95230000Y-149684801D01*
X96609802Y-148305000D01*
X98452958Y-148305000D01*
X98613288Y-148692070D01*
X99182930Y-149261712D01*
X99927202Y-149570000D01*
X100732798Y-149570000D01*
X101477070Y-149261712D01*
X102046712Y-148692070D01*
X102355000Y-147947798D01*
X102355000Y-147142202D01*
X102283983Y-146970750D01*
X106015000Y-146970750D01*
X106015000Y-148111310D01*
X106111673Y-148344699D01*
X106290302Y-148523327D01*
X106523691Y-148620000D01*
X107664250Y-148620000D01*
X107823000Y-148461250D01*
X107823000Y-146812000D01*
X108077000Y-146812000D01*
X108077000Y-148461250D01*
X108235750Y-148620000D01*
X109376309Y-148620000D01*
X109609698Y-148523327D01*
X109788327Y-148344699D01*
X109885000Y-148111310D01*
X109885000Y-146970750D01*
X109726250Y-146812000D01*
X108077000Y-146812000D01*
X107823000Y-146812000D01*
X106173750Y-146812000D01*
X106015000Y-146970750D01*
X102283983Y-146970750D01*
X102046712Y-146397930D01*
X101965000Y-146316218D01*
X101965000Y-145373782D01*
X102046712Y-145292070D01*
X102060538Y-145258690D01*
X106015000Y-145258690D01*
X106015000Y-146399250D01*
X106173750Y-146558000D01*
X107823000Y-146558000D01*
X107823000Y-144908750D01*
X108077000Y-144908750D01*
X108077000Y-146558000D01*
X109726250Y-146558000D01*
X109885000Y-146399250D01*
X109885000Y-145258690D01*
X109788327Y-145025301D01*
X109609698Y-144846673D01*
X109376309Y-144750000D01*
X108235750Y-144750000D01*
X108077000Y-144908750D01*
X107823000Y-144908750D01*
X107664250Y-144750000D01*
X106523691Y-144750000D01*
X106290302Y-144846673D01*
X106111673Y-145025301D01*
X106015000Y-145258690D01*
X102060538Y-145258690D01*
X102355000Y-144547798D01*
X102355000Y-143742202D01*
X102046712Y-142997930D01*
X101965000Y-142916218D01*
X101965000Y-141335000D01*
X108542762Y-141335000D01*
X111315000Y-144107239D01*
X111315001Y-145583495D01*
X111309586Y-145588910D01*
X111015000Y-146300105D01*
X111015000Y-147069895D01*
X111309586Y-147781090D01*
X111853910Y-148325414D01*
X112565105Y-148620000D01*
X113334895Y-148620000D01*
X114046090Y-148325414D01*
X114590414Y-147781090D01*
X114885000Y-147069895D01*
X114885000Y-146300105D01*
X114590414Y-145588910D01*
X114585000Y-145583496D01*
X114585000Y-143591031D01*
X114617031Y-143430000D01*
X114490136Y-142792054D01*
X114280270Y-142477969D01*
X114128769Y-142251231D01*
X113992253Y-142160014D01*
X110489988Y-138657750D01*
X110398769Y-138521231D01*
X109857945Y-138159864D01*
X109381031Y-138065000D01*
X109381030Y-138065000D01*
X109220000Y-138032969D01*
X109058970Y-138065000D01*
X108784417Y-138065000D01*
X108999699Y-137975827D01*
X109178327Y-137797198D01*
X109215707Y-137706954D01*
X113229000Y-137706954D01*
X113229000Y-139153046D01*
X113782396Y-140489062D01*
X114804938Y-141511604D01*
X116140954Y-142065000D01*
X117587046Y-142065000D01*
X118923062Y-141511604D01*
X119945604Y-140489062D01*
X120499000Y-139153046D01*
X120499000Y-137706954D01*
X119945604Y-136370938D01*
X118923062Y-135348396D01*
X117587046Y-134795000D01*
X116140954Y-134795000D01*
X114804938Y-135348396D01*
X113782396Y-136370938D01*
X113229000Y-137706954D01*
X109215707Y-137706954D01*
X109275000Y-137563809D01*
X109275000Y-137010750D01*
X109116250Y-136852000D01*
X107442000Y-136852000D01*
X107442000Y-136872000D01*
X107188000Y-136872000D01*
X107188000Y-136852000D01*
X105513750Y-136852000D01*
X105355000Y-137010750D01*
X105355000Y-137563809D01*
X105451673Y-137797198D01*
X105630301Y-137975827D01*
X105845583Y-138065000D01*
X104339417Y-138065000D01*
X104554699Y-137975827D01*
X104733327Y-137797198D01*
X104830000Y-137563809D01*
X104830000Y-137010750D01*
X104671250Y-136852000D01*
X102997000Y-136852000D01*
X102997000Y-136872000D01*
X102743000Y-136872000D01*
X102743000Y-136852000D01*
X101068750Y-136852000D01*
X100910000Y-137010750D01*
X100910000Y-137563809D01*
X101006673Y-137797198D01*
X101185301Y-137975827D01*
X101400583Y-138065000D01*
X100491031Y-138065000D01*
X100330000Y-138032969D01*
X100168969Y-138065000D01*
X99894417Y-138065000D01*
X100109699Y-137975827D01*
X100288327Y-137797198D01*
X100385000Y-137563809D01*
X100385000Y-137010750D01*
X100226250Y-136852000D01*
X98552000Y-136852000D01*
X98552000Y-136872000D01*
X98298000Y-136872000D01*
X98298000Y-136852000D01*
X96623750Y-136852000D01*
X96543994Y-136931756D01*
X95498429Y-135886191D01*
X96465000Y-135886191D01*
X96465000Y-136439250D01*
X96623750Y-136598000D01*
X98298000Y-136598000D01*
X98298000Y-135536250D01*
X98552000Y-135536250D01*
X98552000Y-136598000D01*
X100226250Y-136598000D01*
X100385000Y-136439250D01*
X100385000Y-135886191D01*
X100910000Y-135886191D01*
X100910000Y-136439250D01*
X101068750Y-136598000D01*
X102743000Y-136598000D01*
X102743000Y-135536250D01*
X102997000Y-135536250D01*
X102997000Y-136598000D01*
X104671250Y-136598000D01*
X104830000Y-136439250D01*
X104830000Y-135886191D01*
X105355000Y-135886191D01*
X105355000Y-136439250D01*
X105513750Y-136598000D01*
X107188000Y-136598000D01*
X107188000Y-135536250D01*
X107442000Y-135536250D01*
X107442000Y-136598000D01*
X109116250Y-136598000D01*
X109275000Y-136439250D01*
X109275000Y-135886191D01*
X109178327Y-135652802D01*
X108999699Y-135474173D01*
X108766310Y-135377500D01*
X107600750Y-135377500D01*
X107442000Y-135536250D01*
X107188000Y-135536250D01*
X107029250Y-135377500D01*
X105863690Y-135377500D01*
X105630301Y-135474173D01*
X105451673Y-135652802D01*
X105355000Y-135886191D01*
X104830000Y-135886191D01*
X104733327Y-135652802D01*
X104554699Y-135474173D01*
X104321310Y-135377500D01*
X103155750Y-135377500D01*
X102997000Y-135536250D01*
X102743000Y-135536250D01*
X102584250Y-135377500D01*
X101418690Y-135377500D01*
X101185301Y-135474173D01*
X101006673Y-135652802D01*
X100910000Y-135886191D01*
X100385000Y-135886191D01*
X100288327Y-135652802D01*
X100109699Y-135474173D01*
X99876310Y-135377500D01*
X98710750Y-135377500D01*
X98552000Y-135536250D01*
X98298000Y-135536250D01*
X98139250Y-135377500D01*
X96973690Y-135377500D01*
X96740301Y-135474173D01*
X96561673Y-135652802D01*
X96465000Y-135886191D01*
X95498429Y-135886191D01*
X94345000Y-134732762D01*
X94345000Y-133305022D01*
X115168584Y-133305022D01*
X115389353Y-133675743D01*
X116361012Y-134069119D01*
X117409247Y-134060713D01*
X118338647Y-133675743D01*
X118559416Y-133305022D01*
X116864000Y-131609605D01*
X115168584Y-133305022D01*
X94345000Y-133305022D01*
X94345000Y-130927012D01*
X114224881Y-130927012D01*
X114233287Y-131975247D01*
X114618257Y-132904647D01*
X114988978Y-133125416D01*
X116684395Y-131430000D01*
X117043605Y-131430000D01*
X118739022Y-133125416D01*
X119109743Y-132904647D01*
X119503119Y-131932988D01*
X119494713Y-130884753D01*
X119109743Y-129955353D01*
X118739022Y-129734584D01*
X117043605Y-131430000D01*
X116684395Y-131430000D01*
X114988978Y-129734584D01*
X114618257Y-129955353D01*
X114224881Y-130927012D01*
X94345000Y-130927012D01*
X94345000Y-129554978D01*
X115168584Y-129554978D01*
X116864000Y-131250395D01*
X118559416Y-129554978D01*
X118338647Y-129184257D01*
X117366988Y-128790881D01*
X116318753Y-128799287D01*
X115389353Y-129184257D01*
X115168584Y-129554978D01*
X94345000Y-129554978D01*
X94345000Y-114905866D01*
X114229000Y-114905866D01*
X114229000Y-115954134D01*
X114630155Y-116922608D01*
X115371392Y-117663845D01*
X116339866Y-118065000D01*
X117388134Y-118065000D01*
X118356608Y-117663845D01*
X119097845Y-116922608D01*
X119499000Y-115954134D01*
X119499000Y-114905866D01*
X119097845Y-113937392D01*
X118356608Y-113196155D01*
X117388134Y-112795000D01*
X116339866Y-112795000D01*
X115371392Y-113196155D01*
X114630155Y-113937392D01*
X114229000Y-114905866D01*
X94345000Y-114905866D01*
X94345000Y-107706954D01*
X113229000Y-107706954D01*
X113229000Y-109153046D01*
X113782396Y-110489062D01*
X114804938Y-111511604D01*
X116140954Y-112065000D01*
X117587046Y-112065000D01*
X118923062Y-111511604D01*
X119945604Y-110489062D01*
X120499000Y-109153046D01*
X120499000Y-107706954D01*
X119945604Y-106370938D01*
X118923062Y-105348396D01*
X117587046Y-104795000D01*
X116140954Y-104795000D01*
X114804938Y-105348396D01*
X113782396Y-106370938D01*
X113229000Y-107706954D01*
X94345000Y-107706954D01*
X94345000Y-103235000D01*
X96727459Y-103235000D01*
X96790000Y-103247440D01*
X98790000Y-103247440D01*
X98852541Y-103235000D01*
X108792459Y-103235000D01*
X108855000Y-103247440D01*
X110855000Y-103247440D01*
X111102765Y-103198157D01*
X111312809Y-103057809D01*
X111453157Y-102847765D01*
X111502440Y-102600000D01*
X111502440Y-101698491D01*
X111522031Y-101600000D01*
X111502440Y-101501509D01*
X111502440Y-100600000D01*
X111453157Y-100352235D01*
X111312809Y-100142191D01*
X111102765Y-100001843D01*
X110855000Y-99952560D01*
X108855000Y-99952560D01*
X108792459Y-99965000D01*
X98852541Y-99965000D01*
X98790000Y-99952560D01*
X96790000Y-99952560D01*
X96727459Y-99965000D01*
X92871031Y-99965000D01*
X92710000Y-99932969D01*
X92548969Y-99965000D01*
X86787541Y-99965000D01*
X86725000Y-99952560D01*
X84725000Y-99952560D01*
X84477235Y-100001843D01*
X84267191Y-100142191D01*
X84126843Y-100352235D01*
X84077560Y-100600000D01*
X84077560Y-101501509D01*
X84057969Y-101600000D01*
X84077560Y-101698491D01*
X84077560Y-102600000D01*
X84126843Y-102847765D01*
X84267191Y-103057809D01*
X84477235Y-103198157D01*
X84725000Y-103247440D01*
X86725000Y-103247440D01*
X86787541Y-103235000D01*
X91075000Y-103235000D01*
X91075001Y-135248965D01*
X91042969Y-135410000D01*
X91091266Y-135652802D01*
X91169865Y-136047945D01*
X91531232Y-136588769D01*
X91667748Y-136679986D01*
X95730014Y-140742253D01*
X95821231Y-140878769D01*
X96362055Y-141240136D01*
X96838969Y-141335000D01*
X96838973Y-141335000D01*
X96999999Y-141367030D01*
X97161025Y-141335000D01*
X98695000Y-141335000D01*
X98695000Y-142916218D01*
X98613288Y-142997930D01*
X98305000Y-143742202D01*
X98305000Y-144547798D01*
X98613288Y-145292070D01*
X98695001Y-145373783D01*
X98695001Y-146316217D01*
X98613288Y-146397930D01*
X98452958Y-146785000D01*
X96369848Y-146785000D01*
X96295000Y-146770112D01*
X96220152Y-146785000D01*
X96220148Y-146785000D01*
X96046605Y-146819520D01*
X95998462Y-146829096D01*
X95811418Y-146954076D01*
X95747071Y-146997071D01*
X95704671Y-147060527D01*
X93985530Y-148779669D01*
X93922071Y-148822071D01*
X93754096Y-149073464D01*
X93710000Y-149295149D01*
X93710000Y-149295153D01*
X93695112Y-149370000D01*
X93710000Y-149444847D01*
X93710000Y-149912054D01*
X93510414Y-150045414D01*
X93315873Y-150336564D01*
X93309222Y-150370000D01*
X92567975Y-150370000D01*
X92196217Y-149998242D01*
X91705548Y-149795000D01*
X91174452Y-149795000D01*
X90683783Y-149998242D01*
X90308242Y-150373783D01*
X90176721Y-150691302D01*
X90071042Y-150436169D01*
X89835275Y-150374331D01*
X89079605Y-151130000D01*
X89835275Y-151885669D01*
X90071042Y-151823831D01*
X90168153Y-151548013D01*
X90308242Y-151886217D01*
X90683783Y-152261758D01*
X90836463Y-152325000D01*
X89535991Y-152325000D01*
X89593831Y-152301042D01*
X89655669Y-152065275D01*
X88900000Y-151309605D01*
X88144331Y-152065275D01*
X88206169Y-152301042D01*
X88274215Y-152325000D01*
X83185991Y-152325000D01*
X83243831Y-152301042D01*
X83305669Y-152065275D01*
X82550000Y-151309605D01*
X81794331Y-152065275D01*
X81856169Y-152301042D01*
X81924215Y-152325000D01*
X80613537Y-152325000D01*
X80766217Y-152261758D01*
X81141758Y-151886217D01*
X81273279Y-151568698D01*
X81378958Y-151823831D01*
X81614725Y-151885669D01*
X82370395Y-151130000D01*
X82729605Y-151130000D01*
X83485275Y-151885669D01*
X83721042Y-151823831D01*
X83897419Y-151322878D01*
X83876503Y-150937122D01*
X87552581Y-150937122D01*
X87581336Y-151467440D01*
X87728958Y-151823831D01*
X87964725Y-151885669D01*
X88720395Y-151130000D01*
X87964725Y-150374331D01*
X87728958Y-150436169D01*
X87552581Y-150937122D01*
X83876503Y-150937122D01*
X83868664Y-150792560D01*
X83721042Y-150436169D01*
X83485275Y-150374331D01*
X82729605Y-151130000D01*
X82370395Y-151130000D01*
X82356252Y-151115858D01*
X82535858Y-150936252D01*
X82550000Y-150950395D01*
X83305669Y-150194725D01*
X88144331Y-150194725D01*
X88900000Y-150950395D01*
X89655669Y-150194725D01*
X89593831Y-149958958D01*
X89092878Y-149782581D01*
X88562560Y-149811336D01*
X88206169Y-149958958D01*
X88144331Y-150194725D01*
X83305669Y-150194725D01*
X83243831Y-149958958D01*
X82742878Y-149782581D01*
X82212560Y-149811336D01*
X81856169Y-149958958D01*
X81801429Y-150167662D01*
X81814888Y-150100000D01*
X81800000Y-150025153D01*
X81800000Y-149422042D01*
X82187070Y-149261712D01*
X82756712Y-148692070D01*
X83065000Y-147947798D01*
X83065000Y-147142202D01*
X82756712Y-146397930D01*
X82675000Y-146316218D01*
X82675000Y-145373782D01*
X82756712Y-145292070D01*
X83065000Y-144547798D01*
X83065000Y-143742202D01*
X88385000Y-143742202D01*
X88385000Y-144547798D01*
X88693288Y-145292070D01*
X89246218Y-145845000D01*
X88693288Y-146397930D01*
X88385000Y-147142202D01*
X88385000Y-147947798D01*
X88693288Y-148692070D01*
X89262930Y-149261712D01*
X90007202Y-149570000D01*
X90812798Y-149570000D01*
X91557070Y-149261712D01*
X92126712Y-148692070D01*
X92435000Y-147947798D01*
X92435000Y-147142202D01*
X92126712Y-146397930D01*
X91573782Y-145845000D01*
X92126712Y-145292070D01*
X92435000Y-144547798D01*
X92435000Y-143742202D01*
X92126712Y-142997930D01*
X91557070Y-142428288D01*
X90812798Y-142120000D01*
X90007202Y-142120000D01*
X89262930Y-142428288D01*
X88693288Y-142997930D01*
X88385000Y-143742202D01*
X83065000Y-143742202D01*
X82756712Y-142997930D01*
X82187070Y-142428288D01*
X81442798Y-142120000D01*
X80637202Y-142120000D01*
X79892930Y-142428288D01*
X79811218Y-142510000D01*
X78147239Y-142510000D01*
X60690000Y-125052762D01*
X60690000Y-116953598D01*
X60722030Y-116792572D01*
X60690000Y-116631546D01*
X60690000Y-116631542D01*
X60595136Y-116154628D01*
X60233769Y-115613804D01*
X60097252Y-115522587D01*
X60004666Y-115430000D01*
X62637253Y-112797413D01*
X62773769Y-112706196D01*
X62965470Y-112419295D01*
X63135136Y-112165373D01*
X63262031Y-111527427D01*
X63230000Y-111366396D01*
X63230000Y-103235000D01*
X72597459Y-103235000D01*
X72660000Y-103247440D01*
X74660000Y-103247440D01*
X74907765Y-103198157D01*
X75117809Y-103057809D01*
X75258157Y-102847765D01*
X75307440Y-102600000D01*
X75307440Y-101698491D01*
X75327031Y-101600000D01*
X75307440Y-101501509D01*
X75307440Y-100600000D01*
X75258157Y-100352235D01*
X75117809Y-100142191D01*
X74907765Y-100001843D01*
X74660000Y-99952560D01*
X72660000Y-99952560D01*
X72597459Y-99965000D01*
X62657541Y-99965000D01*
X62595000Y-99952560D01*
X61693491Y-99952560D01*
X61595000Y-99932969D01*
X61496509Y-99952560D01*
X60595000Y-99952560D01*
X60347235Y-100001843D01*
X60137191Y-100142191D01*
X59996843Y-100352235D01*
X59947560Y-100600000D01*
X59947560Y-101501509D01*
X59927969Y-101600000D01*
X59947560Y-101698491D01*
X59947560Y-102600000D01*
X59960001Y-102662545D01*
X59960000Y-110850188D01*
X57015189Y-113795000D01*
X56955453Y-113795000D01*
X56356608Y-113196155D01*
X55388134Y-112795000D01*
X54339866Y-112795000D01*
X53371392Y-113196155D01*
X52630155Y-113937392D01*
X52229000Y-114905866D01*
X52229000Y-115954134D01*
X52630155Y-116922608D01*
X53371392Y-117663845D01*
X54339866Y-118065000D01*
X55388134Y-118065000D01*
X56356608Y-117663845D01*
X56955453Y-117065000D01*
X57015189Y-117065000D01*
X57420001Y-117469813D01*
X57420001Y-119815585D01*
X57330827Y-119600301D01*
X57152198Y-119421673D01*
X56918809Y-119325000D01*
X56365750Y-119325000D01*
X56207000Y-119483750D01*
X56207000Y-121158000D01*
X56227000Y-121158000D01*
X56227000Y-121412000D01*
X56207000Y-121412000D01*
X56207000Y-123086250D01*
X56365750Y-123245000D01*
X56918809Y-123245000D01*
X57152198Y-123148327D01*
X57330827Y-122969699D01*
X57420000Y-122754416D01*
X57420000Y-124260584D01*
X57330827Y-124045301D01*
X57152198Y-123866673D01*
X56918809Y-123770000D01*
X56365750Y-123770000D01*
X56207000Y-123928750D01*
X56207000Y-125603000D01*
X56227000Y-125603000D01*
X56227000Y-125857000D01*
X56207000Y-125857000D01*
X56207000Y-127531250D01*
X56365750Y-127690000D01*
X56918809Y-127690000D01*
X57152198Y-127593327D01*
X57330827Y-127414699D01*
X57427500Y-127181310D01*
X57427500Y-126015750D01*
X57268752Y-125857002D01*
X57413231Y-125857002D01*
X57420000Y-125891030D01*
X57514864Y-126367944D01*
X57695060Y-126637627D01*
X57695060Y-126805000D01*
X57763374Y-127148435D01*
X57957914Y-127439586D01*
X58249065Y-127634126D01*
X58592500Y-127702440D01*
X58715202Y-127702440D01*
X76200014Y-145187253D01*
X76291231Y-145323769D01*
X76564305Y-145506231D01*
X76832054Y-145685136D01*
X77470000Y-145812031D01*
X77631031Y-145780000D01*
X79405001Y-145780000D01*
X79405000Y-146316218D01*
X79323288Y-146397930D01*
X79015000Y-147142202D01*
X79015000Y-147947798D01*
X79323288Y-148692070D01*
X79892930Y-149261712D01*
X80280001Y-149422042D01*
X80280001Y-149785197D01*
X80270198Y-149795000D01*
X79744452Y-149795000D01*
X79253783Y-149998242D01*
X78882025Y-150370000D01*
X77995778Y-150370000D01*
X77989127Y-150336564D01*
X77794586Y-150045414D01*
X77503436Y-149850873D01*
X77160001Y-149782560D01*
X76509999Y-149782560D01*
X76166564Y-149850873D01*
X75875414Y-150045414D01*
X75810000Y-150143313D01*
X75744586Y-150045414D01*
X75453436Y-149850873D01*
X75110001Y-149782560D01*
X74459999Y-149782560D01*
X74116564Y-149850873D01*
X73825414Y-150045414D01*
X73630873Y-150336564D01*
X73624222Y-150370000D01*
X72425778Y-150370000D01*
X72419127Y-150336564D01*
X72224586Y-150045414D01*
X71933436Y-149850873D01*
X71590001Y-149782560D01*
X70939999Y-149782560D01*
X70596564Y-149850873D01*
X70305414Y-150045414D01*
X70304623Y-150046597D01*
X70149698Y-149891673D01*
X69916309Y-149795000D01*
X69500750Y-149795000D01*
X69342000Y-149953750D01*
X69342000Y-151003000D01*
X69362000Y-151003000D01*
X69362000Y-151257000D01*
X69342000Y-151257000D01*
X69342000Y-151277000D01*
X69088000Y-151277000D01*
X69088000Y-151257000D01*
X68163750Y-151257000D01*
X68005000Y-151415750D01*
X68005000Y-151956310D01*
X68101673Y-152189699D01*
X68236975Y-152325000D01*
X55019987Y-152325000D01*
X55442357Y-151902630D01*
X56104659Y-150303690D01*
X68005000Y-150303690D01*
X68005000Y-150844250D01*
X68163750Y-151003000D01*
X69088000Y-151003000D01*
X69088000Y-149953750D01*
X68929250Y-149795000D01*
X68513691Y-149795000D01*
X68280302Y-149891673D01*
X68101673Y-150070301D01*
X68005000Y-150303690D01*
X56104659Y-150303690D01*
X56162000Y-150165259D01*
X56162000Y-148284741D01*
X55617727Y-146970750D01*
X56485000Y-146970750D01*
X56485000Y-148111310D01*
X56581673Y-148344699D01*
X56760302Y-148523327D01*
X56993691Y-148620000D01*
X58134250Y-148620000D01*
X58293000Y-148461250D01*
X58293000Y-146812000D01*
X58547000Y-146812000D01*
X58547000Y-148461250D01*
X58705750Y-148620000D01*
X59846309Y-148620000D01*
X60079698Y-148523327D01*
X60258327Y-148344699D01*
X60355000Y-148111310D01*
X60355000Y-146970750D01*
X60196250Y-146812000D01*
X58547000Y-146812000D01*
X58293000Y-146812000D01*
X56643750Y-146812000D01*
X56485000Y-146970750D01*
X55617727Y-146970750D01*
X55442357Y-146547370D01*
X54153677Y-145258690D01*
X56485000Y-145258690D01*
X56485000Y-146399250D01*
X56643750Y-146558000D01*
X58293000Y-146558000D01*
X58293000Y-144908750D01*
X58547000Y-144908750D01*
X58547000Y-146558000D01*
X60196250Y-146558000D01*
X60355000Y-146399250D01*
X60355000Y-146300105D01*
X61485000Y-146300105D01*
X61485000Y-147069895D01*
X61779586Y-147781090D01*
X62323910Y-148325414D01*
X63035105Y-148620000D01*
X63804895Y-148620000D01*
X64516090Y-148325414D01*
X64521504Y-148320000D01*
X69249171Y-148320000D01*
X69403288Y-148692070D01*
X69972930Y-149261712D01*
X70717202Y-149570000D01*
X71522798Y-149570000D01*
X72267070Y-149261712D01*
X72836712Y-148692070D01*
X73145000Y-147947798D01*
X73145000Y-147142202D01*
X72836712Y-146397930D01*
X72755000Y-146316218D01*
X72755000Y-145373782D01*
X72836712Y-145292070D01*
X73145000Y-144547798D01*
X73145000Y-143742202D01*
X72836712Y-142997930D01*
X72267070Y-142428288D01*
X71522798Y-142120000D01*
X70717202Y-142120000D01*
X69972930Y-142428288D01*
X69403288Y-142997930D01*
X69095000Y-143742202D01*
X69095000Y-144547798D01*
X69303019Y-145050000D01*
X64521504Y-145050000D01*
X64516090Y-145044586D01*
X63804895Y-144750000D01*
X63035105Y-144750000D01*
X62323910Y-145044586D01*
X61779586Y-145588910D01*
X61485000Y-146300105D01*
X60355000Y-146300105D01*
X60355000Y-145258690D01*
X60258327Y-145025301D01*
X60079698Y-144846673D01*
X59846309Y-144750000D01*
X58705750Y-144750000D01*
X58547000Y-144908750D01*
X58293000Y-144908750D01*
X58134250Y-144750000D01*
X56993691Y-144750000D01*
X56760302Y-144846673D01*
X56581673Y-145025301D01*
X56485000Y-145258690D01*
X54153677Y-145258690D01*
X54112630Y-145217643D01*
X52375259Y-144498000D01*
X50494741Y-144498000D01*
X48757370Y-145217643D01*
X48335000Y-145640013D01*
X48335000Y-137706954D01*
X51229000Y-137706954D01*
X51229000Y-139153046D01*
X51782396Y-140489062D01*
X52804938Y-141511604D01*
X54140954Y-142065000D01*
X55587046Y-142065000D01*
X56923062Y-141511604D01*
X57945604Y-140489062D01*
X58499000Y-139153046D01*
X58499000Y-137706954D01*
X57945604Y-136370938D01*
X56923062Y-135348396D01*
X55587046Y-134795000D01*
X54140954Y-134795000D01*
X52804938Y-135348396D01*
X51782396Y-136370938D01*
X51229000Y-137706954D01*
X48335000Y-137706954D01*
X48335000Y-133305022D01*
X53168584Y-133305022D01*
X53389353Y-133675743D01*
X54361012Y-134069119D01*
X55409247Y-134060713D01*
X56338647Y-133675743D01*
X56559416Y-133305022D01*
X54864000Y-131609605D01*
X53168584Y-133305022D01*
X48335000Y-133305022D01*
X48335000Y-130927012D01*
X52224881Y-130927012D01*
X52233287Y-131975247D01*
X52618257Y-132904647D01*
X52988978Y-133125416D01*
X54684395Y-131430000D01*
X55043605Y-131430000D01*
X56739022Y-133125416D01*
X57109743Y-132904647D01*
X57503119Y-131932988D01*
X57494713Y-130884753D01*
X57109743Y-129955353D01*
X56739022Y-129734584D01*
X55043605Y-131430000D01*
X54684395Y-131430000D01*
X52988978Y-129734584D01*
X52618257Y-129955353D01*
X52224881Y-130927012D01*
X48335000Y-130927012D01*
X48335000Y-129554978D01*
X53168584Y-129554978D01*
X54864000Y-131250395D01*
X56559416Y-129554978D01*
X56338647Y-129184257D01*
X55366988Y-128790881D01*
X54318753Y-128799287D01*
X53389353Y-129184257D01*
X53168584Y-129554978D01*
X48335000Y-129554978D01*
X48335000Y-126015750D01*
X54732500Y-126015750D01*
X54732500Y-127181310D01*
X54829173Y-127414699D01*
X55007802Y-127593327D01*
X55241191Y-127690000D01*
X55794250Y-127690000D01*
X55953000Y-127531250D01*
X55953000Y-125857000D01*
X54891250Y-125857000D01*
X54732500Y-126015750D01*
X48335000Y-126015750D01*
X48335000Y-124278690D01*
X54732500Y-124278690D01*
X54732500Y-125444250D01*
X54891250Y-125603000D01*
X55953000Y-125603000D01*
X55953000Y-123928750D01*
X55794250Y-123770000D01*
X55241191Y-123770000D01*
X55007802Y-123866673D01*
X54829173Y-124045301D01*
X54732500Y-124278690D01*
X48335000Y-124278690D01*
X48335000Y-121570750D01*
X54732500Y-121570750D01*
X54732500Y-122736310D01*
X54829173Y-122969699D01*
X55007802Y-123148327D01*
X55241191Y-123245000D01*
X55794250Y-123245000D01*
X55953000Y-123086250D01*
X55953000Y-121412000D01*
X54891250Y-121412000D01*
X54732500Y-121570750D01*
X48335000Y-121570750D01*
X48335000Y-119833690D01*
X54732500Y-119833690D01*
X54732500Y-120999250D01*
X54891250Y-121158000D01*
X55953000Y-121158000D01*
X55953000Y-119483750D01*
X55794250Y-119325000D01*
X55241191Y-119325000D01*
X55007802Y-119421673D01*
X54829173Y-119600301D01*
X54732500Y-119833690D01*
X48335000Y-119833690D01*
X48335000Y-107706954D01*
X51229000Y-107706954D01*
X51229000Y-109153046D01*
X51782396Y-110489062D01*
X52804938Y-111511604D01*
X54140954Y-112065000D01*
X55587046Y-112065000D01*
X56923062Y-111511604D01*
X57945604Y-110489062D01*
X58499000Y-109153046D01*
X58499000Y-107706954D01*
X57945604Y-106370938D01*
X56923062Y-105348396D01*
X55587046Y-104795000D01*
X54140954Y-104795000D01*
X52804938Y-105348396D01*
X51782396Y-106370938D01*
X51229000Y-107706954D01*
X48335000Y-107706954D01*
X48335000Y-100739987D01*
X48757370Y-101162357D01*
X50494741Y-101882000D01*
X52375259Y-101882000D01*
X54112630Y-101162357D01*
X55442357Y-99832630D01*
X56162000Y-98095259D01*
X56162000Y-97752532D01*
X60622073Y-97752532D01*
X60720736Y-98019387D01*
X61330461Y-98245908D01*
X61980460Y-98221856D01*
X62469264Y-98019387D01*
X62567927Y-97752532D01*
X72687073Y-97752532D01*
X72785736Y-98019387D01*
X73395461Y-98245908D01*
X74045460Y-98221856D01*
X74534264Y-98019387D01*
X74632927Y-97752532D01*
X84752073Y-97752532D01*
X84850736Y-98019387D01*
X85460461Y-98245908D01*
X86110460Y-98221856D01*
X86599264Y-98019387D01*
X86697927Y-97752532D01*
X96817073Y-97752532D01*
X96915736Y-98019387D01*
X97525461Y-98245908D01*
X98175460Y-98221856D01*
X98664264Y-98019387D01*
X98762927Y-97752532D01*
X108882073Y-97752532D01*
X108980736Y-98019387D01*
X109590461Y-98245908D01*
X110240460Y-98221856D01*
X110729264Y-98019387D01*
X110827927Y-97752532D01*
X109855000Y-96779605D01*
X108882073Y-97752532D01*
X98762927Y-97752532D01*
X97790000Y-96779605D01*
X96817073Y-97752532D01*
X86697927Y-97752532D01*
X85725000Y-96779605D01*
X84752073Y-97752532D01*
X74632927Y-97752532D01*
X73660000Y-96779605D01*
X72687073Y-97752532D01*
X62567927Y-97752532D01*
X61595000Y-96779605D01*
X60622073Y-97752532D01*
X56162000Y-97752532D01*
X56162000Y-96335461D01*
X59949092Y-96335461D01*
X59973144Y-96985460D01*
X60175613Y-97474264D01*
X60442468Y-97572927D01*
X61415395Y-96600000D01*
X61774605Y-96600000D01*
X62747532Y-97572927D01*
X63014387Y-97474264D01*
X63240908Y-96864539D01*
X63221331Y-96335461D01*
X72014092Y-96335461D01*
X72038144Y-96985460D01*
X72240613Y-97474264D01*
X72507468Y-97572927D01*
X73480395Y-96600000D01*
X73839605Y-96600000D01*
X74812532Y-97572927D01*
X75079387Y-97474264D01*
X75305908Y-96864539D01*
X75286331Y-96335461D01*
X84079092Y-96335461D01*
X84103144Y-96985460D01*
X84305613Y-97474264D01*
X84572468Y-97572927D01*
X85545395Y-96600000D01*
X85904605Y-96600000D01*
X86877532Y-97572927D01*
X87144387Y-97474264D01*
X87370908Y-96864539D01*
X87351331Y-96335461D01*
X96144092Y-96335461D01*
X96168144Y-96985460D01*
X96370613Y-97474264D01*
X96637468Y-97572927D01*
X97610395Y-96600000D01*
X97969605Y-96600000D01*
X98942532Y-97572927D01*
X99209387Y-97474264D01*
X99435908Y-96864539D01*
X99416331Y-96335461D01*
X108209092Y-96335461D01*
X108233144Y-96985460D01*
X108435613Y-97474264D01*
X108702468Y-97572927D01*
X109675395Y-96600000D01*
X110034605Y-96600000D01*
X111007532Y-97572927D01*
X111274387Y-97474264D01*
X111500908Y-96864539D01*
X111476856Y-96214540D01*
X111274387Y-95725736D01*
X111007532Y-95627073D01*
X110034605Y-96600000D01*
X109675395Y-96600000D01*
X108702468Y-95627073D01*
X108435613Y-95725736D01*
X108209092Y-96335461D01*
X99416331Y-96335461D01*
X99411856Y-96214540D01*
X99209387Y-95725736D01*
X98942532Y-95627073D01*
X97969605Y-96600000D01*
X97610395Y-96600000D01*
X96637468Y-95627073D01*
X96370613Y-95725736D01*
X96144092Y-96335461D01*
X87351331Y-96335461D01*
X87346856Y-96214540D01*
X87144387Y-95725736D01*
X86877532Y-95627073D01*
X85904605Y-96600000D01*
X85545395Y-96600000D01*
X84572468Y-95627073D01*
X84305613Y-95725736D01*
X84079092Y-96335461D01*
X75286331Y-96335461D01*
X75281856Y-96214540D01*
X75079387Y-95725736D01*
X74812532Y-95627073D01*
X73839605Y-96600000D01*
X73480395Y-96600000D01*
X72507468Y-95627073D01*
X72240613Y-95725736D01*
X72014092Y-96335461D01*
X63221331Y-96335461D01*
X63216856Y-96214540D01*
X63014387Y-95725736D01*
X62747532Y-95627073D01*
X61774605Y-96600000D01*
X61415395Y-96600000D01*
X60442468Y-95627073D01*
X60175613Y-95725736D01*
X59949092Y-96335461D01*
X56162000Y-96335461D01*
X56162000Y-96214741D01*
X55844185Y-95447468D01*
X60622073Y-95447468D01*
X61595000Y-96420395D01*
X62567927Y-95447468D01*
X72687073Y-95447468D01*
X73660000Y-96420395D01*
X74632927Y-95447468D01*
X84752073Y-95447468D01*
X85725000Y-96420395D01*
X86697927Y-95447468D01*
X96817073Y-95447468D01*
X97790000Y-96420395D01*
X98762927Y-95447468D01*
X108882073Y-95447468D01*
X109855000Y-96420395D01*
X110827927Y-95447468D01*
X110729264Y-95180613D01*
X110119539Y-94954092D01*
X109469540Y-94978144D01*
X108980736Y-95180613D01*
X108882073Y-95447468D01*
X98762927Y-95447468D01*
X98664264Y-95180613D01*
X98054539Y-94954092D01*
X97404540Y-94978144D01*
X96915736Y-95180613D01*
X96817073Y-95447468D01*
X86697927Y-95447468D01*
X86599264Y-95180613D01*
X85989539Y-94954092D01*
X85339540Y-94978144D01*
X84850736Y-95180613D01*
X84752073Y-95447468D01*
X74632927Y-95447468D01*
X74534264Y-95180613D01*
X73924539Y-94954092D01*
X73274540Y-94978144D01*
X72785736Y-95180613D01*
X72687073Y-95447468D01*
X62567927Y-95447468D01*
X62469264Y-95180613D01*
X61859539Y-94954092D01*
X61209540Y-94978144D01*
X60720736Y-95180613D01*
X60622073Y-95447468D01*
X55844185Y-95447468D01*
X55442357Y-94477370D01*
X55019987Y-94055000D01*
X116430013Y-94055000D01*
X116007643Y-94477370D01*
X116007643Y-94477370D01*
G37*
X116007643Y-94477370D02*
X115288000Y-96214741D01*
X115288000Y-98095259D01*
X116007643Y-99832630D01*
X117337370Y-101162357D01*
X119074741Y-101882000D01*
X120955259Y-101882000D01*
X122692630Y-101162357D01*
X123115000Y-100739987D01*
X123115001Y-145640014D01*
X122692630Y-145217643D01*
X120955259Y-144498000D01*
X119074741Y-144498000D01*
X117337370Y-145217643D01*
X116007643Y-146547370D01*
X115288000Y-148284741D01*
X115288000Y-150165259D01*
X116007643Y-151902630D01*
X116430013Y-152325000D01*
X103213025Y-152325000D01*
X103348327Y-152189699D01*
X103445000Y-151956310D01*
X103445000Y-151415750D01*
X103286250Y-151257000D01*
X102362000Y-151257000D01*
X102362000Y-151277000D01*
X102108000Y-151277000D01*
X102108000Y-151257000D01*
X102088000Y-151257000D01*
X102088000Y-151003000D01*
X102108000Y-151003000D01*
X102108000Y-149953750D01*
X102362000Y-149953750D01*
X102362000Y-151003000D01*
X103286250Y-151003000D01*
X103445000Y-150844250D01*
X103445000Y-150303690D01*
X103348327Y-150070301D01*
X103169698Y-149891673D01*
X102936309Y-149795000D01*
X102520750Y-149795000D01*
X102362000Y-149953750D01*
X102108000Y-149953750D01*
X101949250Y-149795000D01*
X101533691Y-149795000D01*
X101300302Y-149891673D01*
X101145377Y-150046597D01*
X101144586Y-150045414D01*
X100853436Y-149850873D01*
X100510001Y-149782560D01*
X99859999Y-149782560D01*
X99516564Y-149850873D01*
X99225414Y-150045414D01*
X99030873Y-150336564D01*
X99024222Y-150370000D01*
X97680778Y-150370000D01*
X97674127Y-150336564D01*
X97479586Y-150045414D01*
X97188436Y-149850873D01*
X96845001Y-149782560D01*
X96194999Y-149782560D01*
X95851564Y-149850873D01*
X95560414Y-150045414D01*
X95495000Y-150143313D01*
X95429586Y-150045414D01*
X95230000Y-149912054D01*
X95230000Y-149684801D01*
X96609802Y-148305000D01*
X98452958Y-148305000D01*
X98613288Y-148692070D01*
X99182930Y-149261712D01*
X99927202Y-149570000D01*
X100732798Y-149570000D01*
X101477070Y-149261712D01*
X102046712Y-148692070D01*
X102355000Y-147947798D01*
X102355000Y-147142202D01*
X102283983Y-146970750D01*
X106015000Y-146970750D01*
X106015000Y-148111310D01*
X106111673Y-148344699D01*
X106290302Y-148523327D01*
X106523691Y-148620000D01*
X107664250Y-148620000D01*
X107823000Y-148461250D01*
X107823000Y-146812000D01*
X108077000Y-146812000D01*
X108077000Y-148461250D01*
X108235750Y-148620000D01*
X109376309Y-148620000D01*
X109609698Y-148523327D01*
X109788327Y-148344699D01*
X109885000Y-148111310D01*
X109885000Y-146970750D01*
X109726250Y-146812000D01*
X108077000Y-146812000D01*
X107823000Y-146812000D01*
X106173750Y-146812000D01*
X106015000Y-146970750D01*
X102283983Y-146970750D01*
X102046712Y-146397930D01*
X101965000Y-146316218D01*
X101965000Y-145373782D01*
X102046712Y-145292070D01*
X102060538Y-145258690D01*
X106015000Y-145258690D01*
X106015000Y-146399250D01*
X106173750Y-146558000D01*
X107823000Y-146558000D01*
X107823000Y-144908750D01*
X108077000Y-144908750D01*
X108077000Y-146558000D01*
X109726250Y-146558000D01*
X109885000Y-146399250D01*
X109885000Y-145258690D01*
X109788327Y-145025301D01*
X109609698Y-144846673D01*
X109376309Y-144750000D01*
X108235750Y-144750000D01*
X108077000Y-144908750D01*
X107823000Y-144908750D01*
X107664250Y-144750000D01*
X106523691Y-144750000D01*
X106290302Y-144846673D01*
X106111673Y-145025301D01*
X106015000Y-145258690D01*
X102060538Y-145258690D01*
X102355000Y-144547798D01*
X102355000Y-143742202D01*
X102046712Y-142997930D01*
X101965000Y-142916218D01*
X101965000Y-141335000D01*
X108542762Y-141335000D01*
X111315000Y-144107239D01*
X111315001Y-145583495D01*
X111309586Y-145588910D01*
X111015000Y-146300105D01*
X111015000Y-147069895D01*
X111309586Y-147781090D01*
X111853910Y-148325414D01*
X112565105Y-148620000D01*
X113334895Y-148620000D01*
X114046090Y-148325414D01*
X114590414Y-147781090D01*
X114885000Y-147069895D01*
X114885000Y-146300105D01*
X114590414Y-145588910D01*
X114585000Y-145583496D01*
X114585000Y-143591031D01*
X114617031Y-143430000D01*
X114490136Y-142792054D01*
X114280270Y-142477969D01*
X114128769Y-142251231D01*
X113992253Y-142160014D01*
X110489988Y-138657750D01*
X110398769Y-138521231D01*
X109857945Y-138159864D01*
X109381031Y-138065000D01*
X109381030Y-138065000D01*
X109220000Y-138032969D01*
X109058970Y-138065000D01*
X108784417Y-138065000D01*
X108999699Y-137975827D01*
X109178327Y-137797198D01*
X109215707Y-137706954D01*
X113229000Y-137706954D01*
X113229000Y-139153046D01*
X113782396Y-140489062D01*
X114804938Y-141511604D01*
X116140954Y-142065000D01*
X117587046Y-142065000D01*
X118923062Y-141511604D01*
X119945604Y-140489062D01*
X120499000Y-139153046D01*
X120499000Y-137706954D01*
X119945604Y-136370938D01*
X118923062Y-135348396D01*
X117587046Y-134795000D01*
X116140954Y-134795000D01*
X114804938Y-135348396D01*
X113782396Y-136370938D01*
X113229000Y-137706954D01*
X109215707Y-137706954D01*
X109275000Y-137563809D01*
X109275000Y-137010750D01*
X109116250Y-136852000D01*
X107442000Y-136852000D01*
X107442000Y-136872000D01*
X107188000Y-136872000D01*
X107188000Y-136852000D01*
X105513750Y-136852000D01*
X105355000Y-137010750D01*
X105355000Y-137563809D01*
X105451673Y-137797198D01*
X105630301Y-137975827D01*
X105845583Y-138065000D01*
X104339417Y-138065000D01*
X104554699Y-137975827D01*
X104733327Y-137797198D01*
X104830000Y-137563809D01*
X104830000Y-137010750D01*
X104671250Y-136852000D01*
X102997000Y-136852000D01*
X102997000Y-136872000D01*
X102743000Y-136872000D01*
X102743000Y-136852000D01*
X101068750Y-136852000D01*
X100910000Y-137010750D01*
X100910000Y-137563809D01*
X101006673Y-137797198D01*
X101185301Y-137975827D01*
X101400583Y-138065000D01*
X100491031Y-138065000D01*
X100330000Y-138032969D01*
X100168969Y-138065000D01*
X99894417Y-138065000D01*
X100109699Y-137975827D01*
X100288327Y-137797198D01*
X100385000Y-137563809D01*
X100385000Y-137010750D01*
X100226250Y-136852000D01*
X98552000Y-136852000D01*
X98552000Y-136872000D01*
X98298000Y-136872000D01*
X98298000Y-136852000D01*
X96623750Y-136852000D01*
X96543994Y-136931756D01*
X95498429Y-135886191D01*
X96465000Y-135886191D01*
X96465000Y-136439250D01*
X96623750Y-136598000D01*
X98298000Y-136598000D01*
X98298000Y-135536250D01*
X98552000Y-135536250D01*
X98552000Y-136598000D01*
X100226250Y-136598000D01*
X100385000Y-136439250D01*
X100385000Y-135886191D01*
X100910000Y-135886191D01*
X100910000Y-136439250D01*
X101068750Y-136598000D01*
X102743000Y-136598000D01*
X102743000Y-135536250D01*
X102997000Y-135536250D01*
X102997000Y-136598000D01*
X104671250Y-136598000D01*
X104830000Y-136439250D01*
X104830000Y-135886191D01*
X105355000Y-135886191D01*
X105355000Y-136439250D01*
X105513750Y-136598000D01*
X107188000Y-136598000D01*
X107188000Y-135536250D01*
X107442000Y-135536250D01*
X107442000Y-136598000D01*
X109116250Y-136598000D01*
X109275000Y-136439250D01*
X109275000Y-135886191D01*
X109178327Y-135652802D01*
X108999699Y-135474173D01*
X108766310Y-135377500D01*
X107600750Y-135377500D01*
X107442000Y-135536250D01*
X107188000Y-135536250D01*
X107029250Y-135377500D01*
X105863690Y-135377500D01*
X105630301Y-135474173D01*
X105451673Y-135652802D01*
X105355000Y-135886191D01*
X104830000Y-135886191D01*
X104733327Y-135652802D01*
X104554699Y-135474173D01*
X104321310Y-135377500D01*
X103155750Y-135377500D01*
X102997000Y-135536250D01*
X102743000Y-135536250D01*
X102584250Y-135377500D01*
X101418690Y-135377500D01*
X101185301Y-135474173D01*
X101006673Y-135652802D01*
X100910000Y-135886191D01*
X100385000Y-135886191D01*
X100288327Y-135652802D01*
X100109699Y-135474173D01*
X99876310Y-135377500D01*
X98710750Y-135377500D01*
X98552000Y-135536250D01*
X98298000Y-135536250D01*
X98139250Y-135377500D01*
X96973690Y-135377500D01*
X96740301Y-135474173D01*
X96561673Y-135652802D01*
X96465000Y-135886191D01*
X95498429Y-135886191D01*
X94345000Y-134732762D01*
X94345000Y-133305022D01*
X115168584Y-133305022D01*
X115389353Y-133675743D01*
X116361012Y-134069119D01*
X117409247Y-134060713D01*
X118338647Y-133675743D01*
X118559416Y-133305022D01*
X116864000Y-131609605D01*
X115168584Y-133305022D01*
X94345000Y-133305022D01*
X94345000Y-130927012D01*
X114224881Y-130927012D01*
X114233287Y-131975247D01*
X114618257Y-132904647D01*
X114988978Y-133125416D01*
X116684395Y-131430000D01*
X117043605Y-131430000D01*
X118739022Y-133125416D01*
X119109743Y-132904647D01*
X119503119Y-131932988D01*
X119494713Y-130884753D01*
X119109743Y-129955353D01*
X118739022Y-129734584D01*
X117043605Y-131430000D01*
X116684395Y-131430000D01*
X114988978Y-129734584D01*
X114618257Y-129955353D01*
X114224881Y-130927012D01*
X94345000Y-130927012D01*
X94345000Y-129554978D01*
X115168584Y-129554978D01*
X116864000Y-131250395D01*
X118559416Y-129554978D01*
X118338647Y-129184257D01*
X117366988Y-128790881D01*
X116318753Y-128799287D01*
X115389353Y-129184257D01*
X115168584Y-129554978D01*
X94345000Y-129554978D01*
X94345000Y-114905866D01*
X114229000Y-114905866D01*
X114229000Y-115954134D01*
X114630155Y-116922608D01*
X115371392Y-117663845D01*
X116339866Y-118065000D01*
X117388134Y-118065000D01*
X118356608Y-117663845D01*
X119097845Y-116922608D01*
X119499000Y-115954134D01*
X119499000Y-114905866D01*
X119097845Y-113937392D01*
X118356608Y-113196155D01*
X117388134Y-112795000D01*
X116339866Y-112795000D01*
X115371392Y-113196155D01*
X114630155Y-113937392D01*
X114229000Y-114905866D01*
X94345000Y-114905866D01*
X94345000Y-107706954D01*
X113229000Y-107706954D01*
X113229000Y-109153046D01*
X113782396Y-110489062D01*
X114804938Y-111511604D01*
X116140954Y-112065000D01*
X117587046Y-112065000D01*
X118923062Y-111511604D01*
X119945604Y-110489062D01*
X120499000Y-109153046D01*
X120499000Y-107706954D01*
X119945604Y-106370938D01*
X118923062Y-105348396D01*
X117587046Y-104795000D01*
X116140954Y-104795000D01*
X114804938Y-105348396D01*
X113782396Y-106370938D01*
X113229000Y-107706954D01*
X94345000Y-107706954D01*
X94345000Y-103235000D01*
X96727459Y-103235000D01*
X96790000Y-103247440D01*
X98790000Y-103247440D01*
X98852541Y-103235000D01*
X108792459Y-103235000D01*
X108855000Y-103247440D01*
X110855000Y-103247440D01*
X111102765Y-103198157D01*
X111312809Y-103057809D01*
X111453157Y-102847765D01*
X111502440Y-102600000D01*
X111502440Y-101698491D01*
X111522031Y-101600000D01*
X111502440Y-101501509D01*
X111502440Y-100600000D01*
X111453157Y-100352235D01*
X111312809Y-100142191D01*
X111102765Y-100001843D01*
X110855000Y-99952560D01*
X108855000Y-99952560D01*
X108792459Y-99965000D01*
X98852541Y-99965000D01*
X98790000Y-99952560D01*
X96790000Y-99952560D01*
X96727459Y-99965000D01*
X92871031Y-99965000D01*
X92710000Y-99932969D01*
X92548969Y-99965000D01*
X86787541Y-99965000D01*
X86725000Y-99952560D01*
X84725000Y-99952560D01*
X84477235Y-100001843D01*
X84267191Y-100142191D01*
X84126843Y-100352235D01*
X84077560Y-100600000D01*
X84077560Y-101501509D01*
X84057969Y-101600000D01*
X84077560Y-101698491D01*
X84077560Y-102600000D01*
X84126843Y-102847765D01*
X84267191Y-103057809D01*
X84477235Y-103198157D01*
X84725000Y-103247440D01*
X86725000Y-103247440D01*
X86787541Y-103235000D01*
X91075000Y-103235000D01*
X91075001Y-135248965D01*
X91042969Y-135410000D01*
X91091266Y-135652802D01*
X91169865Y-136047945D01*
X91531232Y-136588769D01*
X91667748Y-136679986D01*
X95730014Y-140742253D01*
X95821231Y-140878769D01*
X96362055Y-141240136D01*
X96838969Y-141335000D01*
X96838973Y-141335000D01*
X96999999Y-141367030D01*
X97161025Y-141335000D01*
X98695000Y-141335000D01*
X98695000Y-142916218D01*
X98613288Y-142997930D01*
X98305000Y-143742202D01*
X98305000Y-144547798D01*
X98613288Y-145292070D01*
X98695001Y-145373783D01*
X98695001Y-146316217D01*
X98613288Y-146397930D01*
X98452958Y-146785000D01*
X96369848Y-146785000D01*
X96295000Y-146770112D01*
X96220152Y-146785000D01*
X96220148Y-146785000D01*
X96046605Y-146819520D01*
X95998462Y-146829096D01*
X95811418Y-146954076D01*
X95747071Y-146997071D01*
X95704671Y-147060527D01*
X93985530Y-148779669D01*
X93922071Y-148822071D01*
X93754096Y-149073464D01*
X93710000Y-149295149D01*
X93710000Y-149295153D01*
X93695112Y-149370000D01*
X93710000Y-149444847D01*
X93710000Y-149912054D01*
X93510414Y-150045414D01*
X93315873Y-150336564D01*
X93309222Y-150370000D01*
X92567975Y-150370000D01*
X92196217Y-149998242D01*
X91705548Y-149795000D01*
X91174452Y-149795000D01*
X90683783Y-149998242D01*
X90308242Y-150373783D01*
X90176721Y-150691302D01*
X90071042Y-150436169D01*
X89835275Y-150374331D01*
X89079605Y-151130000D01*
X89835275Y-151885669D01*
X90071042Y-151823831D01*
X90168153Y-151548013D01*
X90308242Y-151886217D01*
X90683783Y-152261758D01*
X90836463Y-152325000D01*
X89535991Y-152325000D01*
X89593831Y-152301042D01*
X89655669Y-152065275D01*
X88900000Y-151309605D01*
X88144331Y-152065275D01*
X88206169Y-152301042D01*
X88274215Y-152325000D01*
X83185991Y-152325000D01*
X83243831Y-152301042D01*
X83305669Y-152065275D01*
X82550000Y-151309605D01*
X81794331Y-152065275D01*
X81856169Y-152301042D01*
X81924215Y-152325000D01*
X80613537Y-152325000D01*
X80766217Y-152261758D01*
X81141758Y-151886217D01*
X81273279Y-151568698D01*
X81378958Y-151823831D01*
X81614725Y-151885669D01*
X82370395Y-151130000D01*
X82729605Y-151130000D01*
X83485275Y-151885669D01*
X83721042Y-151823831D01*
X83897419Y-151322878D01*
X83876503Y-150937122D01*
X87552581Y-150937122D01*
X87581336Y-151467440D01*
X87728958Y-151823831D01*
X87964725Y-151885669D01*
X88720395Y-151130000D01*
X87964725Y-150374331D01*
X87728958Y-150436169D01*
X87552581Y-150937122D01*
X83876503Y-150937122D01*
X83868664Y-150792560D01*
X83721042Y-150436169D01*
X83485275Y-150374331D01*
X82729605Y-151130000D01*
X82370395Y-151130000D01*
X82356252Y-151115858D01*
X82535858Y-150936252D01*
X82550000Y-150950395D01*
X83305669Y-150194725D01*
X88144331Y-150194725D01*
X88900000Y-150950395D01*
X89655669Y-150194725D01*
X89593831Y-149958958D01*
X89092878Y-149782581D01*
X88562560Y-149811336D01*
X88206169Y-149958958D01*
X88144331Y-150194725D01*
X83305669Y-150194725D01*
X83243831Y-149958958D01*
X82742878Y-149782581D01*
X82212560Y-149811336D01*
X81856169Y-149958958D01*
X81801429Y-150167662D01*
X81814888Y-150100000D01*
X81800000Y-150025153D01*
X81800000Y-149422042D01*
X82187070Y-149261712D01*
X82756712Y-148692070D01*
X83065000Y-147947798D01*
X83065000Y-147142202D01*
X82756712Y-146397930D01*
X82675000Y-146316218D01*
X82675000Y-145373782D01*
X82756712Y-145292070D01*
X83065000Y-144547798D01*
X83065000Y-143742202D01*
X88385000Y-143742202D01*
X88385000Y-144547798D01*
X88693288Y-145292070D01*
X89246218Y-145845000D01*
X88693288Y-146397930D01*
X88385000Y-147142202D01*
X88385000Y-147947798D01*
X88693288Y-148692070D01*
X89262930Y-149261712D01*
X90007202Y-149570000D01*
X90812798Y-149570000D01*
X91557070Y-149261712D01*
X92126712Y-148692070D01*
X92435000Y-147947798D01*
X92435000Y-147142202D01*
X92126712Y-146397930D01*
X91573782Y-145845000D01*
X92126712Y-145292070D01*
X92435000Y-144547798D01*
X92435000Y-143742202D01*
X92126712Y-142997930D01*
X91557070Y-142428288D01*
X90812798Y-142120000D01*
X90007202Y-142120000D01*
X89262930Y-142428288D01*
X88693288Y-142997930D01*
X88385000Y-143742202D01*
X83065000Y-143742202D01*
X82756712Y-142997930D01*
X82187070Y-142428288D01*
X81442798Y-142120000D01*
X80637202Y-142120000D01*
X79892930Y-142428288D01*
X79811218Y-142510000D01*
X78147239Y-142510000D01*
X60690000Y-125052762D01*
X60690000Y-116953598D01*
X60722030Y-116792572D01*
X60690000Y-116631546D01*
X60690000Y-116631542D01*
X60595136Y-116154628D01*
X60233769Y-115613804D01*
X60097252Y-115522587D01*
X60004666Y-115430000D01*
X62637253Y-112797413D01*
X62773769Y-112706196D01*
X62965470Y-112419295D01*
X63135136Y-112165373D01*
X63262031Y-111527427D01*
X63230000Y-111366396D01*
X63230000Y-103235000D01*
X72597459Y-103235000D01*
X72660000Y-103247440D01*
X74660000Y-103247440D01*
X74907765Y-103198157D01*
X75117809Y-103057809D01*
X75258157Y-102847765D01*
X75307440Y-102600000D01*
X75307440Y-101698491D01*
X75327031Y-101600000D01*
X75307440Y-101501509D01*
X75307440Y-100600000D01*
X75258157Y-100352235D01*
X75117809Y-100142191D01*
X74907765Y-100001843D01*
X74660000Y-99952560D01*
X72660000Y-99952560D01*
X72597459Y-99965000D01*
X62657541Y-99965000D01*
X62595000Y-99952560D01*
X61693491Y-99952560D01*
X61595000Y-99932969D01*
X61496509Y-99952560D01*
X60595000Y-99952560D01*
X60347235Y-100001843D01*
X60137191Y-100142191D01*
X59996843Y-100352235D01*
X59947560Y-100600000D01*
X59947560Y-101501509D01*
X59927969Y-101600000D01*
X59947560Y-101698491D01*
X59947560Y-102600000D01*
X59960001Y-102662545D01*
X59960000Y-110850188D01*
X57015189Y-113795000D01*
X56955453Y-113795000D01*
X56356608Y-113196155D01*
X55388134Y-112795000D01*
X54339866Y-112795000D01*
X53371392Y-113196155D01*
X52630155Y-113937392D01*
X52229000Y-114905866D01*
X52229000Y-115954134D01*
X52630155Y-116922608D01*
X53371392Y-117663845D01*
X54339866Y-118065000D01*
X55388134Y-118065000D01*
X56356608Y-117663845D01*
X56955453Y-117065000D01*
X57015189Y-117065000D01*
X57420001Y-117469813D01*
X57420001Y-119815585D01*
X57330827Y-119600301D01*
X57152198Y-119421673D01*
X56918809Y-119325000D01*
X56365750Y-119325000D01*
X56207000Y-119483750D01*
X56207000Y-121158000D01*
X56227000Y-121158000D01*
X56227000Y-121412000D01*
X56207000Y-121412000D01*
X56207000Y-123086250D01*
X56365750Y-123245000D01*
X56918809Y-123245000D01*
X57152198Y-123148327D01*
X57330827Y-122969699D01*
X57420000Y-122754416D01*
X57420000Y-124260584D01*
X57330827Y-124045301D01*
X57152198Y-123866673D01*
X56918809Y-123770000D01*
X56365750Y-123770000D01*
X56207000Y-123928750D01*
X56207000Y-125603000D01*
X56227000Y-125603000D01*
X56227000Y-125857000D01*
X56207000Y-125857000D01*
X56207000Y-127531250D01*
X56365750Y-127690000D01*
X56918809Y-127690000D01*
X57152198Y-127593327D01*
X57330827Y-127414699D01*
X57427500Y-127181310D01*
X57427500Y-126015750D01*
X57268752Y-125857002D01*
X57413231Y-125857002D01*
X57420000Y-125891030D01*
X57514864Y-126367944D01*
X57695060Y-126637627D01*
X57695060Y-126805000D01*
X57763374Y-127148435D01*
X57957914Y-127439586D01*
X58249065Y-127634126D01*
X58592500Y-127702440D01*
X58715202Y-127702440D01*
X76200014Y-145187253D01*
X76291231Y-145323769D01*
X76564305Y-145506231D01*
X76832054Y-145685136D01*
X77470000Y-145812031D01*
X77631031Y-145780000D01*
X79405001Y-145780000D01*
X79405000Y-146316218D01*
X79323288Y-146397930D01*
X79015000Y-147142202D01*
X79015000Y-147947798D01*
X79323288Y-148692070D01*
X79892930Y-149261712D01*
X80280001Y-149422042D01*
X80280001Y-149785197D01*
X80270198Y-149795000D01*
X79744452Y-149795000D01*
X79253783Y-149998242D01*
X78882025Y-150370000D01*
X77995778Y-150370000D01*
X77989127Y-150336564D01*
X77794586Y-150045414D01*
X77503436Y-149850873D01*
X77160001Y-149782560D01*
X76509999Y-149782560D01*
X76166564Y-149850873D01*
X75875414Y-150045414D01*
X75810000Y-150143313D01*
X75744586Y-150045414D01*
X75453436Y-149850873D01*
X75110001Y-149782560D01*
X74459999Y-149782560D01*
X74116564Y-149850873D01*
X73825414Y-150045414D01*
X73630873Y-150336564D01*
X73624222Y-150370000D01*
X72425778Y-150370000D01*
X72419127Y-150336564D01*
X72224586Y-150045414D01*
X71933436Y-149850873D01*
X71590001Y-149782560D01*
X70939999Y-149782560D01*
X70596564Y-149850873D01*
X70305414Y-150045414D01*
X70304623Y-150046597D01*
X70149698Y-149891673D01*
X69916309Y-149795000D01*
X69500750Y-149795000D01*
X69342000Y-149953750D01*
X69342000Y-151003000D01*
X69362000Y-151003000D01*
X69362000Y-151257000D01*
X69342000Y-151257000D01*
X69342000Y-151277000D01*
X69088000Y-151277000D01*
X69088000Y-151257000D01*
X68163750Y-151257000D01*
X68005000Y-151415750D01*
X68005000Y-151956310D01*
X68101673Y-152189699D01*
X68236975Y-152325000D01*
X55019987Y-152325000D01*
X55442357Y-151902630D01*
X56104659Y-150303690D01*
X68005000Y-150303690D01*
X68005000Y-150844250D01*
X68163750Y-151003000D01*
X69088000Y-151003000D01*
X69088000Y-149953750D01*
X68929250Y-149795000D01*
X68513691Y-149795000D01*
X68280302Y-149891673D01*
X68101673Y-150070301D01*
X68005000Y-150303690D01*
X56104659Y-150303690D01*
X56162000Y-150165259D01*
X56162000Y-148284741D01*
X55617727Y-146970750D01*
X56485000Y-146970750D01*
X56485000Y-148111310D01*
X56581673Y-148344699D01*
X56760302Y-148523327D01*
X56993691Y-148620000D01*
X58134250Y-148620000D01*
X58293000Y-148461250D01*
X58293000Y-146812000D01*
X58547000Y-146812000D01*
X58547000Y-148461250D01*
X58705750Y-148620000D01*
X59846309Y-148620000D01*
X60079698Y-148523327D01*
X60258327Y-148344699D01*
X60355000Y-148111310D01*
X60355000Y-146970750D01*
X60196250Y-146812000D01*
X58547000Y-146812000D01*
X58293000Y-146812000D01*
X56643750Y-146812000D01*
X56485000Y-146970750D01*
X55617727Y-146970750D01*
X55442357Y-146547370D01*
X54153677Y-145258690D01*
X56485000Y-145258690D01*
X56485000Y-146399250D01*
X56643750Y-146558000D01*
X58293000Y-146558000D01*
X58293000Y-144908750D01*
X58547000Y-144908750D01*
X58547000Y-146558000D01*
X60196250Y-146558000D01*
X60355000Y-146399250D01*
X60355000Y-146300105D01*
X61485000Y-146300105D01*
X61485000Y-147069895D01*
X61779586Y-147781090D01*
X62323910Y-148325414D01*
X63035105Y-148620000D01*
X63804895Y-148620000D01*
X64516090Y-148325414D01*
X64521504Y-148320000D01*
X69249171Y-148320000D01*
X69403288Y-148692070D01*
X69972930Y-149261712D01*
X70717202Y-149570000D01*
X71522798Y-149570000D01*
X72267070Y-149261712D01*
X72836712Y-148692070D01*
X73145000Y-147947798D01*
X73145000Y-147142202D01*
X72836712Y-146397930D01*
X72755000Y-146316218D01*
X72755000Y-145373782D01*
X72836712Y-145292070D01*
X73145000Y-144547798D01*
X73145000Y-143742202D01*
X72836712Y-142997930D01*
X72267070Y-142428288D01*
X71522798Y-142120000D01*
X70717202Y-142120000D01*
X69972930Y-142428288D01*
X69403288Y-142997930D01*
X69095000Y-143742202D01*
X69095000Y-144547798D01*
X69303019Y-145050000D01*
X64521504Y-145050000D01*
X64516090Y-145044586D01*
X63804895Y-144750000D01*
X63035105Y-144750000D01*
X62323910Y-145044586D01*
X61779586Y-145588910D01*
X61485000Y-146300105D01*
X60355000Y-146300105D01*
X60355000Y-145258690D01*
X60258327Y-145025301D01*
X60079698Y-144846673D01*
X59846309Y-144750000D01*
X58705750Y-144750000D01*
X58547000Y-144908750D01*
X58293000Y-144908750D01*
X58134250Y-144750000D01*
X56993691Y-144750000D01*
X56760302Y-144846673D01*
X56581673Y-145025301D01*
X56485000Y-145258690D01*
X54153677Y-145258690D01*
X54112630Y-145217643D01*
X52375259Y-144498000D01*
X50494741Y-144498000D01*
X48757370Y-145217643D01*
X48335000Y-145640013D01*
X48335000Y-137706954D01*
X51229000Y-137706954D01*
X51229000Y-139153046D01*
X51782396Y-140489062D01*
X52804938Y-141511604D01*
X54140954Y-142065000D01*
X55587046Y-142065000D01*
X56923062Y-141511604D01*
X57945604Y-140489062D01*
X58499000Y-139153046D01*
X58499000Y-137706954D01*
X57945604Y-136370938D01*
X56923062Y-135348396D01*
X55587046Y-134795000D01*
X54140954Y-134795000D01*
X52804938Y-135348396D01*
X51782396Y-136370938D01*
X51229000Y-137706954D01*
X48335000Y-137706954D01*
X48335000Y-133305022D01*
X53168584Y-133305022D01*
X53389353Y-133675743D01*
X54361012Y-134069119D01*
X55409247Y-134060713D01*
X56338647Y-133675743D01*
X56559416Y-133305022D01*
X54864000Y-131609605D01*
X53168584Y-133305022D01*
X48335000Y-133305022D01*
X48335000Y-130927012D01*
X52224881Y-130927012D01*
X52233287Y-131975247D01*
X52618257Y-132904647D01*
X52988978Y-133125416D01*
X54684395Y-131430000D01*
X55043605Y-131430000D01*
X56739022Y-133125416D01*
X57109743Y-132904647D01*
X57503119Y-131932988D01*
X57494713Y-130884753D01*
X57109743Y-129955353D01*
X56739022Y-129734584D01*
X55043605Y-131430000D01*
X54684395Y-131430000D01*
X52988978Y-129734584D01*
X52618257Y-129955353D01*
X52224881Y-130927012D01*
X48335000Y-130927012D01*
X48335000Y-129554978D01*
X53168584Y-129554978D01*
X54864000Y-131250395D01*
X56559416Y-129554978D01*
X56338647Y-129184257D01*
X55366988Y-128790881D01*
X54318753Y-128799287D01*
X53389353Y-129184257D01*
X53168584Y-129554978D01*
X48335000Y-129554978D01*
X48335000Y-126015750D01*
X54732500Y-126015750D01*
X54732500Y-127181310D01*
X54829173Y-127414699D01*
X55007802Y-127593327D01*
X55241191Y-127690000D01*
X55794250Y-127690000D01*
X55953000Y-127531250D01*
X55953000Y-125857000D01*
X54891250Y-125857000D01*
X54732500Y-126015750D01*
X48335000Y-126015750D01*
X48335000Y-124278690D01*
X54732500Y-124278690D01*
X54732500Y-125444250D01*
X54891250Y-125603000D01*
X55953000Y-125603000D01*
X55953000Y-123928750D01*
X55794250Y-123770000D01*
X55241191Y-123770000D01*
X55007802Y-123866673D01*
X54829173Y-124045301D01*
X54732500Y-124278690D01*
X48335000Y-124278690D01*
X48335000Y-121570750D01*
X54732500Y-121570750D01*
X54732500Y-122736310D01*
X54829173Y-122969699D01*
X55007802Y-123148327D01*
X55241191Y-123245000D01*
X55794250Y-123245000D01*
X55953000Y-123086250D01*
X55953000Y-121412000D01*
X54891250Y-121412000D01*
X54732500Y-121570750D01*
X48335000Y-121570750D01*
X48335000Y-119833690D01*
X54732500Y-119833690D01*
X54732500Y-120999250D01*
X54891250Y-121158000D01*
X55953000Y-121158000D01*
X55953000Y-119483750D01*
X55794250Y-119325000D01*
X55241191Y-119325000D01*
X55007802Y-119421673D01*
X54829173Y-119600301D01*
X54732500Y-119833690D01*
X48335000Y-119833690D01*
X48335000Y-107706954D01*
X51229000Y-107706954D01*
X51229000Y-109153046D01*
X51782396Y-110489062D01*
X52804938Y-111511604D01*
X54140954Y-112065000D01*
X55587046Y-112065000D01*
X56923062Y-111511604D01*
X57945604Y-110489062D01*
X58499000Y-109153046D01*
X58499000Y-107706954D01*
X57945604Y-106370938D01*
X56923062Y-105348396D01*
X55587046Y-104795000D01*
X54140954Y-104795000D01*
X52804938Y-105348396D01*
X51782396Y-106370938D01*
X51229000Y-107706954D01*
X48335000Y-107706954D01*
X48335000Y-100739987D01*
X48757370Y-101162357D01*
X50494741Y-101882000D01*
X52375259Y-101882000D01*
X54112630Y-101162357D01*
X55442357Y-99832630D01*
X56162000Y-98095259D01*
X56162000Y-97752532D01*
X60622073Y-97752532D01*
X60720736Y-98019387D01*
X61330461Y-98245908D01*
X61980460Y-98221856D01*
X62469264Y-98019387D01*
X62567927Y-97752532D01*
X72687073Y-97752532D01*
X72785736Y-98019387D01*
X73395461Y-98245908D01*
X74045460Y-98221856D01*
X74534264Y-98019387D01*
X74632927Y-97752532D01*
X84752073Y-97752532D01*
X84850736Y-98019387D01*
X85460461Y-98245908D01*
X86110460Y-98221856D01*
X86599264Y-98019387D01*
X86697927Y-97752532D01*
X96817073Y-97752532D01*
X96915736Y-98019387D01*
X97525461Y-98245908D01*
X98175460Y-98221856D01*
X98664264Y-98019387D01*
X98762927Y-97752532D01*
X108882073Y-97752532D01*
X108980736Y-98019387D01*
X109590461Y-98245908D01*
X110240460Y-98221856D01*
X110729264Y-98019387D01*
X110827927Y-97752532D01*
X109855000Y-96779605D01*
X108882073Y-97752532D01*
X98762927Y-97752532D01*
X97790000Y-96779605D01*
X96817073Y-97752532D01*
X86697927Y-97752532D01*
X85725000Y-96779605D01*
X84752073Y-97752532D01*
X74632927Y-97752532D01*
X73660000Y-96779605D01*
X72687073Y-97752532D01*
X62567927Y-97752532D01*
X61595000Y-96779605D01*
X60622073Y-97752532D01*
X56162000Y-97752532D01*
X56162000Y-96335461D01*
X59949092Y-96335461D01*
X59973144Y-96985460D01*
X60175613Y-97474264D01*
X60442468Y-97572927D01*
X61415395Y-96600000D01*
X61774605Y-96600000D01*
X62747532Y-97572927D01*
X63014387Y-97474264D01*
X63240908Y-96864539D01*
X63221331Y-96335461D01*
X72014092Y-96335461D01*
X72038144Y-96985460D01*
X72240613Y-97474264D01*
X72507468Y-97572927D01*
X73480395Y-96600000D01*
X73839605Y-96600000D01*
X74812532Y-97572927D01*
X75079387Y-97474264D01*
X75305908Y-96864539D01*
X75286331Y-96335461D01*
X84079092Y-96335461D01*
X84103144Y-96985460D01*
X84305613Y-97474264D01*
X84572468Y-97572927D01*
X85545395Y-96600000D01*
X85904605Y-96600000D01*
X86877532Y-97572927D01*
X87144387Y-97474264D01*
X87370908Y-96864539D01*
X87351331Y-96335461D01*
X96144092Y-96335461D01*
X96168144Y-96985460D01*
X96370613Y-97474264D01*
X96637468Y-97572927D01*
X97610395Y-96600000D01*
X97969605Y-96600000D01*
X98942532Y-97572927D01*
X99209387Y-97474264D01*
X99435908Y-96864539D01*
X99416331Y-96335461D01*
X108209092Y-96335461D01*
X108233144Y-96985460D01*
X108435613Y-97474264D01*
X108702468Y-97572927D01*
X109675395Y-96600000D01*
X110034605Y-96600000D01*
X111007532Y-97572927D01*
X111274387Y-97474264D01*
X111500908Y-96864539D01*
X111476856Y-96214540D01*
X111274387Y-95725736D01*
X111007532Y-95627073D01*
X110034605Y-96600000D01*
X109675395Y-96600000D01*
X108702468Y-95627073D01*
X108435613Y-95725736D01*
X108209092Y-96335461D01*
X99416331Y-96335461D01*
X99411856Y-96214540D01*
X99209387Y-95725736D01*
X98942532Y-95627073D01*
X97969605Y-96600000D01*
X97610395Y-96600000D01*
X96637468Y-95627073D01*
X96370613Y-95725736D01*
X96144092Y-96335461D01*
X87351331Y-96335461D01*
X87346856Y-96214540D01*
X87144387Y-95725736D01*
X86877532Y-95627073D01*
X85904605Y-96600000D01*
X85545395Y-96600000D01*
X84572468Y-95627073D01*
X84305613Y-95725736D01*
X84079092Y-96335461D01*
X75286331Y-96335461D01*
X75281856Y-96214540D01*
X75079387Y-95725736D01*
X74812532Y-95627073D01*
X73839605Y-96600000D01*
X73480395Y-96600000D01*
X72507468Y-95627073D01*
X72240613Y-95725736D01*
X72014092Y-96335461D01*
X63221331Y-96335461D01*
X63216856Y-96214540D01*
X63014387Y-95725736D01*
X62747532Y-95627073D01*
X61774605Y-96600000D01*
X61415395Y-96600000D01*
X60442468Y-95627073D01*
X60175613Y-95725736D01*
X59949092Y-96335461D01*
X56162000Y-96335461D01*
X56162000Y-96214741D01*
X55844185Y-95447468D01*
X60622073Y-95447468D01*
X61595000Y-96420395D01*
X62567927Y-95447468D01*
X72687073Y-95447468D01*
X73660000Y-96420395D01*
X74632927Y-95447468D01*
X84752073Y-95447468D01*
X85725000Y-96420395D01*
X86697927Y-95447468D01*
X96817073Y-95447468D01*
X97790000Y-96420395D01*
X98762927Y-95447468D01*
X108882073Y-95447468D01*
X109855000Y-96420395D01*
X110827927Y-95447468D01*
X110729264Y-95180613D01*
X110119539Y-94954092D01*
X109469540Y-94978144D01*
X108980736Y-95180613D01*
X108882073Y-95447468D01*
X98762927Y-95447468D01*
X98664264Y-95180613D01*
X98054539Y-94954092D01*
X97404540Y-94978144D01*
X96915736Y-95180613D01*
X96817073Y-95447468D01*
X86697927Y-95447468D01*
X86599264Y-95180613D01*
X85989539Y-94954092D01*
X85339540Y-94978144D01*
X84850736Y-95180613D01*
X84752073Y-95447468D01*
X74632927Y-95447468D01*
X74534264Y-95180613D01*
X73924539Y-94954092D01*
X73274540Y-94978144D01*
X72785736Y-95180613D01*
X72687073Y-95447468D01*
X62567927Y-95447468D01*
X62469264Y-95180613D01*
X61859539Y-94954092D01*
X61209540Y-94978144D01*
X60720736Y-95180613D01*
X60622073Y-95447468D01*
X55844185Y-95447468D01*
X55442357Y-94477370D01*
X55019987Y-94055000D01*
X116430013Y-94055000D01*
X116007643Y-94477370D01*
G04 #@! TD*
M02*
