G04 #@! TF.GenerationSoftware,KiCad,Pcbnew,5.0.2+dfsg1-1*
G04 #@! TF.CreationDate,2021-08-07T23:33:46+09:00*
G04 #@! TF.ProjectId,juice-plus,6a756963-652d-4706-9c75-732e6b696361,rev?*
G04 #@! TF.SameCoordinates,Original*
G04 #@! TF.FileFunction,Soldermask,Bot*
G04 #@! TF.FilePolarity,Negative*
%FSLAX46Y46*%
G04 Gerber Fmt 4.6, Leading zero omitted, Abs format (unit mm)*
G04 Created by KiCad (PCBNEW 5.0.2+dfsg1-1) date Sat 07 Aug 2021 11:33:46 PM JST*
%MOMM*%
%LPD*%
G01*
G04 APERTURE LIST*
%ADD10C,0.100000*%
G04 APERTURE END LIST*
D10*
G36*
X121065079Y-145763345D02*
X121065082Y-145763346D01*
X121065081Y-145763346D01*
X121720240Y-146034721D01*
X122305385Y-146425703D01*
X122309869Y-146428699D01*
X122811301Y-146930131D01*
X122811303Y-146930134D01*
X123205279Y-147519760D01*
X123294181Y-147734390D01*
X123476655Y-148174921D01*
X123615000Y-148870429D01*
X123615000Y-149579571D01*
X123476655Y-150275079D01*
X123476654Y-150275081D01*
X123205279Y-150930240D01*
X122834111Y-151485732D01*
X122811301Y-151519869D01*
X122309869Y-152021301D01*
X122309866Y-152021303D01*
X121720240Y-152415279D01*
X121161026Y-152646912D01*
X121065079Y-152686655D01*
X120369571Y-152825000D01*
X119660429Y-152825000D01*
X118964921Y-152686655D01*
X118868974Y-152646912D01*
X118309760Y-152415279D01*
X117720134Y-152021303D01*
X117720131Y-152021301D01*
X117218699Y-151519869D01*
X117195889Y-151485732D01*
X116824721Y-150930240D01*
X116553346Y-150275081D01*
X116553345Y-150275079D01*
X116415000Y-149579571D01*
X116415000Y-148870429D01*
X116553345Y-148174921D01*
X116735819Y-147734390D01*
X116824721Y-147519760D01*
X117218697Y-146930134D01*
X117218699Y-146930131D01*
X117720131Y-146428699D01*
X117724615Y-146425703D01*
X118309760Y-146034721D01*
X118964919Y-145763346D01*
X118964918Y-145763346D01*
X118964921Y-145763345D01*
X119660429Y-145625000D01*
X120369571Y-145625000D01*
X121065079Y-145763345D01*
X121065079Y-145763345D01*
G37*
G36*
X52485079Y-145763345D02*
X52485082Y-145763346D01*
X52485081Y-145763346D01*
X53140240Y-146034721D01*
X53725385Y-146425703D01*
X53729869Y-146428699D01*
X54231301Y-146930131D01*
X54231303Y-146930134D01*
X54625279Y-147519760D01*
X54714181Y-147734390D01*
X54896655Y-148174921D01*
X55035000Y-148870429D01*
X55035000Y-149579571D01*
X54896655Y-150275079D01*
X54896654Y-150275081D01*
X54625279Y-150930240D01*
X54254111Y-151485732D01*
X54231301Y-151519869D01*
X53729869Y-152021301D01*
X53729866Y-152021303D01*
X53140240Y-152415279D01*
X52581026Y-152646912D01*
X52485079Y-152686655D01*
X51789571Y-152825000D01*
X51080429Y-152825000D01*
X50384921Y-152686655D01*
X50288974Y-152646912D01*
X49729760Y-152415279D01*
X49140134Y-152021303D01*
X49140131Y-152021301D01*
X48638699Y-151519869D01*
X48615889Y-151485732D01*
X48244721Y-150930240D01*
X47973346Y-150275081D01*
X47973345Y-150275079D01*
X47835000Y-149579571D01*
X47835000Y-148870429D01*
X47973345Y-148174921D01*
X48155819Y-147734390D01*
X48244721Y-147519760D01*
X48638697Y-146930134D01*
X48638699Y-146930131D01*
X49140131Y-146428699D01*
X49144615Y-146425703D01*
X49729760Y-146034721D01*
X50384919Y-145763346D01*
X50384918Y-145763346D01*
X50384921Y-145763345D01*
X51080429Y-145625000D01*
X51789571Y-145625000D01*
X52485079Y-145763345D01*
X52485079Y-145763345D01*
G37*
G36*
X89032004Y-150390544D02*
X89119059Y-150407860D01*
X89255732Y-150464472D01*
X89255733Y-150464473D01*
X89378738Y-150546662D01*
X89483338Y-150651262D01*
X89483340Y-150651265D01*
X89565528Y-150774268D01*
X89622140Y-150910941D01*
X89651000Y-151056033D01*
X89651000Y-151203967D01*
X89622140Y-151349059D01*
X89565528Y-151485732D01*
X89565527Y-151485733D01*
X89483338Y-151608738D01*
X89378738Y-151713338D01*
X89378735Y-151713340D01*
X89255732Y-151795528D01*
X89119059Y-151852140D01*
X89032004Y-151869456D01*
X88973969Y-151881000D01*
X88826031Y-151881000D01*
X88767996Y-151869456D01*
X88680941Y-151852140D01*
X88544268Y-151795528D01*
X88421265Y-151713340D01*
X88421262Y-151713338D01*
X88316662Y-151608738D01*
X88234473Y-151485733D01*
X88234472Y-151485732D01*
X88177860Y-151349059D01*
X88149000Y-151203967D01*
X88149000Y-151056033D01*
X88177860Y-150910941D01*
X88234472Y-150774268D01*
X88316660Y-150651265D01*
X88316662Y-150651262D01*
X88421262Y-150546662D01*
X88544267Y-150464473D01*
X88544268Y-150464472D01*
X88680941Y-150407860D01*
X88767996Y-150390544D01*
X88826031Y-150379000D01*
X88973969Y-150379000D01*
X89032004Y-150390544D01*
X89032004Y-150390544D01*
G37*
G36*
X82682004Y-150390544D02*
X82769059Y-150407860D01*
X82905732Y-150464472D01*
X82905733Y-150464473D01*
X83028738Y-150546662D01*
X83133338Y-150651262D01*
X83133340Y-150651265D01*
X83215528Y-150774268D01*
X83272140Y-150910941D01*
X83301000Y-151056033D01*
X83301000Y-151203967D01*
X83272140Y-151349059D01*
X83215528Y-151485732D01*
X83215527Y-151485733D01*
X83133338Y-151608738D01*
X83028738Y-151713338D01*
X83028735Y-151713340D01*
X82905732Y-151795528D01*
X82769059Y-151852140D01*
X82682004Y-151869456D01*
X82623969Y-151881000D01*
X82476031Y-151881000D01*
X82417996Y-151869456D01*
X82330941Y-151852140D01*
X82194268Y-151795528D01*
X82071265Y-151713340D01*
X82071262Y-151713338D01*
X81966662Y-151608738D01*
X81884473Y-151485733D01*
X81884472Y-151485732D01*
X81827860Y-151349059D01*
X81799000Y-151203967D01*
X81799000Y-151056033D01*
X81827860Y-150910941D01*
X81884472Y-150774268D01*
X81966660Y-150651265D01*
X81966662Y-150651262D01*
X82071262Y-150546662D01*
X82194267Y-150464473D01*
X82194268Y-150464472D01*
X82330941Y-150407860D01*
X82417996Y-150390544D01*
X82476031Y-150379000D01*
X82623969Y-150379000D01*
X82682004Y-150390544D01*
X82682004Y-150390544D01*
G37*
G36*
X80142004Y-150390544D02*
X80229059Y-150407860D01*
X80365732Y-150464472D01*
X80365733Y-150464473D01*
X80488738Y-150546662D01*
X80593338Y-150651262D01*
X80593340Y-150651265D01*
X80675528Y-150774268D01*
X80732140Y-150910941D01*
X80761000Y-151056033D01*
X80761000Y-151203967D01*
X80732140Y-151349059D01*
X80675528Y-151485732D01*
X80675527Y-151485733D01*
X80593338Y-151608738D01*
X80488738Y-151713338D01*
X80488735Y-151713340D01*
X80365732Y-151795528D01*
X80229059Y-151852140D01*
X80142004Y-151869456D01*
X80083969Y-151881000D01*
X79936031Y-151881000D01*
X79877996Y-151869456D01*
X79790941Y-151852140D01*
X79654268Y-151795528D01*
X79531265Y-151713340D01*
X79531262Y-151713338D01*
X79426662Y-151608738D01*
X79344473Y-151485733D01*
X79344472Y-151485732D01*
X79287860Y-151349059D01*
X79259000Y-151203967D01*
X79259000Y-151056033D01*
X79287860Y-150910941D01*
X79344472Y-150774268D01*
X79426660Y-150651265D01*
X79426662Y-150651262D01*
X79531262Y-150546662D01*
X79654267Y-150464473D01*
X79654268Y-150464472D01*
X79790941Y-150407860D01*
X79877996Y-150390544D01*
X79936031Y-150379000D01*
X80083969Y-150379000D01*
X80142004Y-150390544D01*
X80142004Y-150390544D01*
G37*
G36*
X91572004Y-150390544D02*
X91659059Y-150407860D01*
X91795732Y-150464472D01*
X91795733Y-150464473D01*
X91918738Y-150546662D01*
X92023338Y-150651262D01*
X92023340Y-150651265D01*
X92105528Y-150774268D01*
X92162140Y-150910941D01*
X92191000Y-151056033D01*
X92191000Y-151203967D01*
X92162140Y-151349059D01*
X92105528Y-151485732D01*
X92105527Y-151485733D01*
X92023338Y-151608738D01*
X91918738Y-151713338D01*
X91918735Y-151713340D01*
X91795732Y-151795528D01*
X91659059Y-151852140D01*
X91572004Y-151869456D01*
X91513969Y-151881000D01*
X91366031Y-151881000D01*
X91307996Y-151869456D01*
X91220941Y-151852140D01*
X91084268Y-151795528D01*
X90961265Y-151713340D01*
X90961262Y-151713338D01*
X90856662Y-151608738D01*
X90774473Y-151485733D01*
X90774472Y-151485732D01*
X90717860Y-151349059D01*
X90689000Y-151203967D01*
X90689000Y-151056033D01*
X90717860Y-150910941D01*
X90774472Y-150774268D01*
X90856660Y-150651265D01*
X90856662Y-150651262D01*
X90961262Y-150546662D01*
X91084267Y-150464473D01*
X91084268Y-150464472D01*
X91220941Y-150407860D01*
X91307996Y-150390544D01*
X91366031Y-150379000D01*
X91513969Y-150379000D01*
X91572004Y-150390544D01*
X91572004Y-150390544D01*
G37*
G36*
X81460324Y-146159377D02*
X81722568Y-146268002D01*
X81958587Y-146425705D01*
X82159295Y-146626413D01*
X82316998Y-146862432D01*
X82425623Y-147124676D01*
X82481000Y-147403073D01*
X82481000Y-147686927D01*
X82425623Y-147965324D01*
X82316998Y-148227568D01*
X82159295Y-148463587D01*
X81958587Y-148664295D01*
X81722568Y-148821998D01*
X81460324Y-148930623D01*
X81181927Y-148986000D01*
X80898073Y-148986000D01*
X80619676Y-148930623D01*
X80357432Y-148821998D01*
X80121413Y-148664295D01*
X79920705Y-148463587D01*
X79763002Y-148227568D01*
X79654377Y-147965324D01*
X79599000Y-147686927D01*
X79599000Y-147403073D01*
X79654377Y-147124676D01*
X79763002Y-146862432D01*
X79920705Y-146626413D01*
X80121413Y-146425705D01*
X80357432Y-146268002D01*
X80619676Y-146159377D01*
X80898073Y-146104000D01*
X81181927Y-146104000D01*
X81460324Y-146159377D01*
X81460324Y-146159377D01*
G37*
G36*
X100750324Y-146159377D02*
X101012568Y-146268002D01*
X101248587Y-146425705D01*
X101449295Y-146626413D01*
X101606998Y-146862432D01*
X101715623Y-147124676D01*
X101771000Y-147403073D01*
X101771000Y-147686927D01*
X101715623Y-147965324D01*
X101606998Y-148227568D01*
X101449295Y-148463587D01*
X101248587Y-148664295D01*
X101012568Y-148821998D01*
X100750324Y-148930623D01*
X100471927Y-148986000D01*
X100188073Y-148986000D01*
X99909676Y-148930623D01*
X99647432Y-148821998D01*
X99411413Y-148664295D01*
X99210705Y-148463587D01*
X99053002Y-148227568D01*
X98944377Y-147965324D01*
X98889000Y-147686927D01*
X98889000Y-147403073D01*
X98944377Y-147124676D01*
X99053002Y-146862432D01*
X99210705Y-146626413D01*
X99411413Y-146425705D01*
X99647432Y-146268002D01*
X99909676Y-146159377D01*
X100188073Y-146104000D01*
X100471927Y-146104000D01*
X100750324Y-146159377D01*
X100750324Y-146159377D01*
G37*
G36*
X90830324Y-146159377D02*
X91092568Y-146268002D01*
X91328587Y-146425705D01*
X91529295Y-146626413D01*
X91686998Y-146862432D01*
X91795623Y-147124676D01*
X91851000Y-147403073D01*
X91851000Y-147686927D01*
X91795623Y-147965324D01*
X91686998Y-148227568D01*
X91529295Y-148463587D01*
X91328587Y-148664295D01*
X91092568Y-148821998D01*
X90830324Y-148930623D01*
X90551927Y-148986000D01*
X90268073Y-148986000D01*
X89989676Y-148930623D01*
X89727432Y-148821998D01*
X89491413Y-148664295D01*
X89290705Y-148463587D01*
X89133002Y-148227568D01*
X89024377Y-147965324D01*
X88969000Y-147686927D01*
X88969000Y-147403073D01*
X89024377Y-147124676D01*
X89133002Y-146862432D01*
X89290705Y-146626413D01*
X89491413Y-146425705D01*
X89727432Y-146268002D01*
X89989676Y-146159377D01*
X90268073Y-146104000D01*
X90551927Y-146104000D01*
X90830324Y-146159377D01*
X90830324Y-146159377D01*
G37*
G36*
X71540324Y-146159377D02*
X71802568Y-146268002D01*
X72038587Y-146425705D01*
X72239295Y-146626413D01*
X72396998Y-146862432D01*
X72505623Y-147124676D01*
X72561000Y-147403073D01*
X72561000Y-147686927D01*
X72505623Y-147965324D01*
X72396998Y-148227568D01*
X72239295Y-148463587D01*
X72038587Y-148664295D01*
X71802568Y-148821998D01*
X71540324Y-148930623D01*
X71261927Y-148986000D01*
X70978073Y-148986000D01*
X70699676Y-148930623D01*
X70437432Y-148821998D01*
X70201413Y-148664295D01*
X70000705Y-148463587D01*
X69843002Y-148227568D01*
X69734377Y-147965324D01*
X69679000Y-147686927D01*
X69679000Y-147403073D01*
X69734377Y-147124676D01*
X69843002Y-146862432D01*
X70000705Y-146626413D01*
X70201413Y-146425705D01*
X70437432Y-146268002D01*
X70699676Y-146159377D01*
X70978073Y-146104000D01*
X71261927Y-146104000D01*
X71540324Y-146159377D01*
X71540324Y-146159377D01*
G37*
G36*
X113213567Y-145359959D02*
X113344072Y-145385918D01*
X113589939Y-145487759D01*
X113795333Y-145625000D01*
X113811215Y-145635612D01*
X113999388Y-145823785D01*
X113999390Y-145823788D01*
X114147241Y-146045061D01*
X114239586Y-146268003D01*
X114249082Y-146290929D01*
X114301000Y-146551937D01*
X114301000Y-146818063D01*
X114292174Y-146862432D01*
X114249082Y-147079072D01*
X114147241Y-147324939D01*
X114095032Y-147403074D01*
X113999388Y-147546215D01*
X113811215Y-147734388D01*
X113811212Y-147734390D01*
X113589939Y-147882241D01*
X113344072Y-147984082D01*
X113213567Y-148010041D01*
X113083063Y-148036000D01*
X112816937Y-148036000D01*
X112686433Y-148010041D01*
X112555928Y-147984082D01*
X112310061Y-147882241D01*
X112088788Y-147734390D01*
X112088785Y-147734388D01*
X111900612Y-147546215D01*
X111804968Y-147403074D01*
X111752759Y-147324939D01*
X111650918Y-147079072D01*
X111607826Y-146862432D01*
X111599000Y-146818063D01*
X111599000Y-146551937D01*
X111650918Y-146290929D01*
X111660414Y-146268003D01*
X111752759Y-146045061D01*
X111900610Y-145823788D01*
X111900612Y-145823785D01*
X112088785Y-145635612D01*
X112104667Y-145625000D01*
X112310061Y-145487759D01*
X112555928Y-145385918D01*
X112686433Y-145359959D01*
X112816937Y-145334000D01*
X113083063Y-145334000D01*
X113213567Y-145359959D01*
X113213567Y-145359959D01*
G37*
G36*
X109301000Y-148036000D02*
X106599000Y-148036000D01*
X106599000Y-145334000D01*
X109301000Y-145334000D01*
X109301000Y-148036000D01*
X109301000Y-148036000D01*
G37*
G36*
X63683567Y-145359959D02*
X63814072Y-145385918D01*
X64059939Y-145487759D01*
X64265333Y-145625000D01*
X64281215Y-145635612D01*
X64469388Y-145823785D01*
X64469390Y-145823788D01*
X64617241Y-146045061D01*
X64709586Y-146268003D01*
X64719082Y-146290929D01*
X64771000Y-146551937D01*
X64771000Y-146818063D01*
X64762174Y-146862432D01*
X64719082Y-147079072D01*
X64617241Y-147324939D01*
X64565032Y-147403074D01*
X64469388Y-147546215D01*
X64281215Y-147734388D01*
X64281212Y-147734390D01*
X64059939Y-147882241D01*
X63814072Y-147984082D01*
X63683567Y-148010041D01*
X63553063Y-148036000D01*
X63286937Y-148036000D01*
X63156433Y-148010041D01*
X63025928Y-147984082D01*
X62780061Y-147882241D01*
X62558788Y-147734390D01*
X62558785Y-147734388D01*
X62370612Y-147546215D01*
X62274968Y-147403074D01*
X62222759Y-147324939D01*
X62120918Y-147079072D01*
X62077826Y-146862432D01*
X62069000Y-146818063D01*
X62069000Y-146551937D01*
X62120918Y-146290929D01*
X62130414Y-146268003D01*
X62222759Y-146045061D01*
X62370610Y-145823788D01*
X62370612Y-145823785D01*
X62558785Y-145635612D01*
X62574667Y-145625000D01*
X62780061Y-145487759D01*
X63025928Y-145385918D01*
X63156433Y-145359959D01*
X63286937Y-145334000D01*
X63553063Y-145334000D01*
X63683567Y-145359959D01*
X63683567Y-145359959D01*
G37*
G36*
X59771000Y-148036000D02*
X57069000Y-148036000D01*
X57069000Y-145334000D01*
X59771000Y-145334000D01*
X59771000Y-148036000D01*
X59771000Y-148036000D01*
G37*
G36*
X71540324Y-142759377D02*
X71802568Y-142868002D01*
X72038587Y-143025705D01*
X72239295Y-143226413D01*
X72396998Y-143462432D01*
X72505623Y-143724676D01*
X72561000Y-144003073D01*
X72561000Y-144286927D01*
X72505623Y-144565324D01*
X72396998Y-144827568D01*
X72239295Y-145063587D01*
X72038587Y-145264295D01*
X71802568Y-145421998D01*
X71540324Y-145530623D01*
X71261927Y-145586000D01*
X70978073Y-145586000D01*
X70699676Y-145530623D01*
X70437432Y-145421998D01*
X70201413Y-145264295D01*
X70000705Y-145063587D01*
X69843002Y-144827568D01*
X69734377Y-144565324D01*
X69679000Y-144286927D01*
X69679000Y-144003073D01*
X69734377Y-143724676D01*
X69843002Y-143462432D01*
X70000705Y-143226413D01*
X70201413Y-143025705D01*
X70437432Y-142868002D01*
X70699676Y-142759377D01*
X70978073Y-142704000D01*
X71261927Y-142704000D01*
X71540324Y-142759377D01*
X71540324Y-142759377D01*
G37*
G36*
X100750324Y-142759377D02*
X101012568Y-142868002D01*
X101248587Y-143025705D01*
X101449295Y-143226413D01*
X101606998Y-143462432D01*
X101715623Y-143724676D01*
X101771000Y-144003073D01*
X101771000Y-144286927D01*
X101715623Y-144565324D01*
X101606998Y-144827568D01*
X101449295Y-145063587D01*
X101248587Y-145264295D01*
X101012568Y-145421998D01*
X100750324Y-145530623D01*
X100471927Y-145586000D01*
X100188073Y-145586000D01*
X99909676Y-145530623D01*
X99647432Y-145421998D01*
X99411413Y-145264295D01*
X99210705Y-145063587D01*
X99053002Y-144827568D01*
X98944377Y-144565324D01*
X98889000Y-144286927D01*
X98889000Y-144003073D01*
X98944377Y-143724676D01*
X99053002Y-143462432D01*
X99210705Y-143226413D01*
X99411413Y-143025705D01*
X99647432Y-142868002D01*
X99909676Y-142759377D01*
X100188073Y-142704000D01*
X100471927Y-142704000D01*
X100750324Y-142759377D01*
X100750324Y-142759377D01*
G37*
G36*
X90830324Y-142759377D02*
X91092568Y-142868002D01*
X91328587Y-143025705D01*
X91529295Y-143226413D01*
X91686998Y-143462432D01*
X91795623Y-143724676D01*
X91851000Y-144003073D01*
X91851000Y-144286927D01*
X91795623Y-144565324D01*
X91686998Y-144827568D01*
X91529295Y-145063587D01*
X91328587Y-145264295D01*
X91092568Y-145421998D01*
X90830324Y-145530623D01*
X90551927Y-145586000D01*
X90268073Y-145586000D01*
X89989676Y-145530623D01*
X89727432Y-145421998D01*
X89491413Y-145264295D01*
X89290705Y-145063587D01*
X89133002Y-144827568D01*
X89024377Y-144565324D01*
X88969000Y-144286927D01*
X88969000Y-144003073D01*
X89024377Y-143724676D01*
X89133002Y-143462432D01*
X89290705Y-143226413D01*
X89491413Y-143025705D01*
X89727432Y-142868002D01*
X89989676Y-142759377D01*
X90268073Y-142704000D01*
X90551927Y-142704000D01*
X90830324Y-142759377D01*
X90830324Y-142759377D01*
G37*
G36*
X81460324Y-142759377D02*
X81722568Y-142868002D01*
X81958587Y-143025705D01*
X82159295Y-143226413D01*
X82316998Y-143462432D01*
X82425623Y-143724676D01*
X82481000Y-144003073D01*
X82481000Y-144286927D01*
X82425623Y-144565324D01*
X82316998Y-144827568D01*
X82159295Y-145063587D01*
X81958587Y-145264295D01*
X81722568Y-145421998D01*
X81460324Y-145530623D01*
X81181927Y-145586000D01*
X80898073Y-145586000D01*
X80619676Y-145530623D01*
X80357432Y-145421998D01*
X80121413Y-145264295D01*
X79920705Y-145063587D01*
X79763002Y-144827568D01*
X79654377Y-144565324D01*
X79599000Y-144286927D01*
X79599000Y-144003073D01*
X79654377Y-143724676D01*
X79763002Y-143462432D01*
X79920705Y-143226413D01*
X80121413Y-143025705D01*
X80357432Y-142868002D01*
X80619676Y-142759377D01*
X80898073Y-142704000D01*
X81181927Y-142704000D01*
X81460324Y-142759377D01*
X81460324Y-142759377D01*
G37*
G36*
X55753941Y-135496248D02*
X55753943Y-135496249D01*
X55753944Y-135496249D01*
X56309190Y-135726239D01*
X56309191Y-135726240D01*
X56808902Y-136060136D01*
X57233864Y-136485098D01*
X57233866Y-136485101D01*
X57567761Y-136984810D01*
X57797751Y-137540056D01*
X57915000Y-138129503D01*
X57915000Y-138730497D01*
X57797751Y-139319944D01*
X57567761Y-139875190D01*
X57567760Y-139875191D01*
X57233864Y-140374902D01*
X56808902Y-140799864D01*
X56808899Y-140799866D01*
X56309190Y-141133761D01*
X55753944Y-141363751D01*
X55753943Y-141363751D01*
X55753941Y-141363752D01*
X55164499Y-141481000D01*
X54563501Y-141481000D01*
X53974059Y-141363752D01*
X53974057Y-141363751D01*
X53974056Y-141363751D01*
X53418810Y-141133761D01*
X52919101Y-140799866D01*
X52919098Y-140799864D01*
X52494136Y-140374902D01*
X52160240Y-139875191D01*
X52160239Y-139875190D01*
X51930249Y-139319944D01*
X51813000Y-138730497D01*
X51813000Y-138129503D01*
X51930249Y-137540056D01*
X52160239Y-136984810D01*
X52494134Y-136485101D01*
X52494136Y-136485098D01*
X52919098Y-136060136D01*
X53418809Y-135726240D01*
X53418810Y-135726239D01*
X53974056Y-135496249D01*
X53974057Y-135496249D01*
X53974059Y-135496248D01*
X54563501Y-135379000D01*
X55164499Y-135379000D01*
X55753941Y-135496248D01*
X55753941Y-135496248D01*
G37*
G36*
X117753941Y-135496248D02*
X117753943Y-135496249D01*
X117753944Y-135496249D01*
X118309190Y-135726239D01*
X118309191Y-135726240D01*
X118808902Y-136060136D01*
X119233864Y-136485098D01*
X119233866Y-136485101D01*
X119567761Y-136984810D01*
X119797751Y-137540056D01*
X119915000Y-138129503D01*
X119915000Y-138730497D01*
X119797751Y-139319944D01*
X119567761Y-139875190D01*
X119567760Y-139875191D01*
X119233864Y-140374902D01*
X118808902Y-140799864D01*
X118808899Y-140799866D01*
X118309190Y-141133761D01*
X117753944Y-141363751D01*
X117753943Y-141363751D01*
X117753941Y-141363752D01*
X117164499Y-141481000D01*
X116563501Y-141481000D01*
X115974059Y-141363752D01*
X115974057Y-141363751D01*
X115974056Y-141363751D01*
X115418810Y-141133761D01*
X114919101Y-140799866D01*
X114919098Y-140799864D01*
X114494136Y-140374902D01*
X114160240Y-139875191D01*
X114160239Y-139875190D01*
X113930249Y-139319944D01*
X113813000Y-138730497D01*
X113813000Y-138129503D01*
X113930249Y-137540056D01*
X114160239Y-136984810D01*
X114494134Y-136485101D01*
X114494136Y-136485098D01*
X114919098Y-136060136D01*
X115418809Y-135726240D01*
X115418810Y-135726239D01*
X115974056Y-135496249D01*
X115974057Y-135496249D01*
X115974059Y-135496248D01*
X116563501Y-135379000D01*
X117164499Y-135379000D01*
X117753941Y-135496248D01*
X117753941Y-135496248D01*
G37*
G36*
X117462252Y-129457818D02*
X117462254Y-129457819D01*
X117462255Y-129457819D01*
X117835513Y-129612427D01*
X117835514Y-129612428D01*
X118171439Y-129836886D01*
X118457114Y-130122561D01*
X118457116Y-130122564D01*
X118681573Y-130458487D01*
X118836181Y-130831745D01*
X118915000Y-131227994D01*
X118915000Y-131632006D01*
X118836181Y-132028255D01*
X118681573Y-132401513D01*
X118681572Y-132401514D01*
X118457114Y-132737439D01*
X118171439Y-133023114D01*
X118171436Y-133023116D01*
X117835513Y-133247573D01*
X117462255Y-133402181D01*
X117462254Y-133402181D01*
X117462252Y-133402182D01*
X117066007Y-133481000D01*
X116661993Y-133481000D01*
X116265748Y-133402182D01*
X116265746Y-133402181D01*
X116265745Y-133402181D01*
X115892487Y-133247573D01*
X115556564Y-133023116D01*
X115556561Y-133023114D01*
X115270886Y-132737439D01*
X115046428Y-132401514D01*
X115046427Y-132401513D01*
X114891819Y-132028255D01*
X114813000Y-131632006D01*
X114813000Y-131227994D01*
X114891819Y-130831745D01*
X115046427Y-130458487D01*
X115270884Y-130122564D01*
X115270886Y-130122561D01*
X115556561Y-129836886D01*
X115892486Y-129612428D01*
X115892487Y-129612427D01*
X116265745Y-129457819D01*
X116265746Y-129457819D01*
X116265748Y-129457818D01*
X116661993Y-129379000D01*
X117066007Y-129379000D01*
X117462252Y-129457818D01*
X117462252Y-129457818D01*
G37*
G36*
X55462252Y-129457818D02*
X55462254Y-129457819D01*
X55462255Y-129457819D01*
X55835513Y-129612427D01*
X55835514Y-129612428D01*
X56171439Y-129836886D01*
X56457114Y-130122561D01*
X56457116Y-130122564D01*
X56681573Y-130458487D01*
X56836181Y-130831745D01*
X56915000Y-131227994D01*
X56915000Y-131632006D01*
X56836181Y-132028255D01*
X56681573Y-132401513D01*
X56681572Y-132401514D01*
X56457114Y-132737439D01*
X56171439Y-133023114D01*
X56171436Y-133023116D01*
X55835513Y-133247573D01*
X55462255Y-133402181D01*
X55462254Y-133402181D01*
X55462252Y-133402182D01*
X55066007Y-133481000D01*
X54661993Y-133481000D01*
X54265748Y-133402182D01*
X54265746Y-133402181D01*
X54265745Y-133402181D01*
X53892487Y-133247573D01*
X53556564Y-133023116D01*
X53556561Y-133023114D01*
X53270886Y-132737439D01*
X53046428Y-132401514D01*
X53046427Y-132401513D01*
X52891819Y-132028255D01*
X52813000Y-131632006D01*
X52813000Y-131227994D01*
X52891819Y-130831745D01*
X53046427Y-130458487D01*
X53270884Y-130122564D01*
X53270886Y-130122561D01*
X53556561Y-129836886D01*
X53892486Y-129612428D01*
X53892487Y-129612427D01*
X54265745Y-129457819D01*
X54265746Y-129457819D01*
X54265748Y-129457818D01*
X54661993Y-129379000D01*
X55066007Y-129379000D01*
X55462252Y-129457818D01*
X55462252Y-129457818D01*
G37*
G36*
X55462252Y-113457818D02*
X55462254Y-113457819D01*
X55462255Y-113457819D01*
X55835513Y-113612427D01*
X55835514Y-113612428D01*
X56171439Y-113836886D01*
X56457114Y-114122561D01*
X56457116Y-114122564D01*
X56681573Y-114458487D01*
X56836181Y-114831745D01*
X56915000Y-115227994D01*
X56915000Y-115632006D01*
X56836181Y-116028255D01*
X56681573Y-116401513D01*
X56681572Y-116401514D01*
X56457114Y-116737439D01*
X56171439Y-117023114D01*
X56171436Y-117023116D01*
X55835513Y-117247573D01*
X55462255Y-117402181D01*
X55462254Y-117402181D01*
X55462252Y-117402182D01*
X55066007Y-117481000D01*
X54661993Y-117481000D01*
X54265748Y-117402182D01*
X54265746Y-117402181D01*
X54265745Y-117402181D01*
X53892487Y-117247573D01*
X53556564Y-117023116D01*
X53556561Y-117023114D01*
X53270886Y-116737439D01*
X53046428Y-116401514D01*
X53046427Y-116401513D01*
X52891819Y-116028255D01*
X52813000Y-115632006D01*
X52813000Y-115227994D01*
X52891819Y-114831745D01*
X53046427Y-114458487D01*
X53270884Y-114122564D01*
X53270886Y-114122561D01*
X53556561Y-113836886D01*
X53892486Y-113612428D01*
X53892487Y-113612427D01*
X54265745Y-113457819D01*
X54265746Y-113457819D01*
X54265748Y-113457818D01*
X54661993Y-113379000D01*
X55066007Y-113379000D01*
X55462252Y-113457818D01*
X55462252Y-113457818D01*
G37*
G36*
X117462252Y-113457818D02*
X117462254Y-113457819D01*
X117462255Y-113457819D01*
X117835513Y-113612427D01*
X117835514Y-113612428D01*
X118171439Y-113836886D01*
X118457114Y-114122561D01*
X118457116Y-114122564D01*
X118681573Y-114458487D01*
X118836181Y-114831745D01*
X118915000Y-115227994D01*
X118915000Y-115632006D01*
X118836181Y-116028255D01*
X118681573Y-116401513D01*
X118681572Y-116401514D01*
X118457114Y-116737439D01*
X118171439Y-117023114D01*
X118171436Y-117023116D01*
X117835513Y-117247573D01*
X117462255Y-117402181D01*
X117462254Y-117402181D01*
X117462252Y-117402182D01*
X117066007Y-117481000D01*
X116661993Y-117481000D01*
X116265748Y-117402182D01*
X116265746Y-117402181D01*
X116265745Y-117402181D01*
X115892487Y-117247573D01*
X115556564Y-117023116D01*
X115556561Y-117023114D01*
X115270886Y-116737439D01*
X115046428Y-116401514D01*
X115046427Y-116401513D01*
X114891819Y-116028255D01*
X114813000Y-115632006D01*
X114813000Y-115227994D01*
X114891819Y-114831745D01*
X115046427Y-114458487D01*
X115270884Y-114122564D01*
X115270886Y-114122561D01*
X115556561Y-113836886D01*
X115892486Y-113612428D01*
X115892487Y-113612427D01*
X116265745Y-113457819D01*
X116265746Y-113457819D01*
X116265748Y-113457818D01*
X116661993Y-113379000D01*
X117066007Y-113379000D01*
X117462252Y-113457818D01*
X117462252Y-113457818D01*
G37*
G36*
X117753941Y-105496248D02*
X117753943Y-105496249D01*
X117753944Y-105496249D01*
X118309190Y-105726239D01*
X118309191Y-105726240D01*
X118808902Y-106060136D01*
X119233864Y-106485098D01*
X119233866Y-106485101D01*
X119567761Y-106984810D01*
X119797751Y-107540056D01*
X119915000Y-108129503D01*
X119915000Y-108730497D01*
X119797751Y-109319944D01*
X119567761Y-109875190D01*
X119567760Y-109875191D01*
X119233864Y-110374902D01*
X118808902Y-110799864D01*
X118808899Y-110799866D01*
X118309190Y-111133761D01*
X117753944Y-111363751D01*
X117753943Y-111363751D01*
X117753941Y-111363752D01*
X117164499Y-111481000D01*
X116563501Y-111481000D01*
X115974059Y-111363752D01*
X115974057Y-111363751D01*
X115974056Y-111363751D01*
X115418810Y-111133761D01*
X114919101Y-110799866D01*
X114919098Y-110799864D01*
X114494136Y-110374902D01*
X114160240Y-109875191D01*
X114160239Y-109875190D01*
X113930249Y-109319944D01*
X113813000Y-108730497D01*
X113813000Y-108129503D01*
X113930249Y-107540056D01*
X114160239Y-106984810D01*
X114494134Y-106485101D01*
X114494136Y-106485098D01*
X114919098Y-106060136D01*
X115418809Y-105726240D01*
X115418810Y-105726239D01*
X115974056Y-105496249D01*
X115974057Y-105496249D01*
X115974059Y-105496248D01*
X116563501Y-105379000D01*
X117164499Y-105379000D01*
X117753941Y-105496248D01*
X117753941Y-105496248D01*
G37*
G36*
X55753941Y-105496248D02*
X55753943Y-105496249D01*
X55753944Y-105496249D01*
X56309190Y-105726239D01*
X56309191Y-105726240D01*
X56808902Y-106060136D01*
X57233864Y-106485098D01*
X57233866Y-106485101D01*
X57567761Y-106984810D01*
X57797751Y-107540056D01*
X57915000Y-108129503D01*
X57915000Y-108730497D01*
X57797751Y-109319944D01*
X57567761Y-109875190D01*
X57567760Y-109875191D01*
X57233864Y-110374902D01*
X56808902Y-110799864D01*
X56808899Y-110799866D01*
X56309190Y-111133761D01*
X55753944Y-111363751D01*
X55753943Y-111363751D01*
X55753941Y-111363752D01*
X55164499Y-111481000D01*
X54563501Y-111481000D01*
X53974059Y-111363752D01*
X53974057Y-111363751D01*
X53974056Y-111363751D01*
X53418810Y-111133761D01*
X52919101Y-110799866D01*
X52919098Y-110799864D01*
X52494136Y-110374902D01*
X52160240Y-109875191D01*
X52160239Y-109875190D01*
X51930249Y-109319944D01*
X51813000Y-108730497D01*
X51813000Y-108129503D01*
X51930249Y-107540056D01*
X52160239Y-106984810D01*
X52494134Y-106485101D01*
X52494136Y-106485098D01*
X52919098Y-106060136D01*
X53418809Y-105726240D01*
X53418810Y-105726239D01*
X53974056Y-105496249D01*
X53974057Y-105496249D01*
X53974059Y-105496248D01*
X54563501Y-105379000D01*
X55164499Y-105379000D01*
X55753941Y-105496248D01*
X55753941Y-105496248D01*
G37*
G36*
X98841000Y-102651000D02*
X96739000Y-102651000D01*
X96739000Y-100549000D01*
X98841000Y-100549000D01*
X98841000Y-102651000D01*
X98841000Y-102651000D01*
G37*
G36*
X74711000Y-102651000D02*
X72609000Y-102651000D01*
X72609000Y-100549000D01*
X74711000Y-100549000D01*
X74711000Y-102651000D01*
X74711000Y-102651000D01*
G37*
G36*
X86776000Y-102651000D02*
X84674000Y-102651000D01*
X84674000Y-100549000D01*
X86776000Y-100549000D01*
X86776000Y-102651000D01*
X86776000Y-102651000D01*
G37*
G36*
X62646000Y-102651000D02*
X60544000Y-102651000D01*
X60544000Y-100549000D01*
X62646000Y-100549000D01*
X62646000Y-102651000D01*
X62646000Y-102651000D01*
G37*
G36*
X110906000Y-102651000D02*
X108804000Y-102651000D01*
X108804000Y-100549000D01*
X110906000Y-100549000D01*
X110906000Y-102651000D01*
X110906000Y-102651000D01*
G37*
G36*
X52485079Y-93693345D02*
X52485082Y-93693346D01*
X52485081Y-93693346D01*
X53140240Y-93964721D01*
X53727205Y-94356919D01*
X53729869Y-94358699D01*
X54231301Y-94860131D01*
X54231303Y-94860134D01*
X54625279Y-95449760D01*
X54856912Y-96008974D01*
X54896655Y-96104921D01*
X55035000Y-96800429D01*
X55035000Y-97509571D01*
X54896655Y-98205079D01*
X54896654Y-98205081D01*
X54625279Y-98860240D01*
X54233081Y-99447205D01*
X54231301Y-99449869D01*
X53729869Y-99951301D01*
X53729866Y-99951303D01*
X53140240Y-100345279D01*
X52581026Y-100576912D01*
X52485079Y-100616655D01*
X51789571Y-100755000D01*
X51080429Y-100755000D01*
X50384921Y-100616655D01*
X50288974Y-100576912D01*
X49729760Y-100345279D01*
X49140134Y-99951303D01*
X49140131Y-99951301D01*
X48638699Y-99449869D01*
X48636919Y-99447205D01*
X48244721Y-98860240D01*
X47973346Y-98205081D01*
X47973345Y-98205079D01*
X47835000Y-97509571D01*
X47835000Y-96800429D01*
X47973345Y-96104921D01*
X48013088Y-96008974D01*
X48244721Y-95449760D01*
X48638697Y-94860134D01*
X48638699Y-94860131D01*
X49140131Y-94358699D01*
X49142795Y-94356919D01*
X49729760Y-93964721D01*
X50384919Y-93693346D01*
X50384918Y-93693346D01*
X50384921Y-93693345D01*
X51080429Y-93555000D01*
X51789571Y-93555000D01*
X52485079Y-93693345D01*
X52485079Y-93693345D01*
G37*
G36*
X121065079Y-93693345D02*
X121065082Y-93693346D01*
X121065081Y-93693346D01*
X121720240Y-93964721D01*
X122307205Y-94356919D01*
X122309869Y-94358699D01*
X122811301Y-94860131D01*
X122811303Y-94860134D01*
X123205279Y-95449760D01*
X123436912Y-96008974D01*
X123476655Y-96104921D01*
X123615000Y-96800429D01*
X123615000Y-97509571D01*
X123476655Y-98205079D01*
X123476654Y-98205081D01*
X123205279Y-98860240D01*
X122813081Y-99447205D01*
X122811301Y-99449869D01*
X122309869Y-99951301D01*
X122309866Y-99951303D01*
X121720240Y-100345279D01*
X121161026Y-100576912D01*
X121065079Y-100616655D01*
X120369571Y-100755000D01*
X119660429Y-100755000D01*
X118964921Y-100616655D01*
X118868974Y-100576912D01*
X118309760Y-100345279D01*
X117720134Y-99951303D01*
X117720131Y-99951301D01*
X117218699Y-99449869D01*
X117216919Y-99447205D01*
X116824721Y-98860240D01*
X116553346Y-98205081D01*
X116553345Y-98205079D01*
X116415000Y-97509571D01*
X116415000Y-96800429D01*
X116553345Y-96104921D01*
X116593088Y-96008974D01*
X116824721Y-95449760D01*
X117218697Y-94860134D01*
X117218699Y-94860131D01*
X117720131Y-94358699D01*
X117722795Y-94356919D01*
X118309760Y-93964721D01*
X118964919Y-93693346D01*
X118964918Y-93693346D01*
X118964921Y-93693345D01*
X119660429Y-93555000D01*
X120369571Y-93555000D01*
X121065079Y-93693345D01*
X121065079Y-93693345D01*
G37*
G36*
X98096565Y-95589389D02*
X98287834Y-95668615D01*
X98459976Y-95783637D01*
X98606363Y-95930024D01*
X98721385Y-96102166D01*
X98800611Y-96293435D01*
X98841000Y-96496484D01*
X98841000Y-96703516D01*
X98800611Y-96906565D01*
X98721385Y-97097834D01*
X98606363Y-97269976D01*
X98459976Y-97416363D01*
X98287834Y-97531385D01*
X98096565Y-97610611D01*
X97893516Y-97651000D01*
X97686484Y-97651000D01*
X97483435Y-97610611D01*
X97292166Y-97531385D01*
X97120024Y-97416363D01*
X96973637Y-97269976D01*
X96858615Y-97097834D01*
X96779389Y-96906565D01*
X96739000Y-96703516D01*
X96739000Y-96496484D01*
X96779389Y-96293435D01*
X96858615Y-96102166D01*
X96973637Y-95930024D01*
X97120024Y-95783637D01*
X97292166Y-95668615D01*
X97483435Y-95589389D01*
X97686484Y-95549000D01*
X97893516Y-95549000D01*
X98096565Y-95589389D01*
X98096565Y-95589389D01*
G37*
G36*
X61901565Y-95589389D02*
X62092834Y-95668615D01*
X62264976Y-95783637D01*
X62411363Y-95930024D01*
X62526385Y-96102166D01*
X62605611Y-96293435D01*
X62646000Y-96496484D01*
X62646000Y-96703516D01*
X62605611Y-96906565D01*
X62526385Y-97097834D01*
X62411363Y-97269976D01*
X62264976Y-97416363D01*
X62092834Y-97531385D01*
X61901565Y-97610611D01*
X61698516Y-97651000D01*
X61491484Y-97651000D01*
X61288435Y-97610611D01*
X61097166Y-97531385D01*
X60925024Y-97416363D01*
X60778637Y-97269976D01*
X60663615Y-97097834D01*
X60584389Y-96906565D01*
X60544000Y-96703516D01*
X60544000Y-96496484D01*
X60584389Y-96293435D01*
X60663615Y-96102166D01*
X60778637Y-95930024D01*
X60925024Y-95783637D01*
X61097166Y-95668615D01*
X61288435Y-95589389D01*
X61491484Y-95549000D01*
X61698516Y-95549000D01*
X61901565Y-95589389D01*
X61901565Y-95589389D01*
G37*
G36*
X86031565Y-95589389D02*
X86222834Y-95668615D01*
X86394976Y-95783637D01*
X86541363Y-95930024D01*
X86656385Y-96102166D01*
X86735611Y-96293435D01*
X86776000Y-96496484D01*
X86776000Y-96703516D01*
X86735611Y-96906565D01*
X86656385Y-97097834D01*
X86541363Y-97269976D01*
X86394976Y-97416363D01*
X86222834Y-97531385D01*
X86031565Y-97610611D01*
X85828516Y-97651000D01*
X85621484Y-97651000D01*
X85418435Y-97610611D01*
X85227166Y-97531385D01*
X85055024Y-97416363D01*
X84908637Y-97269976D01*
X84793615Y-97097834D01*
X84714389Y-96906565D01*
X84674000Y-96703516D01*
X84674000Y-96496484D01*
X84714389Y-96293435D01*
X84793615Y-96102166D01*
X84908637Y-95930024D01*
X85055024Y-95783637D01*
X85227166Y-95668615D01*
X85418435Y-95589389D01*
X85621484Y-95549000D01*
X85828516Y-95549000D01*
X86031565Y-95589389D01*
X86031565Y-95589389D01*
G37*
G36*
X73966565Y-95589389D02*
X74157834Y-95668615D01*
X74329976Y-95783637D01*
X74476363Y-95930024D01*
X74591385Y-96102166D01*
X74670611Y-96293435D01*
X74711000Y-96496484D01*
X74711000Y-96703516D01*
X74670611Y-96906565D01*
X74591385Y-97097834D01*
X74476363Y-97269976D01*
X74329976Y-97416363D01*
X74157834Y-97531385D01*
X73966565Y-97610611D01*
X73763516Y-97651000D01*
X73556484Y-97651000D01*
X73353435Y-97610611D01*
X73162166Y-97531385D01*
X72990024Y-97416363D01*
X72843637Y-97269976D01*
X72728615Y-97097834D01*
X72649389Y-96906565D01*
X72609000Y-96703516D01*
X72609000Y-96496484D01*
X72649389Y-96293435D01*
X72728615Y-96102166D01*
X72843637Y-95930024D01*
X72990024Y-95783637D01*
X73162166Y-95668615D01*
X73353435Y-95589389D01*
X73556484Y-95549000D01*
X73763516Y-95549000D01*
X73966565Y-95589389D01*
X73966565Y-95589389D01*
G37*
G36*
X110161565Y-95589389D02*
X110352834Y-95668615D01*
X110524976Y-95783637D01*
X110671363Y-95930024D01*
X110786385Y-96102166D01*
X110865611Y-96293435D01*
X110906000Y-96496484D01*
X110906000Y-96703516D01*
X110865611Y-96906565D01*
X110786385Y-97097834D01*
X110671363Y-97269976D01*
X110524976Y-97416363D01*
X110352834Y-97531385D01*
X110161565Y-97610611D01*
X109958516Y-97651000D01*
X109751484Y-97651000D01*
X109548435Y-97610611D01*
X109357166Y-97531385D01*
X109185024Y-97416363D01*
X109038637Y-97269976D01*
X108923615Y-97097834D01*
X108844389Y-96906565D01*
X108804000Y-96703516D01*
X108804000Y-96496484D01*
X108844389Y-96293435D01*
X108923615Y-96102166D01*
X109038637Y-95930024D01*
X109185024Y-95783637D01*
X109357166Y-95668615D01*
X109548435Y-95589389D01*
X109751484Y-95549000D01*
X109958516Y-95549000D01*
X110161565Y-95589389D01*
X110161565Y-95589389D01*
G37*
M02*
