G04 #@! TF.GenerationSoftware,KiCad,Pcbnew,5.1.9+dfsg1-1*
G04 #@! TF.CreationDate,2023-01-30T08:20:02+09:00*
G04 #@! TF.ProjectId,top,746f702e-6b69-4636-9164-5f7063625858,rev?*
G04 #@! TF.SameCoordinates,Original*
G04 #@! TF.FileFunction,Copper,L3,Inr*
G04 #@! TF.FilePolarity,Positive*
%FSLAX46Y46*%
G04 Gerber Fmt 4.6, Leading zero omitted, Abs format (unit mm)*
G04 Created by KiCad (PCBNEW 5.1.9+dfsg1-1) date 2023-01-30 08:20:02*
%MOMM*%
%LPD*%
G01*
G04 APERTURE LIST*
G04 #@! TA.AperFunction,ComponentPad*
%ADD10C,8.000000*%
G04 #@! TD*
G04 #@! TA.AperFunction,ComponentPad*
%ADD11C,12.000000*%
G04 #@! TD*
G04 #@! TA.AperFunction,Conductor*
%ADD12C,0.254000*%
G04 #@! TD*
G04 #@! TA.AperFunction,Conductor*
%ADD13C,0.100000*%
G04 #@! TD*
G04 APERTURE END LIST*
D10*
X117000000Y-113000000D03*
X110000000Y-100000000D03*
X150000000Y-100000000D03*
X143000000Y-113000000D03*
D11*
X130000000Y-100000000D03*
D12*
X153259659Y-92688625D02*
X153509429Y-92764035D01*
X153739792Y-92886522D01*
X153941980Y-93051422D01*
X154108286Y-93252450D01*
X154232378Y-93481954D01*
X154309531Y-93731195D01*
X154340000Y-94021089D01*
X154340000Y-98324638D01*
X154323975Y-98269434D01*
X153903275Y-97459121D01*
X153841185Y-97366197D01*
X153269580Y-96910025D01*
X150179605Y-100000000D01*
X153269580Y-103089975D01*
X153841185Y-102633803D01*
X154281207Y-101833817D01*
X154340001Y-101648053D01*
X154340001Y-105967711D01*
X154311375Y-106259660D01*
X154235965Y-106509429D01*
X154113477Y-106739794D01*
X153948579Y-106941979D01*
X153747546Y-107108288D01*
X153518046Y-107232378D01*
X153268805Y-107309531D01*
X152978911Y-107340000D01*
X149967581Y-107340000D01*
X149938627Y-107342852D01*
X149926219Y-107342765D01*
X149917047Y-107343665D01*
X149528855Y-107384466D01*
X149470299Y-107396486D01*
X149411498Y-107407702D01*
X149402677Y-107410366D01*
X149029802Y-107525790D01*
X148974647Y-107548975D01*
X148919194Y-107571379D01*
X148911062Y-107575704D01*
X148911057Y-107575706D01*
X148911053Y-107575709D01*
X148567702Y-107761357D01*
X148518101Y-107794813D01*
X148468054Y-107827563D01*
X148460913Y-107833387D01*
X148160158Y-108082194D01*
X148118019Y-108124629D01*
X148075269Y-108166492D01*
X148069396Y-108173593D01*
X147822695Y-108476077D01*
X147789598Y-108525893D01*
X147755795Y-108575259D01*
X147751413Y-108583365D01*
X147568163Y-108928007D01*
X147545368Y-108983313D01*
X147521802Y-109038296D01*
X147519077Y-109047099D01*
X147406259Y-109420770D01*
X147394639Y-109479458D01*
X147382203Y-109537961D01*
X147381240Y-109547126D01*
X147343150Y-109935595D01*
X147343150Y-109935608D01*
X147340001Y-109967581D01*
X147340001Y-111324640D01*
X147323975Y-111269434D01*
X146903275Y-110459121D01*
X146841185Y-110366197D01*
X146269580Y-109910025D01*
X143179605Y-113000000D01*
X146269580Y-116089975D01*
X146841185Y-115633803D01*
X147281207Y-114833817D01*
X147340000Y-114648054D01*
X147340000Y-115967721D01*
X147311375Y-116259660D01*
X147235965Y-116509429D01*
X147113477Y-116739794D01*
X146948579Y-116941979D01*
X146747546Y-117108288D01*
X146518046Y-117232378D01*
X146268805Y-117309531D01*
X145978911Y-117340000D01*
X144675363Y-117340000D01*
X144730566Y-117323975D01*
X145540879Y-116903275D01*
X145633803Y-116841185D01*
X146089975Y-116269580D01*
X143000000Y-113179605D01*
X139910025Y-116269580D01*
X140366197Y-116841185D01*
X141166183Y-117281207D01*
X141351945Y-117340000D01*
X140032279Y-117340000D01*
X139740340Y-117311375D01*
X139490571Y-117235965D01*
X139260206Y-117113477D01*
X139058021Y-116948579D01*
X138891712Y-116747546D01*
X138767622Y-116518046D01*
X138690469Y-116268805D01*
X138660000Y-115978911D01*
X138660000Y-114675363D01*
X138676025Y-114730566D01*
X139096725Y-115540879D01*
X139158815Y-115633803D01*
X139730420Y-116089975D01*
X142820395Y-113000000D01*
X139730420Y-109910025D01*
X139158815Y-110366197D01*
X138718793Y-111166183D01*
X138660000Y-111351945D01*
X138660000Y-109967581D01*
X138657148Y-109938627D01*
X138657235Y-109926219D01*
X138656335Y-109917047D01*
X138636720Y-109730420D01*
X139910025Y-109730420D01*
X143000000Y-112820395D01*
X146089975Y-109730420D01*
X145633803Y-109158815D01*
X144833817Y-108718793D01*
X143963359Y-108443296D01*
X143055879Y-108342909D01*
X142146252Y-108421492D01*
X141269434Y-108676025D01*
X140459121Y-109096725D01*
X140366197Y-109158815D01*
X139910025Y-109730420D01*
X138636720Y-109730420D01*
X138615534Y-109528855D01*
X138603514Y-109470299D01*
X138592298Y-109411498D01*
X138589634Y-109402677D01*
X138474210Y-109029802D01*
X138451025Y-108974647D01*
X138428621Y-108919194D01*
X138424294Y-108911058D01*
X138424294Y-108911057D01*
X138424291Y-108911053D01*
X138238643Y-108567702D01*
X138205187Y-108518101D01*
X138172437Y-108468054D01*
X138166613Y-108460913D01*
X137917806Y-108160158D01*
X137875371Y-108118019D01*
X137833508Y-108075269D01*
X137826407Y-108069396D01*
X137523923Y-107822695D01*
X137474107Y-107789598D01*
X137424741Y-107755795D01*
X137416635Y-107751413D01*
X137071993Y-107568163D01*
X137016687Y-107545368D01*
X136961704Y-107521802D01*
X136952901Y-107519077D01*
X136579230Y-107406259D01*
X136520542Y-107394639D01*
X136462039Y-107382203D01*
X136452874Y-107381240D01*
X136064405Y-107343150D01*
X136064402Y-107343150D01*
X136032419Y-107340000D01*
X123967581Y-107340000D01*
X123938627Y-107342852D01*
X123926219Y-107342765D01*
X123917047Y-107343665D01*
X123528855Y-107384466D01*
X123470299Y-107396486D01*
X123411498Y-107407702D01*
X123402677Y-107410366D01*
X123029802Y-107525790D01*
X122974647Y-107548975D01*
X122919194Y-107571379D01*
X122911062Y-107575704D01*
X122911057Y-107575706D01*
X122911053Y-107575709D01*
X122567702Y-107761357D01*
X122518101Y-107794813D01*
X122468054Y-107827563D01*
X122460913Y-107833387D01*
X122160158Y-108082194D01*
X122118019Y-108124629D01*
X122075269Y-108166492D01*
X122069396Y-108173593D01*
X121822695Y-108476077D01*
X121789598Y-108525893D01*
X121755795Y-108575259D01*
X121751413Y-108583365D01*
X121568163Y-108928007D01*
X121545368Y-108983313D01*
X121521802Y-109038296D01*
X121519077Y-109047099D01*
X121406259Y-109420770D01*
X121394639Y-109479458D01*
X121382203Y-109537961D01*
X121381240Y-109547126D01*
X121343150Y-109935595D01*
X121343150Y-109935608D01*
X121340001Y-109967581D01*
X121340001Y-111324640D01*
X121323975Y-111269434D01*
X120903275Y-110459121D01*
X120841185Y-110366197D01*
X120269580Y-109910025D01*
X117179605Y-113000000D01*
X120269580Y-116089975D01*
X120841185Y-115633803D01*
X121281207Y-114833817D01*
X121340000Y-114648054D01*
X121340000Y-115967721D01*
X121311375Y-116259660D01*
X121235965Y-116509429D01*
X121113477Y-116739794D01*
X120948579Y-116941979D01*
X120747546Y-117108288D01*
X120518046Y-117232378D01*
X120268805Y-117309531D01*
X119978911Y-117340000D01*
X118675363Y-117340000D01*
X118730566Y-117323975D01*
X119540879Y-116903275D01*
X119633803Y-116841185D01*
X120089975Y-116269580D01*
X117000000Y-113179605D01*
X113910025Y-116269580D01*
X114366197Y-116841185D01*
X115166183Y-117281207D01*
X115351945Y-117340000D01*
X114032279Y-117340000D01*
X113740340Y-117311375D01*
X113490571Y-117235965D01*
X113260206Y-117113477D01*
X113058021Y-116948579D01*
X112891712Y-116747546D01*
X112767622Y-116518046D01*
X112690469Y-116268805D01*
X112660000Y-115978911D01*
X112660000Y-114675363D01*
X112676025Y-114730566D01*
X113096725Y-115540879D01*
X113158815Y-115633803D01*
X113730420Y-116089975D01*
X116820395Y-113000000D01*
X113730420Y-109910025D01*
X113158815Y-110366197D01*
X112718793Y-111166183D01*
X112660000Y-111351945D01*
X112660000Y-109967581D01*
X112657148Y-109938627D01*
X112657235Y-109926219D01*
X112656335Y-109917047D01*
X112636720Y-109730420D01*
X113910025Y-109730420D01*
X117000000Y-112820395D01*
X120089975Y-109730420D01*
X119633803Y-109158815D01*
X118833817Y-108718793D01*
X117963359Y-108443296D01*
X117055879Y-108342909D01*
X116146252Y-108421492D01*
X115269434Y-108676025D01*
X114459121Y-109096725D01*
X114366197Y-109158815D01*
X113910025Y-109730420D01*
X112636720Y-109730420D01*
X112615534Y-109528855D01*
X112603514Y-109470299D01*
X112592298Y-109411498D01*
X112589634Y-109402677D01*
X112474210Y-109029802D01*
X112451025Y-108974647D01*
X112428621Y-108919194D01*
X112424294Y-108911058D01*
X112424294Y-108911057D01*
X112424291Y-108911053D01*
X112238643Y-108567702D01*
X112205187Y-108518101D01*
X112172437Y-108468054D01*
X112166613Y-108460913D01*
X111917806Y-108160158D01*
X111875371Y-108118019D01*
X111833508Y-108075269D01*
X111826407Y-108069396D01*
X111523923Y-107822695D01*
X111474107Y-107789598D01*
X111424741Y-107755795D01*
X111416635Y-107751413D01*
X111071993Y-107568163D01*
X111016687Y-107545368D01*
X110961704Y-107521802D01*
X110952901Y-107519077D01*
X110579230Y-107406259D01*
X110520542Y-107394639D01*
X110462039Y-107382203D01*
X110452874Y-107381240D01*
X110064405Y-107343150D01*
X110064402Y-107343150D01*
X110032419Y-107340000D01*
X107032279Y-107340000D01*
X106740340Y-107311375D01*
X106490571Y-107235965D01*
X106260206Y-107113477D01*
X106058021Y-106948579D01*
X105891712Y-106747546D01*
X105767622Y-106518046D01*
X105690469Y-106268805D01*
X105660000Y-105978911D01*
X105660000Y-104691028D01*
X125488577Y-104691028D01*
X126184631Y-105467471D01*
X127324592Y-106106757D01*
X128567369Y-106511363D01*
X129865200Y-106665741D01*
X131168212Y-106563960D01*
X132426330Y-106209928D01*
X133591206Y-105617253D01*
X133815369Y-105467471D01*
X134511423Y-104691028D01*
X130000000Y-100179605D01*
X125488577Y-104691028D01*
X105660000Y-104691028D01*
X105660000Y-103269580D01*
X106910025Y-103269580D01*
X107366197Y-103841185D01*
X108166183Y-104281207D01*
X109036641Y-104556704D01*
X109944121Y-104657091D01*
X110853748Y-104578508D01*
X111730566Y-104323975D01*
X112540879Y-103903275D01*
X112633803Y-103841185D01*
X113089975Y-103269580D01*
X110000000Y-100179605D01*
X106910025Y-103269580D01*
X105660000Y-103269580D01*
X105660000Y-101675363D01*
X105676025Y-101730566D01*
X106096725Y-102540879D01*
X106158815Y-102633803D01*
X106730420Y-103089975D01*
X109820395Y-100000000D01*
X110179605Y-100000000D01*
X113269580Y-103089975D01*
X113841185Y-102633803D01*
X114281207Y-101833817D01*
X114556704Y-100963359D01*
X114657091Y-100055879D01*
X114640619Y-99865200D01*
X123334259Y-99865200D01*
X123436040Y-101168212D01*
X123790072Y-102426330D01*
X124382747Y-103591206D01*
X124532529Y-103815369D01*
X125308972Y-104511423D01*
X129820395Y-100000000D01*
X130179605Y-100000000D01*
X134691028Y-104511423D01*
X135467471Y-103815369D01*
X135773547Y-103269580D01*
X146910025Y-103269580D01*
X147366197Y-103841185D01*
X148166183Y-104281207D01*
X149036641Y-104556704D01*
X149944121Y-104657091D01*
X150853748Y-104578508D01*
X151730566Y-104323975D01*
X152540879Y-103903275D01*
X152633803Y-103841185D01*
X153089975Y-103269580D01*
X150000000Y-100179605D01*
X146910025Y-103269580D01*
X135773547Y-103269580D01*
X136106757Y-102675408D01*
X136511363Y-101432631D01*
X136665741Y-100134800D01*
X136650847Y-99944121D01*
X145342909Y-99944121D01*
X145421492Y-100853748D01*
X145676025Y-101730566D01*
X146096725Y-102540879D01*
X146158815Y-102633803D01*
X146730420Y-103089975D01*
X149820395Y-100000000D01*
X146730420Y-96910025D01*
X146158815Y-97366197D01*
X145718793Y-98166183D01*
X145443296Y-99036641D01*
X145342909Y-99944121D01*
X136650847Y-99944121D01*
X136563960Y-98831788D01*
X136209928Y-97573670D01*
X135780893Y-96730420D01*
X146910025Y-96730420D01*
X150000000Y-99820395D01*
X153089975Y-96730420D01*
X152633803Y-96158815D01*
X151833817Y-95718793D01*
X150963359Y-95443296D01*
X150055879Y-95342909D01*
X149146252Y-95421492D01*
X148269434Y-95676025D01*
X147459121Y-96096725D01*
X147366197Y-96158815D01*
X146910025Y-96730420D01*
X135780893Y-96730420D01*
X135617253Y-96408794D01*
X135467471Y-96184631D01*
X134691028Y-95488577D01*
X130179605Y-100000000D01*
X129820395Y-100000000D01*
X125308972Y-95488577D01*
X124532529Y-96184631D01*
X123893243Y-97324592D01*
X123488637Y-98567369D01*
X123334259Y-99865200D01*
X114640619Y-99865200D01*
X114578508Y-99146252D01*
X114323975Y-98269434D01*
X113903275Y-97459121D01*
X113841185Y-97366197D01*
X113269580Y-96910025D01*
X110179605Y-100000000D01*
X109820395Y-100000000D01*
X106730420Y-96910025D01*
X106158815Y-97366197D01*
X105718793Y-98166183D01*
X105660000Y-98351945D01*
X105660000Y-96730420D01*
X106910025Y-96730420D01*
X110000000Y-99820395D01*
X113089975Y-96730420D01*
X112633803Y-96158815D01*
X111833817Y-95718793D01*
X110963359Y-95443296D01*
X110055879Y-95342909D01*
X109146252Y-95421492D01*
X108269434Y-95676025D01*
X107459121Y-96096725D01*
X107366197Y-96158815D01*
X106910025Y-96730420D01*
X105660000Y-96730420D01*
X105660000Y-95308972D01*
X125488577Y-95308972D01*
X130000000Y-99820395D01*
X134511423Y-95308972D01*
X133815369Y-94532529D01*
X132675408Y-93893243D01*
X131432631Y-93488637D01*
X130134800Y-93334259D01*
X128831788Y-93436040D01*
X127573670Y-93790072D01*
X126408794Y-94382747D01*
X126184631Y-94532529D01*
X125488577Y-95308972D01*
X105660000Y-95308972D01*
X105660000Y-94032279D01*
X105688625Y-93740341D01*
X105764035Y-93490571D01*
X105886522Y-93260208D01*
X106051422Y-93058020D01*
X106252450Y-92891714D01*
X106481954Y-92767622D01*
X106731195Y-92690469D01*
X107021088Y-92660000D01*
X152967721Y-92660000D01*
X153259659Y-92688625D01*
G04 #@! TA.AperFunction,Conductor*
D13*
G36*
X153259659Y-92688625D02*
G01*
X153509429Y-92764035D01*
X153739792Y-92886522D01*
X153941980Y-93051422D01*
X154108286Y-93252450D01*
X154232378Y-93481954D01*
X154309531Y-93731195D01*
X154340000Y-94021089D01*
X154340000Y-98324638D01*
X154323975Y-98269434D01*
X153903275Y-97459121D01*
X153841185Y-97366197D01*
X153269580Y-96910025D01*
X150179605Y-100000000D01*
X153269580Y-103089975D01*
X153841185Y-102633803D01*
X154281207Y-101833817D01*
X154340001Y-101648053D01*
X154340001Y-105967711D01*
X154311375Y-106259660D01*
X154235965Y-106509429D01*
X154113477Y-106739794D01*
X153948579Y-106941979D01*
X153747546Y-107108288D01*
X153518046Y-107232378D01*
X153268805Y-107309531D01*
X152978911Y-107340000D01*
X149967581Y-107340000D01*
X149938627Y-107342852D01*
X149926219Y-107342765D01*
X149917047Y-107343665D01*
X149528855Y-107384466D01*
X149470299Y-107396486D01*
X149411498Y-107407702D01*
X149402677Y-107410366D01*
X149029802Y-107525790D01*
X148974647Y-107548975D01*
X148919194Y-107571379D01*
X148911062Y-107575704D01*
X148911057Y-107575706D01*
X148911053Y-107575709D01*
X148567702Y-107761357D01*
X148518101Y-107794813D01*
X148468054Y-107827563D01*
X148460913Y-107833387D01*
X148160158Y-108082194D01*
X148118019Y-108124629D01*
X148075269Y-108166492D01*
X148069396Y-108173593D01*
X147822695Y-108476077D01*
X147789598Y-108525893D01*
X147755795Y-108575259D01*
X147751413Y-108583365D01*
X147568163Y-108928007D01*
X147545368Y-108983313D01*
X147521802Y-109038296D01*
X147519077Y-109047099D01*
X147406259Y-109420770D01*
X147394639Y-109479458D01*
X147382203Y-109537961D01*
X147381240Y-109547126D01*
X147343150Y-109935595D01*
X147343150Y-109935608D01*
X147340001Y-109967581D01*
X147340001Y-111324640D01*
X147323975Y-111269434D01*
X146903275Y-110459121D01*
X146841185Y-110366197D01*
X146269580Y-109910025D01*
X143179605Y-113000000D01*
X146269580Y-116089975D01*
X146841185Y-115633803D01*
X147281207Y-114833817D01*
X147340000Y-114648054D01*
X147340000Y-115967721D01*
X147311375Y-116259660D01*
X147235965Y-116509429D01*
X147113477Y-116739794D01*
X146948579Y-116941979D01*
X146747546Y-117108288D01*
X146518046Y-117232378D01*
X146268805Y-117309531D01*
X145978911Y-117340000D01*
X144675363Y-117340000D01*
X144730566Y-117323975D01*
X145540879Y-116903275D01*
X145633803Y-116841185D01*
X146089975Y-116269580D01*
X143000000Y-113179605D01*
X139910025Y-116269580D01*
X140366197Y-116841185D01*
X141166183Y-117281207D01*
X141351945Y-117340000D01*
X140032279Y-117340000D01*
X139740340Y-117311375D01*
X139490571Y-117235965D01*
X139260206Y-117113477D01*
X139058021Y-116948579D01*
X138891712Y-116747546D01*
X138767622Y-116518046D01*
X138690469Y-116268805D01*
X138660000Y-115978911D01*
X138660000Y-114675363D01*
X138676025Y-114730566D01*
X139096725Y-115540879D01*
X139158815Y-115633803D01*
X139730420Y-116089975D01*
X142820395Y-113000000D01*
X139730420Y-109910025D01*
X139158815Y-110366197D01*
X138718793Y-111166183D01*
X138660000Y-111351945D01*
X138660000Y-109967581D01*
X138657148Y-109938627D01*
X138657235Y-109926219D01*
X138656335Y-109917047D01*
X138636720Y-109730420D01*
X139910025Y-109730420D01*
X143000000Y-112820395D01*
X146089975Y-109730420D01*
X145633803Y-109158815D01*
X144833817Y-108718793D01*
X143963359Y-108443296D01*
X143055879Y-108342909D01*
X142146252Y-108421492D01*
X141269434Y-108676025D01*
X140459121Y-109096725D01*
X140366197Y-109158815D01*
X139910025Y-109730420D01*
X138636720Y-109730420D01*
X138615534Y-109528855D01*
X138603514Y-109470299D01*
X138592298Y-109411498D01*
X138589634Y-109402677D01*
X138474210Y-109029802D01*
X138451025Y-108974647D01*
X138428621Y-108919194D01*
X138424294Y-108911058D01*
X138424294Y-108911057D01*
X138424291Y-108911053D01*
X138238643Y-108567702D01*
X138205187Y-108518101D01*
X138172437Y-108468054D01*
X138166613Y-108460913D01*
X137917806Y-108160158D01*
X137875371Y-108118019D01*
X137833508Y-108075269D01*
X137826407Y-108069396D01*
X137523923Y-107822695D01*
X137474107Y-107789598D01*
X137424741Y-107755795D01*
X137416635Y-107751413D01*
X137071993Y-107568163D01*
X137016687Y-107545368D01*
X136961704Y-107521802D01*
X136952901Y-107519077D01*
X136579230Y-107406259D01*
X136520542Y-107394639D01*
X136462039Y-107382203D01*
X136452874Y-107381240D01*
X136064405Y-107343150D01*
X136064402Y-107343150D01*
X136032419Y-107340000D01*
X123967581Y-107340000D01*
X123938627Y-107342852D01*
X123926219Y-107342765D01*
X123917047Y-107343665D01*
X123528855Y-107384466D01*
X123470299Y-107396486D01*
X123411498Y-107407702D01*
X123402677Y-107410366D01*
X123029802Y-107525790D01*
X122974647Y-107548975D01*
X122919194Y-107571379D01*
X122911062Y-107575704D01*
X122911057Y-107575706D01*
X122911053Y-107575709D01*
X122567702Y-107761357D01*
X122518101Y-107794813D01*
X122468054Y-107827563D01*
X122460913Y-107833387D01*
X122160158Y-108082194D01*
X122118019Y-108124629D01*
X122075269Y-108166492D01*
X122069396Y-108173593D01*
X121822695Y-108476077D01*
X121789598Y-108525893D01*
X121755795Y-108575259D01*
X121751413Y-108583365D01*
X121568163Y-108928007D01*
X121545368Y-108983313D01*
X121521802Y-109038296D01*
X121519077Y-109047099D01*
X121406259Y-109420770D01*
X121394639Y-109479458D01*
X121382203Y-109537961D01*
X121381240Y-109547126D01*
X121343150Y-109935595D01*
X121343150Y-109935608D01*
X121340001Y-109967581D01*
X121340001Y-111324640D01*
X121323975Y-111269434D01*
X120903275Y-110459121D01*
X120841185Y-110366197D01*
X120269580Y-109910025D01*
X117179605Y-113000000D01*
X120269580Y-116089975D01*
X120841185Y-115633803D01*
X121281207Y-114833817D01*
X121340000Y-114648054D01*
X121340000Y-115967721D01*
X121311375Y-116259660D01*
X121235965Y-116509429D01*
X121113477Y-116739794D01*
X120948579Y-116941979D01*
X120747546Y-117108288D01*
X120518046Y-117232378D01*
X120268805Y-117309531D01*
X119978911Y-117340000D01*
X118675363Y-117340000D01*
X118730566Y-117323975D01*
X119540879Y-116903275D01*
X119633803Y-116841185D01*
X120089975Y-116269580D01*
X117000000Y-113179605D01*
X113910025Y-116269580D01*
X114366197Y-116841185D01*
X115166183Y-117281207D01*
X115351945Y-117340000D01*
X114032279Y-117340000D01*
X113740340Y-117311375D01*
X113490571Y-117235965D01*
X113260206Y-117113477D01*
X113058021Y-116948579D01*
X112891712Y-116747546D01*
X112767622Y-116518046D01*
X112690469Y-116268805D01*
X112660000Y-115978911D01*
X112660000Y-114675363D01*
X112676025Y-114730566D01*
X113096725Y-115540879D01*
X113158815Y-115633803D01*
X113730420Y-116089975D01*
X116820395Y-113000000D01*
X113730420Y-109910025D01*
X113158815Y-110366197D01*
X112718793Y-111166183D01*
X112660000Y-111351945D01*
X112660000Y-109967581D01*
X112657148Y-109938627D01*
X112657235Y-109926219D01*
X112656335Y-109917047D01*
X112636720Y-109730420D01*
X113910025Y-109730420D01*
X117000000Y-112820395D01*
X120089975Y-109730420D01*
X119633803Y-109158815D01*
X118833817Y-108718793D01*
X117963359Y-108443296D01*
X117055879Y-108342909D01*
X116146252Y-108421492D01*
X115269434Y-108676025D01*
X114459121Y-109096725D01*
X114366197Y-109158815D01*
X113910025Y-109730420D01*
X112636720Y-109730420D01*
X112615534Y-109528855D01*
X112603514Y-109470299D01*
X112592298Y-109411498D01*
X112589634Y-109402677D01*
X112474210Y-109029802D01*
X112451025Y-108974647D01*
X112428621Y-108919194D01*
X112424294Y-108911058D01*
X112424294Y-108911057D01*
X112424291Y-108911053D01*
X112238643Y-108567702D01*
X112205187Y-108518101D01*
X112172437Y-108468054D01*
X112166613Y-108460913D01*
X111917806Y-108160158D01*
X111875371Y-108118019D01*
X111833508Y-108075269D01*
X111826407Y-108069396D01*
X111523923Y-107822695D01*
X111474107Y-107789598D01*
X111424741Y-107755795D01*
X111416635Y-107751413D01*
X111071993Y-107568163D01*
X111016687Y-107545368D01*
X110961704Y-107521802D01*
X110952901Y-107519077D01*
X110579230Y-107406259D01*
X110520542Y-107394639D01*
X110462039Y-107382203D01*
X110452874Y-107381240D01*
X110064405Y-107343150D01*
X110064402Y-107343150D01*
X110032419Y-107340000D01*
X107032279Y-107340000D01*
X106740340Y-107311375D01*
X106490571Y-107235965D01*
X106260206Y-107113477D01*
X106058021Y-106948579D01*
X105891712Y-106747546D01*
X105767622Y-106518046D01*
X105690469Y-106268805D01*
X105660000Y-105978911D01*
X105660000Y-104691028D01*
X125488577Y-104691028D01*
X126184631Y-105467471D01*
X127324592Y-106106757D01*
X128567369Y-106511363D01*
X129865200Y-106665741D01*
X131168212Y-106563960D01*
X132426330Y-106209928D01*
X133591206Y-105617253D01*
X133815369Y-105467471D01*
X134511423Y-104691028D01*
X130000000Y-100179605D01*
X125488577Y-104691028D01*
X105660000Y-104691028D01*
X105660000Y-103269580D01*
X106910025Y-103269580D01*
X107366197Y-103841185D01*
X108166183Y-104281207D01*
X109036641Y-104556704D01*
X109944121Y-104657091D01*
X110853748Y-104578508D01*
X111730566Y-104323975D01*
X112540879Y-103903275D01*
X112633803Y-103841185D01*
X113089975Y-103269580D01*
X110000000Y-100179605D01*
X106910025Y-103269580D01*
X105660000Y-103269580D01*
X105660000Y-101675363D01*
X105676025Y-101730566D01*
X106096725Y-102540879D01*
X106158815Y-102633803D01*
X106730420Y-103089975D01*
X109820395Y-100000000D01*
X110179605Y-100000000D01*
X113269580Y-103089975D01*
X113841185Y-102633803D01*
X114281207Y-101833817D01*
X114556704Y-100963359D01*
X114657091Y-100055879D01*
X114640619Y-99865200D01*
X123334259Y-99865200D01*
X123436040Y-101168212D01*
X123790072Y-102426330D01*
X124382747Y-103591206D01*
X124532529Y-103815369D01*
X125308972Y-104511423D01*
X129820395Y-100000000D01*
X130179605Y-100000000D01*
X134691028Y-104511423D01*
X135467471Y-103815369D01*
X135773547Y-103269580D01*
X146910025Y-103269580D01*
X147366197Y-103841185D01*
X148166183Y-104281207D01*
X149036641Y-104556704D01*
X149944121Y-104657091D01*
X150853748Y-104578508D01*
X151730566Y-104323975D01*
X152540879Y-103903275D01*
X152633803Y-103841185D01*
X153089975Y-103269580D01*
X150000000Y-100179605D01*
X146910025Y-103269580D01*
X135773547Y-103269580D01*
X136106757Y-102675408D01*
X136511363Y-101432631D01*
X136665741Y-100134800D01*
X136650847Y-99944121D01*
X145342909Y-99944121D01*
X145421492Y-100853748D01*
X145676025Y-101730566D01*
X146096725Y-102540879D01*
X146158815Y-102633803D01*
X146730420Y-103089975D01*
X149820395Y-100000000D01*
X146730420Y-96910025D01*
X146158815Y-97366197D01*
X145718793Y-98166183D01*
X145443296Y-99036641D01*
X145342909Y-99944121D01*
X136650847Y-99944121D01*
X136563960Y-98831788D01*
X136209928Y-97573670D01*
X135780893Y-96730420D01*
X146910025Y-96730420D01*
X150000000Y-99820395D01*
X153089975Y-96730420D01*
X152633803Y-96158815D01*
X151833817Y-95718793D01*
X150963359Y-95443296D01*
X150055879Y-95342909D01*
X149146252Y-95421492D01*
X148269434Y-95676025D01*
X147459121Y-96096725D01*
X147366197Y-96158815D01*
X146910025Y-96730420D01*
X135780893Y-96730420D01*
X135617253Y-96408794D01*
X135467471Y-96184631D01*
X134691028Y-95488577D01*
X130179605Y-100000000D01*
X129820395Y-100000000D01*
X125308972Y-95488577D01*
X124532529Y-96184631D01*
X123893243Y-97324592D01*
X123488637Y-98567369D01*
X123334259Y-99865200D01*
X114640619Y-99865200D01*
X114578508Y-99146252D01*
X114323975Y-98269434D01*
X113903275Y-97459121D01*
X113841185Y-97366197D01*
X113269580Y-96910025D01*
X110179605Y-100000000D01*
X109820395Y-100000000D01*
X106730420Y-96910025D01*
X106158815Y-97366197D01*
X105718793Y-98166183D01*
X105660000Y-98351945D01*
X105660000Y-96730420D01*
X106910025Y-96730420D01*
X110000000Y-99820395D01*
X113089975Y-96730420D01*
X112633803Y-96158815D01*
X111833817Y-95718793D01*
X110963359Y-95443296D01*
X110055879Y-95342909D01*
X109146252Y-95421492D01*
X108269434Y-95676025D01*
X107459121Y-96096725D01*
X107366197Y-96158815D01*
X106910025Y-96730420D01*
X105660000Y-96730420D01*
X105660000Y-95308972D01*
X125488577Y-95308972D01*
X130000000Y-99820395D01*
X134511423Y-95308972D01*
X133815369Y-94532529D01*
X132675408Y-93893243D01*
X131432631Y-93488637D01*
X130134800Y-93334259D01*
X128831788Y-93436040D01*
X127573670Y-93790072D01*
X126408794Y-94382747D01*
X126184631Y-94532529D01*
X125488577Y-95308972D01*
X105660000Y-95308972D01*
X105660000Y-94032279D01*
X105688625Y-93740341D01*
X105764035Y-93490571D01*
X105886522Y-93260208D01*
X106051422Y-93058020D01*
X106252450Y-92891714D01*
X106481954Y-92767622D01*
X106731195Y-92690469D01*
X107021088Y-92660000D01*
X152967721Y-92660000D01*
X153259659Y-92688625D01*
G37*
G04 #@! TD.AperFunction*
M02*
