M48
;DRILL file {KiCad 5.0.2+dfsg1-1} date Sat 07 Aug 2021 11:43:57 PM JST
;FORMAT={-:-/ absolute / inch / decimal}
FMAT,2
INCH,TZ
T1C0.0157
T2C0.0354
T3C0.0400
%
G90
G05
T1
X6.2Y-2.7
X6.2Y-3.4
T2
X5.7856Y-2.7
X5.7856Y-2.8
X5.7856Y-2.9
X5.7856Y-3.
X5.7856Y-3.1
X5.7856Y-3.2
X5.7856Y-3.3
X5.7856Y-3.4
X5.8856Y-2.7
X5.9856Y-2.7
X6.2856Y-2.7
X6.2856Y-2.8
X6.2856Y-2.9
X6.2856Y-3.
X6.2856Y-3.1
X6.2856Y-3.2
X6.2856Y-3.3
X6.2856Y-3.4
T3
X5.99Y-2.85
X5.99Y-2.95
X5.99Y-3.05
X5.99Y-3.15
X5.99Y-3.25
X6.09Y-2.85
X6.09Y-2.95
X6.09Y-3.05
X6.09Y-3.15
X6.09Y-3.25
T0
M30
