G04 #@! TF.GenerationSoftware,KiCad,Pcbnew,5.0.2+dfsg1-1*
G04 #@! TF.CreationDate,2021-08-07T23:43:54+09:00*
G04 #@! TF.ProjectId,tmc-hv-adapter,746d632d-6876-42d6-9164-61707465722e,rev?*
G04 #@! TF.SameCoordinates,Original*
G04 #@! TF.FileFunction,Legend,Bot*
G04 #@! TF.FilePolarity,Positive*
%FSLAX46Y46*%
G04 Gerber Fmt 4.6, Leading zero omitted, Abs format (unit mm)*
G04 Created by KiCad (PCBNEW 5.0.2+dfsg1-1) date Sat 07 Aug 2021 11:43:54 PM JST*
%MOMM*%
%LPD*%
G01*
G04 APERTURE LIST*
%ADD10C,0.300000*%
%ADD11C,0.250000*%
%ADD12C,0.200000*%
G04 APERTURE END LIST*
D10*
X158015714Y-72251428D02*
X158087142Y-72180000D01*
X158158571Y-71965714D01*
X158158571Y-71822857D01*
X158087142Y-71608571D01*
X157944285Y-71465714D01*
X157801428Y-71394285D01*
X157515714Y-71322857D01*
X157301428Y-71322857D01*
X157015714Y-71394285D01*
X156872857Y-71465714D01*
X156730000Y-71608571D01*
X156658571Y-71822857D01*
X156658571Y-71965714D01*
X156730000Y-72180000D01*
X156801428Y-72251428D01*
X158158571Y-72894285D02*
X156658571Y-72894285D01*
X158158571Y-73537142D02*
X157372857Y-73537142D01*
X157230000Y-73465714D01*
X157158571Y-73322857D01*
X157158571Y-73108571D01*
X157230000Y-72965714D01*
X157301428Y-72894285D01*
X158158571Y-74251428D02*
X157158571Y-74251428D01*
X156658571Y-74251428D02*
X156730000Y-74180000D01*
X156801428Y-74251428D01*
X156730000Y-74322857D01*
X156658571Y-74251428D01*
X156801428Y-74251428D01*
X157158571Y-74965714D02*
X158658571Y-74965714D01*
X157230000Y-74965714D02*
X157158571Y-75108571D01*
X157158571Y-75394285D01*
X157230000Y-75537142D01*
X157301428Y-75608571D01*
X157444285Y-75680000D01*
X157872857Y-75680000D01*
X158015714Y-75608571D01*
X158087142Y-75537142D01*
X158158571Y-75394285D01*
X158158571Y-75108571D01*
X158087142Y-74965714D01*
X158015714Y-77180000D02*
X158087142Y-77108571D01*
X158158571Y-76894285D01*
X158158571Y-76751428D01*
X158087142Y-76537142D01*
X157944285Y-76394285D01*
X157801428Y-76322857D01*
X157515714Y-76251428D01*
X157301428Y-76251428D01*
X157015714Y-76322857D01*
X156872857Y-76394285D01*
X156730000Y-76537142D01*
X156658571Y-76751428D01*
X156658571Y-76894285D01*
X156730000Y-77108571D01*
X156801428Y-77180000D01*
X157372857Y-77822857D02*
X157372857Y-78322857D01*
X158158571Y-78537142D02*
X158158571Y-77822857D01*
X156658571Y-77822857D01*
X156658571Y-78537142D01*
X152848285Y-86784571D02*
X153348285Y-86070285D01*
X153705428Y-86784571D02*
X153705428Y-85284571D01*
X153134000Y-85284571D01*
X152991142Y-85356000D01*
X152919714Y-85427428D01*
X152848285Y-85570285D01*
X152848285Y-85784571D01*
X152919714Y-85927428D01*
X152991142Y-85998857D01*
X153134000Y-86070285D01*
X153705428Y-86070285D01*
X151634000Y-86713142D02*
X151776857Y-86784571D01*
X152062571Y-86784571D01*
X152205428Y-86713142D01*
X152276857Y-86570285D01*
X152276857Y-85998857D01*
X152205428Y-85856000D01*
X152062571Y-85784571D01*
X151776857Y-85784571D01*
X151634000Y-85856000D01*
X151562571Y-85998857D01*
X151562571Y-86141714D01*
X152276857Y-86284571D01*
X151062571Y-85784571D02*
X150705428Y-86784571D01*
X150348285Y-85784571D01*
X148991142Y-86784571D02*
X149848285Y-86784571D01*
X149419714Y-86784571D02*
X149419714Y-85284571D01*
X149562571Y-85498857D01*
X149705428Y-85641714D01*
X149848285Y-85713142D01*
D11*
X148784571Y-70612857D02*
X148784571Y-71470000D01*
X150284571Y-71041428D02*
X148784571Y-71041428D01*
X150284571Y-71970000D02*
X148784571Y-71970000D01*
X149856000Y-72470000D01*
X148784571Y-72970000D01*
X150284571Y-72970000D01*
X150141714Y-74541428D02*
X150213142Y-74470000D01*
X150284571Y-74255714D01*
X150284571Y-74112857D01*
X150213142Y-73898571D01*
X150070285Y-73755714D01*
X149927428Y-73684285D01*
X149641714Y-73612857D01*
X149427428Y-73612857D01*
X149141714Y-73684285D01*
X148998857Y-73755714D01*
X148856000Y-73898571D01*
X148784571Y-74112857D01*
X148784571Y-74255714D01*
X148856000Y-74470000D01*
X148927428Y-74541428D01*
X150284571Y-76970000D02*
X149498857Y-76970000D01*
X149356000Y-76898571D01*
X149284571Y-76755714D01*
X149284571Y-76470000D01*
X149356000Y-76327142D01*
X150213142Y-76970000D02*
X150284571Y-76827142D01*
X150284571Y-76470000D01*
X150213142Y-76327142D01*
X150070285Y-76255714D01*
X149927428Y-76255714D01*
X149784571Y-76327142D01*
X149713142Y-76470000D01*
X149713142Y-76827142D01*
X149641714Y-76970000D01*
X150284571Y-78327142D02*
X148784571Y-78327142D01*
X150213142Y-78327142D02*
X150284571Y-78184285D01*
X150284571Y-77898571D01*
X150213142Y-77755714D01*
X150141714Y-77684285D01*
X149998857Y-77612857D01*
X149570285Y-77612857D01*
X149427428Y-77684285D01*
X149356000Y-77755714D01*
X149284571Y-77898571D01*
X149284571Y-78184285D01*
X149356000Y-78327142D01*
X150284571Y-79684285D02*
X149498857Y-79684285D01*
X149356000Y-79612857D01*
X149284571Y-79470000D01*
X149284571Y-79184285D01*
X149356000Y-79041428D01*
X150213142Y-79684285D02*
X150284571Y-79541428D01*
X150284571Y-79184285D01*
X150213142Y-79041428D01*
X150070285Y-78970000D01*
X149927428Y-78970000D01*
X149784571Y-79041428D01*
X149713142Y-79184285D01*
X149713142Y-79541428D01*
X149641714Y-79684285D01*
X149284571Y-80398571D02*
X150784571Y-80398571D01*
X149356000Y-80398571D02*
X149284571Y-80541428D01*
X149284571Y-80827142D01*
X149356000Y-80970000D01*
X149427428Y-81041428D01*
X149570285Y-81112857D01*
X149998857Y-81112857D01*
X150141714Y-81041428D01*
X150213142Y-80970000D01*
X150284571Y-80827142D01*
X150284571Y-80541428D01*
X150213142Y-80398571D01*
X149284571Y-81541428D02*
X149284571Y-82112857D01*
X148784571Y-81755714D02*
X150070285Y-81755714D01*
X150213142Y-81827142D01*
X150284571Y-81970000D01*
X150284571Y-82112857D01*
X150213142Y-83184285D02*
X150284571Y-83041428D01*
X150284571Y-82755714D01*
X150213142Y-82612857D01*
X150070285Y-82541428D01*
X149498857Y-82541428D01*
X149356000Y-82612857D01*
X149284571Y-82755714D01*
X149284571Y-83041428D01*
X149356000Y-83184285D01*
X149498857Y-83255714D01*
X149641714Y-83255714D01*
X149784571Y-82541428D01*
X150284571Y-83898571D02*
X149284571Y-83898571D01*
X149570285Y-83898571D02*
X149427428Y-83970000D01*
X149356000Y-84041428D01*
X149284571Y-84184285D01*
X149284571Y-84327142D01*
D12*
X161290000Y-67056000D02*
X145542000Y-67056000D01*
X161290000Y-87884000D02*
X161290000Y-67056000D01*
X145542000Y-87884000D02*
X161290000Y-87884000D01*
X145542000Y-67056000D02*
X145542000Y-87884000D01*
M02*
