G04 #@! TF.GenerationSoftware,KiCad,Pcbnew,5.0.2+dfsg1-1*
G04 #@! TF.CreationDate,2021-08-07T23:43:54+09:00*
G04 #@! TF.ProjectId,tmc-hv-adapter,746d632d-6876-42d6-9164-61707465722e,rev?*
G04 #@! TF.SameCoordinates,Original*
G04 #@! TF.FileFunction,Soldermask,Top*
G04 #@! TF.FilePolarity,Negative*
%FSLAX46Y46*%
G04 Gerber Fmt 4.6, Leading zero omitted, Abs format (unit mm)*
G04 Created by KiCad (PCBNEW 5.0.2+dfsg1-1) date Sat 07 Aug 2021 11:43:54 PM JST*
%MOMM*%
%LPD*%
G01*
G04 APERTURE LIST*
%ADD10C,0.100000*%
G04 APERTURE END LIST*
D10*
G36*
X159892143Y-85578242D02*
X160040103Y-85639530D01*
X160173259Y-85728502D01*
X160286499Y-85841742D01*
X160375471Y-85974898D01*
X160436759Y-86122858D01*
X160468001Y-86279925D01*
X160468001Y-86440075D01*
X160436759Y-86597142D01*
X160375471Y-86745102D01*
X160286499Y-86878258D01*
X160173259Y-86991498D01*
X160040103Y-87080470D01*
X159892143Y-87141758D01*
X159735076Y-87173000D01*
X159574926Y-87173000D01*
X159417859Y-87141758D01*
X159269899Y-87080470D01*
X159136743Y-86991498D01*
X159023503Y-86878258D01*
X158934531Y-86745102D01*
X158873243Y-86597142D01*
X158842001Y-86440075D01*
X158842001Y-86279925D01*
X158873243Y-86122858D01*
X158934531Y-85974898D01*
X159023503Y-85841742D01*
X159136743Y-85728502D01*
X159269899Y-85639530D01*
X159417859Y-85578242D01*
X159574926Y-85547000D01*
X159735076Y-85547000D01*
X159892143Y-85578242D01*
X159892143Y-85578242D01*
G37*
G36*
X147192143Y-85578242D02*
X147340103Y-85639530D01*
X147473259Y-85728502D01*
X147586499Y-85841742D01*
X147675471Y-85974898D01*
X147736759Y-86122858D01*
X147768001Y-86279925D01*
X147768001Y-86440075D01*
X147736759Y-86597142D01*
X147675471Y-86745102D01*
X147586499Y-86878258D01*
X147473259Y-86991498D01*
X147340103Y-87080470D01*
X147192143Y-87141758D01*
X147035076Y-87173000D01*
X146874926Y-87173000D01*
X146717859Y-87141758D01*
X146569899Y-87080470D01*
X146436743Y-86991498D01*
X146323503Y-86878258D01*
X146234531Y-86745102D01*
X146173243Y-86597142D01*
X146142001Y-86440075D01*
X146142001Y-86279925D01*
X146173243Y-86122858D01*
X146234531Y-85974898D01*
X146323503Y-85841742D01*
X146436743Y-85728502D01*
X146569899Y-85639530D01*
X146717859Y-85578242D01*
X146874926Y-85547000D01*
X147035076Y-85547000D01*
X147192143Y-85578242D01*
X147192143Y-85578242D01*
G37*
G36*
X159892143Y-83038242D02*
X160040103Y-83099530D01*
X160173259Y-83188502D01*
X160286499Y-83301742D01*
X160375471Y-83434898D01*
X160436759Y-83582858D01*
X160468001Y-83739925D01*
X160468001Y-83900075D01*
X160436759Y-84057142D01*
X160375471Y-84205102D01*
X160286499Y-84338258D01*
X160173259Y-84451498D01*
X160040103Y-84540470D01*
X159892143Y-84601758D01*
X159735076Y-84633000D01*
X159574926Y-84633000D01*
X159417859Y-84601758D01*
X159269899Y-84540470D01*
X159136743Y-84451498D01*
X159023503Y-84338258D01*
X158934531Y-84205102D01*
X158873243Y-84057142D01*
X158842001Y-83900075D01*
X158842001Y-83739925D01*
X158873243Y-83582858D01*
X158934531Y-83434898D01*
X159023503Y-83301742D01*
X159136743Y-83188502D01*
X159269899Y-83099530D01*
X159417859Y-83038242D01*
X159574926Y-83007000D01*
X159735076Y-83007000D01*
X159892143Y-83038242D01*
X159892143Y-83038242D01*
G37*
G36*
X147192143Y-83038242D02*
X147340103Y-83099530D01*
X147473259Y-83188502D01*
X147586499Y-83301742D01*
X147675471Y-83434898D01*
X147736759Y-83582858D01*
X147768001Y-83739925D01*
X147768001Y-83900075D01*
X147736759Y-84057142D01*
X147675471Y-84205102D01*
X147586499Y-84338258D01*
X147473259Y-84451498D01*
X147340103Y-84540470D01*
X147192143Y-84601758D01*
X147035076Y-84633000D01*
X146874926Y-84633000D01*
X146717859Y-84601758D01*
X146569899Y-84540470D01*
X146436743Y-84451498D01*
X146323503Y-84338258D01*
X146234531Y-84205102D01*
X146173243Y-84057142D01*
X146142001Y-83900075D01*
X146142001Y-83739925D01*
X146173243Y-83582858D01*
X146234531Y-83434898D01*
X146323503Y-83301742D01*
X146436743Y-83188502D01*
X146569899Y-83099530D01*
X146717859Y-83038242D01*
X146874926Y-83007000D01*
X147035076Y-83007000D01*
X147192143Y-83038242D01*
X147192143Y-83038242D01*
G37*
G36*
X152325294Y-81648633D02*
X152497694Y-81700931D01*
X152497696Y-81700932D01*
X152656583Y-81785859D01*
X152795849Y-81900151D01*
X152910141Y-82039417D01*
X152995068Y-82198304D01*
X152995069Y-82198306D01*
X153047367Y-82370706D01*
X153065025Y-82550000D01*
X153047367Y-82729294D01*
X152995069Y-82901694D01*
X152995068Y-82901696D01*
X152910141Y-83060583D01*
X152795849Y-83199849D01*
X152656583Y-83314141D01*
X152497696Y-83399068D01*
X152497694Y-83399069D01*
X152325294Y-83451367D01*
X152190931Y-83464600D01*
X152101069Y-83464600D01*
X151966706Y-83451367D01*
X151794306Y-83399069D01*
X151794304Y-83399068D01*
X151635417Y-83314141D01*
X151496151Y-83199849D01*
X151381859Y-83060583D01*
X151296932Y-82901696D01*
X151296931Y-82901694D01*
X151244633Y-82729294D01*
X151226975Y-82550000D01*
X151244633Y-82370706D01*
X151296931Y-82198306D01*
X151296932Y-82198304D01*
X151381859Y-82039417D01*
X151496151Y-81900151D01*
X151635417Y-81785859D01*
X151794304Y-81700932D01*
X151794306Y-81700931D01*
X151966706Y-81648633D01*
X152101069Y-81635400D01*
X152190931Y-81635400D01*
X152325294Y-81648633D01*
X152325294Y-81648633D01*
G37*
G36*
X154865294Y-81648633D02*
X155037694Y-81700931D01*
X155037696Y-81700932D01*
X155196583Y-81785859D01*
X155335849Y-81900151D01*
X155450141Y-82039417D01*
X155535068Y-82198304D01*
X155535069Y-82198306D01*
X155587367Y-82370706D01*
X155605025Y-82550000D01*
X155587367Y-82729294D01*
X155535069Y-82901694D01*
X155535068Y-82901696D01*
X155450141Y-83060583D01*
X155335849Y-83199849D01*
X155196583Y-83314141D01*
X155037696Y-83399068D01*
X155037694Y-83399069D01*
X154865294Y-83451367D01*
X154730931Y-83464600D01*
X154641069Y-83464600D01*
X154506706Y-83451367D01*
X154334306Y-83399069D01*
X154334304Y-83399068D01*
X154175417Y-83314141D01*
X154036151Y-83199849D01*
X153921859Y-83060583D01*
X153836932Y-82901696D01*
X153836931Y-82901694D01*
X153784633Y-82729294D01*
X153766975Y-82550000D01*
X153784633Y-82370706D01*
X153836931Y-82198306D01*
X153836932Y-82198304D01*
X153921859Y-82039417D01*
X154036151Y-81900151D01*
X154175417Y-81785859D01*
X154334304Y-81700932D01*
X154334306Y-81700931D01*
X154506706Y-81648633D01*
X154641069Y-81635400D01*
X154730931Y-81635400D01*
X154865294Y-81648633D01*
X154865294Y-81648633D01*
G37*
G36*
X147192143Y-80498242D02*
X147340103Y-80559530D01*
X147473259Y-80648502D01*
X147586499Y-80761742D01*
X147675471Y-80894898D01*
X147736759Y-81042858D01*
X147768001Y-81199925D01*
X147768001Y-81360075D01*
X147736759Y-81517142D01*
X147675471Y-81665102D01*
X147586499Y-81798258D01*
X147473259Y-81911498D01*
X147340103Y-82000470D01*
X147192143Y-82061758D01*
X147035076Y-82093000D01*
X146874926Y-82093000D01*
X146717859Y-82061758D01*
X146569899Y-82000470D01*
X146436743Y-81911498D01*
X146323503Y-81798258D01*
X146234531Y-81665102D01*
X146173243Y-81517142D01*
X146142001Y-81360075D01*
X146142001Y-81199925D01*
X146173243Y-81042858D01*
X146234531Y-80894898D01*
X146323503Y-80761742D01*
X146436743Y-80648502D01*
X146569899Y-80559530D01*
X146717859Y-80498242D01*
X146874926Y-80467000D01*
X147035076Y-80467000D01*
X147192143Y-80498242D01*
X147192143Y-80498242D01*
G37*
G36*
X159892143Y-80498242D02*
X160040103Y-80559530D01*
X160173259Y-80648502D01*
X160286499Y-80761742D01*
X160375471Y-80894898D01*
X160436759Y-81042858D01*
X160468001Y-81199925D01*
X160468001Y-81360075D01*
X160436759Y-81517142D01*
X160375471Y-81665102D01*
X160286499Y-81798258D01*
X160173259Y-81911498D01*
X160040103Y-82000470D01*
X159892143Y-82061758D01*
X159735076Y-82093000D01*
X159574926Y-82093000D01*
X159417859Y-82061758D01*
X159269899Y-82000470D01*
X159136743Y-81911498D01*
X159023503Y-81798258D01*
X158934531Y-81665102D01*
X158873243Y-81517142D01*
X158842001Y-81360075D01*
X158842001Y-81199925D01*
X158873243Y-81042858D01*
X158934531Y-80894898D01*
X159023503Y-80761742D01*
X159136743Y-80648502D01*
X159269899Y-80559530D01*
X159417859Y-80498242D01*
X159574926Y-80467000D01*
X159735076Y-80467000D01*
X159892143Y-80498242D01*
X159892143Y-80498242D01*
G37*
G36*
X154865294Y-79108633D02*
X155037694Y-79160931D01*
X155037696Y-79160932D01*
X155196583Y-79245859D01*
X155335849Y-79360151D01*
X155450141Y-79499417D01*
X155535068Y-79658304D01*
X155535069Y-79658306D01*
X155587367Y-79830706D01*
X155605025Y-80010000D01*
X155587367Y-80189294D01*
X155535069Y-80361694D01*
X155535068Y-80361696D01*
X155450141Y-80520583D01*
X155335849Y-80659849D01*
X155196583Y-80774141D01*
X155037696Y-80859068D01*
X155037694Y-80859069D01*
X154865294Y-80911367D01*
X154730931Y-80924600D01*
X154641069Y-80924600D01*
X154506706Y-80911367D01*
X154334306Y-80859069D01*
X154334304Y-80859068D01*
X154175417Y-80774141D01*
X154036151Y-80659849D01*
X153921859Y-80520583D01*
X153836932Y-80361696D01*
X153836931Y-80361694D01*
X153784633Y-80189294D01*
X153766975Y-80010000D01*
X153784633Y-79830706D01*
X153836931Y-79658306D01*
X153836932Y-79658304D01*
X153921859Y-79499417D01*
X154036151Y-79360151D01*
X154175417Y-79245859D01*
X154334304Y-79160932D01*
X154334306Y-79160931D01*
X154506706Y-79108633D01*
X154641069Y-79095400D01*
X154730931Y-79095400D01*
X154865294Y-79108633D01*
X154865294Y-79108633D01*
G37*
G36*
X152325294Y-79108633D02*
X152497694Y-79160931D01*
X152497696Y-79160932D01*
X152656583Y-79245859D01*
X152795849Y-79360151D01*
X152910141Y-79499417D01*
X152995068Y-79658304D01*
X152995069Y-79658306D01*
X153047367Y-79830706D01*
X153065025Y-80010000D01*
X153047367Y-80189294D01*
X152995069Y-80361694D01*
X152995068Y-80361696D01*
X152910141Y-80520583D01*
X152795849Y-80659849D01*
X152656583Y-80774141D01*
X152497696Y-80859068D01*
X152497694Y-80859069D01*
X152325294Y-80911367D01*
X152190931Y-80924600D01*
X152101069Y-80924600D01*
X151966706Y-80911367D01*
X151794306Y-80859069D01*
X151794304Y-80859068D01*
X151635417Y-80774141D01*
X151496151Y-80659849D01*
X151381859Y-80520583D01*
X151296932Y-80361696D01*
X151296931Y-80361694D01*
X151244633Y-80189294D01*
X151226975Y-80010000D01*
X151244633Y-79830706D01*
X151296931Y-79658306D01*
X151296932Y-79658304D01*
X151381859Y-79499417D01*
X151496151Y-79360151D01*
X151635417Y-79245859D01*
X151794304Y-79160932D01*
X151794306Y-79160931D01*
X151966706Y-79108633D01*
X152101069Y-79095400D01*
X152190931Y-79095400D01*
X152325294Y-79108633D01*
X152325294Y-79108633D01*
G37*
G36*
X147192143Y-77958242D02*
X147340103Y-78019530D01*
X147473259Y-78108502D01*
X147586499Y-78221742D01*
X147675471Y-78354898D01*
X147736759Y-78502858D01*
X147768001Y-78659925D01*
X147768001Y-78820075D01*
X147736759Y-78977142D01*
X147675471Y-79125102D01*
X147586499Y-79258258D01*
X147473259Y-79371498D01*
X147340103Y-79460470D01*
X147192143Y-79521758D01*
X147035076Y-79553000D01*
X146874926Y-79553000D01*
X146717859Y-79521758D01*
X146569899Y-79460470D01*
X146436743Y-79371498D01*
X146323503Y-79258258D01*
X146234531Y-79125102D01*
X146173243Y-78977142D01*
X146142001Y-78820075D01*
X146142001Y-78659925D01*
X146173243Y-78502858D01*
X146234531Y-78354898D01*
X146323503Y-78221742D01*
X146436743Y-78108502D01*
X146569899Y-78019530D01*
X146717859Y-77958242D01*
X146874926Y-77927000D01*
X147035076Y-77927000D01*
X147192143Y-77958242D01*
X147192143Y-77958242D01*
G37*
G36*
X159892143Y-77958242D02*
X160040103Y-78019530D01*
X160173259Y-78108502D01*
X160286499Y-78221742D01*
X160375471Y-78354898D01*
X160436759Y-78502858D01*
X160468001Y-78659925D01*
X160468001Y-78820075D01*
X160436759Y-78977142D01*
X160375471Y-79125102D01*
X160286499Y-79258258D01*
X160173259Y-79371498D01*
X160040103Y-79460470D01*
X159892143Y-79521758D01*
X159735076Y-79553000D01*
X159574926Y-79553000D01*
X159417859Y-79521758D01*
X159269899Y-79460470D01*
X159136743Y-79371498D01*
X159023503Y-79258258D01*
X158934531Y-79125102D01*
X158873243Y-78977142D01*
X158842001Y-78820075D01*
X158842001Y-78659925D01*
X158873243Y-78502858D01*
X158934531Y-78354898D01*
X159023503Y-78221742D01*
X159136743Y-78108502D01*
X159269899Y-78019530D01*
X159417859Y-77958242D01*
X159574926Y-77927000D01*
X159735076Y-77927000D01*
X159892143Y-77958242D01*
X159892143Y-77958242D01*
G37*
G36*
X152325294Y-76568633D02*
X152497694Y-76620931D01*
X152497696Y-76620932D01*
X152656583Y-76705859D01*
X152795849Y-76820151D01*
X152910141Y-76959417D01*
X152995068Y-77118304D01*
X152995069Y-77118306D01*
X153047367Y-77290706D01*
X153065025Y-77470000D01*
X153047367Y-77649294D01*
X152995069Y-77821694D01*
X152995068Y-77821696D01*
X152910141Y-77980583D01*
X152795849Y-78119849D01*
X152656583Y-78234141D01*
X152497696Y-78319068D01*
X152497694Y-78319069D01*
X152325294Y-78371367D01*
X152190931Y-78384600D01*
X152101069Y-78384600D01*
X151966706Y-78371367D01*
X151794306Y-78319069D01*
X151794304Y-78319068D01*
X151635417Y-78234141D01*
X151496151Y-78119849D01*
X151381859Y-77980583D01*
X151296932Y-77821696D01*
X151296931Y-77821694D01*
X151244633Y-77649294D01*
X151226975Y-77470000D01*
X151244633Y-77290706D01*
X151296931Y-77118306D01*
X151296932Y-77118304D01*
X151381859Y-76959417D01*
X151496151Y-76820151D01*
X151635417Y-76705859D01*
X151794304Y-76620932D01*
X151794306Y-76620931D01*
X151966706Y-76568633D01*
X152101069Y-76555400D01*
X152190931Y-76555400D01*
X152325294Y-76568633D01*
X152325294Y-76568633D01*
G37*
G36*
X154865294Y-76568633D02*
X155037694Y-76620931D01*
X155037696Y-76620932D01*
X155196583Y-76705859D01*
X155335849Y-76820151D01*
X155450141Y-76959417D01*
X155535068Y-77118304D01*
X155535069Y-77118306D01*
X155587367Y-77290706D01*
X155605025Y-77470000D01*
X155587367Y-77649294D01*
X155535069Y-77821694D01*
X155535068Y-77821696D01*
X155450141Y-77980583D01*
X155335849Y-78119849D01*
X155196583Y-78234141D01*
X155037696Y-78319068D01*
X155037694Y-78319069D01*
X154865294Y-78371367D01*
X154730931Y-78384600D01*
X154641069Y-78384600D01*
X154506706Y-78371367D01*
X154334306Y-78319069D01*
X154334304Y-78319068D01*
X154175417Y-78234141D01*
X154036151Y-78119849D01*
X153921859Y-77980583D01*
X153836932Y-77821696D01*
X153836931Y-77821694D01*
X153784633Y-77649294D01*
X153766975Y-77470000D01*
X153784633Y-77290706D01*
X153836931Y-77118306D01*
X153836932Y-77118304D01*
X153921859Y-76959417D01*
X154036151Y-76820151D01*
X154175417Y-76705859D01*
X154334304Y-76620932D01*
X154334306Y-76620931D01*
X154506706Y-76568633D01*
X154641069Y-76555400D01*
X154730931Y-76555400D01*
X154865294Y-76568633D01*
X154865294Y-76568633D01*
G37*
G36*
X159892143Y-75418242D02*
X160040103Y-75479530D01*
X160173259Y-75568502D01*
X160286499Y-75681742D01*
X160375471Y-75814898D01*
X160436759Y-75962858D01*
X160468001Y-76119925D01*
X160468001Y-76280075D01*
X160436759Y-76437142D01*
X160375471Y-76585102D01*
X160286499Y-76718258D01*
X160173259Y-76831498D01*
X160040103Y-76920470D01*
X159892143Y-76981758D01*
X159735076Y-77013000D01*
X159574926Y-77013000D01*
X159417859Y-76981758D01*
X159269899Y-76920470D01*
X159136743Y-76831498D01*
X159023503Y-76718258D01*
X158934531Y-76585102D01*
X158873243Y-76437142D01*
X158842001Y-76280075D01*
X158842001Y-76119925D01*
X158873243Y-75962858D01*
X158934531Y-75814898D01*
X159023503Y-75681742D01*
X159136743Y-75568502D01*
X159269899Y-75479530D01*
X159417859Y-75418242D01*
X159574926Y-75387000D01*
X159735076Y-75387000D01*
X159892143Y-75418242D01*
X159892143Y-75418242D01*
G37*
G36*
X147192143Y-75418242D02*
X147340103Y-75479530D01*
X147473259Y-75568502D01*
X147586499Y-75681742D01*
X147675471Y-75814898D01*
X147736759Y-75962858D01*
X147768001Y-76119925D01*
X147768001Y-76280075D01*
X147736759Y-76437142D01*
X147675471Y-76585102D01*
X147586499Y-76718258D01*
X147473259Y-76831498D01*
X147340103Y-76920470D01*
X147192143Y-76981758D01*
X147035076Y-77013000D01*
X146874926Y-77013000D01*
X146717859Y-76981758D01*
X146569899Y-76920470D01*
X146436743Y-76831498D01*
X146323503Y-76718258D01*
X146234531Y-76585102D01*
X146173243Y-76437142D01*
X146142001Y-76280075D01*
X146142001Y-76119925D01*
X146173243Y-75962858D01*
X146234531Y-75814898D01*
X146323503Y-75681742D01*
X146436743Y-75568502D01*
X146569899Y-75479530D01*
X146717859Y-75418242D01*
X146874926Y-75387000D01*
X147035076Y-75387000D01*
X147192143Y-75418242D01*
X147192143Y-75418242D01*
G37*
G36*
X152325294Y-74028633D02*
X152497694Y-74080931D01*
X152497696Y-74080932D01*
X152656583Y-74165859D01*
X152795849Y-74280151D01*
X152910141Y-74419417D01*
X152995068Y-74578304D01*
X152995069Y-74578306D01*
X153047367Y-74750706D01*
X153065025Y-74930000D01*
X153047367Y-75109294D01*
X152995069Y-75281694D01*
X152995068Y-75281696D01*
X152910141Y-75440583D01*
X152795849Y-75579849D01*
X152656583Y-75694141D01*
X152497696Y-75779068D01*
X152497694Y-75779069D01*
X152325294Y-75831367D01*
X152190931Y-75844600D01*
X152101069Y-75844600D01*
X151966706Y-75831367D01*
X151794306Y-75779069D01*
X151794304Y-75779068D01*
X151635417Y-75694141D01*
X151496151Y-75579849D01*
X151381859Y-75440583D01*
X151296932Y-75281696D01*
X151296931Y-75281694D01*
X151244633Y-75109294D01*
X151226975Y-74930000D01*
X151244633Y-74750706D01*
X151296931Y-74578306D01*
X151296932Y-74578304D01*
X151381859Y-74419417D01*
X151496151Y-74280151D01*
X151635417Y-74165859D01*
X151794304Y-74080932D01*
X151794306Y-74080931D01*
X151966706Y-74028633D01*
X152101069Y-74015400D01*
X152190931Y-74015400D01*
X152325294Y-74028633D01*
X152325294Y-74028633D01*
G37*
G36*
X154865294Y-74028633D02*
X155037694Y-74080931D01*
X155037696Y-74080932D01*
X155196583Y-74165859D01*
X155335849Y-74280151D01*
X155450141Y-74419417D01*
X155535068Y-74578304D01*
X155535069Y-74578306D01*
X155587367Y-74750706D01*
X155605025Y-74930000D01*
X155587367Y-75109294D01*
X155535069Y-75281694D01*
X155535068Y-75281696D01*
X155450141Y-75440583D01*
X155335849Y-75579849D01*
X155196583Y-75694141D01*
X155037696Y-75779068D01*
X155037694Y-75779069D01*
X154865294Y-75831367D01*
X154730931Y-75844600D01*
X154641069Y-75844600D01*
X154506706Y-75831367D01*
X154334306Y-75779069D01*
X154334304Y-75779068D01*
X154175417Y-75694141D01*
X154036151Y-75579849D01*
X153921859Y-75440583D01*
X153836932Y-75281696D01*
X153836931Y-75281694D01*
X153784633Y-75109294D01*
X153766975Y-74930000D01*
X153784633Y-74750706D01*
X153836931Y-74578306D01*
X153836932Y-74578304D01*
X153921859Y-74419417D01*
X154036151Y-74280151D01*
X154175417Y-74165859D01*
X154334304Y-74080932D01*
X154334306Y-74080931D01*
X154506706Y-74028633D01*
X154641069Y-74015400D01*
X154730931Y-74015400D01*
X154865294Y-74028633D01*
X154865294Y-74028633D01*
G37*
G36*
X147192143Y-72878242D02*
X147340103Y-72939530D01*
X147473259Y-73028502D01*
X147586499Y-73141742D01*
X147675471Y-73274898D01*
X147736759Y-73422858D01*
X147768001Y-73579925D01*
X147768001Y-73740075D01*
X147736759Y-73897142D01*
X147675471Y-74045102D01*
X147586499Y-74178258D01*
X147473259Y-74291498D01*
X147340103Y-74380470D01*
X147192143Y-74441758D01*
X147035076Y-74473000D01*
X146874926Y-74473000D01*
X146717859Y-74441758D01*
X146569899Y-74380470D01*
X146436743Y-74291498D01*
X146323503Y-74178258D01*
X146234531Y-74045102D01*
X146173243Y-73897142D01*
X146142001Y-73740075D01*
X146142001Y-73579925D01*
X146173243Y-73422858D01*
X146234531Y-73274898D01*
X146323503Y-73141742D01*
X146436743Y-73028502D01*
X146569899Y-72939530D01*
X146717859Y-72878242D01*
X146874926Y-72847000D01*
X147035076Y-72847000D01*
X147192143Y-72878242D01*
X147192143Y-72878242D01*
G37*
G36*
X159892143Y-72878242D02*
X160040103Y-72939530D01*
X160173259Y-73028502D01*
X160286499Y-73141742D01*
X160375471Y-73274898D01*
X160436759Y-73422858D01*
X160468001Y-73579925D01*
X160468001Y-73740075D01*
X160436759Y-73897142D01*
X160375471Y-74045102D01*
X160286499Y-74178258D01*
X160173259Y-74291498D01*
X160040103Y-74380470D01*
X159892143Y-74441758D01*
X159735076Y-74473000D01*
X159574926Y-74473000D01*
X159417859Y-74441758D01*
X159269899Y-74380470D01*
X159136743Y-74291498D01*
X159023503Y-74178258D01*
X158934531Y-74045102D01*
X158873243Y-73897142D01*
X158842001Y-73740075D01*
X158842001Y-73579925D01*
X158873243Y-73422858D01*
X158934531Y-73274898D01*
X159023503Y-73141742D01*
X159136743Y-73028502D01*
X159269899Y-72939530D01*
X159417859Y-72878242D01*
X159574926Y-72847000D01*
X159735076Y-72847000D01*
X159892143Y-72878242D01*
X159892143Y-72878242D01*
G37*
G36*
X153060600Y-73304600D02*
X151231400Y-73304600D01*
X151231400Y-71475400D01*
X153060600Y-71475400D01*
X153060600Y-73304600D01*
X153060600Y-73304600D01*
G37*
G36*
X154865294Y-71488633D02*
X155037694Y-71540931D01*
X155037696Y-71540932D01*
X155196583Y-71625859D01*
X155335849Y-71740151D01*
X155450141Y-71879417D01*
X155535068Y-72038304D01*
X155535069Y-72038306D01*
X155587367Y-72210706D01*
X155605025Y-72390000D01*
X155587367Y-72569294D01*
X155535069Y-72741694D01*
X155535068Y-72741696D01*
X155450141Y-72900583D01*
X155335849Y-73039849D01*
X155196583Y-73154141D01*
X155037696Y-73239068D01*
X155037694Y-73239069D01*
X154865294Y-73291367D01*
X154730931Y-73304600D01*
X154641069Y-73304600D01*
X154506706Y-73291367D01*
X154334306Y-73239069D01*
X154334304Y-73239068D01*
X154175417Y-73154141D01*
X154036151Y-73039849D01*
X153921859Y-72900583D01*
X153836932Y-72741696D01*
X153836931Y-72741694D01*
X153784633Y-72569294D01*
X153766975Y-72390000D01*
X153784633Y-72210706D01*
X153836931Y-72038306D01*
X153836932Y-72038304D01*
X153921859Y-71879417D01*
X154036151Y-71740151D01*
X154175417Y-71625859D01*
X154334304Y-71540932D01*
X154334306Y-71540931D01*
X154506706Y-71488633D01*
X154641069Y-71475400D01*
X154730931Y-71475400D01*
X154865294Y-71488633D01*
X154865294Y-71488633D01*
G37*
G36*
X147192143Y-70338242D02*
X147340103Y-70399530D01*
X147473259Y-70488502D01*
X147586499Y-70601742D01*
X147675471Y-70734898D01*
X147736759Y-70882858D01*
X147768001Y-71039925D01*
X147768001Y-71200075D01*
X147736759Y-71357142D01*
X147675471Y-71505102D01*
X147586499Y-71638258D01*
X147473259Y-71751498D01*
X147340103Y-71840470D01*
X147192143Y-71901758D01*
X147035076Y-71933000D01*
X146874926Y-71933000D01*
X146717859Y-71901758D01*
X146569899Y-71840470D01*
X146436743Y-71751498D01*
X146323503Y-71638258D01*
X146234531Y-71505102D01*
X146173243Y-71357142D01*
X146142001Y-71200075D01*
X146142001Y-71039925D01*
X146173243Y-70882858D01*
X146234531Y-70734898D01*
X146323503Y-70601742D01*
X146436743Y-70488502D01*
X146569899Y-70399530D01*
X146717859Y-70338242D01*
X146874926Y-70307000D01*
X147035076Y-70307000D01*
X147192143Y-70338242D01*
X147192143Y-70338242D01*
G37*
G36*
X159892143Y-70338242D02*
X160040103Y-70399530D01*
X160173259Y-70488502D01*
X160286499Y-70601742D01*
X160375471Y-70734898D01*
X160436759Y-70882858D01*
X160468001Y-71039925D01*
X160468001Y-71200075D01*
X160436759Y-71357142D01*
X160375471Y-71505102D01*
X160286499Y-71638258D01*
X160173259Y-71751498D01*
X160040103Y-71840470D01*
X159892143Y-71901758D01*
X159735076Y-71933000D01*
X159574926Y-71933000D01*
X159417859Y-71901758D01*
X159269899Y-71840470D01*
X159136743Y-71751498D01*
X159023503Y-71638258D01*
X158934531Y-71505102D01*
X158873243Y-71357142D01*
X158842001Y-71200075D01*
X158842001Y-71039925D01*
X158873243Y-70882858D01*
X158934531Y-70734898D01*
X159023503Y-70601742D01*
X159136743Y-70488502D01*
X159269899Y-70399530D01*
X159417859Y-70338242D01*
X159574926Y-70307000D01*
X159735076Y-70307000D01*
X159892143Y-70338242D01*
X159892143Y-70338242D01*
G37*
G36*
X147768001Y-69393000D02*
X146142001Y-69393000D01*
X146142001Y-67767000D01*
X147768001Y-67767000D01*
X147768001Y-69393000D01*
X147768001Y-69393000D01*
G37*
G36*
X149732143Y-67798242D02*
X149880103Y-67859530D01*
X150013259Y-67948502D01*
X150126499Y-68061742D01*
X150215471Y-68194898D01*
X150276759Y-68342858D01*
X150308001Y-68499925D01*
X150308001Y-68660075D01*
X150276759Y-68817142D01*
X150215471Y-68965102D01*
X150126499Y-69098258D01*
X150013259Y-69211498D01*
X149880103Y-69300470D01*
X149732143Y-69361758D01*
X149575076Y-69393000D01*
X149414926Y-69393000D01*
X149257859Y-69361758D01*
X149109899Y-69300470D01*
X148976743Y-69211498D01*
X148863503Y-69098258D01*
X148774531Y-68965102D01*
X148713243Y-68817142D01*
X148682001Y-68660075D01*
X148682001Y-68499925D01*
X148713243Y-68342858D01*
X148774531Y-68194898D01*
X148863503Y-68061742D01*
X148976743Y-67948502D01*
X149109899Y-67859530D01*
X149257859Y-67798242D01*
X149414926Y-67767000D01*
X149575076Y-67767000D01*
X149732143Y-67798242D01*
X149732143Y-67798242D01*
G37*
G36*
X152272143Y-67798242D02*
X152420103Y-67859530D01*
X152553259Y-67948502D01*
X152666499Y-68061742D01*
X152755471Y-68194898D01*
X152816759Y-68342858D01*
X152848001Y-68499925D01*
X152848001Y-68660075D01*
X152816759Y-68817142D01*
X152755471Y-68965102D01*
X152666499Y-69098258D01*
X152553259Y-69211498D01*
X152420103Y-69300470D01*
X152272143Y-69361758D01*
X152115076Y-69393000D01*
X151954926Y-69393000D01*
X151797859Y-69361758D01*
X151649899Y-69300470D01*
X151516743Y-69211498D01*
X151403503Y-69098258D01*
X151314531Y-68965102D01*
X151253243Y-68817142D01*
X151222001Y-68660075D01*
X151222001Y-68499925D01*
X151253243Y-68342858D01*
X151314531Y-68194898D01*
X151403503Y-68061742D01*
X151516743Y-67948502D01*
X151649899Y-67859530D01*
X151797859Y-67798242D01*
X151954926Y-67767000D01*
X152115076Y-67767000D01*
X152272143Y-67798242D01*
X152272143Y-67798242D01*
G37*
G36*
X159892143Y-67798242D02*
X160040103Y-67859530D01*
X160173259Y-67948502D01*
X160286499Y-68061742D01*
X160375471Y-68194898D01*
X160436759Y-68342858D01*
X160468001Y-68499925D01*
X160468001Y-68660075D01*
X160436759Y-68817142D01*
X160375471Y-68965102D01*
X160286499Y-69098258D01*
X160173259Y-69211498D01*
X160040103Y-69300470D01*
X159892143Y-69361758D01*
X159735076Y-69393000D01*
X159574926Y-69393000D01*
X159417859Y-69361758D01*
X159269899Y-69300470D01*
X159136743Y-69211498D01*
X159023503Y-69098258D01*
X158934531Y-68965102D01*
X158873243Y-68817142D01*
X158842001Y-68660075D01*
X158842001Y-68499925D01*
X158873243Y-68342858D01*
X158934531Y-68194898D01*
X159023503Y-68061742D01*
X159136743Y-67948502D01*
X159269899Y-67859530D01*
X159417859Y-67798242D01*
X159574926Y-67767000D01*
X159735076Y-67767000D01*
X159892143Y-67798242D01*
X159892143Y-67798242D01*
G37*
M02*
