G04 #@! TF.GenerationSoftware,KiCad,Pcbnew,5.1.9+dfsg1-1+deb11u1*
G04 #@! TF.CreationDate,2023-07-13T21:36:33+09:00*
G04 #@! TF.ProjectId,test,74657374-2e6b-4696-9361-645f70636258,rev?*
G04 #@! TF.SameCoordinates,Original*
G04 #@! TF.FileFunction,Copper,L1,Top*
G04 #@! TF.FilePolarity,Positive*
%FSLAX46Y46*%
G04 Gerber Fmt 4.6, Leading zero omitted, Abs format (unit mm)*
G04 Created by KiCad (PCBNEW 5.1.9+dfsg1-1+deb11u1) date 2023-07-13 21:36:33*
%MOMM*%
%LPD*%
G01*
G04 APERTURE LIST*
G04 #@! TA.AperFunction,NonConductor*
%ADD10C,0.254000*%
G04 #@! TD*
G04 #@! TA.AperFunction,NonConductor*
%ADD11C,0.100000*%
G04 #@! TD*
G04 APERTURE END LIST*
D10*
X140461293Y-80707670D02*
X140897898Y-80839489D01*
X141300585Y-81053600D01*
X141678174Y-81361554D01*
X142151534Y-81834915D01*
X142155409Y-81838830D01*
X142162826Y-81846222D01*
X142162909Y-81846290D01*
X142177533Y-81860914D01*
X142198013Y-81877721D01*
X142204457Y-81884302D01*
X142211557Y-81890176D01*
X142665286Y-82260228D01*
X142715079Y-82293310D01*
X142764468Y-82327128D01*
X142772574Y-82331510D01*
X143289537Y-82606385D01*
X143344864Y-82629189D01*
X143399824Y-82652745D01*
X143408628Y-82655470D01*
X143969137Y-82824697D01*
X144027817Y-82836316D01*
X144086327Y-82848753D01*
X144095492Y-82849716D01*
X144678194Y-82906851D01*
X144678208Y-82906851D01*
X144710181Y-82910000D01*
X235717721Y-82910000D01*
X236203893Y-82957670D01*
X236640498Y-83089489D01*
X237043185Y-83303600D01*
X237396612Y-83591848D01*
X237687327Y-83943261D01*
X237904242Y-84344439D01*
X238039106Y-84780113D01*
X238090000Y-85264344D01*
X238090001Y-121717711D01*
X238042330Y-122203894D01*
X237910512Y-122640497D01*
X237696399Y-123043186D01*
X237408150Y-123396613D01*
X237056739Y-123687327D01*
X236655564Y-123904240D01*
X236219886Y-124039106D01*
X235735664Y-124090000D01*
X156536181Y-124090000D01*
X156517691Y-124091821D01*
X156194637Y-124110015D01*
X156148988Y-124117101D01*
X156103022Y-124121646D01*
X156093997Y-124123506D01*
X155521393Y-124245708D01*
X155464384Y-124263844D01*
X155407138Y-124281179D01*
X155398646Y-124284757D01*
X154860684Y-124515850D01*
X154808264Y-124544724D01*
X154755493Y-124572838D01*
X154747858Y-124577997D01*
X154265028Y-124909180D01*
X154219237Y-124947667D01*
X154172910Y-124985514D01*
X154166423Y-124992058D01*
X153757114Y-125410716D01*
X153719659Y-125457379D01*
X153681577Y-125503489D01*
X153676484Y-125511169D01*
X153392002Y-125946682D01*
X153391969Y-125946715D01*
X153338649Y-126028265D01*
X140021178Y-151553420D01*
X139753790Y-151962767D01*
X139434961Y-152288883D01*
X139058868Y-152546855D01*
X138639821Y-152726868D01*
X138180313Y-152824934D01*
X137912822Y-152840000D01*
X102782279Y-152840000D01*
X102296106Y-152792330D01*
X101859503Y-152660512D01*
X101456814Y-152446399D01*
X101103387Y-152158150D01*
X100812673Y-151806739D01*
X100595760Y-151405564D01*
X100460894Y-150969886D01*
X100410000Y-150485664D01*
X100410000Y-145688305D01*
X106585313Y-145688305D01*
X106585313Y-146311695D01*
X106706930Y-146923105D01*
X106945490Y-147499042D01*
X107291827Y-148017371D01*
X107732629Y-148458173D01*
X108250958Y-148804510D01*
X108826895Y-149043070D01*
X109438305Y-149164687D01*
X110061695Y-149164687D01*
X110673105Y-149043070D01*
X111249042Y-148804510D01*
X111767371Y-148458173D01*
X112208173Y-148017371D01*
X112554510Y-147499042D01*
X112793070Y-146923105D01*
X112914687Y-146311695D01*
X112914687Y-145688305D01*
X112793070Y-145076895D01*
X112554510Y-144500958D01*
X112208173Y-143982629D01*
X111767371Y-143541827D01*
X111249042Y-143195490D01*
X110673105Y-142956930D01*
X110061695Y-142835313D01*
X109438305Y-142835313D01*
X108826895Y-142956930D01*
X108250958Y-143195490D01*
X107732629Y-143541827D01*
X107291827Y-143982629D01*
X106945490Y-144500958D01*
X106706930Y-145076895D01*
X106585313Y-145688305D01*
X100410000Y-145688305D01*
X100410000Y-125688305D01*
X106585313Y-125688305D01*
X106585313Y-126311695D01*
X106706930Y-126923105D01*
X106945490Y-127499042D01*
X107291827Y-128017371D01*
X107732629Y-128458173D01*
X108250958Y-128804510D01*
X108826895Y-129043070D01*
X109438305Y-129164687D01*
X110061695Y-129164687D01*
X110673105Y-129043070D01*
X111249042Y-128804510D01*
X111767371Y-128458173D01*
X112208173Y-128017371D01*
X112241441Y-127967582D01*
X125340000Y-127967582D01*
X125340001Y-144032419D01*
X125342783Y-144060664D01*
X125342740Y-144066801D01*
X125343640Y-144075972D01*
X125364041Y-144270069D01*
X125376068Y-144328658D01*
X125387277Y-144387423D01*
X125389941Y-144396245D01*
X125447653Y-144582683D01*
X125470838Y-144637838D01*
X125493242Y-144693291D01*
X125497568Y-144701427D01*
X125590393Y-144873104D01*
X125623846Y-144922699D01*
X125656600Y-144972753D01*
X125662424Y-144979894D01*
X125786828Y-145130272D01*
X125829263Y-145172411D01*
X125871126Y-145215161D01*
X125878227Y-145221034D01*
X126029469Y-145344384D01*
X126079277Y-145377477D01*
X126128651Y-145411284D01*
X126136757Y-145415667D01*
X126309080Y-145507292D01*
X126364392Y-145530090D01*
X126419366Y-145553652D01*
X126428169Y-145556377D01*
X126615006Y-145612786D01*
X126673686Y-145624405D01*
X126732196Y-145636842D01*
X126741361Y-145637805D01*
X126935594Y-145656850D01*
X126935598Y-145656850D01*
X126967581Y-145660000D01*
X132532419Y-145660000D01*
X132560674Y-145657217D01*
X132566801Y-145657260D01*
X132575972Y-145656360D01*
X132770069Y-145635959D01*
X132828658Y-145623932D01*
X132887423Y-145612723D01*
X132896245Y-145610059D01*
X133082683Y-145552347D01*
X133137838Y-145529162D01*
X133193291Y-145506758D01*
X133201427Y-145502432D01*
X133373104Y-145409607D01*
X133422699Y-145376154D01*
X133472753Y-145343400D01*
X133479894Y-145337576D01*
X133630272Y-145213172D01*
X133672411Y-145170737D01*
X133715161Y-145128874D01*
X133721034Y-145121773D01*
X133844384Y-144970531D01*
X133877477Y-144920723D01*
X133911284Y-144871349D01*
X133915667Y-144863243D01*
X134007292Y-144690920D01*
X134030090Y-144635608D01*
X134053652Y-144580634D01*
X134056377Y-144571831D01*
X134112786Y-144384994D01*
X134124405Y-144326314D01*
X134136842Y-144267804D01*
X134137805Y-144258639D01*
X134156850Y-144064406D01*
X134156850Y-144064402D01*
X134160000Y-144032419D01*
X134160000Y-129536323D01*
X145330497Y-129536323D01*
X145330497Y-129963677D01*
X145413870Y-130382821D01*
X145577412Y-130777645D01*
X145814837Y-131132977D01*
X146117023Y-131435163D01*
X146472355Y-131672588D01*
X146867179Y-131836130D01*
X147286323Y-131919503D01*
X147713677Y-131919503D01*
X148132821Y-131836130D01*
X148527645Y-131672588D01*
X148882977Y-131435163D01*
X149185163Y-131132977D01*
X149422588Y-130777645D01*
X149586130Y-130382821D01*
X149669503Y-129963677D01*
X149669503Y-129536323D01*
X149586130Y-129117179D01*
X149422588Y-128722355D01*
X149185163Y-128367023D01*
X148882977Y-128064837D01*
X148527645Y-127827412D01*
X148132821Y-127663870D01*
X147713677Y-127580497D01*
X147286323Y-127580497D01*
X146867179Y-127663870D01*
X146472355Y-127827412D01*
X146117023Y-128064837D01*
X145814837Y-128367023D01*
X145577412Y-128722355D01*
X145413870Y-129117179D01*
X145330497Y-129536323D01*
X134160000Y-129536323D01*
X134160000Y-127967581D01*
X134157217Y-127939326D01*
X134157260Y-127933199D01*
X134156360Y-127924028D01*
X134135959Y-127729931D01*
X134123934Y-127671348D01*
X134112723Y-127612577D01*
X134110059Y-127603755D01*
X134052347Y-127417317D01*
X134029162Y-127362162D01*
X134006758Y-127306709D01*
X134002432Y-127298573D01*
X133909607Y-127126896D01*
X133876139Y-127077278D01*
X133843400Y-127027247D01*
X133837576Y-127020106D01*
X133713172Y-126869728D01*
X133670737Y-126827589D01*
X133628874Y-126784839D01*
X133621773Y-126778966D01*
X133470531Y-126655616D01*
X133420738Y-126622534D01*
X133371349Y-126588716D01*
X133363243Y-126584333D01*
X133190921Y-126492708D01*
X133135606Y-126469909D01*
X133080634Y-126446348D01*
X133071831Y-126443623D01*
X132884995Y-126387214D01*
X132826307Y-126375594D01*
X132767804Y-126363158D01*
X132758639Y-126362195D01*
X132564405Y-126343150D01*
X132564402Y-126343150D01*
X132532419Y-126340000D01*
X126967581Y-126340000D01*
X126939326Y-126342783D01*
X126933199Y-126342740D01*
X126924028Y-126343640D01*
X126729931Y-126364041D01*
X126671348Y-126376066D01*
X126612577Y-126387277D01*
X126603755Y-126389941D01*
X126417317Y-126447653D01*
X126362162Y-126470838D01*
X126306709Y-126493242D01*
X126298573Y-126497568D01*
X126126896Y-126590393D01*
X126077278Y-126623861D01*
X126027247Y-126656600D01*
X126020106Y-126662424D01*
X125869728Y-126786828D01*
X125827589Y-126829263D01*
X125784839Y-126871126D01*
X125778966Y-126878227D01*
X125655616Y-127029469D01*
X125622534Y-127079262D01*
X125588716Y-127128651D01*
X125584333Y-127136757D01*
X125492708Y-127309079D01*
X125469909Y-127364394D01*
X125446348Y-127419366D01*
X125443623Y-127428169D01*
X125387214Y-127615005D01*
X125375594Y-127673693D01*
X125363158Y-127732196D01*
X125362195Y-127741361D01*
X125343150Y-127935595D01*
X125340000Y-127967582D01*
X112241441Y-127967582D01*
X112554510Y-127499042D01*
X112793070Y-126923105D01*
X112914687Y-126311695D01*
X112914687Y-125688305D01*
X112793070Y-125076895D01*
X112554510Y-124500958D01*
X112208173Y-123982629D01*
X111767371Y-123541827D01*
X111249042Y-123195490D01*
X110673105Y-122956930D01*
X110061695Y-122835313D01*
X109438305Y-122835313D01*
X108826895Y-122956930D01*
X108250958Y-123195490D01*
X107732629Y-123541827D01*
X107291827Y-123982629D01*
X106945490Y-124500958D01*
X106706930Y-125076895D01*
X106585313Y-125688305D01*
X100410000Y-125688305D01*
X100410000Y-121532279D01*
X100457670Y-121046107D01*
X100589489Y-120609502D01*
X100803600Y-120206815D01*
X101091848Y-119853388D01*
X101443261Y-119562673D01*
X101844439Y-119345758D01*
X102280113Y-119210894D01*
X102764344Y-119160000D01*
X109782419Y-119160000D01*
X109792757Y-119158982D01*
X110398636Y-119139941D01*
X110429588Y-119137016D01*
X110460625Y-119135063D01*
X111706531Y-118977669D01*
X111706533Y-118977669D01*
X111787949Y-118962138D01*
X111832668Y-118950656D01*
X147092753Y-118950656D01*
X147093171Y-119010472D01*
X147092753Y-119070288D01*
X147093652Y-119079460D01*
X147124252Y-119370605D01*
X147136283Y-119429217D01*
X147147489Y-119487963D01*
X147150153Y-119496784D01*
X147236721Y-119776440D01*
X147259899Y-119831578D01*
X147282311Y-119887050D01*
X147286638Y-119895186D01*
X147425877Y-120152702D01*
X147459304Y-120202259D01*
X147492080Y-120252347D01*
X147497905Y-120259488D01*
X147684510Y-120485056D01*
X147726965Y-120527215D01*
X147768809Y-120569945D01*
X147775909Y-120575819D01*
X148002773Y-120760845D01*
X148052566Y-120793927D01*
X148101955Y-120827745D01*
X148110061Y-120832127D01*
X148368542Y-120969564D01*
X148423836Y-120992355D01*
X148478829Y-121015925D01*
X148487632Y-121018650D01*
X148767887Y-121103264D01*
X148826564Y-121114882D01*
X148885079Y-121127320D01*
X148894242Y-121128283D01*
X148894244Y-121128283D01*
X149185596Y-121156850D01*
X149185598Y-121156850D01*
X149217581Y-121160000D01*
X156782419Y-121160000D01*
X156815884Y-121156704D01*
X156835349Y-121156704D01*
X156844514Y-121155741D01*
X157135438Y-121123108D01*
X157193941Y-121110672D01*
X157252629Y-121099052D01*
X157261432Y-121096327D01*
X157540476Y-121007809D01*
X157595412Y-120984263D01*
X157650764Y-120961449D01*
X157658870Y-120957065D01*
X157915408Y-120816032D01*
X157964753Y-120782245D01*
X158014591Y-120749133D01*
X158021691Y-120743259D01*
X158245949Y-120555084D01*
X158287793Y-120512354D01*
X158330248Y-120470195D01*
X158336072Y-120463053D01*
X158519509Y-120234903D01*
X158552251Y-120184869D01*
X158585714Y-120135258D01*
X158590040Y-120127122D01*
X158725670Y-119867687D01*
X158748082Y-119812215D01*
X158771260Y-119757077D01*
X158773923Y-119748255D01*
X158856578Y-119467417D01*
X158867785Y-119408669D01*
X158879816Y-119350059D01*
X158880715Y-119340888D01*
X158907247Y-119049344D01*
X158906829Y-118989528D01*
X158907100Y-118950656D01*
X178092753Y-118950656D01*
X178093171Y-119010472D01*
X178092753Y-119070288D01*
X178093652Y-119079460D01*
X178124252Y-119370605D01*
X178136283Y-119429217D01*
X178147489Y-119487963D01*
X178150153Y-119496784D01*
X178236721Y-119776440D01*
X178259899Y-119831578D01*
X178282311Y-119887050D01*
X178286638Y-119895186D01*
X178425877Y-120152702D01*
X178459304Y-120202259D01*
X178492080Y-120252347D01*
X178497905Y-120259488D01*
X178684510Y-120485056D01*
X178726965Y-120527215D01*
X178768809Y-120569945D01*
X178775909Y-120575819D01*
X179002773Y-120760845D01*
X179052566Y-120793927D01*
X179101955Y-120827745D01*
X179110061Y-120832127D01*
X179368542Y-120969564D01*
X179423836Y-120992355D01*
X179478829Y-121015925D01*
X179487632Y-121018650D01*
X179767887Y-121103264D01*
X179826564Y-121114882D01*
X179885079Y-121127320D01*
X179894242Y-121128283D01*
X179894244Y-121128283D01*
X180185596Y-121156850D01*
X180185598Y-121156850D01*
X180217581Y-121160000D01*
X187782419Y-121160000D01*
X187815884Y-121156704D01*
X187835349Y-121156704D01*
X187844514Y-121155741D01*
X188135438Y-121123108D01*
X188193941Y-121110672D01*
X188252629Y-121099052D01*
X188261432Y-121096327D01*
X188540476Y-121007809D01*
X188595412Y-120984263D01*
X188650764Y-120961449D01*
X188658870Y-120957065D01*
X188915408Y-120816032D01*
X188964753Y-120782245D01*
X189014591Y-120749133D01*
X189021691Y-120743259D01*
X189245949Y-120555084D01*
X189287793Y-120512354D01*
X189330248Y-120470195D01*
X189336072Y-120463053D01*
X189519509Y-120234903D01*
X189552251Y-120184869D01*
X189585714Y-120135258D01*
X189590040Y-120127122D01*
X189725670Y-119867687D01*
X189748082Y-119812215D01*
X189771260Y-119757077D01*
X189773923Y-119748255D01*
X189836297Y-119536323D01*
X226580497Y-119536323D01*
X226580497Y-119963677D01*
X226663870Y-120382821D01*
X226827412Y-120777645D01*
X227064837Y-121132977D01*
X227367023Y-121435163D01*
X227722355Y-121672588D01*
X228117179Y-121836130D01*
X228536323Y-121919503D01*
X228963677Y-121919503D01*
X229382821Y-121836130D01*
X229777645Y-121672588D01*
X230132977Y-121435163D01*
X230435163Y-121132977D01*
X230672588Y-120777645D01*
X230836130Y-120382821D01*
X230919503Y-119963677D01*
X230919503Y-119536323D01*
X230836130Y-119117179D01*
X230672588Y-118722355D01*
X230435163Y-118367023D01*
X230132977Y-118064837D01*
X229777645Y-117827412D01*
X229382821Y-117663870D01*
X228963677Y-117580497D01*
X228536323Y-117580497D01*
X228117179Y-117663870D01*
X227722355Y-117827412D01*
X227367023Y-118064837D01*
X227064837Y-118367023D01*
X226827412Y-118722355D01*
X226663870Y-119117179D01*
X226580497Y-119536323D01*
X189836297Y-119536323D01*
X189856578Y-119467417D01*
X189867785Y-119408669D01*
X189879816Y-119350059D01*
X189880715Y-119340888D01*
X189907247Y-119049344D01*
X189906829Y-118989528D01*
X189907247Y-118929712D01*
X189906348Y-118920541D01*
X189875748Y-118629395D01*
X189863710Y-118570753D01*
X189852510Y-118512037D01*
X189849847Y-118503216D01*
X189763279Y-118223560D01*
X189740101Y-118168422D01*
X189717689Y-118112950D01*
X189713362Y-118104814D01*
X189574123Y-117847298D01*
X189540701Y-117797749D01*
X189507920Y-117747653D01*
X189502095Y-117740512D01*
X189315490Y-117514945D01*
X189273054Y-117472804D01*
X189231191Y-117430055D01*
X189224091Y-117424181D01*
X188997227Y-117239155D01*
X188947408Y-117206055D01*
X188898045Y-117172256D01*
X188889939Y-117167873D01*
X188631458Y-117030436D01*
X188576164Y-117007645D01*
X188521171Y-116984075D01*
X188512368Y-116981350D01*
X188232114Y-116896736D01*
X188173429Y-116885116D01*
X188114921Y-116872680D01*
X188105758Y-116871717D01*
X188105756Y-116871717D01*
X187814404Y-116843150D01*
X187814402Y-116843150D01*
X187782419Y-116840000D01*
X180217581Y-116840000D01*
X180184116Y-116843296D01*
X180164651Y-116843296D01*
X180155486Y-116844259D01*
X179864561Y-116876892D01*
X179806044Y-116889331D01*
X179747371Y-116900948D01*
X179738568Y-116903673D01*
X179459523Y-116992191D01*
X179404588Y-117015737D01*
X179349235Y-117038551D01*
X179341129Y-117042935D01*
X179084592Y-117183968D01*
X179035247Y-117217755D01*
X178985409Y-117250867D01*
X178978309Y-117256741D01*
X178754051Y-117444916D01*
X178712207Y-117487646D01*
X178669751Y-117529806D01*
X178663927Y-117536947D01*
X178480491Y-117765097D01*
X178447744Y-117815139D01*
X178414286Y-117864742D01*
X178409960Y-117872879D01*
X178274330Y-118132313D01*
X178251918Y-118187785D01*
X178228740Y-118242923D01*
X178226077Y-118251745D01*
X178143422Y-118532583D01*
X178132224Y-118591284D01*
X178120184Y-118649940D01*
X178119285Y-118659112D01*
X178092753Y-118950656D01*
X158907100Y-118950656D01*
X158907247Y-118929712D01*
X158906348Y-118920541D01*
X158875748Y-118629395D01*
X158863710Y-118570753D01*
X158852510Y-118512037D01*
X158849847Y-118503216D01*
X158763279Y-118223560D01*
X158740101Y-118168422D01*
X158717689Y-118112950D01*
X158713362Y-118104814D01*
X158574123Y-117847298D01*
X158540701Y-117797749D01*
X158507920Y-117747653D01*
X158502095Y-117740512D01*
X158315490Y-117514945D01*
X158273054Y-117472804D01*
X158231191Y-117430055D01*
X158224091Y-117424181D01*
X157997227Y-117239155D01*
X157947408Y-117206055D01*
X157898045Y-117172256D01*
X157889939Y-117167873D01*
X157631458Y-117030436D01*
X157576164Y-117007645D01*
X157521171Y-116984075D01*
X157512368Y-116981350D01*
X157232114Y-116896736D01*
X157173429Y-116885116D01*
X157114921Y-116872680D01*
X157105758Y-116871717D01*
X157105756Y-116871717D01*
X156814404Y-116843150D01*
X156814402Y-116843150D01*
X156782419Y-116840000D01*
X149217581Y-116840000D01*
X149184116Y-116843296D01*
X149164651Y-116843296D01*
X149155486Y-116844259D01*
X148864561Y-116876892D01*
X148806044Y-116889331D01*
X148747371Y-116900948D01*
X148738568Y-116903673D01*
X148459523Y-116992191D01*
X148404588Y-117015737D01*
X148349235Y-117038551D01*
X148341129Y-117042935D01*
X148084592Y-117183968D01*
X148035247Y-117217755D01*
X147985409Y-117250867D01*
X147978309Y-117256741D01*
X147754051Y-117444916D01*
X147712207Y-117487646D01*
X147669751Y-117529806D01*
X147663927Y-117536947D01*
X147480491Y-117765097D01*
X147447744Y-117815139D01*
X147414286Y-117864742D01*
X147409960Y-117872879D01*
X147274330Y-118132313D01*
X147251918Y-118187785D01*
X147228740Y-118242923D01*
X147226077Y-118251745D01*
X147143422Y-118532583D01*
X147132224Y-118591284D01*
X147120184Y-118649940D01*
X147119285Y-118659112D01*
X147092753Y-118950656D01*
X111832668Y-118950656D01*
X113004306Y-118649830D01*
X113083133Y-118624218D01*
X113083138Y-118624216D01*
X114250750Y-118161926D01*
X114250756Y-118161924D01*
X114288561Y-118144134D01*
X114325750Y-118126634D01*
X114325755Y-118126631D01*
X115426213Y-117521648D01*
X115426226Y-117521642D01*
X115469037Y-117494472D01*
X115496207Y-117477230D01*
X115496214Y-117477224D01*
X116512179Y-116739083D01*
X116576042Y-116686251D01*
X116576049Y-116686243D01*
X117491478Y-115826598D01*
X117491487Y-115826591D01*
X117548225Y-115766171D01*
X118026277Y-115188305D01*
X126585313Y-115188305D01*
X126585313Y-115811695D01*
X126706930Y-116423105D01*
X126945490Y-116999042D01*
X127291827Y-117517371D01*
X127732629Y-117958173D01*
X128250958Y-118304510D01*
X128826895Y-118543070D01*
X129438305Y-118664687D01*
X130061695Y-118664687D01*
X130673105Y-118543070D01*
X131249042Y-118304510D01*
X131767371Y-117958173D01*
X132208173Y-117517371D01*
X132554510Y-116999042D01*
X132793070Y-116423105D01*
X132914687Y-115811695D01*
X132914687Y-115188305D01*
X132793070Y-114576895D01*
X132554510Y-114000958D01*
X132208173Y-113482629D01*
X131767371Y-113041827D01*
X131249042Y-112695490D01*
X130673105Y-112456930D01*
X130061695Y-112335313D01*
X129438305Y-112335313D01*
X128826895Y-112456930D01*
X128250958Y-112695490D01*
X127732629Y-113041827D01*
X127291827Y-113482629D01*
X126945490Y-114000958D01*
X126706930Y-114576895D01*
X126585313Y-115188305D01*
X118026277Y-115188305D01*
X118348701Y-114798562D01*
X118348709Y-114798553D01*
X118397426Y-114731499D01*
X119070319Y-113671190D01*
X119070324Y-113671183D01*
X119110253Y-113598551D01*
X119644951Y-112462261D01*
X119675463Y-112385197D01*
X119675467Y-112385182D01*
X120063524Y-111190864D01*
X120063530Y-111190850D01*
X120084142Y-111110570D01*
X120319457Y-109877003D01*
X120324100Y-109840248D01*
X120329845Y-109794774D01*
X120407967Y-108553060D01*
X120410000Y-108532419D01*
X120410000Y-103521721D01*
X153016149Y-103521721D01*
X153016339Y-103557988D01*
X153016149Y-103594256D01*
X153016565Y-103601154D01*
X153103743Y-104931232D01*
X153108287Y-104967198D01*
X153112457Y-105003241D01*
X153113699Y-105010040D01*
X153360036Y-106320009D01*
X153368864Y-106355157D01*
X153377338Y-106390451D01*
X153379387Y-106397051D01*
X153781317Y-107667941D01*
X153794308Y-107701783D01*
X153806956Y-107735792D01*
X153809784Y-107742098D01*
X154361483Y-108955497D01*
X154378448Y-108987538D01*
X154395088Y-109019777D01*
X154398653Y-109025698D01*
X155092130Y-110164028D01*
X155112827Y-110193808D01*
X155133213Y-110223805D01*
X155137455Y-110229243D01*
X155137463Y-110229255D01*
X155137472Y-110229265D01*
X155962672Y-111276028D01*
X155986822Y-111303133D01*
X156010641Y-111330437D01*
X156015515Y-111335337D01*
X156960504Y-112275390D01*
X156987662Y-112299333D01*
X157014661Y-112323643D01*
X157020088Y-112327921D01*
X158071169Y-113147640D01*
X158101071Y-113168191D01*
X158130730Y-113189036D01*
X158136632Y-113192632D01*
X159278577Y-113880139D01*
X159310725Y-113896945D01*
X159342681Y-113914080D01*
X159348972Y-113916940D01*
X160565242Y-114462278D01*
X160599163Y-114475096D01*
X160632959Y-114488272D01*
X160639543Y-114490354D01*
X160639548Y-114490356D01*
X160639553Y-114490357D01*
X161912525Y-114885625D01*
X161947728Y-114894272D01*
X161982874Y-114903296D01*
X161989666Y-114904573D01*
X163300909Y-115144049D01*
X163336906Y-115148405D01*
X163372872Y-115153140D01*
X163379768Y-115153592D01*
X164697792Y-115233051D01*
X164717581Y-115235000D01*
X172282419Y-115235000D01*
X172284141Y-115234830D01*
X172369430Y-115234384D01*
X172387541Y-115233197D01*
X172405693Y-115233197D01*
X172412589Y-115232745D01*
X173742192Y-115138604D01*
X173778169Y-115133868D01*
X173814154Y-115129513D01*
X173820944Y-115128236D01*
X173820947Y-115128236D01*
X173820950Y-115128235D01*
X175129609Y-114875043D01*
X175164733Y-114866024D01*
X175199959Y-114857372D01*
X175206549Y-114855288D01*
X176475315Y-114446709D01*
X176509081Y-114433544D01*
X176543031Y-114420715D01*
X176549322Y-114417855D01*
X177759815Y-113859810D01*
X177791771Y-113842676D01*
X177823919Y-113825869D01*
X177829821Y-113822274D01*
X178018630Y-113705890D01*
X192092771Y-113705890D01*
X192093189Y-113765708D01*
X192092771Y-113825526D01*
X192093671Y-113834697D01*
X192139572Y-114271414D01*
X192151593Y-114329977D01*
X192162808Y-114388770D01*
X192165472Y-114397592D01*
X192295324Y-114817077D01*
X192318509Y-114872232D01*
X192340913Y-114927685D01*
X192345238Y-114935817D01*
X192345240Y-114935822D01*
X192345243Y-114935826D01*
X192554097Y-115322095D01*
X192587545Y-115371685D01*
X192620302Y-115421743D01*
X192626121Y-115428877D01*
X192626126Y-115428884D01*
X192626132Y-115428890D01*
X192906035Y-115767234D01*
X192948470Y-115809374D01*
X192990333Y-115852123D01*
X192997433Y-115857997D01*
X193337729Y-116135536D01*
X193387522Y-116168618D01*
X193436911Y-116202436D01*
X193445018Y-116206818D01*
X193832740Y-116412974D01*
X193888046Y-116435769D01*
X193943029Y-116459335D01*
X193951832Y-116462060D01*
X194372213Y-116588980D01*
X194430886Y-116600597D01*
X194489403Y-116613036D01*
X194498568Y-116613999D01*
X194935595Y-116656850D01*
X194935598Y-116656850D01*
X194967581Y-116660000D01*
X206532419Y-116660000D01*
X206534713Y-116659774D01*
X206536016Y-116659765D01*
X206554076Y-116657867D01*
X206566625Y-116656631D01*
X206595820Y-116656631D01*
X206604985Y-116655668D01*
X207041371Y-116606719D01*
X207099888Y-116594280D01*
X207158561Y-116582663D01*
X207167364Y-116579938D01*
X207585932Y-116447161D01*
X207640915Y-116423595D01*
X207696221Y-116400800D01*
X207704327Y-116396417D01*
X208089134Y-116184867D01*
X208138473Y-116151084D01*
X208188315Y-116117969D01*
X208195415Y-116112095D01*
X208531803Y-115829833D01*
X208573648Y-115787103D01*
X208616104Y-115744942D01*
X208621928Y-115737801D01*
X208897084Y-115395574D01*
X208929843Y-115345513D01*
X208963288Y-115295929D01*
X208967614Y-115287793D01*
X209171058Y-114898640D01*
X209193464Y-114843182D01*
X209216648Y-114788031D01*
X209219311Y-114779209D01*
X209343294Y-114357952D01*
X209354506Y-114299178D01*
X209366531Y-114240597D01*
X209367430Y-114231426D01*
X209407229Y-113794110D01*
X209406811Y-113734292D01*
X209407229Y-113674475D01*
X209406329Y-113665303D01*
X209360428Y-113228586D01*
X209348407Y-113170023D01*
X209337192Y-113111230D01*
X209334528Y-113102408D01*
X209204676Y-112682923D01*
X209181491Y-112627768D01*
X209159087Y-112572315D01*
X209154761Y-112564179D01*
X208945903Y-112177905D01*
X208912475Y-112128346D01*
X208879698Y-112078257D01*
X208873873Y-112071116D01*
X208593965Y-111732766D01*
X208551549Y-111690645D01*
X208509667Y-111647876D01*
X208502566Y-111642003D01*
X208162271Y-111364464D01*
X208112444Y-111331359D01*
X208063088Y-111297564D01*
X208054982Y-111293181D01*
X207667259Y-111087026D01*
X207611953Y-111064230D01*
X207556972Y-111040665D01*
X207548172Y-111037941D01*
X207548166Y-111037939D01*
X207127787Y-110911020D01*
X207069107Y-110899401D01*
X207010597Y-110886964D01*
X207001432Y-110886001D01*
X206564405Y-110843150D01*
X206564402Y-110843150D01*
X206532419Y-110840000D01*
X194967581Y-110840000D01*
X194965287Y-110840226D01*
X194963984Y-110840235D01*
X194945924Y-110842133D01*
X194933375Y-110843369D01*
X194904180Y-110843369D01*
X194895015Y-110844332D01*
X194458629Y-110893281D01*
X194400112Y-110905720D01*
X194341439Y-110917337D01*
X194332636Y-110920062D01*
X193914068Y-111052839D01*
X193859085Y-111076405D01*
X193803779Y-111099200D01*
X193795673Y-111103583D01*
X193410866Y-111315133D01*
X193361536Y-111348910D01*
X193311686Y-111382030D01*
X193304585Y-111387905D01*
X192968197Y-111670167D01*
X192926353Y-111712897D01*
X192883897Y-111755057D01*
X192878073Y-111762199D01*
X192602916Y-112104425D01*
X192570157Y-112154486D01*
X192536712Y-112204070D01*
X192532386Y-112212207D01*
X192328942Y-112601359D01*
X192306530Y-112656831D01*
X192283352Y-112711969D01*
X192280689Y-112720791D01*
X192156707Y-113142048D01*
X192145507Y-113200760D01*
X192133469Y-113259403D01*
X192132570Y-113268575D01*
X192092771Y-113705890D01*
X178018630Y-113705890D01*
X178964504Y-113122846D01*
X178994174Y-113101993D01*
X179024066Y-113081449D01*
X179029493Y-113077171D01*
X180071931Y-112246492D01*
X180098855Y-112222250D01*
X180126088Y-112198240D01*
X180130962Y-112193340D01*
X181066056Y-111243442D01*
X181089876Y-111216136D01*
X181114025Y-111189032D01*
X181118275Y-111183583D01*
X181932477Y-110128225D01*
X181952845Y-110098253D01*
X181973561Y-110068448D01*
X181977125Y-110062527D01*
X182658644Y-108916998D01*
X182675287Y-108884754D01*
X182692249Y-108852717D01*
X182695077Y-108846411D01*
X183234039Y-107627301D01*
X183246687Y-107593292D01*
X183259678Y-107559450D01*
X183261724Y-107552860D01*
X183261728Y-107552849D01*
X183261731Y-107552838D01*
X183266764Y-107536323D01*
X226580497Y-107536323D01*
X226580497Y-107963677D01*
X226663870Y-108382821D01*
X226827412Y-108777645D01*
X227064837Y-109132977D01*
X227367023Y-109435163D01*
X227722355Y-109672588D01*
X228117179Y-109836130D01*
X228536323Y-109919503D01*
X228963677Y-109919503D01*
X229382821Y-109836130D01*
X229777645Y-109672588D01*
X230132977Y-109435163D01*
X230435163Y-109132977D01*
X230672588Y-108777645D01*
X230836130Y-108382821D01*
X230919503Y-107963677D01*
X230919503Y-107536323D01*
X230836130Y-107117179D01*
X230672588Y-106722355D01*
X230435163Y-106367023D01*
X230132977Y-106064837D01*
X229777645Y-105827412D01*
X229382821Y-105663870D01*
X228963677Y-105580497D01*
X228536323Y-105580497D01*
X228117179Y-105663870D01*
X227722355Y-105827412D01*
X227367023Y-106064837D01*
X227064837Y-106367023D01*
X226827412Y-106722355D01*
X226663870Y-107117179D01*
X226580497Y-107536323D01*
X183266764Y-107536323D01*
X183650326Y-106277822D01*
X183658797Y-106242539D01*
X183667628Y-106207380D01*
X183668870Y-106200582D01*
X183901476Y-104888103D01*
X183905641Y-104852110D01*
X183910190Y-104816095D01*
X183910606Y-104809196D01*
X183983851Y-103478279D01*
X183983661Y-103442012D01*
X183983851Y-103405745D01*
X183983435Y-103398846D01*
X183896257Y-102068768D01*
X183891714Y-102032807D01*
X183887543Y-101996759D01*
X183886301Y-101989960D01*
X183639964Y-100679990D01*
X183631130Y-100644820D01*
X183622662Y-100609549D01*
X183620613Y-100602949D01*
X183218683Y-99332060D01*
X183205699Y-99298235D01*
X183193044Y-99264208D01*
X183190216Y-99257902D01*
X182638517Y-98044504D01*
X182621555Y-98012467D01*
X182604912Y-97980223D01*
X182601347Y-97974302D01*
X181907870Y-96835972D01*
X181887185Y-96806211D01*
X181866786Y-96776194D01*
X181862536Y-96770745D01*
X181037327Y-95723972D01*
X181013222Y-95696918D01*
X180989359Y-95669563D01*
X180984485Y-95664663D01*
X180039496Y-94724609D01*
X180012309Y-94700641D01*
X179985339Y-94676357D01*
X179979912Y-94672079D01*
X178928832Y-93852361D01*
X178898990Y-93831852D01*
X178869270Y-93810964D01*
X178863368Y-93807369D01*
X177721423Y-93119861D01*
X177689275Y-93103055D01*
X177657319Y-93085920D01*
X177651035Y-93083063D01*
X177651028Y-93083060D01*
X177651022Y-93083058D01*
X176434758Y-92537722D01*
X176400882Y-92524921D01*
X176367041Y-92511727D01*
X176360457Y-92509646D01*
X176360452Y-92509644D01*
X176360447Y-92509643D01*
X175087475Y-92114375D01*
X175052295Y-92105734D01*
X175017127Y-92096704D01*
X175010335Y-92095427D01*
X174686713Y-92036323D01*
X196580497Y-92036323D01*
X196580497Y-92463677D01*
X196663870Y-92882821D01*
X196827412Y-93277645D01*
X197064837Y-93632977D01*
X197367023Y-93935163D01*
X197722355Y-94172588D01*
X198117179Y-94336130D01*
X198536323Y-94419503D01*
X198963677Y-94419503D01*
X199382821Y-94336130D01*
X199777645Y-94172588D01*
X200132977Y-93935163D01*
X200435163Y-93632977D01*
X200672588Y-93277645D01*
X200836130Y-92882821D01*
X200919503Y-92463677D01*
X200919503Y-92036323D01*
X200900006Y-91938305D01*
X208085313Y-91938305D01*
X208085313Y-92561695D01*
X208206930Y-93173105D01*
X208445490Y-93749042D01*
X208791827Y-94267371D01*
X209232629Y-94708173D01*
X209750958Y-95054510D01*
X210326895Y-95293070D01*
X210938305Y-95414687D01*
X211561695Y-95414687D01*
X212173105Y-95293070D01*
X212749042Y-95054510D01*
X213267371Y-94708173D01*
X213708173Y-94267371D01*
X214054510Y-93749042D01*
X214293070Y-93173105D01*
X214414687Y-92561695D01*
X214414687Y-91938305D01*
X228085313Y-91938305D01*
X228085313Y-92561695D01*
X228206930Y-93173105D01*
X228445490Y-93749042D01*
X228791827Y-94267371D01*
X229232629Y-94708173D01*
X229750958Y-95054510D01*
X230326895Y-95293070D01*
X230938305Y-95414687D01*
X231561695Y-95414687D01*
X232173105Y-95293070D01*
X232749042Y-95054510D01*
X233267371Y-94708173D01*
X233708173Y-94267371D01*
X234054510Y-93749042D01*
X234293070Y-93173105D01*
X234414687Y-92561695D01*
X234414687Y-91938305D01*
X234293070Y-91326895D01*
X234054510Y-90750958D01*
X233708173Y-90232629D01*
X233267371Y-89791827D01*
X232749042Y-89445490D01*
X232173105Y-89206930D01*
X231561695Y-89085313D01*
X230938305Y-89085313D01*
X230326895Y-89206930D01*
X229750958Y-89445490D01*
X229232629Y-89791827D01*
X228791827Y-90232629D01*
X228445490Y-90750958D01*
X228206930Y-91326895D01*
X228085313Y-91938305D01*
X214414687Y-91938305D01*
X214293070Y-91326895D01*
X214054510Y-90750958D01*
X213708173Y-90232629D01*
X213267371Y-89791827D01*
X212749042Y-89445490D01*
X212173105Y-89206930D01*
X211561695Y-89085313D01*
X210938305Y-89085313D01*
X210326895Y-89206930D01*
X209750958Y-89445490D01*
X209232629Y-89791827D01*
X208791827Y-90232629D01*
X208445490Y-90750958D01*
X208206930Y-91326895D01*
X208085313Y-91938305D01*
X200900006Y-91938305D01*
X200836130Y-91617179D01*
X200672588Y-91222355D01*
X200435163Y-90867023D01*
X200132977Y-90564837D01*
X199777645Y-90327412D01*
X199382821Y-90163870D01*
X198963677Y-90080497D01*
X198536323Y-90080497D01*
X198117179Y-90163870D01*
X197722355Y-90327412D01*
X197367023Y-90564837D01*
X197064837Y-90867023D01*
X196827412Y-91222355D01*
X196663870Y-91617179D01*
X196580497Y-92036323D01*
X174686713Y-92036323D01*
X173699091Y-91855951D01*
X173663095Y-91851595D01*
X173627129Y-91846860D01*
X173620234Y-91846408D01*
X173620232Y-91846408D01*
X172302208Y-91766949D01*
X172282419Y-91765000D01*
X164717581Y-91765000D01*
X164715859Y-91765170D01*
X164630571Y-91765616D01*
X164612460Y-91766803D01*
X164594308Y-91766803D01*
X164587412Y-91767255D01*
X163257808Y-91861396D01*
X163221848Y-91866130D01*
X163185845Y-91870487D01*
X163179053Y-91871764D01*
X161870391Y-92124957D01*
X161835267Y-92133976D01*
X161800041Y-92142628D01*
X161793452Y-92144712D01*
X160524685Y-92553291D01*
X160490909Y-92566459D01*
X160456970Y-92579284D01*
X160450684Y-92582142D01*
X160450677Y-92582145D01*
X160450671Y-92582148D01*
X159240185Y-93140189D01*
X159208188Y-93157346D01*
X159176081Y-93174131D01*
X159170179Y-93177726D01*
X158035496Y-93877154D01*
X158005861Y-93897982D01*
X157975934Y-93918550D01*
X157970507Y-93922829D01*
X156928069Y-94753508D01*
X156901145Y-94777750D01*
X156873912Y-94801760D01*
X156869038Y-94806660D01*
X155933944Y-95756558D01*
X155910105Y-95783885D01*
X155885975Y-95810968D01*
X155881731Y-95816410D01*
X155881726Y-95816416D01*
X155881725Y-95816418D01*
X155067523Y-96871775D01*
X155047155Y-96901747D01*
X155026439Y-96931552D01*
X155022875Y-96937473D01*
X154341356Y-98083002D01*
X154324723Y-98115228D01*
X154307751Y-98147283D01*
X154304923Y-98153589D01*
X153765961Y-99372698D01*
X153753330Y-99406663D01*
X153740322Y-99440550D01*
X153738273Y-99447151D01*
X153349674Y-100722178D01*
X153341208Y-100757439D01*
X153332372Y-100792619D01*
X153331130Y-100799418D01*
X153098524Y-102111896D01*
X153094359Y-102147896D01*
X153089810Y-102183905D01*
X153089394Y-102190804D01*
X153016149Y-103521721D01*
X120410000Y-103521721D01*
X120410000Y-100536323D01*
X127580497Y-100536323D01*
X127580497Y-100963677D01*
X127663870Y-101382821D01*
X127827412Y-101777645D01*
X128064837Y-102132977D01*
X128367023Y-102435163D01*
X128722355Y-102672588D01*
X129117179Y-102836130D01*
X129536323Y-102919503D01*
X129963677Y-102919503D01*
X130382821Y-102836130D01*
X130777645Y-102672588D01*
X131132977Y-102435163D01*
X131435163Y-102132977D01*
X131672588Y-101777645D01*
X131836130Y-101382821D01*
X131919503Y-100963677D01*
X131919503Y-100536323D01*
X131836130Y-100117179D01*
X131672588Y-99722355D01*
X131435163Y-99367023D01*
X131132977Y-99064837D01*
X130777645Y-98827412D01*
X130382821Y-98663870D01*
X129963677Y-98580497D01*
X129536323Y-98580497D01*
X129117179Y-98663870D01*
X128722355Y-98827412D01*
X128367023Y-99064837D01*
X128064837Y-99367023D01*
X127827412Y-99722355D01*
X127663870Y-100117179D01*
X127580497Y-100536323D01*
X120410000Y-100536323D01*
X120410000Y-85688305D01*
X126585313Y-85688305D01*
X126585313Y-86311695D01*
X126706930Y-86923105D01*
X126945490Y-87499042D01*
X127291827Y-88017371D01*
X127732629Y-88458173D01*
X128250958Y-88804510D01*
X128826895Y-89043070D01*
X129438305Y-89164687D01*
X130061695Y-89164687D01*
X130673105Y-89043070D01*
X131249042Y-88804510D01*
X131767371Y-88458173D01*
X132208173Y-88017371D01*
X132252750Y-87950656D01*
X147092753Y-87950656D01*
X147093171Y-88010472D01*
X147092753Y-88070288D01*
X147093652Y-88079460D01*
X147124252Y-88370605D01*
X147136283Y-88429217D01*
X147147489Y-88487963D01*
X147150153Y-88496784D01*
X147236721Y-88776440D01*
X147259899Y-88831578D01*
X147282311Y-88887050D01*
X147286638Y-88895186D01*
X147425877Y-89152702D01*
X147459304Y-89202259D01*
X147492080Y-89252347D01*
X147497905Y-89259488D01*
X147684510Y-89485056D01*
X147726965Y-89527215D01*
X147768809Y-89569945D01*
X147775909Y-89575819D01*
X148002773Y-89760845D01*
X148052566Y-89793927D01*
X148101955Y-89827745D01*
X148110061Y-89832127D01*
X148368542Y-89969564D01*
X148423836Y-89992355D01*
X148478829Y-90015925D01*
X148487632Y-90018650D01*
X148767887Y-90103264D01*
X148826564Y-90114882D01*
X148885079Y-90127320D01*
X148894242Y-90128283D01*
X148894244Y-90128283D01*
X149185596Y-90156850D01*
X149185598Y-90156850D01*
X149217581Y-90160000D01*
X156782419Y-90160000D01*
X156815884Y-90156704D01*
X156835349Y-90156704D01*
X156844514Y-90155741D01*
X157135438Y-90123108D01*
X157193941Y-90110672D01*
X157252629Y-90099052D01*
X157261432Y-90096327D01*
X157540476Y-90007809D01*
X157595412Y-89984263D01*
X157650764Y-89961449D01*
X157658870Y-89957065D01*
X157915408Y-89816032D01*
X157964753Y-89782245D01*
X158014591Y-89749133D01*
X158021691Y-89743259D01*
X158245949Y-89555084D01*
X158287793Y-89512354D01*
X158330248Y-89470195D01*
X158336072Y-89463053D01*
X158519509Y-89234903D01*
X158552251Y-89184869D01*
X158585714Y-89135258D01*
X158590040Y-89127122D01*
X158725670Y-88867687D01*
X158748082Y-88812215D01*
X158771260Y-88757077D01*
X158773923Y-88748255D01*
X158856578Y-88467417D01*
X158867785Y-88408669D01*
X158879816Y-88350059D01*
X158880715Y-88340888D01*
X158907247Y-88049344D01*
X158906829Y-87989528D01*
X158907100Y-87950656D01*
X178092753Y-87950656D01*
X178093171Y-88010472D01*
X178092753Y-88070288D01*
X178093652Y-88079460D01*
X178124252Y-88370605D01*
X178136283Y-88429217D01*
X178147489Y-88487963D01*
X178150153Y-88496784D01*
X178236721Y-88776440D01*
X178259899Y-88831578D01*
X178282311Y-88887050D01*
X178286638Y-88895186D01*
X178425877Y-89152702D01*
X178459304Y-89202259D01*
X178492080Y-89252347D01*
X178497905Y-89259488D01*
X178684510Y-89485056D01*
X178726965Y-89527215D01*
X178768809Y-89569945D01*
X178775909Y-89575819D01*
X179002773Y-89760845D01*
X179052566Y-89793927D01*
X179101955Y-89827745D01*
X179110061Y-89832127D01*
X179368542Y-89969564D01*
X179423836Y-89992355D01*
X179478829Y-90015925D01*
X179487632Y-90018650D01*
X179767887Y-90103264D01*
X179826564Y-90114882D01*
X179885079Y-90127320D01*
X179894242Y-90128283D01*
X179894244Y-90128283D01*
X180185596Y-90156850D01*
X180185598Y-90156850D01*
X180217581Y-90160000D01*
X187782419Y-90160000D01*
X187815884Y-90156704D01*
X187835349Y-90156704D01*
X187844514Y-90155741D01*
X188135438Y-90123108D01*
X188193941Y-90110672D01*
X188252629Y-90099052D01*
X188261432Y-90096327D01*
X188540476Y-90007809D01*
X188595412Y-89984263D01*
X188650764Y-89961449D01*
X188658870Y-89957065D01*
X188915408Y-89816032D01*
X188964753Y-89782245D01*
X189014591Y-89749133D01*
X189021691Y-89743259D01*
X189245949Y-89555084D01*
X189287793Y-89512354D01*
X189330248Y-89470195D01*
X189336072Y-89463053D01*
X189519509Y-89234903D01*
X189552251Y-89184869D01*
X189585714Y-89135258D01*
X189590040Y-89127122D01*
X189725670Y-88867687D01*
X189748082Y-88812215D01*
X189771260Y-88757077D01*
X189773923Y-88748255D01*
X189856578Y-88467417D01*
X189867785Y-88408669D01*
X189879816Y-88350059D01*
X189880715Y-88340888D01*
X189907247Y-88049344D01*
X189906829Y-87989528D01*
X189907247Y-87929712D01*
X189906348Y-87920541D01*
X189875748Y-87629395D01*
X189863710Y-87570753D01*
X189852510Y-87512037D01*
X189849847Y-87503216D01*
X189763279Y-87223560D01*
X189740101Y-87168422D01*
X189717689Y-87112950D01*
X189713362Y-87104814D01*
X189574123Y-86847298D01*
X189540701Y-86797749D01*
X189507920Y-86747653D01*
X189502095Y-86740512D01*
X189315490Y-86514945D01*
X189273054Y-86472804D01*
X189231191Y-86430055D01*
X189224091Y-86424181D01*
X188997227Y-86239155D01*
X188947408Y-86206055D01*
X188898045Y-86172256D01*
X188889939Y-86167873D01*
X188631458Y-86030436D01*
X188576164Y-86007645D01*
X188521171Y-85984075D01*
X188512368Y-85981350D01*
X188232114Y-85896736D01*
X188173429Y-85885116D01*
X188114921Y-85872680D01*
X188105758Y-85871717D01*
X188105756Y-85871717D01*
X187814404Y-85843150D01*
X187814402Y-85843150D01*
X187782419Y-85840000D01*
X180217581Y-85840000D01*
X180184116Y-85843296D01*
X180164651Y-85843296D01*
X180155486Y-85844259D01*
X179864561Y-85876892D01*
X179806044Y-85889331D01*
X179747371Y-85900948D01*
X179738568Y-85903673D01*
X179459523Y-85992191D01*
X179404588Y-86015737D01*
X179349235Y-86038551D01*
X179341129Y-86042935D01*
X179084592Y-86183968D01*
X179035247Y-86217755D01*
X178985409Y-86250867D01*
X178978309Y-86256741D01*
X178754051Y-86444916D01*
X178712207Y-86487646D01*
X178669751Y-86529806D01*
X178663927Y-86536947D01*
X178480491Y-86765097D01*
X178447744Y-86815139D01*
X178414286Y-86864742D01*
X178409960Y-86872879D01*
X178274330Y-87132313D01*
X178251918Y-87187785D01*
X178228740Y-87242923D01*
X178226077Y-87251745D01*
X178143422Y-87532583D01*
X178132224Y-87591284D01*
X178120184Y-87649940D01*
X178119285Y-87659112D01*
X178092753Y-87950656D01*
X158907100Y-87950656D01*
X158907247Y-87929712D01*
X158906348Y-87920541D01*
X158875748Y-87629395D01*
X158863710Y-87570753D01*
X158852510Y-87512037D01*
X158849847Y-87503216D01*
X158763279Y-87223560D01*
X158740101Y-87168422D01*
X158717689Y-87112950D01*
X158713362Y-87104814D01*
X158574123Y-86847298D01*
X158540701Y-86797749D01*
X158507920Y-86747653D01*
X158502095Y-86740512D01*
X158315490Y-86514945D01*
X158273054Y-86472804D01*
X158231191Y-86430055D01*
X158224091Y-86424181D01*
X157997227Y-86239155D01*
X157947408Y-86206055D01*
X157898045Y-86172256D01*
X157889939Y-86167873D01*
X157631458Y-86030436D01*
X157576164Y-86007645D01*
X157521171Y-85984075D01*
X157512368Y-85981350D01*
X157232114Y-85896736D01*
X157173429Y-85885116D01*
X157114921Y-85872680D01*
X157105758Y-85871717D01*
X157105756Y-85871717D01*
X156814404Y-85843150D01*
X156814402Y-85843150D01*
X156782419Y-85840000D01*
X149217581Y-85840000D01*
X149184116Y-85843296D01*
X149164651Y-85843296D01*
X149155486Y-85844259D01*
X148864561Y-85876892D01*
X148806044Y-85889331D01*
X148747371Y-85900948D01*
X148738568Y-85903673D01*
X148459523Y-85992191D01*
X148404588Y-86015737D01*
X148349235Y-86038551D01*
X148341129Y-86042935D01*
X148084592Y-86183968D01*
X148035247Y-86217755D01*
X147985409Y-86250867D01*
X147978309Y-86256741D01*
X147754051Y-86444916D01*
X147712207Y-86487646D01*
X147669751Y-86529806D01*
X147663927Y-86536947D01*
X147480491Y-86765097D01*
X147447744Y-86815139D01*
X147414286Y-86864742D01*
X147409960Y-86872879D01*
X147274330Y-87132313D01*
X147251918Y-87187785D01*
X147228740Y-87242923D01*
X147226077Y-87251745D01*
X147143422Y-87532583D01*
X147132224Y-87591284D01*
X147120184Y-87649940D01*
X147119285Y-87659112D01*
X147092753Y-87950656D01*
X132252750Y-87950656D01*
X132554510Y-87499042D01*
X132793070Y-86923105D01*
X132914687Y-86311695D01*
X132914687Y-85688305D01*
X132793070Y-85076895D01*
X132554510Y-84500958D01*
X132208173Y-83982629D01*
X131767371Y-83541827D01*
X131249042Y-83195490D01*
X130673105Y-82956930D01*
X130061695Y-82835313D01*
X129438305Y-82835313D01*
X128826895Y-82956930D01*
X128250958Y-83195490D01*
X127732629Y-83541827D01*
X127291827Y-83982629D01*
X126945490Y-84500958D01*
X126706930Y-85076895D01*
X126585313Y-85688305D01*
X120410000Y-85688305D01*
X120410000Y-83032279D01*
X120457670Y-82546107D01*
X120589489Y-82109502D01*
X120803600Y-81706815D01*
X121091848Y-81353388D01*
X121443261Y-81062673D01*
X121844439Y-80845758D01*
X122280113Y-80710894D01*
X122764344Y-80660000D01*
X139975121Y-80660000D01*
X140461293Y-80707670D01*
G04 #@! TA.AperFunction,NonConductor*
D11*
G36*
X140461293Y-80707670D02*
G01*
X140897898Y-80839489D01*
X141300585Y-81053600D01*
X141678174Y-81361554D01*
X142151534Y-81834915D01*
X142155409Y-81838830D01*
X142162826Y-81846222D01*
X142162909Y-81846290D01*
X142177533Y-81860914D01*
X142198013Y-81877721D01*
X142204457Y-81884302D01*
X142211557Y-81890176D01*
X142665286Y-82260228D01*
X142715079Y-82293310D01*
X142764468Y-82327128D01*
X142772574Y-82331510D01*
X143289537Y-82606385D01*
X143344864Y-82629189D01*
X143399824Y-82652745D01*
X143408628Y-82655470D01*
X143969137Y-82824697D01*
X144027817Y-82836316D01*
X144086327Y-82848753D01*
X144095492Y-82849716D01*
X144678194Y-82906851D01*
X144678208Y-82906851D01*
X144710181Y-82910000D01*
X235717721Y-82910000D01*
X236203893Y-82957670D01*
X236640498Y-83089489D01*
X237043185Y-83303600D01*
X237396612Y-83591848D01*
X237687327Y-83943261D01*
X237904242Y-84344439D01*
X238039106Y-84780113D01*
X238090000Y-85264344D01*
X238090001Y-121717711D01*
X238042330Y-122203894D01*
X237910512Y-122640497D01*
X237696399Y-123043186D01*
X237408150Y-123396613D01*
X237056739Y-123687327D01*
X236655564Y-123904240D01*
X236219886Y-124039106D01*
X235735664Y-124090000D01*
X156536181Y-124090000D01*
X156517691Y-124091821D01*
X156194637Y-124110015D01*
X156148988Y-124117101D01*
X156103022Y-124121646D01*
X156093997Y-124123506D01*
X155521393Y-124245708D01*
X155464384Y-124263844D01*
X155407138Y-124281179D01*
X155398646Y-124284757D01*
X154860684Y-124515850D01*
X154808264Y-124544724D01*
X154755493Y-124572838D01*
X154747858Y-124577997D01*
X154265028Y-124909180D01*
X154219237Y-124947667D01*
X154172910Y-124985514D01*
X154166423Y-124992058D01*
X153757114Y-125410716D01*
X153719659Y-125457379D01*
X153681577Y-125503489D01*
X153676484Y-125511169D01*
X153392002Y-125946682D01*
X153391969Y-125946715D01*
X153338649Y-126028265D01*
X140021178Y-151553420D01*
X139753790Y-151962767D01*
X139434961Y-152288883D01*
X139058868Y-152546855D01*
X138639821Y-152726868D01*
X138180313Y-152824934D01*
X137912822Y-152840000D01*
X102782279Y-152840000D01*
X102296106Y-152792330D01*
X101859503Y-152660512D01*
X101456814Y-152446399D01*
X101103387Y-152158150D01*
X100812673Y-151806739D01*
X100595760Y-151405564D01*
X100460894Y-150969886D01*
X100410000Y-150485664D01*
X100410000Y-145688305D01*
X106585313Y-145688305D01*
X106585313Y-146311695D01*
X106706930Y-146923105D01*
X106945490Y-147499042D01*
X107291827Y-148017371D01*
X107732629Y-148458173D01*
X108250958Y-148804510D01*
X108826895Y-149043070D01*
X109438305Y-149164687D01*
X110061695Y-149164687D01*
X110673105Y-149043070D01*
X111249042Y-148804510D01*
X111767371Y-148458173D01*
X112208173Y-148017371D01*
X112554510Y-147499042D01*
X112793070Y-146923105D01*
X112914687Y-146311695D01*
X112914687Y-145688305D01*
X112793070Y-145076895D01*
X112554510Y-144500958D01*
X112208173Y-143982629D01*
X111767371Y-143541827D01*
X111249042Y-143195490D01*
X110673105Y-142956930D01*
X110061695Y-142835313D01*
X109438305Y-142835313D01*
X108826895Y-142956930D01*
X108250958Y-143195490D01*
X107732629Y-143541827D01*
X107291827Y-143982629D01*
X106945490Y-144500958D01*
X106706930Y-145076895D01*
X106585313Y-145688305D01*
X100410000Y-145688305D01*
X100410000Y-125688305D01*
X106585313Y-125688305D01*
X106585313Y-126311695D01*
X106706930Y-126923105D01*
X106945490Y-127499042D01*
X107291827Y-128017371D01*
X107732629Y-128458173D01*
X108250958Y-128804510D01*
X108826895Y-129043070D01*
X109438305Y-129164687D01*
X110061695Y-129164687D01*
X110673105Y-129043070D01*
X111249042Y-128804510D01*
X111767371Y-128458173D01*
X112208173Y-128017371D01*
X112241441Y-127967582D01*
X125340000Y-127967582D01*
X125340001Y-144032419D01*
X125342783Y-144060664D01*
X125342740Y-144066801D01*
X125343640Y-144075972D01*
X125364041Y-144270069D01*
X125376068Y-144328658D01*
X125387277Y-144387423D01*
X125389941Y-144396245D01*
X125447653Y-144582683D01*
X125470838Y-144637838D01*
X125493242Y-144693291D01*
X125497568Y-144701427D01*
X125590393Y-144873104D01*
X125623846Y-144922699D01*
X125656600Y-144972753D01*
X125662424Y-144979894D01*
X125786828Y-145130272D01*
X125829263Y-145172411D01*
X125871126Y-145215161D01*
X125878227Y-145221034D01*
X126029469Y-145344384D01*
X126079277Y-145377477D01*
X126128651Y-145411284D01*
X126136757Y-145415667D01*
X126309080Y-145507292D01*
X126364392Y-145530090D01*
X126419366Y-145553652D01*
X126428169Y-145556377D01*
X126615006Y-145612786D01*
X126673686Y-145624405D01*
X126732196Y-145636842D01*
X126741361Y-145637805D01*
X126935594Y-145656850D01*
X126935598Y-145656850D01*
X126967581Y-145660000D01*
X132532419Y-145660000D01*
X132560674Y-145657217D01*
X132566801Y-145657260D01*
X132575972Y-145656360D01*
X132770069Y-145635959D01*
X132828658Y-145623932D01*
X132887423Y-145612723D01*
X132896245Y-145610059D01*
X133082683Y-145552347D01*
X133137838Y-145529162D01*
X133193291Y-145506758D01*
X133201427Y-145502432D01*
X133373104Y-145409607D01*
X133422699Y-145376154D01*
X133472753Y-145343400D01*
X133479894Y-145337576D01*
X133630272Y-145213172D01*
X133672411Y-145170737D01*
X133715161Y-145128874D01*
X133721034Y-145121773D01*
X133844384Y-144970531D01*
X133877477Y-144920723D01*
X133911284Y-144871349D01*
X133915667Y-144863243D01*
X134007292Y-144690920D01*
X134030090Y-144635608D01*
X134053652Y-144580634D01*
X134056377Y-144571831D01*
X134112786Y-144384994D01*
X134124405Y-144326314D01*
X134136842Y-144267804D01*
X134137805Y-144258639D01*
X134156850Y-144064406D01*
X134156850Y-144064402D01*
X134160000Y-144032419D01*
X134160000Y-129536323D01*
X145330497Y-129536323D01*
X145330497Y-129963677D01*
X145413870Y-130382821D01*
X145577412Y-130777645D01*
X145814837Y-131132977D01*
X146117023Y-131435163D01*
X146472355Y-131672588D01*
X146867179Y-131836130D01*
X147286323Y-131919503D01*
X147713677Y-131919503D01*
X148132821Y-131836130D01*
X148527645Y-131672588D01*
X148882977Y-131435163D01*
X149185163Y-131132977D01*
X149422588Y-130777645D01*
X149586130Y-130382821D01*
X149669503Y-129963677D01*
X149669503Y-129536323D01*
X149586130Y-129117179D01*
X149422588Y-128722355D01*
X149185163Y-128367023D01*
X148882977Y-128064837D01*
X148527645Y-127827412D01*
X148132821Y-127663870D01*
X147713677Y-127580497D01*
X147286323Y-127580497D01*
X146867179Y-127663870D01*
X146472355Y-127827412D01*
X146117023Y-128064837D01*
X145814837Y-128367023D01*
X145577412Y-128722355D01*
X145413870Y-129117179D01*
X145330497Y-129536323D01*
X134160000Y-129536323D01*
X134160000Y-127967581D01*
X134157217Y-127939326D01*
X134157260Y-127933199D01*
X134156360Y-127924028D01*
X134135959Y-127729931D01*
X134123934Y-127671348D01*
X134112723Y-127612577D01*
X134110059Y-127603755D01*
X134052347Y-127417317D01*
X134029162Y-127362162D01*
X134006758Y-127306709D01*
X134002432Y-127298573D01*
X133909607Y-127126896D01*
X133876139Y-127077278D01*
X133843400Y-127027247D01*
X133837576Y-127020106D01*
X133713172Y-126869728D01*
X133670737Y-126827589D01*
X133628874Y-126784839D01*
X133621773Y-126778966D01*
X133470531Y-126655616D01*
X133420738Y-126622534D01*
X133371349Y-126588716D01*
X133363243Y-126584333D01*
X133190921Y-126492708D01*
X133135606Y-126469909D01*
X133080634Y-126446348D01*
X133071831Y-126443623D01*
X132884995Y-126387214D01*
X132826307Y-126375594D01*
X132767804Y-126363158D01*
X132758639Y-126362195D01*
X132564405Y-126343150D01*
X132564402Y-126343150D01*
X132532419Y-126340000D01*
X126967581Y-126340000D01*
X126939326Y-126342783D01*
X126933199Y-126342740D01*
X126924028Y-126343640D01*
X126729931Y-126364041D01*
X126671348Y-126376066D01*
X126612577Y-126387277D01*
X126603755Y-126389941D01*
X126417317Y-126447653D01*
X126362162Y-126470838D01*
X126306709Y-126493242D01*
X126298573Y-126497568D01*
X126126896Y-126590393D01*
X126077278Y-126623861D01*
X126027247Y-126656600D01*
X126020106Y-126662424D01*
X125869728Y-126786828D01*
X125827589Y-126829263D01*
X125784839Y-126871126D01*
X125778966Y-126878227D01*
X125655616Y-127029469D01*
X125622534Y-127079262D01*
X125588716Y-127128651D01*
X125584333Y-127136757D01*
X125492708Y-127309079D01*
X125469909Y-127364394D01*
X125446348Y-127419366D01*
X125443623Y-127428169D01*
X125387214Y-127615005D01*
X125375594Y-127673693D01*
X125363158Y-127732196D01*
X125362195Y-127741361D01*
X125343150Y-127935595D01*
X125340000Y-127967582D01*
X112241441Y-127967582D01*
X112554510Y-127499042D01*
X112793070Y-126923105D01*
X112914687Y-126311695D01*
X112914687Y-125688305D01*
X112793070Y-125076895D01*
X112554510Y-124500958D01*
X112208173Y-123982629D01*
X111767371Y-123541827D01*
X111249042Y-123195490D01*
X110673105Y-122956930D01*
X110061695Y-122835313D01*
X109438305Y-122835313D01*
X108826895Y-122956930D01*
X108250958Y-123195490D01*
X107732629Y-123541827D01*
X107291827Y-123982629D01*
X106945490Y-124500958D01*
X106706930Y-125076895D01*
X106585313Y-125688305D01*
X100410000Y-125688305D01*
X100410000Y-121532279D01*
X100457670Y-121046107D01*
X100589489Y-120609502D01*
X100803600Y-120206815D01*
X101091848Y-119853388D01*
X101443261Y-119562673D01*
X101844439Y-119345758D01*
X102280113Y-119210894D01*
X102764344Y-119160000D01*
X109782419Y-119160000D01*
X109792757Y-119158982D01*
X110398636Y-119139941D01*
X110429588Y-119137016D01*
X110460625Y-119135063D01*
X111706531Y-118977669D01*
X111706533Y-118977669D01*
X111787949Y-118962138D01*
X111832668Y-118950656D01*
X147092753Y-118950656D01*
X147093171Y-119010472D01*
X147092753Y-119070288D01*
X147093652Y-119079460D01*
X147124252Y-119370605D01*
X147136283Y-119429217D01*
X147147489Y-119487963D01*
X147150153Y-119496784D01*
X147236721Y-119776440D01*
X147259899Y-119831578D01*
X147282311Y-119887050D01*
X147286638Y-119895186D01*
X147425877Y-120152702D01*
X147459304Y-120202259D01*
X147492080Y-120252347D01*
X147497905Y-120259488D01*
X147684510Y-120485056D01*
X147726965Y-120527215D01*
X147768809Y-120569945D01*
X147775909Y-120575819D01*
X148002773Y-120760845D01*
X148052566Y-120793927D01*
X148101955Y-120827745D01*
X148110061Y-120832127D01*
X148368542Y-120969564D01*
X148423836Y-120992355D01*
X148478829Y-121015925D01*
X148487632Y-121018650D01*
X148767887Y-121103264D01*
X148826564Y-121114882D01*
X148885079Y-121127320D01*
X148894242Y-121128283D01*
X148894244Y-121128283D01*
X149185596Y-121156850D01*
X149185598Y-121156850D01*
X149217581Y-121160000D01*
X156782419Y-121160000D01*
X156815884Y-121156704D01*
X156835349Y-121156704D01*
X156844514Y-121155741D01*
X157135438Y-121123108D01*
X157193941Y-121110672D01*
X157252629Y-121099052D01*
X157261432Y-121096327D01*
X157540476Y-121007809D01*
X157595412Y-120984263D01*
X157650764Y-120961449D01*
X157658870Y-120957065D01*
X157915408Y-120816032D01*
X157964753Y-120782245D01*
X158014591Y-120749133D01*
X158021691Y-120743259D01*
X158245949Y-120555084D01*
X158287793Y-120512354D01*
X158330248Y-120470195D01*
X158336072Y-120463053D01*
X158519509Y-120234903D01*
X158552251Y-120184869D01*
X158585714Y-120135258D01*
X158590040Y-120127122D01*
X158725670Y-119867687D01*
X158748082Y-119812215D01*
X158771260Y-119757077D01*
X158773923Y-119748255D01*
X158856578Y-119467417D01*
X158867785Y-119408669D01*
X158879816Y-119350059D01*
X158880715Y-119340888D01*
X158907247Y-119049344D01*
X158906829Y-118989528D01*
X158907100Y-118950656D01*
X178092753Y-118950656D01*
X178093171Y-119010472D01*
X178092753Y-119070288D01*
X178093652Y-119079460D01*
X178124252Y-119370605D01*
X178136283Y-119429217D01*
X178147489Y-119487963D01*
X178150153Y-119496784D01*
X178236721Y-119776440D01*
X178259899Y-119831578D01*
X178282311Y-119887050D01*
X178286638Y-119895186D01*
X178425877Y-120152702D01*
X178459304Y-120202259D01*
X178492080Y-120252347D01*
X178497905Y-120259488D01*
X178684510Y-120485056D01*
X178726965Y-120527215D01*
X178768809Y-120569945D01*
X178775909Y-120575819D01*
X179002773Y-120760845D01*
X179052566Y-120793927D01*
X179101955Y-120827745D01*
X179110061Y-120832127D01*
X179368542Y-120969564D01*
X179423836Y-120992355D01*
X179478829Y-121015925D01*
X179487632Y-121018650D01*
X179767887Y-121103264D01*
X179826564Y-121114882D01*
X179885079Y-121127320D01*
X179894242Y-121128283D01*
X179894244Y-121128283D01*
X180185596Y-121156850D01*
X180185598Y-121156850D01*
X180217581Y-121160000D01*
X187782419Y-121160000D01*
X187815884Y-121156704D01*
X187835349Y-121156704D01*
X187844514Y-121155741D01*
X188135438Y-121123108D01*
X188193941Y-121110672D01*
X188252629Y-121099052D01*
X188261432Y-121096327D01*
X188540476Y-121007809D01*
X188595412Y-120984263D01*
X188650764Y-120961449D01*
X188658870Y-120957065D01*
X188915408Y-120816032D01*
X188964753Y-120782245D01*
X189014591Y-120749133D01*
X189021691Y-120743259D01*
X189245949Y-120555084D01*
X189287793Y-120512354D01*
X189330248Y-120470195D01*
X189336072Y-120463053D01*
X189519509Y-120234903D01*
X189552251Y-120184869D01*
X189585714Y-120135258D01*
X189590040Y-120127122D01*
X189725670Y-119867687D01*
X189748082Y-119812215D01*
X189771260Y-119757077D01*
X189773923Y-119748255D01*
X189836297Y-119536323D01*
X226580497Y-119536323D01*
X226580497Y-119963677D01*
X226663870Y-120382821D01*
X226827412Y-120777645D01*
X227064837Y-121132977D01*
X227367023Y-121435163D01*
X227722355Y-121672588D01*
X228117179Y-121836130D01*
X228536323Y-121919503D01*
X228963677Y-121919503D01*
X229382821Y-121836130D01*
X229777645Y-121672588D01*
X230132977Y-121435163D01*
X230435163Y-121132977D01*
X230672588Y-120777645D01*
X230836130Y-120382821D01*
X230919503Y-119963677D01*
X230919503Y-119536323D01*
X230836130Y-119117179D01*
X230672588Y-118722355D01*
X230435163Y-118367023D01*
X230132977Y-118064837D01*
X229777645Y-117827412D01*
X229382821Y-117663870D01*
X228963677Y-117580497D01*
X228536323Y-117580497D01*
X228117179Y-117663870D01*
X227722355Y-117827412D01*
X227367023Y-118064837D01*
X227064837Y-118367023D01*
X226827412Y-118722355D01*
X226663870Y-119117179D01*
X226580497Y-119536323D01*
X189836297Y-119536323D01*
X189856578Y-119467417D01*
X189867785Y-119408669D01*
X189879816Y-119350059D01*
X189880715Y-119340888D01*
X189907247Y-119049344D01*
X189906829Y-118989528D01*
X189907247Y-118929712D01*
X189906348Y-118920541D01*
X189875748Y-118629395D01*
X189863710Y-118570753D01*
X189852510Y-118512037D01*
X189849847Y-118503216D01*
X189763279Y-118223560D01*
X189740101Y-118168422D01*
X189717689Y-118112950D01*
X189713362Y-118104814D01*
X189574123Y-117847298D01*
X189540701Y-117797749D01*
X189507920Y-117747653D01*
X189502095Y-117740512D01*
X189315490Y-117514945D01*
X189273054Y-117472804D01*
X189231191Y-117430055D01*
X189224091Y-117424181D01*
X188997227Y-117239155D01*
X188947408Y-117206055D01*
X188898045Y-117172256D01*
X188889939Y-117167873D01*
X188631458Y-117030436D01*
X188576164Y-117007645D01*
X188521171Y-116984075D01*
X188512368Y-116981350D01*
X188232114Y-116896736D01*
X188173429Y-116885116D01*
X188114921Y-116872680D01*
X188105758Y-116871717D01*
X188105756Y-116871717D01*
X187814404Y-116843150D01*
X187814402Y-116843150D01*
X187782419Y-116840000D01*
X180217581Y-116840000D01*
X180184116Y-116843296D01*
X180164651Y-116843296D01*
X180155486Y-116844259D01*
X179864561Y-116876892D01*
X179806044Y-116889331D01*
X179747371Y-116900948D01*
X179738568Y-116903673D01*
X179459523Y-116992191D01*
X179404588Y-117015737D01*
X179349235Y-117038551D01*
X179341129Y-117042935D01*
X179084592Y-117183968D01*
X179035247Y-117217755D01*
X178985409Y-117250867D01*
X178978309Y-117256741D01*
X178754051Y-117444916D01*
X178712207Y-117487646D01*
X178669751Y-117529806D01*
X178663927Y-117536947D01*
X178480491Y-117765097D01*
X178447744Y-117815139D01*
X178414286Y-117864742D01*
X178409960Y-117872879D01*
X178274330Y-118132313D01*
X178251918Y-118187785D01*
X178228740Y-118242923D01*
X178226077Y-118251745D01*
X178143422Y-118532583D01*
X178132224Y-118591284D01*
X178120184Y-118649940D01*
X178119285Y-118659112D01*
X178092753Y-118950656D01*
X158907100Y-118950656D01*
X158907247Y-118929712D01*
X158906348Y-118920541D01*
X158875748Y-118629395D01*
X158863710Y-118570753D01*
X158852510Y-118512037D01*
X158849847Y-118503216D01*
X158763279Y-118223560D01*
X158740101Y-118168422D01*
X158717689Y-118112950D01*
X158713362Y-118104814D01*
X158574123Y-117847298D01*
X158540701Y-117797749D01*
X158507920Y-117747653D01*
X158502095Y-117740512D01*
X158315490Y-117514945D01*
X158273054Y-117472804D01*
X158231191Y-117430055D01*
X158224091Y-117424181D01*
X157997227Y-117239155D01*
X157947408Y-117206055D01*
X157898045Y-117172256D01*
X157889939Y-117167873D01*
X157631458Y-117030436D01*
X157576164Y-117007645D01*
X157521171Y-116984075D01*
X157512368Y-116981350D01*
X157232114Y-116896736D01*
X157173429Y-116885116D01*
X157114921Y-116872680D01*
X157105758Y-116871717D01*
X157105756Y-116871717D01*
X156814404Y-116843150D01*
X156814402Y-116843150D01*
X156782419Y-116840000D01*
X149217581Y-116840000D01*
X149184116Y-116843296D01*
X149164651Y-116843296D01*
X149155486Y-116844259D01*
X148864561Y-116876892D01*
X148806044Y-116889331D01*
X148747371Y-116900948D01*
X148738568Y-116903673D01*
X148459523Y-116992191D01*
X148404588Y-117015737D01*
X148349235Y-117038551D01*
X148341129Y-117042935D01*
X148084592Y-117183968D01*
X148035247Y-117217755D01*
X147985409Y-117250867D01*
X147978309Y-117256741D01*
X147754051Y-117444916D01*
X147712207Y-117487646D01*
X147669751Y-117529806D01*
X147663927Y-117536947D01*
X147480491Y-117765097D01*
X147447744Y-117815139D01*
X147414286Y-117864742D01*
X147409960Y-117872879D01*
X147274330Y-118132313D01*
X147251918Y-118187785D01*
X147228740Y-118242923D01*
X147226077Y-118251745D01*
X147143422Y-118532583D01*
X147132224Y-118591284D01*
X147120184Y-118649940D01*
X147119285Y-118659112D01*
X147092753Y-118950656D01*
X111832668Y-118950656D01*
X113004306Y-118649830D01*
X113083133Y-118624218D01*
X113083138Y-118624216D01*
X114250750Y-118161926D01*
X114250756Y-118161924D01*
X114288561Y-118144134D01*
X114325750Y-118126634D01*
X114325755Y-118126631D01*
X115426213Y-117521648D01*
X115426226Y-117521642D01*
X115469037Y-117494472D01*
X115496207Y-117477230D01*
X115496214Y-117477224D01*
X116512179Y-116739083D01*
X116576042Y-116686251D01*
X116576049Y-116686243D01*
X117491478Y-115826598D01*
X117491487Y-115826591D01*
X117548225Y-115766171D01*
X118026277Y-115188305D01*
X126585313Y-115188305D01*
X126585313Y-115811695D01*
X126706930Y-116423105D01*
X126945490Y-116999042D01*
X127291827Y-117517371D01*
X127732629Y-117958173D01*
X128250958Y-118304510D01*
X128826895Y-118543070D01*
X129438305Y-118664687D01*
X130061695Y-118664687D01*
X130673105Y-118543070D01*
X131249042Y-118304510D01*
X131767371Y-117958173D01*
X132208173Y-117517371D01*
X132554510Y-116999042D01*
X132793070Y-116423105D01*
X132914687Y-115811695D01*
X132914687Y-115188305D01*
X132793070Y-114576895D01*
X132554510Y-114000958D01*
X132208173Y-113482629D01*
X131767371Y-113041827D01*
X131249042Y-112695490D01*
X130673105Y-112456930D01*
X130061695Y-112335313D01*
X129438305Y-112335313D01*
X128826895Y-112456930D01*
X128250958Y-112695490D01*
X127732629Y-113041827D01*
X127291827Y-113482629D01*
X126945490Y-114000958D01*
X126706930Y-114576895D01*
X126585313Y-115188305D01*
X118026277Y-115188305D01*
X118348701Y-114798562D01*
X118348709Y-114798553D01*
X118397426Y-114731499D01*
X119070319Y-113671190D01*
X119070324Y-113671183D01*
X119110253Y-113598551D01*
X119644951Y-112462261D01*
X119675463Y-112385197D01*
X119675467Y-112385182D01*
X120063524Y-111190864D01*
X120063530Y-111190850D01*
X120084142Y-111110570D01*
X120319457Y-109877003D01*
X120324100Y-109840248D01*
X120329845Y-109794774D01*
X120407967Y-108553060D01*
X120410000Y-108532419D01*
X120410000Y-103521721D01*
X153016149Y-103521721D01*
X153016339Y-103557988D01*
X153016149Y-103594256D01*
X153016565Y-103601154D01*
X153103743Y-104931232D01*
X153108287Y-104967198D01*
X153112457Y-105003241D01*
X153113699Y-105010040D01*
X153360036Y-106320009D01*
X153368864Y-106355157D01*
X153377338Y-106390451D01*
X153379387Y-106397051D01*
X153781317Y-107667941D01*
X153794308Y-107701783D01*
X153806956Y-107735792D01*
X153809784Y-107742098D01*
X154361483Y-108955497D01*
X154378448Y-108987538D01*
X154395088Y-109019777D01*
X154398653Y-109025698D01*
X155092130Y-110164028D01*
X155112827Y-110193808D01*
X155133213Y-110223805D01*
X155137455Y-110229243D01*
X155137463Y-110229255D01*
X155137472Y-110229265D01*
X155962672Y-111276028D01*
X155986822Y-111303133D01*
X156010641Y-111330437D01*
X156015515Y-111335337D01*
X156960504Y-112275390D01*
X156987662Y-112299333D01*
X157014661Y-112323643D01*
X157020088Y-112327921D01*
X158071169Y-113147640D01*
X158101071Y-113168191D01*
X158130730Y-113189036D01*
X158136632Y-113192632D01*
X159278577Y-113880139D01*
X159310725Y-113896945D01*
X159342681Y-113914080D01*
X159348972Y-113916940D01*
X160565242Y-114462278D01*
X160599163Y-114475096D01*
X160632959Y-114488272D01*
X160639543Y-114490354D01*
X160639548Y-114490356D01*
X160639553Y-114490357D01*
X161912525Y-114885625D01*
X161947728Y-114894272D01*
X161982874Y-114903296D01*
X161989666Y-114904573D01*
X163300909Y-115144049D01*
X163336906Y-115148405D01*
X163372872Y-115153140D01*
X163379768Y-115153592D01*
X164697792Y-115233051D01*
X164717581Y-115235000D01*
X172282419Y-115235000D01*
X172284141Y-115234830D01*
X172369430Y-115234384D01*
X172387541Y-115233197D01*
X172405693Y-115233197D01*
X172412589Y-115232745D01*
X173742192Y-115138604D01*
X173778169Y-115133868D01*
X173814154Y-115129513D01*
X173820944Y-115128236D01*
X173820947Y-115128236D01*
X173820950Y-115128235D01*
X175129609Y-114875043D01*
X175164733Y-114866024D01*
X175199959Y-114857372D01*
X175206549Y-114855288D01*
X176475315Y-114446709D01*
X176509081Y-114433544D01*
X176543031Y-114420715D01*
X176549322Y-114417855D01*
X177759815Y-113859810D01*
X177791771Y-113842676D01*
X177823919Y-113825869D01*
X177829821Y-113822274D01*
X178018630Y-113705890D01*
X192092771Y-113705890D01*
X192093189Y-113765708D01*
X192092771Y-113825526D01*
X192093671Y-113834697D01*
X192139572Y-114271414D01*
X192151593Y-114329977D01*
X192162808Y-114388770D01*
X192165472Y-114397592D01*
X192295324Y-114817077D01*
X192318509Y-114872232D01*
X192340913Y-114927685D01*
X192345238Y-114935817D01*
X192345240Y-114935822D01*
X192345243Y-114935826D01*
X192554097Y-115322095D01*
X192587545Y-115371685D01*
X192620302Y-115421743D01*
X192626121Y-115428877D01*
X192626126Y-115428884D01*
X192626132Y-115428890D01*
X192906035Y-115767234D01*
X192948470Y-115809374D01*
X192990333Y-115852123D01*
X192997433Y-115857997D01*
X193337729Y-116135536D01*
X193387522Y-116168618D01*
X193436911Y-116202436D01*
X193445018Y-116206818D01*
X193832740Y-116412974D01*
X193888046Y-116435769D01*
X193943029Y-116459335D01*
X193951832Y-116462060D01*
X194372213Y-116588980D01*
X194430886Y-116600597D01*
X194489403Y-116613036D01*
X194498568Y-116613999D01*
X194935595Y-116656850D01*
X194935598Y-116656850D01*
X194967581Y-116660000D01*
X206532419Y-116660000D01*
X206534713Y-116659774D01*
X206536016Y-116659765D01*
X206554076Y-116657867D01*
X206566625Y-116656631D01*
X206595820Y-116656631D01*
X206604985Y-116655668D01*
X207041371Y-116606719D01*
X207099888Y-116594280D01*
X207158561Y-116582663D01*
X207167364Y-116579938D01*
X207585932Y-116447161D01*
X207640915Y-116423595D01*
X207696221Y-116400800D01*
X207704327Y-116396417D01*
X208089134Y-116184867D01*
X208138473Y-116151084D01*
X208188315Y-116117969D01*
X208195415Y-116112095D01*
X208531803Y-115829833D01*
X208573648Y-115787103D01*
X208616104Y-115744942D01*
X208621928Y-115737801D01*
X208897084Y-115395574D01*
X208929843Y-115345513D01*
X208963288Y-115295929D01*
X208967614Y-115287793D01*
X209171058Y-114898640D01*
X209193464Y-114843182D01*
X209216648Y-114788031D01*
X209219311Y-114779209D01*
X209343294Y-114357952D01*
X209354506Y-114299178D01*
X209366531Y-114240597D01*
X209367430Y-114231426D01*
X209407229Y-113794110D01*
X209406811Y-113734292D01*
X209407229Y-113674475D01*
X209406329Y-113665303D01*
X209360428Y-113228586D01*
X209348407Y-113170023D01*
X209337192Y-113111230D01*
X209334528Y-113102408D01*
X209204676Y-112682923D01*
X209181491Y-112627768D01*
X209159087Y-112572315D01*
X209154761Y-112564179D01*
X208945903Y-112177905D01*
X208912475Y-112128346D01*
X208879698Y-112078257D01*
X208873873Y-112071116D01*
X208593965Y-111732766D01*
X208551549Y-111690645D01*
X208509667Y-111647876D01*
X208502566Y-111642003D01*
X208162271Y-111364464D01*
X208112444Y-111331359D01*
X208063088Y-111297564D01*
X208054982Y-111293181D01*
X207667259Y-111087026D01*
X207611953Y-111064230D01*
X207556972Y-111040665D01*
X207548172Y-111037941D01*
X207548166Y-111037939D01*
X207127787Y-110911020D01*
X207069107Y-110899401D01*
X207010597Y-110886964D01*
X207001432Y-110886001D01*
X206564405Y-110843150D01*
X206564402Y-110843150D01*
X206532419Y-110840000D01*
X194967581Y-110840000D01*
X194965287Y-110840226D01*
X194963984Y-110840235D01*
X194945924Y-110842133D01*
X194933375Y-110843369D01*
X194904180Y-110843369D01*
X194895015Y-110844332D01*
X194458629Y-110893281D01*
X194400112Y-110905720D01*
X194341439Y-110917337D01*
X194332636Y-110920062D01*
X193914068Y-111052839D01*
X193859085Y-111076405D01*
X193803779Y-111099200D01*
X193795673Y-111103583D01*
X193410866Y-111315133D01*
X193361536Y-111348910D01*
X193311686Y-111382030D01*
X193304585Y-111387905D01*
X192968197Y-111670167D01*
X192926353Y-111712897D01*
X192883897Y-111755057D01*
X192878073Y-111762199D01*
X192602916Y-112104425D01*
X192570157Y-112154486D01*
X192536712Y-112204070D01*
X192532386Y-112212207D01*
X192328942Y-112601359D01*
X192306530Y-112656831D01*
X192283352Y-112711969D01*
X192280689Y-112720791D01*
X192156707Y-113142048D01*
X192145507Y-113200760D01*
X192133469Y-113259403D01*
X192132570Y-113268575D01*
X192092771Y-113705890D01*
X178018630Y-113705890D01*
X178964504Y-113122846D01*
X178994174Y-113101993D01*
X179024066Y-113081449D01*
X179029493Y-113077171D01*
X180071931Y-112246492D01*
X180098855Y-112222250D01*
X180126088Y-112198240D01*
X180130962Y-112193340D01*
X181066056Y-111243442D01*
X181089876Y-111216136D01*
X181114025Y-111189032D01*
X181118275Y-111183583D01*
X181932477Y-110128225D01*
X181952845Y-110098253D01*
X181973561Y-110068448D01*
X181977125Y-110062527D01*
X182658644Y-108916998D01*
X182675287Y-108884754D01*
X182692249Y-108852717D01*
X182695077Y-108846411D01*
X183234039Y-107627301D01*
X183246687Y-107593292D01*
X183259678Y-107559450D01*
X183261724Y-107552860D01*
X183261728Y-107552849D01*
X183261731Y-107552838D01*
X183266764Y-107536323D01*
X226580497Y-107536323D01*
X226580497Y-107963677D01*
X226663870Y-108382821D01*
X226827412Y-108777645D01*
X227064837Y-109132977D01*
X227367023Y-109435163D01*
X227722355Y-109672588D01*
X228117179Y-109836130D01*
X228536323Y-109919503D01*
X228963677Y-109919503D01*
X229382821Y-109836130D01*
X229777645Y-109672588D01*
X230132977Y-109435163D01*
X230435163Y-109132977D01*
X230672588Y-108777645D01*
X230836130Y-108382821D01*
X230919503Y-107963677D01*
X230919503Y-107536323D01*
X230836130Y-107117179D01*
X230672588Y-106722355D01*
X230435163Y-106367023D01*
X230132977Y-106064837D01*
X229777645Y-105827412D01*
X229382821Y-105663870D01*
X228963677Y-105580497D01*
X228536323Y-105580497D01*
X228117179Y-105663870D01*
X227722355Y-105827412D01*
X227367023Y-106064837D01*
X227064837Y-106367023D01*
X226827412Y-106722355D01*
X226663870Y-107117179D01*
X226580497Y-107536323D01*
X183266764Y-107536323D01*
X183650326Y-106277822D01*
X183658797Y-106242539D01*
X183667628Y-106207380D01*
X183668870Y-106200582D01*
X183901476Y-104888103D01*
X183905641Y-104852110D01*
X183910190Y-104816095D01*
X183910606Y-104809196D01*
X183983851Y-103478279D01*
X183983661Y-103442012D01*
X183983851Y-103405745D01*
X183983435Y-103398846D01*
X183896257Y-102068768D01*
X183891714Y-102032807D01*
X183887543Y-101996759D01*
X183886301Y-101989960D01*
X183639964Y-100679990D01*
X183631130Y-100644820D01*
X183622662Y-100609549D01*
X183620613Y-100602949D01*
X183218683Y-99332060D01*
X183205699Y-99298235D01*
X183193044Y-99264208D01*
X183190216Y-99257902D01*
X182638517Y-98044504D01*
X182621555Y-98012467D01*
X182604912Y-97980223D01*
X182601347Y-97974302D01*
X181907870Y-96835972D01*
X181887185Y-96806211D01*
X181866786Y-96776194D01*
X181862536Y-96770745D01*
X181037327Y-95723972D01*
X181013222Y-95696918D01*
X180989359Y-95669563D01*
X180984485Y-95664663D01*
X180039496Y-94724609D01*
X180012309Y-94700641D01*
X179985339Y-94676357D01*
X179979912Y-94672079D01*
X178928832Y-93852361D01*
X178898990Y-93831852D01*
X178869270Y-93810964D01*
X178863368Y-93807369D01*
X177721423Y-93119861D01*
X177689275Y-93103055D01*
X177657319Y-93085920D01*
X177651035Y-93083063D01*
X177651028Y-93083060D01*
X177651022Y-93083058D01*
X176434758Y-92537722D01*
X176400882Y-92524921D01*
X176367041Y-92511727D01*
X176360457Y-92509646D01*
X176360452Y-92509644D01*
X176360447Y-92509643D01*
X175087475Y-92114375D01*
X175052295Y-92105734D01*
X175017127Y-92096704D01*
X175010335Y-92095427D01*
X174686713Y-92036323D01*
X196580497Y-92036323D01*
X196580497Y-92463677D01*
X196663870Y-92882821D01*
X196827412Y-93277645D01*
X197064837Y-93632977D01*
X197367023Y-93935163D01*
X197722355Y-94172588D01*
X198117179Y-94336130D01*
X198536323Y-94419503D01*
X198963677Y-94419503D01*
X199382821Y-94336130D01*
X199777645Y-94172588D01*
X200132977Y-93935163D01*
X200435163Y-93632977D01*
X200672588Y-93277645D01*
X200836130Y-92882821D01*
X200919503Y-92463677D01*
X200919503Y-92036323D01*
X200900006Y-91938305D01*
X208085313Y-91938305D01*
X208085313Y-92561695D01*
X208206930Y-93173105D01*
X208445490Y-93749042D01*
X208791827Y-94267371D01*
X209232629Y-94708173D01*
X209750958Y-95054510D01*
X210326895Y-95293070D01*
X210938305Y-95414687D01*
X211561695Y-95414687D01*
X212173105Y-95293070D01*
X212749042Y-95054510D01*
X213267371Y-94708173D01*
X213708173Y-94267371D01*
X214054510Y-93749042D01*
X214293070Y-93173105D01*
X214414687Y-92561695D01*
X214414687Y-91938305D01*
X228085313Y-91938305D01*
X228085313Y-92561695D01*
X228206930Y-93173105D01*
X228445490Y-93749042D01*
X228791827Y-94267371D01*
X229232629Y-94708173D01*
X229750958Y-95054510D01*
X230326895Y-95293070D01*
X230938305Y-95414687D01*
X231561695Y-95414687D01*
X232173105Y-95293070D01*
X232749042Y-95054510D01*
X233267371Y-94708173D01*
X233708173Y-94267371D01*
X234054510Y-93749042D01*
X234293070Y-93173105D01*
X234414687Y-92561695D01*
X234414687Y-91938305D01*
X234293070Y-91326895D01*
X234054510Y-90750958D01*
X233708173Y-90232629D01*
X233267371Y-89791827D01*
X232749042Y-89445490D01*
X232173105Y-89206930D01*
X231561695Y-89085313D01*
X230938305Y-89085313D01*
X230326895Y-89206930D01*
X229750958Y-89445490D01*
X229232629Y-89791827D01*
X228791827Y-90232629D01*
X228445490Y-90750958D01*
X228206930Y-91326895D01*
X228085313Y-91938305D01*
X214414687Y-91938305D01*
X214293070Y-91326895D01*
X214054510Y-90750958D01*
X213708173Y-90232629D01*
X213267371Y-89791827D01*
X212749042Y-89445490D01*
X212173105Y-89206930D01*
X211561695Y-89085313D01*
X210938305Y-89085313D01*
X210326895Y-89206930D01*
X209750958Y-89445490D01*
X209232629Y-89791827D01*
X208791827Y-90232629D01*
X208445490Y-90750958D01*
X208206930Y-91326895D01*
X208085313Y-91938305D01*
X200900006Y-91938305D01*
X200836130Y-91617179D01*
X200672588Y-91222355D01*
X200435163Y-90867023D01*
X200132977Y-90564837D01*
X199777645Y-90327412D01*
X199382821Y-90163870D01*
X198963677Y-90080497D01*
X198536323Y-90080497D01*
X198117179Y-90163870D01*
X197722355Y-90327412D01*
X197367023Y-90564837D01*
X197064837Y-90867023D01*
X196827412Y-91222355D01*
X196663870Y-91617179D01*
X196580497Y-92036323D01*
X174686713Y-92036323D01*
X173699091Y-91855951D01*
X173663095Y-91851595D01*
X173627129Y-91846860D01*
X173620234Y-91846408D01*
X173620232Y-91846408D01*
X172302208Y-91766949D01*
X172282419Y-91765000D01*
X164717581Y-91765000D01*
X164715859Y-91765170D01*
X164630571Y-91765616D01*
X164612460Y-91766803D01*
X164594308Y-91766803D01*
X164587412Y-91767255D01*
X163257808Y-91861396D01*
X163221848Y-91866130D01*
X163185845Y-91870487D01*
X163179053Y-91871764D01*
X161870391Y-92124957D01*
X161835267Y-92133976D01*
X161800041Y-92142628D01*
X161793452Y-92144712D01*
X160524685Y-92553291D01*
X160490909Y-92566459D01*
X160456970Y-92579284D01*
X160450684Y-92582142D01*
X160450677Y-92582145D01*
X160450671Y-92582148D01*
X159240185Y-93140189D01*
X159208188Y-93157346D01*
X159176081Y-93174131D01*
X159170179Y-93177726D01*
X158035496Y-93877154D01*
X158005861Y-93897982D01*
X157975934Y-93918550D01*
X157970507Y-93922829D01*
X156928069Y-94753508D01*
X156901145Y-94777750D01*
X156873912Y-94801760D01*
X156869038Y-94806660D01*
X155933944Y-95756558D01*
X155910105Y-95783885D01*
X155885975Y-95810968D01*
X155881731Y-95816410D01*
X155881726Y-95816416D01*
X155881725Y-95816418D01*
X155067523Y-96871775D01*
X155047155Y-96901747D01*
X155026439Y-96931552D01*
X155022875Y-96937473D01*
X154341356Y-98083002D01*
X154324723Y-98115228D01*
X154307751Y-98147283D01*
X154304923Y-98153589D01*
X153765961Y-99372698D01*
X153753330Y-99406663D01*
X153740322Y-99440550D01*
X153738273Y-99447151D01*
X153349674Y-100722178D01*
X153341208Y-100757439D01*
X153332372Y-100792619D01*
X153331130Y-100799418D01*
X153098524Y-102111896D01*
X153094359Y-102147896D01*
X153089810Y-102183905D01*
X153089394Y-102190804D01*
X153016149Y-103521721D01*
X120410000Y-103521721D01*
X120410000Y-100536323D01*
X127580497Y-100536323D01*
X127580497Y-100963677D01*
X127663870Y-101382821D01*
X127827412Y-101777645D01*
X128064837Y-102132977D01*
X128367023Y-102435163D01*
X128722355Y-102672588D01*
X129117179Y-102836130D01*
X129536323Y-102919503D01*
X129963677Y-102919503D01*
X130382821Y-102836130D01*
X130777645Y-102672588D01*
X131132977Y-102435163D01*
X131435163Y-102132977D01*
X131672588Y-101777645D01*
X131836130Y-101382821D01*
X131919503Y-100963677D01*
X131919503Y-100536323D01*
X131836130Y-100117179D01*
X131672588Y-99722355D01*
X131435163Y-99367023D01*
X131132977Y-99064837D01*
X130777645Y-98827412D01*
X130382821Y-98663870D01*
X129963677Y-98580497D01*
X129536323Y-98580497D01*
X129117179Y-98663870D01*
X128722355Y-98827412D01*
X128367023Y-99064837D01*
X128064837Y-99367023D01*
X127827412Y-99722355D01*
X127663870Y-100117179D01*
X127580497Y-100536323D01*
X120410000Y-100536323D01*
X120410000Y-85688305D01*
X126585313Y-85688305D01*
X126585313Y-86311695D01*
X126706930Y-86923105D01*
X126945490Y-87499042D01*
X127291827Y-88017371D01*
X127732629Y-88458173D01*
X128250958Y-88804510D01*
X128826895Y-89043070D01*
X129438305Y-89164687D01*
X130061695Y-89164687D01*
X130673105Y-89043070D01*
X131249042Y-88804510D01*
X131767371Y-88458173D01*
X132208173Y-88017371D01*
X132252750Y-87950656D01*
X147092753Y-87950656D01*
X147093171Y-88010472D01*
X147092753Y-88070288D01*
X147093652Y-88079460D01*
X147124252Y-88370605D01*
X147136283Y-88429217D01*
X147147489Y-88487963D01*
X147150153Y-88496784D01*
X147236721Y-88776440D01*
X147259899Y-88831578D01*
X147282311Y-88887050D01*
X147286638Y-88895186D01*
X147425877Y-89152702D01*
X147459304Y-89202259D01*
X147492080Y-89252347D01*
X147497905Y-89259488D01*
X147684510Y-89485056D01*
X147726965Y-89527215D01*
X147768809Y-89569945D01*
X147775909Y-89575819D01*
X148002773Y-89760845D01*
X148052566Y-89793927D01*
X148101955Y-89827745D01*
X148110061Y-89832127D01*
X148368542Y-89969564D01*
X148423836Y-89992355D01*
X148478829Y-90015925D01*
X148487632Y-90018650D01*
X148767887Y-90103264D01*
X148826564Y-90114882D01*
X148885079Y-90127320D01*
X148894242Y-90128283D01*
X148894244Y-90128283D01*
X149185596Y-90156850D01*
X149185598Y-90156850D01*
X149217581Y-90160000D01*
X156782419Y-90160000D01*
X156815884Y-90156704D01*
X156835349Y-90156704D01*
X156844514Y-90155741D01*
X157135438Y-90123108D01*
X157193941Y-90110672D01*
X157252629Y-90099052D01*
X157261432Y-90096327D01*
X157540476Y-90007809D01*
X157595412Y-89984263D01*
X157650764Y-89961449D01*
X157658870Y-89957065D01*
X157915408Y-89816032D01*
X157964753Y-89782245D01*
X158014591Y-89749133D01*
X158021691Y-89743259D01*
X158245949Y-89555084D01*
X158287793Y-89512354D01*
X158330248Y-89470195D01*
X158336072Y-89463053D01*
X158519509Y-89234903D01*
X158552251Y-89184869D01*
X158585714Y-89135258D01*
X158590040Y-89127122D01*
X158725670Y-88867687D01*
X158748082Y-88812215D01*
X158771260Y-88757077D01*
X158773923Y-88748255D01*
X158856578Y-88467417D01*
X158867785Y-88408669D01*
X158879816Y-88350059D01*
X158880715Y-88340888D01*
X158907247Y-88049344D01*
X158906829Y-87989528D01*
X158907100Y-87950656D01*
X178092753Y-87950656D01*
X178093171Y-88010472D01*
X178092753Y-88070288D01*
X178093652Y-88079460D01*
X178124252Y-88370605D01*
X178136283Y-88429217D01*
X178147489Y-88487963D01*
X178150153Y-88496784D01*
X178236721Y-88776440D01*
X178259899Y-88831578D01*
X178282311Y-88887050D01*
X178286638Y-88895186D01*
X178425877Y-89152702D01*
X178459304Y-89202259D01*
X178492080Y-89252347D01*
X178497905Y-89259488D01*
X178684510Y-89485056D01*
X178726965Y-89527215D01*
X178768809Y-89569945D01*
X178775909Y-89575819D01*
X179002773Y-89760845D01*
X179052566Y-89793927D01*
X179101955Y-89827745D01*
X179110061Y-89832127D01*
X179368542Y-89969564D01*
X179423836Y-89992355D01*
X179478829Y-90015925D01*
X179487632Y-90018650D01*
X179767887Y-90103264D01*
X179826564Y-90114882D01*
X179885079Y-90127320D01*
X179894242Y-90128283D01*
X179894244Y-90128283D01*
X180185596Y-90156850D01*
X180185598Y-90156850D01*
X180217581Y-90160000D01*
X187782419Y-90160000D01*
X187815884Y-90156704D01*
X187835349Y-90156704D01*
X187844514Y-90155741D01*
X188135438Y-90123108D01*
X188193941Y-90110672D01*
X188252629Y-90099052D01*
X188261432Y-90096327D01*
X188540476Y-90007809D01*
X188595412Y-89984263D01*
X188650764Y-89961449D01*
X188658870Y-89957065D01*
X188915408Y-89816032D01*
X188964753Y-89782245D01*
X189014591Y-89749133D01*
X189021691Y-89743259D01*
X189245949Y-89555084D01*
X189287793Y-89512354D01*
X189330248Y-89470195D01*
X189336072Y-89463053D01*
X189519509Y-89234903D01*
X189552251Y-89184869D01*
X189585714Y-89135258D01*
X189590040Y-89127122D01*
X189725670Y-88867687D01*
X189748082Y-88812215D01*
X189771260Y-88757077D01*
X189773923Y-88748255D01*
X189856578Y-88467417D01*
X189867785Y-88408669D01*
X189879816Y-88350059D01*
X189880715Y-88340888D01*
X189907247Y-88049344D01*
X189906829Y-87989528D01*
X189907247Y-87929712D01*
X189906348Y-87920541D01*
X189875748Y-87629395D01*
X189863710Y-87570753D01*
X189852510Y-87512037D01*
X189849847Y-87503216D01*
X189763279Y-87223560D01*
X189740101Y-87168422D01*
X189717689Y-87112950D01*
X189713362Y-87104814D01*
X189574123Y-86847298D01*
X189540701Y-86797749D01*
X189507920Y-86747653D01*
X189502095Y-86740512D01*
X189315490Y-86514945D01*
X189273054Y-86472804D01*
X189231191Y-86430055D01*
X189224091Y-86424181D01*
X188997227Y-86239155D01*
X188947408Y-86206055D01*
X188898045Y-86172256D01*
X188889939Y-86167873D01*
X188631458Y-86030436D01*
X188576164Y-86007645D01*
X188521171Y-85984075D01*
X188512368Y-85981350D01*
X188232114Y-85896736D01*
X188173429Y-85885116D01*
X188114921Y-85872680D01*
X188105758Y-85871717D01*
X188105756Y-85871717D01*
X187814404Y-85843150D01*
X187814402Y-85843150D01*
X187782419Y-85840000D01*
X180217581Y-85840000D01*
X180184116Y-85843296D01*
X180164651Y-85843296D01*
X180155486Y-85844259D01*
X179864561Y-85876892D01*
X179806044Y-85889331D01*
X179747371Y-85900948D01*
X179738568Y-85903673D01*
X179459523Y-85992191D01*
X179404588Y-86015737D01*
X179349235Y-86038551D01*
X179341129Y-86042935D01*
X179084592Y-86183968D01*
X179035247Y-86217755D01*
X178985409Y-86250867D01*
X178978309Y-86256741D01*
X178754051Y-86444916D01*
X178712207Y-86487646D01*
X178669751Y-86529806D01*
X178663927Y-86536947D01*
X178480491Y-86765097D01*
X178447744Y-86815139D01*
X178414286Y-86864742D01*
X178409960Y-86872879D01*
X178274330Y-87132313D01*
X178251918Y-87187785D01*
X178228740Y-87242923D01*
X178226077Y-87251745D01*
X178143422Y-87532583D01*
X178132224Y-87591284D01*
X178120184Y-87649940D01*
X178119285Y-87659112D01*
X178092753Y-87950656D01*
X158907100Y-87950656D01*
X158907247Y-87929712D01*
X158906348Y-87920541D01*
X158875748Y-87629395D01*
X158863710Y-87570753D01*
X158852510Y-87512037D01*
X158849847Y-87503216D01*
X158763279Y-87223560D01*
X158740101Y-87168422D01*
X158717689Y-87112950D01*
X158713362Y-87104814D01*
X158574123Y-86847298D01*
X158540701Y-86797749D01*
X158507920Y-86747653D01*
X158502095Y-86740512D01*
X158315490Y-86514945D01*
X158273054Y-86472804D01*
X158231191Y-86430055D01*
X158224091Y-86424181D01*
X157997227Y-86239155D01*
X157947408Y-86206055D01*
X157898045Y-86172256D01*
X157889939Y-86167873D01*
X157631458Y-86030436D01*
X157576164Y-86007645D01*
X157521171Y-85984075D01*
X157512368Y-85981350D01*
X157232114Y-85896736D01*
X157173429Y-85885116D01*
X157114921Y-85872680D01*
X157105758Y-85871717D01*
X157105756Y-85871717D01*
X156814404Y-85843150D01*
X156814402Y-85843150D01*
X156782419Y-85840000D01*
X149217581Y-85840000D01*
X149184116Y-85843296D01*
X149164651Y-85843296D01*
X149155486Y-85844259D01*
X148864561Y-85876892D01*
X148806044Y-85889331D01*
X148747371Y-85900948D01*
X148738568Y-85903673D01*
X148459523Y-85992191D01*
X148404588Y-86015737D01*
X148349235Y-86038551D01*
X148341129Y-86042935D01*
X148084592Y-86183968D01*
X148035247Y-86217755D01*
X147985409Y-86250867D01*
X147978309Y-86256741D01*
X147754051Y-86444916D01*
X147712207Y-86487646D01*
X147669751Y-86529806D01*
X147663927Y-86536947D01*
X147480491Y-86765097D01*
X147447744Y-86815139D01*
X147414286Y-86864742D01*
X147409960Y-86872879D01*
X147274330Y-87132313D01*
X147251918Y-87187785D01*
X147228740Y-87242923D01*
X147226077Y-87251745D01*
X147143422Y-87532583D01*
X147132224Y-87591284D01*
X147120184Y-87649940D01*
X147119285Y-87659112D01*
X147092753Y-87950656D01*
X132252750Y-87950656D01*
X132554510Y-87499042D01*
X132793070Y-86923105D01*
X132914687Y-86311695D01*
X132914687Y-85688305D01*
X132793070Y-85076895D01*
X132554510Y-84500958D01*
X132208173Y-83982629D01*
X131767371Y-83541827D01*
X131249042Y-83195490D01*
X130673105Y-82956930D01*
X130061695Y-82835313D01*
X129438305Y-82835313D01*
X128826895Y-82956930D01*
X128250958Y-83195490D01*
X127732629Y-83541827D01*
X127291827Y-83982629D01*
X126945490Y-84500958D01*
X126706930Y-85076895D01*
X126585313Y-85688305D01*
X120410000Y-85688305D01*
X120410000Y-83032279D01*
X120457670Y-82546107D01*
X120589489Y-82109502D01*
X120803600Y-81706815D01*
X121091848Y-81353388D01*
X121443261Y-81062673D01*
X121844439Y-80845758D01*
X122280113Y-80710894D01*
X122764344Y-80660000D01*
X139975121Y-80660000D01*
X140461293Y-80707670D01*
G37*
G04 #@! TD.AperFunction*
M02*
