%TF.GenerationSoftware,KiCad,Pcbnew,5.0.2+dfsg1-1*%
%TF.CreationDate,2022-03-26T23:49:25+09:00*%
%TF.ProjectId,pwm-esc-littlebee,70776d2d-6573-4632-9d6c-6974746c6562,rev?*%
%TF.SameCoordinates,Original*%
%TF.FileFunction,Profile,NP*%
%FSLAX46Y46*%
G04 Gerber Fmt 4.6, Leading zero omitted, Abs format (unit mm)*
G04 Created by KiCad (PCBNEW 5.0.2+dfsg1-1) date Sat 26 Mar 2022 11:49:25 PM JST*
%MOMM*%
%LPD*%
G01*
G04 APERTURE LIST*
%ADD10C,0.150000*%
G04 APERTURE END LIST*
D10*
X116840000Y-63246000D02*
X116840000Y-56388000D01*
X121666000Y-63754000D02*
X117348000Y-63754000D01*
X117348000Y-63754000D02*
G75*
G02X116840000Y-63246000I0J508000D01*
G01*
X122174000Y-64262000D02*
X122174000Y-75692000D01*
X116840000Y-76708000D02*
X116840000Y-83312000D01*
X117348000Y-76200000D02*
X121666000Y-76200000D01*
X116840000Y-76708000D02*
G75*
G02X117348000Y-76200000I508000J0D01*
G01*
X122174000Y-75692000D02*
G75*
G02X121666000Y-76200000I-508000J0D01*
G01*
X121666000Y-63754000D02*
G75*
G02X122174000Y-64262000I0J-508000D01*
G01*
X138430000Y-56388000D02*
X138430000Y-60706000D01*
X137922000Y-55880000D02*
G75*
G02X138430000Y-56388000I0J-508000D01*
G01*
X117348000Y-55880000D02*
X137922000Y-55880000D01*
X138938000Y-61214000D02*
X143764000Y-61214000D01*
X138938000Y-61214000D02*
G75*
G02X138430000Y-60706000I0J508000D01*
G01*
X143764000Y-61214000D02*
G75*
G02X144272000Y-61722000I0J-508000D01*
G01*
X139700000Y-79121000D02*
X139700000Y-83312000D01*
X140208000Y-78613000D02*
X143764000Y-78613000D01*
X144272000Y-78105000D02*
G75*
G02X143764000Y-78613000I-508000J0D01*
G01*
X139700000Y-79121000D02*
G75*
G02X140208000Y-78613000I508000J0D01*
G01*
X139700000Y-83312000D02*
G75*
G02X139192000Y-83820000I-508000J0D01*
G01*
X117348000Y-83820000D02*
X139192000Y-83820000D01*
X117348000Y-83820000D02*
G75*
G02X116840000Y-83312000I0J508000D01*
G01*
X116840000Y-56388000D02*
G75*
G02X117348000Y-55880000I508000J0D01*
G01*
X144780000Y-77597000D02*
X146304000Y-77597000D01*
X144907000Y-62357000D02*
X146304000Y-62357000D01*
X144272000Y-78105000D02*
G75*
G02X144780000Y-77597000I508000J0D01*
G01*
X144907000Y-62357000D02*
G75*
G02X144272000Y-61722000I0J635000D01*
G01*
X146812000Y-77089000D02*
X146812000Y-62865000D01*
X146304000Y-62357000D02*
G75*
G02X146812000Y-62865000I0J-508000D01*
G01*
X146812000Y-77089000D02*
G75*
G02X146304000Y-77597000I-508000J0D01*
G01*
X112000000Y-90000000D02*
G75*
G02X110000000Y-88000000I0J2000000D01*
G01*
X150000000Y-88000000D02*
G75*
G02X148000000Y-90000000I-2000000J0D01*
G01*
X148000000Y-50000000D02*
G75*
G02X150000000Y-52000000I0J-2000000D01*
G01*
X110000000Y-52000000D02*
G75*
G02X112000000Y-50000000I2000000J0D01*
G01*
X110000000Y-88000000D02*
X110000000Y-52000000D01*
X148000000Y-90000000D02*
X112000000Y-90000000D01*
X150000000Y-52000000D02*
X150000000Y-88000000D01*
X112000000Y-50000000D02*
X148000000Y-50000000D01*
M02*
