%TF.GenerationSoftware,KiCad,Pcbnew,5.0.2+dfsg1-1*%
%TF.CreationDate,2022-03-26T23:49:25+09:00*%
%TF.ProjectId,pwm-esc-littlebee,70776d2d-6573-4632-9d6c-6974746c6562,rev?*%
%TF.SameCoordinates,Original*%
%TF.FileFunction,Soldermask,Top*%
%TF.FilePolarity,Negative*%
%FSLAX46Y46*%
G04 Gerber Fmt 4.6, Leading zero omitted, Abs format (unit mm)*
G04 Created by KiCad (PCBNEW 5.0.2+dfsg1-1) date Sat 26 Mar 2022 11:49:25 PM JST*
%MOMM*%
%LPD*%
G01*
G04 APERTURE LIST*
%ADD10C,0.150000*%
%ADD11C,0.100000*%
G04 APERTURE END LIST*
D10*
X116840000Y-63246000D02*
X116840000Y-56388000D01*
X121666000Y-63754000D02*
X117348000Y-63754000D01*
X117348000Y-63754000D02*
G75*
G02X116840000Y-63246000I0J508000D01*
G01*
X122174000Y-64262000D02*
X122174000Y-75692000D01*
X116840000Y-76708000D02*
X116840000Y-83312000D01*
X117348000Y-76200000D02*
X121666000Y-76200000D01*
X116840000Y-76708000D02*
G75*
G02X117348000Y-76200000I508000J0D01*
G01*
X122174000Y-75692000D02*
G75*
G02X121666000Y-76200000I-508000J0D01*
G01*
X121666000Y-63754000D02*
G75*
G02X122174000Y-64262000I0J-508000D01*
G01*
X138430000Y-56388000D02*
X138430000Y-60706000D01*
X137922000Y-55880000D02*
G75*
G02X138430000Y-56388000I0J-508000D01*
G01*
X117348000Y-55880000D02*
X137922000Y-55880000D01*
X138938000Y-61214000D02*
X143764000Y-61214000D01*
X138938000Y-61214000D02*
G75*
G02X138430000Y-60706000I0J508000D01*
G01*
X143764000Y-61214000D02*
G75*
G02X144272000Y-61722000I0J-508000D01*
G01*
X139700000Y-79121000D02*
X139700000Y-83312000D01*
X140208000Y-78613000D02*
X143764000Y-78613000D01*
X144272000Y-78105000D02*
G75*
G02X143764000Y-78613000I-508000J0D01*
G01*
X139700000Y-79121000D02*
G75*
G02X140208000Y-78613000I508000J0D01*
G01*
X139700000Y-83312000D02*
G75*
G02X139192000Y-83820000I-508000J0D01*
G01*
X117348000Y-83820000D02*
X139192000Y-83820000D01*
X117348000Y-83820000D02*
G75*
G02X116840000Y-83312000I0J508000D01*
G01*
X116840000Y-56388000D02*
G75*
G02X117348000Y-55880000I508000J0D01*
G01*
X144780000Y-77597000D02*
X146304000Y-77597000D01*
X144907000Y-62357000D02*
X146304000Y-62357000D01*
X144272000Y-78105000D02*
G75*
G02X144780000Y-77597000I508000J0D01*
G01*
X144907000Y-62357000D02*
G75*
G02X144272000Y-61722000I0J635000D01*
G01*
X146812000Y-77089000D02*
X146812000Y-62865000D01*
X146304000Y-62357000D02*
G75*
G02X146812000Y-62865000I0J-508000D01*
G01*
X146812000Y-77089000D02*
G75*
G02X146304000Y-77597000I-508000J0D01*
G01*
X112000000Y-90000000D02*
G75*
G02X110000000Y-88000000I0J2000000D01*
G01*
X150000000Y-88000000D02*
G75*
G02X148000000Y-90000000I-2000000J0D01*
G01*
X148000000Y-50000000D02*
G75*
G02X150000000Y-52000000I0J-2000000D01*
G01*
X110000000Y-52000000D02*
G75*
G02X112000000Y-50000000I2000000J0D01*
G01*
X110000000Y-88000000D02*
X110000000Y-52000000D01*
X148000000Y-90000000D02*
X112000000Y-90000000D01*
X150000000Y-52000000D02*
X150000000Y-88000000D01*
X112000000Y-50000000D02*
X148000000Y-50000000D01*
D11*
G36*
X146889941Y-83066248D02*
X146889943Y-83066249D01*
X146889944Y-83066249D01*
X147445190Y-83296239D01*
X147445191Y-83296240D01*
X147944902Y-83630136D01*
X148369864Y-84055098D01*
X148369866Y-84055101D01*
X148703761Y-84554810D01*
X148933751Y-85110056D01*
X149051000Y-85699503D01*
X149051000Y-86300497D01*
X148933751Y-86889944D01*
X148703761Y-87445190D01*
X148703760Y-87445191D01*
X148369864Y-87944902D01*
X147944902Y-88369864D01*
X147944899Y-88369866D01*
X147445190Y-88703761D01*
X146889944Y-88933751D01*
X146889943Y-88933751D01*
X146889941Y-88933752D01*
X146300499Y-89051000D01*
X145699501Y-89051000D01*
X145110059Y-88933752D01*
X145110057Y-88933751D01*
X145110056Y-88933751D01*
X144554810Y-88703761D01*
X144055101Y-88369866D01*
X144055098Y-88369864D01*
X143630136Y-87944902D01*
X143296240Y-87445191D01*
X143296239Y-87445190D01*
X143066249Y-86889944D01*
X142949000Y-86300497D01*
X142949000Y-85699503D01*
X143066249Y-85110056D01*
X143296239Y-84554810D01*
X143630134Y-84055101D01*
X143630136Y-84055098D01*
X144055098Y-83630136D01*
X144554809Y-83296240D01*
X144554810Y-83296239D01*
X145110056Y-83066249D01*
X145110057Y-83066249D01*
X145110059Y-83066248D01*
X145699501Y-82949000D01*
X146300499Y-82949000D01*
X146889941Y-83066248D01*
X146889941Y-83066248D01*
G37*
G36*
X114889941Y-83066248D02*
X114889943Y-83066249D01*
X114889944Y-83066249D01*
X115445190Y-83296239D01*
X115445191Y-83296240D01*
X115944902Y-83630136D01*
X116369864Y-84055098D01*
X116369866Y-84055101D01*
X116703761Y-84554810D01*
X116933751Y-85110056D01*
X117051000Y-85699503D01*
X117051000Y-86300497D01*
X116933751Y-86889944D01*
X116703761Y-87445190D01*
X116703760Y-87445191D01*
X116369864Y-87944902D01*
X115944902Y-88369864D01*
X115944899Y-88369866D01*
X115445190Y-88703761D01*
X114889944Y-88933751D01*
X114889943Y-88933751D01*
X114889941Y-88933752D01*
X114300499Y-89051000D01*
X113699501Y-89051000D01*
X113110059Y-88933752D01*
X113110057Y-88933751D01*
X113110056Y-88933751D01*
X112554810Y-88703761D01*
X112055101Y-88369866D01*
X112055098Y-88369864D01*
X111630136Y-87944902D01*
X111296240Y-87445191D01*
X111296239Y-87445190D01*
X111066249Y-86889944D01*
X110949000Y-86300497D01*
X110949000Y-85699503D01*
X111066249Y-85110056D01*
X111296239Y-84554810D01*
X111630134Y-84055101D01*
X111630136Y-84055098D01*
X112055098Y-83630136D01*
X112554809Y-83296240D01*
X112554810Y-83296239D01*
X113110056Y-83066249D01*
X113110057Y-83066249D01*
X113110059Y-83066248D01*
X113699501Y-82949000D01*
X114300499Y-82949000D01*
X114889941Y-83066248D01*
X114889941Y-83066248D01*
G37*
G36*
X132777142Y-86998242D02*
X132925102Y-87059530D01*
X133058258Y-87148502D01*
X133171498Y-87261742D01*
X133260470Y-87394898D01*
X133321758Y-87542858D01*
X133353000Y-87699925D01*
X133353000Y-87860075D01*
X133321758Y-88017142D01*
X133260470Y-88165102D01*
X133171498Y-88298258D01*
X133058258Y-88411498D01*
X132925102Y-88500470D01*
X132777142Y-88561758D01*
X132620075Y-88593000D01*
X132459925Y-88593000D01*
X132302858Y-88561758D01*
X132154898Y-88500470D01*
X132021742Y-88411498D01*
X131908502Y-88298258D01*
X131819530Y-88165102D01*
X131758242Y-88017142D01*
X131727000Y-87860075D01*
X131727000Y-87699925D01*
X131758242Y-87542858D01*
X131819530Y-87394898D01*
X131908502Y-87261742D01*
X132021742Y-87148502D01*
X132154898Y-87059530D01*
X132302858Y-86998242D01*
X132459925Y-86967000D01*
X132620075Y-86967000D01*
X132777142Y-86998242D01*
X132777142Y-86998242D01*
G37*
G36*
X137857142Y-86998242D02*
X138005102Y-87059530D01*
X138138258Y-87148502D01*
X138251498Y-87261742D01*
X138340470Y-87394898D01*
X138401758Y-87542858D01*
X138433000Y-87699925D01*
X138433000Y-87860075D01*
X138401758Y-88017142D01*
X138340470Y-88165102D01*
X138251498Y-88298258D01*
X138138258Y-88411498D01*
X138005102Y-88500470D01*
X137857142Y-88561758D01*
X137700075Y-88593000D01*
X137539925Y-88593000D01*
X137382858Y-88561758D01*
X137234898Y-88500470D01*
X137101742Y-88411498D01*
X136988502Y-88298258D01*
X136899530Y-88165102D01*
X136838242Y-88017142D01*
X136807000Y-87860075D01*
X136807000Y-87699925D01*
X136838242Y-87542858D01*
X136899530Y-87394898D01*
X136988502Y-87261742D01*
X137101742Y-87148502D01*
X137234898Y-87059530D01*
X137382858Y-86998242D01*
X137539925Y-86967000D01*
X137700075Y-86967000D01*
X137857142Y-86998242D01*
X137857142Y-86998242D01*
G37*
G36*
X122617142Y-86998242D02*
X122765102Y-87059530D01*
X122898258Y-87148502D01*
X123011498Y-87261742D01*
X123100470Y-87394898D01*
X123161758Y-87542858D01*
X123193000Y-87699925D01*
X123193000Y-87860075D01*
X123161758Y-88017142D01*
X123100470Y-88165102D01*
X123011498Y-88298258D01*
X122898258Y-88411498D01*
X122765102Y-88500470D01*
X122617142Y-88561758D01*
X122460075Y-88593000D01*
X122299925Y-88593000D01*
X122142858Y-88561758D01*
X121994898Y-88500470D01*
X121861742Y-88411498D01*
X121748502Y-88298258D01*
X121659530Y-88165102D01*
X121598242Y-88017142D01*
X121567000Y-87860075D01*
X121567000Y-87699925D01*
X121598242Y-87542858D01*
X121659530Y-87394898D01*
X121748502Y-87261742D01*
X121861742Y-87148502D01*
X121994898Y-87059530D01*
X122142858Y-86998242D01*
X122299925Y-86967000D01*
X122460075Y-86967000D01*
X122617142Y-86998242D01*
X122617142Y-86998242D01*
G37*
G36*
X125157142Y-86998242D02*
X125305102Y-87059530D01*
X125438258Y-87148502D01*
X125551498Y-87261742D01*
X125640470Y-87394898D01*
X125701758Y-87542858D01*
X125733000Y-87699925D01*
X125733000Y-87860075D01*
X125701758Y-88017142D01*
X125640470Y-88165102D01*
X125551498Y-88298258D01*
X125438258Y-88411498D01*
X125305102Y-88500470D01*
X125157142Y-88561758D01*
X125000075Y-88593000D01*
X124839925Y-88593000D01*
X124682858Y-88561758D01*
X124534898Y-88500470D01*
X124401742Y-88411498D01*
X124288502Y-88298258D01*
X124199530Y-88165102D01*
X124138242Y-88017142D01*
X124107000Y-87860075D01*
X124107000Y-87699925D01*
X124138242Y-87542858D01*
X124199530Y-87394898D01*
X124288502Y-87261742D01*
X124401742Y-87148502D01*
X124534898Y-87059530D01*
X124682858Y-86998242D01*
X124839925Y-86967000D01*
X125000075Y-86967000D01*
X125157142Y-86998242D01*
X125157142Y-86998242D01*
G37*
G36*
X127697142Y-86998242D02*
X127845102Y-87059530D01*
X127978258Y-87148502D01*
X128091498Y-87261742D01*
X128180470Y-87394898D01*
X128241758Y-87542858D01*
X128273000Y-87699925D01*
X128273000Y-87860075D01*
X128241758Y-88017142D01*
X128180470Y-88165102D01*
X128091498Y-88298258D01*
X127978258Y-88411498D01*
X127845102Y-88500470D01*
X127697142Y-88561758D01*
X127540075Y-88593000D01*
X127379925Y-88593000D01*
X127222858Y-88561758D01*
X127074898Y-88500470D01*
X126941742Y-88411498D01*
X126828502Y-88298258D01*
X126739530Y-88165102D01*
X126678242Y-88017142D01*
X126647000Y-87860075D01*
X126647000Y-87699925D01*
X126678242Y-87542858D01*
X126739530Y-87394898D01*
X126828502Y-87261742D01*
X126941742Y-87148502D01*
X127074898Y-87059530D01*
X127222858Y-86998242D01*
X127379925Y-86967000D01*
X127540075Y-86967000D01*
X127697142Y-86998242D01*
X127697142Y-86998242D01*
G37*
G36*
X130237142Y-86998242D02*
X130385102Y-87059530D01*
X130518258Y-87148502D01*
X130631498Y-87261742D01*
X130720470Y-87394898D01*
X130781758Y-87542858D01*
X130813000Y-87699925D01*
X130813000Y-87860075D01*
X130781758Y-88017142D01*
X130720470Y-88165102D01*
X130631498Y-88298258D01*
X130518258Y-88411498D01*
X130385102Y-88500470D01*
X130237142Y-88561758D01*
X130080075Y-88593000D01*
X129919925Y-88593000D01*
X129762858Y-88561758D01*
X129614898Y-88500470D01*
X129481742Y-88411498D01*
X129368502Y-88298258D01*
X129279530Y-88165102D01*
X129218242Y-88017142D01*
X129187000Y-87860075D01*
X129187000Y-87699925D01*
X129218242Y-87542858D01*
X129279530Y-87394898D01*
X129368502Y-87261742D01*
X129481742Y-87148502D01*
X129614898Y-87059530D01*
X129762858Y-86998242D01*
X129919925Y-86967000D01*
X130080075Y-86967000D01*
X130237142Y-86998242D01*
X130237142Y-86998242D01*
G37*
G36*
X135317142Y-86998242D02*
X135465102Y-87059530D01*
X135598258Y-87148502D01*
X135711498Y-87261742D01*
X135800470Y-87394898D01*
X135861758Y-87542858D01*
X135893000Y-87699925D01*
X135893000Y-87860075D01*
X135861758Y-88017142D01*
X135800470Y-88165102D01*
X135711498Y-88298258D01*
X135598258Y-88411498D01*
X135465102Y-88500470D01*
X135317142Y-88561758D01*
X135160075Y-88593000D01*
X134999925Y-88593000D01*
X134842858Y-88561758D01*
X134694898Y-88500470D01*
X134561742Y-88411498D01*
X134448502Y-88298258D01*
X134359530Y-88165102D01*
X134298242Y-88017142D01*
X134267000Y-87860075D01*
X134267000Y-87699925D01*
X134298242Y-87542858D01*
X134359530Y-87394898D01*
X134448502Y-87261742D01*
X134561742Y-87148502D01*
X134694898Y-87059530D01*
X134842858Y-86998242D01*
X134999925Y-86967000D01*
X135160075Y-86967000D01*
X135317142Y-86998242D01*
X135317142Y-86998242D01*
G37*
G36*
X145823993Y-77846203D02*
X145888414Y-77865744D01*
X145947776Y-77897475D01*
X145999817Y-77940183D01*
X146042525Y-77992224D01*
X146074256Y-78051586D01*
X146093797Y-78116007D01*
X146101000Y-78189141D01*
X146101000Y-79590859D01*
X146093797Y-79663993D01*
X146074256Y-79728414D01*
X146042525Y-79787776D01*
X145999817Y-79839817D01*
X145947776Y-79882525D01*
X145888414Y-79914256D01*
X145823993Y-79933797D01*
X145750859Y-79941000D01*
X144825141Y-79941000D01*
X144752007Y-79933797D01*
X144687586Y-79914256D01*
X144628224Y-79882525D01*
X144576183Y-79839817D01*
X144533475Y-79787776D01*
X144501744Y-79728414D01*
X144482203Y-79663993D01*
X144475000Y-79590859D01*
X144475000Y-78189141D01*
X144482203Y-78116007D01*
X144501744Y-78051586D01*
X144533475Y-77992224D01*
X144576183Y-77940183D01*
X144628224Y-77897475D01*
X144687586Y-77865744D01*
X144752007Y-77846203D01*
X144825141Y-77839000D01*
X145750859Y-77839000D01*
X145823993Y-77846203D01*
X145823993Y-77846203D01*
G37*
G36*
X148065142Y-74298242D02*
X148213102Y-74359530D01*
X148226052Y-74368183D01*
X148345000Y-74447661D01*
X148346258Y-74448502D01*
X148459498Y-74561742D01*
X148548470Y-74694898D01*
X148609758Y-74842858D01*
X148641000Y-74999925D01*
X148641000Y-75160075D01*
X148609758Y-75317142D01*
X148562354Y-75431583D01*
X148548471Y-75465100D01*
X148459499Y-75598257D01*
X148346257Y-75711499D01*
X148303937Y-75739776D01*
X148213102Y-75800470D01*
X148065142Y-75861758D01*
X147908075Y-75893000D01*
X147747925Y-75893000D01*
X147590858Y-75861758D01*
X147442898Y-75800470D01*
X147352063Y-75739776D01*
X147309743Y-75711499D01*
X147196501Y-75598257D01*
X147107529Y-75465100D01*
X147093646Y-75431583D01*
X147046242Y-75317142D01*
X147015000Y-75160075D01*
X147015000Y-74999925D01*
X147046242Y-74842858D01*
X147107530Y-74694898D01*
X147196502Y-74561742D01*
X147309742Y-74448502D01*
X147311001Y-74447661D01*
X147429948Y-74368183D01*
X147442898Y-74359530D01*
X147590858Y-74298242D01*
X147747925Y-74267000D01*
X147908075Y-74267000D01*
X148065142Y-74298242D01*
X148065142Y-74298242D01*
G37*
G36*
X121677993Y-74274203D02*
X121742414Y-74293744D01*
X121801776Y-74325475D01*
X121853817Y-74368183D01*
X121896525Y-74420224D01*
X121928256Y-74479586D01*
X121947797Y-74544007D01*
X121955000Y-74617141D01*
X121955000Y-75542859D01*
X121947797Y-75615993D01*
X121928256Y-75680414D01*
X121896525Y-75739776D01*
X121853817Y-75791817D01*
X121801776Y-75834525D01*
X121742414Y-75866256D01*
X121677993Y-75885797D01*
X121604859Y-75893000D01*
X120203141Y-75893000D01*
X120130007Y-75885797D01*
X120065586Y-75866256D01*
X120006224Y-75834525D01*
X119954183Y-75791817D01*
X119911475Y-75739776D01*
X119879744Y-75680414D01*
X119860203Y-75615993D01*
X119853000Y-75542859D01*
X119853000Y-74617141D01*
X119860203Y-74544007D01*
X119879744Y-74479586D01*
X119911475Y-74420224D01*
X119954183Y-74368183D01*
X120006224Y-74325475D01*
X120065586Y-74293744D01*
X120130007Y-74274203D01*
X120203141Y-74267000D01*
X121604859Y-74267000D01*
X121677993Y-74274203D01*
X121677993Y-74274203D01*
G37*
G36*
X116567443Y-71605519D02*
X116633627Y-71612037D01*
X116746853Y-71646384D01*
X116803467Y-71663557D01*
X116922159Y-71727000D01*
X116959991Y-71747222D01*
X116973420Y-71758243D01*
X117097186Y-71859814D01*
X117180448Y-71961271D01*
X117209778Y-71997009D01*
X117209779Y-71997011D01*
X117293443Y-72153533D01*
X117310616Y-72210147D01*
X117344963Y-72323373D01*
X117362359Y-72500000D01*
X117344963Y-72676627D01*
X117314472Y-72777142D01*
X117293443Y-72846467D01*
X117251412Y-72925100D01*
X117209778Y-73002991D01*
X117180448Y-73038729D01*
X117097186Y-73140186D01*
X116995729Y-73223448D01*
X116959991Y-73252778D01*
X116942087Y-73262348D01*
X116803467Y-73336443D01*
X116748885Y-73353000D01*
X116633627Y-73387963D01*
X116567443Y-73394481D01*
X116501260Y-73401000D01*
X116162740Y-73401000D01*
X116096557Y-73394481D01*
X116030373Y-73387963D01*
X115915115Y-73353000D01*
X115860533Y-73336443D01*
X115721913Y-73262348D01*
X115704009Y-73252778D01*
X115668271Y-73223448D01*
X115566814Y-73140186D01*
X115483552Y-73038729D01*
X115454222Y-73002991D01*
X115412588Y-72925100D01*
X115370557Y-72846467D01*
X115349528Y-72777142D01*
X115319037Y-72676627D01*
X115301641Y-72500000D01*
X115319037Y-72323373D01*
X115353384Y-72210147D01*
X115370557Y-72153533D01*
X115454221Y-71997011D01*
X115454222Y-71997009D01*
X115483552Y-71961271D01*
X115566814Y-71859814D01*
X115690580Y-71758243D01*
X115704009Y-71747222D01*
X115741841Y-71727000D01*
X115860533Y-71663557D01*
X115917147Y-71646384D01*
X116030373Y-71612037D01*
X116096557Y-71605519D01*
X116162740Y-71599000D01*
X116501260Y-71599000D01*
X116567443Y-71605519D01*
X116567443Y-71605519D01*
G37*
G36*
X148065142Y-71758242D02*
X148213102Y-71819530D01*
X148346258Y-71908502D01*
X148459498Y-72021742D01*
X148548470Y-72154898D01*
X148609758Y-72302858D01*
X148641000Y-72459925D01*
X148641000Y-72620075D01*
X148609758Y-72777142D01*
X148548470Y-72925102D01*
X148459498Y-73058258D01*
X148346258Y-73171498D01*
X148213102Y-73260470D01*
X148065142Y-73321758D01*
X147908075Y-73353000D01*
X147747925Y-73353000D01*
X147590858Y-73321758D01*
X147442898Y-73260470D01*
X147309742Y-73171498D01*
X147196502Y-73058258D01*
X147107530Y-72925102D01*
X147046242Y-72777142D01*
X147015000Y-72620075D01*
X147015000Y-72459925D01*
X147046242Y-72302858D01*
X147107530Y-72154898D01*
X147196502Y-72021742D01*
X147309742Y-71908502D01*
X147442898Y-71819530D01*
X147590858Y-71758242D01*
X147747925Y-71727000D01*
X147908075Y-71727000D01*
X148065142Y-71758242D01*
X148065142Y-71758242D01*
G37*
G36*
X116567443Y-69105519D02*
X116633627Y-69112037D01*
X116746853Y-69146384D01*
X116803467Y-69163557D01*
X116942087Y-69237652D01*
X116959991Y-69247222D01*
X116970087Y-69255508D01*
X117097186Y-69359814D01*
X117180448Y-69461271D01*
X117209778Y-69497009D01*
X117209779Y-69497011D01*
X117293443Y-69653533D01*
X117293443Y-69653534D01*
X117344963Y-69823373D01*
X117362359Y-70000000D01*
X117344963Y-70176627D01*
X117310616Y-70289853D01*
X117293443Y-70346467D01*
X117261354Y-70406500D01*
X117209778Y-70502991D01*
X117182694Y-70535993D01*
X117097186Y-70640186D01*
X117009902Y-70711817D01*
X116959991Y-70752778D01*
X116959989Y-70752779D01*
X116803467Y-70836443D01*
X116746853Y-70853616D01*
X116633627Y-70887963D01*
X116567442Y-70894482D01*
X116501260Y-70901000D01*
X116162740Y-70901000D01*
X116096558Y-70894482D01*
X116030373Y-70887963D01*
X115917147Y-70853616D01*
X115860533Y-70836443D01*
X115704011Y-70752779D01*
X115704009Y-70752778D01*
X115654098Y-70711817D01*
X115566814Y-70640186D01*
X115481306Y-70535993D01*
X115454222Y-70502991D01*
X115402646Y-70406500D01*
X115370557Y-70346467D01*
X115353384Y-70289853D01*
X115319037Y-70176627D01*
X115301641Y-70000000D01*
X115319037Y-69823373D01*
X115370557Y-69653534D01*
X115370557Y-69653533D01*
X115454221Y-69497011D01*
X115454222Y-69497009D01*
X115483552Y-69461271D01*
X115566814Y-69359814D01*
X115693913Y-69255508D01*
X115704009Y-69247222D01*
X115721913Y-69237652D01*
X115860533Y-69163557D01*
X115917147Y-69146384D01*
X116030373Y-69112037D01*
X116096557Y-69105519D01*
X116162740Y-69099000D01*
X116501260Y-69099000D01*
X116567443Y-69105519D01*
X116567443Y-69105519D01*
G37*
G36*
X121677993Y-69194203D02*
X121742414Y-69213744D01*
X121801776Y-69245475D01*
X121853817Y-69288183D01*
X121896525Y-69340224D01*
X121928256Y-69399586D01*
X121947797Y-69464007D01*
X121955000Y-69537141D01*
X121955000Y-70462859D01*
X121947797Y-70535993D01*
X121928256Y-70600414D01*
X121896525Y-70659776D01*
X121853817Y-70711817D01*
X121801776Y-70754525D01*
X121742414Y-70786256D01*
X121677993Y-70805797D01*
X121604859Y-70813000D01*
X120203141Y-70813000D01*
X120130007Y-70805797D01*
X120065586Y-70786256D01*
X120006224Y-70754525D01*
X119954183Y-70711817D01*
X119911475Y-70659776D01*
X119879744Y-70600414D01*
X119860203Y-70535993D01*
X119853000Y-70462859D01*
X119853000Y-69537141D01*
X119860203Y-69464007D01*
X119879744Y-69399586D01*
X119911475Y-69340224D01*
X119954183Y-69288183D01*
X120006224Y-69245475D01*
X120065586Y-69213744D01*
X120130007Y-69194203D01*
X120203141Y-69187000D01*
X121604859Y-69187000D01*
X121677993Y-69194203D01*
X121677993Y-69194203D01*
G37*
G36*
X117215600Y-66602989D02*
X117248649Y-66613014D01*
X117279106Y-66629294D01*
X117305799Y-66651201D01*
X117327706Y-66677894D01*
X117343986Y-66708351D01*
X117354011Y-66741400D01*
X117358000Y-66781904D01*
X117358000Y-68218096D01*
X117354011Y-68258600D01*
X117343986Y-68291649D01*
X117327706Y-68322106D01*
X117305799Y-68348799D01*
X117279106Y-68370706D01*
X117248649Y-68386986D01*
X117215600Y-68397011D01*
X117175096Y-68401000D01*
X115488904Y-68401000D01*
X115448400Y-68397011D01*
X115415351Y-68386986D01*
X115384894Y-68370706D01*
X115358201Y-68348799D01*
X115336294Y-68322106D01*
X115320014Y-68291649D01*
X115309989Y-68258600D01*
X115306000Y-68218096D01*
X115306000Y-66781904D01*
X115309989Y-66741400D01*
X115320014Y-66708351D01*
X115336294Y-66677894D01*
X115358201Y-66651201D01*
X115384894Y-66629294D01*
X115415351Y-66613014D01*
X115448400Y-66602989D01*
X115488904Y-66599000D01*
X117175096Y-66599000D01*
X117215600Y-66602989D01*
X117215600Y-66602989D01*
G37*
G36*
X121677993Y-64114203D02*
X121742414Y-64133744D01*
X121801776Y-64165475D01*
X121853817Y-64208183D01*
X121896525Y-64260224D01*
X121928256Y-64319586D01*
X121947797Y-64384007D01*
X121955000Y-64457141D01*
X121955000Y-65382859D01*
X121947797Y-65455993D01*
X121928256Y-65520414D01*
X121896525Y-65579776D01*
X121853817Y-65631817D01*
X121801776Y-65674525D01*
X121742414Y-65706256D01*
X121677993Y-65725797D01*
X121604859Y-65733000D01*
X120203141Y-65733000D01*
X120130007Y-65725797D01*
X120065586Y-65706256D01*
X120006224Y-65674525D01*
X119954183Y-65631817D01*
X119911475Y-65579776D01*
X119879744Y-65520414D01*
X119860203Y-65455993D01*
X119853000Y-65382859D01*
X119853000Y-64457141D01*
X119860203Y-64384007D01*
X119879744Y-64319586D01*
X119911475Y-64260224D01*
X119954183Y-64208183D01*
X120006224Y-64165475D01*
X120065586Y-64133744D01*
X120130007Y-64114203D01*
X120203141Y-64107000D01*
X121604859Y-64107000D01*
X121677993Y-64114203D01*
X121677993Y-64114203D01*
G37*
G36*
X145823993Y-60066203D02*
X145888414Y-60085744D01*
X145947776Y-60117475D01*
X145999817Y-60160183D01*
X146042525Y-60212224D01*
X146074256Y-60271586D01*
X146093797Y-60336007D01*
X146101000Y-60409141D01*
X146101000Y-61810859D01*
X146093797Y-61883993D01*
X146074256Y-61948414D01*
X146042525Y-62007776D01*
X145999817Y-62059817D01*
X145947776Y-62102525D01*
X145888414Y-62134256D01*
X145823993Y-62153797D01*
X145750859Y-62161000D01*
X144825141Y-62161000D01*
X144752007Y-62153797D01*
X144687586Y-62134256D01*
X144628224Y-62102525D01*
X144576183Y-62059817D01*
X144533475Y-62007776D01*
X144501744Y-61948414D01*
X144482203Y-61883993D01*
X144475000Y-61810859D01*
X144475000Y-60409141D01*
X144482203Y-60336007D01*
X144501744Y-60271586D01*
X144533475Y-60212224D01*
X144576183Y-60160183D01*
X144628224Y-60117475D01*
X144687586Y-60085744D01*
X144752007Y-60066203D01*
X144825141Y-60059000D01*
X145750859Y-60059000D01*
X145823993Y-60066203D01*
X145823993Y-60066203D01*
G37*
G36*
X114889941Y-51066248D02*
X114889943Y-51066249D01*
X114889944Y-51066249D01*
X115445190Y-51296239D01*
X115445191Y-51296240D01*
X115944902Y-51630136D01*
X116369864Y-52055098D01*
X116369866Y-52055101D01*
X116703761Y-52554810D01*
X116933751Y-53110056D01*
X117051000Y-53699503D01*
X117051000Y-54300497D01*
X116933751Y-54889944D01*
X116703761Y-55445190D01*
X116703760Y-55445191D01*
X116369864Y-55944902D01*
X115944902Y-56369864D01*
X115944899Y-56369866D01*
X115445190Y-56703761D01*
X114889944Y-56933751D01*
X114889943Y-56933751D01*
X114889941Y-56933752D01*
X114300499Y-57051000D01*
X113699501Y-57051000D01*
X113110059Y-56933752D01*
X113110057Y-56933751D01*
X113110056Y-56933751D01*
X112554810Y-56703761D01*
X112055101Y-56369866D01*
X112055098Y-56369864D01*
X111630136Y-55944902D01*
X111296240Y-55445191D01*
X111296239Y-55445190D01*
X111066249Y-54889944D01*
X110949000Y-54300497D01*
X110949000Y-53699503D01*
X111066249Y-53110056D01*
X111296239Y-52554810D01*
X111630134Y-52055101D01*
X111630136Y-52055098D01*
X112055098Y-51630136D01*
X112554809Y-51296240D01*
X112554810Y-51296239D01*
X113110056Y-51066249D01*
X113110057Y-51066249D01*
X113110059Y-51066248D01*
X113699501Y-50949000D01*
X114300499Y-50949000D01*
X114889941Y-51066248D01*
X114889941Y-51066248D01*
G37*
G36*
X146889941Y-51066248D02*
X146889943Y-51066249D01*
X146889944Y-51066249D01*
X147445190Y-51296239D01*
X147445191Y-51296240D01*
X147944902Y-51630136D01*
X148369864Y-52055098D01*
X148369866Y-52055101D01*
X148703761Y-52554810D01*
X148933751Y-53110056D01*
X149051000Y-53699503D01*
X149051000Y-54300497D01*
X148933751Y-54889944D01*
X148703761Y-55445190D01*
X148703760Y-55445191D01*
X148369864Y-55944902D01*
X147944902Y-56369864D01*
X147944899Y-56369866D01*
X147445190Y-56703761D01*
X146889944Y-56933751D01*
X146889943Y-56933751D01*
X146889941Y-56933752D01*
X146300499Y-57051000D01*
X145699501Y-57051000D01*
X145110059Y-56933752D01*
X145110057Y-56933751D01*
X145110056Y-56933751D01*
X144554810Y-56703761D01*
X144055101Y-56369866D01*
X144055098Y-56369864D01*
X143630136Y-55944902D01*
X143296240Y-55445191D01*
X143296239Y-55445190D01*
X143066249Y-54889944D01*
X142949000Y-54300497D01*
X142949000Y-53699503D01*
X143066249Y-53110056D01*
X143296239Y-52554810D01*
X143630134Y-52055101D01*
X143630136Y-52055098D01*
X144055098Y-51630136D01*
X144554809Y-51296240D01*
X144554810Y-51296239D01*
X145110056Y-51066249D01*
X145110057Y-51066249D01*
X145110059Y-51066248D01*
X145699501Y-50949000D01*
X146300499Y-50949000D01*
X146889941Y-51066248D01*
X146889941Y-51066248D01*
G37*
G36*
X137857142Y-51438242D02*
X138005102Y-51499530D01*
X138138258Y-51588502D01*
X138251498Y-51701742D01*
X138340470Y-51834898D01*
X138401758Y-51982858D01*
X138433000Y-52139925D01*
X138433000Y-52300075D01*
X138401758Y-52457142D01*
X138340470Y-52605102D01*
X138251498Y-52738258D01*
X138138258Y-52851498D01*
X138005102Y-52940470D01*
X137857142Y-53001758D01*
X137700075Y-53033000D01*
X137539925Y-53033000D01*
X137382858Y-53001758D01*
X137234898Y-52940470D01*
X137101742Y-52851498D01*
X136988502Y-52738258D01*
X136899530Y-52605102D01*
X136838242Y-52457142D01*
X136807000Y-52300075D01*
X136807000Y-52139925D01*
X136838242Y-51982858D01*
X136899530Y-51834898D01*
X136988502Y-51701742D01*
X137101742Y-51588502D01*
X137234898Y-51499530D01*
X137382858Y-51438242D01*
X137539925Y-51407000D01*
X137700075Y-51407000D01*
X137857142Y-51438242D01*
X137857142Y-51438242D01*
G37*
G36*
X127697142Y-51438242D02*
X127845102Y-51499530D01*
X127978258Y-51588502D01*
X128091498Y-51701742D01*
X128180470Y-51834898D01*
X128241758Y-51982858D01*
X128273000Y-52139925D01*
X128273000Y-52300075D01*
X128241758Y-52457142D01*
X128180470Y-52605102D01*
X128091498Y-52738258D01*
X127978258Y-52851498D01*
X127845102Y-52940470D01*
X127697142Y-53001758D01*
X127540075Y-53033000D01*
X127379925Y-53033000D01*
X127222858Y-53001758D01*
X127074898Y-52940470D01*
X126941742Y-52851498D01*
X126828502Y-52738258D01*
X126739530Y-52605102D01*
X126678242Y-52457142D01*
X126647000Y-52300075D01*
X126647000Y-52139925D01*
X126678242Y-51982858D01*
X126739530Y-51834898D01*
X126828502Y-51701742D01*
X126941742Y-51588502D01*
X127074898Y-51499530D01*
X127222858Y-51438242D01*
X127379925Y-51407000D01*
X127540075Y-51407000D01*
X127697142Y-51438242D01*
X127697142Y-51438242D01*
G37*
G36*
X135317142Y-51438242D02*
X135465102Y-51499530D01*
X135598258Y-51588502D01*
X135711498Y-51701742D01*
X135800470Y-51834898D01*
X135861758Y-51982858D01*
X135893000Y-52139925D01*
X135893000Y-52300075D01*
X135861758Y-52457142D01*
X135800470Y-52605102D01*
X135711498Y-52738258D01*
X135598258Y-52851498D01*
X135465102Y-52940470D01*
X135317142Y-53001758D01*
X135160075Y-53033000D01*
X134999925Y-53033000D01*
X134842858Y-53001758D01*
X134694898Y-52940470D01*
X134561742Y-52851498D01*
X134448502Y-52738258D01*
X134359530Y-52605102D01*
X134298242Y-52457142D01*
X134267000Y-52300075D01*
X134267000Y-52139925D01*
X134298242Y-51982858D01*
X134359530Y-51834898D01*
X134448502Y-51701742D01*
X134561742Y-51588502D01*
X134694898Y-51499530D01*
X134842858Y-51438242D01*
X134999925Y-51407000D01*
X135160075Y-51407000D01*
X135317142Y-51438242D01*
X135317142Y-51438242D01*
G37*
G36*
X132777142Y-51438242D02*
X132925102Y-51499530D01*
X133058258Y-51588502D01*
X133171498Y-51701742D01*
X133260470Y-51834898D01*
X133321758Y-51982858D01*
X133353000Y-52139925D01*
X133353000Y-52300075D01*
X133321758Y-52457142D01*
X133260470Y-52605102D01*
X133171498Y-52738258D01*
X133058258Y-52851498D01*
X132925102Y-52940470D01*
X132777142Y-53001758D01*
X132620075Y-53033000D01*
X132459925Y-53033000D01*
X132302858Y-53001758D01*
X132154898Y-52940470D01*
X132021742Y-52851498D01*
X131908502Y-52738258D01*
X131819530Y-52605102D01*
X131758242Y-52457142D01*
X131727000Y-52300075D01*
X131727000Y-52139925D01*
X131758242Y-51982858D01*
X131819530Y-51834898D01*
X131908502Y-51701742D01*
X132021742Y-51588502D01*
X132154898Y-51499530D01*
X132302858Y-51438242D01*
X132459925Y-51407000D01*
X132620075Y-51407000D01*
X132777142Y-51438242D01*
X132777142Y-51438242D01*
G37*
G36*
X130237142Y-51438242D02*
X130385102Y-51499530D01*
X130518258Y-51588502D01*
X130631498Y-51701742D01*
X130720470Y-51834898D01*
X130781758Y-51982858D01*
X130813000Y-52139925D01*
X130813000Y-52300075D01*
X130781758Y-52457142D01*
X130720470Y-52605102D01*
X130631498Y-52738258D01*
X130518258Y-52851498D01*
X130385102Y-52940470D01*
X130237142Y-53001758D01*
X130080075Y-53033000D01*
X129919925Y-53033000D01*
X129762858Y-53001758D01*
X129614898Y-52940470D01*
X129481742Y-52851498D01*
X129368502Y-52738258D01*
X129279530Y-52605102D01*
X129218242Y-52457142D01*
X129187000Y-52300075D01*
X129187000Y-52139925D01*
X129218242Y-51982858D01*
X129279530Y-51834898D01*
X129368502Y-51701742D01*
X129481742Y-51588502D01*
X129614898Y-51499530D01*
X129762858Y-51438242D01*
X129919925Y-51407000D01*
X130080075Y-51407000D01*
X130237142Y-51438242D01*
X130237142Y-51438242D01*
G37*
G36*
X125157142Y-51438242D02*
X125305102Y-51499530D01*
X125438258Y-51588502D01*
X125551498Y-51701742D01*
X125640470Y-51834898D01*
X125701758Y-51982858D01*
X125733000Y-52139925D01*
X125733000Y-52300075D01*
X125701758Y-52457142D01*
X125640470Y-52605102D01*
X125551498Y-52738258D01*
X125438258Y-52851498D01*
X125305102Y-52940470D01*
X125157142Y-53001758D01*
X125000075Y-53033000D01*
X124839925Y-53033000D01*
X124682858Y-53001758D01*
X124534898Y-52940470D01*
X124401742Y-52851498D01*
X124288502Y-52738258D01*
X124199530Y-52605102D01*
X124138242Y-52457142D01*
X124107000Y-52300075D01*
X124107000Y-52139925D01*
X124138242Y-51982858D01*
X124199530Y-51834898D01*
X124288502Y-51701742D01*
X124401742Y-51588502D01*
X124534898Y-51499530D01*
X124682858Y-51438242D01*
X124839925Y-51407000D01*
X125000075Y-51407000D01*
X125157142Y-51438242D01*
X125157142Y-51438242D01*
G37*
G36*
X122617142Y-51438242D02*
X122765102Y-51499530D01*
X122898258Y-51588502D01*
X123011498Y-51701742D01*
X123100470Y-51834898D01*
X123161758Y-51982858D01*
X123193000Y-52139925D01*
X123193000Y-52300075D01*
X123161758Y-52457142D01*
X123100470Y-52605102D01*
X123011498Y-52738258D01*
X122898258Y-52851498D01*
X122765102Y-52940470D01*
X122617142Y-53001758D01*
X122460075Y-53033000D01*
X122299925Y-53033000D01*
X122142858Y-53001758D01*
X121994898Y-52940470D01*
X121861742Y-52851498D01*
X121748502Y-52738258D01*
X121659530Y-52605102D01*
X121598242Y-52457142D01*
X121567000Y-52300075D01*
X121567000Y-52139925D01*
X121598242Y-51982858D01*
X121659530Y-51834898D01*
X121748502Y-51701742D01*
X121861742Y-51588502D01*
X121994898Y-51499530D01*
X122142858Y-51438242D01*
X122299925Y-51407000D01*
X122460075Y-51407000D01*
X122617142Y-51438242D01*
X122617142Y-51438242D01*
G37*
M02*
