%TF.GenerationSoftware,KiCad,Pcbnew,5.0.2+dfsg1-1*%
%TF.CreationDate,2022-03-26T23:49:25+09:00*%
%TF.ProjectId,pwm-esc-littlebee,70776d2d-6573-4632-9d6c-6974746c6562,rev?*%
%TF.SameCoordinates,Original*%
%TF.FileFunction,Legend,Top*%
%TF.FilePolarity,Positive*%
%FSLAX46Y46*%
G04 Gerber Fmt 4.6, Leading zero omitted, Abs format (unit mm)*
G04 Created by KiCad (PCBNEW 5.0.2+dfsg1-1) date Sat 26 Mar 2022 11:49:25 PM JST*
%MOMM*%
%LPD*%
G01*
G04 APERTURE LIST*
%ADD10C,0.150000*%
%ADD11C,0.200000*%
%ADD12C,0.120000*%
G04 APERTURE END LIST*
D10*
X116840000Y-63246000D02*
X116840000Y-56388000D01*
X121666000Y-63754000D02*
X117348000Y-63754000D01*
X117348000Y-63754000D02*
G75*
G02X116840000Y-63246000I0J508000D01*
G01*
X122174000Y-64262000D02*
X122174000Y-75692000D01*
X116840000Y-76708000D02*
X116840000Y-83312000D01*
X117348000Y-76200000D02*
X121666000Y-76200000D01*
X116840000Y-76708000D02*
G75*
G02X117348000Y-76200000I508000J0D01*
G01*
X122174000Y-75692000D02*
G75*
G02X121666000Y-76200000I-508000J0D01*
G01*
X121666000Y-63754000D02*
G75*
G02X122174000Y-64262000I0J-508000D01*
G01*
X138430000Y-56388000D02*
X138430000Y-60706000D01*
X137922000Y-55880000D02*
G75*
G02X138430000Y-56388000I0J-508000D01*
G01*
X117348000Y-55880000D02*
X137922000Y-55880000D01*
X138938000Y-61214000D02*
X143764000Y-61214000D01*
X138938000Y-61214000D02*
G75*
G02X138430000Y-60706000I0J508000D01*
G01*
X143764000Y-61214000D02*
G75*
G02X144272000Y-61722000I0J-508000D01*
G01*
X139700000Y-79121000D02*
X139700000Y-83312000D01*
X140208000Y-78613000D02*
X143764000Y-78613000D01*
X144272000Y-78105000D02*
G75*
G02X143764000Y-78613000I-508000J0D01*
G01*
X139700000Y-79121000D02*
G75*
G02X140208000Y-78613000I508000J0D01*
G01*
X139700000Y-83312000D02*
G75*
G02X139192000Y-83820000I-508000J0D01*
G01*
X117348000Y-83820000D02*
X139192000Y-83820000D01*
X117348000Y-83820000D02*
G75*
G02X116840000Y-83312000I0J508000D01*
G01*
X116840000Y-56388000D02*
G75*
G02X117348000Y-55880000I508000J0D01*
G01*
X144780000Y-77597000D02*
X146304000Y-77597000D01*
X144907000Y-62357000D02*
X146304000Y-62357000D01*
X144272000Y-78105000D02*
G75*
G02X144780000Y-77597000I508000J0D01*
G01*
X144907000Y-62357000D02*
G75*
G02X144272000Y-61722000I0J635000D01*
G01*
D11*
X140263714Y-59253380D02*
X139930380Y-58777190D01*
X139692285Y-59253380D02*
X139692285Y-58253380D01*
X140073238Y-58253380D01*
X140168476Y-58301000D01*
X140216095Y-58348619D01*
X140263714Y-58443857D01*
X140263714Y-58586714D01*
X140216095Y-58681952D01*
X140168476Y-58729571D01*
X140073238Y-58777190D01*
X139692285Y-58777190D01*
X141073238Y-59205761D02*
X140978000Y-59253380D01*
X140787523Y-59253380D01*
X140692285Y-59205761D01*
X140644666Y-59110523D01*
X140644666Y-58729571D01*
X140692285Y-58634333D01*
X140787523Y-58586714D01*
X140978000Y-58586714D01*
X141073238Y-58634333D01*
X141120857Y-58729571D01*
X141120857Y-58824809D01*
X140644666Y-58920047D01*
X141454190Y-58586714D02*
X141692285Y-59253380D01*
X141930380Y-58586714D01*
X142311333Y-59158142D02*
X142358952Y-59205761D01*
X142311333Y-59253380D01*
X142263714Y-59205761D01*
X142311333Y-59158142D01*
X142311333Y-59253380D01*
X143311333Y-59253380D02*
X142739904Y-59253380D01*
X143025619Y-59253380D02*
X143025619Y-58253380D01*
X142930380Y-58396238D01*
X142835142Y-58491476D01*
X142739904Y-58539095D01*
X139652523Y-56443619D02*
X139700142Y-56396000D01*
X139795380Y-56348380D01*
X140033476Y-56348380D01*
X140128714Y-56396000D01*
X140176333Y-56443619D01*
X140223952Y-56538857D01*
X140223952Y-56634095D01*
X140176333Y-56776952D01*
X139604904Y-57348380D01*
X140223952Y-57348380D01*
X140843000Y-56348380D02*
X140938238Y-56348380D01*
X141033476Y-56396000D01*
X141081095Y-56443619D01*
X141128714Y-56538857D01*
X141176333Y-56729333D01*
X141176333Y-56967428D01*
X141128714Y-57157904D01*
X141081095Y-57253142D01*
X141033476Y-57300761D01*
X140938238Y-57348380D01*
X140843000Y-57348380D01*
X140747761Y-57300761D01*
X140700142Y-57253142D01*
X140652523Y-57157904D01*
X140604904Y-56967428D01*
X140604904Y-56729333D01*
X140652523Y-56538857D01*
X140700142Y-56443619D01*
X140747761Y-56396000D01*
X140843000Y-56348380D01*
X141557285Y-57062666D02*
X142033476Y-57062666D01*
X141462047Y-57348380D02*
X141795380Y-56348380D01*
X142128714Y-57348380D01*
X124548285Y-55062380D02*
X124072095Y-55062380D01*
X124072095Y-54062380D01*
X124881619Y-55062380D02*
X124881619Y-54395714D01*
X124881619Y-54062380D02*
X124834000Y-54110000D01*
X124881619Y-54157619D01*
X124929238Y-54110000D01*
X124881619Y-54062380D01*
X124881619Y-54157619D01*
X125214952Y-54395714D02*
X125595904Y-54395714D01*
X125357809Y-54062380D02*
X125357809Y-54919523D01*
X125405428Y-55014761D01*
X125500666Y-55062380D01*
X125595904Y-55062380D01*
X125786380Y-54395714D02*
X126167333Y-54395714D01*
X125929238Y-54062380D02*
X125929238Y-54919523D01*
X125976857Y-55014761D01*
X126072095Y-55062380D01*
X126167333Y-55062380D01*
X126643523Y-55062380D02*
X126548285Y-55014761D01*
X126500666Y-54919523D01*
X126500666Y-54062380D01*
X127405428Y-55014761D02*
X127310190Y-55062380D01*
X127119714Y-55062380D01*
X127024476Y-55014761D01*
X126976857Y-54919523D01*
X126976857Y-54538571D01*
X127024476Y-54443333D01*
X127119714Y-54395714D01*
X127310190Y-54395714D01*
X127405428Y-54443333D01*
X127453047Y-54538571D01*
X127453047Y-54633809D01*
X126976857Y-54729047D01*
X128214952Y-54538571D02*
X128357809Y-54586190D01*
X128405428Y-54633809D01*
X128453047Y-54729047D01*
X128453047Y-54871904D01*
X128405428Y-54967142D01*
X128357809Y-55014761D01*
X128262571Y-55062380D01*
X127881619Y-55062380D01*
X127881619Y-54062380D01*
X128214952Y-54062380D01*
X128310190Y-54110000D01*
X128357809Y-54157619D01*
X128405428Y-54252857D01*
X128405428Y-54348095D01*
X128357809Y-54443333D01*
X128310190Y-54490952D01*
X128214952Y-54538571D01*
X127881619Y-54538571D01*
X129262571Y-55014761D02*
X129167333Y-55062380D01*
X128976857Y-55062380D01*
X128881619Y-55014761D01*
X128834000Y-54919523D01*
X128834000Y-54538571D01*
X128881619Y-54443333D01*
X128976857Y-54395714D01*
X129167333Y-54395714D01*
X129262571Y-54443333D01*
X129310190Y-54538571D01*
X129310190Y-54633809D01*
X128834000Y-54729047D01*
X130119714Y-55014761D02*
X130024476Y-55062380D01*
X129834000Y-55062380D01*
X129738761Y-55014761D01*
X129691142Y-54919523D01*
X129691142Y-54538571D01*
X129738761Y-54443333D01*
X129834000Y-54395714D01*
X130024476Y-54395714D01*
X130119714Y-54443333D01*
X130167333Y-54538571D01*
X130167333Y-54633809D01*
X129691142Y-54729047D01*
X131357809Y-54538571D02*
X131691142Y-54538571D01*
X131834000Y-55062380D02*
X131357809Y-55062380D01*
X131357809Y-54062380D01*
X131834000Y-54062380D01*
X132214952Y-55014761D02*
X132357809Y-55062380D01*
X132595904Y-55062380D01*
X132691142Y-55014761D01*
X132738761Y-54967142D01*
X132786380Y-54871904D01*
X132786380Y-54776666D01*
X132738761Y-54681428D01*
X132691142Y-54633809D01*
X132595904Y-54586190D01*
X132405428Y-54538571D01*
X132310190Y-54490952D01*
X132262571Y-54443333D01*
X132214952Y-54348095D01*
X132214952Y-54252857D01*
X132262571Y-54157619D01*
X132310190Y-54110000D01*
X132405428Y-54062380D01*
X132643523Y-54062380D01*
X132786380Y-54110000D01*
X133786380Y-54967142D02*
X133738761Y-55014761D01*
X133595904Y-55062380D01*
X133500666Y-55062380D01*
X133357809Y-55014761D01*
X133262571Y-54919523D01*
X133214952Y-54824285D01*
X133167333Y-54633809D01*
X133167333Y-54490952D01*
X133214952Y-54300476D01*
X133262571Y-54205238D01*
X133357809Y-54110000D01*
X133500666Y-54062380D01*
X133595904Y-54062380D01*
X133738761Y-54110000D01*
X133786380Y-54157619D01*
X134976857Y-55062380D02*
X134976857Y-54395714D01*
X134976857Y-54490952D02*
X135024476Y-54443333D01*
X135119714Y-54395714D01*
X135262571Y-54395714D01*
X135357809Y-54443333D01*
X135405428Y-54538571D01*
X135405428Y-55062380D01*
X135405428Y-54538571D02*
X135453047Y-54443333D01*
X135548285Y-54395714D01*
X135691142Y-54395714D01*
X135786380Y-54443333D01*
X135834000Y-54538571D01*
X135834000Y-55062380D01*
X136453047Y-55062380D02*
X136357809Y-55014761D01*
X136310190Y-54967142D01*
X136262571Y-54871904D01*
X136262571Y-54586190D01*
X136310190Y-54490952D01*
X136357809Y-54443333D01*
X136453047Y-54395714D01*
X136595904Y-54395714D01*
X136691142Y-54443333D01*
X136738761Y-54490952D01*
X136786380Y-54586190D01*
X136786380Y-54871904D01*
X136738761Y-54967142D01*
X136691142Y-55014761D01*
X136595904Y-55062380D01*
X136453047Y-55062380D01*
X137643523Y-54395714D02*
X137643523Y-55062380D01*
X137214952Y-54395714D02*
X137214952Y-54919523D01*
X137262571Y-55014761D01*
X137357809Y-55062380D01*
X137500666Y-55062380D01*
X137595904Y-55014761D01*
X137643523Y-54967142D01*
X138119714Y-54395714D02*
X138119714Y-55062380D01*
X138119714Y-54490952D02*
X138167333Y-54443333D01*
X138262571Y-54395714D01*
X138405428Y-54395714D01*
X138500666Y-54443333D01*
X138548285Y-54538571D01*
X138548285Y-55062380D01*
X138881619Y-54395714D02*
X139262571Y-54395714D01*
X139024476Y-54062380D02*
X139024476Y-54919523D01*
X139072095Y-55014761D01*
X139167333Y-55062380D01*
X139262571Y-55062380D01*
X139976857Y-55014761D02*
X139881619Y-55062380D01*
X139691142Y-55062380D01*
X139595904Y-55014761D01*
X139548285Y-54919523D01*
X139548285Y-54538571D01*
X139595904Y-54443333D01*
X139691142Y-54395714D01*
X139881619Y-54395714D01*
X139976857Y-54443333D01*
X140024476Y-54538571D01*
X140024476Y-54633809D01*
X139548285Y-54729047D01*
X140453047Y-55062380D02*
X140453047Y-54395714D01*
X140453047Y-54586190D02*
X140500666Y-54490952D01*
X140548285Y-54443333D01*
X140643523Y-54395714D01*
X140738761Y-54395714D01*
D10*
X146812000Y-77089000D02*
X146812000Y-62865000D01*
X146304000Y-62357000D02*
G75*
G02X146812000Y-62865000I0J-508000D01*
G01*
X146812000Y-77089000D02*
G75*
G02X146304000Y-77597000I-508000J0D01*
G01*
X112000000Y-90000000D02*
G75*
G02X110000000Y-88000000I0J2000000D01*
G01*
X150000000Y-88000000D02*
G75*
G02X148000000Y-90000000I-2000000J0D01*
G01*
X148000000Y-50000000D02*
G75*
G02X150000000Y-52000000I0J-2000000D01*
G01*
X110000000Y-52000000D02*
G75*
G02X112000000Y-50000000I2000000J0D01*
G01*
X110000000Y-88000000D02*
X110000000Y-52000000D01*
X148000000Y-90000000D02*
X112000000Y-90000000D01*
X150000000Y-52000000D02*
X150000000Y-88000000D01*
X112000000Y-50000000D02*
X148000000Y-50000000D01*
X110000000Y-52000000D02*
G75*
G02X112000000Y-50000000I2000000J0D01*
G01*
X148000000Y-50000000D02*
G75*
G02X150000000Y-52000000I0J-2000000D01*
G01*
X150000000Y-88000000D02*
G75*
G02X148000000Y-90000000I-2000000J0D01*
G01*
X112000000Y-90000000D02*
G75*
G02X110000000Y-88000000I0J2000000D01*
G01*
X112000000Y-90000000D02*
X148000000Y-90000000D01*
X150000000Y-88000000D02*
X150000000Y-52000000D01*
X148000000Y-50000000D02*
X112000000Y-50000000D01*
X110000000Y-52000000D02*
X110000000Y-88000000D01*
D12*
X107022000Y-70000000D02*
X107022000Y-64940000D01*
X107022000Y-64940000D02*
X118742000Y-64940000D01*
X118742000Y-64940000D02*
X118742000Y-66360000D01*
X118742000Y-66360000D02*
X114242000Y-66360000D01*
X114242000Y-66360000D02*
X114242000Y-70000000D01*
X107022000Y-70000000D02*
X107022000Y-75060000D01*
X107022000Y-75060000D02*
X118742000Y-75060000D01*
X118742000Y-75060000D02*
X118742000Y-73640000D01*
X118742000Y-73640000D02*
X114242000Y-73640000D01*
X114242000Y-73640000D02*
X114242000Y-70000000D01*
X113132000Y-67250000D02*
X107632000Y-67250000D01*
X107632000Y-67250000D02*
X107632000Y-67750000D01*
X107632000Y-67750000D02*
X113132000Y-67750000D01*
X113132000Y-67750000D02*
X113132000Y-67250000D01*
X113132000Y-69750000D02*
X107632000Y-69750000D01*
X107632000Y-69750000D02*
X107632000Y-70250000D01*
X107632000Y-70250000D02*
X113132000Y-70250000D01*
X113132000Y-70250000D02*
X113132000Y-69750000D01*
X113132000Y-72250000D02*
X107632000Y-72250000D01*
X107632000Y-72250000D02*
X107632000Y-72750000D01*
X107632000Y-72750000D02*
X113132000Y-72750000D01*
X113132000Y-72750000D02*
X113132000Y-72250000D01*
X117832000Y-67500000D02*
X118432000Y-67200000D01*
X118432000Y-67200000D02*
X118432000Y-67800000D01*
X118432000Y-67800000D02*
X117832000Y-67500000D01*
D10*
X147447095Y-64857380D02*
X147447095Y-65666904D01*
X147494714Y-65762142D01*
X147542333Y-65809761D01*
X147637571Y-65857380D01*
X147828047Y-65857380D01*
X147923285Y-65809761D01*
X147970904Y-65762142D01*
X148018523Y-65666904D01*
X148018523Y-64857380D01*
X149018523Y-65857380D02*
X148447095Y-65857380D01*
X148732809Y-65857380D02*
X148732809Y-64857380D01*
X148637571Y-65000238D01*
X148542333Y-65095476D01*
X148447095Y-65143095D01*
X119284380Y-70333333D02*
X119998666Y-70333333D01*
X120141523Y-70380952D01*
X120236761Y-70476190D01*
X120284380Y-70619047D01*
X120284380Y-70714285D01*
X120284380Y-69333333D02*
X120284380Y-69904761D01*
X120284380Y-69619047D02*
X119284380Y-69619047D01*
X119427238Y-69714285D01*
X119522476Y-69809523D01*
X119570095Y-69904761D01*
M02*
