M48
; DRILL file {KiCad 5.1.9+dfsg1-1+deb11u1} date Mon May 29 16:58:56 2023
; FORMAT={-:-/ absolute / metric / decimal}
; #@! TF.CreationDate,2023-05-29T16:58:56+09:00
; #@! TF.GenerationSoftware,Kicad,Pcbnew,5.1.9+dfsg1-1+deb11u1
; #@! TF.FileFunction,Plated,1,2,PTH
FMAT,2
METRIC
T1C0.400
T2C0.800
T3C0.950
T4C1.000
T5C1.100
%
G90
G05
T1
X102.108Y-81.534
X103.632Y-84.836
X108.204Y-97.282
X116.84Y-99.568
X116.84Y-101.854
X117.602Y-95.504
X120.015Y-104.521
T2
X106.204Y-116.332
X108.204Y-116.332
X124.206Y-85.09
X126.706Y-85.09
T3
X101.346Y-87.63
X101.346Y-90.13
X101.346Y-92.63
X101.346Y-95.13
X104.14Y-80.01
X106.64Y-80.01
X109.14Y-80.01
X111.64Y-80.01
X113.284Y-116.078
X114.14Y-80.01
X115.784Y-116.078
X116.64Y-80.01
X118.284Y-116.078
X120.784Y-116.078
T4
X98.806Y-100.33
X98.806Y-102.87
X101.346Y-110.49
X101.346Y-112.99
X102.362Y-100.33
X102.362Y-102.87
X102.362Y-105.41
X123.19Y-108.458
X123.19Y-110.998
T5
X127.0Y-110.975
X127.0Y-117.475
X127.072Y-98.806
X127.072Y-105.306
X131.5Y-110.975
X131.5Y-117.475
X131.572Y-98.806
X131.572Y-105.306
X135.128Y-78.74
X135.128Y-85.24
X135.128Y-88.75
X135.128Y-95.25
X135.128Y-98.806
X135.128Y-105.306
X135.128Y-110.998
X135.128Y-117.498
X139.628Y-78.74
X139.628Y-85.24
X139.628Y-88.75
X139.628Y-95.25
X139.628Y-98.806
X139.628Y-105.306
X139.628Y-110.998
X139.628Y-117.498
T0
M30
