G04 #@! TF.GenerationSoftware,KiCad,Pcbnew,5.1.9+dfsg1-1+deb11u1*
G04 #@! TF.CreationDate,2023-05-29T16:58:53+09:00*
G04 #@! TF.ProjectId,bluetooth_JDY-67_dev_board,626c7565-746f-46f7-9468-5f4a44592d36,rev?*
G04 #@! TF.SameCoordinates,Original*
G04 #@! TF.FileFunction,Soldermask,Top*
G04 #@! TF.FilePolarity,Negative*
%FSLAX46Y46*%
G04 Gerber Fmt 4.6, Leading zero omitted, Abs format (unit mm)*
G04 Created by KiCad (PCBNEW 5.1.9+dfsg1-1+deb11u1) date 2023-05-29 16:58:53*
%MOMM*%
%LPD*%
G01*
G04 APERTURE LIST*
%ADD10R,1.600000X1.600000*%
%ADD11C,1.600000*%
%ADD12O,2.000000X1.700000*%
%ADD13R,1.700000X1.700000*%
%ADD14O,1.700000X1.700000*%
%ADD15O,1.950000X1.700000*%
%ADD16O,1.700000X1.950000*%
%ADD17C,2.000000*%
%ADD18R,2.000000X1.200000*%
%ADD19R,1.200000X2.000000*%
G04 APERTURE END LIST*
D10*
X106204000Y-116332000D03*
D11*
X108204000Y-116332000D03*
G36*
G01*
X103708000Y-117151999D02*
X103708000Y-118052001D01*
G75*
G02*
X103458001Y-118302000I-249999J0D01*
G01*
X102757999Y-118302000D01*
G75*
G02*
X102508000Y-118052001I0J249999D01*
G01*
X102508000Y-117151999D01*
G75*
G02*
X102757999Y-116902000I249999J0D01*
G01*
X103458001Y-116902000D01*
G75*
G02*
X103708000Y-117151999I0J-249999D01*
G01*
G37*
G36*
G01*
X101708000Y-117151999D02*
X101708000Y-118052001D01*
G75*
G02*
X101458001Y-118302000I-249999J0D01*
G01*
X100757999Y-118302000D01*
G75*
G02*
X100508000Y-118052001I0J249999D01*
G01*
X100508000Y-117151999D01*
G75*
G02*
X100757999Y-116902000I249999J0D01*
G01*
X101458001Y-116902000D01*
G75*
G02*
X101708000Y-117151999I0J-249999D01*
G01*
G37*
G36*
G01*
X100780001Y-82150000D02*
X99879999Y-82150000D01*
G75*
G02*
X99630000Y-81900001I0J249999D01*
G01*
X99630000Y-81199999D01*
G75*
G02*
X99879999Y-80950000I249999J0D01*
G01*
X100780001Y-80950000D01*
G75*
G02*
X101030000Y-81199999I0J-249999D01*
G01*
X101030000Y-81900001D01*
G75*
G02*
X100780001Y-82150000I-249999J0D01*
G01*
G37*
G36*
G01*
X100780001Y-84150000D02*
X99879999Y-84150000D01*
G75*
G02*
X99630000Y-83900001I0J249999D01*
G01*
X99630000Y-83199999D01*
G75*
G02*
X99879999Y-82950000I249999J0D01*
G01*
X100780001Y-82950000D01*
G75*
G02*
X101030000Y-83199999I0J-249999D01*
G01*
X101030000Y-83900001D01*
G75*
G02*
X100780001Y-84150000I-249999J0D01*
G01*
G37*
G36*
G01*
X129362000Y-92005999D02*
X129362000Y-92906001D01*
G75*
G02*
X129112001Y-93156000I-249999J0D01*
G01*
X128461999Y-93156000D01*
G75*
G02*
X128212000Y-92906001I0J249999D01*
G01*
X128212000Y-92005999D01*
G75*
G02*
X128461999Y-91756000I249999J0D01*
G01*
X129112001Y-91756000D01*
G75*
G02*
X129362000Y-92005999I0J-249999D01*
G01*
G37*
G36*
G01*
X127312000Y-92005999D02*
X127312000Y-92906001D01*
G75*
G02*
X127062001Y-93156000I-249999J0D01*
G01*
X126411999Y-93156000D01*
G75*
G02*
X126162000Y-92906001I0J249999D01*
G01*
X126162000Y-92005999D01*
G75*
G02*
X126411999Y-91756000I249999J0D01*
G01*
X127062001Y-91756000D01*
G75*
G02*
X127312000Y-92005999I0J-249999D01*
G01*
G37*
G36*
G01*
X127312000Y-94291999D02*
X127312000Y-95192001D01*
G75*
G02*
X127062001Y-95442000I-249999J0D01*
G01*
X126411999Y-95442000D01*
G75*
G02*
X126162000Y-95192001I0J249999D01*
G01*
X126162000Y-94291999D01*
G75*
G02*
X126411999Y-94042000I249999J0D01*
G01*
X127062001Y-94042000D01*
G75*
G02*
X127312000Y-94291999I0J-249999D01*
G01*
G37*
G36*
G01*
X129362000Y-94291999D02*
X129362000Y-95192001D01*
G75*
G02*
X129112001Y-95442000I-249999J0D01*
G01*
X128461999Y-95442000D01*
G75*
G02*
X128212000Y-95192001I0J249999D01*
G01*
X128212000Y-94291999D01*
G75*
G02*
X128461999Y-94042000I249999J0D01*
G01*
X129112001Y-94042000D01*
G75*
G02*
X129362000Y-94291999I0J-249999D01*
G01*
G37*
G36*
G01*
X100596000Y-109640000D02*
X102096000Y-109640000D01*
G75*
G02*
X102346000Y-109890000I0J-250000D01*
G01*
X102346000Y-111090000D01*
G75*
G02*
X102096000Y-111340000I-250000J0D01*
G01*
X100596000Y-111340000D01*
G75*
G02*
X100346000Y-111090000I0J250000D01*
G01*
X100346000Y-109890000D01*
G75*
G02*
X100596000Y-109640000I250000J0D01*
G01*
G37*
D12*
X101346000Y-112990000D03*
D13*
X98806000Y-102870000D03*
D14*
X98806000Y-100330000D03*
G36*
G01*
X100621000Y-86780000D02*
X102071000Y-86780000D01*
G75*
G02*
X102321000Y-87030000I0J-250000D01*
G01*
X102321000Y-88230000D01*
G75*
G02*
X102071000Y-88480000I-250000J0D01*
G01*
X100621000Y-88480000D01*
G75*
G02*
X100371000Y-88230000I0J250000D01*
G01*
X100371000Y-87030000D01*
G75*
G02*
X100621000Y-86780000I250000J0D01*
G01*
G37*
D15*
X101346000Y-90130000D03*
X101346000Y-92630000D03*
X101346000Y-95130000D03*
D16*
X120784000Y-116078000D03*
X118284000Y-116078000D03*
X115784000Y-116078000D03*
G36*
G01*
X112434000Y-116803000D02*
X112434000Y-115353000D01*
G75*
G02*
X112684000Y-115103000I250000J0D01*
G01*
X113884000Y-115103000D01*
G75*
G02*
X114134000Y-115353000I0J-250000D01*
G01*
X114134000Y-116803000D01*
G75*
G02*
X113884000Y-117053000I-250000J0D01*
G01*
X112684000Y-117053000D01*
G75*
G02*
X112434000Y-116803000I0J250000D01*
G01*
G37*
D14*
X123190000Y-110998000D03*
D13*
X123190000Y-108458000D03*
X102362000Y-105410000D03*
D14*
X102362000Y-102870000D03*
X102362000Y-100330000D03*
G36*
G01*
X103290000Y-80735000D02*
X103290000Y-79285000D01*
G75*
G02*
X103540000Y-79035000I250000J0D01*
G01*
X104740000Y-79035000D01*
G75*
G02*
X104990000Y-79285000I0J-250000D01*
G01*
X104990000Y-80735000D01*
G75*
G02*
X104740000Y-80985000I-250000J0D01*
G01*
X103540000Y-80985000D01*
G75*
G02*
X103290000Y-80735000I0J250000D01*
G01*
G37*
D16*
X106640000Y-80010000D03*
X109140000Y-80010000D03*
X111640000Y-80010000D03*
X114140000Y-80010000D03*
X116640000Y-80010000D03*
D10*
X124206000Y-85090000D03*
D11*
X126706000Y-85090000D03*
G36*
G01*
X105860001Y-87230000D02*
X104959999Y-87230000D01*
G75*
G02*
X104710000Y-86980001I0J249999D01*
G01*
X104710000Y-86279999D01*
G75*
G02*
X104959999Y-86030000I249999J0D01*
G01*
X105860001Y-86030000D01*
G75*
G02*
X106110000Y-86279999I0J-249999D01*
G01*
X106110000Y-86980001D01*
G75*
G02*
X105860001Y-87230000I-249999J0D01*
G01*
G37*
G36*
G01*
X105860001Y-89230000D02*
X104959999Y-89230000D01*
G75*
G02*
X104710000Y-88980001I0J249999D01*
G01*
X104710000Y-88279999D01*
G75*
G02*
X104959999Y-88030000I249999J0D01*
G01*
X105860001Y-88030000D01*
G75*
G02*
X106110000Y-88279999I0J-249999D01*
G01*
X106110000Y-88980001D01*
G75*
G02*
X105860001Y-89230000I-249999J0D01*
G01*
G37*
G36*
G01*
X97847999Y-80934000D02*
X98748001Y-80934000D01*
G75*
G02*
X98998000Y-81183999I0J-249999D01*
G01*
X98998000Y-81884001D01*
G75*
G02*
X98748001Y-82134000I-249999J0D01*
G01*
X97847999Y-82134000D01*
G75*
G02*
X97598000Y-81884001I0J249999D01*
G01*
X97598000Y-81183999D01*
G75*
G02*
X97847999Y-80934000I249999J0D01*
G01*
G37*
G36*
G01*
X97847999Y-82934000D02*
X98748001Y-82934000D01*
G75*
G02*
X98998000Y-83183999I0J-249999D01*
G01*
X98998000Y-83884001D01*
G75*
G02*
X98748001Y-84134000I-249999J0D01*
G01*
X97847999Y-84134000D01*
G75*
G02*
X97598000Y-83884001I0J249999D01*
G01*
X97598000Y-83183999D01*
G75*
G02*
X97847999Y-82934000I249999J0D01*
G01*
G37*
G36*
G01*
X123282000Y-92005999D02*
X123282000Y-92906001D01*
G75*
G02*
X123032001Y-93156000I-249999J0D01*
G01*
X122331999Y-93156000D01*
G75*
G02*
X122082000Y-92906001I0J249999D01*
G01*
X122082000Y-92005999D01*
G75*
G02*
X122331999Y-91756000I249999J0D01*
G01*
X123032001Y-91756000D01*
G75*
G02*
X123282000Y-92005999I0J-249999D01*
G01*
G37*
G36*
G01*
X125282000Y-92005999D02*
X125282000Y-92906001D01*
G75*
G02*
X125032001Y-93156000I-249999J0D01*
G01*
X124331999Y-93156000D01*
G75*
G02*
X124082000Y-92906001I0J249999D01*
G01*
X124082000Y-92005999D01*
G75*
G02*
X124331999Y-91756000I249999J0D01*
G01*
X125032001Y-91756000D01*
G75*
G02*
X125282000Y-92005999I0J-249999D01*
G01*
G37*
G36*
G01*
X125282000Y-94291999D02*
X125282000Y-95192001D01*
G75*
G02*
X125032001Y-95442000I-249999J0D01*
G01*
X124331999Y-95442000D01*
G75*
G02*
X124082000Y-95192001I0J249999D01*
G01*
X124082000Y-94291999D01*
G75*
G02*
X124331999Y-94042000I249999J0D01*
G01*
X125032001Y-94042000D01*
G75*
G02*
X125282000Y-94291999I0J-249999D01*
G01*
G37*
G36*
G01*
X123282000Y-94291999D02*
X123282000Y-95192001D01*
G75*
G02*
X123032001Y-95442000I-249999J0D01*
G01*
X122331999Y-95442000D01*
G75*
G02*
X122082000Y-95192001I0J249999D01*
G01*
X122082000Y-94291999D01*
G75*
G02*
X122331999Y-94042000I249999J0D01*
G01*
X123032001Y-94042000D01*
G75*
G02*
X123282000Y-94291999I0J-249999D01*
G01*
G37*
G36*
G01*
X132022001Y-95564000D02*
X131121999Y-95564000D01*
G75*
G02*
X130872000Y-95314001I0J249999D01*
G01*
X130872000Y-94613999D01*
G75*
G02*
X131121999Y-94364000I249999J0D01*
G01*
X132022001Y-94364000D01*
G75*
G02*
X132272000Y-94613999I0J-249999D01*
G01*
X132272000Y-95314001D01*
G75*
G02*
X132022001Y-95564000I-249999J0D01*
G01*
G37*
G36*
G01*
X132022001Y-93564000D02*
X131121999Y-93564000D01*
G75*
G02*
X130872000Y-93314001I0J249999D01*
G01*
X130872000Y-92613999D01*
G75*
G02*
X131121999Y-92364000I249999J0D01*
G01*
X132022001Y-92364000D01*
G75*
G02*
X132272000Y-92613999I0J-249999D01*
G01*
X132272000Y-93314001D01*
G75*
G02*
X132022001Y-93564000I-249999J0D01*
G01*
G37*
G36*
G01*
X139100000Y-108654001D02*
X139100000Y-107753999D01*
G75*
G02*
X139349999Y-107504000I249999J0D01*
G01*
X140050001Y-107504000D01*
G75*
G02*
X140300000Y-107753999I0J-249999D01*
G01*
X140300000Y-108654001D01*
G75*
G02*
X140050001Y-108904000I-249999J0D01*
G01*
X139349999Y-108904000D01*
G75*
G02*
X139100000Y-108654001I0J249999D01*
G01*
G37*
G36*
G01*
X137100000Y-108654001D02*
X137100000Y-107753999D01*
G75*
G02*
X137349999Y-107504000I249999J0D01*
G01*
X138050001Y-107504000D01*
G75*
G02*
X138300000Y-107753999I0J-249999D01*
G01*
X138300000Y-108654001D01*
G75*
G02*
X138050001Y-108904000I-249999J0D01*
G01*
X137349999Y-108904000D01*
G75*
G02*
X137100000Y-108654001I0J249999D01*
G01*
G37*
G36*
G01*
X127686000Y-108654001D02*
X127686000Y-107753999D01*
G75*
G02*
X127935999Y-107504000I249999J0D01*
G01*
X128636001Y-107504000D01*
G75*
G02*
X128886000Y-107753999I0J-249999D01*
G01*
X128886000Y-108654001D01*
G75*
G02*
X128636001Y-108904000I-249999J0D01*
G01*
X127935999Y-108904000D01*
G75*
G02*
X127686000Y-108654001I0J249999D01*
G01*
G37*
G36*
G01*
X129686000Y-108654001D02*
X129686000Y-107753999D01*
G75*
G02*
X129935999Y-107504000I249999J0D01*
G01*
X130636001Y-107504000D01*
G75*
G02*
X130886000Y-107753999I0J-249999D01*
G01*
X130886000Y-108654001D01*
G75*
G02*
X130636001Y-108904000I-249999J0D01*
G01*
X129935999Y-108904000D01*
G75*
G02*
X129686000Y-108654001I0J249999D01*
G01*
G37*
G36*
G01*
X124402001Y-102486000D02*
X123501999Y-102486000D01*
G75*
G02*
X123252000Y-102236001I0J249999D01*
G01*
X123252000Y-101535999D01*
G75*
G02*
X123501999Y-101286000I249999J0D01*
G01*
X124402001Y-101286000D01*
G75*
G02*
X124652000Y-101535999I0J-249999D01*
G01*
X124652000Y-102236001D01*
G75*
G02*
X124402001Y-102486000I-249999J0D01*
G01*
G37*
G36*
G01*
X124402001Y-104486000D02*
X123501999Y-104486000D01*
G75*
G02*
X123252000Y-104236001I0J249999D01*
G01*
X123252000Y-103535999D01*
G75*
G02*
X123501999Y-103286000I249999J0D01*
G01*
X124402001Y-103286000D01*
G75*
G02*
X124652000Y-103535999I0J-249999D01*
G01*
X124652000Y-104236001D01*
G75*
G02*
X124402001Y-104486000I-249999J0D01*
G01*
G37*
G36*
G01*
X132274000Y-108654001D02*
X132274000Y-107753999D01*
G75*
G02*
X132523999Y-107504000I249999J0D01*
G01*
X133224001Y-107504000D01*
G75*
G02*
X133474000Y-107753999I0J-249999D01*
G01*
X133474000Y-108654001D01*
G75*
G02*
X133224001Y-108904000I-249999J0D01*
G01*
X132523999Y-108904000D01*
G75*
G02*
X132274000Y-108654001I0J249999D01*
G01*
G37*
G36*
G01*
X134274000Y-108654001D02*
X134274000Y-107753999D01*
G75*
G02*
X134523999Y-107504000I249999J0D01*
G01*
X135224001Y-107504000D01*
G75*
G02*
X135474000Y-107753999I0J-249999D01*
G01*
X135474000Y-108654001D01*
G75*
G02*
X135224001Y-108904000I-249999J0D01*
G01*
X134523999Y-108904000D01*
G75*
G02*
X134274000Y-108654001I0J249999D01*
G01*
G37*
G36*
G01*
X132530001Y-81642000D02*
X131629999Y-81642000D01*
G75*
G02*
X131380000Y-81392001I0J249999D01*
G01*
X131380000Y-80691999D01*
G75*
G02*
X131629999Y-80442000I249999J0D01*
G01*
X132530001Y-80442000D01*
G75*
G02*
X132780000Y-80691999I0J-249999D01*
G01*
X132780000Y-81392001D01*
G75*
G02*
X132530001Y-81642000I-249999J0D01*
G01*
G37*
G36*
G01*
X132530001Y-83642000D02*
X131629999Y-83642000D01*
G75*
G02*
X131380000Y-83392001I0J249999D01*
G01*
X131380000Y-82691999D01*
G75*
G02*
X131629999Y-82442000I249999J0D01*
G01*
X132530001Y-82442000D01*
G75*
G02*
X132780000Y-82691999I0J-249999D01*
G01*
X132780000Y-83392001D01*
G75*
G02*
X132530001Y-83642000I-249999J0D01*
G01*
G37*
D17*
X139628000Y-95250000D03*
X135128000Y-95250000D03*
X139628000Y-88750000D03*
X135128000Y-88750000D03*
X135128000Y-110998000D03*
X139628000Y-110998000D03*
X135128000Y-117498000D03*
X139628000Y-117498000D03*
X131500000Y-117475000D03*
X127000000Y-117475000D03*
X131500000Y-110975000D03*
X127000000Y-110975000D03*
X127072000Y-98806000D03*
X131572000Y-98806000D03*
X127072000Y-105306000D03*
X131572000Y-105306000D03*
X139628000Y-105306000D03*
X135128000Y-105306000D03*
X139628000Y-98806000D03*
X135128000Y-98806000D03*
X135128000Y-78740000D03*
X139628000Y-78740000D03*
X135128000Y-85240000D03*
X139628000Y-85240000D03*
D18*
X106095800Y-91287600D03*
X106095800Y-92786200D03*
X106095800Y-94284800D03*
X106095800Y-95783400D03*
X106095800Y-97282000D03*
X106095800Y-98780600D03*
X106095800Y-100279200D03*
X106095800Y-101777800D03*
X106095800Y-103276400D03*
X106095800Y-104775000D03*
X106095800Y-106273600D03*
X106095800Y-107772200D03*
X106095800Y-109270800D03*
X120015000Y-97256600D03*
X120015000Y-95758000D03*
X120015000Y-94259400D03*
X120015000Y-92760800D03*
X120015000Y-91262200D03*
X120015000Y-107061000D03*
X120015000Y-104521000D03*
X120015000Y-101981000D03*
X120015000Y-99441000D03*
D19*
X107950000Y-111760000D03*
X110490000Y-111760000D03*
X113030000Y-111760000D03*
X115570000Y-111760000D03*
X118110000Y-111760000D03*
M02*
