G04 #@! TF.GenerationSoftware,KiCad,Pcbnew,5.1.9+dfsg1-1+deb11u1*
G04 #@! TF.CreationDate,2023-05-29T16:58:53+09:00*
G04 #@! TF.ProjectId,bluetooth_JDY-67_dev_board,626c7565-746f-46f7-9468-5f4a44592d36,rev?*
G04 #@! TF.SameCoordinates,Original*
G04 #@! TF.FileFunction,Legend,Top*
G04 #@! TF.FilePolarity,Positive*
%FSLAX46Y46*%
G04 Gerber Fmt 4.6, Leading zero omitted, Abs format (unit mm)*
G04 Created by KiCad (PCBNEW 5.1.9+dfsg1-1+deb11u1) date 2023-05-29 16:58:53*
%MOMM*%
%LPD*%
G01*
G04 APERTURE LIST*
%ADD10C,0.150000*%
%ADD11C,0.120000*%
%ADD12R,1.600000X1.600000*%
%ADD13C,1.600000*%
%ADD14O,2.000000X1.700000*%
%ADD15R,1.700000X1.700000*%
%ADD16O,1.700000X1.700000*%
%ADD17O,1.950000X1.700000*%
%ADD18O,1.700000X1.950000*%
%ADD19C,2.000000*%
%ADD20R,2.000000X1.200000*%
%ADD21R,1.200000X2.000000*%
G04 APERTURE END LIST*
D10*
X98044000Y-77938380D02*
X98044000Y-78176476D01*
X97805904Y-78081238D02*
X98044000Y-78176476D01*
X98282095Y-78081238D01*
X97901142Y-78366952D02*
X98044000Y-78176476D01*
X98186857Y-78366952D01*
X129047904Y-97067714D02*
X128286000Y-97353428D01*
X129047904Y-97639142D01*
X130286000Y-97067714D02*
X129524095Y-97353428D01*
X130286000Y-97639142D01*
X136414000Y-97067714D02*
X137175904Y-97353428D01*
X136414000Y-97639142D01*
X137652095Y-97067714D02*
X138414000Y-97353428D01*
X137652095Y-97639142D01*
X123015428Y-106021142D02*
X122967809Y-106068761D01*
X122824952Y-106116380D01*
X122729714Y-106116380D01*
X122586857Y-106068761D01*
X122491619Y-105973523D01*
X122444000Y-105878285D01*
X122396380Y-105687809D01*
X122396380Y-105544952D01*
X122444000Y-105354476D01*
X122491619Y-105259238D01*
X122586857Y-105164000D01*
X122729714Y-105116380D01*
X122824952Y-105116380D01*
X122967809Y-105164000D01*
X123015428Y-105211619D01*
X123444000Y-106021142D02*
X123491619Y-106068761D01*
X123444000Y-106116380D01*
X123396380Y-106068761D01*
X123444000Y-106021142D01*
X123444000Y-106116380D01*
X124444000Y-105164000D02*
X124348761Y-105116380D01*
X124205904Y-105116380D01*
X124063047Y-105164000D01*
X123967809Y-105259238D01*
X123920190Y-105354476D01*
X123872571Y-105544952D01*
X123872571Y-105687809D01*
X123920190Y-105878285D01*
X123967809Y-105973523D01*
X124063047Y-106068761D01*
X124205904Y-106116380D01*
X124301142Y-106116380D01*
X124444000Y-106068761D01*
X124491619Y-106021142D01*
X124491619Y-105687809D01*
X124301142Y-105687809D01*
X104798761Y-102028476D02*
X104846380Y-101885619D01*
X104846380Y-101647523D01*
X104798761Y-101552285D01*
X104751142Y-101504666D01*
X104655904Y-101457047D01*
X104560666Y-101457047D01*
X104465428Y-101504666D01*
X104417809Y-101552285D01*
X104370190Y-101647523D01*
X104322571Y-101838000D01*
X104274952Y-101933238D01*
X104227333Y-101980857D01*
X104132095Y-102028476D01*
X104036857Y-102028476D01*
X103941619Y-101980857D01*
X103894000Y-101933238D01*
X103846380Y-101838000D01*
X103846380Y-101599904D01*
X103894000Y-101457047D01*
X104370190Y-100838000D02*
X104846380Y-100838000D01*
X103846380Y-101171333D02*
X104370190Y-100838000D01*
X103846380Y-100504666D01*
X104798761Y-100218952D02*
X104846380Y-100076095D01*
X104846380Y-99838000D01*
X104798761Y-99742761D01*
X104751142Y-99695142D01*
X104655904Y-99647523D01*
X104560666Y-99647523D01*
X104465428Y-99695142D01*
X104417809Y-99742761D01*
X104370190Y-99838000D01*
X104322571Y-100028476D01*
X104274952Y-100123714D01*
X104227333Y-100171333D01*
X104132095Y-100218952D01*
X104036857Y-100218952D01*
X103941619Y-100171333D01*
X103894000Y-100123714D01*
X103846380Y-100028476D01*
X103846380Y-99790380D01*
X103894000Y-99647523D01*
X104846380Y-105933809D02*
X103846380Y-105933809D01*
X103846380Y-105267142D02*
X103846380Y-105076666D01*
X103894000Y-104981428D01*
X103989238Y-104886190D01*
X104179714Y-104838571D01*
X104513047Y-104838571D01*
X104703523Y-104886190D01*
X104798761Y-104981428D01*
X104846380Y-105076666D01*
X104846380Y-105267142D01*
X104798761Y-105362380D01*
X104703523Y-105457619D01*
X104513047Y-105505238D01*
X104179714Y-105505238D01*
X103989238Y-105457619D01*
X103894000Y-105362380D01*
X103846380Y-105267142D01*
X114363523Y-82399142D02*
X114315904Y-82446761D01*
X114173047Y-82494380D01*
X114077809Y-82494380D01*
X113934952Y-82446761D01*
X113839714Y-82351523D01*
X113792095Y-82256285D01*
X113744476Y-82065809D01*
X113744476Y-81922952D01*
X113792095Y-81732476D01*
X113839714Y-81637238D01*
X113934952Y-81542000D01*
X114077809Y-81494380D01*
X114173047Y-81494380D01*
X114315904Y-81542000D01*
X114363523Y-81589619D01*
X114792095Y-82494380D02*
X114792095Y-81494380D01*
X115030190Y-81494380D01*
X115173047Y-81542000D01*
X115268285Y-81637238D01*
X115315904Y-81732476D01*
X115363523Y-81922952D01*
X115363523Y-82065809D01*
X115315904Y-82256285D01*
X115268285Y-82351523D01*
X115173047Y-82446761D01*
X115030190Y-82494380D01*
X114792095Y-82494380D01*
X116847904Y-81542000D02*
X116752666Y-81494380D01*
X116609809Y-81494380D01*
X116466952Y-81542000D01*
X116371714Y-81637238D01*
X116324095Y-81732476D01*
X116276476Y-81922952D01*
X116276476Y-82065809D01*
X116324095Y-82256285D01*
X116371714Y-82351523D01*
X116466952Y-82446761D01*
X116609809Y-82494380D01*
X116705047Y-82494380D01*
X116847904Y-82446761D01*
X116895523Y-82399142D01*
X116895523Y-82065809D01*
X116705047Y-82065809D01*
X106346666Y-81494380D02*
X106680000Y-82494380D01*
X107013333Y-81494380D01*
X110942571Y-82494380D02*
X110942571Y-81494380D01*
X111180666Y-81494380D01*
X111323523Y-81542000D01*
X111418761Y-81637238D01*
X111466380Y-81732476D01*
X111514000Y-81922952D01*
X111514000Y-82065809D01*
X111466380Y-82256285D01*
X111418761Y-82351523D01*
X111323523Y-82446761D01*
X111180666Y-82494380D01*
X110942571Y-82494380D01*
X111894952Y-82208666D02*
X112371142Y-82208666D01*
X111799714Y-82494380D02*
X112133047Y-81494380D01*
X112466380Y-82494380D01*
X112656857Y-81494380D02*
X113228285Y-81494380D01*
X112942571Y-82494380D02*
X112942571Y-81494380D01*
X108370761Y-82399142D02*
X108323142Y-82446761D01*
X108180285Y-82494380D01*
X108085047Y-82494380D01*
X107942190Y-82446761D01*
X107846952Y-82351523D01*
X107799333Y-82256285D01*
X107751714Y-82065809D01*
X107751714Y-81922952D01*
X107799333Y-81732476D01*
X107846952Y-81637238D01*
X107942190Y-81542000D01*
X108085047Y-81494380D01*
X108180285Y-81494380D01*
X108323142Y-81542000D01*
X108370761Y-81589619D01*
X109275523Y-82494380D02*
X108799333Y-82494380D01*
X108799333Y-81494380D01*
X109608857Y-82494380D02*
X109608857Y-81494380D01*
X110180285Y-82494380D02*
X109751714Y-81922952D01*
X110180285Y-81494380D02*
X109608857Y-82065809D01*
X103378095Y-82399142D02*
X103330476Y-82446761D01*
X103187619Y-82494380D01*
X103092380Y-82494380D01*
X102949523Y-82446761D01*
X102854285Y-82351523D01*
X102806666Y-82256285D01*
X102759047Y-82065809D01*
X102759047Y-81922952D01*
X102806666Y-81732476D01*
X102854285Y-81637238D01*
X102949523Y-81542000D01*
X103092380Y-81494380D01*
X103187619Y-81494380D01*
X103330476Y-81542000D01*
X103378095Y-81589619D01*
X103806666Y-82494380D02*
X103806666Y-81494380D01*
X104140000Y-82208666D01*
X104473333Y-81494380D01*
X104473333Y-82494380D01*
X104949523Y-82494380D02*
X104949523Y-81494380D01*
X105187619Y-81494380D01*
X105330476Y-81542000D01*
X105425714Y-81637238D01*
X105473333Y-81732476D01*
X105520952Y-81922952D01*
X105520952Y-82065809D01*
X105473333Y-82256285D01*
X105425714Y-82351523D01*
X105330476Y-82446761D01*
X105187619Y-82494380D01*
X104949523Y-82494380D01*
X99829904Y-94750000D02*
X99734666Y-94702380D01*
X99591809Y-94702380D01*
X99448952Y-94750000D01*
X99353714Y-94845238D01*
X99306095Y-94940476D01*
X99258476Y-95130952D01*
X99258476Y-95273809D01*
X99306095Y-95464285D01*
X99353714Y-95559523D01*
X99448952Y-95654761D01*
X99591809Y-95702380D01*
X99687047Y-95702380D01*
X99829904Y-95654761D01*
X99877523Y-95607142D01*
X99877523Y-95273809D01*
X99687047Y-95273809D01*
X99877523Y-93162380D02*
X99544190Y-92686190D01*
X99306095Y-93162380D02*
X99306095Y-92162380D01*
X99687047Y-92162380D01*
X99782285Y-92210000D01*
X99829904Y-92257619D01*
X99877523Y-92352857D01*
X99877523Y-92495714D01*
X99829904Y-92590952D01*
X99782285Y-92638571D01*
X99687047Y-92686190D01*
X99306095Y-92686190D01*
X99282285Y-89876380D02*
X99853714Y-89876380D01*
X99568000Y-90876380D02*
X99568000Y-89876380D01*
X99234666Y-87336380D02*
X99568000Y-88336380D01*
X99901333Y-87336380D01*
X97790095Y-116848000D02*
X97694857Y-116800380D01*
X97552000Y-116800380D01*
X97409142Y-116848000D01*
X97313904Y-116943238D01*
X97266285Y-117038476D01*
X97218666Y-117228952D01*
X97218666Y-117371809D01*
X97266285Y-117562285D01*
X97313904Y-117657523D01*
X97409142Y-117752761D01*
X97552000Y-117800380D01*
X97647238Y-117800380D01*
X97790095Y-117752761D01*
X97837714Y-117705142D01*
X97837714Y-117371809D01*
X97647238Y-117371809D01*
X98266285Y-117800380D02*
X98266285Y-116800380D01*
X98837714Y-117800380D01*
X98837714Y-116800380D01*
X99313904Y-117800380D02*
X99313904Y-116800380D01*
X99552000Y-116800380D01*
X99694857Y-116848000D01*
X99790095Y-116943238D01*
X99837714Y-117038476D01*
X99885333Y-117228952D01*
X99885333Y-117371809D01*
X99837714Y-117562285D01*
X99790095Y-117657523D01*
X99694857Y-117752761D01*
X99552000Y-117800380D01*
X99313904Y-117800380D01*
X97726666Y-106132380D02*
X98060000Y-107132380D01*
X98393333Y-106132380D01*
X99298095Y-107037142D02*
X99250476Y-107084761D01*
X99107619Y-107132380D01*
X99012380Y-107132380D01*
X98869523Y-107084761D01*
X98774285Y-106989523D01*
X98726666Y-106894285D01*
X98679047Y-106703809D01*
X98679047Y-106560952D01*
X98726666Y-106370476D01*
X98774285Y-106275238D01*
X98869523Y-106180000D01*
X99012380Y-106132380D01*
X99107619Y-106132380D01*
X99250476Y-106180000D01*
X99298095Y-106227619D01*
X100298095Y-107037142D02*
X100250476Y-107084761D01*
X100107619Y-107132380D01*
X100012380Y-107132380D01*
X99869523Y-107084761D01*
X99774285Y-106989523D01*
X99726666Y-106894285D01*
X99679047Y-106703809D01*
X99679047Y-106560952D01*
X99726666Y-106370476D01*
X99774285Y-106275238D01*
X99869523Y-106180000D01*
X100012380Y-106132380D01*
X100107619Y-106132380D01*
X100250476Y-106180000D01*
X100298095Y-106227619D01*
X130048190Y-91384380D02*
X130048190Y-90384380D01*
X130429142Y-90384380D01*
X130524380Y-90432000D01*
X130572000Y-90479619D01*
X130619619Y-90574857D01*
X130619619Y-90717714D01*
X130572000Y-90812952D01*
X130524380Y-90860571D01*
X130429142Y-90908190D01*
X130048190Y-90908190D01*
X131524380Y-91384380D02*
X131048190Y-91384380D01*
X131048190Y-90384380D01*
X131810095Y-91098666D02*
X132286285Y-91098666D01*
X131714857Y-91384380D02*
X132048190Y-90384380D01*
X132381523Y-91384380D01*
X132905333Y-90908190D02*
X132905333Y-91384380D01*
X132572000Y-90384380D02*
X132905333Y-90908190D01*
X133238666Y-90384380D01*
X129508476Y-78938380D02*
X129508476Y-77938380D01*
X129841809Y-78652666D01*
X130175142Y-77938380D01*
X130175142Y-78938380D01*
X130841809Y-77938380D02*
X131032285Y-77938380D01*
X131127523Y-77986000D01*
X131222761Y-78081238D01*
X131270380Y-78271714D01*
X131270380Y-78605047D01*
X131222761Y-78795523D01*
X131127523Y-78890761D01*
X131032285Y-78938380D01*
X130841809Y-78938380D01*
X130746571Y-78890761D01*
X130651333Y-78795523D01*
X130603714Y-78605047D01*
X130603714Y-78271714D01*
X130651333Y-78081238D01*
X130746571Y-77986000D01*
X130841809Y-77938380D01*
X131698952Y-78938380D02*
X131698952Y-77938380D01*
X131937047Y-77938380D01*
X132079904Y-77986000D01*
X132175142Y-78081238D01*
X132222761Y-78176476D01*
X132270380Y-78366952D01*
X132270380Y-78509809D01*
X132222761Y-78700285D01*
X132175142Y-78795523D01*
X132079904Y-78890761D01*
X131937047Y-78938380D01*
X131698952Y-78938380D01*
X132698952Y-78414571D02*
X133032285Y-78414571D01*
X133175142Y-78938380D02*
X132698952Y-78938380D01*
X132698952Y-77938380D01*
X133175142Y-77938380D01*
X128167047Y-118578380D02*
X128500380Y-119578380D01*
X128833714Y-118578380D01*
X129357523Y-118578380D02*
X129548000Y-118578380D01*
X129643238Y-118626000D01*
X129738476Y-118721238D01*
X129786095Y-118911714D01*
X129786095Y-119245047D01*
X129738476Y-119435523D01*
X129643238Y-119530761D01*
X129548000Y-119578380D01*
X129357523Y-119578380D01*
X129262285Y-119530761D01*
X129167047Y-119435523D01*
X129119428Y-119245047D01*
X129119428Y-118911714D01*
X129167047Y-118721238D01*
X129262285Y-118626000D01*
X129357523Y-118578380D01*
X130690857Y-119578380D02*
X130214666Y-119578380D01*
X130214666Y-118578380D01*
X131024190Y-119197428D02*
X131786095Y-119197428D01*
X136295047Y-118578380D02*
X136628380Y-119578380D01*
X136961714Y-118578380D01*
X137485523Y-118578380D02*
X137676000Y-118578380D01*
X137771238Y-118626000D01*
X137866476Y-118721238D01*
X137914095Y-118911714D01*
X137914095Y-119245047D01*
X137866476Y-119435523D01*
X137771238Y-119530761D01*
X137676000Y-119578380D01*
X137485523Y-119578380D01*
X137390285Y-119530761D01*
X137295047Y-119435523D01*
X137247428Y-119245047D01*
X137247428Y-118911714D01*
X137295047Y-118721238D01*
X137390285Y-118626000D01*
X137485523Y-118578380D01*
X138818857Y-119578380D02*
X138342666Y-119578380D01*
X138342666Y-118578380D01*
X139152190Y-119197428D02*
X139914095Y-119197428D01*
X139533142Y-119578380D02*
X139533142Y-118816476D01*
X124150476Y-119578380D02*
X123817142Y-119102190D01*
X123579047Y-119578380D02*
X123579047Y-118578380D01*
X123960000Y-118578380D01*
X124055238Y-118626000D01*
X124102857Y-118673619D01*
X124150476Y-118768857D01*
X124150476Y-118911714D01*
X124102857Y-119006952D01*
X124055238Y-119054571D01*
X123960000Y-119102190D01*
X123579047Y-119102190D01*
X124579047Y-119197428D02*
X125340952Y-119197428D01*
X124960000Y-119578380D02*
X124960000Y-118816476D01*
X109418476Y-119832380D02*
X108942285Y-119832380D01*
X108942285Y-118832380D01*
X109751809Y-119451428D02*
X110513714Y-119451428D01*
X110132761Y-119832380D02*
X110132761Y-119070476D01*
D11*
X109824000Y-116332000D02*
G75*
G03*
X109824000Y-116332000I-2620000J0D01*
G01*
X107204000Y-117372000D02*
X107204000Y-118912000D01*
X107204000Y-113752000D02*
X107204000Y-115292000D01*
X107244000Y-117372000D02*
X107244000Y-118912000D01*
X107244000Y-113752000D02*
X107244000Y-115292000D01*
X107284000Y-113753000D02*
X107284000Y-115292000D01*
X107284000Y-117372000D02*
X107284000Y-118911000D01*
X107324000Y-113754000D02*
X107324000Y-115292000D01*
X107324000Y-117372000D02*
X107324000Y-118910000D01*
X107364000Y-113756000D02*
X107364000Y-115292000D01*
X107364000Y-117372000D02*
X107364000Y-118908000D01*
X107404000Y-113759000D02*
X107404000Y-115292000D01*
X107404000Y-117372000D02*
X107404000Y-118905000D01*
X107444000Y-113763000D02*
X107444000Y-115292000D01*
X107444000Y-117372000D02*
X107444000Y-118901000D01*
X107484000Y-113767000D02*
X107484000Y-115292000D01*
X107484000Y-117372000D02*
X107484000Y-118897000D01*
X107524000Y-113771000D02*
X107524000Y-115292000D01*
X107524000Y-117372000D02*
X107524000Y-118893000D01*
X107564000Y-113776000D02*
X107564000Y-115292000D01*
X107564000Y-117372000D02*
X107564000Y-118888000D01*
X107604000Y-113782000D02*
X107604000Y-115292000D01*
X107604000Y-117372000D02*
X107604000Y-118882000D01*
X107644000Y-113789000D02*
X107644000Y-115292000D01*
X107644000Y-117372000D02*
X107644000Y-118875000D01*
X107684000Y-113796000D02*
X107684000Y-115292000D01*
X107684000Y-117372000D02*
X107684000Y-118868000D01*
X107724000Y-113804000D02*
X107724000Y-115292000D01*
X107724000Y-117372000D02*
X107724000Y-118860000D01*
X107764000Y-113812000D02*
X107764000Y-115292000D01*
X107764000Y-117372000D02*
X107764000Y-118852000D01*
X107804000Y-113821000D02*
X107804000Y-115292000D01*
X107804000Y-117372000D02*
X107804000Y-118843000D01*
X107844000Y-113831000D02*
X107844000Y-115292000D01*
X107844000Y-117372000D02*
X107844000Y-118833000D01*
X107884000Y-113841000D02*
X107884000Y-115292000D01*
X107884000Y-117372000D02*
X107884000Y-118823000D01*
X107925000Y-113852000D02*
X107925000Y-115292000D01*
X107925000Y-117372000D02*
X107925000Y-118812000D01*
X107965000Y-113864000D02*
X107965000Y-115292000D01*
X107965000Y-117372000D02*
X107965000Y-118800000D01*
X108005000Y-113877000D02*
X108005000Y-115292000D01*
X108005000Y-117372000D02*
X108005000Y-118787000D01*
X108045000Y-113890000D02*
X108045000Y-115292000D01*
X108045000Y-117372000D02*
X108045000Y-118774000D01*
X108085000Y-113904000D02*
X108085000Y-115292000D01*
X108085000Y-117372000D02*
X108085000Y-118760000D01*
X108125000Y-113918000D02*
X108125000Y-115292000D01*
X108125000Y-117372000D02*
X108125000Y-118746000D01*
X108165000Y-113934000D02*
X108165000Y-115292000D01*
X108165000Y-117372000D02*
X108165000Y-118730000D01*
X108205000Y-113950000D02*
X108205000Y-115292000D01*
X108205000Y-117372000D02*
X108205000Y-118714000D01*
X108245000Y-113967000D02*
X108245000Y-115292000D01*
X108245000Y-117372000D02*
X108245000Y-118697000D01*
X108285000Y-113984000D02*
X108285000Y-115292000D01*
X108285000Y-117372000D02*
X108285000Y-118680000D01*
X108325000Y-114003000D02*
X108325000Y-115292000D01*
X108325000Y-117372000D02*
X108325000Y-118661000D01*
X108365000Y-114022000D02*
X108365000Y-115292000D01*
X108365000Y-117372000D02*
X108365000Y-118642000D01*
X108405000Y-114042000D02*
X108405000Y-115292000D01*
X108405000Y-117372000D02*
X108405000Y-118622000D01*
X108445000Y-114064000D02*
X108445000Y-115292000D01*
X108445000Y-117372000D02*
X108445000Y-118600000D01*
X108485000Y-114085000D02*
X108485000Y-115292000D01*
X108485000Y-117372000D02*
X108485000Y-118579000D01*
X108525000Y-114108000D02*
X108525000Y-115292000D01*
X108525000Y-117372000D02*
X108525000Y-118556000D01*
X108565000Y-114132000D02*
X108565000Y-115292000D01*
X108565000Y-117372000D02*
X108565000Y-118532000D01*
X108605000Y-114157000D02*
X108605000Y-115292000D01*
X108605000Y-117372000D02*
X108605000Y-118507000D01*
X108645000Y-114183000D02*
X108645000Y-115292000D01*
X108645000Y-117372000D02*
X108645000Y-118481000D01*
X108685000Y-114210000D02*
X108685000Y-115292000D01*
X108685000Y-117372000D02*
X108685000Y-118454000D01*
X108725000Y-114237000D02*
X108725000Y-115292000D01*
X108725000Y-117372000D02*
X108725000Y-118427000D01*
X108765000Y-114267000D02*
X108765000Y-115292000D01*
X108765000Y-117372000D02*
X108765000Y-118397000D01*
X108805000Y-114297000D02*
X108805000Y-115292000D01*
X108805000Y-117372000D02*
X108805000Y-118367000D01*
X108845000Y-114328000D02*
X108845000Y-115292000D01*
X108845000Y-117372000D02*
X108845000Y-118336000D01*
X108885000Y-114361000D02*
X108885000Y-115292000D01*
X108885000Y-117372000D02*
X108885000Y-118303000D01*
X108925000Y-114395000D02*
X108925000Y-115292000D01*
X108925000Y-117372000D02*
X108925000Y-118269000D01*
X108965000Y-114431000D02*
X108965000Y-115292000D01*
X108965000Y-117372000D02*
X108965000Y-118233000D01*
X109005000Y-114468000D02*
X109005000Y-115292000D01*
X109005000Y-117372000D02*
X109005000Y-118196000D01*
X109045000Y-114506000D02*
X109045000Y-115292000D01*
X109045000Y-117372000D02*
X109045000Y-118158000D01*
X109085000Y-114547000D02*
X109085000Y-115292000D01*
X109085000Y-117372000D02*
X109085000Y-118117000D01*
X109125000Y-114589000D02*
X109125000Y-115292000D01*
X109125000Y-117372000D02*
X109125000Y-118075000D01*
X109165000Y-114633000D02*
X109165000Y-115292000D01*
X109165000Y-117372000D02*
X109165000Y-118031000D01*
X109205000Y-114679000D02*
X109205000Y-115292000D01*
X109205000Y-117372000D02*
X109205000Y-117985000D01*
X109245000Y-114727000D02*
X109245000Y-117937000D01*
X109285000Y-114778000D02*
X109285000Y-117886000D01*
X109325000Y-114832000D02*
X109325000Y-117832000D01*
X109365000Y-114889000D02*
X109365000Y-117775000D01*
X109405000Y-114949000D02*
X109405000Y-117715000D01*
X109445000Y-115013000D02*
X109445000Y-117651000D01*
X109485000Y-115081000D02*
X109485000Y-117583000D01*
X109525000Y-115154000D02*
X109525000Y-117510000D01*
X109565000Y-115234000D02*
X109565000Y-117430000D01*
X109605000Y-115321000D02*
X109605000Y-117343000D01*
X109645000Y-115417000D02*
X109645000Y-117247000D01*
X109685000Y-115527000D02*
X109685000Y-117137000D01*
X109725000Y-115655000D02*
X109725000Y-117009000D01*
X109765000Y-115814000D02*
X109765000Y-116850000D01*
X109805000Y-116048000D02*
X109805000Y-116616000D01*
X104399225Y-114857000D02*
X104899225Y-114857000D01*
X104649225Y-114607000D02*
X104649225Y-115107000D01*
X102335064Y-118337000D02*
X101880936Y-118337000D01*
X102335064Y-116867000D02*
X101880936Y-116867000D01*
X101065000Y-82777064D02*
X101065000Y-82322936D01*
X99595000Y-82777064D02*
X99595000Y-82322936D01*
X126762000Y-93416000D02*
X129622000Y-93416000D01*
X129622000Y-93416000D02*
X129622000Y-91496000D01*
X129622000Y-91496000D02*
X126762000Y-91496000D01*
X129622000Y-93782000D02*
X126762000Y-93782000D01*
X129622000Y-95702000D02*
X129622000Y-93782000D01*
X126762000Y-95702000D02*
X129622000Y-95702000D01*
X103806000Y-107930000D02*
X97836000Y-107930000D01*
X97836000Y-107930000D02*
X97836000Y-115550000D01*
X97836000Y-115550000D02*
X103806000Y-115550000D01*
X103806000Y-115550000D02*
X103806000Y-107930000D01*
X103796000Y-111240000D02*
X103046000Y-111240000D01*
X103046000Y-111240000D02*
X103046000Y-112240000D01*
X103046000Y-112240000D02*
X103796000Y-112240000D01*
X103796000Y-112240000D02*
X103796000Y-111240000D01*
X103796000Y-107940000D02*
X103046000Y-107940000D01*
X103046000Y-107940000D02*
X103046000Y-109740000D01*
X103046000Y-109740000D02*
X103796000Y-109740000D01*
X103796000Y-109740000D02*
X103796000Y-107940000D01*
X103796000Y-113740000D02*
X103046000Y-113740000D01*
X103046000Y-113740000D02*
X103046000Y-115540000D01*
X103046000Y-115540000D02*
X103796000Y-115540000D01*
X103796000Y-115540000D02*
X103796000Y-113740000D01*
X101546000Y-107940000D02*
X101546000Y-108690000D01*
X101546000Y-108690000D02*
X98596000Y-108690000D01*
X98596000Y-108690000D02*
X98596000Y-111740000D01*
X101546000Y-115540000D02*
X101546000Y-114790000D01*
X101546000Y-114790000D02*
X98596000Y-114790000D01*
X98596000Y-114790000D02*
X98596000Y-111740000D01*
X104096000Y-108890000D02*
X104096000Y-107640000D01*
X104096000Y-107640000D02*
X102846000Y-107640000D01*
X100136000Y-99000000D02*
X97476000Y-99000000D01*
X100136000Y-101600000D02*
X100136000Y-99000000D01*
X97476000Y-101600000D02*
X97476000Y-99000000D01*
X100136000Y-101600000D02*
X97476000Y-101600000D01*
X100136000Y-102870000D02*
X100136000Y-104200000D01*
X100136000Y-104200000D02*
X98806000Y-104200000D01*
X103806000Y-85070000D02*
X97836000Y-85070000D01*
X97836000Y-85070000D02*
X97836000Y-97690000D01*
X97836000Y-97690000D02*
X103806000Y-97690000D01*
X103806000Y-97690000D02*
X103806000Y-85070000D01*
X103796000Y-88380000D02*
X103046000Y-88380000D01*
X103046000Y-88380000D02*
X103046000Y-94380000D01*
X103046000Y-94380000D02*
X103796000Y-94380000D01*
X103796000Y-94380000D02*
X103796000Y-88380000D01*
X103796000Y-85080000D02*
X103046000Y-85080000D01*
X103046000Y-85080000D02*
X103046000Y-86880000D01*
X103046000Y-86880000D02*
X103796000Y-86880000D01*
X103796000Y-86880000D02*
X103796000Y-85080000D01*
X103796000Y-95880000D02*
X103046000Y-95880000D01*
X103046000Y-95880000D02*
X103046000Y-97680000D01*
X103046000Y-97680000D02*
X103796000Y-97680000D01*
X103796000Y-97680000D02*
X103796000Y-95880000D01*
X101546000Y-85080000D02*
X101546000Y-85830000D01*
X101546000Y-85830000D02*
X98596000Y-85830000D01*
X98596000Y-85830000D02*
X98596000Y-91380000D01*
X101546000Y-97680000D02*
X101546000Y-96930000D01*
X101546000Y-96930000D02*
X98596000Y-96930000D01*
X98596000Y-96930000D02*
X98596000Y-91380000D01*
X104096000Y-86030000D02*
X104096000Y-84780000D01*
X104096000Y-84780000D02*
X102846000Y-84780000D01*
X110434000Y-113328000D02*
X110434000Y-114578000D01*
X111684000Y-113328000D02*
X110434000Y-113328000D01*
X122584000Y-118828000D02*
X117034000Y-118828000D01*
X122584000Y-115878000D02*
X122584000Y-118828000D01*
X123334000Y-115878000D02*
X122584000Y-115878000D01*
X111484000Y-118828000D02*
X117034000Y-118828000D01*
X111484000Y-115878000D02*
X111484000Y-118828000D01*
X110734000Y-115878000D02*
X111484000Y-115878000D01*
X123334000Y-113628000D02*
X121534000Y-113628000D01*
X123334000Y-114378000D02*
X123334000Y-113628000D01*
X121534000Y-114378000D02*
X123334000Y-114378000D01*
X121534000Y-113628000D02*
X121534000Y-114378000D01*
X112534000Y-113628000D02*
X110734000Y-113628000D01*
X112534000Y-114378000D02*
X112534000Y-113628000D01*
X110734000Y-114378000D02*
X112534000Y-114378000D01*
X110734000Y-113628000D02*
X110734000Y-114378000D01*
X120034000Y-113628000D02*
X114034000Y-113628000D01*
X120034000Y-114378000D02*
X120034000Y-113628000D01*
X114034000Y-114378000D02*
X120034000Y-114378000D01*
X114034000Y-113628000D02*
X114034000Y-114378000D01*
X123344000Y-113618000D02*
X110724000Y-113618000D01*
X123344000Y-119588000D02*
X123344000Y-113618000D01*
X110724000Y-119588000D02*
X123344000Y-119588000D01*
X110724000Y-113618000D02*
X110724000Y-119588000D01*
X121860000Y-107128000D02*
X123190000Y-107128000D01*
X121860000Y-108458000D02*
X121860000Y-107128000D01*
X121860000Y-109728000D02*
X124520000Y-109728000D01*
X124520000Y-109728000D02*
X124520000Y-112328000D01*
X121860000Y-109728000D02*
X121860000Y-112328000D01*
X121860000Y-112328000D02*
X124520000Y-112328000D01*
X103692000Y-99000000D02*
X101032000Y-99000000D01*
X103692000Y-104140000D02*
X103692000Y-99000000D01*
X101032000Y-104140000D02*
X101032000Y-99000000D01*
X103692000Y-104140000D02*
X101032000Y-104140000D01*
X103692000Y-105410000D02*
X103692000Y-106740000D01*
X103692000Y-106740000D02*
X102362000Y-106740000D01*
X101580000Y-77550000D02*
X101580000Y-83520000D01*
X101580000Y-83520000D02*
X119200000Y-83520000D01*
X119200000Y-83520000D02*
X119200000Y-77550000D01*
X119200000Y-77550000D02*
X101580000Y-77550000D01*
X104890000Y-77560000D02*
X104890000Y-78310000D01*
X104890000Y-78310000D02*
X115890000Y-78310000D01*
X115890000Y-78310000D02*
X115890000Y-77560000D01*
X115890000Y-77560000D02*
X104890000Y-77560000D01*
X101590000Y-77560000D02*
X101590000Y-78310000D01*
X101590000Y-78310000D02*
X103390000Y-78310000D01*
X103390000Y-78310000D02*
X103390000Y-77560000D01*
X103390000Y-77560000D02*
X101590000Y-77560000D01*
X117390000Y-77560000D02*
X117390000Y-78310000D01*
X117390000Y-78310000D02*
X119190000Y-78310000D01*
X119190000Y-78310000D02*
X119190000Y-77560000D01*
X119190000Y-77560000D02*
X117390000Y-77560000D01*
X101590000Y-79810000D02*
X102340000Y-79810000D01*
X102340000Y-79810000D02*
X102340000Y-82760000D01*
X102340000Y-82760000D02*
X110390000Y-82760000D01*
X119190000Y-79810000D02*
X118440000Y-79810000D01*
X118440000Y-79810000D02*
X118440000Y-82760000D01*
X118440000Y-82760000D02*
X110390000Y-82760000D01*
X102540000Y-77260000D02*
X101290000Y-77260000D01*
X101290000Y-77260000D02*
X101290000Y-78510000D01*
X130576000Y-85090000D02*
G75*
G03*
X130576000Y-85090000I-5120000J0D01*
G01*
X125456000Y-80010000D02*
X125456000Y-90170000D01*
X125496000Y-80010000D02*
X125496000Y-90170000D01*
X125536000Y-80010000D02*
X125536000Y-90170000D01*
X125576000Y-80011000D02*
X125576000Y-90169000D01*
X125616000Y-80012000D02*
X125616000Y-90168000D01*
X125656000Y-80013000D02*
X125656000Y-90167000D01*
X125696000Y-80015000D02*
X125696000Y-84050000D01*
X125696000Y-86130000D02*
X125696000Y-90165000D01*
X125736000Y-80017000D02*
X125736000Y-84050000D01*
X125736000Y-86130000D02*
X125736000Y-90163000D01*
X125776000Y-80020000D02*
X125776000Y-84050000D01*
X125776000Y-86130000D02*
X125776000Y-90160000D01*
X125816000Y-80022000D02*
X125816000Y-84050000D01*
X125816000Y-86130000D02*
X125816000Y-90158000D01*
X125856000Y-80025000D02*
X125856000Y-84050000D01*
X125856000Y-86130000D02*
X125856000Y-90155000D01*
X125896000Y-80028000D02*
X125896000Y-84050000D01*
X125896000Y-86130000D02*
X125896000Y-90152000D01*
X125936000Y-80032000D02*
X125936000Y-84050000D01*
X125936000Y-86130000D02*
X125936000Y-90148000D01*
X125976000Y-80036000D02*
X125976000Y-84050000D01*
X125976000Y-86130000D02*
X125976000Y-90144000D01*
X126016000Y-80040000D02*
X126016000Y-84050000D01*
X126016000Y-86130000D02*
X126016000Y-90140000D01*
X126056000Y-80045000D02*
X126056000Y-84050000D01*
X126056000Y-86130000D02*
X126056000Y-90135000D01*
X126096000Y-80050000D02*
X126096000Y-84050000D01*
X126096000Y-86130000D02*
X126096000Y-90130000D01*
X126136000Y-80055000D02*
X126136000Y-84050000D01*
X126136000Y-86130000D02*
X126136000Y-90125000D01*
X126177000Y-80060000D02*
X126177000Y-84050000D01*
X126177000Y-86130000D02*
X126177000Y-90120000D01*
X126217000Y-80066000D02*
X126217000Y-84050000D01*
X126217000Y-86130000D02*
X126217000Y-90114000D01*
X126257000Y-80072000D02*
X126257000Y-84050000D01*
X126257000Y-86130000D02*
X126257000Y-90108000D01*
X126297000Y-80079000D02*
X126297000Y-84050000D01*
X126297000Y-86130000D02*
X126297000Y-90101000D01*
X126337000Y-80086000D02*
X126337000Y-84050000D01*
X126337000Y-86130000D02*
X126337000Y-90094000D01*
X126377000Y-80093000D02*
X126377000Y-84050000D01*
X126377000Y-86130000D02*
X126377000Y-90087000D01*
X126417000Y-80100000D02*
X126417000Y-84050000D01*
X126417000Y-86130000D02*
X126417000Y-90080000D01*
X126457000Y-80108000D02*
X126457000Y-84050000D01*
X126457000Y-86130000D02*
X126457000Y-90072000D01*
X126497000Y-80116000D02*
X126497000Y-84050000D01*
X126497000Y-86130000D02*
X126497000Y-90064000D01*
X126537000Y-80125000D02*
X126537000Y-84050000D01*
X126537000Y-86130000D02*
X126537000Y-90055000D01*
X126577000Y-80134000D02*
X126577000Y-84050000D01*
X126577000Y-86130000D02*
X126577000Y-90046000D01*
X126617000Y-80143000D02*
X126617000Y-84050000D01*
X126617000Y-86130000D02*
X126617000Y-90037000D01*
X126657000Y-80152000D02*
X126657000Y-84050000D01*
X126657000Y-86130000D02*
X126657000Y-90028000D01*
X126697000Y-80162000D02*
X126697000Y-84050000D01*
X126697000Y-86130000D02*
X126697000Y-90018000D01*
X126737000Y-80172000D02*
X126737000Y-84050000D01*
X126737000Y-86130000D02*
X126737000Y-90008000D01*
X126777000Y-80183000D02*
X126777000Y-84050000D01*
X126777000Y-86130000D02*
X126777000Y-89997000D01*
X126817000Y-80193000D02*
X126817000Y-84050000D01*
X126817000Y-86130000D02*
X126817000Y-89987000D01*
X126857000Y-80205000D02*
X126857000Y-84050000D01*
X126857000Y-86130000D02*
X126857000Y-89975000D01*
X126897000Y-80216000D02*
X126897000Y-84050000D01*
X126897000Y-86130000D02*
X126897000Y-89964000D01*
X126937000Y-80228000D02*
X126937000Y-84050000D01*
X126937000Y-86130000D02*
X126937000Y-89952000D01*
X126977000Y-80240000D02*
X126977000Y-84050000D01*
X126977000Y-86130000D02*
X126977000Y-89940000D01*
X127017000Y-80253000D02*
X127017000Y-84050000D01*
X127017000Y-86130000D02*
X127017000Y-89927000D01*
X127057000Y-80266000D02*
X127057000Y-84050000D01*
X127057000Y-86130000D02*
X127057000Y-89914000D01*
X127097000Y-80279000D02*
X127097000Y-84050000D01*
X127097000Y-86130000D02*
X127097000Y-89901000D01*
X127137000Y-80293000D02*
X127137000Y-84050000D01*
X127137000Y-86130000D02*
X127137000Y-89887000D01*
X127177000Y-80307000D02*
X127177000Y-84050000D01*
X127177000Y-86130000D02*
X127177000Y-89873000D01*
X127217000Y-80322000D02*
X127217000Y-84050000D01*
X127217000Y-86130000D02*
X127217000Y-89858000D01*
X127257000Y-80336000D02*
X127257000Y-84050000D01*
X127257000Y-86130000D02*
X127257000Y-89844000D01*
X127297000Y-80352000D02*
X127297000Y-84050000D01*
X127297000Y-86130000D02*
X127297000Y-89828000D01*
X127337000Y-80367000D02*
X127337000Y-84050000D01*
X127337000Y-86130000D02*
X127337000Y-89813000D01*
X127377000Y-80383000D02*
X127377000Y-84050000D01*
X127377000Y-86130000D02*
X127377000Y-89797000D01*
X127417000Y-80400000D02*
X127417000Y-84050000D01*
X127417000Y-86130000D02*
X127417000Y-89780000D01*
X127457000Y-80416000D02*
X127457000Y-84050000D01*
X127457000Y-86130000D02*
X127457000Y-89764000D01*
X127497000Y-80433000D02*
X127497000Y-84050000D01*
X127497000Y-86130000D02*
X127497000Y-89747000D01*
X127537000Y-80451000D02*
X127537000Y-84050000D01*
X127537000Y-86130000D02*
X127537000Y-89729000D01*
X127577000Y-80469000D02*
X127577000Y-84050000D01*
X127577000Y-86130000D02*
X127577000Y-89711000D01*
X127617000Y-80487000D02*
X127617000Y-84050000D01*
X127617000Y-86130000D02*
X127617000Y-89693000D01*
X127657000Y-80506000D02*
X127657000Y-84050000D01*
X127657000Y-86130000D02*
X127657000Y-89674000D01*
X127697000Y-80526000D02*
X127697000Y-84050000D01*
X127697000Y-86130000D02*
X127697000Y-89654000D01*
X127737000Y-80545000D02*
X127737000Y-84050000D01*
X127737000Y-86130000D02*
X127737000Y-89635000D01*
X127777000Y-80565000D02*
X127777000Y-89615000D01*
X127817000Y-80586000D02*
X127817000Y-89594000D01*
X127857000Y-80607000D02*
X127857000Y-89573000D01*
X127897000Y-80628000D02*
X127897000Y-89552000D01*
X127937000Y-80650000D02*
X127937000Y-89530000D01*
X127977000Y-80673000D02*
X127977000Y-89507000D01*
X128017000Y-80695000D02*
X128017000Y-89485000D01*
X128057000Y-80719000D02*
X128057000Y-89461000D01*
X128097000Y-80743000D02*
X128097000Y-89437000D01*
X128137000Y-80767000D02*
X128137000Y-89413000D01*
X128177000Y-80792000D02*
X128177000Y-89388000D01*
X128217000Y-80817000D02*
X128217000Y-89363000D01*
X128257000Y-80843000D02*
X128257000Y-89337000D01*
X128297000Y-80869000D02*
X128297000Y-89311000D01*
X128337000Y-80896000D02*
X128337000Y-89284000D01*
X128377000Y-80924000D02*
X128377000Y-89256000D01*
X128417000Y-80952000D02*
X128417000Y-89228000D01*
X128457000Y-80980000D02*
X128457000Y-89200000D01*
X128497000Y-81010000D02*
X128497000Y-89170000D01*
X128537000Y-81040000D02*
X128537000Y-89140000D01*
X128577000Y-81070000D02*
X128577000Y-89110000D01*
X128617000Y-81101000D02*
X128617000Y-89079000D01*
X128657000Y-81133000D02*
X128657000Y-89047000D01*
X128697000Y-81165000D02*
X128697000Y-89015000D01*
X128737000Y-81198000D02*
X128737000Y-88982000D01*
X128777000Y-81232000D02*
X128777000Y-88948000D01*
X128817000Y-81266000D02*
X128817000Y-88914000D01*
X128857000Y-81301000D02*
X128857000Y-88879000D01*
X128897000Y-81337000D02*
X128897000Y-88843000D01*
X128937000Y-81374000D02*
X128937000Y-88806000D01*
X128977000Y-81411000D02*
X128977000Y-88769000D01*
X129017000Y-81450000D02*
X129017000Y-88730000D01*
X129057000Y-81489000D02*
X129057000Y-88691000D01*
X129097000Y-81529000D02*
X129097000Y-88651000D01*
X129137000Y-81570000D02*
X129137000Y-88610000D01*
X129177000Y-81612000D02*
X129177000Y-88568000D01*
X129217000Y-81654000D02*
X129217000Y-88526000D01*
X129257000Y-81698000D02*
X129257000Y-88482000D01*
X129297000Y-81743000D02*
X129297000Y-88437000D01*
X129337000Y-81789000D02*
X129337000Y-88391000D01*
X129377000Y-81836000D02*
X129377000Y-88344000D01*
X129417000Y-81884000D02*
X129417000Y-88296000D01*
X129457000Y-81934000D02*
X129457000Y-88246000D01*
X129497000Y-81984000D02*
X129497000Y-88196000D01*
X129537000Y-82036000D02*
X129537000Y-88144000D01*
X129577000Y-82090000D02*
X129577000Y-88090000D01*
X129617000Y-82145000D02*
X129617000Y-88035000D01*
X129657000Y-82201000D02*
X129657000Y-87979000D01*
X129697000Y-82260000D02*
X129697000Y-87920000D01*
X129737000Y-82320000D02*
X129737000Y-87860000D01*
X129777000Y-82381000D02*
X129777000Y-87799000D01*
X129817000Y-82445000D02*
X129817000Y-87735000D01*
X129857000Y-82511000D02*
X129857000Y-87669000D01*
X129897000Y-82580000D02*
X129897000Y-87600000D01*
X129937000Y-82651000D02*
X129937000Y-87529000D01*
X129977000Y-82725000D02*
X129977000Y-87455000D01*
X130017000Y-82801000D02*
X130017000Y-87379000D01*
X130057000Y-82881000D02*
X130057000Y-87299000D01*
X130097000Y-82965000D02*
X130097000Y-87215000D01*
X130137000Y-83053000D02*
X130137000Y-87127000D01*
X130177000Y-83146000D02*
X130177000Y-87034000D01*
X130217000Y-83244000D02*
X130217000Y-86936000D01*
X130257000Y-83348000D02*
X130257000Y-86832000D01*
X130297000Y-83460000D02*
X130297000Y-86720000D01*
X130337000Y-83580000D02*
X130337000Y-86600000D01*
X130377000Y-83712000D02*
X130377000Y-86468000D01*
X130417000Y-83860000D02*
X130417000Y-86320000D01*
X130457000Y-84028000D02*
X130457000Y-86152000D01*
X130497000Y-84228000D02*
X130497000Y-85952000D01*
X130537000Y-84491000D02*
X130537000Y-85689000D01*
X119976354Y-82215000D02*
X120976354Y-82215000D01*
X120476354Y-81715000D02*
X120476354Y-82715000D01*
X106145000Y-87857064D02*
X106145000Y-87402936D01*
X104675000Y-87857064D02*
X104675000Y-87402936D01*
X99033000Y-82306936D02*
X99033000Y-82761064D01*
X97563000Y-82306936D02*
X97563000Y-82761064D01*
X123909064Y-91721000D02*
X123454936Y-91721000D01*
X123909064Y-93191000D02*
X123454936Y-93191000D01*
X123909064Y-95477000D02*
X123454936Y-95477000D01*
X123909064Y-94007000D02*
X123454936Y-94007000D01*
X130837000Y-94191064D02*
X130837000Y-93736936D01*
X132307000Y-94191064D02*
X132307000Y-93736936D01*
X138472936Y-108939000D02*
X138927064Y-108939000D01*
X138472936Y-107469000D02*
X138927064Y-107469000D01*
X129058936Y-107469000D02*
X129513064Y-107469000D01*
X129058936Y-108939000D02*
X129513064Y-108939000D01*
X124687000Y-103113064D02*
X124687000Y-102658936D01*
X123217000Y-103113064D02*
X123217000Y-102658936D01*
X133646936Y-107469000D02*
X134101064Y-107469000D01*
X133646936Y-108939000D02*
X134101064Y-108939000D01*
X132815000Y-82269064D02*
X132815000Y-81814936D01*
X131345000Y-82269064D02*
X131345000Y-81814936D01*
X140628000Y-94250000D02*
X140628000Y-89750000D01*
X136628000Y-95500000D02*
X138128000Y-95500000D01*
X134128000Y-89750000D02*
X134128000Y-94250000D01*
X138128000Y-88500000D02*
X136628000Y-88500000D01*
X138128000Y-110748000D02*
X136628000Y-110748000D01*
X134128000Y-111998000D02*
X134128000Y-116498000D01*
X136628000Y-117748000D02*
X138128000Y-117748000D01*
X140628000Y-116498000D02*
X140628000Y-111998000D01*
X132500000Y-116475000D02*
X132500000Y-111975000D01*
X128500000Y-117725000D02*
X130000000Y-117725000D01*
X126000000Y-111975000D02*
X126000000Y-116475000D01*
X130000000Y-110725000D02*
X128500000Y-110725000D01*
X130072000Y-98556000D02*
X128572000Y-98556000D01*
X126072000Y-99806000D02*
X126072000Y-104306000D01*
X128572000Y-105556000D02*
X130072000Y-105556000D01*
X132572000Y-104306000D02*
X132572000Y-99806000D01*
X140628000Y-104306000D02*
X140628000Y-99806000D01*
X136628000Y-105556000D02*
X138128000Y-105556000D01*
X134128000Y-99806000D02*
X134128000Y-104306000D01*
X138128000Y-98556000D02*
X136628000Y-98556000D01*
X138128000Y-78490000D02*
X136628000Y-78490000D01*
X134128000Y-79740000D02*
X134128000Y-84240000D01*
X136628000Y-85490000D02*
X138128000Y-85490000D01*
X140628000Y-84240000D02*
X140628000Y-79740000D01*
X106680000Y-111125000D02*
X106680000Y-84201000D01*
X119380000Y-111125000D02*
X119380000Y-84201000D01*
X119380000Y-84201000D02*
X106680000Y-84201000D01*
X106680000Y-111125000D02*
X119380000Y-111125000D01*
X107823000Y-110109000D02*
X107823000Y-110617000D01*
X110490000Y-110617000D02*
X110490000Y-107823000D01*
X110490000Y-107823000D02*
X110236000Y-107823000D01*
X118745000Y-85090000D02*
X108585000Y-85090000D01*
X108585000Y-85090000D02*
X108585000Y-86360000D01*
X108585000Y-86360000D02*
X117475000Y-86360000D01*
X117475000Y-86360000D02*
X117475000Y-87630000D01*
X117475000Y-87630000D02*
X108585000Y-87630000D01*
X108585000Y-87630000D02*
X108585000Y-90170000D01*
D10*
X109053333Y-113895142D02*
X109005714Y-113942761D01*
X108862857Y-113990380D01*
X108767619Y-113990380D01*
X108624761Y-113942761D01*
X108529523Y-113847523D01*
X108481904Y-113752285D01*
X108434285Y-113561809D01*
X108434285Y-113418952D01*
X108481904Y-113228476D01*
X108529523Y-113133238D01*
X108624761Y-113038000D01*
X108767619Y-112990380D01*
X108862857Y-112990380D01*
X109005714Y-113038000D01*
X109053333Y-113085619D01*
X110005714Y-113990380D02*
X109434285Y-113990380D01*
X109720000Y-113990380D02*
X109720000Y-112990380D01*
X109624761Y-113133238D01*
X109529523Y-113228476D01*
X109434285Y-113276095D01*
X101941333Y-119609142D02*
X101893714Y-119656761D01*
X101750857Y-119704380D01*
X101655619Y-119704380D01*
X101512761Y-119656761D01*
X101417523Y-119561523D01*
X101369904Y-119466285D01*
X101322285Y-119275809D01*
X101322285Y-119132952D01*
X101369904Y-118942476D01*
X101417523Y-118847238D01*
X101512761Y-118752000D01*
X101655619Y-118704380D01*
X101750857Y-118704380D01*
X101893714Y-118752000D01*
X101941333Y-118799619D01*
X102322285Y-118799619D02*
X102369904Y-118752000D01*
X102465142Y-118704380D01*
X102703238Y-118704380D01*
X102798476Y-118752000D01*
X102846095Y-118799619D01*
X102893714Y-118894857D01*
X102893714Y-118990095D01*
X102846095Y-119132952D01*
X102274666Y-119704380D01*
X102893714Y-119704380D01*
X100687142Y-79668666D02*
X100734761Y-79716285D01*
X100782380Y-79859142D01*
X100782380Y-79954380D01*
X100734761Y-80097238D01*
X100639523Y-80192476D01*
X100544285Y-80240095D01*
X100353809Y-80287714D01*
X100210952Y-80287714D01*
X100020476Y-80240095D01*
X99925238Y-80192476D01*
X99830000Y-80097238D01*
X99782380Y-79954380D01*
X99782380Y-79859142D01*
X99830000Y-79716285D01*
X99877619Y-79668666D01*
X99782380Y-79335333D02*
X99782380Y-78716285D01*
X100163333Y-79049619D01*
X100163333Y-78906761D01*
X100210952Y-78811523D01*
X100258571Y-78763904D01*
X100353809Y-78716285D01*
X100591904Y-78716285D01*
X100687142Y-78763904D01*
X100734761Y-78811523D01*
X100782380Y-78906761D01*
X100782380Y-79192476D01*
X100734761Y-79287714D01*
X100687142Y-79335333D01*
X127023904Y-91130380D02*
X127023904Y-90130380D01*
X127262000Y-90130380D01*
X127404857Y-90178000D01*
X127500095Y-90273238D01*
X127547714Y-90368476D01*
X127595333Y-90558952D01*
X127595333Y-90701809D01*
X127547714Y-90892285D01*
X127500095Y-90987523D01*
X127404857Y-91082761D01*
X127262000Y-91130380D01*
X127023904Y-91130380D01*
X128547714Y-91130380D02*
X127976285Y-91130380D01*
X128262000Y-91130380D02*
X128262000Y-90130380D01*
X128166761Y-90273238D01*
X128071523Y-90368476D01*
X127976285Y-90416095D01*
X127023904Y-96844380D02*
X127023904Y-95844380D01*
X127262000Y-95844380D01*
X127404857Y-95892000D01*
X127500095Y-95987238D01*
X127547714Y-96082476D01*
X127595333Y-96272952D01*
X127595333Y-96415809D01*
X127547714Y-96606285D01*
X127500095Y-96701523D01*
X127404857Y-96796761D01*
X127262000Y-96844380D01*
X127023904Y-96844380D01*
X127976285Y-95939619D02*
X128023904Y-95892000D01*
X128119142Y-95844380D01*
X128357238Y-95844380D01*
X128452476Y-95892000D01*
X128500095Y-95939619D01*
X128547714Y-96034857D01*
X128547714Y-96130095D01*
X128500095Y-96272952D01*
X127928666Y-96844380D01*
X128547714Y-96844380D01*
X104348380Y-112073333D02*
X105062666Y-112073333D01*
X105205523Y-112120952D01*
X105300761Y-112216190D01*
X105348380Y-112359047D01*
X105348380Y-112454285D01*
X105348380Y-111073333D02*
X105348380Y-111644761D01*
X105348380Y-111359047D02*
X104348380Y-111359047D01*
X104491238Y-111454285D01*
X104586476Y-111549523D01*
X104634095Y-111644761D01*
X102576380Y-91519333D02*
X103290666Y-91519333D01*
X103433523Y-91566952D01*
X103528761Y-91662190D01*
X103576380Y-91805047D01*
X103576380Y-91900285D01*
X102576380Y-91138380D02*
X102576380Y-90519333D01*
X102957333Y-90852666D01*
X102957333Y-90709809D01*
X103004952Y-90614571D01*
X103052571Y-90566952D01*
X103147809Y-90519333D01*
X103385904Y-90519333D01*
X103481142Y-90566952D01*
X103528761Y-90614571D01*
X103576380Y-90709809D01*
X103576380Y-90995523D01*
X103528761Y-91090761D01*
X103481142Y-91138380D01*
X122094666Y-114768380D02*
X122094666Y-115482666D01*
X122047047Y-115625523D01*
X121951809Y-115720761D01*
X121808952Y-115768380D01*
X121713714Y-115768380D01*
X122999428Y-115101714D02*
X122999428Y-115768380D01*
X122761333Y-114720761D02*
X122523238Y-115435047D01*
X123142285Y-115435047D01*
X125142666Y-107656380D02*
X125142666Y-108370666D01*
X125095047Y-108513523D01*
X124999809Y-108608761D01*
X124856952Y-108656380D01*
X124761714Y-108656380D01*
X126095047Y-107656380D02*
X125618857Y-107656380D01*
X125571238Y-108132571D01*
X125618857Y-108084952D01*
X125714095Y-108037333D01*
X125952190Y-108037333D01*
X126047428Y-108084952D01*
X126095047Y-108132571D01*
X126142666Y-108227809D01*
X126142666Y-108465904D01*
X126095047Y-108561142D01*
X126047428Y-108608761D01*
X125952190Y-108656380D01*
X125714095Y-108656380D01*
X125618857Y-108608761D01*
X125571238Y-108561142D01*
X118030666Y-78192380D02*
X118030666Y-78906666D01*
X117983047Y-79049523D01*
X117887809Y-79144761D01*
X117744952Y-79192380D01*
X117649714Y-79192380D01*
X118411619Y-78192380D02*
X119078285Y-78192380D01*
X118649714Y-79192380D01*
X124146476Y-79292380D02*
X124146476Y-78292380D01*
X124479809Y-79006666D01*
X124813142Y-78292380D01*
X124813142Y-79292380D01*
X125289333Y-79292380D02*
X125289333Y-78292380D01*
X125860761Y-79292380D02*
X125432190Y-78720952D01*
X125860761Y-78292380D02*
X125289333Y-78863809D01*
X126813142Y-79292380D02*
X126241714Y-79292380D01*
X126527428Y-79292380D02*
X126527428Y-78292380D01*
X126432190Y-78435238D01*
X126336952Y-78530476D01*
X126241714Y-78578095D01*
X105862380Y-85002666D02*
X105386190Y-85336000D01*
X105862380Y-85574095D02*
X104862380Y-85574095D01*
X104862380Y-85193142D01*
X104910000Y-85097904D01*
X104957619Y-85050285D01*
X105052857Y-85002666D01*
X105195714Y-85002666D01*
X105290952Y-85050285D01*
X105338571Y-85097904D01*
X105386190Y-85193142D01*
X105386190Y-85574095D01*
X105862380Y-84050285D02*
X105862380Y-84621714D01*
X105862380Y-84336000D02*
X104862380Y-84336000D01*
X105005238Y-84431238D01*
X105100476Y-84526476D01*
X105148095Y-84621714D01*
X98750380Y-79668666D02*
X98274190Y-80002000D01*
X98750380Y-80240095D02*
X97750380Y-80240095D01*
X97750380Y-79859142D01*
X97798000Y-79763904D01*
X97845619Y-79716285D01*
X97940857Y-79668666D01*
X98083714Y-79668666D01*
X98178952Y-79716285D01*
X98226571Y-79763904D01*
X98274190Y-79859142D01*
X98274190Y-80240095D01*
X97845619Y-79287714D02*
X97798000Y-79240095D01*
X97750380Y-79144857D01*
X97750380Y-78906761D01*
X97798000Y-78811523D01*
X97845619Y-78763904D01*
X97940857Y-78716285D01*
X98036095Y-78716285D01*
X98178952Y-78763904D01*
X98750380Y-79335333D01*
X98750380Y-78716285D01*
X123531333Y-91384380D02*
X123198000Y-90908190D01*
X122959904Y-91384380D02*
X122959904Y-90384380D01*
X123340857Y-90384380D01*
X123436095Y-90432000D01*
X123483714Y-90479619D01*
X123531333Y-90574857D01*
X123531333Y-90717714D01*
X123483714Y-90812952D01*
X123436095Y-90860571D01*
X123340857Y-90908190D01*
X122959904Y-90908190D01*
X123864666Y-90384380D02*
X124483714Y-90384380D01*
X124150380Y-90765333D01*
X124293238Y-90765333D01*
X124388476Y-90812952D01*
X124436095Y-90860571D01*
X124483714Y-90955809D01*
X124483714Y-91193904D01*
X124436095Y-91289142D01*
X124388476Y-91336761D01*
X124293238Y-91384380D01*
X124007523Y-91384380D01*
X123912285Y-91336761D01*
X123864666Y-91289142D01*
X123515333Y-96844380D02*
X123182000Y-96368190D01*
X122943904Y-96844380D02*
X122943904Y-95844380D01*
X123324857Y-95844380D01*
X123420095Y-95892000D01*
X123467714Y-95939619D01*
X123515333Y-96034857D01*
X123515333Y-96177714D01*
X123467714Y-96272952D01*
X123420095Y-96320571D01*
X123324857Y-96368190D01*
X122943904Y-96368190D01*
X124372476Y-96177714D02*
X124372476Y-96844380D01*
X124134380Y-95796761D02*
X123896285Y-96511047D01*
X124515333Y-96511047D01*
X131405333Y-96972380D02*
X131072000Y-96496190D01*
X130833904Y-96972380D02*
X130833904Y-95972380D01*
X131214857Y-95972380D01*
X131310095Y-96020000D01*
X131357714Y-96067619D01*
X131405333Y-96162857D01*
X131405333Y-96305714D01*
X131357714Y-96400952D01*
X131310095Y-96448571D01*
X131214857Y-96496190D01*
X130833904Y-96496190D01*
X132310095Y-95972380D02*
X131833904Y-95972380D01*
X131786285Y-96448571D01*
X131833904Y-96400952D01*
X131929142Y-96353333D01*
X132167238Y-96353333D01*
X132262476Y-96400952D01*
X132310095Y-96448571D01*
X132357714Y-96543809D01*
X132357714Y-96781904D01*
X132310095Y-96877142D01*
X132262476Y-96924761D01*
X132167238Y-96972380D01*
X131929142Y-96972380D01*
X131833904Y-96924761D01*
X131786285Y-96877142D01*
X137501333Y-107006380D02*
X137168000Y-106530190D01*
X136929904Y-107006380D02*
X136929904Y-106006380D01*
X137310857Y-106006380D01*
X137406095Y-106054000D01*
X137453714Y-106101619D01*
X137501333Y-106196857D01*
X137501333Y-106339714D01*
X137453714Y-106434952D01*
X137406095Y-106482571D01*
X137310857Y-106530190D01*
X136929904Y-106530190D01*
X138358476Y-106006380D02*
X138168000Y-106006380D01*
X138072761Y-106054000D01*
X138025142Y-106101619D01*
X137929904Y-106244476D01*
X137882285Y-106434952D01*
X137882285Y-106815904D01*
X137929904Y-106911142D01*
X137977523Y-106958761D01*
X138072761Y-107006380D01*
X138263238Y-107006380D01*
X138358476Y-106958761D01*
X138406095Y-106911142D01*
X138453714Y-106815904D01*
X138453714Y-106577809D01*
X138406095Y-106482571D01*
X138358476Y-106434952D01*
X138263238Y-106387333D01*
X138072761Y-106387333D01*
X137977523Y-106434952D01*
X137929904Y-106482571D01*
X137882285Y-106577809D01*
X129119333Y-107006380D02*
X128786000Y-106530190D01*
X128547904Y-107006380D02*
X128547904Y-106006380D01*
X128928857Y-106006380D01*
X129024095Y-106054000D01*
X129071714Y-106101619D01*
X129119333Y-106196857D01*
X129119333Y-106339714D01*
X129071714Y-106434952D01*
X129024095Y-106482571D01*
X128928857Y-106530190D01*
X128547904Y-106530190D01*
X129452666Y-106006380D02*
X130119333Y-106006380D01*
X129690761Y-107006380D01*
X122754380Y-103052666D02*
X122278190Y-103386000D01*
X122754380Y-103624095D02*
X121754380Y-103624095D01*
X121754380Y-103243142D01*
X121802000Y-103147904D01*
X121849619Y-103100285D01*
X121944857Y-103052666D01*
X122087714Y-103052666D01*
X122182952Y-103100285D01*
X122230571Y-103147904D01*
X122278190Y-103243142D01*
X122278190Y-103624095D01*
X122182952Y-102481238D02*
X122135333Y-102576476D01*
X122087714Y-102624095D01*
X121992476Y-102671714D01*
X121944857Y-102671714D01*
X121849619Y-102624095D01*
X121802000Y-102576476D01*
X121754380Y-102481238D01*
X121754380Y-102290761D01*
X121802000Y-102195523D01*
X121849619Y-102147904D01*
X121944857Y-102100285D01*
X121992476Y-102100285D01*
X122087714Y-102147904D01*
X122135333Y-102195523D01*
X122182952Y-102290761D01*
X122182952Y-102481238D01*
X122230571Y-102576476D01*
X122278190Y-102624095D01*
X122373428Y-102671714D01*
X122563904Y-102671714D01*
X122659142Y-102624095D01*
X122706761Y-102576476D01*
X122754380Y-102481238D01*
X122754380Y-102290761D01*
X122706761Y-102195523D01*
X122659142Y-102147904D01*
X122563904Y-102100285D01*
X122373428Y-102100285D01*
X122278190Y-102147904D01*
X122230571Y-102195523D01*
X122182952Y-102290761D01*
X133183333Y-107006380D02*
X132850000Y-106530190D01*
X132611904Y-107006380D02*
X132611904Y-106006380D01*
X132992857Y-106006380D01*
X133088095Y-106054000D01*
X133135714Y-106101619D01*
X133183333Y-106196857D01*
X133183333Y-106339714D01*
X133135714Y-106434952D01*
X133088095Y-106482571D01*
X132992857Y-106530190D01*
X132611904Y-106530190D01*
X133659523Y-107006380D02*
X133850000Y-107006380D01*
X133945238Y-106958761D01*
X133992857Y-106911142D01*
X134088095Y-106768285D01*
X134135714Y-106577809D01*
X134135714Y-106196857D01*
X134088095Y-106101619D01*
X134040476Y-106054000D01*
X133945238Y-106006380D01*
X133754761Y-106006380D01*
X133659523Y-106054000D01*
X133611904Y-106101619D01*
X133564285Y-106196857D01*
X133564285Y-106434952D01*
X133611904Y-106530190D01*
X133659523Y-106577809D01*
X133754761Y-106625428D01*
X133945238Y-106625428D01*
X134040476Y-106577809D01*
X134088095Y-106530190D01*
X134135714Y-106434952D01*
X132532380Y-86240857D02*
X132056190Y-86574190D01*
X132532380Y-86812285D02*
X131532380Y-86812285D01*
X131532380Y-86431333D01*
X131580000Y-86336095D01*
X131627619Y-86288476D01*
X131722857Y-86240857D01*
X131865714Y-86240857D01*
X131960952Y-86288476D01*
X132008571Y-86336095D01*
X132056190Y-86431333D01*
X132056190Y-86812285D01*
X132532380Y-85288476D02*
X132532380Y-85859904D01*
X132532380Y-85574190D02*
X131532380Y-85574190D01*
X131675238Y-85669428D01*
X131770476Y-85764666D01*
X131818095Y-85859904D01*
X131532380Y-84669428D02*
X131532380Y-84574190D01*
X131580000Y-84478952D01*
X131627619Y-84431333D01*
X131722857Y-84383714D01*
X131913333Y-84336095D01*
X132151428Y-84336095D01*
X132341904Y-84383714D01*
X132437142Y-84431333D01*
X132484761Y-84478952D01*
X132532380Y-84574190D01*
X132532380Y-84669428D01*
X132484761Y-84764666D01*
X132437142Y-84812285D01*
X132341904Y-84859904D01*
X132151428Y-84907523D01*
X131913333Y-84907523D01*
X131722857Y-84859904D01*
X131627619Y-84812285D01*
X131580000Y-84764666D01*
X131532380Y-84669428D01*
X98806095Y-113244380D02*
X98806095Y-114053904D01*
X98853714Y-114149142D01*
X98901333Y-114196761D01*
X98996571Y-114244380D01*
X99187047Y-114244380D01*
X99282285Y-114196761D01*
X99329904Y-114149142D01*
X99377523Y-114053904D01*
X99377523Y-113244380D01*
X100377523Y-114244380D02*
X99806095Y-114244380D01*
X100091809Y-114244380D02*
X100091809Y-113244380D01*
X99996571Y-113387238D01*
X99901333Y-113482476D01*
X99806095Y-113530095D01*
X107569095Y-90765380D02*
X108140523Y-90765380D01*
X107854809Y-91765380D02*
X107854809Y-90765380D01*
X108378619Y-90765380D02*
X109045285Y-91765380D01*
X109045285Y-90765380D02*
X108378619Y-91765380D01*
X108164333Y-93289380D02*
X107831000Y-92813190D01*
X107592904Y-93289380D02*
X107592904Y-92289380D01*
X107973857Y-92289380D01*
X108069095Y-92337000D01*
X108116714Y-92384619D01*
X108164333Y-92479857D01*
X108164333Y-92622714D01*
X108116714Y-92717952D01*
X108069095Y-92765571D01*
X107973857Y-92813190D01*
X107592904Y-92813190D01*
X108497666Y-92289380D02*
X109164333Y-93289380D01*
X109164333Y-92289380D02*
X108497666Y-93289380D01*
X107561190Y-94813380D02*
X107561190Y-93813380D01*
X108132619Y-94813380D02*
X107704047Y-94241952D01*
X108132619Y-93813380D02*
X107561190Y-94384809D01*
X108561190Y-94813380D02*
X108561190Y-93813380D01*
X109037380Y-94813380D02*
X109037380Y-93813380D01*
X109608809Y-94813380D01*
X109608809Y-93813380D01*
X107553476Y-96289761D02*
X107696333Y-96337380D01*
X107934428Y-96337380D01*
X108029666Y-96289761D01*
X108077285Y-96242142D01*
X108124904Y-96146904D01*
X108124904Y-96051666D01*
X108077285Y-95956428D01*
X108029666Y-95908809D01*
X107934428Y-95861190D01*
X107743952Y-95813571D01*
X107648714Y-95765952D01*
X107601095Y-95718333D01*
X107553476Y-95623095D01*
X107553476Y-95527857D01*
X107601095Y-95432619D01*
X107648714Y-95385000D01*
X107743952Y-95337380D01*
X107982047Y-95337380D01*
X108124904Y-95385000D01*
X108553476Y-96337380D02*
X108553476Y-95337380D01*
X108791571Y-95337380D01*
X108934428Y-95385000D01*
X109029666Y-95480238D01*
X109077285Y-95575476D01*
X109124904Y-95765952D01*
X109124904Y-95908809D01*
X109077285Y-96099285D01*
X109029666Y-96194523D01*
X108934428Y-96289761D01*
X108791571Y-96337380D01*
X108553476Y-96337380D01*
X109553476Y-95956428D02*
X110315380Y-95956428D01*
X111363000Y-96242142D02*
X111315380Y-96289761D01*
X111172523Y-96337380D01*
X111077285Y-96337380D01*
X110934428Y-96289761D01*
X110839190Y-96194523D01*
X110791571Y-96099285D01*
X110743952Y-95908809D01*
X110743952Y-95765952D01*
X110791571Y-95575476D01*
X110839190Y-95480238D01*
X110934428Y-95385000D01*
X111077285Y-95337380D01*
X111172523Y-95337380D01*
X111315380Y-95385000D01*
X111363000Y-95432619D01*
X112267761Y-96337380D02*
X111791571Y-96337380D01*
X111791571Y-95337380D01*
X112601095Y-96337380D02*
X112601095Y-95337380D01*
X113172523Y-96337380D02*
X112743952Y-95765952D01*
X113172523Y-95337380D02*
X112601095Y-95908809D01*
X107513809Y-97686761D02*
X107656666Y-97734380D01*
X107894761Y-97734380D01*
X107990000Y-97686761D01*
X108037619Y-97639142D01*
X108085238Y-97543904D01*
X108085238Y-97448666D01*
X108037619Y-97353428D01*
X107990000Y-97305809D01*
X107894761Y-97258190D01*
X107704285Y-97210571D01*
X107609047Y-97162952D01*
X107561428Y-97115333D01*
X107513809Y-97020095D01*
X107513809Y-96924857D01*
X107561428Y-96829619D01*
X107609047Y-96782000D01*
X107704285Y-96734380D01*
X107942380Y-96734380D01*
X108085238Y-96782000D01*
X108513809Y-97734380D02*
X108513809Y-96734380D01*
X108751904Y-96734380D01*
X108894761Y-96782000D01*
X108990000Y-96877238D01*
X109037619Y-96972476D01*
X109085238Y-97162952D01*
X109085238Y-97305809D01*
X109037619Y-97496285D01*
X108990000Y-97591523D01*
X108894761Y-97686761D01*
X108751904Y-97734380D01*
X108513809Y-97734380D01*
X109513809Y-97353428D02*
X110275714Y-97353428D01*
X111323333Y-97639142D02*
X111275714Y-97686761D01*
X111132857Y-97734380D01*
X111037619Y-97734380D01*
X110894761Y-97686761D01*
X110799523Y-97591523D01*
X110751904Y-97496285D01*
X110704285Y-97305809D01*
X110704285Y-97162952D01*
X110751904Y-96972476D01*
X110799523Y-96877238D01*
X110894761Y-96782000D01*
X111037619Y-96734380D01*
X111132857Y-96734380D01*
X111275714Y-96782000D01*
X111323333Y-96829619D01*
X111751904Y-97734380D02*
X111751904Y-96734380D01*
X112085238Y-97448666D01*
X112418571Y-96734380D01*
X112418571Y-97734380D01*
X112894761Y-97734380D02*
X112894761Y-96734380D01*
X113132857Y-96734380D01*
X113275714Y-96782000D01*
X113370952Y-96877238D01*
X113418571Y-96972476D01*
X113466190Y-97162952D01*
X113466190Y-97305809D01*
X113418571Y-97496285D01*
X113370952Y-97591523D01*
X113275714Y-97686761D01*
X113132857Y-97734380D01*
X112894761Y-97734380D01*
X107600952Y-99258380D02*
X107600952Y-98258380D01*
X108172380Y-99258380D01*
X108172380Y-98258380D01*
X108648571Y-98258380D02*
X108648571Y-99067904D01*
X108696190Y-99163142D01*
X108743809Y-99210761D01*
X108839047Y-99258380D01*
X109029523Y-99258380D01*
X109124761Y-99210761D01*
X109172380Y-99163142D01*
X109220000Y-99067904D01*
X109220000Y-98258380D01*
X110172380Y-99258380D02*
X109696190Y-99258380D01*
X109696190Y-98258380D01*
X110981904Y-99258380D02*
X110505714Y-99258380D01*
X110505714Y-98258380D01*
X107600952Y-100782380D02*
X107600952Y-99782380D01*
X108172380Y-100782380D01*
X108172380Y-99782380D01*
X108648571Y-99782380D02*
X108648571Y-100591904D01*
X108696190Y-100687142D01*
X108743809Y-100734761D01*
X108839047Y-100782380D01*
X109029523Y-100782380D01*
X109124761Y-100734761D01*
X109172380Y-100687142D01*
X109220000Y-100591904D01*
X109220000Y-99782380D01*
X110172380Y-100782380D02*
X109696190Y-100782380D01*
X109696190Y-99782380D01*
X110981904Y-100782380D02*
X110505714Y-100782380D01*
X110505714Y-99782380D01*
X107600952Y-102306380D02*
X107600952Y-101306380D01*
X108172380Y-102306380D01*
X108172380Y-101306380D01*
X108648571Y-101306380D02*
X108648571Y-102115904D01*
X108696190Y-102211142D01*
X108743809Y-102258761D01*
X108839047Y-102306380D01*
X109029523Y-102306380D01*
X109124761Y-102258761D01*
X109172380Y-102211142D01*
X109220000Y-102115904D01*
X109220000Y-101306380D01*
X110172380Y-102306380D02*
X109696190Y-102306380D01*
X109696190Y-101306380D01*
X110981904Y-102306380D02*
X110505714Y-102306380D01*
X110505714Y-101306380D01*
X107553523Y-102830380D02*
X107886857Y-103830380D01*
X108220190Y-102830380D01*
X109124952Y-103735142D02*
X109077333Y-103782761D01*
X108934476Y-103830380D01*
X108839238Y-103830380D01*
X108696380Y-103782761D01*
X108601142Y-103687523D01*
X108553523Y-103592285D01*
X108505904Y-103401809D01*
X108505904Y-103258952D01*
X108553523Y-103068476D01*
X108601142Y-102973238D01*
X108696380Y-102878000D01*
X108839238Y-102830380D01*
X108934476Y-102830380D01*
X109077333Y-102878000D01*
X109124952Y-102925619D01*
X110124952Y-103735142D02*
X110077333Y-103782761D01*
X109934476Y-103830380D01*
X109839238Y-103830380D01*
X109696380Y-103782761D01*
X109601142Y-103687523D01*
X109553523Y-103592285D01*
X109505904Y-103401809D01*
X109505904Y-103258952D01*
X109553523Y-103068476D01*
X109601142Y-102973238D01*
X109696380Y-102878000D01*
X109839238Y-102830380D01*
X109934476Y-102830380D01*
X110077333Y-102878000D01*
X110124952Y-102925619D01*
X110458285Y-102830380D02*
X111077333Y-102830380D01*
X110744000Y-103211333D01*
X110886857Y-103211333D01*
X110982095Y-103258952D01*
X111029714Y-103306571D01*
X111077333Y-103401809D01*
X111077333Y-103639904D01*
X111029714Y-103735142D01*
X110982095Y-103782761D01*
X110886857Y-103830380D01*
X110601142Y-103830380D01*
X110505904Y-103782761D01*
X110458285Y-103735142D01*
X111458285Y-103782761D02*
X111601142Y-103830380D01*
X111839238Y-103830380D01*
X111934476Y-103782761D01*
X111982095Y-103735142D01*
X112029714Y-103639904D01*
X112029714Y-103544666D01*
X111982095Y-103449428D01*
X111934476Y-103401809D01*
X111839238Y-103354190D01*
X111648761Y-103306571D01*
X111553523Y-103258952D01*
X111505904Y-103211333D01*
X111458285Y-103116095D01*
X111458285Y-103020857D01*
X111505904Y-102925619D01*
X111553523Y-102878000D01*
X111648761Y-102830380D01*
X111886857Y-102830380D01*
X112029714Y-102878000D01*
X112648761Y-103354190D02*
X112648761Y-103830380D01*
X112315428Y-102830380D02*
X112648761Y-103354190D01*
X112982095Y-102830380D01*
X113267809Y-103782761D02*
X113410666Y-103830380D01*
X113648761Y-103830380D01*
X113744000Y-103782761D01*
X113791619Y-103735142D01*
X113839238Y-103639904D01*
X113839238Y-103544666D01*
X113791619Y-103449428D01*
X113744000Y-103401809D01*
X113648761Y-103354190D01*
X113458285Y-103306571D01*
X113363047Y-103258952D01*
X113315428Y-103211333D01*
X113267809Y-103116095D01*
X113267809Y-103020857D01*
X113315428Y-102925619D01*
X113363047Y-102878000D01*
X113458285Y-102830380D01*
X113696380Y-102830380D01*
X113839238Y-102878000D01*
X107545523Y-105227380D02*
X107545523Y-104227380D01*
X108212190Y-104227380D02*
X108402666Y-104227380D01*
X108497904Y-104275000D01*
X108593142Y-104370238D01*
X108640761Y-104560714D01*
X108640761Y-104894047D01*
X108593142Y-105084523D01*
X108497904Y-105179761D01*
X108402666Y-105227380D01*
X108212190Y-105227380D01*
X108116952Y-105179761D01*
X108021714Y-105084523D01*
X107974095Y-104894047D01*
X107974095Y-104560714D01*
X108021714Y-104370238D01*
X108116952Y-104275000D01*
X108212190Y-104227380D01*
X108974095Y-104227380D02*
X109593142Y-104227380D01*
X109259809Y-104608333D01*
X109402666Y-104608333D01*
X109497904Y-104655952D01*
X109545523Y-104703571D01*
X109593142Y-104798809D01*
X109593142Y-105036904D01*
X109545523Y-105132142D01*
X109497904Y-105179761D01*
X109402666Y-105227380D01*
X109116952Y-105227380D01*
X109021714Y-105179761D01*
X108974095Y-105132142D01*
X109878857Y-104227380D02*
X110212190Y-105227380D01*
X110545523Y-104227380D01*
X111212190Y-104703571D02*
X110878857Y-104703571D01*
X110878857Y-105227380D02*
X110878857Y-104227380D01*
X111355047Y-104227380D01*
X112212190Y-105227380D02*
X111736000Y-105227380D01*
X111736000Y-104227380D01*
X112497904Y-104941666D02*
X112974095Y-104941666D01*
X112402666Y-105227380D02*
X112736000Y-104227380D01*
X113069333Y-105227380D01*
X107600952Y-106751380D02*
X107600952Y-105751380D01*
X108172380Y-106751380D01*
X108172380Y-105751380D01*
X108648571Y-105751380D02*
X108648571Y-106560904D01*
X108696190Y-106656142D01*
X108743809Y-106703761D01*
X108839047Y-106751380D01*
X109029523Y-106751380D01*
X109124761Y-106703761D01*
X109172380Y-106656142D01*
X109220000Y-106560904D01*
X109220000Y-105751380D01*
X110172380Y-106751380D02*
X109696190Y-106751380D01*
X109696190Y-105751380D01*
X110981904Y-106751380D02*
X110505714Y-106751380D01*
X110505714Y-105751380D01*
X107505666Y-107275380D02*
X107839000Y-108275380D01*
X108172333Y-107275380D01*
X109077095Y-108180142D02*
X109029476Y-108227761D01*
X108886619Y-108275380D01*
X108791380Y-108275380D01*
X108648523Y-108227761D01*
X108553285Y-108132523D01*
X108505666Y-108037285D01*
X108458047Y-107846809D01*
X108458047Y-107703952D01*
X108505666Y-107513476D01*
X108553285Y-107418238D01*
X108648523Y-107323000D01*
X108791380Y-107275380D01*
X108886619Y-107275380D01*
X109029476Y-107323000D01*
X109077095Y-107370619D01*
X110077095Y-108180142D02*
X110029476Y-108227761D01*
X109886619Y-108275380D01*
X109791380Y-108275380D01*
X109648523Y-108227761D01*
X109553285Y-108132523D01*
X109505666Y-108037285D01*
X109458047Y-107846809D01*
X109458047Y-107703952D01*
X109505666Y-107513476D01*
X109553285Y-107418238D01*
X109648523Y-107323000D01*
X109791380Y-107275380D01*
X109886619Y-107275380D01*
X110029476Y-107323000D01*
X110077095Y-107370619D01*
X108077095Y-108847000D02*
X107981857Y-108799380D01*
X107839000Y-108799380D01*
X107696142Y-108847000D01*
X107600904Y-108942238D01*
X107553285Y-109037476D01*
X107505666Y-109227952D01*
X107505666Y-109370809D01*
X107553285Y-109561285D01*
X107600904Y-109656523D01*
X107696142Y-109751761D01*
X107839000Y-109799380D01*
X107934238Y-109799380D01*
X108077095Y-109751761D01*
X108124714Y-109704142D01*
X108124714Y-109370809D01*
X107934238Y-109370809D01*
X108553285Y-109799380D02*
X108553285Y-108799380D01*
X109124714Y-109799380D01*
X109124714Y-108799380D01*
X109600904Y-109799380D02*
X109600904Y-108799380D01*
X109839000Y-108799380D01*
X109981857Y-108847000D01*
X110077095Y-108942238D01*
X110124714Y-109037476D01*
X110172333Y-109227952D01*
X110172333Y-109370809D01*
X110124714Y-109561285D01*
X110077095Y-109656523D01*
X109981857Y-109751761D01*
X109839000Y-109799380D01*
X109600904Y-109799380D01*
X113578000Y-91479666D02*
X114054190Y-91479666D01*
X113482761Y-91765380D02*
X113816095Y-90765380D01*
X114149428Y-91765380D01*
X114482761Y-91765380D02*
X114482761Y-90765380D01*
X114720857Y-90765380D01*
X114863714Y-90813000D01*
X114958952Y-90908238D01*
X115006571Y-91003476D01*
X115054190Y-91193952D01*
X115054190Y-91336809D01*
X115006571Y-91527285D01*
X114958952Y-91622523D01*
X114863714Y-91717761D01*
X114720857Y-91765380D01*
X114482761Y-91765380D01*
X116054190Y-91670142D02*
X116006571Y-91717761D01*
X115863714Y-91765380D01*
X115768476Y-91765380D01*
X115625619Y-91717761D01*
X115530380Y-91622523D01*
X115482761Y-91527285D01*
X115435142Y-91336809D01*
X115435142Y-91193952D01*
X115482761Y-91003476D01*
X115530380Y-90908238D01*
X115625619Y-90813000D01*
X115768476Y-90765380D01*
X115863714Y-90765380D01*
X116006571Y-90813000D01*
X116054190Y-90860619D01*
X116482761Y-91765380D02*
X116482761Y-90765380D01*
X117054190Y-91765380D02*
X116625619Y-91193952D01*
X117054190Y-90765380D02*
X116482761Y-91336809D01*
X117482761Y-91765380D02*
X117482761Y-90765380D01*
X117958952Y-91765380D02*
X117958952Y-90765380D01*
X118530380Y-91765380D01*
X118530380Y-90765380D01*
X112982714Y-93241761D02*
X113125571Y-93289380D01*
X113363666Y-93289380D01*
X113458904Y-93241761D01*
X113506523Y-93194142D01*
X113554142Y-93098904D01*
X113554142Y-93003666D01*
X113506523Y-92908428D01*
X113458904Y-92860809D01*
X113363666Y-92813190D01*
X113173190Y-92765571D01*
X113077952Y-92717952D01*
X113030333Y-92670333D01*
X112982714Y-92575095D01*
X112982714Y-92479857D01*
X113030333Y-92384619D01*
X113077952Y-92337000D01*
X113173190Y-92289380D01*
X113411285Y-92289380D01*
X113554142Y-92337000D01*
X113982714Y-93289380D02*
X113982714Y-92289380D01*
X114220809Y-92289380D01*
X114363666Y-92337000D01*
X114458904Y-92432238D01*
X114506523Y-92527476D01*
X114554142Y-92717952D01*
X114554142Y-92860809D01*
X114506523Y-93051285D01*
X114458904Y-93146523D01*
X114363666Y-93241761D01*
X114220809Y-93289380D01*
X113982714Y-93289380D01*
X114982714Y-92908428D02*
X115744619Y-92908428D01*
X116220809Y-93289380D02*
X116220809Y-92289380D01*
X116458904Y-92289380D01*
X116601761Y-92337000D01*
X116697000Y-92432238D01*
X116744619Y-92527476D01*
X116792238Y-92717952D01*
X116792238Y-92860809D01*
X116744619Y-93051285D01*
X116697000Y-93146523D01*
X116601761Y-93241761D01*
X116458904Y-93289380D01*
X116220809Y-93289380D01*
X117173190Y-93003666D02*
X117649380Y-93003666D01*
X117077952Y-93289380D02*
X117411285Y-92289380D01*
X117744619Y-93289380D01*
X117935095Y-92289380D02*
X118506523Y-92289380D01*
X118220809Y-93289380D02*
X118220809Y-92289380D01*
X115181238Y-94289571D02*
X115324095Y-94337190D01*
X115371714Y-94384809D01*
X115419333Y-94480047D01*
X115419333Y-94622904D01*
X115371714Y-94718142D01*
X115324095Y-94765761D01*
X115228857Y-94813380D01*
X114847904Y-94813380D01*
X114847904Y-93813380D01*
X115181238Y-93813380D01*
X115276476Y-93861000D01*
X115324095Y-93908619D01*
X115371714Y-94003857D01*
X115371714Y-94099095D01*
X115324095Y-94194333D01*
X115276476Y-94241952D01*
X115181238Y-94289571D01*
X114847904Y-94289571D01*
X115847904Y-94432428D02*
X116609809Y-94432428D01*
X117038380Y-94765761D02*
X117181238Y-94813380D01*
X117419333Y-94813380D01*
X117514571Y-94765761D01*
X117562190Y-94718142D01*
X117609809Y-94622904D01*
X117609809Y-94527666D01*
X117562190Y-94432428D01*
X117514571Y-94384809D01*
X117419333Y-94337190D01*
X117228857Y-94289571D01*
X117133619Y-94241952D01*
X117086000Y-94194333D01*
X117038380Y-94099095D01*
X117038380Y-94003857D01*
X117086000Y-93908619D01*
X117133619Y-93861000D01*
X117228857Y-93813380D01*
X117466952Y-93813380D01*
X117609809Y-93861000D01*
X117895523Y-93813380D02*
X118466952Y-93813380D01*
X118181238Y-94813380D02*
X118181238Y-93813380D01*
X114998714Y-96051666D02*
X115474904Y-96051666D01*
X114903476Y-96337380D02*
X115236809Y-95337380D01*
X115570142Y-96337380D01*
X115903476Y-95956428D02*
X116665380Y-95956428D01*
X117093952Y-96289761D02*
X117236809Y-96337380D01*
X117474904Y-96337380D01*
X117570142Y-96289761D01*
X117617761Y-96242142D01*
X117665380Y-96146904D01*
X117665380Y-96051666D01*
X117617761Y-95956428D01*
X117570142Y-95908809D01*
X117474904Y-95861190D01*
X117284428Y-95813571D01*
X117189190Y-95765952D01*
X117141571Y-95718333D01*
X117093952Y-95623095D01*
X117093952Y-95527857D01*
X117141571Y-95432619D01*
X117189190Y-95385000D01*
X117284428Y-95337380D01*
X117522523Y-95337380D01*
X117665380Y-95385000D01*
X117951095Y-95337380D02*
X118522523Y-95337380D01*
X118236809Y-96337380D02*
X118236809Y-95337380D01*
X116276571Y-97734380D02*
X116276571Y-96734380D01*
X116609904Y-97448666D01*
X116943238Y-96734380D01*
X116943238Y-97734380D01*
X117419428Y-97734380D02*
X117419428Y-96734380D01*
X118467047Y-97639142D02*
X118419428Y-97686761D01*
X118276571Y-97734380D01*
X118181333Y-97734380D01*
X118038476Y-97686761D01*
X117943238Y-97591523D01*
X117895619Y-97496285D01*
X117848000Y-97305809D01*
X117848000Y-97162952D01*
X117895619Y-96972476D01*
X117943238Y-96877238D01*
X118038476Y-96782000D01*
X118181333Y-96734380D01*
X118276571Y-96734380D01*
X118419428Y-96782000D01*
X118467047Y-96829619D01*
X117538523Y-100020380D02*
X117062333Y-100020380D01*
X117062333Y-99020380D01*
X117871857Y-100020380D02*
X117871857Y-99020380D01*
X118252809Y-99020380D01*
X118348047Y-99068000D01*
X118395666Y-99115619D01*
X118443285Y-99210857D01*
X118443285Y-99353714D01*
X118395666Y-99448952D01*
X118348047Y-99496571D01*
X118252809Y-99544190D01*
X117871857Y-99544190D01*
X117514714Y-102433380D02*
X117038523Y-102433380D01*
X117038523Y-101433380D01*
X117848047Y-102433380D02*
X117848047Y-101433380D01*
X118419476Y-102433380D01*
X118419476Y-101433380D01*
X117514714Y-105100380D02*
X117181380Y-104624190D01*
X116943285Y-105100380D02*
X116943285Y-104100380D01*
X117324238Y-104100380D01*
X117419476Y-104148000D01*
X117467095Y-104195619D01*
X117514714Y-104290857D01*
X117514714Y-104433714D01*
X117467095Y-104528952D01*
X117419476Y-104576571D01*
X117324238Y-104624190D01*
X116943285Y-104624190D01*
X117943285Y-105100380D02*
X117943285Y-104100380D01*
X118514714Y-105100380D01*
X118514714Y-104100380D01*
X117538523Y-107513380D02*
X117205190Y-107037190D01*
X116967095Y-107513380D02*
X116967095Y-106513380D01*
X117348047Y-106513380D01*
X117443285Y-106561000D01*
X117490904Y-106608619D01*
X117538523Y-106703857D01*
X117538523Y-106846714D01*
X117490904Y-106941952D01*
X117443285Y-106989571D01*
X117348047Y-107037190D01*
X116967095Y-107037190D01*
X117967095Y-107513380D02*
X117967095Y-106513380D01*
X118348047Y-106513380D01*
X118443285Y-106561000D01*
X118490904Y-106608619D01*
X118538523Y-106703857D01*
X118538523Y-106846714D01*
X118490904Y-106941952D01*
X118443285Y-106989571D01*
X118348047Y-107037190D01*
X117967095Y-107037190D01*
X113482380Y-109640666D02*
X113006190Y-109974000D01*
X113482380Y-110212095D02*
X112482380Y-110212095D01*
X112482380Y-109831142D01*
X112530000Y-109735904D01*
X112577619Y-109688285D01*
X112672857Y-109640666D01*
X112815714Y-109640666D01*
X112910952Y-109688285D01*
X112958571Y-109735904D01*
X113006190Y-109831142D01*
X113006190Y-110212095D01*
X112482380Y-109307333D02*
X113482380Y-108640666D01*
X112482380Y-108640666D02*
X113482380Y-109307333D01*
X115022380Y-110235904D02*
X115022380Y-109664476D01*
X116022380Y-109950190D02*
X115022380Y-109950190D01*
X115022380Y-109426380D02*
X116022380Y-108759714D01*
X115022380Y-108759714D02*
X116022380Y-109426380D01*
X118514761Y-110267666D02*
X118562380Y-110124809D01*
X118562380Y-109886714D01*
X118514761Y-109791476D01*
X118467142Y-109743857D01*
X118371904Y-109696238D01*
X118276666Y-109696238D01*
X118181428Y-109743857D01*
X118133809Y-109791476D01*
X118086190Y-109886714D01*
X118038571Y-110077190D01*
X117990952Y-110172428D01*
X117943333Y-110220047D01*
X117848095Y-110267666D01*
X117752857Y-110267666D01*
X117657619Y-110220047D01*
X117610000Y-110172428D01*
X117562380Y-110077190D01*
X117562380Y-109839095D01*
X117610000Y-109696238D01*
X117562380Y-109410523D02*
X117562380Y-108839095D01*
X118562380Y-109124809D02*
X117562380Y-109124809D01*
%LPC*%
D12*
X106204000Y-116332000D03*
D13*
X108204000Y-116332000D03*
G36*
G01*
X103708000Y-117151999D02*
X103708000Y-118052001D01*
G75*
G02*
X103458001Y-118302000I-249999J0D01*
G01*
X102757999Y-118302000D01*
G75*
G02*
X102508000Y-118052001I0J249999D01*
G01*
X102508000Y-117151999D01*
G75*
G02*
X102757999Y-116902000I249999J0D01*
G01*
X103458001Y-116902000D01*
G75*
G02*
X103708000Y-117151999I0J-249999D01*
G01*
G37*
G36*
G01*
X101708000Y-117151999D02*
X101708000Y-118052001D01*
G75*
G02*
X101458001Y-118302000I-249999J0D01*
G01*
X100757999Y-118302000D01*
G75*
G02*
X100508000Y-118052001I0J249999D01*
G01*
X100508000Y-117151999D01*
G75*
G02*
X100757999Y-116902000I249999J0D01*
G01*
X101458001Y-116902000D01*
G75*
G02*
X101708000Y-117151999I0J-249999D01*
G01*
G37*
G36*
G01*
X100780001Y-82150000D02*
X99879999Y-82150000D01*
G75*
G02*
X99630000Y-81900001I0J249999D01*
G01*
X99630000Y-81199999D01*
G75*
G02*
X99879999Y-80950000I249999J0D01*
G01*
X100780001Y-80950000D01*
G75*
G02*
X101030000Y-81199999I0J-249999D01*
G01*
X101030000Y-81900001D01*
G75*
G02*
X100780001Y-82150000I-249999J0D01*
G01*
G37*
G36*
G01*
X100780001Y-84150000D02*
X99879999Y-84150000D01*
G75*
G02*
X99630000Y-83900001I0J249999D01*
G01*
X99630000Y-83199999D01*
G75*
G02*
X99879999Y-82950000I249999J0D01*
G01*
X100780001Y-82950000D01*
G75*
G02*
X101030000Y-83199999I0J-249999D01*
G01*
X101030000Y-83900001D01*
G75*
G02*
X100780001Y-84150000I-249999J0D01*
G01*
G37*
G36*
G01*
X129362000Y-92005999D02*
X129362000Y-92906001D01*
G75*
G02*
X129112001Y-93156000I-249999J0D01*
G01*
X128461999Y-93156000D01*
G75*
G02*
X128212000Y-92906001I0J249999D01*
G01*
X128212000Y-92005999D01*
G75*
G02*
X128461999Y-91756000I249999J0D01*
G01*
X129112001Y-91756000D01*
G75*
G02*
X129362000Y-92005999I0J-249999D01*
G01*
G37*
G36*
G01*
X127312000Y-92005999D02*
X127312000Y-92906001D01*
G75*
G02*
X127062001Y-93156000I-249999J0D01*
G01*
X126411999Y-93156000D01*
G75*
G02*
X126162000Y-92906001I0J249999D01*
G01*
X126162000Y-92005999D01*
G75*
G02*
X126411999Y-91756000I249999J0D01*
G01*
X127062001Y-91756000D01*
G75*
G02*
X127312000Y-92005999I0J-249999D01*
G01*
G37*
G36*
G01*
X127312000Y-94291999D02*
X127312000Y-95192001D01*
G75*
G02*
X127062001Y-95442000I-249999J0D01*
G01*
X126411999Y-95442000D01*
G75*
G02*
X126162000Y-95192001I0J249999D01*
G01*
X126162000Y-94291999D01*
G75*
G02*
X126411999Y-94042000I249999J0D01*
G01*
X127062001Y-94042000D01*
G75*
G02*
X127312000Y-94291999I0J-249999D01*
G01*
G37*
G36*
G01*
X129362000Y-94291999D02*
X129362000Y-95192001D01*
G75*
G02*
X129112001Y-95442000I-249999J0D01*
G01*
X128461999Y-95442000D01*
G75*
G02*
X128212000Y-95192001I0J249999D01*
G01*
X128212000Y-94291999D01*
G75*
G02*
X128461999Y-94042000I249999J0D01*
G01*
X129112001Y-94042000D01*
G75*
G02*
X129362000Y-94291999I0J-249999D01*
G01*
G37*
G36*
G01*
X100596000Y-109640000D02*
X102096000Y-109640000D01*
G75*
G02*
X102346000Y-109890000I0J-250000D01*
G01*
X102346000Y-111090000D01*
G75*
G02*
X102096000Y-111340000I-250000J0D01*
G01*
X100596000Y-111340000D01*
G75*
G02*
X100346000Y-111090000I0J250000D01*
G01*
X100346000Y-109890000D01*
G75*
G02*
X100596000Y-109640000I250000J0D01*
G01*
G37*
D14*
X101346000Y-112990000D03*
D15*
X98806000Y-102870000D03*
D16*
X98806000Y-100330000D03*
G36*
G01*
X100621000Y-86780000D02*
X102071000Y-86780000D01*
G75*
G02*
X102321000Y-87030000I0J-250000D01*
G01*
X102321000Y-88230000D01*
G75*
G02*
X102071000Y-88480000I-250000J0D01*
G01*
X100621000Y-88480000D01*
G75*
G02*
X100371000Y-88230000I0J250000D01*
G01*
X100371000Y-87030000D01*
G75*
G02*
X100621000Y-86780000I250000J0D01*
G01*
G37*
D17*
X101346000Y-90130000D03*
X101346000Y-92630000D03*
X101346000Y-95130000D03*
D18*
X120784000Y-116078000D03*
X118284000Y-116078000D03*
X115784000Y-116078000D03*
G36*
G01*
X112434000Y-116803000D02*
X112434000Y-115353000D01*
G75*
G02*
X112684000Y-115103000I250000J0D01*
G01*
X113884000Y-115103000D01*
G75*
G02*
X114134000Y-115353000I0J-250000D01*
G01*
X114134000Y-116803000D01*
G75*
G02*
X113884000Y-117053000I-250000J0D01*
G01*
X112684000Y-117053000D01*
G75*
G02*
X112434000Y-116803000I0J250000D01*
G01*
G37*
D16*
X123190000Y-110998000D03*
D15*
X123190000Y-108458000D03*
X102362000Y-105410000D03*
D16*
X102362000Y-102870000D03*
X102362000Y-100330000D03*
G36*
G01*
X103290000Y-80735000D02*
X103290000Y-79285000D01*
G75*
G02*
X103540000Y-79035000I250000J0D01*
G01*
X104740000Y-79035000D01*
G75*
G02*
X104990000Y-79285000I0J-250000D01*
G01*
X104990000Y-80735000D01*
G75*
G02*
X104740000Y-80985000I-250000J0D01*
G01*
X103540000Y-80985000D01*
G75*
G02*
X103290000Y-80735000I0J250000D01*
G01*
G37*
D18*
X106640000Y-80010000D03*
X109140000Y-80010000D03*
X111640000Y-80010000D03*
X114140000Y-80010000D03*
X116640000Y-80010000D03*
D12*
X124206000Y-85090000D03*
D13*
X126706000Y-85090000D03*
G36*
G01*
X105860001Y-87230000D02*
X104959999Y-87230000D01*
G75*
G02*
X104710000Y-86980001I0J249999D01*
G01*
X104710000Y-86279999D01*
G75*
G02*
X104959999Y-86030000I249999J0D01*
G01*
X105860001Y-86030000D01*
G75*
G02*
X106110000Y-86279999I0J-249999D01*
G01*
X106110000Y-86980001D01*
G75*
G02*
X105860001Y-87230000I-249999J0D01*
G01*
G37*
G36*
G01*
X105860001Y-89230000D02*
X104959999Y-89230000D01*
G75*
G02*
X104710000Y-88980001I0J249999D01*
G01*
X104710000Y-88279999D01*
G75*
G02*
X104959999Y-88030000I249999J0D01*
G01*
X105860001Y-88030000D01*
G75*
G02*
X106110000Y-88279999I0J-249999D01*
G01*
X106110000Y-88980001D01*
G75*
G02*
X105860001Y-89230000I-249999J0D01*
G01*
G37*
G36*
G01*
X97847999Y-80934000D02*
X98748001Y-80934000D01*
G75*
G02*
X98998000Y-81183999I0J-249999D01*
G01*
X98998000Y-81884001D01*
G75*
G02*
X98748001Y-82134000I-249999J0D01*
G01*
X97847999Y-82134000D01*
G75*
G02*
X97598000Y-81884001I0J249999D01*
G01*
X97598000Y-81183999D01*
G75*
G02*
X97847999Y-80934000I249999J0D01*
G01*
G37*
G36*
G01*
X97847999Y-82934000D02*
X98748001Y-82934000D01*
G75*
G02*
X98998000Y-83183999I0J-249999D01*
G01*
X98998000Y-83884001D01*
G75*
G02*
X98748001Y-84134000I-249999J0D01*
G01*
X97847999Y-84134000D01*
G75*
G02*
X97598000Y-83884001I0J249999D01*
G01*
X97598000Y-83183999D01*
G75*
G02*
X97847999Y-82934000I249999J0D01*
G01*
G37*
G36*
G01*
X123282000Y-92005999D02*
X123282000Y-92906001D01*
G75*
G02*
X123032001Y-93156000I-249999J0D01*
G01*
X122331999Y-93156000D01*
G75*
G02*
X122082000Y-92906001I0J249999D01*
G01*
X122082000Y-92005999D01*
G75*
G02*
X122331999Y-91756000I249999J0D01*
G01*
X123032001Y-91756000D01*
G75*
G02*
X123282000Y-92005999I0J-249999D01*
G01*
G37*
G36*
G01*
X125282000Y-92005999D02*
X125282000Y-92906001D01*
G75*
G02*
X125032001Y-93156000I-249999J0D01*
G01*
X124331999Y-93156000D01*
G75*
G02*
X124082000Y-92906001I0J249999D01*
G01*
X124082000Y-92005999D01*
G75*
G02*
X124331999Y-91756000I249999J0D01*
G01*
X125032001Y-91756000D01*
G75*
G02*
X125282000Y-92005999I0J-249999D01*
G01*
G37*
G36*
G01*
X125282000Y-94291999D02*
X125282000Y-95192001D01*
G75*
G02*
X125032001Y-95442000I-249999J0D01*
G01*
X124331999Y-95442000D01*
G75*
G02*
X124082000Y-95192001I0J249999D01*
G01*
X124082000Y-94291999D01*
G75*
G02*
X124331999Y-94042000I249999J0D01*
G01*
X125032001Y-94042000D01*
G75*
G02*
X125282000Y-94291999I0J-249999D01*
G01*
G37*
G36*
G01*
X123282000Y-94291999D02*
X123282000Y-95192001D01*
G75*
G02*
X123032001Y-95442000I-249999J0D01*
G01*
X122331999Y-95442000D01*
G75*
G02*
X122082000Y-95192001I0J249999D01*
G01*
X122082000Y-94291999D01*
G75*
G02*
X122331999Y-94042000I249999J0D01*
G01*
X123032001Y-94042000D01*
G75*
G02*
X123282000Y-94291999I0J-249999D01*
G01*
G37*
G36*
G01*
X132022001Y-95564000D02*
X131121999Y-95564000D01*
G75*
G02*
X130872000Y-95314001I0J249999D01*
G01*
X130872000Y-94613999D01*
G75*
G02*
X131121999Y-94364000I249999J0D01*
G01*
X132022001Y-94364000D01*
G75*
G02*
X132272000Y-94613999I0J-249999D01*
G01*
X132272000Y-95314001D01*
G75*
G02*
X132022001Y-95564000I-249999J0D01*
G01*
G37*
G36*
G01*
X132022001Y-93564000D02*
X131121999Y-93564000D01*
G75*
G02*
X130872000Y-93314001I0J249999D01*
G01*
X130872000Y-92613999D01*
G75*
G02*
X131121999Y-92364000I249999J0D01*
G01*
X132022001Y-92364000D01*
G75*
G02*
X132272000Y-92613999I0J-249999D01*
G01*
X132272000Y-93314001D01*
G75*
G02*
X132022001Y-93564000I-249999J0D01*
G01*
G37*
G36*
G01*
X139100000Y-108654001D02*
X139100000Y-107753999D01*
G75*
G02*
X139349999Y-107504000I249999J0D01*
G01*
X140050001Y-107504000D01*
G75*
G02*
X140300000Y-107753999I0J-249999D01*
G01*
X140300000Y-108654001D01*
G75*
G02*
X140050001Y-108904000I-249999J0D01*
G01*
X139349999Y-108904000D01*
G75*
G02*
X139100000Y-108654001I0J249999D01*
G01*
G37*
G36*
G01*
X137100000Y-108654001D02*
X137100000Y-107753999D01*
G75*
G02*
X137349999Y-107504000I249999J0D01*
G01*
X138050001Y-107504000D01*
G75*
G02*
X138300000Y-107753999I0J-249999D01*
G01*
X138300000Y-108654001D01*
G75*
G02*
X138050001Y-108904000I-249999J0D01*
G01*
X137349999Y-108904000D01*
G75*
G02*
X137100000Y-108654001I0J249999D01*
G01*
G37*
G36*
G01*
X127686000Y-108654001D02*
X127686000Y-107753999D01*
G75*
G02*
X127935999Y-107504000I249999J0D01*
G01*
X128636001Y-107504000D01*
G75*
G02*
X128886000Y-107753999I0J-249999D01*
G01*
X128886000Y-108654001D01*
G75*
G02*
X128636001Y-108904000I-249999J0D01*
G01*
X127935999Y-108904000D01*
G75*
G02*
X127686000Y-108654001I0J249999D01*
G01*
G37*
G36*
G01*
X129686000Y-108654001D02*
X129686000Y-107753999D01*
G75*
G02*
X129935999Y-107504000I249999J0D01*
G01*
X130636001Y-107504000D01*
G75*
G02*
X130886000Y-107753999I0J-249999D01*
G01*
X130886000Y-108654001D01*
G75*
G02*
X130636001Y-108904000I-249999J0D01*
G01*
X129935999Y-108904000D01*
G75*
G02*
X129686000Y-108654001I0J249999D01*
G01*
G37*
G36*
G01*
X124402001Y-102486000D02*
X123501999Y-102486000D01*
G75*
G02*
X123252000Y-102236001I0J249999D01*
G01*
X123252000Y-101535999D01*
G75*
G02*
X123501999Y-101286000I249999J0D01*
G01*
X124402001Y-101286000D01*
G75*
G02*
X124652000Y-101535999I0J-249999D01*
G01*
X124652000Y-102236001D01*
G75*
G02*
X124402001Y-102486000I-249999J0D01*
G01*
G37*
G36*
G01*
X124402001Y-104486000D02*
X123501999Y-104486000D01*
G75*
G02*
X123252000Y-104236001I0J249999D01*
G01*
X123252000Y-103535999D01*
G75*
G02*
X123501999Y-103286000I249999J0D01*
G01*
X124402001Y-103286000D01*
G75*
G02*
X124652000Y-103535999I0J-249999D01*
G01*
X124652000Y-104236001D01*
G75*
G02*
X124402001Y-104486000I-249999J0D01*
G01*
G37*
G36*
G01*
X132274000Y-108654001D02*
X132274000Y-107753999D01*
G75*
G02*
X132523999Y-107504000I249999J0D01*
G01*
X133224001Y-107504000D01*
G75*
G02*
X133474000Y-107753999I0J-249999D01*
G01*
X133474000Y-108654001D01*
G75*
G02*
X133224001Y-108904000I-249999J0D01*
G01*
X132523999Y-108904000D01*
G75*
G02*
X132274000Y-108654001I0J249999D01*
G01*
G37*
G36*
G01*
X134274000Y-108654001D02*
X134274000Y-107753999D01*
G75*
G02*
X134523999Y-107504000I249999J0D01*
G01*
X135224001Y-107504000D01*
G75*
G02*
X135474000Y-107753999I0J-249999D01*
G01*
X135474000Y-108654001D01*
G75*
G02*
X135224001Y-108904000I-249999J0D01*
G01*
X134523999Y-108904000D01*
G75*
G02*
X134274000Y-108654001I0J249999D01*
G01*
G37*
G36*
G01*
X132530001Y-81642000D02*
X131629999Y-81642000D01*
G75*
G02*
X131380000Y-81392001I0J249999D01*
G01*
X131380000Y-80691999D01*
G75*
G02*
X131629999Y-80442000I249999J0D01*
G01*
X132530001Y-80442000D01*
G75*
G02*
X132780000Y-80691999I0J-249999D01*
G01*
X132780000Y-81392001D01*
G75*
G02*
X132530001Y-81642000I-249999J0D01*
G01*
G37*
G36*
G01*
X132530001Y-83642000D02*
X131629999Y-83642000D01*
G75*
G02*
X131380000Y-83392001I0J249999D01*
G01*
X131380000Y-82691999D01*
G75*
G02*
X131629999Y-82442000I249999J0D01*
G01*
X132530001Y-82442000D01*
G75*
G02*
X132780000Y-82691999I0J-249999D01*
G01*
X132780000Y-83392001D01*
G75*
G02*
X132530001Y-83642000I-249999J0D01*
G01*
G37*
D19*
X139628000Y-95250000D03*
X135128000Y-95250000D03*
X139628000Y-88750000D03*
X135128000Y-88750000D03*
X135128000Y-110998000D03*
X139628000Y-110998000D03*
X135128000Y-117498000D03*
X139628000Y-117498000D03*
X131500000Y-117475000D03*
X127000000Y-117475000D03*
X131500000Y-110975000D03*
X127000000Y-110975000D03*
X127072000Y-98806000D03*
X131572000Y-98806000D03*
X127072000Y-105306000D03*
X131572000Y-105306000D03*
X139628000Y-105306000D03*
X135128000Y-105306000D03*
X139628000Y-98806000D03*
X135128000Y-98806000D03*
X135128000Y-78740000D03*
X139628000Y-78740000D03*
X135128000Y-85240000D03*
X139628000Y-85240000D03*
D20*
X106095800Y-91287600D03*
X106095800Y-92786200D03*
X106095800Y-94284800D03*
X106095800Y-95783400D03*
X106095800Y-97282000D03*
X106095800Y-98780600D03*
X106095800Y-100279200D03*
X106095800Y-101777800D03*
X106095800Y-103276400D03*
X106095800Y-104775000D03*
X106095800Y-106273600D03*
X106095800Y-107772200D03*
X106095800Y-109270800D03*
X120015000Y-97256600D03*
X120015000Y-95758000D03*
X120015000Y-94259400D03*
X120015000Y-92760800D03*
X120015000Y-91262200D03*
X120015000Y-107061000D03*
X120015000Y-104521000D03*
X120015000Y-101981000D03*
X120015000Y-99441000D03*
D21*
X107950000Y-111760000D03*
X110490000Y-111760000D03*
X113030000Y-111760000D03*
X115570000Y-111760000D03*
X118110000Y-111760000D03*
M02*
