M48
; DRILL file {KiCad 5.1.9+dfsg1-1} date Sun Aug 21 22:59:35 2022
; FORMAT={-:-/ absolute / metric / decimal}
; #@! TF.CreationDate,2022-08-21T22:59:35+09:00
; #@! TF.GenerationSoftware,Kicad,Pcbnew,5.1.9+dfsg1-1
; #@! TF.FileFunction,Plated,1,2,PTH
FMAT,2
METRIC
T1C0.762
T2C1.000
T3C1.020
T4C3.200
%
G90
G05
T1
X78.0Y-132.0
X80.0Y-132.0
X84.0Y-129.0
X86.0Y-129.0
X94.0Y-132.0
X96.0Y-132.0
X100.0Y-129.0
X102.0Y-129.0
X110.0Y-132.0
X112.0Y-132.0
X116.0Y-129.0
X118.0Y-129.0
X126.0Y-132.0
X128.0Y-132.0
X132.0Y-129.0
X134.0Y-129.0
X142.0Y-132.0
X144.0Y-132.0
X148.0Y-129.0
X150.0Y-129.0
T2
X78.0Y-118.0
X78.0Y-124.477
X84.0Y-118.0
X84.0Y-124.477
X94.0Y-118.063
X94.0Y-124.54
X100.0Y-118.063
X100.0Y-124.54
X110.0Y-118.063
X110.0Y-124.54
X116.0Y-118.063
X116.0Y-124.54
X126.0Y-118.063
X126.0Y-124.54
X132.0Y-118.063
X132.0Y-124.54
X142.0Y-118.063
X142.0Y-124.54
X148.0Y-118.063
X148.0Y-124.54
T3
X78.0Y-113.32
X81.0Y-113.32
X84.0Y-113.32
X94.0Y-113.32
X97.0Y-113.32
X100.0Y-113.32
X110.0Y-113.32
X113.0Y-113.32
X116.0Y-113.32
X126.0Y-113.32
X129.0Y-113.32
X132.0Y-113.32
X142.0Y-113.32
X145.0Y-113.32
X148.0Y-113.32
T4
X69.0Y-115.0
X157.0Y-115.0
T0
M30
