G04 #@! TF.GenerationSoftware,KiCad,Pcbnew,5.1.9+dfsg1-1*
G04 #@! TF.CreationDate,2022-08-21T21:29:47+09:00*
G04 #@! TF.ProjectId,car-fuse-box-smd,6361722d-6675-4736-952d-626f782d736d,rev?*
G04 #@! TF.SameCoordinates,Original*
G04 #@! TF.FileFunction,Legend,Bot*
G04 #@! TF.FilePolarity,Positive*
%FSLAX46Y46*%
G04 Gerber Fmt 4.6, Leading zero omitted, Abs format (unit mm)*
G04 Created by KiCad (PCBNEW 5.1.9+dfsg1-1) date 2022-08-21 21:29:47*
%MOMM*%
%LPD*%
G01*
G04 APERTURE LIST*
%ADD10C,0.150000*%
%ADD11R,3.800000X4.250000*%
%ADD12C,3.000000*%
%ADD13O,1.500000X2.020000*%
%ADD14C,5.600000*%
%ADD15C,1.524000*%
G04 APERTURE END LIST*
D10*
X77714285Y-101452380D02*
X78047619Y-100976190D01*
X78285714Y-101452380D02*
X78285714Y-100452380D01*
X77904761Y-100452380D01*
X77809523Y-100500000D01*
X77761904Y-100547619D01*
X77714285Y-100642857D01*
X77714285Y-100785714D01*
X77761904Y-100880952D01*
X77809523Y-100928571D01*
X77904761Y-100976190D01*
X78285714Y-100976190D01*
X76904761Y-101404761D02*
X77000000Y-101452380D01*
X77190476Y-101452380D01*
X77285714Y-101404761D01*
X77333333Y-101309523D01*
X77333333Y-100928571D01*
X77285714Y-100833333D01*
X77190476Y-100785714D01*
X77000000Y-100785714D01*
X76904761Y-100833333D01*
X76857142Y-100928571D01*
X76857142Y-101023809D01*
X77333333Y-101119047D01*
X76523809Y-100785714D02*
X76285714Y-101452380D01*
X76047619Y-100785714D01*
X75666666Y-101357142D02*
X75619047Y-101404761D01*
X75666666Y-101452380D01*
X75714285Y-101404761D01*
X75666666Y-101357142D01*
X75666666Y-101452380D01*
X74666666Y-101452380D02*
X75238095Y-101452380D01*
X74952380Y-101452380D02*
X74952380Y-100452380D01*
X75047619Y-100595238D01*
X75142857Y-100690476D01*
X75238095Y-100738095D01*
X78285714Y-98928571D02*
X78619047Y-98928571D01*
X78619047Y-99452380D02*
X78619047Y-98452380D01*
X78142857Y-98452380D01*
X77761904Y-98452380D02*
X77761904Y-99261904D01*
X77714285Y-99357142D01*
X77666666Y-99404761D01*
X77571428Y-99452380D01*
X77380952Y-99452380D01*
X77285714Y-99404761D01*
X77238095Y-99357142D01*
X77190476Y-99261904D01*
X77190476Y-98452380D01*
X76761904Y-99404761D02*
X76619047Y-99452380D01*
X76380952Y-99452380D01*
X76285714Y-99404761D01*
X76238095Y-99357142D01*
X76190476Y-99261904D01*
X76190476Y-99166666D01*
X76238095Y-99071428D01*
X76285714Y-99023809D01*
X76380952Y-98976190D01*
X76571428Y-98928571D01*
X76666666Y-98880952D01*
X76714285Y-98833333D01*
X76761904Y-98738095D01*
X76761904Y-98642857D01*
X76714285Y-98547619D01*
X76666666Y-98500000D01*
X76571428Y-98452380D01*
X76333333Y-98452380D01*
X76190476Y-98500000D01*
X75761904Y-98928571D02*
X75428571Y-98928571D01*
X75285714Y-99452380D02*
X75761904Y-99452380D01*
X75761904Y-98452380D01*
X75285714Y-98452380D01*
X73761904Y-98928571D02*
X73619047Y-98976190D01*
X73571428Y-99023809D01*
X73523809Y-99119047D01*
X73523809Y-99261904D01*
X73571428Y-99357142D01*
X73619047Y-99404761D01*
X73714285Y-99452380D01*
X74095238Y-99452380D01*
X74095238Y-98452380D01*
X73761904Y-98452380D01*
X73666666Y-98500000D01*
X73619047Y-98547619D01*
X73571428Y-98642857D01*
X73571428Y-98738095D01*
X73619047Y-98833333D01*
X73666666Y-98880952D01*
X73761904Y-98928571D01*
X74095238Y-98928571D01*
X72904761Y-98452380D02*
X72714285Y-98452380D01*
X72619047Y-98500000D01*
X72523809Y-98595238D01*
X72476190Y-98785714D01*
X72476190Y-99119047D01*
X72523809Y-99309523D01*
X72619047Y-99404761D01*
X72714285Y-99452380D01*
X72904761Y-99452380D01*
X73000000Y-99404761D01*
X73095238Y-99309523D01*
X73142857Y-99119047D01*
X73142857Y-98785714D01*
X73095238Y-98595238D01*
X73000000Y-98500000D01*
X72904761Y-98452380D01*
X72142857Y-98452380D02*
X71476190Y-99452380D01*
X71476190Y-98452380D02*
X72142857Y-99452380D01*
X70190476Y-99452380D02*
X70285714Y-99404761D01*
X70333333Y-99309523D01*
X70333333Y-98452380D01*
X69809523Y-99452380D02*
X69809523Y-98785714D01*
X69809523Y-98452380D02*
X69857142Y-98500000D01*
X69809523Y-98547619D01*
X69761904Y-98500000D01*
X69809523Y-98452380D01*
X69809523Y-98547619D01*
X69476190Y-98785714D02*
X69095238Y-98785714D01*
X69333333Y-98452380D02*
X69333333Y-99309523D01*
X69285714Y-99404761D01*
X69190476Y-99452380D01*
X69095238Y-99452380D01*
X68380952Y-99404761D02*
X68476190Y-99452380D01*
X68666666Y-99452380D01*
X68761904Y-99404761D01*
X68809523Y-99309523D01*
X68809523Y-98928571D01*
X68761904Y-98833333D01*
X68666666Y-98785714D01*
X68476190Y-98785714D01*
X68380952Y-98833333D01*
X68333333Y-98928571D01*
X68333333Y-99023809D01*
X68809523Y-99119047D01*
X155690476Y-101904761D02*
X155785714Y-101952380D01*
X155976190Y-101952380D01*
X156071428Y-101904761D01*
X156119047Y-101857142D01*
X156166666Y-101761904D01*
X156166666Y-101476190D01*
X156119047Y-101380952D01*
X156071428Y-101333333D01*
X155976190Y-101285714D01*
X155785714Y-101285714D01*
X155690476Y-101333333D01*
X155261904Y-101952380D02*
X155261904Y-100952380D01*
X154833333Y-101952380D02*
X154833333Y-101428571D01*
X154880952Y-101333333D01*
X154976190Y-101285714D01*
X155119047Y-101285714D01*
X155214285Y-101333333D01*
X155261904Y-101380952D01*
X154357142Y-101952380D02*
X154357142Y-101285714D01*
X154357142Y-100952380D02*
X154404761Y-101000000D01*
X154357142Y-101047619D01*
X154309523Y-101000000D01*
X154357142Y-100952380D01*
X154357142Y-101047619D01*
X153880952Y-101285714D02*
X153880952Y-102285714D01*
X153880952Y-101333333D02*
X153785714Y-101285714D01*
X153595238Y-101285714D01*
X153500000Y-101333333D01*
X153452380Y-101380952D01*
X153404761Y-101476190D01*
X153404761Y-101761904D01*
X153452380Y-101857142D01*
X153500000Y-101904761D01*
X153595238Y-101952380D01*
X153785714Y-101952380D01*
X153880952Y-101904761D01*
X152357142Y-101476190D02*
X152404761Y-101428571D01*
X152500000Y-101380952D01*
X152595238Y-101380952D01*
X152690476Y-101428571D01*
X152738095Y-101476190D01*
X152785714Y-101571428D01*
X152785714Y-101666666D01*
X152738095Y-101761904D01*
X152690476Y-101809523D01*
X152595238Y-101857142D01*
X152500000Y-101857142D01*
X152404761Y-101809523D01*
X152357142Y-101761904D01*
X152357142Y-101380952D02*
X152357142Y-101761904D01*
X152309523Y-101809523D01*
X152261904Y-101809523D01*
X152166666Y-101761904D01*
X152119047Y-101666666D01*
X152119047Y-101428571D01*
X152214285Y-101285714D01*
X152357142Y-101190476D01*
X152547619Y-101142857D01*
X152738095Y-101190476D01*
X152880952Y-101285714D01*
X152976190Y-101428571D01*
X153023809Y-101619047D01*
X152976190Y-101809523D01*
X152880952Y-101952380D01*
X152738095Y-102047619D01*
X152547619Y-102095238D01*
X152357142Y-102047619D01*
X152214285Y-101952380D01*
X151738095Y-101904761D02*
X151642857Y-101952380D01*
X151452380Y-101952380D01*
X151357142Y-101904761D01*
X151309523Y-101809523D01*
X151309523Y-101761904D01*
X151357142Y-101666666D01*
X151452380Y-101619047D01*
X151595238Y-101619047D01*
X151690476Y-101571428D01*
X151738095Y-101476190D01*
X151738095Y-101428571D01*
X151690476Y-101333333D01*
X151595238Y-101285714D01*
X151452380Y-101285714D01*
X151357142Y-101333333D01*
X150880952Y-101285714D02*
X150880952Y-101952380D01*
X150880952Y-101380952D02*
X150833333Y-101333333D01*
X150738095Y-101285714D01*
X150595238Y-101285714D01*
X150500000Y-101333333D01*
X150452380Y-101428571D01*
X150452380Y-101952380D01*
X149547619Y-101952380D02*
X149547619Y-101428571D01*
X149595238Y-101333333D01*
X149690476Y-101285714D01*
X149880952Y-101285714D01*
X149976190Y-101333333D01*
X149547619Y-101904761D02*
X149642857Y-101952380D01*
X149880952Y-101952380D01*
X149976190Y-101904761D01*
X150023809Y-101809523D01*
X150023809Y-101714285D01*
X149976190Y-101619047D01*
X149880952Y-101571428D01*
X149642857Y-101571428D01*
X149547619Y-101523809D01*
X149071428Y-101952380D02*
X149071428Y-100952380D01*
X148976190Y-101571428D02*
X148690476Y-101952380D01*
X148690476Y-101285714D02*
X149071428Y-101666666D01*
X147880952Y-101904761D02*
X147976190Y-101952380D01*
X148166666Y-101952380D01*
X148261904Y-101904761D01*
X148309523Y-101809523D01*
X148309523Y-101428571D01*
X148261904Y-101333333D01*
X148166666Y-101285714D01*
X147976190Y-101285714D01*
X147880952Y-101333333D01*
X147833333Y-101428571D01*
X147833333Y-101523809D01*
X148309523Y-101619047D01*
X147261904Y-101952380D02*
X147357142Y-101904761D01*
X147404761Y-101857142D01*
X147452380Y-101761904D01*
X147452380Y-101476190D01*
X147404761Y-101380952D01*
X147357142Y-101333333D01*
X147261904Y-101285714D01*
X147119047Y-101285714D01*
X147023809Y-101333333D01*
X146976190Y-101380952D01*
X146928571Y-101476190D01*
X146928571Y-101761904D01*
X146976190Y-101857142D01*
X147023809Y-101904761D01*
X147119047Y-101952380D01*
X147261904Y-101952380D01*
X146500000Y-101952380D02*
X146500000Y-101285714D01*
X146500000Y-100952380D02*
X146547619Y-101000000D01*
X146500000Y-101047619D01*
X146452380Y-101000000D01*
X146500000Y-100952380D01*
X146500000Y-101047619D01*
X145880952Y-101952380D02*
X145976190Y-101904761D01*
X146023809Y-101809523D01*
X146023809Y-100952380D01*
X145071428Y-101952380D02*
X145071428Y-100952380D01*
X145071428Y-101904761D02*
X145166666Y-101952380D01*
X145357142Y-101952380D01*
X145452380Y-101904761D01*
X145500000Y-101857142D01*
X145547619Y-101761904D01*
X145547619Y-101476190D01*
X145500000Y-101380952D01*
X145452380Y-101333333D01*
X145357142Y-101285714D01*
X145166666Y-101285714D01*
X145071428Y-101333333D01*
X144214285Y-101904761D02*
X144309523Y-101952380D01*
X144500000Y-101952380D01*
X144595238Y-101904761D01*
X144642857Y-101809523D01*
X144642857Y-101428571D01*
X144595238Y-101333333D01*
X144500000Y-101285714D01*
X144309523Y-101285714D01*
X144214285Y-101333333D01*
X144166666Y-101428571D01*
X144166666Y-101523809D01*
X144642857Y-101619047D01*
X143833333Y-101285714D02*
X143595238Y-101952380D01*
X143357142Y-101285714D01*
X142976190Y-101857142D02*
X142928571Y-101904761D01*
X142976190Y-101952380D01*
X143023809Y-101904761D01*
X142976190Y-101857142D01*
X142976190Y-101952380D01*
X142071428Y-101904761D02*
X142166666Y-101952380D01*
X142357142Y-101952380D01*
X142452380Y-101904761D01*
X142500000Y-101857142D01*
X142547619Y-101761904D01*
X142547619Y-101476190D01*
X142500000Y-101380952D01*
X142452380Y-101333333D01*
X142357142Y-101285714D01*
X142166666Y-101285714D01*
X142071428Y-101333333D01*
X141500000Y-101952380D02*
X141595238Y-101904761D01*
X141642857Y-101857142D01*
X141690476Y-101761904D01*
X141690476Y-101476190D01*
X141642857Y-101380952D01*
X141595238Y-101333333D01*
X141500000Y-101285714D01*
X141357142Y-101285714D01*
X141261904Y-101333333D01*
X141214285Y-101380952D01*
X141166666Y-101476190D01*
X141166666Y-101761904D01*
X141214285Y-101857142D01*
X141261904Y-101904761D01*
X141357142Y-101952380D01*
X141500000Y-101952380D01*
X140738095Y-101952380D02*
X140738095Y-101285714D01*
X140738095Y-101380952D02*
X140690476Y-101333333D01*
X140595238Y-101285714D01*
X140452380Y-101285714D01*
X140357142Y-101333333D01*
X140309523Y-101428571D01*
X140309523Y-101952380D01*
X140309523Y-101428571D02*
X140261904Y-101333333D01*
X140166666Y-101285714D01*
X140023809Y-101285714D01*
X139928571Y-101333333D01*
X139880952Y-101428571D01*
X139880952Y-101952380D01*
X156119047Y-99452380D02*
X156119047Y-98452380D01*
X155690476Y-99452380D02*
X155690476Y-98928571D01*
X155738095Y-98833333D01*
X155833333Y-98785714D01*
X155976190Y-98785714D01*
X156071428Y-98833333D01*
X156119047Y-98880952D01*
X155357142Y-98785714D02*
X154976190Y-98785714D01*
X155214285Y-98452380D02*
X155214285Y-99309523D01*
X155166666Y-99404761D01*
X155071428Y-99452380D01*
X154976190Y-99452380D01*
X154785714Y-98785714D02*
X154404761Y-98785714D01*
X154642857Y-98452380D02*
X154642857Y-99309523D01*
X154595238Y-99404761D01*
X154500000Y-99452380D01*
X154404761Y-99452380D01*
X154071428Y-98785714D02*
X154071428Y-99785714D01*
X154071428Y-98833333D02*
X153976190Y-98785714D01*
X153785714Y-98785714D01*
X153690476Y-98833333D01*
X153642857Y-98880952D01*
X153595238Y-98976190D01*
X153595238Y-99261904D01*
X153642857Y-99357142D01*
X153690476Y-99404761D01*
X153785714Y-99452380D01*
X153976190Y-99452380D01*
X154071428Y-99404761D01*
X153214285Y-99404761D02*
X153119047Y-99452380D01*
X152928571Y-99452380D01*
X152833333Y-99404761D01*
X152785714Y-99309523D01*
X152785714Y-99261904D01*
X152833333Y-99166666D01*
X152928571Y-99119047D01*
X153071428Y-99119047D01*
X153166666Y-99071428D01*
X153214285Y-98976190D01*
X153214285Y-98928571D01*
X153166666Y-98833333D01*
X153071428Y-98785714D01*
X152928571Y-98785714D01*
X152833333Y-98833333D01*
X152357142Y-99357142D02*
X152309523Y-99404761D01*
X152357142Y-99452380D01*
X152404761Y-99404761D01*
X152357142Y-99357142D01*
X152357142Y-99452380D01*
X152357142Y-98833333D02*
X152309523Y-98880952D01*
X152357142Y-98928571D01*
X152404761Y-98880952D01*
X152357142Y-98833333D01*
X152357142Y-98928571D01*
X151166666Y-98404761D02*
X152023809Y-99690476D01*
X150119047Y-98404761D02*
X150976190Y-99690476D01*
X149357142Y-98785714D02*
X149357142Y-99595238D01*
X149404761Y-99690476D01*
X149452380Y-99738095D01*
X149547619Y-99785714D01*
X149690476Y-99785714D01*
X149785714Y-99738095D01*
X149357142Y-99404761D02*
X149452380Y-99452380D01*
X149642857Y-99452380D01*
X149738095Y-99404761D01*
X149785714Y-99357142D01*
X149833333Y-99261904D01*
X149833333Y-98976190D01*
X149785714Y-98880952D01*
X149738095Y-98833333D01*
X149642857Y-98785714D01*
X149452380Y-98785714D01*
X149357142Y-98833333D01*
X148880952Y-99452380D02*
X148880952Y-98785714D01*
X148880952Y-98452380D02*
X148928571Y-98500000D01*
X148880952Y-98547619D01*
X148833333Y-98500000D01*
X148880952Y-98452380D01*
X148880952Y-98547619D01*
X148547619Y-98785714D02*
X148166666Y-98785714D01*
X148404761Y-98452380D02*
X148404761Y-99309523D01*
X148357142Y-99404761D01*
X148261904Y-99452380D01*
X148166666Y-99452380D01*
X147833333Y-99452380D02*
X147833333Y-98452380D01*
X147404761Y-99452380D02*
X147404761Y-98928571D01*
X147452380Y-98833333D01*
X147547619Y-98785714D01*
X147690476Y-98785714D01*
X147785714Y-98833333D01*
X147833333Y-98880952D01*
X146500000Y-98785714D02*
X146500000Y-99452380D01*
X146928571Y-98785714D02*
X146928571Y-99309523D01*
X146880952Y-99404761D01*
X146785714Y-99452380D01*
X146642857Y-99452380D01*
X146547619Y-99404761D01*
X146500000Y-99357142D01*
X146023809Y-99452380D02*
X146023809Y-98452380D01*
X146023809Y-98833333D02*
X145928571Y-98785714D01*
X145738095Y-98785714D01*
X145642857Y-98833333D01*
X145595238Y-98880952D01*
X145547619Y-98976190D01*
X145547619Y-99261904D01*
X145595238Y-99357142D01*
X145642857Y-99404761D01*
X145738095Y-99452380D01*
X145928571Y-99452380D01*
X146023809Y-99404761D01*
X145119047Y-99357142D02*
X145071428Y-99404761D01*
X145119047Y-99452380D01*
X145166666Y-99404761D01*
X145119047Y-99357142D01*
X145119047Y-99452380D01*
X144214285Y-99404761D02*
X144309523Y-99452380D01*
X144500000Y-99452380D01*
X144595238Y-99404761D01*
X144642857Y-99357142D01*
X144690476Y-99261904D01*
X144690476Y-98976190D01*
X144642857Y-98880952D01*
X144595238Y-98833333D01*
X144500000Y-98785714D01*
X144309523Y-98785714D01*
X144214285Y-98833333D01*
X143642857Y-99452380D02*
X143738095Y-99404761D01*
X143785714Y-99357142D01*
X143833333Y-99261904D01*
X143833333Y-98976190D01*
X143785714Y-98880952D01*
X143738095Y-98833333D01*
X143642857Y-98785714D01*
X143500000Y-98785714D01*
X143404761Y-98833333D01*
X143357142Y-98880952D01*
X143309523Y-98976190D01*
X143309523Y-99261904D01*
X143357142Y-99357142D01*
X143404761Y-99404761D01*
X143500000Y-99452380D01*
X143642857Y-99452380D01*
X142880952Y-99452380D02*
X142880952Y-98785714D01*
X142880952Y-98880952D02*
X142833333Y-98833333D01*
X142738095Y-98785714D01*
X142595238Y-98785714D01*
X142500000Y-98833333D01*
X142452380Y-98928571D01*
X142452380Y-99452380D01*
X142452380Y-98928571D02*
X142404761Y-98833333D01*
X142309523Y-98785714D01*
X142166666Y-98785714D01*
X142071428Y-98833333D01*
X142023809Y-98928571D01*
X142023809Y-99452380D01*
X140833333Y-98404761D02*
X141690476Y-99690476D01*
X139928571Y-99357142D02*
X139976190Y-99404761D01*
X140119047Y-99452380D01*
X140214285Y-99452380D01*
X140357142Y-99404761D01*
X140452380Y-99309523D01*
X140500000Y-99214285D01*
X140547619Y-99023809D01*
X140547619Y-98880952D01*
X140500000Y-98690476D01*
X140452380Y-98595238D01*
X140357142Y-98500000D01*
X140214285Y-98452380D01*
X140119047Y-98452380D01*
X139976190Y-98500000D01*
X139928571Y-98547619D01*
X139500000Y-99452380D02*
X139500000Y-98452380D01*
X139071428Y-99452380D02*
X139071428Y-98928571D01*
X139119047Y-98833333D01*
X139214285Y-98785714D01*
X139357142Y-98785714D01*
X139452380Y-98833333D01*
X139500000Y-98880952D01*
X138595238Y-99452380D02*
X138595238Y-98785714D01*
X138595238Y-98452380D02*
X138642857Y-98500000D01*
X138595238Y-98547619D01*
X138547619Y-98500000D01*
X138595238Y-98452380D01*
X138595238Y-98547619D01*
X138119047Y-98785714D02*
X138119047Y-99785714D01*
X138119047Y-98833333D02*
X138023809Y-98785714D01*
X137833333Y-98785714D01*
X137738095Y-98833333D01*
X137690476Y-98880952D01*
X137642857Y-98976190D01*
X137642857Y-99261904D01*
X137690476Y-99357142D01*
X137738095Y-99404761D01*
X137833333Y-99452380D01*
X138023809Y-99452380D01*
X138119047Y-99404761D01*
X136642857Y-99357142D02*
X136690476Y-99404761D01*
X136833333Y-99452380D01*
X136928571Y-99452380D01*
X137071428Y-99404761D01*
X137166666Y-99309523D01*
X137214285Y-99214285D01*
X137261904Y-99023809D01*
X137261904Y-98880952D01*
X137214285Y-98690476D01*
X137166666Y-98595238D01*
X137071428Y-98500000D01*
X136928571Y-98452380D01*
X136833333Y-98452380D01*
X136690476Y-98500000D01*
X136642857Y-98547619D01*
X136214285Y-98928571D02*
X135880952Y-98928571D01*
X135738095Y-99452380D02*
X136214285Y-99452380D01*
X136214285Y-98452380D01*
X135738095Y-98452380D01*
X134595238Y-98404761D02*
X135452380Y-99690476D01*
X134261904Y-98785714D02*
X134261904Y-99642857D01*
X134309523Y-99738095D01*
X134404761Y-99785714D01*
X134452380Y-99785714D01*
X134261904Y-98452380D02*
X134309523Y-98500000D01*
X134261904Y-98547619D01*
X134214285Y-98500000D01*
X134261904Y-98452380D01*
X134261904Y-98547619D01*
X133357142Y-98785714D02*
X133357142Y-99452380D01*
X133785714Y-98785714D02*
X133785714Y-99309523D01*
X133738095Y-99404761D01*
X133642857Y-99452380D01*
X133500000Y-99452380D01*
X133404761Y-99404761D01*
X133357142Y-99357142D01*
X132880952Y-99452380D02*
X132880952Y-98785714D01*
X132880952Y-98452380D02*
X132928571Y-98500000D01*
X132880952Y-98547619D01*
X132833333Y-98500000D01*
X132880952Y-98452380D01*
X132880952Y-98547619D01*
X131976190Y-99404761D02*
X132071428Y-99452380D01*
X132261904Y-99452380D01*
X132357142Y-99404761D01*
X132404761Y-99357142D01*
X132452380Y-99261904D01*
X132452380Y-98976190D01*
X132404761Y-98880952D01*
X132357142Y-98833333D01*
X132261904Y-98785714D01*
X132071428Y-98785714D01*
X131976190Y-98833333D01*
X131166666Y-99404761D02*
X131261904Y-99452380D01*
X131452380Y-99452380D01*
X131547619Y-99404761D01*
X131595238Y-99309523D01*
X131595238Y-98928571D01*
X131547619Y-98833333D01*
X131452380Y-98785714D01*
X131261904Y-98785714D01*
X131166666Y-98833333D01*
X131119047Y-98928571D01*
X131119047Y-99023809D01*
X131595238Y-99119047D01*
X130690476Y-99071428D02*
X129928571Y-99071428D01*
X129452380Y-98785714D02*
X129452380Y-99785714D01*
X129452380Y-98833333D02*
X129357142Y-98785714D01*
X129166666Y-98785714D01*
X129071428Y-98833333D01*
X129023809Y-98880952D01*
X128976190Y-98976190D01*
X128976190Y-99261904D01*
X129023809Y-99357142D01*
X129071428Y-99404761D01*
X129166666Y-99452380D01*
X129357142Y-99452380D01*
X129452380Y-99404761D01*
X128404761Y-99452380D02*
X128500000Y-99404761D01*
X128547619Y-99309523D01*
X128547619Y-98452380D01*
X127595238Y-98785714D02*
X127595238Y-99452380D01*
X128023809Y-98785714D02*
X128023809Y-99309523D01*
X127976190Y-99404761D01*
X127880952Y-99452380D01*
X127738095Y-99452380D01*
X127642857Y-99404761D01*
X127595238Y-99357142D01*
X127166666Y-99404761D02*
X127071428Y-99452380D01*
X126880952Y-99452380D01*
X126785714Y-99404761D01*
X126738095Y-99309523D01*
X126738095Y-99261904D01*
X126785714Y-99166666D01*
X126880952Y-99119047D01*
X127023809Y-99119047D01*
X127119047Y-99071428D01*
X127166666Y-98976190D01*
X127166666Y-98928571D01*
X127119047Y-98833333D01*
X127023809Y-98785714D01*
X126880952Y-98785714D01*
X126785714Y-98833333D01*
X126309523Y-99071428D02*
X125547619Y-99071428D01*
X125071428Y-98785714D02*
X125071428Y-99785714D01*
X125071428Y-98833333D02*
X124976190Y-98785714D01*
X124785714Y-98785714D01*
X124690476Y-98833333D01*
X124642857Y-98880952D01*
X124595238Y-98976190D01*
X124595238Y-99261904D01*
X124642857Y-99357142D01*
X124690476Y-99404761D01*
X124785714Y-99452380D01*
X124976190Y-99452380D01*
X125071428Y-99404761D01*
X123738095Y-99404761D02*
X123833333Y-99452380D01*
X124023809Y-99452380D01*
X124119047Y-99404761D01*
X124166666Y-99357142D01*
X124214285Y-99261904D01*
X124214285Y-98976190D01*
X124166666Y-98880952D01*
X124119047Y-98833333D01*
X124023809Y-98785714D01*
X123833333Y-98785714D01*
X123738095Y-98833333D01*
X123309523Y-99452380D02*
X123309523Y-98452380D01*
X123309523Y-98833333D02*
X123214285Y-98785714D01*
X123023809Y-98785714D01*
X122928571Y-98833333D01*
X122880952Y-98880952D01*
X122833333Y-98976190D01*
X122833333Y-99261904D01*
X122880952Y-99357142D01*
X122928571Y-99404761D01*
X123023809Y-99452380D01*
X123214285Y-99452380D01*
X123309523Y-99404761D01*
%LPC*%
D11*
X78000000Y-124477000D03*
X78000000Y-118000000D03*
X84000000Y-118000000D03*
X84000000Y-124477000D03*
X94000000Y-118063000D03*
X94000000Y-124540000D03*
X100000000Y-124540000D03*
X100000000Y-118063000D03*
X110000000Y-118063000D03*
X110000000Y-124540000D03*
X116000000Y-124540000D03*
X116000000Y-118063000D03*
X126000000Y-118063000D03*
X126000000Y-124540000D03*
X132000000Y-124540000D03*
X132000000Y-118063000D03*
D12*
X81000000Y-109000000D03*
G36*
G01*
X77250000Y-114080000D02*
X77250000Y-112560000D01*
G75*
G02*
X77500000Y-112310000I250000J0D01*
G01*
X78500000Y-112310000D01*
G75*
G02*
X78750000Y-112560000I0J-250000D01*
G01*
X78750000Y-114080000D01*
G75*
G02*
X78500000Y-114330000I-250000J0D01*
G01*
X77500000Y-114330000D01*
G75*
G02*
X77250000Y-114080000I0J250000D01*
G01*
G37*
D13*
X81000000Y-113320000D03*
X84000000Y-113320000D03*
X100000000Y-113320000D03*
X97000000Y-113320000D03*
G36*
G01*
X93250000Y-114080000D02*
X93250000Y-112560000D01*
G75*
G02*
X93500000Y-112310000I250000J0D01*
G01*
X94500000Y-112310000D01*
G75*
G02*
X94750000Y-112560000I0J-250000D01*
G01*
X94750000Y-114080000D01*
G75*
G02*
X94500000Y-114330000I-250000J0D01*
G01*
X93500000Y-114330000D01*
G75*
G02*
X93250000Y-114080000I0J250000D01*
G01*
G37*
D12*
X97000000Y-109000000D03*
X113000000Y-109000000D03*
G36*
G01*
X109250000Y-114080000D02*
X109250000Y-112560000D01*
G75*
G02*
X109500000Y-112310000I250000J0D01*
G01*
X110500000Y-112310000D01*
G75*
G02*
X110750000Y-112560000I0J-250000D01*
G01*
X110750000Y-114080000D01*
G75*
G02*
X110500000Y-114330000I-250000J0D01*
G01*
X109500000Y-114330000D01*
G75*
G02*
X109250000Y-114080000I0J250000D01*
G01*
G37*
D13*
X113000000Y-113320000D03*
X116000000Y-113320000D03*
X132000000Y-113320000D03*
X129000000Y-113320000D03*
G36*
G01*
X125250000Y-114080000D02*
X125250000Y-112560000D01*
G75*
G02*
X125500000Y-112310000I250000J0D01*
G01*
X126500000Y-112310000D01*
G75*
G02*
X126750000Y-112560000I0J-250000D01*
G01*
X126750000Y-114080000D01*
G75*
G02*
X126500000Y-114330000I-250000J0D01*
G01*
X125500000Y-114330000D01*
G75*
G02*
X125250000Y-114080000I0J250000D01*
G01*
G37*
D12*
X129000000Y-109000000D03*
D14*
X69000000Y-115000000D03*
X157000000Y-115000000D03*
D15*
X96000000Y-132000000D03*
X94000000Y-132000000D03*
X100000000Y-129000000D03*
X102000000Y-129000000D03*
X112000000Y-132000000D03*
X110000000Y-132000000D03*
X116000000Y-129000000D03*
X118000000Y-129000000D03*
X128000000Y-132000000D03*
X126000000Y-132000000D03*
X132000000Y-129000000D03*
X134000000Y-129000000D03*
X78000000Y-132000000D03*
X80000000Y-132000000D03*
X86000000Y-129000000D03*
X84000000Y-129000000D03*
D11*
X142000000Y-124540000D03*
X142000000Y-118063000D03*
X148000000Y-118063000D03*
X148000000Y-124540000D03*
D12*
X145000000Y-109000000D03*
G36*
G01*
X141250000Y-114080000D02*
X141250000Y-112560000D01*
G75*
G02*
X141500000Y-112310000I250000J0D01*
G01*
X142500000Y-112310000D01*
G75*
G02*
X142750000Y-112560000I0J-250000D01*
G01*
X142750000Y-114080000D01*
G75*
G02*
X142500000Y-114330000I-250000J0D01*
G01*
X141500000Y-114330000D01*
G75*
G02*
X141250000Y-114080000I0J250000D01*
G01*
G37*
D13*
X145000000Y-113320000D03*
X148000000Y-113320000D03*
D15*
X142000000Y-132000000D03*
X144000000Y-132000000D03*
X150000000Y-129000000D03*
X148000000Y-129000000D03*
M02*
