G04 #@! TF.GenerationSoftware,KiCad,Pcbnew,5.1.9+dfsg1-1*
G04 #@! TF.CreationDate,2022-08-21T21:29:47+09:00*
G04 #@! TF.ProjectId,car-fuse-box-smd,6361722d-6675-4736-952d-626f782d736d,rev?*
G04 #@! TF.SameCoordinates,Original*
G04 #@! TF.FileFunction,Legend,Top*
G04 #@! TF.FilePolarity,Positive*
%FSLAX46Y46*%
G04 Gerber Fmt 4.6, Leading zero omitted, Abs format (unit mm)*
G04 Created by KiCad (PCBNEW 5.1.9+dfsg1-1) date 2022-08-21 21:29:47*
%MOMM*%
%LPD*%
G01*
G04 APERTURE LIST*
%ADD10C,0.150000*%
%ADD11C,0.100000*%
%ADD12C,0.120000*%
%ADD13R,3.800000X4.250000*%
%ADD14C,3.000000*%
%ADD15O,1.500000X2.020000*%
%ADD16C,5.600000*%
%ADD17C,1.524000*%
G04 APERTURE END LIST*
D10*
X67214285Y-128357142D02*
X67166666Y-128404761D01*
X67023809Y-128452380D01*
X66928571Y-128452380D01*
X66785714Y-128404761D01*
X66690476Y-128309523D01*
X66642857Y-128214285D01*
X66595238Y-128023809D01*
X66595238Y-127880952D01*
X66642857Y-127690476D01*
X66690476Y-127595238D01*
X66785714Y-127500000D01*
X66928571Y-127452380D01*
X67023809Y-127452380D01*
X67166666Y-127500000D01*
X67214285Y-127547619D01*
X67642857Y-128452380D02*
X67642857Y-127452380D01*
X68071428Y-128452380D02*
X68071428Y-127928571D01*
X68023809Y-127833333D01*
X67928571Y-127785714D01*
X67785714Y-127785714D01*
X67690476Y-127833333D01*
X67642857Y-127880952D01*
X68547619Y-128452380D02*
X68547619Y-127785714D01*
X68547619Y-127452380D02*
X68500000Y-127500000D01*
X68547619Y-127547619D01*
X68595238Y-127500000D01*
X68547619Y-127452380D01*
X68547619Y-127547619D01*
X69023809Y-127785714D02*
X69023809Y-128785714D01*
X69023809Y-127833333D02*
X69119047Y-127785714D01*
X69309523Y-127785714D01*
X69404761Y-127833333D01*
X69452380Y-127880952D01*
X69500000Y-127976190D01*
X69500000Y-128261904D01*
X69452380Y-128357142D01*
X69404761Y-128404761D01*
X69309523Y-128452380D01*
X69119047Y-128452380D01*
X69023809Y-128404761D01*
X70500000Y-128357142D02*
X70452380Y-128404761D01*
X70309523Y-128452380D01*
X70214285Y-128452380D01*
X70071428Y-128404761D01*
X69976190Y-128309523D01*
X69928571Y-128214285D01*
X69880952Y-128023809D01*
X69880952Y-127880952D01*
X69928571Y-127690476D01*
X69976190Y-127595238D01*
X70071428Y-127500000D01*
X70214285Y-127452380D01*
X70309523Y-127452380D01*
X70452380Y-127500000D01*
X70500000Y-127547619D01*
X70928571Y-127928571D02*
X71261904Y-127928571D01*
X71404761Y-128452380D02*
X70928571Y-128452380D01*
X70928571Y-127452380D01*
X71404761Y-127452380D01*
D11*
X152089285Y-131339285D02*
X151839285Y-130982142D01*
X151660714Y-131339285D02*
X151660714Y-130589285D01*
X151946428Y-130589285D01*
X152017857Y-130625000D01*
X152053571Y-130660714D01*
X152089285Y-130732142D01*
X152089285Y-130839285D01*
X152053571Y-130910714D01*
X152017857Y-130946428D01*
X151946428Y-130982142D01*
X151660714Y-130982142D01*
X152696428Y-131303571D02*
X152625000Y-131339285D01*
X152482142Y-131339285D01*
X152410714Y-131303571D01*
X152375000Y-131232142D01*
X152375000Y-130946428D01*
X152410714Y-130875000D01*
X152482142Y-130839285D01*
X152625000Y-130839285D01*
X152696428Y-130875000D01*
X152732142Y-130946428D01*
X152732142Y-131017857D01*
X152375000Y-131089285D01*
X152982142Y-130839285D02*
X153160714Y-131339285D01*
X153339285Y-130839285D01*
X153625000Y-131267857D02*
X153660714Y-131303571D01*
X153625000Y-131339285D01*
X153589285Y-131303571D01*
X153625000Y-131267857D01*
X153625000Y-131339285D01*
X154375000Y-131339285D02*
X153946428Y-131339285D01*
X154160714Y-131339285D02*
X154160714Y-130589285D01*
X154089285Y-130696428D01*
X154017857Y-130767857D01*
X153946428Y-130803571D01*
X158875000Y-128339285D02*
X158803571Y-128303571D01*
X158767857Y-128232142D01*
X158767857Y-127589285D01*
X159160714Y-128339285D02*
X159160714Y-127839285D01*
X159160714Y-127589285D02*
X159125000Y-127625000D01*
X159160714Y-127660714D01*
X159196428Y-127625000D01*
X159160714Y-127589285D01*
X159160714Y-127660714D01*
X159410714Y-127839285D02*
X159696428Y-127839285D01*
X159517857Y-127589285D02*
X159517857Y-128232142D01*
X159553571Y-128303571D01*
X159625000Y-128339285D01*
X159696428Y-128339285D01*
X160232142Y-128303571D02*
X160160714Y-128339285D01*
X160017857Y-128339285D01*
X159946428Y-128303571D01*
X159910714Y-128232142D01*
X159910714Y-127946428D01*
X159946428Y-127875000D01*
X160017857Y-127839285D01*
X160160714Y-127839285D01*
X160232142Y-127875000D01*
X160267857Y-127946428D01*
X160267857Y-128017857D01*
X159910714Y-128089285D01*
D10*
X151809523Y-128928571D02*
X151476190Y-128928571D01*
X151476190Y-129452380D02*
X151476190Y-128452380D01*
X151952380Y-128452380D01*
X152333333Y-128452380D02*
X152333333Y-129261904D01*
X152380952Y-129357142D01*
X152428571Y-129404761D01*
X152523809Y-129452380D01*
X152714285Y-129452380D01*
X152809523Y-129404761D01*
X152857142Y-129357142D01*
X152904761Y-129261904D01*
X152904761Y-128452380D01*
X153333333Y-129404761D02*
X153476190Y-129452380D01*
X153714285Y-129452380D01*
X153809523Y-129404761D01*
X153857142Y-129357142D01*
X153904761Y-129261904D01*
X153904761Y-129166666D01*
X153857142Y-129071428D01*
X153809523Y-129023809D01*
X153714285Y-128976190D01*
X153523809Y-128928571D01*
X153428571Y-128880952D01*
X153380952Y-128833333D01*
X153333333Y-128738095D01*
X153333333Y-128642857D01*
X153380952Y-128547619D01*
X153428571Y-128500000D01*
X153523809Y-128452380D01*
X153761904Y-128452380D01*
X153904761Y-128500000D01*
X154333333Y-128928571D02*
X154666666Y-128928571D01*
X154809523Y-129452380D02*
X154333333Y-129452380D01*
X154333333Y-128452380D01*
X154809523Y-128452380D01*
X156333333Y-128928571D02*
X156476190Y-128976190D01*
X156523809Y-129023809D01*
X156571428Y-129119047D01*
X156571428Y-129261904D01*
X156523809Y-129357142D01*
X156476190Y-129404761D01*
X156380952Y-129452380D01*
X156000000Y-129452380D01*
X156000000Y-128452380D01*
X156333333Y-128452380D01*
X156428571Y-128500000D01*
X156476190Y-128547619D01*
X156523809Y-128642857D01*
X156523809Y-128738095D01*
X156476190Y-128833333D01*
X156428571Y-128880952D01*
X156333333Y-128928571D01*
X156000000Y-128928571D01*
X157190476Y-128452380D02*
X157380952Y-128452380D01*
X157476190Y-128500000D01*
X157571428Y-128595238D01*
X157619047Y-128785714D01*
X157619047Y-129119047D01*
X157571428Y-129309523D01*
X157476190Y-129404761D01*
X157380952Y-129452380D01*
X157190476Y-129452380D01*
X157095238Y-129404761D01*
X157000000Y-129309523D01*
X156952380Y-129119047D01*
X156952380Y-128785714D01*
X157000000Y-128595238D01*
X157095238Y-128500000D01*
X157190476Y-128452380D01*
X157952380Y-128452380D02*
X158619047Y-129452380D01*
X158619047Y-128452380D02*
X157952380Y-129452380D01*
X151928571Y-122714285D02*
X151976190Y-122571428D01*
X152023809Y-122523809D01*
X152119047Y-122476190D01*
X152261904Y-122476190D01*
X152357142Y-122523809D01*
X152404761Y-122571428D01*
X152452380Y-122666666D01*
X152452380Y-123047619D01*
X151452380Y-123047619D01*
X151452380Y-122714285D01*
X151500000Y-122619047D01*
X151547619Y-122571428D01*
X151642857Y-122523809D01*
X151738095Y-122523809D01*
X151833333Y-122571428D01*
X151880952Y-122619047D01*
X151928571Y-122714285D01*
X151928571Y-123047619D01*
X152166666Y-122095238D02*
X152166666Y-121619047D01*
X152452380Y-122190476D02*
X151452380Y-121857142D01*
X152452380Y-121523809D01*
X151452380Y-121333333D02*
X151452380Y-120761904D01*
X152452380Y-121047619D02*
X151452380Y-121047619D01*
X151452380Y-119952380D02*
X151452380Y-120428571D01*
X151928571Y-120476190D01*
X151880952Y-120428571D01*
X151833333Y-120333333D01*
X151833333Y-120095238D01*
X151880952Y-120000000D01*
X151928571Y-119952380D01*
X152023809Y-119904761D01*
X152261904Y-119904761D01*
X152357142Y-119952380D01*
X152404761Y-120000000D01*
X152452380Y-120095238D01*
X152452380Y-120333333D01*
X152404761Y-120428571D01*
X152357142Y-120476190D01*
X138666666Y-123214285D02*
X138666666Y-122738095D01*
X138952380Y-123309523D02*
X137952380Y-122976190D01*
X138952380Y-122642857D01*
X138857142Y-121738095D02*
X138904761Y-121785714D01*
X138952380Y-121928571D01*
X138952380Y-122023809D01*
X138904761Y-122166666D01*
X138809523Y-122261904D01*
X138714285Y-122309523D01*
X138523809Y-122357142D01*
X138380952Y-122357142D01*
X138190476Y-122309523D01*
X138095238Y-122261904D01*
X138000000Y-122166666D01*
X137952380Y-122023809D01*
X137952380Y-121928571D01*
X138000000Y-121785714D01*
X138047619Y-121738095D01*
X138857142Y-120738095D02*
X138904761Y-120785714D01*
X138952380Y-120928571D01*
X138952380Y-121023809D01*
X138904761Y-121166666D01*
X138809523Y-121261904D01*
X138714285Y-121309523D01*
X138523809Y-121357142D01*
X138380952Y-121357142D01*
X138190476Y-121309523D01*
X138095238Y-121261904D01*
X138000000Y-121166666D01*
X137952380Y-121023809D01*
X137952380Y-120928571D01*
X138000000Y-120785714D01*
X138047619Y-120738095D01*
X137952380Y-119833333D02*
X137952380Y-120309523D01*
X138428571Y-120357142D01*
X138380952Y-120309523D01*
X138333333Y-120214285D01*
X138333333Y-119976190D01*
X138380952Y-119880952D01*
X138428571Y-119833333D01*
X138523809Y-119785714D01*
X138761904Y-119785714D01*
X138857142Y-119833333D01*
X138904761Y-119880952D01*
X138952380Y-119976190D01*
X138952380Y-120214285D01*
X138904761Y-120309523D01*
X138857142Y-120357142D01*
X147928571Y-102238095D02*
X147976190Y-102095238D01*
X148023809Y-102047619D01*
X148119047Y-102000000D01*
X148261904Y-102000000D01*
X148357142Y-102047619D01*
X148404761Y-102095238D01*
X148452380Y-102190476D01*
X148452380Y-102571428D01*
X147452380Y-102571428D01*
X147452380Y-102238095D01*
X147500000Y-102142857D01*
X147547619Y-102095238D01*
X147642857Y-102047619D01*
X147738095Y-102047619D01*
X147833333Y-102095238D01*
X147880952Y-102142857D01*
X147928571Y-102238095D01*
X147928571Y-102571428D01*
X148166666Y-101619047D02*
X148166666Y-101142857D01*
X148452380Y-101714285D02*
X147452380Y-101380952D01*
X148452380Y-101047619D01*
X147452380Y-100857142D02*
X147452380Y-100285714D01*
X148452380Y-100571428D02*
X147452380Y-100571428D01*
X144166666Y-102738095D02*
X144166666Y-102261904D01*
X144452380Y-102833333D02*
X143452380Y-102500000D01*
X144452380Y-102166666D01*
X144357142Y-101261904D02*
X144404761Y-101309523D01*
X144452380Y-101452380D01*
X144452380Y-101547619D01*
X144404761Y-101690476D01*
X144309523Y-101785714D01*
X144214285Y-101833333D01*
X144023809Y-101880952D01*
X143880952Y-101880952D01*
X143690476Y-101833333D01*
X143595238Y-101785714D01*
X143500000Y-101690476D01*
X143452380Y-101547619D01*
X143452380Y-101452380D01*
X143500000Y-101309523D01*
X143547619Y-101261904D01*
X144357142Y-100261904D02*
X144404761Y-100309523D01*
X144452380Y-100452380D01*
X144452380Y-100547619D01*
X144404761Y-100690476D01*
X144309523Y-100785714D01*
X144214285Y-100833333D01*
X144023809Y-100880952D01*
X143880952Y-100880952D01*
X143690476Y-100833333D01*
X143595238Y-100785714D01*
X143500000Y-100690476D01*
X143452380Y-100547619D01*
X143452380Y-100452380D01*
X143500000Y-100309523D01*
X143547619Y-100261904D01*
X139500000Y-102261904D02*
X139452380Y-102357142D01*
X139452380Y-102500000D01*
X139500000Y-102642857D01*
X139595238Y-102738095D01*
X139690476Y-102785714D01*
X139880952Y-102833333D01*
X140023809Y-102833333D01*
X140214285Y-102785714D01*
X140309523Y-102738095D01*
X140404761Y-102642857D01*
X140452380Y-102500000D01*
X140452380Y-102404761D01*
X140404761Y-102261904D01*
X140357142Y-102214285D01*
X140023809Y-102214285D01*
X140023809Y-102404761D01*
X140452380Y-101785714D02*
X139452380Y-101785714D01*
X140452380Y-101214285D01*
X139452380Y-101214285D01*
X140452380Y-100738095D02*
X139452380Y-100738095D01*
X139452380Y-100500000D01*
X139500000Y-100357142D01*
X139595238Y-100261904D01*
X139690476Y-100214285D01*
X139880952Y-100166666D01*
X140023809Y-100166666D01*
X140214285Y-100214285D01*
X140309523Y-100261904D01*
X140404761Y-100357142D01*
X140452380Y-100500000D01*
X140452380Y-100738095D01*
D11*
G36*
X149000000Y-98000000D02*
G01*
X147000000Y-98000000D01*
X148000000Y-97000000D01*
X149000000Y-98000000D01*
G37*
X149000000Y-98000000D02*
X147000000Y-98000000D01*
X148000000Y-97000000D01*
X149000000Y-98000000D01*
G36*
X145000000Y-98000000D02*
G01*
X143000000Y-98000000D01*
X144000000Y-97000000D01*
X145000000Y-98000000D01*
G37*
X145000000Y-98000000D02*
X143000000Y-98000000D01*
X144000000Y-97000000D01*
X145000000Y-98000000D01*
G36*
X141000000Y-98000000D02*
G01*
X139000000Y-98000000D01*
X140000000Y-97000000D01*
X141000000Y-98000000D01*
G37*
X141000000Y-98000000D02*
X139000000Y-98000000D01*
X140000000Y-97000000D01*
X141000000Y-98000000D01*
D10*
X135928571Y-123214285D02*
X135976190Y-123071428D01*
X136023809Y-123023809D01*
X136119047Y-122976190D01*
X136261904Y-122976190D01*
X136357142Y-123023809D01*
X136404761Y-123071428D01*
X136452380Y-123166666D01*
X136452380Y-123547619D01*
X135452380Y-123547619D01*
X135452380Y-123214285D01*
X135500000Y-123119047D01*
X135547619Y-123071428D01*
X135642857Y-123023809D01*
X135738095Y-123023809D01*
X135833333Y-123071428D01*
X135880952Y-123119047D01*
X135928571Y-123214285D01*
X135928571Y-123547619D01*
X136166666Y-122595238D02*
X136166666Y-122119047D01*
X136452380Y-122690476D02*
X135452380Y-122357142D01*
X136452380Y-122023809D01*
X135452380Y-121833333D02*
X135452380Y-121261904D01*
X136452380Y-121547619D02*
X135452380Y-121547619D01*
X135785714Y-120500000D02*
X136452380Y-120500000D01*
X135404761Y-120738095D02*
X136119047Y-120976190D01*
X136119047Y-120357142D01*
X119928571Y-123214285D02*
X119976190Y-123071428D01*
X120023809Y-123023809D01*
X120119047Y-122976190D01*
X120261904Y-122976190D01*
X120357142Y-123023809D01*
X120404761Y-123071428D01*
X120452380Y-123166666D01*
X120452380Y-123547619D01*
X119452380Y-123547619D01*
X119452380Y-123214285D01*
X119500000Y-123119047D01*
X119547619Y-123071428D01*
X119642857Y-123023809D01*
X119738095Y-123023809D01*
X119833333Y-123071428D01*
X119880952Y-123119047D01*
X119928571Y-123214285D01*
X119928571Y-123547619D01*
X120166666Y-122595238D02*
X120166666Y-122119047D01*
X120452380Y-122690476D02*
X119452380Y-122357142D01*
X120452380Y-122023809D01*
X119452380Y-121833333D02*
X119452380Y-121261904D01*
X120452380Y-121547619D02*
X119452380Y-121547619D01*
X119452380Y-121023809D02*
X119452380Y-120404761D01*
X119833333Y-120738095D01*
X119833333Y-120595238D01*
X119880952Y-120500000D01*
X119928571Y-120452380D01*
X120023809Y-120404761D01*
X120261904Y-120404761D01*
X120357142Y-120452380D01*
X120404761Y-120500000D01*
X120452380Y-120595238D01*
X120452380Y-120880952D01*
X120404761Y-120976190D01*
X120357142Y-121023809D01*
X103928571Y-123214285D02*
X103976190Y-123071428D01*
X104023809Y-123023809D01*
X104119047Y-122976190D01*
X104261904Y-122976190D01*
X104357142Y-123023809D01*
X104404761Y-123071428D01*
X104452380Y-123166666D01*
X104452380Y-123547619D01*
X103452380Y-123547619D01*
X103452380Y-123214285D01*
X103500000Y-123119047D01*
X103547619Y-123071428D01*
X103642857Y-123023809D01*
X103738095Y-123023809D01*
X103833333Y-123071428D01*
X103880952Y-123119047D01*
X103928571Y-123214285D01*
X103928571Y-123547619D01*
X104166666Y-122595238D02*
X104166666Y-122119047D01*
X104452380Y-122690476D02*
X103452380Y-122357142D01*
X104452380Y-122023809D01*
X103452380Y-121833333D02*
X103452380Y-121261904D01*
X104452380Y-121547619D02*
X103452380Y-121547619D01*
X103547619Y-120976190D02*
X103500000Y-120928571D01*
X103452380Y-120833333D01*
X103452380Y-120595238D01*
X103500000Y-120500000D01*
X103547619Y-120452380D01*
X103642857Y-120404761D01*
X103738095Y-120404761D01*
X103880952Y-120452380D01*
X104452380Y-121023809D01*
X104452380Y-120404761D01*
X122666666Y-123214285D02*
X122666666Y-122738095D01*
X122952380Y-123309523D02*
X121952380Y-122976190D01*
X122952380Y-122642857D01*
X122857142Y-121738095D02*
X122904761Y-121785714D01*
X122952380Y-121928571D01*
X122952380Y-122023809D01*
X122904761Y-122166666D01*
X122809523Y-122261904D01*
X122714285Y-122309523D01*
X122523809Y-122357142D01*
X122380952Y-122357142D01*
X122190476Y-122309523D01*
X122095238Y-122261904D01*
X122000000Y-122166666D01*
X121952380Y-122023809D01*
X121952380Y-121928571D01*
X122000000Y-121785714D01*
X122047619Y-121738095D01*
X122857142Y-120738095D02*
X122904761Y-120785714D01*
X122952380Y-120928571D01*
X122952380Y-121023809D01*
X122904761Y-121166666D01*
X122809523Y-121261904D01*
X122714285Y-121309523D01*
X122523809Y-121357142D01*
X122380952Y-121357142D01*
X122190476Y-121309523D01*
X122095238Y-121261904D01*
X122000000Y-121166666D01*
X121952380Y-121023809D01*
X121952380Y-120928571D01*
X122000000Y-120785714D01*
X122047619Y-120738095D01*
X122285714Y-119880952D02*
X122952380Y-119880952D01*
X121904761Y-120119047D02*
X122619047Y-120357142D01*
X122619047Y-119738095D01*
X106666666Y-123214285D02*
X106666666Y-122738095D01*
X106952380Y-123309523D02*
X105952380Y-122976190D01*
X106952380Y-122642857D01*
X106857142Y-121738095D02*
X106904761Y-121785714D01*
X106952380Y-121928571D01*
X106952380Y-122023809D01*
X106904761Y-122166666D01*
X106809523Y-122261904D01*
X106714285Y-122309523D01*
X106523809Y-122357142D01*
X106380952Y-122357142D01*
X106190476Y-122309523D01*
X106095238Y-122261904D01*
X106000000Y-122166666D01*
X105952380Y-122023809D01*
X105952380Y-121928571D01*
X106000000Y-121785714D01*
X106047619Y-121738095D01*
X106857142Y-120738095D02*
X106904761Y-120785714D01*
X106952380Y-120928571D01*
X106952380Y-121023809D01*
X106904761Y-121166666D01*
X106809523Y-121261904D01*
X106714285Y-121309523D01*
X106523809Y-121357142D01*
X106380952Y-121357142D01*
X106190476Y-121309523D01*
X106095238Y-121261904D01*
X106000000Y-121166666D01*
X105952380Y-121023809D01*
X105952380Y-120928571D01*
X106000000Y-120785714D01*
X106047619Y-120738095D01*
X105952380Y-120404761D02*
X105952380Y-119785714D01*
X106333333Y-120119047D01*
X106333333Y-119976190D01*
X106380952Y-119880952D01*
X106428571Y-119833333D01*
X106523809Y-119785714D01*
X106761904Y-119785714D01*
X106857142Y-119833333D01*
X106904761Y-119880952D01*
X106952380Y-119976190D01*
X106952380Y-120261904D01*
X106904761Y-120357142D01*
X106857142Y-120404761D01*
X90666666Y-123214285D02*
X90666666Y-122738095D01*
X90952380Y-123309523D02*
X89952380Y-122976190D01*
X90952380Y-122642857D01*
X90857142Y-121738095D02*
X90904761Y-121785714D01*
X90952380Y-121928571D01*
X90952380Y-122023809D01*
X90904761Y-122166666D01*
X90809523Y-122261904D01*
X90714285Y-122309523D01*
X90523809Y-122357142D01*
X90380952Y-122357142D01*
X90190476Y-122309523D01*
X90095238Y-122261904D01*
X90000000Y-122166666D01*
X89952380Y-122023809D01*
X89952380Y-121928571D01*
X90000000Y-121785714D01*
X90047619Y-121738095D01*
X90857142Y-120738095D02*
X90904761Y-120785714D01*
X90952380Y-120928571D01*
X90952380Y-121023809D01*
X90904761Y-121166666D01*
X90809523Y-121261904D01*
X90714285Y-121309523D01*
X90523809Y-121357142D01*
X90380952Y-121357142D01*
X90190476Y-121309523D01*
X90095238Y-121261904D01*
X90000000Y-121166666D01*
X89952380Y-121023809D01*
X89952380Y-120928571D01*
X90000000Y-120785714D01*
X90047619Y-120738095D01*
X90047619Y-120357142D02*
X90000000Y-120309523D01*
X89952380Y-120214285D01*
X89952380Y-119976190D01*
X90000000Y-119880952D01*
X90047619Y-119833333D01*
X90142857Y-119785714D01*
X90238095Y-119785714D01*
X90380952Y-119833333D01*
X90952380Y-120404761D01*
X90952380Y-119785714D01*
X87928571Y-123023809D02*
X87976190Y-122880952D01*
X88023809Y-122833333D01*
X88119047Y-122785714D01*
X88261904Y-122785714D01*
X88357142Y-122833333D01*
X88404761Y-122880952D01*
X88452380Y-122976190D01*
X88452380Y-123357142D01*
X87452380Y-123357142D01*
X87452380Y-123023809D01*
X87500000Y-122928571D01*
X87547619Y-122880952D01*
X87642857Y-122833333D01*
X87738095Y-122833333D01*
X87833333Y-122880952D01*
X87880952Y-122928571D01*
X87928571Y-123023809D01*
X87928571Y-123357142D01*
X88166666Y-122404761D02*
X88166666Y-121928571D01*
X88452380Y-122500000D02*
X87452380Y-122166666D01*
X88452380Y-121833333D01*
X87452380Y-121642857D02*
X87452380Y-121071428D01*
X88452380Y-121357142D02*
X87452380Y-121357142D01*
X88452380Y-120214285D02*
X88452380Y-120785714D01*
X88452380Y-120500000D02*
X87452380Y-120500000D01*
X87595238Y-120595238D01*
X87690476Y-120690476D01*
X87738095Y-120785714D01*
X88833333Y-118738095D02*
X88785714Y-118785714D01*
X88642857Y-118880952D01*
X88547619Y-118928571D01*
X88404761Y-118976190D01*
X88166666Y-119023809D01*
X87976190Y-119023809D01*
X87738095Y-118976190D01*
X87595238Y-118928571D01*
X87500000Y-118880952D01*
X87357142Y-118785714D01*
X87309523Y-118738095D01*
X88452380Y-118357142D02*
X87452380Y-118357142D01*
X88452380Y-117880952D02*
X87452380Y-117880952D01*
X88452380Y-117309523D01*
X87452380Y-117309523D01*
X88833333Y-116928571D02*
X88785714Y-116880952D01*
X88642857Y-116785714D01*
X88547619Y-116738095D01*
X88404761Y-116690476D01*
X88166666Y-116642857D01*
X87976190Y-116642857D01*
X87738095Y-116690476D01*
X87595238Y-116738095D01*
X87500000Y-116785714D01*
X87357142Y-116880952D01*
X87309523Y-116928571D01*
X74666666Y-123023809D02*
X74666666Y-122547619D01*
X74952380Y-123119047D02*
X73952380Y-122785714D01*
X74952380Y-122452380D01*
X74857142Y-121547619D02*
X74904761Y-121595238D01*
X74952380Y-121738095D01*
X74952380Y-121833333D01*
X74904761Y-121976190D01*
X74809523Y-122071428D01*
X74714285Y-122119047D01*
X74523809Y-122166666D01*
X74380952Y-122166666D01*
X74190476Y-122119047D01*
X74095238Y-122071428D01*
X74000000Y-121976190D01*
X73952380Y-121833333D01*
X73952380Y-121738095D01*
X74000000Y-121595238D01*
X74047619Y-121547619D01*
X74857142Y-120547619D02*
X74904761Y-120595238D01*
X74952380Y-120738095D01*
X74952380Y-120833333D01*
X74904761Y-120976190D01*
X74809523Y-121071428D01*
X74714285Y-121119047D01*
X74523809Y-121166666D01*
X74380952Y-121166666D01*
X74190476Y-121119047D01*
X74095238Y-121071428D01*
X74000000Y-120976190D01*
X73952380Y-120833333D01*
X73952380Y-120738095D01*
X74000000Y-120595238D01*
X74047619Y-120547619D01*
X74952380Y-119595238D02*
X74952380Y-120166666D01*
X74952380Y-119880952D02*
X73952380Y-119880952D01*
X74095238Y-119976190D01*
X74190476Y-120071428D01*
X74238095Y-120166666D01*
X75333333Y-118119047D02*
X75285714Y-118166666D01*
X75142857Y-118261904D01*
X75047619Y-118309523D01*
X74904761Y-118357142D01*
X74666666Y-118404761D01*
X74476190Y-118404761D01*
X74238095Y-118357142D01*
X74095238Y-118309523D01*
X74000000Y-118261904D01*
X73857142Y-118166666D01*
X73809523Y-118119047D01*
X74952380Y-117738095D02*
X73952380Y-117738095D01*
X74952380Y-117261904D02*
X73952380Y-117261904D01*
X74952380Y-116690476D01*
X73952380Y-116690476D01*
X75333333Y-116309523D02*
X75285714Y-116261904D01*
X75142857Y-116166666D01*
X75047619Y-116119047D01*
X74904761Y-116071428D01*
X74666666Y-116023809D01*
X74476190Y-116023809D01*
X74238095Y-116071428D01*
X74095238Y-116119047D01*
X74000000Y-116166666D01*
X73857142Y-116261904D01*
X73809523Y-116309523D01*
X132928571Y-102238095D02*
X132976190Y-102095238D01*
X133023809Y-102047619D01*
X133119047Y-102000000D01*
X133261904Y-102000000D01*
X133357142Y-102047619D01*
X133404761Y-102095238D01*
X133452380Y-102190476D01*
X133452380Y-102571428D01*
X132452380Y-102571428D01*
X132452380Y-102238095D01*
X132500000Y-102142857D01*
X132547619Y-102095238D01*
X132642857Y-102047619D01*
X132738095Y-102047619D01*
X132833333Y-102095238D01*
X132880952Y-102142857D01*
X132928571Y-102238095D01*
X132928571Y-102571428D01*
X133166666Y-101619047D02*
X133166666Y-101142857D01*
X133452380Y-101714285D02*
X132452380Y-101380952D01*
X133452380Y-101047619D01*
X132452380Y-100857142D02*
X132452380Y-100285714D01*
X133452380Y-100571428D02*
X132452380Y-100571428D01*
X116928571Y-102238095D02*
X116976190Y-102095238D01*
X117023809Y-102047619D01*
X117119047Y-102000000D01*
X117261904Y-102000000D01*
X117357142Y-102047619D01*
X117404761Y-102095238D01*
X117452380Y-102190476D01*
X117452380Y-102571428D01*
X116452380Y-102571428D01*
X116452380Y-102238095D01*
X116500000Y-102142857D01*
X116547619Y-102095238D01*
X116642857Y-102047619D01*
X116738095Y-102047619D01*
X116833333Y-102095238D01*
X116880952Y-102142857D01*
X116928571Y-102238095D01*
X116928571Y-102571428D01*
X117166666Y-101619047D02*
X117166666Y-101142857D01*
X117452380Y-101714285D02*
X116452380Y-101380952D01*
X117452380Y-101047619D01*
X116452380Y-100857142D02*
X116452380Y-100285714D01*
X117452380Y-100571428D02*
X116452380Y-100571428D01*
X100928571Y-102238095D02*
X100976190Y-102095238D01*
X101023809Y-102047619D01*
X101119047Y-102000000D01*
X101261904Y-102000000D01*
X101357142Y-102047619D01*
X101404761Y-102095238D01*
X101452380Y-102190476D01*
X101452380Y-102571428D01*
X100452380Y-102571428D01*
X100452380Y-102238095D01*
X100500000Y-102142857D01*
X100547619Y-102095238D01*
X100642857Y-102047619D01*
X100738095Y-102047619D01*
X100833333Y-102095238D01*
X100880952Y-102142857D01*
X100928571Y-102238095D01*
X100928571Y-102571428D01*
X101166666Y-101619047D02*
X101166666Y-101142857D01*
X101452380Y-101714285D02*
X100452380Y-101380952D01*
X101452380Y-101047619D01*
X100452380Y-100857142D02*
X100452380Y-100285714D01*
X101452380Y-100571428D02*
X100452380Y-100571428D01*
X129166666Y-102738095D02*
X129166666Y-102261904D01*
X129452380Y-102833333D02*
X128452380Y-102500000D01*
X129452380Y-102166666D01*
X129357142Y-101261904D02*
X129404761Y-101309523D01*
X129452380Y-101452380D01*
X129452380Y-101547619D01*
X129404761Y-101690476D01*
X129309523Y-101785714D01*
X129214285Y-101833333D01*
X129023809Y-101880952D01*
X128880952Y-101880952D01*
X128690476Y-101833333D01*
X128595238Y-101785714D01*
X128500000Y-101690476D01*
X128452380Y-101547619D01*
X128452380Y-101452380D01*
X128500000Y-101309523D01*
X128547619Y-101261904D01*
X129357142Y-100261904D02*
X129404761Y-100309523D01*
X129452380Y-100452380D01*
X129452380Y-100547619D01*
X129404761Y-100690476D01*
X129309523Y-100785714D01*
X129214285Y-100833333D01*
X129023809Y-100880952D01*
X128880952Y-100880952D01*
X128690476Y-100833333D01*
X128595238Y-100785714D01*
X128500000Y-100690476D01*
X128452380Y-100547619D01*
X128452380Y-100452380D01*
X128500000Y-100309523D01*
X128547619Y-100261904D01*
X113166666Y-102738095D02*
X113166666Y-102261904D01*
X113452380Y-102833333D02*
X112452380Y-102500000D01*
X113452380Y-102166666D01*
X113357142Y-101261904D02*
X113404761Y-101309523D01*
X113452380Y-101452380D01*
X113452380Y-101547619D01*
X113404761Y-101690476D01*
X113309523Y-101785714D01*
X113214285Y-101833333D01*
X113023809Y-101880952D01*
X112880952Y-101880952D01*
X112690476Y-101833333D01*
X112595238Y-101785714D01*
X112500000Y-101690476D01*
X112452380Y-101547619D01*
X112452380Y-101452380D01*
X112500000Y-101309523D01*
X112547619Y-101261904D01*
X113357142Y-100261904D02*
X113404761Y-100309523D01*
X113452380Y-100452380D01*
X113452380Y-100547619D01*
X113404761Y-100690476D01*
X113309523Y-100785714D01*
X113214285Y-100833333D01*
X113023809Y-100880952D01*
X112880952Y-100880952D01*
X112690476Y-100833333D01*
X112595238Y-100785714D01*
X112500000Y-100690476D01*
X112452380Y-100547619D01*
X112452380Y-100452380D01*
X112500000Y-100309523D01*
X112547619Y-100261904D01*
X97166666Y-102738095D02*
X97166666Y-102261904D01*
X97452380Y-102833333D02*
X96452380Y-102500000D01*
X97452380Y-102166666D01*
X97357142Y-101261904D02*
X97404761Y-101309523D01*
X97452380Y-101452380D01*
X97452380Y-101547619D01*
X97404761Y-101690476D01*
X97309523Y-101785714D01*
X97214285Y-101833333D01*
X97023809Y-101880952D01*
X96880952Y-101880952D01*
X96690476Y-101833333D01*
X96595238Y-101785714D01*
X96500000Y-101690476D01*
X96452380Y-101547619D01*
X96452380Y-101452380D01*
X96500000Y-101309523D01*
X96547619Y-101261904D01*
X97357142Y-100261904D02*
X97404761Y-100309523D01*
X97452380Y-100452380D01*
X97452380Y-100547619D01*
X97404761Y-100690476D01*
X97309523Y-100785714D01*
X97214285Y-100833333D01*
X97023809Y-100880952D01*
X96880952Y-100880952D01*
X96690476Y-100833333D01*
X96595238Y-100785714D01*
X96500000Y-100690476D01*
X96452380Y-100547619D01*
X96452380Y-100452380D01*
X96500000Y-100309523D01*
X96547619Y-100261904D01*
X124500000Y-102261904D02*
X124452380Y-102357142D01*
X124452380Y-102500000D01*
X124500000Y-102642857D01*
X124595238Y-102738095D01*
X124690476Y-102785714D01*
X124880952Y-102833333D01*
X125023809Y-102833333D01*
X125214285Y-102785714D01*
X125309523Y-102738095D01*
X125404761Y-102642857D01*
X125452380Y-102500000D01*
X125452380Y-102404761D01*
X125404761Y-102261904D01*
X125357142Y-102214285D01*
X125023809Y-102214285D01*
X125023809Y-102404761D01*
X125452380Y-101785714D02*
X124452380Y-101785714D01*
X125452380Y-101214285D01*
X124452380Y-101214285D01*
X125452380Y-100738095D02*
X124452380Y-100738095D01*
X124452380Y-100500000D01*
X124500000Y-100357142D01*
X124595238Y-100261904D01*
X124690476Y-100214285D01*
X124880952Y-100166666D01*
X125023809Y-100166666D01*
X125214285Y-100214285D01*
X125309523Y-100261904D01*
X125404761Y-100357142D01*
X125452380Y-100500000D01*
X125452380Y-100738095D01*
X108500000Y-102261904D02*
X108452380Y-102357142D01*
X108452380Y-102500000D01*
X108500000Y-102642857D01*
X108595238Y-102738095D01*
X108690476Y-102785714D01*
X108880952Y-102833333D01*
X109023809Y-102833333D01*
X109214285Y-102785714D01*
X109309523Y-102738095D01*
X109404761Y-102642857D01*
X109452380Y-102500000D01*
X109452380Y-102404761D01*
X109404761Y-102261904D01*
X109357142Y-102214285D01*
X109023809Y-102214285D01*
X109023809Y-102404761D01*
X109452380Y-101785714D02*
X108452380Y-101785714D01*
X109452380Y-101214285D01*
X108452380Y-101214285D01*
X109452380Y-100738095D02*
X108452380Y-100738095D01*
X108452380Y-100500000D01*
X108500000Y-100357142D01*
X108595238Y-100261904D01*
X108690476Y-100214285D01*
X108880952Y-100166666D01*
X109023809Y-100166666D01*
X109214285Y-100214285D01*
X109309523Y-100261904D01*
X109404761Y-100357142D01*
X109452380Y-100500000D01*
X109452380Y-100738095D01*
X92500000Y-102261904D02*
X92452380Y-102357142D01*
X92452380Y-102500000D01*
X92500000Y-102642857D01*
X92595238Y-102738095D01*
X92690476Y-102785714D01*
X92880952Y-102833333D01*
X93023809Y-102833333D01*
X93214285Y-102785714D01*
X93309523Y-102738095D01*
X93404761Y-102642857D01*
X93452380Y-102500000D01*
X93452380Y-102404761D01*
X93404761Y-102261904D01*
X93357142Y-102214285D01*
X93023809Y-102214285D01*
X93023809Y-102404761D01*
X93452380Y-101785714D02*
X92452380Y-101785714D01*
X93452380Y-101214285D01*
X92452380Y-101214285D01*
X93452380Y-100738095D02*
X92452380Y-100738095D01*
X92452380Y-100500000D01*
X92500000Y-100357142D01*
X92595238Y-100261904D01*
X92690476Y-100214285D01*
X92880952Y-100166666D01*
X93023809Y-100166666D01*
X93214285Y-100214285D01*
X93309523Y-100261904D01*
X93404761Y-100357142D01*
X93452380Y-100500000D01*
X93452380Y-100738095D01*
X84928571Y-99238095D02*
X84976190Y-99095238D01*
X85023809Y-99047619D01*
X85119047Y-99000000D01*
X85261904Y-99000000D01*
X85357142Y-99047619D01*
X85404761Y-99095238D01*
X85452380Y-99190476D01*
X85452380Y-99571428D01*
X84452380Y-99571428D01*
X84452380Y-99238095D01*
X84500000Y-99142857D01*
X84547619Y-99095238D01*
X84642857Y-99047619D01*
X84738095Y-99047619D01*
X84833333Y-99095238D01*
X84880952Y-99142857D01*
X84928571Y-99238095D01*
X84928571Y-99571428D01*
X85166666Y-98619047D02*
X85166666Y-98142857D01*
X85452380Y-98714285D02*
X84452380Y-98380952D01*
X85452380Y-98047619D01*
X84452380Y-97857142D02*
X84452380Y-97285714D01*
X85452380Y-97571428D02*
X84452380Y-97571428D01*
X81166666Y-99738095D02*
X81166666Y-99261904D01*
X81452380Y-99833333D02*
X80452380Y-99500000D01*
X81452380Y-99166666D01*
X81357142Y-98261904D02*
X81404761Y-98309523D01*
X81452380Y-98452380D01*
X81452380Y-98547619D01*
X81404761Y-98690476D01*
X81309523Y-98785714D01*
X81214285Y-98833333D01*
X81023809Y-98880952D01*
X80880952Y-98880952D01*
X80690476Y-98833333D01*
X80595238Y-98785714D01*
X80500000Y-98690476D01*
X80452380Y-98547619D01*
X80452380Y-98452380D01*
X80500000Y-98309523D01*
X80547619Y-98261904D01*
X81357142Y-97261904D02*
X81404761Y-97309523D01*
X81452380Y-97452380D01*
X81452380Y-97547619D01*
X81404761Y-97690476D01*
X81309523Y-97785714D01*
X81214285Y-97833333D01*
X81023809Y-97880952D01*
X80880952Y-97880952D01*
X80690476Y-97833333D01*
X80595238Y-97785714D01*
X80500000Y-97690476D01*
X80452380Y-97547619D01*
X80452380Y-97452380D01*
X80500000Y-97309523D01*
X80547619Y-97261904D01*
X76500000Y-99261904D02*
X76452380Y-99357142D01*
X76452380Y-99500000D01*
X76500000Y-99642857D01*
X76595238Y-99738095D01*
X76690476Y-99785714D01*
X76880952Y-99833333D01*
X77023809Y-99833333D01*
X77214285Y-99785714D01*
X77309523Y-99738095D01*
X77404761Y-99642857D01*
X77452380Y-99500000D01*
X77452380Y-99404761D01*
X77404761Y-99261904D01*
X77357142Y-99214285D01*
X77023809Y-99214285D01*
X77023809Y-99404761D01*
X77452380Y-98785714D02*
X76452380Y-98785714D01*
X77452380Y-98214285D01*
X76452380Y-98214285D01*
X77452380Y-97738095D02*
X76452380Y-97738095D01*
X76452380Y-97500000D01*
X76500000Y-97357142D01*
X76595238Y-97261904D01*
X76690476Y-97214285D01*
X76880952Y-97166666D01*
X77023809Y-97166666D01*
X77214285Y-97214285D01*
X77309523Y-97261904D01*
X77404761Y-97357142D01*
X77452380Y-97500000D01*
X77452380Y-97738095D01*
X89452380Y-110928571D02*
X88452380Y-110928571D01*
X89452380Y-110452380D02*
X88452380Y-110452380D01*
X89452380Y-109880952D01*
X88452380Y-109880952D01*
X89452380Y-109404761D02*
X88452380Y-109404761D01*
X88452380Y-109023809D01*
X88500000Y-108928571D01*
X88547619Y-108880952D01*
X88642857Y-108833333D01*
X88785714Y-108833333D01*
X88880952Y-108880952D01*
X88928571Y-108928571D01*
X88976190Y-109023809D01*
X88976190Y-109404761D01*
X88452380Y-108404761D02*
X89261904Y-108404761D01*
X89357142Y-108357142D01*
X89404761Y-108309523D01*
X89452380Y-108214285D01*
X89452380Y-108023809D01*
X89404761Y-107928571D01*
X89357142Y-107880952D01*
X89261904Y-107833333D01*
X88452380Y-107833333D01*
X88452380Y-107500000D02*
X88452380Y-106928571D01*
X89452380Y-107214285D02*
X88452380Y-107214285D01*
D11*
G36*
X89500000Y-114000000D02*
G01*
X88500000Y-113000000D01*
X89500000Y-112000000D01*
X89500000Y-114000000D01*
G37*
X89500000Y-114000000D02*
X88500000Y-113000000D01*
X89500000Y-112000000D01*
X89500000Y-114000000D01*
G36*
X134000000Y-98000000D02*
G01*
X132000000Y-98000000D01*
X133000000Y-97000000D01*
X134000000Y-98000000D01*
G37*
X134000000Y-98000000D02*
X132000000Y-98000000D01*
X133000000Y-97000000D01*
X134000000Y-98000000D01*
G36*
X130000000Y-98000000D02*
G01*
X128000000Y-98000000D01*
X129000000Y-97000000D01*
X130000000Y-98000000D01*
G37*
X130000000Y-98000000D02*
X128000000Y-98000000D01*
X129000000Y-97000000D01*
X130000000Y-98000000D01*
G36*
X126000000Y-98000000D02*
G01*
X124000000Y-98000000D01*
X125000000Y-97000000D01*
X126000000Y-98000000D01*
G37*
X126000000Y-98000000D02*
X124000000Y-98000000D01*
X125000000Y-97000000D01*
X126000000Y-98000000D01*
G36*
X118000000Y-98000000D02*
G01*
X116000000Y-98000000D01*
X117000000Y-97000000D01*
X118000000Y-98000000D01*
G37*
X118000000Y-98000000D02*
X116000000Y-98000000D01*
X117000000Y-97000000D01*
X118000000Y-98000000D01*
G36*
X114000000Y-98000000D02*
G01*
X112000000Y-98000000D01*
X113000000Y-97000000D01*
X114000000Y-98000000D01*
G37*
X114000000Y-98000000D02*
X112000000Y-98000000D01*
X113000000Y-97000000D01*
X114000000Y-98000000D01*
G36*
X110000000Y-98000000D02*
G01*
X108000000Y-98000000D01*
X109000000Y-97000000D01*
X110000000Y-98000000D01*
G37*
X110000000Y-98000000D02*
X108000000Y-98000000D01*
X109000000Y-97000000D01*
X110000000Y-98000000D01*
G36*
X102000000Y-98000000D02*
G01*
X100000000Y-98000000D01*
X101000000Y-97000000D01*
X102000000Y-98000000D01*
G37*
X102000000Y-98000000D02*
X100000000Y-98000000D01*
X101000000Y-97000000D01*
X102000000Y-98000000D01*
G36*
X98000000Y-98000000D02*
G01*
X96000000Y-98000000D01*
X97000000Y-97000000D01*
X98000000Y-98000000D01*
G37*
X98000000Y-98000000D02*
X96000000Y-98000000D01*
X97000000Y-97000000D01*
X98000000Y-98000000D01*
G36*
X94000000Y-98000000D02*
G01*
X92000000Y-98000000D01*
X93000000Y-97000000D01*
X94000000Y-98000000D01*
G37*
X94000000Y-98000000D02*
X92000000Y-98000000D01*
X93000000Y-97000000D01*
X94000000Y-98000000D01*
G36*
X85000000Y-103000000D02*
G01*
X84000000Y-102000000D01*
X86000000Y-102000000D01*
X85000000Y-103000000D01*
G37*
X85000000Y-103000000D02*
X84000000Y-102000000D01*
X86000000Y-102000000D01*
X85000000Y-103000000D01*
G36*
X81000000Y-103000000D02*
G01*
X80000000Y-102000000D01*
X82000000Y-102000000D01*
X81000000Y-103000000D01*
G37*
X81000000Y-103000000D02*
X80000000Y-102000000D01*
X82000000Y-102000000D01*
X81000000Y-103000000D01*
G36*
X77000000Y-103000000D02*
G01*
X76000000Y-102000000D01*
X78000000Y-102000000D01*
X77000000Y-103000000D01*
G37*
X77000000Y-103000000D02*
X76000000Y-102000000D01*
X78000000Y-102000000D01*
X77000000Y-103000000D01*
D12*
X75460000Y-115714000D02*
X80540000Y-115714000D01*
X75460000Y-126763000D02*
X75460000Y-115714000D01*
X80540000Y-126763000D02*
X75460000Y-126763000D01*
X80540000Y-115714000D02*
X80540000Y-126763000D01*
X86540000Y-115714000D02*
X86540000Y-126763000D01*
X86540000Y-126763000D02*
X81460000Y-126763000D01*
X81460000Y-126763000D02*
X81460000Y-115714000D01*
X81460000Y-115714000D02*
X86540000Y-115714000D01*
X96540000Y-115777000D02*
X96540000Y-126826000D01*
X96540000Y-126826000D02*
X91460000Y-126826000D01*
X91460000Y-126826000D02*
X91460000Y-115777000D01*
X91460000Y-115777000D02*
X96540000Y-115777000D01*
X97460000Y-115777000D02*
X102540000Y-115777000D01*
X97460000Y-126826000D02*
X97460000Y-115777000D01*
X102540000Y-126826000D02*
X97460000Y-126826000D01*
X102540000Y-115777000D02*
X102540000Y-126826000D01*
X112540000Y-115777000D02*
X112540000Y-126826000D01*
X112540000Y-126826000D02*
X107460000Y-126826000D01*
X107460000Y-126826000D02*
X107460000Y-115777000D01*
X107460000Y-115777000D02*
X112540000Y-115777000D01*
X113460000Y-115777000D02*
X118540000Y-115777000D01*
X113460000Y-126826000D02*
X113460000Y-115777000D01*
X118540000Y-126826000D02*
X113460000Y-126826000D01*
X118540000Y-115777000D02*
X118540000Y-126826000D01*
X128540000Y-115777000D02*
X128540000Y-126826000D01*
X128540000Y-126826000D02*
X123460000Y-126826000D01*
X123460000Y-126826000D02*
X123460000Y-115777000D01*
X123460000Y-115777000D02*
X128540000Y-115777000D01*
X129460000Y-115777000D02*
X134540000Y-115777000D01*
X129460000Y-126826000D02*
X129460000Y-115777000D01*
X134540000Y-126826000D02*
X129460000Y-126826000D01*
X134540000Y-115777000D02*
X134540000Y-126826000D01*
X81651767Y-114410000D02*
X83348233Y-114410000D01*
X79010000Y-114410000D02*
X80348233Y-114410000D01*
X87435000Y-114410000D02*
X84651767Y-114410000D01*
X74565000Y-114410000D02*
X76990000Y-114410000D01*
X87435000Y-105290000D02*
X87435000Y-114410000D01*
X86435000Y-104290000D02*
X87435000Y-105290000D01*
X75565000Y-104290000D02*
X86435000Y-104290000D01*
X74565000Y-105290000D02*
X75565000Y-104290000D01*
X74565000Y-114410000D02*
X74565000Y-105290000D01*
X90565000Y-114410000D02*
X90565000Y-105290000D01*
X90565000Y-105290000D02*
X91565000Y-104290000D01*
X91565000Y-104290000D02*
X102435000Y-104290000D01*
X102435000Y-104290000D02*
X103435000Y-105290000D01*
X103435000Y-105290000D02*
X103435000Y-114410000D01*
X90565000Y-114410000D02*
X92990000Y-114410000D01*
X103435000Y-114410000D02*
X100651767Y-114410000D01*
X95010000Y-114410000D02*
X96348233Y-114410000D01*
X97651767Y-114410000D02*
X99348233Y-114410000D01*
X113651767Y-114410000D02*
X115348233Y-114410000D01*
X111010000Y-114410000D02*
X112348233Y-114410000D01*
X119435000Y-114410000D02*
X116651767Y-114410000D01*
X106565000Y-114410000D02*
X108990000Y-114410000D01*
X119435000Y-105290000D02*
X119435000Y-114410000D01*
X118435000Y-104290000D02*
X119435000Y-105290000D01*
X107565000Y-104290000D02*
X118435000Y-104290000D01*
X106565000Y-105290000D02*
X107565000Y-104290000D01*
X106565000Y-114410000D02*
X106565000Y-105290000D01*
X122565000Y-114410000D02*
X122565000Y-105290000D01*
X122565000Y-105290000D02*
X123565000Y-104290000D01*
X123565000Y-104290000D02*
X134435000Y-104290000D01*
X134435000Y-104290000D02*
X135435000Y-105290000D01*
X135435000Y-105290000D02*
X135435000Y-114410000D01*
X122565000Y-114410000D02*
X124990000Y-114410000D01*
X135435000Y-114410000D02*
X132651767Y-114410000D01*
X127010000Y-114410000D02*
X128348233Y-114410000D01*
X129651767Y-114410000D02*
X131348233Y-114410000D01*
X139460000Y-115777000D02*
X144540000Y-115777000D01*
X139460000Y-126826000D02*
X139460000Y-115777000D01*
X144540000Y-126826000D02*
X139460000Y-126826000D01*
X144540000Y-115777000D02*
X144540000Y-126826000D01*
X150540000Y-115777000D02*
X150540000Y-126826000D01*
X150540000Y-126826000D02*
X145460000Y-126826000D01*
X145460000Y-126826000D02*
X145460000Y-115777000D01*
X145460000Y-115777000D02*
X150540000Y-115777000D01*
X145651767Y-114410000D02*
X147348233Y-114410000D01*
X143010000Y-114410000D02*
X144348233Y-114410000D01*
X151435000Y-114410000D02*
X148651767Y-114410000D01*
X138565000Y-114410000D02*
X140990000Y-114410000D01*
X151435000Y-105290000D02*
X151435000Y-114410000D01*
X150435000Y-104290000D02*
X151435000Y-105290000D01*
X139565000Y-104290000D02*
X150435000Y-104290000D01*
X138565000Y-105290000D02*
X139565000Y-104290000D01*
X138565000Y-114410000D02*
X138565000Y-105290000D01*
D10*
X74245571Y-126333333D02*
X74245571Y-126666666D01*
X74769380Y-126666666D02*
X73769380Y-126666666D01*
X73769380Y-126190476D01*
X74769380Y-125285714D02*
X74769380Y-125857142D01*
X74769380Y-125571428D02*
X73769380Y-125571428D01*
X73912238Y-125666666D01*
X74007476Y-125761904D01*
X74055095Y-125857142D01*
X87928571Y-126333333D02*
X87928571Y-126666666D01*
X88452380Y-126666666D02*
X87452380Y-126666666D01*
X87452380Y-126190476D01*
X87547619Y-125857142D02*
X87500000Y-125809523D01*
X87452380Y-125714285D01*
X87452380Y-125476190D01*
X87500000Y-125380952D01*
X87547619Y-125333333D01*
X87642857Y-125285714D01*
X87738095Y-125285714D01*
X87880952Y-125333333D01*
X88452380Y-125904761D01*
X88452380Y-125285714D01*
X90245571Y-126333333D02*
X90245571Y-126666666D01*
X90769380Y-126666666D02*
X89769380Y-126666666D01*
X89769380Y-126190476D01*
X89769380Y-125904761D02*
X89769380Y-125285714D01*
X90150333Y-125619047D01*
X90150333Y-125476190D01*
X90197952Y-125380952D01*
X90245571Y-125333333D01*
X90340809Y-125285714D01*
X90578904Y-125285714D01*
X90674142Y-125333333D01*
X90721761Y-125380952D01*
X90769380Y-125476190D01*
X90769380Y-125761904D01*
X90721761Y-125857142D01*
X90674142Y-125904761D01*
X103928571Y-126333333D02*
X103928571Y-126666666D01*
X104452380Y-126666666D02*
X103452380Y-126666666D01*
X103452380Y-126190476D01*
X103785714Y-125380952D02*
X104452380Y-125380952D01*
X103404761Y-125619047D02*
X104119047Y-125857142D01*
X104119047Y-125238095D01*
X106245571Y-126333333D02*
X106245571Y-126666666D01*
X106769380Y-126666666D02*
X105769380Y-126666666D01*
X105769380Y-126190476D01*
X105769380Y-125333333D02*
X105769380Y-125809523D01*
X106245571Y-125857142D01*
X106197952Y-125809523D01*
X106150333Y-125714285D01*
X106150333Y-125476190D01*
X106197952Y-125380952D01*
X106245571Y-125333333D01*
X106340809Y-125285714D01*
X106578904Y-125285714D01*
X106674142Y-125333333D01*
X106721761Y-125380952D01*
X106769380Y-125476190D01*
X106769380Y-125714285D01*
X106721761Y-125809523D01*
X106674142Y-125857142D01*
X119928571Y-126333333D02*
X119928571Y-126666666D01*
X120452380Y-126666666D02*
X119452380Y-126666666D01*
X119452380Y-126190476D01*
X119452380Y-125380952D02*
X119452380Y-125571428D01*
X119500000Y-125666666D01*
X119547619Y-125714285D01*
X119690476Y-125809523D01*
X119880952Y-125857142D01*
X120261904Y-125857142D01*
X120357142Y-125809523D01*
X120404761Y-125761904D01*
X120452380Y-125666666D01*
X120452380Y-125476190D01*
X120404761Y-125380952D01*
X120357142Y-125333333D01*
X120261904Y-125285714D01*
X120023809Y-125285714D01*
X119928571Y-125333333D01*
X119880952Y-125380952D01*
X119833333Y-125476190D01*
X119833333Y-125666666D01*
X119880952Y-125761904D01*
X119928571Y-125809523D01*
X120023809Y-125857142D01*
X122245571Y-126333333D02*
X122245571Y-126666666D01*
X122769380Y-126666666D02*
X121769380Y-126666666D01*
X121769380Y-126190476D01*
X121769380Y-125904761D02*
X121769380Y-125238095D01*
X122769380Y-125666666D01*
X135928571Y-126333333D02*
X135928571Y-126666666D01*
X136452380Y-126666666D02*
X135452380Y-126666666D01*
X135452380Y-126190476D01*
X135880952Y-125666666D02*
X135833333Y-125761904D01*
X135785714Y-125809523D01*
X135690476Y-125857142D01*
X135642857Y-125857142D01*
X135547619Y-125809523D01*
X135500000Y-125761904D01*
X135452380Y-125666666D01*
X135452380Y-125476190D01*
X135500000Y-125380952D01*
X135547619Y-125333333D01*
X135642857Y-125285714D01*
X135690476Y-125285714D01*
X135785714Y-125333333D01*
X135833333Y-125380952D01*
X135880952Y-125476190D01*
X135880952Y-125666666D01*
X135928571Y-125761904D01*
X135976190Y-125809523D01*
X136071428Y-125857142D01*
X136261904Y-125857142D01*
X136357142Y-125809523D01*
X136404761Y-125761904D01*
X136452380Y-125666666D01*
X136452380Y-125476190D01*
X136404761Y-125380952D01*
X136357142Y-125333333D01*
X136261904Y-125285714D01*
X136071428Y-125285714D01*
X135976190Y-125333333D01*
X135928571Y-125380952D01*
X135880952Y-125476190D01*
X76166666Y-104952380D02*
X76166666Y-105666666D01*
X76119047Y-105809523D01*
X76023809Y-105904761D01*
X75880952Y-105952380D01*
X75785714Y-105952380D01*
X77166666Y-105952380D02*
X76595238Y-105952380D01*
X76880952Y-105952380D02*
X76880952Y-104952380D01*
X76785714Y-105095238D01*
X76690476Y-105190476D01*
X76595238Y-105238095D01*
X92166666Y-104952380D02*
X92166666Y-105666666D01*
X92119047Y-105809523D01*
X92023809Y-105904761D01*
X91880952Y-105952380D01*
X91785714Y-105952380D01*
X92595238Y-105047619D02*
X92642857Y-105000000D01*
X92738095Y-104952380D01*
X92976190Y-104952380D01*
X93071428Y-105000000D01*
X93119047Y-105047619D01*
X93166666Y-105142857D01*
X93166666Y-105238095D01*
X93119047Y-105380952D01*
X92547619Y-105952380D01*
X93166666Y-105952380D01*
X108166666Y-104952380D02*
X108166666Y-105666666D01*
X108119047Y-105809523D01*
X108023809Y-105904761D01*
X107880952Y-105952380D01*
X107785714Y-105952380D01*
X108547619Y-104952380D02*
X109166666Y-104952380D01*
X108833333Y-105333333D01*
X108976190Y-105333333D01*
X109071428Y-105380952D01*
X109119047Y-105428571D01*
X109166666Y-105523809D01*
X109166666Y-105761904D01*
X109119047Y-105857142D01*
X109071428Y-105904761D01*
X108976190Y-105952380D01*
X108690476Y-105952380D01*
X108595238Y-105904761D01*
X108547619Y-105857142D01*
X124166666Y-104952380D02*
X124166666Y-105666666D01*
X124119047Y-105809523D01*
X124023809Y-105904761D01*
X123880952Y-105952380D01*
X123785714Y-105952380D01*
X125071428Y-105285714D02*
X125071428Y-105952380D01*
X124833333Y-104904761D02*
X124595238Y-105619047D01*
X125214285Y-105619047D01*
X91666666Y-131452380D02*
X91666666Y-132166666D01*
X91619047Y-132309523D01*
X91523809Y-132404761D01*
X91380952Y-132452380D01*
X91285714Y-132452380D01*
X92047619Y-131452380D02*
X92714285Y-131452380D01*
X92285714Y-132452380D01*
X97666666Y-128452380D02*
X97666666Y-129166666D01*
X97619047Y-129309523D01*
X97523809Y-129404761D01*
X97380952Y-129452380D01*
X97285714Y-129452380D01*
X98285714Y-128880952D02*
X98190476Y-128833333D01*
X98142857Y-128785714D01*
X98095238Y-128690476D01*
X98095238Y-128642857D01*
X98142857Y-128547619D01*
X98190476Y-128500000D01*
X98285714Y-128452380D01*
X98476190Y-128452380D01*
X98571428Y-128500000D01*
X98619047Y-128547619D01*
X98666666Y-128642857D01*
X98666666Y-128690476D01*
X98619047Y-128785714D01*
X98571428Y-128833333D01*
X98476190Y-128880952D01*
X98285714Y-128880952D01*
X98190476Y-128928571D01*
X98142857Y-128976190D01*
X98095238Y-129071428D01*
X98095238Y-129261904D01*
X98142857Y-129357142D01*
X98190476Y-129404761D01*
X98285714Y-129452380D01*
X98476190Y-129452380D01*
X98571428Y-129404761D01*
X98619047Y-129357142D01*
X98666666Y-129261904D01*
X98666666Y-129071428D01*
X98619047Y-128976190D01*
X98571428Y-128928571D01*
X98476190Y-128880952D01*
X107666666Y-131452380D02*
X107666666Y-132166666D01*
X107619047Y-132309523D01*
X107523809Y-132404761D01*
X107380952Y-132452380D01*
X107285714Y-132452380D01*
X108190476Y-132452380D02*
X108380952Y-132452380D01*
X108476190Y-132404761D01*
X108523809Y-132357142D01*
X108619047Y-132214285D01*
X108666666Y-132023809D01*
X108666666Y-131642857D01*
X108619047Y-131547619D01*
X108571428Y-131500000D01*
X108476190Y-131452380D01*
X108285714Y-131452380D01*
X108190476Y-131500000D01*
X108142857Y-131547619D01*
X108095238Y-131642857D01*
X108095238Y-131880952D01*
X108142857Y-131976190D01*
X108190476Y-132023809D01*
X108285714Y-132071428D01*
X108476190Y-132071428D01*
X108571428Y-132023809D01*
X108619047Y-131976190D01*
X108666666Y-131880952D01*
X112190476Y-128452380D02*
X112190476Y-129166666D01*
X112142857Y-129309523D01*
X112047619Y-129404761D01*
X111904761Y-129452380D01*
X111809523Y-129452380D01*
X113190476Y-129452380D02*
X112619047Y-129452380D01*
X112904761Y-129452380D02*
X112904761Y-128452380D01*
X112809523Y-128595238D01*
X112714285Y-128690476D01*
X112619047Y-128738095D01*
X113809523Y-128452380D02*
X113904761Y-128452380D01*
X114000000Y-128500000D01*
X114047619Y-128547619D01*
X114095238Y-128642857D01*
X114142857Y-128833333D01*
X114142857Y-129071428D01*
X114095238Y-129261904D01*
X114047619Y-129357142D01*
X114000000Y-129404761D01*
X113904761Y-129452380D01*
X113809523Y-129452380D01*
X113714285Y-129404761D01*
X113666666Y-129357142D01*
X113619047Y-129261904D01*
X113571428Y-129071428D01*
X113571428Y-128833333D01*
X113619047Y-128642857D01*
X113666666Y-128547619D01*
X113714285Y-128500000D01*
X113809523Y-128452380D01*
X122190476Y-131452380D02*
X122190476Y-132166666D01*
X122142857Y-132309523D01*
X122047619Y-132404761D01*
X121904761Y-132452380D01*
X121809523Y-132452380D01*
X123190476Y-132452380D02*
X122619047Y-132452380D01*
X122904761Y-132452380D02*
X122904761Y-131452380D01*
X122809523Y-131595238D01*
X122714285Y-131690476D01*
X122619047Y-131738095D01*
X124142857Y-132452380D02*
X123571428Y-132452380D01*
X123857142Y-132452380D02*
X123857142Y-131452380D01*
X123761904Y-131595238D01*
X123666666Y-131690476D01*
X123571428Y-131738095D01*
X128190476Y-128452380D02*
X128190476Y-129166666D01*
X128142857Y-129309523D01*
X128047619Y-129404761D01*
X127904761Y-129452380D01*
X127809523Y-129452380D01*
X129190476Y-129452380D02*
X128619047Y-129452380D01*
X128904761Y-129452380D02*
X128904761Y-128452380D01*
X128809523Y-128595238D01*
X128714285Y-128690476D01*
X128619047Y-128738095D01*
X129571428Y-128547619D02*
X129619047Y-128500000D01*
X129714285Y-128452380D01*
X129952380Y-128452380D01*
X130047619Y-128500000D01*
X130095238Y-128547619D01*
X130142857Y-128642857D01*
X130142857Y-128738095D01*
X130095238Y-128880952D01*
X129523809Y-129452380D01*
X130142857Y-129452380D01*
X74190476Y-131452380D02*
X74190476Y-132166666D01*
X74142857Y-132309523D01*
X74047619Y-132404761D01*
X73904761Y-132452380D01*
X73809523Y-132452380D01*
X75190476Y-132452380D02*
X74619047Y-132452380D01*
X74904761Y-132452380D02*
X74904761Y-131452380D01*
X74809523Y-131595238D01*
X74714285Y-131690476D01*
X74619047Y-131738095D01*
X75523809Y-131452380D02*
X76142857Y-131452380D01*
X75809523Y-131833333D01*
X75952380Y-131833333D01*
X76047619Y-131880952D01*
X76095238Y-131928571D01*
X76142857Y-132023809D01*
X76142857Y-132261904D01*
X76095238Y-132357142D01*
X76047619Y-132404761D01*
X75952380Y-132452380D01*
X75666666Y-132452380D01*
X75571428Y-132404761D01*
X75523809Y-132357142D01*
X80190476Y-128452380D02*
X80190476Y-129166666D01*
X80142857Y-129309523D01*
X80047619Y-129404761D01*
X79904761Y-129452380D01*
X79809523Y-129452380D01*
X81190476Y-129452380D02*
X80619047Y-129452380D01*
X80904761Y-129452380D02*
X80904761Y-128452380D01*
X80809523Y-128595238D01*
X80714285Y-128690476D01*
X80619047Y-128738095D01*
X82047619Y-128785714D02*
X82047619Y-129452380D01*
X81809523Y-128404761D02*
X81571428Y-129119047D01*
X82190476Y-129119047D01*
X138245571Y-126333333D02*
X138245571Y-126666666D01*
X138769380Y-126666666D02*
X137769380Y-126666666D01*
X137769380Y-126190476D01*
X138769380Y-125761904D02*
X138769380Y-125571428D01*
X138721761Y-125476190D01*
X138674142Y-125428571D01*
X138531285Y-125333333D01*
X138340809Y-125285714D01*
X137959857Y-125285714D01*
X137864619Y-125333333D01*
X137817000Y-125380952D01*
X137769380Y-125476190D01*
X137769380Y-125666666D01*
X137817000Y-125761904D01*
X137864619Y-125809523D01*
X137959857Y-125857142D01*
X138197952Y-125857142D01*
X138293190Y-125809523D01*
X138340809Y-125761904D01*
X138388428Y-125666666D01*
X138388428Y-125476190D01*
X138340809Y-125380952D01*
X138293190Y-125333333D01*
X138197952Y-125285714D01*
X151928571Y-126309523D02*
X151928571Y-126642857D01*
X152452380Y-126642857D02*
X151452380Y-126642857D01*
X151452380Y-126166666D01*
X152452380Y-125261904D02*
X152452380Y-125833333D01*
X152452380Y-125547619D02*
X151452380Y-125547619D01*
X151595238Y-125642857D01*
X151690476Y-125738095D01*
X151738095Y-125833333D01*
X151452380Y-124642857D02*
X151452380Y-124547619D01*
X151500000Y-124452380D01*
X151547619Y-124404761D01*
X151642857Y-124357142D01*
X151833333Y-124309523D01*
X152071428Y-124309523D01*
X152261904Y-124357142D01*
X152357142Y-124404761D01*
X152404761Y-124452380D01*
X152452380Y-124547619D01*
X152452380Y-124642857D01*
X152404761Y-124738095D01*
X152357142Y-124785714D01*
X152261904Y-124833333D01*
X152071428Y-124880952D01*
X151833333Y-124880952D01*
X151642857Y-124833333D01*
X151547619Y-124785714D01*
X151500000Y-124738095D01*
X151452380Y-124642857D01*
X140190476Y-104952380D02*
X140190476Y-105666666D01*
X140142857Y-105809523D01*
X140047619Y-105904761D01*
X139904761Y-105952380D01*
X139809523Y-105952380D01*
X141190476Y-105952380D02*
X140619047Y-105952380D01*
X140904761Y-105952380D02*
X140904761Y-104952380D01*
X140809523Y-105095238D01*
X140714285Y-105190476D01*
X140619047Y-105238095D01*
X142095238Y-104952380D02*
X141619047Y-104952380D01*
X141571428Y-105428571D01*
X141619047Y-105380952D01*
X141714285Y-105333333D01*
X141952380Y-105333333D01*
X142047619Y-105380952D01*
X142095238Y-105428571D01*
X142142857Y-105523809D01*
X142142857Y-105761904D01*
X142095238Y-105857142D01*
X142047619Y-105904761D01*
X141952380Y-105952380D01*
X141714285Y-105952380D01*
X141619047Y-105904761D01*
X141571428Y-105857142D01*
X138690476Y-131452380D02*
X138690476Y-132166666D01*
X138642857Y-132309523D01*
X138547619Y-132404761D01*
X138404761Y-132452380D01*
X138309523Y-132452380D01*
X139690476Y-132452380D02*
X139119047Y-132452380D01*
X139404761Y-132452380D02*
X139404761Y-131452380D01*
X139309523Y-131595238D01*
X139214285Y-131690476D01*
X139119047Y-131738095D01*
X140547619Y-131452380D02*
X140357142Y-131452380D01*
X140261904Y-131500000D01*
X140214285Y-131547619D01*
X140119047Y-131690476D01*
X140071428Y-131880952D01*
X140071428Y-132261904D01*
X140119047Y-132357142D01*
X140166666Y-132404761D01*
X140261904Y-132452380D01*
X140452380Y-132452380D01*
X140547619Y-132404761D01*
X140595238Y-132357142D01*
X140642857Y-132261904D01*
X140642857Y-132023809D01*
X140595238Y-131928571D01*
X140547619Y-131880952D01*
X140452380Y-131833333D01*
X140261904Y-131833333D01*
X140166666Y-131880952D01*
X140119047Y-131928571D01*
X140071428Y-132023809D01*
X144690476Y-128452380D02*
X144690476Y-129166666D01*
X144642857Y-129309523D01*
X144547619Y-129404761D01*
X144404761Y-129452380D01*
X144309523Y-129452380D01*
X145690476Y-129452380D02*
X145119047Y-129452380D01*
X145404761Y-129452380D02*
X145404761Y-128452380D01*
X145309523Y-128595238D01*
X145214285Y-128690476D01*
X145119047Y-128738095D01*
X146023809Y-128452380D02*
X146690476Y-128452380D01*
X146261904Y-129452380D01*
%LPC*%
D13*
X78000000Y-124477000D03*
X78000000Y-118000000D03*
X84000000Y-118000000D03*
X84000000Y-124477000D03*
X94000000Y-118063000D03*
X94000000Y-124540000D03*
X100000000Y-124540000D03*
X100000000Y-118063000D03*
X110000000Y-118063000D03*
X110000000Y-124540000D03*
X116000000Y-124540000D03*
X116000000Y-118063000D03*
X126000000Y-118063000D03*
X126000000Y-124540000D03*
X132000000Y-124540000D03*
X132000000Y-118063000D03*
D14*
X81000000Y-109000000D03*
G36*
G01*
X77250000Y-114080000D02*
X77250000Y-112560000D01*
G75*
G02*
X77500000Y-112310000I250000J0D01*
G01*
X78500000Y-112310000D01*
G75*
G02*
X78750000Y-112560000I0J-250000D01*
G01*
X78750000Y-114080000D01*
G75*
G02*
X78500000Y-114330000I-250000J0D01*
G01*
X77500000Y-114330000D01*
G75*
G02*
X77250000Y-114080000I0J250000D01*
G01*
G37*
D15*
X81000000Y-113320000D03*
X84000000Y-113320000D03*
X100000000Y-113320000D03*
X97000000Y-113320000D03*
G36*
G01*
X93250000Y-114080000D02*
X93250000Y-112560000D01*
G75*
G02*
X93500000Y-112310000I250000J0D01*
G01*
X94500000Y-112310000D01*
G75*
G02*
X94750000Y-112560000I0J-250000D01*
G01*
X94750000Y-114080000D01*
G75*
G02*
X94500000Y-114330000I-250000J0D01*
G01*
X93500000Y-114330000D01*
G75*
G02*
X93250000Y-114080000I0J250000D01*
G01*
G37*
D14*
X97000000Y-109000000D03*
X113000000Y-109000000D03*
G36*
G01*
X109250000Y-114080000D02*
X109250000Y-112560000D01*
G75*
G02*
X109500000Y-112310000I250000J0D01*
G01*
X110500000Y-112310000D01*
G75*
G02*
X110750000Y-112560000I0J-250000D01*
G01*
X110750000Y-114080000D01*
G75*
G02*
X110500000Y-114330000I-250000J0D01*
G01*
X109500000Y-114330000D01*
G75*
G02*
X109250000Y-114080000I0J250000D01*
G01*
G37*
D15*
X113000000Y-113320000D03*
X116000000Y-113320000D03*
X132000000Y-113320000D03*
X129000000Y-113320000D03*
G36*
G01*
X125250000Y-114080000D02*
X125250000Y-112560000D01*
G75*
G02*
X125500000Y-112310000I250000J0D01*
G01*
X126500000Y-112310000D01*
G75*
G02*
X126750000Y-112560000I0J-250000D01*
G01*
X126750000Y-114080000D01*
G75*
G02*
X126500000Y-114330000I-250000J0D01*
G01*
X125500000Y-114330000D01*
G75*
G02*
X125250000Y-114080000I0J250000D01*
G01*
G37*
D14*
X129000000Y-109000000D03*
D16*
X69000000Y-115000000D03*
X157000000Y-115000000D03*
D17*
X96000000Y-132000000D03*
X94000000Y-132000000D03*
X100000000Y-129000000D03*
X102000000Y-129000000D03*
X112000000Y-132000000D03*
X110000000Y-132000000D03*
X116000000Y-129000000D03*
X118000000Y-129000000D03*
X128000000Y-132000000D03*
X126000000Y-132000000D03*
X132000000Y-129000000D03*
X134000000Y-129000000D03*
X78000000Y-132000000D03*
X80000000Y-132000000D03*
X86000000Y-129000000D03*
X84000000Y-129000000D03*
D13*
X142000000Y-124540000D03*
X142000000Y-118063000D03*
X148000000Y-118063000D03*
X148000000Y-124540000D03*
D14*
X145000000Y-109000000D03*
G36*
G01*
X141250000Y-114080000D02*
X141250000Y-112560000D01*
G75*
G02*
X141500000Y-112310000I250000J0D01*
G01*
X142500000Y-112310000D01*
G75*
G02*
X142750000Y-112560000I0J-250000D01*
G01*
X142750000Y-114080000D01*
G75*
G02*
X142500000Y-114330000I-250000J0D01*
G01*
X141500000Y-114330000D01*
G75*
G02*
X141250000Y-114080000I0J250000D01*
G01*
G37*
D15*
X145000000Y-113320000D03*
X148000000Y-113320000D03*
D17*
X142000000Y-132000000D03*
X144000000Y-132000000D03*
X150000000Y-129000000D03*
X148000000Y-129000000D03*
M02*
