G04 #@! TF.GenerationSoftware,KiCad,Pcbnew,5.1.9+dfsg1-1*
G04 #@! TF.CreationDate,2023-01-27T15:43:24+09:00*
G04 #@! TF.ProjectId,top,746f702e-6b69-4636-9164-5f7063625858,rev?*
G04 #@! TF.SameCoordinates,Original*
G04 #@! TF.FileFunction,Copper,L2,Inr*
G04 #@! TF.FilePolarity,Positive*
%FSLAX46Y46*%
G04 Gerber Fmt 4.6, Leading zero omitted, Abs format (unit mm)*
G04 Created by KiCad (PCBNEW 5.1.9+dfsg1-1) date 2023-01-27 15:43:24*
%MOMM*%
%LPD*%
G01*
G04 APERTURE LIST*
G04 #@! TA.AperFunction,ComponentPad*
%ADD10C,7.000000*%
G04 #@! TD*
G04 #@! TA.AperFunction,ComponentPad*
%ADD11C,6.000000*%
G04 #@! TD*
G04 #@! TA.AperFunction,Conductor*
%ADD12C,0.254000*%
G04 #@! TD*
G04 #@! TA.AperFunction,Conductor*
%ADD13C,0.100000*%
G04 #@! TD*
G04 APERTURE END LIST*
G04 #@! TA.AperFunction,ComponentPad*
G36*
G01*
X116750000Y-96500000D02*
X113250000Y-96500000D01*
G75*
G02*
X112500000Y-95750000I0J750000D01*
G01*
X112500000Y-94250000D01*
G75*
G02*
X113250000Y-93500000I750000J0D01*
G01*
X116750000Y-93500000D01*
G75*
G02*
X117500000Y-94250000I0J-750000D01*
G01*
X117500000Y-95750000D01*
G75*
G02*
X116750000Y-96500000I-750000J0D01*
G01*
G37*
G04 #@! TD.AperFunction*
G04 #@! TA.AperFunction,ComponentPad*
G36*
G01*
X116750000Y-92500000D02*
X113250000Y-92500000D01*
G75*
G02*
X112500000Y-91750000I0J750000D01*
G01*
X112500000Y-90250000D01*
G75*
G02*
X113250000Y-89500000I750000J0D01*
G01*
X116750000Y-89500000D01*
G75*
G02*
X117500000Y-90250000I0J-750000D01*
G01*
X117500000Y-91750000D01*
G75*
G02*
X116750000Y-92500000I-750000J0D01*
G01*
G37*
G04 #@! TD.AperFunction*
D10*
X155000000Y-101000000D03*
X115000000Y-85000000D03*
X115000000Y-101000000D03*
X155000000Y-85000000D03*
D11*
X140500000Y-87500000D03*
X140500000Y-98500000D03*
X129500000Y-98500000D03*
X129500000Y-87500000D03*
X135000000Y-93000000D03*
D12*
X159340001Y-105340000D02*
X110660000Y-105340000D01*
X110660000Y-103914155D01*
X112265450Y-103914155D01*
X112661634Y-104434550D01*
X113376612Y-104824748D01*
X114153976Y-105067964D01*
X114963853Y-105154851D01*
X115775118Y-105082069D01*
X116556597Y-104852415D01*
X117278256Y-104474715D01*
X117338366Y-104434550D01*
X117734550Y-103914155D01*
X152265450Y-103914155D01*
X152661634Y-104434550D01*
X153376612Y-104824748D01*
X154153976Y-105067964D01*
X154963853Y-105154851D01*
X155775118Y-105082069D01*
X156556597Y-104852415D01*
X157278256Y-104474715D01*
X157338366Y-104434550D01*
X157734550Y-103914155D01*
X155000000Y-101179605D01*
X152265450Y-103914155D01*
X117734550Y-103914155D01*
X115000000Y-101179605D01*
X112265450Y-103914155D01*
X110660000Y-103914155D01*
X110660000Y-100963853D01*
X110845149Y-100963853D01*
X110917931Y-101775118D01*
X111147585Y-102556597D01*
X111525285Y-103278256D01*
X111565450Y-103338366D01*
X112085845Y-103734550D01*
X114820395Y-101000000D01*
X115179605Y-101000000D01*
X117914155Y-103734550D01*
X118434550Y-103338366D01*
X118824748Y-102623388D01*
X119067964Y-101846024D01*
X119154851Y-101036147D01*
X119082069Y-100224882D01*
X118852415Y-99443403D01*
X118474715Y-98721744D01*
X118434550Y-98661634D01*
X117914155Y-98265450D01*
X115179605Y-101000000D01*
X114820395Y-101000000D01*
X112085845Y-98265450D01*
X111565450Y-98661634D01*
X111175252Y-99376612D01*
X110932036Y-100153976D01*
X110845149Y-100963853D01*
X110660000Y-100963853D01*
X110660000Y-92500000D01*
X111861928Y-92500000D01*
X111874188Y-92624482D01*
X111910498Y-92744180D01*
X111969463Y-92854494D01*
X112048815Y-92951185D01*
X112145506Y-93030537D01*
X112255820Y-93089502D01*
X112375518Y-93125812D01*
X112435173Y-93131687D01*
X112268485Y-93268485D01*
X112095860Y-93478829D01*
X111967589Y-93718808D01*
X111888599Y-93979201D01*
X111861928Y-94250000D01*
X111861928Y-95750000D01*
X111888599Y-96020799D01*
X111967589Y-96281192D01*
X112095860Y-96521171D01*
X112268485Y-96731515D01*
X112478829Y-96904140D01*
X112718808Y-97032411D01*
X112979201Y-97111401D01*
X113250000Y-97138072D01*
X113475774Y-97138072D01*
X113443403Y-97147585D01*
X112721744Y-97525285D01*
X112661634Y-97565450D01*
X112265450Y-98085845D01*
X115000000Y-100820395D01*
X117678411Y-98141984D01*
X125865000Y-98141984D01*
X125865000Y-98858016D01*
X126004691Y-99560290D01*
X126278705Y-100221818D01*
X126676511Y-100817177D01*
X127182823Y-101323489D01*
X127778182Y-101721295D01*
X128439710Y-101995309D01*
X129141984Y-102135000D01*
X129858016Y-102135000D01*
X130560290Y-101995309D01*
X131221818Y-101721295D01*
X131817177Y-101323489D01*
X132323489Y-100817177D01*
X132721295Y-100221818D01*
X132995309Y-99560290D01*
X133135000Y-98858016D01*
X133135000Y-98141984D01*
X136865000Y-98141984D01*
X136865000Y-98858016D01*
X137004691Y-99560290D01*
X137278705Y-100221818D01*
X137676511Y-100817177D01*
X138182823Y-101323489D01*
X138778182Y-101721295D01*
X139439710Y-101995309D01*
X140141984Y-102135000D01*
X140858016Y-102135000D01*
X141560290Y-101995309D01*
X142221818Y-101721295D01*
X142817177Y-101323489D01*
X143176813Y-100963853D01*
X150845149Y-100963853D01*
X150917931Y-101775118D01*
X151147585Y-102556597D01*
X151525285Y-103278256D01*
X151565450Y-103338366D01*
X152085845Y-103734550D01*
X154820395Y-101000000D01*
X155179605Y-101000000D01*
X157914155Y-103734550D01*
X158434550Y-103338366D01*
X158824748Y-102623388D01*
X159067964Y-101846024D01*
X159154851Y-101036147D01*
X159082069Y-100224882D01*
X158852415Y-99443403D01*
X158474715Y-98721744D01*
X158434550Y-98661634D01*
X157914155Y-98265450D01*
X155179605Y-101000000D01*
X154820395Y-101000000D01*
X152085845Y-98265450D01*
X151565450Y-98661634D01*
X151175252Y-99376612D01*
X150932036Y-100153976D01*
X150845149Y-100963853D01*
X143176813Y-100963853D01*
X143323489Y-100817177D01*
X143721295Y-100221818D01*
X143995309Y-99560290D01*
X144135000Y-98858016D01*
X144135000Y-98141984D01*
X144123834Y-98085845D01*
X152265450Y-98085845D01*
X155000000Y-100820395D01*
X157734550Y-98085845D01*
X157338366Y-97565450D01*
X156623388Y-97175252D01*
X155846024Y-96932036D01*
X155036147Y-96845149D01*
X154224882Y-96917931D01*
X153443403Y-97147585D01*
X152721744Y-97525285D01*
X152661634Y-97565450D01*
X152265450Y-98085845D01*
X144123834Y-98085845D01*
X143995309Y-97439710D01*
X143721295Y-96778182D01*
X143323489Y-96182823D01*
X142817177Y-95676511D01*
X142221818Y-95278705D01*
X141560290Y-95004691D01*
X140858016Y-94865000D01*
X140141984Y-94865000D01*
X139439710Y-95004691D01*
X138778182Y-95278705D01*
X138182823Y-95676511D01*
X137676511Y-96182823D01*
X137278705Y-96778182D01*
X137004691Y-97439710D01*
X136865000Y-98141984D01*
X133135000Y-98141984D01*
X132995309Y-97439710D01*
X132721295Y-96778182D01*
X132323489Y-96182823D01*
X131817177Y-95676511D01*
X131221818Y-95278705D01*
X130560290Y-95004691D01*
X129858016Y-94865000D01*
X129141984Y-94865000D01*
X128439710Y-95004691D01*
X127778182Y-95278705D01*
X127182823Y-95676511D01*
X126676511Y-96182823D01*
X126278705Y-96778182D01*
X126004691Y-97439710D01*
X125865000Y-98141984D01*
X117678411Y-98141984D01*
X117734550Y-98085845D01*
X117338366Y-97565450D01*
X116623388Y-97175252D01*
X116504554Y-97138072D01*
X116750000Y-97138072D01*
X117020799Y-97111401D01*
X117281192Y-97032411D01*
X117521171Y-96904140D01*
X117731515Y-96731515D01*
X117904140Y-96521171D01*
X118032411Y-96281192D01*
X118111401Y-96020799D01*
X118138072Y-95750000D01*
X118138072Y-94250000D01*
X118111401Y-93979201D01*
X118032411Y-93718808D01*
X117904140Y-93478829D01*
X117731515Y-93268485D01*
X117564827Y-93131687D01*
X117624482Y-93125812D01*
X117744180Y-93089502D01*
X117854494Y-93030537D01*
X117951185Y-92951185D01*
X118030537Y-92854494D01*
X118089502Y-92744180D01*
X118120502Y-92641984D01*
X131365000Y-92641984D01*
X131365000Y-93358016D01*
X131504691Y-94060290D01*
X131778705Y-94721818D01*
X132176511Y-95317177D01*
X132682823Y-95823489D01*
X133278182Y-96221295D01*
X133939710Y-96495309D01*
X134641984Y-96635000D01*
X135358016Y-96635000D01*
X136060290Y-96495309D01*
X136721818Y-96221295D01*
X137317177Y-95823489D01*
X137823489Y-95317177D01*
X138221295Y-94721818D01*
X138495309Y-94060290D01*
X138635000Y-93358016D01*
X138635000Y-92641984D01*
X138495309Y-91939710D01*
X138221295Y-91278182D01*
X137823489Y-90682823D01*
X137317177Y-90176511D01*
X136721818Y-89778705D01*
X136060290Y-89504691D01*
X135358016Y-89365000D01*
X134641984Y-89365000D01*
X133939710Y-89504691D01*
X133278182Y-89778705D01*
X132682823Y-90176511D01*
X132176511Y-90682823D01*
X131778705Y-91278182D01*
X131504691Y-91939710D01*
X131365000Y-92641984D01*
X118120502Y-92641984D01*
X118125812Y-92624482D01*
X118138072Y-92500000D01*
X118135000Y-91285750D01*
X117976250Y-91127000D01*
X115127000Y-91127000D01*
X115127000Y-91147000D01*
X114873000Y-91147000D01*
X114873000Y-91127000D01*
X112023750Y-91127000D01*
X111865000Y-91285750D01*
X111861928Y-92500000D01*
X110660000Y-92500000D01*
X110660000Y-89500000D01*
X111861928Y-89500000D01*
X111865000Y-90714250D01*
X112023750Y-90873000D01*
X114873000Y-90873000D01*
X114873000Y-90853000D01*
X115127000Y-90853000D01*
X115127000Y-90873000D01*
X117976250Y-90873000D01*
X118135000Y-90714250D01*
X118138072Y-89500000D01*
X118125812Y-89375518D01*
X118089502Y-89255820D01*
X118030537Y-89145506D01*
X117951185Y-89048815D01*
X117854494Y-88969463D01*
X117744180Y-88910498D01*
X117624482Y-88874188D01*
X117500000Y-88861928D01*
X116519597Y-88863288D01*
X116556597Y-88852415D01*
X117278256Y-88474715D01*
X117338366Y-88434550D01*
X117734550Y-87914155D01*
X115000000Y-85179605D01*
X112265450Y-87914155D01*
X112661634Y-88434550D01*
X113376612Y-88824748D01*
X113499880Y-88863315D01*
X112500000Y-88861928D01*
X112375518Y-88874188D01*
X112255820Y-88910498D01*
X112145506Y-88969463D01*
X112048815Y-89048815D01*
X111969463Y-89145506D01*
X111910498Y-89255820D01*
X111874188Y-89375518D01*
X111861928Y-89500000D01*
X110660000Y-89500000D01*
X110660000Y-84963853D01*
X110845149Y-84963853D01*
X110917931Y-85775118D01*
X111147585Y-86556597D01*
X111525285Y-87278256D01*
X111565450Y-87338366D01*
X112085845Y-87734550D01*
X114820395Y-85000000D01*
X115179605Y-85000000D01*
X117914155Y-87734550D01*
X118434550Y-87338366D01*
X118541725Y-87141984D01*
X125865000Y-87141984D01*
X125865000Y-87858016D01*
X126004691Y-88560290D01*
X126278705Y-89221818D01*
X126676511Y-89817177D01*
X127182823Y-90323489D01*
X127778182Y-90721295D01*
X128439710Y-90995309D01*
X129141984Y-91135000D01*
X129858016Y-91135000D01*
X130560290Y-90995309D01*
X131221818Y-90721295D01*
X131817177Y-90323489D01*
X132323489Y-89817177D01*
X132721295Y-89221818D01*
X132995309Y-88560290D01*
X133135000Y-87858016D01*
X133135000Y-87141984D01*
X136865000Y-87141984D01*
X136865000Y-87858016D01*
X137004691Y-88560290D01*
X137278705Y-89221818D01*
X137676511Y-89817177D01*
X138182823Y-90323489D01*
X138778182Y-90721295D01*
X139439710Y-90995309D01*
X140141984Y-91135000D01*
X140858016Y-91135000D01*
X141560290Y-90995309D01*
X142221818Y-90721295D01*
X142817177Y-90323489D01*
X143323489Y-89817177D01*
X143721295Y-89221818D01*
X143995309Y-88560290D01*
X144123833Y-87914155D01*
X152265450Y-87914155D01*
X152661634Y-88434550D01*
X153376612Y-88824748D01*
X154153976Y-89067964D01*
X154963853Y-89154851D01*
X155775118Y-89082069D01*
X156556597Y-88852415D01*
X157278256Y-88474715D01*
X157338366Y-88434550D01*
X157734550Y-87914155D01*
X155000000Y-85179605D01*
X152265450Y-87914155D01*
X144123833Y-87914155D01*
X144135000Y-87858016D01*
X144135000Y-87141984D01*
X143995309Y-86439710D01*
X143721295Y-85778182D01*
X143323489Y-85182823D01*
X143104519Y-84963853D01*
X150845149Y-84963853D01*
X150917931Y-85775118D01*
X151147585Y-86556597D01*
X151525285Y-87278256D01*
X151565450Y-87338366D01*
X152085845Y-87734550D01*
X154820395Y-85000000D01*
X155179605Y-85000000D01*
X157914155Y-87734550D01*
X158434550Y-87338366D01*
X158824748Y-86623388D01*
X159067964Y-85846024D01*
X159154851Y-85036147D01*
X159082069Y-84224882D01*
X158852415Y-83443403D01*
X158474715Y-82721744D01*
X158434550Y-82661634D01*
X157914155Y-82265450D01*
X155179605Y-85000000D01*
X154820395Y-85000000D01*
X152085845Y-82265450D01*
X151565450Y-82661634D01*
X151175252Y-83376612D01*
X150932036Y-84153976D01*
X150845149Y-84963853D01*
X143104519Y-84963853D01*
X142817177Y-84676511D01*
X142221818Y-84278705D01*
X141560290Y-84004691D01*
X140858016Y-83865000D01*
X140141984Y-83865000D01*
X139439710Y-84004691D01*
X138778182Y-84278705D01*
X138182823Y-84676511D01*
X137676511Y-85182823D01*
X137278705Y-85778182D01*
X137004691Y-86439710D01*
X136865000Y-87141984D01*
X133135000Y-87141984D01*
X132995309Y-86439710D01*
X132721295Y-85778182D01*
X132323489Y-85182823D01*
X131817177Y-84676511D01*
X131221818Y-84278705D01*
X130560290Y-84004691D01*
X129858016Y-83865000D01*
X129141984Y-83865000D01*
X128439710Y-84004691D01*
X127778182Y-84278705D01*
X127182823Y-84676511D01*
X126676511Y-85182823D01*
X126278705Y-85778182D01*
X126004691Y-86439710D01*
X125865000Y-87141984D01*
X118541725Y-87141984D01*
X118824748Y-86623388D01*
X119067964Y-85846024D01*
X119154851Y-85036147D01*
X119082069Y-84224882D01*
X118852415Y-83443403D01*
X118474715Y-82721744D01*
X118434550Y-82661634D01*
X117914155Y-82265450D01*
X115179605Y-85000000D01*
X114820395Y-85000000D01*
X112085845Y-82265450D01*
X111565450Y-82661634D01*
X111175252Y-83376612D01*
X110932036Y-84153976D01*
X110845149Y-84963853D01*
X110660000Y-84963853D01*
X110660000Y-82085845D01*
X112265450Y-82085845D01*
X115000000Y-84820395D01*
X117734550Y-82085845D01*
X152265450Y-82085845D01*
X155000000Y-84820395D01*
X157734550Y-82085845D01*
X157338366Y-81565450D01*
X156623388Y-81175252D01*
X155846024Y-80932036D01*
X155036147Y-80845149D01*
X154224882Y-80917931D01*
X153443403Y-81147585D01*
X152721744Y-81525285D01*
X152661634Y-81565450D01*
X152265450Y-82085845D01*
X117734550Y-82085845D01*
X117338366Y-81565450D01*
X116623388Y-81175252D01*
X115846024Y-80932036D01*
X115036147Y-80845149D01*
X114224882Y-80917931D01*
X113443403Y-81147585D01*
X112721744Y-81525285D01*
X112661634Y-81565450D01*
X112265450Y-82085845D01*
X110660000Y-82085845D01*
X110660000Y-80660000D01*
X159340000Y-80660000D01*
X159340001Y-105340000D01*
G04 #@! TA.AperFunction,Conductor*
D13*
G36*
X159340001Y-105340000D02*
G01*
X110660000Y-105340000D01*
X110660000Y-103914155D01*
X112265450Y-103914155D01*
X112661634Y-104434550D01*
X113376612Y-104824748D01*
X114153976Y-105067964D01*
X114963853Y-105154851D01*
X115775118Y-105082069D01*
X116556597Y-104852415D01*
X117278256Y-104474715D01*
X117338366Y-104434550D01*
X117734550Y-103914155D01*
X152265450Y-103914155D01*
X152661634Y-104434550D01*
X153376612Y-104824748D01*
X154153976Y-105067964D01*
X154963853Y-105154851D01*
X155775118Y-105082069D01*
X156556597Y-104852415D01*
X157278256Y-104474715D01*
X157338366Y-104434550D01*
X157734550Y-103914155D01*
X155000000Y-101179605D01*
X152265450Y-103914155D01*
X117734550Y-103914155D01*
X115000000Y-101179605D01*
X112265450Y-103914155D01*
X110660000Y-103914155D01*
X110660000Y-100963853D01*
X110845149Y-100963853D01*
X110917931Y-101775118D01*
X111147585Y-102556597D01*
X111525285Y-103278256D01*
X111565450Y-103338366D01*
X112085845Y-103734550D01*
X114820395Y-101000000D01*
X115179605Y-101000000D01*
X117914155Y-103734550D01*
X118434550Y-103338366D01*
X118824748Y-102623388D01*
X119067964Y-101846024D01*
X119154851Y-101036147D01*
X119082069Y-100224882D01*
X118852415Y-99443403D01*
X118474715Y-98721744D01*
X118434550Y-98661634D01*
X117914155Y-98265450D01*
X115179605Y-101000000D01*
X114820395Y-101000000D01*
X112085845Y-98265450D01*
X111565450Y-98661634D01*
X111175252Y-99376612D01*
X110932036Y-100153976D01*
X110845149Y-100963853D01*
X110660000Y-100963853D01*
X110660000Y-92500000D01*
X111861928Y-92500000D01*
X111874188Y-92624482D01*
X111910498Y-92744180D01*
X111969463Y-92854494D01*
X112048815Y-92951185D01*
X112145506Y-93030537D01*
X112255820Y-93089502D01*
X112375518Y-93125812D01*
X112435173Y-93131687D01*
X112268485Y-93268485D01*
X112095860Y-93478829D01*
X111967589Y-93718808D01*
X111888599Y-93979201D01*
X111861928Y-94250000D01*
X111861928Y-95750000D01*
X111888599Y-96020799D01*
X111967589Y-96281192D01*
X112095860Y-96521171D01*
X112268485Y-96731515D01*
X112478829Y-96904140D01*
X112718808Y-97032411D01*
X112979201Y-97111401D01*
X113250000Y-97138072D01*
X113475774Y-97138072D01*
X113443403Y-97147585D01*
X112721744Y-97525285D01*
X112661634Y-97565450D01*
X112265450Y-98085845D01*
X115000000Y-100820395D01*
X117678411Y-98141984D01*
X125865000Y-98141984D01*
X125865000Y-98858016D01*
X126004691Y-99560290D01*
X126278705Y-100221818D01*
X126676511Y-100817177D01*
X127182823Y-101323489D01*
X127778182Y-101721295D01*
X128439710Y-101995309D01*
X129141984Y-102135000D01*
X129858016Y-102135000D01*
X130560290Y-101995309D01*
X131221818Y-101721295D01*
X131817177Y-101323489D01*
X132323489Y-100817177D01*
X132721295Y-100221818D01*
X132995309Y-99560290D01*
X133135000Y-98858016D01*
X133135000Y-98141984D01*
X136865000Y-98141984D01*
X136865000Y-98858016D01*
X137004691Y-99560290D01*
X137278705Y-100221818D01*
X137676511Y-100817177D01*
X138182823Y-101323489D01*
X138778182Y-101721295D01*
X139439710Y-101995309D01*
X140141984Y-102135000D01*
X140858016Y-102135000D01*
X141560290Y-101995309D01*
X142221818Y-101721295D01*
X142817177Y-101323489D01*
X143176813Y-100963853D01*
X150845149Y-100963853D01*
X150917931Y-101775118D01*
X151147585Y-102556597D01*
X151525285Y-103278256D01*
X151565450Y-103338366D01*
X152085845Y-103734550D01*
X154820395Y-101000000D01*
X155179605Y-101000000D01*
X157914155Y-103734550D01*
X158434550Y-103338366D01*
X158824748Y-102623388D01*
X159067964Y-101846024D01*
X159154851Y-101036147D01*
X159082069Y-100224882D01*
X158852415Y-99443403D01*
X158474715Y-98721744D01*
X158434550Y-98661634D01*
X157914155Y-98265450D01*
X155179605Y-101000000D01*
X154820395Y-101000000D01*
X152085845Y-98265450D01*
X151565450Y-98661634D01*
X151175252Y-99376612D01*
X150932036Y-100153976D01*
X150845149Y-100963853D01*
X143176813Y-100963853D01*
X143323489Y-100817177D01*
X143721295Y-100221818D01*
X143995309Y-99560290D01*
X144135000Y-98858016D01*
X144135000Y-98141984D01*
X144123834Y-98085845D01*
X152265450Y-98085845D01*
X155000000Y-100820395D01*
X157734550Y-98085845D01*
X157338366Y-97565450D01*
X156623388Y-97175252D01*
X155846024Y-96932036D01*
X155036147Y-96845149D01*
X154224882Y-96917931D01*
X153443403Y-97147585D01*
X152721744Y-97525285D01*
X152661634Y-97565450D01*
X152265450Y-98085845D01*
X144123834Y-98085845D01*
X143995309Y-97439710D01*
X143721295Y-96778182D01*
X143323489Y-96182823D01*
X142817177Y-95676511D01*
X142221818Y-95278705D01*
X141560290Y-95004691D01*
X140858016Y-94865000D01*
X140141984Y-94865000D01*
X139439710Y-95004691D01*
X138778182Y-95278705D01*
X138182823Y-95676511D01*
X137676511Y-96182823D01*
X137278705Y-96778182D01*
X137004691Y-97439710D01*
X136865000Y-98141984D01*
X133135000Y-98141984D01*
X132995309Y-97439710D01*
X132721295Y-96778182D01*
X132323489Y-96182823D01*
X131817177Y-95676511D01*
X131221818Y-95278705D01*
X130560290Y-95004691D01*
X129858016Y-94865000D01*
X129141984Y-94865000D01*
X128439710Y-95004691D01*
X127778182Y-95278705D01*
X127182823Y-95676511D01*
X126676511Y-96182823D01*
X126278705Y-96778182D01*
X126004691Y-97439710D01*
X125865000Y-98141984D01*
X117678411Y-98141984D01*
X117734550Y-98085845D01*
X117338366Y-97565450D01*
X116623388Y-97175252D01*
X116504554Y-97138072D01*
X116750000Y-97138072D01*
X117020799Y-97111401D01*
X117281192Y-97032411D01*
X117521171Y-96904140D01*
X117731515Y-96731515D01*
X117904140Y-96521171D01*
X118032411Y-96281192D01*
X118111401Y-96020799D01*
X118138072Y-95750000D01*
X118138072Y-94250000D01*
X118111401Y-93979201D01*
X118032411Y-93718808D01*
X117904140Y-93478829D01*
X117731515Y-93268485D01*
X117564827Y-93131687D01*
X117624482Y-93125812D01*
X117744180Y-93089502D01*
X117854494Y-93030537D01*
X117951185Y-92951185D01*
X118030537Y-92854494D01*
X118089502Y-92744180D01*
X118120502Y-92641984D01*
X131365000Y-92641984D01*
X131365000Y-93358016D01*
X131504691Y-94060290D01*
X131778705Y-94721818D01*
X132176511Y-95317177D01*
X132682823Y-95823489D01*
X133278182Y-96221295D01*
X133939710Y-96495309D01*
X134641984Y-96635000D01*
X135358016Y-96635000D01*
X136060290Y-96495309D01*
X136721818Y-96221295D01*
X137317177Y-95823489D01*
X137823489Y-95317177D01*
X138221295Y-94721818D01*
X138495309Y-94060290D01*
X138635000Y-93358016D01*
X138635000Y-92641984D01*
X138495309Y-91939710D01*
X138221295Y-91278182D01*
X137823489Y-90682823D01*
X137317177Y-90176511D01*
X136721818Y-89778705D01*
X136060290Y-89504691D01*
X135358016Y-89365000D01*
X134641984Y-89365000D01*
X133939710Y-89504691D01*
X133278182Y-89778705D01*
X132682823Y-90176511D01*
X132176511Y-90682823D01*
X131778705Y-91278182D01*
X131504691Y-91939710D01*
X131365000Y-92641984D01*
X118120502Y-92641984D01*
X118125812Y-92624482D01*
X118138072Y-92500000D01*
X118135000Y-91285750D01*
X117976250Y-91127000D01*
X115127000Y-91127000D01*
X115127000Y-91147000D01*
X114873000Y-91147000D01*
X114873000Y-91127000D01*
X112023750Y-91127000D01*
X111865000Y-91285750D01*
X111861928Y-92500000D01*
X110660000Y-92500000D01*
X110660000Y-89500000D01*
X111861928Y-89500000D01*
X111865000Y-90714250D01*
X112023750Y-90873000D01*
X114873000Y-90873000D01*
X114873000Y-90853000D01*
X115127000Y-90853000D01*
X115127000Y-90873000D01*
X117976250Y-90873000D01*
X118135000Y-90714250D01*
X118138072Y-89500000D01*
X118125812Y-89375518D01*
X118089502Y-89255820D01*
X118030537Y-89145506D01*
X117951185Y-89048815D01*
X117854494Y-88969463D01*
X117744180Y-88910498D01*
X117624482Y-88874188D01*
X117500000Y-88861928D01*
X116519597Y-88863288D01*
X116556597Y-88852415D01*
X117278256Y-88474715D01*
X117338366Y-88434550D01*
X117734550Y-87914155D01*
X115000000Y-85179605D01*
X112265450Y-87914155D01*
X112661634Y-88434550D01*
X113376612Y-88824748D01*
X113499880Y-88863315D01*
X112500000Y-88861928D01*
X112375518Y-88874188D01*
X112255820Y-88910498D01*
X112145506Y-88969463D01*
X112048815Y-89048815D01*
X111969463Y-89145506D01*
X111910498Y-89255820D01*
X111874188Y-89375518D01*
X111861928Y-89500000D01*
X110660000Y-89500000D01*
X110660000Y-84963853D01*
X110845149Y-84963853D01*
X110917931Y-85775118D01*
X111147585Y-86556597D01*
X111525285Y-87278256D01*
X111565450Y-87338366D01*
X112085845Y-87734550D01*
X114820395Y-85000000D01*
X115179605Y-85000000D01*
X117914155Y-87734550D01*
X118434550Y-87338366D01*
X118541725Y-87141984D01*
X125865000Y-87141984D01*
X125865000Y-87858016D01*
X126004691Y-88560290D01*
X126278705Y-89221818D01*
X126676511Y-89817177D01*
X127182823Y-90323489D01*
X127778182Y-90721295D01*
X128439710Y-90995309D01*
X129141984Y-91135000D01*
X129858016Y-91135000D01*
X130560290Y-90995309D01*
X131221818Y-90721295D01*
X131817177Y-90323489D01*
X132323489Y-89817177D01*
X132721295Y-89221818D01*
X132995309Y-88560290D01*
X133135000Y-87858016D01*
X133135000Y-87141984D01*
X136865000Y-87141984D01*
X136865000Y-87858016D01*
X137004691Y-88560290D01*
X137278705Y-89221818D01*
X137676511Y-89817177D01*
X138182823Y-90323489D01*
X138778182Y-90721295D01*
X139439710Y-90995309D01*
X140141984Y-91135000D01*
X140858016Y-91135000D01*
X141560290Y-90995309D01*
X142221818Y-90721295D01*
X142817177Y-90323489D01*
X143323489Y-89817177D01*
X143721295Y-89221818D01*
X143995309Y-88560290D01*
X144123833Y-87914155D01*
X152265450Y-87914155D01*
X152661634Y-88434550D01*
X153376612Y-88824748D01*
X154153976Y-89067964D01*
X154963853Y-89154851D01*
X155775118Y-89082069D01*
X156556597Y-88852415D01*
X157278256Y-88474715D01*
X157338366Y-88434550D01*
X157734550Y-87914155D01*
X155000000Y-85179605D01*
X152265450Y-87914155D01*
X144123833Y-87914155D01*
X144135000Y-87858016D01*
X144135000Y-87141984D01*
X143995309Y-86439710D01*
X143721295Y-85778182D01*
X143323489Y-85182823D01*
X143104519Y-84963853D01*
X150845149Y-84963853D01*
X150917931Y-85775118D01*
X151147585Y-86556597D01*
X151525285Y-87278256D01*
X151565450Y-87338366D01*
X152085845Y-87734550D01*
X154820395Y-85000000D01*
X155179605Y-85000000D01*
X157914155Y-87734550D01*
X158434550Y-87338366D01*
X158824748Y-86623388D01*
X159067964Y-85846024D01*
X159154851Y-85036147D01*
X159082069Y-84224882D01*
X158852415Y-83443403D01*
X158474715Y-82721744D01*
X158434550Y-82661634D01*
X157914155Y-82265450D01*
X155179605Y-85000000D01*
X154820395Y-85000000D01*
X152085845Y-82265450D01*
X151565450Y-82661634D01*
X151175252Y-83376612D01*
X150932036Y-84153976D01*
X150845149Y-84963853D01*
X143104519Y-84963853D01*
X142817177Y-84676511D01*
X142221818Y-84278705D01*
X141560290Y-84004691D01*
X140858016Y-83865000D01*
X140141984Y-83865000D01*
X139439710Y-84004691D01*
X138778182Y-84278705D01*
X138182823Y-84676511D01*
X137676511Y-85182823D01*
X137278705Y-85778182D01*
X137004691Y-86439710D01*
X136865000Y-87141984D01*
X133135000Y-87141984D01*
X132995309Y-86439710D01*
X132721295Y-85778182D01*
X132323489Y-85182823D01*
X131817177Y-84676511D01*
X131221818Y-84278705D01*
X130560290Y-84004691D01*
X129858016Y-83865000D01*
X129141984Y-83865000D01*
X128439710Y-84004691D01*
X127778182Y-84278705D01*
X127182823Y-84676511D01*
X126676511Y-85182823D01*
X126278705Y-85778182D01*
X126004691Y-86439710D01*
X125865000Y-87141984D01*
X118541725Y-87141984D01*
X118824748Y-86623388D01*
X119067964Y-85846024D01*
X119154851Y-85036147D01*
X119082069Y-84224882D01*
X118852415Y-83443403D01*
X118474715Y-82721744D01*
X118434550Y-82661634D01*
X117914155Y-82265450D01*
X115179605Y-85000000D01*
X114820395Y-85000000D01*
X112085845Y-82265450D01*
X111565450Y-82661634D01*
X111175252Y-83376612D01*
X110932036Y-84153976D01*
X110845149Y-84963853D01*
X110660000Y-84963853D01*
X110660000Y-82085845D01*
X112265450Y-82085845D01*
X115000000Y-84820395D01*
X117734550Y-82085845D01*
X152265450Y-82085845D01*
X155000000Y-84820395D01*
X157734550Y-82085845D01*
X157338366Y-81565450D01*
X156623388Y-81175252D01*
X155846024Y-80932036D01*
X155036147Y-80845149D01*
X154224882Y-80917931D01*
X153443403Y-81147585D01*
X152721744Y-81525285D01*
X152661634Y-81565450D01*
X152265450Y-82085845D01*
X117734550Y-82085845D01*
X117338366Y-81565450D01*
X116623388Y-81175252D01*
X115846024Y-80932036D01*
X115036147Y-80845149D01*
X114224882Y-80917931D01*
X113443403Y-81147585D01*
X112721744Y-81525285D01*
X112661634Y-81565450D01*
X112265450Y-82085845D01*
X110660000Y-82085845D01*
X110660000Y-80660000D01*
X159340000Y-80660000D01*
X159340001Y-105340000D01*
G37*
G04 #@! TD.AperFunction*
M02*
