G04 #@! TF.GenerationSoftware,KiCad,Pcbnew,5.0.2+dfsg1-1*
G04 #@! TF.CreationDate,2021-08-07T23:42:24+09:00*
G04 #@! TF.ProjectId,tmc-hv-enxtender,746d632d-6876-42d6-956e-7874656e6465,rev?*
G04 #@! TF.SameCoordinates,Original*
G04 #@! TF.FileFunction,Copper,L1,Top*
G04 #@! TF.FilePolarity,Positive*
%FSLAX46Y46*%
G04 Gerber Fmt 4.6, Leading zero omitted, Abs format (unit mm)*
G04 Created by KiCad (PCBNEW 5.0.2+dfsg1-1) date Sat 07 Aug 2021 11:42:24 PM JST*
%MOMM*%
%LPD*%
G01*
G04 APERTURE LIST*
G04 #@! TA.AperFunction,Conductor*
%ADD10C,0.100000*%
G04 #@! TD*
G04 #@! TA.AperFunction,SMDPad,CuDef*
%ADD11C,1.300000*%
G04 #@! TD*
G04 #@! TA.AperFunction,ComponentPad*
%ADD12R,1.727200X1.727200*%
G04 #@! TD*
G04 #@! TA.AperFunction,ComponentPad*
%ADD13O,1.727200X1.727200*%
G04 #@! TD*
G04 #@! TA.AperFunction,SMDPad,CuDef*
%ADD14C,1.150000*%
G04 #@! TD*
G04 #@! TA.AperFunction,ComponentPad*
%ADD15C,6.000000*%
G04 #@! TD*
G04 #@! TA.AperFunction,ComponentPad*
%ADD16C,4.000000*%
G04 #@! TD*
G04 #@! TA.AperFunction,ComponentPad*
%ADD17C,1.524000*%
G04 #@! TD*
G04 #@! TA.AperFunction,ComponentPad*
%ADD18R,1.524000X1.524000*%
G04 #@! TD*
G04 #@! TA.AperFunction,SMDPad,CuDef*
%ADD19C,1.250000*%
G04 #@! TD*
G04 #@! TA.AperFunction,ComponentPad*
%ADD20O,1.700000X1.950000*%
G04 #@! TD*
G04 #@! TA.AperFunction,ComponentPad*
%ADD21C,1.700000*%
G04 #@! TD*
G04 #@! TA.AperFunction,ComponentPad*
%ADD22O,1.700000X2.000000*%
G04 #@! TD*
G04 #@! TA.AperFunction,ComponentPad*
%ADD23R,2.000000X2.000000*%
G04 #@! TD*
G04 #@! TA.AperFunction,ComponentPad*
%ADD24C,2.000000*%
G04 #@! TD*
G04 #@! TA.AperFunction,ComponentPad*
%ADD25R,1.600000X1.600000*%
G04 #@! TD*
G04 #@! TA.AperFunction,ComponentPad*
%ADD26C,1.600000*%
G04 #@! TD*
G04 #@! TA.AperFunction,ComponentPad*
%ADD27R,2.600000X2.600000*%
G04 #@! TD*
G04 #@! TA.AperFunction,ComponentPad*
%ADD28C,2.600000*%
G04 #@! TD*
G04 #@! TA.AperFunction,ViaPad*
%ADD29C,0.800000*%
G04 #@! TD*
G04 #@! TA.AperFunction,Conductor*
%ADD30C,0.250000*%
G04 #@! TD*
G04 #@! TA.AperFunction,Conductor*
%ADD31C,2.000000*%
G04 #@! TD*
G04 #@! TA.AperFunction,Conductor*
%ADD32C,1.000000*%
G04 #@! TD*
G04 #@! TA.AperFunction,Conductor*
%ADD33C,0.254000*%
G04 #@! TD*
G04 APERTURE END LIST*
D10*
G04 #@! TO.N,Net-(D1-Pad2)*
G04 #@! TO.C,D1*
G36*
X161714504Y-96473704D02*
X161738773Y-96477304D01*
X161762571Y-96483265D01*
X161785671Y-96491530D01*
X161807849Y-96502020D01*
X161828893Y-96514633D01*
X161848598Y-96529247D01*
X161866777Y-96545723D01*
X161883253Y-96563902D01*
X161897867Y-96583607D01*
X161910480Y-96604651D01*
X161920970Y-96626829D01*
X161929235Y-96649929D01*
X161935196Y-96673727D01*
X161938796Y-96697996D01*
X161940000Y-96722500D01*
X161940000Y-97547500D01*
X161938796Y-97572004D01*
X161935196Y-97596273D01*
X161929235Y-97620071D01*
X161920970Y-97643171D01*
X161910480Y-97665349D01*
X161897867Y-97686393D01*
X161883253Y-97706098D01*
X161866777Y-97724277D01*
X161848598Y-97740753D01*
X161828893Y-97755367D01*
X161807849Y-97767980D01*
X161785671Y-97778470D01*
X161762571Y-97786735D01*
X161738773Y-97792696D01*
X161714504Y-97796296D01*
X161690000Y-97797500D01*
X160890000Y-97797500D01*
X160865496Y-97796296D01*
X160841227Y-97792696D01*
X160817429Y-97786735D01*
X160794329Y-97778470D01*
X160772151Y-97767980D01*
X160751107Y-97755367D01*
X160731402Y-97740753D01*
X160713223Y-97724277D01*
X160696747Y-97706098D01*
X160682133Y-97686393D01*
X160669520Y-97665349D01*
X160659030Y-97643171D01*
X160650765Y-97620071D01*
X160644804Y-97596273D01*
X160641204Y-97572004D01*
X160640000Y-97547500D01*
X160640000Y-96722500D01*
X160641204Y-96697996D01*
X160644804Y-96673727D01*
X160650765Y-96649929D01*
X160659030Y-96626829D01*
X160669520Y-96604651D01*
X160682133Y-96583607D01*
X160696747Y-96563902D01*
X160713223Y-96545723D01*
X160731402Y-96529247D01*
X160751107Y-96514633D01*
X160772151Y-96502020D01*
X160794329Y-96491530D01*
X160817429Y-96483265D01*
X160841227Y-96477304D01*
X160865496Y-96473704D01*
X160890000Y-96472500D01*
X161690000Y-96472500D01*
X161714504Y-96473704D01*
X161714504Y-96473704D01*
G37*
D11*
G04 #@! TD*
G04 #@! TO.P,D1,2*
G04 #@! TO.N,Net-(D1-Pad2)*
X161290000Y-97135000D03*
D10*
G04 #@! TO.N,GND*
G04 #@! TO.C,D1*
G36*
X161714504Y-98398704D02*
X161738773Y-98402304D01*
X161762571Y-98408265D01*
X161785671Y-98416530D01*
X161807849Y-98427020D01*
X161828893Y-98439633D01*
X161848598Y-98454247D01*
X161866777Y-98470723D01*
X161883253Y-98488902D01*
X161897867Y-98508607D01*
X161910480Y-98529651D01*
X161920970Y-98551829D01*
X161929235Y-98574929D01*
X161935196Y-98598727D01*
X161938796Y-98622996D01*
X161940000Y-98647500D01*
X161940000Y-99472500D01*
X161938796Y-99497004D01*
X161935196Y-99521273D01*
X161929235Y-99545071D01*
X161920970Y-99568171D01*
X161910480Y-99590349D01*
X161897867Y-99611393D01*
X161883253Y-99631098D01*
X161866777Y-99649277D01*
X161848598Y-99665753D01*
X161828893Y-99680367D01*
X161807849Y-99692980D01*
X161785671Y-99703470D01*
X161762571Y-99711735D01*
X161738773Y-99717696D01*
X161714504Y-99721296D01*
X161690000Y-99722500D01*
X160890000Y-99722500D01*
X160865496Y-99721296D01*
X160841227Y-99717696D01*
X160817429Y-99711735D01*
X160794329Y-99703470D01*
X160772151Y-99692980D01*
X160751107Y-99680367D01*
X160731402Y-99665753D01*
X160713223Y-99649277D01*
X160696747Y-99631098D01*
X160682133Y-99611393D01*
X160669520Y-99590349D01*
X160659030Y-99568171D01*
X160650765Y-99545071D01*
X160644804Y-99521273D01*
X160641204Y-99497004D01*
X160640000Y-99472500D01*
X160640000Y-98647500D01*
X160641204Y-98622996D01*
X160644804Y-98598727D01*
X160650765Y-98574929D01*
X160659030Y-98551829D01*
X160669520Y-98529651D01*
X160682133Y-98508607D01*
X160696747Y-98488902D01*
X160713223Y-98470723D01*
X160731402Y-98454247D01*
X160751107Y-98439633D01*
X160772151Y-98427020D01*
X160794329Y-98416530D01*
X160817429Y-98408265D01*
X160841227Y-98402304D01*
X160865496Y-98398704D01*
X160890000Y-98397500D01*
X161690000Y-98397500D01*
X161714504Y-98398704D01*
X161714504Y-98398704D01*
G37*
D11*
G04 #@! TD*
G04 #@! TO.P,D1,1*
G04 #@! TO.N,GND*
X161290000Y-99060000D03*
D12*
G04 #@! TO.P,J5,1*
G04 #@! TO.N,Net-(J5-Pad1)*
X240665000Y-42545000D03*
D13*
G04 #@! TO.P,J5,2*
G04 #@! TO.N,N/C*
X240665000Y-40005000D03*
G04 #@! TO.P,J5,3*
G04 #@! TO.N,Net-(J5-Pad3)*
X243205000Y-42545000D03*
G04 #@! TO.P,J5,4*
G04 #@! TO.N,Net-(C3-Pad1)*
X243205000Y-40005000D03*
G04 #@! TO.P,J5,5*
G04 #@! TO.N,Net-(J5-Pad5)*
X245745000Y-42545000D03*
G04 #@! TO.P,J5,6*
G04 #@! TO.N,Net-(J5-Pad6)*
X245745000Y-40005000D03*
G04 #@! TO.P,J5,7*
G04 #@! TO.N,Net-(J5-Pad7)*
X248285000Y-42545000D03*
G04 #@! TO.P,J5,8*
G04 #@! TO.N,Net-(J5-Pad8)*
X248285000Y-40005000D03*
G04 #@! TO.P,J5,9*
G04 #@! TO.N,Net-(J5-Pad9)*
X250825000Y-42545000D03*
G04 #@! TO.P,J5,10*
G04 #@! TO.N,Net-(J5-Pad10)*
X250825000Y-40005000D03*
G04 #@! TD*
G04 #@! TO.P,J6,10*
G04 #@! TO.N,Net-(J6-Pad10)*
X250825000Y-81280000D03*
G04 #@! TO.P,J6,9*
G04 #@! TO.N,Net-(J6-Pad9)*
X250825000Y-83820000D03*
G04 #@! TO.P,J6,8*
G04 #@! TO.N,Net-(J6-Pad8)*
X248285000Y-81280000D03*
G04 #@! TO.P,J6,7*
G04 #@! TO.N,Net-(J6-Pad7)*
X248285000Y-83820000D03*
G04 #@! TO.P,J6,6*
G04 #@! TO.N,Net-(J6-Pad6)*
X245745000Y-81280000D03*
G04 #@! TO.P,J6,5*
G04 #@! TO.N,Net-(J6-Pad5)*
X245745000Y-83820000D03*
G04 #@! TO.P,J6,4*
G04 #@! TO.N,Net-(C4-Pad1)*
X243205000Y-81280000D03*
G04 #@! TO.P,J6,3*
G04 #@! TO.N,Net-(J6-Pad3)*
X243205000Y-83820000D03*
G04 #@! TO.P,J6,2*
G04 #@! TO.N,N/C*
X240665000Y-81280000D03*
D12*
G04 #@! TO.P,J6,1*
G04 #@! TO.N,Net-(J6-Pad1)*
X240665000Y-83820000D03*
G04 #@! TD*
D10*
G04 #@! TO.N,Net-(D1-Pad2)*
G04 #@! TO.C,R1*
G36*
X161764505Y-93796204D02*
X161788773Y-93799804D01*
X161812572Y-93805765D01*
X161835671Y-93814030D01*
X161857850Y-93824520D01*
X161878893Y-93837132D01*
X161898599Y-93851747D01*
X161916777Y-93868223D01*
X161933253Y-93886401D01*
X161947868Y-93906107D01*
X161960480Y-93927150D01*
X161970970Y-93949329D01*
X161979235Y-93972428D01*
X161985196Y-93996227D01*
X161988796Y-94020495D01*
X161990000Y-94044999D01*
X161990000Y-94695001D01*
X161988796Y-94719505D01*
X161985196Y-94743773D01*
X161979235Y-94767572D01*
X161970970Y-94790671D01*
X161960480Y-94812850D01*
X161947868Y-94833893D01*
X161933253Y-94853599D01*
X161916777Y-94871777D01*
X161898599Y-94888253D01*
X161878893Y-94902868D01*
X161857850Y-94915480D01*
X161835671Y-94925970D01*
X161812572Y-94934235D01*
X161788773Y-94940196D01*
X161764505Y-94943796D01*
X161740001Y-94945000D01*
X160839999Y-94945000D01*
X160815495Y-94943796D01*
X160791227Y-94940196D01*
X160767428Y-94934235D01*
X160744329Y-94925970D01*
X160722150Y-94915480D01*
X160701107Y-94902868D01*
X160681401Y-94888253D01*
X160663223Y-94871777D01*
X160646747Y-94853599D01*
X160632132Y-94833893D01*
X160619520Y-94812850D01*
X160609030Y-94790671D01*
X160600765Y-94767572D01*
X160594804Y-94743773D01*
X160591204Y-94719505D01*
X160590000Y-94695001D01*
X160590000Y-94044999D01*
X160591204Y-94020495D01*
X160594804Y-93996227D01*
X160600765Y-93972428D01*
X160609030Y-93949329D01*
X160619520Y-93927150D01*
X160632132Y-93906107D01*
X160646747Y-93886401D01*
X160663223Y-93868223D01*
X160681401Y-93851747D01*
X160701107Y-93837132D01*
X160722150Y-93824520D01*
X160744329Y-93814030D01*
X160767428Y-93805765D01*
X160791227Y-93799804D01*
X160815495Y-93796204D01*
X160839999Y-93795000D01*
X161740001Y-93795000D01*
X161764505Y-93796204D01*
X161764505Y-93796204D01*
G37*
D14*
G04 #@! TD*
G04 #@! TO.P,R1,2*
G04 #@! TO.N,Net-(D1-Pad2)*
X161290000Y-94370000D03*
D10*
G04 #@! TO.N,+24V*
G04 #@! TO.C,R1*
G36*
X161764505Y-91746204D02*
X161788773Y-91749804D01*
X161812572Y-91755765D01*
X161835671Y-91764030D01*
X161857850Y-91774520D01*
X161878893Y-91787132D01*
X161898599Y-91801747D01*
X161916777Y-91818223D01*
X161933253Y-91836401D01*
X161947868Y-91856107D01*
X161960480Y-91877150D01*
X161970970Y-91899329D01*
X161979235Y-91922428D01*
X161985196Y-91946227D01*
X161988796Y-91970495D01*
X161990000Y-91994999D01*
X161990000Y-92645001D01*
X161988796Y-92669505D01*
X161985196Y-92693773D01*
X161979235Y-92717572D01*
X161970970Y-92740671D01*
X161960480Y-92762850D01*
X161947868Y-92783893D01*
X161933253Y-92803599D01*
X161916777Y-92821777D01*
X161898599Y-92838253D01*
X161878893Y-92852868D01*
X161857850Y-92865480D01*
X161835671Y-92875970D01*
X161812572Y-92884235D01*
X161788773Y-92890196D01*
X161764505Y-92893796D01*
X161740001Y-92895000D01*
X160839999Y-92895000D01*
X160815495Y-92893796D01*
X160791227Y-92890196D01*
X160767428Y-92884235D01*
X160744329Y-92875970D01*
X160722150Y-92865480D01*
X160701107Y-92852868D01*
X160681401Y-92838253D01*
X160663223Y-92821777D01*
X160646747Y-92803599D01*
X160632132Y-92783893D01*
X160619520Y-92762850D01*
X160609030Y-92740671D01*
X160600765Y-92717572D01*
X160594804Y-92693773D01*
X160591204Y-92669505D01*
X160590000Y-92645001D01*
X160590000Y-91994999D01*
X160591204Y-91970495D01*
X160594804Y-91946227D01*
X160600765Y-91922428D01*
X160609030Y-91899329D01*
X160619520Y-91877150D01*
X160632132Y-91856107D01*
X160646747Y-91836401D01*
X160663223Y-91818223D01*
X160681401Y-91801747D01*
X160701107Y-91787132D01*
X160722150Y-91774520D01*
X160744329Y-91764030D01*
X160767428Y-91755765D01*
X160791227Y-91749804D01*
X160815495Y-91746204D01*
X160839999Y-91745000D01*
X161740001Y-91745000D01*
X161764505Y-91746204D01*
X161764505Y-91746204D01*
G37*
D14*
G04 #@! TD*
G04 #@! TO.P,R1,1*
G04 #@! TO.N,+24V*
X161290000Y-92320000D03*
D15*
G04 #@! TO.P,U2,*
G04 #@! TO.N,*
X188595000Y-86765000D03*
X158595000Y-86765000D03*
X188595000Y-24765000D03*
X158595000Y-24765000D03*
D16*
G04 #@! TO.P,U2,1*
G04 #@! TO.N,GND*
X181595000Y-86765000D03*
G04 #@! TO.P,U2,2*
G04 #@! TO.N,+24V*
X165595000Y-86765000D03*
G04 #@! TO.P,U2,3*
G04 #@! TO.N,GND*
X181595000Y-24765000D03*
G04 #@! TO.P,U2,4*
G04 #@! TO.N,+48V*
X165595000Y-24765000D03*
G04 #@! TD*
D17*
G04 #@! TO.P,U3,18*
G04 #@! TO.N,N/C*
X209550000Y-45085000D03*
G04 #@! TO.P,U3,17*
X209550000Y-47625000D03*
G04 #@! TO.P,U3,16*
G04 #@! TO.N,+48V*
X209550000Y-37465000D03*
G04 #@! TO.P,U3,15*
G04 #@! TO.N,GND*
X212090000Y-37465000D03*
G04 #@! TO.P,U3,14*
G04 #@! TO.N,Net-(J3-Pad1)*
X214630000Y-37465000D03*
G04 #@! TO.P,U3,13*
G04 #@! TO.N,Net-(J3-Pad2)*
X217170000Y-37465000D03*
G04 #@! TO.P,U3,12*
G04 #@! TO.N,Net-(J3-Pad3)*
X219710000Y-37465000D03*
G04 #@! TO.P,U3,11*
G04 #@! TO.N,Net-(J3-Pad4)*
X222250000Y-37465000D03*
G04 #@! TO.P,U3,10*
G04 #@! TO.N,Net-(C3-Pad1)*
X224790000Y-37465000D03*
G04 #@! TO.P,U3,9*
G04 #@! TO.N,GND*
X227330000Y-37465000D03*
G04 #@! TO.P,U3,8*
G04 #@! TO.N,Net-(J5-Pad6)*
X227330000Y-50165000D03*
G04 #@! TO.P,U3,7*
G04 #@! TO.N,Net-(J5-Pad8)*
X224790000Y-50165000D03*
G04 #@! TO.P,U3,6*
G04 #@! TO.N,Net-(J5-Pad10)*
X222250000Y-50165000D03*
G04 #@! TO.P,U3,5*
G04 #@! TO.N,Net-(J5-Pad9)*
X219710000Y-50165000D03*
G04 #@! TO.P,U3,4*
G04 #@! TO.N,Net-(J5-Pad7)*
X217170000Y-50165000D03*
G04 #@! TO.P,U3,3*
G04 #@! TO.N,Net-(J5-Pad5)*
X214630000Y-50165000D03*
G04 #@! TO.P,U3,2*
G04 #@! TO.N,Net-(J5-Pad3)*
X212090000Y-50165000D03*
D18*
G04 #@! TO.P,U3,1*
G04 #@! TO.N,Net-(J5-Pad1)*
X209550000Y-50165000D03*
G04 #@! TD*
G04 #@! TO.P,U4,1*
G04 #@! TO.N,Net-(J6-Pad1)*
X209550000Y-91440000D03*
D17*
G04 #@! TO.P,U4,2*
G04 #@! TO.N,Net-(J6-Pad3)*
X212090000Y-91440000D03*
G04 #@! TO.P,U4,3*
G04 #@! TO.N,Net-(J6-Pad5)*
X214630000Y-91440000D03*
G04 #@! TO.P,U4,4*
G04 #@! TO.N,Net-(J6-Pad7)*
X217170000Y-91440000D03*
G04 #@! TO.P,U4,5*
G04 #@! TO.N,Net-(J6-Pad9)*
X219710000Y-91440000D03*
G04 #@! TO.P,U4,6*
G04 #@! TO.N,Net-(J6-Pad10)*
X222250000Y-91440000D03*
G04 #@! TO.P,U4,7*
G04 #@! TO.N,Net-(J6-Pad8)*
X224790000Y-91440000D03*
G04 #@! TO.P,U4,8*
G04 #@! TO.N,Net-(J6-Pad6)*
X227330000Y-91440000D03*
G04 #@! TO.P,U4,9*
G04 #@! TO.N,GND*
X227330000Y-78740000D03*
G04 #@! TO.P,U4,10*
G04 #@! TO.N,Net-(C4-Pad1)*
X224790000Y-78740000D03*
G04 #@! TO.P,U4,11*
G04 #@! TO.N,Net-(J4-Pad4)*
X222250000Y-78740000D03*
G04 #@! TO.P,U4,12*
G04 #@! TO.N,Net-(J4-Pad3)*
X219710000Y-78740000D03*
G04 #@! TO.P,U4,13*
G04 #@! TO.N,Net-(J4-Pad2)*
X217170000Y-78740000D03*
G04 #@! TO.P,U4,14*
G04 #@! TO.N,Net-(J4-Pad1)*
X214630000Y-78740000D03*
G04 #@! TO.P,U4,15*
G04 #@! TO.N,GND*
X212090000Y-78740000D03*
G04 #@! TO.P,U4,16*
G04 #@! TO.N,+48V*
X209550000Y-78740000D03*
G04 #@! TO.P,U4,17*
G04 #@! TO.N,N/C*
X209550000Y-88900000D03*
G04 #@! TO.P,U4,18*
X209550000Y-86360000D03*
G04 #@! TD*
D10*
G04 #@! TO.N,+24V*
G04 #@! TO.C,C2*
G36*
X165564504Y-91451204D02*
X165588773Y-91454804D01*
X165612571Y-91460765D01*
X165635671Y-91469030D01*
X165657849Y-91479520D01*
X165678893Y-91492133D01*
X165698598Y-91506747D01*
X165716777Y-91523223D01*
X165733253Y-91541402D01*
X165747867Y-91561107D01*
X165760480Y-91582151D01*
X165770970Y-91604329D01*
X165779235Y-91627429D01*
X165785196Y-91651227D01*
X165788796Y-91675496D01*
X165790000Y-91700000D01*
X165790000Y-92450000D01*
X165788796Y-92474504D01*
X165785196Y-92498773D01*
X165779235Y-92522571D01*
X165770970Y-92545671D01*
X165760480Y-92567849D01*
X165747867Y-92588893D01*
X165733253Y-92608598D01*
X165716777Y-92626777D01*
X165698598Y-92643253D01*
X165678893Y-92657867D01*
X165657849Y-92670480D01*
X165635671Y-92680970D01*
X165612571Y-92689235D01*
X165588773Y-92695196D01*
X165564504Y-92698796D01*
X165540000Y-92700000D01*
X163390000Y-92700000D01*
X163365496Y-92698796D01*
X163341227Y-92695196D01*
X163317429Y-92689235D01*
X163294329Y-92680970D01*
X163272151Y-92670480D01*
X163251107Y-92657867D01*
X163231402Y-92643253D01*
X163213223Y-92626777D01*
X163196747Y-92608598D01*
X163182133Y-92588893D01*
X163169520Y-92567849D01*
X163159030Y-92545671D01*
X163150765Y-92522571D01*
X163144804Y-92498773D01*
X163141204Y-92474504D01*
X163140000Y-92450000D01*
X163140000Y-91700000D01*
X163141204Y-91675496D01*
X163144804Y-91651227D01*
X163150765Y-91627429D01*
X163159030Y-91604329D01*
X163169520Y-91582151D01*
X163182133Y-91561107D01*
X163196747Y-91541402D01*
X163213223Y-91523223D01*
X163231402Y-91506747D01*
X163251107Y-91492133D01*
X163272151Y-91479520D01*
X163294329Y-91469030D01*
X163317429Y-91460765D01*
X163341227Y-91454804D01*
X163365496Y-91451204D01*
X163390000Y-91450000D01*
X165540000Y-91450000D01*
X165564504Y-91451204D01*
X165564504Y-91451204D01*
G37*
D19*
G04 #@! TD*
G04 #@! TO.P,C2,1*
G04 #@! TO.N,+24V*
X164465000Y-92075000D03*
D10*
G04 #@! TO.N,GND*
G04 #@! TO.C,C2*
G36*
X165564504Y-94251204D02*
X165588773Y-94254804D01*
X165612571Y-94260765D01*
X165635671Y-94269030D01*
X165657849Y-94279520D01*
X165678893Y-94292133D01*
X165698598Y-94306747D01*
X165716777Y-94323223D01*
X165733253Y-94341402D01*
X165747867Y-94361107D01*
X165760480Y-94382151D01*
X165770970Y-94404329D01*
X165779235Y-94427429D01*
X165785196Y-94451227D01*
X165788796Y-94475496D01*
X165790000Y-94500000D01*
X165790000Y-95250000D01*
X165788796Y-95274504D01*
X165785196Y-95298773D01*
X165779235Y-95322571D01*
X165770970Y-95345671D01*
X165760480Y-95367849D01*
X165747867Y-95388893D01*
X165733253Y-95408598D01*
X165716777Y-95426777D01*
X165698598Y-95443253D01*
X165678893Y-95457867D01*
X165657849Y-95470480D01*
X165635671Y-95480970D01*
X165612571Y-95489235D01*
X165588773Y-95495196D01*
X165564504Y-95498796D01*
X165540000Y-95500000D01*
X163390000Y-95500000D01*
X163365496Y-95498796D01*
X163341227Y-95495196D01*
X163317429Y-95489235D01*
X163294329Y-95480970D01*
X163272151Y-95470480D01*
X163251107Y-95457867D01*
X163231402Y-95443253D01*
X163213223Y-95426777D01*
X163196747Y-95408598D01*
X163182133Y-95388893D01*
X163169520Y-95367849D01*
X163159030Y-95345671D01*
X163150765Y-95322571D01*
X163144804Y-95298773D01*
X163141204Y-95274504D01*
X163140000Y-95250000D01*
X163140000Y-94500000D01*
X163141204Y-94475496D01*
X163144804Y-94451227D01*
X163150765Y-94427429D01*
X163159030Y-94404329D01*
X163169520Y-94382151D01*
X163182133Y-94361107D01*
X163196747Y-94341402D01*
X163213223Y-94323223D01*
X163231402Y-94306747D01*
X163251107Y-94292133D01*
X163272151Y-94279520D01*
X163294329Y-94269030D01*
X163317429Y-94260765D01*
X163341227Y-94254804D01*
X163365496Y-94251204D01*
X163390000Y-94250000D01*
X165540000Y-94250000D01*
X165564504Y-94251204D01*
X165564504Y-94251204D01*
G37*
D19*
G04 #@! TD*
G04 #@! TO.P,C2,2*
G04 #@! TO.N,GND*
X164465000Y-94875000D03*
D10*
G04 #@! TO.N,Net-(C4-Pad1)*
G04 #@! TO.C,C4*
G36*
X224504505Y-74866204D02*
X224528773Y-74869804D01*
X224552572Y-74875765D01*
X224575671Y-74884030D01*
X224597850Y-74894520D01*
X224618893Y-74907132D01*
X224638599Y-74921747D01*
X224656777Y-74938223D01*
X224673253Y-74956401D01*
X224687868Y-74976107D01*
X224700480Y-74997150D01*
X224710970Y-75019329D01*
X224719235Y-75042428D01*
X224725196Y-75066227D01*
X224728796Y-75090495D01*
X224730000Y-75114999D01*
X224730000Y-76015001D01*
X224728796Y-76039505D01*
X224725196Y-76063773D01*
X224719235Y-76087572D01*
X224710970Y-76110671D01*
X224700480Y-76132850D01*
X224687868Y-76153893D01*
X224673253Y-76173599D01*
X224656777Y-76191777D01*
X224638599Y-76208253D01*
X224618893Y-76222868D01*
X224597850Y-76235480D01*
X224575671Y-76245970D01*
X224552572Y-76254235D01*
X224528773Y-76260196D01*
X224504505Y-76263796D01*
X224480001Y-76265000D01*
X223829999Y-76265000D01*
X223805495Y-76263796D01*
X223781227Y-76260196D01*
X223757428Y-76254235D01*
X223734329Y-76245970D01*
X223712150Y-76235480D01*
X223691107Y-76222868D01*
X223671401Y-76208253D01*
X223653223Y-76191777D01*
X223636747Y-76173599D01*
X223622132Y-76153893D01*
X223609520Y-76132850D01*
X223599030Y-76110671D01*
X223590765Y-76087572D01*
X223584804Y-76063773D01*
X223581204Y-76039505D01*
X223580000Y-76015001D01*
X223580000Y-75114999D01*
X223581204Y-75090495D01*
X223584804Y-75066227D01*
X223590765Y-75042428D01*
X223599030Y-75019329D01*
X223609520Y-74997150D01*
X223622132Y-74976107D01*
X223636747Y-74956401D01*
X223653223Y-74938223D01*
X223671401Y-74921747D01*
X223691107Y-74907132D01*
X223712150Y-74894520D01*
X223734329Y-74884030D01*
X223757428Y-74875765D01*
X223781227Y-74869804D01*
X223805495Y-74866204D01*
X223829999Y-74865000D01*
X224480001Y-74865000D01*
X224504505Y-74866204D01*
X224504505Y-74866204D01*
G37*
D14*
G04 #@! TD*
G04 #@! TO.P,C4,1*
G04 #@! TO.N,Net-(C4-Pad1)*
X224155000Y-75565000D03*
D10*
G04 #@! TO.N,GND*
G04 #@! TO.C,C4*
G36*
X226554505Y-74866204D02*
X226578773Y-74869804D01*
X226602572Y-74875765D01*
X226625671Y-74884030D01*
X226647850Y-74894520D01*
X226668893Y-74907132D01*
X226688599Y-74921747D01*
X226706777Y-74938223D01*
X226723253Y-74956401D01*
X226737868Y-74976107D01*
X226750480Y-74997150D01*
X226760970Y-75019329D01*
X226769235Y-75042428D01*
X226775196Y-75066227D01*
X226778796Y-75090495D01*
X226780000Y-75114999D01*
X226780000Y-76015001D01*
X226778796Y-76039505D01*
X226775196Y-76063773D01*
X226769235Y-76087572D01*
X226760970Y-76110671D01*
X226750480Y-76132850D01*
X226737868Y-76153893D01*
X226723253Y-76173599D01*
X226706777Y-76191777D01*
X226688599Y-76208253D01*
X226668893Y-76222868D01*
X226647850Y-76235480D01*
X226625671Y-76245970D01*
X226602572Y-76254235D01*
X226578773Y-76260196D01*
X226554505Y-76263796D01*
X226530001Y-76265000D01*
X225879999Y-76265000D01*
X225855495Y-76263796D01*
X225831227Y-76260196D01*
X225807428Y-76254235D01*
X225784329Y-76245970D01*
X225762150Y-76235480D01*
X225741107Y-76222868D01*
X225721401Y-76208253D01*
X225703223Y-76191777D01*
X225686747Y-76173599D01*
X225672132Y-76153893D01*
X225659520Y-76132850D01*
X225649030Y-76110671D01*
X225640765Y-76087572D01*
X225634804Y-76063773D01*
X225631204Y-76039505D01*
X225630000Y-76015001D01*
X225630000Y-75114999D01*
X225631204Y-75090495D01*
X225634804Y-75066227D01*
X225640765Y-75042428D01*
X225649030Y-75019329D01*
X225659520Y-74997150D01*
X225672132Y-74976107D01*
X225686747Y-74956401D01*
X225703223Y-74938223D01*
X225721401Y-74921747D01*
X225741107Y-74907132D01*
X225762150Y-74894520D01*
X225784329Y-74884030D01*
X225807428Y-74875765D01*
X225831227Y-74869804D01*
X225855495Y-74866204D01*
X225879999Y-74865000D01*
X226530001Y-74865000D01*
X226554505Y-74866204D01*
X226554505Y-74866204D01*
G37*
D14*
G04 #@! TD*
G04 #@! TO.P,C4,2*
G04 #@! TO.N,GND*
X226205000Y-75565000D03*
D20*
G04 #@! TO.P,J3,4*
G04 #@! TO.N,Net-(J3-Pad4)*
X222130000Y-23495000D03*
G04 #@! TO.P,J3,3*
G04 #@! TO.N,Net-(J3-Pad3)*
X219630000Y-23495000D03*
G04 #@! TO.P,J3,2*
G04 #@! TO.N,Net-(J3-Pad2)*
X217130000Y-23495000D03*
D10*
G04 #@! TD*
G04 #@! TO.N,Net-(J3-Pad1)*
G04 #@! TO.C,J3*
G36*
X215254504Y-22521204D02*
X215278773Y-22524804D01*
X215302571Y-22530765D01*
X215325671Y-22539030D01*
X215347849Y-22549520D01*
X215368893Y-22562133D01*
X215388598Y-22576747D01*
X215406777Y-22593223D01*
X215423253Y-22611402D01*
X215437867Y-22631107D01*
X215450480Y-22652151D01*
X215460970Y-22674329D01*
X215469235Y-22697429D01*
X215475196Y-22721227D01*
X215478796Y-22745496D01*
X215480000Y-22770000D01*
X215480000Y-24220000D01*
X215478796Y-24244504D01*
X215475196Y-24268773D01*
X215469235Y-24292571D01*
X215460970Y-24315671D01*
X215450480Y-24337849D01*
X215437867Y-24358893D01*
X215423253Y-24378598D01*
X215406777Y-24396777D01*
X215388598Y-24413253D01*
X215368893Y-24427867D01*
X215347849Y-24440480D01*
X215325671Y-24450970D01*
X215302571Y-24459235D01*
X215278773Y-24465196D01*
X215254504Y-24468796D01*
X215230000Y-24470000D01*
X214030000Y-24470000D01*
X214005496Y-24468796D01*
X213981227Y-24465196D01*
X213957429Y-24459235D01*
X213934329Y-24450970D01*
X213912151Y-24440480D01*
X213891107Y-24427867D01*
X213871402Y-24413253D01*
X213853223Y-24396777D01*
X213836747Y-24378598D01*
X213822133Y-24358893D01*
X213809520Y-24337849D01*
X213799030Y-24315671D01*
X213790765Y-24292571D01*
X213784804Y-24268773D01*
X213781204Y-24244504D01*
X213780000Y-24220000D01*
X213780000Y-22770000D01*
X213781204Y-22745496D01*
X213784804Y-22721227D01*
X213790765Y-22697429D01*
X213799030Y-22674329D01*
X213809520Y-22652151D01*
X213822133Y-22631107D01*
X213836747Y-22611402D01*
X213853223Y-22593223D01*
X213871402Y-22576747D01*
X213891107Y-22562133D01*
X213912151Y-22549520D01*
X213934329Y-22539030D01*
X213957429Y-22530765D01*
X213981227Y-22524804D01*
X214005496Y-22521204D01*
X214030000Y-22520000D01*
X215230000Y-22520000D01*
X215254504Y-22521204D01*
X215254504Y-22521204D01*
G37*
D21*
G04 #@! TO.P,J3,1*
G04 #@! TO.N,Net-(J3-Pad1)*
X214630000Y-23495000D03*
G04 #@! TD*
D10*
G04 #@! TO.N,Net-(J4-Pad1)*
G04 #@! TO.C,J4*
G36*
X215254504Y-63161204D02*
X215278773Y-63164804D01*
X215302571Y-63170765D01*
X215325671Y-63179030D01*
X215347849Y-63189520D01*
X215368893Y-63202133D01*
X215388598Y-63216747D01*
X215406777Y-63233223D01*
X215423253Y-63251402D01*
X215437867Y-63271107D01*
X215450480Y-63292151D01*
X215460970Y-63314329D01*
X215469235Y-63337429D01*
X215475196Y-63361227D01*
X215478796Y-63385496D01*
X215480000Y-63410000D01*
X215480000Y-64860000D01*
X215478796Y-64884504D01*
X215475196Y-64908773D01*
X215469235Y-64932571D01*
X215460970Y-64955671D01*
X215450480Y-64977849D01*
X215437867Y-64998893D01*
X215423253Y-65018598D01*
X215406777Y-65036777D01*
X215388598Y-65053253D01*
X215368893Y-65067867D01*
X215347849Y-65080480D01*
X215325671Y-65090970D01*
X215302571Y-65099235D01*
X215278773Y-65105196D01*
X215254504Y-65108796D01*
X215230000Y-65110000D01*
X214030000Y-65110000D01*
X214005496Y-65108796D01*
X213981227Y-65105196D01*
X213957429Y-65099235D01*
X213934329Y-65090970D01*
X213912151Y-65080480D01*
X213891107Y-65067867D01*
X213871402Y-65053253D01*
X213853223Y-65036777D01*
X213836747Y-65018598D01*
X213822133Y-64998893D01*
X213809520Y-64977849D01*
X213799030Y-64955671D01*
X213790765Y-64932571D01*
X213784804Y-64908773D01*
X213781204Y-64884504D01*
X213780000Y-64860000D01*
X213780000Y-63410000D01*
X213781204Y-63385496D01*
X213784804Y-63361227D01*
X213790765Y-63337429D01*
X213799030Y-63314329D01*
X213809520Y-63292151D01*
X213822133Y-63271107D01*
X213836747Y-63251402D01*
X213853223Y-63233223D01*
X213871402Y-63216747D01*
X213891107Y-63202133D01*
X213912151Y-63189520D01*
X213934329Y-63179030D01*
X213957429Y-63170765D01*
X213981227Y-63164804D01*
X214005496Y-63161204D01*
X214030000Y-63160000D01*
X215230000Y-63160000D01*
X215254504Y-63161204D01*
X215254504Y-63161204D01*
G37*
D21*
G04 #@! TD*
G04 #@! TO.P,J4,1*
G04 #@! TO.N,Net-(J4-Pad1)*
X214630000Y-64135000D03*
D20*
G04 #@! TO.P,J4,2*
G04 #@! TO.N,Net-(J4-Pad2)*
X217130000Y-64135000D03*
G04 #@! TO.P,J4,3*
G04 #@! TO.N,Net-(J4-Pad3)*
X219630000Y-64135000D03*
G04 #@! TO.P,J4,4*
G04 #@! TO.N,Net-(J4-Pad4)*
X222130000Y-64135000D03*
G04 #@! TD*
D10*
G04 #@! TO.N,+24V*
G04 #@! TO.C,J7*
G36*
X205094504Y-22496204D02*
X205118773Y-22499804D01*
X205142571Y-22505765D01*
X205165671Y-22514030D01*
X205187849Y-22524520D01*
X205208893Y-22537133D01*
X205228598Y-22551747D01*
X205246777Y-22568223D01*
X205263253Y-22586402D01*
X205277867Y-22606107D01*
X205290480Y-22627151D01*
X205300970Y-22649329D01*
X205309235Y-22672429D01*
X205315196Y-22696227D01*
X205318796Y-22720496D01*
X205320000Y-22745000D01*
X205320000Y-24245000D01*
X205318796Y-24269504D01*
X205315196Y-24293773D01*
X205309235Y-24317571D01*
X205300970Y-24340671D01*
X205290480Y-24362849D01*
X205277867Y-24383893D01*
X205263253Y-24403598D01*
X205246777Y-24421777D01*
X205228598Y-24438253D01*
X205208893Y-24452867D01*
X205187849Y-24465480D01*
X205165671Y-24475970D01*
X205142571Y-24484235D01*
X205118773Y-24490196D01*
X205094504Y-24493796D01*
X205070000Y-24495000D01*
X203870000Y-24495000D01*
X203845496Y-24493796D01*
X203821227Y-24490196D01*
X203797429Y-24484235D01*
X203774329Y-24475970D01*
X203752151Y-24465480D01*
X203731107Y-24452867D01*
X203711402Y-24438253D01*
X203693223Y-24421777D01*
X203676747Y-24403598D01*
X203662133Y-24383893D01*
X203649520Y-24362849D01*
X203639030Y-24340671D01*
X203630765Y-24317571D01*
X203624804Y-24293773D01*
X203621204Y-24269504D01*
X203620000Y-24245000D01*
X203620000Y-22745000D01*
X203621204Y-22720496D01*
X203624804Y-22696227D01*
X203630765Y-22672429D01*
X203639030Y-22649329D01*
X203649520Y-22627151D01*
X203662133Y-22606107D01*
X203676747Y-22586402D01*
X203693223Y-22568223D01*
X203711402Y-22551747D01*
X203731107Y-22537133D01*
X203752151Y-22524520D01*
X203774329Y-22514030D01*
X203797429Y-22505765D01*
X203821227Y-22499804D01*
X203845496Y-22496204D01*
X203870000Y-22495000D01*
X205070000Y-22495000D01*
X205094504Y-22496204D01*
X205094504Y-22496204D01*
G37*
D21*
G04 #@! TD*
G04 #@! TO.P,J7,1*
G04 #@! TO.N,+24V*
X204470000Y-23495000D03*
D22*
G04 #@! TO.P,J7,2*
G04 #@! TO.N,GND*
X206970000Y-23495000D03*
G04 #@! TD*
G04 #@! TO.P,J8,2*
G04 #@! TO.N,GND*
X206970000Y-64135000D03*
D10*
G04 #@! TD*
G04 #@! TO.N,+24V*
G04 #@! TO.C,J8*
G36*
X205094504Y-63136204D02*
X205118773Y-63139804D01*
X205142571Y-63145765D01*
X205165671Y-63154030D01*
X205187849Y-63164520D01*
X205208893Y-63177133D01*
X205228598Y-63191747D01*
X205246777Y-63208223D01*
X205263253Y-63226402D01*
X205277867Y-63246107D01*
X205290480Y-63267151D01*
X205300970Y-63289329D01*
X205309235Y-63312429D01*
X205315196Y-63336227D01*
X205318796Y-63360496D01*
X205320000Y-63385000D01*
X205320000Y-64885000D01*
X205318796Y-64909504D01*
X205315196Y-64933773D01*
X205309235Y-64957571D01*
X205300970Y-64980671D01*
X205290480Y-65002849D01*
X205277867Y-65023893D01*
X205263253Y-65043598D01*
X205246777Y-65061777D01*
X205228598Y-65078253D01*
X205208893Y-65092867D01*
X205187849Y-65105480D01*
X205165671Y-65115970D01*
X205142571Y-65124235D01*
X205118773Y-65130196D01*
X205094504Y-65133796D01*
X205070000Y-65135000D01*
X203870000Y-65135000D01*
X203845496Y-65133796D01*
X203821227Y-65130196D01*
X203797429Y-65124235D01*
X203774329Y-65115970D01*
X203752151Y-65105480D01*
X203731107Y-65092867D01*
X203711402Y-65078253D01*
X203693223Y-65061777D01*
X203676747Y-65043598D01*
X203662133Y-65023893D01*
X203649520Y-65002849D01*
X203639030Y-64980671D01*
X203630765Y-64957571D01*
X203624804Y-64933773D01*
X203621204Y-64909504D01*
X203620000Y-64885000D01*
X203620000Y-63385000D01*
X203621204Y-63360496D01*
X203624804Y-63336227D01*
X203630765Y-63312429D01*
X203639030Y-63289329D01*
X203649520Y-63267151D01*
X203662133Y-63246107D01*
X203676747Y-63226402D01*
X203693223Y-63208223D01*
X203711402Y-63191747D01*
X203731107Y-63177133D01*
X203752151Y-63164520D01*
X203774329Y-63154030D01*
X203797429Y-63145765D01*
X203821227Y-63139804D01*
X203845496Y-63136204D01*
X203870000Y-63135000D01*
X205070000Y-63135000D01*
X205094504Y-63136204D01*
X205094504Y-63136204D01*
G37*
D21*
G04 #@! TO.P,J8,1*
G04 #@! TO.N,+24V*
X204470000Y-64135000D03*
G04 #@! TD*
D10*
G04 #@! TO.N,Net-(C3-Pad1)*
G04 #@! TO.C,C3*
G36*
X224504505Y-33591204D02*
X224528773Y-33594804D01*
X224552572Y-33600765D01*
X224575671Y-33609030D01*
X224597850Y-33619520D01*
X224618893Y-33632132D01*
X224638599Y-33646747D01*
X224656777Y-33663223D01*
X224673253Y-33681401D01*
X224687868Y-33701107D01*
X224700480Y-33722150D01*
X224710970Y-33744329D01*
X224719235Y-33767428D01*
X224725196Y-33791227D01*
X224728796Y-33815495D01*
X224730000Y-33839999D01*
X224730000Y-34740001D01*
X224728796Y-34764505D01*
X224725196Y-34788773D01*
X224719235Y-34812572D01*
X224710970Y-34835671D01*
X224700480Y-34857850D01*
X224687868Y-34878893D01*
X224673253Y-34898599D01*
X224656777Y-34916777D01*
X224638599Y-34933253D01*
X224618893Y-34947868D01*
X224597850Y-34960480D01*
X224575671Y-34970970D01*
X224552572Y-34979235D01*
X224528773Y-34985196D01*
X224504505Y-34988796D01*
X224480001Y-34990000D01*
X223829999Y-34990000D01*
X223805495Y-34988796D01*
X223781227Y-34985196D01*
X223757428Y-34979235D01*
X223734329Y-34970970D01*
X223712150Y-34960480D01*
X223691107Y-34947868D01*
X223671401Y-34933253D01*
X223653223Y-34916777D01*
X223636747Y-34898599D01*
X223622132Y-34878893D01*
X223609520Y-34857850D01*
X223599030Y-34835671D01*
X223590765Y-34812572D01*
X223584804Y-34788773D01*
X223581204Y-34764505D01*
X223580000Y-34740001D01*
X223580000Y-33839999D01*
X223581204Y-33815495D01*
X223584804Y-33791227D01*
X223590765Y-33767428D01*
X223599030Y-33744329D01*
X223609520Y-33722150D01*
X223622132Y-33701107D01*
X223636747Y-33681401D01*
X223653223Y-33663223D01*
X223671401Y-33646747D01*
X223691107Y-33632132D01*
X223712150Y-33619520D01*
X223734329Y-33609030D01*
X223757428Y-33600765D01*
X223781227Y-33594804D01*
X223805495Y-33591204D01*
X223829999Y-33590000D01*
X224480001Y-33590000D01*
X224504505Y-33591204D01*
X224504505Y-33591204D01*
G37*
D14*
G04 #@! TD*
G04 #@! TO.P,C3,1*
G04 #@! TO.N,Net-(C3-Pad1)*
X224155000Y-34290000D03*
D10*
G04 #@! TO.N,GND*
G04 #@! TO.C,C3*
G36*
X226554505Y-33591204D02*
X226578773Y-33594804D01*
X226602572Y-33600765D01*
X226625671Y-33609030D01*
X226647850Y-33619520D01*
X226668893Y-33632132D01*
X226688599Y-33646747D01*
X226706777Y-33663223D01*
X226723253Y-33681401D01*
X226737868Y-33701107D01*
X226750480Y-33722150D01*
X226760970Y-33744329D01*
X226769235Y-33767428D01*
X226775196Y-33791227D01*
X226778796Y-33815495D01*
X226780000Y-33839999D01*
X226780000Y-34740001D01*
X226778796Y-34764505D01*
X226775196Y-34788773D01*
X226769235Y-34812572D01*
X226760970Y-34835671D01*
X226750480Y-34857850D01*
X226737868Y-34878893D01*
X226723253Y-34898599D01*
X226706777Y-34916777D01*
X226688599Y-34933253D01*
X226668893Y-34947868D01*
X226647850Y-34960480D01*
X226625671Y-34970970D01*
X226602572Y-34979235D01*
X226578773Y-34985196D01*
X226554505Y-34988796D01*
X226530001Y-34990000D01*
X225879999Y-34990000D01*
X225855495Y-34988796D01*
X225831227Y-34985196D01*
X225807428Y-34979235D01*
X225784329Y-34970970D01*
X225762150Y-34960480D01*
X225741107Y-34947868D01*
X225721401Y-34933253D01*
X225703223Y-34916777D01*
X225686747Y-34898599D01*
X225672132Y-34878893D01*
X225659520Y-34857850D01*
X225649030Y-34835671D01*
X225640765Y-34812572D01*
X225634804Y-34788773D01*
X225631204Y-34764505D01*
X225630000Y-34740001D01*
X225630000Y-33839999D01*
X225631204Y-33815495D01*
X225634804Y-33791227D01*
X225640765Y-33767428D01*
X225649030Y-33744329D01*
X225659520Y-33722150D01*
X225672132Y-33701107D01*
X225686747Y-33681401D01*
X225703223Y-33663223D01*
X225721401Y-33646747D01*
X225741107Y-33632132D01*
X225762150Y-33619520D01*
X225784329Y-33609030D01*
X225807428Y-33600765D01*
X225831227Y-33594804D01*
X225855495Y-33591204D01*
X225879999Y-33590000D01*
X226530001Y-33590000D01*
X226554505Y-33591204D01*
X226554505Y-33591204D01*
G37*
D14*
G04 #@! TD*
G04 #@! TO.P,C3,2*
G04 #@! TO.N,GND*
X226205000Y-34290000D03*
D10*
G04 #@! TO.N,GND*
G04 #@! TO.C,C5*
G36*
X207474504Y-39641204D02*
X207498773Y-39644804D01*
X207522571Y-39650765D01*
X207545671Y-39659030D01*
X207567849Y-39669520D01*
X207588893Y-39682133D01*
X207608598Y-39696747D01*
X207626777Y-39713223D01*
X207643253Y-39731402D01*
X207657867Y-39751107D01*
X207670480Y-39772151D01*
X207680970Y-39794329D01*
X207689235Y-39817429D01*
X207695196Y-39841227D01*
X207698796Y-39865496D01*
X207700000Y-39890000D01*
X207700000Y-40640000D01*
X207698796Y-40664504D01*
X207695196Y-40688773D01*
X207689235Y-40712571D01*
X207680970Y-40735671D01*
X207670480Y-40757849D01*
X207657867Y-40778893D01*
X207643253Y-40798598D01*
X207626777Y-40816777D01*
X207608598Y-40833253D01*
X207588893Y-40847867D01*
X207567849Y-40860480D01*
X207545671Y-40870970D01*
X207522571Y-40879235D01*
X207498773Y-40885196D01*
X207474504Y-40888796D01*
X207450000Y-40890000D01*
X205300000Y-40890000D01*
X205275496Y-40888796D01*
X205251227Y-40885196D01*
X205227429Y-40879235D01*
X205204329Y-40870970D01*
X205182151Y-40860480D01*
X205161107Y-40847867D01*
X205141402Y-40833253D01*
X205123223Y-40816777D01*
X205106747Y-40798598D01*
X205092133Y-40778893D01*
X205079520Y-40757849D01*
X205069030Y-40735671D01*
X205060765Y-40712571D01*
X205054804Y-40688773D01*
X205051204Y-40664504D01*
X205050000Y-40640000D01*
X205050000Y-39890000D01*
X205051204Y-39865496D01*
X205054804Y-39841227D01*
X205060765Y-39817429D01*
X205069030Y-39794329D01*
X205079520Y-39772151D01*
X205092133Y-39751107D01*
X205106747Y-39731402D01*
X205123223Y-39713223D01*
X205141402Y-39696747D01*
X205161107Y-39682133D01*
X205182151Y-39669520D01*
X205204329Y-39659030D01*
X205227429Y-39650765D01*
X205251227Y-39644804D01*
X205275496Y-39641204D01*
X205300000Y-39640000D01*
X207450000Y-39640000D01*
X207474504Y-39641204D01*
X207474504Y-39641204D01*
G37*
D19*
G04 #@! TD*
G04 #@! TO.P,C5,2*
G04 #@! TO.N,GND*
X206375000Y-40265000D03*
D10*
G04 #@! TO.N,+48V*
G04 #@! TO.C,C5*
G36*
X207474504Y-36841204D02*
X207498773Y-36844804D01*
X207522571Y-36850765D01*
X207545671Y-36859030D01*
X207567849Y-36869520D01*
X207588893Y-36882133D01*
X207608598Y-36896747D01*
X207626777Y-36913223D01*
X207643253Y-36931402D01*
X207657867Y-36951107D01*
X207670480Y-36972151D01*
X207680970Y-36994329D01*
X207689235Y-37017429D01*
X207695196Y-37041227D01*
X207698796Y-37065496D01*
X207700000Y-37090000D01*
X207700000Y-37840000D01*
X207698796Y-37864504D01*
X207695196Y-37888773D01*
X207689235Y-37912571D01*
X207680970Y-37935671D01*
X207670480Y-37957849D01*
X207657867Y-37978893D01*
X207643253Y-37998598D01*
X207626777Y-38016777D01*
X207608598Y-38033253D01*
X207588893Y-38047867D01*
X207567849Y-38060480D01*
X207545671Y-38070970D01*
X207522571Y-38079235D01*
X207498773Y-38085196D01*
X207474504Y-38088796D01*
X207450000Y-38090000D01*
X205300000Y-38090000D01*
X205275496Y-38088796D01*
X205251227Y-38085196D01*
X205227429Y-38079235D01*
X205204329Y-38070970D01*
X205182151Y-38060480D01*
X205161107Y-38047867D01*
X205141402Y-38033253D01*
X205123223Y-38016777D01*
X205106747Y-37998598D01*
X205092133Y-37978893D01*
X205079520Y-37957849D01*
X205069030Y-37935671D01*
X205060765Y-37912571D01*
X205054804Y-37888773D01*
X205051204Y-37864504D01*
X205050000Y-37840000D01*
X205050000Y-37090000D01*
X205051204Y-37065496D01*
X205054804Y-37041227D01*
X205060765Y-37017429D01*
X205069030Y-36994329D01*
X205079520Y-36972151D01*
X205092133Y-36951107D01*
X205106747Y-36931402D01*
X205123223Y-36913223D01*
X205141402Y-36896747D01*
X205161107Y-36882133D01*
X205182151Y-36869520D01*
X205204329Y-36859030D01*
X205227429Y-36850765D01*
X205251227Y-36844804D01*
X205275496Y-36841204D01*
X205300000Y-36840000D01*
X207450000Y-36840000D01*
X207474504Y-36841204D01*
X207474504Y-36841204D01*
G37*
D19*
G04 #@! TD*
G04 #@! TO.P,C5,1*
G04 #@! TO.N,+48V*
X206375000Y-37465000D03*
D23*
G04 #@! TO.P,C6,1*
G04 #@! TO.N,+48V*
X200025000Y-37465000D03*
D24*
G04 #@! TO.P,C6,2*
G04 #@! TO.N,GND*
X195025000Y-37465000D03*
G04 #@! TD*
D10*
G04 #@! TO.N,+48V*
G04 #@! TO.C,C7*
G36*
X207474504Y-78116204D02*
X207498773Y-78119804D01*
X207522571Y-78125765D01*
X207545671Y-78134030D01*
X207567849Y-78144520D01*
X207588893Y-78157133D01*
X207608598Y-78171747D01*
X207626777Y-78188223D01*
X207643253Y-78206402D01*
X207657867Y-78226107D01*
X207670480Y-78247151D01*
X207680970Y-78269329D01*
X207689235Y-78292429D01*
X207695196Y-78316227D01*
X207698796Y-78340496D01*
X207700000Y-78365000D01*
X207700000Y-79115000D01*
X207698796Y-79139504D01*
X207695196Y-79163773D01*
X207689235Y-79187571D01*
X207680970Y-79210671D01*
X207670480Y-79232849D01*
X207657867Y-79253893D01*
X207643253Y-79273598D01*
X207626777Y-79291777D01*
X207608598Y-79308253D01*
X207588893Y-79322867D01*
X207567849Y-79335480D01*
X207545671Y-79345970D01*
X207522571Y-79354235D01*
X207498773Y-79360196D01*
X207474504Y-79363796D01*
X207450000Y-79365000D01*
X205300000Y-79365000D01*
X205275496Y-79363796D01*
X205251227Y-79360196D01*
X205227429Y-79354235D01*
X205204329Y-79345970D01*
X205182151Y-79335480D01*
X205161107Y-79322867D01*
X205141402Y-79308253D01*
X205123223Y-79291777D01*
X205106747Y-79273598D01*
X205092133Y-79253893D01*
X205079520Y-79232849D01*
X205069030Y-79210671D01*
X205060765Y-79187571D01*
X205054804Y-79163773D01*
X205051204Y-79139504D01*
X205050000Y-79115000D01*
X205050000Y-78365000D01*
X205051204Y-78340496D01*
X205054804Y-78316227D01*
X205060765Y-78292429D01*
X205069030Y-78269329D01*
X205079520Y-78247151D01*
X205092133Y-78226107D01*
X205106747Y-78206402D01*
X205123223Y-78188223D01*
X205141402Y-78171747D01*
X205161107Y-78157133D01*
X205182151Y-78144520D01*
X205204329Y-78134030D01*
X205227429Y-78125765D01*
X205251227Y-78119804D01*
X205275496Y-78116204D01*
X205300000Y-78115000D01*
X207450000Y-78115000D01*
X207474504Y-78116204D01*
X207474504Y-78116204D01*
G37*
D19*
G04 #@! TD*
G04 #@! TO.P,C7,1*
G04 #@! TO.N,+48V*
X206375000Y-78740000D03*
D10*
G04 #@! TO.N,GND*
G04 #@! TO.C,C7*
G36*
X207474504Y-80916204D02*
X207498773Y-80919804D01*
X207522571Y-80925765D01*
X207545671Y-80934030D01*
X207567849Y-80944520D01*
X207588893Y-80957133D01*
X207608598Y-80971747D01*
X207626777Y-80988223D01*
X207643253Y-81006402D01*
X207657867Y-81026107D01*
X207670480Y-81047151D01*
X207680970Y-81069329D01*
X207689235Y-81092429D01*
X207695196Y-81116227D01*
X207698796Y-81140496D01*
X207700000Y-81165000D01*
X207700000Y-81915000D01*
X207698796Y-81939504D01*
X207695196Y-81963773D01*
X207689235Y-81987571D01*
X207680970Y-82010671D01*
X207670480Y-82032849D01*
X207657867Y-82053893D01*
X207643253Y-82073598D01*
X207626777Y-82091777D01*
X207608598Y-82108253D01*
X207588893Y-82122867D01*
X207567849Y-82135480D01*
X207545671Y-82145970D01*
X207522571Y-82154235D01*
X207498773Y-82160196D01*
X207474504Y-82163796D01*
X207450000Y-82165000D01*
X205300000Y-82165000D01*
X205275496Y-82163796D01*
X205251227Y-82160196D01*
X205227429Y-82154235D01*
X205204329Y-82145970D01*
X205182151Y-82135480D01*
X205161107Y-82122867D01*
X205141402Y-82108253D01*
X205123223Y-82091777D01*
X205106747Y-82073598D01*
X205092133Y-82053893D01*
X205079520Y-82032849D01*
X205069030Y-82010671D01*
X205060765Y-81987571D01*
X205054804Y-81963773D01*
X205051204Y-81939504D01*
X205050000Y-81915000D01*
X205050000Y-81165000D01*
X205051204Y-81140496D01*
X205054804Y-81116227D01*
X205060765Y-81092429D01*
X205069030Y-81069329D01*
X205079520Y-81047151D01*
X205092133Y-81026107D01*
X205106747Y-81006402D01*
X205123223Y-80988223D01*
X205141402Y-80971747D01*
X205161107Y-80957133D01*
X205182151Y-80944520D01*
X205204329Y-80934030D01*
X205227429Y-80925765D01*
X205251227Y-80919804D01*
X205275496Y-80916204D01*
X205300000Y-80915000D01*
X207450000Y-80915000D01*
X207474504Y-80916204D01*
X207474504Y-80916204D01*
G37*
D19*
G04 #@! TD*
G04 #@! TO.P,C7,2*
G04 #@! TO.N,GND*
X206375000Y-81540000D03*
D24*
G04 #@! TO.P,C8,2*
G04 #@! TO.N,GND*
X195025000Y-78740000D03*
D23*
G04 #@! TO.P,C8,1*
G04 #@! TO.N,+48V*
X200025000Y-78740000D03*
G04 #@! TD*
D10*
G04 #@! TO.N,GND*
G04 #@! TO.C,D2*
G36*
X195362004Y-22211204D02*
X195386273Y-22214804D01*
X195410071Y-22220765D01*
X195433171Y-22229030D01*
X195455349Y-22239520D01*
X195476393Y-22252133D01*
X195496098Y-22266747D01*
X195514277Y-22283223D01*
X195530753Y-22301402D01*
X195545367Y-22321107D01*
X195557980Y-22342151D01*
X195568470Y-22364329D01*
X195576735Y-22387429D01*
X195582696Y-22411227D01*
X195586296Y-22435496D01*
X195587500Y-22460000D01*
X195587500Y-23260000D01*
X195586296Y-23284504D01*
X195582696Y-23308773D01*
X195576735Y-23332571D01*
X195568470Y-23355671D01*
X195557980Y-23377849D01*
X195545367Y-23398893D01*
X195530753Y-23418598D01*
X195514277Y-23436777D01*
X195496098Y-23453253D01*
X195476393Y-23467867D01*
X195455349Y-23480480D01*
X195433171Y-23490970D01*
X195410071Y-23499235D01*
X195386273Y-23505196D01*
X195362004Y-23508796D01*
X195337500Y-23510000D01*
X194512500Y-23510000D01*
X194487996Y-23508796D01*
X194463727Y-23505196D01*
X194439929Y-23499235D01*
X194416829Y-23490970D01*
X194394651Y-23480480D01*
X194373607Y-23467867D01*
X194353902Y-23453253D01*
X194335723Y-23436777D01*
X194319247Y-23418598D01*
X194304633Y-23398893D01*
X194292020Y-23377849D01*
X194281530Y-23355671D01*
X194273265Y-23332571D01*
X194267304Y-23308773D01*
X194263704Y-23284504D01*
X194262500Y-23260000D01*
X194262500Y-22460000D01*
X194263704Y-22435496D01*
X194267304Y-22411227D01*
X194273265Y-22387429D01*
X194281530Y-22364329D01*
X194292020Y-22342151D01*
X194304633Y-22321107D01*
X194319247Y-22301402D01*
X194335723Y-22283223D01*
X194353902Y-22266747D01*
X194373607Y-22252133D01*
X194394651Y-22239520D01*
X194416829Y-22229030D01*
X194439929Y-22220765D01*
X194463727Y-22214804D01*
X194487996Y-22211204D01*
X194512500Y-22210000D01*
X195337500Y-22210000D01*
X195362004Y-22211204D01*
X195362004Y-22211204D01*
G37*
D11*
G04 #@! TD*
G04 #@! TO.P,D2,1*
G04 #@! TO.N,GND*
X194925000Y-22860000D03*
D10*
G04 #@! TO.N,Net-(D2-Pad2)*
G04 #@! TO.C,D2*
G36*
X197287004Y-22211204D02*
X197311273Y-22214804D01*
X197335071Y-22220765D01*
X197358171Y-22229030D01*
X197380349Y-22239520D01*
X197401393Y-22252133D01*
X197421098Y-22266747D01*
X197439277Y-22283223D01*
X197455753Y-22301402D01*
X197470367Y-22321107D01*
X197482980Y-22342151D01*
X197493470Y-22364329D01*
X197501735Y-22387429D01*
X197507696Y-22411227D01*
X197511296Y-22435496D01*
X197512500Y-22460000D01*
X197512500Y-23260000D01*
X197511296Y-23284504D01*
X197507696Y-23308773D01*
X197501735Y-23332571D01*
X197493470Y-23355671D01*
X197482980Y-23377849D01*
X197470367Y-23398893D01*
X197455753Y-23418598D01*
X197439277Y-23436777D01*
X197421098Y-23453253D01*
X197401393Y-23467867D01*
X197380349Y-23480480D01*
X197358171Y-23490970D01*
X197335071Y-23499235D01*
X197311273Y-23505196D01*
X197287004Y-23508796D01*
X197262500Y-23510000D01*
X196437500Y-23510000D01*
X196412996Y-23508796D01*
X196388727Y-23505196D01*
X196364929Y-23499235D01*
X196341829Y-23490970D01*
X196319651Y-23480480D01*
X196298607Y-23467867D01*
X196278902Y-23453253D01*
X196260723Y-23436777D01*
X196244247Y-23418598D01*
X196229633Y-23398893D01*
X196217020Y-23377849D01*
X196206530Y-23355671D01*
X196198265Y-23332571D01*
X196192304Y-23308773D01*
X196188704Y-23284504D01*
X196187500Y-23260000D01*
X196187500Y-22460000D01*
X196188704Y-22435496D01*
X196192304Y-22411227D01*
X196198265Y-22387429D01*
X196206530Y-22364329D01*
X196217020Y-22342151D01*
X196229633Y-22321107D01*
X196244247Y-22301402D01*
X196260723Y-22283223D01*
X196278902Y-22266747D01*
X196298607Y-22252133D01*
X196319651Y-22239520D01*
X196341829Y-22229030D01*
X196364929Y-22220765D01*
X196388727Y-22214804D01*
X196412996Y-22211204D01*
X196437500Y-22210000D01*
X197262500Y-22210000D01*
X197287004Y-22211204D01*
X197287004Y-22211204D01*
G37*
D11*
G04 #@! TD*
G04 #@! TO.P,D2,2*
G04 #@! TO.N,Net-(D2-Pad2)*
X196850000Y-22860000D03*
D10*
G04 #@! TO.N,+48V*
G04 #@! TO.C,R2*
G36*
X195149505Y-26606204D02*
X195173773Y-26609804D01*
X195197572Y-26615765D01*
X195220671Y-26624030D01*
X195242850Y-26634520D01*
X195263893Y-26647132D01*
X195283599Y-26661747D01*
X195301777Y-26678223D01*
X195318253Y-26696401D01*
X195332868Y-26716107D01*
X195345480Y-26737150D01*
X195355970Y-26759329D01*
X195364235Y-26782428D01*
X195370196Y-26806227D01*
X195373796Y-26830495D01*
X195375000Y-26854999D01*
X195375000Y-27755001D01*
X195373796Y-27779505D01*
X195370196Y-27803773D01*
X195364235Y-27827572D01*
X195355970Y-27850671D01*
X195345480Y-27872850D01*
X195332868Y-27893893D01*
X195318253Y-27913599D01*
X195301777Y-27931777D01*
X195283599Y-27948253D01*
X195263893Y-27962868D01*
X195242850Y-27975480D01*
X195220671Y-27985970D01*
X195197572Y-27994235D01*
X195173773Y-28000196D01*
X195149505Y-28003796D01*
X195125001Y-28005000D01*
X194474999Y-28005000D01*
X194450495Y-28003796D01*
X194426227Y-28000196D01*
X194402428Y-27994235D01*
X194379329Y-27985970D01*
X194357150Y-27975480D01*
X194336107Y-27962868D01*
X194316401Y-27948253D01*
X194298223Y-27931777D01*
X194281747Y-27913599D01*
X194267132Y-27893893D01*
X194254520Y-27872850D01*
X194244030Y-27850671D01*
X194235765Y-27827572D01*
X194229804Y-27803773D01*
X194226204Y-27779505D01*
X194225000Y-27755001D01*
X194225000Y-26854999D01*
X194226204Y-26830495D01*
X194229804Y-26806227D01*
X194235765Y-26782428D01*
X194244030Y-26759329D01*
X194254520Y-26737150D01*
X194267132Y-26716107D01*
X194281747Y-26696401D01*
X194298223Y-26678223D01*
X194316401Y-26661747D01*
X194336107Y-26647132D01*
X194357150Y-26634520D01*
X194379329Y-26624030D01*
X194402428Y-26615765D01*
X194426227Y-26609804D01*
X194450495Y-26606204D01*
X194474999Y-26605000D01*
X195125001Y-26605000D01*
X195149505Y-26606204D01*
X195149505Y-26606204D01*
G37*
D14*
G04 #@! TD*
G04 #@! TO.P,R2,1*
G04 #@! TO.N,+48V*
X194800000Y-27305000D03*
D10*
G04 #@! TO.N,Net-(D2-Pad2)*
G04 #@! TO.C,R2*
G36*
X197199505Y-26606204D02*
X197223773Y-26609804D01*
X197247572Y-26615765D01*
X197270671Y-26624030D01*
X197292850Y-26634520D01*
X197313893Y-26647132D01*
X197333599Y-26661747D01*
X197351777Y-26678223D01*
X197368253Y-26696401D01*
X197382868Y-26716107D01*
X197395480Y-26737150D01*
X197405970Y-26759329D01*
X197414235Y-26782428D01*
X197420196Y-26806227D01*
X197423796Y-26830495D01*
X197425000Y-26854999D01*
X197425000Y-27755001D01*
X197423796Y-27779505D01*
X197420196Y-27803773D01*
X197414235Y-27827572D01*
X197405970Y-27850671D01*
X197395480Y-27872850D01*
X197382868Y-27893893D01*
X197368253Y-27913599D01*
X197351777Y-27931777D01*
X197333599Y-27948253D01*
X197313893Y-27962868D01*
X197292850Y-27975480D01*
X197270671Y-27985970D01*
X197247572Y-27994235D01*
X197223773Y-28000196D01*
X197199505Y-28003796D01*
X197175001Y-28005000D01*
X196524999Y-28005000D01*
X196500495Y-28003796D01*
X196476227Y-28000196D01*
X196452428Y-27994235D01*
X196429329Y-27985970D01*
X196407150Y-27975480D01*
X196386107Y-27962868D01*
X196366401Y-27948253D01*
X196348223Y-27931777D01*
X196331747Y-27913599D01*
X196317132Y-27893893D01*
X196304520Y-27872850D01*
X196294030Y-27850671D01*
X196285765Y-27827572D01*
X196279804Y-27803773D01*
X196276204Y-27779505D01*
X196275000Y-27755001D01*
X196275000Y-26854999D01*
X196276204Y-26830495D01*
X196279804Y-26806227D01*
X196285765Y-26782428D01*
X196294030Y-26759329D01*
X196304520Y-26737150D01*
X196317132Y-26716107D01*
X196331747Y-26696401D01*
X196348223Y-26678223D01*
X196366401Y-26661747D01*
X196386107Y-26647132D01*
X196407150Y-26634520D01*
X196429329Y-26624030D01*
X196452428Y-26615765D01*
X196476227Y-26609804D01*
X196500495Y-26606204D01*
X196524999Y-26605000D01*
X197175001Y-26605000D01*
X197199505Y-26606204D01*
X197199505Y-26606204D01*
G37*
D14*
G04 #@! TD*
G04 #@! TO.P,R2,2*
G04 #@! TO.N,Net-(D2-Pad2)*
X196850000Y-27305000D03*
D15*
G04 #@! TO.P,FAN1,*
G04 #@! TO.N,*
X230375000Y-55750000D03*
X206375000Y-55750000D03*
X230375000Y-31750000D03*
X206375000Y-31750000D03*
G04 #@! TD*
G04 #@! TO.P,FAN2,*
G04 #@! TO.N,*
X230375000Y-97025000D03*
X206375000Y-97025000D03*
X230375000Y-73025000D03*
X206375000Y-73025000D03*
G04 #@! TD*
D25*
G04 #@! TO.P,C1,1*
G04 #@! TO.N,+24V*
X170815000Y-93980000D03*
D26*
G04 #@! TO.P,C1,2*
G04 #@! TO.N,GND*
X170815000Y-97480000D03*
G04 #@! TD*
D23*
G04 #@! TO.P,C9,1*
G04 #@! TO.N,+48V*
X200025000Y-48895000D03*
D24*
G04 #@! TO.P,C9,2*
G04 #@! TO.N,GND*
X195025000Y-48895000D03*
G04 #@! TD*
G04 #@! TO.P,C10,2*
G04 #@! TO.N,GND*
X195025000Y-90170000D03*
D23*
G04 #@! TO.P,C10,1*
G04 #@! TO.N,+48V*
X200025000Y-90170000D03*
G04 #@! TD*
D27*
G04 #@! TO.P,J1,1*
G04 #@! TO.N,GND*
X179070000Y-95885000D03*
D28*
G04 #@! TO.P,J1,2*
G04 #@! TO.N,+24V*
X184070000Y-95885000D03*
G04 #@! TD*
D29*
G04 #@! TO.N,GND*
X158750000Y-31750000D03*
X158750000Y-38100000D03*
X158750000Y-44450000D03*
X158750000Y-50800000D03*
X158750000Y-57150000D03*
X158750000Y-63500000D03*
X158750000Y-69850000D03*
X158750000Y-76200000D03*
X165100000Y-76200000D03*
X165100000Y-69850000D03*
X165100000Y-63500000D03*
X165100000Y-57150000D03*
X165100000Y-50800000D03*
X165100000Y-44450000D03*
X165100000Y-38100000D03*
X165100000Y-31750000D03*
X206375000Y-41910000D03*
X206375000Y-83185000D03*
X158750000Y-99695000D03*
X171450000Y-38100000D03*
X177800000Y-38100000D03*
X184150000Y-38100000D03*
X184150000Y-44450000D03*
X177800000Y-44450000D03*
X171450000Y-44450000D03*
X171450000Y-50800000D03*
X177800000Y-50800000D03*
X184150000Y-50800000D03*
X184150000Y-57150000D03*
X177800000Y-57150000D03*
X171450000Y-57150000D03*
X171450000Y-63500000D03*
X171450000Y-69850000D03*
X171450000Y-76200000D03*
X165100000Y-82550000D03*
X171450000Y-82550000D03*
X171450000Y-88900000D03*
X177800000Y-63500000D03*
X184150000Y-63500000D03*
X184150000Y-69850000D03*
X177800000Y-69850000D03*
X177800000Y-76200000D03*
X177800000Y-82550000D03*
X184150000Y-76200000D03*
X171450000Y-25400000D03*
X177800000Y-25400000D03*
X227330000Y-34290000D03*
X227330000Y-75565000D03*
X255270000Y-30480000D03*
X255270000Y-33020000D03*
X255270000Y-91440000D03*
X255270000Y-88900000D03*
X255270000Y-76200000D03*
X255270000Y-73660000D03*
X255270000Y-71120000D03*
X255270000Y-68580000D03*
X255270000Y-66040000D03*
X255270000Y-63500000D03*
X255270000Y-60960000D03*
X255270000Y-58420000D03*
X255270000Y-55880000D03*
X179070000Y-98425000D03*
X176530000Y-95885000D03*
X255270000Y-78740000D03*
X255270000Y-81280000D03*
X255270000Y-83820000D03*
X255270000Y-86360000D03*
X255270000Y-53340000D03*
X255270000Y-50800000D03*
X255270000Y-48260000D03*
X255270000Y-45720000D03*
X255270000Y-43180000D03*
X255270000Y-40640000D03*
X255270000Y-38100000D03*
X255270000Y-35560000D03*
X226060000Y-21590000D03*
X228600000Y-21590000D03*
X231140000Y-21590000D03*
X233680000Y-21590000D03*
X236220000Y-21590000D03*
X238760000Y-21590000D03*
X241300000Y-21590000D03*
X243840000Y-21590000D03*
X246380000Y-21590000D03*
X156210000Y-99695000D03*
X156210000Y-97155000D03*
X156210000Y-93980000D03*
X186055000Y-99695000D03*
X188595000Y-99695000D03*
X191135000Y-99695000D03*
X193675000Y-99695000D03*
X196215000Y-99695000D03*
X198755000Y-99695000D03*
X201295000Y-99695000D03*
X247015000Y-99695000D03*
X244475000Y-99695000D03*
X241935000Y-99695000D03*
X239395000Y-99695000D03*
X236855000Y-99695000D03*
X234315000Y-99695000D03*
X210185000Y-99695000D03*
X212725000Y-99695000D03*
X215265000Y-99695000D03*
X217805000Y-99695000D03*
X220345000Y-99695000D03*
X222885000Y-99695000D03*
X225425000Y-99695000D03*
X161925000Y-21590000D03*
X164465000Y-21590000D03*
X167005000Y-21590000D03*
X169545000Y-21590000D03*
X172085000Y-21590000D03*
X174625000Y-21590000D03*
X177165000Y-21590000D03*
X179705000Y-21590000D03*
X182245000Y-21590000D03*
X184785000Y-21590000D03*
X192405000Y-21590000D03*
X210820000Y-21590000D03*
X163195000Y-99695000D03*
X165735000Y-99695000D03*
X175895000Y-99695000D03*
X173355000Y-99695000D03*
X168275000Y-99695000D03*
G04 #@! TD*
D30*
G04 #@! TO.N,Net-(D1-Pad2)*
X161290000Y-94370000D02*
X161290000Y-97135000D01*
D31*
G04 #@! TO.N,+48V*
X165595000Y-24765000D02*
X170675000Y-29845000D01*
X198120000Y-29845000D02*
X200025000Y-31750000D01*
X200025000Y-37465000D02*
X209550000Y-37465000D01*
X200025000Y-78740000D02*
X209550000Y-78740000D01*
D30*
X194800000Y-27305000D02*
X194800000Y-29700000D01*
D31*
X170675000Y-29845000D02*
X194945000Y-29845000D01*
D30*
X194800000Y-29700000D02*
X194945000Y-29845000D01*
D31*
X194945000Y-29845000D02*
X198120000Y-29845000D01*
X200025000Y-31750000D02*
X200025000Y-48895000D01*
X200025000Y-90170000D02*
X200025000Y-78740000D01*
X200025000Y-51895000D02*
X201295000Y-53165000D01*
X200025000Y-48895000D02*
X200025000Y-51895000D01*
X201295000Y-53165000D02*
X201295000Y-72390000D01*
X200025000Y-73660000D02*
X200025000Y-78740000D01*
X201295000Y-72390000D02*
X200025000Y-73660000D01*
D30*
G04 #@! TO.N,Net-(J5-Pad1)*
X217170000Y-42545000D02*
X240665000Y-42545000D01*
X209550000Y-50165000D02*
X217170000Y-42545000D01*
G04 #@! TO.N,Net-(J5-Pad3)*
X242341401Y-43408599D02*
X243205000Y-42545000D01*
X242016399Y-43733601D02*
X242341401Y-43408599D01*
X218521399Y-43733601D02*
X242016399Y-43733601D01*
X212090000Y-50165000D02*
X218521399Y-43733601D01*
G04 #@! TO.N,Net-(J5-Pad5)*
X244106389Y-44183611D02*
X244881401Y-43408599D01*
X244881401Y-43408599D02*
X245745000Y-42545000D01*
X220611389Y-44183611D02*
X244106389Y-44183611D01*
X214630000Y-50165000D02*
X220611389Y-44183611D01*
G04 #@! TO.N,Net-(J5-Pad7)*
X247421401Y-43408599D02*
X248285000Y-42545000D01*
X246196379Y-44633621D02*
X247421401Y-43408599D01*
X222701379Y-44633621D02*
X246196379Y-44633621D01*
X217170000Y-50165000D02*
X222701379Y-44633621D01*
G04 #@! TO.N,Net-(J5-Pad9)*
X249961401Y-43408599D02*
X250825000Y-42545000D01*
X248286369Y-45083631D02*
X249961401Y-43408599D01*
X224791369Y-45083631D02*
X248286369Y-45083631D01*
X219710000Y-50165000D02*
X224791369Y-45083631D01*
G04 #@! TO.N,Net-(J6-Pad9)*
X248286369Y-86358631D02*
X249961401Y-84683599D01*
X249961401Y-84683599D02*
X250825000Y-83820000D01*
X224791369Y-86358631D02*
X248286369Y-86358631D01*
X219710000Y-91440000D02*
X224791369Y-86358631D01*
G04 #@! TO.N,Net-(J6-Pad7)*
X247421401Y-84683599D02*
X248285000Y-83820000D01*
X246196379Y-85908621D02*
X247421401Y-84683599D01*
X222701379Y-85908621D02*
X246196379Y-85908621D01*
X217170000Y-91440000D02*
X222701379Y-85908621D01*
G04 #@! TO.N,Net-(J6-Pad5)*
X244881401Y-84683599D02*
X245745000Y-83820000D01*
X244106389Y-85458611D02*
X244881401Y-84683599D01*
X220611389Y-85458611D02*
X244106389Y-85458611D01*
X214630000Y-91440000D02*
X220611389Y-85458611D01*
G04 #@! TO.N,Net-(J6-Pad3)*
X242341401Y-84683599D02*
X243205000Y-83820000D01*
X218521399Y-85008601D02*
X242016399Y-85008601D01*
X242016399Y-85008601D02*
X242341401Y-84683599D01*
X212090000Y-91440000D02*
X218521399Y-85008601D01*
G04 #@! TO.N,Net-(J6-Pad1)*
X217170000Y-83820000D02*
X240665000Y-83820000D01*
X209550000Y-91440000D02*
X217170000Y-83820000D01*
G04 #@! TO.N,+24V*
X161680000Y-92710000D02*
X161290000Y-92320000D01*
X164220000Y-92320000D02*
X164465000Y-92075000D01*
X161290000Y-92320000D02*
X164220000Y-92320000D01*
D31*
X184070000Y-93900000D02*
X184070000Y-95885000D01*
X182245000Y-92075000D02*
X184070000Y-93900000D01*
X170815000Y-93980000D02*
X170815000Y-92075000D01*
X170815000Y-92075000D02*
X182245000Y-92075000D01*
X165595000Y-91300000D02*
X166370000Y-92075000D01*
X165595000Y-86765000D02*
X165595000Y-91300000D01*
X164465000Y-92075000D02*
X166370000Y-92075000D01*
X166370000Y-92075000D02*
X170815000Y-92075000D01*
D30*
G04 #@! TO.N,Net-(D2-Pad2)*
X196850000Y-27305000D02*
X196850000Y-22860000D01*
D32*
G04 #@! TO.N,Net-(J3-Pad1)*
X214630000Y-23495000D02*
X214630000Y-37465000D01*
D30*
G04 #@! TO.N,Net-(J3-Pad2)*
X217130000Y-37425000D02*
X217170000Y-37465000D01*
D32*
X217130000Y-23495000D02*
X217130000Y-37425000D01*
D30*
G04 #@! TO.N,Net-(J3-Pad3)*
X219630000Y-37385000D02*
X219710000Y-37465000D01*
D32*
X219630000Y-23495000D02*
X219630000Y-37385000D01*
D30*
G04 #@! TO.N,Net-(J3-Pad4)*
X222130000Y-37345000D02*
X222250000Y-37465000D01*
D32*
X222130000Y-23495000D02*
X222130000Y-37345000D01*
D30*
G04 #@! TO.N,Net-(J4-Pad4)*
X222130000Y-78620000D02*
X222250000Y-78740000D01*
D32*
X222130000Y-64135000D02*
X222130000Y-78620000D01*
D30*
G04 #@! TO.N,Net-(J4-Pad3)*
X219630000Y-78660000D02*
X219710000Y-78740000D01*
D32*
X219630000Y-64135000D02*
X219630000Y-78660000D01*
D30*
G04 #@! TO.N,Net-(J4-Pad2)*
X217170000Y-64175000D02*
X217130000Y-64135000D01*
D32*
X217170000Y-78740000D02*
X217170000Y-64175000D01*
G04 #@! TO.N,Net-(J4-Pad1)*
X214630000Y-65210000D02*
X214630000Y-78740000D01*
D30*
X214630000Y-64135000D02*
X214630000Y-65210000D01*
G04 #@! TO.N,Net-(C3-Pad1)*
X224790000Y-34925000D02*
X224155000Y-34290000D01*
X224790000Y-37465000D02*
X224790000Y-34925000D01*
X242341401Y-39141401D02*
X243205000Y-40005000D01*
X242016399Y-38816399D02*
X242341401Y-39141401D01*
X225063769Y-38816399D02*
X242016399Y-38816399D01*
X224790000Y-38542630D02*
X225063769Y-38816399D01*
X224790000Y-37465000D02*
X224790000Y-38542630D01*
G04 #@! TO.N,Net-(C4-Pad1)*
X224790000Y-76200000D02*
X224155000Y-75565000D01*
X224790000Y-78740000D02*
X224790000Y-76200000D01*
X242016399Y-80091399D02*
X242341401Y-80416401D01*
X242341401Y-80416401D02*
X243205000Y-81280000D01*
X225063769Y-80091399D02*
X242016399Y-80091399D01*
X224790000Y-79817630D02*
X225063769Y-80091399D01*
X224790000Y-78740000D02*
X224790000Y-79817630D01*
G04 #@! TD*
D33*
G04 #@! TO.N,GND*
G36*
X248722643Y-21452370D02*
X248003000Y-23189741D01*
X248003000Y-25070259D01*
X248722643Y-26807630D01*
X250052370Y-28137357D01*
X251789741Y-28857000D01*
X253670259Y-28857000D01*
X255407630Y-28137357D01*
X256413000Y-27131987D01*
X256413000Y-94153013D01*
X255407630Y-93147643D01*
X253670259Y-92428000D01*
X251789741Y-92428000D01*
X250052370Y-93147643D01*
X248722643Y-94477370D01*
X248003000Y-96214741D01*
X248003000Y-98095259D01*
X248722643Y-99832630D01*
X249728013Y-100838000D01*
X155067000Y-100838000D01*
X155067000Y-99345750D01*
X160005000Y-99345750D01*
X160005000Y-99848809D01*
X160101673Y-100082198D01*
X160280301Y-100260827D01*
X160513690Y-100357500D01*
X161004250Y-100357500D01*
X161163000Y-100198750D01*
X161163000Y-99187000D01*
X161417000Y-99187000D01*
X161417000Y-100198750D01*
X161575750Y-100357500D01*
X162066310Y-100357500D01*
X162299699Y-100260827D01*
X162478327Y-100082198D01*
X162575000Y-99848809D01*
X162575000Y-99345750D01*
X162416250Y-99187000D01*
X161417000Y-99187000D01*
X161163000Y-99187000D01*
X160163750Y-99187000D01*
X160005000Y-99345750D01*
X155067000Y-99345750D01*
X155067000Y-91994999D01*
X159942560Y-91994999D01*
X159942560Y-92645001D01*
X160010873Y-92988436D01*
X160205414Y-93279586D01*
X160303313Y-93345000D01*
X160205414Y-93410414D01*
X160010873Y-93701564D01*
X159942560Y-94044999D01*
X159942560Y-94695001D01*
X160010873Y-95038436D01*
X160205414Y-95329586D01*
X160496564Y-95524127D01*
X160530000Y-95530778D01*
X160530001Y-95904442D01*
X160255414Y-96087914D01*
X160060874Y-96379065D01*
X159992560Y-96722500D01*
X159992560Y-97547500D01*
X160060874Y-97890935D01*
X160136042Y-98003433D01*
X160101673Y-98037802D01*
X160005000Y-98271191D01*
X160005000Y-98774250D01*
X160163750Y-98933000D01*
X161163000Y-98933000D01*
X161163000Y-98913000D01*
X161417000Y-98913000D01*
X161417000Y-98933000D01*
X162416250Y-98933000D01*
X162575000Y-98774250D01*
X162575000Y-98487745D01*
X169986861Y-98487745D01*
X170060995Y-98733864D01*
X170598223Y-98926965D01*
X171168454Y-98899778D01*
X171569005Y-98733864D01*
X171643139Y-98487745D01*
X170815000Y-97659605D01*
X169986861Y-98487745D01*
X162575000Y-98487745D01*
X162575000Y-98271191D01*
X162478327Y-98037802D01*
X162443958Y-98003433D01*
X162519126Y-97890935D01*
X162587440Y-97547500D01*
X162587440Y-97263223D01*
X169368035Y-97263223D01*
X169395222Y-97833454D01*
X169561136Y-98234005D01*
X169807255Y-98308139D01*
X170635395Y-97480000D01*
X170994605Y-97480000D01*
X171822745Y-98308139D01*
X172068864Y-98234005D01*
X172261965Y-97696777D01*
X172234778Y-97126546D01*
X172068864Y-96725995D01*
X171822745Y-96651861D01*
X170994605Y-97480000D01*
X170635395Y-97480000D01*
X169807255Y-96651861D01*
X169561136Y-96725995D01*
X169368035Y-97263223D01*
X162587440Y-97263223D01*
X162587440Y-96722500D01*
X162537663Y-96472255D01*
X169986861Y-96472255D01*
X170815000Y-97300395D01*
X171643139Y-96472255D01*
X171569005Y-96226136D01*
X171414916Y-96170750D01*
X177135000Y-96170750D01*
X177135000Y-97311310D01*
X177231673Y-97544699D01*
X177410302Y-97723327D01*
X177643691Y-97820000D01*
X178784250Y-97820000D01*
X178943000Y-97661250D01*
X178943000Y-96012000D01*
X179197000Y-96012000D01*
X179197000Y-97661250D01*
X179355750Y-97820000D01*
X180496309Y-97820000D01*
X180729698Y-97723327D01*
X180908327Y-97544699D01*
X181005000Y-97311310D01*
X181005000Y-96170750D01*
X180846250Y-96012000D01*
X179197000Y-96012000D01*
X178943000Y-96012000D01*
X177293750Y-96012000D01*
X177135000Y-96170750D01*
X171414916Y-96170750D01*
X171031777Y-96033035D01*
X170461546Y-96060222D01*
X170060995Y-96226136D01*
X169986861Y-96472255D01*
X162537663Y-96472255D01*
X162519126Y-96379065D01*
X162324586Y-96087914D01*
X162050000Y-95904442D01*
X162050000Y-95530778D01*
X162083436Y-95524127D01*
X162374586Y-95329586D01*
X162569127Y-95038436D01*
X162576374Y-95002002D01*
X162663748Y-95002002D01*
X162505000Y-95160750D01*
X162505000Y-95626309D01*
X162601673Y-95859698D01*
X162780301Y-96038327D01*
X163013690Y-96135000D01*
X164179250Y-96135000D01*
X164338000Y-95976250D01*
X164338000Y-95002000D01*
X164592000Y-95002000D01*
X164592000Y-95976250D01*
X164750750Y-96135000D01*
X165916310Y-96135000D01*
X166149699Y-96038327D01*
X166328327Y-95859698D01*
X166425000Y-95626309D01*
X166425000Y-95160750D01*
X166266250Y-95002000D01*
X164592000Y-95002000D01*
X164338000Y-95002000D01*
X164318000Y-95002000D01*
X164318000Y-94748000D01*
X164338000Y-94748000D01*
X164338000Y-94728000D01*
X164592000Y-94728000D01*
X164592000Y-94748000D01*
X166266250Y-94748000D01*
X166425000Y-94589250D01*
X166425000Y-94123691D01*
X166328327Y-93890302D01*
X166149699Y-93711673D01*
X166145660Y-93710000D01*
X166208969Y-93710000D01*
X166370000Y-93742031D01*
X166531031Y-93710000D01*
X169180000Y-93710000D01*
X169180000Y-94141030D01*
X169274864Y-94617944D01*
X169367560Y-94756674D01*
X169367560Y-94780000D01*
X169416843Y-95027765D01*
X169557191Y-95237809D01*
X169767235Y-95378157D01*
X170015000Y-95427440D01*
X170038326Y-95427440D01*
X170177055Y-95520136D01*
X170815000Y-95647031D01*
X171452944Y-95520136D01*
X171591674Y-95427440D01*
X171615000Y-95427440D01*
X171862765Y-95378157D01*
X172072809Y-95237809D01*
X172213157Y-95027765D01*
X172262440Y-94780000D01*
X172262440Y-94756674D01*
X172355136Y-94617945D01*
X172386813Y-94458690D01*
X177135000Y-94458690D01*
X177135000Y-95599250D01*
X177293750Y-95758000D01*
X178943000Y-95758000D01*
X178943000Y-94108750D01*
X179197000Y-94108750D01*
X179197000Y-95758000D01*
X180846250Y-95758000D01*
X181005000Y-95599250D01*
X181005000Y-94458690D01*
X180908327Y-94225301D01*
X180729698Y-94046673D01*
X180496309Y-93950000D01*
X179355750Y-93950000D01*
X179197000Y-94108750D01*
X178943000Y-94108750D01*
X178784250Y-93950000D01*
X177643691Y-93950000D01*
X177410302Y-94046673D01*
X177231673Y-94225301D01*
X177135000Y-94458690D01*
X172386813Y-94458690D01*
X172450000Y-94141031D01*
X172450000Y-93710000D01*
X181567762Y-93710000D01*
X182435000Y-94577239D01*
X182435000Y-94783496D01*
X182429586Y-94788910D01*
X182135000Y-95500105D01*
X182135000Y-96269895D01*
X182429586Y-96981090D01*
X182973910Y-97525414D01*
X183685105Y-97820000D01*
X184454895Y-97820000D01*
X185166090Y-97525414D01*
X185710414Y-96981090D01*
X185991720Y-96301954D01*
X202740000Y-96301954D01*
X202740000Y-97748046D01*
X203293396Y-99084062D01*
X204315938Y-100106604D01*
X205651954Y-100660000D01*
X207098046Y-100660000D01*
X208434062Y-100106604D01*
X209456604Y-99084062D01*
X210010000Y-97748046D01*
X210010000Y-96301954D01*
X226740000Y-96301954D01*
X226740000Y-97748046D01*
X227293396Y-99084062D01*
X228315938Y-100106604D01*
X229651954Y-100660000D01*
X231098046Y-100660000D01*
X232434062Y-100106604D01*
X233456604Y-99084062D01*
X234010000Y-97748046D01*
X234010000Y-96301954D01*
X233456604Y-94965938D01*
X232434062Y-93943396D01*
X231098046Y-93390000D01*
X229651954Y-93390000D01*
X228315938Y-93943396D01*
X227293396Y-94965938D01*
X226740000Y-96301954D01*
X210010000Y-96301954D01*
X209456604Y-94965938D01*
X208434062Y-93943396D01*
X207098046Y-93390000D01*
X205651954Y-93390000D01*
X204315938Y-93943396D01*
X203293396Y-94965938D01*
X202740000Y-96301954D01*
X185991720Y-96301954D01*
X186005000Y-96269895D01*
X186005000Y-95500105D01*
X185710414Y-94788910D01*
X185705000Y-94783496D01*
X185705000Y-94061031D01*
X185737031Y-93900000D01*
X185610136Y-93262054D01*
X185339985Y-92857746D01*
X185248769Y-92721231D01*
X185112253Y-92630014D01*
X183804771Y-91322532D01*
X194052073Y-91322532D01*
X194150736Y-91589387D01*
X194760461Y-91815908D01*
X195410460Y-91791856D01*
X195899264Y-91589387D01*
X195997927Y-91322532D01*
X195025000Y-90349605D01*
X194052073Y-91322532D01*
X183804771Y-91322532D01*
X183514988Y-91032750D01*
X183423769Y-90896231D01*
X182882945Y-90534864D01*
X182406031Y-90440000D01*
X182406030Y-90440000D01*
X182245000Y-90407969D01*
X182083970Y-90440000D01*
X170976031Y-90440000D01*
X170815000Y-90407969D01*
X170653969Y-90440000D01*
X167230000Y-90440000D01*
X167230000Y-88856453D01*
X167446431Y-88640022D01*
X179899584Y-88640022D01*
X180120353Y-89010743D01*
X181092012Y-89404119D01*
X182140247Y-89395713D01*
X183069647Y-89010743D01*
X183290416Y-88640022D01*
X181595000Y-86944605D01*
X179899584Y-88640022D01*
X167446431Y-88640022D01*
X167828845Y-88257608D01*
X168230000Y-87289134D01*
X168230000Y-86262012D01*
X178955881Y-86262012D01*
X178964287Y-87310247D01*
X179349257Y-88239647D01*
X179719978Y-88460416D01*
X181415395Y-86765000D01*
X181774605Y-86765000D01*
X183470022Y-88460416D01*
X183840743Y-88239647D01*
X184234119Y-87267988D01*
X184225713Y-86219753D01*
X184152067Y-86041954D01*
X184960000Y-86041954D01*
X184960000Y-87488046D01*
X185513396Y-88824062D01*
X186535938Y-89846604D01*
X187871954Y-90400000D01*
X189318046Y-90400000D01*
X190511968Y-89905461D01*
X193379092Y-89905461D01*
X193403144Y-90555460D01*
X193605613Y-91044264D01*
X193872468Y-91142927D01*
X194845395Y-90170000D01*
X195204605Y-90170000D01*
X196177532Y-91142927D01*
X196444387Y-91044264D01*
X196670908Y-90434539D01*
X196646856Y-89784540D01*
X196444387Y-89295736D01*
X196177532Y-89197073D01*
X195204605Y-90170000D01*
X194845395Y-90170000D01*
X193872468Y-89197073D01*
X193605613Y-89295736D01*
X193379092Y-89905461D01*
X190511968Y-89905461D01*
X190654062Y-89846604D01*
X191483198Y-89017468D01*
X194052073Y-89017468D01*
X195025000Y-89990395D01*
X195997927Y-89017468D01*
X195899264Y-88750613D01*
X195289539Y-88524092D01*
X194639540Y-88548144D01*
X194150736Y-88750613D01*
X194052073Y-89017468D01*
X191483198Y-89017468D01*
X191676604Y-88824062D01*
X192230000Y-87488046D01*
X192230000Y-86041954D01*
X191676604Y-84705938D01*
X190654062Y-83683396D01*
X189318046Y-83130000D01*
X187871954Y-83130000D01*
X186535938Y-83683396D01*
X185513396Y-84705938D01*
X184960000Y-86041954D01*
X184152067Y-86041954D01*
X183840743Y-85290353D01*
X183470022Y-85069584D01*
X181774605Y-86765000D01*
X181415395Y-86765000D01*
X179719978Y-85069584D01*
X179349257Y-85290353D01*
X178955881Y-86262012D01*
X168230000Y-86262012D01*
X168230000Y-86240866D01*
X167828845Y-85272392D01*
X167446431Y-84889978D01*
X179899584Y-84889978D01*
X181595000Y-86585395D01*
X183290416Y-84889978D01*
X183069647Y-84519257D01*
X182097988Y-84125881D01*
X181049753Y-84134287D01*
X180120353Y-84519257D01*
X179899584Y-84889978D01*
X167446431Y-84889978D01*
X167087608Y-84531155D01*
X166119134Y-84130000D01*
X165070866Y-84130000D01*
X164102392Y-84531155D01*
X163361155Y-85272392D01*
X162960000Y-86240866D01*
X162960000Y-87289134D01*
X163361155Y-88257608D01*
X163960000Y-88856453D01*
X163960001Y-90508419D01*
X163827055Y-90534864D01*
X163426420Y-90802560D01*
X163390000Y-90802560D01*
X163046565Y-90870874D01*
X162755414Y-91065414D01*
X162560874Y-91356565D01*
X162520408Y-91560000D01*
X162507946Y-91560000D01*
X162374586Y-91360414D01*
X162083436Y-91165873D01*
X161740001Y-91097560D01*
X160839999Y-91097560D01*
X160496564Y-91165873D01*
X160205414Y-91360414D01*
X160010873Y-91651564D01*
X159942560Y-91994999D01*
X155067000Y-91994999D01*
X155067000Y-87746367D01*
X155513396Y-88824062D01*
X156535938Y-89846604D01*
X157871954Y-90400000D01*
X159318046Y-90400000D01*
X160654062Y-89846604D01*
X161676604Y-88824062D01*
X162230000Y-87488046D01*
X162230000Y-86041954D01*
X161676604Y-84705938D01*
X160654062Y-83683396D01*
X159318046Y-83130000D01*
X157871954Y-83130000D01*
X156535938Y-83683396D01*
X155513396Y-84705938D01*
X155067000Y-85783633D01*
X155067000Y-79892532D01*
X194052073Y-79892532D01*
X194150736Y-80159387D01*
X194760461Y-80385908D01*
X195410460Y-80361856D01*
X195899264Y-80159387D01*
X195997927Y-79892532D01*
X195025000Y-78919605D01*
X194052073Y-79892532D01*
X155067000Y-79892532D01*
X155067000Y-78475461D01*
X193379092Y-78475461D01*
X193403144Y-79125460D01*
X193605613Y-79614264D01*
X193872468Y-79712927D01*
X194845395Y-78740000D01*
X195204605Y-78740000D01*
X196177532Y-79712927D01*
X196444387Y-79614264D01*
X196670908Y-79004539D01*
X196646856Y-78354540D01*
X196444387Y-77865736D01*
X196177532Y-77767073D01*
X195204605Y-78740000D01*
X194845395Y-78740000D01*
X193872468Y-77767073D01*
X193605613Y-77865736D01*
X193379092Y-78475461D01*
X155067000Y-78475461D01*
X155067000Y-77587468D01*
X194052073Y-77587468D01*
X195025000Y-78560395D01*
X195997927Y-77587468D01*
X195899264Y-77320613D01*
X195289539Y-77094092D01*
X194639540Y-77118144D01*
X194150736Y-77320613D01*
X194052073Y-77587468D01*
X155067000Y-77587468D01*
X155067000Y-50047532D01*
X194052073Y-50047532D01*
X194150736Y-50314387D01*
X194760461Y-50540908D01*
X195410460Y-50516856D01*
X195899264Y-50314387D01*
X195997927Y-50047532D01*
X195025000Y-49074605D01*
X194052073Y-50047532D01*
X155067000Y-50047532D01*
X155067000Y-48630461D01*
X193379092Y-48630461D01*
X193403144Y-49280460D01*
X193605613Y-49769264D01*
X193872468Y-49867927D01*
X194845395Y-48895000D01*
X195204605Y-48895000D01*
X196177532Y-49867927D01*
X196444387Y-49769264D01*
X196670908Y-49159539D01*
X196646856Y-48509540D01*
X196444387Y-48020736D01*
X196177532Y-47922073D01*
X195204605Y-48895000D01*
X194845395Y-48895000D01*
X193872468Y-47922073D01*
X193605613Y-48020736D01*
X193379092Y-48630461D01*
X155067000Y-48630461D01*
X155067000Y-47742468D01*
X194052073Y-47742468D01*
X195025000Y-48715395D01*
X195997927Y-47742468D01*
X195899264Y-47475613D01*
X195289539Y-47249092D01*
X194639540Y-47273144D01*
X194150736Y-47475613D01*
X194052073Y-47742468D01*
X155067000Y-47742468D01*
X155067000Y-38617532D01*
X194052073Y-38617532D01*
X194150736Y-38884387D01*
X194760461Y-39110908D01*
X195410460Y-39086856D01*
X195899264Y-38884387D01*
X195997927Y-38617532D01*
X195025000Y-37644605D01*
X194052073Y-38617532D01*
X155067000Y-38617532D01*
X155067000Y-37200461D01*
X193379092Y-37200461D01*
X193403144Y-37850460D01*
X193605613Y-38339264D01*
X193872468Y-38437927D01*
X194845395Y-37465000D01*
X195204605Y-37465000D01*
X196177532Y-38437927D01*
X196444387Y-38339264D01*
X196670908Y-37729539D01*
X196646856Y-37079540D01*
X196444387Y-36590736D01*
X196177532Y-36492073D01*
X195204605Y-37465000D01*
X194845395Y-37465000D01*
X193872468Y-36492073D01*
X193605613Y-36590736D01*
X193379092Y-37200461D01*
X155067000Y-37200461D01*
X155067000Y-36312468D01*
X194052073Y-36312468D01*
X195025000Y-37285395D01*
X195997927Y-36312468D01*
X195899264Y-36045613D01*
X195289539Y-35819092D01*
X194639540Y-35843144D01*
X194150736Y-36045613D01*
X194052073Y-36312468D01*
X155067000Y-36312468D01*
X155067000Y-25746367D01*
X155513396Y-26824062D01*
X156535938Y-27846604D01*
X157871954Y-28400000D01*
X159318046Y-28400000D01*
X160654062Y-27846604D01*
X161676604Y-26824062D01*
X162230000Y-25488046D01*
X162230000Y-24240866D01*
X162960000Y-24240866D01*
X162960000Y-25289134D01*
X163361155Y-26257608D01*
X164102392Y-26998845D01*
X165070866Y-27400000D01*
X165917762Y-27400000D01*
X169405014Y-30887253D01*
X169496231Y-31023769D01*
X170037055Y-31385136D01*
X170513969Y-31480000D01*
X170513970Y-31480000D01*
X170675000Y-31512031D01*
X170836030Y-31480000D01*
X197442762Y-31480000D01*
X198390000Y-32427239D01*
X198390000Y-36402458D01*
X198377560Y-36465000D01*
X198377560Y-37366509D01*
X198357969Y-37465000D01*
X198377560Y-37563491D01*
X198377560Y-38465000D01*
X198390000Y-38527543D01*
X198390001Y-47832455D01*
X198377560Y-47895000D01*
X198377560Y-49895000D01*
X198390000Y-49957543D01*
X198390001Y-51733966D01*
X198357969Y-51895000D01*
X198403271Y-52122746D01*
X198484865Y-52532945D01*
X198846232Y-53073769D01*
X198982748Y-53164986D01*
X199660000Y-53842239D01*
X199660000Y-58457746D01*
X199587357Y-58282370D01*
X198257630Y-56952643D01*
X196520259Y-56233000D01*
X194639741Y-56233000D01*
X192902370Y-56952643D01*
X191572643Y-58282370D01*
X190853000Y-60019741D01*
X190853000Y-61900259D01*
X191572643Y-63637630D01*
X192902370Y-64967357D01*
X194639741Y-65687000D01*
X196520259Y-65687000D01*
X198257630Y-64967357D01*
X199587357Y-63637630D01*
X199660001Y-63462253D01*
X199660001Y-71712760D01*
X198982750Y-72390012D01*
X198846231Y-72481231D01*
X198484864Y-73022056D01*
X198403271Y-73432254D01*
X198357969Y-73660000D01*
X198390000Y-73821030D01*
X198390001Y-77677455D01*
X198377560Y-77740000D01*
X198377560Y-78641509D01*
X198357969Y-78740000D01*
X198377560Y-78838491D01*
X198377560Y-79740000D01*
X198390001Y-79802545D01*
X198390000Y-89107459D01*
X198377560Y-89170000D01*
X198377560Y-91170000D01*
X198426843Y-91417765D01*
X198567191Y-91627809D01*
X198777235Y-91768157D01*
X199025000Y-91817440D01*
X199926509Y-91817440D01*
X200025000Y-91837031D01*
X200123491Y-91817440D01*
X201025000Y-91817440D01*
X201272765Y-91768157D01*
X201482809Y-91627809D01*
X201623157Y-91417765D01*
X201672440Y-91170000D01*
X201672440Y-90678000D01*
X208140560Y-90678000D01*
X208140560Y-92202000D01*
X208189843Y-92449765D01*
X208330191Y-92659809D01*
X208540235Y-92800157D01*
X208788000Y-92849440D01*
X210312000Y-92849440D01*
X210559765Y-92800157D01*
X210769809Y-92659809D01*
X210910157Y-92449765D01*
X210945653Y-92271310D01*
X211298663Y-92624320D01*
X211812119Y-92837000D01*
X212367881Y-92837000D01*
X212881337Y-92624320D01*
X213274320Y-92231337D01*
X213360000Y-92024487D01*
X213445680Y-92231337D01*
X213838663Y-92624320D01*
X214352119Y-92837000D01*
X214907881Y-92837000D01*
X215421337Y-92624320D01*
X215814320Y-92231337D01*
X215900000Y-92024487D01*
X215985680Y-92231337D01*
X216378663Y-92624320D01*
X216892119Y-92837000D01*
X217447881Y-92837000D01*
X217961337Y-92624320D01*
X218354320Y-92231337D01*
X218440000Y-92024487D01*
X218525680Y-92231337D01*
X218918663Y-92624320D01*
X219432119Y-92837000D01*
X219987881Y-92837000D01*
X220501337Y-92624320D01*
X220894320Y-92231337D01*
X220980000Y-92024487D01*
X221065680Y-92231337D01*
X221458663Y-92624320D01*
X221972119Y-92837000D01*
X222527881Y-92837000D01*
X223041337Y-92624320D01*
X223434320Y-92231337D01*
X223520000Y-92024487D01*
X223605680Y-92231337D01*
X223998663Y-92624320D01*
X224512119Y-92837000D01*
X225067881Y-92837000D01*
X225581337Y-92624320D01*
X225974320Y-92231337D01*
X226060000Y-92024487D01*
X226145680Y-92231337D01*
X226538663Y-92624320D01*
X227052119Y-92837000D01*
X227607881Y-92837000D01*
X228121337Y-92624320D01*
X228514320Y-92231337D01*
X228727000Y-91717881D01*
X228727000Y-91162119D01*
X228514320Y-90648663D01*
X228121337Y-90255680D01*
X227607881Y-90043000D01*
X227052119Y-90043000D01*
X226538663Y-90255680D01*
X226145680Y-90648663D01*
X226060000Y-90855513D01*
X225974320Y-90648663D01*
X225581337Y-90255680D01*
X225067881Y-90043000D01*
X224512119Y-90043000D01*
X223998663Y-90255680D01*
X223605680Y-90648663D01*
X223520000Y-90855513D01*
X223434320Y-90648663D01*
X223041337Y-90255680D01*
X222527881Y-90043000D01*
X222181801Y-90043000D01*
X225106171Y-87118631D01*
X248211522Y-87118631D01*
X248286369Y-87133519D01*
X248361216Y-87118631D01*
X248361221Y-87118631D01*
X248582906Y-87074535D01*
X248834298Y-86906560D01*
X248876700Y-86843101D01*
X250447026Y-85272775D01*
X250677402Y-85318600D01*
X250972598Y-85318600D01*
X251409725Y-85231650D01*
X251905430Y-84900430D01*
X252236650Y-84404725D01*
X252352959Y-83820000D01*
X252236650Y-83235275D01*
X251905430Y-82739570D01*
X251621719Y-82550000D01*
X251905430Y-82360430D01*
X252236650Y-81864725D01*
X252352959Y-81280000D01*
X252236650Y-80695275D01*
X251905430Y-80199570D01*
X251409725Y-79868350D01*
X250972598Y-79781400D01*
X250677402Y-79781400D01*
X250240275Y-79868350D01*
X249744570Y-80199570D01*
X249555000Y-80483281D01*
X249365430Y-80199570D01*
X248869725Y-79868350D01*
X248432598Y-79781400D01*
X248137402Y-79781400D01*
X247700275Y-79868350D01*
X247204570Y-80199570D01*
X247015000Y-80483281D01*
X246825430Y-80199570D01*
X246329725Y-79868350D01*
X245892598Y-79781400D01*
X245597402Y-79781400D01*
X245160275Y-79868350D01*
X244664570Y-80199570D01*
X244475000Y-80483281D01*
X244285430Y-80199570D01*
X243789725Y-79868350D01*
X243352598Y-79781400D01*
X243057402Y-79781400D01*
X242827026Y-79827225D01*
X242606730Y-79606929D01*
X242564328Y-79543470D01*
X242312936Y-79375495D01*
X242091251Y-79331399D01*
X242091246Y-79331399D01*
X242016399Y-79316511D01*
X241941552Y-79331399D01*
X228602253Y-79331399D01*
X228739144Y-78947698D01*
X228711362Y-78392632D01*
X228552397Y-78008857D01*
X228310213Y-77939392D01*
X227509605Y-78740000D01*
X227523748Y-78754143D01*
X227344143Y-78933748D01*
X227330000Y-78919605D01*
X227315858Y-78933748D01*
X227136253Y-78754143D01*
X227150395Y-78740000D01*
X226349787Y-77939392D01*
X226107603Y-78008857D01*
X226057465Y-78149393D01*
X225974320Y-77948663D01*
X225785444Y-77759787D01*
X226529392Y-77759787D01*
X227330000Y-78560395D01*
X228130608Y-77759787D01*
X228061143Y-77517603D01*
X227537698Y-77330856D01*
X226982632Y-77358638D01*
X226598857Y-77517603D01*
X226529392Y-77759787D01*
X225785444Y-77759787D01*
X225581337Y-77555680D01*
X225550000Y-77542700D01*
X225550000Y-76900000D01*
X225919250Y-76900000D01*
X226078000Y-76741250D01*
X226078000Y-75692000D01*
X226332000Y-75692000D01*
X226332000Y-76741250D01*
X226490750Y-76900000D01*
X226906309Y-76900000D01*
X227139698Y-76803327D01*
X227318327Y-76624699D01*
X227415000Y-76391310D01*
X227415000Y-75850750D01*
X227256250Y-75692000D01*
X226332000Y-75692000D01*
X226078000Y-75692000D01*
X226058000Y-75692000D01*
X226058000Y-75438000D01*
X226078000Y-75438000D01*
X226078000Y-74388750D01*
X226332000Y-74388750D01*
X226332000Y-75438000D01*
X227256250Y-75438000D01*
X227415000Y-75279250D01*
X227415000Y-75205666D01*
X228315938Y-76106604D01*
X229651954Y-76660000D01*
X231098046Y-76660000D01*
X232434062Y-76106604D01*
X233456604Y-75084062D01*
X234010000Y-73748046D01*
X234010000Y-72301954D01*
X233456604Y-70965938D01*
X232434062Y-69943396D01*
X231098046Y-69390000D01*
X229651954Y-69390000D01*
X228315938Y-69943396D01*
X227293396Y-70965938D01*
X226740000Y-72301954D01*
X226740000Y-73748046D01*
X226946533Y-74246661D01*
X226906309Y-74230000D01*
X226490750Y-74230000D01*
X226332000Y-74388750D01*
X226078000Y-74388750D01*
X225919250Y-74230000D01*
X225503691Y-74230000D01*
X225270302Y-74326673D01*
X225115377Y-74481597D01*
X225114586Y-74480414D01*
X224823436Y-74285873D01*
X224480001Y-74217560D01*
X223829999Y-74217560D01*
X223486564Y-74285873D01*
X223265000Y-74433918D01*
X223265000Y-65234281D01*
X223528839Y-64839417D01*
X223615000Y-64406255D01*
X223615000Y-63863744D01*
X223528839Y-63430582D01*
X223200625Y-62939375D01*
X222709417Y-62611161D01*
X222130000Y-62495908D01*
X221550582Y-62611161D01*
X221059375Y-62939375D01*
X220880000Y-63207829D01*
X220700625Y-62939375D01*
X220209417Y-62611161D01*
X219630000Y-62495908D01*
X219050582Y-62611161D01*
X218559375Y-62939375D01*
X218380000Y-63207829D01*
X218200625Y-62939375D01*
X217709417Y-62611161D01*
X217130000Y-62495908D01*
X216550582Y-62611161D01*
X216059375Y-62939375D01*
X216016758Y-63003156D01*
X215864586Y-62775414D01*
X215573435Y-62580874D01*
X215230000Y-62512560D01*
X214030000Y-62512560D01*
X213686565Y-62580874D01*
X213395414Y-62775414D01*
X213200874Y-63066565D01*
X213132560Y-63410000D01*
X213132560Y-64860000D01*
X213200874Y-65203435D01*
X213395414Y-65494586D01*
X213495000Y-65561127D01*
X213495001Y-77899342D01*
X213445680Y-77948663D01*
X213366572Y-78139647D01*
X213312397Y-78008857D01*
X213070213Y-77939392D01*
X212269605Y-78740000D01*
X213070213Y-79540608D01*
X213312397Y-79471143D01*
X213362535Y-79330607D01*
X213445680Y-79531337D01*
X213838663Y-79924320D01*
X214352119Y-80137000D01*
X214907881Y-80137000D01*
X215421337Y-79924320D01*
X215814320Y-79531337D01*
X215900000Y-79324487D01*
X215985680Y-79531337D01*
X216378663Y-79924320D01*
X216892119Y-80137000D01*
X217447881Y-80137000D01*
X217961337Y-79924320D01*
X218354320Y-79531337D01*
X218440000Y-79324487D01*
X218525680Y-79531337D01*
X218918663Y-79924320D01*
X219432119Y-80137000D01*
X219987881Y-80137000D01*
X220501337Y-79924320D01*
X220894320Y-79531337D01*
X220980000Y-79324487D01*
X221065680Y-79531337D01*
X221458663Y-79924320D01*
X221972119Y-80137000D01*
X222527881Y-80137000D01*
X223041337Y-79924320D01*
X223434320Y-79531337D01*
X223520000Y-79324487D01*
X223605680Y-79531337D01*
X223998663Y-79924320D01*
X224039716Y-79941325D01*
X224074097Y-80114167D01*
X224131162Y-80199570D01*
X224242072Y-80365559D01*
X224305528Y-80407959D01*
X224473438Y-80575869D01*
X224515840Y-80639328D01*
X224767232Y-80807303D01*
X224988917Y-80851399D01*
X224988921Y-80851399D01*
X225063769Y-80866287D01*
X225138617Y-80851399D01*
X239222295Y-80851399D01*
X239137041Y-81280000D01*
X239253350Y-81864725D01*
X239579651Y-82353068D01*
X239553635Y-82358243D01*
X239343591Y-82498591D01*
X239203243Y-82708635D01*
X239153960Y-82956400D01*
X239153960Y-83060000D01*
X217244846Y-83060000D01*
X217169999Y-83045112D01*
X217095152Y-83060000D01*
X217095148Y-83060000D01*
X216873463Y-83104096D01*
X216873461Y-83104097D01*
X216873462Y-83104097D01*
X216685526Y-83229671D01*
X216685524Y-83229673D01*
X216622071Y-83272071D01*
X216579673Y-83335524D01*
X210947000Y-88968198D01*
X210947000Y-88622119D01*
X210734320Y-88108663D01*
X210341337Y-87715680D01*
X210134487Y-87630000D01*
X210341337Y-87544320D01*
X210734320Y-87151337D01*
X210947000Y-86637881D01*
X210947000Y-86082119D01*
X210734320Y-85568663D01*
X210341337Y-85175680D01*
X209827881Y-84963000D01*
X209272119Y-84963000D01*
X208758663Y-85175680D01*
X208365680Y-85568663D01*
X208153000Y-86082119D01*
X208153000Y-86637881D01*
X208365680Y-87151337D01*
X208758663Y-87544320D01*
X208965513Y-87630000D01*
X208758663Y-87715680D01*
X208365680Y-88108663D01*
X208153000Y-88622119D01*
X208153000Y-89177881D01*
X208365680Y-89691337D01*
X208718690Y-90044347D01*
X208540235Y-90079843D01*
X208330191Y-90220191D01*
X208189843Y-90430235D01*
X208140560Y-90678000D01*
X201672440Y-90678000D01*
X201672440Y-89170000D01*
X201660000Y-89107459D01*
X201660000Y-81825750D01*
X204415000Y-81825750D01*
X204415000Y-82291309D01*
X204511673Y-82524698D01*
X204690301Y-82703327D01*
X204923690Y-82800000D01*
X206089250Y-82800000D01*
X206248000Y-82641250D01*
X206248000Y-81667000D01*
X206502000Y-81667000D01*
X206502000Y-82641250D01*
X206660750Y-82800000D01*
X207826310Y-82800000D01*
X208059699Y-82703327D01*
X208238327Y-82524698D01*
X208335000Y-82291309D01*
X208335000Y-81825750D01*
X208176250Y-81667000D01*
X206502000Y-81667000D01*
X206248000Y-81667000D01*
X204573750Y-81667000D01*
X204415000Y-81825750D01*
X201660000Y-81825750D01*
X201660000Y-80375000D01*
X204694340Y-80375000D01*
X204690301Y-80376673D01*
X204511673Y-80555302D01*
X204415000Y-80788691D01*
X204415000Y-81254250D01*
X204573750Y-81413000D01*
X206248000Y-81413000D01*
X206248000Y-81393000D01*
X206502000Y-81393000D01*
X206502000Y-81413000D01*
X208176250Y-81413000D01*
X208335000Y-81254250D01*
X208335000Y-80788691D01*
X208238327Y-80555302D01*
X208059699Y-80376673D01*
X208055660Y-80375000D01*
X209711031Y-80375000D01*
X210187945Y-80280136D01*
X210728769Y-79918769D01*
X210861439Y-79720213D01*
X211289392Y-79720213D01*
X211358857Y-79962397D01*
X211882302Y-80149144D01*
X212437368Y-80121362D01*
X212821143Y-79962397D01*
X212890608Y-79720213D01*
X212090000Y-78919605D01*
X211289392Y-79720213D01*
X210861439Y-79720213D01*
X211002089Y-79509717D01*
X211109787Y-79540608D01*
X211910395Y-78740000D01*
X211109787Y-77939392D01*
X211002089Y-77970283D01*
X210861440Y-77759787D01*
X211289392Y-77759787D01*
X212090000Y-78560395D01*
X212890608Y-77759787D01*
X212821143Y-77517603D01*
X212297698Y-77330856D01*
X211742632Y-77358638D01*
X211358857Y-77517603D01*
X211289392Y-77759787D01*
X210861440Y-77759787D01*
X210728769Y-77561231D01*
X210187945Y-77199864D01*
X209711031Y-77105000D01*
X201660000Y-77105000D01*
X201660000Y-74337238D01*
X202337252Y-73659986D01*
X202473769Y-73568769D01*
X202740000Y-73170326D01*
X202740000Y-73748046D01*
X203293396Y-75084062D01*
X204315938Y-76106604D01*
X205651954Y-76660000D01*
X207098046Y-76660000D01*
X208434062Y-76106604D01*
X209456604Y-75084062D01*
X210010000Y-73748046D01*
X210010000Y-72301954D01*
X209456604Y-70965938D01*
X208434062Y-69943396D01*
X207098046Y-69390000D01*
X205651954Y-69390000D01*
X204315938Y-69943396D01*
X203293396Y-70965938D01*
X202930000Y-71843253D01*
X202930000Y-63385000D01*
X202972560Y-63385000D01*
X202972560Y-64885000D01*
X203040874Y-65228435D01*
X203235414Y-65519586D01*
X203526565Y-65714126D01*
X203870000Y-65782440D01*
X205070000Y-65782440D01*
X205413435Y-65714126D01*
X205704586Y-65519586D01*
X205881648Y-65254593D01*
X206077955Y-65473664D01*
X206600740Y-65724553D01*
X206613110Y-65726476D01*
X206843000Y-65605155D01*
X206843000Y-64262000D01*
X207097000Y-64262000D01*
X207097000Y-65605155D01*
X207326890Y-65726476D01*
X207339260Y-65724553D01*
X207862045Y-65473664D01*
X208249024Y-65041812D01*
X208441284Y-64494742D01*
X208297231Y-64262000D01*
X207097000Y-64262000D01*
X206843000Y-64262000D01*
X206823000Y-64262000D01*
X206823000Y-64008000D01*
X206843000Y-64008000D01*
X206843000Y-62664845D01*
X207097000Y-62664845D01*
X207097000Y-64008000D01*
X208297231Y-64008000D01*
X208441284Y-63775258D01*
X208249024Y-63228188D01*
X207862045Y-62796336D01*
X207339260Y-62545447D01*
X207326890Y-62543524D01*
X207097000Y-62664845D01*
X206843000Y-62664845D01*
X206613110Y-62543524D01*
X206600740Y-62545447D01*
X206077955Y-62796336D01*
X205881648Y-63015407D01*
X205704586Y-62750414D01*
X205413435Y-62555874D01*
X205070000Y-62487560D01*
X203870000Y-62487560D01*
X203526565Y-62555874D01*
X203235414Y-62750414D01*
X203040874Y-63041565D01*
X202972560Y-63385000D01*
X202930000Y-63385000D01*
X202930000Y-56931747D01*
X203293396Y-57809062D01*
X204315938Y-58831604D01*
X205651954Y-59385000D01*
X207098046Y-59385000D01*
X208434062Y-58831604D01*
X209456604Y-57809062D01*
X210010000Y-56473046D01*
X210010000Y-55026954D01*
X226740000Y-55026954D01*
X226740000Y-56473046D01*
X227293396Y-57809062D01*
X228315938Y-58831604D01*
X229651954Y-59385000D01*
X231098046Y-59385000D01*
X232434062Y-58831604D01*
X233456604Y-57809062D01*
X234010000Y-56473046D01*
X234010000Y-55026954D01*
X233456604Y-53690938D01*
X232434062Y-52668396D01*
X231098046Y-52115000D01*
X229651954Y-52115000D01*
X228315938Y-52668396D01*
X227293396Y-53690938D01*
X226740000Y-55026954D01*
X210010000Y-55026954D01*
X209456604Y-53690938D01*
X208434062Y-52668396D01*
X207098046Y-52115000D01*
X205651954Y-52115000D01*
X204315938Y-52668396D01*
X203293396Y-53690938D01*
X202930000Y-54568253D01*
X202930000Y-53326025D01*
X202962030Y-53164999D01*
X202930000Y-53003973D01*
X202930000Y-53003969D01*
X202835136Y-52527055D01*
X202473769Y-51986231D01*
X202337253Y-51895014D01*
X201660000Y-51217762D01*
X201660000Y-49957541D01*
X201672440Y-49895000D01*
X201672440Y-49403000D01*
X208140560Y-49403000D01*
X208140560Y-50927000D01*
X208189843Y-51174765D01*
X208330191Y-51384809D01*
X208540235Y-51525157D01*
X208788000Y-51574440D01*
X210312000Y-51574440D01*
X210559765Y-51525157D01*
X210769809Y-51384809D01*
X210910157Y-51174765D01*
X210945653Y-50996310D01*
X211298663Y-51349320D01*
X211812119Y-51562000D01*
X212367881Y-51562000D01*
X212881337Y-51349320D01*
X213274320Y-50956337D01*
X213360000Y-50749487D01*
X213445680Y-50956337D01*
X213838663Y-51349320D01*
X214352119Y-51562000D01*
X214907881Y-51562000D01*
X215421337Y-51349320D01*
X215814320Y-50956337D01*
X215900000Y-50749487D01*
X215985680Y-50956337D01*
X216378663Y-51349320D01*
X216892119Y-51562000D01*
X217447881Y-51562000D01*
X217961337Y-51349320D01*
X218354320Y-50956337D01*
X218440000Y-50749487D01*
X218525680Y-50956337D01*
X218918663Y-51349320D01*
X219432119Y-51562000D01*
X219987881Y-51562000D01*
X220501337Y-51349320D01*
X220894320Y-50956337D01*
X220980000Y-50749487D01*
X221065680Y-50956337D01*
X221458663Y-51349320D01*
X221972119Y-51562000D01*
X222527881Y-51562000D01*
X223041337Y-51349320D01*
X223434320Y-50956337D01*
X223520000Y-50749487D01*
X223605680Y-50956337D01*
X223998663Y-51349320D01*
X224512119Y-51562000D01*
X225067881Y-51562000D01*
X225581337Y-51349320D01*
X225974320Y-50956337D01*
X226060000Y-50749487D01*
X226145680Y-50956337D01*
X226538663Y-51349320D01*
X227052119Y-51562000D01*
X227607881Y-51562000D01*
X228121337Y-51349320D01*
X228514320Y-50956337D01*
X228727000Y-50442881D01*
X228727000Y-49887119D01*
X228514320Y-49373663D01*
X228121337Y-48980680D01*
X227607881Y-48768000D01*
X227052119Y-48768000D01*
X226538663Y-48980680D01*
X226145680Y-49373663D01*
X226060000Y-49580513D01*
X225974320Y-49373663D01*
X225581337Y-48980680D01*
X225067881Y-48768000D01*
X224512119Y-48768000D01*
X223998663Y-48980680D01*
X223605680Y-49373663D01*
X223520000Y-49580513D01*
X223434320Y-49373663D01*
X223041337Y-48980680D01*
X222527881Y-48768000D01*
X222181801Y-48768000D01*
X225106171Y-45843631D01*
X248211522Y-45843631D01*
X248286369Y-45858519D01*
X248361216Y-45843631D01*
X248361221Y-45843631D01*
X248582906Y-45799535D01*
X248834298Y-45631560D01*
X248876700Y-45568101D01*
X250447026Y-43997775D01*
X250677402Y-44043600D01*
X250972598Y-44043600D01*
X251409725Y-43956650D01*
X251905430Y-43625430D01*
X252236650Y-43129725D01*
X252352959Y-42545000D01*
X252236650Y-41960275D01*
X251905430Y-41464570D01*
X251621719Y-41275000D01*
X251905430Y-41085430D01*
X252236650Y-40589725D01*
X252352959Y-40005000D01*
X252236650Y-39420275D01*
X251905430Y-38924570D01*
X251409725Y-38593350D01*
X250972598Y-38506400D01*
X250677402Y-38506400D01*
X250240275Y-38593350D01*
X249744570Y-38924570D01*
X249555000Y-39208281D01*
X249365430Y-38924570D01*
X248869725Y-38593350D01*
X248432598Y-38506400D01*
X248137402Y-38506400D01*
X247700275Y-38593350D01*
X247204570Y-38924570D01*
X247015000Y-39208281D01*
X246825430Y-38924570D01*
X246329725Y-38593350D01*
X245892598Y-38506400D01*
X245597402Y-38506400D01*
X245160275Y-38593350D01*
X244664570Y-38924570D01*
X244475000Y-39208281D01*
X244285430Y-38924570D01*
X243789725Y-38593350D01*
X243352598Y-38506400D01*
X243057402Y-38506400D01*
X242827026Y-38552225D01*
X242606730Y-38331929D01*
X242564328Y-38268470D01*
X242312936Y-38100495D01*
X242091251Y-38056399D01*
X242091246Y-38056399D01*
X242016399Y-38041511D01*
X241941552Y-38056399D01*
X228602253Y-38056399D01*
X228739144Y-37672698D01*
X228711362Y-37117632D01*
X228552397Y-36733857D01*
X228310213Y-36664392D01*
X227509605Y-37465000D01*
X227523748Y-37479143D01*
X227344143Y-37658748D01*
X227330000Y-37644605D01*
X227315858Y-37658748D01*
X227136253Y-37479143D01*
X227150395Y-37465000D01*
X226349787Y-36664392D01*
X226107603Y-36733857D01*
X226057465Y-36874393D01*
X225974320Y-36673663D01*
X225785444Y-36484787D01*
X226529392Y-36484787D01*
X227330000Y-37285395D01*
X228130608Y-36484787D01*
X228061143Y-36242603D01*
X227537698Y-36055856D01*
X226982632Y-36083638D01*
X226598857Y-36242603D01*
X226529392Y-36484787D01*
X225785444Y-36484787D01*
X225581337Y-36280680D01*
X225550000Y-36267700D01*
X225550000Y-35625000D01*
X225919250Y-35625000D01*
X226078000Y-35466250D01*
X226078000Y-34417000D01*
X226332000Y-34417000D01*
X226332000Y-35466250D01*
X226490750Y-35625000D01*
X226906309Y-35625000D01*
X227139698Y-35528327D01*
X227318327Y-35349699D01*
X227415000Y-35116310D01*
X227415000Y-34575750D01*
X227256250Y-34417000D01*
X226332000Y-34417000D01*
X226078000Y-34417000D01*
X226058000Y-34417000D01*
X226058000Y-34163000D01*
X226078000Y-34163000D01*
X226078000Y-33113750D01*
X226332000Y-33113750D01*
X226332000Y-34163000D01*
X227256250Y-34163000D01*
X227415000Y-34004250D01*
X227415000Y-33930666D01*
X228315938Y-34831604D01*
X229651954Y-35385000D01*
X231098046Y-35385000D01*
X232434062Y-34831604D01*
X233456604Y-33809062D01*
X234010000Y-32473046D01*
X234010000Y-31026954D01*
X233456604Y-29690938D01*
X232434062Y-28668396D01*
X231098046Y-28115000D01*
X229651954Y-28115000D01*
X228315938Y-28668396D01*
X227293396Y-29690938D01*
X226740000Y-31026954D01*
X226740000Y-32473046D01*
X226946533Y-32971661D01*
X226906309Y-32955000D01*
X226490750Y-32955000D01*
X226332000Y-33113750D01*
X226078000Y-33113750D01*
X225919250Y-32955000D01*
X225503691Y-32955000D01*
X225270302Y-33051673D01*
X225115377Y-33206597D01*
X225114586Y-33205414D01*
X224823436Y-33010873D01*
X224480001Y-32942560D01*
X223829999Y-32942560D01*
X223486564Y-33010873D01*
X223265000Y-33158918D01*
X223265000Y-24594281D01*
X223528839Y-24199417D01*
X223615000Y-23766255D01*
X223615000Y-23223744D01*
X223528839Y-22790582D01*
X223200625Y-22299375D01*
X222709417Y-21971161D01*
X222130000Y-21855908D01*
X221550582Y-21971161D01*
X221059375Y-22299375D01*
X220880000Y-22567829D01*
X220700625Y-22299375D01*
X220209417Y-21971161D01*
X219630000Y-21855908D01*
X219050582Y-21971161D01*
X218559375Y-22299375D01*
X218380000Y-22567829D01*
X218200625Y-22299375D01*
X217709417Y-21971161D01*
X217130000Y-21855908D01*
X216550582Y-21971161D01*
X216059375Y-22299375D01*
X216016758Y-22363156D01*
X215864586Y-22135414D01*
X215573435Y-21940874D01*
X215230000Y-21872560D01*
X214030000Y-21872560D01*
X213686565Y-21940874D01*
X213395414Y-22135414D01*
X213200874Y-22426565D01*
X213132560Y-22770000D01*
X213132560Y-24220000D01*
X213200874Y-24563435D01*
X213395414Y-24854586D01*
X213495000Y-24921127D01*
X213495001Y-36624342D01*
X213445680Y-36673663D01*
X213366572Y-36864647D01*
X213312397Y-36733857D01*
X213070213Y-36664392D01*
X212269605Y-37465000D01*
X213070213Y-38265608D01*
X213312397Y-38196143D01*
X213362535Y-38055607D01*
X213445680Y-38256337D01*
X213838663Y-38649320D01*
X214352119Y-38862000D01*
X214907881Y-38862000D01*
X215421337Y-38649320D01*
X215814320Y-38256337D01*
X215900000Y-38049487D01*
X215985680Y-38256337D01*
X216378663Y-38649320D01*
X216892119Y-38862000D01*
X217447881Y-38862000D01*
X217961337Y-38649320D01*
X218354320Y-38256337D01*
X218440000Y-38049487D01*
X218525680Y-38256337D01*
X218918663Y-38649320D01*
X219432119Y-38862000D01*
X219987881Y-38862000D01*
X220501337Y-38649320D01*
X220894320Y-38256337D01*
X220980000Y-38049487D01*
X221065680Y-38256337D01*
X221458663Y-38649320D01*
X221972119Y-38862000D01*
X222527881Y-38862000D01*
X223041337Y-38649320D01*
X223434320Y-38256337D01*
X223520000Y-38049487D01*
X223605680Y-38256337D01*
X223998663Y-38649320D01*
X224039716Y-38666325D01*
X224074097Y-38839167D01*
X224131162Y-38924570D01*
X224242072Y-39090559D01*
X224305528Y-39132959D01*
X224473438Y-39300869D01*
X224515840Y-39364328D01*
X224767232Y-39532303D01*
X224988917Y-39576399D01*
X224988921Y-39576399D01*
X225063769Y-39591287D01*
X225138617Y-39576399D01*
X239222295Y-39576399D01*
X239137041Y-40005000D01*
X239253350Y-40589725D01*
X239579651Y-41078068D01*
X239553635Y-41083243D01*
X239343591Y-41223591D01*
X239203243Y-41433635D01*
X239153960Y-41681400D01*
X239153960Y-41785000D01*
X217244846Y-41785000D01*
X217169999Y-41770112D01*
X217095152Y-41785000D01*
X217095148Y-41785000D01*
X216873463Y-41829096D01*
X216873461Y-41829097D01*
X216873462Y-41829097D01*
X216685526Y-41954671D01*
X216685524Y-41954673D01*
X216622071Y-41997071D01*
X216579673Y-42060524D01*
X210947000Y-47693198D01*
X210947000Y-47347119D01*
X210734320Y-46833663D01*
X210341337Y-46440680D01*
X210134487Y-46355000D01*
X210341337Y-46269320D01*
X210734320Y-45876337D01*
X210947000Y-45362881D01*
X210947000Y-44807119D01*
X210734320Y-44293663D01*
X210341337Y-43900680D01*
X209827881Y-43688000D01*
X209272119Y-43688000D01*
X208758663Y-43900680D01*
X208365680Y-44293663D01*
X208153000Y-44807119D01*
X208153000Y-45362881D01*
X208365680Y-45876337D01*
X208758663Y-46269320D01*
X208965513Y-46355000D01*
X208758663Y-46440680D01*
X208365680Y-46833663D01*
X208153000Y-47347119D01*
X208153000Y-47902881D01*
X208365680Y-48416337D01*
X208718690Y-48769347D01*
X208540235Y-48804843D01*
X208330191Y-48945191D01*
X208189843Y-49155235D01*
X208140560Y-49403000D01*
X201672440Y-49403000D01*
X201672440Y-47895000D01*
X201660000Y-47832459D01*
X201660000Y-40550750D01*
X204415000Y-40550750D01*
X204415000Y-41016309D01*
X204511673Y-41249698D01*
X204690301Y-41428327D01*
X204923690Y-41525000D01*
X206089250Y-41525000D01*
X206248000Y-41366250D01*
X206248000Y-40392000D01*
X206502000Y-40392000D01*
X206502000Y-41366250D01*
X206660750Y-41525000D01*
X207826310Y-41525000D01*
X208059699Y-41428327D01*
X208238327Y-41249698D01*
X208335000Y-41016309D01*
X208335000Y-40550750D01*
X208176250Y-40392000D01*
X206502000Y-40392000D01*
X206248000Y-40392000D01*
X204573750Y-40392000D01*
X204415000Y-40550750D01*
X201660000Y-40550750D01*
X201660000Y-39100000D01*
X204694340Y-39100000D01*
X204690301Y-39101673D01*
X204511673Y-39280302D01*
X204415000Y-39513691D01*
X204415000Y-39979250D01*
X204573750Y-40138000D01*
X206248000Y-40138000D01*
X206248000Y-40118000D01*
X206502000Y-40118000D01*
X206502000Y-40138000D01*
X208176250Y-40138000D01*
X208335000Y-39979250D01*
X208335000Y-39513691D01*
X208238327Y-39280302D01*
X208059699Y-39101673D01*
X208055660Y-39100000D01*
X209711031Y-39100000D01*
X210187945Y-39005136D01*
X210728769Y-38643769D01*
X210861439Y-38445213D01*
X211289392Y-38445213D01*
X211358857Y-38687397D01*
X211882302Y-38874144D01*
X212437368Y-38846362D01*
X212821143Y-38687397D01*
X212890608Y-38445213D01*
X212090000Y-37644605D01*
X211289392Y-38445213D01*
X210861439Y-38445213D01*
X211002089Y-38234717D01*
X211109787Y-38265608D01*
X211910395Y-37465000D01*
X211109787Y-36664392D01*
X211002089Y-36695283D01*
X210861440Y-36484787D01*
X211289392Y-36484787D01*
X212090000Y-37285395D01*
X212890608Y-36484787D01*
X212821143Y-36242603D01*
X212297698Y-36055856D01*
X211742632Y-36083638D01*
X211358857Y-36242603D01*
X211289392Y-36484787D01*
X210861440Y-36484787D01*
X210728769Y-36286231D01*
X210187945Y-35924864D01*
X209711031Y-35830000D01*
X201660000Y-35830000D01*
X201660000Y-31911030D01*
X201692031Y-31750000D01*
X201644696Y-31512031D01*
X201565136Y-31112055D01*
X201508274Y-31026954D01*
X202740000Y-31026954D01*
X202740000Y-32473046D01*
X203293396Y-33809062D01*
X204315938Y-34831604D01*
X205651954Y-35385000D01*
X207098046Y-35385000D01*
X208434062Y-34831604D01*
X209456604Y-33809062D01*
X210010000Y-32473046D01*
X210010000Y-31026954D01*
X209456604Y-29690938D01*
X208434062Y-28668396D01*
X207098046Y-28115000D01*
X205651954Y-28115000D01*
X204315938Y-28668396D01*
X203293396Y-29690938D01*
X202740000Y-31026954D01*
X201508274Y-31026954D01*
X201203769Y-30571231D01*
X201067253Y-30480014D01*
X199389988Y-28802750D01*
X199298769Y-28666231D01*
X198757945Y-28304864D01*
X198281031Y-28210000D01*
X198281030Y-28210000D01*
X198120000Y-28177969D01*
X197958970Y-28210000D01*
X197929582Y-28210000D01*
X198004127Y-28098436D01*
X198072440Y-27755001D01*
X198072440Y-26854999D01*
X198004127Y-26511564D01*
X197809586Y-26220414D01*
X197610000Y-26087054D01*
X197610000Y-24086410D01*
X197897086Y-23894586D01*
X198091626Y-23603435D01*
X198159940Y-23260000D01*
X198159940Y-22745000D01*
X202972560Y-22745000D01*
X202972560Y-24245000D01*
X203040874Y-24588435D01*
X203235414Y-24879586D01*
X203526565Y-25074126D01*
X203870000Y-25142440D01*
X205070000Y-25142440D01*
X205413435Y-25074126D01*
X205704586Y-24879586D01*
X205881648Y-24614593D01*
X206077955Y-24833664D01*
X206600740Y-25084553D01*
X206613110Y-25086476D01*
X206843000Y-24965155D01*
X206843000Y-23622000D01*
X207097000Y-23622000D01*
X207097000Y-24965155D01*
X207326890Y-25086476D01*
X207339260Y-25084553D01*
X207862045Y-24833664D01*
X208249024Y-24401812D01*
X208441284Y-23854742D01*
X208297231Y-23622000D01*
X207097000Y-23622000D01*
X206843000Y-23622000D01*
X206823000Y-23622000D01*
X206823000Y-23368000D01*
X206843000Y-23368000D01*
X206843000Y-22024845D01*
X207097000Y-22024845D01*
X207097000Y-23368000D01*
X208297231Y-23368000D01*
X208441284Y-23135258D01*
X208249024Y-22588188D01*
X207862045Y-22156336D01*
X207339260Y-21905447D01*
X207326890Y-21903524D01*
X207097000Y-22024845D01*
X206843000Y-22024845D01*
X206613110Y-21903524D01*
X206600740Y-21905447D01*
X206077955Y-22156336D01*
X205881648Y-22375407D01*
X205704586Y-22110414D01*
X205413435Y-21915874D01*
X205070000Y-21847560D01*
X203870000Y-21847560D01*
X203526565Y-21915874D01*
X203235414Y-22110414D01*
X203040874Y-22401565D01*
X202972560Y-22745000D01*
X198159940Y-22745000D01*
X198159940Y-22460000D01*
X198091626Y-22116565D01*
X197897086Y-21825414D01*
X197605935Y-21630874D01*
X197262500Y-21562560D01*
X196437500Y-21562560D01*
X196094065Y-21630874D01*
X195981567Y-21706042D01*
X195947198Y-21671673D01*
X195713809Y-21575000D01*
X195210750Y-21575000D01*
X195052000Y-21733750D01*
X195052000Y-22733000D01*
X195072000Y-22733000D01*
X195072000Y-22987000D01*
X195052000Y-22987000D01*
X195052000Y-23986250D01*
X195210750Y-24145000D01*
X195713809Y-24145000D01*
X195947198Y-24048327D01*
X195981567Y-24013958D01*
X196090001Y-24086410D01*
X196090000Y-26087054D01*
X195890414Y-26220414D01*
X195825000Y-26318313D01*
X195759586Y-26220414D01*
X195468436Y-26025873D01*
X195125001Y-25957560D01*
X194474999Y-25957560D01*
X194131564Y-26025873D01*
X193840414Y-26220414D01*
X193645873Y-26511564D01*
X193577560Y-26854999D01*
X193577560Y-27755001D01*
X193645873Y-28098436D01*
X193720418Y-28210000D01*
X189776747Y-28210000D01*
X190654062Y-27846604D01*
X191676604Y-26824062D01*
X192230000Y-25488046D01*
X192230000Y-24041954D01*
X191858781Y-23145750D01*
X193627500Y-23145750D01*
X193627500Y-23636310D01*
X193724173Y-23869699D01*
X193902802Y-24048327D01*
X194136191Y-24145000D01*
X194639250Y-24145000D01*
X194798000Y-23986250D01*
X194798000Y-22987000D01*
X193786250Y-22987000D01*
X193627500Y-23145750D01*
X191858781Y-23145750D01*
X191676604Y-22705938D01*
X191054356Y-22083690D01*
X193627500Y-22083690D01*
X193627500Y-22574250D01*
X193786250Y-22733000D01*
X194798000Y-22733000D01*
X194798000Y-21733750D01*
X194639250Y-21575000D01*
X194136191Y-21575000D01*
X193902802Y-21671673D01*
X193724173Y-21850301D01*
X193627500Y-22083690D01*
X191054356Y-22083690D01*
X190654062Y-21683396D01*
X189318046Y-21130000D01*
X187871954Y-21130000D01*
X186535938Y-21683396D01*
X185513396Y-22705938D01*
X184960000Y-24041954D01*
X184960000Y-25488046D01*
X185513396Y-26824062D01*
X186535938Y-27846604D01*
X187413253Y-28210000D01*
X171352239Y-28210000D01*
X169782261Y-26640022D01*
X179899584Y-26640022D01*
X180120353Y-27010743D01*
X181092012Y-27404119D01*
X182140247Y-27395713D01*
X183069647Y-27010743D01*
X183290416Y-26640022D01*
X181595000Y-24944605D01*
X179899584Y-26640022D01*
X169782261Y-26640022D01*
X168230000Y-25087762D01*
X168230000Y-24262012D01*
X178955881Y-24262012D01*
X178964287Y-25310247D01*
X179349257Y-26239647D01*
X179719978Y-26460416D01*
X181415395Y-24765000D01*
X181774605Y-24765000D01*
X183470022Y-26460416D01*
X183840743Y-26239647D01*
X184234119Y-25267988D01*
X184225713Y-24219753D01*
X183840743Y-23290353D01*
X183470022Y-23069584D01*
X181774605Y-24765000D01*
X181415395Y-24765000D01*
X179719978Y-23069584D01*
X179349257Y-23290353D01*
X178955881Y-24262012D01*
X168230000Y-24262012D01*
X168230000Y-24240866D01*
X167828845Y-23272392D01*
X167446431Y-22889978D01*
X179899584Y-22889978D01*
X181595000Y-24585395D01*
X183290416Y-22889978D01*
X183069647Y-22519257D01*
X182097988Y-22125881D01*
X181049753Y-22134287D01*
X180120353Y-22519257D01*
X179899584Y-22889978D01*
X167446431Y-22889978D01*
X167087608Y-22531155D01*
X166119134Y-22130000D01*
X165070866Y-22130000D01*
X164102392Y-22531155D01*
X163361155Y-23272392D01*
X162960000Y-24240866D01*
X162230000Y-24240866D01*
X162230000Y-24041954D01*
X161676604Y-22705938D01*
X160654062Y-21683396D01*
X159318046Y-21130000D01*
X157871954Y-21130000D01*
X156535938Y-21683396D01*
X155513396Y-22705938D01*
X155067000Y-23783633D01*
X155067000Y-20447000D01*
X249728013Y-20447000D01*
X248722643Y-21452370D01*
X248722643Y-21452370D01*
G37*
X248722643Y-21452370D02*
X248003000Y-23189741D01*
X248003000Y-25070259D01*
X248722643Y-26807630D01*
X250052370Y-28137357D01*
X251789741Y-28857000D01*
X253670259Y-28857000D01*
X255407630Y-28137357D01*
X256413000Y-27131987D01*
X256413000Y-94153013D01*
X255407630Y-93147643D01*
X253670259Y-92428000D01*
X251789741Y-92428000D01*
X250052370Y-93147643D01*
X248722643Y-94477370D01*
X248003000Y-96214741D01*
X248003000Y-98095259D01*
X248722643Y-99832630D01*
X249728013Y-100838000D01*
X155067000Y-100838000D01*
X155067000Y-99345750D01*
X160005000Y-99345750D01*
X160005000Y-99848809D01*
X160101673Y-100082198D01*
X160280301Y-100260827D01*
X160513690Y-100357500D01*
X161004250Y-100357500D01*
X161163000Y-100198750D01*
X161163000Y-99187000D01*
X161417000Y-99187000D01*
X161417000Y-100198750D01*
X161575750Y-100357500D01*
X162066310Y-100357500D01*
X162299699Y-100260827D01*
X162478327Y-100082198D01*
X162575000Y-99848809D01*
X162575000Y-99345750D01*
X162416250Y-99187000D01*
X161417000Y-99187000D01*
X161163000Y-99187000D01*
X160163750Y-99187000D01*
X160005000Y-99345750D01*
X155067000Y-99345750D01*
X155067000Y-91994999D01*
X159942560Y-91994999D01*
X159942560Y-92645001D01*
X160010873Y-92988436D01*
X160205414Y-93279586D01*
X160303313Y-93345000D01*
X160205414Y-93410414D01*
X160010873Y-93701564D01*
X159942560Y-94044999D01*
X159942560Y-94695001D01*
X160010873Y-95038436D01*
X160205414Y-95329586D01*
X160496564Y-95524127D01*
X160530000Y-95530778D01*
X160530001Y-95904442D01*
X160255414Y-96087914D01*
X160060874Y-96379065D01*
X159992560Y-96722500D01*
X159992560Y-97547500D01*
X160060874Y-97890935D01*
X160136042Y-98003433D01*
X160101673Y-98037802D01*
X160005000Y-98271191D01*
X160005000Y-98774250D01*
X160163750Y-98933000D01*
X161163000Y-98933000D01*
X161163000Y-98913000D01*
X161417000Y-98913000D01*
X161417000Y-98933000D01*
X162416250Y-98933000D01*
X162575000Y-98774250D01*
X162575000Y-98487745D01*
X169986861Y-98487745D01*
X170060995Y-98733864D01*
X170598223Y-98926965D01*
X171168454Y-98899778D01*
X171569005Y-98733864D01*
X171643139Y-98487745D01*
X170815000Y-97659605D01*
X169986861Y-98487745D01*
X162575000Y-98487745D01*
X162575000Y-98271191D01*
X162478327Y-98037802D01*
X162443958Y-98003433D01*
X162519126Y-97890935D01*
X162587440Y-97547500D01*
X162587440Y-97263223D01*
X169368035Y-97263223D01*
X169395222Y-97833454D01*
X169561136Y-98234005D01*
X169807255Y-98308139D01*
X170635395Y-97480000D01*
X170994605Y-97480000D01*
X171822745Y-98308139D01*
X172068864Y-98234005D01*
X172261965Y-97696777D01*
X172234778Y-97126546D01*
X172068864Y-96725995D01*
X171822745Y-96651861D01*
X170994605Y-97480000D01*
X170635395Y-97480000D01*
X169807255Y-96651861D01*
X169561136Y-96725995D01*
X169368035Y-97263223D01*
X162587440Y-97263223D01*
X162587440Y-96722500D01*
X162537663Y-96472255D01*
X169986861Y-96472255D01*
X170815000Y-97300395D01*
X171643139Y-96472255D01*
X171569005Y-96226136D01*
X171414916Y-96170750D01*
X177135000Y-96170750D01*
X177135000Y-97311310D01*
X177231673Y-97544699D01*
X177410302Y-97723327D01*
X177643691Y-97820000D01*
X178784250Y-97820000D01*
X178943000Y-97661250D01*
X178943000Y-96012000D01*
X179197000Y-96012000D01*
X179197000Y-97661250D01*
X179355750Y-97820000D01*
X180496309Y-97820000D01*
X180729698Y-97723327D01*
X180908327Y-97544699D01*
X181005000Y-97311310D01*
X181005000Y-96170750D01*
X180846250Y-96012000D01*
X179197000Y-96012000D01*
X178943000Y-96012000D01*
X177293750Y-96012000D01*
X177135000Y-96170750D01*
X171414916Y-96170750D01*
X171031777Y-96033035D01*
X170461546Y-96060222D01*
X170060995Y-96226136D01*
X169986861Y-96472255D01*
X162537663Y-96472255D01*
X162519126Y-96379065D01*
X162324586Y-96087914D01*
X162050000Y-95904442D01*
X162050000Y-95530778D01*
X162083436Y-95524127D01*
X162374586Y-95329586D01*
X162569127Y-95038436D01*
X162576374Y-95002002D01*
X162663748Y-95002002D01*
X162505000Y-95160750D01*
X162505000Y-95626309D01*
X162601673Y-95859698D01*
X162780301Y-96038327D01*
X163013690Y-96135000D01*
X164179250Y-96135000D01*
X164338000Y-95976250D01*
X164338000Y-95002000D01*
X164592000Y-95002000D01*
X164592000Y-95976250D01*
X164750750Y-96135000D01*
X165916310Y-96135000D01*
X166149699Y-96038327D01*
X166328327Y-95859698D01*
X166425000Y-95626309D01*
X166425000Y-95160750D01*
X166266250Y-95002000D01*
X164592000Y-95002000D01*
X164338000Y-95002000D01*
X164318000Y-95002000D01*
X164318000Y-94748000D01*
X164338000Y-94748000D01*
X164338000Y-94728000D01*
X164592000Y-94728000D01*
X164592000Y-94748000D01*
X166266250Y-94748000D01*
X166425000Y-94589250D01*
X166425000Y-94123691D01*
X166328327Y-93890302D01*
X166149699Y-93711673D01*
X166145660Y-93710000D01*
X166208969Y-93710000D01*
X166370000Y-93742031D01*
X166531031Y-93710000D01*
X169180000Y-93710000D01*
X169180000Y-94141030D01*
X169274864Y-94617944D01*
X169367560Y-94756674D01*
X169367560Y-94780000D01*
X169416843Y-95027765D01*
X169557191Y-95237809D01*
X169767235Y-95378157D01*
X170015000Y-95427440D01*
X170038326Y-95427440D01*
X170177055Y-95520136D01*
X170815000Y-95647031D01*
X171452944Y-95520136D01*
X171591674Y-95427440D01*
X171615000Y-95427440D01*
X171862765Y-95378157D01*
X172072809Y-95237809D01*
X172213157Y-95027765D01*
X172262440Y-94780000D01*
X172262440Y-94756674D01*
X172355136Y-94617945D01*
X172386813Y-94458690D01*
X177135000Y-94458690D01*
X177135000Y-95599250D01*
X177293750Y-95758000D01*
X178943000Y-95758000D01*
X178943000Y-94108750D01*
X179197000Y-94108750D01*
X179197000Y-95758000D01*
X180846250Y-95758000D01*
X181005000Y-95599250D01*
X181005000Y-94458690D01*
X180908327Y-94225301D01*
X180729698Y-94046673D01*
X180496309Y-93950000D01*
X179355750Y-93950000D01*
X179197000Y-94108750D01*
X178943000Y-94108750D01*
X178784250Y-93950000D01*
X177643691Y-93950000D01*
X177410302Y-94046673D01*
X177231673Y-94225301D01*
X177135000Y-94458690D01*
X172386813Y-94458690D01*
X172450000Y-94141031D01*
X172450000Y-93710000D01*
X181567762Y-93710000D01*
X182435000Y-94577239D01*
X182435000Y-94783496D01*
X182429586Y-94788910D01*
X182135000Y-95500105D01*
X182135000Y-96269895D01*
X182429586Y-96981090D01*
X182973910Y-97525414D01*
X183685105Y-97820000D01*
X184454895Y-97820000D01*
X185166090Y-97525414D01*
X185710414Y-96981090D01*
X185991720Y-96301954D01*
X202740000Y-96301954D01*
X202740000Y-97748046D01*
X203293396Y-99084062D01*
X204315938Y-100106604D01*
X205651954Y-100660000D01*
X207098046Y-100660000D01*
X208434062Y-100106604D01*
X209456604Y-99084062D01*
X210010000Y-97748046D01*
X210010000Y-96301954D01*
X226740000Y-96301954D01*
X226740000Y-97748046D01*
X227293396Y-99084062D01*
X228315938Y-100106604D01*
X229651954Y-100660000D01*
X231098046Y-100660000D01*
X232434062Y-100106604D01*
X233456604Y-99084062D01*
X234010000Y-97748046D01*
X234010000Y-96301954D01*
X233456604Y-94965938D01*
X232434062Y-93943396D01*
X231098046Y-93390000D01*
X229651954Y-93390000D01*
X228315938Y-93943396D01*
X227293396Y-94965938D01*
X226740000Y-96301954D01*
X210010000Y-96301954D01*
X209456604Y-94965938D01*
X208434062Y-93943396D01*
X207098046Y-93390000D01*
X205651954Y-93390000D01*
X204315938Y-93943396D01*
X203293396Y-94965938D01*
X202740000Y-96301954D01*
X185991720Y-96301954D01*
X186005000Y-96269895D01*
X186005000Y-95500105D01*
X185710414Y-94788910D01*
X185705000Y-94783496D01*
X185705000Y-94061031D01*
X185737031Y-93900000D01*
X185610136Y-93262054D01*
X185339985Y-92857746D01*
X185248769Y-92721231D01*
X185112253Y-92630014D01*
X183804771Y-91322532D01*
X194052073Y-91322532D01*
X194150736Y-91589387D01*
X194760461Y-91815908D01*
X195410460Y-91791856D01*
X195899264Y-91589387D01*
X195997927Y-91322532D01*
X195025000Y-90349605D01*
X194052073Y-91322532D01*
X183804771Y-91322532D01*
X183514988Y-91032750D01*
X183423769Y-90896231D01*
X182882945Y-90534864D01*
X182406031Y-90440000D01*
X182406030Y-90440000D01*
X182245000Y-90407969D01*
X182083970Y-90440000D01*
X170976031Y-90440000D01*
X170815000Y-90407969D01*
X170653969Y-90440000D01*
X167230000Y-90440000D01*
X167230000Y-88856453D01*
X167446431Y-88640022D01*
X179899584Y-88640022D01*
X180120353Y-89010743D01*
X181092012Y-89404119D01*
X182140247Y-89395713D01*
X183069647Y-89010743D01*
X183290416Y-88640022D01*
X181595000Y-86944605D01*
X179899584Y-88640022D01*
X167446431Y-88640022D01*
X167828845Y-88257608D01*
X168230000Y-87289134D01*
X168230000Y-86262012D01*
X178955881Y-86262012D01*
X178964287Y-87310247D01*
X179349257Y-88239647D01*
X179719978Y-88460416D01*
X181415395Y-86765000D01*
X181774605Y-86765000D01*
X183470022Y-88460416D01*
X183840743Y-88239647D01*
X184234119Y-87267988D01*
X184225713Y-86219753D01*
X184152067Y-86041954D01*
X184960000Y-86041954D01*
X184960000Y-87488046D01*
X185513396Y-88824062D01*
X186535938Y-89846604D01*
X187871954Y-90400000D01*
X189318046Y-90400000D01*
X190511968Y-89905461D01*
X193379092Y-89905461D01*
X193403144Y-90555460D01*
X193605613Y-91044264D01*
X193872468Y-91142927D01*
X194845395Y-90170000D01*
X195204605Y-90170000D01*
X196177532Y-91142927D01*
X196444387Y-91044264D01*
X196670908Y-90434539D01*
X196646856Y-89784540D01*
X196444387Y-89295736D01*
X196177532Y-89197073D01*
X195204605Y-90170000D01*
X194845395Y-90170000D01*
X193872468Y-89197073D01*
X193605613Y-89295736D01*
X193379092Y-89905461D01*
X190511968Y-89905461D01*
X190654062Y-89846604D01*
X191483198Y-89017468D01*
X194052073Y-89017468D01*
X195025000Y-89990395D01*
X195997927Y-89017468D01*
X195899264Y-88750613D01*
X195289539Y-88524092D01*
X194639540Y-88548144D01*
X194150736Y-88750613D01*
X194052073Y-89017468D01*
X191483198Y-89017468D01*
X191676604Y-88824062D01*
X192230000Y-87488046D01*
X192230000Y-86041954D01*
X191676604Y-84705938D01*
X190654062Y-83683396D01*
X189318046Y-83130000D01*
X187871954Y-83130000D01*
X186535938Y-83683396D01*
X185513396Y-84705938D01*
X184960000Y-86041954D01*
X184152067Y-86041954D01*
X183840743Y-85290353D01*
X183470022Y-85069584D01*
X181774605Y-86765000D01*
X181415395Y-86765000D01*
X179719978Y-85069584D01*
X179349257Y-85290353D01*
X178955881Y-86262012D01*
X168230000Y-86262012D01*
X168230000Y-86240866D01*
X167828845Y-85272392D01*
X167446431Y-84889978D01*
X179899584Y-84889978D01*
X181595000Y-86585395D01*
X183290416Y-84889978D01*
X183069647Y-84519257D01*
X182097988Y-84125881D01*
X181049753Y-84134287D01*
X180120353Y-84519257D01*
X179899584Y-84889978D01*
X167446431Y-84889978D01*
X167087608Y-84531155D01*
X166119134Y-84130000D01*
X165070866Y-84130000D01*
X164102392Y-84531155D01*
X163361155Y-85272392D01*
X162960000Y-86240866D01*
X162960000Y-87289134D01*
X163361155Y-88257608D01*
X163960000Y-88856453D01*
X163960001Y-90508419D01*
X163827055Y-90534864D01*
X163426420Y-90802560D01*
X163390000Y-90802560D01*
X163046565Y-90870874D01*
X162755414Y-91065414D01*
X162560874Y-91356565D01*
X162520408Y-91560000D01*
X162507946Y-91560000D01*
X162374586Y-91360414D01*
X162083436Y-91165873D01*
X161740001Y-91097560D01*
X160839999Y-91097560D01*
X160496564Y-91165873D01*
X160205414Y-91360414D01*
X160010873Y-91651564D01*
X159942560Y-91994999D01*
X155067000Y-91994999D01*
X155067000Y-87746367D01*
X155513396Y-88824062D01*
X156535938Y-89846604D01*
X157871954Y-90400000D01*
X159318046Y-90400000D01*
X160654062Y-89846604D01*
X161676604Y-88824062D01*
X162230000Y-87488046D01*
X162230000Y-86041954D01*
X161676604Y-84705938D01*
X160654062Y-83683396D01*
X159318046Y-83130000D01*
X157871954Y-83130000D01*
X156535938Y-83683396D01*
X155513396Y-84705938D01*
X155067000Y-85783633D01*
X155067000Y-79892532D01*
X194052073Y-79892532D01*
X194150736Y-80159387D01*
X194760461Y-80385908D01*
X195410460Y-80361856D01*
X195899264Y-80159387D01*
X195997927Y-79892532D01*
X195025000Y-78919605D01*
X194052073Y-79892532D01*
X155067000Y-79892532D01*
X155067000Y-78475461D01*
X193379092Y-78475461D01*
X193403144Y-79125460D01*
X193605613Y-79614264D01*
X193872468Y-79712927D01*
X194845395Y-78740000D01*
X195204605Y-78740000D01*
X196177532Y-79712927D01*
X196444387Y-79614264D01*
X196670908Y-79004539D01*
X196646856Y-78354540D01*
X196444387Y-77865736D01*
X196177532Y-77767073D01*
X195204605Y-78740000D01*
X194845395Y-78740000D01*
X193872468Y-77767073D01*
X193605613Y-77865736D01*
X193379092Y-78475461D01*
X155067000Y-78475461D01*
X155067000Y-77587468D01*
X194052073Y-77587468D01*
X195025000Y-78560395D01*
X195997927Y-77587468D01*
X195899264Y-77320613D01*
X195289539Y-77094092D01*
X194639540Y-77118144D01*
X194150736Y-77320613D01*
X194052073Y-77587468D01*
X155067000Y-77587468D01*
X155067000Y-50047532D01*
X194052073Y-50047532D01*
X194150736Y-50314387D01*
X194760461Y-50540908D01*
X195410460Y-50516856D01*
X195899264Y-50314387D01*
X195997927Y-50047532D01*
X195025000Y-49074605D01*
X194052073Y-50047532D01*
X155067000Y-50047532D01*
X155067000Y-48630461D01*
X193379092Y-48630461D01*
X193403144Y-49280460D01*
X193605613Y-49769264D01*
X193872468Y-49867927D01*
X194845395Y-48895000D01*
X195204605Y-48895000D01*
X196177532Y-49867927D01*
X196444387Y-49769264D01*
X196670908Y-49159539D01*
X196646856Y-48509540D01*
X196444387Y-48020736D01*
X196177532Y-47922073D01*
X195204605Y-48895000D01*
X194845395Y-48895000D01*
X193872468Y-47922073D01*
X193605613Y-48020736D01*
X193379092Y-48630461D01*
X155067000Y-48630461D01*
X155067000Y-47742468D01*
X194052073Y-47742468D01*
X195025000Y-48715395D01*
X195997927Y-47742468D01*
X195899264Y-47475613D01*
X195289539Y-47249092D01*
X194639540Y-47273144D01*
X194150736Y-47475613D01*
X194052073Y-47742468D01*
X155067000Y-47742468D01*
X155067000Y-38617532D01*
X194052073Y-38617532D01*
X194150736Y-38884387D01*
X194760461Y-39110908D01*
X195410460Y-39086856D01*
X195899264Y-38884387D01*
X195997927Y-38617532D01*
X195025000Y-37644605D01*
X194052073Y-38617532D01*
X155067000Y-38617532D01*
X155067000Y-37200461D01*
X193379092Y-37200461D01*
X193403144Y-37850460D01*
X193605613Y-38339264D01*
X193872468Y-38437927D01*
X194845395Y-37465000D01*
X195204605Y-37465000D01*
X196177532Y-38437927D01*
X196444387Y-38339264D01*
X196670908Y-37729539D01*
X196646856Y-37079540D01*
X196444387Y-36590736D01*
X196177532Y-36492073D01*
X195204605Y-37465000D01*
X194845395Y-37465000D01*
X193872468Y-36492073D01*
X193605613Y-36590736D01*
X193379092Y-37200461D01*
X155067000Y-37200461D01*
X155067000Y-36312468D01*
X194052073Y-36312468D01*
X195025000Y-37285395D01*
X195997927Y-36312468D01*
X195899264Y-36045613D01*
X195289539Y-35819092D01*
X194639540Y-35843144D01*
X194150736Y-36045613D01*
X194052073Y-36312468D01*
X155067000Y-36312468D01*
X155067000Y-25746367D01*
X155513396Y-26824062D01*
X156535938Y-27846604D01*
X157871954Y-28400000D01*
X159318046Y-28400000D01*
X160654062Y-27846604D01*
X161676604Y-26824062D01*
X162230000Y-25488046D01*
X162230000Y-24240866D01*
X162960000Y-24240866D01*
X162960000Y-25289134D01*
X163361155Y-26257608D01*
X164102392Y-26998845D01*
X165070866Y-27400000D01*
X165917762Y-27400000D01*
X169405014Y-30887253D01*
X169496231Y-31023769D01*
X170037055Y-31385136D01*
X170513969Y-31480000D01*
X170513970Y-31480000D01*
X170675000Y-31512031D01*
X170836030Y-31480000D01*
X197442762Y-31480000D01*
X198390000Y-32427239D01*
X198390000Y-36402458D01*
X198377560Y-36465000D01*
X198377560Y-37366509D01*
X198357969Y-37465000D01*
X198377560Y-37563491D01*
X198377560Y-38465000D01*
X198390000Y-38527543D01*
X198390001Y-47832455D01*
X198377560Y-47895000D01*
X198377560Y-49895000D01*
X198390000Y-49957543D01*
X198390001Y-51733966D01*
X198357969Y-51895000D01*
X198403271Y-52122746D01*
X198484865Y-52532945D01*
X198846232Y-53073769D01*
X198982748Y-53164986D01*
X199660000Y-53842239D01*
X199660000Y-58457746D01*
X199587357Y-58282370D01*
X198257630Y-56952643D01*
X196520259Y-56233000D01*
X194639741Y-56233000D01*
X192902370Y-56952643D01*
X191572643Y-58282370D01*
X190853000Y-60019741D01*
X190853000Y-61900259D01*
X191572643Y-63637630D01*
X192902370Y-64967357D01*
X194639741Y-65687000D01*
X196520259Y-65687000D01*
X198257630Y-64967357D01*
X199587357Y-63637630D01*
X199660001Y-63462253D01*
X199660001Y-71712760D01*
X198982750Y-72390012D01*
X198846231Y-72481231D01*
X198484864Y-73022056D01*
X198403271Y-73432254D01*
X198357969Y-73660000D01*
X198390000Y-73821030D01*
X198390001Y-77677455D01*
X198377560Y-77740000D01*
X198377560Y-78641509D01*
X198357969Y-78740000D01*
X198377560Y-78838491D01*
X198377560Y-79740000D01*
X198390001Y-79802545D01*
X198390000Y-89107459D01*
X198377560Y-89170000D01*
X198377560Y-91170000D01*
X198426843Y-91417765D01*
X198567191Y-91627809D01*
X198777235Y-91768157D01*
X199025000Y-91817440D01*
X199926509Y-91817440D01*
X200025000Y-91837031D01*
X200123491Y-91817440D01*
X201025000Y-91817440D01*
X201272765Y-91768157D01*
X201482809Y-91627809D01*
X201623157Y-91417765D01*
X201672440Y-91170000D01*
X201672440Y-90678000D01*
X208140560Y-90678000D01*
X208140560Y-92202000D01*
X208189843Y-92449765D01*
X208330191Y-92659809D01*
X208540235Y-92800157D01*
X208788000Y-92849440D01*
X210312000Y-92849440D01*
X210559765Y-92800157D01*
X210769809Y-92659809D01*
X210910157Y-92449765D01*
X210945653Y-92271310D01*
X211298663Y-92624320D01*
X211812119Y-92837000D01*
X212367881Y-92837000D01*
X212881337Y-92624320D01*
X213274320Y-92231337D01*
X213360000Y-92024487D01*
X213445680Y-92231337D01*
X213838663Y-92624320D01*
X214352119Y-92837000D01*
X214907881Y-92837000D01*
X215421337Y-92624320D01*
X215814320Y-92231337D01*
X215900000Y-92024487D01*
X215985680Y-92231337D01*
X216378663Y-92624320D01*
X216892119Y-92837000D01*
X217447881Y-92837000D01*
X217961337Y-92624320D01*
X218354320Y-92231337D01*
X218440000Y-92024487D01*
X218525680Y-92231337D01*
X218918663Y-92624320D01*
X219432119Y-92837000D01*
X219987881Y-92837000D01*
X220501337Y-92624320D01*
X220894320Y-92231337D01*
X220980000Y-92024487D01*
X221065680Y-92231337D01*
X221458663Y-92624320D01*
X221972119Y-92837000D01*
X222527881Y-92837000D01*
X223041337Y-92624320D01*
X223434320Y-92231337D01*
X223520000Y-92024487D01*
X223605680Y-92231337D01*
X223998663Y-92624320D01*
X224512119Y-92837000D01*
X225067881Y-92837000D01*
X225581337Y-92624320D01*
X225974320Y-92231337D01*
X226060000Y-92024487D01*
X226145680Y-92231337D01*
X226538663Y-92624320D01*
X227052119Y-92837000D01*
X227607881Y-92837000D01*
X228121337Y-92624320D01*
X228514320Y-92231337D01*
X228727000Y-91717881D01*
X228727000Y-91162119D01*
X228514320Y-90648663D01*
X228121337Y-90255680D01*
X227607881Y-90043000D01*
X227052119Y-90043000D01*
X226538663Y-90255680D01*
X226145680Y-90648663D01*
X226060000Y-90855513D01*
X225974320Y-90648663D01*
X225581337Y-90255680D01*
X225067881Y-90043000D01*
X224512119Y-90043000D01*
X223998663Y-90255680D01*
X223605680Y-90648663D01*
X223520000Y-90855513D01*
X223434320Y-90648663D01*
X223041337Y-90255680D01*
X222527881Y-90043000D01*
X222181801Y-90043000D01*
X225106171Y-87118631D01*
X248211522Y-87118631D01*
X248286369Y-87133519D01*
X248361216Y-87118631D01*
X248361221Y-87118631D01*
X248582906Y-87074535D01*
X248834298Y-86906560D01*
X248876700Y-86843101D01*
X250447026Y-85272775D01*
X250677402Y-85318600D01*
X250972598Y-85318600D01*
X251409725Y-85231650D01*
X251905430Y-84900430D01*
X252236650Y-84404725D01*
X252352959Y-83820000D01*
X252236650Y-83235275D01*
X251905430Y-82739570D01*
X251621719Y-82550000D01*
X251905430Y-82360430D01*
X252236650Y-81864725D01*
X252352959Y-81280000D01*
X252236650Y-80695275D01*
X251905430Y-80199570D01*
X251409725Y-79868350D01*
X250972598Y-79781400D01*
X250677402Y-79781400D01*
X250240275Y-79868350D01*
X249744570Y-80199570D01*
X249555000Y-80483281D01*
X249365430Y-80199570D01*
X248869725Y-79868350D01*
X248432598Y-79781400D01*
X248137402Y-79781400D01*
X247700275Y-79868350D01*
X247204570Y-80199570D01*
X247015000Y-80483281D01*
X246825430Y-80199570D01*
X246329725Y-79868350D01*
X245892598Y-79781400D01*
X245597402Y-79781400D01*
X245160275Y-79868350D01*
X244664570Y-80199570D01*
X244475000Y-80483281D01*
X244285430Y-80199570D01*
X243789725Y-79868350D01*
X243352598Y-79781400D01*
X243057402Y-79781400D01*
X242827026Y-79827225D01*
X242606730Y-79606929D01*
X242564328Y-79543470D01*
X242312936Y-79375495D01*
X242091251Y-79331399D01*
X242091246Y-79331399D01*
X242016399Y-79316511D01*
X241941552Y-79331399D01*
X228602253Y-79331399D01*
X228739144Y-78947698D01*
X228711362Y-78392632D01*
X228552397Y-78008857D01*
X228310213Y-77939392D01*
X227509605Y-78740000D01*
X227523748Y-78754143D01*
X227344143Y-78933748D01*
X227330000Y-78919605D01*
X227315858Y-78933748D01*
X227136253Y-78754143D01*
X227150395Y-78740000D01*
X226349787Y-77939392D01*
X226107603Y-78008857D01*
X226057465Y-78149393D01*
X225974320Y-77948663D01*
X225785444Y-77759787D01*
X226529392Y-77759787D01*
X227330000Y-78560395D01*
X228130608Y-77759787D01*
X228061143Y-77517603D01*
X227537698Y-77330856D01*
X226982632Y-77358638D01*
X226598857Y-77517603D01*
X226529392Y-77759787D01*
X225785444Y-77759787D01*
X225581337Y-77555680D01*
X225550000Y-77542700D01*
X225550000Y-76900000D01*
X225919250Y-76900000D01*
X226078000Y-76741250D01*
X226078000Y-75692000D01*
X226332000Y-75692000D01*
X226332000Y-76741250D01*
X226490750Y-76900000D01*
X226906309Y-76900000D01*
X227139698Y-76803327D01*
X227318327Y-76624699D01*
X227415000Y-76391310D01*
X227415000Y-75850750D01*
X227256250Y-75692000D01*
X226332000Y-75692000D01*
X226078000Y-75692000D01*
X226058000Y-75692000D01*
X226058000Y-75438000D01*
X226078000Y-75438000D01*
X226078000Y-74388750D01*
X226332000Y-74388750D01*
X226332000Y-75438000D01*
X227256250Y-75438000D01*
X227415000Y-75279250D01*
X227415000Y-75205666D01*
X228315938Y-76106604D01*
X229651954Y-76660000D01*
X231098046Y-76660000D01*
X232434062Y-76106604D01*
X233456604Y-75084062D01*
X234010000Y-73748046D01*
X234010000Y-72301954D01*
X233456604Y-70965938D01*
X232434062Y-69943396D01*
X231098046Y-69390000D01*
X229651954Y-69390000D01*
X228315938Y-69943396D01*
X227293396Y-70965938D01*
X226740000Y-72301954D01*
X226740000Y-73748046D01*
X226946533Y-74246661D01*
X226906309Y-74230000D01*
X226490750Y-74230000D01*
X226332000Y-74388750D01*
X226078000Y-74388750D01*
X225919250Y-74230000D01*
X225503691Y-74230000D01*
X225270302Y-74326673D01*
X225115377Y-74481597D01*
X225114586Y-74480414D01*
X224823436Y-74285873D01*
X224480001Y-74217560D01*
X223829999Y-74217560D01*
X223486564Y-74285873D01*
X223265000Y-74433918D01*
X223265000Y-65234281D01*
X223528839Y-64839417D01*
X223615000Y-64406255D01*
X223615000Y-63863744D01*
X223528839Y-63430582D01*
X223200625Y-62939375D01*
X222709417Y-62611161D01*
X222130000Y-62495908D01*
X221550582Y-62611161D01*
X221059375Y-62939375D01*
X220880000Y-63207829D01*
X220700625Y-62939375D01*
X220209417Y-62611161D01*
X219630000Y-62495908D01*
X219050582Y-62611161D01*
X218559375Y-62939375D01*
X218380000Y-63207829D01*
X218200625Y-62939375D01*
X217709417Y-62611161D01*
X217130000Y-62495908D01*
X216550582Y-62611161D01*
X216059375Y-62939375D01*
X216016758Y-63003156D01*
X215864586Y-62775414D01*
X215573435Y-62580874D01*
X215230000Y-62512560D01*
X214030000Y-62512560D01*
X213686565Y-62580874D01*
X213395414Y-62775414D01*
X213200874Y-63066565D01*
X213132560Y-63410000D01*
X213132560Y-64860000D01*
X213200874Y-65203435D01*
X213395414Y-65494586D01*
X213495000Y-65561127D01*
X213495001Y-77899342D01*
X213445680Y-77948663D01*
X213366572Y-78139647D01*
X213312397Y-78008857D01*
X213070213Y-77939392D01*
X212269605Y-78740000D01*
X213070213Y-79540608D01*
X213312397Y-79471143D01*
X213362535Y-79330607D01*
X213445680Y-79531337D01*
X213838663Y-79924320D01*
X214352119Y-80137000D01*
X214907881Y-80137000D01*
X215421337Y-79924320D01*
X215814320Y-79531337D01*
X215900000Y-79324487D01*
X215985680Y-79531337D01*
X216378663Y-79924320D01*
X216892119Y-80137000D01*
X217447881Y-80137000D01*
X217961337Y-79924320D01*
X218354320Y-79531337D01*
X218440000Y-79324487D01*
X218525680Y-79531337D01*
X218918663Y-79924320D01*
X219432119Y-80137000D01*
X219987881Y-80137000D01*
X220501337Y-79924320D01*
X220894320Y-79531337D01*
X220980000Y-79324487D01*
X221065680Y-79531337D01*
X221458663Y-79924320D01*
X221972119Y-80137000D01*
X222527881Y-80137000D01*
X223041337Y-79924320D01*
X223434320Y-79531337D01*
X223520000Y-79324487D01*
X223605680Y-79531337D01*
X223998663Y-79924320D01*
X224039716Y-79941325D01*
X224074097Y-80114167D01*
X224131162Y-80199570D01*
X224242072Y-80365559D01*
X224305528Y-80407959D01*
X224473438Y-80575869D01*
X224515840Y-80639328D01*
X224767232Y-80807303D01*
X224988917Y-80851399D01*
X224988921Y-80851399D01*
X225063769Y-80866287D01*
X225138617Y-80851399D01*
X239222295Y-80851399D01*
X239137041Y-81280000D01*
X239253350Y-81864725D01*
X239579651Y-82353068D01*
X239553635Y-82358243D01*
X239343591Y-82498591D01*
X239203243Y-82708635D01*
X239153960Y-82956400D01*
X239153960Y-83060000D01*
X217244846Y-83060000D01*
X217169999Y-83045112D01*
X217095152Y-83060000D01*
X217095148Y-83060000D01*
X216873463Y-83104096D01*
X216873461Y-83104097D01*
X216873462Y-83104097D01*
X216685526Y-83229671D01*
X216685524Y-83229673D01*
X216622071Y-83272071D01*
X216579673Y-83335524D01*
X210947000Y-88968198D01*
X210947000Y-88622119D01*
X210734320Y-88108663D01*
X210341337Y-87715680D01*
X210134487Y-87630000D01*
X210341337Y-87544320D01*
X210734320Y-87151337D01*
X210947000Y-86637881D01*
X210947000Y-86082119D01*
X210734320Y-85568663D01*
X210341337Y-85175680D01*
X209827881Y-84963000D01*
X209272119Y-84963000D01*
X208758663Y-85175680D01*
X208365680Y-85568663D01*
X208153000Y-86082119D01*
X208153000Y-86637881D01*
X208365680Y-87151337D01*
X208758663Y-87544320D01*
X208965513Y-87630000D01*
X208758663Y-87715680D01*
X208365680Y-88108663D01*
X208153000Y-88622119D01*
X208153000Y-89177881D01*
X208365680Y-89691337D01*
X208718690Y-90044347D01*
X208540235Y-90079843D01*
X208330191Y-90220191D01*
X208189843Y-90430235D01*
X208140560Y-90678000D01*
X201672440Y-90678000D01*
X201672440Y-89170000D01*
X201660000Y-89107459D01*
X201660000Y-81825750D01*
X204415000Y-81825750D01*
X204415000Y-82291309D01*
X204511673Y-82524698D01*
X204690301Y-82703327D01*
X204923690Y-82800000D01*
X206089250Y-82800000D01*
X206248000Y-82641250D01*
X206248000Y-81667000D01*
X206502000Y-81667000D01*
X206502000Y-82641250D01*
X206660750Y-82800000D01*
X207826310Y-82800000D01*
X208059699Y-82703327D01*
X208238327Y-82524698D01*
X208335000Y-82291309D01*
X208335000Y-81825750D01*
X208176250Y-81667000D01*
X206502000Y-81667000D01*
X206248000Y-81667000D01*
X204573750Y-81667000D01*
X204415000Y-81825750D01*
X201660000Y-81825750D01*
X201660000Y-80375000D01*
X204694340Y-80375000D01*
X204690301Y-80376673D01*
X204511673Y-80555302D01*
X204415000Y-80788691D01*
X204415000Y-81254250D01*
X204573750Y-81413000D01*
X206248000Y-81413000D01*
X206248000Y-81393000D01*
X206502000Y-81393000D01*
X206502000Y-81413000D01*
X208176250Y-81413000D01*
X208335000Y-81254250D01*
X208335000Y-80788691D01*
X208238327Y-80555302D01*
X208059699Y-80376673D01*
X208055660Y-80375000D01*
X209711031Y-80375000D01*
X210187945Y-80280136D01*
X210728769Y-79918769D01*
X210861439Y-79720213D01*
X211289392Y-79720213D01*
X211358857Y-79962397D01*
X211882302Y-80149144D01*
X212437368Y-80121362D01*
X212821143Y-79962397D01*
X212890608Y-79720213D01*
X212090000Y-78919605D01*
X211289392Y-79720213D01*
X210861439Y-79720213D01*
X211002089Y-79509717D01*
X211109787Y-79540608D01*
X211910395Y-78740000D01*
X211109787Y-77939392D01*
X211002089Y-77970283D01*
X210861440Y-77759787D01*
X211289392Y-77759787D01*
X212090000Y-78560395D01*
X212890608Y-77759787D01*
X212821143Y-77517603D01*
X212297698Y-77330856D01*
X211742632Y-77358638D01*
X211358857Y-77517603D01*
X211289392Y-77759787D01*
X210861440Y-77759787D01*
X210728769Y-77561231D01*
X210187945Y-77199864D01*
X209711031Y-77105000D01*
X201660000Y-77105000D01*
X201660000Y-74337238D01*
X202337252Y-73659986D01*
X202473769Y-73568769D01*
X202740000Y-73170326D01*
X202740000Y-73748046D01*
X203293396Y-75084062D01*
X204315938Y-76106604D01*
X205651954Y-76660000D01*
X207098046Y-76660000D01*
X208434062Y-76106604D01*
X209456604Y-75084062D01*
X210010000Y-73748046D01*
X210010000Y-72301954D01*
X209456604Y-70965938D01*
X208434062Y-69943396D01*
X207098046Y-69390000D01*
X205651954Y-69390000D01*
X204315938Y-69943396D01*
X203293396Y-70965938D01*
X202930000Y-71843253D01*
X202930000Y-63385000D01*
X202972560Y-63385000D01*
X202972560Y-64885000D01*
X203040874Y-65228435D01*
X203235414Y-65519586D01*
X203526565Y-65714126D01*
X203870000Y-65782440D01*
X205070000Y-65782440D01*
X205413435Y-65714126D01*
X205704586Y-65519586D01*
X205881648Y-65254593D01*
X206077955Y-65473664D01*
X206600740Y-65724553D01*
X206613110Y-65726476D01*
X206843000Y-65605155D01*
X206843000Y-64262000D01*
X207097000Y-64262000D01*
X207097000Y-65605155D01*
X207326890Y-65726476D01*
X207339260Y-65724553D01*
X207862045Y-65473664D01*
X208249024Y-65041812D01*
X208441284Y-64494742D01*
X208297231Y-64262000D01*
X207097000Y-64262000D01*
X206843000Y-64262000D01*
X206823000Y-64262000D01*
X206823000Y-64008000D01*
X206843000Y-64008000D01*
X206843000Y-62664845D01*
X207097000Y-62664845D01*
X207097000Y-64008000D01*
X208297231Y-64008000D01*
X208441284Y-63775258D01*
X208249024Y-63228188D01*
X207862045Y-62796336D01*
X207339260Y-62545447D01*
X207326890Y-62543524D01*
X207097000Y-62664845D01*
X206843000Y-62664845D01*
X206613110Y-62543524D01*
X206600740Y-62545447D01*
X206077955Y-62796336D01*
X205881648Y-63015407D01*
X205704586Y-62750414D01*
X205413435Y-62555874D01*
X205070000Y-62487560D01*
X203870000Y-62487560D01*
X203526565Y-62555874D01*
X203235414Y-62750414D01*
X203040874Y-63041565D01*
X202972560Y-63385000D01*
X202930000Y-63385000D01*
X202930000Y-56931747D01*
X203293396Y-57809062D01*
X204315938Y-58831604D01*
X205651954Y-59385000D01*
X207098046Y-59385000D01*
X208434062Y-58831604D01*
X209456604Y-57809062D01*
X210010000Y-56473046D01*
X210010000Y-55026954D01*
X226740000Y-55026954D01*
X226740000Y-56473046D01*
X227293396Y-57809062D01*
X228315938Y-58831604D01*
X229651954Y-59385000D01*
X231098046Y-59385000D01*
X232434062Y-58831604D01*
X233456604Y-57809062D01*
X234010000Y-56473046D01*
X234010000Y-55026954D01*
X233456604Y-53690938D01*
X232434062Y-52668396D01*
X231098046Y-52115000D01*
X229651954Y-52115000D01*
X228315938Y-52668396D01*
X227293396Y-53690938D01*
X226740000Y-55026954D01*
X210010000Y-55026954D01*
X209456604Y-53690938D01*
X208434062Y-52668396D01*
X207098046Y-52115000D01*
X205651954Y-52115000D01*
X204315938Y-52668396D01*
X203293396Y-53690938D01*
X202930000Y-54568253D01*
X202930000Y-53326025D01*
X202962030Y-53164999D01*
X202930000Y-53003973D01*
X202930000Y-53003969D01*
X202835136Y-52527055D01*
X202473769Y-51986231D01*
X202337253Y-51895014D01*
X201660000Y-51217762D01*
X201660000Y-49957541D01*
X201672440Y-49895000D01*
X201672440Y-49403000D01*
X208140560Y-49403000D01*
X208140560Y-50927000D01*
X208189843Y-51174765D01*
X208330191Y-51384809D01*
X208540235Y-51525157D01*
X208788000Y-51574440D01*
X210312000Y-51574440D01*
X210559765Y-51525157D01*
X210769809Y-51384809D01*
X210910157Y-51174765D01*
X210945653Y-50996310D01*
X211298663Y-51349320D01*
X211812119Y-51562000D01*
X212367881Y-51562000D01*
X212881337Y-51349320D01*
X213274320Y-50956337D01*
X213360000Y-50749487D01*
X213445680Y-50956337D01*
X213838663Y-51349320D01*
X214352119Y-51562000D01*
X214907881Y-51562000D01*
X215421337Y-51349320D01*
X215814320Y-50956337D01*
X215900000Y-50749487D01*
X215985680Y-50956337D01*
X216378663Y-51349320D01*
X216892119Y-51562000D01*
X217447881Y-51562000D01*
X217961337Y-51349320D01*
X218354320Y-50956337D01*
X218440000Y-50749487D01*
X218525680Y-50956337D01*
X218918663Y-51349320D01*
X219432119Y-51562000D01*
X219987881Y-51562000D01*
X220501337Y-51349320D01*
X220894320Y-50956337D01*
X220980000Y-50749487D01*
X221065680Y-50956337D01*
X221458663Y-51349320D01*
X221972119Y-51562000D01*
X222527881Y-51562000D01*
X223041337Y-51349320D01*
X223434320Y-50956337D01*
X223520000Y-50749487D01*
X223605680Y-50956337D01*
X223998663Y-51349320D01*
X224512119Y-51562000D01*
X225067881Y-51562000D01*
X225581337Y-51349320D01*
X225974320Y-50956337D01*
X226060000Y-50749487D01*
X226145680Y-50956337D01*
X226538663Y-51349320D01*
X227052119Y-51562000D01*
X227607881Y-51562000D01*
X228121337Y-51349320D01*
X228514320Y-50956337D01*
X228727000Y-50442881D01*
X228727000Y-49887119D01*
X228514320Y-49373663D01*
X228121337Y-48980680D01*
X227607881Y-48768000D01*
X227052119Y-48768000D01*
X226538663Y-48980680D01*
X226145680Y-49373663D01*
X226060000Y-49580513D01*
X225974320Y-49373663D01*
X225581337Y-48980680D01*
X225067881Y-48768000D01*
X224512119Y-48768000D01*
X223998663Y-48980680D01*
X223605680Y-49373663D01*
X223520000Y-49580513D01*
X223434320Y-49373663D01*
X223041337Y-48980680D01*
X222527881Y-48768000D01*
X222181801Y-48768000D01*
X225106171Y-45843631D01*
X248211522Y-45843631D01*
X248286369Y-45858519D01*
X248361216Y-45843631D01*
X248361221Y-45843631D01*
X248582906Y-45799535D01*
X248834298Y-45631560D01*
X248876700Y-45568101D01*
X250447026Y-43997775D01*
X250677402Y-44043600D01*
X250972598Y-44043600D01*
X251409725Y-43956650D01*
X251905430Y-43625430D01*
X252236650Y-43129725D01*
X252352959Y-42545000D01*
X252236650Y-41960275D01*
X251905430Y-41464570D01*
X251621719Y-41275000D01*
X251905430Y-41085430D01*
X252236650Y-40589725D01*
X252352959Y-40005000D01*
X252236650Y-39420275D01*
X251905430Y-38924570D01*
X251409725Y-38593350D01*
X250972598Y-38506400D01*
X250677402Y-38506400D01*
X250240275Y-38593350D01*
X249744570Y-38924570D01*
X249555000Y-39208281D01*
X249365430Y-38924570D01*
X248869725Y-38593350D01*
X248432598Y-38506400D01*
X248137402Y-38506400D01*
X247700275Y-38593350D01*
X247204570Y-38924570D01*
X247015000Y-39208281D01*
X246825430Y-38924570D01*
X246329725Y-38593350D01*
X245892598Y-38506400D01*
X245597402Y-38506400D01*
X245160275Y-38593350D01*
X244664570Y-38924570D01*
X244475000Y-39208281D01*
X244285430Y-38924570D01*
X243789725Y-38593350D01*
X243352598Y-38506400D01*
X243057402Y-38506400D01*
X242827026Y-38552225D01*
X242606730Y-38331929D01*
X242564328Y-38268470D01*
X242312936Y-38100495D01*
X242091251Y-38056399D01*
X242091246Y-38056399D01*
X242016399Y-38041511D01*
X241941552Y-38056399D01*
X228602253Y-38056399D01*
X228739144Y-37672698D01*
X228711362Y-37117632D01*
X228552397Y-36733857D01*
X228310213Y-36664392D01*
X227509605Y-37465000D01*
X227523748Y-37479143D01*
X227344143Y-37658748D01*
X227330000Y-37644605D01*
X227315858Y-37658748D01*
X227136253Y-37479143D01*
X227150395Y-37465000D01*
X226349787Y-36664392D01*
X226107603Y-36733857D01*
X226057465Y-36874393D01*
X225974320Y-36673663D01*
X225785444Y-36484787D01*
X226529392Y-36484787D01*
X227330000Y-37285395D01*
X228130608Y-36484787D01*
X228061143Y-36242603D01*
X227537698Y-36055856D01*
X226982632Y-36083638D01*
X226598857Y-36242603D01*
X226529392Y-36484787D01*
X225785444Y-36484787D01*
X225581337Y-36280680D01*
X225550000Y-36267700D01*
X225550000Y-35625000D01*
X225919250Y-35625000D01*
X226078000Y-35466250D01*
X226078000Y-34417000D01*
X226332000Y-34417000D01*
X226332000Y-35466250D01*
X226490750Y-35625000D01*
X226906309Y-35625000D01*
X227139698Y-35528327D01*
X227318327Y-35349699D01*
X227415000Y-35116310D01*
X227415000Y-34575750D01*
X227256250Y-34417000D01*
X226332000Y-34417000D01*
X226078000Y-34417000D01*
X226058000Y-34417000D01*
X226058000Y-34163000D01*
X226078000Y-34163000D01*
X226078000Y-33113750D01*
X226332000Y-33113750D01*
X226332000Y-34163000D01*
X227256250Y-34163000D01*
X227415000Y-34004250D01*
X227415000Y-33930666D01*
X228315938Y-34831604D01*
X229651954Y-35385000D01*
X231098046Y-35385000D01*
X232434062Y-34831604D01*
X233456604Y-33809062D01*
X234010000Y-32473046D01*
X234010000Y-31026954D01*
X233456604Y-29690938D01*
X232434062Y-28668396D01*
X231098046Y-28115000D01*
X229651954Y-28115000D01*
X228315938Y-28668396D01*
X227293396Y-29690938D01*
X226740000Y-31026954D01*
X226740000Y-32473046D01*
X226946533Y-32971661D01*
X226906309Y-32955000D01*
X226490750Y-32955000D01*
X226332000Y-33113750D01*
X226078000Y-33113750D01*
X225919250Y-32955000D01*
X225503691Y-32955000D01*
X225270302Y-33051673D01*
X225115377Y-33206597D01*
X225114586Y-33205414D01*
X224823436Y-33010873D01*
X224480001Y-32942560D01*
X223829999Y-32942560D01*
X223486564Y-33010873D01*
X223265000Y-33158918D01*
X223265000Y-24594281D01*
X223528839Y-24199417D01*
X223615000Y-23766255D01*
X223615000Y-23223744D01*
X223528839Y-22790582D01*
X223200625Y-22299375D01*
X222709417Y-21971161D01*
X222130000Y-21855908D01*
X221550582Y-21971161D01*
X221059375Y-22299375D01*
X220880000Y-22567829D01*
X220700625Y-22299375D01*
X220209417Y-21971161D01*
X219630000Y-21855908D01*
X219050582Y-21971161D01*
X218559375Y-22299375D01*
X218380000Y-22567829D01*
X218200625Y-22299375D01*
X217709417Y-21971161D01*
X217130000Y-21855908D01*
X216550582Y-21971161D01*
X216059375Y-22299375D01*
X216016758Y-22363156D01*
X215864586Y-22135414D01*
X215573435Y-21940874D01*
X215230000Y-21872560D01*
X214030000Y-21872560D01*
X213686565Y-21940874D01*
X213395414Y-22135414D01*
X213200874Y-22426565D01*
X213132560Y-22770000D01*
X213132560Y-24220000D01*
X213200874Y-24563435D01*
X213395414Y-24854586D01*
X213495000Y-24921127D01*
X213495001Y-36624342D01*
X213445680Y-36673663D01*
X213366572Y-36864647D01*
X213312397Y-36733857D01*
X213070213Y-36664392D01*
X212269605Y-37465000D01*
X213070213Y-38265608D01*
X213312397Y-38196143D01*
X213362535Y-38055607D01*
X213445680Y-38256337D01*
X213838663Y-38649320D01*
X214352119Y-38862000D01*
X214907881Y-38862000D01*
X215421337Y-38649320D01*
X215814320Y-38256337D01*
X215900000Y-38049487D01*
X215985680Y-38256337D01*
X216378663Y-38649320D01*
X216892119Y-38862000D01*
X217447881Y-38862000D01*
X217961337Y-38649320D01*
X218354320Y-38256337D01*
X218440000Y-38049487D01*
X218525680Y-38256337D01*
X218918663Y-38649320D01*
X219432119Y-38862000D01*
X219987881Y-38862000D01*
X220501337Y-38649320D01*
X220894320Y-38256337D01*
X220980000Y-38049487D01*
X221065680Y-38256337D01*
X221458663Y-38649320D01*
X221972119Y-38862000D01*
X222527881Y-38862000D01*
X223041337Y-38649320D01*
X223434320Y-38256337D01*
X223520000Y-38049487D01*
X223605680Y-38256337D01*
X223998663Y-38649320D01*
X224039716Y-38666325D01*
X224074097Y-38839167D01*
X224131162Y-38924570D01*
X224242072Y-39090559D01*
X224305528Y-39132959D01*
X224473438Y-39300869D01*
X224515840Y-39364328D01*
X224767232Y-39532303D01*
X224988917Y-39576399D01*
X224988921Y-39576399D01*
X225063769Y-39591287D01*
X225138617Y-39576399D01*
X239222295Y-39576399D01*
X239137041Y-40005000D01*
X239253350Y-40589725D01*
X239579651Y-41078068D01*
X239553635Y-41083243D01*
X239343591Y-41223591D01*
X239203243Y-41433635D01*
X239153960Y-41681400D01*
X239153960Y-41785000D01*
X217244846Y-41785000D01*
X217169999Y-41770112D01*
X217095152Y-41785000D01*
X217095148Y-41785000D01*
X216873463Y-41829096D01*
X216873461Y-41829097D01*
X216873462Y-41829097D01*
X216685526Y-41954671D01*
X216685524Y-41954673D01*
X216622071Y-41997071D01*
X216579673Y-42060524D01*
X210947000Y-47693198D01*
X210947000Y-47347119D01*
X210734320Y-46833663D01*
X210341337Y-46440680D01*
X210134487Y-46355000D01*
X210341337Y-46269320D01*
X210734320Y-45876337D01*
X210947000Y-45362881D01*
X210947000Y-44807119D01*
X210734320Y-44293663D01*
X210341337Y-43900680D01*
X209827881Y-43688000D01*
X209272119Y-43688000D01*
X208758663Y-43900680D01*
X208365680Y-44293663D01*
X208153000Y-44807119D01*
X208153000Y-45362881D01*
X208365680Y-45876337D01*
X208758663Y-46269320D01*
X208965513Y-46355000D01*
X208758663Y-46440680D01*
X208365680Y-46833663D01*
X208153000Y-47347119D01*
X208153000Y-47902881D01*
X208365680Y-48416337D01*
X208718690Y-48769347D01*
X208540235Y-48804843D01*
X208330191Y-48945191D01*
X208189843Y-49155235D01*
X208140560Y-49403000D01*
X201672440Y-49403000D01*
X201672440Y-47895000D01*
X201660000Y-47832459D01*
X201660000Y-40550750D01*
X204415000Y-40550750D01*
X204415000Y-41016309D01*
X204511673Y-41249698D01*
X204690301Y-41428327D01*
X204923690Y-41525000D01*
X206089250Y-41525000D01*
X206248000Y-41366250D01*
X206248000Y-40392000D01*
X206502000Y-40392000D01*
X206502000Y-41366250D01*
X206660750Y-41525000D01*
X207826310Y-41525000D01*
X208059699Y-41428327D01*
X208238327Y-41249698D01*
X208335000Y-41016309D01*
X208335000Y-40550750D01*
X208176250Y-40392000D01*
X206502000Y-40392000D01*
X206248000Y-40392000D01*
X204573750Y-40392000D01*
X204415000Y-40550750D01*
X201660000Y-40550750D01*
X201660000Y-39100000D01*
X204694340Y-39100000D01*
X204690301Y-39101673D01*
X204511673Y-39280302D01*
X204415000Y-39513691D01*
X204415000Y-39979250D01*
X204573750Y-40138000D01*
X206248000Y-40138000D01*
X206248000Y-40118000D01*
X206502000Y-40118000D01*
X206502000Y-40138000D01*
X208176250Y-40138000D01*
X208335000Y-39979250D01*
X208335000Y-39513691D01*
X208238327Y-39280302D01*
X208059699Y-39101673D01*
X208055660Y-39100000D01*
X209711031Y-39100000D01*
X210187945Y-39005136D01*
X210728769Y-38643769D01*
X210861439Y-38445213D01*
X211289392Y-38445213D01*
X211358857Y-38687397D01*
X211882302Y-38874144D01*
X212437368Y-38846362D01*
X212821143Y-38687397D01*
X212890608Y-38445213D01*
X212090000Y-37644605D01*
X211289392Y-38445213D01*
X210861439Y-38445213D01*
X211002089Y-38234717D01*
X211109787Y-38265608D01*
X211910395Y-37465000D01*
X211109787Y-36664392D01*
X211002089Y-36695283D01*
X210861440Y-36484787D01*
X211289392Y-36484787D01*
X212090000Y-37285395D01*
X212890608Y-36484787D01*
X212821143Y-36242603D01*
X212297698Y-36055856D01*
X211742632Y-36083638D01*
X211358857Y-36242603D01*
X211289392Y-36484787D01*
X210861440Y-36484787D01*
X210728769Y-36286231D01*
X210187945Y-35924864D01*
X209711031Y-35830000D01*
X201660000Y-35830000D01*
X201660000Y-31911030D01*
X201692031Y-31750000D01*
X201644696Y-31512031D01*
X201565136Y-31112055D01*
X201508274Y-31026954D01*
X202740000Y-31026954D01*
X202740000Y-32473046D01*
X203293396Y-33809062D01*
X204315938Y-34831604D01*
X205651954Y-35385000D01*
X207098046Y-35385000D01*
X208434062Y-34831604D01*
X209456604Y-33809062D01*
X210010000Y-32473046D01*
X210010000Y-31026954D01*
X209456604Y-29690938D01*
X208434062Y-28668396D01*
X207098046Y-28115000D01*
X205651954Y-28115000D01*
X204315938Y-28668396D01*
X203293396Y-29690938D01*
X202740000Y-31026954D01*
X201508274Y-31026954D01*
X201203769Y-30571231D01*
X201067253Y-30480014D01*
X199389988Y-28802750D01*
X199298769Y-28666231D01*
X198757945Y-28304864D01*
X198281031Y-28210000D01*
X198281030Y-28210000D01*
X198120000Y-28177969D01*
X197958970Y-28210000D01*
X197929582Y-28210000D01*
X198004127Y-28098436D01*
X198072440Y-27755001D01*
X198072440Y-26854999D01*
X198004127Y-26511564D01*
X197809586Y-26220414D01*
X197610000Y-26087054D01*
X197610000Y-24086410D01*
X197897086Y-23894586D01*
X198091626Y-23603435D01*
X198159940Y-23260000D01*
X198159940Y-22745000D01*
X202972560Y-22745000D01*
X202972560Y-24245000D01*
X203040874Y-24588435D01*
X203235414Y-24879586D01*
X203526565Y-25074126D01*
X203870000Y-25142440D01*
X205070000Y-25142440D01*
X205413435Y-25074126D01*
X205704586Y-24879586D01*
X205881648Y-24614593D01*
X206077955Y-24833664D01*
X206600740Y-25084553D01*
X206613110Y-25086476D01*
X206843000Y-24965155D01*
X206843000Y-23622000D01*
X207097000Y-23622000D01*
X207097000Y-24965155D01*
X207326890Y-25086476D01*
X207339260Y-25084553D01*
X207862045Y-24833664D01*
X208249024Y-24401812D01*
X208441284Y-23854742D01*
X208297231Y-23622000D01*
X207097000Y-23622000D01*
X206843000Y-23622000D01*
X206823000Y-23622000D01*
X206823000Y-23368000D01*
X206843000Y-23368000D01*
X206843000Y-22024845D01*
X207097000Y-22024845D01*
X207097000Y-23368000D01*
X208297231Y-23368000D01*
X208441284Y-23135258D01*
X208249024Y-22588188D01*
X207862045Y-22156336D01*
X207339260Y-21905447D01*
X207326890Y-21903524D01*
X207097000Y-22024845D01*
X206843000Y-22024845D01*
X206613110Y-21903524D01*
X206600740Y-21905447D01*
X206077955Y-22156336D01*
X205881648Y-22375407D01*
X205704586Y-22110414D01*
X205413435Y-21915874D01*
X205070000Y-21847560D01*
X203870000Y-21847560D01*
X203526565Y-21915874D01*
X203235414Y-22110414D01*
X203040874Y-22401565D01*
X202972560Y-22745000D01*
X198159940Y-22745000D01*
X198159940Y-22460000D01*
X198091626Y-22116565D01*
X197897086Y-21825414D01*
X197605935Y-21630874D01*
X197262500Y-21562560D01*
X196437500Y-21562560D01*
X196094065Y-21630874D01*
X195981567Y-21706042D01*
X195947198Y-21671673D01*
X195713809Y-21575000D01*
X195210750Y-21575000D01*
X195052000Y-21733750D01*
X195052000Y-22733000D01*
X195072000Y-22733000D01*
X195072000Y-22987000D01*
X195052000Y-22987000D01*
X195052000Y-23986250D01*
X195210750Y-24145000D01*
X195713809Y-24145000D01*
X195947198Y-24048327D01*
X195981567Y-24013958D01*
X196090001Y-24086410D01*
X196090000Y-26087054D01*
X195890414Y-26220414D01*
X195825000Y-26318313D01*
X195759586Y-26220414D01*
X195468436Y-26025873D01*
X195125001Y-25957560D01*
X194474999Y-25957560D01*
X194131564Y-26025873D01*
X193840414Y-26220414D01*
X193645873Y-26511564D01*
X193577560Y-26854999D01*
X193577560Y-27755001D01*
X193645873Y-28098436D01*
X193720418Y-28210000D01*
X189776747Y-28210000D01*
X190654062Y-27846604D01*
X191676604Y-26824062D01*
X192230000Y-25488046D01*
X192230000Y-24041954D01*
X191858781Y-23145750D01*
X193627500Y-23145750D01*
X193627500Y-23636310D01*
X193724173Y-23869699D01*
X193902802Y-24048327D01*
X194136191Y-24145000D01*
X194639250Y-24145000D01*
X194798000Y-23986250D01*
X194798000Y-22987000D01*
X193786250Y-22987000D01*
X193627500Y-23145750D01*
X191858781Y-23145750D01*
X191676604Y-22705938D01*
X191054356Y-22083690D01*
X193627500Y-22083690D01*
X193627500Y-22574250D01*
X193786250Y-22733000D01*
X194798000Y-22733000D01*
X194798000Y-21733750D01*
X194639250Y-21575000D01*
X194136191Y-21575000D01*
X193902802Y-21671673D01*
X193724173Y-21850301D01*
X193627500Y-22083690D01*
X191054356Y-22083690D01*
X190654062Y-21683396D01*
X189318046Y-21130000D01*
X187871954Y-21130000D01*
X186535938Y-21683396D01*
X185513396Y-22705938D01*
X184960000Y-24041954D01*
X184960000Y-25488046D01*
X185513396Y-26824062D01*
X186535938Y-27846604D01*
X187413253Y-28210000D01*
X171352239Y-28210000D01*
X169782261Y-26640022D01*
X179899584Y-26640022D01*
X180120353Y-27010743D01*
X181092012Y-27404119D01*
X182140247Y-27395713D01*
X183069647Y-27010743D01*
X183290416Y-26640022D01*
X181595000Y-24944605D01*
X179899584Y-26640022D01*
X169782261Y-26640022D01*
X168230000Y-25087762D01*
X168230000Y-24262012D01*
X178955881Y-24262012D01*
X178964287Y-25310247D01*
X179349257Y-26239647D01*
X179719978Y-26460416D01*
X181415395Y-24765000D01*
X181774605Y-24765000D01*
X183470022Y-26460416D01*
X183840743Y-26239647D01*
X184234119Y-25267988D01*
X184225713Y-24219753D01*
X183840743Y-23290353D01*
X183470022Y-23069584D01*
X181774605Y-24765000D01*
X181415395Y-24765000D01*
X179719978Y-23069584D01*
X179349257Y-23290353D01*
X178955881Y-24262012D01*
X168230000Y-24262012D01*
X168230000Y-24240866D01*
X167828845Y-23272392D01*
X167446431Y-22889978D01*
X179899584Y-22889978D01*
X181595000Y-24585395D01*
X183290416Y-22889978D01*
X183069647Y-22519257D01*
X182097988Y-22125881D01*
X181049753Y-22134287D01*
X180120353Y-22519257D01*
X179899584Y-22889978D01*
X167446431Y-22889978D01*
X167087608Y-22531155D01*
X166119134Y-22130000D01*
X165070866Y-22130000D01*
X164102392Y-22531155D01*
X163361155Y-23272392D01*
X162960000Y-24240866D01*
X162230000Y-24240866D01*
X162230000Y-24041954D01*
X161676604Y-22705938D01*
X160654062Y-21683396D01*
X159318046Y-21130000D01*
X157871954Y-21130000D01*
X156535938Y-21683396D01*
X155513396Y-22705938D01*
X155067000Y-23783633D01*
X155067000Y-20447000D01*
X249728013Y-20447000D01*
X248722643Y-21452370D01*
G04 #@! TD*
M02*
