G04 #@! TF.GenerationSoftware,KiCad,Pcbnew,5.0.2+dfsg1-1*
G04 #@! TF.CreationDate,2021-08-07T23:42:24+09:00*
G04 #@! TF.ProjectId,tmc-hv-enxtender,746d632d-6876-42d6-956e-7874656e6465,rev?*
G04 #@! TF.SameCoordinates,Original*
G04 #@! TF.FileFunction,Paste,Top*
G04 #@! TF.FilePolarity,Positive*
%FSLAX46Y46*%
G04 Gerber Fmt 4.6, Leading zero omitted, Abs format (unit mm)*
G04 Created by KiCad (PCBNEW 5.0.2+dfsg1-1) date Sat 07 Aug 2021 11:42:24 PM JST*
%MOMM*%
%LPD*%
G01*
G04 APERTURE LIST*
%ADD10C,0.100000*%
%ADD11C,1.300000*%
%ADD12C,1.150000*%
%ADD13C,1.250000*%
G04 APERTURE END LIST*
D10*
G04 #@! TO.C,D1*
G36*
X161714504Y-96473704D02*
X161738773Y-96477304D01*
X161762571Y-96483265D01*
X161785671Y-96491530D01*
X161807849Y-96502020D01*
X161828893Y-96514633D01*
X161848598Y-96529247D01*
X161866777Y-96545723D01*
X161883253Y-96563902D01*
X161897867Y-96583607D01*
X161910480Y-96604651D01*
X161920970Y-96626829D01*
X161929235Y-96649929D01*
X161935196Y-96673727D01*
X161938796Y-96697996D01*
X161940000Y-96722500D01*
X161940000Y-97547500D01*
X161938796Y-97572004D01*
X161935196Y-97596273D01*
X161929235Y-97620071D01*
X161920970Y-97643171D01*
X161910480Y-97665349D01*
X161897867Y-97686393D01*
X161883253Y-97706098D01*
X161866777Y-97724277D01*
X161848598Y-97740753D01*
X161828893Y-97755367D01*
X161807849Y-97767980D01*
X161785671Y-97778470D01*
X161762571Y-97786735D01*
X161738773Y-97792696D01*
X161714504Y-97796296D01*
X161690000Y-97797500D01*
X160890000Y-97797500D01*
X160865496Y-97796296D01*
X160841227Y-97792696D01*
X160817429Y-97786735D01*
X160794329Y-97778470D01*
X160772151Y-97767980D01*
X160751107Y-97755367D01*
X160731402Y-97740753D01*
X160713223Y-97724277D01*
X160696747Y-97706098D01*
X160682133Y-97686393D01*
X160669520Y-97665349D01*
X160659030Y-97643171D01*
X160650765Y-97620071D01*
X160644804Y-97596273D01*
X160641204Y-97572004D01*
X160640000Y-97547500D01*
X160640000Y-96722500D01*
X160641204Y-96697996D01*
X160644804Y-96673727D01*
X160650765Y-96649929D01*
X160659030Y-96626829D01*
X160669520Y-96604651D01*
X160682133Y-96583607D01*
X160696747Y-96563902D01*
X160713223Y-96545723D01*
X160731402Y-96529247D01*
X160751107Y-96514633D01*
X160772151Y-96502020D01*
X160794329Y-96491530D01*
X160817429Y-96483265D01*
X160841227Y-96477304D01*
X160865496Y-96473704D01*
X160890000Y-96472500D01*
X161690000Y-96472500D01*
X161714504Y-96473704D01*
X161714504Y-96473704D01*
G37*
D11*
X161290000Y-97135000D03*
D10*
G36*
X161714504Y-98398704D02*
X161738773Y-98402304D01*
X161762571Y-98408265D01*
X161785671Y-98416530D01*
X161807849Y-98427020D01*
X161828893Y-98439633D01*
X161848598Y-98454247D01*
X161866777Y-98470723D01*
X161883253Y-98488902D01*
X161897867Y-98508607D01*
X161910480Y-98529651D01*
X161920970Y-98551829D01*
X161929235Y-98574929D01*
X161935196Y-98598727D01*
X161938796Y-98622996D01*
X161940000Y-98647500D01*
X161940000Y-99472500D01*
X161938796Y-99497004D01*
X161935196Y-99521273D01*
X161929235Y-99545071D01*
X161920970Y-99568171D01*
X161910480Y-99590349D01*
X161897867Y-99611393D01*
X161883253Y-99631098D01*
X161866777Y-99649277D01*
X161848598Y-99665753D01*
X161828893Y-99680367D01*
X161807849Y-99692980D01*
X161785671Y-99703470D01*
X161762571Y-99711735D01*
X161738773Y-99717696D01*
X161714504Y-99721296D01*
X161690000Y-99722500D01*
X160890000Y-99722500D01*
X160865496Y-99721296D01*
X160841227Y-99717696D01*
X160817429Y-99711735D01*
X160794329Y-99703470D01*
X160772151Y-99692980D01*
X160751107Y-99680367D01*
X160731402Y-99665753D01*
X160713223Y-99649277D01*
X160696747Y-99631098D01*
X160682133Y-99611393D01*
X160669520Y-99590349D01*
X160659030Y-99568171D01*
X160650765Y-99545071D01*
X160644804Y-99521273D01*
X160641204Y-99497004D01*
X160640000Y-99472500D01*
X160640000Y-98647500D01*
X160641204Y-98622996D01*
X160644804Y-98598727D01*
X160650765Y-98574929D01*
X160659030Y-98551829D01*
X160669520Y-98529651D01*
X160682133Y-98508607D01*
X160696747Y-98488902D01*
X160713223Y-98470723D01*
X160731402Y-98454247D01*
X160751107Y-98439633D01*
X160772151Y-98427020D01*
X160794329Y-98416530D01*
X160817429Y-98408265D01*
X160841227Y-98402304D01*
X160865496Y-98398704D01*
X160890000Y-98397500D01*
X161690000Y-98397500D01*
X161714504Y-98398704D01*
X161714504Y-98398704D01*
G37*
D11*
X161290000Y-99060000D03*
G04 #@! TD*
D10*
G04 #@! TO.C,R1*
G36*
X161764505Y-93796204D02*
X161788773Y-93799804D01*
X161812572Y-93805765D01*
X161835671Y-93814030D01*
X161857850Y-93824520D01*
X161878893Y-93837132D01*
X161898599Y-93851747D01*
X161916777Y-93868223D01*
X161933253Y-93886401D01*
X161947868Y-93906107D01*
X161960480Y-93927150D01*
X161970970Y-93949329D01*
X161979235Y-93972428D01*
X161985196Y-93996227D01*
X161988796Y-94020495D01*
X161990000Y-94044999D01*
X161990000Y-94695001D01*
X161988796Y-94719505D01*
X161985196Y-94743773D01*
X161979235Y-94767572D01*
X161970970Y-94790671D01*
X161960480Y-94812850D01*
X161947868Y-94833893D01*
X161933253Y-94853599D01*
X161916777Y-94871777D01*
X161898599Y-94888253D01*
X161878893Y-94902868D01*
X161857850Y-94915480D01*
X161835671Y-94925970D01*
X161812572Y-94934235D01*
X161788773Y-94940196D01*
X161764505Y-94943796D01*
X161740001Y-94945000D01*
X160839999Y-94945000D01*
X160815495Y-94943796D01*
X160791227Y-94940196D01*
X160767428Y-94934235D01*
X160744329Y-94925970D01*
X160722150Y-94915480D01*
X160701107Y-94902868D01*
X160681401Y-94888253D01*
X160663223Y-94871777D01*
X160646747Y-94853599D01*
X160632132Y-94833893D01*
X160619520Y-94812850D01*
X160609030Y-94790671D01*
X160600765Y-94767572D01*
X160594804Y-94743773D01*
X160591204Y-94719505D01*
X160590000Y-94695001D01*
X160590000Y-94044999D01*
X160591204Y-94020495D01*
X160594804Y-93996227D01*
X160600765Y-93972428D01*
X160609030Y-93949329D01*
X160619520Y-93927150D01*
X160632132Y-93906107D01*
X160646747Y-93886401D01*
X160663223Y-93868223D01*
X160681401Y-93851747D01*
X160701107Y-93837132D01*
X160722150Y-93824520D01*
X160744329Y-93814030D01*
X160767428Y-93805765D01*
X160791227Y-93799804D01*
X160815495Y-93796204D01*
X160839999Y-93795000D01*
X161740001Y-93795000D01*
X161764505Y-93796204D01*
X161764505Y-93796204D01*
G37*
D12*
X161290000Y-94370000D03*
D10*
G36*
X161764505Y-91746204D02*
X161788773Y-91749804D01*
X161812572Y-91755765D01*
X161835671Y-91764030D01*
X161857850Y-91774520D01*
X161878893Y-91787132D01*
X161898599Y-91801747D01*
X161916777Y-91818223D01*
X161933253Y-91836401D01*
X161947868Y-91856107D01*
X161960480Y-91877150D01*
X161970970Y-91899329D01*
X161979235Y-91922428D01*
X161985196Y-91946227D01*
X161988796Y-91970495D01*
X161990000Y-91994999D01*
X161990000Y-92645001D01*
X161988796Y-92669505D01*
X161985196Y-92693773D01*
X161979235Y-92717572D01*
X161970970Y-92740671D01*
X161960480Y-92762850D01*
X161947868Y-92783893D01*
X161933253Y-92803599D01*
X161916777Y-92821777D01*
X161898599Y-92838253D01*
X161878893Y-92852868D01*
X161857850Y-92865480D01*
X161835671Y-92875970D01*
X161812572Y-92884235D01*
X161788773Y-92890196D01*
X161764505Y-92893796D01*
X161740001Y-92895000D01*
X160839999Y-92895000D01*
X160815495Y-92893796D01*
X160791227Y-92890196D01*
X160767428Y-92884235D01*
X160744329Y-92875970D01*
X160722150Y-92865480D01*
X160701107Y-92852868D01*
X160681401Y-92838253D01*
X160663223Y-92821777D01*
X160646747Y-92803599D01*
X160632132Y-92783893D01*
X160619520Y-92762850D01*
X160609030Y-92740671D01*
X160600765Y-92717572D01*
X160594804Y-92693773D01*
X160591204Y-92669505D01*
X160590000Y-92645001D01*
X160590000Y-91994999D01*
X160591204Y-91970495D01*
X160594804Y-91946227D01*
X160600765Y-91922428D01*
X160609030Y-91899329D01*
X160619520Y-91877150D01*
X160632132Y-91856107D01*
X160646747Y-91836401D01*
X160663223Y-91818223D01*
X160681401Y-91801747D01*
X160701107Y-91787132D01*
X160722150Y-91774520D01*
X160744329Y-91764030D01*
X160767428Y-91755765D01*
X160791227Y-91749804D01*
X160815495Y-91746204D01*
X160839999Y-91745000D01*
X161740001Y-91745000D01*
X161764505Y-91746204D01*
X161764505Y-91746204D01*
G37*
D12*
X161290000Y-92320000D03*
G04 #@! TD*
D10*
G04 #@! TO.C,C2*
G36*
X165564504Y-91451204D02*
X165588773Y-91454804D01*
X165612571Y-91460765D01*
X165635671Y-91469030D01*
X165657849Y-91479520D01*
X165678893Y-91492133D01*
X165698598Y-91506747D01*
X165716777Y-91523223D01*
X165733253Y-91541402D01*
X165747867Y-91561107D01*
X165760480Y-91582151D01*
X165770970Y-91604329D01*
X165779235Y-91627429D01*
X165785196Y-91651227D01*
X165788796Y-91675496D01*
X165790000Y-91700000D01*
X165790000Y-92450000D01*
X165788796Y-92474504D01*
X165785196Y-92498773D01*
X165779235Y-92522571D01*
X165770970Y-92545671D01*
X165760480Y-92567849D01*
X165747867Y-92588893D01*
X165733253Y-92608598D01*
X165716777Y-92626777D01*
X165698598Y-92643253D01*
X165678893Y-92657867D01*
X165657849Y-92670480D01*
X165635671Y-92680970D01*
X165612571Y-92689235D01*
X165588773Y-92695196D01*
X165564504Y-92698796D01*
X165540000Y-92700000D01*
X163390000Y-92700000D01*
X163365496Y-92698796D01*
X163341227Y-92695196D01*
X163317429Y-92689235D01*
X163294329Y-92680970D01*
X163272151Y-92670480D01*
X163251107Y-92657867D01*
X163231402Y-92643253D01*
X163213223Y-92626777D01*
X163196747Y-92608598D01*
X163182133Y-92588893D01*
X163169520Y-92567849D01*
X163159030Y-92545671D01*
X163150765Y-92522571D01*
X163144804Y-92498773D01*
X163141204Y-92474504D01*
X163140000Y-92450000D01*
X163140000Y-91700000D01*
X163141204Y-91675496D01*
X163144804Y-91651227D01*
X163150765Y-91627429D01*
X163159030Y-91604329D01*
X163169520Y-91582151D01*
X163182133Y-91561107D01*
X163196747Y-91541402D01*
X163213223Y-91523223D01*
X163231402Y-91506747D01*
X163251107Y-91492133D01*
X163272151Y-91479520D01*
X163294329Y-91469030D01*
X163317429Y-91460765D01*
X163341227Y-91454804D01*
X163365496Y-91451204D01*
X163390000Y-91450000D01*
X165540000Y-91450000D01*
X165564504Y-91451204D01*
X165564504Y-91451204D01*
G37*
D13*
X164465000Y-92075000D03*
D10*
G36*
X165564504Y-94251204D02*
X165588773Y-94254804D01*
X165612571Y-94260765D01*
X165635671Y-94269030D01*
X165657849Y-94279520D01*
X165678893Y-94292133D01*
X165698598Y-94306747D01*
X165716777Y-94323223D01*
X165733253Y-94341402D01*
X165747867Y-94361107D01*
X165760480Y-94382151D01*
X165770970Y-94404329D01*
X165779235Y-94427429D01*
X165785196Y-94451227D01*
X165788796Y-94475496D01*
X165790000Y-94500000D01*
X165790000Y-95250000D01*
X165788796Y-95274504D01*
X165785196Y-95298773D01*
X165779235Y-95322571D01*
X165770970Y-95345671D01*
X165760480Y-95367849D01*
X165747867Y-95388893D01*
X165733253Y-95408598D01*
X165716777Y-95426777D01*
X165698598Y-95443253D01*
X165678893Y-95457867D01*
X165657849Y-95470480D01*
X165635671Y-95480970D01*
X165612571Y-95489235D01*
X165588773Y-95495196D01*
X165564504Y-95498796D01*
X165540000Y-95500000D01*
X163390000Y-95500000D01*
X163365496Y-95498796D01*
X163341227Y-95495196D01*
X163317429Y-95489235D01*
X163294329Y-95480970D01*
X163272151Y-95470480D01*
X163251107Y-95457867D01*
X163231402Y-95443253D01*
X163213223Y-95426777D01*
X163196747Y-95408598D01*
X163182133Y-95388893D01*
X163169520Y-95367849D01*
X163159030Y-95345671D01*
X163150765Y-95322571D01*
X163144804Y-95298773D01*
X163141204Y-95274504D01*
X163140000Y-95250000D01*
X163140000Y-94500000D01*
X163141204Y-94475496D01*
X163144804Y-94451227D01*
X163150765Y-94427429D01*
X163159030Y-94404329D01*
X163169520Y-94382151D01*
X163182133Y-94361107D01*
X163196747Y-94341402D01*
X163213223Y-94323223D01*
X163231402Y-94306747D01*
X163251107Y-94292133D01*
X163272151Y-94279520D01*
X163294329Y-94269030D01*
X163317429Y-94260765D01*
X163341227Y-94254804D01*
X163365496Y-94251204D01*
X163390000Y-94250000D01*
X165540000Y-94250000D01*
X165564504Y-94251204D01*
X165564504Y-94251204D01*
G37*
D13*
X164465000Y-94875000D03*
G04 #@! TD*
D10*
G04 #@! TO.C,C4*
G36*
X224504505Y-74866204D02*
X224528773Y-74869804D01*
X224552572Y-74875765D01*
X224575671Y-74884030D01*
X224597850Y-74894520D01*
X224618893Y-74907132D01*
X224638599Y-74921747D01*
X224656777Y-74938223D01*
X224673253Y-74956401D01*
X224687868Y-74976107D01*
X224700480Y-74997150D01*
X224710970Y-75019329D01*
X224719235Y-75042428D01*
X224725196Y-75066227D01*
X224728796Y-75090495D01*
X224730000Y-75114999D01*
X224730000Y-76015001D01*
X224728796Y-76039505D01*
X224725196Y-76063773D01*
X224719235Y-76087572D01*
X224710970Y-76110671D01*
X224700480Y-76132850D01*
X224687868Y-76153893D01*
X224673253Y-76173599D01*
X224656777Y-76191777D01*
X224638599Y-76208253D01*
X224618893Y-76222868D01*
X224597850Y-76235480D01*
X224575671Y-76245970D01*
X224552572Y-76254235D01*
X224528773Y-76260196D01*
X224504505Y-76263796D01*
X224480001Y-76265000D01*
X223829999Y-76265000D01*
X223805495Y-76263796D01*
X223781227Y-76260196D01*
X223757428Y-76254235D01*
X223734329Y-76245970D01*
X223712150Y-76235480D01*
X223691107Y-76222868D01*
X223671401Y-76208253D01*
X223653223Y-76191777D01*
X223636747Y-76173599D01*
X223622132Y-76153893D01*
X223609520Y-76132850D01*
X223599030Y-76110671D01*
X223590765Y-76087572D01*
X223584804Y-76063773D01*
X223581204Y-76039505D01*
X223580000Y-76015001D01*
X223580000Y-75114999D01*
X223581204Y-75090495D01*
X223584804Y-75066227D01*
X223590765Y-75042428D01*
X223599030Y-75019329D01*
X223609520Y-74997150D01*
X223622132Y-74976107D01*
X223636747Y-74956401D01*
X223653223Y-74938223D01*
X223671401Y-74921747D01*
X223691107Y-74907132D01*
X223712150Y-74894520D01*
X223734329Y-74884030D01*
X223757428Y-74875765D01*
X223781227Y-74869804D01*
X223805495Y-74866204D01*
X223829999Y-74865000D01*
X224480001Y-74865000D01*
X224504505Y-74866204D01*
X224504505Y-74866204D01*
G37*
D12*
X224155000Y-75565000D03*
D10*
G36*
X226554505Y-74866204D02*
X226578773Y-74869804D01*
X226602572Y-74875765D01*
X226625671Y-74884030D01*
X226647850Y-74894520D01*
X226668893Y-74907132D01*
X226688599Y-74921747D01*
X226706777Y-74938223D01*
X226723253Y-74956401D01*
X226737868Y-74976107D01*
X226750480Y-74997150D01*
X226760970Y-75019329D01*
X226769235Y-75042428D01*
X226775196Y-75066227D01*
X226778796Y-75090495D01*
X226780000Y-75114999D01*
X226780000Y-76015001D01*
X226778796Y-76039505D01*
X226775196Y-76063773D01*
X226769235Y-76087572D01*
X226760970Y-76110671D01*
X226750480Y-76132850D01*
X226737868Y-76153893D01*
X226723253Y-76173599D01*
X226706777Y-76191777D01*
X226688599Y-76208253D01*
X226668893Y-76222868D01*
X226647850Y-76235480D01*
X226625671Y-76245970D01*
X226602572Y-76254235D01*
X226578773Y-76260196D01*
X226554505Y-76263796D01*
X226530001Y-76265000D01*
X225879999Y-76265000D01*
X225855495Y-76263796D01*
X225831227Y-76260196D01*
X225807428Y-76254235D01*
X225784329Y-76245970D01*
X225762150Y-76235480D01*
X225741107Y-76222868D01*
X225721401Y-76208253D01*
X225703223Y-76191777D01*
X225686747Y-76173599D01*
X225672132Y-76153893D01*
X225659520Y-76132850D01*
X225649030Y-76110671D01*
X225640765Y-76087572D01*
X225634804Y-76063773D01*
X225631204Y-76039505D01*
X225630000Y-76015001D01*
X225630000Y-75114999D01*
X225631204Y-75090495D01*
X225634804Y-75066227D01*
X225640765Y-75042428D01*
X225649030Y-75019329D01*
X225659520Y-74997150D01*
X225672132Y-74976107D01*
X225686747Y-74956401D01*
X225703223Y-74938223D01*
X225721401Y-74921747D01*
X225741107Y-74907132D01*
X225762150Y-74894520D01*
X225784329Y-74884030D01*
X225807428Y-74875765D01*
X225831227Y-74869804D01*
X225855495Y-74866204D01*
X225879999Y-74865000D01*
X226530001Y-74865000D01*
X226554505Y-74866204D01*
X226554505Y-74866204D01*
G37*
D12*
X226205000Y-75565000D03*
G04 #@! TD*
D10*
G04 #@! TO.C,C3*
G36*
X224504505Y-33591204D02*
X224528773Y-33594804D01*
X224552572Y-33600765D01*
X224575671Y-33609030D01*
X224597850Y-33619520D01*
X224618893Y-33632132D01*
X224638599Y-33646747D01*
X224656777Y-33663223D01*
X224673253Y-33681401D01*
X224687868Y-33701107D01*
X224700480Y-33722150D01*
X224710970Y-33744329D01*
X224719235Y-33767428D01*
X224725196Y-33791227D01*
X224728796Y-33815495D01*
X224730000Y-33839999D01*
X224730000Y-34740001D01*
X224728796Y-34764505D01*
X224725196Y-34788773D01*
X224719235Y-34812572D01*
X224710970Y-34835671D01*
X224700480Y-34857850D01*
X224687868Y-34878893D01*
X224673253Y-34898599D01*
X224656777Y-34916777D01*
X224638599Y-34933253D01*
X224618893Y-34947868D01*
X224597850Y-34960480D01*
X224575671Y-34970970D01*
X224552572Y-34979235D01*
X224528773Y-34985196D01*
X224504505Y-34988796D01*
X224480001Y-34990000D01*
X223829999Y-34990000D01*
X223805495Y-34988796D01*
X223781227Y-34985196D01*
X223757428Y-34979235D01*
X223734329Y-34970970D01*
X223712150Y-34960480D01*
X223691107Y-34947868D01*
X223671401Y-34933253D01*
X223653223Y-34916777D01*
X223636747Y-34898599D01*
X223622132Y-34878893D01*
X223609520Y-34857850D01*
X223599030Y-34835671D01*
X223590765Y-34812572D01*
X223584804Y-34788773D01*
X223581204Y-34764505D01*
X223580000Y-34740001D01*
X223580000Y-33839999D01*
X223581204Y-33815495D01*
X223584804Y-33791227D01*
X223590765Y-33767428D01*
X223599030Y-33744329D01*
X223609520Y-33722150D01*
X223622132Y-33701107D01*
X223636747Y-33681401D01*
X223653223Y-33663223D01*
X223671401Y-33646747D01*
X223691107Y-33632132D01*
X223712150Y-33619520D01*
X223734329Y-33609030D01*
X223757428Y-33600765D01*
X223781227Y-33594804D01*
X223805495Y-33591204D01*
X223829999Y-33590000D01*
X224480001Y-33590000D01*
X224504505Y-33591204D01*
X224504505Y-33591204D01*
G37*
D12*
X224155000Y-34290000D03*
D10*
G36*
X226554505Y-33591204D02*
X226578773Y-33594804D01*
X226602572Y-33600765D01*
X226625671Y-33609030D01*
X226647850Y-33619520D01*
X226668893Y-33632132D01*
X226688599Y-33646747D01*
X226706777Y-33663223D01*
X226723253Y-33681401D01*
X226737868Y-33701107D01*
X226750480Y-33722150D01*
X226760970Y-33744329D01*
X226769235Y-33767428D01*
X226775196Y-33791227D01*
X226778796Y-33815495D01*
X226780000Y-33839999D01*
X226780000Y-34740001D01*
X226778796Y-34764505D01*
X226775196Y-34788773D01*
X226769235Y-34812572D01*
X226760970Y-34835671D01*
X226750480Y-34857850D01*
X226737868Y-34878893D01*
X226723253Y-34898599D01*
X226706777Y-34916777D01*
X226688599Y-34933253D01*
X226668893Y-34947868D01*
X226647850Y-34960480D01*
X226625671Y-34970970D01*
X226602572Y-34979235D01*
X226578773Y-34985196D01*
X226554505Y-34988796D01*
X226530001Y-34990000D01*
X225879999Y-34990000D01*
X225855495Y-34988796D01*
X225831227Y-34985196D01*
X225807428Y-34979235D01*
X225784329Y-34970970D01*
X225762150Y-34960480D01*
X225741107Y-34947868D01*
X225721401Y-34933253D01*
X225703223Y-34916777D01*
X225686747Y-34898599D01*
X225672132Y-34878893D01*
X225659520Y-34857850D01*
X225649030Y-34835671D01*
X225640765Y-34812572D01*
X225634804Y-34788773D01*
X225631204Y-34764505D01*
X225630000Y-34740001D01*
X225630000Y-33839999D01*
X225631204Y-33815495D01*
X225634804Y-33791227D01*
X225640765Y-33767428D01*
X225649030Y-33744329D01*
X225659520Y-33722150D01*
X225672132Y-33701107D01*
X225686747Y-33681401D01*
X225703223Y-33663223D01*
X225721401Y-33646747D01*
X225741107Y-33632132D01*
X225762150Y-33619520D01*
X225784329Y-33609030D01*
X225807428Y-33600765D01*
X225831227Y-33594804D01*
X225855495Y-33591204D01*
X225879999Y-33590000D01*
X226530001Y-33590000D01*
X226554505Y-33591204D01*
X226554505Y-33591204D01*
G37*
D12*
X226205000Y-34290000D03*
G04 #@! TD*
D10*
G04 #@! TO.C,C5*
G36*
X207474504Y-39641204D02*
X207498773Y-39644804D01*
X207522571Y-39650765D01*
X207545671Y-39659030D01*
X207567849Y-39669520D01*
X207588893Y-39682133D01*
X207608598Y-39696747D01*
X207626777Y-39713223D01*
X207643253Y-39731402D01*
X207657867Y-39751107D01*
X207670480Y-39772151D01*
X207680970Y-39794329D01*
X207689235Y-39817429D01*
X207695196Y-39841227D01*
X207698796Y-39865496D01*
X207700000Y-39890000D01*
X207700000Y-40640000D01*
X207698796Y-40664504D01*
X207695196Y-40688773D01*
X207689235Y-40712571D01*
X207680970Y-40735671D01*
X207670480Y-40757849D01*
X207657867Y-40778893D01*
X207643253Y-40798598D01*
X207626777Y-40816777D01*
X207608598Y-40833253D01*
X207588893Y-40847867D01*
X207567849Y-40860480D01*
X207545671Y-40870970D01*
X207522571Y-40879235D01*
X207498773Y-40885196D01*
X207474504Y-40888796D01*
X207450000Y-40890000D01*
X205300000Y-40890000D01*
X205275496Y-40888796D01*
X205251227Y-40885196D01*
X205227429Y-40879235D01*
X205204329Y-40870970D01*
X205182151Y-40860480D01*
X205161107Y-40847867D01*
X205141402Y-40833253D01*
X205123223Y-40816777D01*
X205106747Y-40798598D01*
X205092133Y-40778893D01*
X205079520Y-40757849D01*
X205069030Y-40735671D01*
X205060765Y-40712571D01*
X205054804Y-40688773D01*
X205051204Y-40664504D01*
X205050000Y-40640000D01*
X205050000Y-39890000D01*
X205051204Y-39865496D01*
X205054804Y-39841227D01*
X205060765Y-39817429D01*
X205069030Y-39794329D01*
X205079520Y-39772151D01*
X205092133Y-39751107D01*
X205106747Y-39731402D01*
X205123223Y-39713223D01*
X205141402Y-39696747D01*
X205161107Y-39682133D01*
X205182151Y-39669520D01*
X205204329Y-39659030D01*
X205227429Y-39650765D01*
X205251227Y-39644804D01*
X205275496Y-39641204D01*
X205300000Y-39640000D01*
X207450000Y-39640000D01*
X207474504Y-39641204D01*
X207474504Y-39641204D01*
G37*
D13*
X206375000Y-40265000D03*
D10*
G36*
X207474504Y-36841204D02*
X207498773Y-36844804D01*
X207522571Y-36850765D01*
X207545671Y-36859030D01*
X207567849Y-36869520D01*
X207588893Y-36882133D01*
X207608598Y-36896747D01*
X207626777Y-36913223D01*
X207643253Y-36931402D01*
X207657867Y-36951107D01*
X207670480Y-36972151D01*
X207680970Y-36994329D01*
X207689235Y-37017429D01*
X207695196Y-37041227D01*
X207698796Y-37065496D01*
X207700000Y-37090000D01*
X207700000Y-37840000D01*
X207698796Y-37864504D01*
X207695196Y-37888773D01*
X207689235Y-37912571D01*
X207680970Y-37935671D01*
X207670480Y-37957849D01*
X207657867Y-37978893D01*
X207643253Y-37998598D01*
X207626777Y-38016777D01*
X207608598Y-38033253D01*
X207588893Y-38047867D01*
X207567849Y-38060480D01*
X207545671Y-38070970D01*
X207522571Y-38079235D01*
X207498773Y-38085196D01*
X207474504Y-38088796D01*
X207450000Y-38090000D01*
X205300000Y-38090000D01*
X205275496Y-38088796D01*
X205251227Y-38085196D01*
X205227429Y-38079235D01*
X205204329Y-38070970D01*
X205182151Y-38060480D01*
X205161107Y-38047867D01*
X205141402Y-38033253D01*
X205123223Y-38016777D01*
X205106747Y-37998598D01*
X205092133Y-37978893D01*
X205079520Y-37957849D01*
X205069030Y-37935671D01*
X205060765Y-37912571D01*
X205054804Y-37888773D01*
X205051204Y-37864504D01*
X205050000Y-37840000D01*
X205050000Y-37090000D01*
X205051204Y-37065496D01*
X205054804Y-37041227D01*
X205060765Y-37017429D01*
X205069030Y-36994329D01*
X205079520Y-36972151D01*
X205092133Y-36951107D01*
X205106747Y-36931402D01*
X205123223Y-36913223D01*
X205141402Y-36896747D01*
X205161107Y-36882133D01*
X205182151Y-36869520D01*
X205204329Y-36859030D01*
X205227429Y-36850765D01*
X205251227Y-36844804D01*
X205275496Y-36841204D01*
X205300000Y-36840000D01*
X207450000Y-36840000D01*
X207474504Y-36841204D01*
X207474504Y-36841204D01*
G37*
D13*
X206375000Y-37465000D03*
G04 #@! TD*
D10*
G04 #@! TO.C,C7*
G36*
X207474504Y-78116204D02*
X207498773Y-78119804D01*
X207522571Y-78125765D01*
X207545671Y-78134030D01*
X207567849Y-78144520D01*
X207588893Y-78157133D01*
X207608598Y-78171747D01*
X207626777Y-78188223D01*
X207643253Y-78206402D01*
X207657867Y-78226107D01*
X207670480Y-78247151D01*
X207680970Y-78269329D01*
X207689235Y-78292429D01*
X207695196Y-78316227D01*
X207698796Y-78340496D01*
X207700000Y-78365000D01*
X207700000Y-79115000D01*
X207698796Y-79139504D01*
X207695196Y-79163773D01*
X207689235Y-79187571D01*
X207680970Y-79210671D01*
X207670480Y-79232849D01*
X207657867Y-79253893D01*
X207643253Y-79273598D01*
X207626777Y-79291777D01*
X207608598Y-79308253D01*
X207588893Y-79322867D01*
X207567849Y-79335480D01*
X207545671Y-79345970D01*
X207522571Y-79354235D01*
X207498773Y-79360196D01*
X207474504Y-79363796D01*
X207450000Y-79365000D01*
X205300000Y-79365000D01*
X205275496Y-79363796D01*
X205251227Y-79360196D01*
X205227429Y-79354235D01*
X205204329Y-79345970D01*
X205182151Y-79335480D01*
X205161107Y-79322867D01*
X205141402Y-79308253D01*
X205123223Y-79291777D01*
X205106747Y-79273598D01*
X205092133Y-79253893D01*
X205079520Y-79232849D01*
X205069030Y-79210671D01*
X205060765Y-79187571D01*
X205054804Y-79163773D01*
X205051204Y-79139504D01*
X205050000Y-79115000D01*
X205050000Y-78365000D01*
X205051204Y-78340496D01*
X205054804Y-78316227D01*
X205060765Y-78292429D01*
X205069030Y-78269329D01*
X205079520Y-78247151D01*
X205092133Y-78226107D01*
X205106747Y-78206402D01*
X205123223Y-78188223D01*
X205141402Y-78171747D01*
X205161107Y-78157133D01*
X205182151Y-78144520D01*
X205204329Y-78134030D01*
X205227429Y-78125765D01*
X205251227Y-78119804D01*
X205275496Y-78116204D01*
X205300000Y-78115000D01*
X207450000Y-78115000D01*
X207474504Y-78116204D01*
X207474504Y-78116204D01*
G37*
D13*
X206375000Y-78740000D03*
D10*
G36*
X207474504Y-80916204D02*
X207498773Y-80919804D01*
X207522571Y-80925765D01*
X207545671Y-80934030D01*
X207567849Y-80944520D01*
X207588893Y-80957133D01*
X207608598Y-80971747D01*
X207626777Y-80988223D01*
X207643253Y-81006402D01*
X207657867Y-81026107D01*
X207670480Y-81047151D01*
X207680970Y-81069329D01*
X207689235Y-81092429D01*
X207695196Y-81116227D01*
X207698796Y-81140496D01*
X207700000Y-81165000D01*
X207700000Y-81915000D01*
X207698796Y-81939504D01*
X207695196Y-81963773D01*
X207689235Y-81987571D01*
X207680970Y-82010671D01*
X207670480Y-82032849D01*
X207657867Y-82053893D01*
X207643253Y-82073598D01*
X207626777Y-82091777D01*
X207608598Y-82108253D01*
X207588893Y-82122867D01*
X207567849Y-82135480D01*
X207545671Y-82145970D01*
X207522571Y-82154235D01*
X207498773Y-82160196D01*
X207474504Y-82163796D01*
X207450000Y-82165000D01*
X205300000Y-82165000D01*
X205275496Y-82163796D01*
X205251227Y-82160196D01*
X205227429Y-82154235D01*
X205204329Y-82145970D01*
X205182151Y-82135480D01*
X205161107Y-82122867D01*
X205141402Y-82108253D01*
X205123223Y-82091777D01*
X205106747Y-82073598D01*
X205092133Y-82053893D01*
X205079520Y-82032849D01*
X205069030Y-82010671D01*
X205060765Y-81987571D01*
X205054804Y-81963773D01*
X205051204Y-81939504D01*
X205050000Y-81915000D01*
X205050000Y-81165000D01*
X205051204Y-81140496D01*
X205054804Y-81116227D01*
X205060765Y-81092429D01*
X205069030Y-81069329D01*
X205079520Y-81047151D01*
X205092133Y-81026107D01*
X205106747Y-81006402D01*
X205123223Y-80988223D01*
X205141402Y-80971747D01*
X205161107Y-80957133D01*
X205182151Y-80944520D01*
X205204329Y-80934030D01*
X205227429Y-80925765D01*
X205251227Y-80919804D01*
X205275496Y-80916204D01*
X205300000Y-80915000D01*
X207450000Y-80915000D01*
X207474504Y-80916204D01*
X207474504Y-80916204D01*
G37*
D13*
X206375000Y-81540000D03*
G04 #@! TD*
D10*
G04 #@! TO.C,D2*
G36*
X195362004Y-22211204D02*
X195386273Y-22214804D01*
X195410071Y-22220765D01*
X195433171Y-22229030D01*
X195455349Y-22239520D01*
X195476393Y-22252133D01*
X195496098Y-22266747D01*
X195514277Y-22283223D01*
X195530753Y-22301402D01*
X195545367Y-22321107D01*
X195557980Y-22342151D01*
X195568470Y-22364329D01*
X195576735Y-22387429D01*
X195582696Y-22411227D01*
X195586296Y-22435496D01*
X195587500Y-22460000D01*
X195587500Y-23260000D01*
X195586296Y-23284504D01*
X195582696Y-23308773D01*
X195576735Y-23332571D01*
X195568470Y-23355671D01*
X195557980Y-23377849D01*
X195545367Y-23398893D01*
X195530753Y-23418598D01*
X195514277Y-23436777D01*
X195496098Y-23453253D01*
X195476393Y-23467867D01*
X195455349Y-23480480D01*
X195433171Y-23490970D01*
X195410071Y-23499235D01*
X195386273Y-23505196D01*
X195362004Y-23508796D01*
X195337500Y-23510000D01*
X194512500Y-23510000D01*
X194487996Y-23508796D01*
X194463727Y-23505196D01*
X194439929Y-23499235D01*
X194416829Y-23490970D01*
X194394651Y-23480480D01*
X194373607Y-23467867D01*
X194353902Y-23453253D01*
X194335723Y-23436777D01*
X194319247Y-23418598D01*
X194304633Y-23398893D01*
X194292020Y-23377849D01*
X194281530Y-23355671D01*
X194273265Y-23332571D01*
X194267304Y-23308773D01*
X194263704Y-23284504D01*
X194262500Y-23260000D01*
X194262500Y-22460000D01*
X194263704Y-22435496D01*
X194267304Y-22411227D01*
X194273265Y-22387429D01*
X194281530Y-22364329D01*
X194292020Y-22342151D01*
X194304633Y-22321107D01*
X194319247Y-22301402D01*
X194335723Y-22283223D01*
X194353902Y-22266747D01*
X194373607Y-22252133D01*
X194394651Y-22239520D01*
X194416829Y-22229030D01*
X194439929Y-22220765D01*
X194463727Y-22214804D01*
X194487996Y-22211204D01*
X194512500Y-22210000D01*
X195337500Y-22210000D01*
X195362004Y-22211204D01*
X195362004Y-22211204D01*
G37*
D11*
X194925000Y-22860000D03*
D10*
G36*
X197287004Y-22211204D02*
X197311273Y-22214804D01*
X197335071Y-22220765D01*
X197358171Y-22229030D01*
X197380349Y-22239520D01*
X197401393Y-22252133D01*
X197421098Y-22266747D01*
X197439277Y-22283223D01*
X197455753Y-22301402D01*
X197470367Y-22321107D01*
X197482980Y-22342151D01*
X197493470Y-22364329D01*
X197501735Y-22387429D01*
X197507696Y-22411227D01*
X197511296Y-22435496D01*
X197512500Y-22460000D01*
X197512500Y-23260000D01*
X197511296Y-23284504D01*
X197507696Y-23308773D01*
X197501735Y-23332571D01*
X197493470Y-23355671D01*
X197482980Y-23377849D01*
X197470367Y-23398893D01*
X197455753Y-23418598D01*
X197439277Y-23436777D01*
X197421098Y-23453253D01*
X197401393Y-23467867D01*
X197380349Y-23480480D01*
X197358171Y-23490970D01*
X197335071Y-23499235D01*
X197311273Y-23505196D01*
X197287004Y-23508796D01*
X197262500Y-23510000D01*
X196437500Y-23510000D01*
X196412996Y-23508796D01*
X196388727Y-23505196D01*
X196364929Y-23499235D01*
X196341829Y-23490970D01*
X196319651Y-23480480D01*
X196298607Y-23467867D01*
X196278902Y-23453253D01*
X196260723Y-23436777D01*
X196244247Y-23418598D01*
X196229633Y-23398893D01*
X196217020Y-23377849D01*
X196206530Y-23355671D01*
X196198265Y-23332571D01*
X196192304Y-23308773D01*
X196188704Y-23284504D01*
X196187500Y-23260000D01*
X196187500Y-22460000D01*
X196188704Y-22435496D01*
X196192304Y-22411227D01*
X196198265Y-22387429D01*
X196206530Y-22364329D01*
X196217020Y-22342151D01*
X196229633Y-22321107D01*
X196244247Y-22301402D01*
X196260723Y-22283223D01*
X196278902Y-22266747D01*
X196298607Y-22252133D01*
X196319651Y-22239520D01*
X196341829Y-22229030D01*
X196364929Y-22220765D01*
X196388727Y-22214804D01*
X196412996Y-22211204D01*
X196437500Y-22210000D01*
X197262500Y-22210000D01*
X197287004Y-22211204D01*
X197287004Y-22211204D01*
G37*
D11*
X196850000Y-22860000D03*
G04 #@! TD*
D10*
G04 #@! TO.C,R2*
G36*
X195149505Y-26606204D02*
X195173773Y-26609804D01*
X195197572Y-26615765D01*
X195220671Y-26624030D01*
X195242850Y-26634520D01*
X195263893Y-26647132D01*
X195283599Y-26661747D01*
X195301777Y-26678223D01*
X195318253Y-26696401D01*
X195332868Y-26716107D01*
X195345480Y-26737150D01*
X195355970Y-26759329D01*
X195364235Y-26782428D01*
X195370196Y-26806227D01*
X195373796Y-26830495D01*
X195375000Y-26854999D01*
X195375000Y-27755001D01*
X195373796Y-27779505D01*
X195370196Y-27803773D01*
X195364235Y-27827572D01*
X195355970Y-27850671D01*
X195345480Y-27872850D01*
X195332868Y-27893893D01*
X195318253Y-27913599D01*
X195301777Y-27931777D01*
X195283599Y-27948253D01*
X195263893Y-27962868D01*
X195242850Y-27975480D01*
X195220671Y-27985970D01*
X195197572Y-27994235D01*
X195173773Y-28000196D01*
X195149505Y-28003796D01*
X195125001Y-28005000D01*
X194474999Y-28005000D01*
X194450495Y-28003796D01*
X194426227Y-28000196D01*
X194402428Y-27994235D01*
X194379329Y-27985970D01*
X194357150Y-27975480D01*
X194336107Y-27962868D01*
X194316401Y-27948253D01*
X194298223Y-27931777D01*
X194281747Y-27913599D01*
X194267132Y-27893893D01*
X194254520Y-27872850D01*
X194244030Y-27850671D01*
X194235765Y-27827572D01*
X194229804Y-27803773D01*
X194226204Y-27779505D01*
X194225000Y-27755001D01*
X194225000Y-26854999D01*
X194226204Y-26830495D01*
X194229804Y-26806227D01*
X194235765Y-26782428D01*
X194244030Y-26759329D01*
X194254520Y-26737150D01*
X194267132Y-26716107D01*
X194281747Y-26696401D01*
X194298223Y-26678223D01*
X194316401Y-26661747D01*
X194336107Y-26647132D01*
X194357150Y-26634520D01*
X194379329Y-26624030D01*
X194402428Y-26615765D01*
X194426227Y-26609804D01*
X194450495Y-26606204D01*
X194474999Y-26605000D01*
X195125001Y-26605000D01*
X195149505Y-26606204D01*
X195149505Y-26606204D01*
G37*
D12*
X194800000Y-27305000D03*
D10*
G36*
X197199505Y-26606204D02*
X197223773Y-26609804D01*
X197247572Y-26615765D01*
X197270671Y-26624030D01*
X197292850Y-26634520D01*
X197313893Y-26647132D01*
X197333599Y-26661747D01*
X197351777Y-26678223D01*
X197368253Y-26696401D01*
X197382868Y-26716107D01*
X197395480Y-26737150D01*
X197405970Y-26759329D01*
X197414235Y-26782428D01*
X197420196Y-26806227D01*
X197423796Y-26830495D01*
X197425000Y-26854999D01*
X197425000Y-27755001D01*
X197423796Y-27779505D01*
X197420196Y-27803773D01*
X197414235Y-27827572D01*
X197405970Y-27850671D01*
X197395480Y-27872850D01*
X197382868Y-27893893D01*
X197368253Y-27913599D01*
X197351777Y-27931777D01*
X197333599Y-27948253D01*
X197313893Y-27962868D01*
X197292850Y-27975480D01*
X197270671Y-27985970D01*
X197247572Y-27994235D01*
X197223773Y-28000196D01*
X197199505Y-28003796D01*
X197175001Y-28005000D01*
X196524999Y-28005000D01*
X196500495Y-28003796D01*
X196476227Y-28000196D01*
X196452428Y-27994235D01*
X196429329Y-27985970D01*
X196407150Y-27975480D01*
X196386107Y-27962868D01*
X196366401Y-27948253D01*
X196348223Y-27931777D01*
X196331747Y-27913599D01*
X196317132Y-27893893D01*
X196304520Y-27872850D01*
X196294030Y-27850671D01*
X196285765Y-27827572D01*
X196279804Y-27803773D01*
X196276204Y-27779505D01*
X196275000Y-27755001D01*
X196275000Y-26854999D01*
X196276204Y-26830495D01*
X196279804Y-26806227D01*
X196285765Y-26782428D01*
X196294030Y-26759329D01*
X196304520Y-26737150D01*
X196317132Y-26716107D01*
X196331747Y-26696401D01*
X196348223Y-26678223D01*
X196366401Y-26661747D01*
X196386107Y-26647132D01*
X196407150Y-26634520D01*
X196429329Y-26624030D01*
X196452428Y-26615765D01*
X196476227Y-26609804D01*
X196500495Y-26606204D01*
X196524999Y-26605000D01*
X197175001Y-26605000D01*
X197199505Y-26606204D01*
X197199505Y-26606204D01*
G37*
D12*
X196850000Y-27305000D03*
G04 #@! TD*
M02*
