M48
;DRILL file {KiCad 5.0.2+dfsg1-1} date Thu 21 Apr 2022 06:11:22 PM JST
;FORMAT={-:-/ absolute / inch / decimal}
FMAT,2
INCH,TZ
T1C0.0157
T2C0.0300
T3C0.0315
T4C0.0374
T5C0.0390
T6C0.0394
T7C0.0512
T8C0.1260
%
G90
G05
T1
X3.5827Y-5.8169
X4.4193Y-4.5177
X4.5276Y-4.5177
X5.1181Y-4.9213
X5.1476Y-4.5571
T2
X3.5827Y-4.685
X3.6827Y-4.685
X3.7827Y-4.685
X3.3858Y-5.4528
X3.4858Y-5.4528
X3.5858Y-5.4528
X3.6758Y-5.4528
X3.7858Y-5.4528
X3.8858Y-5.4528
T3
X4.0945Y-4.9016
X4.2323Y-4.9016
X4.0945Y-5.2559
X4.2323Y-5.2559
X5.502Y-4.9803
X5.502Y-5.1181
X5.8661Y-4.9803
X5.8661Y-5.1181
X2.902Y-4.7146
X2.902Y-5.0146
X3.002Y-4.7146
X3.002Y-5.0146
X5.8661Y-4.626
X5.8661Y-4.7638
X5.502Y-4.626
X5.502Y-4.7638
X4.6606Y-4.8425
X4.6606Y-5.1425
X4.7606Y-4.8425
X4.7606Y-5.1425
X4.8606Y-4.8425
X4.8606Y-5.1425
X4.9606Y-4.8425
X4.9606Y-5.1425
T4
X6.0231Y-4.23
X6.1216Y-4.23
X6.22Y-4.23
X2.53Y-4.6063
X2.53Y-4.7047
X2.53Y-4.8031
X5.2616Y-4.23
X5.36Y-4.23
X5.4584Y-4.23
X5.5569Y-4.23
X5.6553Y-4.23
X5.7537Y-4.23
T5
X2.7465Y-5.89
X5.9941Y-5.8854
X6.1713Y-5.8854
X5.187Y-5.8854
X5.3642Y-5.8854
X2.5693Y-5.89
X4.5374Y-5.89
X4.7146Y-5.89
T6
X4.1142Y-4.3406
X4.311Y-4.3406
X5.2543Y-4.4488
X5.3543Y-4.4488
X2.815Y-4.3504
X3.0118Y-4.3504
X2.53Y-4.24
X2.53Y-4.3384
X3.248Y-4.3504
X3.4449Y-4.3504
X3.6811Y-4.3406
X3.878Y-4.3406
X5.5693Y-4.4488
X5.6693Y-4.4488
X6.2205Y-4.7244
X6.2205Y-4.8228
T7
X5.1374Y-5.7874
X5.4134Y-5.7874
X2.5197Y-5.792
X2.7957Y-5.792
X4.4878Y-5.792
X4.7638Y-5.792
X5.9445Y-5.7874
X6.2205Y-5.7874
T8
X4.626Y-5.5512
X5.2756Y-5.5512
X6.0827Y-5.5512
X4.7244Y-4.3701
X2.6575Y-5.5512
T0
M30
