M48
;DRILL file {KiCad 5.0.2+dfsg1-1} date Sat 26 Mar 2022 11:50:04 PM JST
;FORMAT={-:-/ absolute / inch / decimal}
FMAT,2
INCH,TZ
T1C0.0157
T2C0.0300
T3C0.0315
T4C0.0374
T5C0.0390
T6C0.0394
T7C0.0472
T8C0.0512
T9C0.1260
%
G90
G05
T1
X2.93Y-4.96
X5.11Y-5.32
T2
X3.53Y-5.42
X3.63Y-5.42
X3.73Y-5.42
X3.82Y-5.42
X3.93Y-5.42
X4.03Y-5.42
X3.53Y-4.85
X3.63Y-4.85
X3.73Y-4.85
X3.83Y-4.85
T3
X3.28Y-4.91
X3.28Y-5.31
X3.38Y-4.91
X3.38Y-5.31
X4.41Y-4.9991
X4.41Y-5.2991
X4.51Y-4.9991
X4.51Y-5.2991
X4.61Y-4.9991
X4.61Y-5.2991
X4.71Y-4.9991
X4.71Y-5.2991
X3.75Y-5.0622
X3.75Y-5.2
X3.03Y-4.91
X3.03Y-5.31
X3.13Y-4.91
X3.13Y-5.31
X5.7322Y-5.19
X5.87Y-5.19
X5.0722Y-4.58
X5.21Y-4.58
X5.42Y-4.58
X5.5578Y-4.58
X2.49Y-5.21
X2.49Y-5.31
X2.89Y-5.21
X2.89Y-5.31
X5.73Y-4.8
X5.8678Y-4.8
X4.03Y-5.13
X4.1678Y-5.13
T4
X5.2616Y-4.23
X5.36Y-4.23
X5.4584Y-4.23
X5.5569Y-4.23
X5.6553Y-4.23
X5.7537Y-4.23
X6.0231Y-4.23
X6.1216Y-4.23
X6.22Y-4.23
X2.53Y-4.6
X2.53Y-4.6984
X2.53Y-4.7969
X2.53Y-4.8953
X2.53Y-4.9937
T5
X5.8228Y-5.89
X6.Y-5.89
X5.01Y-5.89
X5.1872Y-5.89
X2.5928Y-5.89
X2.77Y-5.89
X4.35Y-5.89
X4.5272Y-5.89
T6
X2.53Y-4.24
X2.53Y-4.3384
X6.22Y-4.98
X6.22Y-5.0784
T7
X4.68Y-4.5231
X4.68Y-4.72
X4.15Y-4.5231
X4.15Y-4.72
X3.0731Y-5.67
X3.27Y-5.67
X3.04Y-4.31
X3.04Y-4.6053
T8
X5.7732Y-5.792
X6.0492Y-5.792
X4.9604Y-5.792
X5.2364Y-5.792
X2.5432Y-5.792
X2.8192Y-5.792
X4.3004Y-5.792
X4.5764Y-5.792
T9
X5.1Y-5.56
X4.44Y-5.56
X2.68Y-5.56
X5.91Y-5.56
T0
M30
