%TF.GenerationSoftware,KiCad,Pcbnew,5.0.2+dfsg1-1*%
%TF.CreationDate,2022-03-26T23:50:01+09:00*%
%TF.ProjectId,car-bluetooth,6361722d-626c-4756-9574-6f6f74682e6b,rev?*%
%TF.SameCoordinates,Original*%
%TF.FileFunction,Paste,Top*%
%TF.FilePolarity,Positive*%
%FSLAX46Y46*%
G04 Gerber Fmt 4.6, Leading zero omitted, Abs format (unit mm)*
G04 Created by KiCad (PCBNEW 5.0.2+dfsg1-1) date Sat 26 Mar 2022 11:50:01 PM JST*
%MOMM*%
%LPD*%
G01*
G04 APERTURE LIST*
%ADD10C,0.150000*%
%ADD11C,0.100000*%
%ADD12C,1.150000*%
G04 APERTURE END LIST*
D10*
X61214000Y-104140000D02*
X61214000Y-152400000D01*
X161036000Y-104140000D02*
X61214000Y-104140000D01*
X161036000Y-152400000D02*
X161036000Y-104140000D01*
X61214000Y-152400000D02*
X161036000Y-152400000D01*
D11*
G36*
X87342505Y-119577204D02*
X87366773Y-119580804D01*
X87390572Y-119586765D01*
X87413671Y-119595030D01*
X87435850Y-119605520D01*
X87456893Y-119618132D01*
X87476599Y-119632747D01*
X87494777Y-119649223D01*
X87511253Y-119667401D01*
X87525868Y-119687107D01*
X87538480Y-119708150D01*
X87548970Y-119730329D01*
X87557235Y-119753428D01*
X87563196Y-119777227D01*
X87566796Y-119801495D01*
X87568000Y-119825999D01*
X87568000Y-120476001D01*
X87566796Y-120500505D01*
X87563196Y-120524773D01*
X87557235Y-120548572D01*
X87548970Y-120571671D01*
X87538480Y-120593850D01*
X87525868Y-120614893D01*
X87511253Y-120634599D01*
X87494777Y-120652777D01*
X87476599Y-120669253D01*
X87456893Y-120683868D01*
X87435850Y-120696480D01*
X87413671Y-120706970D01*
X87390572Y-120715235D01*
X87366773Y-120721196D01*
X87342505Y-120724796D01*
X87318001Y-120726000D01*
X86417999Y-120726000D01*
X86393495Y-120724796D01*
X86369227Y-120721196D01*
X86345428Y-120715235D01*
X86322329Y-120706970D01*
X86300150Y-120696480D01*
X86279107Y-120683868D01*
X86259401Y-120669253D01*
X86241223Y-120652777D01*
X86224747Y-120634599D01*
X86210132Y-120614893D01*
X86197520Y-120593850D01*
X86187030Y-120571671D01*
X86178765Y-120548572D01*
X86172804Y-120524773D01*
X86169204Y-120500505D01*
X86168000Y-120476001D01*
X86168000Y-119825999D01*
X86169204Y-119801495D01*
X86172804Y-119777227D01*
X86178765Y-119753428D01*
X86187030Y-119730329D01*
X86197520Y-119708150D01*
X86210132Y-119687107D01*
X86224747Y-119667401D01*
X86241223Y-119649223D01*
X86259401Y-119632747D01*
X86279107Y-119618132D01*
X86300150Y-119605520D01*
X86322329Y-119595030D01*
X86345428Y-119586765D01*
X86369227Y-119580804D01*
X86393495Y-119577204D01*
X86417999Y-119576000D01*
X87318001Y-119576000D01*
X87342505Y-119577204D01*
X87342505Y-119577204D01*
G37*
D12*
X86868000Y-120151000D03*
D11*
G36*
X87342505Y-117527204D02*
X87366773Y-117530804D01*
X87390572Y-117536765D01*
X87413671Y-117545030D01*
X87435850Y-117555520D01*
X87456893Y-117568132D01*
X87476599Y-117582747D01*
X87494777Y-117599223D01*
X87511253Y-117617401D01*
X87525868Y-117637107D01*
X87538480Y-117658150D01*
X87548970Y-117680329D01*
X87557235Y-117703428D01*
X87563196Y-117727227D01*
X87566796Y-117751495D01*
X87568000Y-117775999D01*
X87568000Y-118426001D01*
X87566796Y-118450505D01*
X87563196Y-118474773D01*
X87557235Y-118498572D01*
X87548970Y-118521671D01*
X87538480Y-118543850D01*
X87525868Y-118564893D01*
X87511253Y-118584599D01*
X87494777Y-118602777D01*
X87476599Y-118619253D01*
X87456893Y-118633868D01*
X87435850Y-118646480D01*
X87413671Y-118656970D01*
X87390572Y-118665235D01*
X87366773Y-118671196D01*
X87342505Y-118674796D01*
X87318001Y-118676000D01*
X86417999Y-118676000D01*
X86393495Y-118674796D01*
X86369227Y-118671196D01*
X86345428Y-118665235D01*
X86322329Y-118656970D01*
X86300150Y-118646480D01*
X86279107Y-118633868D01*
X86259401Y-118619253D01*
X86241223Y-118602777D01*
X86224747Y-118584599D01*
X86210132Y-118564893D01*
X86197520Y-118543850D01*
X86187030Y-118521671D01*
X86178765Y-118498572D01*
X86172804Y-118474773D01*
X86169204Y-118450505D01*
X86168000Y-118426001D01*
X86168000Y-117775999D01*
X86169204Y-117751495D01*
X86172804Y-117727227D01*
X86178765Y-117703428D01*
X86187030Y-117680329D01*
X86197520Y-117658150D01*
X86210132Y-117637107D01*
X86224747Y-117617401D01*
X86241223Y-117599223D01*
X86259401Y-117582747D01*
X86279107Y-117568132D01*
X86300150Y-117555520D01*
X86322329Y-117545030D01*
X86345428Y-117536765D01*
X86369227Y-117530804D01*
X86393495Y-117527204D01*
X86417999Y-117526000D01*
X87318001Y-117526000D01*
X87342505Y-117527204D01*
X87342505Y-117527204D01*
G37*
D12*
X86868000Y-118101000D03*
D11*
G36*
X125696505Y-123877204D02*
X125720773Y-123880804D01*
X125744572Y-123886765D01*
X125767671Y-123895030D01*
X125789850Y-123905520D01*
X125810893Y-123918132D01*
X125830599Y-123932747D01*
X125848777Y-123949223D01*
X125865253Y-123967401D01*
X125879868Y-123987107D01*
X125892480Y-124008150D01*
X125902970Y-124030329D01*
X125911235Y-124053428D01*
X125917196Y-124077227D01*
X125920796Y-124101495D01*
X125922000Y-124125999D01*
X125922000Y-124776001D01*
X125920796Y-124800505D01*
X125917196Y-124824773D01*
X125911235Y-124848572D01*
X125902970Y-124871671D01*
X125892480Y-124893850D01*
X125879868Y-124914893D01*
X125865253Y-124934599D01*
X125848777Y-124952777D01*
X125830599Y-124969253D01*
X125810893Y-124983868D01*
X125789850Y-124996480D01*
X125767671Y-125006970D01*
X125744572Y-125015235D01*
X125720773Y-125021196D01*
X125696505Y-125024796D01*
X125672001Y-125026000D01*
X124771999Y-125026000D01*
X124747495Y-125024796D01*
X124723227Y-125021196D01*
X124699428Y-125015235D01*
X124676329Y-125006970D01*
X124654150Y-124996480D01*
X124633107Y-124983868D01*
X124613401Y-124969253D01*
X124595223Y-124952777D01*
X124578747Y-124934599D01*
X124564132Y-124914893D01*
X124551520Y-124893850D01*
X124541030Y-124871671D01*
X124532765Y-124848572D01*
X124526804Y-124824773D01*
X124523204Y-124800505D01*
X124522000Y-124776001D01*
X124522000Y-124125999D01*
X124523204Y-124101495D01*
X124526804Y-124077227D01*
X124532765Y-124053428D01*
X124541030Y-124030329D01*
X124551520Y-124008150D01*
X124564132Y-123987107D01*
X124578747Y-123967401D01*
X124595223Y-123949223D01*
X124613401Y-123932747D01*
X124633107Y-123918132D01*
X124654150Y-123905520D01*
X124676329Y-123895030D01*
X124699428Y-123886765D01*
X124723227Y-123880804D01*
X124747495Y-123877204D01*
X124771999Y-123876000D01*
X125672001Y-123876000D01*
X125696505Y-123877204D01*
X125696505Y-123877204D01*
G37*
D12*
X125222000Y-124451000D03*
D11*
G36*
X125696505Y-125927204D02*
X125720773Y-125930804D01*
X125744572Y-125936765D01*
X125767671Y-125945030D01*
X125789850Y-125955520D01*
X125810893Y-125968132D01*
X125830599Y-125982747D01*
X125848777Y-125999223D01*
X125865253Y-126017401D01*
X125879868Y-126037107D01*
X125892480Y-126058150D01*
X125902970Y-126080329D01*
X125911235Y-126103428D01*
X125917196Y-126127227D01*
X125920796Y-126151495D01*
X125922000Y-126175999D01*
X125922000Y-126826001D01*
X125920796Y-126850505D01*
X125917196Y-126874773D01*
X125911235Y-126898572D01*
X125902970Y-126921671D01*
X125892480Y-126943850D01*
X125879868Y-126964893D01*
X125865253Y-126984599D01*
X125848777Y-127002777D01*
X125830599Y-127019253D01*
X125810893Y-127033868D01*
X125789850Y-127046480D01*
X125767671Y-127056970D01*
X125744572Y-127065235D01*
X125720773Y-127071196D01*
X125696505Y-127074796D01*
X125672001Y-127076000D01*
X124771999Y-127076000D01*
X124747495Y-127074796D01*
X124723227Y-127071196D01*
X124699428Y-127065235D01*
X124676329Y-127056970D01*
X124654150Y-127046480D01*
X124633107Y-127033868D01*
X124613401Y-127019253D01*
X124595223Y-127002777D01*
X124578747Y-126984599D01*
X124564132Y-126964893D01*
X124551520Y-126943850D01*
X124541030Y-126921671D01*
X124532765Y-126898572D01*
X124526804Y-126874773D01*
X124523204Y-126850505D01*
X124522000Y-126826001D01*
X124522000Y-126175999D01*
X124523204Y-126151495D01*
X124526804Y-126127227D01*
X124532765Y-126103428D01*
X124541030Y-126080329D01*
X124551520Y-126058150D01*
X124564132Y-126037107D01*
X124578747Y-126017401D01*
X124595223Y-125999223D01*
X124613401Y-125982747D01*
X124633107Y-125968132D01*
X124654150Y-125955520D01*
X124676329Y-125945030D01*
X124699428Y-125936765D01*
X124723227Y-125930804D01*
X124747495Y-125927204D01*
X124771999Y-125926000D01*
X125672001Y-125926000D01*
X125696505Y-125927204D01*
X125696505Y-125927204D01*
G37*
D12*
X125222000Y-126501000D03*
D11*
G36*
X118459505Y-136969204D02*
X118483773Y-136972804D01*
X118507572Y-136978765D01*
X118530671Y-136987030D01*
X118552850Y-136997520D01*
X118573893Y-137010132D01*
X118593599Y-137024747D01*
X118611777Y-137041223D01*
X118628253Y-137059401D01*
X118642868Y-137079107D01*
X118655480Y-137100150D01*
X118665970Y-137122329D01*
X118674235Y-137145428D01*
X118680196Y-137169227D01*
X118683796Y-137193495D01*
X118685000Y-137217999D01*
X118685000Y-138118001D01*
X118683796Y-138142505D01*
X118680196Y-138166773D01*
X118674235Y-138190572D01*
X118665970Y-138213671D01*
X118655480Y-138235850D01*
X118642868Y-138256893D01*
X118628253Y-138276599D01*
X118611777Y-138294777D01*
X118593599Y-138311253D01*
X118573893Y-138325868D01*
X118552850Y-138338480D01*
X118530671Y-138348970D01*
X118507572Y-138357235D01*
X118483773Y-138363196D01*
X118459505Y-138366796D01*
X118435001Y-138368000D01*
X117784999Y-138368000D01*
X117760495Y-138366796D01*
X117736227Y-138363196D01*
X117712428Y-138357235D01*
X117689329Y-138348970D01*
X117667150Y-138338480D01*
X117646107Y-138325868D01*
X117626401Y-138311253D01*
X117608223Y-138294777D01*
X117591747Y-138276599D01*
X117577132Y-138256893D01*
X117564520Y-138235850D01*
X117554030Y-138213671D01*
X117545765Y-138190572D01*
X117539804Y-138166773D01*
X117536204Y-138142505D01*
X117535000Y-138118001D01*
X117535000Y-137217999D01*
X117536204Y-137193495D01*
X117539804Y-137169227D01*
X117545765Y-137145428D01*
X117554030Y-137122329D01*
X117564520Y-137100150D01*
X117577132Y-137079107D01*
X117591747Y-137059401D01*
X117608223Y-137041223D01*
X117626401Y-137024747D01*
X117646107Y-137010132D01*
X117667150Y-136997520D01*
X117689329Y-136987030D01*
X117712428Y-136978765D01*
X117736227Y-136972804D01*
X117760495Y-136969204D01*
X117784999Y-136968000D01*
X118435001Y-136968000D01*
X118459505Y-136969204D01*
X118459505Y-136969204D01*
G37*
D12*
X118110000Y-137668000D03*
D11*
G36*
X120509505Y-136969204D02*
X120533773Y-136972804D01*
X120557572Y-136978765D01*
X120580671Y-136987030D01*
X120602850Y-136997520D01*
X120623893Y-137010132D01*
X120643599Y-137024747D01*
X120661777Y-137041223D01*
X120678253Y-137059401D01*
X120692868Y-137079107D01*
X120705480Y-137100150D01*
X120715970Y-137122329D01*
X120724235Y-137145428D01*
X120730196Y-137169227D01*
X120733796Y-137193495D01*
X120735000Y-137217999D01*
X120735000Y-138118001D01*
X120733796Y-138142505D01*
X120730196Y-138166773D01*
X120724235Y-138190572D01*
X120715970Y-138213671D01*
X120705480Y-138235850D01*
X120692868Y-138256893D01*
X120678253Y-138276599D01*
X120661777Y-138294777D01*
X120643599Y-138311253D01*
X120623893Y-138325868D01*
X120602850Y-138338480D01*
X120580671Y-138348970D01*
X120557572Y-138357235D01*
X120533773Y-138363196D01*
X120509505Y-138366796D01*
X120485001Y-138368000D01*
X119834999Y-138368000D01*
X119810495Y-138366796D01*
X119786227Y-138363196D01*
X119762428Y-138357235D01*
X119739329Y-138348970D01*
X119717150Y-138338480D01*
X119696107Y-138325868D01*
X119676401Y-138311253D01*
X119658223Y-138294777D01*
X119641747Y-138276599D01*
X119627132Y-138256893D01*
X119614520Y-138235850D01*
X119604030Y-138213671D01*
X119595765Y-138190572D01*
X119589804Y-138166773D01*
X119586204Y-138142505D01*
X119585000Y-138118001D01*
X119585000Y-137217999D01*
X119586204Y-137193495D01*
X119589804Y-137169227D01*
X119595765Y-137145428D01*
X119604030Y-137122329D01*
X119614520Y-137100150D01*
X119627132Y-137079107D01*
X119641747Y-137059401D01*
X119658223Y-137041223D01*
X119676401Y-137024747D01*
X119696107Y-137010132D01*
X119717150Y-136997520D01*
X119739329Y-136987030D01*
X119762428Y-136978765D01*
X119786227Y-136972804D01*
X119810495Y-136969204D01*
X119834999Y-136968000D01*
X120485001Y-136968000D01*
X120509505Y-136969204D01*
X120509505Y-136969204D01*
G37*
D12*
X120160000Y-137668000D03*
D11*
G36*
X125696505Y-132014204D02*
X125720773Y-132017804D01*
X125744572Y-132023765D01*
X125767671Y-132032030D01*
X125789850Y-132042520D01*
X125810893Y-132055132D01*
X125830599Y-132069747D01*
X125848777Y-132086223D01*
X125865253Y-132104401D01*
X125879868Y-132124107D01*
X125892480Y-132145150D01*
X125902970Y-132167329D01*
X125911235Y-132190428D01*
X125917196Y-132214227D01*
X125920796Y-132238495D01*
X125922000Y-132262999D01*
X125922000Y-132913001D01*
X125920796Y-132937505D01*
X125917196Y-132961773D01*
X125911235Y-132985572D01*
X125902970Y-133008671D01*
X125892480Y-133030850D01*
X125879868Y-133051893D01*
X125865253Y-133071599D01*
X125848777Y-133089777D01*
X125830599Y-133106253D01*
X125810893Y-133120868D01*
X125789850Y-133133480D01*
X125767671Y-133143970D01*
X125744572Y-133152235D01*
X125720773Y-133158196D01*
X125696505Y-133161796D01*
X125672001Y-133163000D01*
X124771999Y-133163000D01*
X124747495Y-133161796D01*
X124723227Y-133158196D01*
X124699428Y-133152235D01*
X124676329Y-133143970D01*
X124654150Y-133133480D01*
X124633107Y-133120868D01*
X124613401Y-133106253D01*
X124595223Y-133089777D01*
X124578747Y-133071599D01*
X124564132Y-133051893D01*
X124551520Y-133030850D01*
X124541030Y-133008671D01*
X124532765Y-132985572D01*
X124526804Y-132961773D01*
X124523204Y-132937505D01*
X124522000Y-132913001D01*
X124522000Y-132262999D01*
X124523204Y-132238495D01*
X124526804Y-132214227D01*
X124532765Y-132190428D01*
X124541030Y-132167329D01*
X124551520Y-132145150D01*
X124564132Y-132124107D01*
X124578747Y-132104401D01*
X124595223Y-132086223D01*
X124613401Y-132069747D01*
X124633107Y-132055132D01*
X124654150Y-132042520D01*
X124676329Y-132032030D01*
X124699428Y-132023765D01*
X124723227Y-132017804D01*
X124747495Y-132014204D01*
X124771999Y-132013000D01*
X125672001Y-132013000D01*
X125696505Y-132014204D01*
X125696505Y-132014204D01*
G37*
D12*
X125222000Y-132588000D03*
D11*
G36*
X125696505Y-134064204D02*
X125720773Y-134067804D01*
X125744572Y-134073765D01*
X125767671Y-134082030D01*
X125789850Y-134092520D01*
X125810893Y-134105132D01*
X125830599Y-134119747D01*
X125848777Y-134136223D01*
X125865253Y-134154401D01*
X125879868Y-134174107D01*
X125892480Y-134195150D01*
X125902970Y-134217329D01*
X125911235Y-134240428D01*
X125917196Y-134264227D01*
X125920796Y-134288495D01*
X125922000Y-134312999D01*
X125922000Y-134963001D01*
X125920796Y-134987505D01*
X125917196Y-135011773D01*
X125911235Y-135035572D01*
X125902970Y-135058671D01*
X125892480Y-135080850D01*
X125879868Y-135101893D01*
X125865253Y-135121599D01*
X125848777Y-135139777D01*
X125830599Y-135156253D01*
X125810893Y-135170868D01*
X125789850Y-135183480D01*
X125767671Y-135193970D01*
X125744572Y-135202235D01*
X125720773Y-135208196D01*
X125696505Y-135211796D01*
X125672001Y-135213000D01*
X124771999Y-135213000D01*
X124747495Y-135211796D01*
X124723227Y-135208196D01*
X124699428Y-135202235D01*
X124676329Y-135193970D01*
X124654150Y-135183480D01*
X124633107Y-135170868D01*
X124613401Y-135156253D01*
X124595223Y-135139777D01*
X124578747Y-135121599D01*
X124564132Y-135101893D01*
X124551520Y-135080850D01*
X124541030Y-135058671D01*
X124532765Y-135035572D01*
X124526804Y-135011773D01*
X124523204Y-134987505D01*
X124522000Y-134963001D01*
X124522000Y-134312999D01*
X124523204Y-134288495D01*
X124526804Y-134264227D01*
X124532765Y-134240428D01*
X124541030Y-134217329D01*
X124551520Y-134195150D01*
X124564132Y-134174107D01*
X124578747Y-134154401D01*
X124595223Y-134136223D01*
X124613401Y-134119747D01*
X124633107Y-134105132D01*
X124654150Y-134092520D01*
X124676329Y-134082030D01*
X124699428Y-134073765D01*
X124723227Y-134067804D01*
X124747495Y-134064204D01*
X124771999Y-134063000D01*
X125672001Y-134063000D01*
X125696505Y-134064204D01*
X125696505Y-134064204D01*
G37*
D12*
X125222000Y-134638000D03*
D11*
G36*
X88995505Y-134175204D02*
X89019773Y-134178804D01*
X89043572Y-134184765D01*
X89066671Y-134193030D01*
X89088850Y-134203520D01*
X89109893Y-134216132D01*
X89129599Y-134230747D01*
X89147777Y-134247223D01*
X89164253Y-134265401D01*
X89178868Y-134285107D01*
X89191480Y-134306150D01*
X89201970Y-134328329D01*
X89210235Y-134351428D01*
X89216196Y-134375227D01*
X89219796Y-134399495D01*
X89221000Y-134423999D01*
X89221000Y-135324001D01*
X89219796Y-135348505D01*
X89216196Y-135372773D01*
X89210235Y-135396572D01*
X89201970Y-135419671D01*
X89191480Y-135441850D01*
X89178868Y-135462893D01*
X89164253Y-135482599D01*
X89147777Y-135500777D01*
X89129599Y-135517253D01*
X89109893Y-135531868D01*
X89088850Y-135544480D01*
X89066671Y-135554970D01*
X89043572Y-135563235D01*
X89019773Y-135569196D01*
X88995505Y-135572796D01*
X88971001Y-135574000D01*
X88320999Y-135574000D01*
X88296495Y-135572796D01*
X88272227Y-135569196D01*
X88248428Y-135563235D01*
X88225329Y-135554970D01*
X88203150Y-135544480D01*
X88182107Y-135531868D01*
X88162401Y-135517253D01*
X88144223Y-135500777D01*
X88127747Y-135482599D01*
X88113132Y-135462893D01*
X88100520Y-135441850D01*
X88090030Y-135419671D01*
X88081765Y-135396572D01*
X88075804Y-135372773D01*
X88072204Y-135348505D01*
X88071000Y-135324001D01*
X88071000Y-134423999D01*
X88072204Y-134399495D01*
X88075804Y-134375227D01*
X88081765Y-134351428D01*
X88090030Y-134328329D01*
X88100520Y-134306150D01*
X88113132Y-134285107D01*
X88127747Y-134265401D01*
X88144223Y-134247223D01*
X88162401Y-134230747D01*
X88182107Y-134216132D01*
X88203150Y-134203520D01*
X88225329Y-134193030D01*
X88248428Y-134184765D01*
X88272227Y-134178804D01*
X88296495Y-134175204D01*
X88320999Y-134174000D01*
X88971001Y-134174000D01*
X88995505Y-134175204D01*
X88995505Y-134175204D01*
G37*
D12*
X88646000Y-134874000D03*
D11*
G36*
X91045505Y-134175204D02*
X91069773Y-134178804D01*
X91093572Y-134184765D01*
X91116671Y-134193030D01*
X91138850Y-134203520D01*
X91159893Y-134216132D01*
X91179599Y-134230747D01*
X91197777Y-134247223D01*
X91214253Y-134265401D01*
X91228868Y-134285107D01*
X91241480Y-134306150D01*
X91251970Y-134328329D01*
X91260235Y-134351428D01*
X91266196Y-134375227D01*
X91269796Y-134399495D01*
X91271000Y-134423999D01*
X91271000Y-135324001D01*
X91269796Y-135348505D01*
X91266196Y-135372773D01*
X91260235Y-135396572D01*
X91251970Y-135419671D01*
X91241480Y-135441850D01*
X91228868Y-135462893D01*
X91214253Y-135482599D01*
X91197777Y-135500777D01*
X91179599Y-135517253D01*
X91159893Y-135531868D01*
X91138850Y-135544480D01*
X91116671Y-135554970D01*
X91093572Y-135563235D01*
X91069773Y-135569196D01*
X91045505Y-135572796D01*
X91021001Y-135574000D01*
X90370999Y-135574000D01*
X90346495Y-135572796D01*
X90322227Y-135569196D01*
X90298428Y-135563235D01*
X90275329Y-135554970D01*
X90253150Y-135544480D01*
X90232107Y-135531868D01*
X90212401Y-135517253D01*
X90194223Y-135500777D01*
X90177747Y-135482599D01*
X90163132Y-135462893D01*
X90150520Y-135441850D01*
X90140030Y-135419671D01*
X90131765Y-135396572D01*
X90125804Y-135372773D01*
X90122204Y-135348505D01*
X90121000Y-135324001D01*
X90121000Y-134423999D01*
X90122204Y-134399495D01*
X90125804Y-134375227D01*
X90131765Y-134351428D01*
X90140030Y-134328329D01*
X90150520Y-134306150D01*
X90163132Y-134285107D01*
X90177747Y-134265401D01*
X90194223Y-134247223D01*
X90212401Y-134230747D01*
X90232107Y-134216132D01*
X90253150Y-134203520D01*
X90275329Y-134193030D01*
X90298428Y-134184765D01*
X90322227Y-134178804D01*
X90346495Y-134175204D01*
X90370999Y-134174000D01*
X91021001Y-134174000D01*
X91045505Y-134175204D01*
X91045505Y-134175204D01*
G37*
D12*
X90696000Y-134874000D03*
D11*
G36*
X70578505Y-122607204D02*
X70602773Y-122610804D01*
X70626572Y-122616765D01*
X70649671Y-122625030D01*
X70671850Y-122635520D01*
X70692893Y-122648132D01*
X70712599Y-122662747D01*
X70730777Y-122679223D01*
X70747253Y-122697401D01*
X70761868Y-122717107D01*
X70774480Y-122738150D01*
X70784970Y-122760329D01*
X70793235Y-122783428D01*
X70799196Y-122807227D01*
X70802796Y-122831495D01*
X70804000Y-122855999D01*
X70804000Y-123506001D01*
X70802796Y-123530505D01*
X70799196Y-123554773D01*
X70793235Y-123578572D01*
X70784970Y-123601671D01*
X70774480Y-123623850D01*
X70761868Y-123644893D01*
X70747253Y-123664599D01*
X70730777Y-123682777D01*
X70712599Y-123699253D01*
X70692893Y-123713868D01*
X70671850Y-123726480D01*
X70649671Y-123736970D01*
X70626572Y-123745235D01*
X70602773Y-123751196D01*
X70578505Y-123754796D01*
X70554001Y-123756000D01*
X69653999Y-123756000D01*
X69629495Y-123754796D01*
X69605227Y-123751196D01*
X69581428Y-123745235D01*
X69558329Y-123736970D01*
X69536150Y-123726480D01*
X69515107Y-123713868D01*
X69495401Y-123699253D01*
X69477223Y-123682777D01*
X69460747Y-123664599D01*
X69446132Y-123644893D01*
X69433520Y-123623850D01*
X69423030Y-123601671D01*
X69414765Y-123578572D01*
X69408804Y-123554773D01*
X69405204Y-123530505D01*
X69404000Y-123506001D01*
X69404000Y-122855999D01*
X69405204Y-122831495D01*
X69408804Y-122807227D01*
X69414765Y-122783428D01*
X69423030Y-122760329D01*
X69433520Y-122738150D01*
X69446132Y-122717107D01*
X69460747Y-122697401D01*
X69477223Y-122679223D01*
X69495401Y-122662747D01*
X69515107Y-122648132D01*
X69536150Y-122635520D01*
X69558329Y-122625030D01*
X69581428Y-122616765D01*
X69605227Y-122610804D01*
X69629495Y-122607204D01*
X69653999Y-122606000D01*
X70554001Y-122606000D01*
X70578505Y-122607204D01*
X70578505Y-122607204D01*
G37*
D12*
X70104000Y-123181000D03*
D11*
G36*
X70578505Y-124657204D02*
X70602773Y-124660804D01*
X70626572Y-124666765D01*
X70649671Y-124675030D01*
X70671850Y-124685520D01*
X70692893Y-124698132D01*
X70712599Y-124712747D01*
X70730777Y-124729223D01*
X70747253Y-124747401D01*
X70761868Y-124767107D01*
X70774480Y-124788150D01*
X70784970Y-124810329D01*
X70793235Y-124833428D01*
X70799196Y-124857227D01*
X70802796Y-124881495D01*
X70804000Y-124905999D01*
X70804000Y-125556001D01*
X70802796Y-125580505D01*
X70799196Y-125604773D01*
X70793235Y-125628572D01*
X70784970Y-125651671D01*
X70774480Y-125673850D01*
X70761868Y-125694893D01*
X70747253Y-125714599D01*
X70730777Y-125732777D01*
X70712599Y-125749253D01*
X70692893Y-125763868D01*
X70671850Y-125776480D01*
X70649671Y-125786970D01*
X70626572Y-125795235D01*
X70602773Y-125801196D01*
X70578505Y-125804796D01*
X70554001Y-125806000D01*
X69653999Y-125806000D01*
X69629495Y-125804796D01*
X69605227Y-125801196D01*
X69581428Y-125795235D01*
X69558329Y-125786970D01*
X69536150Y-125776480D01*
X69515107Y-125763868D01*
X69495401Y-125749253D01*
X69477223Y-125732777D01*
X69460747Y-125714599D01*
X69446132Y-125694893D01*
X69433520Y-125673850D01*
X69423030Y-125651671D01*
X69414765Y-125628572D01*
X69408804Y-125604773D01*
X69405204Y-125580505D01*
X69404000Y-125556001D01*
X69404000Y-124905999D01*
X69405204Y-124881495D01*
X69408804Y-124857227D01*
X69414765Y-124833428D01*
X69423030Y-124810329D01*
X69433520Y-124788150D01*
X69446132Y-124767107D01*
X69460747Y-124747401D01*
X69477223Y-124729223D01*
X69495401Y-124712747D01*
X69515107Y-124698132D01*
X69536150Y-124685520D01*
X69558329Y-124675030D01*
X69581428Y-124666765D01*
X69605227Y-124660804D01*
X69629495Y-124657204D01*
X69653999Y-124656000D01*
X70554001Y-124656000D01*
X70578505Y-124657204D01*
X70578505Y-124657204D01*
G37*
D12*
X70104000Y-125231000D03*
D11*
G36*
X87342505Y-112710204D02*
X87366773Y-112713804D01*
X87390572Y-112719765D01*
X87413671Y-112728030D01*
X87435850Y-112738520D01*
X87456893Y-112751132D01*
X87476599Y-112765747D01*
X87494777Y-112782223D01*
X87511253Y-112800401D01*
X87525868Y-112820107D01*
X87538480Y-112841150D01*
X87548970Y-112863329D01*
X87557235Y-112886428D01*
X87563196Y-112910227D01*
X87566796Y-112934495D01*
X87568000Y-112958999D01*
X87568000Y-113609001D01*
X87566796Y-113633505D01*
X87563196Y-113657773D01*
X87557235Y-113681572D01*
X87548970Y-113704671D01*
X87538480Y-113726850D01*
X87525868Y-113747893D01*
X87511253Y-113767599D01*
X87494777Y-113785777D01*
X87476599Y-113802253D01*
X87456893Y-113816868D01*
X87435850Y-113829480D01*
X87413671Y-113839970D01*
X87390572Y-113848235D01*
X87366773Y-113854196D01*
X87342505Y-113857796D01*
X87318001Y-113859000D01*
X86417999Y-113859000D01*
X86393495Y-113857796D01*
X86369227Y-113854196D01*
X86345428Y-113848235D01*
X86322329Y-113839970D01*
X86300150Y-113829480D01*
X86279107Y-113816868D01*
X86259401Y-113802253D01*
X86241223Y-113785777D01*
X86224747Y-113767599D01*
X86210132Y-113747893D01*
X86197520Y-113726850D01*
X86187030Y-113704671D01*
X86178765Y-113681572D01*
X86172804Y-113657773D01*
X86169204Y-113633505D01*
X86168000Y-113609001D01*
X86168000Y-112958999D01*
X86169204Y-112934495D01*
X86172804Y-112910227D01*
X86178765Y-112886428D01*
X86187030Y-112863329D01*
X86197520Y-112841150D01*
X86210132Y-112820107D01*
X86224747Y-112800401D01*
X86241223Y-112782223D01*
X86259401Y-112765747D01*
X86279107Y-112751132D01*
X86300150Y-112738520D01*
X86322329Y-112728030D01*
X86345428Y-112719765D01*
X86369227Y-112713804D01*
X86393495Y-112710204D01*
X86417999Y-112709000D01*
X87318001Y-112709000D01*
X87342505Y-112710204D01*
X87342505Y-112710204D01*
G37*
D12*
X86868000Y-113284000D03*
D11*
G36*
X87342505Y-114760204D02*
X87366773Y-114763804D01*
X87390572Y-114769765D01*
X87413671Y-114778030D01*
X87435850Y-114788520D01*
X87456893Y-114801132D01*
X87476599Y-114815747D01*
X87494777Y-114832223D01*
X87511253Y-114850401D01*
X87525868Y-114870107D01*
X87538480Y-114891150D01*
X87548970Y-114913329D01*
X87557235Y-114936428D01*
X87563196Y-114960227D01*
X87566796Y-114984495D01*
X87568000Y-115008999D01*
X87568000Y-115659001D01*
X87566796Y-115683505D01*
X87563196Y-115707773D01*
X87557235Y-115731572D01*
X87548970Y-115754671D01*
X87538480Y-115776850D01*
X87525868Y-115797893D01*
X87511253Y-115817599D01*
X87494777Y-115835777D01*
X87476599Y-115852253D01*
X87456893Y-115866868D01*
X87435850Y-115879480D01*
X87413671Y-115889970D01*
X87390572Y-115898235D01*
X87366773Y-115904196D01*
X87342505Y-115907796D01*
X87318001Y-115909000D01*
X86417999Y-115909000D01*
X86393495Y-115907796D01*
X86369227Y-115904196D01*
X86345428Y-115898235D01*
X86322329Y-115889970D01*
X86300150Y-115879480D01*
X86279107Y-115866868D01*
X86259401Y-115852253D01*
X86241223Y-115835777D01*
X86224747Y-115817599D01*
X86210132Y-115797893D01*
X86197520Y-115776850D01*
X86187030Y-115754671D01*
X86178765Y-115731572D01*
X86172804Y-115707773D01*
X86169204Y-115683505D01*
X86168000Y-115659001D01*
X86168000Y-115008999D01*
X86169204Y-114984495D01*
X86172804Y-114960227D01*
X86178765Y-114936428D01*
X86187030Y-114913329D01*
X86197520Y-114891150D01*
X86210132Y-114870107D01*
X86224747Y-114850401D01*
X86241223Y-114832223D01*
X86259401Y-114815747D01*
X86279107Y-114801132D01*
X86300150Y-114788520D01*
X86322329Y-114778030D01*
X86345428Y-114769765D01*
X86369227Y-114763804D01*
X86393495Y-114760204D01*
X86417999Y-114759000D01*
X87318001Y-114759000D01*
X87342505Y-114760204D01*
X87342505Y-114760204D01*
G37*
D12*
X86868000Y-115334000D03*
D11*
G36*
X131159505Y-121221204D02*
X131183773Y-121224804D01*
X131207572Y-121230765D01*
X131230671Y-121239030D01*
X131252850Y-121249520D01*
X131273893Y-121262132D01*
X131293599Y-121276747D01*
X131311777Y-121293223D01*
X131328253Y-121311401D01*
X131342868Y-121331107D01*
X131355480Y-121352150D01*
X131365970Y-121374329D01*
X131374235Y-121397428D01*
X131380196Y-121421227D01*
X131383796Y-121445495D01*
X131385000Y-121469999D01*
X131385000Y-122370001D01*
X131383796Y-122394505D01*
X131380196Y-122418773D01*
X131374235Y-122442572D01*
X131365970Y-122465671D01*
X131355480Y-122487850D01*
X131342868Y-122508893D01*
X131328253Y-122528599D01*
X131311777Y-122546777D01*
X131293599Y-122563253D01*
X131273893Y-122577868D01*
X131252850Y-122590480D01*
X131230671Y-122600970D01*
X131207572Y-122609235D01*
X131183773Y-122615196D01*
X131159505Y-122618796D01*
X131135001Y-122620000D01*
X130484999Y-122620000D01*
X130460495Y-122618796D01*
X130436227Y-122615196D01*
X130412428Y-122609235D01*
X130389329Y-122600970D01*
X130367150Y-122590480D01*
X130346107Y-122577868D01*
X130326401Y-122563253D01*
X130308223Y-122546777D01*
X130291747Y-122528599D01*
X130277132Y-122508893D01*
X130264520Y-122487850D01*
X130254030Y-122465671D01*
X130245765Y-122442572D01*
X130239804Y-122418773D01*
X130236204Y-122394505D01*
X130235000Y-122370001D01*
X130235000Y-121469999D01*
X130236204Y-121445495D01*
X130239804Y-121421227D01*
X130245765Y-121397428D01*
X130254030Y-121374329D01*
X130264520Y-121352150D01*
X130277132Y-121331107D01*
X130291747Y-121311401D01*
X130308223Y-121293223D01*
X130326401Y-121276747D01*
X130346107Y-121262132D01*
X130367150Y-121249520D01*
X130389329Y-121239030D01*
X130412428Y-121230765D01*
X130436227Y-121224804D01*
X130460495Y-121221204D01*
X130484999Y-121220000D01*
X131135001Y-121220000D01*
X131159505Y-121221204D01*
X131159505Y-121221204D01*
G37*
D12*
X130810000Y-121920000D03*
D11*
G36*
X133209505Y-121221204D02*
X133233773Y-121224804D01*
X133257572Y-121230765D01*
X133280671Y-121239030D01*
X133302850Y-121249520D01*
X133323893Y-121262132D01*
X133343599Y-121276747D01*
X133361777Y-121293223D01*
X133378253Y-121311401D01*
X133392868Y-121331107D01*
X133405480Y-121352150D01*
X133415970Y-121374329D01*
X133424235Y-121397428D01*
X133430196Y-121421227D01*
X133433796Y-121445495D01*
X133435000Y-121469999D01*
X133435000Y-122370001D01*
X133433796Y-122394505D01*
X133430196Y-122418773D01*
X133424235Y-122442572D01*
X133415970Y-122465671D01*
X133405480Y-122487850D01*
X133392868Y-122508893D01*
X133378253Y-122528599D01*
X133361777Y-122546777D01*
X133343599Y-122563253D01*
X133323893Y-122577868D01*
X133302850Y-122590480D01*
X133280671Y-122600970D01*
X133257572Y-122609235D01*
X133233773Y-122615196D01*
X133209505Y-122618796D01*
X133185001Y-122620000D01*
X132534999Y-122620000D01*
X132510495Y-122618796D01*
X132486227Y-122615196D01*
X132462428Y-122609235D01*
X132439329Y-122600970D01*
X132417150Y-122590480D01*
X132396107Y-122577868D01*
X132376401Y-122563253D01*
X132358223Y-122546777D01*
X132341747Y-122528599D01*
X132327132Y-122508893D01*
X132314520Y-122487850D01*
X132304030Y-122465671D01*
X132295765Y-122442572D01*
X132289804Y-122418773D01*
X132286204Y-122394505D01*
X132285000Y-122370001D01*
X132285000Y-121469999D01*
X132286204Y-121445495D01*
X132289804Y-121421227D01*
X132295765Y-121397428D01*
X132304030Y-121374329D01*
X132314520Y-121352150D01*
X132327132Y-121331107D01*
X132341747Y-121311401D01*
X132358223Y-121293223D01*
X132376401Y-121276747D01*
X132396107Y-121262132D01*
X132417150Y-121249520D01*
X132439329Y-121239030D01*
X132462428Y-121230765D01*
X132486227Y-121224804D01*
X132510495Y-121221204D01*
X132534999Y-121220000D01*
X133185001Y-121220000D01*
X133209505Y-121221204D01*
X133209505Y-121221204D01*
G37*
D12*
X132860000Y-121920000D03*
D11*
G36*
X135967505Y-121221204D02*
X135991773Y-121224804D01*
X136015572Y-121230765D01*
X136038671Y-121239030D01*
X136060850Y-121249520D01*
X136081893Y-121262132D01*
X136101599Y-121276747D01*
X136119777Y-121293223D01*
X136136253Y-121311401D01*
X136150868Y-121331107D01*
X136163480Y-121352150D01*
X136173970Y-121374329D01*
X136182235Y-121397428D01*
X136188196Y-121421227D01*
X136191796Y-121445495D01*
X136193000Y-121469999D01*
X136193000Y-122370001D01*
X136191796Y-122394505D01*
X136188196Y-122418773D01*
X136182235Y-122442572D01*
X136173970Y-122465671D01*
X136163480Y-122487850D01*
X136150868Y-122508893D01*
X136136253Y-122528599D01*
X136119777Y-122546777D01*
X136101599Y-122563253D01*
X136081893Y-122577868D01*
X136060850Y-122590480D01*
X136038671Y-122600970D01*
X136015572Y-122609235D01*
X135991773Y-122615196D01*
X135967505Y-122618796D01*
X135943001Y-122620000D01*
X135292999Y-122620000D01*
X135268495Y-122618796D01*
X135244227Y-122615196D01*
X135220428Y-122609235D01*
X135197329Y-122600970D01*
X135175150Y-122590480D01*
X135154107Y-122577868D01*
X135134401Y-122563253D01*
X135116223Y-122546777D01*
X135099747Y-122528599D01*
X135085132Y-122508893D01*
X135072520Y-122487850D01*
X135062030Y-122465671D01*
X135053765Y-122442572D01*
X135047804Y-122418773D01*
X135044204Y-122394505D01*
X135043000Y-122370001D01*
X135043000Y-121469999D01*
X135044204Y-121445495D01*
X135047804Y-121421227D01*
X135053765Y-121397428D01*
X135062030Y-121374329D01*
X135072520Y-121352150D01*
X135085132Y-121331107D01*
X135099747Y-121311401D01*
X135116223Y-121293223D01*
X135134401Y-121276747D01*
X135154107Y-121262132D01*
X135175150Y-121249520D01*
X135197329Y-121239030D01*
X135220428Y-121230765D01*
X135244227Y-121224804D01*
X135268495Y-121221204D01*
X135292999Y-121220000D01*
X135943001Y-121220000D01*
X135967505Y-121221204D01*
X135967505Y-121221204D01*
G37*
D12*
X135618000Y-121920000D03*
D11*
G36*
X138017505Y-121221204D02*
X138041773Y-121224804D01*
X138065572Y-121230765D01*
X138088671Y-121239030D01*
X138110850Y-121249520D01*
X138131893Y-121262132D01*
X138151599Y-121276747D01*
X138169777Y-121293223D01*
X138186253Y-121311401D01*
X138200868Y-121331107D01*
X138213480Y-121352150D01*
X138223970Y-121374329D01*
X138232235Y-121397428D01*
X138238196Y-121421227D01*
X138241796Y-121445495D01*
X138243000Y-121469999D01*
X138243000Y-122370001D01*
X138241796Y-122394505D01*
X138238196Y-122418773D01*
X138232235Y-122442572D01*
X138223970Y-122465671D01*
X138213480Y-122487850D01*
X138200868Y-122508893D01*
X138186253Y-122528599D01*
X138169777Y-122546777D01*
X138151599Y-122563253D01*
X138131893Y-122577868D01*
X138110850Y-122590480D01*
X138088671Y-122600970D01*
X138065572Y-122609235D01*
X138041773Y-122615196D01*
X138017505Y-122618796D01*
X137993001Y-122620000D01*
X137342999Y-122620000D01*
X137318495Y-122618796D01*
X137294227Y-122615196D01*
X137270428Y-122609235D01*
X137247329Y-122600970D01*
X137225150Y-122590480D01*
X137204107Y-122577868D01*
X137184401Y-122563253D01*
X137166223Y-122546777D01*
X137149747Y-122528599D01*
X137135132Y-122508893D01*
X137122520Y-122487850D01*
X137112030Y-122465671D01*
X137103765Y-122442572D01*
X137097804Y-122418773D01*
X137094204Y-122394505D01*
X137093000Y-122370001D01*
X137093000Y-121469999D01*
X137094204Y-121445495D01*
X137097804Y-121421227D01*
X137103765Y-121397428D01*
X137112030Y-121374329D01*
X137122520Y-121352150D01*
X137135132Y-121331107D01*
X137149747Y-121311401D01*
X137166223Y-121293223D01*
X137184401Y-121276747D01*
X137204107Y-121262132D01*
X137225150Y-121249520D01*
X137247329Y-121239030D01*
X137270428Y-121230765D01*
X137294227Y-121224804D01*
X137318495Y-121221204D01*
X137342999Y-121220000D01*
X137993001Y-121220000D01*
X138017505Y-121221204D01*
X138017505Y-121221204D01*
G37*
D12*
X137668000Y-121920000D03*
D11*
G36*
X70578505Y-126934204D02*
X70602773Y-126937804D01*
X70626572Y-126943765D01*
X70649671Y-126952030D01*
X70671850Y-126962520D01*
X70692893Y-126975132D01*
X70712599Y-126989747D01*
X70730777Y-127006223D01*
X70747253Y-127024401D01*
X70761868Y-127044107D01*
X70774480Y-127065150D01*
X70784970Y-127087329D01*
X70793235Y-127110428D01*
X70799196Y-127134227D01*
X70802796Y-127158495D01*
X70804000Y-127182999D01*
X70804000Y-127833001D01*
X70802796Y-127857505D01*
X70799196Y-127881773D01*
X70793235Y-127905572D01*
X70784970Y-127928671D01*
X70774480Y-127950850D01*
X70761868Y-127971893D01*
X70747253Y-127991599D01*
X70730777Y-128009777D01*
X70712599Y-128026253D01*
X70692893Y-128040868D01*
X70671850Y-128053480D01*
X70649671Y-128063970D01*
X70626572Y-128072235D01*
X70602773Y-128078196D01*
X70578505Y-128081796D01*
X70554001Y-128083000D01*
X69653999Y-128083000D01*
X69629495Y-128081796D01*
X69605227Y-128078196D01*
X69581428Y-128072235D01*
X69558329Y-128063970D01*
X69536150Y-128053480D01*
X69515107Y-128040868D01*
X69495401Y-128026253D01*
X69477223Y-128009777D01*
X69460747Y-127991599D01*
X69446132Y-127971893D01*
X69433520Y-127950850D01*
X69423030Y-127928671D01*
X69414765Y-127905572D01*
X69408804Y-127881773D01*
X69405204Y-127857505D01*
X69404000Y-127833001D01*
X69404000Y-127182999D01*
X69405204Y-127158495D01*
X69408804Y-127134227D01*
X69414765Y-127110428D01*
X69423030Y-127087329D01*
X69433520Y-127065150D01*
X69446132Y-127044107D01*
X69460747Y-127024401D01*
X69477223Y-127006223D01*
X69495401Y-126989747D01*
X69515107Y-126975132D01*
X69536150Y-126962520D01*
X69558329Y-126952030D01*
X69581428Y-126943765D01*
X69605227Y-126937804D01*
X69629495Y-126934204D01*
X69653999Y-126933000D01*
X70554001Y-126933000D01*
X70578505Y-126934204D01*
X70578505Y-126934204D01*
G37*
D12*
X70104000Y-127508000D03*
D11*
G36*
X70578505Y-128984204D02*
X70602773Y-128987804D01*
X70626572Y-128993765D01*
X70649671Y-129002030D01*
X70671850Y-129012520D01*
X70692893Y-129025132D01*
X70712599Y-129039747D01*
X70730777Y-129056223D01*
X70747253Y-129074401D01*
X70761868Y-129094107D01*
X70774480Y-129115150D01*
X70784970Y-129137329D01*
X70793235Y-129160428D01*
X70799196Y-129184227D01*
X70802796Y-129208495D01*
X70804000Y-129232999D01*
X70804000Y-129883001D01*
X70802796Y-129907505D01*
X70799196Y-129931773D01*
X70793235Y-129955572D01*
X70784970Y-129978671D01*
X70774480Y-130000850D01*
X70761868Y-130021893D01*
X70747253Y-130041599D01*
X70730777Y-130059777D01*
X70712599Y-130076253D01*
X70692893Y-130090868D01*
X70671850Y-130103480D01*
X70649671Y-130113970D01*
X70626572Y-130122235D01*
X70602773Y-130128196D01*
X70578505Y-130131796D01*
X70554001Y-130133000D01*
X69653999Y-130133000D01*
X69629495Y-130131796D01*
X69605227Y-130128196D01*
X69581428Y-130122235D01*
X69558329Y-130113970D01*
X69536150Y-130103480D01*
X69515107Y-130090868D01*
X69495401Y-130076253D01*
X69477223Y-130059777D01*
X69460747Y-130041599D01*
X69446132Y-130021893D01*
X69433520Y-130000850D01*
X69423030Y-129978671D01*
X69414765Y-129955572D01*
X69408804Y-129931773D01*
X69405204Y-129907505D01*
X69404000Y-129883001D01*
X69404000Y-129232999D01*
X69405204Y-129208495D01*
X69408804Y-129184227D01*
X69414765Y-129160428D01*
X69423030Y-129137329D01*
X69433520Y-129115150D01*
X69446132Y-129094107D01*
X69460747Y-129074401D01*
X69477223Y-129056223D01*
X69495401Y-129039747D01*
X69515107Y-129025132D01*
X69536150Y-129012520D01*
X69558329Y-129002030D01*
X69581428Y-128993765D01*
X69605227Y-128987804D01*
X69629495Y-128984204D01*
X69653999Y-128983000D01*
X70554001Y-128983000D01*
X70578505Y-128984204D01*
X70578505Y-128984204D01*
G37*
D12*
X70104000Y-129558000D03*
D11*
G36*
X101967505Y-124269204D02*
X101991773Y-124272804D01*
X102015572Y-124278765D01*
X102038671Y-124287030D01*
X102060850Y-124297520D01*
X102081893Y-124310132D01*
X102101599Y-124324747D01*
X102119777Y-124341223D01*
X102136253Y-124359401D01*
X102150868Y-124379107D01*
X102163480Y-124400150D01*
X102173970Y-124422329D01*
X102182235Y-124445428D01*
X102188196Y-124469227D01*
X102191796Y-124493495D01*
X102193000Y-124517999D01*
X102193000Y-125418001D01*
X102191796Y-125442505D01*
X102188196Y-125466773D01*
X102182235Y-125490572D01*
X102173970Y-125513671D01*
X102163480Y-125535850D01*
X102150868Y-125556893D01*
X102136253Y-125576599D01*
X102119777Y-125594777D01*
X102101599Y-125611253D01*
X102081893Y-125625868D01*
X102060850Y-125638480D01*
X102038671Y-125648970D01*
X102015572Y-125657235D01*
X101991773Y-125663196D01*
X101967505Y-125666796D01*
X101943001Y-125668000D01*
X101292999Y-125668000D01*
X101268495Y-125666796D01*
X101244227Y-125663196D01*
X101220428Y-125657235D01*
X101197329Y-125648970D01*
X101175150Y-125638480D01*
X101154107Y-125625868D01*
X101134401Y-125611253D01*
X101116223Y-125594777D01*
X101099747Y-125576599D01*
X101085132Y-125556893D01*
X101072520Y-125535850D01*
X101062030Y-125513671D01*
X101053765Y-125490572D01*
X101047804Y-125466773D01*
X101044204Y-125442505D01*
X101043000Y-125418001D01*
X101043000Y-124517999D01*
X101044204Y-124493495D01*
X101047804Y-124469227D01*
X101053765Y-124445428D01*
X101062030Y-124422329D01*
X101072520Y-124400150D01*
X101085132Y-124379107D01*
X101099747Y-124359401D01*
X101116223Y-124341223D01*
X101134401Y-124324747D01*
X101154107Y-124310132D01*
X101175150Y-124297520D01*
X101197329Y-124287030D01*
X101220428Y-124278765D01*
X101244227Y-124272804D01*
X101268495Y-124269204D01*
X101292999Y-124268000D01*
X101943001Y-124268000D01*
X101967505Y-124269204D01*
X101967505Y-124269204D01*
G37*
D12*
X101618000Y-124968000D03*
D11*
G36*
X99917505Y-124269204D02*
X99941773Y-124272804D01*
X99965572Y-124278765D01*
X99988671Y-124287030D01*
X100010850Y-124297520D01*
X100031893Y-124310132D01*
X100051599Y-124324747D01*
X100069777Y-124341223D01*
X100086253Y-124359401D01*
X100100868Y-124379107D01*
X100113480Y-124400150D01*
X100123970Y-124422329D01*
X100132235Y-124445428D01*
X100138196Y-124469227D01*
X100141796Y-124493495D01*
X100143000Y-124517999D01*
X100143000Y-125418001D01*
X100141796Y-125442505D01*
X100138196Y-125466773D01*
X100132235Y-125490572D01*
X100123970Y-125513671D01*
X100113480Y-125535850D01*
X100100868Y-125556893D01*
X100086253Y-125576599D01*
X100069777Y-125594777D01*
X100051599Y-125611253D01*
X100031893Y-125625868D01*
X100010850Y-125638480D01*
X99988671Y-125648970D01*
X99965572Y-125657235D01*
X99941773Y-125663196D01*
X99917505Y-125666796D01*
X99893001Y-125668000D01*
X99242999Y-125668000D01*
X99218495Y-125666796D01*
X99194227Y-125663196D01*
X99170428Y-125657235D01*
X99147329Y-125648970D01*
X99125150Y-125638480D01*
X99104107Y-125625868D01*
X99084401Y-125611253D01*
X99066223Y-125594777D01*
X99049747Y-125576599D01*
X99035132Y-125556893D01*
X99022520Y-125535850D01*
X99012030Y-125513671D01*
X99003765Y-125490572D01*
X98997804Y-125466773D01*
X98994204Y-125442505D01*
X98993000Y-125418001D01*
X98993000Y-124517999D01*
X98994204Y-124493495D01*
X98997804Y-124469227D01*
X99003765Y-124445428D01*
X99012030Y-124422329D01*
X99022520Y-124400150D01*
X99035132Y-124379107D01*
X99049747Y-124359401D01*
X99066223Y-124341223D01*
X99084401Y-124324747D01*
X99104107Y-124310132D01*
X99125150Y-124297520D01*
X99147329Y-124287030D01*
X99170428Y-124278765D01*
X99194227Y-124272804D01*
X99218495Y-124269204D01*
X99242999Y-124268000D01*
X99893001Y-124268000D01*
X99917505Y-124269204D01*
X99917505Y-124269204D01*
G37*
D12*
X99568000Y-124968000D03*
D11*
G36*
X126569505Y-121221204D02*
X126593773Y-121224804D01*
X126617572Y-121230765D01*
X126640671Y-121239030D01*
X126662850Y-121249520D01*
X126683893Y-121262132D01*
X126703599Y-121276747D01*
X126721777Y-121293223D01*
X126738253Y-121311401D01*
X126752868Y-121331107D01*
X126765480Y-121352150D01*
X126775970Y-121374329D01*
X126784235Y-121397428D01*
X126790196Y-121421227D01*
X126793796Y-121445495D01*
X126795000Y-121469999D01*
X126795000Y-122370001D01*
X126793796Y-122394505D01*
X126790196Y-122418773D01*
X126784235Y-122442572D01*
X126775970Y-122465671D01*
X126765480Y-122487850D01*
X126752868Y-122508893D01*
X126738253Y-122528599D01*
X126721777Y-122546777D01*
X126703599Y-122563253D01*
X126683893Y-122577868D01*
X126662850Y-122590480D01*
X126640671Y-122600970D01*
X126617572Y-122609235D01*
X126593773Y-122615196D01*
X126569505Y-122618796D01*
X126545001Y-122620000D01*
X125894999Y-122620000D01*
X125870495Y-122618796D01*
X125846227Y-122615196D01*
X125822428Y-122609235D01*
X125799329Y-122600970D01*
X125777150Y-122590480D01*
X125756107Y-122577868D01*
X125736401Y-122563253D01*
X125718223Y-122546777D01*
X125701747Y-122528599D01*
X125687132Y-122508893D01*
X125674520Y-122487850D01*
X125664030Y-122465671D01*
X125655765Y-122442572D01*
X125649804Y-122418773D01*
X125646204Y-122394505D01*
X125645000Y-122370001D01*
X125645000Y-121469999D01*
X125646204Y-121445495D01*
X125649804Y-121421227D01*
X125655765Y-121397428D01*
X125664030Y-121374329D01*
X125674520Y-121352150D01*
X125687132Y-121331107D01*
X125701747Y-121311401D01*
X125718223Y-121293223D01*
X125736401Y-121276747D01*
X125756107Y-121262132D01*
X125777150Y-121249520D01*
X125799329Y-121239030D01*
X125822428Y-121230765D01*
X125846227Y-121224804D01*
X125870495Y-121221204D01*
X125894999Y-121220000D01*
X126545001Y-121220000D01*
X126569505Y-121221204D01*
X126569505Y-121221204D01*
G37*
D12*
X126220000Y-121920000D03*
D11*
G36*
X128619505Y-121221204D02*
X128643773Y-121224804D01*
X128667572Y-121230765D01*
X128690671Y-121239030D01*
X128712850Y-121249520D01*
X128733893Y-121262132D01*
X128753599Y-121276747D01*
X128771777Y-121293223D01*
X128788253Y-121311401D01*
X128802868Y-121331107D01*
X128815480Y-121352150D01*
X128825970Y-121374329D01*
X128834235Y-121397428D01*
X128840196Y-121421227D01*
X128843796Y-121445495D01*
X128845000Y-121469999D01*
X128845000Y-122370001D01*
X128843796Y-122394505D01*
X128840196Y-122418773D01*
X128834235Y-122442572D01*
X128825970Y-122465671D01*
X128815480Y-122487850D01*
X128802868Y-122508893D01*
X128788253Y-122528599D01*
X128771777Y-122546777D01*
X128753599Y-122563253D01*
X128733893Y-122577868D01*
X128712850Y-122590480D01*
X128690671Y-122600970D01*
X128667572Y-122609235D01*
X128643773Y-122615196D01*
X128619505Y-122618796D01*
X128595001Y-122620000D01*
X127944999Y-122620000D01*
X127920495Y-122618796D01*
X127896227Y-122615196D01*
X127872428Y-122609235D01*
X127849329Y-122600970D01*
X127827150Y-122590480D01*
X127806107Y-122577868D01*
X127786401Y-122563253D01*
X127768223Y-122546777D01*
X127751747Y-122528599D01*
X127737132Y-122508893D01*
X127724520Y-122487850D01*
X127714030Y-122465671D01*
X127705765Y-122442572D01*
X127699804Y-122418773D01*
X127696204Y-122394505D01*
X127695000Y-122370001D01*
X127695000Y-121469999D01*
X127696204Y-121445495D01*
X127699804Y-121421227D01*
X127705765Y-121397428D01*
X127714030Y-121374329D01*
X127724520Y-121352150D01*
X127737132Y-121331107D01*
X127751747Y-121311401D01*
X127768223Y-121293223D01*
X127786401Y-121276747D01*
X127806107Y-121262132D01*
X127827150Y-121249520D01*
X127849329Y-121239030D01*
X127872428Y-121230765D01*
X127896227Y-121224804D01*
X127920495Y-121221204D01*
X127944999Y-121220000D01*
X128595001Y-121220000D01*
X128619505Y-121221204D01*
X128619505Y-121221204D01*
G37*
D12*
X128270000Y-121920000D03*
D11*
G36*
X106267505Y-135699204D02*
X106291773Y-135702804D01*
X106315572Y-135708765D01*
X106338671Y-135717030D01*
X106360850Y-135727520D01*
X106381893Y-135740132D01*
X106401599Y-135754747D01*
X106419777Y-135771223D01*
X106436253Y-135789401D01*
X106450868Y-135809107D01*
X106463480Y-135830150D01*
X106473970Y-135852329D01*
X106482235Y-135875428D01*
X106488196Y-135899227D01*
X106491796Y-135923495D01*
X106493000Y-135947999D01*
X106493000Y-136848001D01*
X106491796Y-136872505D01*
X106488196Y-136896773D01*
X106482235Y-136920572D01*
X106473970Y-136943671D01*
X106463480Y-136965850D01*
X106450868Y-136986893D01*
X106436253Y-137006599D01*
X106419777Y-137024777D01*
X106401599Y-137041253D01*
X106381893Y-137055868D01*
X106360850Y-137068480D01*
X106338671Y-137078970D01*
X106315572Y-137087235D01*
X106291773Y-137093196D01*
X106267505Y-137096796D01*
X106243001Y-137098000D01*
X105592999Y-137098000D01*
X105568495Y-137096796D01*
X105544227Y-137093196D01*
X105520428Y-137087235D01*
X105497329Y-137078970D01*
X105475150Y-137068480D01*
X105454107Y-137055868D01*
X105434401Y-137041253D01*
X105416223Y-137024777D01*
X105399747Y-137006599D01*
X105385132Y-136986893D01*
X105372520Y-136965850D01*
X105362030Y-136943671D01*
X105353765Y-136920572D01*
X105347804Y-136896773D01*
X105344204Y-136872505D01*
X105343000Y-136848001D01*
X105343000Y-135947999D01*
X105344204Y-135923495D01*
X105347804Y-135899227D01*
X105353765Y-135875428D01*
X105362030Y-135852329D01*
X105372520Y-135830150D01*
X105385132Y-135809107D01*
X105399747Y-135789401D01*
X105416223Y-135771223D01*
X105434401Y-135754747D01*
X105454107Y-135740132D01*
X105475150Y-135727520D01*
X105497329Y-135717030D01*
X105520428Y-135708765D01*
X105544227Y-135702804D01*
X105568495Y-135699204D01*
X105592999Y-135698000D01*
X106243001Y-135698000D01*
X106267505Y-135699204D01*
X106267505Y-135699204D01*
G37*
D12*
X105918000Y-136398000D03*
D11*
G36*
X108317505Y-135699204D02*
X108341773Y-135702804D01*
X108365572Y-135708765D01*
X108388671Y-135717030D01*
X108410850Y-135727520D01*
X108431893Y-135740132D01*
X108451599Y-135754747D01*
X108469777Y-135771223D01*
X108486253Y-135789401D01*
X108500868Y-135809107D01*
X108513480Y-135830150D01*
X108523970Y-135852329D01*
X108532235Y-135875428D01*
X108538196Y-135899227D01*
X108541796Y-135923495D01*
X108543000Y-135947999D01*
X108543000Y-136848001D01*
X108541796Y-136872505D01*
X108538196Y-136896773D01*
X108532235Y-136920572D01*
X108523970Y-136943671D01*
X108513480Y-136965850D01*
X108500868Y-136986893D01*
X108486253Y-137006599D01*
X108469777Y-137024777D01*
X108451599Y-137041253D01*
X108431893Y-137055868D01*
X108410850Y-137068480D01*
X108388671Y-137078970D01*
X108365572Y-137087235D01*
X108341773Y-137093196D01*
X108317505Y-137096796D01*
X108293001Y-137098000D01*
X107642999Y-137098000D01*
X107618495Y-137096796D01*
X107594227Y-137093196D01*
X107570428Y-137087235D01*
X107547329Y-137078970D01*
X107525150Y-137068480D01*
X107504107Y-137055868D01*
X107484401Y-137041253D01*
X107466223Y-137024777D01*
X107449747Y-137006599D01*
X107435132Y-136986893D01*
X107422520Y-136965850D01*
X107412030Y-136943671D01*
X107403765Y-136920572D01*
X107397804Y-136896773D01*
X107394204Y-136872505D01*
X107393000Y-136848001D01*
X107393000Y-135947999D01*
X107394204Y-135923495D01*
X107397804Y-135899227D01*
X107403765Y-135875428D01*
X107412030Y-135852329D01*
X107422520Y-135830150D01*
X107435132Y-135809107D01*
X107449747Y-135789401D01*
X107466223Y-135771223D01*
X107484401Y-135754747D01*
X107504107Y-135740132D01*
X107525150Y-135727520D01*
X107547329Y-135717030D01*
X107570428Y-135708765D01*
X107594227Y-135702804D01*
X107618495Y-135699204D01*
X107642999Y-135698000D01*
X108293001Y-135698000D01*
X108317505Y-135699204D01*
X108317505Y-135699204D01*
G37*
D12*
X107968000Y-136398000D03*
D11*
G36*
X120509505Y-142049204D02*
X120533773Y-142052804D01*
X120557572Y-142058765D01*
X120580671Y-142067030D01*
X120602850Y-142077520D01*
X120623893Y-142090132D01*
X120643599Y-142104747D01*
X120661777Y-142121223D01*
X120678253Y-142139401D01*
X120692868Y-142159107D01*
X120705480Y-142180150D01*
X120715970Y-142202329D01*
X120724235Y-142225428D01*
X120730196Y-142249227D01*
X120733796Y-142273495D01*
X120735000Y-142297999D01*
X120735000Y-143198001D01*
X120733796Y-143222505D01*
X120730196Y-143246773D01*
X120724235Y-143270572D01*
X120715970Y-143293671D01*
X120705480Y-143315850D01*
X120692868Y-143336893D01*
X120678253Y-143356599D01*
X120661777Y-143374777D01*
X120643599Y-143391253D01*
X120623893Y-143405868D01*
X120602850Y-143418480D01*
X120580671Y-143428970D01*
X120557572Y-143437235D01*
X120533773Y-143443196D01*
X120509505Y-143446796D01*
X120485001Y-143448000D01*
X119834999Y-143448000D01*
X119810495Y-143446796D01*
X119786227Y-143443196D01*
X119762428Y-143437235D01*
X119739329Y-143428970D01*
X119717150Y-143418480D01*
X119696107Y-143405868D01*
X119676401Y-143391253D01*
X119658223Y-143374777D01*
X119641747Y-143356599D01*
X119627132Y-143336893D01*
X119614520Y-143315850D01*
X119604030Y-143293671D01*
X119595765Y-143270572D01*
X119589804Y-143246773D01*
X119586204Y-143222505D01*
X119585000Y-143198001D01*
X119585000Y-142297999D01*
X119586204Y-142273495D01*
X119589804Y-142249227D01*
X119595765Y-142225428D01*
X119604030Y-142202329D01*
X119614520Y-142180150D01*
X119627132Y-142159107D01*
X119641747Y-142139401D01*
X119658223Y-142121223D01*
X119676401Y-142104747D01*
X119696107Y-142090132D01*
X119717150Y-142077520D01*
X119739329Y-142067030D01*
X119762428Y-142058765D01*
X119786227Y-142052804D01*
X119810495Y-142049204D01*
X119834999Y-142048000D01*
X120485001Y-142048000D01*
X120509505Y-142049204D01*
X120509505Y-142049204D01*
G37*
D12*
X120160000Y-142748000D03*
D11*
G36*
X118459505Y-142049204D02*
X118483773Y-142052804D01*
X118507572Y-142058765D01*
X118530671Y-142067030D01*
X118552850Y-142077520D01*
X118573893Y-142090132D01*
X118593599Y-142104747D01*
X118611777Y-142121223D01*
X118628253Y-142139401D01*
X118642868Y-142159107D01*
X118655480Y-142180150D01*
X118665970Y-142202329D01*
X118674235Y-142225428D01*
X118680196Y-142249227D01*
X118683796Y-142273495D01*
X118685000Y-142297999D01*
X118685000Y-143198001D01*
X118683796Y-143222505D01*
X118680196Y-143246773D01*
X118674235Y-143270572D01*
X118665970Y-143293671D01*
X118655480Y-143315850D01*
X118642868Y-143336893D01*
X118628253Y-143356599D01*
X118611777Y-143374777D01*
X118593599Y-143391253D01*
X118573893Y-143405868D01*
X118552850Y-143418480D01*
X118530671Y-143428970D01*
X118507572Y-143437235D01*
X118483773Y-143443196D01*
X118459505Y-143446796D01*
X118435001Y-143448000D01*
X117784999Y-143448000D01*
X117760495Y-143446796D01*
X117736227Y-143443196D01*
X117712428Y-143437235D01*
X117689329Y-143428970D01*
X117667150Y-143418480D01*
X117646107Y-143405868D01*
X117626401Y-143391253D01*
X117608223Y-143374777D01*
X117591747Y-143356599D01*
X117577132Y-143336893D01*
X117564520Y-143315850D01*
X117554030Y-143293671D01*
X117545765Y-143270572D01*
X117539804Y-143246773D01*
X117536204Y-143222505D01*
X117535000Y-143198001D01*
X117535000Y-142297999D01*
X117536204Y-142273495D01*
X117539804Y-142249227D01*
X117545765Y-142225428D01*
X117554030Y-142202329D01*
X117564520Y-142180150D01*
X117577132Y-142159107D01*
X117591747Y-142139401D01*
X117608223Y-142121223D01*
X117626401Y-142104747D01*
X117646107Y-142090132D01*
X117667150Y-142077520D01*
X117689329Y-142067030D01*
X117712428Y-142058765D01*
X117736227Y-142052804D01*
X117760495Y-142049204D01*
X117784999Y-142048000D01*
X118435001Y-142048000D01*
X118459505Y-142049204D01*
X118459505Y-142049204D01*
G37*
D12*
X118110000Y-142748000D03*
D11*
G36*
X123156505Y-134046204D02*
X123180773Y-134049804D01*
X123204572Y-134055765D01*
X123227671Y-134064030D01*
X123249850Y-134074520D01*
X123270893Y-134087132D01*
X123290599Y-134101747D01*
X123308777Y-134118223D01*
X123325253Y-134136401D01*
X123339868Y-134156107D01*
X123352480Y-134177150D01*
X123362970Y-134199329D01*
X123371235Y-134222428D01*
X123377196Y-134246227D01*
X123380796Y-134270495D01*
X123382000Y-134294999D01*
X123382000Y-134945001D01*
X123380796Y-134969505D01*
X123377196Y-134993773D01*
X123371235Y-135017572D01*
X123362970Y-135040671D01*
X123352480Y-135062850D01*
X123339868Y-135083893D01*
X123325253Y-135103599D01*
X123308777Y-135121777D01*
X123290599Y-135138253D01*
X123270893Y-135152868D01*
X123249850Y-135165480D01*
X123227671Y-135175970D01*
X123204572Y-135184235D01*
X123180773Y-135190196D01*
X123156505Y-135193796D01*
X123132001Y-135195000D01*
X122231999Y-135195000D01*
X122207495Y-135193796D01*
X122183227Y-135190196D01*
X122159428Y-135184235D01*
X122136329Y-135175970D01*
X122114150Y-135165480D01*
X122093107Y-135152868D01*
X122073401Y-135138253D01*
X122055223Y-135121777D01*
X122038747Y-135103599D01*
X122024132Y-135083893D01*
X122011520Y-135062850D01*
X122001030Y-135040671D01*
X121992765Y-135017572D01*
X121986804Y-134993773D01*
X121983204Y-134969505D01*
X121982000Y-134945001D01*
X121982000Y-134294999D01*
X121983204Y-134270495D01*
X121986804Y-134246227D01*
X121992765Y-134222428D01*
X122001030Y-134199329D01*
X122011520Y-134177150D01*
X122024132Y-134156107D01*
X122038747Y-134136401D01*
X122055223Y-134118223D01*
X122073401Y-134101747D01*
X122093107Y-134087132D01*
X122114150Y-134074520D01*
X122136329Y-134064030D01*
X122159428Y-134055765D01*
X122183227Y-134049804D01*
X122207495Y-134046204D01*
X122231999Y-134045000D01*
X123132001Y-134045000D01*
X123156505Y-134046204D01*
X123156505Y-134046204D01*
G37*
D12*
X122682000Y-134620000D03*
D11*
G36*
X123156505Y-131996204D02*
X123180773Y-131999804D01*
X123204572Y-132005765D01*
X123227671Y-132014030D01*
X123249850Y-132024520D01*
X123270893Y-132037132D01*
X123290599Y-132051747D01*
X123308777Y-132068223D01*
X123325253Y-132086401D01*
X123339868Y-132106107D01*
X123352480Y-132127150D01*
X123362970Y-132149329D01*
X123371235Y-132172428D01*
X123377196Y-132196227D01*
X123380796Y-132220495D01*
X123382000Y-132244999D01*
X123382000Y-132895001D01*
X123380796Y-132919505D01*
X123377196Y-132943773D01*
X123371235Y-132967572D01*
X123362970Y-132990671D01*
X123352480Y-133012850D01*
X123339868Y-133033893D01*
X123325253Y-133053599D01*
X123308777Y-133071777D01*
X123290599Y-133088253D01*
X123270893Y-133102868D01*
X123249850Y-133115480D01*
X123227671Y-133125970D01*
X123204572Y-133134235D01*
X123180773Y-133140196D01*
X123156505Y-133143796D01*
X123132001Y-133145000D01*
X122231999Y-133145000D01*
X122207495Y-133143796D01*
X122183227Y-133140196D01*
X122159428Y-133134235D01*
X122136329Y-133125970D01*
X122114150Y-133115480D01*
X122093107Y-133102868D01*
X122073401Y-133088253D01*
X122055223Y-133071777D01*
X122038747Y-133053599D01*
X122024132Y-133033893D01*
X122011520Y-133012850D01*
X122001030Y-132990671D01*
X121992765Y-132967572D01*
X121986804Y-132943773D01*
X121983204Y-132919505D01*
X121982000Y-132895001D01*
X121982000Y-132244999D01*
X121983204Y-132220495D01*
X121986804Y-132196227D01*
X121992765Y-132172428D01*
X122001030Y-132149329D01*
X122011520Y-132127150D01*
X122024132Y-132106107D01*
X122038747Y-132086401D01*
X122055223Y-132068223D01*
X122073401Y-132051747D01*
X122093107Y-132037132D01*
X122114150Y-132024520D01*
X122136329Y-132014030D01*
X122159428Y-132005765D01*
X122183227Y-131999804D01*
X122207495Y-131996204D01*
X122231999Y-131995000D01*
X123132001Y-131995000D01*
X123156505Y-131996204D01*
X123156505Y-131996204D01*
G37*
D12*
X122682000Y-132570000D03*
D11*
G36*
X123156505Y-127950204D02*
X123180773Y-127953804D01*
X123204572Y-127959765D01*
X123227671Y-127968030D01*
X123249850Y-127978520D01*
X123270893Y-127991132D01*
X123290599Y-128005747D01*
X123308777Y-128022223D01*
X123325253Y-128040401D01*
X123339868Y-128060107D01*
X123352480Y-128081150D01*
X123362970Y-128103329D01*
X123371235Y-128126428D01*
X123377196Y-128150227D01*
X123380796Y-128174495D01*
X123382000Y-128198999D01*
X123382000Y-128849001D01*
X123380796Y-128873505D01*
X123377196Y-128897773D01*
X123371235Y-128921572D01*
X123362970Y-128944671D01*
X123352480Y-128966850D01*
X123339868Y-128987893D01*
X123325253Y-129007599D01*
X123308777Y-129025777D01*
X123290599Y-129042253D01*
X123270893Y-129056868D01*
X123249850Y-129069480D01*
X123227671Y-129079970D01*
X123204572Y-129088235D01*
X123180773Y-129094196D01*
X123156505Y-129097796D01*
X123132001Y-129099000D01*
X122231999Y-129099000D01*
X122207495Y-129097796D01*
X122183227Y-129094196D01*
X122159428Y-129088235D01*
X122136329Y-129079970D01*
X122114150Y-129069480D01*
X122093107Y-129056868D01*
X122073401Y-129042253D01*
X122055223Y-129025777D01*
X122038747Y-129007599D01*
X122024132Y-128987893D01*
X122011520Y-128966850D01*
X122001030Y-128944671D01*
X121992765Y-128921572D01*
X121986804Y-128897773D01*
X121983204Y-128873505D01*
X121982000Y-128849001D01*
X121982000Y-128198999D01*
X121983204Y-128174495D01*
X121986804Y-128150227D01*
X121992765Y-128126428D01*
X122001030Y-128103329D01*
X122011520Y-128081150D01*
X122024132Y-128060107D01*
X122038747Y-128040401D01*
X122055223Y-128022223D01*
X122073401Y-128005747D01*
X122093107Y-127991132D01*
X122114150Y-127978520D01*
X122136329Y-127968030D01*
X122159428Y-127959765D01*
X122183227Y-127953804D01*
X122207495Y-127950204D01*
X122231999Y-127949000D01*
X123132001Y-127949000D01*
X123156505Y-127950204D01*
X123156505Y-127950204D01*
G37*
D12*
X122682000Y-128524000D03*
D11*
G36*
X123156505Y-130000204D02*
X123180773Y-130003804D01*
X123204572Y-130009765D01*
X123227671Y-130018030D01*
X123249850Y-130028520D01*
X123270893Y-130041132D01*
X123290599Y-130055747D01*
X123308777Y-130072223D01*
X123325253Y-130090401D01*
X123339868Y-130110107D01*
X123352480Y-130131150D01*
X123362970Y-130153329D01*
X123371235Y-130176428D01*
X123377196Y-130200227D01*
X123380796Y-130224495D01*
X123382000Y-130248999D01*
X123382000Y-130899001D01*
X123380796Y-130923505D01*
X123377196Y-130947773D01*
X123371235Y-130971572D01*
X123362970Y-130994671D01*
X123352480Y-131016850D01*
X123339868Y-131037893D01*
X123325253Y-131057599D01*
X123308777Y-131075777D01*
X123290599Y-131092253D01*
X123270893Y-131106868D01*
X123249850Y-131119480D01*
X123227671Y-131129970D01*
X123204572Y-131138235D01*
X123180773Y-131144196D01*
X123156505Y-131147796D01*
X123132001Y-131149000D01*
X122231999Y-131149000D01*
X122207495Y-131147796D01*
X122183227Y-131144196D01*
X122159428Y-131138235D01*
X122136329Y-131129970D01*
X122114150Y-131119480D01*
X122093107Y-131106868D01*
X122073401Y-131092253D01*
X122055223Y-131075777D01*
X122038747Y-131057599D01*
X122024132Y-131037893D01*
X122011520Y-131016850D01*
X122001030Y-130994671D01*
X121992765Y-130971572D01*
X121986804Y-130947773D01*
X121983204Y-130923505D01*
X121982000Y-130899001D01*
X121982000Y-130248999D01*
X121983204Y-130224495D01*
X121986804Y-130200227D01*
X121992765Y-130176428D01*
X122001030Y-130153329D01*
X122011520Y-130131150D01*
X122024132Y-130110107D01*
X122038747Y-130090401D01*
X122055223Y-130072223D01*
X122073401Y-130055747D01*
X122093107Y-130041132D01*
X122114150Y-130028520D01*
X122136329Y-130018030D01*
X122159428Y-130009765D01*
X122183227Y-130003804D01*
X122207495Y-130000204D01*
X122231999Y-129999000D01*
X123132001Y-129999000D01*
X123156505Y-130000204D01*
X123156505Y-130000204D01*
G37*
D12*
X122682000Y-130574000D03*
D11*
G36*
X123156505Y-123877204D02*
X123180773Y-123880804D01*
X123204572Y-123886765D01*
X123227671Y-123895030D01*
X123249850Y-123905520D01*
X123270893Y-123918132D01*
X123290599Y-123932747D01*
X123308777Y-123949223D01*
X123325253Y-123967401D01*
X123339868Y-123987107D01*
X123352480Y-124008150D01*
X123362970Y-124030329D01*
X123371235Y-124053428D01*
X123377196Y-124077227D01*
X123380796Y-124101495D01*
X123382000Y-124125999D01*
X123382000Y-124776001D01*
X123380796Y-124800505D01*
X123377196Y-124824773D01*
X123371235Y-124848572D01*
X123362970Y-124871671D01*
X123352480Y-124893850D01*
X123339868Y-124914893D01*
X123325253Y-124934599D01*
X123308777Y-124952777D01*
X123290599Y-124969253D01*
X123270893Y-124983868D01*
X123249850Y-124996480D01*
X123227671Y-125006970D01*
X123204572Y-125015235D01*
X123180773Y-125021196D01*
X123156505Y-125024796D01*
X123132001Y-125026000D01*
X122231999Y-125026000D01*
X122207495Y-125024796D01*
X122183227Y-125021196D01*
X122159428Y-125015235D01*
X122136329Y-125006970D01*
X122114150Y-124996480D01*
X122093107Y-124983868D01*
X122073401Y-124969253D01*
X122055223Y-124952777D01*
X122038747Y-124934599D01*
X122024132Y-124914893D01*
X122011520Y-124893850D01*
X122001030Y-124871671D01*
X121992765Y-124848572D01*
X121986804Y-124824773D01*
X121983204Y-124800505D01*
X121982000Y-124776001D01*
X121982000Y-124125999D01*
X121983204Y-124101495D01*
X121986804Y-124077227D01*
X121992765Y-124053428D01*
X122001030Y-124030329D01*
X122011520Y-124008150D01*
X122024132Y-123987107D01*
X122038747Y-123967401D01*
X122055223Y-123949223D01*
X122073401Y-123932747D01*
X122093107Y-123918132D01*
X122114150Y-123905520D01*
X122136329Y-123895030D01*
X122159428Y-123886765D01*
X122183227Y-123880804D01*
X122207495Y-123877204D01*
X122231999Y-123876000D01*
X123132001Y-123876000D01*
X123156505Y-123877204D01*
X123156505Y-123877204D01*
G37*
D12*
X122682000Y-124451000D03*
D11*
G36*
X123156505Y-125927204D02*
X123180773Y-125930804D01*
X123204572Y-125936765D01*
X123227671Y-125945030D01*
X123249850Y-125955520D01*
X123270893Y-125968132D01*
X123290599Y-125982747D01*
X123308777Y-125999223D01*
X123325253Y-126017401D01*
X123339868Y-126037107D01*
X123352480Y-126058150D01*
X123362970Y-126080329D01*
X123371235Y-126103428D01*
X123377196Y-126127227D01*
X123380796Y-126151495D01*
X123382000Y-126175999D01*
X123382000Y-126826001D01*
X123380796Y-126850505D01*
X123377196Y-126874773D01*
X123371235Y-126898572D01*
X123362970Y-126921671D01*
X123352480Y-126943850D01*
X123339868Y-126964893D01*
X123325253Y-126984599D01*
X123308777Y-127002777D01*
X123290599Y-127019253D01*
X123270893Y-127033868D01*
X123249850Y-127046480D01*
X123227671Y-127056970D01*
X123204572Y-127065235D01*
X123180773Y-127071196D01*
X123156505Y-127074796D01*
X123132001Y-127076000D01*
X122231999Y-127076000D01*
X122207495Y-127074796D01*
X122183227Y-127071196D01*
X122159428Y-127065235D01*
X122136329Y-127056970D01*
X122114150Y-127046480D01*
X122093107Y-127033868D01*
X122073401Y-127019253D01*
X122055223Y-127002777D01*
X122038747Y-126984599D01*
X122024132Y-126964893D01*
X122011520Y-126943850D01*
X122001030Y-126921671D01*
X121992765Y-126898572D01*
X121986804Y-126874773D01*
X121983204Y-126850505D01*
X121982000Y-126826001D01*
X121982000Y-126175999D01*
X121983204Y-126151495D01*
X121986804Y-126127227D01*
X121992765Y-126103428D01*
X122001030Y-126080329D01*
X122011520Y-126058150D01*
X122024132Y-126037107D01*
X122038747Y-126017401D01*
X122055223Y-125999223D01*
X122073401Y-125982747D01*
X122093107Y-125968132D01*
X122114150Y-125955520D01*
X122136329Y-125945030D01*
X122159428Y-125936765D01*
X122183227Y-125930804D01*
X122207495Y-125927204D01*
X122231999Y-125926000D01*
X123132001Y-125926000D01*
X123156505Y-125927204D01*
X123156505Y-125927204D01*
G37*
D12*
X122682000Y-126501000D03*
D11*
G36*
X120509505Y-139509204D02*
X120533773Y-139512804D01*
X120557572Y-139518765D01*
X120580671Y-139527030D01*
X120602850Y-139537520D01*
X120623893Y-139550132D01*
X120643599Y-139564747D01*
X120661777Y-139581223D01*
X120678253Y-139599401D01*
X120692868Y-139619107D01*
X120705480Y-139640150D01*
X120715970Y-139662329D01*
X120724235Y-139685428D01*
X120730196Y-139709227D01*
X120733796Y-139733495D01*
X120735000Y-139757999D01*
X120735000Y-140658001D01*
X120733796Y-140682505D01*
X120730196Y-140706773D01*
X120724235Y-140730572D01*
X120715970Y-140753671D01*
X120705480Y-140775850D01*
X120692868Y-140796893D01*
X120678253Y-140816599D01*
X120661777Y-140834777D01*
X120643599Y-140851253D01*
X120623893Y-140865868D01*
X120602850Y-140878480D01*
X120580671Y-140888970D01*
X120557572Y-140897235D01*
X120533773Y-140903196D01*
X120509505Y-140906796D01*
X120485001Y-140908000D01*
X119834999Y-140908000D01*
X119810495Y-140906796D01*
X119786227Y-140903196D01*
X119762428Y-140897235D01*
X119739329Y-140888970D01*
X119717150Y-140878480D01*
X119696107Y-140865868D01*
X119676401Y-140851253D01*
X119658223Y-140834777D01*
X119641747Y-140816599D01*
X119627132Y-140796893D01*
X119614520Y-140775850D01*
X119604030Y-140753671D01*
X119595765Y-140730572D01*
X119589804Y-140706773D01*
X119586204Y-140682505D01*
X119585000Y-140658001D01*
X119585000Y-139757999D01*
X119586204Y-139733495D01*
X119589804Y-139709227D01*
X119595765Y-139685428D01*
X119604030Y-139662329D01*
X119614520Y-139640150D01*
X119627132Y-139619107D01*
X119641747Y-139599401D01*
X119658223Y-139581223D01*
X119676401Y-139564747D01*
X119696107Y-139550132D01*
X119717150Y-139537520D01*
X119739329Y-139527030D01*
X119762428Y-139518765D01*
X119786227Y-139512804D01*
X119810495Y-139509204D01*
X119834999Y-139508000D01*
X120485001Y-139508000D01*
X120509505Y-139509204D01*
X120509505Y-139509204D01*
G37*
D12*
X120160000Y-140208000D03*
D11*
G36*
X118459505Y-139509204D02*
X118483773Y-139512804D01*
X118507572Y-139518765D01*
X118530671Y-139527030D01*
X118552850Y-139537520D01*
X118573893Y-139550132D01*
X118593599Y-139564747D01*
X118611777Y-139581223D01*
X118628253Y-139599401D01*
X118642868Y-139619107D01*
X118655480Y-139640150D01*
X118665970Y-139662329D01*
X118674235Y-139685428D01*
X118680196Y-139709227D01*
X118683796Y-139733495D01*
X118685000Y-139757999D01*
X118685000Y-140658001D01*
X118683796Y-140682505D01*
X118680196Y-140706773D01*
X118674235Y-140730572D01*
X118665970Y-140753671D01*
X118655480Y-140775850D01*
X118642868Y-140796893D01*
X118628253Y-140816599D01*
X118611777Y-140834777D01*
X118593599Y-140851253D01*
X118573893Y-140865868D01*
X118552850Y-140878480D01*
X118530671Y-140888970D01*
X118507572Y-140897235D01*
X118483773Y-140903196D01*
X118459505Y-140906796D01*
X118435001Y-140908000D01*
X117784999Y-140908000D01*
X117760495Y-140906796D01*
X117736227Y-140903196D01*
X117712428Y-140897235D01*
X117689329Y-140888970D01*
X117667150Y-140878480D01*
X117646107Y-140865868D01*
X117626401Y-140851253D01*
X117608223Y-140834777D01*
X117591747Y-140816599D01*
X117577132Y-140796893D01*
X117564520Y-140775850D01*
X117554030Y-140753671D01*
X117545765Y-140730572D01*
X117539804Y-140706773D01*
X117536204Y-140682505D01*
X117535000Y-140658001D01*
X117535000Y-139757999D01*
X117536204Y-139733495D01*
X117539804Y-139709227D01*
X117545765Y-139685428D01*
X117554030Y-139662329D01*
X117564520Y-139640150D01*
X117577132Y-139619107D01*
X117591747Y-139599401D01*
X117608223Y-139581223D01*
X117626401Y-139564747D01*
X117646107Y-139550132D01*
X117667150Y-139537520D01*
X117689329Y-139527030D01*
X117712428Y-139518765D01*
X117736227Y-139512804D01*
X117760495Y-139509204D01*
X117784999Y-139508000D01*
X118435001Y-139508000D01*
X118459505Y-139509204D01*
X118459505Y-139509204D01*
G37*
D12*
X118110000Y-140208000D03*
D11*
G36*
X158346505Y-118427204D02*
X158370773Y-118430804D01*
X158394572Y-118436765D01*
X158417671Y-118445030D01*
X158439850Y-118455520D01*
X158460893Y-118468132D01*
X158480599Y-118482747D01*
X158498777Y-118499223D01*
X158515253Y-118517401D01*
X158529868Y-118537107D01*
X158542480Y-118558150D01*
X158552970Y-118580329D01*
X158561235Y-118603428D01*
X158567196Y-118627227D01*
X158570796Y-118651495D01*
X158572000Y-118675999D01*
X158572000Y-119576001D01*
X158570796Y-119600505D01*
X158567196Y-119624773D01*
X158561235Y-119648572D01*
X158552970Y-119671671D01*
X158542480Y-119693850D01*
X158529868Y-119714893D01*
X158515253Y-119734599D01*
X158498777Y-119752777D01*
X158480599Y-119769253D01*
X158460893Y-119783868D01*
X158439850Y-119796480D01*
X158417671Y-119806970D01*
X158394572Y-119815235D01*
X158370773Y-119821196D01*
X158346505Y-119824796D01*
X158322001Y-119826000D01*
X157671999Y-119826000D01*
X157647495Y-119824796D01*
X157623227Y-119821196D01*
X157599428Y-119815235D01*
X157576329Y-119806970D01*
X157554150Y-119796480D01*
X157533107Y-119783868D01*
X157513401Y-119769253D01*
X157495223Y-119752777D01*
X157478747Y-119734599D01*
X157464132Y-119714893D01*
X157451520Y-119693850D01*
X157441030Y-119671671D01*
X157432765Y-119648572D01*
X157426804Y-119624773D01*
X157423204Y-119600505D01*
X157422000Y-119576001D01*
X157422000Y-118675999D01*
X157423204Y-118651495D01*
X157426804Y-118627227D01*
X157432765Y-118603428D01*
X157441030Y-118580329D01*
X157451520Y-118558150D01*
X157464132Y-118537107D01*
X157478747Y-118517401D01*
X157495223Y-118499223D01*
X157513401Y-118482747D01*
X157533107Y-118468132D01*
X157554150Y-118455520D01*
X157576329Y-118445030D01*
X157599428Y-118436765D01*
X157623227Y-118430804D01*
X157647495Y-118427204D01*
X157671999Y-118426000D01*
X158322001Y-118426000D01*
X158346505Y-118427204D01*
X158346505Y-118427204D01*
G37*
D12*
X157997000Y-119126000D03*
D11*
G36*
X156296505Y-118427204D02*
X156320773Y-118430804D01*
X156344572Y-118436765D01*
X156367671Y-118445030D01*
X156389850Y-118455520D01*
X156410893Y-118468132D01*
X156430599Y-118482747D01*
X156448777Y-118499223D01*
X156465253Y-118517401D01*
X156479868Y-118537107D01*
X156492480Y-118558150D01*
X156502970Y-118580329D01*
X156511235Y-118603428D01*
X156517196Y-118627227D01*
X156520796Y-118651495D01*
X156522000Y-118675999D01*
X156522000Y-119576001D01*
X156520796Y-119600505D01*
X156517196Y-119624773D01*
X156511235Y-119648572D01*
X156502970Y-119671671D01*
X156492480Y-119693850D01*
X156479868Y-119714893D01*
X156465253Y-119734599D01*
X156448777Y-119752777D01*
X156430599Y-119769253D01*
X156410893Y-119783868D01*
X156389850Y-119796480D01*
X156367671Y-119806970D01*
X156344572Y-119815235D01*
X156320773Y-119821196D01*
X156296505Y-119824796D01*
X156272001Y-119826000D01*
X155621999Y-119826000D01*
X155597495Y-119824796D01*
X155573227Y-119821196D01*
X155549428Y-119815235D01*
X155526329Y-119806970D01*
X155504150Y-119796480D01*
X155483107Y-119783868D01*
X155463401Y-119769253D01*
X155445223Y-119752777D01*
X155428747Y-119734599D01*
X155414132Y-119714893D01*
X155401520Y-119693850D01*
X155391030Y-119671671D01*
X155382765Y-119648572D01*
X155376804Y-119624773D01*
X155373204Y-119600505D01*
X155372000Y-119576001D01*
X155372000Y-118675999D01*
X155373204Y-118651495D01*
X155376804Y-118627227D01*
X155382765Y-118603428D01*
X155391030Y-118580329D01*
X155401520Y-118558150D01*
X155414132Y-118537107D01*
X155428747Y-118517401D01*
X155445223Y-118499223D01*
X155463401Y-118482747D01*
X155483107Y-118468132D01*
X155504150Y-118455520D01*
X155526329Y-118445030D01*
X155549428Y-118436765D01*
X155573227Y-118430804D01*
X155597495Y-118427204D01*
X155621999Y-118426000D01*
X156272001Y-118426000D01*
X156296505Y-118427204D01*
X156296505Y-118427204D01*
G37*
D12*
X155947000Y-119126000D03*
D11*
G36*
X156296505Y-135699204D02*
X156320773Y-135702804D01*
X156344572Y-135708765D01*
X156367671Y-135717030D01*
X156389850Y-135727520D01*
X156410893Y-135740132D01*
X156430599Y-135754747D01*
X156448777Y-135771223D01*
X156465253Y-135789401D01*
X156479868Y-135809107D01*
X156492480Y-135830150D01*
X156502970Y-135852329D01*
X156511235Y-135875428D01*
X156517196Y-135899227D01*
X156520796Y-135923495D01*
X156522000Y-135947999D01*
X156522000Y-136848001D01*
X156520796Y-136872505D01*
X156517196Y-136896773D01*
X156511235Y-136920572D01*
X156502970Y-136943671D01*
X156492480Y-136965850D01*
X156479868Y-136986893D01*
X156465253Y-137006599D01*
X156448777Y-137024777D01*
X156430599Y-137041253D01*
X156410893Y-137055868D01*
X156389850Y-137068480D01*
X156367671Y-137078970D01*
X156344572Y-137087235D01*
X156320773Y-137093196D01*
X156296505Y-137096796D01*
X156272001Y-137098000D01*
X155621999Y-137098000D01*
X155597495Y-137096796D01*
X155573227Y-137093196D01*
X155549428Y-137087235D01*
X155526329Y-137078970D01*
X155504150Y-137068480D01*
X155483107Y-137055868D01*
X155463401Y-137041253D01*
X155445223Y-137024777D01*
X155428747Y-137006599D01*
X155414132Y-136986893D01*
X155401520Y-136965850D01*
X155391030Y-136943671D01*
X155382765Y-136920572D01*
X155376804Y-136896773D01*
X155373204Y-136872505D01*
X155372000Y-136848001D01*
X155372000Y-135947999D01*
X155373204Y-135923495D01*
X155376804Y-135899227D01*
X155382765Y-135875428D01*
X155391030Y-135852329D01*
X155401520Y-135830150D01*
X155414132Y-135809107D01*
X155428747Y-135789401D01*
X155445223Y-135771223D01*
X155463401Y-135754747D01*
X155483107Y-135740132D01*
X155504150Y-135727520D01*
X155526329Y-135717030D01*
X155549428Y-135708765D01*
X155573227Y-135702804D01*
X155597495Y-135699204D01*
X155621999Y-135698000D01*
X156272001Y-135698000D01*
X156296505Y-135699204D01*
X156296505Y-135699204D01*
G37*
D12*
X155947000Y-136398000D03*
D11*
G36*
X158346505Y-135699204D02*
X158370773Y-135702804D01*
X158394572Y-135708765D01*
X158417671Y-135717030D01*
X158439850Y-135727520D01*
X158460893Y-135740132D01*
X158480599Y-135754747D01*
X158498777Y-135771223D01*
X158515253Y-135789401D01*
X158529868Y-135809107D01*
X158542480Y-135830150D01*
X158552970Y-135852329D01*
X158561235Y-135875428D01*
X158567196Y-135899227D01*
X158570796Y-135923495D01*
X158572000Y-135947999D01*
X158572000Y-136848001D01*
X158570796Y-136872505D01*
X158567196Y-136896773D01*
X158561235Y-136920572D01*
X158552970Y-136943671D01*
X158542480Y-136965850D01*
X158529868Y-136986893D01*
X158515253Y-137006599D01*
X158498777Y-137024777D01*
X158480599Y-137041253D01*
X158460893Y-137055868D01*
X158439850Y-137068480D01*
X158417671Y-137078970D01*
X158394572Y-137087235D01*
X158370773Y-137093196D01*
X158346505Y-137096796D01*
X158322001Y-137098000D01*
X157671999Y-137098000D01*
X157647495Y-137096796D01*
X157623227Y-137093196D01*
X157599428Y-137087235D01*
X157576329Y-137078970D01*
X157554150Y-137068480D01*
X157533107Y-137055868D01*
X157513401Y-137041253D01*
X157495223Y-137024777D01*
X157478747Y-137006599D01*
X157464132Y-136986893D01*
X157451520Y-136965850D01*
X157441030Y-136943671D01*
X157432765Y-136920572D01*
X157426804Y-136896773D01*
X157423204Y-136872505D01*
X157422000Y-136848001D01*
X157422000Y-135947999D01*
X157423204Y-135923495D01*
X157426804Y-135899227D01*
X157432765Y-135875428D01*
X157441030Y-135852329D01*
X157451520Y-135830150D01*
X157464132Y-135809107D01*
X157478747Y-135789401D01*
X157495223Y-135771223D01*
X157513401Y-135754747D01*
X157533107Y-135740132D01*
X157554150Y-135727520D01*
X157576329Y-135717030D01*
X157599428Y-135708765D01*
X157623227Y-135702804D01*
X157647495Y-135699204D01*
X157671999Y-135698000D01*
X158322001Y-135698000D01*
X158346505Y-135699204D01*
X158346505Y-135699204D01*
G37*
D12*
X157997000Y-136398000D03*
D11*
G36*
X156287505Y-121221204D02*
X156311773Y-121224804D01*
X156335572Y-121230765D01*
X156358671Y-121239030D01*
X156380850Y-121249520D01*
X156401893Y-121262132D01*
X156421599Y-121276747D01*
X156439777Y-121293223D01*
X156456253Y-121311401D01*
X156470868Y-121331107D01*
X156483480Y-121352150D01*
X156493970Y-121374329D01*
X156502235Y-121397428D01*
X156508196Y-121421227D01*
X156511796Y-121445495D01*
X156513000Y-121469999D01*
X156513000Y-122370001D01*
X156511796Y-122394505D01*
X156508196Y-122418773D01*
X156502235Y-122442572D01*
X156493970Y-122465671D01*
X156483480Y-122487850D01*
X156470868Y-122508893D01*
X156456253Y-122528599D01*
X156439777Y-122546777D01*
X156421599Y-122563253D01*
X156401893Y-122577868D01*
X156380850Y-122590480D01*
X156358671Y-122600970D01*
X156335572Y-122609235D01*
X156311773Y-122615196D01*
X156287505Y-122618796D01*
X156263001Y-122620000D01*
X155612999Y-122620000D01*
X155588495Y-122618796D01*
X155564227Y-122615196D01*
X155540428Y-122609235D01*
X155517329Y-122600970D01*
X155495150Y-122590480D01*
X155474107Y-122577868D01*
X155454401Y-122563253D01*
X155436223Y-122546777D01*
X155419747Y-122528599D01*
X155405132Y-122508893D01*
X155392520Y-122487850D01*
X155382030Y-122465671D01*
X155373765Y-122442572D01*
X155367804Y-122418773D01*
X155364204Y-122394505D01*
X155363000Y-122370001D01*
X155363000Y-121469999D01*
X155364204Y-121445495D01*
X155367804Y-121421227D01*
X155373765Y-121397428D01*
X155382030Y-121374329D01*
X155392520Y-121352150D01*
X155405132Y-121331107D01*
X155419747Y-121311401D01*
X155436223Y-121293223D01*
X155454401Y-121276747D01*
X155474107Y-121262132D01*
X155495150Y-121249520D01*
X155517329Y-121239030D01*
X155540428Y-121230765D01*
X155564227Y-121224804D01*
X155588495Y-121221204D01*
X155612999Y-121220000D01*
X156263001Y-121220000D01*
X156287505Y-121221204D01*
X156287505Y-121221204D01*
G37*
D12*
X155938000Y-121920000D03*
D11*
G36*
X158337505Y-121221204D02*
X158361773Y-121224804D01*
X158385572Y-121230765D01*
X158408671Y-121239030D01*
X158430850Y-121249520D01*
X158451893Y-121262132D01*
X158471599Y-121276747D01*
X158489777Y-121293223D01*
X158506253Y-121311401D01*
X158520868Y-121331107D01*
X158533480Y-121352150D01*
X158543970Y-121374329D01*
X158552235Y-121397428D01*
X158558196Y-121421227D01*
X158561796Y-121445495D01*
X158563000Y-121469999D01*
X158563000Y-122370001D01*
X158561796Y-122394505D01*
X158558196Y-122418773D01*
X158552235Y-122442572D01*
X158543970Y-122465671D01*
X158533480Y-122487850D01*
X158520868Y-122508893D01*
X158506253Y-122528599D01*
X158489777Y-122546777D01*
X158471599Y-122563253D01*
X158451893Y-122577868D01*
X158430850Y-122590480D01*
X158408671Y-122600970D01*
X158385572Y-122609235D01*
X158361773Y-122615196D01*
X158337505Y-122618796D01*
X158313001Y-122620000D01*
X157662999Y-122620000D01*
X157638495Y-122618796D01*
X157614227Y-122615196D01*
X157590428Y-122609235D01*
X157567329Y-122600970D01*
X157545150Y-122590480D01*
X157524107Y-122577868D01*
X157504401Y-122563253D01*
X157486223Y-122546777D01*
X157469747Y-122528599D01*
X157455132Y-122508893D01*
X157442520Y-122487850D01*
X157432030Y-122465671D01*
X157423765Y-122442572D01*
X157417804Y-122418773D01*
X157414204Y-122394505D01*
X157413000Y-122370001D01*
X157413000Y-121469999D01*
X157414204Y-121445495D01*
X157417804Y-121421227D01*
X157423765Y-121397428D01*
X157432030Y-121374329D01*
X157442520Y-121352150D01*
X157455132Y-121331107D01*
X157469747Y-121311401D01*
X157486223Y-121293223D01*
X157504401Y-121276747D01*
X157524107Y-121262132D01*
X157545150Y-121249520D01*
X157567329Y-121239030D01*
X157590428Y-121230765D01*
X157614227Y-121224804D01*
X157638495Y-121221204D01*
X157662999Y-121220000D01*
X158313001Y-121220000D01*
X158337505Y-121221204D01*
X158337505Y-121221204D01*
G37*
D12*
X157988000Y-121920000D03*
D11*
G36*
X158337505Y-132905204D02*
X158361773Y-132908804D01*
X158385572Y-132914765D01*
X158408671Y-132923030D01*
X158430850Y-132933520D01*
X158451893Y-132946132D01*
X158471599Y-132960747D01*
X158489777Y-132977223D01*
X158506253Y-132995401D01*
X158520868Y-133015107D01*
X158533480Y-133036150D01*
X158543970Y-133058329D01*
X158552235Y-133081428D01*
X158558196Y-133105227D01*
X158561796Y-133129495D01*
X158563000Y-133153999D01*
X158563000Y-134054001D01*
X158561796Y-134078505D01*
X158558196Y-134102773D01*
X158552235Y-134126572D01*
X158543970Y-134149671D01*
X158533480Y-134171850D01*
X158520868Y-134192893D01*
X158506253Y-134212599D01*
X158489777Y-134230777D01*
X158471599Y-134247253D01*
X158451893Y-134261868D01*
X158430850Y-134274480D01*
X158408671Y-134284970D01*
X158385572Y-134293235D01*
X158361773Y-134299196D01*
X158337505Y-134302796D01*
X158313001Y-134304000D01*
X157662999Y-134304000D01*
X157638495Y-134302796D01*
X157614227Y-134299196D01*
X157590428Y-134293235D01*
X157567329Y-134284970D01*
X157545150Y-134274480D01*
X157524107Y-134261868D01*
X157504401Y-134247253D01*
X157486223Y-134230777D01*
X157469747Y-134212599D01*
X157455132Y-134192893D01*
X157442520Y-134171850D01*
X157432030Y-134149671D01*
X157423765Y-134126572D01*
X157417804Y-134102773D01*
X157414204Y-134078505D01*
X157413000Y-134054001D01*
X157413000Y-133153999D01*
X157414204Y-133129495D01*
X157417804Y-133105227D01*
X157423765Y-133081428D01*
X157432030Y-133058329D01*
X157442520Y-133036150D01*
X157455132Y-133015107D01*
X157469747Y-132995401D01*
X157486223Y-132977223D01*
X157504401Y-132960747D01*
X157524107Y-132946132D01*
X157545150Y-132933520D01*
X157567329Y-132923030D01*
X157590428Y-132914765D01*
X157614227Y-132908804D01*
X157638495Y-132905204D01*
X157662999Y-132904000D01*
X158313001Y-132904000D01*
X158337505Y-132905204D01*
X158337505Y-132905204D01*
G37*
D12*
X157988000Y-133604000D03*
D11*
G36*
X156287505Y-132905204D02*
X156311773Y-132908804D01*
X156335572Y-132914765D01*
X156358671Y-132923030D01*
X156380850Y-132933520D01*
X156401893Y-132946132D01*
X156421599Y-132960747D01*
X156439777Y-132977223D01*
X156456253Y-132995401D01*
X156470868Y-133015107D01*
X156483480Y-133036150D01*
X156493970Y-133058329D01*
X156502235Y-133081428D01*
X156508196Y-133105227D01*
X156511796Y-133129495D01*
X156513000Y-133153999D01*
X156513000Y-134054001D01*
X156511796Y-134078505D01*
X156508196Y-134102773D01*
X156502235Y-134126572D01*
X156493970Y-134149671D01*
X156483480Y-134171850D01*
X156470868Y-134192893D01*
X156456253Y-134212599D01*
X156439777Y-134230777D01*
X156421599Y-134247253D01*
X156401893Y-134261868D01*
X156380850Y-134274480D01*
X156358671Y-134284970D01*
X156335572Y-134293235D01*
X156311773Y-134299196D01*
X156287505Y-134302796D01*
X156263001Y-134304000D01*
X155612999Y-134304000D01*
X155588495Y-134302796D01*
X155564227Y-134299196D01*
X155540428Y-134293235D01*
X155517329Y-134284970D01*
X155495150Y-134274480D01*
X155474107Y-134261868D01*
X155454401Y-134247253D01*
X155436223Y-134230777D01*
X155419747Y-134212599D01*
X155405132Y-134192893D01*
X155392520Y-134171850D01*
X155382030Y-134149671D01*
X155373765Y-134126572D01*
X155367804Y-134102773D01*
X155364204Y-134078505D01*
X155363000Y-134054001D01*
X155363000Y-133153999D01*
X155364204Y-133129495D01*
X155367804Y-133105227D01*
X155373765Y-133081428D01*
X155382030Y-133058329D01*
X155392520Y-133036150D01*
X155405132Y-133015107D01*
X155419747Y-132995401D01*
X155436223Y-132977223D01*
X155454401Y-132960747D01*
X155474107Y-132946132D01*
X155495150Y-132933520D01*
X155517329Y-132923030D01*
X155540428Y-132914765D01*
X155564227Y-132908804D01*
X155588495Y-132905204D01*
X155612999Y-132904000D01*
X156263001Y-132904000D01*
X156287505Y-132905204D01*
X156287505Y-132905204D01*
G37*
D12*
X155938000Y-133604000D03*
D11*
G36*
X73118505Y-126925204D02*
X73142773Y-126928804D01*
X73166572Y-126934765D01*
X73189671Y-126943030D01*
X73211850Y-126953520D01*
X73232893Y-126966132D01*
X73252599Y-126980747D01*
X73270777Y-126997223D01*
X73287253Y-127015401D01*
X73301868Y-127035107D01*
X73314480Y-127056150D01*
X73324970Y-127078329D01*
X73333235Y-127101428D01*
X73339196Y-127125227D01*
X73342796Y-127149495D01*
X73344000Y-127173999D01*
X73344000Y-127824001D01*
X73342796Y-127848505D01*
X73339196Y-127872773D01*
X73333235Y-127896572D01*
X73324970Y-127919671D01*
X73314480Y-127941850D01*
X73301868Y-127962893D01*
X73287253Y-127982599D01*
X73270777Y-128000777D01*
X73252599Y-128017253D01*
X73232893Y-128031868D01*
X73211850Y-128044480D01*
X73189671Y-128054970D01*
X73166572Y-128063235D01*
X73142773Y-128069196D01*
X73118505Y-128072796D01*
X73094001Y-128074000D01*
X72193999Y-128074000D01*
X72169495Y-128072796D01*
X72145227Y-128069196D01*
X72121428Y-128063235D01*
X72098329Y-128054970D01*
X72076150Y-128044480D01*
X72055107Y-128031868D01*
X72035401Y-128017253D01*
X72017223Y-128000777D01*
X72000747Y-127982599D01*
X71986132Y-127962893D01*
X71973520Y-127941850D01*
X71963030Y-127919671D01*
X71954765Y-127896572D01*
X71948804Y-127872773D01*
X71945204Y-127848505D01*
X71944000Y-127824001D01*
X71944000Y-127173999D01*
X71945204Y-127149495D01*
X71948804Y-127125227D01*
X71954765Y-127101428D01*
X71963030Y-127078329D01*
X71973520Y-127056150D01*
X71986132Y-127035107D01*
X72000747Y-127015401D01*
X72017223Y-126997223D01*
X72035401Y-126980747D01*
X72055107Y-126966132D01*
X72076150Y-126953520D01*
X72098329Y-126943030D01*
X72121428Y-126934765D01*
X72145227Y-126928804D01*
X72169495Y-126925204D01*
X72193999Y-126924000D01*
X73094001Y-126924000D01*
X73118505Y-126925204D01*
X73118505Y-126925204D01*
G37*
D12*
X72644000Y-127499000D03*
D11*
G36*
X73118505Y-128975204D02*
X73142773Y-128978804D01*
X73166572Y-128984765D01*
X73189671Y-128993030D01*
X73211850Y-129003520D01*
X73232893Y-129016132D01*
X73252599Y-129030747D01*
X73270777Y-129047223D01*
X73287253Y-129065401D01*
X73301868Y-129085107D01*
X73314480Y-129106150D01*
X73324970Y-129128329D01*
X73333235Y-129151428D01*
X73339196Y-129175227D01*
X73342796Y-129199495D01*
X73344000Y-129223999D01*
X73344000Y-129874001D01*
X73342796Y-129898505D01*
X73339196Y-129922773D01*
X73333235Y-129946572D01*
X73324970Y-129969671D01*
X73314480Y-129991850D01*
X73301868Y-130012893D01*
X73287253Y-130032599D01*
X73270777Y-130050777D01*
X73252599Y-130067253D01*
X73232893Y-130081868D01*
X73211850Y-130094480D01*
X73189671Y-130104970D01*
X73166572Y-130113235D01*
X73142773Y-130119196D01*
X73118505Y-130122796D01*
X73094001Y-130124000D01*
X72193999Y-130124000D01*
X72169495Y-130122796D01*
X72145227Y-130119196D01*
X72121428Y-130113235D01*
X72098329Y-130104970D01*
X72076150Y-130094480D01*
X72055107Y-130081868D01*
X72035401Y-130067253D01*
X72017223Y-130050777D01*
X72000747Y-130032599D01*
X71986132Y-130012893D01*
X71973520Y-129991850D01*
X71963030Y-129969671D01*
X71954765Y-129946572D01*
X71948804Y-129922773D01*
X71945204Y-129898505D01*
X71944000Y-129874001D01*
X71944000Y-129223999D01*
X71945204Y-129199495D01*
X71948804Y-129175227D01*
X71954765Y-129151428D01*
X71963030Y-129128329D01*
X71973520Y-129106150D01*
X71986132Y-129085107D01*
X72000747Y-129065401D01*
X72017223Y-129047223D01*
X72035401Y-129030747D01*
X72055107Y-129016132D01*
X72076150Y-129003520D01*
X72098329Y-128993030D01*
X72121428Y-128984765D01*
X72145227Y-128978804D01*
X72169495Y-128975204D01*
X72193999Y-128974000D01*
X73094001Y-128974000D01*
X73118505Y-128975204D01*
X73118505Y-128975204D01*
G37*
D12*
X72644000Y-129549000D03*
D11*
G36*
X89882505Y-127451204D02*
X89906773Y-127454804D01*
X89930572Y-127460765D01*
X89953671Y-127469030D01*
X89975850Y-127479520D01*
X89996893Y-127492132D01*
X90016599Y-127506747D01*
X90034777Y-127523223D01*
X90051253Y-127541401D01*
X90065868Y-127561107D01*
X90078480Y-127582150D01*
X90088970Y-127604329D01*
X90097235Y-127627428D01*
X90103196Y-127651227D01*
X90106796Y-127675495D01*
X90108000Y-127699999D01*
X90108000Y-128350001D01*
X90106796Y-128374505D01*
X90103196Y-128398773D01*
X90097235Y-128422572D01*
X90088970Y-128445671D01*
X90078480Y-128467850D01*
X90065868Y-128488893D01*
X90051253Y-128508599D01*
X90034777Y-128526777D01*
X90016599Y-128543253D01*
X89996893Y-128557868D01*
X89975850Y-128570480D01*
X89953671Y-128580970D01*
X89930572Y-128589235D01*
X89906773Y-128595196D01*
X89882505Y-128598796D01*
X89858001Y-128600000D01*
X88957999Y-128600000D01*
X88933495Y-128598796D01*
X88909227Y-128595196D01*
X88885428Y-128589235D01*
X88862329Y-128580970D01*
X88840150Y-128570480D01*
X88819107Y-128557868D01*
X88799401Y-128543253D01*
X88781223Y-128526777D01*
X88764747Y-128508599D01*
X88750132Y-128488893D01*
X88737520Y-128467850D01*
X88727030Y-128445671D01*
X88718765Y-128422572D01*
X88712804Y-128398773D01*
X88709204Y-128374505D01*
X88708000Y-128350001D01*
X88708000Y-127699999D01*
X88709204Y-127675495D01*
X88712804Y-127651227D01*
X88718765Y-127627428D01*
X88727030Y-127604329D01*
X88737520Y-127582150D01*
X88750132Y-127561107D01*
X88764747Y-127541401D01*
X88781223Y-127523223D01*
X88799401Y-127506747D01*
X88819107Y-127492132D01*
X88840150Y-127479520D01*
X88862329Y-127469030D01*
X88885428Y-127460765D01*
X88909227Y-127454804D01*
X88933495Y-127451204D01*
X88957999Y-127450000D01*
X89858001Y-127450000D01*
X89882505Y-127451204D01*
X89882505Y-127451204D01*
G37*
D12*
X89408000Y-128025000D03*
D11*
G36*
X89882505Y-125401204D02*
X89906773Y-125404804D01*
X89930572Y-125410765D01*
X89953671Y-125419030D01*
X89975850Y-125429520D01*
X89996893Y-125442132D01*
X90016599Y-125456747D01*
X90034777Y-125473223D01*
X90051253Y-125491401D01*
X90065868Y-125511107D01*
X90078480Y-125532150D01*
X90088970Y-125554329D01*
X90097235Y-125577428D01*
X90103196Y-125601227D01*
X90106796Y-125625495D01*
X90108000Y-125649999D01*
X90108000Y-126300001D01*
X90106796Y-126324505D01*
X90103196Y-126348773D01*
X90097235Y-126372572D01*
X90088970Y-126395671D01*
X90078480Y-126417850D01*
X90065868Y-126438893D01*
X90051253Y-126458599D01*
X90034777Y-126476777D01*
X90016599Y-126493253D01*
X89996893Y-126507868D01*
X89975850Y-126520480D01*
X89953671Y-126530970D01*
X89930572Y-126539235D01*
X89906773Y-126545196D01*
X89882505Y-126548796D01*
X89858001Y-126550000D01*
X88957999Y-126550000D01*
X88933495Y-126548796D01*
X88909227Y-126545196D01*
X88885428Y-126539235D01*
X88862329Y-126530970D01*
X88840150Y-126520480D01*
X88819107Y-126507868D01*
X88799401Y-126493253D01*
X88781223Y-126476777D01*
X88764747Y-126458599D01*
X88750132Y-126438893D01*
X88737520Y-126417850D01*
X88727030Y-126395671D01*
X88718765Y-126372572D01*
X88712804Y-126348773D01*
X88709204Y-126324505D01*
X88708000Y-126300001D01*
X88708000Y-125649999D01*
X88709204Y-125625495D01*
X88712804Y-125601227D01*
X88718765Y-125577428D01*
X88727030Y-125554329D01*
X88737520Y-125532150D01*
X88750132Y-125511107D01*
X88764747Y-125491401D01*
X88781223Y-125473223D01*
X88799401Y-125456747D01*
X88819107Y-125442132D01*
X88840150Y-125429520D01*
X88862329Y-125419030D01*
X88885428Y-125410765D01*
X88909227Y-125404804D01*
X88933495Y-125401204D01*
X88957999Y-125400000D01*
X89858001Y-125400000D01*
X89882505Y-125401204D01*
X89882505Y-125401204D01*
G37*
D12*
X89408000Y-125975000D03*
D11*
G36*
X143984505Y-150556204D02*
X144008773Y-150559804D01*
X144032572Y-150565765D01*
X144055671Y-150574030D01*
X144077850Y-150584520D01*
X144098893Y-150597132D01*
X144118599Y-150611747D01*
X144136777Y-150628223D01*
X144153253Y-150646401D01*
X144167868Y-150666107D01*
X144180480Y-150687150D01*
X144190970Y-150709329D01*
X144199235Y-150732428D01*
X144205196Y-150756227D01*
X144208796Y-150780495D01*
X144210000Y-150804999D01*
X144210000Y-151455001D01*
X144208796Y-151479505D01*
X144205196Y-151503773D01*
X144199235Y-151527572D01*
X144190970Y-151550671D01*
X144180480Y-151572850D01*
X144167868Y-151593893D01*
X144153253Y-151613599D01*
X144136777Y-151631777D01*
X144118599Y-151648253D01*
X144098893Y-151662868D01*
X144077850Y-151675480D01*
X144055671Y-151685970D01*
X144032572Y-151694235D01*
X144008773Y-151700196D01*
X143984505Y-151703796D01*
X143960001Y-151705000D01*
X143059999Y-151705000D01*
X143035495Y-151703796D01*
X143011227Y-151700196D01*
X142987428Y-151694235D01*
X142964329Y-151685970D01*
X142942150Y-151675480D01*
X142921107Y-151662868D01*
X142901401Y-151648253D01*
X142883223Y-151631777D01*
X142866747Y-151613599D01*
X142852132Y-151593893D01*
X142839520Y-151572850D01*
X142829030Y-151550671D01*
X142820765Y-151527572D01*
X142814804Y-151503773D01*
X142811204Y-151479505D01*
X142810000Y-151455001D01*
X142810000Y-150804999D01*
X142811204Y-150780495D01*
X142814804Y-150756227D01*
X142820765Y-150732428D01*
X142829030Y-150709329D01*
X142839520Y-150687150D01*
X142852132Y-150666107D01*
X142866747Y-150646401D01*
X142883223Y-150628223D01*
X142901401Y-150611747D01*
X142921107Y-150597132D01*
X142942150Y-150584520D01*
X142964329Y-150574030D01*
X142987428Y-150565765D01*
X143011227Y-150559804D01*
X143035495Y-150556204D01*
X143059999Y-150555000D01*
X143960001Y-150555000D01*
X143984505Y-150556204D01*
X143984505Y-150556204D01*
G37*
D12*
X143510000Y-151130000D03*
D11*
G36*
X143984505Y-148506204D02*
X144008773Y-148509804D01*
X144032572Y-148515765D01*
X144055671Y-148524030D01*
X144077850Y-148534520D01*
X144098893Y-148547132D01*
X144118599Y-148561747D01*
X144136777Y-148578223D01*
X144153253Y-148596401D01*
X144167868Y-148616107D01*
X144180480Y-148637150D01*
X144190970Y-148659329D01*
X144199235Y-148682428D01*
X144205196Y-148706227D01*
X144208796Y-148730495D01*
X144210000Y-148754999D01*
X144210000Y-149405001D01*
X144208796Y-149429505D01*
X144205196Y-149453773D01*
X144199235Y-149477572D01*
X144190970Y-149500671D01*
X144180480Y-149522850D01*
X144167868Y-149543893D01*
X144153253Y-149563599D01*
X144136777Y-149581777D01*
X144118599Y-149598253D01*
X144098893Y-149612868D01*
X144077850Y-149625480D01*
X144055671Y-149635970D01*
X144032572Y-149644235D01*
X144008773Y-149650196D01*
X143984505Y-149653796D01*
X143960001Y-149655000D01*
X143059999Y-149655000D01*
X143035495Y-149653796D01*
X143011227Y-149650196D01*
X142987428Y-149644235D01*
X142964329Y-149635970D01*
X142942150Y-149625480D01*
X142921107Y-149612868D01*
X142901401Y-149598253D01*
X142883223Y-149581777D01*
X142866747Y-149563599D01*
X142852132Y-149543893D01*
X142839520Y-149522850D01*
X142829030Y-149500671D01*
X142820765Y-149477572D01*
X142814804Y-149453773D01*
X142811204Y-149429505D01*
X142810000Y-149405001D01*
X142810000Y-148754999D01*
X142811204Y-148730495D01*
X142814804Y-148706227D01*
X142820765Y-148682428D01*
X142829030Y-148659329D01*
X142839520Y-148637150D01*
X142852132Y-148616107D01*
X142866747Y-148596401D01*
X142883223Y-148578223D01*
X142901401Y-148561747D01*
X142921107Y-148547132D01*
X142942150Y-148534520D01*
X142964329Y-148524030D01*
X142987428Y-148515765D01*
X143011227Y-148509804D01*
X143035495Y-148506204D01*
X143059999Y-148505000D01*
X143960001Y-148505000D01*
X143984505Y-148506204D01*
X143984505Y-148506204D01*
G37*
D12*
X143510000Y-149080000D03*
D11*
G36*
X123156505Y-148506204D02*
X123180773Y-148509804D01*
X123204572Y-148515765D01*
X123227671Y-148524030D01*
X123249850Y-148534520D01*
X123270893Y-148547132D01*
X123290599Y-148561747D01*
X123308777Y-148578223D01*
X123325253Y-148596401D01*
X123339868Y-148616107D01*
X123352480Y-148637150D01*
X123362970Y-148659329D01*
X123371235Y-148682428D01*
X123377196Y-148706227D01*
X123380796Y-148730495D01*
X123382000Y-148754999D01*
X123382000Y-149405001D01*
X123380796Y-149429505D01*
X123377196Y-149453773D01*
X123371235Y-149477572D01*
X123362970Y-149500671D01*
X123352480Y-149522850D01*
X123339868Y-149543893D01*
X123325253Y-149563599D01*
X123308777Y-149581777D01*
X123290599Y-149598253D01*
X123270893Y-149612868D01*
X123249850Y-149625480D01*
X123227671Y-149635970D01*
X123204572Y-149644235D01*
X123180773Y-149650196D01*
X123156505Y-149653796D01*
X123132001Y-149655000D01*
X122231999Y-149655000D01*
X122207495Y-149653796D01*
X122183227Y-149650196D01*
X122159428Y-149644235D01*
X122136329Y-149635970D01*
X122114150Y-149625480D01*
X122093107Y-149612868D01*
X122073401Y-149598253D01*
X122055223Y-149581777D01*
X122038747Y-149563599D01*
X122024132Y-149543893D01*
X122011520Y-149522850D01*
X122001030Y-149500671D01*
X121992765Y-149477572D01*
X121986804Y-149453773D01*
X121983204Y-149429505D01*
X121982000Y-149405001D01*
X121982000Y-148754999D01*
X121983204Y-148730495D01*
X121986804Y-148706227D01*
X121992765Y-148682428D01*
X122001030Y-148659329D01*
X122011520Y-148637150D01*
X122024132Y-148616107D01*
X122038747Y-148596401D01*
X122055223Y-148578223D01*
X122073401Y-148561747D01*
X122093107Y-148547132D01*
X122114150Y-148534520D01*
X122136329Y-148524030D01*
X122159428Y-148515765D01*
X122183227Y-148509804D01*
X122207495Y-148506204D01*
X122231999Y-148505000D01*
X123132001Y-148505000D01*
X123156505Y-148506204D01*
X123156505Y-148506204D01*
G37*
D12*
X122682000Y-149080000D03*
D11*
G36*
X123156505Y-150556204D02*
X123180773Y-150559804D01*
X123204572Y-150565765D01*
X123227671Y-150574030D01*
X123249850Y-150584520D01*
X123270893Y-150597132D01*
X123290599Y-150611747D01*
X123308777Y-150628223D01*
X123325253Y-150646401D01*
X123339868Y-150666107D01*
X123352480Y-150687150D01*
X123362970Y-150709329D01*
X123371235Y-150732428D01*
X123377196Y-150756227D01*
X123380796Y-150780495D01*
X123382000Y-150804999D01*
X123382000Y-151455001D01*
X123380796Y-151479505D01*
X123377196Y-151503773D01*
X123371235Y-151527572D01*
X123362970Y-151550671D01*
X123352480Y-151572850D01*
X123339868Y-151593893D01*
X123325253Y-151613599D01*
X123308777Y-151631777D01*
X123290599Y-151648253D01*
X123270893Y-151662868D01*
X123249850Y-151675480D01*
X123227671Y-151685970D01*
X123204572Y-151694235D01*
X123180773Y-151700196D01*
X123156505Y-151703796D01*
X123132001Y-151705000D01*
X122231999Y-151705000D01*
X122207495Y-151703796D01*
X122183227Y-151700196D01*
X122159428Y-151694235D01*
X122136329Y-151685970D01*
X122114150Y-151675480D01*
X122093107Y-151662868D01*
X122073401Y-151648253D01*
X122055223Y-151631777D01*
X122038747Y-151613599D01*
X122024132Y-151593893D01*
X122011520Y-151572850D01*
X122001030Y-151550671D01*
X121992765Y-151527572D01*
X121986804Y-151503773D01*
X121983204Y-151479505D01*
X121982000Y-151455001D01*
X121982000Y-150804999D01*
X121983204Y-150780495D01*
X121986804Y-150756227D01*
X121992765Y-150732428D01*
X122001030Y-150709329D01*
X122011520Y-150687150D01*
X122024132Y-150666107D01*
X122038747Y-150646401D01*
X122055223Y-150628223D01*
X122073401Y-150611747D01*
X122093107Y-150597132D01*
X122114150Y-150584520D01*
X122136329Y-150574030D01*
X122159428Y-150565765D01*
X122183227Y-150559804D01*
X122207495Y-150556204D01*
X122231999Y-150555000D01*
X123132001Y-150555000D01*
X123156505Y-150556204D01*
X123156505Y-150556204D01*
G37*
D12*
X122682000Y-151130000D03*
D11*
G36*
X106392505Y-150556204D02*
X106416773Y-150559804D01*
X106440572Y-150565765D01*
X106463671Y-150574030D01*
X106485850Y-150584520D01*
X106506893Y-150597132D01*
X106526599Y-150611747D01*
X106544777Y-150628223D01*
X106561253Y-150646401D01*
X106575868Y-150666107D01*
X106588480Y-150687150D01*
X106598970Y-150709329D01*
X106607235Y-150732428D01*
X106613196Y-150756227D01*
X106616796Y-150780495D01*
X106618000Y-150804999D01*
X106618000Y-151455001D01*
X106616796Y-151479505D01*
X106613196Y-151503773D01*
X106607235Y-151527572D01*
X106598970Y-151550671D01*
X106588480Y-151572850D01*
X106575868Y-151593893D01*
X106561253Y-151613599D01*
X106544777Y-151631777D01*
X106526599Y-151648253D01*
X106506893Y-151662868D01*
X106485850Y-151675480D01*
X106463671Y-151685970D01*
X106440572Y-151694235D01*
X106416773Y-151700196D01*
X106392505Y-151703796D01*
X106368001Y-151705000D01*
X105467999Y-151705000D01*
X105443495Y-151703796D01*
X105419227Y-151700196D01*
X105395428Y-151694235D01*
X105372329Y-151685970D01*
X105350150Y-151675480D01*
X105329107Y-151662868D01*
X105309401Y-151648253D01*
X105291223Y-151631777D01*
X105274747Y-151613599D01*
X105260132Y-151593893D01*
X105247520Y-151572850D01*
X105237030Y-151550671D01*
X105228765Y-151527572D01*
X105222804Y-151503773D01*
X105219204Y-151479505D01*
X105218000Y-151455001D01*
X105218000Y-150804999D01*
X105219204Y-150780495D01*
X105222804Y-150756227D01*
X105228765Y-150732428D01*
X105237030Y-150709329D01*
X105247520Y-150687150D01*
X105260132Y-150666107D01*
X105274747Y-150646401D01*
X105291223Y-150628223D01*
X105309401Y-150611747D01*
X105329107Y-150597132D01*
X105350150Y-150584520D01*
X105372329Y-150574030D01*
X105395428Y-150565765D01*
X105419227Y-150559804D01*
X105443495Y-150556204D01*
X105467999Y-150555000D01*
X106368001Y-150555000D01*
X106392505Y-150556204D01*
X106392505Y-150556204D01*
G37*
D12*
X105918000Y-151130000D03*
D11*
G36*
X106392505Y-148506204D02*
X106416773Y-148509804D01*
X106440572Y-148515765D01*
X106463671Y-148524030D01*
X106485850Y-148534520D01*
X106506893Y-148547132D01*
X106526599Y-148561747D01*
X106544777Y-148578223D01*
X106561253Y-148596401D01*
X106575868Y-148616107D01*
X106588480Y-148637150D01*
X106598970Y-148659329D01*
X106607235Y-148682428D01*
X106613196Y-148706227D01*
X106616796Y-148730495D01*
X106618000Y-148754999D01*
X106618000Y-149405001D01*
X106616796Y-149429505D01*
X106613196Y-149453773D01*
X106607235Y-149477572D01*
X106598970Y-149500671D01*
X106588480Y-149522850D01*
X106575868Y-149543893D01*
X106561253Y-149563599D01*
X106544777Y-149581777D01*
X106526599Y-149598253D01*
X106506893Y-149612868D01*
X106485850Y-149625480D01*
X106463671Y-149635970D01*
X106440572Y-149644235D01*
X106416773Y-149650196D01*
X106392505Y-149653796D01*
X106368001Y-149655000D01*
X105467999Y-149655000D01*
X105443495Y-149653796D01*
X105419227Y-149650196D01*
X105395428Y-149644235D01*
X105372329Y-149635970D01*
X105350150Y-149625480D01*
X105329107Y-149612868D01*
X105309401Y-149598253D01*
X105291223Y-149581777D01*
X105274747Y-149563599D01*
X105260132Y-149543893D01*
X105247520Y-149522850D01*
X105237030Y-149500671D01*
X105228765Y-149477572D01*
X105222804Y-149453773D01*
X105219204Y-149429505D01*
X105218000Y-149405001D01*
X105218000Y-148754999D01*
X105219204Y-148730495D01*
X105222804Y-148706227D01*
X105228765Y-148682428D01*
X105237030Y-148659329D01*
X105247520Y-148637150D01*
X105260132Y-148616107D01*
X105274747Y-148596401D01*
X105291223Y-148578223D01*
X105309401Y-148561747D01*
X105329107Y-148547132D01*
X105350150Y-148534520D01*
X105372329Y-148524030D01*
X105395428Y-148515765D01*
X105419227Y-148509804D01*
X105443495Y-148506204D01*
X105467999Y-148505000D01*
X106368001Y-148505000D01*
X106392505Y-148506204D01*
X106392505Y-148506204D01*
G37*
D12*
X105918000Y-149080000D03*
D11*
G36*
X73118505Y-124648204D02*
X73142773Y-124651804D01*
X73166572Y-124657765D01*
X73189671Y-124666030D01*
X73211850Y-124676520D01*
X73232893Y-124689132D01*
X73252599Y-124703747D01*
X73270777Y-124720223D01*
X73287253Y-124738401D01*
X73301868Y-124758107D01*
X73314480Y-124779150D01*
X73324970Y-124801329D01*
X73333235Y-124824428D01*
X73339196Y-124848227D01*
X73342796Y-124872495D01*
X73344000Y-124896999D01*
X73344000Y-125547001D01*
X73342796Y-125571505D01*
X73339196Y-125595773D01*
X73333235Y-125619572D01*
X73324970Y-125642671D01*
X73314480Y-125664850D01*
X73301868Y-125685893D01*
X73287253Y-125705599D01*
X73270777Y-125723777D01*
X73252599Y-125740253D01*
X73232893Y-125754868D01*
X73211850Y-125767480D01*
X73189671Y-125777970D01*
X73166572Y-125786235D01*
X73142773Y-125792196D01*
X73118505Y-125795796D01*
X73094001Y-125797000D01*
X72193999Y-125797000D01*
X72169495Y-125795796D01*
X72145227Y-125792196D01*
X72121428Y-125786235D01*
X72098329Y-125777970D01*
X72076150Y-125767480D01*
X72055107Y-125754868D01*
X72035401Y-125740253D01*
X72017223Y-125723777D01*
X72000747Y-125705599D01*
X71986132Y-125685893D01*
X71973520Y-125664850D01*
X71963030Y-125642671D01*
X71954765Y-125619572D01*
X71948804Y-125595773D01*
X71945204Y-125571505D01*
X71944000Y-125547001D01*
X71944000Y-124896999D01*
X71945204Y-124872495D01*
X71948804Y-124848227D01*
X71954765Y-124824428D01*
X71963030Y-124801329D01*
X71973520Y-124779150D01*
X71986132Y-124758107D01*
X72000747Y-124738401D01*
X72017223Y-124720223D01*
X72035401Y-124703747D01*
X72055107Y-124689132D01*
X72076150Y-124676520D01*
X72098329Y-124666030D01*
X72121428Y-124657765D01*
X72145227Y-124651804D01*
X72169495Y-124648204D01*
X72193999Y-124647000D01*
X73094001Y-124647000D01*
X73118505Y-124648204D01*
X73118505Y-124648204D01*
G37*
D12*
X72644000Y-125222000D03*
D11*
G36*
X73118505Y-122598204D02*
X73142773Y-122601804D01*
X73166572Y-122607765D01*
X73189671Y-122616030D01*
X73211850Y-122626520D01*
X73232893Y-122639132D01*
X73252599Y-122653747D01*
X73270777Y-122670223D01*
X73287253Y-122688401D01*
X73301868Y-122708107D01*
X73314480Y-122729150D01*
X73324970Y-122751329D01*
X73333235Y-122774428D01*
X73339196Y-122798227D01*
X73342796Y-122822495D01*
X73344000Y-122846999D01*
X73344000Y-123497001D01*
X73342796Y-123521505D01*
X73339196Y-123545773D01*
X73333235Y-123569572D01*
X73324970Y-123592671D01*
X73314480Y-123614850D01*
X73301868Y-123635893D01*
X73287253Y-123655599D01*
X73270777Y-123673777D01*
X73252599Y-123690253D01*
X73232893Y-123704868D01*
X73211850Y-123717480D01*
X73189671Y-123727970D01*
X73166572Y-123736235D01*
X73142773Y-123742196D01*
X73118505Y-123745796D01*
X73094001Y-123747000D01*
X72193999Y-123747000D01*
X72169495Y-123745796D01*
X72145227Y-123742196D01*
X72121428Y-123736235D01*
X72098329Y-123727970D01*
X72076150Y-123717480D01*
X72055107Y-123704868D01*
X72035401Y-123690253D01*
X72017223Y-123673777D01*
X72000747Y-123655599D01*
X71986132Y-123635893D01*
X71973520Y-123614850D01*
X71963030Y-123592671D01*
X71954765Y-123569572D01*
X71948804Y-123545773D01*
X71945204Y-123521505D01*
X71944000Y-123497001D01*
X71944000Y-122846999D01*
X71945204Y-122822495D01*
X71948804Y-122798227D01*
X71954765Y-122774428D01*
X71963030Y-122751329D01*
X71973520Y-122729150D01*
X71986132Y-122708107D01*
X72000747Y-122688401D01*
X72017223Y-122670223D01*
X72035401Y-122653747D01*
X72055107Y-122639132D01*
X72076150Y-122626520D01*
X72098329Y-122616030D01*
X72121428Y-122607765D01*
X72145227Y-122601804D01*
X72169495Y-122598204D01*
X72193999Y-122597000D01*
X73094001Y-122597000D01*
X73118505Y-122598204D01*
X73118505Y-122598204D01*
G37*
D12*
X72644000Y-123172000D03*
D11*
G36*
X87342505Y-107884204D02*
X87366773Y-107887804D01*
X87390572Y-107893765D01*
X87413671Y-107902030D01*
X87435850Y-107912520D01*
X87456893Y-107925132D01*
X87476599Y-107939747D01*
X87494777Y-107956223D01*
X87511253Y-107974401D01*
X87525868Y-107994107D01*
X87538480Y-108015150D01*
X87548970Y-108037329D01*
X87557235Y-108060428D01*
X87563196Y-108084227D01*
X87566796Y-108108495D01*
X87568000Y-108132999D01*
X87568000Y-108783001D01*
X87566796Y-108807505D01*
X87563196Y-108831773D01*
X87557235Y-108855572D01*
X87548970Y-108878671D01*
X87538480Y-108900850D01*
X87525868Y-108921893D01*
X87511253Y-108941599D01*
X87494777Y-108959777D01*
X87476599Y-108976253D01*
X87456893Y-108990868D01*
X87435850Y-109003480D01*
X87413671Y-109013970D01*
X87390572Y-109022235D01*
X87366773Y-109028196D01*
X87342505Y-109031796D01*
X87318001Y-109033000D01*
X86417999Y-109033000D01*
X86393495Y-109031796D01*
X86369227Y-109028196D01*
X86345428Y-109022235D01*
X86322329Y-109013970D01*
X86300150Y-109003480D01*
X86279107Y-108990868D01*
X86259401Y-108976253D01*
X86241223Y-108959777D01*
X86224747Y-108941599D01*
X86210132Y-108921893D01*
X86197520Y-108900850D01*
X86187030Y-108878671D01*
X86178765Y-108855572D01*
X86172804Y-108831773D01*
X86169204Y-108807505D01*
X86168000Y-108783001D01*
X86168000Y-108132999D01*
X86169204Y-108108495D01*
X86172804Y-108084227D01*
X86178765Y-108060428D01*
X86187030Y-108037329D01*
X86197520Y-108015150D01*
X86210132Y-107994107D01*
X86224747Y-107974401D01*
X86241223Y-107956223D01*
X86259401Y-107939747D01*
X86279107Y-107925132D01*
X86300150Y-107912520D01*
X86322329Y-107902030D01*
X86345428Y-107893765D01*
X86369227Y-107887804D01*
X86393495Y-107884204D01*
X86417999Y-107883000D01*
X87318001Y-107883000D01*
X87342505Y-107884204D01*
X87342505Y-107884204D01*
G37*
D12*
X86868000Y-108458000D03*
D11*
G36*
X87342505Y-109934204D02*
X87366773Y-109937804D01*
X87390572Y-109943765D01*
X87413671Y-109952030D01*
X87435850Y-109962520D01*
X87456893Y-109975132D01*
X87476599Y-109989747D01*
X87494777Y-110006223D01*
X87511253Y-110024401D01*
X87525868Y-110044107D01*
X87538480Y-110065150D01*
X87548970Y-110087329D01*
X87557235Y-110110428D01*
X87563196Y-110134227D01*
X87566796Y-110158495D01*
X87568000Y-110182999D01*
X87568000Y-110833001D01*
X87566796Y-110857505D01*
X87563196Y-110881773D01*
X87557235Y-110905572D01*
X87548970Y-110928671D01*
X87538480Y-110950850D01*
X87525868Y-110971893D01*
X87511253Y-110991599D01*
X87494777Y-111009777D01*
X87476599Y-111026253D01*
X87456893Y-111040868D01*
X87435850Y-111053480D01*
X87413671Y-111063970D01*
X87390572Y-111072235D01*
X87366773Y-111078196D01*
X87342505Y-111081796D01*
X87318001Y-111083000D01*
X86417999Y-111083000D01*
X86393495Y-111081796D01*
X86369227Y-111078196D01*
X86345428Y-111072235D01*
X86322329Y-111063970D01*
X86300150Y-111053480D01*
X86279107Y-111040868D01*
X86259401Y-111026253D01*
X86241223Y-111009777D01*
X86224747Y-110991599D01*
X86210132Y-110971893D01*
X86197520Y-110950850D01*
X86187030Y-110928671D01*
X86178765Y-110905572D01*
X86172804Y-110881773D01*
X86169204Y-110857505D01*
X86168000Y-110833001D01*
X86168000Y-110182999D01*
X86169204Y-110158495D01*
X86172804Y-110134227D01*
X86178765Y-110110428D01*
X86187030Y-110087329D01*
X86197520Y-110065150D01*
X86210132Y-110044107D01*
X86224747Y-110024401D01*
X86241223Y-110006223D01*
X86259401Y-109989747D01*
X86279107Y-109975132D01*
X86300150Y-109962520D01*
X86322329Y-109952030D01*
X86345428Y-109943765D01*
X86369227Y-109937804D01*
X86393495Y-109934204D01*
X86417999Y-109933000D01*
X87318001Y-109933000D01*
X87342505Y-109934204D01*
X87342505Y-109934204D01*
G37*
D12*
X86868000Y-110508000D03*
D11*
G36*
X123156505Y-136069204D02*
X123180773Y-136072804D01*
X123204572Y-136078765D01*
X123227671Y-136087030D01*
X123249850Y-136097520D01*
X123270893Y-136110132D01*
X123290599Y-136124747D01*
X123308777Y-136141223D01*
X123325253Y-136159401D01*
X123339868Y-136179107D01*
X123352480Y-136200150D01*
X123362970Y-136222329D01*
X123371235Y-136245428D01*
X123377196Y-136269227D01*
X123380796Y-136293495D01*
X123382000Y-136317999D01*
X123382000Y-136968001D01*
X123380796Y-136992505D01*
X123377196Y-137016773D01*
X123371235Y-137040572D01*
X123362970Y-137063671D01*
X123352480Y-137085850D01*
X123339868Y-137106893D01*
X123325253Y-137126599D01*
X123308777Y-137144777D01*
X123290599Y-137161253D01*
X123270893Y-137175868D01*
X123249850Y-137188480D01*
X123227671Y-137198970D01*
X123204572Y-137207235D01*
X123180773Y-137213196D01*
X123156505Y-137216796D01*
X123132001Y-137218000D01*
X122231999Y-137218000D01*
X122207495Y-137216796D01*
X122183227Y-137213196D01*
X122159428Y-137207235D01*
X122136329Y-137198970D01*
X122114150Y-137188480D01*
X122093107Y-137175868D01*
X122073401Y-137161253D01*
X122055223Y-137144777D01*
X122038747Y-137126599D01*
X122024132Y-137106893D01*
X122011520Y-137085850D01*
X122001030Y-137063671D01*
X121992765Y-137040572D01*
X121986804Y-137016773D01*
X121983204Y-136992505D01*
X121982000Y-136968001D01*
X121982000Y-136317999D01*
X121983204Y-136293495D01*
X121986804Y-136269227D01*
X121992765Y-136245428D01*
X122001030Y-136222329D01*
X122011520Y-136200150D01*
X122024132Y-136179107D01*
X122038747Y-136159401D01*
X122055223Y-136141223D01*
X122073401Y-136124747D01*
X122093107Y-136110132D01*
X122114150Y-136097520D01*
X122136329Y-136087030D01*
X122159428Y-136078765D01*
X122183227Y-136072804D01*
X122207495Y-136069204D01*
X122231999Y-136068000D01*
X123132001Y-136068000D01*
X123156505Y-136069204D01*
X123156505Y-136069204D01*
G37*
D12*
X122682000Y-136643000D03*
D11*
G36*
X123156505Y-138119204D02*
X123180773Y-138122804D01*
X123204572Y-138128765D01*
X123227671Y-138137030D01*
X123249850Y-138147520D01*
X123270893Y-138160132D01*
X123290599Y-138174747D01*
X123308777Y-138191223D01*
X123325253Y-138209401D01*
X123339868Y-138229107D01*
X123352480Y-138250150D01*
X123362970Y-138272329D01*
X123371235Y-138295428D01*
X123377196Y-138319227D01*
X123380796Y-138343495D01*
X123382000Y-138367999D01*
X123382000Y-139018001D01*
X123380796Y-139042505D01*
X123377196Y-139066773D01*
X123371235Y-139090572D01*
X123362970Y-139113671D01*
X123352480Y-139135850D01*
X123339868Y-139156893D01*
X123325253Y-139176599D01*
X123308777Y-139194777D01*
X123290599Y-139211253D01*
X123270893Y-139225868D01*
X123249850Y-139238480D01*
X123227671Y-139248970D01*
X123204572Y-139257235D01*
X123180773Y-139263196D01*
X123156505Y-139266796D01*
X123132001Y-139268000D01*
X122231999Y-139268000D01*
X122207495Y-139266796D01*
X122183227Y-139263196D01*
X122159428Y-139257235D01*
X122136329Y-139248970D01*
X122114150Y-139238480D01*
X122093107Y-139225868D01*
X122073401Y-139211253D01*
X122055223Y-139194777D01*
X122038747Y-139176599D01*
X122024132Y-139156893D01*
X122011520Y-139135850D01*
X122001030Y-139113671D01*
X121992765Y-139090572D01*
X121986804Y-139066773D01*
X121983204Y-139042505D01*
X121982000Y-139018001D01*
X121982000Y-138367999D01*
X121983204Y-138343495D01*
X121986804Y-138319227D01*
X121992765Y-138295428D01*
X122001030Y-138272329D01*
X122011520Y-138250150D01*
X122024132Y-138229107D01*
X122038747Y-138209401D01*
X122055223Y-138191223D01*
X122073401Y-138174747D01*
X122093107Y-138160132D01*
X122114150Y-138147520D01*
X122136329Y-138137030D01*
X122159428Y-138128765D01*
X122183227Y-138122804D01*
X122207495Y-138119204D01*
X122231999Y-138118000D01*
X123132001Y-138118000D01*
X123156505Y-138119204D01*
X123156505Y-138119204D01*
G37*
D12*
X122682000Y-138693000D03*
M02*
