G04 #@! TF.GenerationSoftware,KiCad,Pcbnew,5.1.9+dfsg1-1+deb11u1*
G04 #@! TF.CreationDate,2023-07-30T21:54:34+09:00*
G04 #@! TF.ProjectId,tablet-usb-adapter,7461626c-6574-42d7-9573-622d61646170,rev?*
G04 #@! TF.SameCoordinates,Original*
G04 #@! TF.FileFunction,Paste,Bot*
G04 #@! TF.FilePolarity,Positive*
%FSLAX46Y46*%
G04 Gerber Fmt 4.6, Leading zero omitted, Abs format (unit mm)*
G04 Created by KiCad (PCBNEW 5.1.9+dfsg1-1+deb11u1) date 2023-07-30 21:54:34*
%MOMM*%
%LPD*%
G01*
G04 APERTURE LIST*
%ADD10R,3.800000X2.000000*%
%ADD11R,1.500000X2.000000*%
%ADD12R,0.900000X1.200000*%
%ADD13R,0.650000X1.060000*%
G04 APERTURE END LIST*
G36*
G01*
X145100000Y-81049999D02*
X145100000Y-81950001D01*
G75*
G02*
X144850001Y-82200000I-249999J0D01*
G01*
X144149999Y-82200000D01*
G75*
G02*
X143900000Y-81950001I0J249999D01*
G01*
X143900000Y-81049999D01*
G75*
G02*
X144149999Y-80800000I249999J0D01*
G01*
X144850001Y-80800000D01*
G75*
G02*
X145100000Y-81049999I0J-249999D01*
G01*
G37*
G36*
G01*
X143100000Y-81049999D02*
X143100000Y-81950001D01*
G75*
G02*
X142850001Y-82200000I-249999J0D01*
G01*
X142149999Y-82200000D01*
G75*
G02*
X141900000Y-81950001I0J249999D01*
G01*
X141900000Y-81049999D01*
G75*
G02*
X142149999Y-80800000I249999J0D01*
G01*
X142850001Y-80800000D01*
G75*
G02*
X143100000Y-81049999I0J-249999D01*
G01*
G37*
G36*
G01*
X134162500Y-78725000D02*
X134162500Y-77775000D01*
G75*
G02*
X134412500Y-77525000I250000J0D01*
G01*
X135087500Y-77525000D01*
G75*
G02*
X135337500Y-77775000I0J-250000D01*
G01*
X135337500Y-78725000D01*
G75*
G02*
X135087500Y-78975000I-250000J0D01*
G01*
X134412500Y-78975000D01*
G75*
G02*
X134162500Y-78725000I0J250000D01*
G01*
G37*
G36*
G01*
X136237500Y-78725000D02*
X136237500Y-77775000D01*
G75*
G02*
X136487500Y-77525000I250000J0D01*
G01*
X137162500Y-77525000D01*
G75*
G02*
X137412500Y-77775000I0J-250000D01*
G01*
X137412500Y-78725000D01*
G75*
G02*
X137162500Y-78975000I-250000J0D01*
G01*
X136487500Y-78975000D01*
G75*
G02*
X136237500Y-78725000I0J250000D01*
G01*
G37*
D10*
X143500000Y-72500000D03*
D11*
X143500000Y-78800000D03*
X141200000Y-78800000D03*
X145800000Y-78800000D03*
G36*
G01*
X143100000Y-83049999D02*
X143100000Y-83950001D01*
G75*
G02*
X142850001Y-84200000I-249999J0D01*
G01*
X142149999Y-84200000D01*
G75*
G02*
X141900000Y-83950001I0J249999D01*
G01*
X141900000Y-83049999D01*
G75*
G02*
X142149999Y-82800000I249999J0D01*
G01*
X142850001Y-82800000D01*
G75*
G02*
X143100000Y-83049999I0J-249999D01*
G01*
G37*
G36*
G01*
X145100000Y-83049999D02*
X145100000Y-83950001D01*
G75*
G02*
X144850001Y-84200000I-249999J0D01*
G01*
X144149999Y-84200000D01*
G75*
G02*
X143900000Y-83950001I0J249999D01*
G01*
X143900000Y-83049999D01*
G75*
G02*
X144149999Y-82800000I249999J0D01*
G01*
X144850001Y-82800000D01*
G75*
G02*
X145100000Y-83049999I0J-249999D01*
G01*
G37*
D12*
X129200000Y-78250000D03*
X132500000Y-78250000D03*
D13*
X119450000Y-77600000D03*
X118500000Y-77600000D03*
X117550000Y-77600000D03*
X117550000Y-75400000D03*
X119450000Y-75400000D03*
M02*
