M48
; DRILL file {KiCad 5.1.9+dfsg1-1+deb11u1} date Sun Jul 30 21:54:36 2023
; FORMAT={-:-/ absolute / metric / decimal}
; #@! TF.CreationDate,2023-07-30T21:54:36+09:00
; #@! TF.GenerationSoftware,Kicad,Pcbnew,5.1.9+dfsg1-1+deb11u1
; #@! TF.FileFunction,Plated,1,2,PTH
FMAT,2
METRIC
T1C0.400
T2C0.500
T3C0.700
T4C0.762
T5C0.800
T6C0.920
T7C0.950
T8C1.000
T9C1.100
T10C2.300
T11C3.200
%
G90
G05
T1
X108.5Y-83.5
X111.0Y-83.5
X113.5Y-83.5
X116.0Y-83.5
X119.45Y-77.6
X123.0Y-84.0
T2
X106.75Y-66.75
X111.75Y-66.75
T3
X108.25Y-71.0
X108.25Y-75.5
X110.25Y-71.0
X110.25Y-75.5
T4
X122.92Y-81.5
X122.92Y-86.58
X128.0Y-81.5
X128.0Y-89.12
T5
X131.0Y-81.38
X131.0Y-83.92
X131.0Y-86.46
X131.0Y-89.0
X138.62Y-81.38
X138.62Y-83.92
X138.62Y-86.46
X138.62Y-89.0
T6
X127.93Y-70.21
X130.43Y-70.21
X132.43Y-70.21
X134.93Y-70.21
T7
X106.0Y-81.5
X108.5Y-81.5
X111.0Y-81.5
X113.5Y-81.5
X116.0Y-81.5
X118.5Y-81.5
T8
X98.5Y-74.0
X98.5Y-76.54
X98.5Y-79.08
X98.5Y-81.62
T9
X105.65Y-69.15
X112.85Y-69.15
T10
X124.86Y-67.5
X138.0Y-67.5
T11
X99.5Y-67.5
X99.5Y-88.0
X119.0Y-67.5
X144.0Y-67.5
X144.0Y-88.0
T0
M30
