G04 #@! TF.GenerationSoftware,KiCad,Pcbnew,5.1.9+dfsg1-1*
G04 #@! TF.CreationDate,2023-03-08T16:00:21+09:00*
G04 #@! TF.ProjectId,audio-io-breakout-pajeromini,61756469-6f2d-4696-9f2d-627265616b6f,rev?*
G04 #@! TF.SameCoordinates,Original*
G04 #@! TF.FileFunction,Soldermask,Bot*
G04 #@! TF.FilePolarity,Negative*
%FSLAX46Y46*%
G04 Gerber Fmt 4.6, Leading zero omitted, Abs format (unit mm)*
G04 Created by KiCad (PCBNEW 5.1.9+dfsg1-1) date 2023-03-08 16:00:21*
%MOMM*%
%LPD*%
G01*
G04 APERTURE LIST*
%ADD10C,5.700000*%
%ADD11C,1.524000*%
%ADD12C,0.100000*%
%ADD13O,1.700000X1.950000*%
G04 APERTURE END LIST*
D10*
X88750000Y-77500000D03*
X112000000Y-77500000D03*
D11*
X107315000Y-85852000D03*
X104775000Y-85852000D03*
X102235000Y-85852000D03*
X99695000Y-85852000D03*
X97155000Y-85852000D03*
X94615000Y-85852000D03*
X106045000Y-88392000D03*
X103505000Y-88392000D03*
X100965000Y-88392000D03*
X98425000Y-88392000D03*
X95885000Y-88392000D03*
X93345000Y-88392000D03*
D12*
G36*
X102250000Y-82500000D02*
G01*
X102250000Y-82000000D01*
X102250602Y-82000000D01*
X102250602Y-81975466D01*
X102255412Y-81926635D01*
X102264984Y-81878510D01*
X102279228Y-81831555D01*
X102298005Y-81786222D01*
X102321136Y-81742949D01*
X102348396Y-81702150D01*
X102379524Y-81664221D01*
X102414221Y-81629524D01*
X102452150Y-81598396D01*
X102492949Y-81571136D01*
X102536222Y-81548005D01*
X102581555Y-81529228D01*
X102628510Y-81514984D01*
X102676635Y-81505412D01*
X102725466Y-81500602D01*
X102750000Y-81500602D01*
X102750000Y-81500000D01*
X103250000Y-81500000D01*
X103250000Y-81500602D01*
X103274534Y-81500602D01*
X103323365Y-81505412D01*
X103371490Y-81514984D01*
X103418445Y-81529228D01*
X103463778Y-81548005D01*
X103507051Y-81571136D01*
X103547850Y-81598396D01*
X103585779Y-81629524D01*
X103620476Y-81664221D01*
X103651604Y-81702150D01*
X103678864Y-81742949D01*
X103701995Y-81786222D01*
X103720772Y-81831555D01*
X103735016Y-81878510D01*
X103744588Y-81926635D01*
X103749398Y-81975466D01*
X103749398Y-82000000D01*
X103750000Y-82000000D01*
X103750000Y-82500000D01*
X102250000Y-82500000D01*
G37*
G36*
X103749398Y-83300000D02*
G01*
X103749398Y-83324534D01*
X103744588Y-83373365D01*
X103735016Y-83421490D01*
X103720772Y-83468445D01*
X103701995Y-83513778D01*
X103678864Y-83557051D01*
X103651604Y-83597850D01*
X103620476Y-83635779D01*
X103585779Y-83670476D01*
X103547850Y-83701604D01*
X103507051Y-83728864D01*
X103463778Y-83751995D01*
X103418445Y-83770772D01*
X103371490Y-83785016D01*
X103323365Y-83794588D01*
X103274534Y-83799398D01*
X103250000Y-83799398D01*
X103250000Y-83800000D01*
X102750000Y-83800000D01*
X102750000Y-83799398D01*
X102725466Y-83799398D01*
X102676635Y-83794588D01*
X102628510Y-83785016D01*
X102581555Y-83770772D01*
X102536222Y-83751995D01*
X102492949Y-83728864D01*
X102452150Y-83701604D01*
X102414221Y-83670476D01*
X102379524Y-83635779D01*
X102348396Y-83597850D01*
X102321136Y-83557051D01*
X102298005Y-83513778D01*
X102279228Y-83468445D01*
X102264984Y-83421490D01*
X102255412Y-83373365D01*
X102250602Y-83324534D01*
X102250602Y-83300000D01*
X102250000Y-83300000D01*
X102250000Y-82800000D01*
X103750000Y-82800000D01*
X103750000Y-83300000D01*
X103749398Y-83300000D01*
G37*
G36*
X100999398Y-83300000D02*
G01*
X100999398Y-83324534D01*
X100994588Y-83373365D01*
X100985016Y-83421490D01*
X100970772Y-83468445D01*
X100951995Y-83513778D01*
X100928864Y-83557051D01*
X100901604Y-83597850D01*
X100870476Y-83635779D01*
X100835779Y-83670476D01*
X100797850Y-83701604D01*
X100757051Y-83728864D01*
X100713778Y-83751995D01*
X100668445Y-83770772D01*
X100621490Y-83785016D01*
X100573365Y-83794588D01*
X100524534Y-83799398D01*
X100500000Y-83799398D01*
X100500000Y-83800000D01*
X100000000Y-83800000D01*
X100000000Y-83799398D01*
X99975466Y-83799398D01*
X99926635Y-83794588D01*
X99878510Y-83785016D01*
X99831555Y-83770772D01*
X99786222Y-83751995D01*
X99742949Y-83728864D01*
X99702150Y-83701604D01*
X99664221Y-83670476D01*
X99629524Y-83635779D01*
X99598396Y-83597850D01*
X99571136Y-83557051D01*
X99548005Y-83513778D01*
X99529228Y-83468445D01*
X99514984Y-83421490D01*
X99505412Y-83373365D01*
X99500602Y-83324534D01*
X99500602Y-83300000D01*
X99500000Y-83300000D01*
X99500000Y-82800000D01*
X101000000Y-82800000D01*
X101000000Y-83300000D01*
X100999398Y-83300000D01*
G37*
G36*
X99500000Y-82500000D02*
G01*
X99500000Y-82000000D01*
X99500602Y-82000000D01*
X99500602Y-81975466D01*
X99505412Y-81926635D01*
X99514984Y-81878510D01*
X99529228Y-81831555D01*
X99548005Y-81786222D01*
X99571136Y-81742949D01*
X99598396Y-81702150D01*
X99629524Y-81664221D01*
X99664221Y-81629524D01*
X99702150Y-81598396D01*
X99742949Y-81571136D01*
X99786222Y-81548005D01*
X99831555Y-81529228D01*
X99878510Y-81514984D01*
X99926635Y-81505412D01*
X99975466Y-81500602D01*
X100000000Y-81500602D01*
X100000000Y-81500000D01*
X100500000Y-81500000D01*
X100500000Y-81500602D01*
X100524534Y-81500602D01*
X100573365Y-81505412D01*
X100621490Y-81514984D01*
X100668445Y-81529228D01*
X100713778Y-81548005D01*
X100757051Y-81571136D01*
X100797850Y-81598396D01*
X100835779Y-81629524D01*
X100870476Y-81664221D01*
X100901604Y-81702150D01*
X100928864Y-81742949D01*
X100951995Y-81786222D01*
X100970772Y-81831555D01*
X100985016Y-81878510D01*
X100994588Y-81926635D01*
X100999398Y-81975466D01*
X100999398Y-82000000D01*
X101000000Y-82000000D01*
X101000000Y-82500000D01*
X99500000Y-82500000D01*
G37*
G36*
X91250000Y-82500000D02*
G01*
X91250000Y-82000000D01*
X91250602Y-82000000D01*
X91250602Y-81975466D01*
X91255412Y-81926635D01*
X91264984Y-81878510D01*
X91279228Y-81831555D01*
X91298005Y-81786222D01*
X91321136Y-81742949D01*
X91348396Y-81702150D01*
X91379524Y-81664221D01*
X91414221Y-81629524D01*
X91452150Y-81598396D01*
X91492949Y-81571136D01*
X91536222Y-81548005D01*
X91581555Y-81529228D01*
X91628510Y-81514984D01*
X91676635Y-81505412D01*
X91725466Y-81500602D01*
X91750000Y-81500602D01*
X91750000Y-81500000D01*
X92250000Y-81500000D01*
X92250000Y-81500602D01*
X92274534Y-81500602D01*
X92323365Y-81505412D01*
X92371490Y-81514984D01*
X92418445Y-81529228D01*
X92463778Y-81548005D01*
X92507051Y-81571136D01*
X92547850Y-81598396D01*
X92585779Y-81629524D01*
X92620476Y-81664221D01*
X92651604Y-81702150D01*
X92678864Y-81742949D01*
X92701995Y-81786222D01*
X92720772Y-81831555D01*
X92735016Y-81878510D01*
X92744588Y-81926635D01*
X92749398Y-81975466D01*
X92749398Y-82000000D01*
X92750000Y-82000000D01*
X92750000Y-82500000D01*
X91250000Y-82500000D01*
G37*
G36*
X92749398Y-83300000D02*
G01*
X92749398Y-83324534D01*
X92744588Y-83373365D01*
X92735016Y-83421490D01*
X92720772Y-83468445D01*
X92701995Y-83513778D01*
X92678864Y-83557051D01*
X92651604Y-83597850D01*
X92620476Y-83635779D01*
X92585779Y-83670476D01*
X92547850Y-83701604D01*
X92507051Y-83728864D01*
X92463778Y-83751995D01*
X92418445Y-83770772D01*
X92371490Y-83785016D01*
X92323365Y-83794588D01*
X92274534Y-83799398D01*
X92250000Y-83799398D01*
X92250000Y-83800000D01*
X91750000Y-83800000D01*
X91750000Y-83799398D01*
X91725466Y-83799398D01*
X91676635Y-83794588D01*
X91628510Y-83785016D01*
X91581555Y-83770772D01*
X91536222Y-83751995D01*
X91492949Y-83728864D01*
X91452150Y-83701604D01*
X91414221Y-83670476D01*
X91379524Y-83635779D01*
X91348396Y-83597850D01*
X91321136Y-83557051D01*
X91298005Y-83513778D01*
X91279228Y-83468445D01*
X91264984Y-83421490D01*
X91255412Y-83373365D01*
X91250602Y-83324534D01*
X91250602Y-83300000D01*
X91250000Y-83300000D01*
X91250000Y-82800000D01*
X92750000Y-82800000D01*
X92750000Y-83300000D01*
X92749398Y-83300000D01*
G37*
G36*
X98249398Y-83300000D02*
G01*
X98249398Y-83324534D01*
X98244588Y-83373365D01*
X98235016Y-83421490D01*
X98220772Y-83468445D01*
X98201995Y-83513778D01*
X98178864Y-83557051D01*
X98151604Y-83597850D01*
X98120476Y-83635779D01*
X98085779Y-83670476D01*
X98047850Y-83701604D01*
X98007051Y-83728864D01*
X97963778Y-83751995D01*
X97918445Y-83770772D01*
X97871490Y-83785016D01*
X97823365Y-83794588D01*
X97774534Y-83799398D01*
X97750000Y-83799398D01*
X97750000Y-83800000D01*
X97250000Y-83800000D01*
X97250000Y-83799398D01*
X97225466Y-83799398D01*
X97176635Y-83794588D01*
X97128510Y-83785016D01*
X97081555Y-83770772D01*
X97036222Y-83751995D01*
X96992949Y-83728864D01*
X96952150Y-83701604D01*
X96914221Y-83670476D01*
X96879524Y-83635779D01*
X96848396Y-83597850D01*
X96821136Y-83557051D01*
X96798005Y-83513778D01*
X96779228Y-83468445D01*
X96764984Y-83421490D01*
X96755412Y-83373365D01*
X96750602Y-83324534D01*
X96750602Y-83300000D01*
X96750000Y-83300000D01*
X96750000Y-82800000D01*
X98250000Y-82800000D01*
X98250000Y-83300000D01*
X98249398Y-83300000D01*
G37*
G36*
X96750000Y-82500000D02*
G01*
X96750000Y-82000000D01*
X96750602Y-82000000D01*
X96750602Y-81975466D01*
X96755412Y-81926635D01*
X96764984Y-81878510D01*
X96779228Y-81831555D01*
X96798005Y-81786222D01*
X96821136Y-81742949D01*
X96848396Y-81702150D01*
X96879524Y-81664221D01*
X96914221Y-81629524D01*
X96952150Y-81598396D01*
X96992949Y-81571136D01*
X97036222Y-81548005D01*
X97081555Y-81529228D01*
X97128510Y-81514984D01*
X97176635Y-81505412D01*
X97225466Y-81500602D01*
X97250000Y-81500602D01*
X97250000Y-81500000D01*
X97750000Y-81500000D01*
X97750000Y-81500602D01*
X97774534Y-81500602D01*
X97823365Y-81505412D01*
X97871490Y-81514984D01*
X97918445Y-81529228D01*
X97963778Y-81548005D01*
X98007051Y-81571136D01*
X98047850Y-81598396D01*
X98085779Y-81629524D01*
X98120476Y-81664221D01*
X98151604Y-81702150D01*
X98178864Y-81742949D01*
X98201995Y-81786222D01*
X98220772Y-81831555D01*
X98235016Y-81878510D01*
X98244588Y-81926635D01*
X98249398Y-81975466D01*
X98249398Y-82000000D01*
X98250000Y-82000000D01*
X98250000Y-82500000D01*
X96750000Y-82500000D01*
G37*
G36*
X95500000Y-82800000D02*
G01*
X95500000Y-83300000D01*
X95499398Y-83300000D01*
X95499398Y-83324534D01*
X95494588Y-83373365D01*
X95485016Y-83421490D01*
X95470772Y-83468445D01*
X95451995Y-83513778D01*
X95428864Y-83557051D01*
X95401604Y-83597850D01*
X95370476Y-83635779D01*
X95335779Y-83670476D01*
X95297850Y-83701604D01*
X95257051Y-83728864D01*
X95213778Y-83751995D01*
X95168445Y-83770772D01*
X95121490Y-83785016D01*
X95073365Y-83794588D01*
X95024534Y-83799398D01*
X95000000Y-83799398D01*
X95000000Y-83800000D01*
X94500000Y-83800000D01*
X94500000Y-83799398D01*
X94475466Y-83799398D01*
X94426635Y-83794588D01*
X94378510Y-83785016D01*
X94331555Y-83770772D01*
X94286222Y-83751995D01*
X94242949Y-83728864D01*
X94202150Y-83701604D01*
X94164221Y-83670476D01*
X94129524Y-83635779D01*
X94098396Y-83597850D01*
X94071136Y-83557051D01*
X94048005Y-83513778D01*
X94029228Y-83468445D01*
X94014984Y-83421490D01*
X94005412Y-83373365D01*
X94000602Y-83324534D01*
X94000602Y-83300000D01*
X94000000Y-83300000D01*
X94000000Y-82800000D01*
X95500000Y-82800000D01*
G37*
G36*
X94000602Y-82000000D02*
G01*
X94000602Y-81975466D01*
X94005412Y-81926635D01*
X94014984Y-81878510D01*
X94029228Y-81831555D01*
X94048005Y-81786222D01*
X94071136Y-81742949D01*
X94098396Y-81702150D01*
X94129524Y-81664221D01*
X94164221Y-81629524D01*
X94202150Y-81598396D01*
X94242949Y-81571136D01*
X94286222Y-81548005D01*
X94331555Y-81529228D01*
X94378510Y-81514984D01*
X94426635Y-81505412D01*
X94475466Y-81500602D01*
X94500000Y-81500602D01*
X94500000Y-81500000D01*
X95000000Y-81500000D01*
X95000000Y-81500602D01*
X95024534Y-81500602D01*
X95073365Y-81505412D01*
X95121490Y-81514984D01*
X95168445Y-81529228D01*
X95213778Y-81548005D01*
X95257051Y-81571136D01*
X95297850Y-81598396D01*
X95335779Y-81629524D01*
X95370476Y-81664221D01*
X95401604Y-81702150D01*
X95428864Y-81742949D01*
X95451995Y-81786222D01*
X95470772Y-81831555D01*
X95485016Y-81878510D01*
X95494588Y-81926635D01*
X95499398Y-81975466D01*
X95499398Y-82000000D01*
X95500000Y-82000000D01*
X95500000Y-82500000D01*
X94000000Y-82500000D01*
X94000000Y-82000000D01*
X94000602Y-82000000D01*
G37*
G36*
X106500000Y-82800000D02*
G01*
X106500000Y-83300000D01*
X106499398Y-83300000D01*
X106499398Y-83324534D01*
X106494588Y-83373365D01*
X106485016Y-83421490D01*
X106470772Y-83468445D01*
X106451995Y-83513778D01*
X106428864Y-83557051D01*
X106401604Y-83597850D01*
X106370476Y-83635779D01*
X106335779Y-83670476D01*
X106297850Y-83701604D01*
X106257051Y-83728864D01*
X106213778Y-83751995D01*
X106168445Y-83770772D01*
X106121490Y-83785016D01*
X106073365Y-83794588D01*
X106024534Y-83799398D01*
X106000000Y-83799398D01*
X106000000Y-83800000D01*
X105500000Y-83800000D01*
X105500000Y-83799398D01*
X105475466Y-83799398D01*
X105426635Y-83794588D01*
X105378510Y-83785016D01*
X105331555Y-83770772D01*
X105286222Y-83751995D01*
X105242949Y-83728864D01*
X105202150Y-83701604D01*
X105164221Y-83670476D01*
X105129524Y-83635779D01*
X105098396Y-83597850D01*
X105071136Y-83557051D01*
X105048005Y-83513778D01*
X105029228Y-83468445D01*
X105014984Y-83421490D01*
X105005412Y-83373365D01*
X105000602Y-83324534D01*
X105000602Y-83300000D01*
X105000000Y-83300000D01*
X105000000Y-82800000D01*
X106500000Y-82800000D01*
G37*
G36*
X105000602Y-82000000D02*
G01*
X105000602Y-81975466D01*
X105005412Y-81926635D01*
X105014984Y-81878510D01*
X105029228Y-81831555D01*
X105048005Y-81786222D01*
X105071136Y-81742949D01*
X105098396Y-81702150D01*
X105129524Y-81664221D01*
X105164221Y-81629524D01*
X105202150Y-81598396D01*
X105242949Y-81571136D01*
X105286222Y-81548005D01*
X105331555Y-81529228D01*
X105378510Y-81514984D01*
X105426635Y-81505412D01*
X105475466Y-81500602D01*
X105500000Y-81500602D01*
X105500000Y-81500000D01*
X106000000Y-81500000D01*
X106000000Y-81500602D01*
X106024534Y-81500602D01*
X106073365Y-81505412D01*
X106121490Y-81514984D01*
X106168445Y-81529228D01*
X106213778Y-81548005D01*
X106257051Y-81571136D01*
X106297850Y-81598396D01*
X106335779Y-81629524D01*
X106370476Y-81664221D01*
X106401604Y-81702150D01*
X106428864Y-81742949D01*
X106451995Y-81786222D01*
X106470772Y-81831555D01*
X106485016Y-81878510D01*
X106494588Y-81926635D01*
X106499398Y-81975466D01*
X106499398Y-82000000D01*
X106500000Y-82000000D01*
X106500000Y-82500000D01*
X105000000Y-82500000D01*
X105000000Y-82000000D01*
X105000602Y-82000000D01*
G37*
G36*
G01*
X105100000Y-78025000D02*
X105100000Y-79475000D01*
G75*
G02*
X104850000Y-79725000I-250000J0D01*
G01*
X103650000Y-79725000D01*
G75*
G02*
X103400000Y-79475000I0J250000D01*
G01*
X103400000Y-78025000D01*
G75*
G02*
X103650000Y-77775000I250000J0D01*
G01*
X104850000Y-77775000D01*
G75*
G02*
X105100000Y-78025000I0J-250000D01*
G01*
G37*
D13*
X101750000Y-78750000D03*
X99250000Y-78750000D03*
X96750000Y-78750000D03*
D12*
G36*
X109250000Y-82800000D02*
G01*
X109250000Y-83300000D01*
X109249398Y-83300000D01*
X109249398Y-83324534D01*
X109244588Y-83373365D01*
X109235016Y-83421490D01*
X109220772Y-83468445D01*
X109201995Y-83513778D01*
X109178864Y-83557051D01*
X109151604Y-83597850D01*
X109120476Y-83635779D01*
X109085779Y-83670476D01*
X109047850Y-83701604D01*
X109007051Y-83728864D01*
X108963778Y-83751995D01*
X108918445Y-83770772D01*
X108871490Y-83785016D01*
X108823365Y-83794588D01*
X108774534Y-83799398D01*
X108750000Y-83799398D01*
X108750000Y-83800000D01*
X108250000Y-83800000D01*
X108250000Y-83799398D01*
X108225466Y-83799398D01*
X108176635Y-83794588D01*
X108128510Y-83785016D01*
X108081555Y-83770772D01*
X108036222Y-83751995D01*
X107992949Y-83728864D01*
X107952150Y-83701604D01*
X107914221Y-83670476D01*
X107879524Y-83635779D01*
X107848396Y-83597850D01*
X107821136Y-83557051D01*
X107798005Y-83513778D01*
X107779228Y-83468445D01*
X107764984Y-83421490D01*
X107755412Y-83373365D01*
X107750602Y-83324534D01*
X107750602Y-83300000D01*
X107750000Y-83300000D01*
X107750000Y-82800000D01*
X109250000Y-82800000D01*
G37*
G36*
X107750602Y-82000000D02*
G01*
X107750602Y-81975466D01*
X107755412Y-81926635D01*
X107764984Y-81878510D01*
X107779228Y-81831555D01*
X107798005Y-81786222D01*
X107821136Y-81742949D01*
X107848396Y-81702150D01*
X107879524Y-81664221D01*
X107914221Y-81629524D01*
X107952150Y-81598396D01*
X107992949Y-81571136D01*
X108036222Y-81548005D01*
X108081555Y-81529228D01*
X108128510Y-81514984D01*
X108176635Y-81505412D01*
X108225466Y-81500602D01*
X108250000Y-81500602D01*
X108250000Y-81500000D01*
X108750000Y-81500000D01*
X108750000Y-81500602D01*
X108774534Y-81500602D01*
X108823365Y-81505412D01*
X108871490Y-81514984D01*
X108918445Y-81529228D01*
X108963778Y-81548005D01*
X109007051Y-81571136D01*
X109047850Y-81598396D01*
X109085779Y-81629524D01*
X109120476Y-81664221D01*
X109151604Y-81702150D01*
X109178864Y-81742949D01*
X109201995Y-81786222D01*
X109220772Y-81831555D01*
X109235016Y-81878510D01*
X109244588Y-81926635D01*
X109249398Y-81975466D01*
X109249398Y-82000000D01*
X109250000Y-82000000D01*
X109250000Y-82500000D01*
X107750000Y-82500000D01*
X107750000Y-82000000D01*
X107750602Y-82000000D01*
G37*
M02*
