G04 #@! TF.GenerationSoftware,KiCad,Pcbnew,5.1.9+dfsg1-1*
G04 #@! TF.CreationDate,2023-03-08T16:00:21+09:00*
G04 #@! TF.ProjectId,audio-io-breakout-pajeromini,61756469-6f2d-4696-9f2d-627265616b6f,rev?*
G04 #@! TF.SameCoordinates,Original*
G04 #@! TF.FileFunction,Copper,L2,Bot*
G04 #@! TF.FilePolarity,Positive*
%FSLAX46Y46*%
G04 Gerber Fmt 4.6, Leading zero omitted, Abs format (unit mm)*
G04 Created by KiCad (PCBNEW 5.1.9+dfsg1-1) date 2023-03-08 16:00:21*
%MOMM*%
%LPD*%
G01*
G04 APERTURE LIST*
G04 #@! TA.AperFunction,ComponentPad*
%ADD10C,5.700000*%
G04 #@! TD*
G04 #@! TA.AperFunction,ComponentPad*
%ADD11C,1.524000*%
G04 #@! TD*
G04 #@! TA.AperFunction,SMDPad,CuDef*
%ADD12C,0.100000*%
G04 #@! TD*
G04 #@! TA.AperFunction,ComponentPad*
%ADD13O,1.700000X1.950000*%
G04 #@! TD*
G04 #@! TA.AperFunction,ViaPad*
%ADD14C,0.800000*%
G04 #@! TD*
G04 #@! TA.AperFunction,Conductor*
%ADD15C,0.250000*%
G04 #@! TD*
G04 #@! TA.AperFunction,Conductor*
%ADD16C,0.254000*%
G04 #@! TD*
G04 #@! TA.AperFunction,Conductor*
%ADD17C,0.100000*%
G04 #@! TD*
G04 APERTURE END LIST*
D10*
X88750000Y-77500000D03*
X112000000Y-77500000D03*
D11*
X107315000Y-85852000D03*
X104775000Y-85852000D03*
X102235000Y-85852000D03*
X99695000Y-85852000D03*
X97155000Y-85852000D03*
X94615000Y-85852000D03*
X106045000Y-88392000D03*
X103505000Y-88392000D03*
X100965000Y-88392000D03*
X98425000Y-88392000D03*
X95885000Y-88392000D03*
X93345000Y-88392000D03*
G04 #@! TA.AperFunction,SMDPad,CuDef*
D12*
G36*
X102250000Y-82500000D02*
G01*
X102250000Y-82000000D01*
X102250602Y-82000000D01*
X102250602Y-81975466D01*
X102255412Y-81926635D01*
X102264984Y-81878510D01*
X102279228Y-81831555D01*
X102298005Y-81786222D01*
X102321136Y-81742949D01*
X102348396Y-81702150D01*
X102379524Y-81664221D01*
X102414221Y-81629524D01*
X102452150Y-81598396D01*
X102492949Y-81571136D01*
X102536222Y-81548005D01*
X102581555Y-81529228D01*
X102628510Y-81514984D01*
X102676635Y-81505412D01*
X102725466Y-81500602D01*
X102750000Y-81500602D01*
X102750000Y-81500000D01*
X103250000Y-81500000D01*
X103250000Y-81500602D01*
X103274534Y-81500602D01*
X103323365Y-81505412D01*
X103371490Y-81514984D01*
X103418445Y-81529228D01*
X103463778Y-81548005D01*
X103507051Y-81571136D01*
X103547850Y-81598396D01*
X103585779Y-81629524D01*
X103620476Y-81664221D01*
X103651604Y-81702150D01*
X103678864Y-81742949D01*
X103701995Y-81786222D01*
X103720772Y-81831555D01*
X103735016Y-81878510D01*
X103744588Y-81926635D01*
X103749398Y-81975466D01*
X103749398Y-82000000D01*
X103750000Y-82000000D01*
X103750000Y-82500000D01*
X102250000Y-82500000D01*
G37*
G04 #@! TD.AperFunction*
G04 #@! TA.AperFunction,SMDPad,CuDef*
G36*
X103749398Y-83300000D02*
G01*
X103749398Y-83324534D01*
X103744588Y-83373365D01*
X103735016Y-83421490D01*
X103720772Y-83468445D01*
X103701995Y-83513778D01*
X103678864Y-83557051D01*
X103651604Y-83597850D01*
X103620476Y-83635779D01*
X103585779Y-83670476D01*
X103547850Y-83701604D01*
X103507051Y-83728864D01*
X103463778Y-83751995D01*
X103418445Y-83770772D01*
X103371490Y-83785016D01*
X103323365Y-83794588D01*
X103274534Y-83799398D01*
X103250000Y-83799398D01*
X103250000Y-83800000D01*
X102750000Y-83800000D01*
X102750000Y-83799398D01*
X102725466Y-83799398D01*
X102676635Y-83794588D01*
X102628510Y-83785016D01*
X102581555Y-83770772D01*
X102536222Y-83751995D01*
X102492949Y-83728864D01*
X102452150Y-83701604D01*
X102414221Y-83670476D01*
X102379524Y-83635779D01*
X102348396Y-83597850D01*
X102321136Y-83557051D01*
X102298005Y-83513778D01*
X102279228Y-83468445D01*
X102264984Y-83421490D01*
X102255412Y-83373365D01*
X102250602Y-83324534D01*
X102250602Y-83300000D01*
X102250000Y-83300000D01*
X102250000Y-82800000D01*
X103750000Y-82800000D01*
X103750000Y-83300000D01*
X103749398Y-83300000D01*
G37*
G04 #@! TD.AperFunction*
G04 #@! TA.AperFunction,SMDPad,CuDef*
G36*
X100999398Y-83300000D02*
G01*
X100999398Y-83324534D01*
X100994588Y-83373365D01*
X100985016Y-83421490D01*
X100970772Y-83468445D01*
X100951995Y-83513778D01*
X100928864Y-83557051D01*
X100901604Y-83597850D01*
X100870476Y-83635779D01*
X100835779Y-83670476D01*
X100797850Y-83701604D01*
X100757051Y-83728864D01*
X100713778Y-83751995D01*
X100668445Y-83770772D01*
X100621490Y-83785016D01*
X100573365Y-83794588D01*
X100524534Y-83799398D01*
X100500000Y-83799398D01*
X100500000Y-83800000D01*
X100000000Y-83800000D01*
X100000000Y-83799398D01*
X99975466Y-83799398D01*
X99926635Y-83794588D01*
X99878510Y-83785016D01*
X99831555Y-83770772D01*
X99786222Y-83751995D01*
X99742949Y-83728864D01*
X99702150Y-83701604D01*
X99664221Y-83670476D01*
X99629524Y-83635779D01*
X99598396Y-83597850D01*
X99571136Y-83557051D01*
X99548005Y-83513778D01*
X99529228Y-83468445D01*
X99514984Y-83421490D01*
X99505412Y-83373365D01*
X99500602Y-83324534D01*
X99500602Y-83300000D01*
X99500000Y-83300000D01*
X99500000Y-82800000D01*
X101000000Y-82800000D01*
X101000000Y-83300000D01*
X100999398Y-83300000D01*
G37*
G04 #@! TD.AperFunction*
G04 #@! TA.AperFunction,SMDPad,CuDef*
G36*
X99500000Y-82500000D02*
G01*
X99500000Y-82000000D01*
X99500602Y-82000000D01*
X99500602Y-81975466D01*
X99505412Y-81926635D01*
X99514984Y-81878510D01*
X99529228Y-81831555D01*
X99548005Y-81786222D01*
X99571136Y-81742949D01*
X99598396Y-81702150D01*
X99629524Y-81664221D01*
X99664221Y-81629524D01*
X99702150Y-81598396D01*
X99742949Y-81571136D01*
X99786222Y-81548005D01*
X99831555Y-81529228D01*
X99878510Y-81514984D01*
X99926635Y-81505412D01*
X99975466Y-81500602D01*
X100000000Y-81500602D01*
X100000000Y-81500000D01*
X100500000Y-81500000D01*
X100500000Y-81500602D01*
X100524534Y-81500602D01*
X100573365Y-81505412D01*
X100621490Y-81514984D01*
X100668445Y-81529228D01*
X100713778Y-81548005D01*
X100757051Y-81571136D01*
X100797850Y-81598396D01*
X100835779Y-81629524D01*
X100870476Y-81664221D01*
X100901604Y-81702150D01*
X100928864Y-81742949D01*
X100951995Y-81786222D01*
X100970772Y-81831555D01*
X100985016Y-81878510D01*
X100994588Y-81926635D01*
X100999398Y-81975466D01*
X100999398Y-82000000D01*
X101000000Y-82000000D01*
X101000000Y-82500000D01*
X99500000Y-82500000D01*
G37*
G04 #@! TD.AperFunction*
G04 #@! TA.AperFunction,SMDPad,CuDef*
G36*
X91250000Y-82500000D02*
G01*
X91250000Y-82000000D01*
X91250602Y-82000000D01*
X91250602Y-81975466D01*
X91255412Y-81926635D01*
X91264984Y-81878510D01*
X91279228Y-81831555D01*
X91298005Y-81786222D01*
X91321136Y-81742949D01*
X91348396Y-81702150D01*
X91379524Y-81664221D01*
X91414221Y-81629524D01*
X91452150Y-81598396D01*
X91492949Y-81571136D01*
X91536222Y-81548005D01*
X91581555Y-81529228D01*
X91628510Y-81514984D01*
X91676635Y-81505412D01*
X91725466Y-81500602D01*
X91750000Y-81500602D01*
X91750000Y-81500000D01*
X92250000Y-81500000D01*
X92250000Y-81500602D01*
X92274534Y-81500602D01*
X92323365Y-81505412D01*
X92371490Y-81514984D01*
X92418445Y-81529228D01*
X92463778Y-81548005D01*
X92507051Y-81571136D01*
X92547850Y-81598396D01*
X92585779Y-81629524D01*
X92620476Y-81664221D01*
X92651604Y-81702150D01*
X92678864Y-81742949D01*
X92701995Y-81786222D01*
X92720772Y-81831555D01*
X92735016Y-81878510D01*
X92744588Y-81926635D01*
X92749398Y-81975466D01*
X92749398Y-82000000D01*
X92750000Y-82000000D01*
X92750000Y-82500000D01*
X91250000Y-82500000D01*
G37*
G04 #@! TD.AperFunction*
G04 #@! TA.AperFunction,SMDPad,CuDef*
G36*
X92749398Y-83300000D02*
G01*
X92749398Y-83324534D01*
X92744588Y-83373365D01*
X92735016Y-83421490D01*
X92720772Y-83468445D01*
X92701995Y-83513778D01*
X92678864Y-83557051D01*
X92651604Y-83597850D01*
X92620476Y-83635779D01*
X92585779Y-83670476D01*
X92547850Y-83701604D01*
X92507051Y-83728864D01*
X92463778Y-83751995D01*
X92418445Y-83770772D01*
X92371490Y-83785016D01*
X92323365Y-83794588D01*
X92274534Y-83799398D01*
X92250000Y-83799398D01*
X92250000Y-83800000D01*
X91750000Y-83800000D01*
X91750000Y-83799398D01*
X91725466Y-83799398D01*
X91676635Y-83794588D01*
X91628510Y-83785016D01*
X91581555Y-83770772D01*
X91536222Y-83751995D01*
X91492949Y-83728864D01*
X91452150Y-83701604D01*
X91414221Y-83670476D01*
X91379524Y-83635779D01*
X91348396Y-83597850D01*
X91321136Y-83557051D01*
X91298005Y-83513778D01*
X91279228Y-83468445D01*
X91264984Y-83421490D01*
X91255412Y-83373365D01*
X91250602Y-83324534D01*
X91250602Y-83300000D01*
X91250000Y-83300000D01*
X91250000Y-82800000D01*
X92750000Y-82800000D01*
X92750000Y-83300000D01*
X92749398Y-83300000D01*
G37*
G04 #@! TD.AperFunction*
G04 #@! TA.AperFunction,SMDPad,CuDef*
G36*
X98249398Y-83300000D02*
G01*
X98249398Y-83324534D01*
X98244588Y-83373365D01*
X98235016Y-83421490D01*
X98220772Y-83468445D01*
X98201995Y-83513778D01*
X98178864Y-83557051D01*
X98151604Y-83597850D01*
X98120476Y-83635779D01*
X98085779Y-83670476D01*
X98047850Y-83701604D01*
X98007051Y-83728864D01*
X97963778Y-83751995D01*
X97918445Y-83770772D01*
X97871490Y-83785016D01*
X97823365Y-83794588D01*
X97774534Y-83799398D01*
X97750000Y-83799398D01*
X97750000Y-83800000D01*
X97250000Y-83800000D01*
X97250000Y-83799398D01*
X97225466Y-83799398D01*
X97176635Y-83794588D01*
X97128510Y-83785016D01*
X97081555Y-83770772D01*
X97036222Y-83751995D01*
X96992949Y-83728864D01*
X96952150Y-83701604D01*
X96914221Y-83670476D01*
X96879524Y-83635779D01*
X96848396Y-83597850D01*
X96821136Y-83557051D01*
X96798005Y-83513778D01*
X96779228Y-83468445D01*
X96764984Y-83421490D01*
X96755412Y-83373365D01*
X96750602Y-83324534D01*
X96750602Y-83300000D01*
X96750000Y-83300000D01*
X96750000Y-82800000D01*
X98250000Y-82800000D01*
X98250000Y-83300000D01*
X98249398Y-83300000D01*
G37*
G04 #@! TD.AperFunction*
G04 #@! TA.AperFunction,SMDPad,CuDef*
G36*
X96750000Y-82500000D02*
G01*
X96750000Y-82000000D01*
X96750602Y-82000000D01*
X96750602Y-81975466D01*
X96755412Y-81926635D01*
X96764984Y-81878510D01*
X96779228Y-81831555D01*
X96798005Y-81786222D01*
X96821136Y-81742949D01*
X96848396Y-81702150D01*
X96879524Y-81664221D01*
X96914221Y-81629524D01*
X96952150Y-81598396D01*
X96992949Y-81571136D01*
X97036222Y-81548005D01*
X97081555Y-81529228D01*
X97128510Y-81514984D01*
X97176635Y-81505412D01*
X97225466Y-81500602D01*
X97250000Y-81500602D01*
X97250000Y-81500000D01*
X97750000Y-81500000D01*
X97750000Y-81500602D01*
X97774534Y-81500602D01*
X97823365Y-81505412D01*
X97871490Y-81514984D01*
X97918445Y-81529228D01*
X97963778Y-81548005D01*
X98007051Y-81571136D01*
X98047850Y-81598396D01*
X98085779Y-81629524D01*
X98120476Y-81664221D01*
X98151604Y-81702150D01*
X98178864Y-81742949D01*
X98201995Y-81786222D01*
X98220772Y-81831555D01*
X98235016Y-81878510D01*
X98244588Y-81926635D01*
X98249398Y-81975466D01*
X98249398Y-82000000D01*
X98250000Y-82000000D01*
X98250000Y-82500000D01*
X96750000Y-82500000D01*
G37*
G04 #@! TD.AperFunction*
G04 #@! TA.AperFunction,SMDPad,CuDef*
G36*
X95500000Y-82800000D02*
G01*
X95500000Y-83300000D01*
X95499398Y-83300000D01*
X95499398Y-83324534D01*
X95494588Y-83373365D01*
X95485016Y-83421490D01*
X95470772Y-83468445D01*
X95451995Y-83513778D01*
X95428864Y-83557051D01*
X95401604Y-83597850D01*
X95370476Y-83635779D01*
X95335779Y-83670476D01*
X95297850Y-83701604D01*
X95257051Y-83728864D01*
X95213778Y-83751995D01*
X95168445Y-83770772D01*
X95121490Y-83785016D01*
X95073365Y-83794588D01*
X95024534Y-83799398D01*
X95000000Y-83799398D01*
X95000000Y-83800000D01*
X94500000Y-83800000D01*
X94500000Y-83799398D01*
X94475466Y-83799398D01*
X94426635Y-83794588D01*
X94378510Y-83785016D01*
X94331555Y-83770772D01*
X94286222Y-83751995D01*
X94242949Y-83728864D01*
X94202150Y-83701604D01*
X94164221Y-83670476D01*
X94129524Y-83635779D01*
X94098396Y-83597850D01*
X94071136Y-83557051D01*
X94048005Y-83513778D01*
X94029228Y-83468445D01*
X94014984Y-83421490D01*
X94005412Y-83373365D01*
X94000602Y-83324534D01*
X94000602Y-83300000D01*
X94000000Y-83300000D01*
X94000000Y-82800000D01*
X95500000Y-82800000D01*
G37*
G04 #@! TD.AperFunction*
G04 #@! TA.AperFunction,SMDPad,CuDef*
G36*
X94000602Y-82000000D02*
G01*
X94000602Y-81975466D01*
X94005412Y-81926635D01*
X94014984Y-81878510D01*
X94029228Y-81831555D01*
X94048005Y-81786222D01*
X94071136Y-81742949D01*
X94098396Y-81702150D01*
X94129524Y-81664221D01*
X94164221Y-81629524D01*
X94202150Y-81598396D01*
X94242949Y-81571136D01*
X94286222Y-81548005D01*
X94331555Y-81529228D01*
X94378510Y-81514984D01*
X94426635Y-81505412D01*
X94475466Y-81500602D01*
X94500000Y-81500602D01*
X94500000Y-81500000D01*
X95000000Y-81500000D01*
X95000000Y-81500602D01*
X95024534Y-81500602D01*
X95073365Y-81505412D01*
X95121490Y-81514984D01*
X95168445Y-81529228D01*
X95213778Y-81548005D01*
X95257051Y-81571136D01*
X95297850Y-81598396D01*
X95335779Y-81629524D01*
X95370476Y-81664221D01*
X95401604Y-81702150D01*
X95428864Y-81742949D01*
X95451995Y-81786222D01*
X95470772Y-81831555D01*
X95485016Y-81878510D01*
X95494588Y-81926635D01*
X95499398Y-81975466D01*
X95499398Y-82000000D01*
X95500000Y-82000000D01*
X95500000Y-82500000D01*
X94000000Y-82500000D01*
X94000000Y-82000000D01*
X94000602Y-82000000D01*
G37*
G04 #@! TD.AperFunction*
G04 #@! TA.AperFunction,SMDPad,CuDef*
G36*
X106500000Y-82800000D02*
G01*
X106500000Y-83300000D01*
X106499398Y-83300000D01*
X106499398Y-83324534D01*
X106494588Y-83373365D01*
X106485016Y-83421490D01*
X106470772Y-83468445D01*
X106451995Y-83513778D01*
X106428864Y-83557051D01*
X106401604Y-83597850D01*
X106370476Y-83635779D01*
X106335779Y-83670476D01*
X106297850Y-83701604D01*
X106257051Y-83728864D01*
X106213778Y-83751995D01*
X106168445Y-83770772D01*
X106121490Y-83785016D01*
X106073365Y-83794588D01*
X106024534Y-83799398D01*
X106000000Y-83799398D01*
X106000000Y-83800000D01*
X105500000Y-83800000D01*
X105500000Y-83799398D01*
X105475466Y-83799398D01*
X105426635Y-83794588D01*
X105378510Y-83785016D01*
X105331555Y-83770772D01*
X105286222Y-83751995D01*
X105242949Y-83728864D01*
X105202150Y-83701604D01*
X105164221Y-83670476D01*
X105129524Y-83635779D01*
X105098396Y-83597850D01*
X105071136Y-83557051D01*
X105048005Y-83513778D01*
X105029228Y-83468445D01*
X105014984Y-83421490D01*
X105005412Y-83373365D01*
X105000602Y-83324534D01*
X105000602Y-83300000D01*
X105000000Y-83300000D01*
X105000000Y-82800000D01*
X106500000Y-82800000D01*
G37*
G04 #@! TD.AperFunction*
G04 #@! TA.AperFunction,SMDPad,CuDef*
G36*
X105000602Y-82000000D02*
G01*
X105000602Y-81975466D01*
X105005412Y-81926635D01*
X105014984Y-81878510D01*
X105029228Y-81831555D01*
X105048005Y-81786222D01*
X105071136Y-81742949D01*
X105098396Y-81702150D01*
X105129524Y-81664221D01*
X105164221Y-81629524D01*
X105202150Y-81598396D01*
X105242949Y-81571136D01*
X105286222Y-81548005D01*
X105331555Y-81529228D01*
X105378510Y-81514984D01*
X105426635Y-81505412D01*
X105475466Y-81500602D01*
X105500000Y-81500602D01*
X105500000Y-81500000D01*
X106000000Y-81500000D01*
X106000000Y-81500602D01*
X106024534Y-81500602D01*
X106073365Y-81505412D01*
X106121490Y-81514984D01*
X106168445Y-81529228D01*
X106213778Y-81548005D01*
X106257051Y-81571136D01*
X106297850Y-81598396D01*
X106335779Y-81629524D01*
X106370476Y-81664221D01*
X106401604Y-81702150D01*
X106428864Y-81742949D01*
X106451995Y-81786222D01*
X106470772Y-81831555D01*
X106485016Y-81878510D01*
X106494588Y-81926635D01*
X106499398Y-81975466D01*
X106499398Y-82000000D01*
X106500000Y-82000000D01*
X106500000Y-82500000D01*
X105000000Y-82500000D01*
X105000000Y-82000000D01*
X105000602Y-82000000D01*
G37*
G04 #@! TD.AperFunction*
G04 #@! TA.AperFunction,ComponentPad*
G36*
G01*
X105100000Y-78025000D02*
X105100000Y-79475000D01*
G75*
G02*
X104850000Y-79725000I-250000J0D01*
G01*
X103650000Y-79725000D01*
G75*
G02*
X103400000Y-79475000I0J250000D01*
G01*
X103400000Y-78025000D01*
G75*
G02*
X103650000Y-77775000I250000J0D01*
G01*
X104850000Y-77775000D01*
G75*
G02*
X105100000Y-78025000I0J-250000D01*
G01*
G37*
G04 #@! TD.AperFunction*
D13*
X101750000Y-78750000D03*
X99250000Y-78750000D03*
X96750000Y-78750000D03*
G04 #@! TA.AperFunction,SMDPad,CuDef*
D12*
G36*
X109250000Y-82800000D02*
G01*
X109250000Y-83300000D01*
X109249398Y-83300000D01*
X109249398Y-83324534D01*
X109244588Y-83373365D01*
X109235016Y-83421490D01*
X109220772Y-83468445D01*
X109201995Y-83513778D01*
X109178864Y-83557051D01*
X109151604Y-83597850D01*
X109120476Y-83635779D01*
X109085779Y-83670476D01*
X109047850Y-83701604D01*
X109007051Y-83728864D01*
X108963778Y-83751995D01*
X108918445Y-83770772D01*
X108871490Y-83785016D01*
X108823365Y-83794588D01*
X108774534Y-83799398D01*
X108750000Y-83799398D01*
X108750000Y-83800000D01*
X108250000Y-83800000D01*
X108250000Y-83799398D01*
X108225466Y-83799398D01*
X108176635Y-83794588D01*
X108128510Y-83785016D01*
X108081555Y-83770772D01*
X108036222Y-83751995D01*
X107992949Y-83728864D01*
X107952150Y-83701604D01*
X107914221Y-83670476D01*
X107879524Y-83635779D01*
X107848396Y-83597850D01*
X107821136Y-83557051D01*
X107798005Y-83513778D01*
X107779228Y-83468445D01*
X107764984Y-83421490D01*
X107755412Y-83373365D01*
X107750602Y-83324534D01*
X107750602Y-83300000D01*
X107750000Y-83300000D01*
X107750000Y-82800000D01*
X109250000Y-82800000D01*
G37*
G04 #@! TD.AperFunction*
G04 #@! TA.AperFunction,SMDPad,CuDef*
G36*
X107750602Y-82000000D02*
G01*
X107750602Y-81975466D01*
X107755412Y-81926635D01*
X107764984Y-81878510D01*
X107779228Y-81831555D01*
X107798005Y-81786222D01*
X107821136Y-81742949D01*
X107848396Y-81702150D01*
X107879524Y-81664221D01*
X107914221Y-81629524D01*
X107952150Y-81598396D01*
X107992949Y-81571136D01*
X108036222Y-81548005D01*
X108081555Y-81529228D01*
X108128510Y-81514984D01*
X108176635Y-81505412D01*
X108225466Y-81500602D01*
X108250000Y-81500602D01*
X108250000Y-81500000D01*
X108750000Y-81500000D01*
X108750000Y-81500602D01*
X108774534Y-81500602D01*
X108823365Y-81505412D01*
X108871490Y-81514984D01*
X108918445Y-81529228D01*
X108963778Y-81548005D01*
X109007051Y-81571136D01*
X109047850Y-81598396D01*
X109085779Y-81629524D01*
X109120476Y-81664221D01*
X109151604Y-81702150D01*
X109178864Y-81742949D01*
X109201995Y-81786222D01*
X109220772Y-81831555D01*
X109235016Y-81878510D01*
X109244588Y-81926635D01*
X109249398Y-81975466D01*
X109249398Y-82000000D01*
X109250000Y-82000000D01*
X109250000Y-82500000D01*
X107750000Y-82500000D01*
X107750000Y-82000000D01*
X107750602Y-82000000D01*
G37*
G04 #@! TD.AperFunction*
D14*
X105750000Y-91000000D03*
X95000000Y-91000000D03*
D15*
X105750000Y-84287000D02*
X107315000Y-85852000D01*
X105750000Y-83300000D02*
X105750000Y-84287000D01*
X106045000Y-87122000D02*
X104775000Y-85852000D01*
X106045000Y-88392000D02*
X106045000Y-87122000D01*
X103000000Y-84077000D02*
X103000000Y-83300000D01*
X104775000Y-85852000D02*
X103000000Y-84077000D01*
X103505000Y-87122000D02*
X102235000Y-85852000D01*
X103505000Y-88392000D02*
X103505000Y-87122000D01*
X100250000Y-83867000D02*
X100250000Y-83300000D01*
X102235000Y-85852000D02*
X100250000Y-83867000D01*
X98425000Y-84225000D02*
X97500000Y-83300000D01*
X98425000Y-88392000D02*
X98425000Y-84225000D01*
X95885000Y-84435000D02*
X94750000Y-83300000D01*
X95885000Y-88392000D02*
X95885000Y-84435000D01*
X92063000Y-83300000D02*
X92000000Y-83300000D01*
X94615000Y-85852000D02*
X92063000Y-83300000D01*
X100250000Y-82000000D02*
X108500000Y-82000000D01*
D16*
X113509659Y-70688625D02*
X113759429Y-70764035D01*
X113989792Y-70886522D01*
X114191980Y-71051422D01*
X114358286Y-71252450D01*
X114482378Y-71481954D01*
X114559531Y-71731195D01*
X114590000Y-72021089D01*
X114590000Y-75161466D01*
X114221558Y-74793024D01*
X113650766Y-74411633D01*
X113016537Y-74148927D01*
X112343242Y-74015000D01*
X111656758Y-74015000D01*
X110983463Y-74148927D01*
X110349234Y-74411633D01*
X109778442Y-74793024D01*
X109293024Y-75278442D01*
X108911633Y-75849234D01*
X108648927Y-76483463D01*
X108515000Y-77156758D01*
X108515000Y-77843242D01*
X108648927Y-78516537D01*
X108911633Y-79150766D01*
X109293024Y-79721558D01*
X109778442Y-80206976D01*
X110349234Y-80588367D01*
X110983463Y-80851073D01*
X111656758Y-80985000D01*
X112343242Y-80985000D01*
X113016537Y-80851073D01*
X113650766Y-80588367D01*
X114221558Y-80206976D01*
X114590000Y-79838534D01*
X114590001Y-90467711D01*
X114561375Y-90759660D01*
X114485965Y-91009429D01*
X114363477Y-91239794D01*
X114198579Y-91441979D01*
X113997546Y-91608288D01*
X113768046Y-91732378D01*
X113518805Y-91809531D01*
X113228911Y-91840000D01*
X111326995Y-91840000D01*
X111330681Y-91834452D01*
X111364488Y-91785079D01*
X111368870Y-91776973D01*
X111415415Y-91689434D01*
X111438197Y-91634159D01*
X111461775Y-91579149D01*
X111464500Y-91570345D01*
X111493156Y-91475432D01*
X111504773Y-91416759D01*
X111517212Y-91358242D01*
X111518175Y-91349077D01*
X111527850Y-91250406D01*
X111527850Y-91250402D01*
X111531000Y-91218419D01*
X111531000Y-90645581D01*
X111528251Y-90617668D01*
X111528272Y-90614633D01*
X111527372Y-90605462D01*
X111522238Y-90556616D01*
X111521450Y-90548617D01*
X111521369Y-90548350D01*
X111517008Y-90506860D01*
X111504984Y-90448286D01*
X111493771Y-90389504D01*
X111491107Y-90380683D01*
X111461789Y-90285973D01*
X111438636Y-90230895D01*
X111416202Y-90175368D01*
X111411875Y-90167232D01*
X111364720Y-90080020D01*
X111331270Y-90030429D01*
X111298514Y-89980371D01*
X111292689Y-89973230D01*
X111229493Y-89896838D01*
X111187058Y-89854699D01*
X111145195Y-89811949D01*
X111138094Y-89806075D01*
X111061263Y-89743413D01*
X111011467Y-89710329D01*
X110962079Y-89676512D01*
X110953973Y-89672130D01*
X110866434Y-89625585D01*
X110811159Y-89602803D01*
X110756149Y-89579225D01*
X110747346Y-89576500D01*
X110652432Y-89547844D01*
X110593752Y-89536225D01*
X110535242Y-89523788D01*
X110526077Y-89522825D01*
X110427406Y-89513150D01*
X110427402Y-89513150D01*
X110395419Y-89510000D01*
X107536581Y-89510000D01*
X107508668Y-89512749D01*
X107505633Y-89512728D01*
X107496462Y-89513628D01*
X107447616Y-89518762D01*
X107439617Y-89519550D01*
X107439350Y-89519631D01*
X107397860Y-89523992D01*
X107339286Y-89536016D01*
X107280504Y-89547229D01*
X107271683Y-89549893D01*
X107176973Y-89579211D01*
X107121895Y-89602364D01*
X107066368Y-89624798D01*
X107058232Y-89629125D01*
X106971020Y-89676280D01*
X106921429Y-89709730D01*
X106871371Y-89742486D01*
X106864230Y-89748311D01*
X106787838Y-89811507D01*
X106745709Y-89853932D01*
X106702949Y-89895805D01*
X106697075Y-89902906D01*
X106634413Y-89979737D01*
X106601329Y-90029533D01*
X106567512Y-90078921D01*
X106563130Y-90087027D01*
X106516585Y-90174566D01*
X106493813Y-90229816D01*
X106470225Y-90284851D01*
X106467500Y-90293654D01*
X106438844Y-90388568D01*
X106427225Y-90447248D01*
X106414788Y-90505758D01*
X106413825Y-90514923D01*
X106404150Y-90613594D01*
X106404150Y-90613599D01*
X106401000Y-90645582D01*
X106401000Y-91218419D01*
X106403749Y-91246332D01*
X106403728Y-91249367D01*
X106404628Y-91258538D01*
X106409762Y-91307384D01*
X106410550Y-91315383D01*
X106410631Y-91315650D01*
X106414992Y-91357140D01*
X106427016Y-91415714D01*
X106438229Y-91474496D01*
X106440893Y-91483317D01*
X106470211Y-91578028D01*
X106493370Y-91633119D01*
X106515798Y-91688632D01*
X106520125Y-91696768D01*
X106567280Y-91783980D01*
X106600730Y-91833571D01*
X106604936Y-91840000D01*
X94054995Y-91840000D01*
X94058681Y-91834452D01*
X94092488Y-91785079D01*
X94096870Y-91776973D01*
X94143415Y-91689434D01*
X94166197Y-91634159D01*
X94189775Y-91579149D01*
X94192500Y-91570345D01*
X94221156Y-91475432D01*
X94232773Y-91416759D01*
X94245212Y-91358242D01*
X94246175Y-91349077D01*
X94255850Y-91250406D01*
X94255850Y-91250402D01*
X94259000Y-91218419D01*
X94259000Y-90645581D01*
X94256251Y-90617668D01*
X94256272Y-90614633D01*
X94255372Y-90605462D01*
X94250238Y-90556616D01*
X94249450Y-90548617D01*
X94249369Y-90548350D01*
X94245008Y-90506860D01*
X94232984Y-90448286D01*
X94221771Y-90389504D01*
X94219107Y-90380683D01*
X94189789Y-90285973D01*
X94166636Y-90230895D01*
X94144202Y-90175368D01*
X94139875Y-90167232D01*
X94092720Y-90080020D01*
X94059270Y-90030429D01*
X94026514Y-89980371D01*
X94020689Y-89973230D01*
X93957493Y-89896838D01*
X93915058Y-89854699D01*
X93873195Y-89811949D01*
X93866094Y-89806075D01*
X93789263Y-89743413D01*
X93767632Y-89729042D01*
X94006727Y-89630005D01*
X94235535Y-89477120D01*
X94430120Y-89282535D01*
X94583005Y-89053727D01*
X94615000Y-88976485D01*
X94646995Y-89053727D01*
X94799880Y-89282535D01*
X94994465Y-89477120D01*
X95223273Y-89630005D01*
X95477510Y-89735314D01*
X95747408Y-89789000D01*
X96022592Y-89789000D01*
X96292490Y-89735314D01*
X96546727Y-89630005D01*
X96775535Y-89477120D01*
X96970120Y-89282535D01*
X97123005Y-89053727D01*
X97155000Y-88976485D01*
X97186995Y-89053727D01*
X97339880Y-89282535D01*
X97534465Y-89477120D01*
X97763273Y-89630005D01*
X98017510Y-89735314D01*
X98287408Y-89789000D01*
X98562592Y-89789000D01*
X98832490Y-89735314D01*
X99086727Y-89630005D01*
X99315535Y-89477120D01*
X99435090Y-89357565D01*
X100179040Y-89357565D01*
X100246020Y-89597656D01*
X100495048Y-89714756D01*
X100762135Y-89781023D01*
X101037017Y-89793910D01*
X101309133Y-89752922D01*
X101568023Y-89659636D01*
X101683980Y-89597656D01*
X101750960Y-89357565D01*
X100965000Y-88571605D01*
X100179040Y-89357565D01*
X99435090Y-89357565D01*
X99510120Y-89282535D01*
X99663005Y-89053727D01*
X99692692Y-88982057D01*
X99697364Y-88995023D01*
X99759344Y-89110980D01*
X99999435Y-89177960D01*
X100785395Y-88392000D01*
X99999435Y-87606040D01*
X99759344Y-87673020D01*
X99695515Y-87808760D01*
X99663005Y-87730273D01*
X99510120Y-87501465D01*
X99435090Y-87426435D01*
X100179040Y-87426435D01*
X100965000Y-88212395D01*
X101750960Y-87426435D01*
X101683980Y-87186344D01*
X101434952Y-87069244D01*
X101167865Y-87002977D01*
X100892983Y-86990090D01*
X100620867Y-87031078D01*
X100361977Y-87124364D01*
X100246020Y-87186344D01*
X100179040Y-87426435D01*
X99435090Y-87426435D01*
X99315535Y-87306880D01*
X99185000Y-87219659D01*
X99185000Y-87152853D01*
X99287510Y-87195314D01*
X99557408Y-87249000D01*
X99832592Y-87249000D01*
X100102490Y-87195314D01*
X100356727Y-87090005D01*
X100585535Y-86937120D01*
X100780120Y-86742535D01*
X100933005Y-86513727D01*
X100965000Y-86436485D01*
X100996995Y-86513727D01*
X101149880Y-86742535D01*
X101344465Y-86937120D01*
X101573273Y-87090005D01*
X101827510Y-87195314D01*
X102097408Y-87249000D01*
X102372592Y-87249000D01*
X102526570Y-87218372D01*
X102614833Y-87306634D01*
X102614465Y-87306880D01*
X102419880Y-87501465D01*
X102266995Y-87730273D01*
X102237308Y-87801943D01*
X102232636Y-87788977D01*
X102170656Y-87673020D01*
X101930565Y-87606040D01*
X101144605Y-88392000D01*
X101930565Y-89177960D01*
X102170656Y-89110980D01*
X102234485Y-88975240D01*
X102266995Y-89053727D01*
X102419880Y-89282535D01*
X102614465Y-89477120D01*
X102843273Y-89630005D01*
X103097510Y-89735314D01*
X103367408Y-89789000D01*
X103642592Y-89789000D01*
X103912490Y-89735314D01*
X104166727Y-89630005D01*
X104395535Y-89477120D01*
X104590120Y-89282535D01*
X104743005Y-89053727D01*
X104775000Y-88976485D01*
X104806995Y-89053727D01*
X104959880Y-89282535D01*
X105154465Y-89477120D01*
X105383273Y-89630005D01*
X105637510Y-89735314D01*
X105907408Y-89789000D01*
X106182592Y-89789000D01*
X106452490Y-89735314D01*
X106706727Y-89630005D01*
X106935535Y-89477120D01*
X107130120Y-89282535D01*
X107283005Y-89053727D01*
X107388314Y-88799490D01*
X107442000Y-88529592D01*
X107442000Y-88254408D01*
X107388314Y-87984510D01*
X107283005Y-87730273D01*
X107130120Y-87501465D01*
X106935535Y-87306880D01*
X106805000Y-87219659D01*
X106805000Y-87159322D01*
X106805612Y-87153106D01*
X106907510Y-87195314D01*
X107177408Y-87249000D01*
X107452592Y-87249000D01*
X107722490Y-87195314D01*
X107976727Y-87090005D01*
X108205535Y-86937120D01*
X108400120Y-86742535D01*
X108553005Y-86513727D01*
X108658314Y-86259490D01*
X108712000Y-85989592D01*
X108712000Y-85714408D01*
X108658314Y-85444510D01*
X108553005Y-85190273D01*
X108400120Y-84961465D01*
X108205535Y-84766880D01*
X107976727Y-84613995D01*
X107722490Y-84508686D01*
X107452592Y-84455000D01*
X107177408Y-84455000D01*
X107023430Y-84485628D01*
X106717362Y-84179561D01*
X106768382Y-84137690D01*
X106837690Y-84068382D01*
X106917042Y-83971691D01*
X106971498Y-83890192D01*
X107030464Y-83779875D01*
X107067973Y-83689319D01*
X107104282Y-83569623D01*
X107123404Y-83473490D01*
X107135664Y-83349009D01*
X107135664Y-83324450D01*
X107138072Y-83300000D01*
X107138072Y-82800000D01*
X107134132Y-82760000D01*
X107168954Y-82760000D01*
X107219463Y-82854494D01*
X107298815Y-82951185D01*
X107395506Y-83030537D01*
X107505820Y-83089502D01*
X107625518Y-83125812D01*
X107750000Y-83138072D01*
X109250000Y-83138072D01*
X109374482Y-83125812D01*
X109494180Y-83089502D01*
X109604494Y-83030537D01*
X109701185Y-82951185D01*
X109780537Y-82854494D01*
X109839502Y-82744180D01*
X109875812Y-82624482D01*
X109888072Y-82500000D01*
X109888072Y-82000000D01*
X109885664Y-81975550D01*
X109885664Y-81950991D01*
X109873404Y-81826510D01*
X109854282Y-81730377D01*
X109817973Y-81610681D01*
X109780464Y-81520125D01*
X109721498Y-81409808D01*
X109667042Y-81328309D01*
X109587690Y-81231618D01*
X109518382Y-81162310D01*
X109421691Y-81082958D01*
X109340192Y-81028502D01*
X109229875Y-80969536D01*
X109139319Y-80932027D01*
X109019623Y-80895718D01*
X108923490Y-80876596D01*
X108799009Y-80864336D01*
X108774450Y-80864336D01*
X108750000Y-80861928D01*
X108250000Y-80861928D01*
X108225550Y-80864336D01*
X108200991Y-80864336D01*
X108076510Y-80876596D01*
X107980377Y-80895718D01*
X107860681Y-80932027D01*
X107770125Y-80969536D01*
X107659808Y-81028502D01*
X107578309Y-81082958D01*
X107481618Y-81162310D01*
X107412310Y-81231618D01*
X107405431Y-81240000D01*
X106844569Y-81240000D01*
X106837690Y-81231618D01*
X106768382Y-81162310D01*
X106671691Y-81082958D01*
X106590192Y-81028502D01*
X106479875Y-80969536D01*
X106389319Y-80932027D01*
X106269623Y-80895718D01*
X106173490Y-80876596D01*
X106049009Y-80864336D01*
X106024450Y-80864336D01*
X106000000Y-80861928D01*
X105500000Y-80861928D01*
X105475550Y-80864336D01*
X105450991Y-80864336D01*
X105326510Y-80876596D01*
X105230377Y-80895718D01*
X105110681Y-80932027D01*
X105020125Y-80969536D01*
X104909808Y-81028502D01*
X104828309Y-81082958D01*
X104731618Y-81162310D01*
X104662310Y-81231618D01*
X104655431Y-81240000D01*
X104094569Y-81240000D01*
X104087690Y-81231618D01*
X104018382Y-81162310D01*
X103921691Y-81082958D01*
X103840192Y-81028502D01*
X103729875Y-80969536D01*
X103639319Y-80932027D01*
X103519623Y-80895718D01*
X103423490Y-80876596D01*
X103299009Y-80864336D01*
X103274450Y-80864336D01*
X103250000Y-80861928D01*
X102750000Y-80861928D01*
X102725550Y-80864336D01*
X102700991Y-80864336D01*
X102576510Y-80876596D01*
X102480377Y-80895718D01*
X102360681Y-80932027D01*
X102270125Y-80969536D01*
X102159808Y-81028502D01*
X102078309Y-81082958D01*
X101981618Y-81162310D01*
X101912310Y-81231618D01*
X101905431Y-81240000D01*
X101344569Y-81240000D01*
X101337690Y-81231618D01*
X101268382Y-81162310D01*
X101171691Y-81082958D01*
X101090192Y-81028502D01*
X100979875Y-80969536D01*
X100889319Y-80932027D01*
X100769623Y-80895718D01*
X100673490Y-80876596D01*
X100549009Y-80864336D01*
X100524450Y-80864336D01*
X100500000Y-80861928D01*
X100000000Y-80861928D01*
X99975550Y-80864336D01*
X99950991Y-80864336D01*
X99826510Y-80876596D01*
X99730377Y-80895718D01*
X99610681Y-80932027D01*
X99520125Y-80969536D01*
X99409808Y-81028502D01*
X99328309Y-81082958D01*
X99231618Y-81162310D01*
X99162310Y-81231618D01*
X99082958Y-81328309D01*
X99028502Y-81409808D01*
X98969536Y-81520125D01*
X98932027Y-81610681D01*
X98895718Y-81730377D01*
X98876596Y-81826510D01*
X98864336Y-81950991D01*
X98864336Y-81975550D01*
X98861928Y-82000000D01*
X98861928Y-82500000D01*
X98874188Y-82624482D01*
X98881929Y-82650000D01*
X98875000Y-82672841D01*
X98839502Y-82555820D01*
X98780537Y-82445506D01*
X98701185Y-82348815D01*
X98604494Y-82269463D01*
X98494180Y-82210498D01*
X98374482Y-82174188D01*
X98250000Y-82161928D01*
X96750000Y-82161928D01*
X96625518Y-82174188D01*
X96505820Y-82210498D01*
X96395506Y-82269463D01*
X96298815Y-82348815D01*
X96219463Y-82445506D01*
X96160498Y-82555820D01*
X96125000Y-82672841D01*
X96089502Y-82555820D01*
X96030537Y-82445506D01*
X95951185Y-82348815D01*
X95854494Y-82269463D01*
X95744180Y-82210498D01*
X95624482Y-82174188D01*
X95500000Y-82161928D01*
X94000000Y-82161928D01*
X93875518Y-82174188D01*
X93755820Y-82210498D01*
X93645506Y-82269463D01*
X93548815Y-82348815D01*
X93469463Y-82445506D01*
X93410498Y-82555820D01*
X93375000Y-82672841D01*
X93339502Y-82555820D01*
X93280537Y-82445506D01*
X93201185Y-82348815D01*
X93104494Y-82269463D01*
X92994180Y-82210498D01*
X92874482Y-82174188D01*
X92750000Y-82161928D01*
X91250000Y-82161928D01*
X91125518Y-82174188D01*
X91005820Y-82210498D01*
X90895506Y-82269463D01*
X90798815Y-82348815D01*
X90719463Y-82445506D01*
X90660498Y-82555820D01*
X90624188Y-82675518D01*
X90611928Y-82800000D01*
X90611928Y-83300000D01*
X90614336Y-83324450D01*
X90614336Y-83349009D01*
X90626596Y-83473490D01*
X90645718Y-83569623D01*
X90682027Y-83689319D01*
X90719536Y-83779875D01*
X90778502Y-83890192D01*
X90832958Y-83971691D01*
X90912310Y-84068382D01*
X90981618Y-84137690D01*
X91078309Y-84217042D01*
X91159808Y-84271498D01*
X91270125Y-84330464D01*
X91360681Y-84367973D01*
X91480377Y-84404282D01*
X91576510Y-84423404D01*
X91700991Y-84435664D01*
X91725550Y-84435664D01*
X91750000Y-84438072D01*
X92126271Y-84438072D01*
X93248628Y-85560430D01*
X93218000Y-85714408D01*
X93218000Y-85989592D01*
X93271686Y-86259490D01*
X93376995Y-86513727D01*
X93529880Y-86742535D01*
X93724465Y-86937120D01*
X93953273Y-87090005D01*
X94207510Y-87195314D01*
X94477408Y-87249000D01*
X94752592Y-87249000D01*
X95022490Y-87195314D01*
X95125000Y-87152853D01*
X95125000Y-87219659D01*
X94994465Y-87306880D01*
X94799880Y-87501465D01*
X94646995Y-87730273D01*
X94615000Y-87807515D01*
X94583005Y-87730273D01*
X94430120Y-87501465D01*
X94235535Y-87306880D01*
X94006727Y-87153995D01*
X93752490Y-87048686D01*
X93482592Y-86995000D01*
X93207408Y-86995000D01*
X92937510Y-87048686D01*
X92683273Y-87153995D01*
X92454465Y-87306880D01*
X92259880Y-87501465D01*
X92106995Y-87730273D01*
X92001686Y-87984510D01*
X91948000Y-88254408D01*
X91948000Y-88529592D01*
X92001686Y-88799490D01*
X92106995Y-89053727D01*
X92259880Y-89282535D01*
X92454465Y-89477120D01*
X92503673Y-89510000D01*
X90264581Y-89510000D01*
X90236668Y-89512749D01*
X90233633Y-89512728D01*
X90224462Y-89513628D01*
X90175616Y-89518762D01*
X90167617Y-89519550D01*
X90167350Y-89519631D01*
X90125860Y-89523992D01*
X90067286Y-89536016D01*
X90008504Y-89547229D01*
X89999683Y-89549893D01*
X89904973Y-89579211D01*
X89849895Y-89602364D01*
X89794368Y-89624798D01*
X89786232Y-89629125D01*
X89699020Y-89676280D01*
X89649429Y-89709730D01*
X89599371Y-89742486D01*
X89592230Y-89748311D01*
X89515838Y-89811507D01*
X89473709Y-89853932D01*
X89430949Y-89895805D01*
X89425075Y-89902906D01*
X89362413Y-89979737D01*
X89329329Y-90029533D01*
X89295512Y-90078921D01*
X89291130Y-90087027D01*
X89244585Y-90174566D01*
X89221813Y-90229816D01*
X89198225Y-90284851D01*
X89195500Y-90293654D01*
X89166844Y-90388568D01*
X89155225Y-90447248D01*
X89142788Y-90505758D01*
X89141825Y-90514923D01*
X89132150Y-90613594D01*
X89132150Y-90613599D01*
X89129000Y-90645582D01*
X89129000Y-91218419D01*
X89131749Y-91246332D01*
X89131728Y-91249367D01*
X89132628Y-91258538D01*
X89137762Y-91307384D01*
X89138550Y-91315383D01*
X89138631Y-91315650D01*
X89142992Y-91357140D01*
X89155016Y-91415714D01*
X89166229Y-91474496D01*
X89168893Y-91483317D01*
X89198211Y-91578028D01*
X89221370Y-91633119D01*
X89243798Y-91688632D01*
X89248125Y-91696768D01*
X89295280Y-91783980D01*
X89328730Y-91833571D01*
X89332936Y-91840000D01*
X87282279Y-91840000D01*
X86990340Y-91811375D01*
X86740571Y-91735965D01*
X86510206Y-91613477D01*
X86308021Y-91448579D01*
X86141712Y-91247546D01*
X86017622Y-91018046D01*
X85940469Y-90768805D01*
X85910000Y-90478911D01*
X85910000Y-79522474D01*
X86043024Y-79721558D01*
X86528442Y-80206976D01*
X87099234Y-80588367D01*
X87733463Y-80851073D01*
X88406758Y-80985000D01*
X89093242Y-80985000D01*
X89766537Y-80851073D01*
X90400766Y-80588367D01*
X90971558Y-80206976D01*
X91456976Y-79721558D01*
X91838367Y-79150766D01*
X92086363Y-78552050D01*
X95265000Y-78552050D01*
X95265000Y-78947949D01*
X95286487Y-79166110D01*
X95371401Y-79446033D01*
X95509294Y-79704013D01*
X95694866Y-79930134D01*
X95920986Y-80115706D01*
X96178966Y-80253599D01*
X96458889Y-80338513D01*
X96750000Y-80367185D01*
X97041110Y-80338513D01*
X97321033Y-80253599D01*
X97579013Y-80115706D01*
X97805134Y-79930134D01*
X97990706Y-79704014D01*
X98000000Y-79686626D01*
X98009294Y-79704013D01*
X98194866Y-79930134D01*
X98420986Y-80115706D01*
X98678966Y-80253599D01*
X98958889Y-80338513D01*
X99250000Y-80367185D01*
X99541110Y-80338513D01*
X99821033Y-80253599D01*
X100079013Y-80115706D01*
X100305134Y-79930134D01*
X100490706Y-79704014D01*
X100504462Y-79678278D01*
X100660951Y-79884429D01*
X100878807Y-80077496D01*
X101130142Y-80224352D01*
X101393110Y-80316476D01*
X101623000Y-80195155D01*
X101623000Y-78877000D01*
X101603000Y-78877000D01*
X101603000Y-78623000D01*
X101623000Y-78623000D01*
X101623000Y-77304845D01*
X101877000Y-77304845D01*
X101877000Y-78623000D01*
X101897000Y-78623000D01*
X101897000Y-78877000D01*
X101877000Y-78877000D01*
X101877000Y-80195155D01*
X102106890Y-80316476D01*
X102369858Y-80224352D01*
X102621193Y-80077496D01*
X102839049Y-79884429D01*
X102855286Y-79863039D01*
X102911595Y-79968386D01*
X103022038Y-80102962D01*
X103156614Y-80213405D01*
X103310150Y-80295472D01*
X103476746Y-80346008D01*
X103650000Y-80363072D01*
X104850000Y-80363072D01*
X105023254Y-80346008D01*
X105189850Y-80295472D01*
X105343386Y-80213405D01*
X105477962Y-80102962D01*
X105588405Y-79968386D01*
X105670472Y-79814850D01*
X105721008Y-79648254D01*
X105738072Y-79475000D01*
X105738072Y-78025000D01*
X105721008Y-77851746D01*
X105670472Y-77685150D01*
X105588405Y-77531614D01*
X105477962Y-77397038D01*
X105343386Y-77286595D01*
X105189850Y-77204528D01*
X105023254Y-77153992D01*
X104850000Y-77136928D01*
X103650000Y-77136928D01*
X103476746Y-77153992D01*
X103310150Y-77204528D01*
X103156614Y-77286595D01*
X103022038Y-77397038D01*
X102911595Y-77531614D01*
X102855286Y-77636961D01*
X102839049Y-77615571D01*
X102621193Y-77422504D01*
X102369858Y-77275648D01*
X102106890Y-77183524D01*
X101877000Y-77304845D01*
X101623000Y-77304845D01*
X101393110Y-77183524D01*
X101130142Y-77275648D01*
X100878807Y-77422504D01*
X100660951Y-77615571D01*
X100504462Y-77821722D01*
X100490706Y-77795986D01*
X100305134Y-77569866D01*
X100079014Y-77384294D01*
X99821034Y-77246401D01*
X99541111Y-77161487D01*
X99250000Y-77132815D01*
X98958890Y-77161487D01*
X98678967Y-77246401D01*
X98420987Y-77384294D01*
X98194866Y-77569866D01*
X98009294Y-77795986D01*
X98000000Y-77813374D01*
X97990706Y-77795986D01*
X97805134Y-77569866D01*
X97579014Y-77384294D01*
X97321034Y-77246401D01*
X97041111Y-77161487D01*
X96750000Y-77132815D01*
X96458890Y-77161487D01*
X96178967Y-77246401D01*
X95920987Y-77384294D01*
X95694866Y-77569866D01*
X95509294Y-77795986D01*
X95371401Y-78053966D01*
X95286487Y-78333889D01*
X95265000Y-78552050D01*
X92086363Y-78552050D01*
X92101073Y-78516537D01*
X92235000Y-77843242D01*
X92235000Y-77156758D01*
X92101073Y-76483463D01*
X91838367Y-75849234D01*
X91456976Y-75278442D01*
X90971558Y-74793024D01*
X90400766Y-74411633D01*
X89766537Y-74148927D01*
X89093242Y-74015000D01*
X88406758Y-74015000D01*
X87733463Y-74148927D01*
X87099234Y-74411633D01*
X86528442Y-74793024D01*
X86043024Y-75278442D01*
X85910000Y-75477526D01*
X85910000Y-72032279D01*
X85938625Y-71740341D01*
X86014035Y-71490571D01*
X86136522Y-71260208D01*
X86301422Y-71058020D01*
X86502450Y-70891714D01*
X86731954Y-70767622D01*
X86981195Y-70690469D01*
X87271088Y-70660000D01*
X113217721Y-70660000D01*
X113509659Y-70688625D01*
G04 #@! TA.AperFunction,Conductor*
D17*
G36*
X113509659Y-70688625D02*
G01*
X113759429Y-70764035D01*
X113989792Y-70886522D01*
X114191980Y-71051422D01*
X114358286Y-71252450D01*
X114482378Y-71481954D01*
X114559531Y-71731195D01*
X114590000Y-72021089D01*
X114590000Y-75161466D01*
X114221558Y-74793024D01*
X113650766Y-74411633D01*
X113016537Y-74148927D01*
X112343242Y-74015000D01*
X111656758Y-74015000D01*
X110983463Y-74148927D01*
X110349234Y-74411633D01*
X109778442Y-74793024D01*
X109293024Y-75278442D01*
X108911633Y-75849234D01*
X108648927Y-76483463D01*
X108515000Y-77156758D01*
X108515000Y-77843242D01*
X108648927Y-78516537D01*
X108911633Y-79150766D01*
X109293024Y-79721558D01*
X109778442Y-80206976D01*
X110349234Y-80588367D01*
X110983463Y-80851073D01*
X111656758Y-80985000D01*
X112343242Y-80985000D01*
X113016537Y-80851073D01*
X113650766Y-80588367D01*
X114221558Y-80206976D01*
X114590000Y-79838534D01*
X114590001Y-90467711D01*
X114561375Y-90759660D01*
X114485965Y-91009429D01*
X114363477Y-91239794D01*
X114198579Y-91441979D01*
X113997546Y-91608288D01*
X113768046Y-91732378D01*
X113518805Y-91809531D01*
X113228911Y-91840000D01*
X111326995Y-91840000D01*
X111330681Y-91834452D01*
X111364488Y-91785079D01*
X111368870Y-91776973D01*
X111415415Y-91689434D01*
X111438197Y-91634159D01*
X111461775Y-91579149D01*
X111464500Y-91570345D01*
X111493156Y-91475432D01*
X111504773Y-91416759D01*
X111517212Y-91358242D01*
X111518175Y-91349077D01*
X111527850Y-91250406D01*
X111527850Y-91250402D01*
X111531000Y-91218419D01*
X111531000Y-90645581D01*
X111528251Y-90617668D01*
X111528272Y-90614633D01*
X111527372Y-90605462D01*
X111522238Y-90556616D01*
X111521450Y-90548617D01*
X111521369Y-90548350D01*
X111517008Y-90506860D01*
X111504984Y-90448286D01*
X111493771Y-90389504D01*
X111491107Y-90380683D01*
X111461789Y-90285973D01*
X111438636Y-90230895D01*
X111416202Y-90175368D01*
X111411875Y-90167232D01*
X111364720Y-90080020D01*
X111331270Y-90030429D01*
X111298514Y-89980371D01*
X111292689Y-89973230D01*
X111229493Y-89896838D01*
X111187058Y-89854699D01*
X111145195Y-89811949D01*
X111138094Y-89806075D01*
X111061263Y-89743413D01*
X111011467Y-89710329D01*
X110962079Y-89676512D01*
X110953973Y-89672130D01*
X110866434Y-89625585D01*
X110811159Y-89602803D01*
X110756149Y-89579225D01*
X110747346Y-89576500D01*
X110652432Y-89547844D01*
X110593752Y-89536225D01*
X110535242Y-89523788D01*
X110526077Y-89522825D01*
X110427406Y-89513150D01*
X110427402Y-89513150D01*
X110395419Y-89510000D01*
X107536581Y-89510000D01*
X107508668Y-89512749D01*
X107505633Y-89512728D01*
X107496462Y-89513628D01*
X107447616Y-89518762D01*
X107439617Y-89519550D01*
X107439350Y-89519631D01*
X107397860Y-89523992D01*
X107339286Y-89536016D01*
X107280504Y-89547229D01*
X107271683Y-89549893D01*
X107176973Y-89579211D01*
X107121895Y-89602364D01*
X107066368Y-89624798D01*
X107058232Y-89629125D01*
X106971020Y-89676280D01*
X106921429Y-89709730D01*
X106871371Y-89742486D01*
X106864230Y-89748311D01*
X106787838Y-89811507D01*
X106745709Y-89853932D01*
X106702949Y-89895805D01*
X106697075Y-89902906D01*
X106634413Y-89979737D01*
X106601329Y-90029533D01*
X106567512Y-90078921D01*
X106563130Y-90087027D01*
X106516585Y-90174566D01*
X106493813Y-90229816D01*
X106470225Y-90284851D01*
X106467500Y-90293654D01*
X106438844Y-90388568D01*
X106427225Y-90447248D01*
X106414788Y-90505758D01*
X106413825Y-90514923D01*
X106404150Y-90613594D01*
X106404150Y-90613599D01*
X106401000Y-90645582D01*
X106401000Y-91218419D01*
X106403749Y-91246332D01*
X106403728Y-91249367D01*
X106404628Y-91258538D01*
X106409762Y-91307384D01*
X106410550Y-91315383D01*
X106410631Y-91315650D01*
X106414992Y-91357140D01*
X106427016Y-91415714D01*
X106438229Y-91474496D01*
X106440893Y-91483317D01*
X106470211Y-91578028D01*
X106493370Y-91633119D01*
X106515798Y-91688632D01*
X106520125Y-91696768D01*
X106567280Y-91783980D01*
X106600730Y-91833571D01*
X106604936Y-91840000D01*
X94054995Y-91840000D01*
X94058681Y-91834452D01*
X94092488Y-91785079D01*
X94096870Y-91776973D01*
X94143415Y-91689434D01*
X94166197Y-91634159D01*
X94189775Y-91579149D01*
X94192500Y-91570345D01*
X94221156Y-91475432D01*
X94232773Y-91416759D01*
X94245212Y-91358242D01*
X94246175Y-91349077D01*
X94255850Y-91250406D01*
X94255850Y-91250402D01*
X94259000Y-91218419D01*
X94259000Y-90645581D01*
X94256251Y-90617668D01*
X94256272Y-90614633D01*
X94255372Y-90605462D01*
X94250238Y-90556616D01*
X94249450Y-90548617D01*
X94249369Y-90548350D01*
X94245008Y-90506860D01*
X94232984Y-90448286D01*
X94221771Y-90389504D01*
X94219107Y-90380683D01*
X94189789Y-90285973D01*
X94166636Y-90230895D01*
X94144202Y-90175368D01*
X94139875Y-90167232D01*
X94092720Y-90080020D01*
X94059270Y-90030429D01*
X94026514Y-89980371D01*
X94020689Y-89973230D01*
X93957493Y-89896838D01*
X93915058Y-89854699D01*
X93873195Y-89811949D01*
X93866094Y-89806075D01*
X93789263Y-89743413D01*
X93767632Y-89729042D01*
X94006727Y-89630005D01*
X94235535Y-89477120D01*
X94430120Y-89282535D01*
X94583005Y-89053727D01*
X94615000Y-88976485D01*
X94646995Y-89053727D01*
X94799880Y-89282535D01*
X94994465Y-89477120D01*
X95223273Y-89630005D01*
X95477510Y-89735314D01*
X95747408Y-89789000D01*
X96022592Y-89789000D01*
X96292490Y-89735314D01*
X96546727Y-89630005D01*
X96775535Y-89477120D01*
X96970120Y-89282535D01*
X97123005Y-89053727D01*
X97155000Y-88976485D01*
X97186995Y-89053727D01*
X97339880Y-89282535D01*
X97534465Y-89477120D01*
X97763273Y-89630005D01*
X98017510Y-89735314D01*
X98287408Y-89789000D01*
X98562592Y-89789000D01*
X98832490Y-89735314D01*
X99086727Y-89630005D01*
X99315535Y-89477120D01*
X99435090Y-89357565D01*
X100179040Y-89357565D01*
X100246020Y-89597656D01*
X100495048Y-89714756D01*
X100762135Y-89781023D01*
X101037017Y-89793910D01*
X101309133Y-89752922D01*
X101568023Y-89659636D01*
X101683980Y-89597656D01*
X101750960Y-89357565D01*
X100965000Y-88571605D01*
X100179040Y-89357565D01*
X99435090Y-89357565D01*
X99510120Y-89282535D01*
X99663005Y-89053727D01*
X99692692Y-88982057D01*
X99697364Y-88995023D01*
X99759344Y-89110980D01*
X99999435Y-89177960D01*
X100785395Y-88392000D01*
X99999435Y-87606040D01*
X99759344Y-87673020D01*
X99695515Y-87808760D01*
X99663005Y-87730273D01*
X99510120Y-87501465D01*
X99435090Y-87426435D01*
X100179040Y-87426435D01*
X100965000Y-88212395D01*
X101750960Y-87426435D01*
X101683980Y-87186344D01*
X101434952Y-87069244D01*
X101167865Y-87002977D01*
X100892983Y-86990090D01*
X100620867Y-87031078D01*
X100361977Y-87124364D01*
X100246020Y-87186344D01*
X100179040Y-87426435D01*
X99435090Y-87426435D01*
X99315535Y-87306880D01*
X99185000Y-87219659D01*
X99185000Y-87152853D01*
X99287510Y-87195314D01*
X99557408Y-87249000D01*
X99832592Y-87249000D01*
X100102490Y-87195314D01*
X100356727Y-87090005D01*
X100585535Y-86937120D01*
X100780120Y-86742535D01*
X100933005Y-86513727D01*
X100965000Y-86436485D01*
X100996995Y-86513727D01*
X101149880Y-86742535D01*
X101344465Y-86937120D01*
X101573273Y-87090005D01*
X101827510Y-87195314D01*
X102097408Y-87249000D01*
X102372592Y-87249000D01*
X102526570Y-87218372D01*
X102614833Y-87306634D01*
X102614465Y-87306880D01*
X102419880Y-87501465D01*
X102266995Y-87730273D01*
X102237308Y-87801943D01*
X102232636Y-87788977D01*
X102170656Y-87673020D01*
X101930565Y-87606040D01*
X101144605Y-88392000D01*
X101930565Y-89177960D01*
X102170656Y-89110980D01*
X102234485Y-88975240D01*
X102266995Y-89053727D01*
X102419880Y-89282535D01*
X102614465Y-89477120D01*
X102843273Y-89630005D01*
X103097510Y-89735314D01*
X103367408Y-89789000D01*
X103642592Y-89789000D01*
X103912490Y-89735314D01*
X104166727Y-89630005D01*
X104395535Y-89477120D01*
X104590120Y-89282535D01*
X104743005Y-89053727D01*
X104775000Y-88976485D01*
X104806995Y-89053727D01*
X104959880Y-89282535D01*
X105154465Y-89477120D01*
X105383273Y-89630005D01*
X105637510Y-89735314D01*
X105907408Y-89789000D01*
X106182592Y-89789000D01*
X106452490Y-89735314D01*
X106706727Y-89630005D01*
X106935535Y-89477120D01*
X107130120Y-89282535D01*
X107283005Y-89053727D01*
X107388314Y-88799490D01*
X107442000Y-88529592D01*
X107442000Y-88254408D01*
X107388314Y-87984510D01*
X107283005Y-87730273D01*
X107130120Y-87501465D01*
X106935535Y-87306880D01*
X106805000Y-87219659D01*
X106805000Y-87159322D01*
X106805612Y-87153106D01*
X106907510Y-87195314D01*
X107177408Y-87249000D01*
X107452592Y-87249000D01*
X107722490Y-87195314D01*
X107976727Y-87090005D01*
X108205535Y-86937120D01*
X108400120Y-86742535D01*
X108553005Y-86513727D01*
X108658314Y-86259490D01*
X108712000Y-85989592D01*
X108712000Y-85714408D01*
X108658314Y-85444510D01*
X108553005Y-85190273D01*
X108400120Y-84961465D01*
X108205535Y-84766880D01*
X107976727Y-84613995D01*
X107722490Y-84508686D01*
X107452592Y-84455000D01*
X107177408Y-84455000D01*
X107023430Y-84485628D01*
X106717362Y-84179561D01*
X106768382Y-84137690D01*
X106837690Y-84068382D01*
X106917042Y-83971691D01*
X106971498Y-83890192D01*
X107030464Y-83779875D01*
X107067973Y-83689319D01*
X107104282Y-83569623D01*
X107123404Y-83473490D01*
X107135664Y-83349009D01*
X107135664Y-83324450D01*
X107138072Y-83300000D01*
X107138072Y-82800000D01*
X107134132Y-82760000D01*
X107168954Y-82760000D01*
X107219463Y-82854494D01*
X107298815Y-82951185D01*
X107395506Y-83030537D01*
X107505820Y-83089502D01*
X107625518Y-83125812D01*
X107750000Y-83138072D01*
X109250000Y-83138072D01*
X109374482Y-83125812D01*
X109494180Y-83089502D01*
X109604494Y-83030537D01*
X109701185Y-82951185D01*
X109780537Y-82854494D01*
X109839502Y-82744180D01*
X109875812Y-82624482D01*
X109888072Y-82500000D01*
X109888072Y-82000000D01*
X109885664Y-81975550D01*
X109885664Y-81950991D01*
X109873404Y-81826510D01*
X109854282Y-81730377D01*
X109817973Y-81610681D01*
X109780464Y-81520125D01*
X109721498Y-81409808D01*
X109667042Y-81328309D01*
X109587690Y-81231618D01*
X109518382Y-81162310D01*
X109421691Y-81082958D01*
X109340192Y-81028502D01*
X109229875Y-80969536D01*
X109139319Y-80932027D01*
X109019623Y-80895718D01*
X108923490Y-80876596D01*
X108799009Y-80864336D01*
X108774450Y-80864336D01*
X108750000Y-80861928D01*
X108250000Y-80861928D01*
X108225550Y-80864336D01*
X108200991Y-80864336D01*
X108076510Y-80876596D01*
X107980377Y-80895718D01*
X107860681Y-80932027D01*
X107770125Y-80969536D01*
X107659808Y-81028502D01*
X107578309Y-81082958D01*
X107481618Y-81162310D01*
X107412310Y-81231618D01*
X107405431Y-81240000D01*
X106844569Y-81240000D01*
X106837690Y-81231618D01*
X106768382Y-81162310D01*
X106671691Y-81082958D01*
X106590192Y-81028502D01*
X106479875Y-80969536D01*
X106389319Y-80932027D01*
X106269623Y-80895718D01*
X106173490Y-80876596D01*
X106049009Y-80864336D01*
X106024450Y-80864336D01*
X106000000Y-80861928D01*
X105500000Y-80861928D01*
X105475550Y-80864336D01*
X105450991Y-80864336D01*
X105326510Y-80876596D01*
X105230377Y-80895718D01*
X105110681Y-80932027D01*
X105020125Y-80969536D01*
X104909808Y-81028502D01*
X104828309Y-81082958D01*
X104731618Y-81162310D01*
X104662310Y-81231618D01*
X104655431Y-81240000D01*
X104094569Y-81240000D01*
X104087690Y-81231618D01*
X104018382Y-81162310D01*
X103921691Y-81082958D01*
X103840192Y-81028502D01*
X103729875Y-80969536D01*
X103639319Y-80932027D01*
X103519623Y-80895718D01*
X103423490Y-80876596D01*
X103299009Y-80864336D01*
X103274450Y-80864336D01*
X103250000Y-80861928D01*
X102750000Y-80861928D01*
X102725550Y-80864336D01*
X102700991Y-80864336D01*
X102576510Y-80876596D01*
X102480377Y-80895718D01*
X102360681Y-80932027D01*
X102270125Y-80969536D01*
X102159808Y-81028502D01*
X102078309Y-81082958D01*
X101981618Y-81162310D01*
X101912310Y-81231618D01*
X101905431Y-81240000D01*
X101344569Y-81240000D01*
X101337690Y-81231618D01*
X101268382Y-81162310D01*
X101171691Y-81082958D01*
X101090192Y-81028502D01*
X100979875Y-80969536D01*
X100889319Y-80932027D01*
X100769623Y-80895718D01*
X100673490Y-80876596D01*
X100549009Y-80864336D01*
X100524450Y-80864336D01*
X100500000Y-80861928D01*
X100000000Y-80861928D01*
X99975550Y-80864336D01*
X99950991Y-80864336D01*
X99826510Y-80876596D01*
X99730377Y-80895718D01*
X99610681Y-80932027D01*
X99520125Y-80969536D01*
X99409808Y-81028502D01*
X99328309Y-81082958D01*
X99231618Y-81162310D01*
X99162310Y-81231618D01*
X99082958Y-81328309D01*
X99028502Y-81409808D01*
X98969536Y-81520125D01*
X98932027Y-81610681D01*
X98895718Y-81730377D01*
X98876596Y-81826510D01*
X98864336Y-81950991D01*
X98864336Y-81975550D01*
X98861928Y-82000000D01*
X98861928Y-82500000D01*
X98874188Y-82624482D01*
X98881929Y-82650000D01*
X98875000Y-82672841D01*
X98839502Y-82555820D01*
X98780537Y-82445506D01*
X98701185Y-82348815D01*
X98604494Y-82269463D01*
X98494180Y-82210498D01*
X98374482Y-82174188D01*
X98250000Y-82161928D01*
X96750000Y-82161928D01*
X96625518Y-82174188D01*
X96505820Y-82210498D01*
X96395506Y-82269463D01*
X96298815Y-82348815D01*
X96219463Y-82445506D01*
X96160498Y-82555820D01*
X96125000Y-82672841D01*
X96089502Y-82555820D01*
X96030537Y-82445506D01*
X95951185Y-82348815D01*
X95854494Y-82269463D01*
X95744180Y-82210498D01*
X95624482Y-82174188D01*
X95500000Y-82161928D01*
X94000000Y-82161928D01*
X93875518Y-82174188D01*
X93755820Y-82210498D01*
X93645506Y-82269463D01*
X93548815Y-82348815D01*
X93469463Y-82445506D01*
X93410498Y-82555820D01*
X93375000Y-82672841D01*
X93339502Y-82555820D01*
X93280537Y-82445506D01*
X93201185Y-82348815D01*
X93104494Y-82269463D01*
X92994180Y-82210498D01*
X92874482Y-82174188D01*
X92750000Y-82161928D01*
X91250000Y-82161928D01*
X91125518Y-82174188D01*
X91005820Y-82210498D01*
X90895506Y-82269463D01*
X90798815Y-82348815D01*
X90719463Y-82445506D01*
X90660498Y-82555820D01*
X90624188Y-82675518D01*
X90611928Y-82800000D01*
X90611928Y-83300000D01*
X90614336Y-83324450D01*
X90614336Y-83349009D01*
X90626596Y-83473490D01*
X90645718Y-83569623D01*
X90682027Y-83689319D01*
X90719536Y-83779875D01*
X90778502Y-83890192D01*
X90832958Y-83971691D01*
X90912310Y-84068382D01*
X90981618Y-84137690D01*
X91078309Y-84217042D01*
X91159808Y-84271498D01*
X91270125Y-84330464D01*
X91360681Y-84367973D01*
X91480377Y-84404282D01*
X91576510Y-84423404D01*
X91700991Y-84435664D01*
X91725550Y-84435664D01*
X91750000Y-84438072D01*
X92126271Y-84438072D01*
X93248628Y-85560430D01*
X93218000Y-85714408D01*
X93218000Y-85989592D01*
X93271686Y-86259490D01*
X93376995Y-86513727D01*
X93529880Y-86742535D01*
X93724465Y-86937120D01*
X93953273Y-87090005D01*
X94207510Y-87195314D01*
X94477408Y-87249000D01*
X94752592Y-87249000D01*
X95022490Y-87195314D01*
X95125000Y-87152853D01*
X95125000Y-87219659D01*
X94994465Y-87306880D01*
X94799880Y-87501465D01*
X94646995Y-87730273D01*
X94615000Y-87807515D01*
X94583005Y-87730273D01*
X94430120Y-87501465D01*
X94235535Y-87306880D01*
X94006727Y-87153995D01*
X93752490Y-87048686D01*
X93482592Y-86995000D01*
X93207408Y-86995000D01*
X92937510Y-87048686D01*
X92683273Y-87153995D01*
X92454465Y-87306880D01*
X92259880Y-87501465D01*
X92106995Y-87730273D01*
X92001686Y-87984510D01*
X91948000Y-88254408D01*
X91948000Y-88529592D01*
X92001686Y-88799490D01*
X92106995Y-89053727D01*
X92259880Y-89282535D01*
X92454465Y-89477120D01*
X92503673Y-89510000D01*
X90264581Y-89510000D01*
X90236668Y-89512749D01*
X90233633Y-89512728D01*
X90224462Y-89513628D01*
X90175616Y-89518762D01*
X90167617Y-89519550D01*
X90167350Y-89519631D01*
X90125860Y-89523992D01*
X90067286Y-89536016D01*
X90008504Y-89547229D01*
X89999683Y-89549893D01*
X89904973Y-89579211D01*
X89849895Y-89602364D01*
X89794368Y-89624798D01*
X89786232Y-89629125D01*
X89699020Y-89676280D01*
X89649429Y-89709730D01*
X89599371Y-89742486D01*
X89592230Y-89748311D01*
X89515838Y-89811507D01*
X89473709Y-89853932D01*
X89430949Y-89895805D01*
X89425075Y-89902906D01*
X89362413Y-89979737D01*
X89329329Y-90029533D01*
X89295512Y-90078921D01*
X89291130Y-90087027D01*
X89244585Y-90174566D01*
X89221813Y-90229816D01*
X89198225Y-90284851D01*
X89195500Y-90293654D01*
X89166844Y-90388568D01*
X89155225Y-90447248D01*
X89142788Y-90505758D01*
X89141825Y-90514923D01*
X89132150Y-90613594D01*
X89132150Y-90613599D01*
X89129000Y-90645582D01*
X89129000Y-91218419D01*
X89131749Y-91246332D01*
X89131728Y-91249367D01*
X89132628Y-91258538D01*
X89137762Y-91307384D01*
X89138550Y-91315383D01*
X89138631Y-91315650D01*
X89142992Y-91357140D01*
X89155016Y-91415714D01*
X89166229Y-91474496D01*
X89168893Y-91483317D01*
X89198211Y-91578028D01*
X89221370Y-91633119D01*
X89243798Y-91688632D01*
X89248125Y-91696768D01*
X89295280Y-91783980D01*
X89328730Y-91833571D01*
X89332936Y-91840000D01*
X87282279Y-91840000D01*
X86990340Y-91811375D01*
X86740571Y-91735965D01*
X86510206Y-91613477D01*
X86308021Y-91448579D01*
X86141712Y-91247546D01*
X86017622Y-91018046D01*
X85940469Y-90768805D01*
X85910000Y-90478911D01*
X85910000Y-79522474D01*
X86043024Y-79721558D01*
X86528442Y-80206976D01*
X87099234Y-80588367D01*
X87733463Y-80851073D01*
X88406758Y-80985000D01*
X89093242Y-80985000D01*
X89766537Y-80851073D01*
X90400766Y-80588367D01*
X90971558Y-80206976D01*
X91456976Y-79721558D01*
X91838367Y-79150766D01*
X92086363Y-78552050D01*
X95265000Y-78552050D01*
X95265000Y-78947949D01*
X95286487Y-79166110D01*
X95371401Y-79446033D01*
X95509294Y-79704013D01*
X95694866Y-79930134D01*
X95920986Y-80115706D01*
X96178966Y-80253599D01*
X96458889Y-80338513D01*
X96750000Y-80367185D01*
X97041110Y-80338513D01*
X97321033Y-80253599D01*
X97579013Y-80115706D01*
X97805134Y-79930134D01*
X97990706Y-79704014D01*
X98000000Y-79686626D01*
X98009294Y-79704013D01*
X98194866Y-79930134D01*
X98420986Y-80115706D01*
X98678966Y-80253599D01*
X98958889Y-80338513D01*
X99250000Y-80367185D01*
X99541110Y-80338513D01*
X99821033Y-80253599D01*
X100079013Y-80115706D01*
X100305134Y-79930134D01*
X100490706Y-79704014D01*
X100504462Y-79678278D01*
X100660951Y-79884429D01*
X100878807Y-80077496D01*
X101130142Y-80224352D01*
X101393110Y-80316476D01*
X101623000Y-80195155D01*
X101623000Y-78877000D01*
X101603000Y-78877000D01*
X101603000Y-78623000D01*
X101623000Y-78623000D01*
X101623000Y-77304845D01*
X101877000Y-77304845D01*
X101877000Y-78623000D01*
X101897000Y-78623000D01*
X101897000Y-78877000D01*
X101877000Y-78877000D01*
X101877000Y-80195155D01*
X102106890Y-80316476D01*
X102369858Y-80224352D01*
X102621193Y-80077496D01*
X102839049Y-79884429D01*
X102855286Y-79863039D01*
X102911595Y-79968386D01*
X103022038Y-80102962D01*
X103156614Y-80213405D01*
X103310150Y-80295472D01*
X103476746Y-80346008D01*
X103650000Y-80363072D01*
X104850000Y-80363072D01*
X105023254Y-80346008D01*
X105189850Y-80295472D01*
X105343386Y-80213405D01*
X105477962Y-80102962D01*
X105588405Y-79968386D01*
X105670472Y-79814850D01*
X105721008Y-79648254D01*
X105738072Y-79475000D01*
X105738072Y-78025000D01*
X105721008Y-77851746D01*
X105670472Y-77685150D01*
X105588405Y-77531614D01*
X105477962Y-77397038D01*
X105343386Y-77286595D01*
X105189850Y-77204528D01*
X105023254Y-77153992D01*
X104850000Y-77136928D01*
X103650000Y-77136928D01*
X103476746Y-77153992D01*
X103310150Y-77204528D01*
X103156614Y-77286595D01*
X103022038Y-77397038D01*
X102911595Y-77531614D01*
X102855286Y-77636961D01*
X102839049Y-77615571D01*
X102621193Y-77422504D01*
X102369858Y-77275648D01*
X102106890Y-77183524D01*
X101877000Y-77304845D01*
X101623000Y-77304845D01*
X101393110Y-77183524D01*
X101130142Y-77275648D01*
X100878807Y-77422504D01*
X100660951Y-77615571D01*
X100504462Y-77821722D01*
X100490706Y-77795986D01*
X100305134Y-77569866D01*
X100079014Y-77384294D01*
X99821034Y-77246401D01*
X99541111Y-77161487D01*
X99250000Y-77132815D01*
X98958890Y-77161487D01*
X98678967Y-77246401D01*
X98420987Y-77384294D01*
X98194866Y-77569866D01*
X98009294Y-77795986D01*
X98000000Y-77813374D01*
X97990706Y-77795986D01*
X97805134Y-77569866D01*
X97579014Y-77384294D01*
X97321034Y-77246401D01*
X97041111Y-77161487D01*
X96750000Y-77132815D01*
X96458890Y-77161487D01*
X96178967Y-77246401D01*
X95920987Y-77384294D01*
X95694866Y-77569866D01*
X95509294Y-77795986D01*
X95371401Y-78053966D01*
X95286487Y-78333889D01*
X95265000Y-78552050D01*
X92086363Y-78552050D01*
X92101073Y-78516537D01*
X92235000Y-77843242D01*
X92235000Y-77156758D01*
X92101073Y-76483463D01*
X91838367Y-75849234D01*
X91456976Y-75278442D01*
X90971558Y-74793024D01*
X90400766Y-74411633D01*
X89766537Y-74148927D01*
X89093242Y-74015000D01*
X88406758Y-74015000D01*
X87733463Y-74148927D01*
X87099234Y-74411633D01*
X86528442Y-74793024D01*
X86043024Y-75278442D01*
X85910000Y-75477526D01*
X85910000Y-72032279D01*
X85938625Y-71740341D01*
X86014035Y-71490571D01*
X86136522Y-71260208D01*
X86301422Y-71058020D01*
X86502450Y-70891714D01*
X86731954Y-70767622D01*
X86981195Y-70690469D01*
X87271088Y-70660000D01*
X113217721Y-70660000D01*
X113509659Y-70688625D01*
G37*
G04 #@! TD.AperFunction*
M02*
