G04 #@! TF.GenerationSoftware,KiCad,Pcbnew,5.1.9+dfsg1-1*
G04 #@! TF.CreationDate,2023-03-08T16:00:21+09:00*
G04 #@! TF.ProjectId,audio-io-breakout-pajeromini,61756469-6f2d-4696-9f2d-627265616b6f,rev?*
G04 #@! TF.SameCoordinates,Original*
G04 #@! TF.FileFunction,Legend,Bot*
G04 #@! TF.FilePolarity,Positive*
%FSLAX46Y46*%
G04 Gerber Fmt 4.6, Leading zero omitted, Abs format (unit mm)*
G04 Created by KiCad (PCBNEW 5.1.9+dfsg1-1) date 2023-03-08 16:00:21*
%MOMM*%
%LPD*%
G01*
G04 APERTURE LIST*
%ADD10C,0.100000*%
%ADD11C,0.120000*%
%ADD12C,0.150000*%
%ADD13C,5.700000*%
%ADD14C,1.524000*%
%ADD15O,1.700000X1.950000*%
G04 APERTURE END LIST*
D10*
X106916666Y-80833333D02*
X106678571Y-80833333D01*
X106964285Y-80976190D02*
X106797619Y-80476190D01*
X106630952Y-80976190D01*
X106202380Y-80500000D02*
X106250000Y-80476190D01*
X106321428Y-80476190D01*
X106392857Y-80500000D01*
X106440476Y-80547619D01*
X106464285Y-80595238D01*
X106488095Y-80690476D01*
X106488095Y-80761904D01*
X106464285Y-80857142D01*
X106440476Y-80904761D01*
X106392857Y-80952380D01*
X106321428Y-80976190D01*
X106273809Y-80976190D01*
X106202380Y-80952380D01*
X106178571Y-80928571D01*
X106178571Y-80761904D01*
X106273809Y-80761904D01*
X105964285Y-80785714D02*
X105583333Y-80785714D01*
X105369047Y-80952380D02*
X105297619Y-80976190D01*
X105178571Y-80976190D01*
X105130952Y-80952380D01*
X105107142Y-80928571D01*
X105083333Y-80880952D01*
X105083333Y-80833333D01*
X105107142Y-80785714D01*
X105130952Y-80761904D01*
X105178571Y-80738095D01*
X105273809Y-80714285D01*
X105321428Y-80690476D01*
X105345238Y-80666666D01*
X105369047Y-80619047D01*
X105369047Y-80571428D01*
X105345238Y-80523809D01*
X105321428Y-80500000D01*
X105273809Y-80476190D01*
X105154761Y-80476190D01*
X105083333Y-80500000D01*
X104607142Y-80500000D02*
X104654761Y-80476190D01*
X104726190Y-80476190D01*
X104797619Y-80500000D01*
X104845238Y-80547619D01*
X104869047Y-80595238D01*
X104892857Y-80690476D01*
X104892857Y-80761904D01*
X104869047Y-80857142D01*
X104845238Y-80904761D01*
X104797619Y-80952380D01*
X104726190Y-80976190D01*
X104678571Y-80976190D01*
X104607142Y-80952380D01*
X104583333Y-80928571D01*
X104583333Y-80761904D01*
X104678571Y-80761904D01*
X110190476Y-80833333D02*
X109952380Y-80833333D01*
X110238095Y-80976190D02*
X110071428Y-80476190D01*
X109904761Y-80976190D01*
X109476190Y-80500000D02*
X109523809Y-80476190D01*
X109595238Y-80476190D01*
X109666666Y-80500000D01*
X109714285Y-80547619D01*
X109738095Y-80595238D01*
X109761904Y-80690476D01*
X109761904Y-80761904D01*
X109738095Y-80857142D01*
X109714285Y-80904761D01*
X109666666Y-80952380D01*
X109595238Y-80976190D01*
X109547619Y-80976190D01*
X109476190Y-80952380D01*
X109452380Y-80928571D01*
X109452380Y-80761904D01*
X109547619Y-80761904D01*
X109238095Y-80785714D02*
X108857142Y-80785714D01*
X108357142Y-80500000D02*
X108404761Y-80476190D01*
X108476190Y-80476190D01*
X108547619Y-80500000D01*
X108595238Y-80547619D01*
X108619047Y-80595238D01*
X108642857Y-80690476D01*
X108642857Y-80761904D01*
X108619047Y-80857142D01*
X108595238Y-80904761D01*
X108547619Y-80952380D01*
X108476190Y-80976190D01*
X108428571Y-80976190D01*
X108357142Y-80952380D01*
X108333333Y-80928571D01*
X108333333Y-80761904D01*
X108428571Y-80761904D01*
X108119047Y-80976190D02*
X108119047Y-80476190D01*
X107833333Y-80976190D01*
X107833333Y-80476190D01*
X107595238Y-80976190D02*
X107595238Y-80476190D01*
X107476190Y-80476190D01*
X107404761Y-80500000D01*
X107357142Y-80547619D01*
X107333333Y-80595238D01*
X107309523Y-80690476D01*
X107309523Y-80761904D01*
X107333333Y-80857142D01*
X107357142Y-80904761D01*
X107404761Y-80952380D01*
X107476190Y-80976190D01*
X107595238Y-80976190D01*
X103416666Y-80976190D02*
X103583333Y-80738095D01*
X103702380Y-80976190D02*
X103702380Y-80476190D01*
X103511904Y-80476190D01*
X103464285Y-80500000D01*
X103440476Y-80523809D01*
X103416666Y-80571428D01*
X103416666Y-80642857D01*
X103440476Y-80690476D01*
X103464285Y-80714285D01*
X103511904Y-80738095D01*
X103702380Y-80738095D01*
X103202380Y-80976190D02*
X103202380Y-80476190D01*
X102702380Y-80500000D02*
X102750000Y-80476190D01*
X102821428Y-80476190D01*
X102892857Y-80500000D01*
X102940476Y-80547619D01*
X102964285Y-80595238D01*
X102988095Y-80690476D01*
X102988095Y-80761904D01*
X102964285Y-80857142D01*
X102940476Y-80904761D01*
X102892857Y-80952380D01*
X102821428Y-80976190D01*
X102773809Y-80976190D01*
X102702380Y-80952380D01*
X102678571Y-80928571D01*
X102678571Y-80761904D01*
X102773809Y-80761904D01*
X102464285Y-80976190D02*
X102464285Y-80476190D01*
X102464285Y-80714285D02*
X102178571Y-80714285D01*
X102178571Y-80976190D02*
X102178571Y-80476190D01*
X102011904Y-80476190D02*
X101726190Y-80476190D01*
X101869047Y-80976190D02*
X101869047Y-80476190D01*
X100726190Y-80976190D02*
X100964285Y-80976190D01*
X100964285Y-80476190D01*
X100559523Y-80714285D02*
X100392857Y-80714285D01*
X100321428Y-80976190D02*
X100559523Y-80976190D01*
X100559523Y-80476190D01*
X100321428Y-80476190D01*
X99940476Y-80714285D02*
X100107142Y-80714285D01*
X100107142Y-80976190D02*
X100107142Y-80476190D01*
X99869047Y-80476190D01*
X99750000Y-80476190D02*
X99464285Y-80476190D01*
X99607142Y-80976190D02*
X99607142Y-80476190D01*
X98000000Y-80976190D02*
X98000000Y-80476190D01*
X97880952Y-80476190D01*
X97809523Y-80500000D01*
X97761904Y-80547619D01*
X97738095Y-80595238D01*
X97714285Y-80690476D01*
X97714285Y-80761904D01*
X97738095Y-80857142D01*
X97761904Y-80904761D01*
X97809523Y-80952380D01*
X97880952Y-80976190D01*
X98000000Y-80976190D01*
X97500000Y-80976190D02*
X97500000Y-80476190D01*
X96976190Y-80976190D02*
X97142857Y-80738095D01*
X97261904Y-80976190D02*
X97261904Y-80476190D01*
X97071428Y-80476190D01*
X97023809Y-80500000D01*
X97000000Y-80523809D01*
X96976190Y-80571428D01*
X96976190Y-80642857D01*
X97000000Y-80690476D01*
X97023809Y-80714285D01*
X97071428Y-80738095D01*
X97261904Y-80738095D01*
X95595238Y-80976190D02*
X95595238Y-80476190D01*
X95428571Y-80833333D01*
X95261904Y-80476190D01*
X95261904Y-80976190D01*
X95023809Y-80476190D02*
X95023809Y-80880952D01*
X95000000Y-80928571D01*
X94976190Y-80952380D01*
X94928571Y-80976190D01*
X94833333Y-80976190D01*
X94785714Y-80952380D01*
X94761904Y-80928571D01*
X94738095Y-80880952D01*
X94738095Y-80476190D01*
X94571428Y-80476190D02*
X94285714Y-80476190D01*
X94428571Y-80976190D02*
X94428571Y-80476190D01*
X94119047Y-80714285D02*
X93952380Y-80714285D01*
X93880952Y-80976190D02*
X94119047Y-80976190D01*
X94119047Y-80476190D01*
X93880952Y-80476190D01*
X93250000Y-80976190D02*
X93250000Y-80476190D01*
X93059523Y-80476190D01*
X93011904Y-80500000D01*
X92988095Y-80523809D01*
X92964285Y-80571428D01*
X92964285Y-80642857D01*
X92988095Y-80690476D01*
X93011904Y-80714285D01*
X93059523Y-80738095D01*
X93250000Y-80738095D01*
X92797619Y-80476190D02*
X92678571Y-80976190D01*
X92583333Y-80619047D01*
X92488095Y-80976190D01*
X92369047Y-80476190D01*
X91892857Y-80976190D02*
X92059523Y-80738095D01*
X92178571Y-80976190D02*
X92178571Y-80476190D01*
X91988095Y-80476190D01*
X91940476Y-80500000D01*
X91916666Y-80523809D01*
X91892857Y-80571428D01*
X91892857Y-80642857D01*
X91916666Y-80690476D01*
X91940476Y-80714285D01*
X91988095Y-80738095D01*
X92178571Y-80738095D01*
X91678571Y-80785714D02*
X91297619Y-80785714D01*
X91083333Y-80952380D02*
X91011904Y-80976190D01*
X90892857Y-80976190D01*
X90845238Y-80952380D01*
X90821428Y-80928571D01*
X90797619Y-80880952D01*
X90797619Y-80833333D01*
X90821428Y-80785714D01*
X90845238Y-80761904D01*
X90892857Y-80738095D01*
X90988095Y-80714285D01*
X91035714Y-80690476D01*
X91059523Y-80666666D01*
X91083333Y-80619047D01*
X91083333Y-80571428D01*
X91059523Y-80523809D01*
X91035714Y-80500000D01*
X90988095Y-80476190D01*
X90869047Y-80476190D01*
X90797619Y-80500000D01*
X90630952Y-80476190D02*
X90511904Y-80976190D01*
X90416666Y-80619047D01*
X90321428Y-80976190D01*
X90202380Y-80476190D01*
D11*
X108585000Y-84582000D02*
X92075000Y-84582000D01*
X92075000Y-84582000D02*
X92075000Y-89662000D01*
X92075000Y-89662000D02*
X108585000Y-89662000D01*
X108585000Y-89662000D02*
X108585000Y-84582000D01*
X103300000Y-81250000D02*
X102700000Y-81250000D01*
X104000000Y-83350000D02*
X104000000Y-81950000D01*
X102700000Y-84050000D02*
X103300000Y-84050000D01*
X102000000Y-81950000D02*
X102000000Y-83350000D01*
X102000000Y-83350000D02*
G75*
G03*
X102700000Y-84050000I700000J0D01*
G01*
X103300000Y-84050000D02*
G75*
G03*
X104000000Y-83350000I0J700000D01*
G01*
X104000000Y-81950000D02*
G75*
G03*
X103300000Y-81250000I-700000J0D01*
G01*
X102700000Y-81250000D02*
G75*
G03*
X102000000Y-81950000I0J-700000D01*
G01*
X99250000Y-81950000D02*
X99250000Y-83350000D01*
X99950000Y-84050000D02*
X100550000Y-84050000D01*
X101250000Y-83350000D02*
X101250000Y-81950000D01*
X100550000Y-81250000D02*
X99950000Y-81250000D01*
X99950000Y-81250000D02*
G75*
G03*
X99250000Y-81950000I0J-700000D01*
G01*
X101250000Y-81950000D02*
G75*
G03*
X100550000Y-81250000I-700000J0D01*
G01*
X100550000Y-84050000D02*
G75*
G03*
X101250000Y-83350000I0J700000D01*
G01*
X99250000Y-83350000D02*
G75*
G03*
X99950000Y-84050000I700000J0D01*
G01*
X92300000Y-81250000D02*
X91700000Y-81250000D01*
X93000000Y-83350000D02*
X93000000Y-81950000D01*
X91700000Y-84050000D02*
X92300000Y-84050000D01*
X91000000Y-81950000D02*
X91000000Y-83350000D01*
X91000000Y-83350000D02*
G75*
G03*
X91700000Y-84050000I700000J0D01*
G01*
X92300000Y-84050000D02*
G75*
G03*
X93000000Y-83350000I0J700000D01*
G01*
X93000000Y-81950000D02*
G75*
G03*
X92300000Y-81250000I-700000J0D01*
G01*
X91700000Y-81250000D02*
G75*
G03*
X91000000Y-81950000I0J-700000D01*
G01*
X96500000Y-81950000D02*
X96500000Y-83350000D01*
X97200000Y-84050000D02*
X97800000Y-84050000D01*
X98500000Y-83350000D02*
X98500000Y-81950000D01*
X97800000Y-81250000D02*
X97200000Y-81250000D01*
X97200000Y-81250000D02*
G75*
G03*
X96500000Y-81950000I0J-700000D01*
G01*
X98500000Y-81950000D02*
G75*
G03*
X97800000Y-81250000I-700000J0D01*
G01*
X97800000Y-84050000D02*
G75*
G03*
X98500000Y-83350000I0J700000D01*
G01*
X96500000Y-83350000D02*
G75*
G03*
X97200000Y-84050000I700000J0D01*
G01*
X94450000Y-84050000D02*
X95050000Y-84050000D01*
X93750000Y-81950000D02*
X93750000Y-83350000D01*
X95050000Y-81250000D02*
X94450000Y-81250000D01*
X95750000Y-83350000D02*
X95750000Y-81950000D01*
X95750000Y-81950000D02*
G75*
G03*
X95050000Y-81250000I-700000J0D01*
G01*
X94450000Y-81250000D02*
G75*
G03*
X93750000Y-81950000I0J-700000D01*
G01*
X93750000Y-83350000D02*
G75*
G03*
X94450000Y-84050000I700000J0D01*
G01*
X95050000Y-84050000D02*
G75*
G03*
X95750000Y-83350000I0J700000D01*
G01*
X105450000Y-84050000D02*
X106050000Y-84050000D01*
X104750000Y-81950000D02*
X104750000Y-83350000D01*
X106050000Y-81250000D02*
X105450000Y-81250000D01*
X106750000Y-83350000D02*
X106750000Y-81950000D01*
X106750000Y-81950000D02*
G75*
G03*
X106050000Y-81250000I-700000J0D01*
G01*
X105450000Y-81250000D02*
G75*
G03*
X104750000Y-81950000I0J-700000D01*
G01*
X104750000Y-83350000D02*
G75*
G03*
X105450000Y-84050000I700000J0D01*
G01*
X106050000Y-84050000D02*
G75*
G03*
X106750000Y-83350000I0J700000D01*
G01*
X109500000Y-83350000D02*
X109500000Y-81950000D01*
X108800000Y-81250000D02*
X108200000Y-81250000D01*
X107500000Y-81950000D02*
X107500000Y-83350000D01*
X108200000Y-84050000D02*
X108800000Y-84050000D01*
X109500000Y-81950000D02*
G75*
G03*
X108800000Y-81250000I-700000J0D01*
G01*
X108200000Y-81250000D02*
G75*
G03*
X107500000Y-81950000I0J-700000D01*
G01*
X107500000Y-83350000D02*
G75*
G03*
X108200000Y-84050000I700000J0D01*
G01*
X108800000Y-84050000D02*
G75*
G03*
X109500000Y-83350000I0J700000D01*
G01*
D12*
X108029333Y-88352380D02*
X108029333Y-89066666D01*
X108076952Y-89209523D01*
X108172190Y-89304761D01*
X108315047Y-89352380D01*
X108410285Y-89352380D01*
X107029333Y-89352380D02*
X107600761Y-89352380D01*
X107315047Y-89352380D02*
X107315047Y-88352380D01*
X107410285Y-88495238D01*
X107505523Y-88590476D01*
X107600761Y-88638095D01*
%LPC*%
D13*
X88750000Y-77500000D03*
X112000000Y-77500000D03*
D14*
X107315000Y-85852000D03*
X104775000Y-85852000D03*
X102235000Y-85852000D03*
X99695000Y-85852000D03*
X97155000Y-85852000D03*
X94615000Y-85852000D03*
X106045000Y-88392000D03*
X103505000Y-88392000D03*
X100965000Y-88392000D03*
X98425000Y-88392000D03*
X95885000Y-88392000D03*
X93345000Y-88392000D03*
D10*
G36*
X102250000Y-82500000D02*
G01*
X102250000Y-82000000D01*
X102250602Y-82000000D01*
X102250602Y-81975466D01*
X102255412Y-81926635D01*
X102264984Y-81878510D01*
X102279228Y-81831555D01*
X102298005Y-81786222D01*
X102321136Y-81742949D01*
X102348396Y-81702150D01*
X102379524Y-81664221D01*
X102414221Y-81629524D01*
X102452150Y-81598396D01*
X102492949Y-81571136D01*
X102536222Y-81548005D01*
X102581555Y-81529228D01*
X102628510Y-81514984D01*
X102676635Y-81505412D01*
X102725466Y-81500602D01*
X102750000Y-81500602D01*
X102750000Y-81500000D01*
X103250000Y-81500000D01*
X103250000Y-81500602D01*
X103274534Y-81500602D01*
X103323365Y-81505412D01*
X103371490Y-81514984D01*
X103418445Y-81529228D01*
X103463778Y-81548005D01*
X103507051Y-81571136D01*
X103547850Y-81598396D01*
X103585779Y-81629524D01*
X103620476Y-81664221D01*
X103651604Y-81702150D01*
X103678864Y-81742949D01*
X103701995Y-81786222D01*
X103720772Y-81831555D01*
X103735016Y-81878510D01*
X103744588Y-81926635D01*
X103749398Y-81975466D01*
X103749398Y-82000000D01*
X103750000Y-82000000D01*
X103750000Y-82500000D01*
X102250000Y-82500000D01*
G37*
G36*
X103749398Y-83300000D02*
G01*
X103749398Y-83324534D01*
X103744588Y-83373365D01*
X103735016Y-83421490D01*
X103720772Y-83468445D01*
X103701995Y-83513778D01*
X103678864Y-83557051D01*
X103651604Y-83597850D01*
X103620476Y-83635779D01*
X103585779Y-83670476D01*
X103547850Y-83701604D01*
X103507051Y-83728864D01*
X103463778Y-83751995D01*
X103418445Y-83770772D01*
X103371490Y-83785016D01*
X103323365Y-83794588D01*
X103274534Y-83799398D01*
X103250000Y-83799398D01*
X103250000Y-83800000D01*
X102750000Y-83800000D01*
X102750000Y-83799398D01*
X102725466Y-83799398D01*
X102676635Y-83794588D01*
X102628510Y-83785016D01*
X102581555Y-83770772D01*
X102536222Y-83751995D01*
X102492949Y-83728864D01*
X102452150Y-83701604D01*
X102414221Y-83670476D01*
X102379524Y-83635779D01*
X102348396Y-83597850D01*
X102321136Y-83557051D01*
X102298005Y-83513778D01*
X102279228Y-83468445D01*
X102264984Y-83421490D01*
X102255412Y-83373365D01*
X102250602Y-83324534D01*
X102250602Y-83300000D01*
X102250000Y-83300000D01*
X102250000Y-82800000D01*
X103750000Y-82800000D01*
X103750000Y-83300000D01*
X103749398Y-83300000D01*
G37*
G36*
X100999398Y-83300000D02*
G01*
X100999398Y-83324534D01*
X100994588Y-83373365D01*
X100985016Y-83421490D01*
X100970772Y-83468445D01*
X100951995Y-83513778D01*
X100928864Y-83557051D01*
X100901604Y-83597850D01*
X100870476Y-83635779D01*
X100835779Y-83670476D01*
X100797850Y-83701604D01*
X100757051Y-83728864D01*
X100713778Y-83751995D01*
X100668445Y-83770772D01*
X100621490Y-83785016D01*
X100573365Y-83794588D01*
X100524534Y-83799398D01*
X100500000Y-83799398D01*
X100500000Y-83800000D01*
X100000000Y-83800000D01*
X100000000Y-83799398D01*
X99975466Y-83799398D01*
X99926635Y-83794588D01*
X99878510Y-83785016D01*
X99831555Y-83770772D01*
X99786222Y-83751995D01*
X99742949Y-83728864D01*
X99702150Y-83701604D01*
X99664221Y-83670476D01*
X99629524Y-83635779D01*
X99598396Y-83597850D01*
X99571136Y-83557051D01*
X99548005Y-83513778D01*
X99529228Y-83468445D01*
X99514984Y-83421490D01*
X99505412Y-83373365D01*
X99500602Y-83324534D01*
X99500602Y-83300000D01*
X99500000Y-83300000D01*
X99500000Y-82800000D01*
X101000000Y-82800000D01*
X101000000Y-83300000D01*
X100999398Y-83300000D01*
G37*
G36*
X99500000Y-82500000D02*
G01*
X99500000Y-82000000D01*
X99500602Y-82000000D01*
X99500602Y-81975466D01*
X99505412Y-81926635D01*
X99514984Y-81878510D01*
X99529228Y-81831555D01*
X99548005Y-81786222D01*
X99571136Y-81742949D01*
X99598396Y-81702150D01*
X99629524Y-81664221D01*
X99664221Y-81629524D01*
X99702150Y-81598396D01*
X99742949Y-81571136D01*
X99786222Y-81548005D01*
X99831555Y-81529228D01*
X99878510Y-81514984D01*
X99926635Y-81505412D01*
X99975466Y-81500602D01*
X100000000Y-81500602D01*
X100000000Y-81500000D01*
X100500000Y-81500000D01*
X100500000Y-81500602D01*
X100524534Y-81500602D01*
X100573365Y-81505412D01*
X100621490Y-81514984D01*
X100668445Y-81529228D01*
X100713778Y-81548005D01*
X100757051Y-81571136D01*
X100797850Y-81598396D01*
X100835779Y-81629524D01*
X100870476Y-81664221D01*
X100901604Y-81702150D01*
X100928864Y-81742949D01*
X100951995Y-81786222D01*
X100970772Y-81831555D01*
X100985016Y-81878510D01*
X100994588Y-81926635D01*
X100999398Y-81975466D01*
X100999398Y-82000000D01*
X101000000Y-82000000D01*
X101000000Y-82500000D01*
X99500000Y-82500000D01*
G37*
G36*
X91250000Y-82500000D02*
G01*
X91250000Y-82000000D01*
X91250602Y-82000000D01*
X91250602Y-81975466D01*
X91255412Y-81926635D01*
X91264984Y-81878510D01*
X91279228Y-81831555D01*
X91298005Y-81786222D01*
X91321136Y-81742949D01*
X91348396Y-81702150D01*
X91379524Y-81664221D01*
X91414221Y-81629524D01*
X91452150Y-81598396D01*
X91492949Y-81571136D01*
X91536222Y-81548005D01*
X91581555Y-81529228D01*
X91628510Y-81514984D01*
X91676635Y-81505412D01*
X91725466Y-81500602D01*
X91750000Y-81500602D01*
X91750000Y-81500000D01*
X92250000Y-81500000D01*
X92250000Y-81500602D01*
X92274534Y-81500602D01*
X92323365Y-81505412D01*
X92371490Y-81514984D01*
X92418445Y-81529228D01*
X92463778Y-81548005D01*
X92507051Y-81571136D01*
X92547850Y-81598396D01*
X92585779Y-81629524D01*
X92620476Y-81664221D01*
X92651604Y-81702150D01*
X92678864Y-81742949D01*
X92701995Y-81786222D01*
X92720772Y-81831555D01*
X92735016Y-81878510D01*
X92744588Y-81926635D01*
X92749398Y-81975466D01*
X92749398Y-82000000D01*
X92750000Y-82000000D01*
X92750000Y-82500000D01*
X91250000Y-82500000D01*
G37*
G36*
X92749398Y-83300000D02*
G01*
X92749398Y-83324534D01*
X92744588Y-83373365D01*
X92735016Y-83421490D01*
X92720772Y-83468445D01*
X92701995Y-83513778D01*
X92678864Y-83557051D01*
X92651604Y-83597850D01*
X92620476Y-83635779D01*
X92585779Y-83670476D01*
X92547850Y-83701604D01*
X92507051Y-83728864D01*
X92463778Y-83751995D01*
X92418445Y-83770772D01*
X92371490Y-83785016D01*
X92323365Y-83794588D01*
X92274534Y-83799398D01*
X92250000Y-83799398D01*
X92250000Y-83800000D01*
X91750000Y-83800000D01*
X91750000Y-83799398D01*
X91725466Y-83799398D01*
X91676635Y-83794588D01*
X91628510Y-83785016D01*
X91581555Y-83770772D01*
X91536222Y-83751995D01*
X91492949Y-83728864D01*
X91452150Y-83701604D01*
X91414221Y-83670476D01*
X91379524Y-83635779D01*
X91348396Y-83597850D01*
X91321136Y-83557051D01*
X91298005Y-83513778D01*
X91279228Y-83468445D01*
X91264984Y-83421490D01*
X91255412Y-83373365D01*
X91250602Y-83324534D01*
X91250602Y-83300000D01*
X91250000Y-83300000D01*
X91250000Y-82800000D01*
X92750000Y-82800000D01*
X92750000Y-83300000D01*
X92749398Y-83300000D01*
G37*
G36*
X98249398Y-83300000D02*
G01*
X98249398Y-83324534D01*
X98244588Y-83373365D01*
X98235016Y-83421490D01*
X98220772Y-83468445D01*
X98201995Y-83513778D01*
X98178864Y-83557051D01*
X98151604Y-83597850D01*
X98120476Y-83635779D01*
X98085779Y-83670476D01*
X98047850Y-83701604D01*
X98007051Y-83728864D01*
X97963778Y-83751995D01*
X97918445Y-83770772D01*
X97871490Y-83785016D01*
X97823365Y-83794588D01*
X97774534Y-83799398D01*
X97750000Y-83799398D01*
X97750000Y-83800000D01*
X97250000Y-83800000D01*
X97250000Y-83799398D01*
X97225466Y-83799398D01*
X97176635Y-83794588D01*
X97128510Y-83785016D01*
X97081555Y-83770772D01*
X97036222Y-83751995D01*
X96992949Y-83728864D01*
X96952150Y-83701604D01*
X96914221Y-83670476D01*
X96879524Y-83635779D01*
X96848396Y-83597850D01*
X96821136Y-83557051D01*
X96798005Y-83513778D01*
X96779228Y-83468445D01*
X96764984Y-83421490D01*
X96755412Y-83373365D01*
X96750602Y-83324534D01*
X96750602Y-83300000D01*
X96750000Y-83300000D01*
X96750000Y-82800000D01*
X98250000Y-82800000D01*
X98250000Y-83300000D01*
X98249398Y-83300000D01*
G37*
G36*
X96750000Y-82500000D02*
G01*
X96750000Y-82000000D01*
X96750602Y-82000000D01*
X96750602Y-81975466D01*
X96755412Y-81926635D01*
X96764984Y-81878510D01*
X96779228Y-81831555D01*
X96798005Y-81786222D01*
X96821136Y-81742949D01*
X96848396Y-81702150D01*
X96879524Y-81664221D01*
X96914221Y-81629524D01*
X96952150Y-81598396D01*
X96992949Y-81571136D01*
X97036222Y-81548005D01*
X97081555Y-81529228D01*
X97128510Y-81514984D01*
X97176635Y-81505412D01*
X97225466Y-81500602D01*
X97250000Y-81500602D01*
X97250000Y-81500000D01*
X97750000Y-81500000D01*
X97750000Y-81500602D01*
X97774534Y-81500602D01*
X97823365Y-81505412D01*
X97871490Y-81514984D01*
X97918445Y-81529228D01*
X97963778Y-81548005D01*
X98007051Y-81571136D01*
X98047850Y-81598396D01*
X98085779Y-81629524D01*
X98120476Y-81664221D01*
X98151604Y-81702150D01*
X98178864Y-81742949D01*
X98201995Y-81786222D01*
X98220772Y-81831555D01*
X98235016Y-81878510D01*
X98244588Y-81926635D01*
X98249398Y-81975466D01*
X98249398Y-82000000D01*
X98250000Y-82000000D01*
X98250000Y-82500000D01*
X96750000Y-82500000D01*
G37*
G36*
X95500000Y-82800000D02*
G01*
X95500000Y-83300000D01*
X95499398Y-83300000D01*
X95499398Y-83324534D01*
X95494588Y-83373365D01*
X95485016Y-83421490D01*
X95470772Y-83468445D01*
X95451995Y-83513778D01*
X95428864Y-83557051D01*
X95401604Y-83597850D01*
X95370476Y-83635779D01*
X95335779Y-83670476D01*
X95297850Y-83701604D01*
X95257051Y-83728864D01*
X95213778Y-83751995D01*
X95168445Y-83770772D01*
X95121490Y-83785016D01*
X95073365Y-83794588D01*
X95024534Y-83799398D01*
X95000000Y-83799398D01*
X95000000Y-83800000D01*
X94500000Y-83800000D01*
X94500000Y-83799398D01*
X94475466Y-83799398D01*
X94426635Y-83794588D01*
X94378510Y-83785016D01*
X94331555Y-83770772D01*
X94286222Y-83751995D01*
X94242949Y-83728864D01*
X94202150Y-83701604D01*
X94164221Y-83670476D01*
X94129524Y-83635779D01*
X94098396Y-83597850D01*
X94071136Y-83557051D01*
X94048005Y-83513778D01*
X94029228Y-83468445D01*
X94014984Y-83421490D01*
X94005412Y-83373365D01*
X94000602Y-83324534D01*
X94000602Y-83300000D01*
X94000000Y-83300000D01*
X94000000Y-82800000D01*
X95500000Y-82800000D01*
G37*
G36*
X94000602Y-82000000D02*
G01*
X94000602Y-81975466D01*
X94005412Y-81926635D01*
X94014984Y-81878510D01*
X94029228Y-81831555D01*
X94048005Y-81786222D01*
X94071136Y-81742949D01*
X94098396Y-81702150D01*
X94129524Y-81664221D01*
X94164221Y-81629524D01*
X94202150Y-81598396D01*
X94242949Y-81571136D01*
X94286222Y-81548005D01*
X94331555Y-81529228D01*
X94378510Y-81514984D01*
X94426635Y-81505412D01*
X94475466Y-81500602D01*
X94500000Y-81500602D01*
X94500000Y-81500000D01*
X95000000Y-81500000D01*
X95000000Y-81500602D01*
X95024534Y-81500602D01*
X95073365Y-81505412D01*
X95121490Y-81514984D01*
X95168445Y-81529228D01*
X95213778Y-81548005D01*
X95257051Y-81571136D01*
X95297850Y-81598396D01*
X95335779Y-81629524D01*
X95370476Y-81664221D01*
X95401604Y-81702150D01*
X95428864Y-81742949D01*
X95451995Y-81786222D01*
X95470772Y-81831555D01*
X95485016Y-81878510D01*
X95494588Y-81926635D01*
X95499398Y-81975466D01*
X95499398Y-82000000D01*
X95500000Y-82000000D01*
X95500000Y-82500000D01*
X94000000Y-82500000D01*
X94000000Y-82000000D01*
X94000602Y-82000000D01*
G37*
G36*
X106500000Y-82800000D02*
G01*
X106500000Y-83300000D01*
X106499398Y-83300000D01*
X106499398Y-83324534D01*
X106494588Y-83373365D01*
X106485016Y-83421490D01*
X106470772Y-83468445D01*
X106451995Y-83513778D01*
X106428864Y-83557051D01*
X106401604Y-83597850D01*
X106370476Y-83635779D01*
X106335779Y-83670476D01*
X106297850Y-83701604D01*
X106257051Y-83728864D01*
X106213778Y-83751995D01*
X106168445Y-83770772D01*
X106121490Y-83785016D01*
X106073365Y-83794588D01*
X106024534Y-83799398D01*
X106000000Y-83799398D01*
X106000000Y-83800000D01*
X105500000Y-83800000D01*
X105500000Y-83799398D01*
X105475466Y-83799398D01*
X105426635Y-83794588D01*
X105378510Y-83785016D01*
X105331555Y-83770772D01*
X105286222Y-83751995D01*
X105242949Y-83728864D01*
X105202150Y-83701604D01*
X105164221Y-83670476D01*
X105129524Y-83635779D01*
X105098396Y-83597850D01*
X105071136Y-83557051D01*
X105048005Y-83513778D01*
X105029228Y-83468445D01*
X105014984Y-83421490D01*
X105005412Y-83373365D01*
X105000602Y-83324534D01*
X105000602Y-83300000D01*
X105000000Y-83300000D01*
X105000000Y-82800000D01*
X106500000Y-82800000D01*
G37*
G36*
X105000602Y-82000000D02*
G01*
X105000602Y-81975466D01*
X105005412Y-81926635D01*
X105014984Y-81878510D01*
X105029228Y-81831555D01*
X105048005Y-81786222D01*
X105071136Y-81742949D01*
X105098396Y-81702150D01*
X105129524Y-81664221D01*
X105164221Y-81629524D01*
X105202150Y-81598396D01*
X105242949Y-81571136D01*
X105286222Y-81548005D01*
X105331555Y-81529228D01*
X105378510Y-81514984D01*
X105426635Y-81505412D01*
X105475466Y-81500602D01*
X105500000Y-81500602D01*
X105500000Y-81500000D01*
X106000000Y-81500000D01*
X106000000Y-81500602D01*
X106024534Y-81500602D01*
X106073365Y-81505412D01*
X106121490Y-81514984D01*
X106168445Y-81529228D01*
X106213778Y-81548005D01*
X106257051Y-81571136D01*
X106297850Y-81598396D01*
X106335779Y-81629524D01*
X106370476Y-81664221D01*
X106401604Y-81702150D01*
X106428864Y-81742949D01*
X106451995Y-81786222D01*
X106470772Y-81831555D01*
X106485016Y-81878510D01*
X106494588Y-81926635D01*
X106499398Y-81975466D01*
X106499398Y-82000000D01*
X106500000Y-82000000D01*
X106500000Y-82500000D01*
X105000000Y-82500000D01*
X105000000Y-82000000D01*
X105000602Y-82000000D01*
G37*
G36*
G01*
X105100000Y-78025000D02*
X105100000Y-79475000D01*
G75*
G02*
X104850000Y-79725000I-250000J0D01*
G01*
X103650000Y-79725000D01*
G75*
G02*
X103400000Y-79475000I0J250000D01*
G01*
X103400000Y-78025000D01*
G75*
G02*
X103650000Y-77775000I250000J0D01*
G01*
X104850000Y-77775000D01*
G75*
G02*
X105100000Y-78025000I0J-250000D01*
G01*
G37*
D15*
X101750000Y-78750000D03*
X99250000Y-78750000D03*
X96750000Y-78750000D03*
D10*
G36*
X109250000Y-82800000D02*
G01*
X109250000Y-83300000D01*
X109249398Y-83300000D01*
X109249398Y-83324534D01*
X109244588Y-83373365D01*
X109235016Y-83421490D01*
X109220772Y-83468445D01*
X109201995Y-83513778D01*
X109178864Y-83557051D01*
X109151604Y-83597850D01*
X109120476Y-83635779D01*
X109085779Y-83670476D01*
X109047850Y-83701604D01*
X109007051Y-83728864D01*
X108963778Y-83751995D01*
X108918445Y-83770772D01*
X108871490Y-83785016D01*
X108823365Y-83794588D01*
X108774534Y-83799398D01*
X108750000Y-83799398D01*
X108750000Y-83800000D01*
X108250000Y-83800000D01*
X108250000Y-83799398D01*
X108225466Y-83799398D01*
X108176635Y-83794588D01*
X108128510Y-83785016D01*
X108081555Y-83770772D01*
X108036222Y-83751995D01*
X107992949Y-83728864D01*
X107952150Y-83701604D01*
X107914221Y-83670476D01*
X107879524Y-83635779D01*
X107848396Y-83597850D01*
X107821136Y-83557051D01*
X107798005Y-83513778D01*
X107779228Y-83468445D01*
X107764984Y-83421490D01*
X107755412Y-83373365D01*
X107750602Y-83324534D01*
X107750602Y-83300000D01*
X107750000Y-83300000D01*
X107750000Y-82800000D01*
X109250000Y-82800000D01*
G37*
G36*
X107750602Y-82000000D02*
G01*
X107750602Y-81975466D01*
X107755412Y-81926635D01*
X107764984Y-81878510D01*
X107779228Y-81831555D01*
X107798005Y-81786222D01*
X107821136Y-81742949D01*
X107848396Y-81702150D01*
X107879524Y-81664221D01*
X107914221Y-81629524D01*
X107952150Y-81598396D01*
X107992949Y-81571136D01*
X108036222Y-81548005D01*
X108081555Y-81529228D01*
X108128510Y-81514984D01*
X108176635Y-81505412D01*
X108225466Y-81500602D01*
X108250000Y-81500602D01*
X108250000Y-81500000D01*
X108750000Y-81500000D01*
X108750000Y-81500602D01*
X108774534Y-81500602D01*
X108823365Y-81505412D01*
X108871490Y-81514984D01*
X108918445Y-81529228D01*
X108963778Y-81548005D01*
X109007051Y-81571136D01*
X109047850Y-81598396D01*
X109085779Y-81629524D01*
X109120476Y-81664221D01*
X109151604Y-81702150D01*
X109178864Y-81742949D01*
X109201995Y-81786222D01*
X109220772Y-81831555D01*
X109235016Y-81878510D01*
X109244588Y-81926635D01*
X109249398Y-81975466D01*
X109249398Y-82000000D01*
X109250000Y-82000000D01*
X109250000Y-82500000D01*
X107750000Y-82500000D01*
X107750000Y-82000000D01*
X107750602Y-82000000D01*
G37*
M02*
