M48
; DRILL file {KiCad 5.1.9+dfsg1-1} date Wed Mar  8 16:00:24 2023
; FORMAT={-:-/ absolute / metric / decimal}
; #@! TF.CreationDate,2023-03-08T16:00:24+09:00
; #@! TF.GenerationSoftware,Kicad,Pcbnew,5.1.9+dfsg1-1
; #@! TF.FileFunction,Plated,1,2,PTH
FMAT,2
METRIC
T1C0.400
T2C0.762
T3C0.950
T4C3.200
%
G90
G05
T1
X95.0Y-91.0
X105.75Y-91.0
T2
X93.345Y-88.392
X94.615Y-85.852
X95.885Y-88.392
X97.155Y-85.852
X98.425Y-88.392
X99.695Y-85.852
X100.965Y-88.392
X102.235Y-85.852
X103.505Y-88.392
X104.775Y-85.852
X106.045Y-88.392
X107.315Y-85.852
T3
X96.75Y-78.75
X99.25Y-78.75
X101.75Y-78.75
X104.25Y-78.75
T4
X88.75Y-77.5
X112.0Y-77.5
T0
M30
