%FSLAX45Y45*%
G04 Gerber Fmt 4.5, Leading zero omitted, Abs format (unit mm)*
G04 Created by KiCad (PCBNEW 5.1.9+dfsg1-1) date 2022-11-10 16:03:54*
%MOMM*%
%LPD*%
G01*
G04 APERTURE LIST*
%TA.AperFunction,Profile*%
%ADD10C,0.050000*%
%TD*%
%ADD11C,0.200000*%
%ADD12C,0.300000*%
G04 APERTURE END LIST*
D10*
X15800000Y-5550000D02*
G75*
G02*
X16400000Y-6150000I0J-600000D01*
G01*
X16400000Y-11350000D02*
G75*
G02*
X15800000Y-11950000I-600000J0D01*
G01*
X15200000Y-11950000D02*
G75*
G02*
X14600000Y-11350000I0J600000D01*
G01*
X14600000Y-6150000D02*
G75*
G02*
X15200000Y-5550000I600000J0D01*
G01*
X14600000Y-11350000D02*
X14600000Y-6150000D01*
X15800000Y-11950000D02*
X15200000Y-11950000D01*
X16400000Y-6150000D02*
X16400000Y-11350000D01*
X15200000Y-5550000D02*
X15800000Y-5550000D01*
D11*
X14680000Y-8380000D02*
X14720000Y-8420000D01*
X14720000Y-8380000D02*
X14680000Y-8420000D01*
X14930000Y-9780000D02*
X14970000Y-9820000D01*
X14970000Y-9780000D02*
X14930000Y-9820000D01*
X15730000Y-8780000D02*
X15770000Y-8820000D01*
X15770000Y-8780000D02*
X15730000Y-8820000D01*
X16080000Y-8580000D02*
X16120000Y-8620000D01*
X16120000Y-8580000D02*
X16080000Y-8620000D01*
X15986000Y-8038000D02*
G75*
G03*
X15986000Y-8038000I-40000J0D01*
G01*
X15986000Y-8800000D02*
G75*
G03*
X15986000Y-8800000I-40000J0D01*
G01*
X16240000Y-8038000D02*
G75*
G03*
X16240000Y-8038000I-40000J0D01*
G01*
X16240000Y-8800000D02*
G75*
G03*
X16240000Y-8800000I-40000J0D01*
G01*
X15600000Y-6652500D02*
X15600000Y-6747500D01*
X15552500Y-6700000D02*
X15647500Y-6700000D01*
X15600000Y-7502500D02*
X15600000Y-7597500D01*
X15552500Y-7550000D02*
X15647500Y-7550000D01*
X15600000Y-10702500D02*
X15600000Y-10797500D01*
X15552500Y-10750000D02*
X15647500Y-10750000D01*
X15850000Y-6652500D02*
X15850000Y-6747500D01*
X15802500Y-6700000D02*
X15897500Y-6700000D01*
X15850000Y-7502500D02*
X15850000Y-7597500D01*
X15802500Y-7550000D02*
X15897500Y-7550000D01*
X15850000Y-10702500D02*
X15850000Y-10797500D01*
X15802500Y-10750000D02*
X15897500Y-10750000D01*
X16100000Y-6652500D02*
X16100000Y-6747500D01*
X16052500Y-6700000D02*
X16147500Y-6700000D01*
X16100000Y-7502500D02*
X16100000Y-7597500D01*
X16052500Y-7550000D02*
X16147500Y-7550000D01*
X16100000Y-10702500D02*
X16100000Y-10797500D01*
X16052500Y-10750000D02*
X16147500Y-10750000D01*
X14835356Y-7585356D02*
X14835356Y-7514644D01*
X14764644Y-7514644D01*
X14764644Y-7585356D01*
X14835356Y-7585356D01*
X14835356Y-7839356D02*
X14835356Y-7768644D01*
X14764644Y-7768644D01*
X14764644Y-7839356D01*
X14835356Y-7839356D01*
X14835356Y-8685356D02*
X14835356Y-8614644D01*
X14764644Y-8614644D01*
X14764644Y-8685356D01*
X14835356Y-8685356D01*
X14835356Y-8939356D02*
X14835356Y-8868644D01*
X14764644Y-8868644D01*
X14764644Y-8939356D01*
X14835356Y-8939356D01*
X14935356Y-6735356D02*
X14935356Y-6664644D01*
X14864644Y-6664644D01*
X14864644Y-6735356D01*
X14935356Y-6735356D01*
X14935356Y-6985356D02*
X14935356Y-6914644D01*
X14864644Y-6914644D01*
X14864644Y-6985356D01*
X14935356Y-6985356D01*
X14935356Y-10535356D02*
X14935356Y-10464644D01*
X14864644Y-10464644D01*
X14864644Y-10535356D01*
X14935356Y-10535356D01*
X14935356Y-10785356D02*
X14935356Y-10714644D01*
X14864644Y-10714644D01*
X14864644Y-10785356D01*
X14935356Y-10785356D01*
X15089356Y-7585356D02*
X15089356Y-7514644D01*
X15018644Y-7514644D01*
X15018644Y-7585356D01*
X15089356Y-7585356D01*
X15089356Y-7839356D02*
X15089356Y-7768644D01*
X15018644Y-7768644D01*
X15018644Y-7839356D01*
X15089356Y-7839356D01*
X15089356Y-8685356D02*
X15089356Y-8614644D01*
X15018644Y-8614644D01*
X15018644Y-8685356D01*
X15089356Y-8685356D01*
X15089356Y-8939356D02*
X15089356Y-8868644D01*
X15018644Y-8868644D01*
X15018644Y-8939356D01*
X15089356Y-8939356D01*
X15273356Y-9781356D02*
X15273356Y-9710644D01*
X15202644Y-9710644D01*
X15202644Y-9781356D01*
X15273356Y-9781356D01*
X15273356Y-10035356D02*
X15273356Y-9964644D01*
X15202644Y-9964644D01*
X15202644Y-10035356D01*
X15273356Y-10035356D01*
X15527356Y-9781356D02*
X15527356Y-9710644D01*
X15456644Y-9710644D01*
X15456644Y-9781356D01*
X15527356Y-9781356D01*
X15527356Y-10035356D02*
X15527356Y-9964644D01*
X15456644Y-9964644D01*
X15456644Y-10035356D01*
X15527356Y-10035356D01*
X15781356Y-9781356D02*
X15781356Y-9710644D01*
X15710644Y-9710644D01*
X15710644Y-9781356D01*
X15781356Y-9781356D01*
X15781356Y-10035356D02*
X15781356Y-9964644D01*
X15710644Y-9964644D01*
X15710644Y-10035356D01*
X15781356Y-10035356D01*
X16035356Y-9781356D02*
X16035356Y-9710644D01*
X15964644Y-9710644D01*
X15964644Y-9781356D01*
X16035356Y-9781356D01*
X16035356Y-10035356D02*
X16035356Y-9964644D01*
X15964644Y-9964644D01*
X15964644Y-10035356D01*
X16035356Y-10035356D01*
X15500000Y-6160000D02*
X15660000Y-6000000D01*
X15500000Y-5840000D01*
X15340000Y-6000000D01*
X15500000Y-6160000D01*
X15500000Y-11660000D02*
X15660000Y-11500000D01*
X15500000Y-11340000D01*
X15340000Y-11500000D01*
X15500000Y-11660000D01*
D12*
X14883928Y-12418214D02*
X14883928Y-12118214D01*
X14955357Y-12118214D01*
X14998214Y-12132500D01*
X15026786Y-12161071D01*
X15041071Y-12189643D01*
X15055357Y-12246786D01*
X15055357Y-12289643D01*
X15041071Y-12346786D01*
X15026786Y-12375357D01*
X14998214Y-12403929D01*
X14955357Y-12418214D01*
X14883928Y-12418214D01*
X15183928Y-12418214D02*
X15183928Y-12218214D01*
X15183928Y-12275357D02*
X15198214Y-12246786D01*
X15212500Y-12232500D01*
X15241071Y-12218214D01*
X15269643Y-12218214D01*
X15369643Y-12418214D02*
X15369643Y-12218214D01*
X15369643Y-12118214D02*
X15355357Y-12132500D01*
X15369643Y-12146786D01*
X15383928Y-12132500D01*
X15369643Y-12118214D01*
X15369643Y-12146786D01*
X15555357Y-12418214D02*
X15526786Y-12403929D01*
X15512500Y-12375357D01*
X15512500Y-12118214D01*
X15712500Y-12418214D02*
X15683928Y-12403929D01*
X15669643Y-12375357D01*
X15669643Y-12118214D01*
X16055357Y-12418214D02*
X16055357Y-12118214D01*
X16155357Y-12332500D01*
X16255357Y-12118214D01*
X16255357Y-12418214D01*
X16526786Y-12418214D02*
X16526786Y-12261071D01*
X16512500Y-12232500D01*
X16483928Y-12218214D01*
X16426786Y-12218214D01*
X16398214Y-12232500D01*
X16526786Y-12403929D02*
X16498214Y-12418214D01*
X16426786Y-12418214D01*
X16398214Y-12403929D01*
X16383928Y-12375357D01*
X16383928Y-12346786D01*
X16398214Y-12318214D01*
X16426786Y-12303929D01*
X16498214Y-12303929D01*
X16526786Y-12289643D01*
X16669643Y-12218214D02*
X16669643Y-12518214D01*
X16669643Y-12232500D02*
X16698214Y-12218214D01*
X16755357Y-12218214D01*
X16783928Y-12232500D01*
X16798214Y-12246786D01*
X16812500Y-12275357D01*
X16812500Y-12361071D01*
X16798214Y-12389643D01*
X16783928Y-12403929D01*
X16755357Y-12418214D01*
X16698214Y-12418214D01*
X16669643Y-12403929D01*
X16941071Y-12389643D02*
X16955357Y-12403929D01*
X16941071Y-12418214D01*
X16926786Y-12403929D01*
X16941071Y-12389643D01*
X16941071Y-12418214D01*
X16941071Y-12232500D02*
X16955357Y-12246786D01*
X16941071Y-12261071D01*
X16926786Y-12246786D01*
X16941071Y-12232500D01*
X16941071Y-12261071D01*
X14557500Y-12892500D02*
X14597500Y-12932500D01*
X14597500Y-12892500D02*
X14557500Y-12932500D01*
X14941071Y-12748214D02*
X14969643Y-12748214D01*
X14998214Y-12762500D01*
X15012500Y-12776786D01*
X15026786Y-12805357D01*
X15041071Y-12862500D01*
X15041071Y-12933929D01*
X15026786Y-12991071D01*
X15012500Y-13019643D01*
X14998214Y-13033929D01*
X14969643Y-13048214D01*
X14941071Y-13048214D01*
X14912500Y-13033929D01*
X14898214Y-13019643D01*
X14883928Y-12991071D01*
X14869643Y-12933929D01*
X14869643Y-12862500D01*
X14883928Y-12805357D01*
X14898214Y-12776786D01*
X14912500Y-12762500D01*
X14941071Y-12748214D01*
X15169643Y-13019643D02*
X15183928Y-13033929D01*
X15169643Y-13048214D01*
X15155357Y-13033929D01*
X15169643Y-13019643D01*
X15169643Y-13048214D01*
X15441071Y-12848214D02*
X15441071Y-13048214D01*
X15369643Y-12733929D02*
X15298214Y-12948214D01*
X15483928Y-12948214D01*
X15655357Y-12748214D02*
X15683928Y-12748214D01*
X15712500Y-12762500D01*
X15726786Y-12776786D01*
X15741071Y-12805357D01*
X15755357Y-12862500D01*
X15755357Y-12933929D01*
X15741071Y-12991071D01*
X15726786Y-13019643D01*
X15712500Y-13033929D01*
X15683928Y-13048214D01*
X15655357Y-13048214D01*
X15626786Y-13033929D01*
X15612500Y-13019643D01*
X15598214Y-12991071D01*
X15583928Y-12933929D01*
X15583928Y-12862500D01*
X15598214Y-12805357D01*
X15612500Y-12776786D01*
X15626786Y-12762500D01*
X15655357Y-12748214D01*
X15883928Y-13048214D02*
X15883928Y-12848214D01*
X15883928Y-12876786D02*
X15898214Y-12862500D01*
X15926786Y-12848214D01*
X15969643Y-12848214D01*
X15998214Y-12862500D01*
X16012500Y-12891071D01*
X16012500Y-13048214D01*
X16012500Y-12891071D02*
X16026786Y-12862500D01*
X16055357Y-12848214D01*
X16098214Y-12848214D01*
X16126786Y-12862500D01*
X16141071Y-12891071D01*
X16141071Y-13048214D01*
X16283928Y-13048214D02*
X16283928Y-12848214D01*
X16283928Y-12876786D02*
X16298214Y-12862500D01*
X16326786Y-12848214D01*
X16369643Y-12848214D01*
X16398214Y-12862500D01*
X16412500Y-12891071D01*
X16412500Y-13048214D01*
X16412500Y-12891071D02*
X16426786Y-12862500D01*
X16455357Y-12848214D01*
X16498214Y-12848214D01*
X16526786Y-12862500D01*
X16541071Y-12891071D01*
X16541071Y-13048214D01*
X17126786Y-12733929D02*
X16869643Y-13119643D01*
X17512500Y-12748214D02*
X17541071Y-12748214D01*
X17569643Y-12762500D01*
X17583928Y-12776786D01*
X17598214Y-12805357D01*
X17612500Y-12862500D01*
X17612500Y-12933929D01*
X17598214Y-12991071D01*
X17583928Y-13019643D01*
X17569643Y-13033929D01*
X17541071Y-13048214D01*
X17512500Y-13048214D01*
X17483928Y-13033929D01*
X17469643Y-13019643D01*
X17455357Y-12991071D01*
X17441071Y-12933929D01*
X17441071Y-12862500D01*
X17455357Y-12805357D01*
X17469643Y-12776786D01*
X17483928Y-12762500D01*
X17512500Y-12748214D01*
X17741071Y-13019643D02*
X17755357Y-13033929D01*
X17741071Y-13048214D01*
X17726786Y-13033929D01*
X17741071Y-13019643D01*
X17741071Y-13048214D01*
X17941071Y-12748214D02*
X17969643Y-12748214D01*
X17998214Y-12762500D01*
X18012500Y-12776786D01*
X18026786Y-12805357D01*
X18041071Y-12862500D01*
X18041071Y-12933929D01*
X18026786Y-12991071D01*
X18012500Y-13019643D01*
X17998214Y-13033929D01*
X17969643Y-13048214D01*
X17941071Y-13048214D01*
X17912500Y-13033929D01*
X17898214Y-13019643D01*
X17883928Y-12991071D01*
X17869643Y-12933929D01*
X17869643Y-12862500D01*
X17883928Y-12805357D01*
X17898214Y-12776786D01*
X17912500Y-12762500D01*
X17941071Y-12748214D01*
X18326786Y-13048214D02*
X18155357Y-13048214D01*
X18241071Y-13048214D02*
X18241071Y-12748214D01*
X18212500Y-12791071D01*
X18183928Y-12819643D01*
X18155357Y-12833929D01*
X18583928Y-12748214D02*
X18526786Y-12748214D01*
X18498214Y-12762500D01*
X18483928Y-12776786D01*
X18455357Y-12819643D01*
X18441071Y-12876786D01*
X18441071Y-12991071D01*
X18455357Y-13019643D01*
X18469643Y-13033929D01*
X18498214Y-13048214D01*
X18555357Y-13048214D01*
X18583928Y-13033929D01*
X18598214Y-13019643D01*
X18612500Y-12991071D01*
X18612500Y-12919643D01*
X18598214Y-12891071D01*
X18583928Y-12876786D01*
X18555357Y-12862500D01*
X18498214Y-12862500D01*
X18469643Y-12876786D01*
X18455357Y-12891071D01*
X18441071Y-12919643D01*
X18726786Y-12748214D02*
X18726786Y-12805357D01*
X18841071Y-12748214D02*
X18841071Y-12805357D01*
X19283928Y-13162500D02*
X19269643Y-13148214D01*
X19241071Y-13105357D01*
X19226786Y-13076786D01*
X19212500Y-13033929D01*
X19198214Y-12962500D01*
X19198214Y-12905357D01*
X19212500Y-12833929D01*
X19226786Y-12791071D01*
X19241071Y-12762500D01*
X19269643Y-12719643D01*
X19283928Y-12705357D01*
X19526786Y-12848214D02*
X19526786Y-13048214D01*
X19455357Y-12733929D02*
X19383928Y-12948214D01*
X19569643Y-12948214D01*
X19912500Y-13048214D02*
X19912500Y-12748214D01*
X20041071Y-13048214D02*
X20041071Y-12891071D01*
X20026786Y-12862500D01*
X19998214Y-12848214D01*
X19955357Y-12848214D01*
X19926786Y-12862500D01*
X19912500Y-12876786D01*
X20226786Y-13048214D02*
X20198214Y-13033929D01*
X20183928Y-13019643D01*
X20169643Y-12991071D01*
X20169643Y-12905357D01*
X20183928Y-12876786D01*
X20198214Y-12862500D01*
X20226786Y-12848214D01*
X20269643Y-12848214D01*
X20298214Y-12862500D01*
X20312500Y-12876786D01*
X20326786Y-12905357D01*
X20326786Y-12991071D01*
X20312500Y-13019643D01*
X20298214Y-13033929D01*
X20269643Y-13048214D01*
X20226786Y-13048214D01*
X20498214Y-13048214D02*
X20469643Y-13033929D01*
X20455357Y-13005357D01*
X20455357Y-12748214D01*
X20726786Y-13033929D02*
X20698214Y-13048214D01*
X20641071Y-13048214D01*
X20612500Y-13033929D01*
X20598214Y-13005357D01*
X20598214Y-12891071D01*
X20612500Y-12862500D01*
X20641071Y-12848214D01*
X20698214Y-12848214D01*
X20726786Y-12862500D01*
X20741071Y-12891071D01*
X20741071Y-12919643D01*
X20598214Y-12948214D01*
X20855357Y-13033929D02*
X20883928Y-13048214D01*
X20941071Y-13048214D01*
X20969643Y-13033929D01*
X20983928Y-13005357D01*
X20983928Y-12991071D01*
X20969643Y-12962500D01*
X20941071Y-12948214D01*
X20898214Y-12948214D01*
X20869643Y-12933929D01*
X20855357Y-12905357D01*
X20855357Y-12891071D01*
X20869643Y-12862500D01*
X20898214Y-12848214D01*
X20941071Y-12848214D01*
X20969643Y-12862500D01*
X21083928Y-13162500D02*
X21098214Y-13148214D01*
X21126786Y-13105357D01*
X21141071Y-13076786D01*
X21155357Y-13033929D01*
X21169643Y-12962500D01*
X21169643Y-12905357D01*
X21155357Y-12833929D01*
X21141071Y-12791071D01*
X21126786Y-12762500D01*
X21098214Y-12719643D01*
X21083928Y-12705357D01*
X14597500Y-13308500D02*
G75*
G03*
X14597500Y-13308500I-40000J0D01*
G01*
X14941071Y-13144214D02*
X14969643Y-13144214D01*
X14998214Y-13158500D01*
X15012500Y-13172786D01*
X15026786Y-13201357D01*
X15041071Y-13258500D01*
X15041071Y-13329929D01*
X15026786Y-13387071D01*
X15012500Y-13415643D01*
X14998214Y-13429929D01*
X14969643Y-13444214D01*
X14941071Y-13444214D01*
X14912500Y-13429929D01*
X14898214Y-13415643D01*
X14883928Y-13387071D01*
X14869643Y-13329929D01*
X14869643Y-13258500D01*
X14883928Y-13201357D01*
X14898214Y-13172786D01*
X14912500Y-13158500D01*
X14941071Y-13144214D01*
X15169643Y-13415643D02*
X15183928Y-13429929D01*
X15169643Y-13444214D01*
X15155357Y-13429929D01*
X15169643Y-13415643D01*
X15169643Y-13444214D01*
X15355357Y-13272786D02*
X15326786Y-13258500D01*
X15312500Y-13244214D01*
X15298214Y-13215643D01*
X15298214Y-13201357D01*
X15312500Y-13172786D01*
X15326786Y-13158500D01*
X15355357Y-13144214D01*
X15412500Y-13144214D01*
X15441071Y-13158500D01*
X15455357Y-13172786D01*
X15469643Y-13201357D01*
X15469643Y-13215643D01*
X15455357Y-13244214D01*
X15441071Y-13258500D01*
X15412500Y-13272786D01*
X15355357Y-13272786D01*
X15326786Y-13287071D01*
X15312500Y-13301357D01*
X15298214Y-13329929D01*
X15298214Y-13387071D01*
X15312500Y-13415643D01*
X15326786Y-13429929D01*
X15355357Y-13444214D01*
X15412500Y-13444214D01*
X15441071Y-13429929D01*
X15455357Y-13415643D01*
X15469643Y-13387071D01*
X15469643Y-13329929D01*
X15455357Y-13301357D01*
X15441071Y-13287071D01*
X15412500Y-13272786D01*
X15655357Y-13144214D02*
X15683928Y-13144214D01*
X15712500Y-13158500D01*
X15726786Y-13172786D01*
X15741071Y-13201357D01*
X15755357Y-13258500D01*
X15755357Y-13329929D01*
X15741071Y-13387071D01*
X15726786Y-13415643D01*
X15712500Y-13429929D01*
X15683928Y-13444214D01*
X15655357Y-13444214D01*
X15626786Y-13429929D01*
X15612500Y-13415643D01*
X15598214Y-13387071D01*
X15583928Y-13329929D01*
X15583928Y-13258500D01*
X15598214Y-13201357D01*
X15612500Y-13172786D01*
X15626786Y-13158500D01*
X15655357Y-13144214D01*
X15883928Y-13444214D02*
X15883928Y-13244214D01*
X15883928Y-13272786D02*
X15898214Y-13258500D01*
X15926786Y-13244214D01*
X15969643Y-13244214D01*
X15998214Y-13258500D01*
X16012500Y-13287071D01*
X16012500Y-13444214D01*
X16012500Y-13287071D02*
X16026786Y-13258500D01*
X16055357Y-13244214D01*
X16098214Y-13244214D01*
X16126786Y-13258500D01*
X16141071Y-13287071D01*
X16141071Y-13444214D01*
X16283928Y-13444214D02*
X16283928Y-13244214D01*
X16283928Y-13272786D02*
X16298214Y-13258500D01*
X16326786Y-13244214D01*
X16369643Y-13244214D01*
X16398214Y-13258500D01*
X16412500Y-13287071D01*
X16412500Y-13444214D01*
X16412500Y-13287071D02*
X16426786Y-13258500D01*
X16455357Y-13244214D01*
X16498214Y-13244214D01*
X16526786Y-13258500D01*
X16541071Y-13287071D01*
X16541071Y-13444214D01*
X17126786Y-13129929D02*
X16869643Y-13515643D01*
X17512500Y-13144214D02*
X17541071Y-13144214D01*
X17569643Y-13158500D01*
X17583928Y-13172786D01*
X17598214Y-13201357D01*
X17612500Y-13258500D01*
X17612500Y-13329929D01*
X17598214Y-13387071D01*
X17583928Y-13415643D01*
X17569643Y-13429929D01*
X17541071Y-13444214D01*
X17512500Y-13444214D01*
X17483928Y-13429929D01*
X17469643Y-13415643D01*
X17455357Y-13387071D01*
X17441071Y-13329929D01*
X17441071Y-13258500D01*
X17455357Y-13201357D01*
X17469643Y-13172786D01*
X17483928Y-13158500D01*
X17512500Y-13144214D01*
X17741071Y-13415643D02*
X17755357Y-13429929D01*
X17741071Y-13444214D01*
X17726786Y-13429929D01*
X17741071Y-13415643D01*
X17741071Y-13444214D01*
X17941071Y-13144214D02*
X17969643Y-13144214D01*
X17998214Y-13158500D01*
X18012500Y-13172786D01*
X18026786Y-13201357D01*
X18041071Y-13258500D01*
X18041071Y-13329929D01*
X18026786Y-13387071D01*
X18012500Y-13415643D01*
X17998214Y-13429929D01*
X17969643Y-13444214D01*
X17941071Y-13444214D01*
X17912500Y-13429929D01*
X17898214Y-13415643D01*
X17883928Y-13387071D01*
X17869643Y-13329929D01*
X17869643Y-13258500D01*
X17883928Y-13201357D01*
X17898214Y-13172786D01*
X17912500Y-13158500D01*
X17941071Y-13144214D01*
X18141071Y-13144214D02*
X18326786Y-13144214D01*
X18226786Y-13258500D01*
X18269643Y-13258500D01*
X18298214Y-13272786D01*
X18312500Y-13287071D01*
X18326786Y-13315643D01*
X18326786Y-13387071D01*
X18312500Y-13415643D01*
X18298214Y-13429929D01*
X18269643Y-13444214D01*
X18183928Y-13444214D01*
X18155357Y-13429929D01*
X18141071Y-13415643D01*
X18612500Y-13444214D02*
X18441071Y-13444214D01*
X18526786Y-13444214D02*
X18526786Y-13144214D01*
X18498214Y-13187071D01*
X18469643Y-13215643D01*
X18441071Y-13229929D01*
X18726786Y-13144214D02*
X18726786Y-13201357D01*
X18841071Y-13144214D02*
X18841071Y-13201357D01*
X19283928Y-13558500D02*
X19269643Y-13544214D01*
X19241071Y-13501357D01*
X19226786Y-13472786D01*
X19212500Y-13429929D01*
X19198214Y-13358500D01*
X19198214Y-13301357D01*
X19212500Y-13229929D01*
X19226786Y-13187071D01*
X19241071Y-13158500D01*
X19269643Y-13115643D01*
X19283928Y-13101357D01*
X19526786Y-13244214D02*
X19526786Y-13444214D01*
X19455357Y-13129929D02*
X19383928Y-13344214D01*
X19569643Y-13344214D01*
X19912500Y-13444214D02*
X19912500Y-13144214D01*
X20041071Y-13444214D02*
X20041071Y-13287071D01*
X20026786Y-13258500D01*
X19998214Y-13244214D01*
X19955357Y-13244214D01*
X19926786Y-13258500D01*
X19912500Y-13272786D01*
X20226786Y-13444214D02*
X20198214Y-13429929D01*
X20183928Y-13415643D01*
X20169643Y-13387071D01*
X20169643Y-13301357D01*
X20183928Y-13272786D01*
X20198214Y-13258500D01*
X20226786Y-13244214D01*
X20269643Y-13244214D01*
X20298214Y-13258500D01*
X20312500Y-13272786D01*
X20326786Y-13301357D01*
X20326786Y-13387071D01*
X20312500Y-13415643D01*
X20298214Y-13429929D01*
X20269643Y-13444214D01*
X20226786Y-13444214D01*
X20498214Y-13444214D02*
X20469643Y-13429929D01*
X20455357Y-13401357D01*
X20455357Y-13144214D01*
X20726786Y-13429929D02*
X20698214Y-13444214D01*
X20641071Y-13444214D01*
X20612500Y-13429929D01*
X20598214Y-13401357D01*
X20598214Y-13287071D01*
X20612500Y-13258500D01*
X20641071Y-13244214D01*
X20698214Y-13244214D01*
X20726786Y-13258500D01*
X20741071Y-13287071D01*
X20741071Y-13315643D01*
X20598214Y-13344214D01*
X20855357Y-13429929D02*
X20883928Y-13444214D01*
X20941071Y-13444214D01*
X20969643Y-13429929D01*
X20983928Y-13401357D01*
X20983928Y-13387071D01*
X20969643Y-13358500D01*
X20941071Y-13344214D01*
X20898214Y-13344214D01*
X20869643Y-13329929D01*
X20855357Y-13301357D01*
X20855357Y-13287071D01*
X20869643Y-13258500D01*
X20898214Y-13244214D01*
X20941071Y-13244214D01*
X20969643Y-13258500D01*
X21083928Y-13558500D02*
X21098214Y-13544214D01*
X21126786Y-13501357D01*
X21141071Y-13472786D01*
X21155357Y-13429929D01*
X21169643Y-13358500D01*
X21169643Y-13301357D01*
X21155357Y-13229929D01*
X21141071Y-13187071D01*
X21126786Y-13158500D01*
X21098214Y-13115643D01*
X21083928Y-13101357D01*
X14550000Y-13657000D02*
X14550000Y-13752000D01*
X14502500Y-13704500D02*
X14597500Y-13704500D01*
X14941071Y-13540214D02*
X14969643Y-13540214D01*
X14998214Y-13554500D01*
X15012500Y-13568786D01*
X15026786Y-13597357D01*
X15041071Y-13654500D01*
X15041071Y-13725929D01*
X15026786Y-13783071D01*
X15012500Y-13811643D01*
X14998214Y-13825929D01*
X14969643Y-13840214D01*
X14941071Y-13840214D01*
X14912500Y-13825929D01*
X14898214Y-13811643D01*
X14883928Y-13783071D01*
X14869643Y-13725929D01*
X14869643Y-13654500D01*
X14883928Y-13597357D01*
X14898214Y-13568786D01*
X14912500Y-13554500D01*
X14941071Y-13540214D01*
X15169643Y-13811643D02*
X15183928Y-13825929D01*
X15169643Y-13840214D01*
X15155357Y-13825929D01*
X15169643Y-13811643D01*
X15169643Y-13840214D01*
X15326786Y-13840214D02*
X15383928Y-13840214D01*
X15412500Y-13825929D01*
X15426786Y-13811643D01*
X15455357Y-13768786D01*
X15469643Y-13711643D01*
X15469643Y-13597357D01*
X15455357Y-13568786D01*
X15441071Y-13554500D01*
X15412500Y-13540214D01*
X15355357Y-13540214D01*
X15326786Y-13554500D01*
X15312500Y-13568786D01*
X15298214Y-13597357D01*
X15298214Y-13668786D01*
X15312500Y-13697357D01*
X15326786Y-13711643D01*
X15355357Y-13725929D01*
X15412500Y-13725929D01*
X15441071Y-13711643D01*
X15455357Y-13697357D01*
X15469643Y-13668786D01*
X15741071Y-13540214D02*
X15598214Y-13540214D01*
X15583928Y-13683071D01*
X15598214Y-13668786D01*
X15626786Y-13654500D01*
X15698214Y-13654500D01*
X15726786Y-13668786D01*
X15741071Y-13683071D01*
X15755357Y-13711643D01*
X15755357Y-13783071D01*
X15741071Y-13811643D01*
X15726786Y-13825929D01*
X15698214Y-13840214D01*
X15626786Y-13840214D01*
X15598214Y-13825929D01*
X15583928Y-13811643D01*
X15883928Y-13840214D02*
X15883928Y-13640214D01*
X15883928Y-13668786D02*
X15898214Y-13654500D01*
X15926786Y-13640214D01*
X15969643Y-13640214D01*
X15998214Y-13654500D01*
X16012500Y-13683071D01*
X16012500Y-13840214D01*
X16012500Y-13683071D02*
X16026786Y-13654500D01*
X16055357Y-13640214D01*
X16098214Y-13640214D01*
X16126786Y-13654500D01*
X16141071Y-13683071D01*
X16141071Y-13840214D01*
X16283928Y-13840214D02*
X16283928Y-13640214D01*
X16283928Y-13668786D02*
X16298214Y-13654500D01*
X16326786Y-13640214D01*
X16369643Y-13640214D01*
X16398214Y-13654500D01*
X16412500Y-13683071D01*
X16412500Y-13840214D01*
X16412500Y-13683071D02*
X16426786Y-13654500D01*
X16455357Y-13640214D01*
X16498214Y-13640214D01*
X16526786Y-13654500D01*
X16541071Y-13683071D01*
X16541071Y-13840214D01*
X17126786Y-13525929D02*
X16869643Y-13911643D01*
X17512500Y-13540214D02*
X17541071Y-13540214D01*
X17569643Y-13554500D01*
X17583928Y-13568786D01*
X17598214Y-13597357D01*
X17612500Y-13654500D01*
X17612500Y-13725929D01*
X17598214Y-13783071D01*
X17583928Y-13811643D01*
X17569643Y-13825929D01*
X17541071Y-13840214D01*
X17512500Y-13840214D01*
X17483928Y-13825929D01*
X17469643Y-13811643D01*
X17455357Y-13783071D01*
X17441071Y-13725929D01*
X17441071Y-13654500D01*
X17455357Y-13597357D01*
X17469643Y-13568786D01*
X17483928Y-13554500D01*
X17512500Y-13540214D01*
X17741071Y-13811643D02*
X17755357Y-13825929D01*
X17741071Y-13840214D01*
X17726786Y-13825929D01*
X17741071Y-13811643D01*
X17741071Y-13840214D01*
X17941071Y-13540214D02*
X17969643Y-13540214D01*
X17998214Y-13554500D01*
X18012500Y-13568786D01*
X18026786Y-13597357D01*
X18041071Y-13654500D01*
X18041071Y-13725929D01*
X18026786Y-13783071D01*
X18012500Y-13811643D01*
X17998214Y-13825929D01*
X17969643Y-13840214D01*
X17941071Y-13840214D01*
X17912500Y-13825929D01*
X17898214Y-13811643D01*
X17883928Y-13783071D01*
X17869643Y-13725929D01*
X17869643Y-13654500D01*
X17883928Y-13597357D01*
X17898214Y-13568786D01*
X17912500Y-13554500D01*
X17941071Y-13540214D01*
X18141071Y-13540214D02*
X18326786Y-13540214D01*
X18226786Y-13654500D01*
X18269643Y-13654500D01*
X18298214Y-13668786D01*
X18312500Y-13683071D01*
X18326786Y-13711643D01*
X18326786Y-13783071D01*
X18312500Y-13811643D01*
X18298214Y-13825929D01*
X18269643Y-13840214D01*
X18183928Y-13840214D01*
X18155357Y-13825929D01*
X18141071Y-13811643D01*
X18426786Y-13540214D02*
X18626786Y-13540214D01*
X18498214Y-13840214D01*
X18726786Y-13540214D02*
X18726786Y-13597357D01*
X18841071Y-13540214D02*
X18841071Y-13597357D01*
X19283928Y-13954500D02*
X19269643Y-13940214D01*
X19241071Y-13897357D01*
X19226786Y-13868786D01*
X19212500Y-13825929D01*
X19198214Y-13754500D01*
X19198214Y-13697357D01*
X19212500Y-13625929D01*
X19226786Y-13583071D01*
X19241071Y-13554500D01*
X19269643Y-13511643D01*
X19283928Y-13497357D01*
X19412500Y-13840214D02*
X19469643Y-13840214D01*
X19498214Y-13825929D01*
X19512500Y-13811643D01*
X19541071Y-13768786D01*
X19555357Y-13711643D01*
X19555357Y-13597357D01*
X19541071Y-13568786D01*
X19526786Y-13554500D01*
X19498214Y-13540214D01*
X19441071Y-13540214D01*
X19412500Y-13554500D01*
X19398214Y-13568786D01*
X19383928Y-13597357D01*
X19383928Y-13668786D01*
X19398214Y-13697357D01*
X19412500Y-13711643D01*
X19441071Y-13725929D01*
X19498214Y-13725929D01*
X19526786Y-13711643D01*
X19541071Y-13697357D01*
X19555357Y-13668786D01*
X19912500Y-13840214D02*
X19912500Y-13540214D01*
X20041071Y-13840214D02*
X20041071Y-13683071D01*
X20026786Y-13654500D01*
X19998214Y-13640214D01*
X19955357Y-13640214D01*
X19926786Y-13654500D01*
X19912500Y-13668786D01*
X20226786Y-13840214D02*
X20198214Y-13825929D01*
X20183928Y-13811643D01*
X20169643Y-13783071D01*
X20169643Y-13697357D01*
X20183928Y-13668786D01*
X20198214Y-13654500D01*
X20226786Y-13640214D01*
X20269643Y-13640214D01*
X20298214Y-13654500D01*
X20312500Y-13668786D01*
X20326786Y-13697357D01*
X20326786Y-13783071D01*
X20312500Y-13811643D01*
X20298214Y-13825929D01*
X20269643Y-13840214D01*
X20226786Y-13840214D01*
X20498214Y-13840214D02*
X20469643Y-13825929D01*
X20455357Y-13797357D01*
X20455357Y-13540214D01*
X20726786Y-13825929D02*
X20698214Y-13840214D01*
X20641071Y-13840214D01*
X20612500Y-13825929D01*
X20598214Y-13797357D01*
X20598214Y-13683071D01*
X20612500Y-13654500D01*
X20641071Y-13640214D01*
X20698214Y-13640214D01*
X20726786Y-13654500D01*
X20741071Y-13683071D01*
X20741071Y-13711643D01*
X20598214Y-13740214D01*
X20855357Y-13825929D02*
X20883928Y-13840214D01*
X20941071Y-13840214D01*
X20969643Y-13825929D01*
X20983928Y-13797357D01*
X20983928Y-13783071D01*
X20969643Y-13754500D01*
X20941071Y-13740214D01*
X20898214Y-13740214D01*
X20869643Y-13725929D01*
X20855357Y-13697357D01*
X20855357Y-13683071D01*
X20869643Y-13654500D01*
X20898214Y-13640214D01*
X20941071Y-13640214D01*
X20969643Y-13654500D01*
X21083928Y-13954500D02*
X21098214Y-13940214D01*
X21126786Y-13897357D01*
X21141071Y-13868786D01*
X21155357Y-13825929D01*
X21169643Y-13754500D01*
X21169643Y-13697357D01*
X21155357Y-13625929D01*
X21141071Y-13583071D01*
X21126786Y-13554500D01*
X21098214Y-13511643D01*
X21083928Y-13497357D01*
X14582856Y-14135856D02*
X14582856Y-14065144D01*
X14512144Y-14065144D01*
X14512144Y-14135856D01*
X14582856Y-14135856D01*
X15041071Y-14236214D02*
X14869643Y-14236214D01*
X14955357Y-14236214D02*
X14955357Y-13936214D01*
X14926786Y-13979071D01*
X14898214Y-14007643D01*
X14869643Y-14021929D01*
X15169643Y-14207643D02*
X15183928Y-14221929D01*
X15169643Y-14236214D01*
X15155357Y-14221929D01*
X15169643Y-14207643D01*
X15169643Y-14236214D01*
X15369643Y-13936214D02*
X15398214Y-13936214D01*
X15426786Y-13950500D01*
X15441071Y-13964786D01*
X15455357Y-13993357D01*
X15469643Y-14050500D01*
X15469643Y-14121929D01*
X15455357Y-14179071D01*
X15441071Y-14207643D01*
X15426786Y-14221929D01*
X15398214Y-14236214D01*
X15369643Y-14236214D01*
X15341071Y-14221929D01*
X15326786Y-14207643D01*
X15312500Y-14179071D01*
X15298214Y-14121929D01*
X15298214Y-14050500D01*
X15312500Y-13993357D01*
X15326786Y-13964786D01*
X15341071Y-13950500D01*
X15369643Y-13936214D01*
X15655357Y-13936214D02*
X15683928Y-13936214D01*
X15712500Y-13950500D01*
X15726786Y-13964786D01*
X15741071Y-13993357D01*
X15755357Y-14050500D01*
X15755357Y-14121929D01*
X15741071Y-14179071D01*
X15726786Y-14207643D01*
X15712500Y-14221929D01*
X15683928Y-14236214D01*
X15655357Y-14236214D01*
X15626786Y-14221929D01*
X15612500Y-14207643D01*
X15598214Y-14179071D01*
X15583928Y-14121929D01*
X15583928Y-14050500D01*
X15598214Y-13993357D01*
X15612500Y-13964786D01*
X15626786Y-13950500D01*
X15655357Y-13936214D01*
X15883928Y-14236214D02*
X15883928Y-14036214D01*
X15883928Y-14064786D02*
X15898214Y-14050500D01*
X15926786Y-14036214D01*
X15969643Y-14036214D01*
X15998214Y-14050500D01*
X16012500Y-14079071D01*
X16012500Y-14236214D01*
X16012500Y-14079071D02*
X16026786Y-14050500D01*
X16055357Y-14036214D01*
X16098214Y-14036214D01*
X16126786Y-14050500D01*
X16141071Y-14079071D01*
X16141071Y-14236214D01*
X16283928Y-14236214D02*
X16283928Y-14036214D01*
X16283928Y-14064786D02*
X16298214Y-14050500D01*
X16326786Y-14036214D01*
X16369643Y-14036214D01*
X16398214Y-14050500D01*
X16412500Y-14079071D01*
X16412500Y-14236214D01*
X16412500Y-14079071D02*
X16426786Y-14050500D01*
X16455357Y-14036214D01*
X16498214Y-14036214D01*
X16526786Y-14050500D01*
X16541071Y-14079071D01*
X16541071Y-14236214D01*
X17126786Y-13921929D02*
X16869643Y-14307643D01*
X17512500Y-13936214D02*
X17541071Y-13936214D01*
X17569643Y-13950500D01*
X17583928Y-13964786D01*
X17598214Y-13993357D01*
X17612500Y-14050500D01*
X17612500Y-14121929D01*
X17598214Y-14179071D01*
X17583928Y-14207643D01*
X17569643Y-14221929D01*
X17541071Y-14236214D01*
X17512500Y-14236214D01*
X17483928Y-14221929D01*
X17469643Y-14207643D01*
X17455357Y-14179071D01*
X17441071Y-14121929D01*
X17441071Y-14050500D01*
X17455357Y-13993357D01*
X17469643Y-13964786D01*
X17483928Y-13950500D01*
X17512500Y-13936214D01*
X17741071Y-14207643D02*
X17755357Y-14221929D01*
X17741071Y-14236214D01*
X17726786Y-14221929D01*
X17741071Y-14207643D01*
X17741071Y-14236214D01*
X17941071Y-13936214D02*
X17969643Y-13936214D01*
X17998214Y-13950500D01*
X18012500Y-13964786D01*
X18026786Y-13993357D01*
X18041071Y-14050500D01*
X18041071Y-14121929D01*
X18026786Y-14179071D01*
X18012500Y-14207643D01*
X17998214Y-14221929D01*
X17969643Y-14236214D01*
X17941071Y-14236214D01*
X17912500Y-14221929D01*
X17898214Y-14207643D01*
X17883928Y-14179071D01*
X17869643Y-14121929D01*
X17869643Y-14050500D01*
X17883928Y-13993357D01*
X17898214Y-13964786D01*
X17912500Y-13950500D01*
X17941071Y-13936214D01*
X18141071Y-13936214D02*
X18326786Y-13936214D01*
X18226786Y-14050500D01*
X18269643Y-14050500D01*
X18298214Y-14064786D01*
X18312500Y-14079071D01*
X18326786Y-14107643D01*
X18326786Y-14179071D01*
X18312500Y-14207643D01*
X18298214Y-14221929D01*
X18269643Y-14236214D01*
X18183928Y-14236214D01*
X18155357Y-14221929D01*
X18141071Y-14207643D01*
X18469643Y-14236214D02*
X18526786Y-14236214D01*
X18555357Y-14221929D01*
X18569643Y-14207643D01*
X18598214Y-14164786D01*
X18612500Y-14107643D01*
X18612500Y-13993357D01*
X18598214Y-13964786D01*
X18583928Y-13950500D01*
X18555357Y-13936214D01*
X18498214Y-13936214D01*
X18469643Y-13950500D01*
X18455357Y-13964786D01*
X18441071Y-13993357D01*
X18441071Y-14064786D01*
X18455357Y-14093357D01*
X18469643Y-14107643D01*
X18498214Y-14121929D01*
X18555357Y-14121929D01*
X18583928Y-14107643D01*
X18598214Y-14093357D01*
X18612500Y-14064786D01*
X18726786Y-13936214D02*
X18726786Y-13993357D01*
X18841071Y-13936214D02*
X18841071Y-13993357D01*
X19283928Y-14350500D02*
X19269643Y-14336214D01*
X19241071Y-14293357D01*
X19226786Y-14264786D01*
X19212500Y-14221929D01*
X19198214Y-14150500D01*
X19198214Y-14093357D01*
X19212500Y-14021929D01*
X19226786Y-13979071D01*
X19241071Y-13950500D01*
X19269643Y-13907643D01*
X19283928Y-13893357D01*
X19383928Y-13964786D02*
X19398214Y-13950500D01*
X19426786Y-13936214D01*
X19498214Y-13936214D01*
X19526786Y-13950500D01*
X19541071Y-13964786D01*
X19555357Y-13993357D01*
X19555357Y-14021929D01*
X19541071Y-14064786D01*
X19369643Y-14236214D01*
X19555357Y-14236214D01*
X19741071Y-13936214D02*
X19769643Y-13936214D01*
X19798214Y-13950500D01*
X19812500Y-13964786D01*
X19826786Y-13993357D01*
X19841071Y-14050500D01*
X19841071Y-14121929D01*
X19826786Y-14179071D01*
X19812500Y-14207643D01*
X19798214Y-14221929D01*
X19769643Y-14236214D01*
X19741071Y-14236214D01*
X19712500Y-14221929D01*
X19698214Y-14207643D01*
X19683928Y-14179071D01*
X19669643Y-14121929D01*
X19669643Y-14050500D01*
X19683928Y-13993357D01*
X19698214Y-13964786D01*
X19712500Y-13950500D01*
X19741071Y-13936214D01*
X20198214Y-14236214D02*
X20198214Y-13936214D01*
X20326786Y-14236214D02*
X20326786Y-14079071D01*
X20312500Y-14050500D01*
X20283928Y-14036214D01*
X20241071Y-14036214D01*
X20212500Y-14050500D01*
X20198214Y-14064786D01*
X20512500Y-14236214D02*
X20483928Y-14221929D01*
X20469643Y-14207643D01*
X20455357Y-14179071D01*
X20455357Y-14093357D01*
X20469643Y-14064786D01*
X20483928Y-14050500D01*
X20512500Y-14036214D01*
X20555357Y-14036214D01*
X20583928Y-14050500D01*
X20598214Y-14064786D01*
X20612500Y-14093357D01*
X20612500Y-14179071D01*
X20598214Y-14207643D01*
X20583928Y-14221929D01*
X20555357Y-14236214D01*
X20512500Y-14236214D01*
X20783928Y-14236214D02*
X20755357Y-14221929D01*
X20741071Y-14193357D01*
X20741071Y-13936214D01*
X21012500Y-14221929D02*
X20983928Y-14236214D01*
X20926786Y-14236214D01*
X20898214Y-14221929D01*
X20883928Y-14193357D01*
X20883928Y-14079071D01*
X20898214Y-14050500D01*
X20926786Y-14036214D01*
X20983928Y-14036214D01*
X21012500Y-14050500D01*
X21026786Y-14079071D01*
X21026786Y-14107643D01*
X20883928Y-14136214D01*
X21141071Y-14221929D02*
X21169643Y-14236214D01*
X21226786Y-14236214D01*
X21255357Y-14221929D01*
X21269643Y-14193357D01*
X21269643Y-14179071D01*
X21255357Y-14150500D01*
X21226786Y-14136214D01*
X21183928Y-14136214D01*
X21155357Y-14121929D01*
X21141071Y-14093357D01*
X21141071Y-14079071D01*
X21155357Y-14050500D01*
X21183928Y-14036214D01*
X21226786Y-14036214D01*
X21255357Y-14050500D01*
X21369643Y-14350500D02*
X21383928Y-14336214D01*
X21412500Y-14293357D01*
X21426786Y-14264786D01*
X21441071Y-14221929D01*
X21455357Y-14150500D01*
X21455357Y-14093357D01*
X21441071Y-14021929D01*
X21426786Y-13979071D01*
X21412500Y-13950500D01*
X21383928Y-13907643D01*
X21369643Y-13893357D01*
X14437500Y-14656500D02*
X14597500Y-14496500D01*
X14437500Y-14336500D01*
X14277500Y-14496500D01*
X14437500Y-14656500D01*
X14855357Y-14332214D02*
X15041071Y-14332214D01*
X14941071Y-14446500D01*
X14983928Y-14446500D01*
X15012500Y-14460786D01*
X15026786Y-14475071D01*
X15041071Y-14503643D01*
X15041071Y-14575071D01*
X15026786Y-14603643D01*
X15012500Y-14617929D01*
X14983928Y-14632214D01*
X14898214Y-14632214D01*
X14869643Y-14617929D01*
X14855357Y-14603643D01*
X15169643Y-14603643D02*
X15183928Y-14617929D01*
X15169643Y-14632214D01*
X15155357Y-14617929D01*
X15169643Y-14603643D01*
X15169643Y-14632214D01*
X15298214Y-14360786D02*
X15312500Y-14346500D01*
X15341071Y-14332214D01*
X15412500Y-14332214D01*
X15441071Y-14346500D01*
X15455357Y-14360786D01*
X15469643Y-14389357D01*
X15469643Y-14417929D01*
X15455357Y-14460786D01*
X15283928Y-14632214D01*
X15469643Y-14632214D01*
X15655357Y-14332214D02*
X15683928Y-14332214D01*
X15712500Y-14346500D01*
X15726786Y-14360786D01*
X15741071Y-14389357D01*
X15755357Y-14446500D01*
X15755357Y-14517929D01*
X15741071Y-14575071D01*
X15726786Y-14603643D01*
X15712500Y-14617929D01*
X15683928Y-14632214D01*
X15655357Y-14632214D01*
X15626786Y-14617929D01*
X15612500Y-14603643D01*
X15598214Y-14575071D01*
X15583928Y-14517929D01*
X15583928Y-14446500D01*
X15598214Y-14389357D01*
X15612500Y-14360786D01*
X15626786Y-14346500D01*
X15655357Y-14332214D01*
X15883928Y-14632214D02*
X15883928Y-14432214D01*
X15883928Y-14460786D02*
X15898214Y-14446500D01*
X15926786Y-14432214D01*
X15969643Y-14432214D01*
X15998214Y-14446500D01*
X16012500Y-14475071D01*
X16012500Y-14632214D01*
X16012500Y-14475071D02*
X16026786Y-14446500D01*
X16055357Y-14432214D01*
X16098214Y-14432214D01*
X16126786Y-14446500D01*
X16141071Y-14475071D01*
X16141071Y-14632214D01*
X16283928Y-14632214D02*
X16283928Y-14432214D01*
X16283928Y-14460786D02*
X16298214Y-14446500D01*
X16326786Y-14432214D01*
X16369643Y-14432214D01*
X16398214Y-14446500D01*
X16412500Y-14475071D01*
X16412500Y-14632214D01*
X16412500Y-14475071D02*
X16426786Y-14446500D01*
X16455357Y-14432214D01*
X16498214Y-14432214D01*
X16526786Y-14446500D01*
X16541071Y-14475071D01*
X16541071Y-14632214D01*
X17126786Y-14317929D02*
X16869643Y-14703643D01*
X17512500Y-14332214D02*
X17541071Y-14332214D01*
X17569643Y-14346500D01*
X17583928Y-14360786D01*
X17598214Y-14389357D01*
X17612500Y-14446500D01*
X17612500Y-14517929D01*
X17598214Y-14575071D01*
X17583928Y-14603643D01*
X17569643Y-14617929D01*
X17541071Y-14632214D01*
X17512500Y-14632214D01*
X17483928Y-14617929D01*
X17469643Y-14603643D01*
X17455357Y-14575071D01*
X17441071Y-14517929D01*
X17441071Y-14446500D01*
X17455357Y-14389357D01*
X17469643Y-14360786D01*
X17483928Y-14346500D01*
X17512500Y-14332214D01*
X17741071Y-14603643D02*
X17755357Y-14617929D01*
X17741071Y-14632214D01*
X17726786Y-14617929D01*
X17741071Y-14603643D01*
X17741071Y-14632214D01*
X18041071Y-14632214D02*
X17869643Y-14632214D01*
X17955357Y-14632214D02*
X17955357Y-14332214D01*
X17926786Y-14375071D01*
X17898214Y-14403643D01*
X17869643Y-14417929D01*
X18155357Y-14360786D02*
X18169643Y-14346500D01*
X18198214Y-14332214D01*
X18269643Y-14332214D01*
X18298214Y-14346500D01*
X18312500Y-14360786D01*
X18326786Y-14389357D01*
X18326786Y-14417929D01*
X18312500Y-14460786D01*
X18141071Y-14632214D01*
X18326786Y-14632214D01*
X18583928Y-14332214D02*
X18526786Y-14332214D01*
X18498214Y-14346500D01*
X18483928Y-14360786D01*
X18455357Y-14403643D01*
X18441071Y-14460786D01*
X18441071Y-14575071D01*
X18455357Y-14603643D01*
X18469643Y-14617929D01*
X18498214Y-14632214D01*
X18555357Y-14632214D01*
X18583928Y-14617929D01*
X18598214Y-14603643D01*
X18612500Y-14575071D01*
X18612500Y-14503643D01*
X18598214Y-14475071D01*
X18583928Y-14460786D01*
X18555357Y-14446500D01*
X18498214Y-14446500D01*
X18469643Y-14460786D01*
X18455357Y-14475071D01*
X18441071Y-14503643D01*
X18726786Y-14332214D02*
X18726786Y-14389357D01*
X18841071Y-14332214D02*
X18841071Y-14389357D01*
X19283928Y-14746500D02*
X19269643Y-14732214D01*
X19241071Y-14689357D01*
X19226786Y-14660786D01*
X19212500Y-14617929D01*
X19198214Y-14546500D01*
X19198214Y-14489357D01*
X19212500Y-14417929D01*
X19226786Y-14375071D01*
X19241071Y-14346500D01*
X19269643Y-14303643D01*
X19283928Y-14289357D01*
X19383928Y-14360786D02*
X19398214Y-14346500D01*
X19426786Y-14332214D01*
X19498214Y-14332214D01*
X19526786Y-14346500D01*
X19541071Y-14360786D01*
X19555357Y-14389357D01*
X19555357Y-14417929D01*
X19541071Y-14460786D01*
X19369643Y-14632214D01*
X19555357Y-14632214D01*
X19912500Y-14632214D02*
X19912500Y-14332214D01*
X20041071Y-14632214D02*
X20041071Y-14475071D01*
X20026786Y-14446500D01*
X19998214Y-14432214D01*
X19955357Y-14432214D01*
X19926786Y-14446500D01*
X19912500Y-14460786D01*
X20226786Y-14632214D02*
X20198214Y-14617929D01*
X20183928Y-14603643D01*
X20169643Y-14575071D01*
X20169643Y-14489357D01*
X20183928Y-14460786D01*
X20198214Y-14446500D01*
X20226786Y-14432214D01*
X20269643Y-14432214D01*
X20298214Y-14446500D01*
X20312500Y-14460786D01*
X20326786Y-14489357D01*
X20326786Y-14575071D01*
X20312500Y-14603643D01*
X20298214Y-14617929D01*
X20269643Y-14632214D01*
X20226786Y-14632214D01*
X20498214Y-14632214D02*
X20469643Y-14617929D01*
X20455357Y-14589357D01*
X20455357Y-14332214D01*
X20726786Y-14617929D02*
X20698214Y-14632214D01*
X20641071Y-14632214D01*
X20612500Y-14617929D01*
X20598214Y-14589357D01*
X20598214Y-14475071D01*
X20612500Y-14446500D01*
X20641071Y-14432214D01*
X20698214Y-14432214D01*
X20726786Y-14446500D01*
X20741071Y-14475071D01*
X20741071Y-14503643D01*
X20598214Y-14532214D01*
X20855357Y-14617929D02*
X20883928Y-14632214D01*
X20941071Y-14632214D01*
X20969643Y-14617929D01*
X20983928Y-14589357D01*
X20983928Y-14575071D01*
X20969643Y-14546500D01*
X20941071Y-14532214D01*
X20898214Y-14532214D01*
X20869643Y-14517929D01*
X20855357Y-14489357D01*
X20855357Y-14475071D01*
X20869643Y-14446500D01*
X20898214Y-14432214D01*
X20941071Y-14432214D01*
X20969643Y-14446500D01*
X21083928Y-14746500D02*
X21098214Y-14732214D01*
X21126786Y-14689357D01*
X21141071Y-14660786D01*
X21155357Y-14617929D01*
X21169643Y-14546500D01*
X21169643Y-14489357D01*
X21155357Y-14417929D01*
X21141071Y-14375071D01*
X21126786Y-14346500D01*
X21098214Y-14303643D01*
X21083928Y-14289357D01*
M02*
