G04 #@! TF.GenerationSoftware,KiCad,Pcbnew,5.1.9+dfsg1-1*
G04 #@! TF.CreationDate,2022-11-10T16:03:50+09:00*
G04 #@! TF.ProjectId,din-photocoupler,64696e2d-7068-46f7-946f-636f75706c65,rev?*
G04 #@! TF.SameCoordinates,Original*
G04 #@! TF.FileFunction,Soldermask,Top*
G04 #@! TF.FilePolarity,Negative*
%FSLAX46Y46*%
G04 Gerber Fmt 4.6, Leading zero omitted, Abs format (unit mm)*
G04 Created by KiCad (PCBNEW 5.1.9+dfsg1-1) date 2022-11-10 16:03:50*
%MOMM*%
%LPD*%
G01*
G04 APERTURE LIST*
%ADD10C,5.700000*%
%ADD11O,2.000000X1.700000*%
%ADD12O,1.700000X1.950000*%
%ADD13R,1.700000X1.700000*%
%ADD14O,1.700000X1.700000*%
%ADD15R,1.600000X1.600000*%
%ADD16O,1.600000X1.600000*%
G04 APERTURE END LIST*
D10*
X155000000Y-115000000D03*
X155000000Y-60000000D03*
G36*
G01*
X148450001Y-97575000D02*
X147549999Y-97575000D01*
G75*
G02*
X147300000Y-97325001I0J249999D01*
G01*
X147300000Y-96674999D01*
G75*
G02*
X147549999Y-96425000I249999J0D01*
G01*
X148450001Y-96425000D01*
G75*
G02*
X148700000Y-96674999I0J-249999D01*
G01*
X148700000Y-97325001D01*
G75*
G02*
X148450001Y-97575000I-249999J0D01*
G01*
G37*
G36*
G01*
X148450001Y-95525000D02*
X147549999Y-95525000D01*
G75*
G02*
X147300000Y-95275001I0J249999D01*
G01*
X147300000Y-94624999D01*
G75*
G02*
X147549999Y-94375000I249999J0D01*
G01*
X148450001Y-94375000D01*
G75*
G02*
X148700000Y-94624999I0J-249999D01*
G01*
X148700000Y-95275001D01*
G75*
G02*
X148450001Y-95525000I-249999J0D01*
G01*
G37*
G36*
G01*
X149750000Y-108350000D02*
X148250000Y-108350000D01*
G75*
G02*
X148000000Y-108100000I0J250000D01*
G01*
X148000000Y-106900000D01*
G75*
G02*
X148250000Y-106650000I250000J0D01*
G01*
X149750000Y-106650000D01*
G75*
G02*
X150000000Y-106900000I0J-250000D01*
G01*
X150000000Y-108100000D01*
G75*
G02*
X149750000Y-108350000I-250000J0D01*
G01*
G37*
D11*
X149000000Y-105000000D03*
D12*
X156000000Y-107500000D03*
X158500000Y-107500000D03*
G36*
G01*
X161850000Y-106775000D02*
X161850000Y-108225000D01*
G75*
G02*
X161600000Y-108475000I-250000J0D01*
G01*
X160400000Y-108475000D01*
G75*
G02*
X160150000Y-108225000I0J250000D01*
G01*
X160150000Y-106775000D01*
G75*
G02*
X160400000Y-106525000I250000J0D01*
G01*
X161600000Y-106525000D01*
G75*
G02*
X161850000Y-106775000I0J-250000D01*
G01*
G37*
D13*
X152380000Y-100000000D03*
D14*
X152380000Y-97460000D03*
X154920000Y-100000000D03*
X154920000Y-97460000D03*
X157460000Y-100000000D03*
X157460000Y-97460000D03*
X160000000Y-100000000D03*
X160000000Y-97460000D03*
D13*
X148000000Y-86500000D03*
D14*
X150540000Y-86500000D03*
X148000000Y-89040000D03*
X150540000Y-89040000D03*
X150540000Y-78040000D03*
X148000000Y-78040000D03*
X150540000Y-75500000D03*
D13*
X148000000Y-75500000D03*
D11*
X149000000Y-67000000D03*
G36*
G01*
X149750000Y-70350000D02*
X148250000Y-70350000D01*
G75*
G02*
X148000000Y-70100000I0J250000D01*
G01*
X148000000Y-68900000D01*
G75*
G02*
X148250000Y-68650000I250000J0D01*
G01*
X149750000Y-68650000D01*
G75*
G02*
X150000000Y-68900000I0J-250000D01*
G01*
X150000000Y-70100000D01*
G75*
G02*
X149750000Y-70350000I-250000J0D01*
G01*
G37*
G36*
G01*
X155150000Y-67725000D02*
X155150000Y-66275000D01*
G75*
G02*
X155400000Y-66025000I250000J0D01*
G01*
X156600000Y-66025000D01*
G75*
G02*
X156850000Y-66275000I0J-250000D01*
G01*
X156850000Y-67725000D01*
G75*
G02*
X156600000Y-67975000I-250000J0D01*
G01*
X155400000Y-67975000D01*
G75*
G02*
X155150000Y-67725000I0J250000D01*
G01*
G37*
D12*
X158500000Y-67000000D03*
X161000000Y-67000000D03*
G36*
G01*
X160600000Y-89549999D02*
X160600000Y-90450001D01*
G75*
G02*
X160350001Y-90700000I-249999J0D01*
G01*
X159649999Y-90700000D01*
G75*
G02*
X159400000Y-90450001I0J249999D01*
G01*
X159400000Y-89549999D01*
G75*
G02*
X159649999Y-89300000I249999J0D01*
G01*
X160350001Y-89300000D01*
G75*
G02*
X160600000Y-89549999I0J-249999D01*
G01*
G37*
G36*
G01*
X162600000Y-89549999D02*
X162600000Y-90450001D01*
G75*
G02*
X162350001Y-90700000I-249999J0D01*
G01*
X161649999Y-90700000D01*
G75*
G02*
X161400000Y-90450001I0J249999D01*
G01*
X161400000Y-89549999D01*
G75*
G02*
X161649999Y-89300000I249999J0D01*
G01*
X162350001Y-89300000D01*
G75*
G02*
X162600000Y-89549999I0J-249999D01*
G01*
G37*
G36*
G01*
X148450001Y-101600000D02*
X147549999Y-101600000D01*
G75*
G02*
X147300000Y-101350001I0J249999D01*
G01*
X147300000Y-100649999D01*
G75*
G02*
X147549999Y-100400000I249999J0D01*
G01*
X148450001Y-100400000D01*
G75*
G02*
X148700000Y-100649999I0J-249999D01*
G01*
X148700000Y-101350001D01*
G75*
G02*
X148450001Y-101600000I-249999J0D01*
G01*
G37*
G36*
G01*
X148450001Y-99600000D02*
X147549999Y-99600000D01*
G75*
G02*
X147300000Y-99350001I0J249999D01*
G01*
X147300000Y-98649999D01*
G75*
G02*
X147549999Y-98400000I249999J0D01*
G01*
X148450001Y-98400000D01*
G75*
G02*
X148700000Y-98649999I0J-249999D01*
G01*
X148700000Y-99350001D01*
G75*
G02*
X148450001Y-99600000I-249999J0D01*
G01*
G37*
G36*
G01*
X154600000Y-87549999D02*
X154600000Y-88450001D01*
G75*
G02*
X154350001Y-88700000I-249999J0D01*
G01*
X153649999Y-88700000D01*
G75*
G02*
X153400000Y-88450001I0J249999D01*
G01*
X153400000Y-87549999D01*
G75*
G02*
X153649999Y-87300000I249999J0D01*
G01*
X154350001Y-87300000D01*
G75*
G02*
X154600000Y-87549999I0J-249999D01*
G01*
G37*
G36*
G01*
X156600000Y-87549999D02*
X156600000Y-88450001D01*
G75*
G02*
X156350001Y-88700000I-249999J0D01*
G01*
X155649999Y-88700000D01*
G75*
G02*
X155400000Y-88450001I0J249999D01*
G01*
X155400000Y-87549999D01*
G75*
G02*
X155649999Y-87300000I249999J0D01*
G01*
X156350001Y-87300000D01*
G75*
G02*
X156600000Y-87549999I0J-249999D01*
G01*
G37*
G36*
G01*
X156600000Y-85049999D02*
X156600000Y-85950001D01*
G75*
G02*
X156350001Y-86200000I-249999J0D01*
G01*
X155649999Y-86200000D01*
G75*
G02*
X155400000Y-85950001I0J249999D01*
G01*
X155400000Y-85049999D01*
G75*
G02*
X155649999Y-84800000I249999J0D01*
G01*
X156350001Y-84800000D01*
G75*
G02*
X156600000Y-85049999I0J-249999D01*
G01*
G37*
G36*
G01*
X154600000Y-85049999D02*
X154600000Y-85950001D01*
G75*
G02*
X154350001Y-86200000I-249999J0D01*
G01*
X153649999Y-86200000D01*
G75*
G02*
X153400000Y-85950001I0J249999D01*
G01*
X153400000Y-85049999D01*
G75*
G02*
X153649999Y-84800000I249999J0D01*
G01*
X154350001Y-84800000D01*
G75*
G02*
X154600000Y-85049999I0J-249999D01*
G01*
G37*
G36*
G01*
X153400000Y-80950001D02*
X153400000Y-80049999D01*
G75*
G02*
X153649999Y-79800000I249999J0D01*
G01*
X154350001Y-79800000D01*
G75*
G02*
X154600000Y-80049999I0J-249999D01*
G01*
X154600000Y-80950001D01*
G75*
G02*
X154350001Y-81200000I-249999J0D01*
G01*
X153649999Y-81200000D01*
G75*
G02*
X153400000Y-80950001I0J249999D01*
G01*
G37*
G36*
G01*
X155400000Y-80950001D02*
X155400000Y-80049999D01*
G75*
G02*
X155649999Y-79800000I249999J0D01*
G01*
X156350001Y-79800000D01*
G75*
G02*
X156600000Y-80049999I0J-249999D01*
G01*
X156600000Y-80950001D01*
G75*
G02*
X156350001Y-81200000I-249999J0D01*
G01*
X155649999Y-81200000D01*
G75*
G02*
X155400000Y-80950001I0J249999D01*
G01*
G37*
D15*
X159460000Y-88000000D03*
D16*
X162000000Y-80380000D03*
X162000000Y-88000000D03*
X159460000Y-80380000D03*
G36*
G01*
X155150000Y-76225000D02*
X155150000Y-74775000D01*
G75*
G02*
X155400000Y-74525000I250000J0D01*
G01*
X156600000Y-74525000D01*
G75*
G02*
X156850000Y-74775000I0J-250000D01*
G01*
X156850000Y-76225000D01*
G75*
G02*
X156600000Y-76475000I-250000J0D01*
G01*
X155400000Y-76475000D01*
G75*
G02*
X155150000Y-76225000I0J250000D01*
G01*
G37*
D12*
X158500000Y-75500000D03*
X161000000Y-75500000D03*
M02*
