G04 #@! TF.GenerationSoftware,KiCad,Pcbnew,5.1.9+dfsg1-1*
G04 #@! TF.CreationDate,2022-11-10T16:03:50+09:00*
G04 #@! TF.ProjectId,din-photocoupler,64696e2d-7068-46f7-946f-636f75706c65,rev?*
G04 #@! TF.SameCoordinates,Original*
G04 #@! TF.FileFunction,Legend,Bot*
G04 #@! TF.FilePolarity,Positive*
%FSLAX46Y46*%
G04 Gerber Fmt 4.6, Leading zero omitted, Abs format (unit mm)*
G04 Created by KiCad (PCBNEW 5.1.9+dfsg1-1) date 2022-11-10 16:03:50*
%MOMM*%
%LPD*%
G01*
G04 APERTURE LIST*
%ADD10C,0.100000*%
%ADD11C,0.150000*%
%ADD12C,5.700000*%
%ADD13O,2.000000X1.700000*%
%ADD14O,1.700000X1.950000*%
%ADD15R,1.700000X1.700000*%
%ADD16O,1.700000X1.700000*%
%ADD17R,1.600000X1.600000*%
%ADD18O,1.600000X1.600000*%
G04 APERTURE END LIST*
D10*
X154160714Y-79410714D02*
X154517857Y-79660714D01*
X154160714Y-79839285D02*
X154910714Y-79839285D01*
X154910714Y-79553571D01*
X154875000Y-79482142D01*
X154839285Y-79446428D01*
X154767857Y-79410714D01*
X154660714Y-79410714D01*
X154589285Y-79446428D01*
X154553571Y-79482142D01*
X154517857Y-79553571D01*
X154517857Y-79839285D01*
X154196428Y-78803571D02*
X154160714Y-78875000D01*
X154160714Y-79017857D01*
X154196428Y-79089285D01*
X154267857Y-79125000D01*
X154553571Y-79125000D01*
X154625000Y-79089285D01*
X154660714Y-79017857D01*
X154660714Y-78875000D01*
X154625000Y-78803571D01*
X154553571Y-78767857D01*
X154482142Y-78767857D01*
X154410714Y-79125000D01*
X154660714Y-78517857D02*
X154160714Y-78339285D01*
X154660714Y-78160714D01*
X154232142Y-77875000D02*
X154196428Y-77839285D01*
X154160714Y-77875000D01*
X154196428Y-77910714D01*
X154232142Y-77875000D01*
X154160714Y-77875000D01*
X154160714Y-77125000D02*
X154160714Y-77553571D01*
X154160714Y-77339285D02*
X154910714Y-77339285D01*
X154803571Y-77410714D01*
X154732142Y-77482142D01*
X154696428Y-77553571D01*
D11*
X157157142Y-95100000D02*
X157157142Y-94871428D01*
X157100000Y-94757142D01*
X156985714Y-94642857D01*
X156757142Y-94585714D01*
X156357142Y-94585714D01*
X156128571Y-94642857D01*
X156014285Y-94757142D01*
X155957142Y-94871428D01*
X155957142Y-95100000D01*
X156014285Y-95214285D01*
X156128571Y-95328571D01*
X156357142Y-95385714D01*
X156757142Y-95385714D01*
X156985714Y-95328571D01*
X157100000Y-95214285D01*
X157157142Y-95100000D01*
X156757142Y-94071428D02*
X155557142Y-94071428D01*
X156700000Y-94071428D02*
X156757142Y-93957142D01*
X156757142Y-93728571D01*
X156700000Y-93614285D01*
X156642857Y-93557142D01*
X156528571Y-93500000D01*
X156185714Y-93500000D01*
X156071428Y-93557142D01*
X156014285Y-93614285D01*
X155957142Y-93728571D01*
X155957142Y-93957142D01*
X156014285Y-94071428D01*
X156757142Y-93157142D02*
X156757142Y-92700000D01*
X157157142Y-92985714D02*
X156128571Y-92985714D01*
X156014285Y-92928571D01*
X155957142Y-92814285D01*
X155957142Y-92700000D01*
X155957142Y-92128571D02*
X156014285Y-92242857D01*
X156071428Y-92300000D01*
X156185714Y-92357142D01*
X156528571Y-92357142D01*
X156642857Y-92300000D01*
X156700000Y-92242857D01*
X156757142Y-92128571D01*
X156757142Y-91957142D01*
X156700000Y-91842857D01*
X156642857Y-91785714D01*
X156528571Y-91728571D01*
X156185714Y-91728571D01*
X156071428Y-91785714D01*
X156014285Y-91842857D01*
X155957142Y-91957142D01*
X155957142Y-92128571D01*
X156014285Y-90700000D02*
X155957142Y-90814285D01*
X155957142Y-91042857D01*
X156014285Y-91157142D01*
X156071428Y-91214285D01*
X156185714Y-91271428D01*
X156528571Y-91271428D01*
X156642857Y-91214285D01*
X156700000Y-91157142D01*
X156757142Y-91042857D01*
X156757142Y-90814285D01*
X156700000Y-90700000D01*
X155957142Y-90014285D02*
X156014285Y-90128571D01*
X156071428Y-90185714D01*
X156185714Y-90242857D01*
X156528571Y-90242857D01*
X156642857Y-90185714D01*
X156700000Y-90128571D01*
X156757142Y-90014285D01*
X156757142Y-89842857D01*
X156700000Y-89728571D01*
X156642857Y-89671428D01*
X156528571Y-89614285D01*
X156185714Y-89614285D01*
X156071428Y-89671428D01*
X156014285Y-89728571D01*
X155957142Y-89842857D01*
X155957142Y-90014285D01*
X156757142Y-88585714D02*
X155957142Y-88585714D01*
X156757142Y-89100000D02*
X156128571Y-89100000D01*
X156014285Y-89042857D01*
X155957142Y-88928571D01*
X155957142Y-88757142D01*
X156014285Y-88642857D01*
X156071428Y-88585714D01*
X156757142Y-88014285D02*
X155557142Y-88014285D01*
X156700000Y-88014285D02*
X156757142Y-87900000D01*
X156757142Y-87671428D01*
X156700000Y-87557142D01*
X156642857Y-87500000D01*
X156528571Y-87442857D01*
X156185714Y-87442857D01*
X156071428Y-87500000D01*
X156014285Y-87557142D01*
X155957142Y-87671428D01*
X155957142Y-87900000D01*
X156014285Y-88014285D01*
X155957142Y-86757142D02*
X156014285Y-86871428D01*
X156128571Y-86928571D01*
X157157142Y-86928571D01*
X156014285Y-85842857D02*
X155957142Y-85957142D01*
X155957142Y-86185714D01*
X156014285Y-86300000D01*
X156128571Y-86357142D01*
X156585714Y-86357142D01*
X156700000Y-86300000D01*
X156757142Y-86185714D01*
X156757142Y-85957142D01*
X156700000Y-85842857D01*
X156585714Y-85785714D01*
X156471428Y-85785714D01*
X156357142Y-86357142D01*
X155957142Y-85271428D02*
X156757142Y-85271428D01*
X156528571Y-85271428D02*
X156642857Y-85214285D01*
X156700000Y-85157142D01*
X156757142Y-85042857D01*
X156757142Y-84928571D01*
X155957142Y-83614285D02*
X156757142Y-83614285D01*
X156642857Y-83614285D02*
X156700000Y-83557142D01*
X156757142Y-83442857D01*
X156757142Y-83271428D01*
X156700000Y-83157142D01*
X156585714Y-83100000D01*
X155957142Y-83100000D01*
X156585714Y-83100000D02*
X156700000Y-83042857D01*
X156757142Y-82928571D01*
X156757142Y-82757142D01*
X156700000Y-82642857D01*
X156585714Y-82585714D01*
X155957142Y-82585714D01*
X155957142Y-81842857D02*
X156014285Y-81957142D01*
X156071428Y-82014285D01*
X156185714Y-82071428D01*
X156528571Y-82071428D01*
X156642857Y-82014285D01*
X156700000Y-81957142D01*
X156757142Y-81842857D01*
X156757142Y-81671428D01*
X156700000Y-81557142D01*
X156642857Y-81500000D01*
X156528571Y-81442857D01*
X156185714Y-81442857D01*
X156071428Y-81500000D01*
X156014285Y-81557142D01*
X155957142Y-81671428D01*
X155957142Y-81842857D01*
X155957142Y-80414285D02*
X157157142Y-80414285D01*
X156014285Y-80414285D02*
X155957142Y-80528571D01*
X155957142Y-80757142D01*
X156014285Y-80871428D01*
X156071428Y-80928571D01*
X156185714Y-80985714D01*
X156528571Y-80985714D01*
X156642857Y-80928571D01*
X156700000Y-80871428D01*
X156757142Y-80757142D01*
X156757142Y-80528571D01*
X156700000Y-80414285D01*
X156757142Y-79328571D02*
X155957142Y-79328571D01*
X156757142Y-79842857D02*
X156128571Y-79842857D01*
X156014285Y-79785714D01*
X155957142Y-79671428D01*
X155957142Y-79500000D01*
X156014285Y-79385714D01*
X156071428Y-79328571D01*
X155957142Y-78585714D02*
X156014285Y-78700000D01*
X156128571Y-78757142D01*
X157157142Y-78757142D01*
X156014285Y-77671428D02*
X155957142Y-77785714D01*
X155957142Y-78014285D01*
X156014285Y-78128571D01*
X156128571Y-78185714D01*
X156585714Y-78185714D01*
X156700000Y-78128571D01*
X156757142Y-78014285D01*
X156757142Y-77785714D01*
X156700000Y-77671428D01*
X156585714Y-77614285D01*
X156471428Y-77614285D01*
X156357142Y-78185714D01*
%LPC*%
D12*
X155000000Y-115000000D03*
X155000000Y-60000000D03*
G36*
G01*
X149750000Y-108350000D02*
X148250000Y-108350000D01*
G75*
G02*
X148000000Y-108100000I0J250000D01*
G01*
X148000000Y-106900000D01*
G75*
G02*
X148250000Y-106650000I250000J0D01*
G01*
X149750000Y-106650000D01*
G75*
G02*
X150000000Y-106900000I0J-250000D01*
G01*
X150000000Y-108100000D01*
G75*
G02*
X149750000Y-108350000I-250000J0D01*
G01*
G37*
D13*
X149000000Y-105000000D03*
D14*
X156000000Y-107500000D03*
X158500000Y-107500000D03*
G36*
G01*
X161850000Y-106775000D02*
X161850000Y-108225000D01*
G75*
G02*
X161600000Y-108475000I-250000J0D01*
G01*
X160400000Y-108475000D01*
G75*
G02*
X160150000Y-108225000I0J250000D01*
G01*
X160150000Y-106775000D01*
G75*
G02*
X160400000Y-106525000I250000J0D01*
G01*
X161600000Y-106525000D01*
G75*
G02*
X161850000Y-106775000I0J-250000D01*
G01*
G37*
D15*
X152380000Y-100000000D03*
D16*
X152380000Y-97460000D03*
X154920000Y-100000000D03*
X154920000Y-97460000D03*
X157460000Y-100000000D03*
X157460000Y-97460000D03*
X160000000Y-100000000D03*
X160000000Y-97460000D03*
D15*
X148000000Y-86500000D03*
D16*
X150540000Y-86500000D03*
X148000000Y-89040000D03*
X150540000Y-89040000D03*
X150540000Y-78040000D03*
X148000000Y-78040000D03*
X150540000Y-75500000D03*
D15*
X148000000Y-75500000D03*
D13*
X149000000Y-67000000D03*
G36*
G01*
X149750000Y-70350000D02*
X148250000Y-70350000D01*
G75*
G02*
X148000000Y-70100000I0J250000D01*
G01*
X148000000Y-68900000D01*
G75*
G02*
X148250000Y-68650000I250000J0D01*
G01*
X149750000Y-68650000D01*
G75*
G02*
X150000000Y-68900000I0J-250000D01*
G01*
X150000000Y-70100000D01*
G75*
G02*
X149750000Y-70350000I-250000J0D01*
G01*
G37*
G36*
G01*
X155150000Y-67725000D02*
X155150000Y-66275000D01*
G75*
G02*
X155400000Y-66025000I250000J0D01*
G01*
X156600000Y-66025000D01*
G75*
G02*
X156850000Y-66275000I0J-250000D01*
G01*
X156850000Y-67725000D01*
G75*
G02*
X156600000Y-67975000I-250000J0D01*
G01*
X155400000Y-67975000D01*
G75*
G02*
X155150000Y-67725000I0J250000D01*
G01*
G37*
D14*
X158500000Y-67000000D03*
X161000000Y-67000000D03*
D17*
X159460000Y-88000000D03*
D18*
X162000000Y-80380000D03*
X162000000Y-88000000D03*
X159460000Y-80380000D03*
G36*
G01*
X155150000Y-76225000D02*
X155150000Y-74775000D01*
G75*
G02*
X155400000Y-74525000I250000J0D01*
G01*
X156600000Y-74525000D01*
G75*
G02*
X156850000Y-74775000I0J-250000D01*
G01*
X156850000Y-76225000D01*
G75*
G02*
X156600000Y-76475000I-250000J0D01*
G01*
X155400000Y-76475000D01*
G75*
G02*
X155150000Y-76225000I0J250000D01*
G01*
G37*
D14*
X158500000Y-75500000D03*
X161000000Y-75500000D03*
M02*
