M48
; DRILL file {KiCad 5.1.9+dfsg1-1} date Wed Aug 24 15:04:38 2022
; FORMAT={-:-/ absolute / metric / decimal}
; #@! TF.CreationDate,2022-08-24T15:04:38+09:00
; #@! TF.GenerationSoftware,Kicad,Pcbnew,5.1.9+dfsg1-1
; #@! TF.FileFunction,Plated,1,2,PTH
FMAT,2
METRIC
T1C0.762
T2C1.000
%
G90
G05
T1
X130.87Y-94.615
X130.87Y-97.155
X130.87Y-99.695
X130.87Y-102.235
X130.87Y-104.775
X130.87Y-107.315
X130.87Y-109.855
X130.87Y-112.395
X149.92Y-94.615
X149.92Y-97.155
X149.92Y-99.695
X149.92Y-102.235
X149.92Y-104.775
X149.92Y-107.315
X149.92Y-109.855
X149.92Y-112.395
T2
X134.874Y-101.981
X137.374Y-101.981
X143.383Y-101.981
X145.883Y-101.981
T0
M30
