%TF.GenerationSoftware,KiCad,Pcbnew,5.0.2+dfsg1-1*%
%TF.CreationDate,2022-03-26T23:48:49+09:00*%
%TF.ProjectId,pwm-esc,70776d2d-6573-4632-9e6b-696361645f70,rev?*%
%TF.SameCoordinates,Original*%
%TF.FileFunction,Soldermask,Bot*%
%TF.FilePolarity,Negative*%
%FSLAX46Y46*%
G04 Gerber Fmt 4.6, Leading zero omitted, Abs format (unit mm)*
G04 Created by KiCad (PCBNEW 5.0.2+dfsg1-1) date Sat 26 Mar 2022 11:48:49 PM JST*
%MOMM*%
%LPD*%
G01*
G04 APERTURE LIST*
%ADD10C,0.150000*%
%ADD11C,0.100000*%
G04 APERTURE END LIST*
D10*
X109728000Y-121920000D02*
X109728000Y-81788000D01*
X184912000Y-121920000D02*
X109728000Y-121920000D01*
X184912000Y-81788000D02*
X184912000Y-121920000D01*
X109728000Y-81788000D02*
X184912000Y-81788000D01*
D11*
G36*
X116566565Y-119281389D02*
X116757834Y-119360615D01*
X116929976Y-119475637D01*
X117076363Y-119622024D01*
X117191385Y-119794166D01*
X117270611Y-119985435D01*
X117311000Y-120188484D01*
X117311000Y-120395516D01*
X117270611Y-120598565D01*
X117191385Y-120789834D01*
X117076363Y-120961976D01*
X116929976Y-121108363D01*
X116757834Y-121223385D01*
X116566565Y-121302611D01*
X116363516Y-121343000D01*
X116156484Y-121343000D01*
X115953435Y-121302611D01*
X115762166Y-121223385D01*
X115590024Y-121108363D01*
X115443637Y-120961976D01*
X115328615Y-120789834D01*
X115249389Y-120598565D01*
X115209000Y-120395516D01*
X115209000Y-120188484D01*
X115249389Y-119985435D01*
X115328615Y-119794166D01*
X115443637Y-119622024D01*
X115590024Y-119475637D01*
X115762166Y-119360615D01*
X115953435Y-119281389D01*
X116156484Y-119241000D01*
X116363516Y-119241000D01*
X116566565Y-119281389D01*
X116566565Y-119281389D01*
G37*
G36*
X112066565Y-119281389D02*
X112257834Y-119360615D01*
X112429976Y-119475637D01*
X112576363Y-119622024D01*
X112691385Y-119794166D01*
X112770611Y-119985435D01*
X112811000Y-120188484D01*
X112811000Y-120395516D01*
X112770611Y-120598565D01*
X112691385Y-120789834D01*
X112576363Y-120961976D01*
X112429976Y-121108363D01*
X112257834Y-121223385D01*
X112066565Y-121302611D01*
X111863516Y-121343000D01*
X111656484Y-121343000D01*
X111453435Y-121302611D01*
X111262166Y-121223385D01*
X111090024Y-121108363D01*
X110943637Y-120961976D01*
X110828615Y-120789834D01*
X110749389Y-120598565D01*
X110709000Y-120395516D01*
X110709000Y-120188484D01*
X110749389Y-119985435D01*
X110828615Y-119794166D01*
X110943637Y-119622024D01*
X111090024Y-119475637D01*
X111262166Y-119360615D01*
X111453435Y-119281389D01*
X111656484Y-119241000D01*
X111863516Y-119241000D01*
X112066565Y-119281389D01*
X112066565Y-119281389D01*
G37*
G36*
X122553589Y-119634876D02*
X122652893Y-119654629D01*
X122793206Y-119712748D01*
X122919484Y-119797125D01*
X123026875Y-119904516D01*
X123111252Y-120030794D01*
X123169371Y-120171107D01*
X123199000Y-120320063D01*
X123199000Y-120471937D01*
X123169371Y-120620893D01*
X123111252Y-120761206D01*
X123026875Y-120887484D01*
X122919484Y-120994875D01*
X122793206Y-121079252D01*
X122652893Y-121137371D01*
X122553589Y-121157124D01*
X122503938Y-121167000D01*
X122352062Y-121167000D01*
X122302411Y-121157124D01*
X122203107Y-121137371D01*
X122062794Y-121079252D01*
X121936516Y-120994875D01*
X121829125Y-120887484D01*
X121744748Y-120761206D01*
X121686629Y-120620893D01*
X121657000Y-120471937D01*
X121657000Y-120320063D01*
X121686629Y-120171107D01*
X121744748Y-120030794D01*
X121829125Y-119904516D01*
X121936516Y-119797125D01*
X122062794Y-119712748D01*
X122203107Y-119654629D01*
X122302411Y-119634876D01*
X122352062Y-119625000D01*
X122503938Y-119625000D01*
X122553589Y-119634876D01*
X122553589Y-119634876D01*
G37*
G36*
X131699941Y-114922248D02*
X131699943Y-114922249D01*
X131699944Y-114922249D01*
X132255190Y-115152239D01*
X132613923Y-115391937D01*
X132754902Y-115486136D01*
X133179864Y-115911098D01*
X133179866Y-115911101D01*
X133513761Y-116410810D01*
X133743751Y-116966056D01*
X133743752Y-116966059D01*
X133861000Y-117555501D01*
X133861000Y-118156499D01*
X133772981Y-118599000D01*
X133743751Y-118745944D01*
X133513761Y-119301190D01*
X133238767Y-119712748D01*
X133179864Y-119800902D01*
X132754902Y-120225864D01*
X132754899Y-120225866D01*
X132255190Y-120559761D01*
X131699944Y-120789751D01*
X131699943Y-120789751D01*
X131699941Y-120789752D01*
X131110499Y-120907000D01*
X130509501Y-120907000D01*
X129920059Y-120789752D01*
X129920057Y-120789751D01*
X129920056Y-120789751D01*
X129364810Y-120559761D01*
X128865101Y-120225866D01*
X128865098Y-120225864D01*
X128440136Y-119800902D01*
X128381233Y-119712748D01*
X128106239Y-119301190D01*
X127876249Y-118745944D01*
X127847020Y-118599000D01*
X127759000Y-118156499D01*
X127759000Y-117555501D01*
X127876248Y-116966059D01*
X127876249Y-116966056D01*
X128106239Y-116410810D01*
X128440134Y-115911101D01*
X128440136Y-115911098D01*
X128865098Y-115486136D01*
X129006077Y-115391937D01*
X129364810Y-115152239D01*
X129920056Y-114922249D01*
X129920057Y-114922249D01*
X129920059Y-114922248D01*
X130509501Y-114805000D01*
X131110499Y-114805000D01*
X131699941Y-114922248D01*
X131699941Y-114922248D01*
G37*
G36*
X163699941Y-114922248D02*
X163699943Y-114922249D01*
X163699944Y-114922249D01*
X164255190Y-115152239D01*
X164613923Y-115391937D01*
X164754902Y-115486136D01*
X165179864Y-115911098D01*
X165179866Y-115911101D01*
X165513761Y-116410810D01*
X165743751Y-116966056D01*
X165743752Y-116966059D01*
X165861000Y-117555501D01*
X165861000Y-118156499D01*
X165772981Y-118599000D01*
X165743751Y-118745944D01*
X165513761Y-119301190D01*
X165238767Y-119712748D01*
X165179864Y-119800902D01*
X164754902Y-120225864D01*
X164754899Y-120225866D01*
X164255190Y-120559761D01*
X163699944Y-120789751D01*
X163699943Y-120789751D01*
X163699941Y-120789752D01*
X163110499Y-120907000D01*
X162509501Y-120907000D01*
X161920059Y-120789752D01*
X161920057Y-120789751D01*
X161920056Y-120789751D01*
X161364810Y-120559761D01*
X160865101Y-120225866D01*
X160865098Y-120225864D01*
X160440136Y-119800902D01*
X160381233Y-119712748D01*
X160106239Y-119301190D01*
X159876249Y-118745944D01*
X159847020Y-118599000D01*
X159759000Y-118156499D01*
X159759000Y-117555501D01*
X159876248Y-116966059D01*
X159876249Y-116966056D01*
X160106239Y-116410810D01*
X160440134Y-115911101D01*
X160440136Y-115911098D01*
X160865098Y-115486136D01*
X161006077Y-115391937D01*
X161364810Y-115152239D01*
X161920056Y-114922249D01*
X161920057Y-114922249D01*
X161920059Y-114922248D01*
X162509501Y-114805000D01*
X163110499Y-114805000D01*
X163699941Y-114922248D01*
X163699941Y-114922248D01*
G37*
G36*
X152127142Y-118854242D02*
X152275102Y-118915530D01*
X152408258Y-119004502D01*
X152521498Y-119117742D01*
X152610470Y-119250898D01*
X152671758Y-119398858D01*
X152703000Y-119555925D01*
X152703000Y-119716075D01*
X152671758Y-119873142D01*
X152610470Y-120021102D01*
X152521498Y-120154258D01*
X152408258Y-120267498D01*
X152275102Y-120356470D01*
X152127142Y-120417758D01*
X151970075Y-120449000D01*
X151809925Y-120449000D01*
X151652858Y-120417758D01*
X151504898Y-120356470D01*
X151371742Y-120267498D01*
X151258502Y-120154258D01*
X151169530Y-120021102D01*
X151108242Y-119873142D01*
X151077000Y-119716075D01*
X151077000Y-119555925D01*
X151108242Y-119398858D01*
X151169530Y-119250898D01*
X151258502Y-119117742D01*
X151371742Y-119004502D01*
X151504898Y-118915530D01*
X151652858Y-118854242D01*
X151809925Y-118823000D01*
X151970075Y-118823000D01*
X152127142Y-118854242D01*
X152127142Y-118854242D01*
G37*
G36*
X149587142Y-118854242D02*
X149735102Y-118915530D01*
X149868258Y-119004502D01*
X149981498Y-119117742D01*
X150070470Y-119250898D01*
X150131758Y-119398858D01*
X150163000Y-119555925D01*
X150163000Y-119716075D01*
X150131758Y-119873142D01*
X150070470Y-120021102D01*
X149981498Y-120154258D01*
X149868258Y-120267498D01*
X149735102Y-120356470D01*
X149587142Y-120417758D01*
X149430075Y-120449000D01*
X149269925Y-120449000D01*
X149112858Y-120417758D01*
X148964898Y-120356470D01*
X148831742Y-120267498D01*
X148718502Y-120154258D01*
X148629530Y-120021102D01*
X148568242Y-119873142D01*
X148537000Y-119716075D01*
X148537000Y-119555925D01*
X148568242Y-119398858D01*
X148629530Y-119250898D01*
X148718502Y-119117742D01*
X148831742Y-119004502D01*
X148964898Y-118915530D01*
X149112858Y-118854242D01*
X149269925Y-118823000D01*
X149430075Y-118823000D01*
X149587142Y-118854242D01*
X149587142Y-118854242D01*
G37*
G36*
X147047142Y-118854242D02*
X147195102Y-118915530D01*
X147328258Y-119004502D01*
X147441498Y-119117742D01*
X147530470Y-119250898D01*
X147591758Y-119398858D01*
X147623000Y-119555925D01*
X147623000Y-119716075D01*
X147591758Y-119873142D01*
X147530470Y-120021102D01*
X147441498Y-120154258D01*
X147328258Y-120267498D01*
X147195102Y-120356470D01*
X147047142Y-120417758D01*
X146890075Y-120449000D01*
X146729925Y-120449000D01*
X146572858Y-120417758D01*
X146424898Y-120356470D01*
X146291742Y-120267498D01*
X146178502Y-120154258D01*
X146089530Y-120021102D01*
X146028242Y-119873142D01*
X145997000Y-119716075D01*
X145997000Y-119555925D01*
X146028242Y-119398858D01*
X146089530Y-119250898D01*
X146178502Y-119117742D01*
X146291742Y-119004502D01*
X146424898Y-118915530D01*
X146572858Y-118854242D01*
X146729925Y-118823000D01*
X146890075Y-118823000D01*
X147047142Y-118854242D01*
X147047142Y-118854242D01*
G37*
G36*
X144507142Y-118854242D02*
X144655102Y-118915530D01*
X144788258Y-119004502D01*
X144901498Y-119117742D01*
X144990470Y-119250898D01*
X145051758Y-119398858D01*
X145083000Y-119555925D01*
X145083000Y-119716075D01*
X145051758Y-119873142D01*
X144990470Y-120021102D01*
X144901498Y-120154258D01*
X144788258Y-120267498D01*
X144655102Y-120356470D01*
X144507142Y-120417758D01*
X144350075Y-120449000D01*
X144189925Y-120449000D01*
X144032858Y-120417758D01*
X143884898Y-120356470D01*
X143751742Y-120267498D01*
X143638502Y-120154258D01*
X143549530Y-120021102D01*
X143488242Y-119873142D01*
X143457000Y-119716075D01*
X143457000Y-119555925D01*
X143488242Y-119398858D01*
X143549530Y-119250898D01*
X143638502Y-119117742D01*
X143751742Y-119004502D01*
X143884898Y-118915530D01*
X144032858Y-118854242D01*
X144189925Y-118823000D01*
X144350075Y-118823000D01*
X144507142Y-118854242D01*
X144507142Y-118854242D01*
G37*
G36*
X141967142Y-118854242D02*
X142115102Y-118915530D01*
X142248258Y-119004502D01*
X142361498Y-119117742D01*
X142450470Y-119250898D01*
X142511758Y-119398858D01*
X142543000Y-119555925D01*
X142543000Y-119716075D01*
X142511758Y-119873142D01*
X142450470Y-120021102D01*
X142361498Y-120154258D01*
X142248258Y-120267498D01*
X142115102Y-120356470D01*
X141967142Y-120417758D01*
X141810075Y-120449000D01*
X141649925Y-120449000D01*
X141492858Y-120417758D01*
X141344898Y-120356470D01*
X141211742Y-120267498D01*
X141098502Y-120154258D01*
X141009530Y-120021102D01*
X140948242Y-119873142D01*
X140917000Y-119716075D01*
X140917000Y-119555925D01*
X140948242Y-119398858D01*
X141009530Y-119250898D01*
X141098502Y-119117742D01*
X141211742Y-119004502D01*
X141344898Y-118915530D01*
X141492858Y-118854242D01*
X141649925Y-118823000D01*
X141810075Y-118823000D01*
X141967142Y-118854242D01*
X141967142Y-118854242D01*
G37*
G36*
X139427142Y-118854242D02*
X139575102Y-118915530D01*
X139708258Y-119004502D01*
X139821498Y-119117742D01*
X139910470Y-119250898D01*
X139971758Y-119398858D01*
X140003000Y-119555925D01*
X140003000Y-119716075D01*
X139971758Y-119873142D01*
X139910470Y-120021102D01*
X139821498Y-120154258D01*
X139708258Y-120267498D01*
X139575102Y-120356470D01*
X139427142Y-120417758D01*
X139270075Y-120449000D01*
X139109925Y-120449000D01*
X138952858Y-120417758D01*
X138804898Y-120356470D01*
X138671742Y-120267498D01*
X138558502Y-120154258D01*
X138469530Y-120021102D01*
X138408242Y-119873142D01*
X138377000Y-119716075D01*
X138377000Y-119555925D01*
X138408242Y-119398858D01*
X138469530Y-119250898D01*
X138558502Y-119117742D01*
X138671742Y-119004502D01*
X138804898Y-118915530D01*
X138952858Y-118854242D01*
X139109925Y-118823000D01*
X139270075Y-118823000D01*
X139427142Y-118854242D01*
X139427142Y-118854242D01*
G37*
G36*
X154667142Y-118854242D02*
X154815102Y-118915530D01*
X154948258Y-119004502D01*
X155061498Y-119117742D01*
X155150470Y-119250898D01*
X155211758Y-119398858D01*
X155243000Y-119555925D01*
X155243000Y-119716075D01*
X155211758Y-119873142D01*
X155150470Y-120021102D01*
X155061498Y-120154258D01*
X154948258Y-120267498D01*
X154815102Y-120356470D01*
X154667142Y-120417758D01*
X154510075Y-120449000D01*
X154349925Y-120449000D01*
X154192858Y-120417758D01*
X154044898Y-120356470D01*
X153911742Y-120267498D01*
X153798502Y-120154258D01*
X153709530Y-120021102D01*
X153648242Y-119873142D01*
X153617000Y-119716075D01*
X153617000Y-119555925D01*
X153648242Y-119398858D01*
X153709530Y-119250898D01*
X153798502Y-119117742D01*
X153911742Y-119004502D01*
X154044898Y-118915530D01*
X154192858Y-118854242D01*
X154349925Y-118823000D01*
X154510075Y-118823000D01*
X154667142Y-118854242D01*
X154667142Y-118854242D01*
G37*
G36*
X125093589Y-117094876D02*
X125192893Y-117114629D01*
X125333206Y-117172748D01*
X125459484Y-117257125D01*
X125566875Y-117364516D01*
X125651252Y-117490794D01*
X125709371Y-117631107D01*
X125739000Y-117780063D01*
X125739000Y-117931937D01*
X125709371Y-118080893D01*
X125651252Y-118221206D01*
X125566875Y-118347484D01*
X125459484Y-118454875D01*
X125333206Y-118539252D01*
X125192893Y-118597371D01*
X125093589Y-118617124D01*
X125043938Y-118627000D01*
X124892062Y-118627000D01*
X124842411Y-118617124D01*
X124743107Y-118597371D01*
X124602794Y-118539252D01*
X124476516Y-118454875D01*
X124369125Y-118347484D01*
X124284748Y-118221206D01*
X124226629Y-118080893D01*
X124197000Y-117931937D01*
X124197000Y-117780063D01*
X124226629Y-117631107D01*
X124284748Y-117490794D01*
X124369125Y-117364516D01*
X124476516Y-117257125D01*
X124602794Y-117172748D01*
X124743107Y-117114629D01*
X124842411Y-117094876D01*
X124892062Y-117085000D01*
X125043938Y-117085000D01*
X125093589Y-117094876D01*
X125093589Y-117094876D01*
G37*
G36*
X178035000Y-118599000D02*
X175533000Y-118599000D01*
X175533000Y-116097000D01*
X178035000Y-116097000D01*
X178035000Y-118599000D01*
X178035000Y-118599000D01*
G37*
G36*
X122553589Y-114554876D02*
X122652893Y-114574629D01*
X122793206Y-114632748D01*
X122919484Y-114717125D01*
X123026875Y-114824516D01*
X123111252Y-114950794D01*
X123169371Y-115091107D01*
X123199000Y-115240063D01*
X123199000Y-115391937D01*
X123169371Y-115540893D01*
X123111252Y-115681206D01*
X123026875Y-115807484D01*
X122919484Y-115914875D01*
X122793206Y-115999252D01*
X122652893Y-116057371D01*
X122553589Y-116077124D01*
X122503938Y-116087000D01*
X122352062Y-116087000D01*
X122302411Y-116077124D01*
X122203107Y-116057371D01*
X122062794Y-115999252D01*
X121936516Y-115914875D01*
X121829125Y-115807484D01*
X121744748Y-115681206D01*
X121686629Y-115540893D01*
X121657000Y-115391937D01*
X121657000Y-115240063D01*
X121686629Y-115091107D01*
X121744748Y-114950794D01*
X121829125Y-114824516D01*
X121936516Y-114717125D01*
X122062794Y-114632748D01*
X122203107Y-114574629D01*
X122302411Y-114554876D01*
X122352062Y-114545000D01*
X122503938Y-114545000D01*
X122553589Y-114554876D01*
X122553589Y-114554876D01*
G37*
G36*
X112066565Y-112781389D02*
X112257834Y-112860615D01*
X112429976Y-112975637D01*
X112576363Y-113122024D01*
X112691385Y-113294166D01*
X112770611Y-113485435D01*
X112811000Y-113688484D01*
X112811000Y-113895516D01*
X112770611Y-114098565D01*
X112691385Y-114289834D01*
X112576363Y-114461976D01*
X112429976Y-114608363D01*
X112257834Y-114723385D01*
X112066565Y-114802611D01*
X111863516Y-114843000D01*
X111656484Y-114843000D01*
X111453435Y-114802611D01*
X111262166Y-114723385D01*
X111090024Y-114608363D01*
X110943637Y-114461976D01*
X110828615Y-114289834D01*
X110749389Y-114098565D01*
X110709000Y-113895516D01*
X110709000Y-113688484D01*
X110749389Y-113485435D01*
X110828615Y-113294166D01*
X110943637Y-113122024D01*
X111090024Y-112975637D01*
X111262166Y-112860615D01*
X111453435Y-112781389D01*
X111656484Y-112741000D01*
X111863516Y-112741000D01*
X112066565Y-112781389D01*
X112066565Y-112781389D01*
G37*
G36*
X116566565Y-112781389D02*
X116757834Y-112860615D01*
X116929976Y-112975637D01*
X117076363Y-113122024D01*
X117191385Y-113294166D01*
X117270611Y-113485435D01*
X117311000Y-113688484D01*
X117311000Y-113895516D01*
X117270611Y-114098565D01*
X117191385Y-114289834D01*
X117076363Y-114461976D01*
X116929976Y-114608363D01*
X116757834Y-114723385D01*
X116566565Y-114802611D01*
X116363516Y-114843000D01*
X116156484Y-114843000D01*
X115953435Y-114802611D01*
X115762166Y-114723385D01*
X115590024Y-114608363D01*
X115443637Y-114461976D01*
X115328615Y-114289834D01*
X115249389Y-114098565D01*
X115209000Y-113895516D01*
X115209000Y-113688484D01*
X115249389Y-113485435D01*
X115328615Y-113294166D01*
X115443637Y-113122024D01*
X115590024Y-112975637D01*
X115762166Y-112860615D01*
X115953435Y-112781389D01*
X116156484Y-112741000D01*
X116363516Y-112741000D01*
X116566565Y-112781389D01*
X116566565Y-112781389D01*
G37*
G36*
X132317142Y-111994242D02*
X132465102Y-112055530D01*
X132598258Y-112144502D01*
X132711498Y-112257742D01*
X132800470Y-112390898D01*
X132861758Y-112538858D01*
X132893000Y-112695925D01*
X132893000Y-112856075D01*
X132861758Y-113013142D01*
X132816657Y-113122024D01*
X132800471Y-113161100D01*
X132711560Y-113294166D01*
X132711498Y-113294258D01*
X132598258Y-113407498D01*
X132465102Y-113496470D01*
X132317142Y-113557758D01*
X132160075Y-113589000D01*
X131999925Y-113589000D01*
X131842858Y-113557758D01*
X131694898Y-113496470D01*
X131561742Y-113407498D01*
X131448502Y-113294258D01*
X131448441Y-113294166D01*
X131359529Y-113161100D01*
X131343343Y-113122024D01*
X131298242Y-113013142D01*
X131267000Y-112856075D01*
X131267000Y-112695925D01*
X131298242Y-112538858D01*
X131359530Y-112390898D01*
X131448502Y-112257742D01*
X131561742Y-112144502D01*
X131694898Y-112055530D01*
X131842858Y-111994242D01*
X131999925Y-111963000D01*
X132160075Y-111963000D01*
X132317142Y-111994242D01*
X132317142Y-111994242D01*
G37*
G36*
X122553589Y-110490876D02*
X122652893Y-110510629D01*
X122793206Y-110568748D01*
X122919484Y-110653125D01*
X123026875Y-110760516D01*
X123111252Y-110886794D01*
X123169371Y-111027107D01*
X123199000Y-111176063D01*
X123199000Y-111327937D01*
X123169371Y-111476893D01*
X123111252Y-111617206D01*
X123026875Y-111743484D01*
X122919484Y-111850875D01*
X122793206Y-111935252D01*
X122652893Y-111993371D01*
X122553589Y-112013124D01*
X122503938Y-112023000D01*
X122352062Y-112023000D01*
X122302411Y-112013124D01*
X122203107Y-111993371D01*
X122062794Y-111935252D01*
X121936516Y-111850875D01*
X121829125Y-111743484D01*
X121744748Y-111617206D01*
X121686629Y-111476893D01*
X121657000Y-111327937D01*
X121657000Y-111176063D01*
X121686629Y-111027107D01*
X121744748Y-110886794D01*
X121829125Y-110760516D01*
X121936516Y-110653125D01*
X122062794Y-110568748D01*
X122203107Y-110510629D01*
X122302411Y-110490876D01*
X122352062Y-110481000D01*
X122503938Y-110481000D01*
X122553589Y-110490876D01*
X122553589Y-110490876D01*
G37*
G36*
X176967636Y-108609019D02*
X177148903Y-108645075D01*
X177376571Y-108739378D01*
X177580542Y-108875668D01*
X177581469Y-108876287D01*
X177755713Y-109050531D01*
X177755715Y-109050534D01*
X177892622Y-109255429D01*
X177986925Y-109483097D01*
X178035000Y-109724787D01*
X178035000Y-109971213D01*
X177986925Y-110212903D01*
X177892622Y-110440571D01*
X177756332Y-110644542D01*
X177755713Y-110645469D01*
X177581469Y-110819713D01*
X177581466Y-110819715D01*
X177376571Y-110956622D01*
X177148903Y-111050925D01*
X176967636Y-111086981D01*
X176907214Y-111099000D01*
X176660786Y-111099000D01*
X176600364Y-111086981D01*
X176419097Y-111050925D01*
X176191429Y-110956622D01*
X175986534Y-110819715D01*
X175986531Y-110819713D01*
X175812287Y-110645469D01*
X175811668Y-110644542D01*
X175675378Y-110440571D01*
X175581075Y-110212903D01*
X175533000Y-109971213D01*
X175533000Y-109724787D01*
X175581075Y-109483097D01*
X175675378Y-109255429D01*
X175812285Y-109050534D01*
X175812287Y-109050531D01*
X175986531Y-108876287D01*
X175987458Y-108875668D01*
X176191429Y-108739378D01*
X176419097Y-108645075D01*
X176600364Y-108609019D01*
X176660786Y-108597000D01*
X176907214Y-108597000D01*
X176967636Y-108609019D01*
X176967636Y-108609019D01*
G37*
G36*
X132317142Y-109454242D02*
X132465102Y-109515530D01*
X132532130Y-109560317D01*
X132598257Y-109604501D01*
X132711499Y-109717743D01*
X132755683Y-109783870D01*
X132800470Y-109850898D01*
X132861758Y-109998858D01*
X132893000Y-110155925D01*
X132893000Y-110316075D01*
X132861758Y-110473142D01*
X132858503Y-110481000D01*
X132800471Y-110621100D01*
X132711499Y-110754257D01*
X132598257Y-110867499D01*
X132532130Y-110911683D01*
X132465102Y-110956470D01*
X132465101Y-110956471D01*
X132465100Y-110956471D01*
X132464735Y-110956622D01*
X132317142Y-111017758D01*
X132160075Y-111049000D01*
X131999925Y-111049000D01*
X131842858Y-111017758D01*
X131695265Y-110956622D01*
X131694900Y-110956471D01*
X131694899Y-110956471D01*
X131694898Y-110956470D01*
X131627870Y-110911683D01*
X131561743Y-110867499D01*
X131448501Y-110754257D01*
X131359529Y-110621100D01*
X131301497Y-110481000D01*
X131298242Y-110473142D01*
X131267000Y-110316075D01*
X131267000Y-110155925D01*
X131298242Y-109998858D01*
X131359530Y-109850898D01*
X131404317Y-109783870D01*
X131448501Y-109717743D01*
X131561743Y-109604501D01*
X131627870Y-109560317D01*
X131694898Y-109515530D01*
X131842858Y-109454242D01*
X131999925Y-109423000D01*
X132160075Y-109423000D01*
X132317142Y-109454242D01*
X132317142Y-109454242D01*
G37*
G36*
X125093589Y-107950876D02*
X125192893Y-107970629D01*
X125333206Y-108028748D01*
X125459484Y-108113125D01*
X125566875Y-108220516D01*
X125651252Y-108346794D01*
X125709371Y-108487107D01*
X125739000Y-108636063D01*
X125739000Y-108787937D01*
X125709371Y-108936893D01*
X125651252Y-109077206D01*
X125566875Y-109203484D01*
X125459484Y-109310875D01*
X125333206Y-109395252D01*
X125192893Y-109453371D01*
X125093589Y-109473124D01*
X125043938Y-109483000D01*
X124892062Y-109483000D01*
X124842411Y-109473124D01*
X124743107Y-109453371D01*
X124602794Y-109395252D01*
X124476516Y-109310875D01*
X124369125Y-109203484D01*
X124284748Y-109077206D01*
X124226629Y-108936893D01*
X124197000Y-108787937D01*
X124197000Y-108636063D01*
X124226629Y-108487107D01*
X124284748Y-108346794D01*
X124369125Y-108220516D01*
X124476516Y-108113125D01*
X124602794Y-108028748D01*
X124743107Y-107970629D01*
X124842411Y-107950876D01*
X124892062Y-107941000D01*
X125043938Y-107941000D01*
X125093589Y-107950876D01*
X125093589Y-107950876D01*
G37*
G36*
X113684600Y-106758989D02*
X113717649Y-106769014D01*
X113748106Y-106785294D01*
X113774799Y-106807201D01*
X113796706Y-106833894D01*
X113812986Y-106864351D01*
X113823011Y-106897400D01*
X113827000Y-106937904D01*
X113827000Y-108374096D01*
X113823011Y-108414600D01*
X113812986Y-108447649D01*
X113796706Y-108478106D01*
X113774799Y-108504799D01*
X113748106Y-108526706D01*
X113717649Y-108542986D01*
X113684600Y-108553011D01*
X113644096Y-108557000D01*
X111907904Y-108557000D01*
X111867400Y-108553011D01*
X111834351Y-108542986D01*
X111803894Y-108526706D01*
X111777201Y-108504799D01*
X111755294Y-108478106D01*
X111739014Y-108447649D01*
X111728989Y-108414600D01*
X111725000Y-108374096D01*
X111725000Y-106937904D01*
X111728989Y-106897400D01*
X111739014Y-106864351D01*
X111755294Y-106833894D01*
X111777201Y-106807201D01*
X111803894Y-106785294D01*
X111834351Y-106769014D01*
X111867400Y-106758989D01*
X111907904Y-106755000D01*
X113644096Y-106755000D01*
X113684600Y-106758989D01*
X113684600Y-106758989D01*
G37*
G36*
X132317142Y-106914242D02*
X132465102Y-106975530D01*
X132598258Y-107064502D01*
X132711498Y-107177742D01*
X132800470Y-107310898D01*
X132861758Y-107458858D01*
X132893000Y-107615925D01*
X132893000Y-107776075D01*
X132861758Y-107933142D01*
X132858503Y-107941000D01*
X132800471Y-108081100D01*
X132711499Y-108214257D01*
X132598257Y-108327499D01*
X132532130Y-108371683D01*
X132465102Y-108416470D01*
X132317142Y-108477758D01*
X132160075Y-108509000D01*
X131999925Y-108509000D01*
X131842858Y-108477758D01*
X131694898Y-108416470D01*
X131627870Y-108371683D01*
X131561743Y-108327499D01*
X131448501Y-108214257D01*
X131359529Y-108081100D01*
X131301497Y-107941000D01*
X131298242Y-107933142D01*
X131267000Y-107776075D01*
X131267000Y-107615925D01*
X131298242Y-107458858D01*
X131359530Y-107310898D01*
X131448502Y-107177742D01*
X131561742Y-107064502D01*
X131694898Y-106975530D01*
X131842858Y-106914242D01*
X131999925Y-106883000D01*
X132160075Y-106883000D01*
X132317142Y-106914242D01*
X132317142Y-106914242D01*
G37*
G36*
X122553589Y-105410876D02*
X122652893Y-105430629D01*
X122793206Y-105488748D01*
X122919484Y-105573125D01*
X123026875Y-105680516D01*
X123111252Y-105806794D01*
X123169371Y-105947107D01*
X123199000Y-106096063D01*
X123199000Y-106247937D01*
X123169371Y-106396893D01*
X123111252Y-106537206D01*
X123026875Y-106663484D01*
X122919484Y-106770875D01*
X122793206Y-106855252D01*
X122652893Y-106913371D01*
X122553589Y-106933124D01*
X122503938Y-106943000D01*
X122352062Y-106943000D01*
X122302411Y-106933124D01*
X122203107Y-106913371D01*
X122062794Y-106855252D01*
X121936516Y-106770875D01*
X121829125Y-106663484D01*
X121744748Y-106537206D01*
X121686629Y-106396893D01*
X121657000Y-106247937D01*
X121657000Y-106096063D01*
X121686629Y-105947107D01*
X121744748Y-105806794D01*
X121829125Y-105680516D01*
X121936516Y-105573125D01*
X122062794Y-105488748D01*
X122203107Y-105430629D01*
X122302411Y-105410876D01*
X122352062Y-105401000D01*
X122503938Y-105401000D01*
X122553589Y-105410876D01*
X122553589Y-105410876D01*
G37*
G36*
X113036442Y-104261518D02*
X113102627Y-104268037D01*
X113215853Y-104302384D01*
X113272467Y-104319557D01*
X113374774Y-104374242D01*
X113428991Y-104403222D01*
X113464729Y-104432552D01*
X113566186Y-104515814D01*
X113649448Y-104617271D01*
X113678778Y-104653009D01*
X113678779Y-104653011D01*
X113762443Y-104809533D01*
X113762443Y-104809534D01*
X113813963Y-104979373D01*
X113831359Y-105156000D01*
X113813963Y-105332627D01*
X113793222Y-105401000D01*
X113762443Y-105502467D01*
X113724675Y-105573125D01*
X113678778Y-105658991D01*
X113661113Y-105680516D01*
X113566186Y-105796186D01*
X113468358Y-105876470D01*
X113428991Y-105908778D01*
X113428989Y-105908779D01*
X113272467Y-105992443D01*
X113215853Y-106009616D01*
X113102627Y-106043963D01*
X113036442Y-106050482D01*
X112970260Y-106057000D01*
X112581740Y-106057000D01*
X112515558Y-106050482D01*
X112449373Y-106043963D01*
X112336147Y-106009616D01*
X112279533Y-105992443D01*
X112123011Y-105908779D01*
X112123009Y-105908778D01*
X112083642Y-105876470D01*
X111985814Y-105796186D01*
X111890887Y-105680516D01*
X111873222Y-105658991D01*
X111827325Y-105573125D01*
X111789557Y-105502467D01*
X111758778Y-105401000D01*
X111738037Y-105332627D01*
X111720641Y-105156000D01*
X111738037Y-104979373D01*
X111789557Y-104809534D01*
X111789557Y-104809533D01*
X111873221Y-104653011D01*
X111873222Y-104653009D01*
X111902552Y-104617271D01*
X111985814Y-104515814D01*
X112087271Y-104432552D01*
X112123009Y-104403222D01*
X112177226Y-104374242D01*
X112279533Y-104319557D01*
X112336147Y-104302384D01*
X112449373Y-104268037D01*
X112515558Y-104261518D01*
X112581740Y-104255000D01*
X112970260Y-104255000D01*
X113036442Y-104261518D01*
X113036442Y-104261518D01*
G37*
G36*
X132317142Y-104374242D02*
X132465102Y-104435530D01*
X132532130Y-104480317D01*
X132598257Y-104524501D01*
X132711499Y-104637743D01*
X132755683Y-104703870D01*
X132800470Y-104770898D01*
X132861758Y-104918858D01*
X132893000Y-105075925D01*
X132893000Y-105236075D01*
X132861758Y-105393142D01*
X132858503Y-105401000D01*
X132800471Y-105541100D01*
X132711499Y-105674257D01*
X132598257Y-105787499D01*
X132532130Y-105831683D01*
X132465102Y-105876470D01*
X132317142Y-105937758D01*
X132160075Y-105969000D01*
X131999925Y-105969000D01*
X131842858Y-105937758D01*
X131694898Y-105876470D01*
X131627870Y-105831683D01*
X131561743Y-105787499D01*
X131448501Y-105674257D01*
X131359529Y-105541100D01*
X131301497Y-105401000D01*
X131298242Y-105393142D01*
X131267000Y-105236075D01*
X131267000Y-105075925D01*
X131298242Y-104918858D01*
X131359530Y-104770898D01*
X131404317Y-104703870D01*
X131448501Y-104637743D01*
X131561743Y-104524501D01*
X131627870Y-104480317D01*
X131694898Y-104435530D01*
X131842858Y-104374242D01*
X131999925Y-104343000D01*
X132160075Y-104343000D01*
X132317142Y-104374242D01*
X132317142Y-104374242D01*
G37*
G36*
X173730228Y-101035703D02*
X173885100Y-101099853D01*
X174024481Y-101192985D01*
X174143015Y-101311519D01*
X174236147Y-101450900D01*
X174300297Y-101605772D01*
X174333000Y-101770184D01*
X174333000Y-101937816D01*
X174300297Y-102102228D01*
X174236147Y-102257100D01*
X174143015Y-102396481D01*
X174024481Y-102515015D01*
X173885100Y-102608147D01*
X173730228Y-102672297D01*
X173565816Y-102705000D01*
X173398184Y-102705000D01*
X173233772Y-102672297D01*
X173078900Y-102608147D01*
X172939519Y-102515015D01*
X172820985Y-102396481D01*
X172727853Y-102257100D01*
X172663703Y-102102228D01*
X172631000Y-101937816D01*
X172631000Y-101770184D01*
X172663703Y-101605772D01*
X172727853Y-101450900D01*
X172820985Y-101311519D01*
X172939519Y-101192985D01*
X173078900Y-101099853D01*
X173233772Y-101035703D01*
X173398184Y-101003000D01*
X173565816Y-101003000D01*
X173730228Y-101035703D01*
X173730228Y-101035703D01*
G37*
G36*
X170833000Y-102705000D02*
X169131000Y-102705000D01*
X169131000Y-101003000D01*
X170833000Y-101003000D01*
X170833000Y-102705000D01*
X170833000Y-102705000D01*
G37*
G36*
X150026821Y-99237313D02*
X150026824Y-99237314D01*
X150026825Y-99237314D01*
X150187239Y-99285975D01*
X150187241Y-99285976D01*
X150187244Y-99285977D01*
X150335078Y-99364995D01*
X150464659Y-99471341D01*
X150571005Y-99600922D01*
X150650023Y-99748756D01*
X150698687Y-99909179D01*
X150715117Y-100076000D01*
X150698687Y-100242821D01*
X150650023Y-100403244D01*
X150571005Y-100551078D01*
X150464659Y-100680659D01*
X150335078Y-100787005D01*
X150187244Y-100866023D01*
X150187241Y-100866024D01*
X150187239Y-100866025D01*
X150026825Y-100914686D01*
X150026824Y-100914686D01*
X150026821Y-100914687D01*
X149901804Y-100927000D01*
X149818196Y-100927000D01*
X149693179Y-100914687D01*
X149693176Y-100914686D01*
X149693175Y-100914686D01*
X149532761Y-100866025D01*
X149532759Y-100866024D01*
X149532756Y-100866023D01*
X149384922Y-100787005D01*
X149255341Y-100680659D01*
X149148995Y-100551078D01*
X149069977Y-100403244D01*
X149021313Y-100242821D01*
X149004883Y-100076000D01*
X149021313Y-99909179D01*
X149069977Y-99748756D01*
X149148995Y-99600922D01*
X149255341Y-99471341D01*
X149384922Y-99364995D01*
X149532756Y-99285977D01*
X149532759Y-99285976D01*
X149532761Y-99285975D01*
X149693175Y-99237314D01*
X149693176Y-99237314D01*
X149693179Y-99237313D01*
X149818196Y-99225000D01*
X149901804Y-99225000D01*
X150026821Y-99237313D01*
X150026821Y-99237313D01*
G37*
G36*
X130214821Y-99237313D02*
X130214824Y-99237314D01*
X130214825Y-99237314D01*
X130375239Y-99285975D01*
X130375241Y-99285976D01*
X130375244Y-99285977D01*
X130523078Y-99364995D01*
X130652659Y-99471341D01*
X130759005Y-99600922D01*
X130838023Y-99748756D01*
X130886687Y-99909179D01*
X130903117Y-100076000D01*
X130886687Y-100242821D01*
X130838023Y-100403244D01*
X130759005Y-100551078D01*
X130652659Y-100680659D01*
X130523078Y-100787005D01*
X130375244Y-100866023D01*
X130375241Y-100866024D01*
X130375239Y-100866025D01*
X130214825Y-100914686D01*
X130214824Y-100914686D01*
X130214821Y-100914687D01*
X130089804Y-100927000D01*
X130006196Y-100927000D01*
X129881179Y-100914687D01*
X129881176Y-100914686D01*
X129881175Y-100914686D01*
X129720761Y-100866025D01*
X129720759Y-100866024D01*
X129720756Y-100866023D01*
X129572922Y-100787005D01*
X129443341Y-100680659D01*
X129336995Y-100551078D01*
X129257977Y-100403244D01*
X129209313Y-100242821D01*
X129192883Y-100076000D01*
X129209313Y-99909179D01*
X129257977Y-99748756D01*
X129336995Y-99600922D01*
X129443341Y-99471341D01*
X129572922Y-99364995D01*
X129720756Y-99285977D01*
X129720759Y-99285976D01*
X129720761Y-99285975D01*
X129881175Y-99237314D01*
X129881176Y-99237314D01*
X129881179Y-99237313D01*
X130006196Y-99225000D01*
X130089804Y-99225000D01*
X130214821Y-99237313D01*
X130214821Y-99237313D01*
G37*
G36*
X137834821Y-99237313D02*
X137834824Y-99237314D01*
X137834825Y-99237314D01*
X137995239Y-99285975D01*
X137995241Y-99285976D01*
X137995244Y-99285977D01*
X138143078Y-99364995D01*
X138272659Y-99471341D01*
X138379005Y-99600922D01*
X138458023Y-99748756D01*
X138506687Y-99909179D01*
X138523117Y-100076000D01*
X138506687Y-100242821D01*
X138458023Y-100403244D01*
X138379005Y-100551078D01*
X138272659Y-100680659D01*
X138143078Y-100787005D01*
X137995244Y-100866023D01*
X137995241Y-100866024D01*
X137995239Y-100866025D01*
X137834825Y-100914686D01*
X137834824Y-100914686D01*
X137834821Y-100914687D01*
X137709804Y-100927000D01*
X137626196Y-100927000D01*
X137501179Y-100914687D01*
X137501176Y-100914686D01*
X137501175Y-100914686D01*
X137340761Y-100866025D01*
X137340759Y-100866024D01*
X137340756Y-100866023D01*
X137192922Y-100787005D01*
X137063341Y-100680659D01*
X136956995Y-100551078D01*
X136877977Y-100403244D01*
X136829313Y-100242821D01*
X136812883Y-100076000D01*
X136829313Y-99909179D01*
X136877977Y-99748756D01*
X136956995Y-99600922D01*
X137063341Y-99471341D01*
X137192922Y-99364995D01*
X137340756Y-99285977D01*
X137340759Y-99285976D01*
X137340761Y-99285975D01*
X137501175Y-99237314D01*
X137501176Y-99237314D01*
X137501179Y-99237313D01*
X137626196Y-99225000D01*
X137709804Y-99225000D01*
X137834821Y-99237313D01*
X137834821Y-99237313D01*
G37*
G36*
X142406821Y-99237313D02*
X142406824Y-99237314D01*
X142406825Y-99237314D01*
X142567239Y-99285975D01*
X142567241Y-99285976D01*
X142567244Y-99285977D01*
X142715078Y-99364995D01*
X142844659Y-99471341D01*
X142951005Y-99600922D01*
X143030023Y-99748756D01*
X143078687Y-99909179D01*
X143095117Y-100076000D01*
X143078687Y-100242821D01*
X143030023Y-100403244D01*
X142951005Y-100551078D01*
X142844659Y-100680659D01*
X142715078Y-100787005D01*
X142567244Y-100866023D01*
X142567241Y-100866024D01*
X142567239Y-100866025D01*
X142406825Y-100914686D01*
X142406824Y-100914686D01*
X142406821Y-100914687D01*
X142281804Y-100927000D01*
X142198196Y-100927000D01*
X142073179Y-100914687D01*
X142073176Y-100914686D01*
X142073175Y-100914686D01*
X141912761Y-100866025D01*
X141912759Y-100866024D01*
X141912756Y-100866023D01*
X141764922Y-100787005D01*
X141635341Y-100680659D01*
X141528995Y-100551078D01*
X141449977Y-100403244D01*
X141401313Y-100242821D01*
X141384883Y-100076000D01*
X141401313Y-99909179D01*
X141449977Y-99748756D01*
X141528995Y-99600922D01*
X141635341Y-99471341D01*
X141764922Y-99364995D01*
X141912756Y-99285977D01*
X141912759Y-99285976D01*
X141912761Y-99285975D01*
X142073175Y-99237314D01*
X142073176Y-99237314D01*
X142073179Y-99237313D01*
X142198196Y-99225000D01*
X142281804Y-99225000D01*
X142406821Y-99237313D01*
X142406821Y-99237313D01*
G37*
G36*
X113684600Y-96598989D02*
X113717649Y-96609014D01*
X113748106Y-96625294D01*
X113774799Y-96647201D01*
X113796706Y-96673894D01*
X113812986Y-96704351D01*
X113823011Y-96737400D01*
X113827000Y-96777904D01*
X113827000Y-98214096D01*
X113823011Y-98254600D01*
X113812986Y-98287649D01*
X113796706Y-98318106D01*
X113774799Y-98344799D01*
X113748106Y-98366706D01*
X113717649Y-98382986D01*
X113684600Y-98393011D01*
X113644096Y-98397000D01*
X111907904Y-98397000D01*
X111867400Y-98393011D01*
X111834351Y-98382986D01*
X111803894Y-98366706D01*
X111777201Y-98344799D01*
X111755294Y-98318106D01*
X111739014Y-98287649D01*
X111728989Y-98254600D01*
X111725000Y-98214096D01*
X111725000Y-96777904D01*
X111728989Y-96737400D01*
X111739014Y-96704351D01*
X111755294Y-96673894D01*
X111777201Y-96647201D01*
X111803894Y-96625294D01*
X111834351Y-96609014D01*
X111867400Y-96598989D01*
X111907904Y-96595000D01*
X113644096Y-96595000D01*
X113684600Y-96598989D01*
X113684600Y-96598989D01*
G37*
G36*
X137834821Y-96697313D02*
X137834824Y-96697314D01*
X137834825Y-96697314D01*
X137995239Y-96745975D01*
X137995241Y-96745976D01*
X137995244Y-96745977D01*
X138143078Y-96824995D01*
X138272659Y-96931341D01*
X138379005Y-97060922D01*
X138458023Y-97208756D01*
X138506687Y-97369179D01*
X138523117Y-97536000D01*
X138506687Y-97702821D01*
X138458023Y-97863244D01*
X138379005Y-98011078D01*
X138272659Y-98140659D01*
X138143078Y-98247005D01*
X137995244Y-98326023D01*
X137995241Y-98326024D01*
X137995239Y-98326025D01*
X137834825Y-98374686D01*
X137834824Y-98374686D01*
X137834821Y-98374687D01*
X137709804Y-98387000D01*
X137626196Y-98387000D01*
X137501179Y-98374687D01*
X137501176Y-98374686D01*
X137501175Y-98374686D01*
X137340761Y-98326025D01*
X137340759Y-98326024D01*
X137340756Y-98326023D01*
X137192922Y-98247005D01*
X137063341Y-98140659D01*
X136956995Y-98011078D01*
X136877977Y-97863244D01*
X136829313Y-97702821D01*
X136812883Y-97536000D01*
X136829313Y-97369179D01*
X136877977Y-97208756D01*
X136956995Y-97060922D01*
X137063341Y-96931341D01*
X137192922Y-96824995D01*
X137340756Y-96745977D01*
X137340759Y-96745976D01*
X137340761Y-96745975D01*
X137501175Y-96697314D01*
X137501176Y-96697314D01*
X137501179Y-96697313D01*
X137626196Y-96685000D01*
X137709804Y-96685000D01*
X137834821Y-96697313D01*
X137834821Y-96697313D01*
G37*
G36*
X130214821Y-96697313D02*
X130214824Y-96697314D01*
X130214825Y-96697314D01*
X130375239Y-96745975D01*
X130375241Y-96745976D01*
X130375244Y-96745977D01*
X130523078Y-96824995D01*
X130652659Y-96931341D01*
X130759005Y-97060922D01*
X130838023Y-97208756D01*
X130886687Y-97369179D01*
X130903117Y-97536000D01*
X130886687Y-97702821D01*
X130838023Y-97863244D01*
X130759005Y-98011078D01*
X130652659Y-98140659D01*
X130523078Y-98247005D01*
X130375244Y-98326023D01*
X130375241Y-98326024D01*
X130375239Y-98326025D01*
X130214825Y-98374686D01*
X130214824Y-98374686D01*
X130214821Y-98374687D01*
X130089804Y-98387000D01*
X130006196Y-98387000D01*
X129881179Y-98374687D01*
X129881176Y-98374686D01*
X129881175Y-98374686D01*
X129720761Y-98326025D01*
X129720759Y-98326024D01*
X129720756Y-98326023D01*
X129572922Y-98247005D01*
X129443341Y-98140659D01*
X129336995Y-98011078D01*
X129257977Y-97863244D01*
X129209313Y-97702821D01*
X129192883Y-97536000D01*
X129209313Y-97369179D01*
X129257977Y-97208756D01*
X129336995Y-97060922D01*
X129443341Y-96931341D01*
X129572922Y-96824995D01*
X129720756Y-96745977D01*
X129720759Y-96745976D01*
X129720761Y-96745975D01*
X129881175Y-96697314D01*
X129881176Y-96697314D01*
X129881179Y-96697313D01*
X130006196Y-96685000D01*
X130089804Y-96685000D01*
X130214821Y-96697313D01*
X130214821Y-96697313D01*
G37*
G36*
X142406821Y-96697313D02*
X142406824Y-96697314D01*
X142406825Y-96697314D01*
X142567239Y-96745975D01*
X142567241Y-96745976D01*
X142567244Y-96745977D01*
X142715078Y-96824995D01*
X142844659Y-96931341D01*
X142951005Y-97060922D01*
X143030023Y-97208756D01*
X143078687Y-97369179D01*
X143095117Y-97536000D01*
X143078687Y-97702821D01*
X143030023Y-97863244D01*
X142951005Y-98011078D01*
X142844659Y-98140659D01*
X142715078Y-98247005D01*
X142567244Y-98326023D01*
X142567241Y-98326024D01*
X142567239Y-98326025D01*
X142406825Y-98374686D01*
X142406824Y-98374686D01*
X142406821Y-98374687D01*
X142281804Y-98387000D01*
X142198196Y-98387000D01*
X142073179Y-98374687D01*
X142073176Y-98374686D01*
X142073175Y-98374686D01*
X141912761Y-98326025D01*
X141912759Y-98326024D01*
X141912756Y-98326023D01*
X141764922Y-98247005D01*
X141635341Y-98140659D01*
X141528995Y-98011078D01*
X141449977Y-97863244D01*
X141401313Y-97702821D01*
X141384883Y-97536000D01*
X141401313Y-97369179D01*
X141449977Y-97208756D01*
X141528995Y-97060922D01*
X141635341Y-96931341D01*
X141764922Y-96824995D01*
X141912756Y-96745977D01*
X141912759Y-96745976D01*
X141912761Y-96745975D01*
X142073175Y-96697314D01*
X142073176Y-96697314D01*
X142073179Y-96697313D01*
X142198196Y-96685000D01*
X142281804Y-96685000D01*
X142406821Y-96697313D01*
X142406821Y-96697313D01*
G37*
G36*
X150026821Y-96697313D02*
X150026824Y-96697314D01*
X150026825Y-96697314D01*
X150187239Y-96745975D01*
X150187241Y-96745976D01*
X150187244Y-96745977D01*
X150335078Y-96824995D01*
X150464659Y-96931341D01*
X150571005Y-97060922D01*
X150650023Y-97208756D01*
X150698687Y-97369179D01*
X150715117Y-97536000D01*
X150698687Y-97702821D01*
X150650023Y-97863244D01*
X150571005Y-98011078D01*
X150464659Y-98140659D01*
X150335078Y-98247005D01*
X150187244Y-98326023D01*
X150187241Y-98326024D01*
X150187239Y-98326025D01*
X150026825Y-98374686D01*
X150026824Y-98374686D01*
X150026821Y-98374687D01*
X149901804Y-98387000D01*
X149818196Y-98387000D01*
X149693179Y-98374687D01*
X149693176Y-98374686D01*
X149693175Y-98374686D01*
X149532761Y-98326025D01*
X149532759Y-98326024D01*
X149532756Y-98326023D01*
X149384922Y-98247005D01*
X149255341Y-98140659D01*
X149148995Y-98011078D01*
X149069977Y-97863244D01*
X149021313Y-97702821D01*
X149004883Y-97536000D01*
X149021313Y-97369179D01*
X149069977Y-97208756D01*
X149148995Y-97060922D01*
X149255341Y-96931341D01*
X149384922Y-96824995D01*
X149532756Y-96745977D01*
X149532759Y-96745976D01*
X149532761Y-96745975D01*
X149693175Y-96697314D01*
X149693176Y-96697314D01*
X149693179Y-96697313D01*
X149818196Y-96685000D01*
X149901804Y-96685000D01*
X150026821Y-96697313D01*
X150026821Y-96697313D01*
G37*
G36*
X113036442Y-94101518D02*
X113102627Y-94108037D01*
X113215853Y-94142384D01*
X113272467Y-94159557D01*
X113359311Y-94205977D01*
X113428991Y-94243222D01*
X113464729Y-94272552D01*
X113566186Y-94355814D01*
X113645591Y-94452571D01*
X113678778Y-94493009D01*
X113678779Y-94493011D01*
X113762443Y-94649533D01*
X113779616Y-94706147D01*
X113813963Y-94819373D01*
X113831359Y-94996000D01*
X113813963Y-95172627D01*
X113779616Y-95285853D01*
X113762443Y-95342467D01*
X113693698Y-95471078D01*
X113678778Y-95498991D01*
X113649448Y-95534729D01*
X113566186Y-95636186D01*
X113464729Y-95719448D01*
X113428991Y-95748778D01*
X113428989Y-95748779D01*
X113272467Y-95832443D01*
X113265069Y-95834687D01*
X113102627Y-95883963D01*
X113036442Y-95890482D01*
X112970260Y-95897000D01*
X112581740Y-95897000D01*
X112515557Y-95890481D01*
X112449373Y-95883963D01*
X112286931Y-95834687D01*
X112279533Y-95832443D01*
X112123011Y-95748779D01*
X112123009Y-95748778D01*
X112087271Y-95719448D01*
X111985814Y-95636186D01*
X111902552Y-95534729D01*
X111873222Y-95498991D01*
X111858302Y-95471078D01*
X111789557Y-95342467D01*
X111772384Y-95285853D01*
X111738037Y-95172627D01*
X111720641Y-94996000D01*
X111738037Y-94819373D01*
X111772384Y-94706147D01*
X111789557Y-94649533D01*
X111873221Y-94493011D01*
X111873222Y-94493009D01*
X111906409Y-94452571D01*
X111985814Y-94355814D01*
X112087271Y-94272552D01*
X112123009Y-94243222D01*
X112192689Y-94205977D01*
X112279533Y-94159557D01*
X112336147Y-94142384D01*
X112449373Y-94108037D01*
X112515558Y-94101518D01*
X112581740Y-94095000D01*
X112970260Y-94095000D01*
X113036442Y-94101518D01*
X113036442Y-94101518D01*
G37*
G36*
X130214821Y-94157313D02*
X130214824Y-94157314D01*
X130214825Y-94157314D01*
X130375239Y-94205975D01*
X130375241Y-94205976D01*
X130375244Y-94205977D01*
X130523078Y-94284995D01*
X130652659Y-94391341D01*
X130759005Y-94520922D01*
X130838023Y-94668756D01*
X130838024Y-94668759D01*
X130838025Y-94668761D01*
X130883713Y-94819375D01*
X130886687Y-94829179D01*
X130903117Y-94996000D01*
X130886687Y-95162821D01*
X130886686Y-95162824D01*
X130886686Y-95162825D01*
X130883713Y-95172627D01*
X130838023Y-95323244D01*
X130759005Y-95471078D01*
X130652659Y-95600659D01*
X130523078Y-95707005D01*
X130375244Y-95786023D01*
X130375241Y-95786024D01*
X130375239Y-95786025D01*
X130214825Y-95834686D01*
X130214824Y-95834686D01*
X130214821Y-95834687D01*
X130089804Y-95847000D01*
X130006196Y-95847000D01*
X129881179Y-95834687D01*
X129881176Y-95834686D01*
X129881175Y-95834686D01*
X129720761Y-95786025D01*
X129720759Y-95786024D01*
X129720756Y-95786023D01*
X129572922Y-95707005D01*
X129443341Y-95600659D01*
X129336995Y-95471078D01*
X129257977Y-95323244D01*
X129212288Y-95172627D01*
X129209314Y-95162825D01*
X129209314Y-95162824D01*
X129209313Y-95162821D01*
X129192883Y-94996000D01*
X129209313Y-94829179D01*
X129212287Y-94819375D01*
X129257975Y-94668761D01*
X129257976Y-94668759D01*
X129257977Y-94668756D01*
X129336995Y-94520922D01*
X129443341Y-94391341D01*
X129572922Y-94284995D01*
X129720756Y-94205977D01*
X129720759Y-94205976D01*
X129720761Y-94205975D01*
X129881175Y-94157314D01*
X129881176Y-94157314D01*
X129881179Y-94157313D01*
X130006196Y-94145000D01*
X130089804Y-94145000D01*
X130214821Y-94157313D01*
X130214821Y-94157313D01*
G37*
G36*
X137834821Y-94157313D02*
X137834824Y-94157314D01*
X137834825Y-94157314D01*
X137995239Y-94205975D01*
X137995241Y-94205976D01*
X137995244Y-94205977D01*
X138143078Y-94284995D01*
X138272659Y-94391341D01*
X138379005Y-94520922D01*
X138458023Y-94668756D01*
X138458024Y-94668759D01*
X138458025Y-94668761D01*
X138503713Y-94819375D01*
X138506687Y-94829179D01*
X138523117Y-94996000D01*
X138506687Y-95162821D01*
X138506686Y-95162824D01*
X138506686Y-95162825D01*
X138503713Y-95172627D01*
X138458023Y-95323244D01*
X138379005Y-95471078D01*
X138272659Y-95600659D01*
X138143078Y-95707005D01*
X137995244Y-95786023D01*
X137995241Y-95786024D01*
X137995239Y-95786025D01*
X137834825Y-95834686D01*
X137834824Y-95834686D01*
X137834821Y-95834687D01*
X137709804Y-95847000D01*
X137626196Y-95847000D01*
X137501179Y-95834687D01*
X137501176Y-95834686D01*
X137501175Y-95834686D01*
X137340761Y-95786025D01*
X137340759Y-95786024D01*
X137340756Y-95786023D01*
X137192922Y-95707005D01*
X137063341Y-95600659D01*
X136956995Y-95471078D01*
X136877977Y-95323244D01*
X136832288Y-95172627D01*
X136829314Y-95162825D01*
X136829314Y-95162824D01*
X136829313Y-95162821D01*
X136812883Y-94996000D01*
X136829313Y-94829179D01*
X136832287Y-94819375D01*
X136877975Y-94668761D01*
X136877976Y-94668759D01*
X136877977Y-94668756D01*
X136956995Y-94520922D01*
X137063341Y-94391341D01*
X137192922Y-94284995D01*
X137340756Y-94205977D01*
X137340759Y-94205976D01*
X137340761Y-94205975D01*
X137501175Y-94157314D01*
X137501176Y-94157314D01*
X137501179Y-94157313D01*
X137626196Y-94145000D01*
X137709804Y-94145000D01*
X137834821Y-94157313D01*
X137834821Y-94157313D01*
G37*
G36*
X150026821Y-94157313D02*
X150026824Y-94157314D01*
X150026825Y-94157314D01*
X150187239Y-94205975D01*
X150187241Y-94205976D01*
X150187244Y-94205977D01*
X150335078Y-94284995D01*
X150464659Y-94391341D01*
X150571005Y-94520922D01*
X150650023Y-94668756D01*
X150650024Y-94668759D01*
X150650025Y-94668761D01*
X150695713Y-94819375D01*
X150698687Y-94829179D01*
X150715117Y-94996000D01*
X150698687Y-95162821D01*
X150698686Y-95162824D01*
X150698686Y-95162825D01*
X150695713Y-95172627D01*
X150650023Y-95323244D01*
X150571005Y-95471078D01*
X150464659Y-95600659D01*
X150335078Y-95707005D01*
X150187244Y-95786023D01*
X150187241Y-95786024D01*
X150187239Y-95786025D01*
X150026825Y-95834686D01*
X150026824Y-95834686D01*
X150026821Y-95834687D01*
X149901804Y-95847000D01*
X149818196Y-95847000D01*
X149693179Y-95834687D01*
X149693176Y-95834686D01*
X149693175Y-95834686D01*
X149532761Y-95786025D01*
X149532759Y-95786024D01*
X149532756Y-95786023D01*
X149384922Y-95707005D01*
X149255341Y-95600659D01*
X149148995Y-95471078D01*
X149069977Y-95323244D01*
X149024288Y-95172627D01*
X149021314Y-95162825D01*
X149021314Y-95162824D01*
X149021313Y-95162821D01*
X149004883Y-94996000D01*
X149021313Y-94829179D01*
X149024287Y-94819375D01*
X149069975Y-94668761D01*
X149069976Y-94668759D01*
X149069977Y-94668756D01*
X149148995Y-94520922D01*
X149255341Y-94391341D01*
X149384922Y-94284995D01*
X149532756Y-94205977D01*
X149532759Y-94205976D01*
X149532761Y-94205975D01*
X149693175Y-94157314D01*
X149693176Y-94157314D01*
X149693179Y-94157313D01*
X149818196Y-94145000D01*
X149901804Y-94145000D01*
X150026821Y-94157313D01*
X150026821Y-94157313D01*
G37*
G36*
X142406821Y-94157313D02*
X142406824Y-94157314D01*
X142406825Y-94157314D01*
X142567239Y-94205975D01*
X142567241Y-94205976D01*
X142567244Y-94205977D01*
X142715078Y-94284995D01*
X142844659Y-94391341D01*
X142951005Y-94520922D01*
X143030023Y-94668756D01*
X143030024Y-94668759D01*
X143030025Y-94668761D01*
X143075713Y-94819375D01*
X143078687Y-94829179D01*
X143095117Y-94996000D01*
X143078687Y-95162821D01*
X143078686Y-95162824D01*
X143078686Y-95162825D01*
X143075713Y-95172627D01*
X143030023Y-95323244D01*
X142951005Y-95471078D01*
X142844659Y-95600659D01*
X142715078Y-95707005D01*
X142567244Y-95786023D01*
X142567241Y-95786024D01*
X142567239Y-95786025D01*
X142406825Y-95834686D01*
X142406824Y-95834686D01*
X142406821Y-95834687D01*
X142281804Y-95847000D01*
X142198196Y-95847000D01*
X142073179Y-95834687D01*
X142073176Y-95834686D01*
X142073175Y-95834686D01*
X141912761Y-95786025D01*
X141912759Y-95786024D01*
X141912756Y-95786023D01*
X141764922Y-95707005D01*
X141635341Y-95600659D01*
X141528995Y-95471078D01*
X141449977Y-95323244D01*
X141404288Y-95172627D01*
X141401314Y-95162825D01*
X141401314Y-95162824D01*
X141401313Y-95162821D01*
X141384883Y-94996000D01*
X141401313Y-94829179D01*
X141404287Y-94819375D01*
X141449975Y-94668761D01*
X141449976Y-94668759D01*
X141449977Y-94668756D01*
X141528995Y-94520922D01*
X141635341Y-94391341D01*
X141764922Y-94284995D01*
X141912756Y-94205977D01*
X141912759Y-94205976D01*
X141912761Y-94205975D01*
X142073175Y-94157314D01*
X142073176Y-94157314D01*
X142073179Y-94157313D01*
X142198196Y-94145000D01*
X142281804Y-94145000D01*
X142406821Y-94157313D01*
X142406821Y-94157313D01*
G37*
G36*
X176967635Y-92621019D02*
X177148903Y-92657075D01*
X177376571Y-92751378D01*
X177580542Y-92887668D01*
X177581469Y-92888287D01*
X177755713Y-93062531D01*
X177755715Y-93062534D01*
X177892622Y-93267429D01*
X177986925Y-93495097D01*
X178035000Y-93736787D01*
X178035000Y-93983213D01*
X177986925Y-94224903D01*
X177892622Y-94452571D01*
X177761016Y-94649533D01*
X177755713Y-94657469D01*
X177581469Y-94831713D01*
X177581466Y-94831715D01*
X177376571Y-94968622D01*
X177148903Y-95062925D01*
X176967635Y-95098981D01*
X176907214Y-95111000D01*
X176660786Y-95111000D01*
X176600365Y-95098981D01*
X176419097Y-95062925D01*
X176191429Y-94968622D01*
X175986534Y-94831715D01*
X175986531Y-94831713D01*
X175812287Y-94657469D01*
X175806984Y-94649533D01*
X175675378Y-94452571D01*
X175581075Y-94224903D01*
X175533000Y-93983213D01*
X175533000Y-93736787D01*
X175581075Y-93495097D01*
X175675378Y-93267429D01*
X175812285Y-93062534D01*
X175812287Y-93062531D01*
X175986531Y-92888287D01*
X175987458Y-92887668D01*
X176191429Y-92751378D01*
X176419097Y-92657075D01*
X176600364Y-92621019D01*
X176660786Y-92609000D01*
X176907214Y-92609000D01*
X176967635Y-92621019D01*
X176967635Y-92621019D01*
G37*
G36*
X130899000Y-93307000D02*
X129197000Y-93307000D01*
X129197000Y-91605000D01*
X130899000Y-91605000D01*
X130899000Y-93307000D01*
X130899000Y-93307000D01*
G37*
G36*
X150026821Y-91617313D02*
X150026824Y-91617314D01*
X150026825Y-91617314D01*
X150187239Y-91665975D01*
X150187241Y-91665976D01*
X150187244Y-91665977D01*
X150335078Y-91744995D01*
X150464659Y-91851341D01*
X150571005Y-91980922D01*
X150650023Y-92128756D01*
X150698687Y-92289179D01*
X150715117Y-92456000D01*
X150698687Y-92622821D01*
X150698686Y-92622824D01*
X150698686Y-92622825D01*
X150659690Y-92751379D01*
X150650023Y-92783244D01*
X150571005Y-92931078D01*
X150464659Y-93060659D01*
X150335078Y-93167005D01*
X150187244Y-93246023D01*
X150187241Y-93246024D01*
X150187239Y-93246025D01*
X150026825Y-93294686D01*
X150026824Y-93294686D01*
X150026821Y-93294687D01*
X149901804Y-93307000D01*
X149818196Y-93307000D01*
X149693179Y-93294687D01*
X149693176Y-93294686D01*
X149693175Y-93294686D01*
X149532761Y-93246025D01*
X149532759Y-93246024D01*
X149532756Y-93246023D01*
X149384922Y-93167005D01*
X149255341Y-93060659D01*
X149148995Y-92931078D01*
X149069977Y-92783244D01*
X149060311Y-92751379D01*
X149021314Y-92622825D01*
X149021314Y-92622824D01*
X149021313Y-92622821D01*
X149004883Y-92456000D01*
X149021313Y-92289179D01*
X149069977Y-92128756D01*
X149148995Y-91980922D01*
X149255341Y-91851341D01*
X149384922Y-91744995D01*
X149532756Y-91665977D01*
X149532759Y-91665976D01*
X149532761Y-91665975D01*
X149693175Y-91617314D01*
X149693176Y-91617314D01*
X149693179Y-91617313D01*
X149818196Y-91605000D01*
X149901804Y-91605000D01*
X150026821Y-91617313D01*
X150026821Y-91617313D01*
G37*
G36*
X137834821Y-91617313D02*
X137834824Y-91617314D01*
X137834825Y-91617314D01*
X137995239Y-91665975D01*
X137995241Y-91665976D01*
X137995244Y-91665977D01*
X138143078Y-91744995D01*
X138272659Y-91851341D01*
X138379005Y-91980922D01*
X138458023Y-92128756D01*
X138506687Y-92289179D01*
X138523117Y-92456000D01*
X138506687Y-92622821D01*
X138506686Y-92622824D01*
X138506686Y-92622825D01*
X138467690Y-92751379D01*
X138458023Y-92783244D01*
X138379005Y-92931078D01*
X138272659Y-93060659D01*
X138143078Y-93167005D01*
X137995244Y-93246023D01*
X137995241Y-93246024D01*
X137995239Y-93246025D01*
X137834825Y-93294686D01*
X137834824Y-93294686D01*
X137834821Y-93294687D01*
X137709804Y-93307000D01*
X137626196Y-93307000D01*
X137501179Y-93294687D01*
X137501176Y-93294686D01*
X137501175Y-93294686D01*
X137340761Y-93246025D01*
X137340759Y-93246024D01*
X137340756Y-93246023D01*
X137192922Y-93167005D01*
X137063341Y-93060659D01*
X136956995Y-92931078D01*
X136877977Y-92783244D01*
X136868311Y-92751379D01*
X136829314Y-92622825D01*
X136829314Y-92622824D01*
X136829313Y-92622821D01*
X136812883Y-92456000D01*
X136829313Y-92289179D01*
X136877977Y-92128756D01*
X136956995Y-91980922D01*
X137063341Y-91851341D01*
X137192922Y-91744995D01*
X137340756Y-91665977D01*
X137340759Y-91665976D01*
X137340761Y-91665975D01*
X137501175Y-91617314D01*
X137501176Y-91617314D01*
X137501179Y-91617313D01*
X137626196Y-91605000D01*
X137709804Y-91605000D01*
X137834821Y-91617313D01*
X137834821Y-91617313D01*
G37*
G36*
X143091000Y-93307000D02*
X141389000Y-93307000D01*
X141389000Y-91605000D01*
X143091000Y-91605000D01*
X143091000Y-93307000D01*
X143091000Y-93307000D01*
G37*
G36*
X131699941Y-82922248D02*
X131699943Y-82922249D01*
X131699944Y-82922249D01*
X132255190Y-83152239D01*
X132255191Y-83152240D01*
X132754902Y-83486136D01*
X133179864Y-83911098D01*
X133179866Y-83911101D01*
X133513761Y-84410810D01*
X133711833Y-84889000D01*
X133743752Y-84966059D01*
X133861000Y-85555501D01*
X133861000Y-86156499D01*
X133782176Y-86552774D01*
X133743751Y-86745944D01*
X133513761Y-87301190D01*
X133184367Y-87794162D01*
X133179864Y-87800902D01*
X132754902Y-88225864D01*
X132754899Y-88225866D01*
X132255190Y-88559761D01*
X131699944Y-88789751D01*
X131699943Y-88789751D01*
X131699941Y-88789752D01*
X131110499Y-88907000D01*
X130509501Y-88907000D01*
X129920059Y-88789752D01*
X129920057Y-88789751D01*
X129920056Y-88789751D01*
X129364810Y-88559761D01*
X128865101Y-88225866D01*
X128865098Y-88225864D01*
X128440136Y-87800902D01*
X128435633Y-87794162D01*
X128106239Y-87301190D01*
X127876249Y-86745944D01*
X127837825Y-86552774D01*
X127759000Y-86156499D01*
X127759000Y-85555501D01*
X127876248Y-84966059D01*
X127908167Y-84889000D01*
X128106239Y-84410810D01*
X128440134Y-83911101D01*
X128440136Y-83911098D01*
X128865098Y-83486136D01*
X129364809Y-83152240D01*
X129364810Y-83152239D01*
X129920056Y-82922249D01*
X129920057Y-82922249D01*
X129920059Y-82922248D01*
X130509501Y-82805000D01*
X131110499Y-82805000D01*
X131699941Y-82922248D01*
X131699941Y-82922248D01*
G37*
G36*
X163699941Y-82922248D02*
X163699943Y-82922249D01*
X163699944Y-82922249D01*
X164255190Y-83152239D01*
X164255191Y-83152240D01*
X164754902Y-83486136D01*
X165179864Y-83911098D01*
X165179866Y-83911101D01*
X165513761Y-84410810D01*
X165711833Y-84889000D01*
X165743752Y-84966059D01*
X165861000Y-85555501D01*
X165861000Y-86156499D01*
X165782176Y-86552774D01*
X165743751Y-86745944D01*
X165513761Y-87301190D01*
X165184367Y-87794162D01*
X165179864Y-87800902D01*
X164754902Y-88225864D01*
X164754899Y-88225866D01*
X164255190Y-88559761D01*
X163699944Y-88789751D01*
X163699943Y-88789751D01*
X163699941Y-88789752D01*
X163110499Y-88907000D01*
X162509501Y-88907000D01*
X161920059Y-88789752D01*
X161920057Y-88789751D01*
X161920056Y-88789751D01*
X161364810Y-88559761D01*
X160865101Y-88225866D01*
X160865098Y-88225864D01*
X160440136Y-87800902D01*
X160435633Y-87794162D01*
X160106239Y-87301190D01*
X159876249Y-86745944D01*
X159837825Y-86552774D01*
X159759000Y-86156499D01*
X159759000Y-85555501D01*
X159876248Y-84966059D01*
X159908167Y-84889000D01*
X160106239Y-84410810D01*
X160440134Y-83911101D01*
X160440136Y-83911098D01*
X160865098Y-83486136D01*
X161364809Y-83152240D01*
X161364810Y-83152239D01*
X161920056Y-82922249D01*
X161920057Y-82922249D01*
X161920059Y-82922248D01*
X162509501Y-82805000D01*
X163110499Y-82805000D01*
X163699941Y-82922248D01*
X163699941Y-82922248D01*
G37*
G36*
X113684600Y-86438989D02*
X113717649Y-86449014D01*
X113748106Y-86465294D01*
X113774799Y-86487201D01*
X113796706Y-86513894D01*
X113812986Y-86544351D01*
X113823011Y-86577400D01*
X113827000Y-86617904D01*
X113827000Y-88054096D01*
X113823011Y-88094600D01*
X113812986Y-88127649D01*
X113796706Y-88158106D01*
X113774799Y-88184799D01*
X113748106Y-88206706D01*
X113717649Y-88222986D01*
X113684600Y-88233011D01*
X113644096Y-88237000D01*
X111907904Y-88237000D01*
X111867400Y-88233011D01*
X111834351Y-88222986D01*
X111803894Y-88206706D01*
X111777201Y-88184799D01*
X111755294Y-88158106D01*
X111739014Y-88127649D01*
X111728989Y-88094600D01*
X111725000Y-88054096D01*
X111725000Y-86617904D01*
X111728989Y-86577400D01*
X111739014Y-86544351D01*
X111755294Y-86513894D01*
X111777201Y-86487201D01*
X111803894Y-86465294D01*
X111834351Y-86449014D01*
X111867400Y-86438989D01*
X111907904Y-86435000D01*
X113644096Y-86435000D01*
X113684600Y-86438989D01*
X113684600Y-86438989D01*
G37*
G36*
X178035000Y-87611000D02*
X175533000Y-87611000D01*
X175533000Y-85109000D01*
X178035000Y-85109000D01*
X178035000Y-87611000D01*
X178035000Y-87611000D01*
G37*
G36*
X113036443Y-83941519D02*
X113102627Y-83948037D01*
X113215853Y-83982384D01*
X113272467Y-83999557D01*
X113411087Y-84073652D01*
X113428991Y-84083222D01*
X113464729Y-84112552D01*
X113566186Y-84195814D01*
X113649448Y-84297271D01*
X113678778Y-84333009D01*
X113678779Y-84333011D01*
X113762443Y-84489533D01*
X113762443Y-84489534D01*
X113813963Y-84659373D01*
X113831359Y-84836000D01*
X113813963Y-85012627D01*
X113784729Y-85109000D01*
X113762443Y-85182467D01*
X113688348Y-85321087D01*
X113678778Y-85338991D01*
X113649448Y-85374729D01*
X113566186Y-85476186D01*
X113464729Y-85559448D01*
X113428991Y-85588778D01*
X113428989Y-85588779D01*
X113272467Y-85672443D01*
X113215853Y-85689616D01*
X113102627Y-85723963D01*
X113036443Y-85730481D01*
X112970260Y-85737000D01*
X112581740Y-85737000D01*
X112515557Y-85730481D01*
X112449373Y-85723963D01*
X112336147Y-85689616D01*
X112279533Y-85672443D01*
X112123011Y-85588779D01*
X112123009Y-85588778D01*
X112087271Y-85559448D01*
X111985814Y-85476186D01*
X111902552Y-85374729D01*
X111873222Y-85338991D01*
X111863652Y-85321087D01*
X111789557Y-85182467D01*
X111767271Y-85109000D01*
X111738037Y-85012627D01*
X111720641Y-84836000D01*
X111738037Y-84659373D01*
X111789557Y-84489534D01*
X111789557Y-84489533D01*
X111873221Y-84333011D01*
X111873222Y-84333009D01*
X111902552Y-84297271D01*
X111985814Y-84195814D01*
X112087271Y-84112552D01*
X112123009Y-84083222D01*
X112140913Y-84073652D01*
X112279533Y-83999557D01*
X112336147Y-83982384D01*
X112449373Y-83948037D01*
X112515557Y-83941519D01*
X112581740Y-83935000D01*
X112970260Y-83935000D01*
X113036443Y-83941519D01*
X113036443Y-83941519D01*
G37*
G36*
X139427142Y-83294242D02*
X139575102Y-83355530D01*
X139708258Y-83444502D01*
X139821498Y-83557742D01*
X139910470Y-83690898D01*
X139971758Y-83838858D01*
X140003000Y-83995925D01*
X140003000Y-84156075D01*
X139971758Y-84313142D01*
X139910470Y-84461102D01*
X139821498Y-84594258D01*
X139708258Y-84707498D01*
X139575102Y-84796470D01*
X139427142Y-84857758D01*
X139270075Y-84889000D01*
X139109925Y-84889000D01*
X138952858Y-84857758D01*
X138804898Y-84796470D01*
X138671742Y-84707498D01*
X138558502Y-84594258D01*
X138469530Y-84461102D01*
X138408242Y-84313142D01*
X138377000Y-84156075D01*
X138377000Y-83995925D01*
X138408242Y-83838858D01*
X138469530Y-83690898D01*
X138558502Y-83557742D01*
X138671742Y-83444502D01*
X138804898Y-83355530D01*
X138952858Y-83294242D01*
X139109925Y-83263000D01*
X139270075Y-83263000D01*
X139427142Y-83294242D01*
X139427142Y-83294242D01*
G37*
G36*
X141967142Y-83294242D02*
X142115102Y-83355530D01*
X142248258Y-83444502D01*
X142361498Y-83557742D01*
X142450470Y-83690898D01*
X142511758Y-83838858D01*
X142543000Y-83995925D01*
X142543000Y-84156075D01*
X142511758Y-84313142D01*
X142450470Y-84461102D01*
X142361498Y-84594258D01*
X142248258Y-84707498D01*
X142115102Y-84796470D01*
X141967142Y-84857758D01*
X141810075Y-84889000D01*
X141649925Y-84889000D01*
X141492858Y-84857758D01*
X141344898Y-84796470D01*
X141211742Y-84707498D01*
X141098502Y-84594258D01*
X141009530Y-84461102D01*
X140948242Y-84313142D01*
X140917000Y-84156075D01*
X140917000Y-83995925D01*
X140948242Y-83838858D01*
X141009530Y-83690898D01*
X141098502Y-83557742D01*
X141211742Y-83444502D01*
X141344898Y-83355530D01*
X141492858Y-83294242D01*
X141649925Y-83263000D01*
X141810075Y-83263000D01*
X141967142Y-83294242D01*
X141967142Y-83294242D01*
G37*
G36*
X144507142Y-83294242D02*
X144655102Y-83355530D01*
X144788258Y-83444502D01*
X144901498Y-83557742D01*
X144990470Y-83690898D01*
X145051758Y-83838858D01*
X145083000Y-83995925D01*
X145083000Y-84156075D01*
X145051758Y-84313142D01*
X144990470Y-84461102D01*
X144901498Y-84594258D01*
X144788258Y-84707498D01*
X144655102Y-84796470D01*
X144507142Y-84857758D01*
X144350075Y-84889000D01*
X144189925Y-84889000D01*
X144032858Y-84857758D01*
X143884898Y-84796470D01*
X143751742Y-84707498D01*
X143638502Y-84594258D01*
X143549530Y-84461102D01*
X143488242Y-84313142D01*
X143457000Y-84156075D01*
X143457000Y-83995925D01*
X143488242Y-83838858D01*
X143549530Y-83690898D01*
X143638502Y-83557742D01*
X143751742Y-83444502D01*
X143884898Y-83355530D01*
X144032858Y-83294242D01*
X144189925Y-83263000D01*
X144350075Y-83263000D01*
X144507142Y-83294242D01*
X144507142Y-83294242D01*
G37*
G36*
X147047142Y-83294242D02*
X147195102Y-83355530D01*
X147328258Y-83444502D01*
X147441498Y-83557742D01*
X147530470Y-83690898D01*
X147591758Y-83838858D01*
X147623000Y-83995925D01*
X147623000Y-84156075D01*
X147591758Y-84313142D01*
X147530470Y-84461102D01*
X147441498Y-84594258D01*
X147328258Y-84707498D01*
X147195102Y-84796470D01*
X147047142Y-84857758D01*
X146890075Y-84889000D01*
X146729925Y-84889000D01*
X146572858Y-84857758D01*
X146424898Y-84796470D01*
X146291742Y-84707498D01*
X146178502Y-84594258D01*
X146089530Y-84461102D01*
X146028242Y-84313142D01*
X145997000Y-84156075D01*
X145997000Y-83995925D01*
X146028242Y-83838858D01*
X146089530Y-83690898D01*
X146178502Y-83557742D01*
X146291742Y-83444502D01*
X146424898Y-83355530D01*
X146572858Y-83294242D01*
X146729925Y-83263000D01*
X146890075Y-83263000D01*
X147047142Y-83294242D01*
X147047142Y-83294242D01*
G37*
G36*
X149587142Y-83294242D02*
X149735102Y-83355530D01*
X149868258Y-83444502D01*
X149981498Y-83557742D01*
X150070470Y-83690898D01*
X150131758Y-83838858D01*
X150163000Y-83995925D01*
X150163000Y-84156075D01*
X150131758Y-84313142D01*
X150070470Y-84461102D01*
X149981498Y-84594258D01*
X149868258Y-84707498D01*
X149735102Y-84796470D01*
X149587142Y-84857758D01*
X149430075Y-84889000D01*
X149269925Y-84889000D01*
X149112858Y-84857758D01*
X148964898Y-84796470D01*
X148831742Y-84707498D01*
X148718502Y-84594258D01*
X148629530Y-84461102D01*
X148568242Y-84313142D01*
X148537000Y-84156075D01*
X148537000Y-83995925D01*
X148568242Y-83838858D01*
X148629530Y-83690898D01*
X148718502Y-83557742D01*
X148831742Y-83444502D01*
X148964898Y-83355530D01*
X149112858Y-83294242D01*
X149269925Y-83263000D01*
X149430075Y-83263000D01*
X149587142Y-83294242D01*
X149587142Y-83294242D01*
G37*
G36*
X152127142Y-83294242D02*
X152275102Y-83355530D01*
X152408258Y-83444502D01*
X152521498Y-83557742D01*
X152610470Y-83690898D01*
X152671758Y-83838858D01*
X152703000Y-83995925D01*
X152703000Y-84156075D01*
X152671758Y-84313142D01*
X152610470Y-84461102D01*
X152521498Y-84594258D01*
X152408258Y-84707498D01*
X152275102Y-84796470D01*
X152127142Y-84857758D01*
X151970075Y-84889000D01*
X151809925Y-84889000D01*
X151652858Y-84857758D01*
X151504898Y-84796470D01*
X151371742Y-84707498D01*
X151258502Y-84594258D01*
X151169530Y-84461102D01*
X151108242Y-84313142D01*
X151077000Y-84156075D01*
X151077000Y-83995925D01*
X151108242Y-83838858D01*
X151169530Y-83690898D01*
X151258502Y-83557742D01*
X151371742Y-83444502D01*
X151504898Y-83355530D01*
X151652858Y-83294242D01*
X151809925Y-83263000D01*
X151970075Y-83263000D01*
X152127142Y-83294242D01*
X152127142Y-83294242D01*
G37*
G36*
X154667142Y-83294242D02*
X154815102Y-83355530D01*
X154948258Y-83444502D01*
X155061498Y-83557742D01*
X155150470Y-83690898D01*
X155211758Y-83838858D01*
X155243000Y-83995925D01*
X155243000Y-84156075D01*
X155211758Y-84313142D01*
X155150470Y-84461102D01*
X155061498Y-84594258D01*
X154948258Y-84707498D01*
X154815102Y-84796470D01*
X154667142Y-84857758D01*
X154510075Y-84889000D01*
X154349925Y-84889000D01*
X154192858Y-84857758D01*
X154044898Y-84796470D01*
X153911742Y-84707498D01*
X153798502Y-84594258D01*
X153709530Y-84461102D01*
X153648242Y-84313142D01*
X153617000Y-84156075D01*
X153617000Y-83995925D01*
X153648242Y-83838858D01*
X153709530Y-83690898D01*
X153798502Y-83557742D01*
X153911742Y-83444502D01*
X154044898Y-83355530D01*
X154192858Y-83294242D01*
X154349925Y-83263000D01*
X154510075Y-83263000D01*
X154667142Y-83294242D01*
X154667142Y-83294242D01*
G37*
M02*
