M48
;DRILL file {KiCad 5.0.2+dfsg1-1} date Sat 26 Mar 2022 11:48:54 PM JST
;FORMAT={-:-/ absolute / inch / decimal}
FMAT,2
INCH,TZ
T1C0.0157
T2C0.0300
T3C0.0315
T4C0.0394
T5C0.0433
T6C0.0472
T7C0.1260
%
G90
G05
T1
X4.61Y-3.98
X5.9Y-3.55
X5.9Y-4.15
X6.14Y-4.15
X6.21Y-3.61
X6.36Y-4.15
T2
X5.2Y-4.14
X5.2Y-4.24
X5.2Y-4.34
X5.2Y-4.44
X5.4799Y-3.3101
X5.4799Y-4.7101
X5.5799Y-3.3101
X5.5799Y-4.7101
X5.6799Y-3.3101
X5.6799Y-4.7101
X5.7799Y-3.3101
X5.7799Y-4.7101
X5.8799Y-3.3101
X5.8799Y-4.7101
X5.9799Y-3.3101
X5.9799Y-4.7101
X6.0799Y-3.3101
X6.0799Y-4.7101
T3
X4.82Y-4.54
X4.82Y-4.74
X4.92Y-4.64
X5.12Y-3.64
X5.12Y-3.74
X5.12Y-3.84
X5.12Y-3.94
X5.42Y-3.64
X5.42Y-3.74
X5.42Y-3.84
X5.42Y-3.94
X4.82Y-4.18
X4.82Y-4.38
X4.92Y-4.28
X5.6Y-3.64
X5.6Y-3.74
X5.6Y-3.84
X5.6Y-3.94
X5.9Y-3.64
X5.9Y-3.74
X5.9Y-3.84
X5.9Y-3.94
X6.6922Y-4.01
X6.83Y-4.01
T4
X4.81Y-3.755
X4.44Y-3.34
X4.44Y-3.4384
X4.44Y-4.14
X4.44Y-4.2384
X4.44Y-3.74
X4.44Y-3.8384
T5
X4.4Y-4.48
X4.4Y-4.7359
X4.5772Y-4.48
X4.5772Y-4.7359
T6
X6.96Y-3.4
X6.96Y-3.6953
X6.96Y-4.3247
X6.96Y-4.62
T7
X5.15Y-3.3802
X5.15Y-4.64
X6.4098Y-3.3802
X6.4098Y-4.64
T0
M30
