%TF.GenerationSoftware,KiCad,Pcbnew,5.0.2+dfsg1-1*%
%TF.CreationDate,2022-03-26T23:48:49+09:00*%
%TF.ProjectId,pwm-esc,70776d2d-6573-4632-9e6b-696361645f70,rev?*%
%TF.SameCoordinates,Original*%
%TF.FileFunction,Paste,Top*%
%TF.FilePolarity,Positive*%
%FSLAX46Y46*%
G04 Gerber Fmt 4.6, Leading zero omitted, Abs format (unit mm)*
G04 Created by KiCad (PCBNEW 5.0.2+dfsg1-1) date Sat 26 Mar 2022 11:48:49 PM JST*
%MOMM*%
%LPD*%
G01*
G04 APERTURE LIST*
%ADD10C,0.150000*%
%ADD11C,0.100000*%
%ADD12C,1.150000*%
%ADD13R,1.500000X2.000000*%
%ADD14R,3.800000X2.000000*%
%ADD15C,1.425000*%
%ADD16C,2.100000*%
G04 APERTURE END LIST*
D10*
X109728000Y-121920000D02*
X109728000Y-81788000D01*
X184912000Y-121920000D02*
X109728000Y-121920000D01*
X184912000Y-81788000D02*
X184912000Y-121920000D01*
X109728000Y-81788000D02*
X184912000Y-81788000D01*
D11*
G36*
X124426505Y-99493204D02*
X124450773Y-99496804D01*
X124474572Y-99502765D01*
X124497671Y-99511030D01*
X124519850Y-99521520D01*
X124540893Y-99534132D01*
X124560599Y-99548747D01*
X124578777Y-99565223D01*
X124595253Y-99583401D01*
X124609868Y-99603107D01*
X124622480Y-99624150D01*
X124632970Y-99646329D01*
X124641235Y-99669428D01*
X124647196Y-99693227D01*
X124650796Y-99717495D01*
X124652000Y-99741999D01*
X124652000Y-100392001D01*
X124650796Y-100416505D01*
X124647196Y-100440773D01*
X124641235Y-100464572D01*
X124632970Y-100487671D01*
X124622480Y-100509850D01*
X124609868Y-100530893D01*
X124595253Y-100550599D01*
X124578777Y-100568777D01*
X124560599Y-100585253D01*
X124540893Y-100599868D01*
X124519850Y-100612480D01*
X124497671Y-100622970D01*
X124474572Y-100631235D01*
X124450773Y-100637196D01*
X124426505Y-100640796D01*
X124402001Y-100642000D01*
X123501999Y-100642000D01*
X123477495Y-100640796D01*
X123453227Y-100637196D01*
X123429428Y-100631235D01*
X123406329Y-100622970D01*
X123384150Y-100612480D01*
X123363107Y-100599868D01*
X123343401Y-100585253D01*
X123325223Y-100568777D01*
X123308747Y-100550599D01*
X123294132Y-100530893D01*
X123281520Y-100509850D01*
X123271030Y-100487671D01*
X123262765Y-100464572D01*
X123256804Y-100440773D01*
X123253204Y-100416505D01*
X123252000Y-100392001D01*
X123252000Y-99741999D01*
X123253204Y-99717495D01*
X123256804Y-99693227D01*
X123262765Y-99669428D01*
X123271030Y-99646329D01*
X123281520Y-99624150D01*
X123294132Y-99603107D01*
X123308747Y-99583401D01*
X123325223Y-99565223D01*
X123343401Y-99548747D01*
X123363107Y-99534132D01*
X123384150Y-99521520D01*
X123406329Y-99511030D01*
X123429428Y-99502765D01*
X123453227Y-99496804D01*
X123477495Y-99493204D01*
X123501999Y-99492000D01*
X124402001Y-99492000D01*
X124426505Y-99493204D01*
X124426505Y-99493204D01*
G37*
D12*
X123952000Y-100067000D03*
D11*
G36*
X124426505Y-101543204D02*
X124450773Y-101546804D01*
X124474572Y-101552765D01*
X124497671Y-101561030D01*
X124519850Y-101571520D01*
X124540893Y-101584132D01*
X124560599Y-101598747D01*
X124578777Y-101615223D01*
X124595253Y-101633401D01*
X124609868Y-101653107D01*
X124622480Y-101674150D01*
X124632970Y-101696329D01*
X124641235Y-101719428D01*
X124647196Y-101743227D01*
X124650796Y-101767495D01*
X124652000Y-101791999D01*
X124652000Y-102442001D01*
X124650796Y-102466505D01*
X124647196Y-102490773D01*
X124641235Y-102514572D01*
X124632970Y-102537671D01*
X124622480Y-102559850D01*
X124609868Y-102580893D01*
X124595253Y-102600599D01*
X124578777Y-102618777D01*
X124560599Y-102635253D01*
X124540893Y-102649868D01*
X124519850Y-102662480D01*
X124497671Y-102672970D01*
X124474572Y-102681235D01*
X124450773Y-102687196D01*
X124426505Y-102690796D01*
X124402001Y-102692000D01*
X123501999Y-102692000D01*
X123477495Y-102690796D01*
X123453227Y-102687196D01*
X123429428Y-102681235D01*
X123406329Y-102672970D01*
X123384150Y-102662480D01*
X123363107Y-102649868D01*
X123343401Y-102635253D01*
X123325223Y-102618777D01*
X123308747Y-102600599D01*
X123294132Y-102580893D01*
X123281520Y-102559850D01*
X123271030Y-102537671D01*
X123262765Y-102514572D01*
X123256804Y-102490773D01*
X123253204Y-102466505D01*
X123252000Y-102442001D01*
X123252000Y-101791999D01*
X123253204Y-101767495D01*
X123256804Y-101743227D01*
X123262765Y-101719428D01*
X123271030Y-101696329D01*
X123281520Y-101674150D01*
X123294132Y-101653107D01*
X123308747Y-101633401D01*
X123325223Y-101615223D01*
X123343401Y-101598747D01*
X123363107Y-101584132D01*
X123384150Y-101571520D01*
X123406329Y-101561030D01*
X123429428Y-101552765D01*
X123453227Y-101546804D01*
X123477495Y-101543204D01*
X123501999Y-101542000D01*
X124402001Y-101542000D01*
X124426505Y-101543204D01*
X124426505Y-101543204D01*
G37*
D12*
X123952000Y-102117000D03*
D11*
G36*
X152366505Y-107113204D02*
X152390773Y-107116804D01*
X152414572Y-107122765D01*
X152437671Y-107131030D01*
X152459850Y-107141520D01*
X152480893Y-107154132D01*
X152500599Y-107168747D01*
X152518777Y-107185223D01*
X152535253Y-107203401D01*
X152549868Y-107223107D01*
X152562480Y-107244150D01*
X152572970Y-107266329D01*
X152581235Y-107289428D01*
X152587196Y-107313227D01*
X152590796Y-107337495D01*
X152592000Y-107361999D01*
X152592000Y-108012001D01*
X152590796Y-108036505D01*
X152587196Y-108060773D01*
X152581235Y-108084572D01*
X152572970Y-108107671D01*
X152562480Y-108129850D01*
X152549868Y-108150893D01*
X152535253Y-108170599D01*
X152518777Y-108188777D01*
X152500599Y-108205253D01*
X152480893Y-108219868D01*
X152459850Y-108232480D01*
X152437671Y-108242970D01*
X152414572Y-108251235D01*
X152390773Y-108257196D01*
X152366505Y-108260796D01*
X152342001Y-108262000D01*
X151441999Y-108262000D01*
X151417495Y-108260796D01*
X151393227Y-108257196D01*
X151369428Y-108251235D01*
X151346329Y-108242970D01*
X151324150Y-108232480D01*
X151303107Y-108219868D01*
X151283401Y-108205253D01*
X151265223Y-108188777D01*
X151248747Y-108170599D01*
X151234132Y-108150893D01*
X151221520Y-108129850D01*
X151211030Y-108107671D01*
X151202765Y-108084572D01*
X151196804Y-108060773D01*
X151193204Y-108036505D01*
X151192000Y-108012001D01*
X151192000Y-107361999D01*
X151193204Y-107337495D01*
X151196804Y-107313227D01*
X151202765Y-107289428D01*
X151211030Y-107266329D01*
X151221520Y-107244150D01*
X151234132Y-107223107D01*
X151248747Y-107203401D01*
X151265223Y-107185223D01*
X151283401Y-107168747D01*
X151303107Y-107154132D01*
X151324150Y-107141520D01*
X151346329Y-107131030D01*
X151369428Y-107122765D01*
X151393227Y-107116804D01*
X151417495Y-107113204D01*
X151441999Y-107112000D01*
X152342001Y-107112000D01*
X152366505Y-107113204D01*
X152366505Y-107113204D01*
G37*
D12*
X151892000Y-107687000D03*
D11*
G36*
X152366505Y-109163204D02*
X152390773Y-109166804D01*
X152414572Y-109172765D01*
X152437671Y-109181030D01*
X152459850Y-109191520D01*
X152480893Y-109204132D01*
X152500599Y-109218747D01*
X152518777Y-109235223D01*
X152535253Y-109253401D01*
X152549868Y-109273107D01*
X152562480Y-109294150D01*
X152572970Y-109316329D01*
X152581235Y-109339428D01*
X152587196Y-109363227D01*
X152590796Y-109387495D01*
X152592000Y-109411999D01*
X152592000Y-110062001D01*
X152590796Y-110086505D01*
X152587196Y-110110773D01*
X152581235Y-110134572D01*
X152572970Y-110157671D01*
X152562480Y-110179850D01*
X152549868Y-110200893D01*
X152535253Y-110220599D01*
X152518777Y-110238777D01*
X152500599Y-110255253D01*
X152480893Y-110269868D01*
X152459850Y-110282480D01*
X152437671Y-110292970D01*
X152414572Y-110301235D01*
X152390773Y-110307196D01*
X152366505Y-110310796D01*
X152342001Y-110312000D01*
X151441999Y-110312000D01*
X151417495Y-110310796D01*
X151393227Y-110307196D01*
X151369428Y-110301235D01*
X151346329Y-110292970D01*
X151324150Y-110282480D01*
X151303107Y-110269868D01*
X151283401Y-110255253D01*
X151265223Y-110238777D01*
X151248747Y-110220599D01*
X151234132Y-110200893D01*
X151221520Y-110179850D01*
X151211030Y-110157671D01*
X151202765Y-110134572D01*
X151196804Y-110110773D01*
X151193204Y-110086505D01*
X151192000Y-110062001D01*
X151192000Y-109411999D01*
X151193204Y-109387495D01*
X151196804Y-109363227D01*
X151202765Y-109339428D01*
X151211030Y-109316329D01*
X151221520Y-109294150D01*
X151234132Y-109273107D01*
X151248747Y-109253401D01*
X151265223Y-109235223D01*
X151283401Y-109218747D01*
X151303107Y-109204132D01*
X151324150Y-109191520D01*
X151346329Y-109181030D01*
X151369428Y-109172765D01*
X151393227Y-109166804D01*
X151417495Y-109163204D01*
X151441999Y-109162000D01*
X152342001Y-109162000D01*
X152366505Y-109163204D01*
X152366505Y-109163204D01*
G37*
D12*
X151892000Y-109737000D03*
D11*
G36*
X152874505Y-92907204D02*
X152898773Y-92910804D01*
X152922572Y-92916765D01*
X152945671Y-92925030D01*
X152967850Y-92935520D01*
X152988893Y-92948132D01*
X153008599Y-92962747D01*
X153026777Y-92979223D01*
X153043253Y-92997401D01*
X153057868Y-93017107D01*
X153070480Y-93038150D01*
X153080970Y-93060329D01*
X153089235Y-93083428D01*
X153095196Y-93107227D01*
X153098796Y-93131495D01*
X153100000Y-93155999D01*
X153100000Y-93806001D01*
X153098796Y-93830505D01*
X153095196Y-93854773D01*
X153089235Y-93878572D01*
X153080970Y-93901671D01*
X153070480Y-93923850D01*
X153057868Y-93944893D01*
X153043253Y-93964599D01*
X153026777Y-93982777D01*
X153008599Y-93999253D01*
X152988893Y-94013868D01*
X152967850Y-94026480D01*
X152945671Y-94036970D01*
X152922572Y-94045235D01*
X152898773Y-94051196D01*
X152874505Y-94054796D01*
X152850001Y-94056000D01*
X151949999Y-94056000D01*
X151925495Y-94054796D01*
X151901227Y-94051196D01*
X151877428Y-94045235D01*
X151854329Y-94036970D01*
X151832150Y-94026480D01*
X151811107Y-94013868D01*
X151791401Y-93999253D01*
X151773223Y-93982777D01*
X151756747Y-93964599D01*
X151742132Y-93944893D01*
X151729520Y-93923850D01*
X151719030Y-93901671D01*
X151710765Y-93878572D01*
X151704804Y-93854773D01*
X151701204Y-93830505D01*
X151700000Y-93806001D01*
X151700000Y-93155999D01*
X151701204Y-93131495D01*
X151704804Y-93107227D01*
X151710765Y-93083428D01*
X151719030Y-93060329D01*
X151729520Y-93038150D01*
X151742132Y-93017107D01*
X151756747Y-92997401D01*
X151773223Y-92979223D01*
X151791401Y-92962747D01*
X151811107Y-92948132D01*
X151832150Y-92935520D01*
X151854329Y-92925030D01*
X151877428Y-92916765D01*
X151901227Y-92910804D01*
X151925495Y-92907204D01*
X151949999Y-92906000D01*
X152850001Y-92906000D01*
X152874505Y-92907204D01*
X152874505Y-92907204D01*
G37*
D12*
X152400000Y-93481000D03*
D11*
G36*
X152874505Y-90857204D02*
X152898773Y-90860804D01*
X152922572Y-90866765D01*
X152945671Y-90875030D01*
X152967850Y-90885520D01*
X152988893Y-90898132D01*
X153008599Y-90912747D01*
X153026777Y-90929223D01*
X153043253Y-90947401D01*
X153057868Y-90967107D01*
X153070480Y-90988150D01*
X153080970Y-91010329D01*
X153089235Y-91033428D01*
X153095196Y-91057227D01*
X153098796Y-91081495D01*
X153100000Y-91105999D01*
X153100000Y-91756001D01*
X153098796Y-91780505D01*
X153095196Y-91804773D01*
X153089235Y-91828572D01*
X153080970Y-91851671D01*
X153070480Y-91873850D01*
X153057868Y-91894893D01*
X153043253Y-91914599D01*
X153026777Y-91932777D01*
X153008599Y-91949253D01*
X152988893Y-91963868D01*
X152967850Y-91976480D01*
X152945671Y-91986970D01*
X152922572Y-91995235D01*
X152898773Y-92001196D01*
X152874505Y-92004796D01*
X152850001Y-92006000D01*
X151949999Y-92006000D01*
X151925495Y-92004796D01*
X151901227Y-92001196D01*
X151877428Y-91995235D01*
X151854329Y-91986970D01*
X151832150Y-91976480D01*
X151811107Y-91963868D01*
X151791401Y-91949253D01*
X151773223Y-91932777D01*
X151756747Y-91914599D01*
X151742132Y-91894893D01*
X151729520Y-91873850D01*
X151719030Y-91851671D01*
X151710765Y-91828572D01*
X151704804Y-91804773D01*
X151701204Y-91780505D01*
X151700000Y-91756001D01*
X151700000Y-91105999D01*
X151701204Y-91081495D01*
X151704804Y-91057227D01*
X151710765Y-91033428D01*
X151719030Y-91010329D01*
X151729520Y-90988150D01*
X151742132Y-90967107D01*
X151756747Y-90947401D01*
X151773223Y-90929223D01*
X151791401Y-90912747D01*
X151811107Y-90898132D01*
X151832150Y-90885520D01*
X151854329Y-90875030D01*
X151877428Y-90866765D01*
X151901227Y-90860804D01*
X151925495Y-90857204D01*
X151949999Y-90856000D01*
X152850001Y-90856000D01*
X152874505Y-90857204D01*
X152874505Y-90857204D01*
G37*
D12*
X152400000Y-91431000D03*
D11*
G36*
X129506505Y-110152204D02*
X129530773Y-110155804D01*
X129554572Y-110161765D01*
X129577671Y-110170030D01*
X129599850Y-110180520D01*
X129620893Y-110193132D01*
X129640599Y-110207747D01*
X129658777Y-110224223D01*
X129675253Y-110242401D01*
X129689868Y-110262107D01*
X129702480Y-110283150D01*
X129712970Y-110305329D01*
X129721235Y-110328428D01*
X129727196Y-110352227D01*
X129730796Y-110376495D01*
X129732000Y-110400999D01*
X129732000Y-111051001D01*
X129730796Y-111075505D01*
X129727196Y-111099773D01*
X129721235Y-111123572D01*
X129712970Y-111146671D01*
X129702480Y-111168850D01*
X129689868Y-111189893D01*
X129675253Y-111209599D01*
X129658777Y-111227777D01*
X129640599Y-111244253D01*
X129620893Y-111258868D01*
X129599850Y-111271480D01*
X129577671Y-111281970D01*
X129554572Y-111290235D01*
X129530773Y-111296196D01*
X129506505Y-111299796D01*
X129482001Y-111301000D01*
X128581999Y-111301000D01*
X128557495Y-111299796D01*
X128533227Y-111296196D01*
X128509428Y-111290235D01*
X128486329Y-111281970D01*
X128464150Y-111271480D01*
X128443107Y-111258868D01*
X128423401Y-111244253D01*
X128405223Y-111227777D01*
X128388747Y-111209599D01*
X128374132Y-111189893D01*
X128361520Y-111168850D01*
X128351030Y-111146671D01*
X128342765Y-111123572D01*
X128336804Y-111099773D01*
X128333204Y-111075505D01*
X128332000Y-111051001D01*
X128332000Y-110400999D01*
X128333204Y-110376495D01*
X128336804Y-110352227D01*
X128342765Y-110328428D01*
X128351030Y-110305329D01*
X128361520Y-110283150D01*
X128374132Y-110262107D01*
X128388747Y-110242401D01*
X128405223Y-110224223D01*
X128423401Y-110207747D01*
X128443107Y-110193132D01*
X128464150Y-110180520D01*
X128486329Y-110170030D01*
X128509428Y-110161765D01*
X128533227Y-110155804D01*
X128557495Y-110152204D01*
X128581999Y-110151000D01*
X129482001Y-110151000D01*
X129506505Y-110152204D01*
X129506505Y-110152204D01*
G37*
D12*
X129032000Y-110726000D03*
D11*
G36*
X129506505Y-112202204D02*
X129530773Y-112205804D01*
X129554572Y-112211765D01*
X129577671Y-112220030D01*
X129599850Y-112230520D01*
X129620893Y-112243132D01*
X129640599Y-112257747D01*
X129658777Y-112274223D01*
X129675253Y-112292401D01*
X129689868Y-112312107D01*
X129702480Y-112333150D01*
X129712970Y-112355329D01*
X129721235Y-112378428D01*
X129727196Y-112402227D01*
X129730796Y-112426495D01*
X129732000Y-112450999D01*
X129732000Y-113101001D01*
X129730796Y-113125505D01*
X129727196Y-113149773D01*
X129721235Y-113173572D01*
X129712970Y-113196671D01*
X129702480Y-113218850D01*
X129689868Y-113239893D01*
X129675253Y-113259599D01*
X129658777Y-113277777D01*
X129640599Y-113294253D01*
X129620893Y-113308868D01*
X129599850Y-113321480D01*
X129577671Y-113331970D01*
X129554572Y-113340235D01*
X129530773Y-113346196D01*
X129506505Y-113349796D01*
X129482001Y-113351000D01*
X128581999Y-113351000D01*
X128557495Y-113349796D01*
X128533227Y-113346196D01*
X128509428Y-113340235D01*
X128486329Y-113331970D01*
X128464150Y-113321480D01*
X128443107Y-113308868D01*
X128423401Y-113294253D01*
X128405223Y-113277777D01*
X128388747Y-113259599D01*
X128374132Y-113239893D01*
X128361520Y-113218850D01*
X128351030Y-113196671D01*
X128342765Y-113173572D01*
X128336804Y-113149773D01*
X128333204Y-113125505D01*
X128332000Y-113101001D01*
X128332000Y-112450999D01*
X128333204Y-112426495D01*
X128336804Y-112402227D01*
X128342765Y-112378428D01*
X128351030Y-112355329D01*
X128361520Y-112333150D01*
X128374132Y-112312107D01*
X128388747Y-112292401D01*
X128405223Y-112274223D01*
X128423401Y-112257747D01*
X128443107Y-112243132D01*
X128464150Y-112230520D01*
X128486329Y-112220030D01*
X128509428Y-112211765D01*
X128533227Y-112205804D01*
X128557495Y-112202204D01*
X128581999Y-112201000D01*
X129482001Y-112201000D01*
X129506505Y-112202204D01*
X129506505Y-112202204D01*
G37*
D12*
X129032000Y-112776000D03*
D11*
G36*
X121886505Y-101534204D02*
X121910773Y-101537804D01*
X121934572Y-101543765D01*
X121957671Y-101552030D01*
X121979850Y-101562520D01*
X122000893Y-101575132D01*
X122020599Y-101589747D01*
X122038777Y-101606223D01*
X122055253Y-101624401D01*
X122069868Y-101644107D01*
X122082480Y-101665150D01*
X122092970Y-101687329D01*
X122101235Y-101710428D01*
X122107196Y-101734227D01*
X122110796Y-101758495D01*
X122112000Y-101782999D01*
X122112000Y-102433001D01*
X122110796Y-102457505D01*
X122107196Y-102481773D01*
X122101235Y-102505572D01*
X122092970Y-102528671D01*
X122082480Y-102550850D01*
X122069868Y-102571893D01*
X122055253Y-102591599D01*
X122038777Y-102609777D01*
X122020599Y-102626253D01*
X122000893Y-102640868D01*
X121979850Y-102653480D01*
X121957671Y-102663970D01*
X121934572Y-102672235D01*
X121910773Y-102678196D01*
X121886505Y-102681796D01*
X121862001Y-102683000D01*
X120961999Y-102683000D01*
X120937495Y-102681796D01*
X120913227Y-102678196D01*
X120889428Y-102672235D01*
X120866329Y-102663970D01*
X120844150Y-102653480D01*
X120823107Y-102640868D01*
X120803401Y-102626253D01*
X120785223Y-102609777D01*
X120768747Y-102591599D01*
X120754132Y-102571893D01*
X120741520Y-102550850D01*
X120731030Y-102528671D01*
X120722765Y-102505572D01*
X120716804Y-102481773D01*
X120713204Y-102457505D01*
X120712000Y-102433001D01*
X120712000Y-101782999D01*
X120713204Y-101758495D01*
X120716804Y-101734227D01*
X120722765Y-101710428D01*
X120731030Y-101687329D01*
X120741520Y-101665150D01*
X120754132Y-101644107D01*
X120768747Y-101624401D01*
X120785223Y-101606223D01*
X120803401Y-101589747D01*
X120823107Y-101575132D01*
X120844150Y-101562520D01*
X120866329Y-101552030D01*
X120889428Y-101543765D01*
X120913227Y-101537804D01*
X120937495Y-101534204D01*
X120961999Y-101533000D01*
X121862001Y-101533000D01*
X121886505Y-101534204D01*
X121886505Y-101534204D01*
G37*
D12*
X121412000Y-102108000D03*
D11*
G36*
X121886505Y-99484204D02*
X121910773Y-99487804D01*
X121934572Y-99493765D01*
X121957671Y-99502030D01*
X121979850Y-99512520D01*
X122000893Y-99525132D01*
X122020599Y-99539747D01*
X122038777Y-99556223D01*
X122055253Y-99574401D01*
X122069868Y-99594107D01*
X122082480Y-99615150D01*
X122092970Y-99637329D01*
X122101235Y-99660428D01*
X122107196Y-99684227D01*
X122110796Y-99708495D01*
X122112000Y-99732999D01*
X122112000Y-100383001D01*
X122110796Y-100407505D01*
X122107196Y-100431773D01*
X122101235Y-100455572D01*
X122092970Y-100478671D01*
X122082480Y-100500850D01*
X122069868Y-100521893D01*
X122055253Y-100541599D01*
X122038777Y-100559777D01*
X122020599Y-100576253D01*
X122000893Y-100590868D01*
X121979850Y-100603480D01*
X121957671Y-100613970D01*
X121934572Y-100622235D01*
X121910773Y-100628196D01*
X121886505Y-100631796D01*
X121862001Y-100633000D01*
X120961999Y-100633000D01*
X120937495Y-100631796D01*
X120913227Y-100628196D01*
X120889428Y-100622235D01*
X120866329Y-100613970D01*
X120844150Y-100603480D01*
X120823107Y-100590868D01*
X120803401Y-100576253D01*
X120785223Y-100559777D01*
X120768747Y-100541599D01*
X120754132Y-100521893D01*
X120741520Y-100500850D01*
X120731030Y-100478671D01*
X120722765Y-100455572D01*
X120716804Y-100431773D01*
X120713204Y-100407505D01*
X120712000Y-100383001D01*
X120712000Y-99732999D01*
X120713204Y-99708495D01*
X120716804Y-99684227D01*
X120722765Y-99660428D01*
X120731030Y-99637329D01*
X120741520Y-99615150D01*
X120754132Y-99594107D01*
X120768747Y-99574401D01*
X120785223Y-99556223D01*
X120803401Y-99539747D01*
X120823107Y-99525132D01*
X120844150Y-99512520D01*
X120866329Y-99502030D01*
X120889428Y-99493765D01*
X120913227Y-99487804D01*
X120937495Y-99484204D01*
X120961999Y-99483000D01*
X121862001Y-99483000D01*
X121886505Y-99484204D01*
X121886505Y-99484204D01*
G37*
D12*
X121412000Y-100058000D03*
D11*
G36*
X182204505Y-102933204D02*
X182228773Y-102936804D01*
X182252572Y-102942765D01*
X182275671Y-102951030D01*
X182297850Y-102961520D01*
X182318893Y-102974132D01*
X182338599Y-102988747D01*
X182356777Y-103005223D01*
X182373253Y-103023401D01*
X182387868Y-103043107D01*
X182400480Y-103064150D01*
X182410970Y-103086329D01*
X182419235Y-103109428D01*
X182425196Y-103133227D01*
X182428796Y-103157495D01*
X182430000Y-103181999D01*
X182430000Y-104082001D01*
X182428796Y-104106505D01*
X182425196Y-104130773D01*
X182419235Y-104154572D01*
X182410970Y-104177671D01*
X182400480Y-104199850D01*
X182387868Y-104220893D01*
X182373253Y-104240599D01*
X182356777Y-104258777D01*
X182338599Y-104275253D01*
X182318893Y-104289868D01*
X182297850Y-104302480D01*
X182275671Y-104312970D01*
X182252572Y-104321235D01*
X182228773Y-104327196D01*
X182204505Y-104330796D01*
X182180001Y-104332000D01*
X181529999Y-104332000D01*
X181505495Y-104330796D01*
X181481227Y-104327196D01*
X181457428Y-104321235D01*
X181434329Y-104312970D01*
X181412150Y-104302480D01*
X181391107Y-104289868D01*
X181371401Y-104275253D01*
X181353223Y-104258777D01*
X181336747Y-104240599D01*
X181322132Y-104220893D01*
X181309520Y-104199850D01*
X181299030Y-104177671D01*
X181290765Y-104154572D01*
X181284804Y-104130773D01*
X181281204Y-104106505D01*
X181280000Y-104082001D01*
X181280000Y-103181999D01*
X181281204Y-103157495D01*
X181284804Y-103133227D01*
X181290765Y-103109428D01*
X181299030Y-103086329D01*
X181309520Y-103064150D01*
X181322132Y-103043107D01*
X181336747Y-103023401D01*
X181353223Y-103005223D01*
X181371401Y-102988747D01*
X181391107Y-102974132D01*
X181412150Y-102961520D01*
X181434329Y-102951030D01*
X181457428Y-102942765D01*
X181481227Y-102936804D01*
X181505495Y-102933204D01*
X181529999Y-102932000D01*
X182180001Y-102932000D01*
X182204505Y-102933204D01*
X182204505Y-102933204D01*
G37*
D12*
X181855000Y-103632000D03*
D11*
G36*
X184254505Y-102933204D02*
X184278773Y-102936804D01*
X184302572Y-102942765D01*
X184325671Y-102951030D01*
X184347850Y-102961520D01*
X184368893Y-102974132D01*
X184388599Y-102988747D01*
X184406777Y-103005223D01*
X184423253Y-103023401D01*
X184437868Y-103043107D01*
X184450480Y-103064150D01*
X184460970Y-103086329D01*
X184469235Y-103109428D01*
X184475196Y-103133227D01*
X184478796Y-103157495D01*
X184480000Y-103181999D01*
X184480000Y-104082001D01*
X184478796Y-104106505D01*
X184475196Y-104130773D01*
X184469235Y-104154572D01*
X184460970Y-104177671D01*
X184450480Y-104199850D01*
X184437868Y-104220893D01*
X184423253Y-104240599D01*
X184406777Y-104258777D01*
X184388599Y-104275253D01*
X184368893Y-104289868D01*
X184347850Y-104302480D01*
X184325671Y-104312970D01*
X184302572Y-104321235D01*
X184278773Y-104327196D01*
X184254505Y-104330796D01*
X184230001Y-104332000D01*
X183579999Y-104332000D01*
X183555495Y-104330796D01*
X183531227Y-104327196D01*
X183507428Y-104321235D01*
X183484329Y-104312970D01*
X183462150Y-104302480D01*
X183441107Y-104289868D01*
X183421401Y-104275253D01*
X183403223Y-104258777D01*
X183386747Y-104240599D01*
X183372132Y-104220893D01*
X183359520Y-104199850D01*
X183349030Y-104177671D01*
X183340765Y-104154572D01*
X183334804Y-104130773D01*
X183331204Y-104106505D01*
X183330000Y-104082001D01*
X183330000Y-103181999D01*
X183331204Y-103157495D01*
X183334804Y-103133227D01*
X183340765Y-103109428D01*
X183349030Y-103086329D01*
X183359520Y-103064150D01*
X183372132Y-103043107D01*
X183386747Y-103023401D01*
X183403223Y-103005223D01*
X183421401Y-102988747D01*
X183441107Y-102974132D01*
X183462150Y-102961520D01*
X183484329Y-102951030D01*
X183507428Y-102942765D01*
X183531227Y-102936804D01*
X183555495Y-102933204D01*
X183579999Y-102932000D01*
X184230001Y-102932000D01*
X184254505Y-102933204D01*
X184254505Y-102933204D01*
G37*
D12*
X183905000Y-103632000D03*
D11*
G36*
X184263505Y-99123204D02*
X184287773Y-99126804D01*
X184311572Y-99132765D01*
X184334671Y-99141030D01*
X184356850Y-99151520D01*
X184377893Y-99164132D01*
X184397599Y-99178747D01*
X184415777Y-99195223D01*
X184432253Y-99213401D01*
X184446868Y-99233107D01*
X184459480Y-99254150D01*
X184469970Y-99276329D01*
X184478235Y-99299428D01*
X184484196Y-99323227D01*
X184487796Y-99347495D01*
X184489000Y-99371999D01*
X184489000Y-100272001D01*
X184487796Y-100296505D01*
X184484196Y-100320773D01*
X184478235Y-100344572D01*
X184469970Y-100367671D01*
X184459480Y-100389850D01*
X184446868Y-100410893D01*
X184432253Y-100430599D01*
X184415777Y-100448777D01*
X184397599Y-100465253D01*
X184377893Y-100479868D01*
X184356850Y-100492480D01*
X184334671Y-100502970D01*
X184311572Y-100511235D01*
X184287773Y-100517196D01*
X184263505Y-100520796D01*
X184239001Y-100522000D01*
X183588999Y-100522000D01*
X183564495Y-100520796D01*
X183540227Y-100517196D01*
X183516428Y-100511235D01*
X183493329Y-100502970D01*
X183471150Y-100492480D01*
X183450107Y-100479868D01*
X183430401Y-100465253D01*
X183412223Y-100448777D01*
X183395747Y-100430599D01*
X183381132Y-100410893D01*
X183368520Y-100389850D01*
X183358030Y-100367671D01*
X183349765Y-100344572D01*
X183343804Y-100320773D01*
X183340204Y-100296505D01*
X183339000Y-100272001D01*
X183339000Y-99371999D01*
X183340204Y-99347495D01*
X183343804Y-99323227D01*
X183349765Y-99299428D01*
X183358030Y-99276329D01*
X183368520Y-99254150D01*
X183381132Y-99233107D01*
X183395747Y-99213401D01*
X183412223Y-99195223D01*
X183430401Y-99178747D01*
X183450107Y-99164132D01*
X183471150Y-99151520D01*
X183493329Y-99141030D01*
X183516428Y-99132765D01*
X183540227Y-99126804D01*
X183564495Y-99123204D01*
X183588999Y-99122000D01*
X184239001Y-99122000D01*
X184263505Y-99123204D01*
X184263505Y-99123204D01*
G37*
D12*
X183914000Y-99822000D03*
D11*
G36*
X182213505Y-99123204D02*
X182237773Y-99126804D01*
X182261572Y-99132765D01*
X182284671Y-99141030D01*
X182306850Y-99151520D01*
X182327893Y-99164132D01*
X182347599Y-99178747D01*
X182365777Y-99195223D01*
X182382253Y-99213401D01*
X182396868Y-99233107D01*
X182409480Y-99254150D01*
X182419970Y-99276329D01*
X182428235Y-99299428D01*
X182434196Y-99323227D01*
X182437796Y-99347495D01*
X182439000Y-99371999D01*
X182439000Y-100272001D01*
X182437796Y-100296505D01*
X182434196Y-100320773D01*
X182428235Y-100344572D01*
X182419970Y-100367671D01*
X182409480Y-100389850D01*
X182396868Y-100410893D01*
X182382253Y-100430599D01*
X182365777Y-100448777D01*
X182347599Y-100465253D01*
X182327893Y-100479868D01*
X182306850Y-100492480D01*
X182284671Y-100502970D01*
X182261572Y-100511235D01*
X182237773Y-100517196D01*
X182213505Y-100520796D01*
X182189001Y-100522000D01*
X181538999Y-100522000D01*
X181514495Y-100520796D01*
X181490227Y-100517196D01*
X181466428Y-100511235D01*
X181443329Y-100502970D01*
X181421150Y-100492480D01*
X181400107Y-100479868D01*
X181380401Y-100465253D01*
X181362223Y-100448777D01*
X181345747Y-100430599D01*
X181331132Y-100410893D01*
X181318520Y-100389850D01*
X181308030Y-100367671D01*
X181299765Y-100344572D01*
X181293804Y-100320773D01*
X181290204Y-100296505D01*
X181289000Y-100272001D01*
X181289000Y-99371999D01*
X181290204Y-99347495D01*
X181293804Y-99323227D01*
X181299765Y-99299428D01*
X181308030Y-99276329D01*
X181318520Y-99254150D01*
X181331132Y-99233107D01*
X181345747Y-99213401D01*
X181362223Y-99195223D01*
X181380401Y-99178747D01*
X181400107Y-99164132D01*
X181421150Y-99151520D01*
X181443329Y-99141030D01*
X181466428Y-99132765D01*
X181490227Y-99126804D01*
X181514495Y-99123204D01*
X181538999Y-99122000D01*
X182189001Y-99122000D01*
X182213505Y-99123204D01*
X182213505Y-99123204D01*
G37*
D12*
X181864000Y-99822000D03*
D13*
X160048000Y-93776000D03*
X155448000Y-93776000D03*
X157748000Y-93776000D03*
D14*
X157748000Y-100076000D03*
D11*
G36*
X152874505Y-96962204D02*
X152898773Y-96965804D01*
X152922572Y-96971765D01*
X152945671Y-96980030D01*
X152967850Y-96990520D01*
X152988893Y-97003132D01*
X153008599Y-97017747D01*
X153026777Y-97034223D01*
X153043253Y-97052401D01*
X153057868Y-97072107D01*
X153070480Y-97093150D01*
X153080970Y-97115329D01*
X153089235Y-97138428D01*
X153095196Y-97162227D01*
X153098796Y-97186495D01*
X153100000Y-97210999D01*
X153100000Y-97861001D01*
X153098796Y-97885505D01*
X153095196Y-97909773D01*
X153089235Y-97933572D01*
X153080970Y-97956671D01*
X153070480Y-97978850D01*
X153057868Y-97999893D01*
X153043253Y-98019599D01*
X153026777Y-98037777D01*
X153008599Y-98054253D01*
X152988893Y-98068868D01*
X152967850Y-98081480D01*
X152945671Y-98091970D01*
X152922572Y-98100235D01*
X152898773Y-98106196D01*
X152874505Y-98109796D01*
X152850001Y-98111000D01*
X151949999Y-98111000D01*
X151925495Y-98109796D01*
X151901227Y-98106196D01*
X151877428Y-98100235D01*
X151854329Y-98091970D01*
X151832150Y-98081480D01*
X151811107Y-98068868D01*
X151791401Y-98054253D01*
X151773223Y-98037777D01*
X151756747Y-98019599D01*
X151742132Y-97999893D01*
X151729520Y-97978850D01*
X151719030Y-97956671D01*
X151710765Y-97933572D01*
X151704804Y-97909773D01*
X151701204Y-97885505D01*
X151700000Y-97861001D01*
X151700000Y-97210999D01*
X151701204Y-97186495D01*
X151704804Y-97162227D01*
X151710765Y-97138428D01*
X151719030Y-97115329D01*
X151729520Y-97093150D01*
X151742132Y-97072107D01*
X151756747Y-97052401D01*
X151773223Y-97034223D01*
X151791401Y-97017747D01*
X151811107Y-97003132D01*
X151832150Y-96990520D01*
X151854329Y-96980030D01*
X151877428Y-96971765D01*
X151901227Y-96965804D01*
X151925495Y-96962204D01*
X151949999Y-96961000D01*
X152850001Y-96961000D01*
X152874505Y-96962204D01*
X152874505Y-96962204D01*
G37*
D12*
X152400000Y-97536000D03*
D11*
G36*
X152874505Y-94912204D02*
X152898773Y-94915804D01*
X152922572Y-94921765D01*
X152945671Y-94930030D01*
X152967850Y-94940520D01*
X152988893Y-94953132D01*
X153008599Y-94967747D01*
X153026777Y-94984223D01*
X153043253Y-95002401D01*
X153057868Y-95022107D01*
X153070480Y-95043150D01*
X153080970Y-95065329D01*
X153089235Y-95088428D01*
X153095196Y-95112227D01*
X153098796Y-95136495D01*
X153100000Y-95160999D01*
X153100000Y-95811001D01*
X153098796Y-95835505D01*
X153095196Y-95859773D01*
X153089235Y-95883572D01*
X153080970Y-95906671D01*
X153070480Y-95928850D01*
X153057868Y-95949893D01*
X153043253Y-95969599D01*
X153026777Y-95987777D01*
X153008599Y-96004253D01*
X152988893Y-96018868D01*
X152967850Y-96031480D01*
X152945671Y-96041970D01*
X152922572Y-96050235D01*
X152898773Y-96056196D01*
X152874505Y-96059796D01*
X152850001Y-96061000D01*
X151949999Y-96061000D01*
X151925495Y-96059796D01*
X151901227Y-96056196D01*
X151877428Y-96050235D01*
X151854329Y-96041970D01*
X151832150Y-96031480D01*
X151811107Y-96018868D01*
X151791401Y-96004253D01*
X151773223Y-95987777D01*
X151756747Y-95969599D01*
X151742132Y-95949893D01*
X151729520Y-95928850D01*
X151719030Y-95906671D01*
X151710765Y-95883572D01*
X151704804Y-95859773D01*
X151701204Y-95835505D01*
X151700000Y-95811001D01*
X151700000Y-95160999D01*
X151701204Y-95136495D01*
X151704804Y-95112227D01*
X151710765Y-95088428D01*
X151719030Y-95065329D01*
X151729520Y-95043150D01*
X151742132Y-95022107D01*
X151756747Y-95002401D01*
X151773223Y-94984223D01*
X151791401Y-94967747D01*
X151811107Y-94953132D01*
X151832150Y-94940520D01*
X151854329Y-94930030D01*
X151877428Y-94921765D01*
X151901227Y-94915804D01*
X151925495Y-94912204D01*
X151949999Y-94911000D01*
X152850001Y-94911000D01*
X152874505Y-94912204D01*
X152874505Y-94912204D01*
G37*
D12*
X152400000Y-95486000D03*
D11*
G36*
X164050505Y-94948204D02*
X164074773Y-94951804D01*
X164098572Y-94957765D01*
X164121671Y-94966030D01*
X164143850Y-94976520D01*
X164164893Y-94989132D01*
X164184599Y-95003747D01*
X164202777Y-95020223D01*
X164219253Y-95038401D01*
X164233868Y-95058107D01*
X164246480Y-95079150D01*
X164256970Y-95101329D01*
X164265235Y-95124428D01*
X164271196Y-95148227D01*
X164274796Y-95172495D01*
X164276000Y-95196999D01*
X164276000Y-95847001D01*
X164274796Y-95871505D01*
X164271196Y-95895773D01*
X164265235Y-95919572D01*
X164256970Y-95942671D01*
X164246480Y-95964850D01*
X164233868Y-95985893D01*
X164219253Y-96005599D01*
X164202777Y-96023777D01*
X164184599Y-96040253D01*
X164164893Y-96054868D01*
X164143850Y-96067480D01*
X164121671Y-96077970D01*
X164098572Y-96086235D01*
X164074773Y-96092196D01*
X164050505Y-96095796D01*
X164026001Y-96097000D01*
X163125999Y-96097000D01*
X163101495Y-96095796D01*
X163077227Y-96092196D01*
X163053428Y-96086235D01*
X163030329Y-96077970D01*
X163008150Y-96067480D01*
X162987107Y-96054868D01*
X162967401Y-96040253D01*
X162949223Y-96023777D01*
X162932747Y-96005599D01*
X162918132Y-95985893D01*
X162905520Y-95964850D01*
X162895030Y-95942671D01*
X162886765Y-95919572D01*
X162880804Y-95895773D01*
X162877204Y-95871505D01*
X162876000Y-95847001D01*
X162876000Y-95196999D01*
X162877204Y-95172495D01*
X162880804Y-95148227D01*
X162886765Y-95124428D01*
X162895030Y-95101329D01*
X162905520Y-95079150D01*
X162918132Y-95058107D01*
X162932747Y-95038401D01*
X162949223Y-95020223D01*
X162967401Y-95003747D01*
X162987107Y-94989132D01*
X163008150Y-94976520D01*
X163030329Y-94966030D01*
X163053428Y-94957765D01*
X163077227Y-94951804D01*
X163101495Y-94948204D01*
X163125999Y-94947000D01*
X164026001Y-94947000D01*
X164050505Y-94948204D01*
X164050505Y-94948204D01*
G37*
D12*
X163576000Y-95522000D03*
D11*
G36*
X164050505Y-92898204D02*
X164074773Y-92901804D01*
X164098572Y-92907765D01*
X164121671Y-92916030D01*
X164143850Y-92926520D01*
X164164893Y-92939132D01*
X164184599Y-92953747D01*
X164202777Y-92970223D01*
X164219253Y-92988401D01*
X164233868Y-93008107D01*
X164246480Y-93029150D01*
X164256970Y-93051329D01*
X164265235Y-93074428D01*
X164271196Y-93098227D01*
X164274796Y-93122495D01*
X164276000Y-93146999D01*
X164276000Y-93797001D01*
X164274796Y-93821505D01*
X164271196Y-93845773D01*
X164265235Y-93869572D01*
X164256970Y-93892671D01*
X164246480Y-93914850D01*
X164233868Y-93935893D01*
X164219253Y-93955599D01*
X164202777Y-93973777D01*
X164184599Y-93990253D01*
X164164893Y-94004868D01*
X164143850Y-94017480D01*
X164121671Y-94027970D01*
X164098572Y-94036235D01*
X164074773Y-94042196D01*
X164050505Y-94045796D01*
X164026001Y-94047000D01*
X163125999Y-94047000D01*
X163101495Y-94045796D01*
X163077227Y-94042196D01*
X163053428Y-94036235D01*
X163030329Y-94027970D01*
X163008150Y-94017480D01*
X162987107Y-94004868D01*
X162967401Y-93990253D01*
X162949223Y-93973777D01*
X162932747Y-93955599D01*
X162918132Y-93935893D01*
X162905520Y-93914850D01*
X162895030Y-93892671D01*
X162886765Y-93869572D01*
X162880804Y-93845773D01*
X162877204Y-93821505D01*
X162876000Y-93797001D01*
X162876000Y-93146999D01*
X162877204Y-93122495D01*
X162880804Y-93098227D01*
X162886765Y-93074428D01*
X162895030Y-93051329D01*
X162905520Y-93029150D01*
X162918132Y-93008107D01*
X162932747Y-92988401D01*
X162949223Y-92970223D01*
X162967401Y-92953747D01*
X162987107Y-92939132D01*
X163008150Y-92926520D01*
X163030329Y-92916030D01*
X163053428Y-92907765D01*
X163077227Y-92901804D01*
X163101495Y-92898204D01*
X163125999Y-92897000D01*
X164026001Y-92897000D01*
X164050505Y-92898204D01*
X164050505Y-92898204D01*
G37*
D12*
X163576000Y-93472000D03*
D11*
G36*
X119346505Y-101534204D02*
X119370773Y-101537804D01*
X119394572Y-101543765D01*
X119417671Y-101552030D01*
X119439850Y-101562520D01*
X119460893Y-101575132D01*
X119480599Y-101589747D01*
X119498777Y-101606223D01*
X119515253Y-101624401D01*
X119529868Y-101644107D01*
X119542480Y-101665150D01*
X119552970Y-101687329D01*
X119561235Y-101710428D01*
X119567196Y-101734227D01*
X119570796Y-101758495D01*
X119572000Y-101782999D01*
X119572000Y-102433001D01*
X119570796Y-102457505D01*
X119567196Y-102481773D01*
X119561235Y-102505572D01*
X119552970Y-102528671D01*
X119542480Y-102550850D01*
X119529868Y-102571893D01*
X119515253Y-102591599D01*
X119498777Y-102609777D01*
X119480599Y-102626253D01*
X119460893Y-102640868D01*
X119439850Y-102653480D01*
X119417671Y-102663970D01*
X119394572Y-102672235D01*
X119370773Y-102678196D01*
X119346505Y-102681796D01*
X119322001Y-102683000D01*
X118421999Y-102683000D01*
X118397495Y-102681796D01*
X118373227Y-102678196D01*
X118349428Y-102672235D01*
X118326329Y-102663970D01*
X118304150Y-102653480D01*
X118283107Y-102640868D01*
X118263401Y-102626253D01*
X118245223Y-102609777D01*
X118228747Y-102591599D01*
X118214132Y-102571893D01*
X118201520Y-102550850D01*
X118191030Y-102528671D01*
X118182765Y-102505572D01*
X118176804Y-102481773D01*
X118173204Y-102457505D01*
X118172000Y-102433001D01*
X118172000Y-101782999D01*
X118173204Y-101758495D01*
X118176804Y-101734227D01*
X118182765Y-101710428D01*
X118191030Y-101687329D01*
X118201520Y-101665150D01*
X118214132Y-101644107D01*
X118228747Y-101624401D01*
X118245223Y-101606223D01*
X118263401Y-101589747D01*
X118283107Y-101575132D01*
X118304150Y-101562520D01*
X118326329Y-101552030D01*
X118349428Y-101543765D01*
X118373227Y-101537804D01*
X118397495Y-101534204D01*
X118421999Y-101533000D01*
X119322001Y-101533000D01*
X119346505Y-101534204D01*
X119346505Y-101534204D01*
G37*
D12*
X118872000Y-102108000D03*
D11*
G36*
X119346505Y-99484204D02*
X119370773Y-99487804D01*
X119394572Y-99493765D01*
X119417671Y-99502030D01*
X119439850Y-99512520D01*
X119460893Y-99525132D01*
X119480599Y-99539747D01*
X119498777Y-99556223D01*
X119515253Y-99574401D01*
X119529868Y-99594107D01*
X119542480Y-99615150D01*
X119552970Y-99637329D01*
X119561235Y-99660428D01*
X119567196Y-99684227D01*
X119570796Y-99708495D01*
X119572000Y-99732999D01*
X119572000Y-100383001D01*
X119570796Y-100407505D01*
X119567196Y-100431773D01*
X119561235Y-100455572D01*
X119552970Y-100478671D01*
X119542480Y-100500850D01*
X119529868Y-100521893D01*
X119515253Y-100541599D01*
X119498777Y-100559777D01*
X119480599Y-100576253D01*
X119460893Y-100590868D01*
X119439850Y-100603480D01*
X119417671Y-100613970D01*
X119394572Y-100622235D01*
X119370773Y-100628196D01*
X119346505Y-100631796D01*
X119322001Y-100633000D01*
X118421999Y-100633000D01*
X118397495Y-100631796D01*
X118373227Y-100628196D01*
X118349428Y-100622235D01*
X118326329Y-100613970D01*
X118304150Y-100603480D01*
X118283107Y-100590868D01*
X118263401Y-100576253D01*
X118245223Y-100559777D01*
X118228747Y-100541599D01*
X118214132Y-100521893D01*
X118201520Y-100500850D01*
X118191030Y-100478671D01*
X118182765Y-100455572D01*
X118176804Y-100431773D01*
X118173204Y-100407505D01*
X118172000Y-100383001D01*
X118172000Y-99732999D01*
X118173204Y-99708495D01*
X118176804Y-99684227D01*
X118182765Y-99660428D01*
X118191030Y-99637329D01*
X118201520Y-99615150D01*
X118214132Y-99594107D01*
X118228747Y-99574401D01*
X118245223Y-99556223D01*
X118263401Y-99539747D01*
X118283107Y-99525132D01*
X118304150Y-99512520D01*
X118326329Y-99502030D01*
X118349428Y-99493765D01*
X118373227Y-99487804D01*
X118397495Y-99484204D01*
X118421999Y-99483000D01*
X119322001Y-99483000D01*
X119346505Y-99484204D01*
X119346505Y-99484204D01*
G37*
D12*
X118872000Y-100058000D03*
D11*
G36*
X177632505Y-102933204D02*
X177656773Y-102936804D01*
X177680572Y-102942765D01*
X177703671Y-102951030D01*
X177725850Y-102961520D01*
X177746893Y-102974132D01*
X177766599Y-102988747D01*
X177784777Y-103005223D01*
X177801253Y-103023401D01*
X177815868Y-103043107D01*
X177828480Y-103064150D01*
X177838970Y-103086329D01*
X177847235Y-103109428D01*
X177853196Y-103133227D01*
X177856796Y-103157495D01*
X177858000Y-103181999D01*
X177858000Y-104082001D01*
X177856796Y-104106505D01*
X177853196Y-104130773D01*
X177847235Y-104154572D01*
X177838970Y-104177671D01*
X177828480Y-104199850D01*
X177815868Y-104220893D01*
X177801253Y-104240599D01*
X177784777Y-104258777D01*
X177766599Y-104275253D01*
X177746893Y-104289868D01*
X177725850Y-104302480D01*
X177703671Y-104312970D01*
X177680572Y-104321235D01*
X177656773Y-104327196D01*
X177632505Y-104330796D01*
X177608001Y-104332000D01*
X176957999Y-104332000D01*
X176933495Y-104330796D01*
X176909227Y-104327196D01*
X176885428Y-104321235D01*
X176862329Y-104312970D01*
X176840150Y-104302480D01*
X176819107Y-104289868D01*
X176799401Y-104275253D01*
X176781223Y-104258777D01*
X176764747Y-104240599D01*
X176750132Y-104220893D01*
X176737520Y-104199850D01*
X176727030Y-104177671D01*
X176718765Y-104154572D01*
X176712804Y-104130773D01*
X176709204Y-104106505D01*
X176708000Y-104082001D01*
X176708000Y-103181999D01*
X176709204Y-103157495D01*
X176712804Y-103133227D01*
X176718765Y-103109428D01*
X176727030Y-103086329D01*
X176737520Y-103064150D01*
X176750132Y-103043107D01*
X176764747Y-103023401D01*
X176781223Y-103005223D01*
X176799401Y-102988747D01*
X176819107Y-102974132D01*
X176840150Y-102961520D01*
X176862329Y-102951030D01*
X176885428Y-102942765D01*
X176909227Y-102936804D01*
X176933495Y-102933204D01*
X176957999Y-102932000D01*
X177608001Y-102932000D01*
X177632505Y-102933204D01*
X177632505Y-102933204D01*
G37*
D12*
X177283000Y-103632000D03*
D11*
G36*
X179682505Y-102933204D02*
X179706773Y-102936804D01*
X179730572Y-102942765D01*
X179753671Y-102951030D01*
X179775850Y-102961520D01*
X179796893Y-102974132D01*
X179816599Y-102988747D01*
X179834777Y-103005223D01*
X179851253Y-103023401D01*
X179865868Y-103043107D01*
X179878480Y-103064150D01*
X179888970Y-103086329D01*
X179897235Y-103109428D01*
X179903196Y-103133227D01*
X179906796Y-103157495D01*
X179908000Y-103181999D01*
X179908000Y-104082001D01*
X179906796Y-104106505D01*
X179903196Y-104130773D01*
X179897235Y-104154572D01*
X179888970Y-104177671D01*
X179878480Y-104199850D01*
X179865868Y-104220893D01*
X179851253Y-104240599D01*
X179834777Y-104258777D01*
X179816599Y-104275253D01*
X179796893Y-104289868D01*
X179775850Y-104302480D01*
X179753671Y-104312970D01*
X179730572Y-104321235D01*
X179706773Y-104327196D01*
X179682505Y-104330796D01*
X179658001Y-104332000D01*
X179007999Y-104332000D01*
X178983495Y-104330796D01*
X178959227Y-104327196D01*
X178935428Y-104321235D01*
X178912329Y-104312970D01*
X178890150Y-104302480D01*
X178869107Y-104289868D01*
X178849401Y-104275253D01*
X178831223Y-104258777D01*
X178814747Y-104240599D01*
X178800132Y-104220893D01*
X178787520Y-104199850D01*
X178777030Y-104177671D01*
X178768765Y-104154572D01*
X178762804Y-104130773D01*
X178759204Y-104106505D01*
X178758000Y-104082001D01*
X178758000Y-103181999D01*
X178759204Y-103157495D01*
X178762804Y-103133227D01*
X178768765Y-103109428D01*
X178777030Y-103086329D01*
X178787520Y-103064150D01*
X178800132Y-103043107D01*
X178814747Y-103023401D01*
X178831223Y-103005223D01*
X178849401Y-102988747D01*
X178869107Y-102974132D01*
X178890150Y-102961520D01*
X178912329Y-102951030D01*
X178935428Y-102942765D01*
X178959227Y-102936804D01*
X178983495Y-102933204D01*
X179007999Y-102932000D01*
X179658001Y-102932000D01*
X179682505Y-102933204D01*
X179682505Y-102933204D01*
G37*
D12*
X179333000Y-103632000D03*
D11*
G36*
X177641505Y-99123204D02*
X177665773Y-99126804D01*
X177689572Y-99132765D01*
X177712671Y-99141030D01*
X177734850Y-99151520D01*
X177755893Y-99164132D01*
X177775599Y-99178747D01*
X177793777Y-99195223D01*
X177810253Y-99213401D01*
X177824868Y-99233107D01*
X177837480Y-99254150D01*
X177847970Y-99276329D01*
X177856235Y-99299428D01*
X177862196Y-99323227D01*
X177865796Y-99347495D01*
X177867000Y-99371999D01*
X177867000Y-100272001D01*
X177865796Y-100296505D01*
X177862196Y-100320773D01*
X177856235Y-100344572D01*
X177847970Y-100367671D01*
X177837480Y-100389850D01*
X177824868Y-100410893D01*
X177810253Y-100430599D01*
X177793777Y-100448777D01*
X177775599Y-100465253D01*
X177755893Y-100479868D01*
X177734850Y-100492480D01*
X177712671Y-100502970D01*
X177689572Y-100511235D01*
X177665773Y-100517196D01*
X177641505Y-100520796D01*
X177617001Y-100522000D01*
X176966999Y-100522000D01*
X176942495Y-100520796D01*
X176918227Y-100517196D01*
X176894428Y-100511235D01*
X176871329Y-100502970D01*
X176849150Y-100492480D01*
X176828107Y-100479868D01*
X176808401Y-100465253D01*
X176790223Y-100448777D01*
X176773747Y-100430599D01*
X176759132Y-100410893D01*
X176746520Y-100389850D01*
X176736030Y-100367671D01*
X176727765Y-100344572D01*
X176721804Y-100320773D01*
X176718204Y-100296505D01*
X176717000Y-100272001D01*
X176717000Y-99371999D01*
X176718204Y-99347495D01*
X176721804Y-99323227D01*
X176727765Y-99299428D01*
X176736030Y-99276329D01*
X176746520Y-99254150D01*
X176759132Y-99233107D01*
X176773747Y-99213401D01*
X176790223Y-99195223D01*
X176808401Y-99178747D01*
X176828107Y-99164132D01*
X176849150Y-99151520D01*
X176871329Y-99141030D01*
X176894428Y-99132765D01*
X176918227Y-99126804D01*
X176942495Y-99123204D01*
X176966999Y-99122000D01*
X177617001Y-99122000D01*
X177641505Y-99123204D01*
X177641505Y-99123204D01*
G37*
D12*
X177292000Y-99822000D03*
D11*
G36*
X179691505Y-99123204D02*
X179715773Y-99126804D01*
X179739572Y-99132765D01*
X179762671Y-99141030D01*
X179784850Y-99151520D01*
X179805893Y-99164132D01*
X179825599Y-99178747D01*
X179843777Y-99195223D01*
X179860253Y-99213401D01*
X179874868Y-99233107D01*
X179887480Y-99254150D01*
X179897970Y-99276329D01*
X179906235Y-99299428D01*
X179912196Y-99323227D01*
X179915796Y-99347495D01*
X179917000Y-99371999D01*
X179917000Y-100272001D01*
X179915796Y-100296505D01*
X179912196Y-100320773D01*
X179906235Y-100344572D01*
X179897970Y-100367671D01*
X179887480Y-100389850D01*
X179874868Y-100410893D01*
X179860253Y-100430599D01*
X179843777Y-100448777D01*
X179825599Y-100465253D01*
X179805893Y-100479868D01*
X179784850Y-100492480D01*
X179762671Y-100502970D01*
X179739572Y-100511235D01*
X179715773Y-100517196D01*
X179691505Y-100520796D01*
X179667001Y-100522000D01*
X179016999Y-100522000D01*
X178992495Y-100520796D01*
X178968227Y-100517196D01*
X178944428Y-100511235D01*
X178921329Y-100502970D01*
X178899150Y-100492480D01*
X178878107Y-100479868D01*
X178858401Y-100465253D01*
X178840223Y-100448777D01*
X178823747Y-100430599D01*
X178809132Y-100410893D01*
X178796520Y-100389850D01*
X178786030Y-100367671D01*
X178777765Y-100344572D01*
X178771804Y-100320773D01*
X178768204Y-100296505D01*
X178767000Y-100272001D01*
X178767000Y-99371999D01*
X178768204Y-99347495D01*
X178771804Y-99323227D01*
X178777765Y-99299428D01*
X178786030Y-99276329D01*
X178796520Y-99254150D01*
X178809132Y-99233107D01*
X178823747Y-99213401D01*
X178840223Y-99195223D01*
X178858401Y-99178747D01*
X178878107Y-99164132D01*
X178899150Y-99151520D01*
X178921329Y-99141030D01*
X178944428Y-99132765D01*
X178968227Y-99126804D01*
X178992495Y-99123204D01*
X179016999Y-99122000D01*
X179667001Y-99122000D01*
X179691505Y-99123204D01*
X179691505Y-99123204D01*
G37*
D12*
X179342000Y-99822000D03*
D14*
X156972000Y-113996000D03*
D13*
X156972000Y-107696000D03*
X154672000Y-107696000D03*
X159272000Y-107696000D03*
D11*
G36*
X155917004Y-88534204D02*
X155941273Y-88537804D01*
X155965071Y-88543765D01*
X155988171Y-88552030D01*
X156010349Y-88562520D01*
X156031393Y-88575133D01*
X156051098Y-88589747D01*
X156069277Y-88606223D01*
X156085753Y-88624402D01*
X156100367Y-88644107D01*
X156112980Y-88665151D01*
X156123470Y-88687329D01*
X156131735Y-88710429D01*
X156137696Y-88734227D01*
X156141296Y-88758496D01*
X156142500Y-88783000D01*
X156142500Y-90033000D01*
X156141296Y-90057504D01*
X156137696Y-90081773D01*
X156131735Y-90105571D01*
X156123470Y-90128671D01*
X156112980Y-90150849D01*
X156100367Y-90171893D01*
X156085753Y-90191598D01*
X156069277Y-90209777D01*
X156051098Y-90226253D01*
X156031393Y-90240867D01*
X156010349Y-90253480D01*
X155988171Y-90263970D01*
X155965071Y-90272235D01*
X155941273Y-90278196D01*
X155917004Y-90281796D01*
X155892500Y-90283000D01*
X154967500Y-90283000D01*
X154942996Y-90281796D01*
X154918727Y-90278196D01*
X154894929Y-90272235D01*
X154871829Y-90263970D01*
X154849651Y-90253480D01*
X154828607Y-90240867D01*
X154808902Y-90226253D01*
X154790723Y-90209777D01*
X154774247Y-90191598D01*
X154759633Y-90171893D01*
X154747020Y-90150849D01*
X154736530Y-90128671D01*
X154728265Y-90105571D01*
X154722304Y-90081773D01*
X154718704Y-90057504D01*
X154717500Y-90033000D01*
X154717500Y-88783000D01*
X154718704Y-88758496D01*
X154722304Y-88734227D01*
X154728265Y-88710429D01*
X154736530Y-88687329D01*
X154747020Y-88665151D01*
X154759633Y-88644107D01*
X154774247Y-88624402D01*
X154790723Y-88606223D01*
X154808902Y-88589747D01*
X154828607Y-88575133D01*
X154849651Y-88562520D01*
X154871829Y-88552030D01*
X154894929Y-88543765D01*
X154918727Y-88537804D01*
X154942996Y-88534204D01*
X154967500Y-88533000D01*
X155892500Y-88533000D01*
X155917004Y-88534204D01*
X155917004Y-88534204D01*
G37*
D15*
X155430000Y-89408000D03*
D11*
G36*
X158892004Y-88534204D02*
X158916273Y-88537804D01*
X158940071Y-88543765D01*
X158963171Y-88552030D01*
X158985349Y-88562520D01*
X159006393Y-88575133D01*
X159026098Y-88589747D01*
X159044277Y-88606223D01*
X159060753Y-88624402D01*
X159075367Y-88644107D01*
X159087980Y-88665151D01*
X159098470Y-88687329D01*
X159106735Y-88710429D01*
X159112696Y-88734227D01*
X159116296Y-88758496D01*
X159117500Y-88783000D01*
X159117500Y-90033000D01*
X159116296Y-90057504D01*
X159112696Y-90081773D01*
X159106735Y-90105571D01*
X159098470Y-90128671D01*
X159087980Y-90150849D01*
X159075367Y-90171893D01*
X159060753Y-90191598D01*
X159044277Y-90209777D01*
X159026098Y-90226253D01*
X159006393Y-90240867D01*
X158985349Y-90253480D01*
X158963171Y-90263970D01*
X158940071Y-90272235D01*
X158916273Y-90278196D01*
X158892004Y-90281796D01*
X158867500Y-90283000D01*
X157942500Y-90283000D01*
X157917996Y-90281796D01*
X157893727Y-90278196D01*
X157869929Y-90272235D01*
X157846829Y-90263970D01*
X157824651Y-90253480D01*
X157803607Y-90240867D01*
X157783902Y-90226253D01*
X157765723Y-90209777D01*
X157749247Y-90191598D01*
X157734633Y-90171893D01*
X157722020Y-90150849D01*
X157711530Y-90128671D01*
X157703265Y-90105571D01*
X157697304Y-90081773D01*
X157693704Y-90057504D01*
X157692500Y-90033000D01*
X157692500Y-88783000D01*
X157693704Y-88758496D01*
X157697304Y-88734227D01*
X157703265Y-88710429D01*
X157711530Y-88687329D01*
X157722020Y-88665151D01*
X157734633Y-88644107D01*
X157749247Y-88624402D01*
X157765723Y-88606223D01*
X157783902Y-88589747D01*
X157803607Y-88575133D01*
X157824651Y-88562520D01*
X157846829Y-88552030D01*
X157869929Y-88543765D01*
X157893727Y-88537804D01*
X157917996Y-88534204D01*
X157942500Y-88533000D01*
X158867500Y-88533000D01*
X158892004Y-88534204D01*
X158892004Y-88534204D01*
G37*
D15*
X158405000Y-89408000D03*
D11*
G36*
X124673504Y-90737204D02*
X124697773Y-90740804D01*
X124721571Y-90746765D01*
X124744671Y-90755030D01*
X124766849Y-90765520D01*
X124787893Y-90778133D01*
X124807598Y-90792747D01*
X124825777Y-90809223D01*
X124842253Y-90827402D01*
X124856867Y-90847107D01*
X124869480Y-90868151D01*
X124879970Y-90890329D01*
X124888235Y-90913429D01*
X124894196Y-90937227D01*
X124897796Y-90961496D01*
X124899000Y-90986000D01*
X124899000Y-92586000D01*
X124897796Y-92610504D01*
X124894196Y-92634773D01*
X124888235Y-92658571D01*
X124879970Y-92681671D01*
X124869480Y-92703849D01*
X124856867Y-92724893D01*
X124842253Y-92744598D01*
X124825777Y-92762777D01*
X124807598Y-92779253D01*
X124787893Y-92793867D01*
X124766849Y-92806480D01*
X124744671Y-92816970D01*
X124721571Y-92825235D01*
X124697773Y-92831196D01*
X124673504Y-92834796D01*
X124649000Y-92836000D01*
X119699000Y-92836000D01*
X119674496Y-92834796D01*
X119650227Y-92831196D01*
X119626429Y-92825235D01*
X119603329Y-92816970D01*
X119581151Y-92806480D01*
X119560107Y-92793867D01*
X119540402Y-92779253D01*
X119522223Y-92762777D01*
X119505747Y-92744598D01*
X119491133Y-92724893D01*
X119478520Y-92703849D01*
X119468030Y-92681671D01*
X119459765Y-92658571D01*
X119453804Y-92634773D01*
X119450204Y-92610504D01*
X119449000Y-92586000D01*
X119449000Y-90986000D01*
X119450204Y-90961496D01*
X119453804Y-90937227D01*
X119459765Y-90913429D01*
X119468030Y-90890329D01*
X119478520Y-90868151D01*
X119491133Y-90847107D01*
X119505747Y-90827402D01*
X119522223Y-90809223D01*
X119540402Y-90792747D01*
X119560107Y-90778133D01*
X119581151Y-90765520D01*
X119603329Y-90755030D01*
X119626429Y-90746765D01*
X119650227Y-90740804D01*
X119674496Y-90737204D01*
X119699000Y-90736000D01*
X124649000Y-90736000D01*
X124673504Y-90737204D01*
X124673504Y-90737204D01*
G37*
D16*
X122174000Y-91786000D03*
D11*
G36*
X124673504Y-83787204D02*
X124697773Y-83790804D01*
X124721571Y-83796765D01*
X124744671Y-83805030D01*
X124766849Y-83815520D01*
X124787893Y-83828133D01*
X124807598Y-83842747D01*
X124825777Y-83859223D01*
X124842253Y-83877402D01*
X124856867Y-83897107D01*
X124869480Y-83918151D01*
X124879970Y-83940329D01*
X124888235Y-83963429D01*
X124894196Y-83987227D01*
X124897796Y-84011496D01*
X124899000Y-84036000D01*
X124899000Y-85636000D01*
X124897796Y-85660504D01*
X124894196Y-85684773D01*
X124888235Y-85708571D01*
X124879970Y-85731671D01*
X124869480Y-85753849D01*
X124856867Y-85774893D01*
X124842253Y-85794598D01*
X124825777Y-85812777D01*
X124807598Y-85829253D01*
X124787893Y-85843867D01*
X124766849Y-85856480D01*
X124744671Y-85866970D01*
X124721571Y-85875235D01*
X124697773Y-85881196D01*
X124673504Y-85884796D01*
X124649000Y-85886000D01*
X119699000Y-85886000D01*
X119674496Y-85884796D01*
X119650227Y-85881196D01*
X119626429Y-85875235D01*
X119603329Y-85866970D01*
X119581151Y-85856480D01*
X119560107Y-85843867D01*
X119540402Y-85829253D01*
X119522223Y-85812777D01*
X119505747Y-85794598D01*
X119491133Y-85774893D01*
X119478520Y-85753849D01*
X119468030Y-85731671D01*
X119459765Y-85708571D01*
X119453804Y-85684773D01*
X119450204Y-85660504D01*
X119449000Y-85636000D01*
X119449000Y-84036000D01*
X119450204Y-84011496D01*
X119453804Y-83987227D01*
X119459765Y-83963429D01*
X119468030Y-83940329D01*
X119478520Y-83918151D01*
X119491133Y-83897107D01*
X119505747Y-83877402D01*
X119522223Y-83859223D01*
X119540402Y-83842747D01*
X119560107Y-83828133D01*
X119581151Y-83815520D01*
X119603329Y-83805030D01*
X119626429Y-83796765D01*
X119650227Y-83790804D01*
X119674496Y-83787204D01*
X119699000Y-83786000D01*
X124649000Y-83786000D01*
X124673504Y-83787204D01*
X124673504Y-83787204D01*
G37*
D16*
X122174000Y-84836000D03*
M02*
