%TF.GenerationSoftware,KiCad,Pcbnew,5.0.2+dfsg1-1*%
%TF.CreationDate,2022-03-26T23:48:49+09:00*%
%TF.ProjectId,pwm-esc,70776d2d-6573-4632-9e6b-696361645f70,rev?*%
%TF.SameCoordinates,Original*%
%TF.FileFunction,Copper,L2,Bot*%
%TF.FilePolarity,Positive*%
%FSLAX46Y46*%
G04 Gerber Fmt 4.6, Leading zero omitted, Abs format (unit mm)*
G04 Created by KiCad (PCBNEW 5.0.2+dfsg1-1) date Sat 26 Mar 2022 11:48:49 PM JST*
%MOMM*%
%LPD*%
G01*
G04 APERTURE LIST*
%ADD10C,0.150000*%
%ADD11C,2.400000*%
%ADD12R,2.400000X2.400000*%
%ADD13R,1.600000X1.600000*%
%ADD14C,1.600000*%
%ADD15O,2.000000X1.700000*%
%ADD16C,0.100000*%
%ADD17C,1.700000*%
%ADD18C,1.440000*%
%ADD19C,2.000000*%
%ADD20O,1.600000X1.600000*%
%ADD21C,1.524000*%
%ADD22C,6.000000*%
%ADD23C,0.800000*%
%ADD24C,2.000000*%
%ADD25C,0.250000*%
%ADD26C,0.254000*%
G04 APERTURE END LIST*
D10*
X109728000Y-121920000D02*
X109728000Y-81788000D01*
X184912000Y-121920000D02*
X109728000Y-121920000D01*
X184912000Y-81788000D02*
X184912000Y-121920000D01*
X109728000Y-81788000D02*
X184912000Y-81788000D01*
D11*
X176784000Y-93860000D03*
D12*
X176784000Y-86360000D03*
D13*
X169982000Y-101854000D03*
D14*
X173482000Y-101854000D03*
D12*
X176784000Y-117348000D03*
D11*
X176784000Y-109848000D03*
D15*
X112776000Y-84836000D03*
D16*
G36*
X113550504Y-86487204D02*
X113574773Y-86490804D01*
X113598571Y-86496765D01*
X113621671Y-86505030D01*
X113643849Y-86515520D01*
X113664893Y-86528133D01*
X113684598Y-86542747D01*
X113702777Y-86559223D01*
X113719253Y-86577402D01*
X113733867Y-86597107D01*
X113746480Y-86618151D01*
X113756970Y-86640329D01*
X113765235Y-86663429D01*
X113771196Y-86687227D01*
X113774796Y-86711496D01*
X113776000Y-86736000D01*
X113776000Y-87936000D01*
X113774796Y-87960504D01*
X113771196Y-87984773D01*
X113765235Y-88008571D01*
X113756970Y-88031671D01*
X113746480Y-88053849D01*
X113733867Y-88074893D01*
X113719253Y-88094598D01*
X113702777Y-88112777D01*
X113684598Y-88129253D01*
X113664893Y-88143867D01*
X113643849Y-88156480D01*
X113621671Y-88166970D01*
X113598571Y-88175235D01*
X113574773Y-88181196D01*
X113550504Y-88184796D01*
X113526000Y-88186000D01*
X112026000Y-88186000D01*
X112001496Y-88184796D01*
X111977227Y-88181196D01*
X111953429Y-88175235D01*
X111930329Y-88166970D01*
X111908151Y-88156480D01*
X111887107Y-88143867D01*
X111867402Y-88129253D01*
X111849223Y-88112777D01*
X111832747Y-88094598D01*
X111818133Y-88074893D01*
X111805520Y-88053849D01*
X111795030Y-88031671D01*
X111786765Y-88008571D01*
X111780804Y-87984773D01*
X111777204Y-87960504D01*
X111776000Y-87936000D01*
X111776000Y-86736000D01*
X111777204Y-86711496D01*
X111780804Y-86687227D01*
X111786765Y-86663429D01*
X111795030Y-86640329D01*
X111805520Y-86618151D01*
X111818133Y-86597107D01*
X111832747Y-86577402D01*
X111849223Y-86559223D01*
X111867402Y-86542747D01*
X111887107Y-86528133D01*
X111908151Y-86515520D01*
X111930329Y-86505030D01*
X111953429Y-86496765D01*
X111977227Y-86490804D01*
X112001496Y-86487204D01*
X112026000Y-86486000D01*
X113526000Y-86486000D01*
X113550504Y-86487204D01*
X113550504Y-86487204D01*
G37*
D17*
X112776000Y-87336000D03*
D16*
G36*
X113550504Y-106807204D02*
X113574773Y-106810804D01*
X113598571Y-106816765D01*
X113621671Y-106825030D01*
X113643849Y-106835520D01*
X113664893Y-106848133D01*
X113684598Y-106862747D01*
X113702777Y-106879223D01*
X113719253Y-106897402D01*
X113733867Y-106917107D01*
X113746480Y-106938151D01*
X113756970Y-106960329D01*
X113765235Y-106983429D01*
X113771196Y-107007227D01*
X113774796Y-107031496D01*
X113776000Y-107056000D01*
X113776000Y-108256000D01*
X113774796Y-108280504D01*
X113771196Y-108304773D01*
X113765235Y-108328571D01*
X113756970Y-108351671D01*
X113746480Y-108373849D01*
X113733867Y-108394893D01*
X113719253Y-108414598D01*
X113702777Y-108432777D01*
X113684598Y-108449253D01*
X113664893Y-108463867D01*
X113643849Y-108476480D01*
X113621671Y-108486970D01*
X113598571Y-108495235D01*
X113574773Y-108501196D01*
X113550504Y-108504796D01*
X113526000Y-108506000D01*
X112026000Y-108506000D01*
X112001496Y-108504796D01*
X111977227Y-108501196D01*
X111953429Y-108495235D01*
X111930329Y-108486970D01*
X111908151Y-108476480D01*
X111887107Y-108463867D01*
X111867402Y-108449253D01*
X111849223Y-108432777D01*
X111832747Y-108414598D01*
X111818133Y-108394893D01*
X111805520Y-108373849D01*
X111795030Y-108351671D01*
X111786765Y-108328571D01*
X111780804Y-108304773D01*
X111777204Y-108280504D01*
X111776000Y-108256000D01*
X111776000Y-107056000D01*
X111777204Y-107031496D01*
X111780804Y-107007227D01*
X111786765Y-106983429D01*
X111795030Y-106960329D01*
X111805520Y-106938151D01*
X111818133Y-106917107D01*
X111832747Y-106897402D01*
X111849223Y-106879223D01*
X111867402Y-106862747D01*
X111887107Y-106848133D01*
X111908151Y-106835520D01*
X111930329Y-106825030D01*
X111953429Y-106816765D01*
X111977227Y-106810804D01*
X112001496Y-106807204D01*
X112026000Y-106806000D01*
X113526000Y-106806000D01*
X113550504Y-106807204D01*
X113550504Y-106807204D01*
G37*
D17*
X112776000Y-107656000D03*
D15*
X112776000Y-105156000D03*
D16*
G36*
X113550504Y-96647204D02*
X113574773Y-96650804D01*
X113598571Y-96656765D01*
X113621671Y-96665030D01*
X113643849Y-96675520D01*
X113664893Y-96688133D01*
X113684598Y-96702747D01*
X113702777Y-96719223D01*
X113719253Y-96737402D01*
X113733867Y-96757107D01*
X113746480Y-96778151D01*
X113756970Y-96800329D01*
X113765235Y-96823429D01*
X113771196Y-96847227D01*
X113774796Y-96871496D01*
X113776000Y-96896000D01*
X113776000Y-98096000D01*
X113774796Y-98120504D01*
X113771196Y-98144773D01*
X113765235Y-98168571D01*
X113756970Y-98191671D01*
X113746480Y-98213849D01*
X113733867Y-98234893D01*
X113719253Y-98254598D01*
X113702777Y-98272777D01*
X113684598Y-98289253D01*
X113664893Y-98303867D01*
X113643849Y-98316480D01*
X113621671Y-98326970D01*
X113598571Y-98335235D01*
X113574773Y-98341196D01*
X113550504Y-98344796D01*
X113526000Y-98346000D01*
X112026000Y-98346000D01*
X112001496Y-98344796D01*
X111977227Y-98341196D01*
X111953429Y-98335235D01*
X111930329Y-98326970D01*
X111908151Y-98316480D01*
X111887107Y-98303867D01*
X111867402Y-98289253D01*
X111849223Y-98272777D01*
X111832747Y-98254598D01*
X111818133Y-98234893D01*
X111805520Y-98213849D01*
X111795030Y-98191671D01*
X111786765Y-98168571D01*
X111780804Y-98144773D01*
X111777204Y-98120504D01*
X111776000Y-98096000D01*
X111776000Y-96896000D01*
X111777204Y-96871496D01*
X111780804Y-96847227D01*
X111786765Y-96823429D01*
X111795030Y-96800329D01*
X111805520Y-96778151D01*
X111818133Y-96757107D01*
X111832747Y-96737402D01*
X111849223Y-96719223D01*
X111867402Y-96702747D01*
X111887107Y-96688133D01*
X111908151Y-96675520D01*
X111930329Y-96665030D01*
X111953429Y-96656765D01*
X111977227Y-96650804D01*
X112001496Y-96647204D01*
X112026000Y-96646000D01*
X113526000Y-96646000D01*
X113550504Y-96647204D01*
X113550504Y-96647204D01*
G37*
D17*
X112776000Y-97496000D03*
D15*
X112776000Y-94996000D03*
D18*
X122428000Y-120396000D03*
X124968000Y-117856000D03*
X122428000Y-115316000D03*
X122428000Y-106172000D03*
X124968000Y-108712000D03*
X122428000Y-111252000D03*
D19*
X111760000Y-113792000D03*
X116260000Y-113792000D03*
X111760000Y-120292000D03*
X116260000Y-120292000D03*
D13*
X130048000Y-92456000D03*
D20*
X137668000Y-100076000D03*
X130048000Y-94996000D03*
X137668000Y-97536000D03*
X130048000Y-97536000D03*
X137668000Y-94996000D03*
X130048000Y-100076000D03*
X137668000Y-92456000D03*
X149860000Y-92456000D03*
X142240000Y-100076000D03*
X149860000Y-94996000D03*
X142240000Y-97536000D03*
X149860000Y-97536000D03*
X142240000Y-94996000D03*
X149860000Y-100076000D03*
D13*
X142240000Y-92456000D03*
D21*
X132080000Y-105156000D03*
X132080000Y-107696000D03*
X132080000Y-110236000D03*
X132080000Y-112776000D03*
D22*
X162810000Y-117856000D03*
X130810000Y-85856000D03*
X162810000Y-85856000D03*
X130810000Y-117856000D03*
D21*
X139190000Y-84076000D03*
X141730000Y-84076000D03*
X144270000Y-84076000D03*
X146810000Y-84076000D03*
X149350000Y-84076000D03*
X151890000Y-84076000D03*
X154430000Y-84076000D03*
X139190000Y-119636000D03*
X141730000Y-119636000D03*
X144270000Y-119636000D03*
X146810000Y-119636000D03*
X149350000Y-119636000D03*
X151890000Y-119636000D03*
X154430000Y-119636000D03*
D23*
X117094000Y-101092000D03*
X157734000Y-91694000D03*
X149860000Y-90170000D03*
D19*
X122174000Y-95377000D03*
D23*
X149860000Y-105410000D03*
X155956000Y-105410000D03*
X161544000Y-105410000D03*
D24*
X132080000Y-107696000D02*
X150876000Y-107696000D01*
X172212000Y-86360000D02*
X176784000Y-86360000D01*
X150876000Y-107696000D02*
X172212000Y-86360000D01*
X122174000Y-95942685D02*
X122174000Y-95377000D01*
X122174000Y-98867630D02*
X122174000Y-95942685D01*
X131002370Y-107696000D02*
X122174000Y-98867630D01*
X132080000Y-107696000D02*
X131002370Y-107696000D01*
D25*
X121793000Y-94996000D02*
X122174000Y-95377000D01*
X112776000Y-94996000D02*
X118618000Y-94996000D01*
X118999000Y-95377000D02*
X122174000Y-95377000D01*
X118618000Y-94996000D02*
X118999000Y-95377000D01*
D24*
X139190000Y-119636000D02*
X139190000Y-117854000D01*
X134112000Y-112776000D02*
X132080000Y-112776000D01*
X139190000Y-117854000D02*
X134112000Y-112776000D01*
X139190000Y-119636000D02*
X149350000Y-119636000D01*
X149350000Y-118558370D02*
X155386370Y-112522000D01*
X149350000Y-119636000D02*
X149350000Y-118558370D01*
X173584000Y-117348000D02*
X176784000Y-117348000D01*
X168758000Y-112522000D02*
X173584000Y-117348000D01*
X155386370Y-112522000D02*
X168758000Y-112522000D01*
D25*
X149860000Y-100076000D02*
X149860000Y-105410000D01*
X155956000Y-105410000D02*
X161544000Y-105410000D01*
X149060001Y-95795999D02*
X149860000Y-94996000D01*
X138793001Y-96410999D02*
X148445001Y-96410999D01*
X148445001Y-96410999D02*
X149060001Y-95795999D01*
X137668000Y-97536000D02*
X138793001Y-96410999D01*
D26*
G36*
X128750938Y-82774396D02*
X127728396Y-83796938D01*
X127175000Y-85132954D01*
X127175000Y-86579046D01*
X127728396Y-87915062D01*
X128750938Y-88937604D01*
X130086954Y-89491000D01*
X131533046Y-89491000D01*
X132869062Y-88937604D01*
X133891604Y-87915062D01*
X134445000Y-86579046D01*
X134445000Y-85132954D01*
X134413213Y-85056213D01*
X138389392Y-85056213D01*
X138458857Y-85298397D01*
X138982302Y-85485144D01*
X139537368Y-85457362D01*
X139921143Y-85298397D01*
X139990608Y-85056213D01*
X140929392Y-85056213D01*
X140998857Y-85298397D01*
X141522302Y-85485144D01*
X142077368Y-85457362D01*
X142461143Y-85298397D01*
X142530608Y-85056213D01*
X143469392Y-85056213D01*
X143538857Y-85298397D01*
X144062302Y-85485144D01*
X144617368Y-85457362D01*
X145001143Y-85298397D01*
X145070608Y-85056213D01*
X146009392Y-85056213D01*
X146078857Y-85298397D01*
X146602302Y-85485144D01*
X147157368Y-85457362D01*
X147541143Y-85298397D01*
X147610608Y-85056213D01*
X148549392Y-85056213D01*
X148618857Y-85298397D01*
X149142302Y-85485144D01*
X149697368Y-85457362D01*
X150081143Y-85298397D01*
X150150608Y-85056213D01*
X149350000Y-84255605D01*
X148549392Y-85056213D01*
X147610608Y-85056213D01*
X146810000Y-84255605D01*
X146009392Y-85056213D01*
X145070608Y-85056213D01*
X144270000Y-84255605D01*
X143469392Y-85056213D01*
X142530608Y-85056213D01*
X141730000Y-84255605D01*
X140929392Y-85056213D01*
X139990608Y-85056213D01*
X139190000Y-84255605D01*
X138389392Y-85056213D01*
X134413213Y-85056213D01*
X133921164Y-83868302D01*
X137780856Y-83868302D01*
X137808638Y-84423368D01*
X137967603Y-84807143D01*
X138209787Y-84876608D01*
X139010395Y-84076000D01*
X139369605Y-84076000D01*
X140170213Y-84876608D01*
X140412397Y-84807143D01*
X140456453Y-84683656D01*
X140507603Y-84807143D01*
X140749787Y-84876608D01*
X141550395Y-84076000D01*
X141909605Y-84076000D01*
X142710213Y-84876608D01*
X142952397Y-84807143D01*
X142996453Y-84683656D01*
X143047603Y-84807143D01*
X143289787Y-84876608D01*
X144090395Y-84076000D01*
X144449605Y-84076000D01*
X145250213Y-84876608D01*
X145492397Y-84807143D01*
X145536453Y-84683656D01*
X145587603Y-84807143D01*
X145829787Y-84876608D01*
X146630395Y-84076000D01*
X146989605Y-84076000D01*
X147790213Y-84876608D01*
X148032397Y-84807143D01*
X148076453Y-84683656D01*
X148127603Y-84807143D01*
X148369787Y-84876608D01*
X149170395Y-84076000D01*
X149529605Y-84076000D01*
X150330213Y-84876608D01*
X150572397Y-84807143D01*
X150622535Y-84666607D01*
X150705680Y-84867337D01*
X151098663Y-85260320D01*
X151612119Y-85473000D01*
X152167881Y-85473000D01*
X152681337Y-85260320D01*
X152885444Y-85056213D01*
X153629392Y-85056213D01*
X153698857Y-85298397D01*
X154222302Y-85485144D01*
X154777368Y-85457362D01*
X155161143Y-85298397D01*
X155230608Y-85056213D01*
X154430000Y-84255605D01*
X153629392Y-85056213D01*
X152885444Y-85056213D01*
X153074320Y-84867337D01*
X153153428Y-84676353D01*
X153207603Y-84807143D01*
X153449787Y-84876608D01*
X154250395Y-84076000D01*
X154609605Y-84076000D01*
X155410213Y-84876608D01*
X155652397Y-84807143D01*
X155839144Y-84283698D01*
X155811362Y-83728632D01*
X155652397Y-83344857D01*
X155410213Y-83275392D01*
X154609605Y-84076000D01*
X154250395Y-84076000D01*
X153449787Y-83275392D01*
X153207603Y-83344857D01*
X153157465Y-83485393D01*
X153074320Y-83284663D01*
X152885444Y-83095787D01*
X153629392Y-83095787D01*
X154430000Y-83896395D01*
X155230608Y-83095787D01*
X155161143Y-82853603D01*
X154637698Y-82666856D01*
X154082632Y-82694638D01*
X153698857Y-82853603D01*
X153629392Y-83095787D01*
X152885444Y-83095787D01*
X152681337Y-82891680D01*
X152167881Y-82679000D01*
X151612119Y-82679000D01*
X151098663Y-82891680D01*
X150705680Y-83284663D01*
X150626572Y-83475647D01*
X150572397Y-83344857D01*
X150330213Y-83275392D01*
X149529605Y-84076000D01*
X149170395Y-84076000D01*
X148369787Y-83275392D01*
X148127603Y-83344857D01*
X148083547Y-83468344D01*
X148032397Y-83344857D01*
X147790213Y-83275392D01*
X146989605Y-84076000D01*
X146630395Y-84076000D01*
X145829787Y-83275392D01*
X145587603Y-83344857D01*
X145543547Y-83468344D01*
X145492397Y-83344857D01*
X145250213Y-83275392D01*
X144449605Y-84076000D01*
X144090395Y-84076000D01*
X143289787Y-83275392D01*
X143047603Y-83344857D01*
X143003547Y-83468344D01*
X142952397Y-83344857D01*
X142710213Y-83275392D01*
X141909605Y-84076000D01*
X141550395Y-84076000D01*
X140749787Y-83275392D01*
X140507603Y-83344857D01*
X140463547Y-83468344D01*
X140412397Y-83344857D01*
X140170213Y-83275392D01*
X139369605Y-84076000D01*
X139010395Y-84076000D01*
X138209787Y-83275392D01*
X137967603Y-83344857D01*
X137780856Y-83868302D01*
X133921164Y-83868302D01*
X133891604Y-83796938D01*
X133190453Y-83095787D01*
X138389392Y-83095787D01*
X139190000Y-83896395D01*
X139990608Y-83095787D01*
X140929392Y-83095787D01*
X141730000Y-83896395D01*
X142530608Y-83095787D01*
X143469392Y-83095787D01*
X144270000Y-83896395D01*
X145070608Y-83095787D01*
X146009392Y-83095787D01*
X146810000Y-83896395D01*
X147610608Y-83095787D01*
X148549392Y-83095787D01*
X149350000Y-83896395D01*
X150150608Y-83095787D01*
X150081143Y-82853603D01*
X149557698Y-82666856D01*
X149002632Y-82694638D01*
X148618857Y-82853603D01*
X148549392Y-83095787D01*
X147610608Y-83095787D01*
X147541143Y-82853603D01*
X147017698Y-82666856D01*
X146462632Y-82694638D01*
X146078857Y-82853603D01*
X146009392Y-83095787D01*
X145070608Y-83095787D01*
X145001143Y-82853603D01*
X144477698Y-82666856D01*
X143922632Y-82694638D01*
X143538857Y-82853603D01*
X143469392Y-83095787D01*
X142530608Y-83095787D01*
X142461143Y-82853603D01*
X141937698Y-82666856D01*
X141382632Y-82694638D01*
X140998857Y-82853603D01*
X140929392Y-83095787D01*
X139990608Y-83095787D01*
X139921143Y-82853603D01*
X139397698Y-82666856D01*
X138842632Y-82694638D01*
X138458857Y-82853603D01*
X138389392Y-83095787D01*
X133190453Y-83095787D01*
X132869062Y-82774396D01*
X132201783Y-82498000D01*
X161418217Y-82498000D01*
X160750938Y-82774396D01*
X159728396Y-83796938D01*
X159175000Y-85132954D01*
X159175000Y-86579046D01*
X159728396Y-87915062D01*
X160750938Y-88937604D01*
X162086954Y-89491000D01*
X163533046Y-89491000D01*
X164869062Y-88937604D01*
X165891604Y-87915062D01*
X166445000Y-86579046D01*
X166445000Y-85132954D01*
X165891604Y-83796938D01*
X164869062Y-82774396D01*
X164201783Y-82498000D01*
X184202000Y-82498000D01*
X184202001Y-121210000D01*
X164211440Y-121210000D01*
X164869062Y-120937604D01*
X165891604Y-119915062D01*
X166445000Y-118579046D01*
X166445000Y-117132954D01*
X165891604Y-115796938D01*
X164869062Y-114774396D01*
X163533046Y-114221000D01*
X162086954Y-114221000D01*
X160750938Y-114774396D01*
X159728396Y-115796938D01*
X159175000Y-117132954D01*
X159175000Y-118579046D01*
X159728396Y-119915062D01*
X160750938Y-120937604D01*
X161408560Y-121210000D01*
X149817699Y-121210000D01*
X149987945Y-121176136D01*
X150528769Y-120814769D01*
X150754813Y-120476470D01*
X151098663Y-120820320D01*
X151612119Y-121033000D01*
X152167881Y-121033000D01*
X152681337Y-120820320D01*
X153074320Y-120427337D01*
X153160000Y-120220487D01*
X153245680Y-120427337D01*
X153638663Y-120820320D01*
X154152119Y-121033000D01*
X154707881Y-121033000D01*
X155221337Y-120820320D01*
X155614320Y-120427337D01*
X155827000Y-119913881D01*
X155827000Y-119358119D01*
X155614320Y-118844663D01*
X155221337Y-118451680D01*
X154707881Y-118239000D01*
X154152119Y-118239000D01*
X153638663Y-118451680D01*
X153245680Y-118844663D01*
X153160000Y-119051513D01*
X153074320Y-118844663D01*
X152681337Y-118451680D01*
X152167881Y-118239000D01*
X151981608Y-118239000D01*
X156063609Y-114157000D01*
X168080762Y-114157000D01*
X172314014Y-118390253D01*
X172405231Y-118526769D01*
X172619807Y-118670144D01*
X172946054Y-118888136D01*
X173584000Y-119015031D01*
X173745031Y-118983000D01*
X175110950Y-118983000D01*
X175126191Y-119005809D01*
X175336235Y-119146157D01*
X175584000Y-119195440D01*
X177984000Y-119195440D01*
X178231765Y-119146157D01*
X178441809Y-119005809D01*
X178582157Y-118795765D01*
X178631440Y-118548000D01*
X178631440Y-116148000D01*
X178582157Y-115900235D01*
X178441809Y-115690191D01*
X178231765Y-115549843D01*
X177984000Y-115500560D01*
X175584000Y-115500560D01*
X175336235Y-115549843D01*
X175126191Y-115690191D01*
X175110950Y-115713000D01*
X174261239Y-115713000D01*
X170027988Y-111479750D01*
X169936769Y-111343231D01*
X169640358Y-111145175D01*
X175666430Y-111145175D01*
X175789565Y-111432788D01*
X176471734Y-111692707D01*
X177201443Y-111671786D01*
X177778435Y-111432788D01*
X177901570Y-111145175D01*
X176784000Y-110027605D01*
X175666430Y-111145175D01*
X169640358Y-111145175D01*
X169395945Y-110981864D01*
X168919031Y-110887000D01*
X168919030Y-110887000D01*
X168758000Y-110854969D01*
X168596970Y-110887000D01*
X155547395Y-110887000D01*
X155386369Y-110854970D01*
X155225343Y-110887000D01*
X155225339Y-110887000D01*
X154748425Y-110981864D01*
X154207601Y-111343231D01*
X154116384Y-111479747D01*
X148307748Y-117288384D01*
X148171232Y-117379601D01*
X147809864Y-117920425D01*
X147793837Y-118001000D01*
X140827790Y-118001000D01*
X140857030Y-117853999D01*
X140825000Y-117692973D01*
X140825000Y-117692969D01*
X140730136Y-117216055D01*
X140368769Y-116675231D01*
X140232253Y-116584014D01*
X135381988Y-111733750D01*
X135290769Y-111597231D01*
X134749945Y-111235864D01*
X134273031Y-111141000D01*
X134273030Y-111141000D01*
X134112000Y-111108969D01*
X133950970Y-111141000D01*
X133164608Y-111141000D01*
X133060215Y-111036607D01*
X133302397Y-110967143D01*
X133489144Y-110443698D01*
X133461362Y-109888632D01*
X133315187Y-109535734D01*
X174939293Y-109535734D01*
X174960214Y-110265443D01*
X175199212Y-110842435D01*
X175486825Y-110965570D01*
X176604395Y-109848000D01*
X176963605Y-109848000D01*
X178081175Y-110965570D01*
X178368788Y-110842435D01*
X178628707Y-110160266D01*
X178607786Y-109430557D01*
X178368788Y-108853565D01*
X178081175Y-108730430D01*
X176963605Y-109848000D01*
X176604395Y-109848000D01*
X175486825Y-108730430D01*
X175199212Y-108853565D01*
X174939293Y-109535734D01*
X133315187Y-109535734D01*
X133302397Y-109504857D01*
X133060215Y-109435393D01*
X133164608Y-109331000D01*
X150714970Y-109331000D01*
X150876000Y-109363031D01*
X151037030Y-109331000D01*
X151037031Y-109331000D01*
X151513945Y-109236136D01*
X152054769Y-108874769D01*
X152145988Y-108738250D01*
X152333413Y-108550825D01*
X175666430Y-108550825D01*
X176784000Y-109668395D01*
X177901570Y-108550825D01*
X177778435Y-108263212D01*
X177096266Y-108003293D01*
X176366557Y-108024214D01*
X175789565Y-108263212D01*
X175666430Y-108550825D01*
X152333413Y-108550825D01*
X155022740Y-105861498D01*
X155078569Y-105996280D01*
X155369720Y-106287431D01*
X155750126Y-106445000D01*
X156161874Y-106445000D01*
X156542280Y-106287431D01*
X156659711Y-106170000D01*
X160840289Y-106170000D01*
X160957720Y-106287431D01*
X161338126Y-106445000D01*
X161749874Y-106445000D01*
X162130280Y-106287431D01*
X162421431Y-105996280D01*
X162579000Y-105615874D01*
X162579000Y-105204126D01*
X162421431Y-104823720D01*
X162130280Y-104532569D01*
X161749874Y-104375000D01*
X161338126Y-104375000D01*
X160957720Y-104532569D01*
X160840289Y-104650000D01*
X156659711Y-104650000D01*
X156542280Y-104532569D01*
X156407498Y-104476741D01*
X159830239Y-101054000D01*
X168534560Y-101054000D01*
X168534560Y-102654000D01*
X168583843Y-102901765D01*
X168724191Y-103111809D01*
X168934235Y-103252157D01*
X169182000Y-103301440D01*
X170782000Y-103301440D01*
X171029765Y-103252157D01*
X171239809Y-103111809D01*
X171380157Y-102901765D01*
X171388117Y-102861745D01*
X172653861Y-102861745D01*
X172727995Y-103107864D01*
X173265223Y-103300965D01*
X173835454Y-103273778D01*
X174236005Y-103107864D01*
X174310139Y-102861745D01*
X173482000Y-102033605D01*
X172653861Y-102861745D01*
X171388117Y-102861745D01*
X171429440Y-102654000D01*
X171429440Y-101637223D01*
X172035035Y-101637223D01*
X172062222Y-102207454D01*
X172228136Y-102608005D01*
X172474255Y-102682139D01*
X173302395Y-101854000D01*
X173661605Y-101854000D01*
X174489745Y-102682139D01*
X174735864Y-102608005D01*
X174928965Y-102070777D01*
X174901778Y-101500546D01*
X174735864Y-101099995D01*
X174489745Y-101025861D01*
X173661605Y-101854000D01*
X173302395Y-101854000D01*
X172474255Y-101025861D01*
X172228136Y-101099995D01*
X172035035Y-101637223D01*
X171429440Y-101637223D01*
X171429440Y-101054000D01*
X171388118Y-100846255D01*
X172653861Y-100846255D01*
X173482000Y-101674395D01*
X174310139Y-100846255D01*
X174236005Y-100600136D01*
X173698777Y-100407035D01*
X173128546Y-100434222D01*
X172727995Y-100600136D01*
X172653861Y-100846255D01*
X171388118Y-100846255D01*
X171380157Y-100806235D01*
X171239809Y-100596191D01*
X171029765Y-100455843D01*
X170782000Y-100406560D01*
X169182000Y-100406560D01*
X168934235Y-100455843D01*
X168724191Y-100596191D01*
X168583843Y-100806235D01*
X168534560Y-101054000D01*
X159830239Y-101054000D01*
X165727064Y-95157175D01*
X175666430Y-95157175D01*
X175789565Y-95444788D01*
X176471734Y-95704707D01*
X177201443Y-95683786D01*
X177778435Y-95444788D01*
X177901570Y-95157175D01*
X176784000Y-94039605D01*
X175666430Y-95157175D01*
X165727064Y-95157175D01*
X167336505Y-93547734D01*
X174939293Y-93547734D01*
X174960214Y-94277443D01*
X175199212Y-94854435D01*
X175486825Y-94977570D01*
X176604395Y-93860000D01*
X176963605Y-93860000D01*
X178081175Y-94977570D01*
X178368788Y-94854435D01*
X178628707Y-94172266D01*
X178607786Y-93442557D01*
X178368788Y-92865565D01*
X178081175Y-92742430D01*
X176963605Y-93860000D01*
X176604395Y-93860000D01*
X175486825Y-92742430D01*
X175199212Y-92865565D01*
X174939293Y-93547734D01*
X167336505Y-93547734D01*
X168321414Y-92562825D01*
X175666430Y-92562825D01*
X176784000Y-93680395D01*
X177901570Y-92562825D01*
X177778435Y-92275212D01*
X177096266Y-92015293D01*
X176366557Y-92036214D01*
X175789565Y-92275212D01*
X175666430Y-92562825D01*
X168321414Y-92562825D01*
X172889240Y-87995000D01*
X175110950Y-87995000D01*
X175126191Y-88017809D01*
X175336235Y-88158157D01*
X175584000Y-88207440D01*
X177984000Y-88207440D01*
X178231765Y-88158157D01*
X178441809Y-88017809D01*
X178582157Y-87807765D01*
X178631440Y-87560000D01*
X178631440Y-85160000D01*
X178582157Y-84912235D01*
X178441809Y-84702191D01*
X178231765Y-84561843D01*
X177984000Y-84512560D01*
X175584000Y-84512560D01*
X175336235Y-84561843D01*
X175126191Y-84702191D01*
X175110950Y-84725000D01*
X172373031Y-84725000D01*
X172212000Y-84692969D01*
X171574054Y-84819864D01*
X171169746Y-85090014D01*
X171169744Y-85090016D01*
X171033231Y-85181231D01*
X170942016Y-85317744D01*
X150895000Y-105364762D01*
X150895000Y-105204126D01*
X150737431Y-104823720D01*
X150620000Y-104706289D01*
X150620000Y-101294043D01*
X150894577Y-101110577D01*
X151211740Y-100635909D01*
X151323113Y-100076000D01*
X151211740Y-99516091D01*
X150894577Y-99041423D01*
X150542242Y-98806000D01*
X150894577Y-98570577D01*
X151211740Y-98095909D01*
X151323113Y-97536000D01*
X151211740Y-96976091D01*
X150894577Y-96501423D01*
X150542242Y-96266000D01*
X150894577Y-96030577D01*
X151211740Y-95555909D01*
X151323113Y-94996000D01*
X151211740Y-94436091D01*
X150894577Y-93961423D01*
X150542242Y-93726000D01*
X150894577Y-93490577D01*
X151211740Y-93015909D01*
X151323113Y-92456000D01*
X151211740Y-91896091D01*
X150894577Y-91421423D01*
X150419909Y-91104260D01*
X150001333Y-91021000D01*
X149718667Y-91021000D01*
X149300091Y-91104260D01*
X148825423Y-91421423D01*
X148508260Y-91896091D01*
X148396887Y-92456000D01*
X148508260Y-93015909D01*
X148825423Y-93490577D01*
X149177758Y-93726000D01*
X148825423Y-93961423D01*
X148508260Y-94436091D01*
X148396887Y-94996000D01*
X148461312Y-95319885D01*
X148130199Y-95650999D01*
X143528203Y-95650999D01*
X143591740Y-95555909D01*
X143703113Y-94996000D01*
X143591740Y-94436091D01*
X143274577Y-93961423D01*
X143153894Y-93880785D01*
X143287765Y-93854157D01*
X143497809Y-93713809D01*
X143638157Y-93503765D01*
X143687440Y-93256000D01*
X143687440Y-91656000D01*
X143638157Y-91408235D01*
X143497809Y-91198191D01*
X143287765Y-91057843D01*
X143040000Y-91008560D01*
X141440000Y-91008560D01*
X141192235Y-91057843D01*
X140982191Y-91198191D01*
X140841843Y-91408235D01*
X140792560Y-91656000D01*
X140792560Y-93256000D01*
X140841843Y-93503765D01*
X140982191Y-93713809D01*
X141192235Y-93854157D01*
X141326106Y-93880785D01*
X141205423Y-93961423D01*
X140888260Y-94436091D01*
X140776887Y-94996000D01*
X140888260Y-95555909D01*
X140951797Y-95650999D01*
X138956203Y-95650999D01*
X139019740Y-95555909D01*
X139131113Y-94996000D01*
X139019740Y-94436091D01*
X138702577Y-93961423D01*
X138350242Y-93726000D01*
X138702577Y-93490577D01*
X139019740Y-93015909D01*
X139131113Y-92456000D01*
X139019740Y-91896091D01*
X138702577Y-91421423D01*
X138227909Y-91104260D01*
X137809333Y-91021000D01*
X137526667Y-91021000D01*
X137108091Y-91104260D01*
X136633423Y-91421423D01*
X136316260Y-91896091D01*
X136204887Y-92456000D01*
X136316260Y-93015909D01*
X136633423Y-93490577D01*
X136985758Y-93726000D01*
X136633423Y-93961423D01*
X136316260Y-94436091D01*
X136204887Y-94996000D01*
X136316260Y-95555909D01*
X136633423Y-96030577D01*
X136985758Y-96266000D01*
X136633423Y-96501423D01*
X136316260Y-96976091D01*
X136204887Y-97536000D01*
X136316260Y-98095909D01*
X136633423Y-98570577D01*
X137017108Y-98826947D01*
X136812866Y-98923611D01*
X136436959Y-99338577D01*
X136276096Y-99726961D01*
X136398085Y-99949000D01*
X137541000Y-99949000D01*
X137541000Y-99929000D01*
X137795000Y-99929000D01*
X137795000Y-99949000D01*
X138937915Y-99949000D01*
X139059904Y-99726961D01*
X138899041Y-99338577D01*
X138523134Y-98923611D01*
X138318892Y-98826947D01*
X138702577Y-98570577D01*
X139019740Y-98095909D01*
X139131113Y-97536000D01*
X139066688Y-97212114D01*
X139107803Y-97170999D01*
X140849490Y-97170999D01*
X140776887Y-97536000D01*
X140888260Y-98095909D01*
X141205423Y-98570577D01*
X141589108Y-98826947D01*
X141384866Y-98923611D01*
X141008959Y-99338577D01*
X140848096Y-99726961D01*
X140970085Y-99949000D01*
X142113000Y-99949000D01*
X142113000Y-99929000D01*
X142367000Y-99929000D01*
X142367000Y-99949000D01*
X143509915Y-99949000D01*
X143631904Y-99726961D01*
X143471041Y-99338577D01*
X143095134Y-98923611D01*
X142890892Y-98826947D01*
X143274577Y-98570577D01*
X143591740Y-98095909D01*
X143703113Y-97536000D01*
X143630510Y-97170999D01*
X148370154Y-97170999D01*
X148445001Y-97185887D01*
X148467416Y-97181428D01*
X148396887Y-97536000D01*
X148508260Y-98095909D01*
X148825423Y-98570577D01*
X149177758Y-98806000D01*
X148825423Y-99041423D01*
X148508260Y-99516091D01*
X148396887Y-100076000D01*
X148508260Y-100635909D01*
X148825423Y-101110577D01*
X149100000Y-101294044D01*
X149100001Y-104706288D01*
X148982569Y-104823720D01*
X148825000Y-105204126D01*
X148825000Y-105615874D01*
X148982569Y-105996280D01*
X149047289Y-106061000D01*
X133150657Y-106061000D01*
X133264320Y-105947337D01*
X133477000Y-105433881D01*
X133477000Y-104878119D01*
X133264320Y-104364663D01*
X132871337Y-103971680D01*
X132357881Y-103759000D01*
X131802119Y-103759000D01*
X131288663Y-103971680D01*
X130895680Y-104364663D01*
X130683000Y-104878119D01*
X130683000Y-105064391D01*
X123809000Y-98190392D01*
X123809000Y-95051778D01*
X123785896Y-94996000D01*
X128584887Y-94996000D01*
X128696260Y-95555909D01*
X129013423Y-96030577D01*
X129365758Y-96266000D01*
X129013423Y-96501423D01*
X128696260Y-96976091D01*
X128584887Y-97536000D01*
X128696260Y-98095909D01*
X129013423Y-98570577D01*
X129365758Y-98806000D01*
X129013423Y-99041423D01*
X128696260Y-99516091D01*
X128584887Y-100076000D01*
X128696260Y-100635909D01*
X129013423Y-101110577D01*
X129488091Y-101427740D01*
X129906667Y-101511000D01*
X130189333Y-101511000D01*
X130607909Y-101427740D01*
X131082577Y-101110577D01*
X131399740Y-100635909D01*
X131441684Y-100425039D01*
X136276096Y-100425039D01*
X136436959Y-100813423D01*
X136812866Y-101228389D01*
X137318959Y-101467914D01*
X137541000Y-101346629D01*
X137541000Y-100203000D01*
X137795000Y-100203000D01*
X137795000Y-101346629D01*
X138017041Y-101467914D01*
X138523134Y-101228389D01*
X138899041Y-100813423D01*
X139059904Y-100425039D01*
X140848096Y-100425039D01*
X141008959Y-100813423D01*
X141384866Y-101228389D01*
X141890959Y-101467914D01*
X142113000Y-101346629D01*
X142113000Y-100203000D01*
X142367000Y-100203000D01*
X142367000Y-101346629D01*
X142589041Y-101467914D01*
X143095134Y-101228389D01*
X143471041Y-100813423D01*
X143631904Y-100425039D01*
X143509915Y-100203000D01*
X142367000Y-100203000D01*
X142113000Y-100203000D01*
X140970085Y-100203000D01*
X140848096Y-100425039D01*
X139059904Y-100425039D01*
X138937915Y-100203000D01*
X137795000Y-100203000D01*
X137541000Y-100203000D01*
X136398085Y-100203000D01*
X136276096Y-100425039D01*
X131441684Y-100425039D01*
X131511113Y-100076000D01*
X131399740Y-99516091D01*
X131082577Y-99041423D01*
X130730242Y-98806000D01*
X131082577Y-98570577D01*
X131399740Y-98095909D01*
X131511113Y-97536000D01*
X131399740Y-96976091D01*
X131082577Y-96501423D01*
X130730242Y-96266000D01*
X131082577Y-96030577D01*
X131399740Y-95555909D01*
X131511113Y-94996000D01*
X131399740Y-94436091D01*
X131082577Y-93961423D01*
X130961894Y-93880785D01*
X131095765Y-93854157D01*
X131305809Y-93713809D01*
X131446157Y-93503765D01*
X131495440Y-93256000D01*
X131495440Y-91656000D01*
X131446157Y-91408235D01*
X131305809Y-91198191D01*
X131095765Y-91057843D01*
X130848000Y-91008560D01*
X129248000Y-91008560D01*
X129000235Y-91057843D01*
X128790191Y-91198191D01*
X128649843Y-91408235D01*
X128600560Y-91656000D01*
X128600560Y-93256000D01*
X128649843Y-93503765D01*
X128790191Y-93713809D01*
X129000235Y-93854157D01*
X129134106Y-93880785D01*
X129013423Y-93961423D01*
X128696260Y-94436091D01*
X128584887Y-94996000D01*
X123785896Y-94996000D01*
X123746167Y-94900086D01*
X123714136Y-94739055D01*
X123622919Y-94602539D01*
X123560086Y-94450847D01*
X123443986Y-94334747D01*
X123352769Y-94198231D01*
X123216253Y-94107014D01*
X123100153Y-93990914D01*
X122948461Y-93928081D01*
X122811945Y-93836864D01*
X122650914Y-93804833D01*
X122499222Y-93742000D01*
X122335031Y-93742000D01*
X122174000Y-93709969D01*
X122012969Y-93742000D01*
X121848778Y-93742000D01*
X121697085Y-93804833D01*
X121536056Y-93836864D01*
X121399541Y-93928080D01*
X121247847Y-93990914D01*
X121131747Y-94107014D01*
X120995231Y-94198231D01*
X120904014Y-94334747D01*
X120787914Y-94450847D01*
X120725081Y-94602539D01*
X120715419Y-94617000D01*
X119313801Y-94617000D01*
X119208331Y-94511529D01*
X119165929Y-94448071D01*
X118914537Y-94280096D01*
X118692852Y-94236000D01*
X118692847Y-94236000D01*
X118618000Y-94221112D01*
X118543153Y-94236000D01*
X114204178Y-94236000D01*
X113996625Y-93925375D01*
X113505418Y-93597161D01*
X113072256Y-93511000D01*
X112479744Y-93511000D01*
X112046582Y-93597161D01*
X111555375Y-93925375D01*
X111227161Y-94416582D01*
X111111908Y-94996000D01*
X111227161Y-95575418D01*
X111555375Y-96066625D01*
X111619156Y-96109242D01*
X111391414Y-96261414D01*
X111196874Y-96552565D01*
X111128560Y-96896000D01*
X111128560Y-98096000D01*
X111196874Y-98439435D01*
X111391414Y-98730586D01*
X111682565Y-98925126D01*
X112026000Y-98993440D01*
X113526000Y-98993440D01*
X113869435Y-98925126D01*
X114160586Y-98730586D01*
X114355126Y-98439435D01*
X114423440Y-98096000D01*
X114423440Y-96896000D01*
X114355126Y-96552565D01*
X114160586Y-96261414D01*
X113932844Y-96109242D01*
X113996625Y-96066625D01*
X114204178Y-95756000D01*
X118303198Y-95756000D01*
X118408671Y-95861472D01*
X118451071Y-95924929D01*
X118702463Y-96092904D01*
X118924148Y-96137000D01*
X118924152Y-96137000D01*
X118998999Y-96151888D01*
X119073846Y-96137000D01*
X120539001Y-96137000D01*
X120539000Y-98706600D01*
X120506969Y-98867630D01*
X120539000Y-99028660D01*
X120633864Y-99505574D01*
X120995231Y-100046399D01*
X121131750Y-100137618D01*
X129732384Y-108738253D01*
X129823601Y-108874769D01*
X130031381Y-109013603D01*
X130364424Y-109236136D01*
X131002370Y-109363031D01*
X131023266Y-109358874D01*
X131099785Y-109435393D01*
X130857603Y-109504857D01*
X130670856Y-110028302D01*
X130698638Y-110583368D01*
X130857603Y-110967143D01*
X131099787Y-111036608D01*
X131900395Y-110236000D01*
X131886253Y-110221858D01*
X132065858Y-110042253D01*
X132080000Y-110056395D01*
X132094143Y-110042253D01*
X132273748Y-110221858D01*
X132259605Y-110236000D01*
X132273748Y-110250143D01*
X132094143Y-110429748D01*
X132080000Y-110415605D01*
X131279392Y-111216213D01*
X131310283Y-111323911D01*
X130901231Y-111597231D01*
X130539864Y-112138055D01*
X130412969Y-112776000D01*
X130539864Y-113413945D01*
X130901231Y-113954769D01*
X131299674Y-114221000D01*
X130086954Y-114221000D01*
X128750938Y-114774396D01*
X127728396Y-115796938D01*
X127175000Y-117132954D01*
X127175000Y-118579046D01*
X127728396Y-119915062D01*
X128750938Y-120937604D01*
X129408560Y-121210000D01*
X123421608Y-121210000D01*
X123377776Y-121166168D01*
X123615611Y-121101869D01*
X123795333Y-120593658D01*
X123766892Y-120055356D01*
X123615611Y-119690131D01*
X123377774Y-119625831D01*
X122607605Y-120396000D01*
X122621748Y-120410143D01*
X122442143Y-120589748D01*
X122428000Y-120575605D01*
X122413858Y-120589748D01*
X122234253Y-120410143D01*
X122248395Y-120396000D01*
X121478226Y-119625831D01*
X121240389Y-119690131D01*
X121060667Y-120198342D01*
X121089108Y-120736644D01*
X121240389Y-121101869D01*
X121478224Y-121166168D01*
X121434392Y-121210000D01*
X117649463Y-121210000D01*
X117895000Y-120617222D01*
X117895000Y-119966778D01*
X117679381Y-119446226D01*
X121657831Y-119446226D01*
X122428000Y-120216395D01*
X123198169Y-119446226D01*
X123133869Y-119208389D01*
X122625658Y-119028667D01*
X122087356Y-119057108D01*
X121722131Y-119208389D01*
X121657831Y-119446226D01*
X117679381Y-119446226D01*
X117646086Y-119365847D01*
X117186153Y-118905914D01*
X116585222Y-118657000D01*
X115934778Y-118657000D01*
X115333847Y-118905914D01*
X114873914Y-119365847D01*
X114625000Y-119966778D01*
X114625000Y-120617222D01*
X114870537Y-121210000D01*
X113061094Y-121210000D01*
X113179387Y-121166264D01*
X113405908Y-120556539D01*
X113381856Y-119906540D01*
X113179387Y-119417736D01*
X112912532Y-119319073D01*
X111939605Y-120292000D01*
X111953748Y-120306143D01*
X111774143Y-120485748D01*
X111760000Y-120471605D01*
X111745858Y-120485748D01*
X111566253Y-120306143D01*
X111580395Y-120292000D01*
X110607468Y-119319073D01*
X110438000Y-119381730D01*
X110438000Y-119139468D01*
X110787073Y-119139468D01*
X111760000Y-120112395D01*
X112732927Y-119139468D01*
X112634264Y-118872613D01*
X112024539Y-118646092D01*
X111374540Y-118670144D01*
X110885736Y-118872613D01*
X110787073Y-119139468D01*
X110438000Y-119139468D01*
X110438000Y-117586474D01*
X123613000Y-117586474D01*
X123613000Y-118125526D01*
X123819286Y-118623546D01*
X124200454Y-119004714D01*
X124698474Y-119211000D01*
X125237526Y-119211000D01*
X125735546Y-119004714D01*
X126116714Y-118623546D01*
X126323000Y-118125526D01*
X126323000Y-117586474D01*
X126116714Y-117088454D01*
X125735546Y-116707286D01*
X125237526Y-116501000D01*
X124698474Y-116501000D01*
X124200454Y-116707286D01*
X123819286Y-117088454D01*
X123613000Y-117586474D01*
X110438000Y-117586474D01*
X110438000Y-114944532D01*
X110787073Y-114944532D01*
X110885736Y-115211387D01*
X111495461Y-115437908D01*
X112145460Y-115413856D01*
X112634264Y-115211387D01*
X112732927Y-114944532D01*
X111760000Y-113971605D01*
X110787073Y-114944532D01*
X110438000Y-114944532D01*
X110438000Y-114702270D01*
X110607468Y-114764927D01*
X111580395Y-113792000D01*
X111939605Y-113792000D01*
X112912532Y-114764927D01*
X113179387Y-114666264D01*
X113405908Y-114056539D01*
X113384085Y-113466778D01*
X114625000Y-113466778D01*
X114625000Y-114117222D01*
X114873914Y-114718153D01*
X115333847Y-115178086D01*
X115934778Y-115427000D01*
X116585222Y-115427000D01*
X117186153Y-115178086D01*
X117317765Y-115046474D01*
X121073000Y-115046474D01*
X121073000Y-115585526D01*
X121279286Y-116083546D01*
X121660454Y-116464714D01*
X122158474Y-116671000D01*
X122697526Y-116671000D01*
X123195546Y-116464714D01*
X123576714Y-116083546D01*
X123783000Y-115585526D01*
X123783000Y-115046474D01*
X123576714Y-114548454D01*
X123195546Y-114167286D01*
X122697526Y-113961000D01*
X122158474Y-113961000D01*
X121660454Y-114167286D01*
X121279286Y-114548454D01*
X121073000Y-115046474D01*
X117317765Y-115046474D01*
X117646086Y-114718153D01*
X117895000Y-114117222D01*
X117895000Y-113466778D01*
X117646086Y-112865847D01*
X117186153Y-112405914D01*
X116693316Y-112201774D01*
X121657831Y-112201774D01*
X121722131Y-112439611D01*
X122230342Y-112619333D01*
X122768644Y-112590892D01*
X123133869Y-112439611D01*
X123198169Y-112201774D01*
X122428000Y-111431605D01*
X121657831Y-112201774D01*
X116693316Y-112201774D01*
X116585222Y-112157000D01*
X115934778Y-112157000D01*
X115333847Y-112405914D01*
X114873914Y-112865847D01*
X114625000Y-113466778D01*
X113384085Y-113466778D01*
X113381856Y-113406540D01*
X113179387Y-112917736D01*
X112912532Y-112819073D01*
X111939605Y-113792000D01*
X111580395Y-113792000D01*
X110607468Y-112819073D01*
X110438000Y-112881730D01*
X110438000Y-112639468D01*
X110787073Y-112639468D01*
X111760000Y-113612395D01*
X112732927Y-112639468D01*
X112634264Y-112372613D01*
X112024539Y-112146092D01*
X111374540Y-112170144D01*
X110885736Y-112372613D01*
X110787073Y-112639468D01*
X110438000Y-112639468D01*
X110438000Y-111054342D01*
X121060667Y-111054342D01*
X121089108Y-111592644D01*
X121240389Y-111957869D01*
X121478226Y-112022169D01*
X122248395Y-111252000D01*
X122607605Y-111252000D01*
X123377774Y-112022169D01*
X123615611Y-111957869D01*
X123795333Y-111449658D01*
X123766892Y-110911356D01*
X123615611Y-110546131D01*
X123377774Y-110481831D01*
X122607605Y-111252000D01*
X122248395Y-111252000D01*
X121478226Y-110481831D01*
X121240389Y-110546131D01*
X121060667Y-111054342D01*
X110438000Y-111054342D01*
X110438000Y-110302226D01*
X121657831Y-110302226D01*
X122428000Y-111072395D01*
X123198169Y-110302226D01*
X123133869Y-110064389D01*
X122625658Y-109884667D01*
X122087356Y-109913108D01*
X121722131Y-110064389D01*
X121657831Y-110302226D01*
X110438000Y-110302226D01*
X110438000Y-105156000D01*
X111111908Y-105156000D01*
X111227161Y-105735418D01*
X111555375Y-106226625D01*
X111619156Y-106269242D01*
X111391414Y-106421414D01*
X111196874Y-106712565D01*
X111128560Y-107056000D01*
X111128560Y-108256000D01*
X111196874Y-108599435D01*
X111391414Y-108890586D01*
X111682565Y-109085126D01*
X112026000Y-109153440D01*
X113526000Y-109153440D01*
X113869435Y-109085126D01*
X114160586Y-108890586D01*
X114355126Y-108599435D01*
X114386347Y-108442474D01*
X123613000Y-108442474D01*
X123613000Y-108981526D01*
X123819286Y-109479546D01*
X124200454Y-109860714D01*
X124698474Y-110067000D01*
X125237526Y-110067000D01*
X125735546Y-109860714D01*
X126116714Y-109479546D01*
X126323000Y-108981526D01*
X126323000Y-108442474D01*
X126116714Y-107944454D01*
X125735546Y-107563286D01*
X125237526Y-107357000D01*
X124698474Y-107357000D01*
X124200454Y-107563286D01*
X123819286Y-107944454D01*
X123613000Y-108442474D01*
X114386347Y-108442474D01*
X114423440Y-108256000D01*
X114423440Y-107056000D01*
X114355126Y-106712565D01*
X114160586Y-106421414D01*
X113932844Y-106269242D01*
X113996625Y-106226625D01*
X114213215Y-105902474D01*
X121073000Y-105902474D01*
X121073000Y-106441526D01*
X121279286Y-106939546D01*
X121660454Y-107320714D01*
X122158474Y-107527000D01*
X122697526Y-107527000D01*
X123195546Y-107320714D01*
X123576714Y-106939546D01*
X123783000Y-106441526D01*
X123783000Y-105902474D01*
X123576714Y-105404454D01*
X123195546Y-105023286D01*
X122697526Y-104817000D01*
X122158474Y-104817000D01*
X121660454Y-105023286D01*
X121279286Y-105404454D01*
X121073000Y-105902474D01*
X114213215Y-105902474D01*
X114324839Y-105735418D01*
X114440092Y-105156000D01*
X114324839Y-104576582D01*
X113996625Y-104085375D01*
X113505418Y-103757161D01*
X113072256Y-103671000D01*
X112479744Y-103671000D01*
X112046582Y-103757161D01*
X111555375Y-104085375D01*
X111227161Y-104576582D01*
X111111908Y-105156000D01*
X110438000Y-105156000D01*
X110438000Y-87621750D01*
X111141000Y-87621750D01*
X111141000Y-88312309D01*
X111237673Y-88545698D01*
X111416301Y-88724327D01*
X111649690Y-88821000D01*
X112490250Y-88821000D01*
X112649000Y-88662250D01*
X112649000Y-87463000D01*
X112903000Y-87463000D01*
X112903000Y-88662250D01*
X113061750Y-88821000D01*
X113902310Y-88821000D01*
X114135699Y-88724327D01*
X114314327Y-88545698D01*
X114411000Y-88312309D01*
X114411000Y-87621750D01*
X114252250Y-87463000D01*
X112903000Y-87463000D01*
X112649000Y-87463000D01*
X111299750Y-87463000D01*
X111141000Y-87621750D01*
X110438000Y-87621750D01*
X110438000Y-84836000D01*
X111111908Y-84836000D01*
X111227161Y-85415418D01*
X111546709Y-85893656D01*
X111416301Y-85947673D01*
X111237673Y-86126302D01*
X111141000Y-86359691D01*
X111141000Y-87050250D01*
X111299750Y-87209000D01*
X112649000Y-87209000D01*
X112649000Y-87189000D01*
X112903000Y-87189000D01*
X112903000Y-87209000D01*
X114252250Y-87209000D01*
X114411000Y-87050250D01*
X114411000Y-86359691D01*
X114314327Y-86126302D01*
X114135699Y-85947673D01*
X114005291Y-85893656D01*
X114324839Y-85415418D01*
X114440092Y-84836000D01*
X114324839Y-84256582D01*
X113996625Y-83765375D01*
X113505418Y-83437161D01*
X113072256Y-83351000D01*
X112479744Y-83351000D01*
X112046582Y-83437161D01*
X111555375Y-83765375D01*
X111227161Y-84256582D01*
X111111908Y-84836000D01*
X110438000Y-84836000D01*
X110438000Y-82498000D01*
X129418217Y-82498000D01*
X128750938Y-82774396D01*
X128750938Y-82774396D01*
G37*
X128750938Y-82774396D02*
X127728396Y-83796938D01*
X127175000Y-85132954D01*
X127175000Y-86579046D01*
X127728396Y-87915062D01*
X128750938Y-88937604D01*
X130086954Y-89491000D01*
X131533046Y-89491000D01*
X132869062Y-88937604D01*
X133891604Y-87915062D01*
X134445000Y-86579046D01*
X134445000Y-85132954D01*
X134413213Y-85056213D01*
X138389392Y-85056213D01*
X138458857Y-85298397D01*
X138982302Y-85485144D01*
X139537368Y-85457362D01*
X139921143Y-85298397D01*
X139990608Y-85056213D01*
X140929392Y-85056213D01*
X140998857Y-85298397D01*
X141522302Y-85485144D01*
X142077368Y-85457362D01*
X142461143Y-85298397D01*
X142530608Y-85056213D01*
X143469392Y-85056213D01*
X143538857Y-85298397D01*
X144062302Y-85485144D01*
X144617368Y-85457362D01*
X145001143Y-85298397D01*
X145070608Y-85056213D01*
X146009392Y-85056213D01*
X146078857Y-85298397D01*
X146602302Y-85485144D01*
X147157368Y-85457362D01*
X147541143Y-85298397D01*
X147610608Y-85056213D01*
X148549392Y-85056213D01*
X148618857Y-85298397D01*
X149142302Y-85485144D01*
X149697368Y-85457362D01*
X150081143Y-85298397D01*
X150150608Y-85056213D01*
X149350000Y-84255605D01*
X148549392Y-85056213D01*
X147610608Y-85056213D01*
X146810000Y-84255605D01*
X146009392Y-85056213D01*
X145070608Y-85056213D01*
X144270000Y-84255605D01*
X143469392Y-85056213D01*
X142530608Y-85056213D01*
X141730000Y-84255605D01*
X140929392Y-85056213D01*
X139990608Y-85056213D01*
X139190000Y-84255605D01*
X138389392Y-85056213D01*
X134413213Y-85056213D01*
X133921164Y-83868302D01*
X137780856Y-83868302D01*
X137808638Y-84423368D01*
X137967603Y-84807143D01*
X138209787Y-84876608D01*
X139010395Y-84076000D01*
X139369605Y-84076000D01*
X140170213Y-84876608D01*
X140412397Y-84807143D01*
X140456453Y-84683656D01*
X140507603Y-84807143D01*
X140749787Y-84876608D01*
X141550395Y-84076000D01*
X141909605Y-84076000D01*
X142710213Y-84876608D01*
X142952397Y-84807143D01*
X142996453Y-84683656D01*
X143047603Y-84807143D01*
X143289787Y-84876608D01*
X144090395Y-84076000D01*
X144449605Y-84076000D01*
X145250213Y-84876608D01*
X145492397Y-84807143D01*
X145536453Y-84683656D01*
X145587603Y-84807143D01*
X145829787Y-84876608D01*
X146630395Y-84076000D01*
X146989605Y-84076000D01*
X147790213Y-84876608D01*
X148032397Y-84807143D01*
X148076453Y-84683656D01*
X148127603Y-84807143D01*
X148369787Y-84876608D01*
X149170395Y-84076000D01*
X149529605Y-84076000D01*
X150330213Y-84876608D01*
X150572397Y-84807143D01*
X150622535Y-84666607D01*
X150705680Y-84867337D01*
X151098663Y-85260320D01*
X151612119Y-85473000D01*
X152167881Y-85473000D01*
X152681337Y-85260320D01*
X152885444Y-85056213D01*
X153629392Y-85056213D01*
X153698857Y-85298397D01*
X154222302Y-85485144D01*
X154777368Y-85457362D01*
X155161143Y-85298397D01*
X155230608Y-85056213D01*
X154430000Y-84255605D01*
X153629392Y-85056213D01*
X152885444Y-85056213D01*
X153074320Y-84867337D01*
X153153428Y-84676353D01*
X153207603Y-84807143D01*
X153449787Y-84876608D01*
X154250395Y-84076000D01*
X154609605Y-84076000D01*
X155410213Y-84876608D01*
X155652397Y-84807143D01*
X155839144Y-84283698D01*
X155811362Y-83728632D01*
X155652397Y-83344857D01*
X155410213Y-83275392D01*
X154609605Y-84076000D01*
X154250395Y-84076000D01*
X153449787Y-83275392D01*
X153207603Y-83344857D01*
X153157465Y-83485393D01*
X153074320Y-83284663D01*
X152885444Y-83095787D01*
X153629392Y-83095787D01*
X154430000Y-83896395D01*
X155230608Y-83095787D01*
X155161143Y-82853603D01*
X154637698Y-82666856D01*
X154082632Y-82694638D01*
X153698857Y-82853603D01*
X153629392Y-83095787D01*
X152885444Y-83095787D01*
X152681337Y-82891680D01*
X152167881Y-82679000D01*
X151612119Y-82679000D01*
X151098663Y-82891680D01*
X150705680Y-83284663D01*
X150626572Y-83475647D01*
X150572397Y-83344857D01*
X150330213Y-83275392D01*
X149529605Y-84076000D01*
X149170395Y-84076000D01*
X148369787Y-83275392D01*
X148127603Y-83344857D01*
X148083547Y-83468344D01*
X148032397Y-83344857D01*
X147790213Y-83275392D01*
X146989605Y-84076000D01*
X146630395Y-84076000D01*
X145829787Y-83275392D01*
X145587603Y-83344857D01*
X145543547Y-83468344D01*
X145492397Y-83344857D01*
X145250213Y-83275392D01*
X144449605Y-84076000D01*
X144090395Y-84076000D01*
X143289787Y-83275392D01*
X143047603Y-83344857D01*
X143003547Y-83468344D01*
X142952397Y-83344857D01*
X142710213Y-83275392D01*
X141909605Y-84076000D01*
X141550395Y-84076000D01*
X140749787Y-83275392D01*
X140507603Y-83344857D01*
X140463547Y-83468344D01*
X140412397Y-83344857D01*
X140170213Y-83275392D01*
X139369605Y-84076000D01*
X139010395Y-84076000D01*
X138209787Y-83275392D01*
X137967603Y-83344857D01*
X137780856Y-83868302D01*
X133921164Y-83868302D01*
X133891604Y-83796938D01*
X133190453Y-83095787D01*
X138389392Y-83095787D01*
X139190000Y-83896395D01*
X139990608Y-83095787D01*
X140929392Y-83095787D01*
X141730000Y-83896395D01*
X142530608Y-83095787D01*
X143469392Y-83095787D01*
X144270000Y-83896395D01*
X145070608Y-83095787D01*
X146009392Y-83095787D01*
X146810000Y-83896395D01*
X147610608Y-83095787D01*
X148549392Y-83095787D01*
X149350000Y-83896395D01*
X150150608Y-83095787D01*
X150081143Y-82853603D01*
X149557698Y-82666856D01*
X149002632Y-82694638D01*
X148618857Y-82853603D01*
X148549392Y-83095787D01*
X147610608Y-83095787D01*
X147541143Y-82853603D01*
X147017698Y-82666856D01*
X146462632Y-82694638D01*
X146078857Y-82853603D01*
X146009392Y-83095787D01*
X145070608Y-83095787D01*
X145001143Y-82853603D01*
X144477698Y-82666856D01*
X143922632Y-82694638D01*
X143538857Y-82853603D01*
X143469392Y-83095787D01*
X142530608Y-83095787D01*
X142461143Y-82853603D01*
X141937698Y-82666856D01*
X141382632Y-82694638D01*
X140998857Y-82853603D01*
X140929392Y-83095787D01*
X139990608Y-83095787D01*
X139921143Y-82853603D01*
X139397698Y-82666856D01*
X138842632Y-82694638D01*
X138458857Y-82853603D01*
X138389392Y-83095787D01*
X133190453Y-83095787D01*
X132869062Y-82774396D01*
X132201783Y-82498000D01*
X161418217Y-82498000D01*
X160750938Y-82774396D01*
X159728396Y-83796938D01*
X159175000Y-85132954D01*
X159175000Y-86579046D01*
X159728396Y-87915062D01*
X160750938Y-88937604D01*
X162086954Y-89491000D01*
X163533046Y-89491000D01*
X164869062Y-88937604D01*
X165891604Y-87915062D01*
X166445000Y-86579046D01*
X166445000Y-85132954D01*
X165891604Y-83796938D01*
X164869062Y-82774396D01*
X164201783Y-82498000D01*
X184202000Y-82498000D01*
X184202001Y-121210000D01*
X164211440Y-121210000D01*
X164869062Y-120937604D01*
X165891604Y-119915062D01*
X166445000Y-118579046D01*
X166445000Y-117132954D01*
X165891604Y-115796938D01*
X164869062Y-114774396D01*
X163533046Y-114221000D01*
X162086954Y-114221000D01*
X160750938Y-114774396D01*
X159728396Y-115796938D01*
X159175000Y-117132954D01*
X159175000Y-118579046D01*
X159728396Y-119915062D01*
X160750938Y-120937604D01*
X161408560Y-121210000D01*
X149817699Y-121210000D01*
X149987945Y-121176136D01*
X150528769Y-120814769D01*
X150754813Y-120476470D01*
X151098663Y-120820320D01*
X151612119Y-121033000D01*
X152167881Y-121033000D01*
X152681337Y-120820320D01*
X153074320Y-120427337D01*
X153160000Y-120220487D01*
X153245680Y-120427337D01*
X153638663Y-120820320D01*
X154152119Y-121033000D01*
X154707881Y-121033000D01*
X155221337Y-120820320D01*
X155614320Y-120427337D01*
X155827000Y-119913881D01*
X155827000Y-119358119D01*
X155614320Y-118844663D01*
X155221337Y-118451680D01*
X154707881Y-118239000D01*
X154152119Y-118239000D01*
X153638663Y-118451680D01*
X153245680Y-118844663D01*
X153160000Y-119051513D01*
X153074320Y-118844663D01*
X152681337Y-118451680D01*
X152167881Y-118239000D01*
X151981608Y-118239000D01*
X156063609Y-114157000D01*
X168080762Y-114157000D01*
X172314014Y-118390253D01*
X172405231Y-118526769D01*
X172619807Y-118670144D01*
X172946054Y-118888136D01*
X173584000Y-119015031D01*
X173745031Y-118983000D01*
X175110950Y-118983000D01*
X175126191Y-119005809D01*
X175336235Y-119146157D01*
X175584000Y-119195440D01*
X177984000Y-119195440D01*
X178231765Y-119146157D01*
X178441809Y-119005809D01*
X178582157Y-118795765D01*
X178631440Y-118548000D01*
X178631440Y-116148000D01*
X178582157Y-115900235D01*
X178441809Y-115690191D01*
X178231765Y-115549843D01*
X177984000Y-115500560D01*
X175584000Y-115500560D01*
X175336235Y-115549843D01*
X175126191Y-115690191D01*
X175110950Y-115713000D01*
X174261239Y-115713000D01*
X170027988Y-111479750D01*
X169936769Y-111343231D01*
X169640358Y-111145175D01*
X175666430Y-111145175D01*
X175789565Y-111432788D01*
X176471734Y-111692707D01*
X177201443Y-111671786D01*
X177778435Y-111432788D01*
X177901570Y-111145175D01*
X176784000Y-110027605D01*
X175666430Y-111145175D01*
X169640358Y-111145175D01*
X169395945Y-110981864D01*
X168919031Y-110887000D01*
X168919030Y-110887000D01*
X168758000Y-110854969D01*
X168596970Y-110887000D01*
X155547395Y-110887000D01*
X155386369Y-110854970D01*
X155225343Y-110887000D01*
X155225339Y-110887000D01*
X154748425Y-110981864D01*
X154207601Y-111343231D01*
X154116384Y-111479747D01*
X148307748Y-117288384D01*
X148171232Y-117379601D01*
X147809864Y-117920425D01*
X147793837Y-118001000D01*
X140827790Y-118001000D01*
X140857030Y-117853999D01*
X140825000Y-117692973D01*
X140825000Y-117692969D01*
X140730136Y-117216055D01*
X140368769Y-116675231D01*
X140232253Y-116584014D01*
X135381988Y-111733750D01*
X135290769Y-111597231D01*
X134749945Y-111235864D01*
X134273031Y-111141000D01*
X134273030Y-111141000D01*
X134112000Y-111108969D01*
X133950970Y-111141000D01*
X133164608Y-111141000D01*
X133060215Y-111036607D01*
X133302397Y-110967143D01*
X133489144Y-110443698D01*
X133461362Y-109888632D01*
X133315187Y-109535734D01*
X174939293Y-109535734D01*
X174960214Y-110265443D01*
X175199212Y-110842435D01*
X175486825Y-110965570D01*
X176604395Y-109848000D01*
X176963605Y-109848000D01*
X178081175Y-110965570D01*
X178368788Y-110842435D01*
X178628707Y-110160266D01*
X178607786Y-109430557D01*
X178368788Y-108853565D01*
X178081175Y-108730430D01*
X176963605Y-109848000D01*
X176604395Y-109848000D01*
X175486825Y-108730430D01*
X175199212Y-108853565D01*
X174939293Y-109535734D01*
X133315187Y-109535734D01*
X133302397Y-109504857D01*
X133060215Y-109435393D01*
X133164608Y-109331000D01*
X150714970Y-109331000D01*
X150876000Y-109363031D01*
X151037030Y-109331000D01*
X151037031Y-109331000D01*
X151513945Y-109236136D01*
X152054769Y-108874769D01*
X152145988Y-108738250D01*
X152333413Y-108550825D01*
X175666430Y-108550825D01*
X176784000Y-109668395D01*
X177901570Y-108550825D01*
X177778435Y-108263212D01*
X177096266Y-108003293D01*
X176366557Y-108024214D01*
X175789565Y-108263212D01*
X175666430Y-108550825D01*
X152333413Y-108550825D01*
X155022740Y-105861498D01*
X155078569Y-105996280D01*
X155369720Y-106287431D01*
X155750126Y-106445000D01*
X156161874Y-106445000D01*
X156542280Y-106287431D01*
X156659711Y-106170000D01*
X160840289Y-106170000D01*
X160957720Y-106287431D01*
X161338126Y-106445000D01*
X161749874Y-106445000D01*
X162130280Y-106287431D01*
X162421431Y-105996280D01*
X162579000Y-105615874D01*
X162579000Y-105204126D01*
X162421431Y-104823720D01*
X162130280Y-104532569D01*
X161749874Y-104375000D01*
X161338126Y-104375000D01*
X160957720Y-104532569D01*
X160840289Y-104650000D01*
X156659711Y-104650000D01*
X156542280Y-104532569D01*
X156407498Y-104476741D01*
X159830239Y-101054000D01*
X168534560Y-101054000D01*
X168534560Y-102654000D01*
X168583843Y-102901765D01*
X168724191Y-103111809D01*
X168934235Y-103252157D01*
X169182000Y-103301440D01*
X170782000Y-103301440D01*
X171029765Y-103252157D01*
X171239809Y-103111809D01*
X171380157Y-102901765D01*
X171388117Y-102861745D01*
X172653861Y-102861745D01*
X172727995Y-103107864D01*
X173265223Y-103300965D01*
X173835454Y-103273778D01*
X174236005Y-103107864D01*
X174310139Y-102861745D01*
X173482000Y-102033605D01*
X172653861Y-102861745D01*
X171388117Y-102861745D01*
X171429440Y-102654000D01*
X171429440Y-101637223D01*
X172035035Y-101637223D01*
X172062222Y-102207454D01*
X172228136Y-102608005D01*
X172474255Y-102682139D01*
X173302395Y-101854000D01*
X173661605Y-101854000D01*
X174489745Y-102682139D01*
X174735864Y-102608005D01*
X174928965Y-102070777D01*
X174901778Y-101500546D01*
X174735864Y-101099995D01*
X174489745Y-101025861D01*
X173661605Y-101854000D01*
X173302395Y-101854000D01*
X172474255Y-101025861D01*
X172228136Y-101099995D01*
X172035035Y-101637223D01*
X171429440Y-101637223D01*
X171429440Y-101054000D01*
X171388118Y-100846255D01*
X172653861Y-100846255D01*
X173482000Y-101674395D01*
X174310139Y-100846255D01*
X174236005Y-100600136D01*
X173698777Y-100407035D01*
X173128546Y-100434222D01*
X172727995Y-100600136D01*
X172653861Y-100846255D01*
X171388118Y-100846255D01*
X171380157Y-100806235D01*
X171239809Y-100596191D01*
X171029765Y-100455843D01*
X170782000Y-100406560D01*
X169182000Y-100406560D01*
X168934235Y-100455843D01*
X168724191Y-100596191D01*
X168583843Y-100806235D01*
X168534560Y-101054000D01*
X159830239Y-101054000D01*
X165727064Y-95157175D01*
X175666430Y-95157175D01*
X175789565Y-95444788D01*
X176471734Y-95704707D01*
X177201443Y-95683786D01*
X177778435Y-95444788D01*
X177901570Y-95157175D01*
X176784000Y-94039605D01*
X175666430Y-95157175D01*
X165727064Y-95157175D01*
X167336505Y-93547734D01*
X174939293Y-93547734D01*
X174960214Y-94277443D01*
X175199212Y-94854435D01*
X175486825Y-94977570D01*
X176604395Y-93860000D01*
X176963605Y-93860000D01*
X178081175Y-94977570D01*
X178368788Y-94854435D01*
X178628707Y-94172266D01*
X178607786Y-93442557D01*
X178368788Y-92865565D01*
X178081175Y-92742430D01*
X176963605Y-93860000D01*
X176604395Y-93860000D01*
X175486825Y-92742430D01*
X175199212Y-92865565D01*
X174939293Y-93547734D01*
X167336505Y-93547734D01*
X168321414Y-92562825D01*
X175666430Y-92562825D01*
X176784000Y-93680395D01*
X177901570Y-92562825D01*
X177778435Y-92275212D01*
X177096266Y-92015293D01*
X176366557Y-92036214D01*
X175789565Y-92275212D01*
X175666430Y-92562825D01*
X168321414Y-92562825D01*
X172889240Y-87995000D01*
X175110950Y-87995000D01*
X175126191Y-88017809D01*
X175336235Y-88158157D01*
X175584000Y-88207440D01*
X177984000Y-88207440D01*
X178231765Y-88158157D01*
X178441809Y-88017809D01*
X178582157Y-87807765D01*
X178631440Y-87560000D01*
X178631440Y-85160000D01*
X178582157Y-84912235D01*
X178441809Y-84702191D01*
X178231765Y-84561843D01*
X177984000Y-84512560D01*
X175584000Y-84512560D01*
X175336235Y-84561843D01*
X175126191Y-84702191D01*
X175110950Y-84725000D01*
X172373031Y-84725000D01*
X172212000Y-84692969D01*
X171574054Y-84819864D01*
X171169746Y-85090014D01*
X171169744Y-85090016D01*
X171033231Y-85181231D01*
X170942016Y-85317744D01*
X150895000Y-105364762D01*
X150895000Y-105204126D01*
X150737431Y-104823720D01*
X150620000Y-104706289D01*
X150620000Y-101294043D01*
X150894577Y-101110577D01*
X151211740Y-100635909D01*
X151323113Y-100076000D01*
X151211740Y-99516091D01*
X150894577Y-99041423D01*
X150542242Y-98806000D01*
X150894577Y-98570577D01*
X151211740Y-98095909D01*
X151323113Y-97536000D01*
X151211740Y-96976091D01*
X150894577Y-96501423D01*
X150542242Y-96266000D01*
X150894577Y-96030577D01*
X151211740Y-95555909D01*
X151323113Y-94996000D01*
X151211740Y-94436091D01*
X150894577Y-93961423D01*
X150542242Y-93726000D01*
X150894577Y-93490577D01*
X151211740Y-93015909D01*
X151323113Y-92456000D01*
X151211740Y-91896091D01*
X150894577Y-91421423D01*
X150419909Y-91104260D01*
X150001333Y-91021000D01*
X149718667Y-91021000D01*
X149300091Y-91104260D01*
X148825423Y-91421423D01*
X148508260Y-91896091D01*
X148396887Y-92456000D01*
X148508260Y-93015909D01*
X148825423Y-93490577D01*
X149177758Y-93726000D01*
X148825423Y-93961423D01*
X148508260Y-94436091D01*
X148396887Y-94996000D01*
X148461312Y-95319885D01*
X148130199Y-95650999D01*
X143528203Y-95650999D01*
X143591740Y-95555909D01*
X143703113Y-94996000D01*
X143591740Y-94436091D01*
X143274577Y-93961423D01*
X143153894Y-93880785D01*
X143287765Y-93854157D01*
X143497809Y-93713809D01*
X143638157Y-93503765D01*
X143687440Y-93256000D01*
X143687440Y-91656000D01*
X143638157Y-91408235D01*
X143497809Y-91198191D01*
X143287765Y-91057843D01*
X143040000Y-91008560D01*
X141440000Y-91008560D01*
X141192235Y-91057843D01*
X140982191Y-91198191D01*
X140841843Y-91408235D01*
X140792560Y-91656000D01*
X140792560Y-93256000D01*
X140841843Y-93503765D01*
X140982191Y-93713809D01*
X141192235Y-93854157D01*
X141326106Y-93880785D01*
X141205423Y-93961423D01*
X140888260Y-94436091D01*
X140776887Y-94996000D01*
X140888260Y-95555909D01*
X140951797Y-95650999D01*
X138956203Y-95650999D01*
X139019740Y-95555909D01*
X139131113Y-94996000D01*
X139019740Y-94436091D01*
X138702577Y-93961423D01*
X138350242Y-93726000D01*
X138702577Y-93490577D01*
X139019740Y-93015909D01*
X139131113Y-92456000D01*
X139019740Y-91896091D01*
X138702577Y-91421423D01*
X138227909Y-91104260D01*
X137809333Y-91021000D01*
X137526667Y-91021000D01*
X137108091Y-91104260D01*
X136633423Y-91421423D01*
X136316260Y-91896091D01*
X136204887Y-92456000D01*
X136316260Y-93015909D01*
X136633423Y-93490577D01*
X136985758Y-93726000D01*
X136633423Y-93961423D01*
X136316260Y-94436091D01*
X136204887Y-94996000D01*
X136316260Y-95555909D01*
X136633423Y-96030577D01*
X136985758Y-96266000D01*
X136633423Y-96501423D01*
X136316260Y-96976091D01*
X136204887Y-97536000D01*
X136316260Y-98095909D01*
X136633423Y-98570577D01*
X137017108Y-98826947D01*
X136812866Y-98923611D01*
X136436959Y-99338577D01*
X136276096Y-99726961D01*
X136398085Y-99949000D01*
X137541000Y-99949000D01*
X137541000Y-99929000D01*
X137795000Y-99929000D01*
X137795000Y-99949000D01*
X138937915Y-99949000D01*
X139059904Y-99726961D01*
X138899041Y-99338577D01*
X138523134Y-98923611D01*
X138318892Y-98826947D01*
X138702577Y-98570577D01*
X139019740Y-98095909D01*
X139131113Y-97536000D01*
X139066688Y-97212114D01*
X139107803Y-97170999D01*
X140849490Y-97170999D01*
X140776887Y-97536000D01*
X140888260Y-98095909D01*
X141205423Y-98570577D01*
X141589108Y-98826947D01*
X141384866Y-98923611D01*
X141008959Y-99338577D01*
X140848096Y-99726961D01*
X140970085Y-99949000D01*
X142113000Y-99949000D01*
X142113000Y-99929000D01*
X142367000Y-99929000D01*
X142367000Y-99949000D01*
X143509915Y-99949000D01*
X143631904Y-99726961D01*
X143471041Y-99338577D01*
X143095134Y-98923611D01*
X142890892Y-98826947D01*
X143274577Y-98570577D01*
X143591740Y-98095909D01*
X143703113Y-97536000D01*
X143630510Y-97170999D01*
X148370154Y-97170999D01*
X148445001Y-97185887D01*
X148467416Y-97181428D01*
X148396887Y-97536000D01*
X148508260Y-98095909D01*
X148825423Y-98570577D01*
X149177758Y-98806000D01*
X148825423Y-99041423D01*
X148508260Y-99516091D01*
X148396887Y-100076000D01*
X148508260Y-100635909D01*
X148825423Y-101110577D01*
X149100000Y-101294044D01*
X149100001Y-104706288D01*
X148982569Y-104823720D01*
X148825000Y-105204126D01*
X148825000Y-105615874D01*
X148982569Y-105996280D01*
X149047289Y-106061000D01*
X133150657Y-106061000D01*
X133264320Y-105947337D01*
X133477000Y-105433881D01*
X133477000Y-104878119D01*
X133264320Y-104364663D01*
X132871337Y-103971680D01*
X132357881Y-103759000D01*
X131802119Y-103759000D01*
X131288663Y-103971680D01*
X130895680Y-104364663D01*
X130683000Y-104878119D01*
X130683000Y-105064391D01*
X123809000Y-98190392D01*
X123809000Y-95051778D01*
X123785896Y-94996000D01*
X128584887Y-94996000D01*
X128696260Y-95555909D01*
X129013423Y-96030577D01*
X129365758Y-96266000D01*
X129013423Y-96501423D01*
X128696260Y-96976091D01*
X128584887Y-97536000D01*
X128696260Y-98095909D01*
X129013423Y-98570577D01*
X129365758Y-98806000D01*
X129013423Y-99041423D01*
X128696260Y-99516091D01*
X128584887Y-100076000D01*
X128696260Y-100635909D01*
X129013423Y-101110577D01*
X129488091Y-101427740D01*
X129906667Y-101511000D01*
X130189333Y-101511000D01*
X130607909Y-101427740D01*
X131082577Y-101110577D01*
X131399740Y-100635909D01*
X131441684Y-100425039D01*
X136276096Y-100425039D01*
X136436959Y-100813423D01*
X136812866Y-101228389D01*
X137318959Y-101467914D01*
X137541000Y-101346629D01*
X137541000Y-100203000D01*
X137795000Y-100203000D01*
X137795000Y-101346629D01*
X138017041Y-101467914D01*
X138523134Y-101228389D01*
X138899041Y-100813423D01*
X139059904Y-100425039D01*
X140848096Y-100425039D01*
X141008959Y-100813423D01*
X141384866Y-101228389D01*
X141890959Y-101467914D01*
X142113000Y-101346629D01*
X142113000Y-100203000D01*
X142367000Y-100203000D01*
X142367000Y-101346629D01*
X142589041Y-101467914D01*
X143095134Y-101228389D01*
X143471041Y-100813423D01*
X143631904Y-100425039D01*
X143509915Y-100203000D01*
X142367000Y-100203000D01*
X142113000Y-100203000D01*
X140970085Y-100203000D01*
X140848096Y-100425039D01*
X139059904Y-100425039D01*
X138937915Y-100203000D01*
X137795000Y-100203000D01*
X137541000Y-100203000D01*
X136398085Y-100203000D01*
X136276096Y-100425039D01*
X131441684Y-100425039D01*
X131511113Y-100076000D01*
X131399740Y-99516091D01*
X131082577Y-99041423D01*
X130730242Y-98806000D01*
X131082577Y-98570577D01*
X131399740Y-98095909D01*
X131511113Y-97536000D01*
X131399740Y-96976091D01*
X131082577Y-96501423D01*
X130730242Y-96266000D01*
X131082577Y-96030577D01*
X131399740Y-95555909D01*
X131511113Y-94996000D01*
X131399740Y-94436091D01*
X131082577Y-93961423D01*
X130961894Y-93880785D01*
X131095765Y-93854157D01*
X131305809Y-93713809D01*
X131446157Y-93503765D01*
X131495440Y-93256000D01*
X131495440Y-91656000D01*
X131446157Y-91408235D01*
X131305809Y-91198191D01*
X131095765Y-91057843D01*
X130848000Y-91008560D01*
X129248000Y-91008560D01*
X129000235Y-91057843D01*
X128790191Y-91198191D01*
X128649843Y-91408235D01*
X128600560Y-91656000D01*
X128600560Y-93256000D01*
X128649843Y-93503765D01*
X128790191Y-93713809D01*
X129000235Y-93854157D01*
X129134106Y-93880785D01*
X129013423Y-93961423D01*
X128696260Y-94436091D01*
X128584887Y-94996000D01*
X123785896Y-94996000D01*
X123746167Y-94900086D01*
X123714136Y-94739055D01*
X123622919Y-94602539D01*
X123560086Y-94450847D01*
X123443986Y-94334747D01*
X123352769Y-94198231D01*
X123216253Y-94107014D01*
X123100153Y-93990914D01*
X122948461Y-93928081D01*
X122811945Y-93836864D01*
X122650914Y-93804833D01*
X122499222Y-93742000D01*
X122335031Y-93742000D01*
X122174000Y-93709969D01*
X122012969Y-93742000D01*
X121848778Y-93742000D01*
X121697085Y-93804833D01*
X121536056Y-93836864D01*
X121399541Y-93928080D01*
X121247847Y-93990914D01*
X121131747Y-94107014D01*
X120995231Y-94198231D01*
X120904014Y-94334747D01*
X120787914Y-94450847D01*
X120725081Y-94602539D01*
X120715419Y-94617000D01*
X119313801Y-94617000D01*
X119208331Y-94511529D01*
X119165929Y-94448071D01*
X118914537Y-94280096D01*
X118692852Y-94236000D01*
X118692847Y-94236000D01*
X118618000Y-94221112D01*
X118543153Y-94236000D01*
X114204178Y-94236000D01*
X113996625Y-93925375D01*
X113505418Y-93597161D01*
X113072256Y-93511000D01*
X112479744Y-93511000D01*
X112046582Y-93597161D01*
X111555375Y-93925375D01*
X111227161Y-94416582D01*
X111111908Y-94996000D01*
X111227161Y-95575418D01*
X111555375Y-96066625D01*
X111619156Y-96109242D01*
X111391414Y-96261414D01*
X111196874Y-96552565D01*
X111128560Y-96896000D01*
X111128560Y-98096000D01*
X111196874Y-98439435D01*
X111391414Y-98730586D01*
X111682565Y-98925126D01*
X112026000Y-98993440D01*
X113526000Y-98993440D01*
X113869435Y-98925126D01*
X114160586Y-98730586D01*
X114355126Y-98439435D01*
X114423440Y-98096000D01*
X114423440Y-96896000D01*
X114355126Y-96552565D01*
X114160586Y-96261414D01*
X113932844Y-96109242D01*
X113996625Y-96066625D01*
X114204178Y-95756000D01*
X118303198Y-95756000D01*
X118408671Y-95861472D01*
X118451071Y-95924929D01*
X118702463Y-96092904D01*
X118924148Y-96137000D01*
X118924152Y-96137000D01*
X118998999Y-96151888D01*
X119073846Y-96137000D01*
X120539001Y-96137000D01*
X120539000Y-98706600D01*
X120506969Y-98867630D01*
X120539000Y-99028660D01*
X120633864Y-99505574D01*
X120995231Y-100046399D01*
X121131750Y-100137618D01*
X129732384Y-108738253D01*
X129823601Y-108874769D01*
X130031381Y-109013603D01*
X130364424Y-109236136D01*
X131002370Y-109363031D01*
X131023266Y-109358874D01*
X131099785Y-109435393D01*
X130857603Y-109504857D01*
X130670856Y-110028302D01*
X130698638Y-110583368D01*
X130857603Y-110967143D01*
X131099787Y-111036608D01*
X131900395Y-110236000D01*
X131886253Y-110221858D01*
X132065858Y-110042253D01*
X132080000Y-110056395D01*
X132094143Y-110042253D01*
X132273748Y-110221858D01*
X132259605Y-110236000D01*
X132273748Y-110250143D01*
X132094143Y-110429748D01*
X132080000Y-110415605D01*
X131279392Y-111216213D01*
X131310283Y-111323911D01*
X130901231Y-111597231D01*
X130539864Y-112138055D01*
X130412969Y-112776000D01*
X130539864Y-113413945D01*
X130901231Y-113954769D01*
X131299674Y-114221000D01*
X130086954Y-114221000D01*
X128750938Y-114774396D01*
X127728396Y-115796938D01*
X127175000Y-117132954D01*
X127175000Y-118579046D01*
X127728396Y-119915062D01*
X128750938Y-120937604D01*
X129408560Y-121210000D01*
X123421608Y-121210000D01*
X123377776Y-121166168D01*
X123615611Y-121101869D01*
X123795333Y-120593658D01*
X123766892Y-120055356D01*
X123615611Y-119690131D01*
X123377774Y-119625831D01*
X122607605Y-120396000D01*
X122621748Y-120410143D01*
X122442143Y-120589748D01*
X122428000Y-120575605D01*
X122413858Y-120589748D01*
X122234253Y-120410143D01*
X122248395Y-120396000D01*
X121478226Y-119625831D01*
X121240389Y-119690131D01*
X121060667Y-120198342D01*
X121089108Y-120736644D01*
X121240389Y-121101869D01*
X121478224Y-121166168D01*
X121434392Y-121210000D01*
X117649463Y-121210000D01*
X117895000Y-120617222D01*
X117895000Y-119966778D01*
X117679381Y-119446226D01*
X121657831Y-119446226D01*
X122428000Y-120216395D01*
X123198169Y-119446226D01*
X123133869Y-119208389D01*
X122625658Y-119028667D01*
X122087356Y-119057108D01*
X121722131Y-119208389D01*
X121657831Y-119446226D01*
X117679381Y-119446226D01*
X117646086Y-119365847D01*
X117186153Y-118905914D01*
X116585222Y-118657000D01*
X115934778Y-118657000D01*
X115333847Y-118905914D01*
X114873914Y-119365847D01*
X114625000Y-119966778D01*
X114625000Y-120617222D01*
X114870537Y-121210000D01*
X113061094Y-121210000D01*
X113179387Y-121166264D01*
X113405908Y-120556539D01*
X113381856Y-119906540D01*
X113179387Y-119417736D01*
X112912532Y-119319073D01*
X111939605Y-120292000D01*
X111953748Y-120306143D01*
X111774143Y-120485748D01*
X111760000Y-120471605D01*
X111745858Y-120485748D01*
X111566253Y-120306143D01*
X111580395Y-120292000D01*
X110607468Y-119319073D01*
X110438000Y-119381730D01*
X110438000Y-119139468D01*
X110787073Y-119139468D01*
X111760000Y-120112395D01*
X112732927Y-119139468D01*
X112634264Y-118872613D01*
X112024539Y-118646092D01*
X111374540Y-118670144D01*
X110885736Y-118872613D01*
X110787073Y-119139468D01*
X110438000Y-119139468D01*
X110438000Y-117586474D01*
X123613000Y-117586474D01*
X123613000Y-118125526D01*
X123819286Y-118623546D01*
X124200454Y-119004714D01*
X124698474Y-119211000D01*
X125237526Y-119211000D01*
X125735546Y-119004714D01*
X126116714Y-118623546D01*
X126323000Y-118125526D01*
X126323000Y-117586474D01*
X126116714Y-117088454D01*
X125735546Y-116707286D01*
X125237526Y-116501000D01*
X124698474Y-116501000D01*
X124200454Y-116707286D01*
X123819286Y-117088454D01*
X123613000Y-117586474D01*
X110438000Y-117586474D01*
X110438000Y-114944532D01*
X110787073Y-114944532D01*
X110885736Y-115211387D01*
X111495461Y-115437908D01*
X112145460Y-115413856D01*
X112634264Y-115211387D01*
X112732927Y-114944532D01*
X111760000Y-113971605D01*
X110787073Y-114944532D01*
X110438000Y-114944532D01*
X110438000Y-114702270D01*
X110607468Y-114764927D01*
X111580395Y-113792000D01*
X111939605Y-113792000D01*
X112912532Y-114764927D01*
X113179387Y-114666264D01*
X113405908Y-114056539D01*
X113384085Y-113466778D01*
X114625000Y-113466778D01*
X114625000Y-114117222D01*
X114873914Y-114718153D01*
X115333847Y-115178086D01*
X115934778Y-115427000D01*
X116585222Y-115427000D01*
X117186153Y-115178086D01*
X117317765Y-115046474D01*
X121073000Y-115046474D01*
X121073000Y-115585526D01*
X121279286Y-116083546D01*
X121660454Y-116464714D01*
X122158474Y-116671000D01*
X122697526Y-116671000D01*
X123195546Y-116464714D01*
X123576714Y-116083546D01*
X123783000Y-115585526D01*
X123783000Y-115046474D01*
X123576714Y-114548454D01*
X123195546Y-114167286D01*
X122697526Y-113961000D01*
X122158474Y-113961000D01*
X121660454Y-114167286D01*
X121279286Y-114548454D01*
X121073000Y-115046474D01*
X117317765Y-115046474D01*
X117646086Y-114718153D01*
X117895000Y-114117222D01*
X117895000Y-113466778D01*
X117646086Y-112865847D01*
X117186153Y-112405914D01*
X116693316Y-112201774D01*
X121657831Y-112201774D01*
X121722131Y-112439611D01*
X122230342Y-112619333D01*
X122768644Y-112590892D01*
X123133869Y-112439611D01*
X123198169Y-112201774D01*
X122428000Y-111431605D01*
X121657831Y-112201774D01*
X116693316Y-112201774D01*
X116585222Y-112157000D01*
X115934778Y-112157000D01*
X115333847Y-112405914D01*
X114873914Y-112865847D01*
X114625000Y-113466778D01*
X113384085Y-113466778D01*
X113381856Y-113406540D01*
X113179387Y-112917736D01*
X112912532Y-112819073D01*
X111939605Y-113792000D01*
X111580395Y-113792000D01*
X110607468Y-112819073D01*
X110438000Y-112881730D01*
X110438000Y-112639468D01*
X110787073Y-112639468D01*
X111760000Y-113612395D01*
X112732927Y-112639468D01*
X112634264Y-112372613D01*
X112024539Y-112146092D01*
X111374540Y-112170144D01*
X110885736Y-112372613D01*
X110787073Y-112639468D01*
X110438000Y-112639468D01*
X110438000Y-111054342D01*
X121060667Y-111054342D01*
X121089108Y-111592644D01*
X121240389Y-111957869D01*
X121478226Y-112022169D01*
X122248395Y-111252000D01*
X122607605Y-111252000D01*
X123377774Y-112022169D01*
X123615611Y-111957869D01*
X123795333Y-111449658D01*
X123766892Y-110911356D01*
X123615611Y-110546131D01*
X123377774Y-110481831D01*
X122607605Y-111252000D01*
X122248395Y-111252000D01*
X121478226Y-110481831D01*
X121240389Y-110546131D01*
X121060667Y-111054342D01*
X110438000Y-111054342D01*
X110438000Y-110302226D01*
X121657831Y-110302226D01*
X122428000Y-111072395D01*
X123198169Y-110302226D01*
X123133869Y-110064389D01*
X122625658Y-109884667D01*
X122087356Y-109913108D01*
X121722131Y-110064389D01*
X121657831Y-110302226D01*
X110438000Y-110302226D01*
X110438000Y-105156000D01*
X111111908Y-105156000D01*
X111227161Y-105735418D01*
X111555375Y-106226625D01*
X111619156Y-106269242D01*
X111391414Y-106421414D01*
X111196874Y-106712565D01*
X111128560Y-107056000D01*
X111128560Y-108256000D01*
X111196874Y-108599435D01*
X111391414Y-108890586D01*
X111682565Y-109085126D01*
X112026000Y-109153440D01*
X113526000Y-109153440D01*
X113869435Y-109085126D01*
X114160586Y-108890586D01*
X114355126Y-108599435D01*
X114386347Y-108442474D01*
X123613000Y-108442474D01*
X123613000Y-108981526D01*
X123819286Y-109479546D01*
X124200454Y-109860714D01*
X124698474Y-110067000D01*
X125237526Y-110067000D01*
X125735546Y-109860714D01*
X126116714Y-109479546D01*
X126323000Y-108981526D01*
X126323000Y-108442474D01*
X126116714Y-107944454D01*
X125735546Y-107563286D01*
X125237526Y-107357000D01*
X124698474Y-107357000D01*
X124200454Y-107563286D01*
X123819286Y-107944454D01*
X123613000Y-108442474D01*
X114386347Y-108442474D01*
X114423440Y-108256000D01*
X114423440Y-107056000D01*
X114355126Y-106712565D01*
X114160586Y-106421414D01*
X113932844Y-106269242D01*
X113996625Y-106226625D01*
X114213215Y-105902474D01*
X121073000Y-105902474D01*
X121073000Y-106441526D01*
X121279286Y-106939546D01*
X121660454Y-107320714D01*
X122158474Y-107527000D01*
X122697526Y-107527000D01*
X123195546Y-107320714D01*
X123576714Y-106939546D01*
X123783000Y-106441526D01*
X123783000Y-105902474D01*
X123576714Y-105404454D01*
X123195546Y-105023286D01*
X122697526Y-104817000D01*
X122158474Y-104817000D01*
X121660454Y-105023286D01*
X121279286Y-105404454D01*
X121073000Y-105902474D01*
X114213215Y-105902474D01*
X114324839Y-105735418D01*
X114440092Y-105156000D01*
X114324839Y-104576582D01*
X113996625Y-104085375D01*
X113505418Y-103757161D01*
X113072256Y-103671000D01*
X112479744Y-103671000D01*
X112046582Y-103757161D01*
X111555375Y-104085375D01*
X111227161Y-104576582D01*
X111111908Y-105156000D01*
X110438000Y-105156000D01*
X110438000Y-87621750D01*
X111141000Y-87621750D01*
X111141000Y-88312309D01*
X111237673Y-88545698D01*
X111416301Y-88724327D01*
X111649690Y-88821000D01*
X112490250Y-88821000D01*
X112649000Y-88662250D01*
X112649000Y-87463000D01*
X112903000Y-87463000D01*
X112903000Y-88662250D01*
X113061750Y-88821000D01*
X113902310Y-88821000D01*
X114135699Y-88724327D01*
X114314327Y-88545698D01*
X114411000Y-88312309D01*
X114411000Y-87621750D01*
X114252250Y-87463000D01*
X112903000Y-87463000D01*
X112649000Y-87463000D01*
X111299750Y-87463000D01*
X111141000Y-87621750D01*
X110438000Y-87621750D01*
X110438000Y-84836000D01*
X111111908Y-84836000D01*
X111227161Y-85415418D01*
X111546709Y-85893656D01*
X111416301Y-85947673D01*
X111237673Y-86126302D01*
X111141000Y-86359691D01*
X111141000Y-87050250D01*
X111299750Y-87209000D01*
X112649000Y-87209000D01*
X112649000Y-87189000D01*
X112903000Y-87189000D01*
X112903000Y-87209000D01*
X114252250Y-87209000D01*
X114411000Y-87050250D01*
X114411000Y-86359691D01*
X114314327Y-86126302D01*
X114135699Y-85947673D01*
X114005291Y-85893656D01*
X114324839Y-85415418D01*
X114440092Y-84836000D01*
X114324839Y-84256582D01*
X113996625Y-83765375D01*
X113505418Y-83437161D01*
X113072256Y-83351000D01*
X112479744Y-83351000D01*
X112046582Y-83437161D01*
X111555375Y-83765375D01*
X111227161Y-84256582D01*
X111111908Y-84836000D01*
X110438000Y-84836000D01*
X110438000Y-82498000D01*
X129418217Y-82498000D01*
X128750938Y-82774396D01*
M02*
