%TF.GenerationSoftware,KiCad,Pcbnew,5.0.2+dfsg1-1*%
%TF.CreationDate,2022-03-26T23:48:49+09:00*%
%TF.ProjectId,pwm-esc,70776d2d-6573-4632-9e6b-696361645f70,rev?*%
%TF.SameCoordinates,Original*%
%TF.FileFunction,Legend,Top*%
%TF.FilePolarity,Positive*%
%FSLAX46Y46*%
G04 Gerber Fmt 4.6, Leading zero omitted, Abs format (unit mm)*
G04 Created by KiCad (PCBNEW 5.0.2+dfsg1-1) date Sat 26 Mar 2022 11:48:49 PM JST*
%MOMM*%
%LPD*%
G01*
G04 APERTURE LIST*
%ADD10C,0.200000*%
%ADD11C,0.150000*%
%ADD12C,0.120000*%
G04 APERTURE END LIST*
D10*
X124753619Y-93726095D02*
X124753619Y-94345142D01*
X124372666Y-94011809D01*
X124372666Y-94154666D01*
X124325047Y-94249904D01*
X124277428Y-94297523D01*
X124182190Y-94345142D01*
X123944095Y-94345142D01*
X123848857Y-94297523D01*
X123801238Y-94249904D01*
X123753619Y-94154666D01*
X123753619Y-93868952D01*
X123801238Y-93773714D01*
X123848857Y-93726095D01*
X124039333Y-94726095D02*
X124039333Y-95202285D01*
X123753619Y-94630857D02*
X124753619Y-94964190D01*
X123753619Y-95297523D01*
D11*
G36*
X120142000Y-93726000D02*
X119888000Y-93980000D01*
X120396000Y-93980000D01*
X120142000Y-93726000D01*
G37*
X120142000Y-93726000D02*
X119888000Y-93980000D01*
X120396000Y-93980000D01*
X120142000Y-93726000D01*
D10*
X120213428Y-95377142D02*
X120213428Y-95043809D01*
X119689619Y-95043809D02*
X120689619Y-95043809D01*
X120689619Y-95520000D01*
X120356285Y-96329523D02*
X119689619Y-96329523D01*
X120356285Y-95900952D02*
X119832476Y-95900952D01*
X119737238Y-95948571D01*
X119689619Y-96043809D01*
X119689619Y-96186666D01*
X119737238Y-96281904D01*
X119784857Y-96329523D01*
X119737238Y-96758095D02*
X119689619Y-96853333D01*
X119689619Y-97043809D01*
X119737238Y-97139047D01*
X119832476Y-97186666D01*
X119880095Y-97186666D01*
X119975333Y-97139047D01*
X120022952Y-97043809D01*
X120022952Y-96900952D01*
X120070571Y-96805714D01*
X120165809Y-96758095D01*
X120213428Y-96758095D01*
X120308666Y-96805714D01*
X120356285Y-96900952D01*
X120356285Y-97043809D01*
X120308666Y-97139047D01*
X119737238Y-97996190D02*
X119689619Y-97900952D01*
X119689619Y-97710476D01*
X119737238Y-97615238D01*
X119832476Y-97567619D01*
X120213428Y-97567619D01*
X120308666Y-97615238D01*
X120356285Y-97710476D01*
X120356285Y-97900952D01*
X120308666Y-97996190D01*
X120213428Y-98043809D01*
X120118190Y-98043809D01*
X120022952Y-97567619D01*
X165806380Y-101290285D02*
X165330190Y-101623619D01*
X165806380Y-101861714D02*
X164806380Y-101861714D01*
X164806380Y-101480761D01*
X164854000Y-101385523D01*
X164901619Y-101337904D01*
X164996857Y-101290285D01*
X165139714Y-101290285D01*
X165234952Y-101337904D01*
X165282571Y-101385523D01*
X165330190Y-101480761D01*
X165330190Y-101861714D01*
X165758761Y-100480761D02*
X165806380Y-100576000D01*
X165806380Y-100766476D01*
X165758761Y-100861714D01*
X165663523Y-100909333D01*
X165282571Y-100909333D01*
X165187333Y-100861714D01*
X165139714Y-100766476D01*
X165139714Y-100576000D01*
X165187333Y-100480761D01*
X165282571Y-100433142D01*
X165377809Y-100433142D01*
X165473047Y-100909333D01*
X165139714Y-100099809D02*
X165806380Y-99861714D01*
X165139714Y-99623619D01*
X165711142Y-99242666D02*
X165758761Y-99195047D01*
X165806380Y-99242666D01*
X165758761Y-99290285D01*
X165711142Y-99242666D01*
X165806380Y-99242666D01*
X165806380Y-98242666D02*
X165806380Y-98814095D01*
X165806380Y-98528380D02*
X164806380Y-98528380D01*
X164949238Y-98623619D01*
X165044476Y-98718857D01*
X165092095Y-98814095D01*
X164028380Y-113116571D02*
X163028380Y-113116571D01*
X163028380Y-112735619D01*
X163076000Y-112640380D01*
X163123619Y-112592761D01*
X163218857Y-112545142D01*
X163361714Y-112545142D01*
X163456952Y-112592761D01*
X163504571Y-112640380D01*
X163552190Y-112735619D01*
X163552190Y-113116571D01*
X163028380Y-112211809D02*
X164028380Y-111973714D01*
X163314095Y-111783238D01*
X164028380Y-111592761D01*
X163028380Y-111354666D01*
X164028380Y-110973714D02*
X163028380Y-110973714D01*
X163742666Y-110640380D01*
X163028380Y-110307047D01*
X164028380Y-110307047D01*
X163647428Y-109830857D02*
X163647428Y-109068952D01*
X163504571Y-108592761D02*
X163504571Y-108259428D01*
X164028380Y-108116571D02*
X164028380Y-108592761D01*
X163028380Y-108592761D01*
X163028380Y-108116571D01*
X163980761Y-107735619D02*
X164028380Y-107592761D01*
X164028380Y-107354666D01*
X163980761Y-107259428D01*
X163933142Y-107211809D01*
X163837904Y-107164190D01*
X163742666Y-107164190D01*
X163647428Y-107211809D01*
X163599809Y-107259428D01*
X163552190Y-107354666D01*
X163504571Y-107545142D01*
X163456952Y-107640380D01*
X163409333Y-107688000D01*
X163314095Y-107735619D01*
X163218857Y-107735619D01*
X163123619Y-107688000D01*
X163076000Y-107640380D01*
X163028380Y-107545142D01*
X163028380Y-107307047D01*
X163076000Y-107164190D01*
X163933142Y-106164190D02*
X163980761Y-106211809D01*
X164028380Y-106354666D01*
X164028380Y-106449904D01*
X163980761Y-106592761D01*
X163885523Y-106688000D01*
X163790285Y-106735619D01*
X163599809Y-106783238D01*
X163456952Y-106783238D01*
X163266476Y-106735619D01*
X163171238Y-106688000D01*
X163076000Y-106592761D01*
X163028380Y-106449904D01*
X163028380Y-106354666D01*
X163076000Y-106211809D01*
X163123619Y-106164190D01*
X163647428Y-105735619D02*
X163647428Y-104973714D01*
X163504571Y-104164190D02*
X163552190Y-104021333D01*
X163599809Y-103973714D01*
X163695047Y-103926095D01*
X163837904Y-103926095D01*
X163933142Y-103973714D01*
X163980761Y-104021333D01*
X164028380Y-104116571D01*
X164028380Y-104497523D01*
X163028380Y-104497523D01*
X163028380Y-104164190D01*
X163076000Y-104068952D01*
X163123619Y-104021333D01*
X163218857Y-103973714D01*
X163314095Y-103973714D01*
X163409333Y-104021333D01*
X163456952Y-104068952D01*
X163504571Y-104164190D01*
X163504571Y-104497523D01*
X163742666Y-103545142D02*
X163742666Y-103068952D01*
X164028380Y-103640380D02*
X163028380Y-103307047D01*
X164028380Y-102973714D01*
X163980761Y-102688000D02*
X164028380Y-102545142D01*
X164028380Y-102307047D01*
X163980761Y-102211809D01*
X163933142Y-102164190D01*
X163837904Y-102116571D01*
X163742666Y-102116571D01*
X163647428Y-102164190D01*
X163599809Y-102211809D01*
X163552190Y-102307047D01*
X163504571Y-102497523D01*
X163456952Y-102592761D01*
X163409333Y-102640380D01*
X163314095Y-102688000D01*
X163218857Y-102688000D01*
X163123619Y-102640380D01*
X163076000Y-102592761D01*
X163028380Y-102497523D01*
X163028380Y-102259428D01*
X163076000Y-102116571D01*
X163504571Y-101688000D02*
X163504571Y-101354666D01*
X164028380Y-101211809D02*
X164028380Y-101688000D01*
X163028380Y-101688000D01*
X163028380Y-101211809D01*
X151106285Y-118054380D02*
X151106285Y-117054380D01*
X151677714Y-118054380D01*
X151677714Y-117054380D01*
X152725333Y-117959142D02*
X152677714Y-118006761D01*
X152534857Y-118054380D01*
X152439619Y-118054380D01*
X152296761Y-118006761D01*
X152201523Y-117911523D01*
X152153904Y-117816285D01*
X152106285Y-117625809D01*
X152106285Y-117482952D01*
X152153904Y-117292476D01*
X152201523Y-117197238D01*
X152296761Y-117102000D01*
X152439619Y-117054380D01*
X152534857Y-117054380D01*
X152677714Y-117102000D01*
X152725333Y-117149619D01*
X150852285Y-86812380D02*
X150852285Y-85812380D01*
X151423714Y-86812380D01*
X151423714Y-85812380D01*
X152471333Y-86717142D02*
X152423714Y-86764761D01*
X152280857Y-86812380D01*
X152185619Y-86812380D01*
X152042761Y-86764761D01*
X151947523Y-86669523D01*
X151899904Y-86574285D01*
X151852285Y-86383809D01*
X151852285Y-86240952D01*
X151899904Y-86050476D01*
X151947523Y-85955238D01*
X152042761Y-85860000D01*
X152185619Y-85812380D01*
X152280857Y-85812380D01*
X152423714Y-85860000D01*
X152471333Y-85907619D01*
X149352000Y-86614000D02*
X148590000Y-86614000D01*
X149352000Y-85344000D02*
X149352000Y-86614000D01*
X139192000Y-86614000D02*
X139954000Y-86614000D01*
X139192000Y-85598000D02*
X139192000Y-86614000D01*
X149352000Y-117602000D02*
X148590000Y-117602000D01*
X149352000Y-118364000D02*
X149352000Y-117602000D01*
X139192000Y-117602000D02*
X139954000Y-117602000D01*
X139192000Y-118364000D02*
X139192000Y-117602000D01*
X116332000Y-111760000D02*
X115824000Y-111760000D01*
X116332000Y-112268000D02*
X116332000Y-111760000D01*
X111760000Y-111760000D02*
X112268000Y-111760000D01*
X111760000Y-112268000D02*
X111760000Y-111760000D01*
X113498380Y-112212380D02*
X113165047Y-111736190D01*
X112926952Y-112212380D02*
X112926952Y-111212380D01*
X113307904Y-111212380D01*
X113403142Y-111260000D01*
X113450761Y-111307619D01*
X113498380Y-111402857D01*
X113498380Y-111545714D01*
X113450761Y-111640952D01*
X113403142Y-111688571D01*
X113307904Y-111736190D01*
X112926952Y-111736190D01*
X113879333Y-112164761D02*
X114022190Y-112212380D01*
X114260285Y-112212380D01*
X114355523Y-112164761D01*
X114403142Y-112117142D01*
X114450761Y-112021904D01*
X114450761Y-111926666D01*
X114403142Y-111831428D01*
X114355523Y-111783809D01*
X114260285Y-111736190D01*
X114069809Y-111688571D01*
X113974571Y-111640952D01*
X113926952Y-111593333D01*
X113879333Y-111498095D01*
X113879333Y-111402857D01*
X113926952Y-111307619D01*
X113974571Y-111260000D01*
X114069809Y-111212380D01*
X114307904Y-111212380D01*
X114450761Y-111260000D01*
X114736476Y-111212380D02*
X115307904Y-111212380D01*
X115022190Y-112212380D02*
X115022190Y-111212380D01*
X121142285Y-113688761D02*
X121285142Y-113736380D01*
X121523238Y-113736380D01*
X121618476Y-113688761D01*
X121666095Y-113641142D01*
X121713714Y-113545904D01*
X121713714Y-113450666D01*
X121666095Y-113355428D01*
X121618476Y-113307809D01*
X121523238Y-113260190D01*
X121332761Y-113212571D01*
X121237523Y-113164952D01*
X121189904Y-113117333D01*
X121142285Y-113022095D01*
X121142285Y-112926857D01*
X121189904Y-112831619D01*
X121237523Y-112784000D01*
X121332761Y-112736380D01*
X121570857Y-112736380D01*
X121713714Y-112784000D01*
X122142285Y-113736380D02*
X122142285Y-112736380D01*
X122523238Y-112736380D01*
X122618476Y-112784000D01*
X122666095Y-112831619D01*
X122713714Y-112926857D01*
X122713714Y-113069714D01*
X122666095Y-113164952D01*
X122618476Y-113212571D01*
X122523238Y-113260190D01*
X122142285Y-113260190D01*
X123142285Y-113736380D02*
X123142285Y-112736380D01*
X123380380Y-112736380D01*
X123523238Y-112784000D01*
X123618476Y-112879238D01*
X123666095Y-112974476D01*
X123713714Y-113164952D01*
X123713714Y-113307809D01*
X123666095Y-113498285D01*
X123618476Y-113593523D01*
X123523238Y-113688761D01*
X123380380Y-113736380D01*
X123142285Y-113736380D01*
D11*
G36*
X125984000Y-113284000D02*
X124968000Y-113284000D01*
X125476000Y-113792000D01*
X125984000Y-113284000D01*
G37*
X125984000Y-113284000D02*
X124968000Y-113284000D01*
X125476000Y-113792000D01*
X125984000Y-113284000D01*
G36*
X119380000Y-112776000D02*
X118872000Y-113284000D01*
X119888000Y-113284000D01*
X119380000Y-112776000D01*
G37*
X119380000Y-112776000D02*
X118872000Y-113284000D01*
X119888000Y-113284000D01*
X119380000Y-112776000D01*
D10*
X153924095Y-85860000D02*
X153828857Y-85812380D01*
X153686000Y-85812380D01*
X153543142Y-85860000D01*
X153447904Y-85955238D01*
X153400285Y-86050476D01*
X153352666Y-86240952D01*
X153352666Y-86383809D01*
X153400285Y-86574285D01*
X153447904Y-86669523D01*
X153543142Y-86764761D01*
X153686000Y-86812380D01*
X153781238Y-86812380D01*
X153924095Y-86764761D01*
X153971714Y-86717142D01*
X153971714Y-86383809D01*
X153781238Y-86383809D01*
X154400285Y-86812380D02*
X154400285Y-85812380D01*
X154971714Y-86812380D01*
X154971714Y-85812380D01*
X155447904Y-86812380D02*
X155447904Y-85812380D01*
X155686000Y-85812380D01*
X155828857Y-85860000D01*
X155924095Y-85955238D01*
X155971714Y-86050476D01*
X156019333Y-86240952D01*
X156019333Y-86383809D01*
X155971714Y-86574285D01*
X155924095Y-86669523D01*
X155828857Y-86764761D01*
X155686000Y-86812380D01*
X155447904Y-86812380D01*
X153606666Y-118054380D02*
X153606666Y-117054380D01*
X153987619Y-117054380D01*
X154082857Y-117102000D01*
X154130476Y-117149619D01*
X154178095Y-117244857D01*
X154178095Y-117387714D01*
X154130476Y-117482952D01*
X154082857Y-117530571D01*
X153987619Y-117578190D01*
X153606666Y-117578190D01*
X154606666Y-118054380D02*
X154606666Y-117054380D01*
X154987619Y-117054380D01*
X155082857Y-117102000D01*
X155130476Y-117149619D01*
X155178095Y-117244857D01*
X155178095Y-117387714D01*
X155130476Y-117482952D01*
X155082857Y-117530571D01*
X154987619Y-117578190D01*
X154606666Y-117578190D01*
X155606666Y-118054380D02*
X155606666Y-117054380D01*
X155940000Y-117768666D01*
X156273333Y-117054380D01*
X156273333Y-118054380D01*
X141319619Y-117530571D02*
X141652952Y-117530571D01*
X141795809Y-118054380D02*
X141319619Y-118054380D01*
X141319619Y-117054380D01*
X141795809Y-117054380D01*
X142176761Y-118006761D02*
X142319619Y-118054380D01*
X142557714Y-118054380D01*
X142652952Y-118006761D01*
X142700571Y-117959142D01*
X142748190Y-117863904D01*
X142748190Y-117768666D01*
X142700571Y-117673428D01*
X142652952Y-117625809D01*
X142557714Y-117578190D01*
X142367238Y-117530571D01*
X142272000Y-117482952D01*
X142224380Y-117435333D01*
X142176761Y-117340095D01*
X142176761Y-117244857D01*
X142224380Y-117149619D01*
X142272000Y-117102000D01*
X142367238Y-117054380D01*
X142605333Y-117054380D01*
X142748190Y-117102000D01*
X143748190Y-117959142D02*
X143700571Y-118006761D01*
X143557714Y-118054380D01*
X143462476Y-118054380D01*
X143319619Y-118006761D01*
X143224380Y-117911523D01*
X143176761Y-117816285D01*
X143129142Y-117625809D01*
X143129142Y-117482952D01*
X143176761Y-117292476D01*
X143224380Y-117197238D01*
X143319619Y-117102000D01*
X143462476Y-117054380D01*
X143557714Y-117054380D01*
X143700571Y-117102000D01*
X143748190Y-117149619D01*
X145462476Y-118054380D02*
X144891047Y-118054380D01*
X145176761Y-118054380D02*
X145176761Y-117054380D01*
X145081523Y-117197238D01*
X144986285Y-117292476D01*
X144891047Y-117340095D01*
X145843428Y-117149619D02*
X145891047Y-117102000D01*
X145986285Y-117054380D01*
X146224380Y-117054380D01*
X146319619Y-117102000D01*
X146367238Y-117149619D01*
X146414857Y-117244857D01*
X146414857Y-117340095D01*
X146367238Y-117482952D01*
X145795809Y-118054380D01*
X146414857Y-118054380D01*
X146700571Y-117054380D02*
X147033904Y-118054380D01*
X147367238Y-117054380D01*
X141176761Y-86288571D02*
X141510095Y-86288571D01*
X141652952Y-86812380D02*
X141176761Y-86812380D01*
X141176761Y-85812380D01*
X141652952Y-85812380D01*
X142033904Y-86764761D02*
X142176761Y-86812380D01*
X142414857Y-86812380D01*
X142510095Y-86764761D01*
X142557714Y-86717142D01*
X142605333Y-86621904D01*
X142605333Y-86526666D01*
X142557714Y-86431428D01*
X142510095Y-86383809D01*
X142414857Y-86336190D01*
X142224380Y-86288571D01*
X142129142Y-86240952D01*
X142081523Y-86193333D01*
X142033904Y-86098095D01*
X142033904Y-86002857D01*
X142081523Y-85907619D01*
X142129142Y-85860000D01*
X142224380Y-85812380D01*
X142462476Y-85812380D01*
X142605333Y-85860000D01*
X143605333Y-86717142D02*
X143557714Y-86764761D01*
X143414857Y-86812380D01*
X143319619Y-86812380D01*
X143176761Y-86764761D01*
X143081523Y-86669523D01*
X143033904Y-86574285D01*
X142986285Y-86383809D01*
X142986285Y-86240952D01*
X143033904Y-86050476D01*
X143081523Y-85955238D01*
X143176761Y-85860000D01*
X143319619Y-85812380D01*
X143414857Y-85812380D01*
X143557714Y-85860000D01*
X143605333Y-85907619D01*
X145319619Y-85860000D02*
X145224380Y-85812380D01*
X145081523Y-85812380D01*
X144938666Y-85860000D01*
X144843428Y-85955238D01*
X144795809Y-86050476D01*
X144748190Y-86240952D01*
X144748190Y-86383809D01*
X144795809Y-86574285D01*
X144843428Y-86669523D01*
X144938666Y-86764761D01*
X145081523Y-86812380D01*
X145176761Y-86812380D01*
X145319619Y-86764761D01*
X145367238Y-86717142D01*
X145367238Y-86383809D01*
X145176761Y-86383809D01*
X145795809Y-86812380D02*
X145795809Y-85812380D01*
X146367238Y-86812380D01*
X146367238Y-85812380D01*
X146843428Y-86812380D02*
X146843428Y-85812380D01*
X147081523Y-85812380D01*
X147224380Y-85860000D01*
X147319619Y-85955238D01*
X147367238Y-86050476D01*
X147414857Y-86240952D01*
X147414857Y-86383809D01*
X147367238Y-86574285D01*
X147319619Y-86669523D01*
X147224380Y-86764761D01*
X147081523Y-86812380D01*
X146843428Y-86812380D01*
X117276571Y-103783238D02*
X117276571Y-104545142D01*
X116895619Y-104164190D02*
X117657523Y-104164190D01*
X116895619Y-105783238D02*
X117895619Y-105783238D01*
X117895619Y-106164190D01*
X117848000Y-106259428D01*
X117800380Y-106307047D01*
X117705142Y-106354666D01*
X117562285Y-106354666D01*
X117467047Y-106307047D01*
X117419428Y-106259428D01*
X117371809Y-106164190D01*
X117371809Y-105783238D01*
X117895619Y-106688000D02*
X116895619Y-106926095D01*
X117609904Y-107116571D01*
X116895619Y-107307047D01*
X117895619Y-107545142D01*
X116895619Y-107926095D02*
X117895619Y-107926095D01*
X117181333Y-108259428D01*
X117895619Y-108592761D01*
X116895619Y-108592761D01*
X117276571Y-109830857D02*
X117276571Y-110592761D01*
D11*
G36*
X116840000Y-102108000D02*
X116840000Y-103124000D01*
X117348000Y-102616000D01*
X116840000Y-102108000D01*
G37*
X116840000Y-102108000D02*
X116840000Y-103124000D01*
X117348000Y-102616000D01*
X116840000Y-102108000D01*
G36*
X117348000Y-91948000D02*
X117348000Y-92964000D01*
X116840000Y-92456000D01*
X117348000Y-91948000D01*
G37*
X117348000Y-91948000D02*
X117348000Y-92964000D01*
X116840000Y-92456000D01*
X117348000Y-91948000D01*
G36*
X116840000Y-82296000D02*
X116840000Y-83312000D01*
X117348000Y-82804000D01*
X116840000Y-82296000D01*
G37*
X116840000Y-82296000D02*
X116840000Y-83312000D01*
X117348000Y-82804000D01*
X116840000Y-82296000D01*
D10*
X117276571Y-93861333D02*
X117276571Y-94623238D01*
X116895619Y-94242285D02*
X117657523Y-94242285D01*
X116943238Y-95813714D02*
X116895619Y-95956571D01*
X116895619Y-96194666D01*
X116943238Y-96289904D01*
X116990857Y-96337523D01*
X117086095Y-96385142D01*
X117181333Y-96385142D01*
X117276571Y-96337523D01*
X117324190Y-96289904D01*
X117371809Y-96194666D01*
X117419428Y-96004190D01*
X117467047Y-95908952D01*
X117514666Y-95861333D01*
X117609904Y-95813714D01*
X117705142Y-95813714D01*
X117800380Y-95861333D01*
X117848000Y-95908952D01*
X117895619Y-96004190D01*
X117895619Y-96242285D01*
X117848000Y-96385142D01*
X116990857Y-97385142D02*
X116943238Y-97337523D01*
X116895619Y-97194666D01*
X116895619Y-97099428D01*
X116943238Y-96956571D01*
X117038476Y-96861333D01*
X117133714Y-96813714D01*
X117324190Y-96766095D01*
X117467047Y-96766095D01*
X117657523Y-96813714D01*
X117752761Y-96861333D01*
X117848000Y-96956571D01*
X117895619Y-97099428D01*
X117895619Y-97194666D01*
X117848000Y-97337523D01*
X117800380Y-97385142D01*
X117419428Y-98147047D02*
X117419428Y-97813714D01*
X116895619Y-97813714D02*
X117895619Y-97813714D01*
X117895619Y-98289904D01*
X117276571Y-99432761D02*
X117276571Y-100194666D01*
X117276571Y-83725142D02*
X117276571Y-84487047D01*
X116895619Y-84106095D02*
X117657523Y-84106095D01*
X117800380Y-85677523D02*
X117848000Y-85725142D01*
X117895619Y-85820380D01*
X117895619Y-86058476D01*
X117848000Y-86153714D01*
X117800380Y-86201333D01*
X117705142Y-86248952D01*
X117609904Y-86248952D01*
X117467047Y-86201333D01*
X116895619Y-85629904D01*
X116895619Y-86248952D01*
X117562285Y-87106095D02*
X116895619Y-87106095D01*
X117943238Y-86868000D02*
X117228952Y-86629904D01*
X117228952Y-87248952D01*
X117895619Y-87487047D02*
X116895619Y-87820380D01*
X117895619Y-88153714D01*
X117276571Y-89248952D02*
X117276571Y-90010857D01*
D11*
X109728000Y-121920000D02*
X109728000Y-81788000D01*
X184912000Y-121920000D02*
X109728000Y-121920000D01*
X184912000Y-81788000D02*
X184912000Y-121920000D01*
X109728000Y-81788000D02*
X184912000Y-81788000D01*
D12*
X124662000Y-100830748D02*
X124662000Y-101353252D01*
X123242000Y-100830748D02*
X123242000Y-101353252D01*
X182139000Y-82220509D02*
X180539000Y-82220509D01*
X181339000Y-81420509D02*
X181339000Y-83020509D01*
X177549000Y-98191000D02*
X176019000Y-98191000D01*
X177882000Y-98151000D02*
X175686000Y-98151000D01*
X178135000Y-98111000D02*
X175433000Y-98111000D01*
X178348000Y-98071000D02*
X175220000Y-98071000D01*
X178536000Y-98031000D02*
X175032000Y-98031000D01*
X178704000Y-97991000D02*
X174864000Y-97991000D01*
X178858000Y-97951000D02*
X174710000Y-97951000D01*
X179002000Y-97911000D02*
X174566000Y-97911000D01*
X179135000Y-97871000D02*
X174433000Y-97871000D01*
X179262000Y-97831000D02*
X174306000Y-97831000D01*
X179381000Y-97791000D02*
X174187000Y-97791000D01*
X179495000Y-97751000D02*
X174073000Y-97751000D01*
X179604000Y-97711000D02*
X173964000Y-97711000D01*
X179708000Y-97671000D02*
X173860000Y-97671000D01*
X179808000Y-97631000D02*
X173760000Y-97631000D01*
X179904000Y-97591000D02*
X173664000Y-97591000D01*
X179997000Y-97551000D02*
X173571000Y-97551000D01*
X180087000Y-97511000D02*
X173481000Y-97511000D01*
X180174000Y-97471000D02*
X173394000Y-97471000D01*
X180259000Y-97431000D02*
X173309000Y-97431000D01*
X180341000Y-97391000D02*
X173227000Y-97391000D01*
X180421000Y-97351000D02*
X173147000Y-97351000D01*
X180499000Y-97311000D02*
X173069000Y-97311000D01*
X180574000Y-97271000D02*
X172994000Y-97271000D01*
X180648000Y-97231000D02*
X172920000Y-97231000D01*
X180720000Y-97191000D02*
X172848000Y-97191000D01*
X180791000Y-97151000D02*
X172777000Y-97151000D01*
X180860000Y-97111000D02*
X172708000Y-97111000D01*
X180927000Y-97071000D02*
X172641000Y-97071000D01*
X180993000Y-97031000D02*
X172575000Y-97031000D01*
X181057000Y-96991000D02*
X172511000Y-96991000D01*
X181120000Y-96951000D02*
X172448000Y-96951000D01*
X181182000Y-96911000D02*
X172386000Y-96911000D01*
X181243000Y-96871000D02*
X172325000Y-96871000D01*
X181303000Y-96831000D02*
X172265000Y-96831000D01*
X181361000Y-96791000D02*
X172207000Y-96791000D01*
X181418000Y-96751000D02*
X172150000Y-96751000D01*
X181475000Y-96711000D02*
X172093000Y-96711000D01*
X181530000Y-96671000D02*
X172038000Y-96671000D01*
X181584000Y-96631000D02*
X171984000Y-96631000D01*
X181638000Y-96591000D02*
X171930000Y-96591000D01*
X181690000Y-96551000D02*
X171878000Y-96551000D01*
X181742000Y-96511000D02*
X171826000Y-96511000D01*
X181793000Y-96471000D02*
X171775000Y-96471000D01*
X181843000Y-96431000D02*
X171725000Y-96431000D01*
X181892000Y-96391000D02*
X171676000Y-96391000D01*
X181940000Y-96351000D02*
X171628000Y-96351000D01*
X181988000Y-96311000D02*
X171580000Y-96311000D01*
X182035000Y-96271000D02*
X171533000Y-96271000D01*
X182081000Y-96231000D02*
X171487000Y-96231000D01*
X182127000Y-96191000D02*
X171441000Y-96191000D01*
X182172000Y-96151000D02*
X171396000Y-96151000D01*
X182216000Y-96111000D02*
X171352000Y-96111000D01*
X182259000Y-96071000D02*
X171309000Y-96071000D01*
X182302000Y-96031000D02*
X171266000Y-96031000D01*
X182344000Y-95991000D02*
X171224000Y-95991000D01*
X182386000Y-95951000D02*
X171182000Y-95951000D01*
X182427000Y-95911000D02*
X171141000Y-95911000D01*
X182468000Y-95871000D02*
X171100000Y-95871000D01*
X182508000Y-95831000D02*
X171060000Y-95831000D01*
X182547000Y-95791000D02*
X171021000Y-95791000D01*
X182586000Y-95751000D02*
X170982000Y-95751000D01*
X182624000Y-95711000D02*
X170944000Y-95711000D01*
X182662000Y-95671000D02*
X170906000Y-95671000D01*
X182700000Y-95631000D02*
X170868000Y-95631000D01*
X182736000Y-95591000D02*
X170832000Y-95591000D01*
X182773000Y-95551000D02*
X170795000Y-95551000D01*
X182809000Y-95511000D02*
X170759000Y-95511000D01*
X182844000Y-95471000D02*
X170724000Y-95471000D01*
X182879000Y-95431000D02*
X170689000Y-95431000D01*
X182913000Y-95391000D02*
X170655000Y-95391000D01*
X182947000Y-95351000D02*
X170621000Y-95351000D01*
X182981000Y-95311000D02*
X170587000Y-95311000D01*
X175344000Y-95271000D02*
X170554000Y-95271000D01*
X183014000Y-95271000D02*
X178224000Y-95271000D01*
X175344000Y-95231000D02*
X170521000Y-95231000D01*
X183047000Y-95231000D02*
X178224000Y-95231000D01*
X175344000Y-95191000D02*
X170489000Y-95191000D01*
X183079000Y-95191000D02*
X178224000Y-95191000D01*
X175344000Y-95151000D02*
X170457000Y-95151000D01*
X183111000Y-95151000D02*
X178224000Y-95151000D01*
X175344000Y-95111000D02*
X170426000Y-95111000D01*
X183142000Y-95111000D02*
X178224000Y-95111000D01*
X175344000Y-95071000D02*
X170394000Y-95071000D01*
X183174000Y-95071000D02*
X178224000Y-95071000D01*
X175344000Y-95031000D02*
X170364000Y-95031000D01*
X183204000Y-95031000D02*
X178224000Y-95031000D01*
X175344000Y-94991000D02*
X170334000Y-94991000D01*
X183234000Y-94991000D02*
X178224000Y-94991000D01*
X175344000Y-94951000D02*
X170304000Y-94951000D01*
X183264000Y-94951000D02*
X178224000Y-94951000D01*
X175344000Y-94911000D02*
X170274000Y-94911000D01*
X183294000Y-94911000D02*
X178224000Y-94911000D01*
X175344000Y-94871000D02*
X170245000Y-94871000D01*
X183323000Y-94871000D02*
X178224000Y-94871000D01*
X175344000Y-94831000D02*
X170216000Y-94831000D01*
X183352000Y-94831000D02*
X178224000Y-94831000D01*
X175344000Y-94791000D02*
X170188000Y-94791000D01*
X183380000Y-94791000D02*
X178224000Y-94791000D01*
X175344000Y-94751000D02*
X170160000Y-94751000D01*
X183408000Y-94751000D02*
X178224000Y-94751000D01*
X175344000Y-94711000D02*
X170132000Y-94711000D01*
X183436000Y-94711000D02*
X178224000Y-94711000D01*
X175344000Y-94671000D02*
X170105000Y-94671000D01*
X183463000Y-94671000D02*
X178224000Y-94671000D01*
X175344000Y-94631000D02*
X170078000Y-94631000D01*
X183490000Y-94631000D02*
X178224000Y-94631000D01*
X175344000Y-94591000D02*
X170051000Y-94591000D01*
X183517000Y-94591000D02*
X178224000Y-94591000D01*
X175344000Y-94551000D02*
X170025000Y-94551000D01*
X183543000Y-94551000D02*
X178224000Y-94551000D01*
X175344000Y-94511000D02*
X169999000Y-94511000D01*
X183569000Y-94511000D02*
X178224000Y-94511000D01*
X175344000Y-94471000D02*
X169973000Y-94471000D01*
X183595000Y-94471000D02*
X178224000Y-94471000D01*
X175344000Y-94431000D02*
X169948000Y-94431000D01*
X183620000Y-94431000D02*
X178224000Y-94431000D01*
X175344000Y-94391000D02*
X169923000Y-94391000D01*
X183645000Y-94391000D02*
X178224000Y-94391000D01*
X175344000Y-94351000D02*
X169898000Y-94351000D01*
X183670000Y-94351000D02*
X178224000Y-94351000D01*
X175344000Y-94311000D02*
X169874000Y-94311000D01*
X183694000Y-94311000D02*
X178224000Y-94311000D01*
X175344000Y-94271000D02*
X169850000Y-94271000D01*
X183718000Y-94271000D02*
X178224000Y-94271000D01*
X175344000Y-94231000D02*
X169826000Y-94231000D01*
X183742000Y-94231000D02*
X178224000Y-94231000D01*
X175344000Y-94191000D02*
X169803000Y-94191000D01*
X183765000Y-94191000D02*
X178224000Y-94191000D01*
X175344000Y-94151000D02*
X169780000Y-94151000D01*
X183788000Y-94151000D02*
X178224000Y-94151000D01*
X175344000Y-94111000D02*
X169757000Y-94111000D01*
X183811000Y-94111000D02*
X178224000Y-94111000D01*
X175344000Y-94071000D02*
X169735000Y-94071000D01*
X183833000Y-94071000D02*
X178224000Y-94071000D01*
X175344000Y-94031000D02*
X169712000Y-94031000D01*
X183856000Y-94031000D02*
X178224000Y-94031000D01*
X175344000Y-93991000D02*
X169690000Y-93991000D01*
X183878000Y-93991000D02*
X178224000Y-93991000D01*
X175344000Y-93951000D02*
X169669000Y-93951000D01*
X183899000Y-93951000D02*
X178224000Y-93951000D01*
X175344000Y-93911000D02*
X169648000Y-93911000D01*
X183920000Y-93911000D02*
X178224000Y-93911000D01*
X175344000Y-93871000D02*
X169627000Y-93871000D01*
X183941000Y-93871000D02*
X178224000Y-93871000D01*
X175344000Y-93831000D02*
X169606000Y-93831000D01*
X183962000Y-93831000D02*
X178224000Y-93831000D01*
X175344000Y-93791000D02*
X169585000Y-93791000D01*
X183983000Y-93791000D02*
X178224000Y-93791000D01*
X175344000Y-93751000D02*
X169565000Y-93751000D01*
X184003000Y-93751000D02*
X178224000Y-93751000D01*
X175344000Y-93711000D02*
X169545000Y-93711000D01*
X184023000Y-93711000D02*
X178224000Y-93711000D01*
X175344000Y-93671000D02*
X169526000Y-93671000D01*
X184042000Y-93671000D02*
X178224000Y-93671000D01*
X175344000Y-93631000D02*
X169506000Y-93631000D01*
X184062000Y-93631000D02*
X178224000Y-93631000D01*
X175344000Y-93591000D02*
X169487000Y-93591000D01*
X184081000Y-93591000D02*
X178224000Y-93591000D01*
X175344000Y-93551000D02*
X169468000Y-93551000D01*
X184100000Y-93551000D02*
X178224000Y-93551000D01*
X175344000Y-93511000D02*
X169450000Y-93511000D01*
X184118000Y-93511000D02*
X178224000Y-93511000D01*
X175344000Y-93471000D02*
X169431000Y-93471000D01*
X184137000Y-93471000D02*
X178224000Y-93471000D01*
X175344000Y-93431000D02*
X169413000Y-93431000D01*
X184155000Y-93431000D02*
X178224000Y-93431000D01*
X175344000Y-93391000D02*
X169395000Y-93391000D01*
X184173000Y-93391000D02*
X178224000Y-93391000D01*
X175344000Y-93351000D02*
X169378000Y-93351000D01*
X184190000Y-93351000D02*
X178224000Y-93351000D01*
X175344000Y-93311000D02*
X169361000Y-93311000D01*
X184207000Y-93311000D02*
X178224000Y-93311000D01*
X175344000Y-93271000D02*
X169344000Y-93271000D01*
X184224000Y-93271000D02*
X178224000Y-93271000D01*
X175344000Y-93231000D02*
X169327000Y-93231000D01*
X184241000Y-93231000D02*
X178224000Y-93231000D01*
X175344000Y-93191000D02*
X169310000Y-93191000D01*
X184258000Y-93191000D02*
X178224000Y-93191000D01*
X175344000Y-93151000D02*
X169294000Y-93151000D01*
X184274000Y-93151000D02*
X178224000Y-93151000D01*
X175344000Y-93111000D02*
X169278000Y-93111000D01*
X184290000Y-93111000D02*
X178224000Y-93111000D01*
X175344000Y-93071000D02*
X169262000Y-93071000D01*
X184306000Y-93071000D02*
X178224000Y-93071000D01*
X175344000Y-93031000D02*
X169247000Y-93031000D01*
X184321000Y-93031000D02*
X178224000Y-93031000D01*
X175344000Y-92991000D02*
X169231000Y-92991000D01*
X184337000Y-92991000D02*
X178224000Y-92991000D01*
X175344000Y-92951000D02*
X169216000Y-92951000D01*
X184352000Y-92951000D02*
X178224000Y-92951000D01*
X175344000Y-92911000D02*
X169202000Y-92911000D01*
X184366000Y-92911000D02*
X178224000Y-92911000D01*
X175344000Y-92871000D02*
X169187000Y-92871000D01*
X184381000Y-92871000D02*
X178224000Y-92871000D01*
X175344000Y-92831000D02*
X169173000Y-92831000D01*
X184395000Y-92831000D02*
X178224000Y-92831000D01*
X175344000Y-92791000D02*
X169159000Y-92791000D01*
X184409000Y-92791000D02*
X178224000Y-92791000D01*
X175344000Y-92751000D02*
X169145000Y-92751000D01*
X184423000Y-92751000D02*
X178224000Y-92751000D01*
X175344000Y-92711000D02*
X169131000Y-92711000D01*
X184437000Y-92711000D02*
X178224000Y-92711000D01*
X175344000Y-92671000D02*
X169118000Y-92671000D01*
X184450000Y-92671000D02*
X178224000Y-92671000D01*
X175344000Y-92631000D02*
X169104000Y-92631000D01*
X184464000Y-92631000D02*
X178224000Y-92631000D01*
X175344000Y-92591000D02*
X169091000Y-92591000D01*
X184477000Y-92591000D02*
X178224000Y-92591000D01*
X175344000Y-92551000D02*
X169079000Y-92551000D01*
X184489000Y-92551000D02*
X178224000Y-92551000D01*
X175344000Y-92511000D02*
X169066000Y-92511000D01*
X184502000Y-92511000D02*
X178224000Y-92511000D01*
X175344000Y-92471000D02*
X169054000Y-92471000D01*
X184514000Y-92471000D02*
X178224000Y-92471000D01*
X175344000Y-92431000D02*
X169042000Y-92431000D01*
X184526000Y-92431000D02*
X178224000Y-92431000D01*
X184538000Y-92391000D02*
X169030000Y-92391000D01*
X184549000Y-92351000D02*
X169019000Y-92351000D01*
X184561000Y-92311000D02*
X169007000Y-92311000D01*
X184572000Y-92271000D02*
X168996000Y-92271000D01*
X184583000Y-92231000D02*
X168985000Y-92231000D01*
X184594000Y-92191000D02*
X168974000Y-92191000D01*
X184604000Y-92151000D02*
X168964000Y-92151000D01*
X184614000Y-92111000D02*
X168954000Y-92111000D01*
X184624000Y-92071000D02*
X168944000Y-92071000D01*
X184634000Y-92031000D02*
X168934000Y-92031000D01*
X184644000Y-91991000D02*
X168924000Y-91991000D01*
X184653000Y-91951000D02*
X168915000Y-91951000D01*
X184662000Y-91911000D02*
X168906000Y-91911000D01*
X184671000Y-91871000D02*
X168897000Y-91871000D01*
X184680000Y-91831000D02*
X168888000Y-91831000D01*
X184689000Y-91791000D02*
X168879000Y-91791000D01*
X184697000Y-91751000D02*
X168871000Y-91751000D01*
X184705000Y-91711000D02*
X168863000Y-91711000D01*
X184713000Y-91671000D02*
X168855000Y-91671000D01*
X184721000Y-91631000D02*
X168847000Y-91631000D01*
X184728000Y-91591000D02*
X168840000Y-91591000D01*
X184736000Y-91551000D02*
X168832000Y-91551000D01*
X184743000Y-91511000D02*
X168825000Y-91511000D01*
X184750000Y-91471000D02*
X168818000Y-91471000D01*
X184756000Y-91431000D02*
X168812000Y-91431000D01*
X184763000Y-91391000D02*
X168805000Y-91391000D01*
X184769000Y-91351000D02*
X168799000Y-91351000D01*
X184775000Y-91311000D02*
X168793000Y-91311000D01*
X184781000Y-91271000D02*
X168787000Y-91271000D01*
X184787000Y-91231000D02*
X168781000Y-91231000D01*
X184792000Y-91191000D02*
X168776000Y-91191000D01*
X184798000Y-91151000D02*
X168770000Y-91151000D01*
X184803000Y-91111000D02*
X168765000Y-91111000D01*
X184808000Y-91071000D02*
X168760000Y-91071000D01*
X184812000Y-91031000D02*
X168756000Y-91031000D01*
X184817000Y-90991000D02*
X168751000Y-90991000D01*
X184821000Y-90951000D02*
X168747000Y-90951000D01*
X184825000Y-90911000D02*
X168743000Y-90911000D01*
X184829000Y-90871000D02*
X168739000Y-90871000D01*
X184833000Y-90831000D02*
X168735000Y-90831000D01*
X184836000Y-90790000D02*
X168732000Y-90790000D01*
X184839000Y-90750000D02*
X168729000Y-90750000D01*
X184842000Y-90710000D02*
X168726000Y-90710000D01*
X184845000Y-90670000D02*
X168723000Y-90670000D01*
X184848000Y-90630000D02*
X168720000Y-90630000D01*
X184850000Y-90590000D02*
X168718000Y-90590000D01*
X184853000Y-90550000D02*
X168715000Y-90550000D01*
X184855000Y-90510000D02*
X168713000Y-90510000D01*
X184857000Y-90470000D02*
X168711000Y-90470000D01*
X184858000Y-90430000D02*
X168710000Y-90430000D01*
X184860000Y-90390000D02*
X168708000Y-90390000D01*
X184861000Y-90350000D02*
X168707000Y-90350000D01*
X184862000Y-90310000D02*
X168706000Y-90310000D01*
X184863000Y-90270000D02*
X168705000Y-90270000D01*
X184864000Y-90230000D02*
X168704000Y-90230000D01*
X184864000Y-90190000D02*
X168704000Y-90190000D01*
X184864000Y-90150000D02*
X168704000Y-90150000D01*
X184865000Y-90110000D02*
X168703000Y-90110000D01*
X184904000Y-90110000D02*
G75*
G03X184904000Y-90110000I-8120000J0D01*
G01*
X152602000Y-108450748D02*
X152602000Y-108973252D01*
X151182000Y-108450748D02*
X151182000Y-108973252D01*
X175852000Y-101854000D02*
G75*
G03X175852000Y-101854000I-4120000J0D01*
G01*
X171732000Y-97774000D02*
X171732000Y-105934000D01*
X171772000Y-97774000D02*
X171772000Y-105934000D01*
X171812000Y-97774000D02*
X171812000Y-105934000D01*
X171852000Y-97775000D02*
X171852000Y-105933000D01*
X171892000Y-97777000D02*
X171892000Y-105931000D01*
X171932000Y-97778000D02*
X171932000Y-105930000D01*
X171972000Y-97780000D02*
X171972000Y-105928000D01*
X172012000Y-97783000D02*
X172012000Y-105925000D01*
X172052000Y-97786000D02*
X172052000Y-105922000D01*
X172092000Y-97789000D02*
X172092000Y-105919000D01*
X172132000Y-97793000D02*
X172132000Y-105915000D01*
X172172000Y-97797000D02*
X172172000Y-105911000D01*
X172212000Y-97802000D02*
X172212000Y-105906000D01*
X172252000Y-97806000D02*
X172252000Y-105902000D01*
X172292000Y-97812000D02*
X172292000Y-105896000D01*
X172332000Y-97817000D02*
X172332000Y-105891000D01*
X172372000Y-97824000D02*
X172372000Y-105884000D01*
X172412000Y-97830000D02*
X172412000Y-105878000D01*
X172453000Y-97837000D02*
X172453000Y-100814000D01*
X172453000Y-102894000D02*
X172453000Y-105871000D01*
X172493000Y-97844000D02*
X172493000Y-100814000D01*
X172493000Y-102894000D02*
X172493000Y-105864000D01*
X172533000Y-97852000D02*
X172533000Y-100814000D01*
X172533000Y-102894000D02*
X172533000Y-105856000D01*
X172573000Y-97860000D02*
X172573000Y-100814000D01*
X172573000Y-102894000D02*
X172573000Y-105848000D01*
X172613000Y-97869000D02*
X172613000Y-100814000D01*
X172613000Y-102894000D02*
X172613000Y-105839000D01*
X172653000Y-97878000D02*
X172653000Y-100814000D01*
X172653000Y-102894000D02*
X172653000Y-105830000D01*
X172693000Y-97887000D02*
X172693000Y-100814000D01*
X172693000Y-102894000D02*
X172693000Y-105821000D01*
X172733000Y-97897000D02*
X172733000Y-100814000D01*
X172733000Y-102894000D02*
X172733000Y-105811000D01*
X172773000Y-97907000D02*
X172773000Y-100814000D01*
X172773000Y-102894000D02*
X172773000Y-105801000D01*
X172813000Y-97918000D02*
X172813000Y-100814000D01*
X172813000Y-102894000D02*
X172813000Y-105790000D01*
X172853000Y-97929000D02*
X172853000Y-100814000D01*
X172853000Y-102894000D02*
X172853000Y-105779000D01*
X172893000Y-97940000D02*
X172893000Y-100814000D01*
X172893000Y-102894000D02*
X172893000Y-105768000D01*
X172933000Y-97952000D02*
X172933000Y-100814000D01*
X172933000Y-102894000D02*
X172933000Y-105756000D01*
X172973000Y-97965000D02*
X172973000Y-100814000D01*
X172973000Y-102894000D02*
X172973000Y-105743000D01*
X173013000Y-97977000D02*
X173013000Y-100814000D01*
X173013000Y-102894000D02*
X173013000Y-105731000D01*
X173053000Y-97991000D02*
X173053000Y-100814000D01*
X173053000Y-102894000D02*
X173053000Y-105717000D01*
X173093000Y-98004000D02*
X173093000Y-100814000D01*
X173093000Y-102894000D02*
X173093000Y-105704000D01*
X173133000Y-98019000D02*
X173133000Y-100814000D01*
X173133000Y-102894000D02*
X173133000Y-105689000D01*
X173173000Y-98033000D02*
X173173000Y-100814000D01*
X173173000Y-102894000D02*
X173173000Y-105675000D01*
X173213000Y-98049000D02*
X173213000Y-100814000D01*
X173213000Y-102894000D02*
X173213000Y-105659000D01*
X173253000Y-98064000D02*
X173253000Y-100814000D01*
X173253000Y-102894000D02*
X173253000Y-105644000D01*
X173293000Y-98080000D02*
X173293000Y-100814000D01*
X173293000Y-102894000D02*
X173293000Y-105628000D01*
X173333000Y-98097000D02*
X173333000Y-100814000D01*
X173333000Y-102894000D02*
X173333000Y-105611000D01*
X173373000Y-98114000D02*
X173373000Y-100814000D01*
X173373000Y-102894000D02*
X173373000Y-105594000D01*
X173413000Y-98132000D02*
X173413000Y-100814000D01*
X173413000Y-102894000D02*
X173413000Y-105576000D01*
X173453000Y-98150000D02*
X173453000Y-100814000D01*
X173453000Y-102894000D02*
X173453000Y-105558000D01*
X173493000Y-98168000D02*
X173493000Y-100814000D01*
X173493000Y-102894000D02*
X173493000Y-105540000D01*
X173533000Y-98188000D02*
X173533000Y-100814000D01*
X173533000Y-102894000D02*
X173533000Y-105520000D01*
X173573000Y-98207000D02*
X173573000Y-100814000D01*
X173573000Y-102894000D02*
X173573000Y-105501000D01*
X173613000Y-98227000D02*
X173613000Y-100814000D01*
X173613000Y-102894000D02*
X173613000Y-105481000D01*
X173653000Y-98248000D02*
X173653000Y-100814000D01*
X173653000Y-102894000D02*
X173653000Y-105460000D01*
X173693000Y-98270000D02*
X173693000Y-100814000D01*
X173693000Y-102894000D02*
X173693000Y-105438000D01*
X173733000Y-98292000D02*
X173733000Y-100814000D01*
X173733000Y-102894000D02*
X173733000Y-105416000D01*
X173773000Y-98314000D02*
X173773000Y-100814000D01*
X173773000Y-102894000D02*
X173773000Y-105394000D01*
X173813000Y-98337000D02*
X173813000Y-100814000D01*
X173813000Y-102894000D02*
X173813000Y-105371000D01*
X173853000Y-98361000D02*
X173853000Y-100814000D01*
X173853000Y-102894000D02*
X173853000Y-105347000D01*
X173893000Y-98385000D02*
X173893000Y-100814000D01*
X173893000Y-102894000D02*
X173893000Y-105323000D01*
X173933000Y-98410000D02*
X173933000Y-100814000D01*
X173933000Y-102894000D02*
X173933000Y-105298000D01*
X173973000Y-98436000D02*
X173973000Y-100814000D01*
X173973000Y-102894000D02*
X173973000Y-105272000D01*
X174013000Y-98462000D02*
X174013000Y-100814000D01*
X174013000Y-102894000D02*
X174013000Y-105246000D01*
X174053000Y-98489000D02*
X174053000Y-100814000D01*
X174053000Y-102894000D02*
X174053000Y-105219000D01*
X174093000Y-98516000D02*
X174093000Y-100814000D01*
X174093000Y-102894000D02*
X174093000Y-105192000D01*
X174133000Y-98545000D02*
X174133000Y-100814000D01*
X174133000Y-102894000D02*
X174133000Y-105163000D01*
X174173000Y-98574000D02*
X174173000Y-100814000D01*
X174173000Y-102894000D02*
X174173000Y-105134000D01*
X174213000Y-98604000D02*
X174213000Y-100814000D01*
X174213000Y-102894000D02*
X174213000Y-105104000D01*
X174253000Y-98634000D02*
X174253000Y-100814000D01*
X174253000Y-102894000D02*
X174253000Y-105074000D01*
X174293000Y-98665000D02*
X174293000Y-100814000D01*
X174293000Y-102894000D02*
X174293000Y-105043000D01*
X174333000Y-98698000D02*
X174333000Y-100814000D01*
X174333000Y-102894000D02*
X174333000Y-105010000D01*
X174373000Y-98730000D02*
X174373000Y-100814000D01*
X174373000Y-102894000D02*
X174373000Y-104978000D01*
X174413000Y-98764000D02*
X174413000Y-100814000D01*
X174413000Y-102894000D02*
X174413000Y-104944000D01*
X174453000Y-98799000D02*
X174453000Y-100814000D01*
X174453000Y-102894000D02*
X174453000Y-104909000D01*
X174493000Y-98835000D02*
X174493000Y-100814000D01*
X174493000Y-102894000D02*
X174493000Y-104873000D01*
X174533000Y-98871000D02*
X174533000Y-104837000D01*
X174573000Y-98909000D02*
X174573000Y-104799000D01*
X174613000Y-98947000D02*
X174613000Y-104761000D01*
X174653000Y-98987000D02*
X174653000Y-104721000D01*
X174693000Y-99028000D02*
X174693000Y-104680000D01*
X174733000Y-99070000D02*
X174733000Y-104638000D01*
X174773000Y-99113000D02*
X174773000Y-104595000D01*
X174813000Y-99157000D02*
X174813000Y-104551000D01*
X174853000Y-99203000D02*
X174853000Y-104505000D01*
X174893000Y-99250000D02*
X174893000Y-104458000D01*
X174933000Y-99298000D02*
X174933000Y-104410000D01*
X174973000Y-99349000D02*
X174973000Y-104359000D01*
X175013000Y-99400000D02*
X175013000Y-104308000D01*
X175053000Y-99454000D02*
X175053000Y-104254000D01*
X175093000Y-99509000D02*
X175093000Y-104199000D01*
X175133000Y-99567000D02*
X175133000Y-104141000D01*
X175173000Y-99626000D02*
X175173000Y-104082000D01*
X175213000Y-99688000D02*
X175213000Y-104020000D01*
X175253000Y-99752000D02*
X175253000Y-103956000D01*
X175293000Y-99820000D02*
X175293000Y-103888000D01*
X175333000Y-99890000D02*
X175333000Y-103818000D01*
X175373000Y-99964000D02*
X175373000Y-103744000D01*
X175413000Y-100041000D02*
X175413000Y-103667000D01*
X175453000Y-100123000D02*
X175453000Y-103585000D01*
X175493000Y-100209000D02*
X175493000Y-103499000D01*
X175533000Y-100302000D02*
X175533000Y-103406000D01*
X175573000Y-100401000D02*
X175573000Y-103307000D01*
X175613000Y-100508000D02*
X175613000Y-103200000D01*
X175653000Y-100625000D02*
X175653000Y-103083000D01*
X175693000Y-100756000D02*
X175693000Y-102952000D01*
X175733000Y-100906000D02*
X175733000Y-102802000D01*
X175773000Y-101086000D02*
X175773000Y-102622000D01*
X175813000Y-101321000D02*
X175813000Y-102387000D01*
X167322302Y-99539000D02*
X168122302Y-99539000D01*
X167722302Y-99139000D02*
X167722302Y-99939000D01*
X151690000Y-92717252D02*
X151690000Y-92194748D01*
X153110000Y-92717252D02*
X153110000Y-92194748D01*
X129742000Y-112012252D02*
X129742000Y-111489748D01*
X128322000Y-112012252D02*
X128322000Y-111489748D01*
X184904000Y-113598000D02*
G75*
G03X184904000Y-113598000I-8120000J0D01*
G01*
X168703000Y-113598000D02*
X184865000Y-113598000D01*
X168704000Y-113558000D02*
X184864000Y-113558000D01*
X168704000Y-113518000D02*
X184864000Y-113518000D01*
X168704000Y-113478000D02*
X184864000Y-113478000D01*
X168705000Y-113438000D02*
X184863000Y-113438000D01*
X168706000Y-113398000D02*
X184862000Y-113398000D01*
X168707000Y-113358000D02*
X184861000Y-113358000D01*
X168708000Y-113318000D02*
X184860000Y-113318000D01*
X168710000Y-113278000D02*
X184858000Y-113278000D01*
X168711000Y-113238000D02*
X184857000Y-113238000D01*
X168713000Y-113198000D02*
X184855000Y-113198000D01*
X168715000Y-113158000D02*
X184853000Y-113158000D01*
X168718000Y-113118000D02*
X184850000Y-113118000D01*
X168720000Y-113078000D02*
X184848000Y-113078000D01*
X168723000Y-113038000D02*
X184845000Y-113038000D01*
X168726000Y-112998000D02*
X184842000Y-112998000D01*
X168729000Y-112958000D02*
X184839000Y-112958000D01*
X168732000Y-112918000D02*
X184836000Y-112918000D01*
X168735000Y-112877000D02*
X184833000Y-112877000D01*
X168739000Y-112837000D02*
X184829000Y-112837000D01*
X168743000Y-112797000D02*
X184825000Y-112797000D01*
X168747000Y-112757000D02*
X184821000Y-112757000D01*
X168751000Y-112717000D02*
X184817000Y-112717000D01*
X168756000Y-112677000D02*
X184812000Y-112677000D01*
X168760000Y-112637000D02*
X184808000Y-112637000D01*
X168765000Y-112597000D02*
X184803000Y-112597000D01*
X168770000Y-112557000D02*
X184798000Y-112557000D01*
X168776000Y-112517000D02*
X184792000Y-112517000D01*
X168781000Y-112477000D02*
X184787000Y-112477000D01*
X168787000Y-112437000D02*
X184781000Y-112437000D01*
X168793000Y-112397000D02*
X184775000Y-112397000D01*
X168799000Y-112357000D02*
X184769000Y-112357000D01*
X168805000Y-112317000D02*
X184763000Y-112317000D01*
X168812000Y-112277000D02*
X184756000Y-112277000D01*
X168818000Y-112237000D02*
X184750000Y-112237000D01*
X168825000Y-112197000D02*
X184743000Y-112197000D01*
X168832000Y-112157000D02*
X184736000Y-112157000D01*
X168840000Y-112117000D02*
X184728000Y-112117000D01*
X168847000Y-112077000D02*
X184721000Y-112077000D01*
X168855000Y-112037000D02*
X184713000Y-112037000D01*
X168863000Y-111997000D02*
X184705000Y-111997000D01*
X168871000Y-111957000D02*
X184697000Y-111957000D01*
X168879000Y-111917000D02*
X184689000Y-111917000D01*
X168888000Y-111877000D02*
X184680000Y-111877000D01*
X168897000Y-111837000D02*
X184671000Y-111837000D01*
X168906000Y-111797000D02*
X184662000Y-111797000D01*
X168915000Y-111757000D02*
X184653000Y-111757000D01*
X168924000Y-111717000D02*
X184644000Y-111717000D01*
X168934000Y-111677000D02*
X184634000Y-111677000D01*
X168944000Y-111637000D02*
X184624000Y-111637000D01*
X168954000Y-111597000D02*
X184614000Y-111597000D01*
X168964000Y-111557000D02*
X184604000Y-111557000D01*
X168974000Y-111517000D02*
X184594000Y-111517000D01*
X168985000Y-111477000D02*
X184583000Y-111477000D01*
X168996000Y-111437000D02*
X184572000Y-111437000D01*
X169007000Y-111397000D02*
X184561000Y-111397000D01*
X169019000Y-111357000D02*
X184549000Y-111357000D01*
X169030000Y-111317000D02*
X184538000Y-111317000D01*
X169042000Y-111277000D02*
X175344000Y-111277000D01*
X178224000Y-111277000D02*
X184526000Y-111277000D01*
X169054000Y-111237000D02*
X175344000Y-111237000D01*
X178224000Y-111237000D02*
X184514000Y-111237000D01*
X169066000Y-111197000D02*
X175344000Y-111197000D01*
X178224000Y-111197000D02*
X184502000Y-111197000D01*
X169079000Y-111157000D02*
X175344000Y-111157000D01*
X178224000Y-111157000D02*
X184489000Y-111157000D01*
X169091000Y-111117000D02*
X175344000Y-111117000D01*
X178224000Y-111117000D02*
X184477000Y-111117000D01*
X169104000Y-111077000D02*
X175344000Y-111077000D01*
X178224000Y-111077000D02*
X184464000Y-111077000D01*
X169118000Y-111037000D02*
X175344000Y-111037000D01*
X178224000Y-111037000D02*
X184450000Y-111037000D01*
X169131000Y-110997000D02*
X175344000Y-110997000D01*
X178224000Y-110997000D02*
X184437000Y-110997000D01*
X169145000Y-110957000D02*
X175344000Y-110957000D01*
X178224000Y-110957000D02*
X184423000Y-110957000D01*
X169159000Y-110917000D02*
X175344000Y-110917000D01*
X178224000Y-110917000D02*
X184409000Y-110917000D01*
X169173000Y-110877000D02*
X175344000Y-110877000D01*
X178224000Y-110877000D02*
X184395000Y-110877000D01*
X169187000Y-110837000D02*
X175344000Y-110837000D01*
X178224000Y-110837000D02*
X184381000Y-110837000D01*
X169202000Y-110797000D02*
X175344000Y-110797000D01*
X178224000Y-110797000D02*
X184366000Y-110797000D01*
X169216000Y-110757000D02*
X175344000Y-110757000D01*
X178224000Y-110757000D02*
X184352000Y-110757000D01*
X169231000Y-110717000D02*
X175344000Y-110717000D01*
X178224000Y-110717000D02*
X184337000Y-110717000D01*
X169247000Y-110677000D02*
X175344000Y-110677000D01*
X178224000Y-110677000D02*
X184321000Y-110677000D01*
X169262000Y-110637000D02*
X175344000Y-110637000D01*
X178224000Y-110637000D02*
X184306000Y-110637000D01*
X169278000Y-110597000D02*
X175344000Y-110597000D01*
X178224000Y-110597000D02*
X184290000Y-110597000D01*
X169294000Y-110557000D02*
X175344000Y-110557000D01*
X178224000Y-110557000D02*
X184274000Y-110557000D01*
X169310000Y-110517000D02*
X175344000Y-110517000D01*
X178224000Y-110517000D02*
X184258000Y-110517000D01*
X169327000Y-110477000D02*
X175344000Y-110477000D01*
X178224000Y-110477000D02*
X184241000Y-110477000D01*
X169344000Y-110437000D02*
X175344000Y-110437000D01*
X178224000Y-110437000D02*
X184224000Y-110437000D01*
X169361000Y-110397000D02*
X175344000Y-110397000D01*
X178224000Y-110397000D02*
X184207000Y-110397000D01*
X169378000Y-110357000D02*
X175344000Y-110357000D01*
X178224000Y-110357000D02*
X184190000Y-110357000D01*
X169395000Y-110317000D02*
X175344000Y-110317000D01*
X178224000Y-110317000D02*
X184173000Y-110317000D01*
X169413000Y-110277000D02*
X175344000Y-110277000D01*
X178224000Y-110277000D02*
X184155000Y-110277000D01*
X169431000Y-110237000D02*
X175344000Y-110237000D01*
X178224000Y-110237000D02*
X184137000Y-110237000D01*
X169450000Y-110197000D02*
X175344000Y-110197000D01*
X178224000Y-110197000D02*
X184118000Y-110197000D01*
X169468000Y-110157000D02*
X175344000Y-110157000D01*
X178224000Y-110157000D02*
X184100000Y-110157000D01*
X169487000Y-110117000D02*
X175344000Y-110117000D01*
X178224000Y-110117000D02*
X184081000Y-110117000D01*
X169506000Y-110077000D02*
X175344000Y-110077000D01*
X178224000Y-110077000D02*
X184062000Y-110077000D01*
X169526000Y-110037000D02*
X175344000Y-110037000D01*
X178224000Y-110037000D02*
X184042000Y-110037000D01*
X169545000Y-109997000D02*
X175344000Y-109997000D01*
X178224000Y-109997000D02*
X184023000Y-109997000D01*
X169565000Y-109957000D02*
X175344000Y-109957000D01*
X178224000Y-109957000D02*
X184003000Y-109957000D01*
X169585000Y-109917000D02*
X175344000Y-109917000D01*
X178224000Y-109917000D02*
X183983000Y-109917000D01*
X169606000Y-109877000D02*
X175344000Y-109877000D01*
X178224000Y-109877000D02*
X183962000Y-109877000D01*
X169627000Y-109837000D02*
X175344000Y-109837000D01*
X178224000Y-109837000D02*
X183941000Y-109837000D01*
X169648000Y-109797000D02*
X175344000Y-109797000D01*
X178224000Y-109797000D02*
X183920000Y-109797000D01*
X169669000Y-109757000D02*
X175344000Y-109757000D01*
X178224000Y-109757000D02*
X183899000Y-109757000D01*
X169690000Y-109717000D02*
X175344000Y-109717000D01*
X178224000Y-109717000D02*
X183878000Y-109717000D01*
X169712000Y-109677000D02*
X175344000Y-109677000D01*
X178224000Y-109677000D02*
X183856000Y-109677000D01*
X169735000Y-109637000D02*
X175344000Y-109637000D01*
X178224000Y-109637000D02*
X183833000Y-109637000D01*
X169757000Y-109597000D02*
X175344000Y-109597000D01*
X178224000Y-109597000D02*
X183811000Y-109597000D01*
X169780000Y-109557000D02*
X175344000Y-109557000D01*
X178224000Y-109557000D02*
X183788000Y-109557000D01*
X169803000Y-109517000D02*
X175344000Y-109517000D01*
X178224000Y-109517000D02*
X183765000Y-109517000D01*
X169826000Y-109477000D02*
X175344000Y-109477000D01*
X178224000Y-109477000D02*
X183742000Y-109477000D01*
X169850000Y-109437000D02*
X175344000Y-109437000D01*
X178224000Y-109437000D02*
X183718000Y-109437000D01*
X169874000Y-109397000D02*
X175344000Y-109397000D01*
X178224000Y-109397000D02*
X183694000Y-109397000D01*
X169898000Y-109357000D02*
X175344000Y-109357000D01*
X178224000Y-109357000D02*
X183670000Y-109357000D01*
X169923000Y-109317000D02*
X175344000Y-109317000D01*
X178224000Y-109317000D02*
X183645000Y-109317000D01*
X169948000Y-109277000D02*
X175344000Y-109277000D01*
X178224000Y-109277000D02*
X183620000Y-109277000D01*
X169973000Y-109237000D02*
X175344000Y-109237000D01*
X178224000Y-109237000D02*
X183595000Y-109237000D01*
X169999000Y-109197000D02*
X175344000Y-109197000D01*
X178224000Y-109197000D02*
X183569000Y-109197000D01*
X170025000Y-109157000D02*
X175344000Y-109157000D01*
X178224000Y-109157000D02*
X183543000Y-109157000D01*
X170051000Y-109117000D02*
X175344000Y-109117000D01*
X178224000Y-109117000D02*
X183517000Y-109117000D01*
X170078000Y-109077000D02*
X175344000Y-109077000D01*
X178224000Y-109077000D02*
X183490000Y-109077000D01*
X170105000Y-109037000D02*
X175344000Y-109037000D01*
X178224000Y-109037000D02*
X183463000Y-109037000D01*
X170132000Y-108997000D02*
X175344000Y-108997000D01*
X178224000Y-108997000D02*
X183436000Y-108997000D01*
X170160000Y-108957000D02*
X175344000Y-108957000D01*
X178224000Y-108957000D02*
X183408000Y-108957000D01*
X170188000Y-108917000D02*
X175344000Y-108917000D01*
X178224000Y-108917000D02*
X183380000Y-108917000D01*
X170216000Y-108877000D02*
X175344000Y-108877000D01*
X178224000Y-108877000D02*
X183352000Y-108877000D01*
X170245000Y-108837000D02*
X175344000Y-108837000D01*
X178224000Y-108837000D02*
X183323000Y-108837000D01*
X170274000Y-108797000D02*
X175344000Y-108797000D01*
X178224000Y-108797000D02*
X183294000Y-108797000D01*
X170304000Y-108757000D02*
X175344000Y-108757000D01*
X178224000Y-108757000D02*
X183264000Y-108757000D01*
X170334000Y-108717000D02*
X175344000Y-108717000D01*
X178224000Y-108717000D02*
X183234000Y-108717000D01*
X170364000Y-108677000D02*
X175344000Y-108677000D01*
X178224000Y-108677000D02*
X183204000Y-108677000D01*
X170394000Y-108637000D02*
X175344000Y-108637000D01*
X178224000Y-108637000D02*
X183174000Y-108637000D01*
X170426000Y-108597000D02*
X175344000Y-108597000D01*
X178224000Y-108597000D02*
X183142000Y-108597000D01*
X170457000Y-108557000D02*
X175344000Y-108557000D01*
X178224000Y-108557000D02*
X183111000Y-108557000D01*
X170489000Y-108517000D02*
X175344000Y-108517000D01*
X178224000Y-108517000D02*
X183079000Y-108517000D01*
X170521000Y-108477000D02*
X175344000Y-108477000D01*
X178224000Y-108477000D02*
X183047000Y-108477000D01*
X170554000Y-108437000D02*
X175344000Y-108437000D01*
X178224000Y-108437000D02*
X183014000Y-108437000D01*
X170587000Y-108397000D02*
X182981000Y-108397000D01*
X170621000Y-108357000D02*
X182947000Y-108357000D01*
X170655000Y-108317000D02*
X182913000Y-108317000D01*
X170689000Y-108277000D02*
X182879000Y-108277000D01*
X170724000Y-108237000D02*
X182844000Y-108237000D01*
X170759000Y-108197000D02*
X182809000Y-108197000D01*
X170795000Y-108157000D02*
X182773000Y-108157000D01*
X170832000Y-108117000D02*
X182736000Y-108117000D01*
X170868000Y-108077000D02*
X182700000Y-108077000D01*
X170906000Y-108037000D02*
X182662000Y-108037000D01*
X170944000Y-107997000D02*
X182624000Y-107997000D01*
X170982000Y-107957000D02*
X182586000Y-107957000D01*
X171021000Y-107917000D02*
X182547000Y-107917000D01*
X171060000Y-107877000D02*
X182508000Y-107877000D01*
X171100000Y-107837000D02*
X182468000Y-107837000D01*
X171141000Y-107797000D02*
X182427000Y-107797000D01*
X171182000Y-107757000D02*
X182386000Y-107757000D01*
X171224000Y-107717000D02*
X182344000Y-107717000D01*
X171266000Y-107677000D02*
X182302000Y-107677000D01*
X171309000Y-107637000D02*
X182259000Y-107637000D01*
X171352000Y-107597000D02*
X182216000Y-107597000D01*
X171396000Y-107557000D02*
X182172000Y-107557000D01*
X171441000Y-107517000D02*
X182127000Y-107517000D01*
X171487000Y-107477000D02*
X182081000Y-107477000D01*
X171533000Y-107437000D02*
X182035000Y-107437000D01*
X171580000Y-107397000D02*
X181988000Y-107397000D01*
X171628000Y-107357000D02*
X181940000Y-107357000D01*
X171676000Y-107317000D02*
X181892000Y-107317000D01*
X171725000Y-107277000D02*
X181843000Y-107277000D01*
X171775000Y-107237000D02*
X181793000Y-107237000D01*
X171826000Y-107197000D02*
X181742000Y-107197000D01*
X171878000Y-107157000D02*
X181690000Y-107157000D01*
X171930000Y-107117000D02*
X181638000Y-107117000D01*
X171984000Y-107077000D02*
X181584000Y-107077000D01*
X172038000Y-107037000D02*
X181530000Y-107037000D01*
X172093000Y-106997000D02*
X181475000Y-106997000D01*
X172150000Y-106957000D02*
X181418000Y-106957000D01*
X172207000Y-106917000D02*
X181361000Y-106917000D01*
X172265000Y-106877000D02*
X181303000Y-106877000D01*
X172325000Y-106837000D02*
X181243000Y-106837000D01*
X172386000Y-106797000D02*
X181182000Y-106797000D01*
X172448000Y-106757000D02*
X181120000Y-106757000D01*
X172511000Y-106717000D02*
X181057000Y-106717000D01*
X172575000Y-106677000D02*
X180993000Y-106677000D01*
X172641000Y-106637000D02*
X180927000Y-106637000D01*
X172708000Y-106597000D02*
X180860000Y-106597000D01*
X172777000Y-106557000D02*
X180791000Y-106557000D01*
X172848000Y-106517000D02*
X180720000Y-106517000D01*
X172920000Y-106477000D02*
X180648000Y-106477000D01*
X172994000Y-106437000D02*
X180574000Y-106437000D01*
X173069000Y-106397000D02*
X180499000Y-106397000D01*
X173147000Y-106357000D02*
X180421000Y-106357000D01*
X173227000Y-106317000D02*
X180341000Y-106317000D01*
X173309000Y-106277000D02*
X180259000Y-106277000D01*
X173394000Y-106237000D02*
X180174000Y-106237000D01*
X173481000Y-106197000D02*
X180087000Y-106197000D01*
X173571000Y-106157000D02*
X179997000Y-106157000D01*
X173664000Y-106117000D02*
X179904000Y-106117000D01*
X173760000Y-106077000D02*
X179808000Y-106077000D01*
X173860000Y-106037000D02*
X179708000Y-106037000D01*
X173964000Y-105997000D02*
X179604000Y-105997000D01*
X174073000Y-105957000D02*
X179495000Y-105957000D01*
X174187000Y-105917000D02*
X179381000Y-105917000D01*
X174306000Y-105877000D02*
X179262000Y-105877000D01*
X174433000Y-105837000D02*
X179135000Y-105837000D01*
X174566000Y-105797000D02*
X179002000Y-105797000D01*
X174710000Y-105757000D02*
X178858000Y-105757000D01*
X174864000Y-105717000D02*
X178704000Y-105717000D01*
X175032000Y-105677000D02*
X178536000Y-105677000D01*
X175220000Y-105637000D02*
X178348000Y-105637000D01*
X175433000Y-105597000D02*
X178135000Y-105597000D01*
X175686000Y-105557000D02*
X177882000Y-105557000D01*
X176019000Y-105517000D02*
X177549000Y-105517000D01*
X172229000Y-122287491D02*
X172229000Y-120687491D01*
X171429000Y-121487491D02*
X173029000Y-121487491D01*
X120452000Y-100083000D02*
X120452000Y-102943000D01*
X120452000Y-102943000D02*
X122372000Y-102943000D01*
X122372000Y-102943000D02*
X122372000Y-100083000D01*
X183880000Y-102672000D02*
X181020000Y-102672000D01*
X181020000Y-102672000D02*
X181020000Y-104592000D01*
X181020000Y-104592000D02*
X183880000Y-104592000D01*
X181029000Y-100782000D02*
X183889000Y-100782000D01*
X181029000Y-98862000D02*
X181029000Y-100782000D01*
X183889000Y-98862000D02*
X181029000Y-98862000D01*
X110026000Y-90186000D02*
X111276000Y-90186000D01*
X110026000Y-88936000D02*
X110026000Y-90186000D01*
X115526000Y-83036000D02*
X115526000Y-86086000D01*
X112576000Y-83036000D02*
X115526000Y-83036000D01*
X112576000Y-82286000D02*
X112576000Y-83036000D01*
X115526000Y-89136000D02*
X115526000Y-86086000D01*
X112576000Y-89136000D02*
X115526000Y-89136000D01*
X112576000Y-89886000D02*
X112576000Y-89136000D01*
X110326000Y-82286000D02*
X110326000Y-84086000D01*
X111076000Y-82286000D02*
X110326000Y-82286000D01*
X111076000Y-84086000D02*
X111076000Y-82286000D01*
X110326000Y-84086000D02*
X111076000Y-84086000D01*
X110326000Y-88086000D02*
X110326000Y-89886000D01*
X111076000Y-88086000D02*
X110326000Y-88086000D01*
X111076000Y-89886000D02*
X111076000Y-88086000D01*
X110326000Y-89886000D02*
X111076000Y-89886000D01*
X110326000Y-85586000D02*
X110326000Y-86586000D01*
X111076000Y-85586000D02*
X110326000Y-85586000D01*
X111076000Y-86586000D02*
X111076000Y-85586000D01*
X110326000Y-86586000D02*
X111076000Y-86586000D01*
X110316000Y-82276000D02*
X110316000Y-89896000D01*
X116286000Y-82276000D02*
X110316000Y-82276000D01*
X116286000Y-89896000D02*
X116286000Y-82276000D01*
X110316000Y-89896000D02*
X116286000Y-89896000D01*
X110316000Y-110216000D02*
X116286000Y-110216000D01*
X116286000Y-110216000D02*
X116286000Y-102596000D01*
X116286000Y-102596000D02*
X110316000Y-102596000D01*
X110316000Y-102596000D02*
X110316000Y-110216000D01*
X110326000Y-106906000D02*
X111076000Y-106906000D01*
X111076000Y-106906000D02*
X111076000Y-105906000D01*
X111076000Y-105906000D02*
X110326000Y-105906000D01*
X110326000Y-105906000D02*
X110326000Y-106906000D01*
X110326000Y-110206000D02*
X111076000Y-110206000D01*
X111076000Y-110206000D02*
X111076000Y-108406000D01*
X111076000Y-108406000D02*
X110326000Y-108406000D01*
X110326000Y-108406000D02*
X110326000Y-110206000D01*
X110326000Y-104406000D02*
X111076000Y-104406000D01*
X111076000Y-104406000D02*
X111076000Y-102606000D01*
X111076000Y-102606000D02*
X110326000Y-102606000D01*
X110326000Y-102606000D02*
X110326000Y-104406000D01*
X112576000Y-110206000D02*
X112576000Y-109456000D01*
X112576000Y-109456000D02*
X115526000Y-109456000D01*
X115526000Y-109456000D02*
X115526000Y-106406000D01*
X112576000Y-102606000D02*
X112576000Y-103356000D01*
X112576000Y-103356000D02*
X115526000Y-103356000D01*
X115526000Y-103356000D02*
X115526000Y-106406000D01*
X110026000Y-109256000D02*
X110026000Y-110506000D01*
X110026000Y-110506000D02*
X111276000Y-110506000D01*
X110316000Y-100056000D02*
X116286000Y-100056000D01*
X116286000Y-100056000D02*
X116286000Y-92436000D01*
X116286000Y-92436000D02*
X110316000Y-92436000D01*
X110316000Y-92436000D02*
X110316000Y-100056000D01*
X110326000Y-96746000D02*
X111076000Y-96746000D01*
X111076000Y-96746000D02*
X111076000Y-95746000D01*
X111076000Y-95746000D02*
X110326000Y-95746000D01*
X110326000Y-95746000D02*
X110326000Y-96746000D01*
X110326000Y-100046000D02*
X111076000Y-100046000D01*
X111076000Y-100046000D02*
X111076000Y-98246000D01*
X111076000Y-98246000D02*
X110326000Y-98246000D01*
X110326000Y-98246000D02*
X110326000Y-100046000D01*
X110326000Y-94246000D02*
X111076000Y-94246000D01*
X111076000Y-94246000D02*
X111076000Y-92446000D01*
X111076000Y-92446000D02*
X110326000Y-92446000D01*
X110326000Y-92446000D02*
X110326000Y-94246000D01*
X112576000Y-100046000D02*
X112576000Y-99296000D01*
X112576000Y-99296000D02*
X115526000Y-99296000D01*
X115526000Y-99296000D02*
X115526000Y-96246000D01*
X112576000Y-92446000D02*
X112576000Y-93196000D01*
X112576000Y-93196000D02*
X115526000Y-93196000D01*
X115526000Y-93196000D02*
X115526000Y-96246000D01*
X110026000Y-99096000D02*
X110026000Y-100346000D01*
X110026000Y-100346000D02*
X111276000Y-100346000D01*
X161158000Y-92826000D02*
X161158000Y-98836000D01*
X154338000Y-95076000D02*
X154338000Y-98836000D01*
X161158000Y-98836000D02*
X159898000Y-98836000D01*
X154338000Y-98836000D02*
X155598000Y-98836000D01*
X151690000Y-96249748D02*
X151690000Y-96772252D01*
X153110000Y-96249748D02*
X153110000Y-96772252D01*
X162866000Y-94758252D02*
X162866000Y-94235748D01*
X164286000Y-94758252D02*
X164286000Y-94235748D01*
X118162000Y-101344252D02*
X118162000Y-100821748D01*
X119582000Y-101344252D02*
X119582000Y-100821748D01*
X178569252Y-102922000D02*
X178046748Y-102922000D01*
X178569252Y-104342000D02*
X178046748Y-104342000D01*
X178578252Y-99112000D02*
X178055748Y-99112000D01*
X178578252Y-100532000D02*
X178055748Y-100532000D01*
X125988000Y-114436000D02*
X125988000Y-121276000D01*
X118748000Y-114436000D02*
X118748000Y-121276000D01*
X123078000Y-121276000D02*
X125988000Y-121276000D01*
X118748000Y-121276000D02*
X121778000Y-121276000D01*
X123078000Y-114436000D02*
X125988000Y-114436000D01*
X118748000Y-114436000D02*
X121778000Y-114436000D01*
X118748000Y-105292000D02*
X121778000Y-105292000D01*
X123078000Y-105292000D02*
X125988000Y-105292000D01*
X118748000Y-112132000D02*
X121778000Y-112132000D01*
X123078000Y-112132000D02*
X125988000Y-112132000D01*
X118748000Y-105292000D02*
X118748000Y-112132000D01*
X125988000Y-105292000D02*
X125988000Y-112132000D01*
X110760000Y-114792000D02*
X110760000Y-119292000D01*
X114760000Y-113542000D02*
X113260000Y-113542000D01*
X117260000Y-119292000D02*
X117260000Y-114792000D01*
X113260000Y-120542000D02*
X114760000Y-120542000D01*
X134858000Y-91126000D02*
G75*
G02X132858000Y-91126000I-1000000J0D01*
G01*
X132858000Y-91126000D02*
X131208000Y-91126000D01*
X131208000Y-91126000D02*
X131208000Y-101406000D01*
X131208000Y-101406000D02*
X136508000Y-101406000D01*
X136508000Y-101406000D02*
X136508000Y-91126000D01*
X136508000Y-91126000D02*
X134858000Y-91126000D01*
X153562000Y-112756000D02*
X154822000Y-112756000D01*
X160382000Y-112756000D02*
X159122000Y-112756000D01*
X153562000Y-108996000D02*
X153562000Y-112756000D01*
X160382000Y-106746000D02*
X160382000Y-112756000D01*
X148700000Y-91126000D02*
X147050000Y-91126000D01*
X148700000Y-101406000D02*
X148700000Y-91126000D01*
X143400000Y-101406000D02*
X148700000Y-101406000D01*
X143400000Y-91126000D02*
X143400000Y-101406000D01*
X145050000Y-91126000D02*
X143400000Y-91126000D01*
X147050000Y-91126000D02*
G75*
G02X145050000Y-91126000I-1000000J0D01*
G01*
D11*
X130810000Y-103886000D02*
X130810000Y-114046000D01*
X130810000Y-114046000D02*
X150622000Y-114046000D01*
X130810000Y-103886000D02*
X150622000Y-103886000D01*
X150622000Y-103886000D02*
X150622000Y-114046000D01*
D12*
X158517500Y-88273000D02*
X154457500Y-88273000D01*
X154457500Y-88273000D02*
X154457500Y-90543000D01*
X154457500Y-90543000D02*
X158517500Y-90543000D01*
D11*
X126810000Y-83856000D02*
G75*
G02X128810000Y-81856000I2000000J0D01*
G01*
X164810000Y-81856000D02*
G75*
G02X166810000Y-83856000I0J-2000000D01*
G01*
X166810000Y-119856000D02*
G75*
G02X164810000Y-121856000I-2000000J0D01*
G01*
X128810000Y-121856000D02*
G75*
G02X126810000Y-119856000I0J2000000D01*
G01*
X128810000Y-121856000D02*
X164810000Y-121856000D01*
X166810000Y-119856000D02*
X166810000Y-83856000D01*
X164810000Y-81856000D02*
X128810000Y-81856000D01*
X126810000Y-83856000D02*
X126810000Y-119856000D01*
D12*
X119504000Y-90514752D02*
X119504000Y-86107248D01*
X124844000Y-90514752D02*
X124844000Y-86107248D01*
D11*
X124404380Y-104306666D02*
X123928190Y-104640000D01*
X124404380Y-104878095D02*
X123404380Y-104878095D01*
X123404380Y-104497142D01*
X123452000Y-104401904D01*
X123499619Y-104354285D01*
X123594857Y-104306666D01*
X123737714Y-104306666D01*
X123832952Y-104354285D01*
X123880571Y-104401904D01*
X123928190Y-104497142D01*
X123928190Y-104878095D01*
X123404380Y-103973333D02*
X123404380Y-103354285D01*
X123785333Y-103687619D01*
X123785333Y-103544761D01*
X123832952Y-103449523D01*
X123880571Y-103401904D01*
X123975809Y-103354285D01*
X124213904Y-103354285D01*
X124309142Y-103401904D01*
X124356761Y-103449523D01*
X124404380Y-103544761D01*
X124404380Y-103830476D01*
X124356761Y-103925714D01*
X124309142Y-103973333D01*
X180189142Y-87034666D02*
X180236761Y-87082285D01*
X180284380Y-87225142D01*
X180284380Y-87320380D01*
X180236761Y-87463238D01*
X180141523Y-87558476D01*
X180046285Y-87606095D01*
X179855809Y-87653714D01*
X179712952Y-87653714D01*
X179522476Y-87606095D01*
X179427238Y-87558476D01*
X179332000Y-87463238D01*
X179284380Y-87320380D01*
X179284380Y-87225142D01*
X179332000Y-87082285D01*
X179379619Y-87034666D01*
X180284380Y-86082285D02*
X180284380Y-86653714D01*
X180284380Y-86368000D02*
X179284380Y-86368000D01*
X179427238Y-86463238D01*
X179522476Y-86558476D01*
X179570095Y-86653714D01*
X152249142Y-111926666D02*
X152296761Y-111974285D01*
X152344380Y-112117142D01*
X152344380Y-112212380D01*
X152296761Y-112355238D01*
X152201523Y-112450476D01*
X152106285Y-112498095D01*
X151915809Y-112545714D01*
X151772952Y-112545714D01*
X151582476Y-112498095D01*
X151487238Y-112450476D01*
X151392000Y-112355238D01*
X151344380Y-112212380D01*
X151344380Y-112117142D01*
X151392000Y-111974285D01*
X151439619Y-111926666D01*
X151439619Y-111545714D02*
X151392000Y-111498095D01*
X151344380Y-111402857D01*
X151344380Y-111164761D01*
X151392000Y-111069523D01*
X151439619Y-111021904D01*
X151534857Y-110974285D01*
X151630095Y-110974285D01*
X151772952Y-111021904D01*
X152344380Y-111593333D01*
X152344380Y-110974285D01*
X170013333Y-99925142D02*
X169965714Y-99972761D01*
X169822857Y-100020380D01*
X169727619Y-100020380D01*
X169584761Y-99972761D01*
X169489523Y-99877523D01*
X169441904Y-99782285D01*
X169394285Y-99591809D01*
X169394285Y-99448952D01*
X169441904Y-99258476D01*
X169489523Y-99163238D01*
X169584761Y-99068000D01*
X169727619Y-99020380D01*
X169822857Y-99020380D01*
X169965714Y-99068000D01*
X170013333Y-99115619D01*
X170346666Y-99020380D02*
X170965714Y-99020380D01*
X170632380Y-99401333D01*
X170775238Y-99401333D01*
X170870476Y-99448952D01*
X170918095Y-99496571D01*
X170965714Y-99591809D01*
X170965714Y-99829904D01*
X170918095Y-99925142D01*
X170870476Y-99972761D01*
X170775238Y-100020380D01*
X170489523Y-100020380D01*
X170394285Y-99972761D01*
X170346666Y-99925142D01*
X152757142Y-89574666D02*
X152804761Y-89622285D01*
X152852380Y-89765142D01*
X152852380Y-89860380D01*
X152804761Y-90003238D01*
X152709523Y-90098476D01*
X152614285Y-90146095D01*
X152423809Y-90193714D01*
X152280952Y-90193714D01*
X152090476Y-90146095D01*
X151995238Y-90098476D01*
X151900000Y-90003238D01*
X151852380Y-89860380D01*
X151852380Y-89765142D01*
X151900000Y-89622285D01*
X151947619Y-89574666D01*
X152185714Y-88717523D02*
X152852380Y-88717523D01*
X151804761Y-88955619D02*
X152519047Y-89193714D01*
X152519047Y-88574666D01*
X129389142Y-108878666D02*
X129436761Y-108926285D01*
X129484380Y-109069142D01*
X129484380Y-109164380D01*
X129436761Y-109307238D01*
X129341523Y-109402476D01*
X129246285Y-109450095D01*
X129055809Y-109497714D01*
X128912952Y-109497714D01*
X128722476Y-109450095D01*
X128627238Y-109402476D01*
X128532000Y-109307238D01*
X128484380Y-109164380D01*
X128484380Y-109069142D01*
X128532000Y-108926285D01*
X128579619Y-108878666D01*
X128484380Y-107973904D02*
X128484380Y-108450095D01*
X128960571Y-108497714D01*
X128912952Y-108450095D01*
X128865333Y-108354857D01*
X128865333Y-108116761D01*
X128912952Y-108021523D01*
X128960571Y-107973904D01*
X129055809Y-107926285D01*
X129293904Y-107926285D01*
X129389142Y-107973904D01*
X129436761Y-108021523D01*
X129484380Y-108116761D01*
X129484380Y-108354857D01*
X129436761Y-108450095D01*
X129389142Y-108497714D01*
X173585142Y-115990666D02*
X173632761Y-116038285D01*
X173680380Y-116181142D01*
X173680380Y-116276380D01*
X173632761Y-116419238D01*
X173537523Y-116514476D01*
X173442285Y-116562095D01*
X173251809Y-116609714D01*
X173108952Y-116609714D01*
X172918476Y-116562095D01*
X172823238Y-116514476D01*
X172728000Y-116419238D01*
X172680380Y-116276380D01*
X172680380Y-116181142D01*
X172728000Y-116038285D01*
X172775619Y-115990666D01*
X172680380Y-115133523D02*
X172680380Y-115324000D01*
X172728000Y-115419238D01*
X172775619Y-115466857D01*
X172918476Y-115562095D01*
X173108952Y-115609714D01*
X173489904Y-115609714D01*
X173585142Y-115562095D01*
X173632761Y-115514476D01*
X173680380Y-115419238D01*
X173680380Y-115228761D01*
X173632761Y-115133523D01*
X173585142Y-115085904D01*
X173489904Y-115038285D01*
X173251809Y-115038285D01*
X173156571Y-115085904D01*
X173108952Y-115133523D01*
X173061333Y-115228761D01*
X173061333Y-115419238D01*
X173108952Y-115514476D01*
X173156571Y-115562095D01*
X173251809Y-115609714D01*
X121864380Y-104878095D02*
X120864380Y-104878095D01*
X120864380Y-104640000D01*
X120912000Y-104497142D01*
X121007238Y-104401904D01*
X121102476Y-104354285D01*
X121292952Y-104306666D01*
X121435809Y-104306666D01*
X121626285Y-104354285D01*
X121721523Y-104401904D01*
X121816761Y-104497142D01*
X121864380Y-104640000D01*
X121864380Y-104878095D01*
X120959619Y-103925714D02*
X120912000Y-103878095D01*
X120864380Y-103782857D01*
X120864380Y-103544761D01*
X120912000Y-103449523D01*
X120959619Y-103401904D01*
X121054857Y-103354285D01*
X121150095Y-103354285D01*
X121292952Y-103401904D01*
X121864380Y-103973333D01*
X121864380Y-103354285D01*
X182141904Y-106116380D02*
X182141904Y-105116380D01*
X182380000Y-105116380D01*
X182522857Y-105164000D01*
X182618095Y-105259238D01*
X182665714Y-105354476D01*
X182713333Y-105544952D01*
X182713333Y-105687809D01*
X182665714Y-105878285D01*
X182618095Y-105973523D01*
X182522857Y-106068761D01*
X182380000Y-106116380D01*
X182141904Y-106116380D01*
X183046666Y-105116380D02*
X183665714Y-105116380D01*
X183332380Y-105497333D01*
X183475238Y-105497333D01*
X183570476Y-105544952D01*
X183618095Y-105592571D01*
X183665714Y-105687809D01*
X183665714Y-105925904D01*
X183618095Y-106021142D01*
X183570476Y-106068761D01*
X183475238Y-106116380D01*
X183189523Y-106116380D01*
X183094285Y-106068761D01*
X183046666Y-106021142D01*
X182150904Y-98624380D02*
X182150904Y-97624380D01*
X182389000Y-97624380D01*
X182531857Y-97672000D01*
X182627095Y-97767238D01*
X182674714Y-97862476D01*
X182722333Y-98052952D01*
X182722333Y-98195809D01*
X182674714Y-98386285D01*
X182627095Y-98481523D01*
X182531857Y-98576761D01*
X182389000Y-98624380D01*
X182150904Y-98624380D01*
X183579476Y-97957714D02*
X183579476Y-98624380D01*
X183341380Y-97576761D02*
X183103285Y-98291047D01*
X183722333Y-98291047D01*
X114260380Y-88217333D02*
X114974666Y-88217333D01*
X115117523Y-88264952D01*
X115212761Y-88360190D01*
X115260380Y-88503047D01*
X115260380Y-88598285D01*
X115260380Y-87217333D02*
X115260380Y-87788761D01*
X115260380Y-87503047D02*
X114260380Y-87503047D01*
X114403238Y-87598285D01*
X114498476Y-87693523D01*
X114546095Y-87788761D01*
X114260380Y-108537333D02*
X114974666Y-108537333D01*
X115117523Y-108584952D01*
X115212761Y-108680190D01*
X115260380Y-108823047D01*
X115260380Y-108918285D01*
X114355619Y-108108761D02*
X114308000Y-108061142D01*
X114260380Y-107965904D01*
X114260380Y-107727809D01*
X114308000Y-107632571D01*
X114355619Y-107584952D01*
X114450857Y-107537333D01*
X114546095Y-107537333D01*
X114688952Y-107584952D01*
X115260380Y-108156380D01*
X115260380Y-107537333D01*
X114260380Y-98885333D02*
X114974666Y-98885333D01*
X115117523Y-98932952D01*
X115212761Y-99028190D01*
X115260380Y-99171047D01*
X115260380Y-99266285D01*
X114593714Y-97980571D02*
X115260380Y-97980571D01*
X114212761Y-98218666D02*
X114927047Y-98456761D01*
X114927047Y-97837714D01*
X158027619Y-97123238D02*
X157980000Y-97218476D01*
X157884761Y-97313714D01*
X157741904Y-97456571D01*
X157694285Y-97551809D01*
X157694285Y-97647047D01*
X157932380Y-97599428D02*
X157884761Y-97694666D01*
X157789523Y-97789904D01*
X157599047Y-97837523D01*
X157265714Y-97837523D01*
X157075238Y-97789904D01*
X156980000Y-97694666D01*
X156932380Y-97599428D01*
X156932380Y-97408952D01*
X156980000Y-97313714D01*
X157075238Y-97218476D01*
X157265714Y-97170857D01*
X157599047Y-97170857D01*
X157789523Y-97218476D01*
X157884761Y-97313714D01*
X157932380Y-97408952D01*
X157932380Y-97599428D01*
X157932380Y-96218476D02*
X157932380Y-96789904D01*
X157932380Y-96504190D02*
X156932380Y-96504190D01*
X157075238Y-96599428D01*
X157170476Y-96694666D01*
X157218095Y-96789904D01*
X152852380Y-99734666D02*
X152376190Y-100068000D01*
X152852380Y-100306095D02*
X151852380Y-100306095D01*
X151852380Y-99925142D01*
X151900000Y-99829904D01*
X151947619Y-99782285D01*
X152042857Y-99734666D01*
X152185714Y-99734666D01*
X152280952Y-99782285D01*
X152328571Y-99829904D01*
X152376190Y-99925142D01*
X152376190Y-100306095D01*
X152852380Y-98782285D02*
X152852380Y-99353714D01*
X152852380Y-99068000D02*
X151852380Y-99068000D01*
X151995238Y-99163238D01*
X152090476Y-99258476D01*
X152138095Y-99353714D01*
X164028380Y-91606666D02*
X163552190Y-91940000D01*
X164028380Y-92178095D02*
X163028380Y-92178095D01*
X163028380Y-91797142D01*
X163076000Y-91701904D01*
X163123619Y-91654285D01*
X163218857Y-91606666D01*
X163361714Y-91606666D01*
X163456952Y-91654285D01*
X163504571Y-91701904D01*
X163552190Y-91797142D01*
X163552190Y-92178095D01*
X163123619Y-91225714D02*
X163076000Y-91178095D01*
X163028380Y-91082857D01*
X163028380Y-90844761D01*
X163076000Y-90749523D01*
X163123619Y-90701904D01*
X163218857Y-90654285D01*
X163314095Y-90654285D01*
X163456952Y-90701904D01*
X164028380Y-91273333D01*
X164028380Y-90654285D01*
X119324380Y-104306666D02*
X118848190Y-104640000D01*
X119324380Y-104878095D02*
X118324380Y-104878095D01*
X118324380Y-104497142D01*
X118372000Y-104401904D01*
X118419619Y-104354285D01*
X118514857Y-104306666D01*
X118657714Y-104306666D01*
X118752952Y-104354285D01*
X118800571Y-104401904D01*
X118848190Y-104497142D01*
X118848190Y-104878095D01*
X118657714Y-103449523D02*
X119324380Y-103449523D01*
X118276761Y-103687619D02*
X118991047Y-103925714D01*
X118991047Y-103306666D01*
X179665333Y-105734380D02*
X179332000Y-105258190D01*
X179093904Y-105734380D02*
X179093904Y-104734380D01*
X179474857Y-104734380D01*
X179570095Y-104782000D01*
X179617714Y-104829619D01*
X179665333Y-104924857D01*
X179665333Y-105067714D01*
X179617714Y-105162952D01*
X179570095Y-105210571D01*
X179474857Y-105258190D01*
X179093904Y-105258190D01*
X180570095Y-104734380D02*
X180093904Y-104734380D01*
X180046285Y-105210571D01*
X180093904Y-105162952D01*
X180189142Y-105115333D01*
X180427238Y-105115333D01*
X180522476Y-105162952D01*
X180570095Y-105210571D01*
X180617714Y-105305809D01*
X180617714Y-105543904D01*
X180570095Y-105639142D01*
X180522476Y-105686761D01*
X180427238Y-105734380D01*
X180189142Y-105734380D01*
X180093904Y-105686761D01*
X180046285Y-105639142D01*
X178150333Y-101924380D02*
X177817000Y-101448190D01*
X177578904Y-101924380D02*
X177578904Y-100924380D01*
X177959857Y-100924380D01*
X178055095Y-100972000D01*
X178102714Y-101019619D01*
X178150333Y-101114857D01*
X178150333Y-101257714D01*
X178102714Y-101352952D01*
X178055095Y-101400571D01*
X177959857Y-101448190D01*
X177578904Y-101448190D01*
X179007476Y-100924380D02*
X178817000Y-100924380D01*
X178721761Y-100972000D01*
X178674142Y-101019619D01*
X178578904Y-101162476D01*
X178531285Y-101352952D01*
X178531285Y-101733904D01*
X178578904Y-101829142D01*
X178626523Y-101876761D01*
X178721761Y-101924380D01*
X178912238Y-101924380D01*
X179007476Y-101876761D01*
X179055095Y-101829142D01*
X179102714Y-101733904D01*
X179102714Y-101495809D01*
X179055095Y-101400571D01*
X179007476Y-101352952D01*
X178912238Y-101305333D01*
X178721761Y-101305333D01*
X178626523Y-101352952D01*
X178578904Y-101400571D01*
X178531285Y-101495809D01*
X120308761Y-118308380D02*
X119975428Y-117832190D01*
X119737333Y-118308380D02*
X119737333Y-117308380D01*
X120118285Y-117308380D01*
X120213523Y-117356000D01*
X120261142Y-117403619D01*
X120308761Y-117498857D01*
X120308761Y-117641714D01*
X120261142Y-117736952D01*
X120213523Y-117784571D01*
X120118285Y-117832190D01*
X119737333Y-117832190D01*
X120594476Y-117308380D02*
X120927809Y-118308380D01*
X121261142Y-117308380D01*
X122118285Y-118308380D02*
X121546857Y-118308380D01*
X121832571Y-118308380D02*
X121832571Y-117308380D01*
X121737333Y-117451238D01*
X121642095Y-117546476D01*
X121546857Y-117594095D01*
X120308761Y-109164380D02*
X119975428Y-108688190D01*
X119737333Y-109164380D02*
X119737333Y-108164380D01*
X120118285Y-108164380D01*
X120213523Y-108212000D01*
X120261142Y-108259619D01*
X120308761Y-108354857D01*
X120308761Y-108497714D01*
X120261142Y-108592952D01*
X120213523Y-108640571D01*
X120118285Y-108688190D01*
X119737333Y-108688190D01*
X120594476Y-108164380D02*
X120927809Y-109164380D01*
X121261142Y-108164380D01*
X121546857Y-108259619D02*
X121594476Y-108212000D01*
X121689714Y-108164380D01*
X121927809Y-108164380D01*
X122023047Y-108212000D01*
X122070666Y-108259619D01*
X122118285Y-108354857D01*
X122118285Y-108450095D01*
X122070666Y-108592952D01*
X121499238Y-109164380D01*
X122118285Y-109164380D01*
X115212761Y-118375333D02*
X115260380Y-118232476D01*
X115260380Y-117994380D01*
X115212761Y-117899142D01*
X115165142Y-117851523D01*
X115069904Y-117803904D01*
X114974666Y-117803904D01*
X114879428Y-117851523D01*
X114831809Y-117899142D01*
X114784190Y-117994380D01*
X114736571Y-118184857D01*
X114688952Y-118280095D01*
X114641333Y-118327714D01*
X114546095Y-118375333D01*
X114450857Y-118375333D01*
X114355619Y-118327714D01*
X114308000Y-118280095D01*
X114260380Y-118184857D01*
X114260380Y-117946761D01*
X114308000Y-117803904D01*
X114260380Y-117470571D02*
X115260380Y-117232476D01*
X114546095Y-117042000D01*
X115260380Y-116851523D01*
X114260380Y-116613428D01*
X115260380Y-115708666D02*
X115260380Y-116280095D01*
X115260380Y-115994380D02*
X114260380Y-115994380D01*
X114403238Y-116089619D01*
X114498476Y-116184857D01*
X114546095Y-116280095D01*
X132334095Y-92924380D02*
X132334095Y-93733904D01*
X132381714Y-93829142D01*
X132429333Y-93876761D01*
X132524571Y-93924380D01*
X132715047Y-93924380D01*
X132810285Y-93876761D01*
X132857904Y-93829142D01*
X132905523Y-93733904D01*
X132905523Y-92924380D01*
X133334095Y-93019619D02*
X133381714Y-92972000D01*
X133476952Y-92924380D01*
X133715047Y-92924380D01*
X133810285Y-92972000D01*
X133857904Y-93019619D01*
X133905523Y-93114857D01*
X133905523Y-93210095D01*
X133857904Y-93352952D01*
X133286476Y-93924380D01*
X133905523Y-93924380D01*
X157440380Y-111607904D02*
X158249904Y-111607904D01*
X158345142Y-111560285D01*
X158392761Y-111512666D01*
X158440380Y-111417428D01*
X158440380Y-111226952D01*
X158392761Y-111131714D01*
X158345142Y-111084095D01*
X158249904Y-111036476D01*
X157440380Y-111036476D01*
X157440380Y-110655523D02*
X157440380Y-110036476D01*
X157821333Y-110369809D01*
X157821333Y-110226952D01*
X157868952Y-110131714D01*
X157916571Y-110084095D01*
X158011809Y-110036476D01*
X158249904Y-110036476D01*
X158345142Y-110084095D01*
X158392761Y-110131714D01*
X158440380Y-110226952D01*
X158440380Y-110512666D01*
X158392761Y-110607904D01*
X158345142Y-110655523D01*
X144526095Y-93432380D02*
X144526095Y-94241904D01*
X144573714Y-94337142D01*
X144621333Y-94384761D01*
X144716571Y-94432380D01*
X144907047Y-94432380D01*
X145002285Y-94384761D01*
X145049904Y-94337142D01*
X145097523Y-94241904D01*
X145097523Y-93432380D01*
X146002285Y-93765714D02*
X146002285Y-94432380D01*
X145764190Y-93384761D02*
X145526095Y-94099047D01*
X146145142Y-94099047D01*
X140168380Y-110997904D02*
X140977904Y-110997904D01*
X141073142Y-110950285D01*
X141120761Y-110902666D01*
X141168380Y-110807428D01*
X141168380Y-110616952D01*
X141120761Y-110521714D01*
X141073142Y-110474095D01*
X140977904Y-110426476D01*
X140168380Y-110426476D01*
X140168380Y-109474095D02*
X140168380Y-109950285D01*
X140644571Y-109997904D01*
X140596952Y-109950285D01*
X140549333Y-109855047D01*
X140549333Y-109616952D01*
X140596952Y-109521714D01*
X140644571Y-109474095D01*
X140739809Y-109426476D01*
X140977904Y-109426476D01*
X141073142Y-109474095D01*
X141120761Y-109521714D01*
X141168380Y-109616952D01*
X141168380Y-109855047D01*
X141120761Y-109950285D01*
X141073142Y-109997904D01*
X134135904Y-105084571D02*
X134469238Y-105084571D01*
X134612095Y-105608380D02*
X134135904Y-105608380D01*
X134135904Y-104608380D01*
X134612095Y-104608380D01*
X135040666Y-105608380D02*
X135040666Y-104608380D01*
X135612095Y-105608380D01*
X135612095Y-104608380D01*
X134032761Y-107148380D02*
X134366095Y-108148380D01*
X134699428Y-107148380D01*
X135032761Y-108148380D02*
X135032761Y-107148380D01*
X135508952Y-108148380D02*
X135508952Y-107148380D01*
X136080380Y-108148380D01*
X136080380Y-107148380D01*
X134620095Y-109736000D02*
X134524857Y-109688380D01*
X134382000Y-109688380D01*
X134239142Y-109736000D01*
X134143904Y-109831238D01*
X134096285Y-109926476D01*
X134048666Y-110116952D01*
X134048666Y-110259809D01*
X134096285Y-110450285D01*
X134143904Y-110545523D01*
X134239142Y-110640761D01*
X134382000Y-110688380D01*
X134477238Y-110688380D01*
X134620095Y-110640761D01*
X134667714Y-110593142D01*
X134667714Y-110259809D01*
X134477238Y-110259809D01*
X135096285Y-110688380D02*
X135096285Y-109688380D01*
X135667714Y-110688380D01*
X135667714Y-109688380D01*
X136143904Y-110688380D02*
X136143904Y-109688380D01*
X136382000Y-109688380D01*
X136524857Y-109736000D01*
X136620095Y-109831238D01*
X136667714Y-109926476D01*
X136715333Y-110116952D01*
X136715333Y-110259809D01*
X136667714Y-110450285D01*
X136620095Y-110545523D01*
X136524857Y-110640761D01*
X136382000Y-110688380D01*
X136143904Y-110688380D01*
X134128095Y-112228380D02*
X134461428Y-113228380D01*
X134794761Y-112228380D01*
X135318571Y-112228380D02*
X135509047Y-112228380D01*
X135604285Y-112276000D01*
X135699523Y-112371238D01*
X135747142Y-112561714D01*
X135747142Y-112895047D01*
X135699523Y-113085523D01*
X135604285Y-113180761D01*
X135509047Y-113228380D01*
X135318571Y-113228380D01*
X135223333Y-113180761D01*
X135128095Y-113085523D01*
X135080476Y-112895047D01*
X135080476Y-112561714D01*
X135128095Y-112371238D01*
X135223333Y-112276000D01*
X135318571Y-112228380D01*
X136175714Y-112228380D02*
X136175714Y-113037904D01*
X136223333Y-113133142D01*
X136270952Y-113180761D01*
X136366190Y-113228380D01*
X136556666Y-113228380D01*
X136651904Y-113180761D01*
X136699523Y-113133142D01*
X136747142Y-113037904D01*
X136747142Y-112228380D01*
X137080476Y-112228380D02*
X137651904Y-112228380D01*
X137366190Y-113228380D02*
X137366190Y-112228380D01*
X159744404Y-89860380D02*
X159744404Y-88860380D01*
X159982500Y-88860380D01*
X160125357Y-88908000D01*
X160220595Y-89003238D01*
X160268214Y-89098476D01*
X160315833Y-89288952D01*
X160315833Y-89431809D01*
X160268214Y-89622285D01*
X160220595Y-89717523D01*
X160125357Y-89812761D01*
X159982500Y-89860380D01*
X159744404Y-89860380D01*
X161268214Y-89860380D02*
X160696785Y-89860380D01*
X160982500Y-89860380D02*
X160982500Y-88860380D01*
X160887261Y-89003238D01*
X160792023Y-89098476D01*
X160696785Y-89146095D01*
X135382095Y-119340380D02*
X135382095Y-120149904D01*
X135429714Y-120245142D01*
X135477333Y-120292761D01*
X135572571Y-120340380D01*
X135763047Y-120340380D01*
X135858285Y-120292761D01*
X135905904Y-120245142D01*
X135953523Y-120149904D01*
X135953523Y-119340380D01*
X136953523Y-120340380D02*
X136382095Y-120340380D01*
X136667809Y-120340380D02*
X136667809Y-119340380D01*
X136572571Y-119483238D01*
X136477333Y-119578476D01*
X136382095Y-119626095D01*
X122102571Y-88725333D02*
X122102571Y-89058666D01*
X122626380Y-89058666D02*
X121626380Y-89058666D01*
X121626380Y-88582476D01*
X122626380Y-87677714D02*
X122626380Y-88249142D01*
X122626380Y-87963428D02*
X121626380Y-87963428D01*
X121769238Y-88058666D01*
X121864476Y-88153904D01*
X121912095Y-88249142D01*
M02*
