G04 #@! TF.GenerationSoftware,KiCad,Pcbnew,5.1.9+dfsg1-1*
G04 #@! TF.CreationDate,2022-11-10T15:58:18+09:00*
G04 #@! TF.ProjectId,adapter-board,61646170-7465-4722-9d62-6f6172642e6b,rev?*
G04 #@! TF.SameCoordinates,Original*
G04 #@! TF.FileFunction,Profile,NP*
%FSLAX46Y46*%
G04 Gerber Fmt 4.6, Leading zero omitted, Abs format (unit mm)*
G04 Created by KiCad (PCBNEW 5.1.9+dfsg1-1) date 2022-11-10 15:58:18*
%MOMM*%
%LPD*%
G01*
G04 APERTURE LIST*
G04 #@! TA.AperFunction,Profile*
%ADD10C,0.050000*%
G04 #@! TD*
G04 APERTURE END LIST*
D10*
X163830000Y-66802000D02*
X163830000Y-92456000D01*
X83566000Y-92456000D02*
X163830000Y-92456000D01*
X83566000Y-66802000D02*
X163830000Y-66802000D01*
X83566000Y-92456000D02*
X83566000Y-66802000D01*
X90297000Y-91694000D02*
X93091000Y-91694000D01*
X90297000Y-90170000D02*
X93091000Y-90170000D01*
X110363000Y-91694000D02*
X107569000Y-91694000D01*
X107569000Y-90170000D02*
X110363000Y-90170000D01*
X110871000Y-90678000D02*
X110871000Y-91186000D01*
X107061000Y-90678000D02*
X107061000Y-91186000D01*
X93599000Y-90678000D02*
X93599000Y-91186000D01*
X89789000Y-90678000D02*
X89789000Y-91186000D01*
X93091000Y-90170000D02*
G75*
G02*
X93599000Y-90678000I0J-508000D01*
G01*
X93599000Y-91186000D02*
G75*
G02*
X93091000Y-91694000I-508000J0D01*
G01*
X90297000Y-91694000D02*
G75*
G02*
X89789000Y-91186000I0J508000D01*
G01*
X89789000Y-90678000D02*
G75*
G02*
X90297000Y-90170000I508000J0D01*
G01*
X110363000Y-90170000D02*
G75*
G02*
X110871000Y-90678000I0J-508000D01*
G01*
X110871000Y-91186000D02*
G75*
G02*
X110363000Y-91694000I-508000J0D01*
G01*
X107569000Y-91694000D02*
G75*
G02*
X107061000Y-91186000I0J508000D01*
G01*
X107061000Y-90678000D02*
G75*
G02*
X107569000Y-90170000I508000J0D01*
G01*
M02*
