G04 #@! TF.GenerationSoftware,KiCad,Pcbnew,5.1.9+dfsg1-1*
G04 #@! TF.CreationDate,2022-11-10T15:58:18+09:00*
G04 #@! TF.ProjectId,adapter-board,61646170-7465-4722-9d62-6f6172642e6b,rev?*
G04 #@! TF.SameCoordinates,Original*
G04 #@! TF.FileFunction,Copper,L2,Inr*
G04 #@! TF.FilePolarity,Positive*
%FSLAX46Y46*%
G04 Gerber Fmt 4.6, Leading zero omitted, Abs format (unit mm)*
G04 Created by KiCad (PCBNEW 5.1.9+dfsg1-1) date 2022-11-10 15:58:18*
%MOMM*%
%LPD*%
G01*
G04 APERTURE LIST*
G04 #@! TA.AperFunction,ComponentPad*
%ADD10C,5.600000*%
G04 #@! TD*
G04 #@! TA.AperFunction,ComponentPad*
%ADD11C,1.524000*%
G04 #@! TD*
G04 #@! TA.AperFunction,ComponentPad*
%ADD12R,1.700000X1.700000*%
G04 #@! TD*
G04 #@! TA.AperFunction,ComponentPad*
%ADD13O,1.700000X1.700000*%
G04 #@! TD*
G04 #@! TA.AperFunction,ComponentPad*
%ADD14O,1.700000X2.000000*%
G04 #@! TD*
G04 #@! TA.AperFunction,ComponentPad*
%ADD15O,1.700000X1.950000*%
G04 #@! TD*
G04 #@! TA.AperFunction,ComponentPad*
%ADD16C,1.000000*%
G04 #@! TD*
G04 #@! TA.AperFunction,ViaPad*
%ADD17C,1.500000*%
G04 #@! TD*
G04 #@! TA.AperFunction,ViaPad*
%ADD18C,0.800000*%
G04 #@! TD*
G04 #@! TA.AperFunction,Conductor*
%ADD19C,0.250000*%
G04 #@! TD*
G04 APERTURE END LIST*
D10*
X113792000Y-83820000D03*
X87122000Y-83820000D03*
D11*
X107315000Y-85852000D03*
X104775000Y-85852000D03*
X102235000Y-85852000D03*
X99695000Y-85852000D03*
X97155000Y-85852000D03*
X94615000Y-85852000D03*
X106045000Y-88392000D03*
X103505000Y-88392000D03*
X100965000Y-88392000D03*
X98425000Y-88392000D03*
X95885000Y-88392000D03*
X93345000Y-88392000D03*
D12*
X121920000Y-68199000D03*
D13*
X121920000Y-70739000D03*
X121920000Y-73279000D03*
X121920000Y-75819000D03*
X121920000Y-78359000D03*
X121920000Y-80899000D03*
X121920000Y-83439000D03*
X121920000Y-85979000D03*
X121920000Y-88519000D03*
X121920000Y-91059000D03*
D12*
X149860000Y-73152000D03*
D13*
X149860000Y-75692000D03*
X149860000Y-78232000D03*
X149860000Y-80772000D03*
X149860000Y-83312000D03*
X149860000Y-85852000D03*
X149860000Y-88392000D03*
X149860000Y-90932000D03*
X144780000Y-68199000D03*
X144780000Y-70739000D03*
X144780000Y-73279000D03*
X144780000Y-75819000D03*
X144780000Y-78359000D03*
X144780000Y-80899000D03*
X144780000Y-83439000D03*
X144780000Y-85979000D03*
X144780000Y-88519000D03*
D12*
X144780000Y-91059000D03*
D13*
X162560000Y-73152000D03*
X162560000Y-75692000D03*
X162560000Y-78232000D03*
X162560000Y-80772000D03*
X162560000Y-83312000D03*
X162560000Y-85852000D03*
X162560000Y-88392000D03*
D12*
X162560000Y-90932000D03*
G04 #@! TA.AperFunction,ComponentPad*
G36*
G01*
X98132000Y-76339000D02*
X98132000Y-77839000D01*
G75*
G02*
X97882000Y-78089000I-250000J0D01*
G01*
X96682000Y-78089000D01*
G75*
G02*
X96432000Y-77839000I0J250000D01*
G01*
X96432000Y-76339000D01*
G75*
G02*
X96682000Y-76089000I250000J0D01*
G01*
X97882000Y-76089000D01*
G75*
G02*
X98132000Y-76339000I0J-250000D01*
G01*
G37*
G04 #@! TD.AperFunction*
D14*
X94782000Y-77089000D03*
G04 #@! TA.AperFunction,ComponentPad*
G36*
G01*
X114482000Y-76364000D02*
X114482000Y-77814000D01*
G75*
G02*
X114232000Y-78064000I-250000J0D01*
G01*
X113032000Y-78064000D01*
G75*
G02*
X112782000Y-77814000I0J250000D01*
G01*
X112782000Y-76364000D01*
G75*
G02*
X113032000Y-76114000I250000J0D01*
G01*
X114232000Y-76114000D01*
G75*
G02*
X114482000Y-76364000I0J-250000D01*
G01*
G37*
G04 #@! TD.AperFunction*
D15*
X111132000Y-77089000D03*
X108632000Y-77089000D03*
X106132000Y-77089000D03*
X103632000Y-77089000D03*
D16*
X152146000Y-69850000D03*
X152146000Y-67950000D03*
D12*
X159512000Y-75692000D03*
D13*
X159512000Y-73152000D03*
D12*
X159766000Y-90932000D03*
D13*
X157226000Y-90932000D03*
X154686000Y-90932000D03*
D12*
X134620000Y-90170000D03*
D13*
X132080000Y-90170000D03*
D17*
X119380000Y-70612000D03*
X119380000Y-73152000D03*
X119380000Y-75692000D03*
X119380000Y-78232000D03*
X119380000Y-80772000D03*
X119380000Y-83312000D03*
X119380000Y-85852000D03*
X119380000Y-88392000D03*
X119380000Y-90932000D03*
X147320000Y-90932000D03*
X147320000Y-88392000D03*
X147320000Y-85852000D03*
X147320000Y-83312000D03*
X147320000Y-80772000D03*
X147320000Y-78232000D03*
X147320000Y-75692000D03*
X147320000Y-73152000D03*
X147320000Y-70612000D03*
X147320000Y-68072000D03*
X119380000Y-68072000D03*
D18*
X109220000Y-88265000D03*
X91440000Y-88265000D03*
X125476000Y-86614000D03*
X125850000Y-78318000D03*
X140850000Y-78318000D03*
X154389000Y-73152000D03*
X154389000Y-75946000D03*
X157269000Y-84328000D03*
X157247500Y-86614000D03*
X125476000Y-84328000D03*
X140970000Y-84328000D03*
D19*
X103378000Y-77089000D02*
X103632000Y-77089000D01*
X94615000Y-85852000D02*
X103378000Y-77089000D01*
X95885000Y-85513238D02*
X102404238Y-78994000D01*
X95885000Y-88392000D02*
X95885000Y-85513238D01*
X104227000Y-78994000D02*
X106132000Y-77089000D01*
X102404238Y-78994000D02*
X104227000Y-78994000D01*
X121920000Y-85979000D02*
X123190000Y-84709000D01*
X123190000Y-84709000D02*
X123190000Y-78994000D01*
X123866000Y-78318000D02*
X125850000Y-78318000D01*
X123190000Y-78994000D02*
X123866000Y-78318000D01*
X144780000Y-85979000D02*
X143510000Y-84709000D01*
X143510000Y-84709000D02*
X143510000Y-78994000D01*
X142834000Y-78318000D02*
X140850000Y-78318000D01*
X143510000Y-78994000D02*
X142834000Y-78318000D01*
X159766000Y-86825000D02*
X157269000Y-84328000D01*
X159766000Y-90932000D02*
X159766000Y-86825000D01*
X157226000Y-86635500D02*
X157247500Y-86614000D01*
X157226000Y-90932000D02*
X157226000Y-86635500D01*
M02*
