M48
; DRILL file {KiCad 5.1.9+dfsg1-1} date Thu Nov 10 15:58:45 2022
; FORMAT={-:-/ absolute / metric / decimal}
; #@! TF.CreationDate,2022-11-10T15:58:45+09:00
; #@! TF.GenerationSoftware,Kicad,Pcbnew,5.1.9+dfsg1-1
; #@! TF.FileFunction,Plated,1,4,PTH
FMAT,2
METRIC
T1C0.400
T2C0.500
T3C0.762
T4C0.950
T5C1.000
T6C1.200
T7C3.200
%
G90
G05
T1
X91.44Y-88.265
X109.22Y-88.265
X125.476Y-84.328
X125.476Y-86.614
X125.85Y-78.318
X140.85Y-78.318
X140.97Y-84.328
X154.389Y-73.152
X154.389Y-75.946
X157.248Y-86.614
X157.269Y-84.328
T2
X152.146Y-67.95
X152.146Y-69.85
T3
X93.345Y-88.392
X94.615Y-85.852
X95.885Y-88.392
X97.155Y-85.852
X98.425Y-88.392
X99.695Y-85.852
X100.965Y-88.392
X102.235Y-85.852
X103.505Y-88.392
X104.775Y-85.852
X106.045Y-88.392
X107.315Y-85.852
T4
X103.632Y-77.089
X106.132Y-77.089
X108.632Y-77.089
X111.132Y-77.089
X113.632Y-77.089
T5
X94.782Y-77.089
X97.282Y-77.089
X121.92Y-68.199
X121.92Y-70.739
X121.92Y-73.279
X121.92Y-75.819
X121.92Y-78.359
X121.92Y-80.899
X121.92Y-83.439
X121.92Y-85.979
X121.92Y-88.519
X121.92Y-91.059
X132.08Y-90.17
X134.62Y-90.17
X144.78Y-68.199
X144.78Y-70.739
X144.78Y-73.279
X144.78Y-75.819
X144.78Y-78.359
X144.78Y-80.899
X144.78Y-83.439
X144.78Y-85.979
X144.78Y-88.519
X144.78Y-91.059
X149.86Y-73.152
X149.86Y-75.692
X149.86Y-78.232
X149.86Y-80.772
X149.86Y-83.312
X149.86Y-85.852
X149.86Y-88.392
X149.86Y-90.932
X154.686Y-90.932
X157.226Y-90.932
X159.512Y-73.152
X159.512Y-75.692
X159.766Y-90.932
X162.56Y-73.152
X162.56Y-75.692
X162.56Y-78.232
X162.56Y-80.772
X162.56Y-83.312
X162.56Y-85.852
X162.56Y-88.392
X162.56Y-90.932
T6
X119.38Y-68.072
X119.38Y-70.612
X119.38Y-73.152
X119.38Y-75.692
X119.38Y-78.232
X119.38Y-80.772
X119.38Y-83.312
X119.38Y-85.852
X119.38Y-88.392
X119.38Y-90.932
X147.32Y-68.072
X147.32Y-70.612
X147.32Y-73.152
X147.32Y-75.692
X147.32Y-78.232
X147.32Y-80.772
X147.32Y-83.312
X147.32Y-85.852
X147.32Y-88.392
X147.32Y-90.932
T7
X87.122Y-83.82
X113.792Y-83.82
T0
M30
