%FSLAX45Y45*%
G04 Gerber Fmt 4.5, Leading zero omitted, Abs format (unit mm)*
G04 Created by KiCad (PCBNEW 5.1.9+dfsg1-1) date 2022-11-10 15:59:03*
%MOMM*%
%LPD*%
G01*
G04 APERTURE LIST*
%TA.AperFunction,Profile*%
%ADD10C,0.050000*%
%TD*%
%ADD11C,0.200000*%
%ADD12C,0.300000*%
G04 APERTURE END LIST*
D10*
X16383000Y-6680200D02*
X16383000Y-9245600D01*
X8356600Y-9245600D02*
X16383000Y-9245600D01*
X8356600Y-6680200D02*
X16383000Y-6680200D01*
X8356600Y-9245600D02*
X8356600Y-6680200D01*
X9029700Y-9169400D02*
X9309100Y-9169400D01*
X9029700Y-9017000D02*
X9309100Y-9017000D01*
X11036300Y-9169400D02*
X10756900Y-9169400D01*
X10756900Y-9017000D02*
X11036300Y-9017000D01*
X11087100Y-9067800D02*
X11087100Y-9118600D01*
X10706100Y-9067800D02*
X10706100Y-9118600D01*
X9359900Y-9067800D02*
X9359900Y-9118600D01*
X8978900Y-9067800D02*
X8978900Y-9118600D01*
X9309100Y-9017000D02*
G75*
G02*
X9359900Y-9067800I0J-50800D01*
G01*
X9359900Y-9118600D02*
G75*
G02*
X9309100Y-9169400I-50800J0D01*
G01*
X9029700Y-9169400D02*
G75*
G02*
X8978900Y-9118600I0J50800D01*
G01*
X8978900Y-9067800D02*
G75*
G02*
X9029700Y-9017000I50800J0D01*
G01*
X11036300Y-9017000D02*
G75*
G02*
X11087100Y-9067800I0J-50800D01*
G01*
X11087100Y-9118600D02*
G75*
G02*
X11036300Y-9169400I-50800J0D01*
G01*
X10756900Y-9169400D02*
G75*
G02*
X10706100Y-9118600I0J50800D01*
G01*
X10706100Y-9067800D02*
G75*
G02*
X10756900Y-9017000I50800J0D01*
G01*
D11*
X9124000Y-8806500D02*
X9164000Y-8846500D01*
X9164000Y-8806500D02*
X9124000Y-8846500D01*
X10902000Y-8806500D02*
X10942000Y-8846500D01*
X10942000Y-8806500D02*
X10902000Y-8846500D01*
X12527600Y-8412800D02*
X12567600Y-8452800D01*
X12567600Y-8412800D02*
X12527600Y-8452800D01*
X12527600Y-8641400D02*
X12567600Y-8681400D01*
X12567600Y-8641400D02*
X12527600Y-8681400D01*
X12565000Y-7811800D02*
X12605000Y-7851800D01*
X12605000Y-7811800D02*
X12565000Y-7851800D01*
X14065000Y-7811800D02*
X14105000Y-7851800D01*
X14105000Y-7811800D02*
X14065000Y-7851800D01*
X14077000Y-8412800D02*
X14117000Y-8452800D01*
X14117000Y-8412800D02*
X14077000Y-8452800D01*
X15418900Y-7295200D02*
X15458900Y-7335200D01*
X15458900Y-7295200D02*
X15418900Y-7335200D01*
X15418900Y-7574600D02*
X15458900Y-7614600D01*
X15458900Y-7574600D02*
X15418900Y-7614600D01*
X15704750Y-8641400D02*
X15744750Y-8681400D01*
X15744750Y-8641400D02*
X15704750Y-8681400D01*
X15706900Y-8412800D02*
X15746900Y-8452800D01*
X15746900Y-8412800D02*
X15706900Y-8452800D01*
X15239600Y-6795000D02*
G75*
G03*
X15239600Y-6795000I-25000J0D01*
G01*
X15239600Y-6985000D02*
G75*
G03*
X15239600Y-6985000I-25000J0D01*
G01*
X9334500Y-8801100D02*
X9334500Y-8877300D01*
X9296400Y-8839200D02*
X9372600Y-8839200D01*
X9461500Y-8547100D02*
X9461500Y-8623300D01*
X9423400Y-8585200D02*
X9499600Y-8585200D01*
X9588500Y-8801100D02*
X9588500Y-8877300D01*
X9550400Y-8839200D02*
X9626600Y-8839200D01*
X9715500Y-8547100D02*
X9715500Y-8623300D01*
X9677400Y-8585200D02*
X9753600Y-8585200D01*
X9842500Y-8801100D02*
X9842500Y-8877300D01*
X9804400Y-8839200D02*
X9880600Y-8839200D01*
X9969500Y-8547100D02*
X9969500Y-8623300D01*
X9931400Y-8585200D02*
X10007600Y-8585200D01*
X10096500Y-8801100D02*
X10096500Y-8877300D01*
X10058400Y-8839200D02*
X10134600Y-8839200D01*
X10223500Y-8547100D02*
X10223500Y-8623300D01*
X10185400Y-8585200D02*
X10261600Y-8585200D01*
X10350500Y-8801100D02*
X10350500Y-8877300D01*
X10312400Y-8839200D02*
X10388600Y-8839200D01*
X10477500Y-8547100D02*
X10477500Y-8623300D01*
X10439400Y-8585200D02*
X10515600Y-8585200D01*
X10604500Y-8801100D02*
X10604500Y-8877300D01*
X10566400Y-8839200D02*
X10642600Y-8839200D01*
X10731500Y-8547100D02*
X10731500Y-8623300D01*
X10693400Y-8585200D02*
X10769600Y-8585200D01*
X10396788Y-7742488D02*
X10396788Y-7675312D01*
X10329612Y-7675312D01*
X10329612Y-7742488D01*
X10396788Y-7742488D01*
X10646788Y-7742488D02*
X10646788Y-7675312D01*
X10579612Y-7675312D01*
X10579612Y-7742488D01*
X10646788Y-7742488D01*
X10896788Y-7742488D02*
X10896788Y-7675312D01*
X10829612Y-7675312D01*
X10829612Y-7742488D01*
X10896788Y-7742488D01*
X11146788Y-7742488D02*
X11146788Y-7675312D01*
X11079612Y-7675312D01*
X11079612Y-7742488D01*
X11146788Y-7742488D01*
X11396788Y-7742488D02*
X11396788Y-7675312D01*
X11329612Y-7675312D01*
X11329612Y-7742488D01*
X11396788Y-7742488D01*
X9478200Y-7758900D02*
X9528200Y-7708900D01*
X9478200Y-7658900D01*
X9428200Y-7708900D01*
X9478200Y-7758900D01*
X9728200Y-7758900D02*
X9778200Y-7708900D01*
X9728200Y-7658900D01*
X9678200Y-7708900D01*
X9728200Y-7758900D01*
X12192000Y-6869900D02*
X12242000Y-6819900D01*
X12192000Y-6769900D01*
X12142000Y-6819900D01*
X12192000Y-6869900D01*
X12192000Y-7123900D02*
X12242000Y-7073900D01*
X12192000Y-7023900D01*
X12142000Y-7073900D01*
X12192000Y-7123900D01*
X12192000Y-7377900D02*
X12242000Y-7327900D01*
X12192000Y-7277900D01*
X12142000Y-7327900D01*
X12192000Y-7377900D01*
X12192000Y-7631900D02*
X12242000Y-7581900D01*
X12192000Y-7531900D01*
X12142000Y-7581900D01*
X12192000Y-7631900D01*
X12192000Y-7885900D02*
X12242000Y-7835900D01*
X12192000Y-7785900D01*
X12142000Y-7835900D01*
X12192000Y-7885900D01*
X12192000Y-8139900D02*
X12242000Y-8089900D01*
X12192000Y-8039900D01*
X12142000Y-8089900D01*
X12192000Y-8139900D01*
X12192000Y-8393900D02*
X12242000Y-8343900D01*
X12192000Y-8293900D01*
X12142000Y-8343900D01*
X12192000Y-8393900D01*
X12192000Y-8647900D02*
X12242000Y-8597900D01*
X12192000Y-8547900D01*
X12142000Y-8597900D01*
X12192000Y-8647900D01*
X12192000Y-8901900D02*
X12242000Y-8851900D01*
X12192000Y-8801900D01*
X12142000Y-8851900D01*
X12192000Y-8901900D01*
X12192000Y-9155900D02*
X12242000Y-9105900D01*
X12192000Y-9055900D01*
X12142000Y-9105900D01*
X12192000Y-9155900D01*
X13208000Y-9067000D02*
X13258000Y-9017000D01*
X13208000Y-8967000D01*
X13158000Y-9017000D01*
X13208000Y-9067000D01*
X13462000Y-9067000D02*
X13512000Y-9017000D01*
X13462000Y-8967000D01*
X13412000Y-9017000D01*
X13462000Y-9067000D01*
X14478000Y-6869900D02*
X14528000Y-6819900D01*
X14478000Y-6769900D01*
X14428000Y-6819900D01*
X14478000Y-6869900D01*
X14478000Y-7123900D02*
X14528000Y-7073900D01*
X14478000Y-7023900D01*
X14428000Y-7073900D01*
X14478000Y-7123900D01*
X14478000Y-7377900D02*
X14528000Y-7327900D01*
X14478000Y-7277900D01*
X14428000Y-7327900D01*
X14478000Y-7377900D01*
X14478000Y-7631900D02*
X14528000Y-7581900D01*
X14478000Y-7531900D01*
X14428000Y-7581900D01*
X14478000Y-7631900D01*
X14478000Y-7885900D02*
X14528000Y-7835900D01*
X14478000Y-7785900D01*
X14428000Y-7835900D01*
X14478000Y-7885900D01*
X14478000Y-8139900D02*
X14528000Y-8089900D01*
X14478000Y-8039900D01*
X14428000Y-8089900D01*
X14478000Y-8139900D01*
X14478000Y-8393900D02*
X14528000Y-8343900D01*
X14478000Y-8293900D01*
X14428000Y-8343900D01*
X14478000Y-8393900D01*
X14478000Y-8647900D02*
X14528000Y-8597900D01*
X14478000Y-8547900D01*
X14428000Y-8597900D01*
X14478000Y-8647900D01*
X14478000Y-8901900D02*
X14528000Y-8851900D01*
X14478000Y-8801900D01*
X14428000Y-8851900D01*
X14478000Y-8901900D01*
X14478000Y-9155900D02*
X14528000Y-9105900D01*
X14478000Y-9055900D01*
X14428000Y-9105900D01*
X14478000Y-9155900D01*
X14986000Y-7365200D02*
X15036000Y-7315200D01*
X14986000Y-7265200D01*
X14936000Y-7315200D01*
X14986000Y-7365200D01*
X14986000Y-7619200D02*
X15036000Y-7569200D01*
X14986000Y-7519200D01*
X14936000Y-7569200D01*
X14986000Y-7619200D01*
X14986000Y-7873200D02*
X15036000Y-7823200D01*
X14986000Y-7773200D01*
X14936000Y-7823200D01*
X14986000Y-7873200D01*
X14986000Y-8127200D02*
X15036000Y-8077200D01*
X14986000Y-8027200D01*
X14936000Y-8077200D01*
X14986000Y-8127200D01*
X14986000Y-8381200D02*
X15036000Y-8331200D01*
X14986000Y-8281200D01*
X14936000Y-8331200D01*
X14986000Y-8381200D01*
X14986000Y-8635200D02*
X15036000Y-8585200D01*
X14986000Y-8535200D01*
X14936000Y-8585200D01*
X14986000Y-8635200D01*
X14986000Y-8889200D02*
X15036000Y-8839200D01*
X14986000Y-8789200D01*
X14936000Y-8839200D01*
X14986000Y-8889200D01*
X14986000Y-9143200D02*
X15036000Y-9093200D01*
X14986000Y-9043200D01*
X14936000Y-9093200D01*
X14986000Y-9143200D01*
X15468600Y-9143200D02*
X15518600Y-9093200D01*
X15468600Y-9043200D01*
X15418600Y-9093200D01*
X15468600Y-9143200D01*
X15722600Y-9143200D02*
X15772600Y-9093200D01*
X15722600Y-9043200D01*
X15672600Y-9093200D01*
X15722600Y-9143200D01*
X15951200Y-7365200D02*
X16001200Y-7315200D01*
X15951200Y-7265200D01*
X15901200Y-7315200D01*
X15951200Y-7365200D01*
X15951200Y-7619200D02*
X16001200Y-7569200D01*
X15951200Y-7519200D01*
X15901200Y-7569200D01*
X15951200Y-7619200D01*
X15976600Y-9143200D02*
X16026600Y-9093200D01*
X15976600Y-9043200D01*
X15926600Y-9093200D01*
X15976600Y-9143200D01*
X16256000Y-7365200D02*
X16306000Y-7315200D01*
X16256000Y-7265200D01*
X16206000Y-7315200D01*
X16256000Y-7365200D01*
X16256000Y-7619200D02*
X16306000Y-7569200D01*
X16256000Y-7519200D01*
X16206000Y-7569200D01*
X16256000Y-7619200D01*
X16256000Y-7873200D02*
X16306000Y-7823200D01*
X16256000Y-7773200D01*
X16206000Y-7823200D01*
X16256000Y-7873200D01*
X16256000Y-8127200D02*
X16306000Y-8077200D01*
X16256000Y-8027200D01*
X16206000Y-8077200D01*
X16256000Y-8127200D01*
X16256000Y-8381200D02*
X16306000Y-8331200D01*
X16256000Y-8281200D01*
X16206000Y-8331200D01*
X16256000Y-8381200D01*
X16256000Y-8635200D02*
X16306000Y-8585200D01*
X16256000Y-8535200D01*
X16206000Y-8585200D01*
X16256000Y-8635200D01*
X16256000Y-8889200D02*
X16306000Y-8839200D01*
X16256000Y-8789200D01*
X16206000Y-8839200D01*
X16256000Y-8889200D01*
X16256000Y-9143200D02*
X16306000Y-9093200D01*
X16256000Y-9043200D01*
X16206000Y-9093200D01*
X16256000Y-9143200D01*
X11878000Y-6747200D02*
X11998000Y-6867200D01*
X11998000Y-6747200D02*
X11878000Y-6867200D01*
X11998000Y-6807200D02*
G75*
G03*
X11998000Y-6807200I-60000J0D01*
G01*
X11878000Y-7001200D02*
X11998000Y-7121200D01*
X11998000Y-7001200D02*
X11878000Y-7121200D01*
X11998000Y-7061200D02*
G75*
G03*
X11998000Y-7061200I-60000J0D01*
G01*
X11878000Y-7255200D02*
X11998000Y-7375200D01*
X11998000Y-7255200D02*
X11878000Y-7375200D01*
X11998000Y-7315200D02*
G75*
G03*
X11998000Y-7315200I-60000J0D01*
G01*
X11878000Y-7509200D02*
X11998000Y-7629200D01*
X11998000Y-7509200D02*
X11878000Y-7629200D01*
X11998000Y-7569200D02*
G75*
G03*
X11998000Y-7569200I-60000J0D01*
G01*
X11878000Y-7763200D02*
X11998000Y-7883200D01*
X11998000Y-7763200D02*
X11878000Y-7883200D01*
X11998000Y-7823200D02*
G75*
G03*
X11998000Y-7823200I-60000J0D01*
G01*
X11878000Y-8017200D02*
X11998000Y-8137200D01*
X11998000Y-8017200D02*
X11878000Y-8137200D01*
X11998000Y-8077200D02*
G75*
G03*
X11998000Y-8077200I-60000J0D01*
G01*
X11878000Y-8271200D02*
X11998000Y-8391200D01*
X11998000Y-8271200D02*
X11878000Y-8391200D01*
X11998000Y-8331200D02*
G75*
G03*
X11998000Y-8331200I-60000J0D01*
G01*
X11878000Y-8525200D02*
X11998000Y-8645200D01*
X11998000Y-8525200D02*
X11878000Y-8645200D01*
X11998000Y-8585200D02*
G75*
G03*
X11998000Y-8585200I-60000J0D01*
G01*
X11878000Y-8779200D02*
X11998000Y-8899200D01*
X11998000Y-8779200D02*
X11878000Y-8899200D01*
X11998000Y-8839200D02*
G75*
G03*
X11998000Y-8839200I-60000J0D01*
G01*
X11878000Y-9033200D02*
X11998000Y-9153200D01*
X11998000Y-9033200D02*
X11878000Y-9153200D01*
X11998000Y-9093200D02*
G75*
G03*
X11998000Y-9093200I-60000J0D01*
G01*
X14672000Y-6747200D02*
X14792000Y-6867200D01*
X14792000Y-6747200D02*
X14672000Y-6867200D01*
X14792000Y-6807200D02*
G75*
G03*
X14792000Y-6807200I-60000J0D01*
G01*
X14672000Y-7001200D02*
X14792000Y-7121200D01*
X14792000Y-7001200D02*
X14672000Y-7121200D01*
X14792000Y-7061200D02*
G75*
G03*
X14792000Y-7061200I-60000J0D01*
G01*
X14672000Y-7255200D02*
X14792000Y-7375200D01*
X14792000Y-7255200D02*
X14672000Y-7375200D01*
X14792000Y-7315200D02*
G75*
G03*
X14792000Y-7315200I-60000J0D01*
G01*
X14672000Y-7509200D02*
X14792000Y-7629200D01*
X14792000Y-7509200D02*
X14672000Y-7629200D01*
X14792000Y-7569200D02*
G75*
G03*
X14792000Y-7569200I-60000J0D01*
G01*
X14672000Y-7763200D02*
X14792000Y-7883200D01*
X14792000Y-7763200D02*
X14672000Y-7883200D01*
X14792000Y-7823200D02*
G75*
G03*
X14792000Y-7823200I-60000J0D01*
G01*
X14672000Y-8017200D02*
X14792000Y-8137200D01*
X14792000Y-8017200D02*
X14672000Y-8137200D01*
X14792000Y-8077200D02*
G75*
G03*
X14792000Y-8077200I-60000J0D01*
G01*
X14672000Y-8271200D02*
X14792000Y-8391200D01*
X14792000Y-8271200D02*
X14672000Y-8391200D01*
X14792000Y-8331200D02*
G75*
G03*
X14792000Y-8331200I-60000J0D01*
G01*
X14672000Y-8525200D02*
X14792000Y-8645200D01*
X14792000Y-8525200D02*
X14672000Y-8645200D01*
X14792000Y-8585200D02*
G75*
G03*
X14792000Y-8585200I-60000J0D01*
G01*
X14672000Y-8779200D02*
X14792000Y-8899200D01*
X14792000Y-8779200D02*
X14672000Y-8899200D01*
X14792000Y-8839200D02*
G75*
G03*
X14792000Y-8839200I-60000J0D01*
G01*
X14672000Y-9033200D02*
X14792000Y-9153200D01*
X14792000Y-9033200D02*
X14672000Y-9153200D01*
X14792000Y-9093200D02*
G75*
G03*
X14792000Y-9093200I-60000J0D01*
G01*
X8552200Y-8222000D02*
X8872200Y-8542000D01*
X8872200Y-8222000D02*
X8552200Y-8542000D01*
X8712200Y-8222000D02*
X8712200Y-8542000D01*
X8552200Y-8382000D02*
X8872200Y-8382000D01*
X11219200Y-8222000D02*
X11539200Y-8542000D01*
X11539200Y-8222000D02*
X11219200Y-8542000D01*
X11379200Y-8222000D02*
X11379200Y-8542000D01*
X11219200Y-8382000D02*
X11539200Y-8382000D01*
D12*
X8640528Y-9713814D02*
X8640528Y-9413814D01*
X8711957Y-9413814D01*
X8754814Y-9428100D01*
X8783386Y-9456672D01*
X8797671Y-9485243D01*
X8811957Y-9542386D01*
X8811957Y-9585243D01*
X8797671Y-9642386D01*
X8783386Y-9670957D01*
X8754814Y-9699529D01*
X8711957Y-9713814D01*
X8640528Y-9713814D01*
X8940528Y-9713814D02*
X8940528Y-9513814D01*
X8940528Y-9570957D02*
X8954814Y-9542386D01*
X8969100Y-9528100D01*
X8997671Y-9513814D01*
X9026243Y-9513814D01*
X9126243Y-9713814D02*
X9126243Y-9513814D01*
X9126243Y-9413814D02*
X9111957Y-9428100D01*
X9126243Y-9442386D01*
X9140528Y-9428100D01*
X9126243Y-9413814D01*
X9126243Y-9442386D01*
X9311957Y-9713814D02*
X9283386Y-9699529D01*
X9269100Y-9670957D01*
X9269100Y-9413814D01*
X9469100Y-9713814D02*
X9440528Y-9699529D01*
X9426243Y-9670957D01*
X9426243Y-9413814D01*
X9811957Y-9713814D02*
X9811957Y-9413814D01*
X9911957Y-9628100D01*
X10011957Y-9413814D01*
X10011957Y-9713814D01*
X10283386Y-9713814D02*
X10283386Y-9556672D01*
X10269100Y-9528100D01*
X10240528Y-9513814D01*
X10183386Y-9513814D01*
X10154814Y-9528100D01*
X10283386Y-9699529D02*
X10254814Y-9713814D01*
X10183386Y-9713814D01*
X10154814Y-9699529D01*
X10140528Y-9670957D01*
X10140528Y-9642386D01*
X10154814Y-9613814D01*
X10183386Y-9599529D01*
X10254814Y-9599529D01*
X10283386Y-9585243D01*
X10426243Y-9513814D02*
X10426243Y-9813814D01*
X10426243Y-9528100D02*
X10454814Y-9513814D01*
X10511957Y-9513814D01*
X10540528Y-9528100D01*
X10554814Y-9542386D01*
X10569100Y-9570957D01*
X10569100Y-9656672D01*
X10554814Y-9685243D01*
X10540528Y-9699529D01*
X10511957Y-9713814D01*
X10454814Y-9713814D01*
X10426243Y-9699529D01*
X10697671Y-9685243D02*
X10711957Y-9699529D01*
X10697671Y-9713814D01*
X10683386Y-9699529D01*
X10697671Y-9685243D01*
X10697671Y-9713814D01*
X10697671Y-9528100D02*
X10711957Y-9542386D01*
X10697671Y-9556672D01*
X10683386Y-9542386D01*
X10697671Y-9528100D01*
X10697671Y-9556672D01*
X8314100Y-10188100D02*
X8354100Y-10228100D01*
X8354100Y-10188100D02*
X8314100Y-10228100D01*
X8697671Y-10043814D02*
X8726243Y-10043814D01*
X8754814Y-10058100D01*
X8769100Y-10072386D01*
X8783386Y-10100957D01*
X8797671Y-10158100D01*
X8797671Y-10229529D01*
X8783386Y-10286672D01*
X8769100Y-10315243D01*
X8754814Y-10329529D01*
X8726243Y-10343814D01*
X8697671Y-10343814D01*
X8669100Y-10329529D01*
X8654814Y-10315243D01*
X8640528Y-10286672D01*
X8626243Y-10229529D01*
X8626243Y-10158100D01*
X8640528Y-10100957D01*
X8654814Y-10072386D01*
X8669100Y-10058100D01*
X8697671Y-10043814D01*
X8926243Y-10315243D02*
X8940528Y-10329529D01*
X8926243Y-10343814D01*
X8911957Y-10329529D01*
X8926243Y-10315243D01*
X8926243Y-10343814D01*
X9197671Y-10143814D02*
X9197671Y-10343814D01*
X9126243Y-10029529D02*
X9054814Y-10243814D01*
X9240528Y-10243814D01*
X9411957Y-10043814D02*
X9440528Y-10043814D01*
X9469100Y-10058100D01*
X9483386Y-10072386D01*
X9497671Y-10100957D01*
X9511957Y-10158100D01*
X9511957Y-10229529D01*
X9497671Y-10286672D01*
X9483386Y-10315243D01*
X9469100Y-10329529D01*
X9440528Y-10343814D01*
X9411957Y-10343814D01*
X9383386Y-10329529D01*
X9369100Y-10315243D01*
X9354814Y-10286672D01*
X9340528Y-10229529D01*
X9340528Y-10158100D01*
X9354814Y-10100957D01*
X9369100Y-10072386D01*
X9383386Y-10058100D01*
X9411957Y-10043814D01*
X9640528Y-10343814D02*
X9640528Y-10143814D01*
X9640528Y-10172386D02*
X9654814Y-10158100D01*
X9683386Y-10143814D01*
X9726243Y-10143814D01*
X9754814Y-10158100D01*
X9769100Y-10186672D01*
X9769100Y-10343814D01*
X9769100Y-10186672D02*
X9783386Y-10158100D01*
X9811957Y-10143814D01*
X9854814Y-10143814D01*
X9883386Y-10158100D01*
X9897671Y-10186672D01*
X9897671Y-10343814D01*
X10040528Y-10343814D02*
X10040528Y-10143814D01*
X10040528Y-10172386D02*
X10054814Y-10158100D01*
X10083386Y-10143814D01*
X10126243Y-10143814D01*
X10154814Y-10158100D01*
X10169100Y-10186672D01*
X10169100Y-10343814D01*
X10169100Y-10186672D02*
X10183386Y-10158100D01*
X10211957Y-10143814D01*
X10254814Y-10143814D01*
X10283386Y-10158100D01*
X10297671Y-10186672D01*
X10297671Y-10343814D01*
X10883386Y-10029529D02*
X10626243Y-10415243D01*
X11269100Y-10043814D02*
X11297671Y-10043814D01*
X11326243Y-10058100D01*
X11340528Y-10072386D01*
X11354814Y-10100957D01*
X11369100Y-10158100D01*
X11369100Y-10229529D01*
X11354814Y-10286672D01*
X11340528Y-10315243D01*
X11326243Y-10329529D01*
X11297671Y-10343814D01*
X11269100Y-10343814D01*
X11240528Y-10329529D01*
X11226243Y-10315243D01*
X11211957Y-10286672D01*
X11197671Y-10229529D01*
X11197671Y-10158100D01*
X11211957Y-10100957D01*
X11226243Y-10072386D01*
X11240528Y-10058100D01*
X11269100Y-10043814D01*
X11497671Y-10315243D02*
X11511957Y-10329529D01*
X11497671Y-10343814D01*
X11483386Y-10329529D01*
X11497671Y-10315243D01*
X11497671Y-10343814D01*
X11697671Y-10043814D02*
X11726243Y-10043814D01*
X11754814Y-10058100D01*
X11769100Y-10072386D01*
X11783386Y-10100957D01*
X11797671Y-10158100D01*
X11797671Y-10229529D01*
X11783386Y-10286672D01*
X11769100Y-10315243D01*
X11754814Y-10329529D01*
X11726243Y-10343814D01*
X11697671Y-10343814D01*
X11669100Y-10329529D01*
X11654814Y-10315243D01*
X11640528Y-10286672D01*
X11626243Y-10229529D01*
X11626243Y-10158100D01*
X11640528Y-10100957D01*
X11654814Y-10072386D01*
X11669100Y-10058100D01*
X11697671Y-10043814D01*
X12083386Y-10343814D02*
X11911957Y-10343814D01*
X11997671Y-10343814D02*
X11997671Y-10043814D01*
X11969100Y-10086672D01*
X11940528Y-10115243D01*
X11911957Y-10129529D01*
X12340528Y-10043814D02*
X12283386Y-10043814D01*
X12254814Y-10058100D01*
X12240528Y-10072386D01*
X12211957Y-10115243D01*
X12197671Y-10172386D01*
X12197671Y-10286672D01*
X12211957Y-10315243D01*
X12226243Y-10329529D01*
X12254814Y-10343814D01*
X12311957Y-10343814D01*
X12340528Y-10329529D01*
X12354814Y-10315243D01*
X12369100Y-10286672D01*
X12369100Y-10215243D01*
X12354814Y-10186672D01*
X12340528Y-10172386D01*
X12311957Y-10158100D01*
X12254814Y-10158100D01*
X12226243Y-10172386D01*
X12211957Y-10186672D01*
X12197671Y-10215243D01*
X12483386Y-10043814D02*
X12483386Y-10100957D01*
X12597671Y-10043814D02*
X12597671Y-10100957D01*
X13040528Y-10458100D02*
X13026243Y-10443814D01*
X12997671Y-10400957D01*
X12983386Y-10372386D01*
X12969100Y-10329529D01*
X12954814Y-10258100D01*
X12954814Y-10200957D01*
X12969100Y-10129529D01*
X12983386Y-10086672D01*
X12997671Y-10058100D01*
X13026243Y-10015243D01*
X13040528Y-10000957D01*
X13311957Y-10343814D02*
X13140528Y-10343814D01*
X13226243Y-10343814D02*
X13226243Y-10043814D01*
X13197671Y-10086672D01*
X13169100Y-10115243D01*
X13140528Y-10129529D01*
X13597671Y-10343814D02*
X13426243Y-10343814D01*
X13511957Y-10343814D02*
X13511957Y-10043814D01*
X13483386Y-10086672D01*
X13454814Y-10115243D01*
X13426243Y-10129529D01*
X13954814Y-10343814D02*
X13954814Y-10043814D01*
X14083386Y-10343814D02*
X14083386Y-10186672D01*
X14069100Y-10158100D01*
X14040528Y-10143814D01*
X13997671Y-10143814D01*
X13969100Y-10158100D01*
X13954814Y-10172386D01*
X14269100Y-10343814D02*
X14240528Y-10329529D01*
X14226243Y-10315243D01*
X14211957Y-10286672D01*
X14211957Y-10200957D01*
X14226243Y-10172386D01*
X14240528Y-10158100D01*
X14269100Y-10143814D01*
X14311957Y-10143814D01*
X14340528Y-10158100D01*
X14354814Y-10172386D01*
X14369100Y-10200957D01*
X14369100Y-10286672D01*
X14354814Y-10315243D01*
X14340528Y-10329529D01*
X14311957Y-10343814D01*
X14269100Y-10343814D01*
X14540528Y-10343814D02*
X14511957Y-10329529D01*
X14497671Y-10300957D01*
X14497671Y-10043814D01*
X14769100Y-10329529D02*
X14740528Y-10343814D01*
X14683386Y-10343814D01*
X14654814Y-10329529D01*
X14640528Y-10300957D01*
X14640528Y-10186672D01*
X14654814Y-10158100D01*
X14683386Y-10143814D01*
X14740528Y-10143814D01*
X14769100Y-10158100D01*
X14783386Y-10186672D01*
X14783386Y-10215243D01*
X14640528Y-10243814D01*
X14897671Y-10329529D02*
X14926243Y-10343814D01*
X14983386Y-10343814D01*
X15011957Y-10329529D01*
X15026243Y-10300957D01*
X15026243Y-10286672D01*
X15011957Y-10258100D01*
X14983386Y-10243814D01*
X14940528Y-10243814D01*
X14911957Y-10229529D01*
X14897671Y-10200957D01*
X14897671Y-10186672D01*
X14911957Y-10158100D01*
X14940528Y-10143814D01*
X14983386Y-10143814D01*
X15011957Y-10158100D01*
X15126243Y-10458100D02*
X15140528Y-10443814D01*
X15169100Y-10400957D01*
X15183386Y-10372386D01*
X15197671Y-10329529D01*
X15211957Y-10258100D01*
X15211957Y-10200957D01*
X15197671Y-10129529D01*
X15183386Y-10086672D01*
X15169100Y-10058100D01*
X15140528Y-10015243D01*
X15126243Y-10000957D01*
X8354100Y-10604100D02*
G75*
G03*
X8354100Y-10604100I-25000J0D01*
G01*
X8697671Y-10439814D02*
X8726243Y-10439814D01*
X8754814Y-10454100D01*
X8769100Y-10468386D01*
X8783386Y-10496957D01*
X8797671Y-10554100D01*
X8797671Y-10625529D01*
X8783386Y-10682672D01*
X8769100Y-10711243D01*
X8754814Y-10725529D01*
X8726243Y-10739814D01*
X8697671Y-10739814D01*
X8669100Y-10725529D01*
X8654814Y-10711243D01*
X8640528Y-10682672D01*
X8626243Y-10625529D01*
X8626243Y-10554100D01*
X8640528Y-10496957D01*
X8654814Y-10468386D01*
X8669100Y-10454100D01*
X8697671Y-10439814D01*
X8926243Y-10711243D02*
X8940528Y-10725529D01*
X8926243Y-10739814D01*
X8911957Y-10725529D01*
X8926243Y-10711243D01*
X8926243Y-10739814D01*
X9211957Y-10439814D02*
X9069100Y-10439814D01*
X9054814Y-10582672D01*
X9069100Y-10568386D01*
X9097671Y-10554100D01*
X9169100Y-10554100D01*
X9197671Y-10568386D01*
X9211957Y-10582672D01*
X9226243Y-10611243D01*
X9226243Y-10682672D01*
X9211957Y-10711243D01*
X9197671Y-10725529D01*
X9169100Y-10739814D01*
X9097671Y-10739814D01*
X9069100Y-10725529D01*
X9054814Y-10711243D01*
X9411957Y-10439814D02*
X9440528Y-10439814D01*
X9469100Y-10454100D01*
X9483386Y-10468386D01*
X9497671Y-10496957D01*
X9511957Y-10554100D01*
X9511957Y-10625529D01*
X9497671Y-10682672D01*
X9483386Y-10711243D01*
X9469100Y-10725529D01*
X9440528Y-10739814D01*
X9411957Y-10739814D01*
X9383386Y-10725529D01*
X9369100Y-10711243D01*
X9354814Y-10682672D01*
X9340528Y-10625529D01*
X9340528Y-10554100D01*
X9354814Y-10496957D01*
X9369100Y-10468386D01*
X9383386Y-10454100D01*
X9411957Y-10439814D01*
X9640528Y-10739814D02*
X9640528Y-10539814D01*
X9640528Y-10568386D02*
X9654814Y-10554100D01*
X9683386Y-10539814D01*
X9726243Y-10539814D01*
X9754814Y-10554100D01*
X9769100Y-10582672D01*
X9769100Y-10739814D01*
X9769100Y-10582672D02*
X9783386Y-10554100D01*
X9811957Y-10539814D01*
X9854814Y-10539814D01*
X9883386Y-10554100D01*
X9897671Y-10582672D01*
X9897671Y-10739814D01*
X10040528Y-10739814D02*
X10040528Y-10539814D01*
X10040528Y-10568386D02*
X10054814Y-10554100D01*
X10083386Y-10539814D01*
X10126243Y-10539814D01*
X10154814Y-10554100D01*
X10169100Y-10582672D01*
X10169100Y-10739814D01*
X10169100Y-10582672D02*
X10183386Y-10554100D01*
X10211957Y-10539814D01*
X10254814Y-10539814D01*
X10283386Y-10554100D01*
X10297671Y-10582672D01*
X10297671Y-10739814D01*
X10883386Y-10425529D02*
X10626243Y-10811243D01*
X11269100Y-10439814D02*
X11297671Y-10439814D01*
X11326243Y-10454100D01*
X11340528Y-10468386D01*
X11354814Y-10496957D01*
X11369100Y-10554100D01*
X11369100Y-10625529D01*
X11354814Y-10682672D01*
X11340528Y-10711243D01*
X11326243Y-10725529D01*
X11297671Y-10739814D01*
X11269100Y-10739814D01*
X11240528Y-10725529D01*
X11226243Y-10711243D01*
X11211957Y-10682672D01*
X11197671Y-10625529D01*
X11197671Y-10554100D01*
X11211957Y-10496957D01*
X11226243Y-10468386D01*
X11240528Y-10454100D01*
X11269100Y-10439814D01*
X11497671Y-10711243D02*
X11511957Y-10725529D01*
X11497671Y-10739814D01*
X11483386Y-10725529D01*
X11497671Y-10711243D01*
X11497671Y-10739814D01*
X11697671Y-10439814D02*
X11726243Y-10439814D01*
X11754814Y-10454100D01*
X11769100Y-10468386D01*
X11783386Y-10496957D01*
X11797671Y-10554100D01*
X11797671Y-10625529D01*
X11783386Y-10682672D01*
X11769100Y-10711243D01*
X11754814Y-10725529D01*
X11726243Y-10739814D01*
X11697671Y-10739814D01*
X11669100Y-10725529D01*
X11654814Y-10711243D01*
X11640528Y-10682672D01*
X11626243Y-10625529D01*
X11626243Y-10554100D01*
X11640528Y-10496957D01*
X11654814Y-10468386D01*
X11669100Y-10454100D01*
X11697671Y-10439814D01*
X11911957Y-10468386D02*
X11926243Y-10454100D01*
X11954814Y-10439814D01*
X12026243Y-10439814D01*
X12054814Y-10454100D01*
X12069100Y-10468386D01*
X12083386Y-10496957D01*
X12083386Y-10525529D01*
X12069100Y-10568386D01*
X11897671Y-10739814D01*
X12083386Y-10739814D01*
X12269100Y-10439814D02*
X12297671Y-10439814D01*
X12326243Y-10454100D01*
X12340528Y-10468386D01*
X12354814Y-10496957D01*
X12369100Y-10554100D01*
X12369100Y-10625529D01*
X12354814Y-10682672D01*
X12340528Y-10711243D01*
X12326243Y-10725529D01*
X12297671Y-10739814D01*
X12269100Y-10739814D01*
X12240528Y-10725529D01*
X12226243Y-10711243D01*
X12211957Y-10682672D01*
X12197671Y-10625529D01*
X12197671Y-10554100D01*
X12211957Y-10496957D01*
X12226243Y-10468386D01*
X12240528Y-10454100D01*
X12269100Y-10439814D01*
X12483386Y-10439814D02*
X12483386Y-10496957D01*
X12597671Y-10439814D02*
X12597671Y-10496957D01*
X13040528Y-10854100D02*
X13026243Y-10839814D01*
X12997671Y-10796957D01*
X12983386Y-10768386D01*
X12969100Y-10725529D01*
X12954814Y-10654100D01*
X12954814Y-10596957D01*
X12969100Y-10525529D01*
X12983386Y-10482672D01*
X12997671Y-10454100D01*
X13026243Y-10411243D01*
X13040528Y-10396957D01*
X13140528Y-10468386D02*
X13154814Y-10454100D01*
X13183386Y-10439814D01*
X13254814Y-10439814D01*
X13283386Y-10454100D01*
X13297671Y-10468386D01*
X13311957Y-10496957D01*
X13311957Y-10525529D01*
X13297671Y-10568386D01*
X13126243Y-10739814D01*
X13311957Y-10739814D01*
X13669100Y-10739814D02*
X13669100Y-10439814D01*
X13797671Y-10739814D02*
X13797671Y-10582672D01*
X13783386Y-10554100D01*
X13754814Y-10539814D01*
X13711957Y-10539814D01*
X13683386Y-10554100D01*
X13669100Y-10568386D01*
X13983386Y-10739814D02*
X13954814Y-10725529D01*
X13940528Y-10711243D01*
X13926243Y-10682672D01*
X13926243Y-10596957D01*
X13940528Y-10568386D01*
X13954814Y-10554100D01*
X13983386Y-10539814D01*
X14026243Y-10539814D01*
X14054814Y-10554100D01*
X14069100Y-10568386D01*
X14083386Y-10596957D01*
X14083386Y-10682672D01*
X14069100Y-10711243D01*
X14054814Y-10725529D01*
X14026243Y-10739814D01*
X13983386Y-10739814D01*
X14254814Y-10739814D02*
X14226243Y-10725529D01*
X14211957Y-10696957D01*
X14211957Y-10439814D01*
X14483386Y-10725529D02*
X14454814Y-10739814D01*
X14397671Y-10739814D01*
X14369100Y-10725529D01*
X14354814Y-10696957D01*
X14354814Y-10582672D01*
X14369100Y-10554100D01*
X14397671Y-10539814D01*
X14454814Y-10539814D01*
X14483386Y-10554100D01*
X14497671Y-10582672D01*
X14497671Y-10611243D01*
X14354814Y-10639814D01*
X14611957Y-10725529D02*
X14640528Y-10739814D01*
X14697671Y-10739814D01*
X14726243Y-10725529D01*
X14740528Y-10696957D01*
X14740528Y-10682672D01*
X14726243Y-10654100D01*
X14697671Y-10639814D01*
X14654814Y-10639814D01*
X14626243Y-10625529D01*
X14611957Y-10596957D01*
X14611957Y-10582672D01*
X14626243Y-10554100D01*
X14654814Y-10539814D01*
X14697671Y-10539814D01*
X14726243Y-10554100D01*
X14840528Y-10854100D02*
X14854814Y-10839814D01*
X14883386Y-10796957D01*
X14897671Y-10768386D01*
X14911957Y-10725529D01*
X14926243Y-10654100D01*
X14926243Y-10596957D01*
X14911957Y-10525529D01*
X14897671Y-10482672D01*
X14883386Y-10454100D01*
X14854814Y-10411243D01*
X14840528Y-10396957D01*
X8316000Y-10962000D02*
X8316000Y-11038200D01*
X8277900Y-11000100D02*
X8354100Y-11000100D01*
X8697671Y-10835814D02*
X8726243Y-10835814D01*
X8754814Y-10850100D01*
X8769100Y-10864386D01*
X8783386Y-10892957D01*
X8797671Y-10950100D01*
X8797671Y-11021529D01*
X8783386Y-11078672D01*
X8769100Y-11107243D01*
X8754814Y-11121529D01*
X8726243Y-11135814D01*
X8697671Y-11135814D01*
X8669100Y-11121529D01*
X8654814Y-11107243D01*
X8640528Y-11078672D01*
X8626243Y-11021529D01*
X8626243Y-10950100D01*
X8640528Y-10892957D01*
X8654814Y-10864386D01*
X8669100Y-10850100D01*
X8697671Y-10835814D01*
X8926243Y-11107243D02*
X8940528Y-11121529D01*
X8926243Y-11135814D01*
X8911957Y-11121529D01*
X8926243Y-11107243D01*
X8926243Y-11135814D01*
X9040528Y-10835814D02*
X9240528Y-10835814D01*
X9111957Y-11135814D01*
X9483386Y-10835814D02*
X9426243Y-10835814D01*
X9397671Y-10850100D01*
X9383386Y-10864386D01*
X9354814Y-10907243D01*
X9340528Y-10964386D01*
X9340528Y-11078672D01*
X9354814Y-11107243D01*
X9369100Y-11121529D01*
X9397671Y-11135814D01*
X9454814Y-11135814D01*
X9483386Y-11121529D01*
X9497671Y-11107243D01*
X9511957Y-11078672D01*
X9511957Y-11007243D01*
X9497671Y-10978672D01*
X9483386Y-10964386D01*
X9454814Y-10950100D01*
X9397671Y-10950100D01*
X9369100Y-10964386D01*
X9354814Y-10978672D01*
X9340528Y-11007243D01*
X9640528Y-11135814D02*
X9640528Y-10935814D01*
X9640528Y-10964386D02*
X9654814Y-10950100D01*
X9683386Y-10935814D01*
X9726243Y-10935814D01*
X9754814Y-10950100D01*
X9769100Y-10978672D01*
X9769100Y-11135814D01*
X9769100Y-10978672D02*
X9783386Y-10950100D01*
X9811957Y-10935814D01*
X9854814Y-10935814D01*
X9883386Y-10950100D01*
X9897671Y-10978672D01*
X9897671Y-11135814D01*
X10040528Y-11135814D02*
X10040528Y-10935814D01*
X10040528Y-10964386D02*
X10054814Y-10950100D01*
X10083386Y-10935814D01*
X10126243Y-10935814D01*
X10154814Y-10950100D01*
X10169100Y-10978672D01*
X10169100Y-11135814D01*
X10169100Y-10978672D02*
X10183386Y-10950100D01*
X10211957Y-10935814D01*
X10254814Y-10935814D01*
X10283386Y-10950100D01*
X10297671Y-10978672D01*
X10297671Y-11135814D01*
X10883386Y-10821529D02*
X10626243Y-11207243D01*
X11269100Y-10835814D02*
X11297671Y-10835814D01*
X11326243Y-10850100D01*
X11340528Y-10864386D01*
X11354814Y-10892957D01*
X11369100Y-10950100D01*
X11369100Y-11021529D01*
X11354814Y-11078672D01*
X11340528Y-11107243D01*
X11326243Y-11121529D01*
X11297671Y-11135814D01*
X11269100Y-11135814D01*
X11240528Y-11121529D01*
X11226243Y-11107243D01*
X11211957Y-11078672D01*
X11197671Y-11021529D01*
X11197671Y-10950100D01*
X11211957Y-10892957D01*
X11226243Y-10864386D01*
X11240528Y-10850100D01*
X11269100Y-10835814D01*
X11497671Y-11107243D02*
X11511957Y-11121529D01*
X11497671Y-11135814D01*
X11483386Y-11121529D01*
X11497671Y-11107243D01*
X11497671Y-11135814D01*
X11697671Y-10835814D02*
X11726243Y-10835814D01*
X11754814Y-10850100D01*
X11769100Y-10864386D01*
X11783386Y-10892957D01*
X11797671Y-10950100D01*
X11797671Y-11021529D01*
X11783386Y-11078672D01*
X11769100Y-11107243D01*
X11754814Y-11121529D01*
X11726243Y-11135814D01*
X11697671Y-11135814D01*
X11669100Y-11121529D01*
X11654814Y-11107243D01*
X11640528Y-11078672D01*
X11626243Y-11021529D01*
X11626243Y-10950100D01*
X11640528Y-10892957D01*
X11654814Y-10864386D01*
X11669100Y-10850100D01*
X11697671Y-10835814D01*
X11897671Y-10835814D02*
X12083386Y-10835814D01*
X11983386Y-10950100D01*
X12026243Y-10950100D01*
X12054814Y-10964386D01*
X12069100Y-10978672D01*
X12083386Y-11007243D01*
X12083386Y-11078672D01*
X12069100Y-11107243D01*
X12054814Y-11121529D01*
X12026243Y-11135814D01*
X11940528Y-11135814D01*
X11911957Y-11121529D01*
X11897671Y-11107243D01*
X12269100Y-10835814D02*
X12297671Y-10835814D01*
X12326243Y-10850100D01*
X12340528Y-10864386D01*
X12354814Y-10892957D01*
X12369100Y-10950100D01*
X12369100Y-11021529D01*
X12354814Y-11078672D01*
X12340528Y-11107243D01*
X12326243Y-11121529D01*
X12297671Y-11135814D01*
X12269100Y-11135814D01*
X12240528Y-11121529D01*
X12226243Y-11107243D01*
X12211957Y-11078672D01*
X12197671Y-11021529D01*
X12197671Y-10950100D01*
X12211957Y-10892957D01*
X12226243Y-10864386D01*
X12240528Y-10850100D01*
X12269100Y-10835814D01*
X12483386Y-10835814D02*
X12483386Y-10892957D01*
X12597671Y-10835814D02*
X12597671Y-10892957D01*
X13040528Y-11250100D02*
X13026243Y-11235814D01*
X12997671Y-11192957D01*
X12983386Y-11164386D01*
X12969100Y-11121529D01*
X12954814Y-11050100D01*
X12954814Y-10992957D01*
X12969100Y-10921529D01*
X12983386Y-10878672D01*
X12997671Y-10850100D01*
X13026243Y-10807243D01*
X13040528Y-10792957D01*
X13311957Y-11135814D02*
X13140528Y-11135814D01*
X13226243Y-11135814D02*
X13226243Y-10835814D01*
X13197671Y-10878672D01*
X13169100Y-10907243D01*
X13140528Y-10921529D01*
X13426243Y-10864386D02*
X13440528Y-10850100D01*
X13469100Y-10835814D01*
X13540528Y-10835814D01*
X13569100Y-10850100D01*
X13583386Y-10864386D01*
X13597671Y-10892957D01*
X13597671Y-10921529D01*
X13583386Y-10964386D01*
X13411957Y-11135814D01*
X13597671Y-11135814D01*
X13954814Y-11135814D02*
X13954814Y-10835814D01*
X14083386Y-11135814D02*
X14083386Y-10978672D01*
X14069100Y-10950100D01*
X14040528Y-10935814D01*
X13997671Y-10935814D01*
X13969100Y-10950100D01*
X13954814Y-10964386D01*
X14269100Y-11135814D02*
X14240528Y-11121529D01*
X14226243Y-11107243D01*
X14211957Y-11078672D01*
X14211957Y-10992957D01*
X14226243Y-10964386D01*
X14240528Y-10950100D01*
X14269100Y-10935814D01*
X14311957Y-10935814D01*
X14340528Y-10950100D01*
X14354814Y-10964386D01*
X14369100Y-10992957D01*
X14369100Y-11078672D01*
X14354814Y-11107243D01*
X14340528Y-11121529D01*
X14311957Y-11135814D01*
X14269100Y-11135814D01*
X14540528Y-11135814D02*
X14511957Y-11121529D01*
X14497671Y-11092957D01*
X14497671Y-10835814D01*
X14769100Y-11121529D02*
X14740528Y-11135814D01*
X14683386Y-11135814D01*
X14654814Y-11121529D01*
X14640528Y-11092957D01*
X14640528Y-10978672D01*
X14654814Y-10950100D01*
X14683386Y-10935814D01*
X14740528Y-10935814D01*
X14769100Y-10950100D01*
X14783386Y-10978672D01*
X14783386Y-11007243D01*
X14640528Y-11035814D01*
X14897671Y-11121529D02*
X14926243Y-11135814D01*
X14983386Y-11135814D01*
X15011957Y-11121529D01*
X15026243Y-11092957D01*
X15026243Y-11078672D01*
X15011957Y-11050100D01*
X14983386Y-11035814D01*
X14940528Y-11035814D01*
X14911957Y-11021529D01*
X14897671Y-10992957D01*
X14897671Y-10978672D01*
X14911957Y-10950100D01*
X14940528Y-10935814D01*
X14983386Y-10935814D01*
X15011957Y-10950100D01*
X15126243Y-11250100D02*
X15140528Y-11235814D01*
X15169100Y-11192957D01*
X15183386Y-11164386D01*
X15197671Y-11121529D01*
X15211957Y-11050100D01*
X15211957Y-10992957D01*
X15197671Y-10921529D01*
X15183386Y-10878672D01*
X15169100Y-10850100D01*
X15140528Y-10807243D01*
X15126243Y-10792957D01*
X8340188Y-11429688D02*
X8340188Y-11362512D01*
X8273012Y-11362512D01*
X8273012Y-11429688D01*
X8340188Y-11429688D01*
X8697671Y-11231814D02*
X8726243Y-11231814D01*
X8754814Y-11246100D01*
X8769100Y-11260386D01*
X8783386Y-11288957D01*
X8797671Y-11346100D01*
X8797671Y-11417529D01*
X8783386Y-11474671D01*
X8769100Y-11503243D01*
X8754814Y-11517529D01*
X8726243Y-11531814D01*
X8697671Y-11531814D01*
X8669100Y-11517529D01*
X8654814Y-11503243D01*
X8640528Y-11474671D01*
X8626243Y-11417529D01*
X8626243Y-11346100D01*
X8640528Y-11288957D01*
X8654814Y-11260386D01*
X8669100Y-11246100D01*
X8697671Y-11231814D01*
X8926243Y-11503243D02*
X8940528Y-11517529D01*
X8926243Y-11531814D01*
X8911957Y-11517529D01*
X8926243Y-11503243D01*
X8926243Y-11531814D01*
X9083386Y-11531814D02*
X9140528Y-11531814D01*
X9169100Y-11517529D01*
X9183386Y-11503243D01*
X9211957Y-11460386D01*
X9226243Y-11403243D01*
X9226243Y-11288957D01*
X9211957Y-11260386D01*
X9197671Y-11246100D01*
X9169100Y-11231814D01*
X9111957Y-11231814D01*
X9083386Y-11246100D01*
X9069100Y-11260386D01*
X9054814Y-11288957D01*
X9054814Y-11360386D01*
X9069100Y-11388957D01*
X9083386Y-11403243D01*
X9111957Y-11417529D01*
X9169100Y-11417529D01*
X9197671Y-11403243D01*
X9211957Y-11388957D01*
X9226243Y-11360386D01*
X9497671Y-11231814D02*
X9354814Y-11231814D01*
X9340528Y-11374671D01*
X9354814Y-11360386D01*
X9383386Y-11346100D01*
X9454814Y-11346100D01*
X9483386Y-11360386D01*
X9497671Y-11374671D01*
X9511957Y-11403243D01*
X9511957Y-11474671D01*
X9497671Y-11503243D01*
X9483386Y-11517529D01*
X9454814Y-11531814D01*
X9383386Y-11531814D01*
X9354814Y-11517529D01*
X9340528Y-11503243D01*
X9640528Y-11531814D02*
X9640528Y-11331814D01*
X9640528Y-11360386D02*
X9654814Y-11346100D01*
X9683386Y-11331814D01*
X9726243Y-11331814D01*
X9754814Y-11346100D01*
X9769100Y-11374671D01*
X9769100Y-11531814D01*
X9769100Y-11374671D02*
X9783386Y-11346100D01*
X9811957Y-11331814D01*
X9854814Y-11331814D01*
X9883386Y-11346100D01*
X9897671Y-11374671D01*
X9897671Y-11531814D01*
X10040528Y-11531814D02*
X10040528Y-11331814D01*
X10040528Y-11360386D02*
X10054814Y-11346100D01*
X10083386Y-11331814D01*
X10126243Y-11331814D01*
X10154814Y-11346100D01*
X10169100Y-11374671D01*
X10169100Y-11531814D01*
X10169100Y-11374671D02*
X10183386Y-11346100D01*
X10211957Y-11331814D01*
X10254814Y-11331814D01*
X10283386Y-11346100D01*
X10297671Y-11374671D01*
X10297671Y-11531814D01*
X10883386Y-11217529D02*
X10626243Y-11603243D01*
X11269100Y-11231814D02*
X11297671Y-11231814D01*
X11326243Y-11246100D01*
X11340528Y-11260386D01*
X11354814Y-11288957D01*
X11369100Y-11346100D01*
X11369100Y-11417529D01*
X11354814Y-11474671D01*
X11340528Y-11503243D01*
X11326243Y-11517529D01*
X11297671Y-11531814D01*
X11269100Y-11531814D01*
X11240528Y-11517529D01*
X11226243Y-11503243D01*
X11211957Y-11474671D01*
X11197671Y-11417529D01*
X11197671Y-11346100D01*
X11211957Y-11288957D01*
X11226243Y-11260386D01*
X11240528Y-11246100D01*
X11269100Y-11231814D01*
X11497671Y-11503243D02*
X11511957Y-11517529D01*
X11497671Y-11531814D01*
X11483386Y-11517529D01*
X11497671Y-11503243D01*
X11497671Y-11531814D01*
X11697671Y-11231814D02*
X11726243Y-11231814D01*
X11754814Y-11246100D01*
X11769100Y-11260386D01*
X11783386Y-11288957D01*
X11797671Y-11346100D01*
X11797671Y-11417529D01*
X11783386Y-11474671D01*
X11769100Y-11503243D01*
X11754814Y-11517529D01*
X11726243Y-11531814D01*
X11697671Y-11531814D01*
X11669100Y-11517529D01*
X11654814Y-11503243D01*
X11640528Y-11474671D01*
X11626243Y-11417529D01*
X11626243Y-11346100D01*
X11640528Y-11288957D01*
X11654814Y-11260386D01*
X11669100Y-11246100D01*
X11697671Y-11231814D01*
X11897671Y-11231814D02*
X12083386Y-11231814D01*
X11983386Y-11346100D01*
X12026243Y-11346100D01*
X12054814Y-11360386D01*
X12069100Y-11374671D01*
X12083386Y-11403243D01*
X12083386Y-11474671D01*
X12069100Y-11503243D01*
X12054814Y-11517529D01*
X12026243Y-11531814D01*
X11940528Y-11531814D01*
X11911957Y-11517529D01*
X11897671Y-11503243D01*
X12183386Y-11231814D02*
X12383386Y-11231814D01*
X12254814Y-11531814D01*
X12483386Y-11231814D02*
X12483386Y-11288957D01*
X12597671Y-11231814D02*
X12597671Y-11288957D01*
X13040528Y-11646100D02*
X13026243Y-11631814D01*
X12997671Y-11588957D01*
X12983386Y-11560386D01*
X12969100Y-11517529D01*
X12954814Y-11446100D01*
X12954814Y-11388957D01*
X12969100Y-11317529D01*
X12983386Y-11274671D01*
X12997671Y-11246100D01*
X13026243Y-11203243D01*
X13040528Y-11188957D01*
X13297671Y-11231814D02*
X13154814Y-11231814D01*
X13140528Y-11374671D01*
X13154814Y-11360386D01*
X13183386Y-11346100D01*
X13254814Y-11346100D01*
X13283386Y-11360386D01*
X13297671Y-11374671D01*
X13311957Y-11403243D01*
X13311957Y-11474671D01*
X13297671Y-11503243D01*
X13283386Y-11517529D01*
X13254814Y-11531814D01*
X13183386Y-11531814D01*
X13154814Y-11517529D01*
X13140528Y-11503243D01*
X13669100Y-11531814D02*
X13669100Y-11231814D01*
X13797671Y-11531814D02*
X13797671Y-11374671D01*
X13783386Y-11346100D01*
X13754814Y-11331814D01*
X13711957Y-11331814D01*
X13683386Y-11346100D01*
X13669100Y-11360386D01*
X13983386Y-11531814D02*
X13954814Y-11517529D01*
X13940528Y-11503243D01*
X13926243Y-11474671D01*
X13926243Y-11388957D01*
X13940528Y-11360386D01*
X13954814Y-11346100D01*
X13983386Y-11331814D01*
X14026243Y-11331814D01*
X14054814Y-11346100D01*
X14069100Y-11360386D01*
X14083386Y-11388957D01*
X14083386Y-11474671D01*
X14069100Y-11503243D01*
X14054814Y-11517529D01*
X14026243Y-11531814D01*
X13983386Y-11531814D01*
X14254814Y-11531814D02*
X14226243Y-11517529D01*
X14211957Y-11488957D01*
X14211957Y-11231814D01*
X14483386Y-11517529D02*
X14454814Y-11531814D01*
X14397671Y-11531814D01*
X14369100Y-11517529D01*
X14354814Y-11488957D01*
X14354814Y-11374671D01*
X14369100Y-11346100D01*
X14397671Y-11331814D01*
X14454814Y-11331814D01*
X14483386Y-11346100D01*
X14497671Y-11374671D01*
X14497671Y-11403243D01*
X14354814Y-11431814D01*
X14611957Y-11517529D02*
X14640528Y-11531814D01*
X14697671Y-11531814D01*
X14726243Y-11517529D01*
X14740528Y-11488957D01*
X14740528Y-11474671D01*
X14726243Y-11446100D01*
X14697671Y-11431814D01*
X14654814Y-11431814D01*
X14626243Y-11417529D01*
X14611957Y-11388957D01*
X14611957Y-11374671D01*
X14626243Y-11346100D01*
X14654814Y-11331814D01*
X14697671Y-11331814D01*
X14726243Y-11346100D01*
X14840528Y-11646100D02*
X14854814Y-11631814D01*
X14883386Y-11588957D01*
X14897671Y-11560386D01*
X14911957Y-11517529D01*
X14926243Y-11446100D01*
X14926243Y-11388957D01*
X14911957Y-11317529D01*
X14897671Y-11274671D01*
X14883386Y-11246100D01*
X14854814Y-11203243D01*
X14840528Y-11188957D01*
X8304100Y-11842100D02*
X8354100Y-11792100D01*
X8304100Y-11742100D01*
X8254100Y-11792100D01*
X8304100Y-11842100D01*
X8797671Y-11927814D02*
X8626243Y-11927814D01*
X8711957Y-11927814D02*
X8711957Y-11627814D01*
X8683386Y-11670671D01*
X8654814Y-11699243D01*
X8626243Y-11713529D01*
X8926243Y-11899243D02*
X8940528Y-11913529D01*
X8926243Y-11927814D01*
X8911957Y-11913529D01*
X8926243Y-11899243D01*
X8926243Y-11927814D01*
X9126243Y-11627814D02*
X9154814Y-11627814D01*
X9183386Y-11642100D01*
X9197671Y-11656386D01*
X9211957Y-11684957D01*
X9226243Y-11742100D01*
X9226243Y-11813529D01*
X9211957Y-11870671D01*
X9197671Y-11899243D01*
X9183386Y-11913529D01*
X9154814Y-11927814D01*
X9126243Y-11927814D01*
X9097671Y-11913529D01*
X9083386Y-11899243D01*
X9069100Y-11870671D01*
X9054814Y-11813529D01*
X9054814Y-11742100D01*
X9069100Y-11684957D01*
X9083386Y-11656386D01*
X9097671Y-11642100D01*
X9126243Y-11627814D01*
X9411957Y-11627814D02*
X9440528Y-11627814D01*
X9469100Y-11642100D01*
X9483386Y-11656386D01*
X9497671Y-11684957D01*
X9511957Y-11742100D01*
X9511957Y-11813529D01*
X9497671Y-11870671D01*
X9483386Y-11899243D01*
X9469100Y-11913529D01*
X9440528Y-11927814D01*
X9411957Y-11927814D01*
X9383386Y-11913529D01*
X9369100Y-11899243D01*
X9354814Y-11870671D01*
X9340528Y-11813529D01*
X9340528Y-11742100D01*
X9354814Y-11684957D01*
X9369100Y-11656386D01*
X9383386Y-11642100D01*
X9411957Y-11627814D01*
X9640528Y-11927814D02*
X9640528Y-11727814D01*
X9640528Y-11756386D02*
X9654814Y-11742100D01*
X9683386Y-11727814D01*
X9726243Y-11727814D01*
X9754814Y-11742100D01*
X9769100Y-11770671D01*
X9769100Y-11927814D01*
X9769100Y-11770671D02*
X9783386Y-11742100D01*
X9811957Y-11727814D01*
X9854814Y-11727814D01*
X9883386Y-11742100D01*
X9897671Y-11770671D01*
X9897671Y-11927814D01*
X10040528Y-11927814D02*
X10040528Y-11727814D01*
X10040528Y-11756386D02*
X10054814Y-11742100D01*
X10083386Y-11727814D01*
X10126243Y-11727814D01*
X10154814Y-11742100D01*
X10169100Y-11770671D01*
X10169100Y-11927814D01*
X10169100Y-11770671D02*
X10183386Y-11742100D01*
X10211957Y-11727814D01*
X10254814Y-11727814D01*
X10283386Y-11742100D01*
X10297671Y-11770671D01*
X10297671Y-11927814D01*
X10883386Y-11613529D02*
X10626243Y-11999243D01*
X11269100Y-11627814D02*
X11297671Y-11627814D01*
X11326243Y-11642100D01*
X11340528Y-11656386D01*
X11354814Y-11684957D01*
X11369100Y-11742100D01*
X11369100Y-11813529D01*
X11354814Y-11870671D01*
X11340528Y-11899243D01*
X11326243Y-11913529D01*
X11297671Y-11927814D01*
X11269100Y-11927814D01*
X11240528Y-11913529D01*
X11226243Y-11899243D01*
X11211957Y-11870671D01*
X11197671Y-11813529D01*
X11197671Y-11742100D01*
X11211957Y-11684957D01*
X11226243Y-11656386D01*
X11240528Y-11642100D01*
X11269100Y-11627814D01*
X11497671Y-11899243D02*
X11511957Y-11913529D01*
X11497671Y-11927814D01*
X11483386Y-11913529D01*
X11497671Y-11899243D01*
X11497671Y-11927814D01*
X11697671Y-11627814D02*
X11726243Y-11627814D01*
X11754814Y-11642100D01*
X11769100Y-11656386D01*
X11783386Y-11684957D01*
X11797671Y-11742100D01*
X11797671Y-11813529D01*
X11783386Y-11870671D01*
X11769100Y-11899243D01*
X11754814Y-11913529D01*
X11726243Y-11927814D01*
X11697671Y-11927814D01*
X11669100Y-11913529D01*
X11654814Y-11899243D01*
X11640528Y-11870671D01*
X11626243Y-11813529D01*
X11626243Y-11742100D01*
X11640528Y-11684957D01*
X11654814Y-11656386D01*
X11669100Y-11642100D01*
X11697671Y-11627814D01*
X11897671Y-11627814D02*
X12083386Y-11627814D01*
X11983386Y-11742100D01*
X12026243Y-11742100D01*
X12054814Y-11756386D01*
X12069100Y-11770671D01*
X12083386Y-11799243D01*
X12083386Y-11870671D01*
X12069100Y-11899243D01*
X12054814Y-11913529D01*
X12026243Y-11927814D01*
X11940528Y-11927814D01*
X11911957Y-11913529D01*
X11897671Y-11899243D01*
X12226243Y-11927814D02*
X12283386Y-11927814D01*
X12311957Y-11913529D01*
X12326243Y-11899243D01*
X12354814Y-11856386D01*
X12369100Y-11799243D01*
X12369100Y-11684957D01*
X12354814Y-11656386D01*
X12340528Y-11642100D01*
X12311957Y-11627814D01*
X12254814Y-11627814D01*
X12226243Y-11642100D01*
X12211957Y-11656386D01*
X12197671Y-11684957D01*
X12197671Y-11756386D01*
X12211957Y-11784957D01*
X12226243Y-11799243D01*
X12254814Y-11813529D01*
X12311957Y-11813529D01*
X12340528Y-11799243D01*
X12354814Y-11784957D01*
X12369100Y-11756386D01*
X12483386Y-11627814D02*
X12483386Y-11684957D01*
X12597671Y-11627814D02*
X12597671Y-11684957D01*
X13040528Y-12042100D02*
X13026243Y-12027814D01*
X12997671Y-11984957D01*
X12983386Y-11956386D01*
X12969100Y-11913529D01*
X12954814Y-11842100D01*
X12954814Y-11784957D01*
X12969100Y-11713529D01*
X12983386Y-11670671D01*
X12997671Y-11642100D01*
X13026243Y-11599243D01*
X13040528Y-11584957D01*
X13283386Y-11727814D02*
X13283386Y-11927814D01*
X13211957Y-11613529D02*
X13140528Y-11827814D01*
X13326243Y-11827814D01*
X13583386Y-11627814D02*
X13440528Y-11627814D01*
X13426243Y-11770671D01*
X13440528Y-11756386D01*
X13469100Y-11742100D01*
X13540528Y-11742100D01*
X13569100Y-11756386D01*
X13583386Y-11770671D01*
X13597671Y-11799243D01*
X13597671Y-11870671D01*
X13583386Y-11899243D01*
X13569100Y-11913529D01*
X13540528Y-11927814D01*
X13469100Y-11927814D01*
X13440528Y-11913529D01*
X13426243Y-11899243D01*
X13954814Y-11927814D02*
X13954814Y-11627814D01*
X14083386Y-11927814D02*
X14083386Y-11770671D01*
X14069100Y-11742100D01*
X14040528Y-11727814D01*
X13997671Y-11727814D01*
X13969100Y-11742100D01*
X13954814Y-11756386D01*
X14269100Y-11927814D02*
X14240528Y-11913529D01*
X14226243Y-11899243D01*
X14211957Y-11870671D01*
X14211957Y-11784957D01*
X14226243Y-11756386D01*
X14240528Y-11742100D01*
X14269100Y-11727814D01*
X14311957Y-11727814D01*
X14340528Y-11742100D01*
X14354814Y-11756386D01*
X14369100Y-11784957D01*
X14369100Y-11870671D01*
X14354814Y-11899243D01*
X14340528Y-11913529D01*
X14311957Y-11927814D01*
X14269100Y-11927814D01*
X14540528Y-11927814D02*
X14511957Y-11913529D01*
X14497671Y-11884957D01*
X14497671Y-11627814D01*
X14769100Y-11913529D02*
X14740528Y-11927814D01*
X14683386Y-11927814D01*
X14654814Y-11913529D01*
X14640528Y-11884957D01*
X14640528Y-11770671D01*
X14654814Y-11742100D01*
X14683386Y-11727814D01*
X14740528Y-11727814D01*
X14769100Y-11742100D01*
X14783386Y-11770671D01*
X14783386Y-11799243D01*
X14640528Y-11827814D01*
X14897671Y-11913529D02*
X14926243Y-11927814D01*
X14983386Y-11927814D01*
X15011957Y-11913529D01*
X15026243Y-11884957D01*
X15026243Y-11870671D01*
X15011957Y-11842100D01*
X14983386Y-11827814D01*
X14940528Y-11827814D01*
X14911957Y-11813529D01*
X14897671Y-11784957D01*
X14897671Y-11770671D01*
X14911957Y-11742100D01*
X14940528Y-11727814D01*
X14983386Y-11727814D01*
X15011957Y-11742100D01*
X15126243Y-12042100D02*
X15140528Y-12027814D01*
X15169100Y-11984957D01*
X15183386Y-11956386D01*
X15197671Y-11913529D01*
X15211957Y-11842100D01*
X15211957Y-11784957D01*
X15197671Y-11713529D01*
X15183386Y-11670671D01*
X15169100Y-11642100D01*
X15140528Y-11599243D01*
X15126243Y-11584957D01*
X8234100Y-12128100D02*
X8354100Y-12248100D01*
X8354100Y-12128100D02*
X8234100Y-12248100D01*
X8354100Y-12188100D02*
G75*
G03*
X8354100Y-12188100I-60000J0D01*
G01*
X8797671Y-12323814D02*
X8626243Y-12323814D01*
X8711957Y-12323814D02*
X8711957Y-12023814D01*
X8683386Y-12066671D01*
X8654814Y-12095243D01*
X8626243Y-12109529D01*
X8926243Y-12295243D02*
X8940528Y-12309529D01*
X8926243Y-12323814D01*
X8911957Y-12309529D01*
X8926243Y-12295243D01*
X8926243Y-12323814D01*
X9054814Y-12052386D02*
X9069100Y-12038100D01*
X9097671Y-12023814D01*
X9169100Y-12023814D01*
X9197671Y-12038100D01*
X9211957Y-12052386D01*
X9226243Y-12080957D01*
X9226243Y-12109529D01*
X9211957Y-12152386D01*
X9040528Y-12323814D01*
X9226243Y-12323814D01*
X9411957Y-12023814D02*
X9440528Y-12023814D01*
X9469100Y-12038100D01*
X9483386Y-12052386D01*
X9497671Y-12080957D01*
X9511957Y-12138100D01*
X9511957Y-12209529D01*
X9497671Y-12266671D01*
X9483386Y-12295243D01*
X9469100Y-12309529D01*
X9440528Y-12323814D01*
X9411957Y-12323814D01*
X9383386Y-12309529D01*
X9369100Y-12295243D01*
X9354814Y-12266671D01*
X9340528Y-12209529D01*
X9340528Y-12138100D01*
X9354814Y-12080957D01*
X9369100Y-12052386D01*
X9383386Y-12038100D01*
X9411957Y-12023814D01*
X9640528Y-12323814D02*
X9640528Y-12123814D01*
X9640528Y-12152386D02*
X9654814Y-12138100D01*
X9683386Y-12123814D01*
X9726243Y-12123814D01*
X9754814Y-12138100D01*
X9769100Y-12166671D01*
X9769100Y-12323814D01*
X9769100Y-12166671D02*
X9783386Y-12138100D01*
X9811957Y-12123814D01*
X9854814Y-12123814D01*
X9883386Y-12138100D01*
X9897671Y-12166671D01*
X9897671Y-12323814D01*
X10040528Y-12323814D02*
X10040528Y-12123814D01*
X10040528Y-12152386D02*
X10054814Y-12138100D01*
X10083386Y-12123814D01*
X10126243Y-12123814D01*
X10154814Y-12138100D01*
X10169100Y-12166671D01*
X10169100Y-12323814D01*
X10169100Y-12166671D02*
X10183386Y-12138100D01*
X10211957Y-12123814D01*
X10254814Y-12123814D01*
X10283386Y-12138100D01*
X10297671Y-12166671D01*
X10297671Y-12323814D01*
X10883386Y-12009529D02*
X10626243Y-12395243D01*
X11269100Y-12023814D02*
X11297671Y-12023814D01*
X11326243Y-12038100D01*
X11340528Y-12052386D01*
X11354814Y-12080957D01*
X11369100Y-12138100D01*
X11369100Y-12209529D01*
X11354814Y-12266671D01*
X11340528Y-12295243D01*
X11326243Y-12309529D01*
X11297671Y-12323814D01*
X11269100Y-12323814D01*
X11240528Y-12309529D01*
X11226243Y-12295243D01*
X11211957Y-12266671D01*
X11197671Y-12209529D01*
X11197671Y-12138100D01*
X11211957Y-12080957D01*
X11226243Y-12052386D01*
X11240528Y-12038100D01*
X11269100Y-12023814D01*
X11497671Y-12295243D02*
X11511957Y-12309529D01*
X11497671Y-12323814D01*
X11483386Y-12309529D01*
X11497671Y-12295243D01*
X11497671Y-12323814D01*
X11697671Y-12023814D02*
X11726243Y-12023814D01*
X11754814Y-12038100D01*
X11769100Y-12052386D01*
X11783386Y-12080957D01*
X11797671Y-12138100D01*
X11797671Y-12209529D01*
X11783386Y-12266671D01*
X11769100Y-12295243D01*
X11754814Y-12309529D01*
X11726243Y-12323814D01*
X11697671Y-12323814D01*
X11669100Y-12309529D01*
X11654814Y-12295243D01*
X11640528Y-12266671D01*
X11626243Y-12209529D01*
X11626243Y-12138100D01*
X11640528Y-12080957D01*
X11654814Y-12052386D01*
X11669100Y-12038100D01*
X11697671Y-12023814D01*
X12054814Y-12123814D02*
X12054814Y-12323814D01*
X11983386Y-12009529D02*
X11911957Y-12223814D01*
X12097671Y-12223814D01*
X12183386Y-12023814D02*
X12383386Y-12023814D01*
X12254814Y-12323814D01*
X12483386Y-12023814D02*
X12483386Y-12080957D01*
X12597671Y-12023814D02*
X12597671Y-12080957D01*
X13040528Y-12438100D02*
X13026243Y-12423814D01*
X12997671Y-12380957D01*
X12983386Y-12352386D01*
X12969100Y-12309529D01*
X12954814Y-12238100D01*
X12954814Y-12180957D01*
X12969100Y-12109529D01*
X12983386Y-12066671D01*
X12997671Y-12038100D01*
X13026243Y-11995243D01*
X13040528Y-11980957D01*
X13140528Y-12052386D02*
X13154814Y-12038100D01*
X13183386Y-12023814D01*
X13254814Y-12023814D01*
X13283386Y-12038100D01*
X13297671Y-12052386D01*
X13311957Y-12080957D01*
X13311957Y-12109529D01*
X13297671Y-12152386D01*
X13126243Y-12323814D01*
X13311957Y-12323814D01*
X13497671Y-12023814D02*
X13526243Y-12023814D01*
X13554814Y-12038100D01*
X13569100Y-12052386D01*
X13583386Y-12080957D01*
X13597671Y-12138100D01*
X13597671Y-12209529D01*
X13583386Y-12266671D01*
X13569100Y-12295243D01*
X13554814Y-12309529D01*
X13526243Y-12323814D01*
X13497671Y-12323814D01*
X13469100Y-12309529D01*
X13454814Y-12295243D01*
X13440528Y-12266671D01*
X13426243Y-12209529D01*
X13426243Y-12138100D01*
X13440528Y-12080957D01*
X13454814Y-12052386D01*
X13469100Y-12038100D01*
X13497671Y-12023814D01*
X13954814Y-12323814D02*
X13954814Y-12023814D01*
X14083386Y-12323814D02*
X14083386Y-12166671D01*
X14069100Y-12138100D01*
X14040528Y-12123814D01*
X13997671Y-12123814D01*
X13969100Y-12138100D01*
X13954814Y-12152386D01*
X14269100Y-12323814D02*
X14240528Y-12309529D01*
X14226243Y-12295243D01*
X14211957Y-12266671D01*
X14211957Y-12180957D01*
X14226243Y-12152386D01*
X14240528Y-12138100D01*
X14269100Y-12123814D01*
X14311957Y-12123814D01*
X14340528Y-12138100D01*
X14354814Y-12152386D01*
X14369100Y-12180957D01*
X14369100Y-12266671D01*
X14354814Y-12295243D01*
X14340528Y-12309529D01*
X14311957Y-12323814D01*
X14269100Y-12323814D01*
X14540528Y-12323814D02*
X14511957Y-12309529D01*
X14497671Y-12280957D01*
X14497671Y-12023814D01*
X14769100Y-12309529D02*
X14740528Y-12323814D01*
X14683386Y-12323814D01*
X14654814Y-12309529D01*
X14640528Y-12280957D01*
X14640528Y-12166671D01*
X14654814Y-12138100D01*
X14683386Y-12123814D01*
X14740528Y-12123814D01*
X14769100Y-12138100D01*
X14783386Y-12166671D01*
X14783386Y-12195243D01*
X14640528Y-12223814D01*
X14897671Y-12309529D02*
X14926243Y-12323814D01*
X14983386Y-12323814D01*
X15011957Y-12309529D01*
X15026243Y-12280957D01*
X15026243Y-12266671D01*
X15011957Y-12238100D01*
X14983386Y-12223814D01*
X14940528Y-12223814D01*
X14911957Y-12209529D01*
X14897671Y-12180957D01*
X14897671Y-12166671D01*
X14911957Y-12138100D01*
X14940528Y-12123814D01*
X14983386Y-12123814D01*
X15011957Y-12138100D01*
X15126243Y-12438100D02*
X15140528Y-12423814D01*
X15169100Y-12380957D01*
X15183386Y-12352386D01*
X15197671Y-12309529D01*
X15211957Y-12238100D01*
X15211957Y-12180957D01*
X15197671Y-12109529D01*
X15183386Y-12066671D01*
X15169100Y-12038100D01*
X15140528Y-11995243D01*
X15126243Y-11980957D01*
X8034100Y-12424100D02*
X8354100Y-12744100D01*
X8354100Y-12424100D02*
X8034100Y-12744100D01*
X8194100Y-12424100D02*
X8194100Y-12744100D01*
X8034100Y-12584100D02*
X8354100Y-12584100D01*
X8611957Y-12419814D02*
X8797671Y-12419814D01*
X8697671Y-12534100D01*
X8740528Y-12534100D01*
X8769100Y-12548386D01*
X8783386Y-12562671D01*
X8797671Y-12591243D01*
X8797671Y-12662671D01*
X8783386Y-12691243D01*
X8769100Y-12705529D01*
X8740528Y-12719814D01*
X8654814Y-12719814D01*
X8626243Y-12705529D01*
X8611957Y-12691243D01*
X8926243Y-12691243D02*
X8940528Y-12705529D01*
X8926243Y-12719814D01*
X8911957Y-12705529D01*
X8926243Y-12691243D01*
X8926243Y-12719814D01*
X9054814Y-12448386D02*
X9069100Y-12434100D01*
X9097671Y-12419814D01*
X9169100Y-12419814D01*
X9197671Y-12434100D01*
X9211957Y-12448386D01*
X9226243Y-12476957D01*
X9226243Y-12505529D01*
X9211957Y-12548386D01*
X9040528Y-12719814D01*
X9226243Y-12719814D01*
X9411957Y-12419814D02*
X9440528Y-12419814D01*
X9469100Y-12434100D01*
X9483386Y-12448386D01*
X9497671Y-12476957D01*
X9511957Y-12534100D01*
X9511957Y-12605529D01*
X9497671Y-12662671D01*
X9483386Y-12691243D01*
X9469100Y-12705529D01*
X9440528Y-12719814D01*
X9411957Y-12719814D01*
X9383386Y-12705529D01*
X9369100Y-12691243D01*
X9354814Y-12662671D01*
X9340528Y-12605529D01*
X9340528Y-12534100D01*
X9354814Y-12476957D01*
X9369100Y-12448386D01*
X9383386Y-12434100D01*
X9411957Y-12419814D01*
X9640528Y-12719814D02*
X9640528Y-12519814D01*
X9640528Y-12548386D02*
X9654814Y-12534100D01*
X9683386Y-12519814D01*
X9726243Y-12519814D01*
X9754814Y-12534100D01*
X9769100Y-12562671D01*
X9769100Y-12719814D01*
X9769100Y-12562671D02*
X9783386Y-12534100D01*
X9811957Y-12519814D01*
X9854814Y-12519814D01*
X9883386Y-12534100D01*
X9897671Y-12562671D01*
X9897671Y-12719814D01*
X10040528Y-12719814D02*
X10040528Y-12519814D01*
X10040528Y-12548386D02*
X10054814Y-12534100D01*
X10083386Y-12519814D01*
X10126243Y-12519814D01*
X10154814Y-12534100D01*
X10169100Y-12562671D01*
X10169100Y-12719814D01*
X10169100Y-12562671D02*
X10183386Y-12534100D01*
X10211957Y-12519814D01*
X10254814Y-12519814D01*
X10283386Y-12534100D01*
X10297671Y-12562671D01*
X10297671Y-12719814D01*
X10883386Y-12405529D02*
X10626243Y-12791243D01*
X11269100Y-12419814D02*
X11297671Y-12419814D01*
X11326243Y-12434100D01*
X11340528Y-12448386D01*
X11354814Y-12476957D01*
X11369100Y-12534100D01*
X11369100Y-12605529D01*
X11354814Y-12662671D01*
X11340528Y-12691243D01*
X11326243Y-12705529D01*
X11297671Y-12719814D01*
X11269100Y-12719814D01*
X11240528Y-12705529D01*
X11226243Y-12691243D01*
X11211957Y-12662671D01*
X11197671Y-12605529D01*
X11197671Y-12534100D01*
X11211957Y-12476957D01*
X11226243Y-12448386D01*
X11240528Y-12434100D01*
X11269100Y-12419814D01*
X11497671Y-12691243D02*
X11511957Y-12705529D01*
X11497671Y-12719814D01*
X11483386Y-12705529D01*
X11497671Y-12691243D01*
X11497671Y-12719814D01*
X11797671Y-12719814D02*
X11626243Y-12719814D01*
X11711957Y-12719814D02*
X11711957Y-12419814D01*
X11683386Y-12462671D01*
X11654814Y-12491243D01*
X11626243Y-12505529D01*
X11911957Y-12448386D02*
X11926243Y-12434100D01*
X11954814Y-12419814D01*
X12026243Y-12419814D01*
X12054814Y-12434100D01*
X12069100Y-12448386D01*
X12083386Y-12476957D01*
X12083386Y-12505529D01*
X12069100Y-12548386D01*
X11897671Y-12719814D01*
X12083386Y-12719814D01*
X12340528Y-12419814D02*
X12283386Y-12419814D01*
X12254814Y-12434100D01*
X12240528Y-12448386D01*
X12211957Y-12491243D01*
X12197671Y-12548386D01*
X12197671Y-12662671D01*
X12211957Y-12691243D01*
X12226243Y-12705529D01*
X12254814Y-12719814D01*
X12311957Y-12719814D01*
X12340528Y-12705529D01*
X12354814Y-12691243D01*
X12369100Y-12662671D01*
X12369100Y-12591243D01*
X12354814Y-12562671D01*
X12340528Y-12548386D01*
X12311957Y-12534100D01*
X12254814Y-12534100D01*
X12226243Y-12548386D01*
X12211957Y-12562671D01*
X12197671Y-12591243D01*
X12483386Y-12419814D02*
X12483386Y-12476957D01*
X12597671Y-12419814D02*
X12597671Y-12476957D01*
X13040528Y-12834100D02*
X13026243Y-12819814D01*
X12997671Y-12776957D01*
X12983386Y-12748386D01*
X12969100Y-12705529D01*
X12954814Y-12634100D01*
X12954814Y-12576957D01*
X12969100Y-12505529D01*
X12983386Y-12462671D01*
X12997671Y-12434100D01*
X13026243Y-12391243D01*
X13040528Y-12376957D01*
X13140528Y-12448386D02*
X13154814Y-12434100D01*
X13183386Y-12419814D01*
X13254814Y-12419814D01*
X13283386Y-12434100D01*
X13297671Y-12448386D01*
X13311957Y-12476957D01*
X13311957Y-12505529D01*
X13297671Y-12548386D01*
X13126243Y-12719814D01*
X13311957Y-12719814D01*
X13669100Y-12719814D02*
X13669100Y-12419814D01*
X13797671Y-12719814D02*
X13797671Y-12562671D01*
X13783386Y-12534100D01*
X13754814Y-12519814D01*
X13711957Y-12519814D01*
X13683386Y-12534100D01*
X13669100Y-12548386D01*
X13983386Y-12719814D02*
X13954814Y-12705529D01*
X13940528Y-12691243D01*
X13926243Y-12662671D01*
X13926243Y-12576957D01*
X13940528Y-12548386D01*
X13954814Y-12534100D01*
X13983386Y-12519814D01*
X14026243Y-12519814D01*
X14054814Y-12534100D01*
X14069100Y-12548386D01*
X14083386Y-12576957D01*
X14083386Y-12662671D01*
X14069100Y-12691243D01*
X14054814Y-12705529D01*
X14026243Y-12719814D01*
X13983386Y-12719814D01*
X14254814Y-12719814D02*
X14226243Y-12705529D01*
X14211957Y-12676957D01*
X14211957Y-12419814D01*
X14483386Y-12705529D02*
X14454814Y-12719814D01*
X14397671Y-12719814D01*
X14369100Y-12705529D01*
X14354814Y-12676957D01*
X14354814Y-12562671D01*
X14369100Y-12534100D01*
X14397671Y-12519814D01*
X14454814Y-12519814D01*
X14483386Y-12534100D01*
X14497671Y-12562671D01*
X14497671Y-12591243D01*
X14354814Y-12619814D01*
X14611957Y-12705529D02*
X14640528Y-12719814D01*
X14697671Y-12719814D01*
X14726243Y-12705529D01*
X14740528Y-12676957D01*
X14740528Y-12662671D01*
X14726243Y-12634100D01*
X14697671Y-12619814D01*
X14654814Y-12619814D01*
X14626243Y-12605529D01*
X14611957Y-12576957D01*
X14611957Y-12562671D01*
X14626243Y-12534100D01*
X14654814Y-12519814D01*
X14697671Y-12519814D01*
X14726243Y-12534100D01*
X14840528Y-12834100D02*
X14854814Y-12819814D01*
X14883386Y-12776957D01*
X14897671Y-12748386D01*
X14911957Y-12705529D01*
X14926243Y-12634100D01*
X14926243Y-12576957D01*
X14911957Y-12505529D01*
X14897671Y-12462671D01*
X14883386Y-12434100D01*
X14854814Y-12391243D01*
X14840528Y-12376957D01*
M02*
