G04 #@! TF.GenerationSoftware,KiCad,Pcbnew,5.1.9+dfsg1-1*
G04 #@! TF.CreationDate,2022-11-10T15:58:18+09:00*
G04 #@! TF.ProjectId,adapter-board,61646170-7465-4722-9d62-6f6172642e6b,rev?*
G04 #@! TF.SameCoordinates,Original*
G04 #@! TF.FileFunction,Legend,Top*
G04 #@! TF.FilePolarity,Positive*
%FSLAX46Y46*%
G04 Gerber Fmt 4.6, Leading zero omitted, Abs format (unit mm)*
G04 Created by KiCad (PCBNEW 5.1.9+dfsg1-1) date 2022-11-10 15:58:18*
%MOMM*%
%LPD*%
G01*
G04 APERTURE LIST*
%ADD10C,0.100000*%
%ADD11C,0.150000*%
%ADD12C,0.120000*%
%ADD13C,5.600000*%
%ADD14C,1.524000*%
%ADD15R,1.700000X1.700000*%
%ADD16O,1.700000X1.700000*%
%ADD17R,3.000000X1.000000*%
%ADD18O,1.700000X2.000000*%
%ADD19O,1.700000X1.950000*%
%ADD20C,1.000000*%
%ADD21R,8.000000X3.000000*%
G04 APERTURE END LIST*
D10*
X159998142Y-88985285D02*
X159641000Y-88985285D01*
X159641000Y-88235285D01*
X157458142Y-88985285D02*
X157208142Y-88628142D01*
X157029571Y-88985285D02*
X157029571Y-88235285D01*
X157315285Y-88235285D01*
X157386714Y-88271000D01*
X157422428Y-88306714D01*
X157458142Y-88378142D01*
X157458142Y-88485285D01*
X157422428Y-88556714D01*
X157386714Y-88592428D01*
X157315285Y-88628142D01*
X157029571Y-88628142D01*
X154114571Y-88271000D02*
X154043142Y-88235285D01*
X153936000Y-88235285D01*
X153828857Y-88271000D01*
X153757428Y-88342428D01*
X153721714Y-88413857D01*
X153686000Y-88556714D01*
X153686000Y-88663857D01*
X153721714Y-88806714D01*
X153757428Y-88878142D01*
X153828857Y-88949571D01*
X153936000Y-88985285D01*
X154007428Y-88985285D01*
X154114571Y-88949571D01*
X154150285Y-88913857D01*
X154150285Y-88663857D01*
X154007428Y-88663857D01*
X154471714Y-88985285D02*
X154471714Y-88235285D01*
X154900285Y-88985285D01*
X154900285Y-88235285D01*
X155257428Y-88985285D02*
X155257428Y-88235285D01*
X155436000Y-88235285D01*
X155543142Y-88271000D01*
X155614571Y-88342428D01*
X155650285Y-88413857D01*
X155686000Y-88556714D01*
X155686000Y-88663857D01*
X155650285Y-88806714D01*
X155614571Y-88878142D01*
X155543142Y-88949571D01*
X155436000Y-88985285D01*
X155257428Y-88985285D01*
D11*
X157995904Y-72906000D02*
X157900666Y-72858380D01*
X157757809Y-72858380D01*
X157614952Y-72906000D01*
X157519714Y-73001238D01*
X157472095Y-73096476D01*
X157424476Y-73286952D01*
X157424476Y-73429809D01*
X157472095Y-73620285D01*
X157519714Y-73715523D01*
X157614952Y-73810761D01*
X157757809Y-73858380D01*
X157853047Y-73858380D01*
X157995904Y-73810761D01*
X158043523Y-73763142D01*
X158043523Y-73429809D01*
X157853047Y-73429809D01*
X157495904Y-76112666D02*
X157972095Y-76112666D01*
X157400666Y-76398380D02*
X157734000Y-75398380D01*
X158067333Y-76398380D01*
X113244380Y-80343333D02*
X114244380Y-80010000D01*
X113244380Y-79676666D01*
X111704380Y-80343333D02*
X110704380Y-80343333D01*
X111418666Y-80010000D01*
X110704380Y-79676666D01*
X111704380Y-79676666D01*
X108212000Y-80771904D02*
X108164380Y-80867142D01*
X108164380Y-81010000D01*
X108212000Y-81152857D01*
X108307238Y-81248095D01*
X108402476Y-81295714D01*
X108592952Y-81343333D01*
X108735809Y-81343333D01*
X108926285Y-81295714D01*
X109021523Y-81248095D01*
X109116761Y-81152857D01*
X109164380Y-81010000D01*
X109164380Y-80914761D01*
X109116761Y-80771904D01*
X109069142Y-80724285D01*
X108735809Y-80724285D01*
X108735809Y-80914761D01*
X109164380Y-80295714D02*
X108164380Y-80295714D01*
X109164380Y-79724285D01*
X108164380Y-79724285D01*
X109164380Y-79248095D02*
X108164380Y-79248095D01*
X108164380Y-79010000D01*
X108212000Y-78867142D01*
X108307238Y-78771904D01*
X108402476Y-78724285D01*
X108592952Y-78676666D01*
X108735809Y-78676666D01*
X108926285Y-78724285D01*
X109021523Y-78771904D01*
X109116761Y-78867142D01*
X109164380Y-79010000D01*
X109164380Y-79248095D01*
X106624380Y-81954476D02*
X105624380Y-81954476D01*
X106338666Y-81621142D01*
X105624380Y-81287809D01*
X106624380Y-81287809D01*
X105624380Y-80811619D02*
X106433904Y-80811619D01*
X106529142Y-80764000D01*
X106576761Y-80716380D01*
X106624380Y-80621142D01*
X106624380Y-80430666D01*
X106576761Y-80335428D01*
X106529142Y-80287809D01*
X106433904Y-80240190D01*
X105624380Y-80240190D01*
X105624380Y-79906857D02*
X105624380Y-79335428D01*
X106624380Y-79621142D02*
X105624380Y-79621142D01*
X106100571Y-79002095D02*
X106100571Y-78668761D01*
X106624380Y-78525904D02*
X106624380Y-79002095D01*
X105624380Y-79002095D01*
X105624380Y-78525904D01*
X104084380Y-81343333D02*
X103084380Y-81343333D01*
X103084380Y-80962380D01*
X103132000Y-80867142D01*
X103179619Y-80819523D01*
X103274857Y-80771904D01*
X103417714Y-80771904D01*
X103512952Y-80819523D01*
X103560571Y-80867142D01*
X103608190Y-80962380D01*
X103608190Y-81343333D01*
X103084380Y-80438571D02*
X104084380Y-80200476D01*
X103370095Y-80010000D01*
X104084380Y-79819523D01*
X103084380Y-79581428D01*
X104084380Y-78629047D02*
X103608190Y-78962380D01*
X104084380Y-79200476D02*
X103084380Y-79200476D01*
X103084380Y-78819523D01*
X103132000Y-78724285D01*
X103179619Y-78676666D01*
X103274857Y-78629047D01*
X103417714Y-78629047D01*
X103512952Y-78676666D01*
X103560571Y-78724285D01*
X103608190Y-78819523D01*
X103608190Y-79200476D01*
X95194380Y-81049714D02*
X94194380Y-81049714D01*
X95194380Y-80478285D01*
X94194380Y-80478285D01*
X95099142Y-79430666D02*
X95146761Y-79478285D01*
X95194380Y-79621142D01*
X95194380Y-79716380D01*
X95146761Y-79859238D01*
X95051523Y-79954476D01*
X94956285Y-80002095D01*
X94765809Y-80049714D01*
X94622952Y-80049714D01*
X94432476Y-80002095D01*
X94337238Y-79954476D01*
X94242000Y-79859238D01*
X94194380Y-79716380D01*
X94194380Y-79621142D01*
X94242000Y-79478285D01*
X94289619Y-79430666D01*
X96734380Y-82105333D02*
X97734380Y-81772000D01*
X96734380Y-81438666D01*
X97639142Y-80533904D02*
X97686761Y-80581523D01*
X97734380Y-80724380D01*
X97734380Y-80819619D01*
X97686761Y-80962476D01*
X97591523Y-81057714D01*
X97496285Y-81105333D01*
X97305809Y-81152952D01*
X97162952Y-81152952D01*
X96972476Y-81105333D01*
X96877238Y-81057714D01*
X96782000Y-80962476D01*
X96734380Y-80819619D01*
X96734380Y-80724380D01*
X96782000Y-80581523D01*
X96829619Y-80533904D01*
X97639142Y-79533904D02*
X97686761Y-79581523D01*
X97734380Y-79724380D01*
X97734380Y-79819619D01*
X97686761Y-79962476D01*
X97591523Y-80057714D01*
X97496285Y-80105333D01*
X97305809Y-80152952D01*
X97162952Y-80152952D01*
X96972476Y-80105333D01*
X96877238Y-80057714D01*
X96782000Y-79962476D01*
X96734380Y-79819619D01*
X96734380Y-79724380D01*
X96782000Y-79581523D01*
X96829619Y-79533904D01*
X85288380Y-72111904D02*
X84288380Y-72111904D01*
X85002666Y-71778571D01*
X84288380Y-71445238D01*
X85288380Y-71445238D01*
X84288380Y-70778571D02*
X84288380Y-70588095D01*
X84336000Y-70492857D01*
X84431238Y-70397619D01*
X84621714Y-70350000D01*
X84955047Y-70350000D01*
X85145523Y-70397619D01*
X85240761Y-70492857D01*
X85288380Y-70588095D01*
X85288380Y-70778571D01*
X85240761Y-70873809D01*
X85145523Y-70969047D01*
X84955047Y-71016666D01*
X84621714Y-71016666D01*
X84431238Y-70969047D01*
X84336000Y-70873809D01*
X84288380Y-70778571D01*
X84288380Y-70064285D02*
X84288380Y-69492857D01*
X85288380Y-69778571D02*
X84288380Y-69778571D01*
X84288380Y-68969047D02*
X84288380Y-68778571D01*
X84336000Y-68683333D01*
X84431238Y-68588095D01*
X84621714Y-68540476D01*
X84955047Y-68540476D01*
X85145523Y-68588095D01*
X85240761Y-68683333D01*
X85288380Y-68778571D01*
X85288380Y-68969047D01*
X85240761Y-69064285D01*
X85145523Y-69159523D01*
X84955047Y-69207142D01*
X84621714Y-69207142D01*
X84431238Y-69159523D01*
X84336000Y-69064285D01*
X84288380Y-68969047D01*
X85288380Y-67540476D02*
X84812190Y-67873809D01*
X85288380Y-68111904D02*
X84288380Y-68111904D01*
X84288380Y-67730952D01*
X84336000Y-67635714D01*
X84383619Y-67588095D01*
X84478857Y-67540476D01*
X84621714Y-67540476D01*
X84716952Y-67588095D01*
X84764571Y-67635714D01*
X84812190Y-67730952D01*
X84812190Y-68111904D01*
X89098380Y-70167333D02*
X88098380Y-70167333D01*
X88098380Y-69786380D01*
X88146000Y-69691142D01*
X88193619Y-69643523D01*
X88288857Y-69595904D01*
X88431714Y-69595904D01*
X88526952Y-69643523D01*
X88574571Y-69691142D01*
X88622190Y-69786380D01*
X88622190Y-70167333D01*
X88098380Y-69262571D02*
X89098380Y-69024476D01*
X88384095Y-68834000D01*
X89098380Y-68643523D01*
X88098380Y-68405428D01*
X89098380Y-67453047D02*
X88622190Y-67786380D01*
X89098380Y-68024476D02*
X88098380Y-68024476D01*
X88098380Y-67643523D01*
X88146000Y-67548285D01*
X88193619Y-67500666D01*
X88288857Y-67453047D01*
X88431714Y-67453047D01*
X88526952Y-67500666D01*
X88574571Y-67548285D01*
X88622190Y-67643523D01*
X88622190Y-68024476D01*
D12*
X120590000Y-66869000D02*
X121920000Y-66869000D01*
X120590000Y-68199000D02*
X120590000Y-66869000D01*
X120590000Y-69469000D02*
X123250000Y-69469000D01*
X123250000Y-69469000D02*
X123250000Y-92389000D01*
X120590000Y-69469000D02*
X120590000Y-92389000D01*
X120590000Y-92389000D02*
X123250000Y-92389000D01*
X148530000Y-71822000D02*
X149860000Y-71822000D01*
X148530000Y-73152000D02*
X148530000Y-71822000D01*
X148530000Y-74422000D02*
X151190000Y-74422000D01*
X151190000Y-74422000D02*
X151190000Y-92262000D01*
X148530000Y-74422000D02*
X148530000Y-92262000D01*
X148530000Y-92262000D02*
X151190000Y-92262000D01*
X140850000Y-82568000D02*
X140850000Y-82068000D01*
X125850000Y-82568000D02*
X140850000Y-82568000D01*
X125850000Y-82068000D02*
X125850000Y-82568000D01*
X140850000Y-60568000D02*
X125850000Y-60568000D01*
X140850000Y-67068000D02*
X140850000Y-60568000D01*
X125850000Y-67068000D02*
X125850000Y-60568000D01*
X153773000Y-77672000D02*
X152108000Y-77672000D01*
X153773000Y-77417000D02*
X153773000Y-77672000D01*
X156158000Y-77417000D02*
X153773000Y-77417000D01*
X158543000Y-77417000D02*
X158543000Y-77672000D01*
X156158000Y-77417000D02*
X158543000Y-77417000D01*
X153773000Y-87937000D02*
X153773000Y-87682000D01*
X156158000Y-87937000D02*
X153773000Y-87937000D01*
X158543000Y-87937000D02*
X158543000Y-87682000D01*
X156158000Y-87937000D02*
X158543000Y-87937000D01*
X146110000Y-66869000D02*
X143450000Y-66869000D01*
X146110000Y-89789000D02*
X146110000Y-66869000D01*
X143450000Y-89789000D02*
X143450000Y-66869000D01*
X146110000Y-89789000D02*
X143450000Y-89789000D01*
X146110000Y-91059000D02*
X146110000Y-92389000D01*
X146110000Y-92389000D02*
X144780000Y-92389000D01*
X163890000Y-71822000D02*
X161230000Y-71822000D01*
X163890000Y-89662000D02*
X163890000Y-71822000D01*
X161230000Y-89662000D02*
X161230000Y-71822000D01*
X163890000Y-89662000D02*
X161230000Y-89662000D01*
X163890000Y-90932000D02*
X163890000Y-92262000D01*
X163890000Y-92262000D02*
X162560000Y-92262000D01*
X87828000Y-70605000D02*
X87828000Y-67745000D01*
X87828000Y-67745000D02*
X85908000Y-67745000D01*
X85908000Y-67745000D02*
X85908000Y-70605000D01*
X89464000Y-67736000D02*
X89464000Y-70596000D01*
X91384000Y-67736000D02*
X89464000Y-67736000D01*
X91384000Y-70596000D02*
X91384000Y-67736000D01*
X96982000Y-79189000D02*
X97282000Y-78589000D01*
X97582000Y-79189000D02*
X96982000Y-79189000D01*
X97282000Y-78589000D02*
X97582000Y-79189000D01*
X94532000Y-73889000D02*
X95032000Y-73889000D01*
X94532000Y-68389000D02*
X94532000Y-73889000D01*
X95032000Y-68389000D02*
X94532000Y-68389000D01*
X95032000Y-73889000D02*
X95032000Y-68389000D01*
X97032000Y-73889000D02*
X97532000Y-73889000D01*
X97032000Y-68389000D02*
X97032000Y-73889000D01*
X97532000Y-68389000D02*
X97032000Y-68389000D01*
X97532000Y-73889000D02*
X97532000Y-68389000D01*
X93642000Y-74999000D02*
X96032000Y-74999000D01*
X93642000Y-79499000D02*
X93642000Y-74999000D01*
X92222000Y-79499000D02*
X93642000Y-79499000D01*
X92222000Y-67779000D02*
X92222000Y-79499000D01*
X96032000Y-67779000D02*
X92222000Y-67779000D01*
X98422000Y-74999000D02*
X96032000Y-74999000D01*
X98422000Y-79499000D02*
X98422000Y-74999000D01*
X99842000Y-79499000D02*
X98422000Y-79499000D01*
X99842000Y-67779000D02*
X99842000Y-79499000D01*
X96032000Y-67779000D02*
X99842000Y-67779000D01*
X113332000Y-79189000D02*
X113632000Y-78589000D01*
X113932000Y-79189000D02*
X113332000Y-79189000D01*
X113632000Y-78589000D02*
X113932000Y-79189000D01*
X103382000Y-73889000D02*
X103882000Y-73889000D01*
X103382000Y-68389000D02*
X103382000Y-73889000D01*
X103882000Y-68389000D02*
X103382000Y-68389000D01*
X103882000Y-73889000D02*
X103882000Y-68389000D01*
X105882000Y-73889000D02*
X106382000Y-73889000D01*
X105882000Y-68389000D02*
X105882000Y-73889000D01*
X106382000Y-68389000D02*
X105882000Y-68389000D01*
X106382000Y-73889000D02*
X106382000Y-68389000D01*
X108382000Y-73889000D02*
X108882000Y-73889000D01*
X108382000Y-68389000D02*
X108382000Y-73889000D01*
X108882000Y-68389000D02*
X108382000Y-68389000D01*
X108882000Y-73889000D02*
X108882000Y-68389000D01*
X110882000Y-73889000D02*
X111382000Y-73889000D01*
X110882000Y-68389000D02*
X110882000Y-73889000D01*
X111382000Y-68389000D02*
X110882000Y-68389000D01*
X111382000Y-73889000D02*
X111382000Y-68389000D01*
X113382000Y-73889000D02*
X113882000Y-73889000D01*
X113382000Y-68389000D02*
X113382000Y-73889000D01*
X113882000Y-68389000D02*
X113382000Y-68389000D01*
X113882000Y-73889000D02*
X113882000Y-68389000D01*
X102492000Y-74999000D02*
X108632000Y-74999000D01*
X102492000Y-79499000D02*
X102492000Y-74999000D01*
X101072000Y-79499000D02*
X102492000Y-79499000D01*
X101072000Y-67779000D02*
X101072000Y-79499000D01*
X108632000Y-67779000D02*
X101072000Y-67779000D01*
X114772000Y-74999000D02*
X108632000Y-74999000D01*
X114772000Y-79499000D02*
X114772000Y-74999000D01*
X116192000Y-79499000D02*
X114772000Y-79499000D01*
X116192000Y-67779000D02*
X116192000Y-79499000D01*
X108632000Y-67779000D02*
X116192000Y-67779000D01*
X87603000Y-73432936D02*
X87603000Y-73887064D01*
X86133000Y-73432936D02*
X86133000Y-73887064D01*
X89689000Y-73416936D02*
X89689000Y-73871064D01*
X91159000Y-73416936D02*
X91159000Y-73871064D01*
X155165248Y-72417000D02*
X155687752Y-72417000D01*
X155165248Y-73887000D02*
X155687752Y-73887000D01*
X155165248Y-76681000D02*
X155687752Y-76681000D01*
X155165248Y-75211000D02*
X155687752Y-75211000D01*
X154946000Y-70600000D02*
X154446000Y-70600000D01*
X154446000Y-70600000D02*
X154446000Y-67200000D01*
X154446000Y-67200000D02*
X154946000Y-67200000D01*
X154446000Y-69445000D02*
X153296000Y-69850000D01*
X153296000Y-69850000D02*
X152846000Y-69850000D01*
X154446000Y-68355000D02*
X153296000Y-67950000D01*
X153296000Y-67950000D02*
X152846000Y-67950000D01*
X151411000Y-90939252D02*
X151411000Y-90416748D01*
X152881000Y-90939252D02*
X152881000Y-90416748D01*
X160842000Y-71822000D02*
X158182000Y-71822000D01*
X160842000Y-74422000D02*
X160842000Y-71822000D01*
X158182000Y-74422000D02*
X158182000Y-71822000D01*
X160842000Y-74422000D02*
X158182000Y-74422000D01*
X160842000Y-75692000D02*
X160842000Y-77022000D01*
X160842000Y-77022000D02*
X159512000Y-77022000D01*
X153356000Y-89602000D02*
X153356000Y-92262000D01*
X158496000Y-89602000D02*
X153356000Y-89602000D01*
X158496000Y-92262000D02*
X153356000Y-92262000D01*
X158496000Y-89602000D02*
X158496000Y-92262000D01*
X159766000Y-89602000D02*
X161096000Y-89602000D01*
X161096000Y-89602000D02*
X161096000Y-90932000D01*
X130838752Y-83593000D02*
X130316248Y-83593000D01*
X130838752Y-85063000D02*
X130316248Y-85063000D01*
X126252248Y-83593000D02*
X126774752Y-83593000D01*
X126252248Y-85063000D02*
X126774752Y-85063000D01*
X126248936Y-85879000D02*
X126703064Y-85879000D01*
X126248936Y-87349000D02*
X126703064Y-87349000D01*
X139714248Y-83593000D02*
X140236752Y-83593000D01*
X139714248Y-85063000D02*
X140236752Y-85063000D01*
X138963000Y-87574000D02*
X141823000Y-87574000D01*
X141823000Y-87574000D02*
X141823000Y-85654000D01*
X141823000Y-85654000D02*
X138963000Y-85654000D01*
X130750000Y-88840000D02*
X130750000Y-91500000D01*
X133350000Y-88840000D02*
X130750000Y-88840000D01*
X133350000Y-91500000D02*
X130750000Y-91500000D01*
X133350000Y-88840000D02*
X133350000Y-91500000D01*
X134620000Y-88840000D02*
X135950000Y-88840000D01*
X135950000Y-88840000D02*
X135950000Y-90170000D01*
X135170936Y-83593000D02*
X135625064Y-83593000D01*
X135170936Y-85063000D02*
X135625064Y-85063000D01*
D11*
X95678666Y-73112380D02*
X95678666Y-73826666D01*
X95631047Y-73969523D01*
X95535809Y-74064761D01*
X95392952Y-74112380D01*
X95297714Y-74112380D01*
X96107238Y-73207619D02*
X96154857Y-73160000D01*
X96250095Y-73112380D01*
X96488190Y-73112380D01*
X96583428Y-73160000D01*
X96631047Y-73207619D01*
X96678666Y-73302857D01*
X96678666Y-73398095D01*
X96631047Y-73540952D01*
X96059619Y-74112380D01*
X96678666Y-74112380D01*
X106854666Y-73366380D02*
X106854666Y-74080666D01*
X106807047Y-74223523D01*
X106711809Y-74318761D01*
X106568952Y-74366380D01*
X106473714Y-74366380D01*
X107378476Y-74366380D02*
X107568952Y-74366380D01*
X107664190Y-74318761D01*
X107711809Y-74271142D01*
X107807047Y-74128285D01*
X107854666Y-73937809D01*
X107854666Y-73556857D01*
X107807047Y-73461619D01*
X107759428Y-73414000D01*
X107664190Y-73366380D01*
X107473714Y-73366380D01*
X107378476Y-73414000D01*
X107330857Y-73461619D01*
X107283238Y-73556857D01*
X107283238Y-73794952D01*
X107330857Y-73890190D01*
X107378476Y-73937809D01*
X107473714Y-73985428D01*
X107664190Y-73985428D01*
X107759428Y-73937809D01*
X107807047Y-73890190D01*
X107854666Y-73794952D01*
X87320380Y-76874666D02*
X86844190Y-77208000D01*
X87320380Y-77446095D02*
X86320380Y-77446095D01*
X86320380Y-77065142D01*
X86368000Y-76969904D01*
X86415619Y-76922285D01*
X86510857Y-76874666D01*
X86653714Y-76874666D01*
X86748952Y-76922285D01*
X86796571Y-76969904D01*
X86844190Y-77065142D01*
X86844190Y-77446095D01*
X87320380Y-75922285D02*
X87320380Y-76493714D01*
X87320380Y-76208000D02*
X86320380Y-76208000D01*
X86463238Y-76303238D01*
X86558476Y-76398476D01*
X86606095Y-76493714D01*
X90876380Y-76874666D02*
X90400190Y-77208000D01*
X90876380Y-77446095D02*
X89876380Y-77446095D01*
X89876380Y-77065142D01*
X89924000Y-76969904D01*
X89971619Y-76922285D01*
X90066857Y-76874666D01*
X90209714Y-76874666D01*
X90304952Y-76922285D01*
X90352571Y-76969904D01*
X90400190Y-77065142D01*
X90400190Y-77446095D01*
X89971619Y-76493714D02*
X89924000Y-76446095D01*
X89876380Y-76350857D01*
X89876380Y-76112761D01*
X89924000Y-76017523D01*
X89971619Y-75969904D01*
X90066857Y-75922285D01*
X90162095Y-75922285D01*
X90304952Y-75969904D01*
X90876380Y-76541333D01*
X90876380Y-75922285D01*
X152487333Y-73509142D02*
X152439714Y-73556761D01*
X152296857Y-73604380D01*
X152201619Y-73604380D01*
X152058761Y-73556761D01*
X151963523Y-73461523D01*
X151915904Y-73366285D01*
X151868285Y-73175809D01*
X151868285Y-73032952D01*
X151915904Y-72842476D01*
X151963523Y-72747238D01*
X152058761Y-72652000D01*
X152201619Y-72604380D01*
X152296857Y-72604380D01*
X152439714Y-72652000D01*
X152487333Y-72699619D01*
X153439714Y-73604380D02*
X152868285Y-73604380D01*
X153154000Y-73604380D02*
X153154000Y-72604380D01*
X153058761Y-72747238D01*
X152963523Y-72842476D01*
X152868285Y-72890095D01*
X152487333Y-76303142D02*
X152439714Y-76350761D01*
X152296857Y-76398380D01*
X152201619Y-76398380D01*
X152058761Y-76350761D01*
X151963523Y-76255523D01*
X151915904Y-76160285D01*
X151868285Y-75969809D01*
X151868285Y-75826952D01*
X151915904Y-75636476D01*
X151963523Y-75541238D01*
X152058761Y-75446000D01*
X152201619Y-75398380D01*
X152296857Y-75398380D01*
X152439714Y-75446000D01*
X152487333Y-75493619D01*
X152868285Y-75493619D02*
X152915904Y-75446000D01*
X153011142Y-75398380D01*
X153249238Y-75398380D01*
X153344476Y-75446000D01*
X153392095Y-75493619D01*
X153439714Y-75588857D01*
X153439714Y-75684095D01*
X153392095Y-75826952D01*
X152820666Y-76398380D01*
X153439714Y-76398380D01*
X149637809Y-68048190D02*
X149637809Y-68524380D01*
X149304476Y-67524380D02*
X149637809Y-68048190D01*
X149971142Y-67524380D01*
X150828285Y-68524380D02*
X150256857Y-68524380D01*
X150542571Y-68524380D02*
X150542571Y-67524380D01*
X150447333Y-67667238D01*
X150352095Y-67762476D01*
X150256857Y-67810095D01*
X151979333Y-88495142D02*
X151931714Y-88542761D01*
X151788857Y-88590380D01*
X151693619Y-88590380D01*
X151550761Y-88542761D01*
X151455523Y-88447523D01*
X151407904Y-88352285D01*
X151360285Y-88161809D01*
X151360285Y-88018952D01*
X151407904Y-87828476D01*
X151455523Y-87733238D01*
X151550761Y-87638000D01*
X151693619Y-87590380D01*
X151788857Y-87590380D01*
X151931714Y-87638000D01*
X151979333Y-87685619D01*
X152884095Y-87590380D02*
X152407904Y-87590380D01*
X152360285Y-88066571D01*
X152407904Y-88018952D01*
X152503142Y-87971333D01*
X152741238Y-87971333D01*
X152836476Y-88018952D01*
X152884095Y-88066571D01*
X152931714Y-88161809D01*
X152931714Y-88399904D01*
X152884095Y-88495142D01*
X152836476Y-88542761D01*
X152741238Y-88590380D01*
X152503142Y-88590380D01*
X152407904Y-88542761D01*
X152360285Y-88495142D01*
X161548380Y-91741523D02*
X162262666Y-91741523D01*
X162405523Y-91789142D01*
X162500761Y-91884380D01*
X162548380Y-92027238D01*
X162548380Y-92122476D01*
X162548380Y-90741523D02*
X162548380Y-91312952D01*
X162548380Y-91027238D02*
X161548380Y-91027238D01*
X161691238Y-91122476D01*
X161786476Y-91217714D01*
X161834095Y-91312952D01*
X161548380Y-90122476D02*
X161548380Y-90027238D01*
X161596000Y-89932000D01*
X161643619Y-89884380D01*
X161738857Y-89836761D01*
X161929333Y-89789142D01*
X162167428Y-89789142D01*
X162357904Y-89836761D01*
X162453142Y-89884380D01*
X162500761Y-89932000D01*
X162548380Y-90027238D01*
X162548380Y-90122476D01*
X162500761Y-90217714D01*
X162453142Y-90265333D01*
X162357904Y-90312952D01*
X162167428Y-90360571D01*
X161929333Y-90360571D01*
X161738857Y-90312952D01*
X161643619Y-90265333D01*
X161596000Y-90217714D01*
X161548380Y-90122476D01*
X130410833Y-86365142D02*
X130363214Y-86412761D01*
X130220357Y-86460380D01*
X130125119Y-86460380D01*
X129982261Y-86412761D01*
X129887023Y-86317523D01*
X129839404Y-86222285D01*
X129791785Y-86031809D01*
X129791785Y-85888952D01*
X129839404Y-85698476D01*
X129887023Y-85603238D01*
X129982261Y-85508000D01*
X130125119Y-85460380D01*
X130220357Y-85460380D01*
X130363214Y-85508000D01*
X130410833Y-85555619D01*
X131267976Y-85460380D02*
X131077500Y-85460380D01*
X130982261Y-85508000D01*
X130934642Y-85555619D01*
X130839404Y-85698476D01*
X130791785Y-85888952D01*
X130791785Y-86269904D01*
X130839404Y-86365142D01*
X130887023Y-86412761D01*
X130982261Y-86460380D01*
X131172738Y-86460380D01*
X131267976Y-86412761D01*
X131315595Y-86365142D01*
X131363214Y-86269904D01*
X131363214Y-86031809D01*
X131315595Y-85936571D01*
X131267976Y-85888952D01*
X131172738Y-85841333D01*
X130982261Y-85841333D01*
X130887023Y-85888952D01*
X130839404Y-85936571D01*
X130791785Y-86031809D01*
X126346833Y-83005142D02*
X126299214Y-83052761D01*
X126156357Y-83100380D01*
X126061119Y-83100380D01*
X125918261Y-83052761D01*
X125823023Y-82957523D01*
X125775404Y-82862285D01*
X125727785Y-82671809D01*
X125727785Y-82528952D01*
X125775404Y-82338476D01*
X125823023Y-82243238D01*
X125918261Y-82148000D01*
X126061119Y-82100380D01*
X126156357Y-82100380D01*
X126299214Y-82148000D01*
X126346833Y-82195619D01*
X126680166Y-82100380D02*
X127346833Y-82100380D01*
X126918261Y-83100380D01*
X126309333Y-88844380D02*
X125976000Y-88368190D01*
X125737904Y-88844380D02*
X125737904Y-87844380D01*
X126118857Y-87844380D01*
X126214095Y-87892000D01*
X126261714Y-87939619D01*
X126309333Y-88034857D01*
X126309333Y-88177714D01*
X126261714Y-88272952D01*
X126214095Y-88320571D01*
X126118857Y-88368190D01*
X125737904Y-88368190D01*
X126642666Y-87844380D02*
X127261714Y-87844380D01*
X126928380Y-88225333D01*
X127071238Y-88225333D01*
X127166476Y-88272952D01*
X127214095Y-88320571D01*
X127261714Y-88415809D01*
X127261714Y-88653904D01*
X127214095Y-88749142D01*
X127166476Y-88796761D01*
X127071238Y-88844380D01*
X126785523Y-88844380D01*
X126690285Y-88796761D01*
X126642666Y-88749142D01*
X139808833Y-83005142D02*
X139761214Y-83052761D01*
X139618357Y-83100380D01*
X139523119Y-83100380D01*
X139380261Y-83052761D01*
X139285023Y-82957523D01*
X139237404Y-82862285D01*
X139189785Y-82671809D01*
X139189785Y-82528952D01*
X139237404Y-82338476D01*
X139285023Y-82243238D01*
X139380261Y-82148000D01*
X139523119Y-82100380D01*
X139618357Y-82100380D01*
X139761214Y-82148000D01*
X139808833Y-82195619D01*
X140380261Y-82528952D02*
X140285023Y-82481333D01*
X140237404Y-82433714D01*
X140189785Y-82338476D01*
X140189785Y-82290857D01*
X140237404Y-82195619D01*
X140285023Y-82148000D01*
X140380261Y-82100380D01*
X140570738Y-82100380D01*
X140665976Y-82148000D01*
X140713595Y-82195619D01*
X140761214Y-82290857D01*
X140761214Y-82338476D01*
X140713595Y-82433714D01*
X140665976Y-82481333D01*
X140570738Y-82528952D01*
X140380261Y-82528952D01*
X140285023Y-82576571D01*
X140237404Y-82624190D01*
X140189785Y-82719428D01*
X140189785Y-82909904D01*
X140237404Y-83005142D01*
X140285023Y-83052761D01*
X140380261Y-83100380D01*
X140570738Y-83100380D01*
X140665976Y-83052761D01*
X140713595Y-83005142D01*
X140761214Y-82909904D01*
X140761214Y-82719428D01*
X140713595Y-82624190D01*
X140665976Y-82576571D01*
X140570738Y-82528952D01*
X139224904Y-88716380D02*
X139224904Y-87716380D01*
X139463000Y-87716380D01*
X139605857Y-87764000D01*
X139701095Y-87859238D01*
X139748714Y-87954476D01*
X139796333Y-88144952D01*
X139796333Y-88287809D01*
X139748714Y-88478285D01*
X139701095Y-88573523D01*
X139605857Y-88668761D01*
X139463000Y-88716380D01*
X139224904Y-88716380D01*
X140129666Y-87716380D02*
X140748714Y-87716380D01*
X140415380Y-88097333D01*
X140558238Y-88097333D01*
X140653476Y-88144952D01*
X140701095Y-88192571D01*
X140748714Y-88287809D01*
X140748714Y-88525904D01*
X140701095Y-88621142D01*
X140653476Y-88668761D01*
X140558238Y-88716380D01*
X140272523Y-88716380D01*
X140177285Y-88668761D01*
X140129666Y-88621142D01*
X136402380Y-90979523D02*
X137116666Y-90979523D01*
X137259523Y-91027142D01*
X137354761Y-91122380D01*
X137402380Y-91265238D01*
X137402380Y-91360476D01*
X137402380Y-89979523D02*
X137402380Y-90550952D01*
X137402380Y-90265238D02*
X136402380Y-90265238D01*
X136545238Y-90360476D01*
X136640476Y-90455714D01*
X136688095Y-90550952D01*
X136497619Y-89598571D02*
X136450000Y-89550952D01*
X136402380Y-89455714D01*
X136402380Y-89217619D01*
X136450000Y-89122380D01*
X136497619Y-89074761D01*
X136592857Y-89027142D01*
X136688095Y-89027142D01*
X136830952Y-89074761D01*
X137402380Y-89646190D01*
X137402380Y-89027142D01*
X135231333Y-86558380D02*
X134898000Y-86082190D01*
X134659904Y-86558380D02*
X134659904Y-85558380D01*
X135040857Y-85558380D01*
X135136095Y-85606000D01*
X135183714Y-85653619D01*
X135231333Y-85748857D01*
X135231333Y-85891714D01*
X135183714Y-85986952D01*
X135136095Y-86034571D01*
X135040857Y-86082190D01*
X134659904Y-86082190D01*
X136088476Y-85891714D02*
X136088476Y-86558380D01*
X135850380Y-85510761D02*
X135612285Y-86225047D01*
X136231333Y-86225047D01*
%LPC*%
D13*
X113792000Y-83820000D03*
X87122000Y-83820000D03*
D14*
X107315000Y-85852000D03*
X104775000Y-85852000D03*
X102235000Y-85852000D03*
X99695000Y-85852000D03*
X97155000Y-85852000D03*
X94615000Y-85852000D03*
X106045000Y-88392000D03*
X103505000Y-88392000D03*
X100965000Y-88392000D03*
X98425000Y-88392000D03*
X95885000Y-88392000D03*
X93345000Y-88392000D03*
D15*
X121920000Y-68199000D03*
D16*
X121920000Y-70739000D03*
X121920000Y-73279000D03*
X121920000Y-75819000D03*
X121920000Y-78359000D03*
X121920000Y-80899000D03*
X121920000Y-83439000D03*
X121920000Y-85979000D03*
X121920000Y-88519000D03*
X121920000Y-91059000D03*
D15*
X149860000Y-73152000D03*
D16*
X149860000Y-75692000D03*
X149860000Y-78232000D03*
X149860000Y-80772000D03*
X149860000Y-83312000D03*
X149860000Y-85852000D03*
X149860000Y-88392000D03*
X149860000Y-90932000D03*
D17*
X125850000Y-67818000D03*
X125850000Y-69318000D03*
X125850000Y-70818000D03*
X125850000Y-72318000D03*
X125850000Y-73818000D03*
X125850000Y-75318000D03*
X125850000Y-76818000D03*
X125850000Y-78318000D03*
X125850000Y-79818000D03*
X125850000Y-81318000D03*
X140850000Y-81318000D03*
X140850000Y-79818000D03*
X140850000Y-78318000D03*
X140850000Y-76818000D03*
X140850000Y-75318000D03*
X140850000Y-73818000D03*
X140850000Y-72318000D03*
X140850000Y-70818000D03*
X140850000Y-69318000D03*
X140850000Y-67818000D03*
G36*
G01*
X152108000Y-78382000D02*
X152108000Y-78082000D01*
G75*
G02*
X152258000Y-77932000I150000J0D01*
G01*
X153558000Y-77932000D01*
G75*
G02*
X153708000Y-78082000I0J-150000D01*
G01*
X153708000Y-78382000D01*
G75*
G02*
X153558000Y-78532000I-150000J0D01*
G01*
X152258000Y-78532000D01*
G75*
G02*
X152108000Y-78382000I0J150000D01*
G01*
G37*
G36*
G01*
X152108000Y-79652000D02*
X152108000Y-79352000D01*
G75*
G02*
X152258000Y-79202000I150000J0D01*
G01*
X153558000Y-79202000D01*
G75*
G02*
X153708000Y-79352000I0J-150000D01*
G01*
X153708000Y-79652000D01*
G75*
G02*
X153558000Y-79802000I-150000J0D01*
G01*
X152258000Y-79802000D01*
G75*
G02*
X152108000Y-79652000I0J150000D01*
G01*
G37*
G36*
G01*
X152108000Y-80922000D02*
X152108000Y-80622000D01*
G75*
G02*
X152258000Y-80472000I150000J0D01*
G01*
X153558000Y-80472000D01*
G75*
G02*
X153708000Y-80622000I0J-150000D01*
G01*
X153708000Y-80922000D01*
G75*
G02*
X153558000Y-81072000I-150000J0D01*
G01*
X152258000Y-81072000D01*
G75*
G02*
X152108000Y-80922000I0J150000D01*
G01*
G37*
G36*
G01*
X152108000Y-82192000D02*
X152108000Y-81892000D01*
G75*
G02*
X152258000Y-81742000I150000J0D01*
G01*
X153558000Y-81742000D01*
G75*
G02*
X153708000Y-81892000I0J-150000D01*
G01*
X153708000Y-82192000D01*
G75*
G02*
X153558000Y-82342000I-150000J0D01*
G01*
X152258000Y-82342000D01*
G75*
G02*
X152108000Y-82192000I0J150000D01*
G01*
G37*
G36*
G01*
X152108000Y-83462000D02*
X152108000Y-83162000D01*
G75*
G02*
X152258000Y-83012000I150000J0D01*
G01*
X153558000Y-83012000D01*
G75*
G02*
X153708000Y-83162000I0J-150000D01*
G01*
X153708000Y-83462000D01*
G75*
G02*
X153558000Y-83612000I-150000J0D01*
G01*
X152258000Y-83612000D01*
G75*
G02*
X152108000Y-83462000I0J150000D01*
G01*
G37*
G36*
G01*
X152108000Y-84732000D02*
X152108000Y-84432000D01*
G75*
G02*
X152258000Y-84282000I150000J0D01*
G01*
X153558000Y-84282000D01*
G75*
G02*
X153708000Y-84432000I0J-150000D01*
G01*
X153708000Y-84732000D01*
G75*
G02*
X153558000Y-84882000I-150000J0D01*
G01*
X152258000Y-84882000D01*
G75*
G02*
X152108000Y-84732000I0J150000D01*
G01*
G37*
G36*
G01*
X152108000Y-86002000D02*
X152108000Y-85702000D01*
G75*
G02*
X152258000Y-85552000I150000J0D01*
G01*
X153558000Y-85552000D01*
G75*
G02*
X153708000Y-85702000I0J-150000D01*
G01*
X153708000Y-86002000D01*
G75*
G02*
X153558000Y-86152000I-150000J0D01*
G01*
X152258000Y-86152000D01*
G75*
G02*
X152108000Y-86002000I0J150000D01*
G01*
G37*
G36*
G01*
X152108000Y-87272000D02*
X152108000Y-86972000D01*
G75*
G02*
X152258000Y-86822000I150000J0D01*
G01*
X153558000Y-86822000D01*
G75*
G02*
X153708000Y-86972000I0J-150000D01*
G01*
X153708000Y-87272000D01*
G75*
G02*
X153558000Y-87422000I-150000J0D01*
G01*
X152258000Y-87422000D01*
G75*
G02*
X152108000Y-87272000I0J150000D01*
G01*
G37*
G36*
G01*
X158608000Y-87272000D02*
X158608000Y-86972000D01*
G75*
G02*
X158758000Y-86822000I150000J0D01*
G01*
X160058000Y-86822000D01*
G75*
G02*
X160208000Y-86972000I0J-150000D01*
G01*
X160208000Y-87272000D01*
G75*
G02*
X160058000Y-87422000I-150000J0D01*
G01*
X158758000Y-87422000D01*
G75*
G02*
X158608000Y-87272000I0J150000D01*
G01*
G37*
G36*
G01*
X158608000Y-86002000D02*
X158608000Y-85702000D01*
G75*
G02*
X158758000Y-85552000I150000J0D01*
G01*
X160058000Y-85552000D01*
G75*
G02*
X160208000Y-85702000I0J-150000D01*
G01*
X160208000Y-86002000D01*
G75*
G02*
X160058000Y-86152000I-150000J0D01*
G01*
X158758000Y-86152000D01*
G75*
G02*
X158608000Y-86002000I0J150000D01*
G01*
G37*
G36*
G01*
X158608000Y-84732000D02*
X158608000Y-84432000D01*
G75*
G02*
X158758000Y-84282000I150000J0D01*
G01*
X160058000Y-84282000D01*
G75*
G02*
X160208000Y-84432000I0J-150000D01*
G01*
X160208000Y-84732000D01*
G75*
G02*
X160058000Y-84882000I-150000J0D01*
G01*
X158758000Y-84882000D01*
G75*
G02*
X158608000Y-84732000I0J150000D01*
G01*
G37*
G36*
G01*
X158608000Y-83462000D02*
X158608000Y-83162000D01*
G75*
G02*
X158758000Y-83012000I150000J0D01*
G01*
X160058000Y-83012000D01*
G75*
G02*
X160208000Y-83162000I0J-150000D01*
G01*
X160208000Y-83462000D01*
G75*
G02*
X160058000Y-83612000I-150000J0D01*
G01*
X158758000Y-83612000D01*
G75*
G02*
X158608000Y-83462000I0J150000D01*
G01*
G37*
G36*
G01*
X158608000Y-82192000D02*
X158608000Y-81892000D01*
G75*
G02*
X158758000Y-81742000I150000J0D01*
G01*
X160058000Y-81742000D01*
G75*
G02*
X160208000Y-81892000I0J-150000D01*
G01*
X160208000Y-82192000D01*
G75*
G02*
X160058000Y-82342000I-150000J0D01*
G01*
X158758000Y-82342000D01*
G75*
G02*
X158608000Y-82192000I0J150000D01*
G01*
G37*
G36*
G01*
X158608000Y-80922000D02*
X158608000Y-80622000D01*
G75*
G02*
X158758000Y-80472000I150000J0D01*
G01*
X160058000Y-80472000D01*
G75*
G02*
X160208000Y-80622000I0J-150000D01*
G01*
X160208000Y-80922000D01*
G75*
G02*
X160058000Y-81072000I-150000J0D01*
G01*
X158758000Y-81072000D01*
G75*
G02*
X158608000Y-80922000I0J150000D01*
G01*
G37*
G36*
G01*
X158608000Y-79652000D02*
X158608000Y-79352000D01*
G75*
G02*
X158758000Y-79202000I150000J0D01*
G01*
X160058000Y-79202000D01*
G75*
G02*
X160208000Y-79352000I0J-150000D01*
G01*
X160208000Y-79652000D01*
G75*
G02*
X160058000Y-79802000I-150000J0D01*
G01*
X158758000Y-79802000D01*
G75*
G02*
X158608000Y-79652000I0J150000D01*
G01*
G37*
G36*
G01*
X158608000Y-78382000D02*
X158608000Y-78082000D01*
G75*
G02*
X158758000Y-77932000I150000J0D01*
G01*
X160058000Y-77932000D01*
G75*
G02*
X160208000Y-78082000I0J-150000D01*
G01*
X160208000Y-78382000D01*
G75*
G02*
X160058000Y-78532000I-150000J0D01*
G01*
X158758000Y-78532000D01*
G75*
G02*
X158608000Y-78382000I0J150000D01*
G01*
G37*
D16*
X144780000Y-68199000D03*
X144780000Y-70739000D03*
X144780000Y-73279000D03*
X144780000Y-75819000D03*
X144780000Y-78359000D03*
X144780000Y-80899000D03*
X144780000Y-83439000D03*
X144780000Y-85979000D03*
X144780000Y-88519000D03*
D15*
X144780000Y-91059000D03*
D16*
X162560000Y-73152000D03*
X162560000Y-75692000D03*
X162560000Y-78232000D03*
X162560000Y-80772000D03*
X162560000Y-83312000D03*
X162560000Y-85852000D03*
X162560000Y-88392000D03*
D15*
X162560000Y-90932000D03*
G36*
G01*
X86417999Y-70055000D02*
X87318001Y-70055000D01*
G75*
G02*
X87568000Y-70304999I0J-249999D01*
G01*
X87568000Y-70955001D01*
G75*
G02*
X87318001Y-71205000I-249999J0D01*
G01*
X86417999Y-71205000D01*
G75*
G02*
X86168000Y-70955001I0J249999D01*
G01*
X86168000Y-70304999D01*
G75*
G02*
X86417999Y-70055000I249999J0D01*
G01*
G37*
G36*
G01*
X86417999Y-68005000D02*
X87318001Y-68005000D01*
G75*
G02*
X87568000Y-68254999I0J-249999D01*
G01*
X87568000Y-68905001D01*
G75*
G02*
X87318001Y-69155000I-249999J0D01*
G01*
X86417999Y-69155000D01*
G75*
G02*
X86168000Y-68905001I0J249999D01*
G01*
X86168000Y-68254999D01*
G75*
G02*
X86417999Y-68005000I249999J0D01*
G01*
G37*
G36*
G01*
X89973999Y-67996000D02*
X90874001Y-67996000D01*
G75*
G02*
X91124000Y-68245999I0J-249999D01*
G01*
X91124000Y-68896001D01*
G75*
G02*
X90874001Y-69146000I-249999J0D01*
G01*
X89973999Y-69146000D01*
G75*
G02*
X89724000Y-68896001I0J249999D01*
G01*
X89724000Y-68245999D01*
G75*
G02*
X89973999Y-67996000I249999J0D01*
G01*
G37*
G36*
G01*
X89973999Y-70046000D02*
X90874001Y-70046000D01*
G75*
G02*
X91124000Y-70295999I0J-249999D01*
G01*
X91124000Y-70946001D01*
G75*
G02*
X90874001Y-71196000I-249999J0D01*
G01*
X89973999Y-71196000D01*
G75*
G02*
X89724000Y-70946001I0J249999D01*
G01*
X89724000Y-70295999D01*
G75*
G02*
X89973999Y-70046000I249999J0D01*
G01*
G37*
G36*
G01*
X98132000Y-76339000D02*
X98132000Y-77839000D01*
G75*
G02*
X97882000Y-78089000I-250000J0D01*
G01*
X96682000Y-78089000D01*
G75*
G02*
X96432000Y-77839000I0J250000D01*
G01*
X96432000Y-76339000D01*
G75*
G02*
X96682000Y-76089000I250000J0D01*
G01*
X97882000Y-76089000D01*
G75*
G02*
X98132000Y-76339000I0J-250000D01*
G01*
G37*
D18*
X94782000Y-77089000D03*
G36*
G01*
X114482000Y-76364000D02*
X114482000Y-77814000D01*
G75*
G02*
X114232000Y-78064000I-250000J0D01*
G01*
X113032000Y-78064000D01*
G75*
G02*
X112782000Y-77814000I0J250000D01*
G01*
X112782000Y-76364000D01*
G75*
G02*
X113032000Y-76114000I250000J0D01*
G01*
X114232000Y-76114000D01*
G75*
G02*
X114482000Y-76364000I0J-250000D01*
G01*
G37*
D19*
X111132000Y-77089000D03*
X108632000Y-77089000D03*
X106132000Y-77089000D03*
X103632000Y-77089000D03*
G36*
G01*
X86417999Y-74060000D02*
X87318001Y-74060000D01*
G75*
G02*
X87568000Y-74309999I0J-249999D01*
G01*
X87568000Y-75010001D01*
G75*
G02*
X87318001Y-75260000I-249999J0D01*
G01*
X86417999Y-75260000D01*
G75*
G02*
X86168000Y-75010001I0J249999D01*
G01*
X86168000Y-74309999D01*
G75*
G02*
X86417999Y-74060000I249999J0D01*
G01*
G37*
G36*
G01*
X86417999Y-72060000D02*
X87318001Y-72060000D01*
G75*
G02*
X87568000Y-72309999I0J-249999D01*
G01*
X87568000Y-73010001D01*
G75*
G02*
X87318001Y-73260000I-249999J0D01*
G01*
X86417999Y-73260000D01*
G75*
G02*
X86168000Y-73010001I0J249999D01*
G01*
X86168000Y-72309999D01*
G75*
G02*
X86417999Y-72060000I249999J0D01*
G01*
G37*
G36*
G01*
X89973999Y-72044000D02*
X90874001Y-72044000D01*
G75*
G02*
X91124000Y-72293999I0J-249999D01*
G01*
X91124000Y-72994001D01*
G75*
G02*
X90874001Y-73244000I-249999J0D01*
G01*
X89973999Y-73244000D01*
G75*
G02*
X89724000Y-72994001I0J249999D01*
G01*
X89724000Y-72293999D01*
G75*
G02*
X89973999Y-72044000I249999J0D01*
G01*
G37*
G36*
G01*
X89973999Y-74044000D02*
X90874001Y-74044000D01*
G75*
G02*
X91124000Y-74293999I0J-249999D01*
G01*
X91124000Y-74994001D01*
G75*
G02*
X90874001Y-75244000I-249999J0D01*
G01*
X89973999Y-75244000D01*
G75*
G02*
X89724000Y-74994001I0J249999D01*
G01*
X89724000Y-74293999D01*
G75*
G02*
X89973999Y-74044000I249999J0D01*
G01*
G37*
G36*
G01*
X153801500Y-73627000D02*
X153801500Y-72677000D01*
G75*
G02*
X154051500Y-72427000I250000J0D01*
G01*
X154726500Y-72427000D01*
G75*
G02*
X154976500Y-72677000I0J-250000D01*
G01*
X154976500Y-73627000D01*
G75*
G02*
X154726500Y-73877000I-250000J0D01*
G01*
X154051500Y-73877000D01*
G75*
G02*
X153801500Y-73627000I0J250000D01*
G01*
G37*
G36*
G01*
X155876500Y-73627000D02*
X155876500Y-72677000D01*
G75*
G02*
X156126500Y-72427000I250000J0D01*
G01*
X156801500Y-72427000D01*
G75*
G02*
X157051500Y-72677000I0J-250000D01*
G01*
X157051500Y-73627000D01*
G75*
G02*
X156801500Y-73877000I-250000J0D01*
G01*
X156126500Y-73877000D01*
G75*
G02*
X155876500Y-73627000I0J250000D01*
G01*
G37*
G36*
G01*
X155876500Y-76421000D02*
X155876500Y-75471000D01*
G75*
G02*
X156126500Y-75221000I250000J0D01*
G01*
X156801500Y-75221000D01*
G75*
G02*
X157051500Y-75471000I0J-250000D01*
G01*
X157051500Y-76421000D01*
G75*
G02*
X156801500Y-76671000I-250000J0D01*
G01*
X156126500Y-76671000D01*
G75*
G02*
X155876500Y-76421000I0J250000D01*
G01*
G37*
G36*
G01*
X153801500Y-76421000D02*
X153801500Y-75471000D01*
G75*
G02*
X154051500Y-75221000I250000J0D01*
G01*
X154726500Y-75221000D01*
G75*
G02*
X154976500Y-75471000I0J-250000D01*
G01*
X154976500Y-76421000D01*
G75*
G02*
X154726500Y-76671000I-250000J0D01*
G01*
X154051500Y-76671000D01*
G75*
G02*
X153801500Y-76421000I0J250000D01*
G01*
G37*
D20*
X152146000Y-69850000D03*
X152146000Y-67950000D03*
D21*
X159146000Y-68900000D03*
G36*
G01*
X152621000Y-92303000D02*
X151671000Y-92303000D01*
G75*
G02*
X151421000Y-92053000I0J250000D01*
G01*
X151421000Y-91378000D01*
G75*
G02*
X151671000Y-91128000I250000J0D01*
G01*
X152621000Y-91128000D01*
G75*
G02*
X152871000Y-91378000I0J-250000D01*
G01*
X152871000Y-92053000D01*
G75*
G02*
X152621000Y-92303000I-250000J0D01*
G01*
G37*
G36*
G01*
X152621000Y-90228000D02*
X151671000Y-90228000D01*
G75*
G02*
X151421000Y-89978000I0J250000D01*
G01*
X151421000Y-89303000D01*
G75*
G02*
X151671000Y-89053000I250000J0D01*
G01*
X152621000Y-89053000D01*
G75*
G02*
X152871000Y-89303000I0J-250000D01*
G01*
X152871000Y-89978000D01*
G75*
G02*
X152621000Y-90228000I-250000J0D01*
G01*
G37*
D15*
X159512000Y-75692000D03*
D16*
X159512000Y-73152000D03*
D15*
X159766000Y-90932000D03*
D16*
X157226000Y-90932000D03*
X154686000Y-90932000D03*
G36*
G01*
X130127500Y-83853000D02*
X130127500Y-84803000D01*
G75*
G02*
X129877500Y-85053000I-250000J0D01*
G01*
X129202500Y-85053000D01*
G75*
G02*
X128952500Y-84803000I0J250000D01*
G01*
X128952500Y-83853000D01*
G75*
G02*
X129202500Y-83603000I250000J0D01*
G01*
X129877500Y-83603000D01*
G75*
G02*
X130127500Y-83853000I0J-250000D01*
G01*
G37*
G36*
G01*
X132202500Y-83853000D02*
X132202500Y-84803000D01*
G75*
G02*
X131952500Y-85053000I-250000J0D01*
G01*
X131277500Y-85053000D01*
G75*
G02*
X131027500Y-84803000I0J250000D01*
G01*
X131027500Y-83853000D01*
G75*
G02*
X131277500Y-83603000I250000J0D01*
G01*
X131952500Y-83603000D01*
G75*
G02*
X132202500Y-83853000I0J-250000D01*
G01*
G37*
G36*
G01*
X124888500Y-84803000D02*
X124888500Y-83853000D01*
G75*
G02*
X125138500Y-83603000I250000J0D01*
G01*
X125813500Y-83603000D01*
G75*
G02*
X126063500Y-83853000I0J-250000D01*
G01*
X126063500Y-84803000D01*
G75*
G02*
X125813500Y-85053000I-250000J0D01*
G01*
X125138500Y-85053000D01*
G75*
G02*
X124888500Y-84803000I0J250000D01*
G01*
G37*
G36*
G01*
X126963500Y-84803000D02*
X126963500Y-83853000D01*
G75*
G02*
X127213500Y-83603000I250000J0D01*
G01*
X127888500Y-83603000D01*
G75*
G02*
X128138500Y-83853000I0J-250000D01*
G01*
X128138500Y-84803000D01*
G75*
G02*
X127888500Y-85053000I-250000J0D01*
G01*
X127213500Y-85053000D01*
G75*
G02*
X126963500Y-84803000I0J250000D01*
G01*
G37*
G36*
G01*
X124876000Y-87064001D02*
X124876000Y-86163999D01*
G75*
G02*
X125125999Y-85914000I249999J0D01*
G01*
X125826001Y-85914000D01*
G75*
G02*
X126076000Y-86163999I0J-249999D01*
G01*
X126076000Y-87064001D01*
G75*
G02*
X125826001Y-87314000I-249999J0D01*
G01*
X125125999Y-87314000D01*
G75*
G02*
X124876000Y-87064001I0J249999D01*
G01*
G37*
G36*
G01*
X126876000Y-87064001D02*
X126876000Y-86163999D01*
G75*
G02*
X127125999Y-85914000I249999J0D01*
G01*
X127826001Y-85914000D01*
G75*
G02*
X128076000Y-86163999I0J-249999D01*
G01*
X128076000Y-87064001D01*
G75*
G02*
X127826001Y-87314000I-249999J0D01*
G01*
X127125999Y-87314000D01*
G75*
G02*
X126876000Y-87064001I0J249999D01*
G01*
G37*
G36*
G01*
X138350500Y-84803000D02*
X138350500Y-83853000D01*
G75*
G02*
X138600500Y-83603000I250000J0D01*
G01*
X139275500Y-83603000D01*
G75*
G02*
X139525500Y-83853000I0J-250000D01*
G01*
X139525500Y-84803000D01*
G75*
G02*
X139275500Y-85053000I-250000J0D01*
G01*
X138600500Y-85053000D01*
G75*
G02*
X138350500Y-84803000I0J250000D01*
G01*
G37*
G36*
G01*
X140425500Y-84803000D02*
X140425500Y-83853000D01*
G75*
G02*
X140675500Y-83603000I250000J0D01*
G01*
X141350500Y-83603000D01*
G75*
G02*
X141600500Y-83853000I0J-250000D01*
G01*
X141600500Y-84803000D01*
G75*
G02*
X141350500Y-85053000I-250000J0D01*
G01*
X140675500Y-85053000D01*
G75*
G02*
X140425500Y-84803000I0J250000D01*
G01*
G37*
G36*
G01*
X141563000Y-86163999D02*
X141563000Y-87064001D01*
G75*
G02*
X141313001Y-87314000I-249999J0D01*
G01*
X140662999Y-87314000D01*
G75*
G02*
X140413000Y-87064001I0J249999D01*
G01*
X140413000Y-86163999D01*
G75*
G02*
X140662999Y-85914000I249999J0D01*
G01*
X141313001Y-85914000D01*
G75*
G02*
X141563000Y-86163999I0J-249999D01*
G01*
G37*
G36*
G01*
X139513000Y-86163999D02*
X139513000Y-87064001D01*
G75*
G02*
X139263001Y-87314000I-249999J0D01*
G01*
X138612999Y-87314000D01*
G75*
G02*
X138363000Y-87064001I0J249999D01*
G01*
X138363000Y-86163999D01*
G75*
G02*
X138612999Y-85914000I249999J0D01*
G01*
X139263001Y-85914000D01*
G75*
G02*
X139513000Y-86163999I0J-249999D01*
G01*
G37*
D15*
X134620000Y-90170000D03*
D16*
X132080000Y-90170000D03*
G36*
G01*
X133798000Y-84778001D02*
X133798000Y-83877999D01*
G75*
G02*
X134047999Y-83628000I249999J0D01*
G01*
X134748001Y-83628000D01*
G75*
G02*
X134998000Y-83877999I0J-249999D01*
G01*
X134998000Y-84778001D01*
G75*
G02*
X134748001Y-85028000I-249999J0D01*
G01*
X134047999Y-85028000D01*
G75*
G02*
X133798000Y-84778001I0J249999D01*
G01*
G37*
G36*
G01*
X135798000Y-84778001D02*
X135798000Y-83877999D01*
G75*
G02*
X136047999Y-83628000I249999J0D01*
G01*
X136748001Y-83628000D01*
G75*
G02*
X136998000Y-83877999I0J-249999D01*
G01*
X136998000Y-84778001D01*
G75*
G02*
X136748001Y-85028000I-249999J0D01*
G01*
X136047999Y-85028000D01*
G75*
G02*
X135798000Y-84778001I0J249999D01*
G01*
G37*
M02*
