G04 #@! TF.GenerationSoftware,KiCad,Pcbnew,5.1.9+dfsg1-1*
G04 #@! TF.CreationDate,2022-11-10T16:02:49+09:00*
G04 #@! TF.ProjectId,fan-expander,66616e2d-6578-4706-916e-6465722e6b69,rev?*
G04 #@! TF.SameCoordinates,Original*
G04 #@! TF.FileFunction,Copper,L2,Bot*
G04 #@! TF.FilePolarity,Positive*
%FSLAX46Y46*%
G04 Gerber Fmt 4.6, Leading zero omitted, Abs format (unit mm)*
G04 Created by KiCad (PCBNEW 5.1.9+dfsg1-1) date 2022-11-10 16:02:49*
%MOMM*%
%LPD*%
G01*
G04 APERTURE LIST*
G04 #@! TA.AperFunction,ComponentPad*
%ADD10C,5.600000*%
G04 #@! TD*
G04 #@! TA.AperFunction,ComponentPad*
%ADD11O,2.000000X1.700000*%
G04 #@! TD*
G04 #@! TA.AperFunction,ComponentPad*
%ADD12O,1.700000X1.950000*%
G04 #@! TD*
G04 #@! TA.AperFunction,ComponentPad*
%ADD13O,1.950000X1.700000*%
G04 #@! TD*
G04 #@! TA.AperFunction,ComponentPad*
%ADD14R,1.700000X1.700000*%
G04 #@! TD*
G04 #@! TA.AperFunction,ComponentPad*
%ADD15O,1.700000X1.700000*%
G04 #@! TD*
G04 #@! TA.AperFunction,ViaPad*
%ADD16C,0.800000*%
G04 #@! TD*
G04 #@! TA.AperFunction,Conductor*
%ADD17C,1.500000*%
G04 #@! TD*
G04 #@! TA.AperFunction,Conductor*
%ADD18C,0.250000*%
G04 #@! TD*
G04 #@! TA.AperFunction,Conductor*
%ADD19C,0.254000*%
G04 #@! TD*
G04 #@! TA.AperFunction,Conductor*
%ADD20C,0.100000*%
G04 #@! TD*
G04 APERTURE END LIST*
D10*
X150000000Y-50000000D03*
X150000000Y-105000000D03*
G04 #@! TA.AperFunction,ComponentPad*
G36*
G01*
X155250000Y-95150000D02*
X156750000Y-95150000D01*
G75*
G02*
X157000000Y-95400000I0J-250000D01*
G01*
X157000000Y-96600000D01*
G75*
G02*
X156750000Y-96850000I-250000J0D01*
G01*
X155250000Y-96850000D01*
G75*
G02*
X155000000Y-96600000I0J250000D01*
G01*
X155000000Y-95400000D01*
G75*
G02*
X155250000Y-95150000I250000J0D01*
G01*
G37*
G04 #@! TD.AperFunction*
D11*
X156000000Y-98500000D03*
G04 #@! TA.AperFunction,ComponentPad*
G36*
G01*
X149850000Y-97775000D02*
X149850000Y-99225000D01*
G75*
G02*
X149600000Y-99475000I-250000J0D01*
G01*
X148400000Y-99475000D01*
G75*
G02*
X148150000Y-99225000I0J250000D01*
G01*
X148150000Y-97775000D01*
G75*
G02*
X148400000Y-97525000I250000J0D01*
G01*
X149600000Y-97525000D01*
G75*
G02*
X149850000Y-97775000I0J-250000D01*
G01*
G37*
G04 #@! TD.AperFunction*
D12*
X146500000Y-98500000D03*
X144000000Y-98500000D03*
G04 #@! TA.AperFunction,ComponentPad*
G36*
G01*
X146225000Y-65350000D02*
X144775000Y-65350000D01*
G75*
G02*
X144525000Y-65100000I0J250000D01*
G01*
X144525000Y-63900000D01*
G75*
G02*
X144775000Y-63650000I250000J0D01*
G01*
X146225000Y-63650000D01*
G75*
G02*
X146475000Y-63900000I0J-250000D01*
G01*
X146475000Y-65100000D01*
G75*
G02*
X146225000Y-65350000I-250000J0D01*
G01*
G37*
G04 #@! TD.AperFunction*
D13*
X145500000Y-62000000D03*
X145500000Y-59500000D03*
X145500000Y-57000000D03*
X154500000Y-64500000D03*
X154500000Y-62000000D03*
X154500000Y-59500000D03*
G04 #@! TA.AperFunction,ComponentPad*
G36*
G01*
X153775000Y-56150000D02*
X155225000Y-56150000D01*
G75*
G02*
X155475000Y-56400000I0J-250000D01*
G01*
X155475000Y-57600000D01*
G75*
G02*
X155225000Y-57850000I-250000J0D01*
G01*
X153775000Y-57850000D01*
G75*
G02*
X153525000Y-57600000I0J250000D01*
G01*
X153525000Y-56400000D01*
G75*
G02*
X153775000Y-56150000I250000J0D01*
G01*
G37*
G04 #@! TD.AperFunction*
D14*
X155000000Y-81500000D03*
D15*
X155000000Y-84040000D03*
X152460000Y-81500000D03*
X152460000Y-84040000D03*
X149920000Y-81500000D03*
X149920000Y-84040000D03*
D16*
X155500000Y-68000000D03*
D17*
X155475000Y-57000000D02*
X158000000Y-59525000D01*
X154500000Y-57000000D02*
X155475000Y-57000000D01*
X158000000Y-94000000D02*
X156000000Y-96000000D01*
X158000000Y-59525000D02*
X158000000Y-94000000D01*
D18*
X148000000Y-59500000D02*
X145500000Y-62000000D01*
X152638190Y-59500000D02*
X153000000Y-59500000D01*
X144000000Y-68138190D02*
X152638190Y-59500000D01*
X144000000Y-98500000D02*
X144000000Y-68138190D01*
X153000000Y-59500000D02*
X148000000Y-59500000D01*
X154500000Y-59500000D02*
X153000000Y-59500000D01*
X155500000Y-68000000D02*
X156500000Y-67000000D01*
X156500000Y-61500000D02*
X154500000Y-59500000D01*
X156500000Y-67000000D02*
X156500000Y-61500000D01*
X146500000Y-98500000D02*
X146500000Y-68500000D01*
X153000000Y-62000000D02*
X154500000Y-62000000D01*
X146500000Y-68500000D02*
X153000000Y-62000000D01*
D19*
X158340001Y-57906315D02*
X156502454Y-56068769D01*
X156459081Y-56015919D01*
X156248188Y-55842843D01*
X156007581Y-55714236D01*
X155746507Y-55635040D01*
X155651131Y-55625646D01*
X155564850Y-55579528D01*
X155398254Y-55528992D01*
X155225000Y-55511928D01*
X153775000Y-55511928D01*
X153601746Y-55528992D01*
X153435150Y-55579528D01*
X153281614Y-55661595D01*
X153147038Y-55772038D01*
X153036595Y-55906614D01*
X152954528Y-56060150D01*
X152903992Y-56226746D01*
X152886928Y-56400000D01*
X152886928Y-57600000D01*
X152903992Y-57773254D01*
X152954528Y-57939850D01*
X153036595Y-58093386D01*
X153147038Y-58227962D01*
X153281614Y-58338405D01*
X153383337Y-58392777D01*
X153319866Y-58444866D01*
X153134294Y-58670986D01*
X153097405Y-58740000D01*
X152675512Y-58740000D01*
X152638189Y-58736324D01*
X152600866Y-58740000D01*
X148037323Y-58740000D01*
X148000000Y-58736324D01*
X147962677Y-58740000D01*
X147962667Y-58740000D01*
X147851014Y-58750997D01*
X147707753Y-58794454D01*
X147575723Y-58865026D01*
X147497813Y-58928966D01*
X147459999Y-58959999D01*
X147436201Y-58988997D01*
X147099971Y-59325227D01*
X147088513Y-59208889D01*
X147003599Y-58928966D01*
X146865706Y-58670986D01*
X146680134Y-58444866D01*
X146454014Y-58259294D01*
X146428278Y-58245538D01*
X146634429Y-58089049D01*
X146827496Y-57871193D01*
X146974352Y-57619858D01*
X147066476Y-57356890D01*
X146945155Y-57127000D01*
X145627000Y-57127000D01*
X145627000Y-57147000D01*
X145373000Y-57147000D01*
X145373000Y-57127000D01*
X144054845Y-57127000D01*
X143933524Y-57356890D01*
X144025648Y-57619858D01*
X144172504Y-57871193D01*
X144365571Y-58089049D01*
X144571722Y-58245538D01*
X144545986Y-58259294D01*
X144319866Y-58444866D01*
X144134294Y-58670986D01*
X143996401Y-58928966D01*
X143911487Y-59208889D01*
X143882815Y-59500000D01*
X143911487Y-59791111D01*
X143996401Y-60071034D01*
X144134294Y-60329014D01*
X144319866Y-60555134D01*
X144545986Y-60740706D01*
X144563374Y-60750000D01*
X144545986Y-60759294D01*
X144319866Y-60944866D01*
X144134294Y-61170986D01*
X143996401Y-61428966D01*
X143911487Y-61708889D01*
X143882815Y-62000000D01*
X143911487Y-62291111D01*
X143996401Y-62571034D01*
X144134294Y-62829014D01*
X144319866Y-63055134D01*
X144383337Y-63107223D01*
X144281614Y-63161595D01*
X144147038Y-63272038D01*
X144036595Y-63406614D01*
X143954528Y-63560150D01*
X143903992Y-63726746D01*
X143886928Y-63900000D01*
X143886928Y-65100000D01*
X143903992Y-65273254D01*
X143954528Y-65439850D01*
X144036595Y-65593386D01*
X144147038Y-65727962D01*
X144281614Y-65838405D01*
X144435150Y-65920472D01*
X144601746Y-65971008D01*
X144775000Y-65988072D01*
X145075317Y-65988072D01*
X143488998Y-67574391D01*
X143460000Y-67598189D01*
X143436202Y-67627187D01*
X143436201Y-67627188D01*
X143365026Y-67713914D01*
X143294454Y-67845944D01*
X143292916Y-67851015D01*
X143251061Y-67988998D01*
X143250998Y-67989205D01*
X143236324Y-68138190D01*
X143240001Y-68175523D01*
X143240000Y-97097406D01*
X143170987Y-97134294D01*
X142944866Y-97319866D01*
X142759294Y-97545986D01*
X142621401Y-97803966D01*
X142536487Y-98083889D01*
X142515000Y-98302050D01*
X142515000Y-98697949D01*
X142536487Y-98916110D01*
X142621401Y-99196033D01*
X142759294Y-99454013D01*
X142944866Y-99680134D01*
X143170986Y-99865706D01*
X143428966Y-100003599D01*
X143708889Y-100088513D01*
X144000000Y-100117185D01*
X144291110Y-100088513D01*
X144571033Y-100003599D01*
X144829013Y-99865706D01*
X145055134Y-99680134D01*
X145240706Y-99454014D01*
X145250000Y-99436626D01*
X145259294Y-99454013D01*
X145444866Y-99680134D01*
X145670986Y-99865706D01*
X145928966Y-100003599D01*
X146208889Y-100088513D01*
X146500000Y-100117185D01*
X146791110Y-100088513D01*
X147071033Y-100003599D01*
X147329013Y-99865706D01*
X147555134Y-99680134D01*
X147607223Y-99616663D01*
X147661595Y-99718386D01*
X147772038Y-99852962D01*
X147906614Y-99963405D01*
X148060150Y-100045472D01*
X148226746Y-100096008D01*
X148400000Y-100113072D01*
X149600000Y-100113072D01*
X149773254Y-100096008D01*
X149939850Y-100045472D01*
X150093386Y-99963405D01*
X150227962Y-99852962D01*
X150338405Y-99718386D01*
X150420472Y-99564850D01*
X150471008Y-99398254D01*
X150488072Y-99225000D01*
X150488072Y-98856890D01*
X154408524Y-98856890D01*
X154410446Y-98869261D01*
X154510146Y-99143009D01*
X154661336Y-99392046D01*
X154858205Y-99606802D01*
X155093188Y-99779025D01*
X155357255Y-99902096D01*
X155640258Y-99971285D01*
X155873000Y-99827232D01*
X155873000Y-98627000D01*
X156127000Y-98627000D01*
X156127000Y-99827232D01*
X156359742Y-99971285D01*
X156642745Y-99902096D01*
X156906812Y-99779025D01*
X157141795Y-99606802D01*
X157338664Y-99392046D01*
X157489854Y-99143009D01*
X157589554Y-98869261D01*
X157591476Y-98856890D01*
X157470155Y-98627000D01*
X156127000Y-98627000D01*
X155873000Y-98627000D01*
X154529845Y-98627000D01*
X154408524Y-98856890D01*
X150488072Y-98856890D01*
X150488072Y-97775000D01*
X150471008Y-97601746D01*
X150420472Y-97435150D01*
X150338405Y-97281614D01*
X150227962Y-97147038D01*
X150093386Y-97036595D01*
X149939850Y-96954528D01*
X149773254Y-96903992D01*
X149600000Y-96886928D01*
X148400000Y-96886928D01*
X148226746Y-96903992D01*
X148060150Y-96954528D01*
X147906614Y-97036595D01*
X147772038Y-97147038D01*
X147661595Y-97281614D01*
X147607223Y-97383337D01*
X147555134Y-97319866D01*
X147329014Y-97134294D01*
X147260000Y-97097405D01*
X147260000Y-81353740D01*
X148435000Y-81353740D01*
X148435000Y-81646260D01*
X148492068Y-81933158D01*
X148604010Y-82203411D01*
X148766525Y-82446632D01*
X148973368Y-82653475D01*
X149147760Y-82770000D01*
X148973368Y-82886525D01*
X148766525Y-83093368D01*
X148604010Y-83336589D01*
X148492068Y-83606842D01*
X148435000Y-83893740D01*
X148435000Y-84186260D01*
X148492068Y-84473158D01*
X148604010Y-84743411D01*
X148766525Y-84986632D01*
X148973368Y-85193475D01*
X149216589Y-85355990D01*
X149486842Y-85467932D01*
X149773740Y-85525000D01*
X150066260Y-85525000D01*
X150353158Y-85467932D01*
X150623411Y-85355990D01*
X150866632Y-85193475D01*
X151073475Y-84986632D01*
X151190000Y-84812240D01*
X151306525Y-84986632D01*
X151513368Y-85193475D01*
X151756589Y-85355990D01*
X152026842Y-85467932D01*
X152313740Y-85525000D01*
X152606260Y-85525000D01*
X152893158Y-85467932D01*
X153163411Y-85355990D01*
X153406632Y-85193475D01*
X153613475Y-84986632D01*
X153730000Y-84812240D01*
X153846525Y-84986632D01*
X154053368Y-85193475D01*
X154296589Y-85355990D01*
X154566842Y-85467932D01*
X154853740Y-85525000D01*
X155146260Y-85525000D01*
X155433158Y-85467932D01*
X155703411Y-85355990D01*
X155946632Y-85193475D01*
X156153475Y-84986632D01*
X156315990Y-84743411D01*
X156427932Y-84473158D01*
X156485000Y-84186260D01*
X156485000Y-83893740D01*
X156427932Y-83606842D01*
X156315990Y-83336589D01*
X156153475Y-83093368D01*
X156021620Y-82961513D01*
X156094180Y-82939502D01*
X156204494Y-82880537D01*
X156301185Y-82801185D01*
X156380537Y-82704494D01*
X156439502Y-82594180D01*
X156475812Y-82474482D01*
X156488072Y-82350000D01*
X156488072Y-80650000D01*
X156475812Y-80525518D01*
X156439502Y-80405820D01*
X156380537Y-80295506D01*
X156301185Y-80198815D01*
X156204494Y-80119463D01*
X156094180Y-80060498D01*
X155974482Y-80024188D01*
X155850000Y-80011928D01*
X154150000Y-80011928D01*
X154025518Y-80024188D01*
X153905820Y-80060498D01*
X153795506Y-80119463D01*
X153698815Y-80198815D01*
X153619463Y-80295506D01*
X153560498Y-80405820D01*
X153538487Y-80478380D01*
X153406632Y-80346525D01*
X153163411Y-80184010D01*
X152893158Y-80072068D01*
X152606260Y-80015000D01*
X152313740Y-80015000D01*
X152026842Y-80072068D01*
X151756589Y-80184010D01*
X151513368Y-80346525D01*
X151306525Y-80553368D01*
X151190000Y-80727760D01*
X151073475Y-80553368D01*
X150866632Y-80346525D01*
X150623411Y-80184010D01*
X150353158Y-80072068D01*
X150066260Y-80015000D01*
X149773740Y-80015000D01*
X149486842Y-80072068D01*
X149216589Y-80184010D01*
X148973368Y-80346525D01*
X148766525Y-80553368D01*
X148604010Y-80796589D01*
X148492068Y-81066842D01*
X148435000Y-81353740D01*
X147260000Y-81353740D01*
X147260000Y-68814801D01*
X151217911Y-64856890D01*
X152933524Y-64856890D01*
X153025648Y-65119858D01*
X153172504Y-65371193D01*
X153365571Y-65589049D01*
X153597430Y-65765053D01*
X153859170Y-65892442D01*
X154140733Y-65966320D01*
X154373000Y-65826165D01*
X154373000Y-64627000D01*
X153054845Y-64627000D01*
X152933524Y-64856890D01*
X151217911Y-64856890D01*
X153184550Y-62890252D01*
X153319866Y-63055134D01*
X153545986Y-63240706D01*
X153571722Y-63254462D01*
X153365571Y-63410951D01*
X153172504Y-63628807D01*
X153025648Y-63880142D01*
X152933524Y-64143110D01*
X153054845Y-64373000D01*
X154373000Y-64373000D01*
X154373000Y-64353000D01*
X154627000Y-64353000D01*
X154627000Y-64373000D01*
X154647000Y-64373000D01*
X154647000Y-64627000D01*
X154627000Y-64627000D01*
X154627000Y-65826165D01*
X154859267Y-65966320D01*
X155140830Y-65892442D01*
X155402570Y-65765053D01*
X155634429Y-65589049D01*
X155740000Y-65469923D01*
X155740000Y-66685198D01*
X155460199Y-66965000D01*
X155398061Y-66965000D01*
X155198102Y-67004774D01*
X155009744Y-67082795D01*
X154840226Y-67196063D01*
X154696063Y-67340226D01*
X154582795Y-67509744D01*
X154504774Y-67698102D01*
X154465000Y-67898061D01*
X154465000Y-68101939D01*
X154504774Y-68301898D01*
X154582795Y-68490256D01*
X154696063Y-68659774D01*
X154840226Y-68803937D01*
X155009744Y-68917205D01*
X155198102Y-68995226D01*
X155398061Y-69035000D01*
X155601939Y-69035000D01*
X155801898Y-68995226D01*
X155990256Y-68917205D01*
X156159774Y-68803937D01*
X156303937Y-68659774D01*
X156417205Y-68490256D01*
X156495226Y-68301898D01*
X156535000Y-68101939D01*
X156535000Y-68039801D01*
X156615000Y-67959801D01*
X156615001Y-93426313D01*
X155529387Y-94511928D01*
X155250000Y-94511928D01*
X155076746Y-94528992D01*
X154910150Y-94579528D01*
X154756614Y-94661595D01*
X154622038Y-94772038D01*
X154511595Y-94906614D01*
X154429528Y-95060150D01*
X154378992Y-95226746D01*
X154361928Y-95400000D01*
X154361928Y-96600000D01*
X154378992Y-96773254D01*
X154429528Y-96939850D01*
X154511595Y-97093386D01*
X154622038Y-97227962D01*
X154756614Y-97338405D01*
X154858593Y-97392914D01*
X154858205Y-97393198D01*
X154661336Y-97607954D01*
X154510146Y-97856991D01*
X154410446Y-98130739D01*
X154408524Y-98143110D01*
X154529845Y-98373000D01*
X155873000Y-98373000D01*
X155873000Y-98353000D01*
X156127000Y-98353000D01*
X156127000Y-98373000D01*
X157470155Y-98373000D01*
X157591476Y-98143110D01*
X157589554Y-98130739D01*
X157489854Y-97856991D01*
X157338664Y-97607954D01*
X157141795Y-97393198D01*
X157141407Y-97392914D01*
X157243386Y-97338405D01*
X157377962Y-97227962D01*
X157488405Y-97093386D01*
X157570472Y-96939850D01*
X157621008Y-96773254D01*
X157638072Y-96600000D01*
X157638072Y-96320613D01*
X158340000Y-95618686D01*
X158340000Y-101373000D01*
X141660000Y-101373000D01*
X141660000Y-56643110D01*
X143933524Y-56643110D01*
X144054845Y-56873000D01*
X145373000Y-56873000D01*
X145373000Y-55673835D01*
X145627000Y-55673835D01*
X145627000Y-56873000D01*
X146945155Y-56873000D01*
X147066476Y-56643110D01*
X146974352Y-56380142D01*
X146827496Y-56128807D01*
X146634429Y-55910951D01*
X146402570Y-55734947D01*
X146140830Y-55607558D01*
X145859267Y-55533680D01*
X145627000Y-55673835D01*
X145373000Y-55673835D01*
X145140733Y-55533680D01*
X144859170Y-55607558D01*
X144597430Y-55734947D01*
X144365571Y-55910951D01*
X144172504Y-56128807D01*
X144025648Y-56380142D01*
X143933524Y-56643110D01*
X141660000Y-56643110D01*
X141660000Y-53627000D01*
X158340001Y-53627000D01*
X158340001Y-57906315D01*
G04 #@! TA.AperFunction,Conductor*
D20*
G36*
X158340001Y-57906315D02*
G01*
X156502454Y-56068769D01*
X156459081Y-56015919D01*
X156248188Y-55842843D01*
X156007581Y-55714236D01*
X155746507Y-55635040D01*
X155651131Y-55625646D01*
X155564850Y-55579528D01*
X155398254Y-55528992D01*
X155225000Y-55511928D01*
X153775000Y-55511928D01*
X153601746Y-55528992D01*
X153435150Y-55579528D01*
X153281614Y-55661595D01*
X153147038Y-55772038D01*
X153036595Y-55906614D01*
X152954528Y-56060150D01*
X152903992Y-56226746D01*
X152886928Y-56400000D01*
X152886928Y-57600000D01*
X152903992Y-57773254D01*
X152954528Y-57939850D01*
X153036595Y-58093386D01*
X153147038Y-58227962D01*
X153281614Y-58338405D01*
X153383337Y-58392777D01*
X153319866Y-58444866D01*
X153134294Y-58670986D01*
X153097405Y-58740000D01*
X152675512Y-58740000D01*
X152638189Y-58736324D01*
X152600866Y-58740000D01*
X148037323Y-58740000D01*
X148000000Y-58736324D01*
X147962677Y-58740000D01*
X147962667Y-58740000D01*
X147851014Y-58750997D01*
X147707753Y-58794454D01*
X147575723Y-58865026D01*
X147497813Y-58928966D01*
X147459999Y-58959999D01*
X147436201Y-58988997D01*
X147099971Y-59325227D01*
X147088513Y-59208889D01*
X147003599Y-58928966D01*
X146865706Y-58670986D01*
X146680134Y-58444866D01*
X146454014Y-58259294D01*
X146428278Y-58245538D01*
X146634429Y-58089049D01*
X146827496Y-57871193D01*
X146974352Y-57619858D01*
X147066476Y-57356890D01*
X146945155Y-57127000D01*
X145627000Y-57127000D01*
X145627000Y-57147000D01*
X145373000Y-57147000D01*
X145373000Y-57127000D01*
X144054845Y-57127000D01*
X143933524Y-57356890D01*
X144025648Y-57619858D01*
X144172504Y-57871193D01*
X144365571Y-58089049D01*
X144571722Y-58245538D01*
X144545986Y-58259294D01*
X144319866Y-58444866D01*
X144134294Y-58670986D01*
X143996401Y-58928966D01*
X143911487Y-59208889D01*
X143882815Y-59500000D01*
X143911487Y-59791111D01*
X143996401Y-60071034D01*
X144134294Y-60329014D01*
X144319866Y-60555134D01*
X144545986Y-60740706D01*
X144563374Y-60750000D01*
X144545986Y-60759294D01*
X144319866Y-60944866D01*
X144134294Y-61170986D01*
X143996401Y-61428966D01*
X143911487Y-61708889D01*
X143882815Y-62000000D01*
X143911487Y-62291111D01*
X143996401Y-62571034D01*
X144134294Y-62829014D01*
X144319866Y-63055134D01*
X144383337Y-63107223D01*
X144281614Y-63161595D01*
X144147038Y-63272038D01*
X144036595Y-63406614D01*
X143954528Y-63560150D01*
X143903992Y-63726746D01*
X143886928Y-63900000D01*
X143886928Y-65100000D01*
X143903992Y-65273254D01*
X143954528Y-65439850D01*
X144036595Y-65593386D01*
X144147038Y-65727962D01*
X144281614Y-65838405D01*
X144435150Y-65920472D01*
X144601746Y-65971008D01*
X144775000Y-65988072D01*
X145075317Y-65988072D01*
X143488998Y-67574391D01*
X143460000Y-67598189D01*
X143436202Y-67627187D01*
X143436201Y-67627188D01*
X143365026Y-67713914D01*
X143294454Y-67845944D01*
X143292916Y-67851015D01*
X143251061Y-67988998D01*
X143250998Y-67989205D01*
X143236324Y-68138190D01*
X143240001Y-68175523D01*
X143240000Y-97097406D01*
X143170987Y-97134294D01*
X142944866Y-97319866D01*
X142759294Y-97545986D01*
X142621401Y-97803966D01*
X142536487Y-98083889D01*
X142515000Y-98302050D01*
X142515000Y-98697949D01*
X142536487Y-98916110D01*
X142621401Y-99196033D01*
X142759294Y-99454013D01*
X142944866Y-99680134D01*
X143170986Y-99865706D01*
X143428966Y-100003599D01*
X143708889Y-100088513D01*
X144000000Y-100117185D01*
X144291110Y-100088513D01*
X144571033Y-100003599D01*
X144829013Y-99865706D01*
X145055134Y-99680134D01*
X145240706Y-99454014D01*
X145250000Y-99436626D01*
X145259294Y-99454013D01*
X145444866Y-99680134D01*
X145670986Y-99865706D01*
X145928966Y-100003599D01*
X146208889Y-100088513D01*
X146500000Y-100117185D01*
X146791110Y-100088513D01*
X147071033Y-100003599D01*
X147329013Y-99865706D01*
X147555134Y-99680134D01*
X147607223Y-99616663D01*
X147661595Y-99718386D01*
X147772038Y-99852962D01*
X147906614Y-99963405D01*
X148060150Y-100045472D01*
X148226746Y-100096008D01*
X148400000Y-100113072D01*
X149600000Y-100113072D01*
X149773254Y-100096008D01*
X149939850Y-100045472D01*
X150093386Y-99963405D01*
X150227962Y-99852962D01*
X150338405Y-99718386D01*
X150420472Y-99564850D01*
X150471008Y-99398254D01*
X150488072Y-99225000D01*
X150488072Y-98856890D01*
X154408524Y-98856890D01*
X154410446Y-98869261D01*
X154510146Y-99143009D01*
X154661336Y-99392046D01*
X154858205Y-99606802D01*
X155093188Y-99779025D01*
X155357255Y-99902096D01*
X155640258Y-99971285D01*
X155873000Y-99827232D01*
X155873000Y-98627000D01*
X156127000Y-98627000D01*
X156127000Y-99827232D01*
X156359742Y-99971285D01*
X156642745Y-99902096D01*
X156906812Y-99779025D01*
X157141795Y-99606802D01*
X157338664Y-99392046D01*
X157489854Y-99143009D01*
X157589554Y-98869261D01*
X157591476Y-98856890D01*
X157470155Y-98627000D01*
X156127000Y-98627000D01*
X155873000Y-98627000D01*
X154529845Y-98627000D01*
X154408524Y-98856890D01*
X150488072Y-98856890D01*
X150488072Y-97775000D01*
X150471008Y-97601746D01*
X150420472Y-97435150D01*
X150338405Y-97281614D01*
X150227962Y-97147038D01*
X150093386Y-97036595D01*
X149939850Y-96954528D01*
X149773254Y-96903992D01*
X149600000Y-96886928D01*
X148400000Y-96886928D01*
X148226746Y-96903992D01*
X148060150Y-96954528D01*
X147906614Y-97036595D01*
X147772038Y-97147038D01*
X147661595Y-97281614D01*
X147607223Y-97383337D01*
X147555134Y-97319866D01*
X147329014Y-97134294D01*
X147260000Y-97097405D01*
X147260000Y-81353740D01*
X148435000Y-81353740D01*
X148435000Y-81646260D01*
X148492068Y-81933158D01*
X148604010Y-82203411D01*
X148766525Y-82446632D01*
X148973368Y-82653475D01*
X149147760Y-82770000D01*
X148973368Y-82886525D01*
X148766525Y-83093368D01*
X148604010Y-83336589D01*
X148492068Y-83606842D01*
X148435000Y-83893740D01*
X148435000Y-84186260D01*
X148492068Y-84473158D01*
X148604010Y-84743411D01*
X148766525Y-84986632D01*
X148973368Y-85193475D01*
X149216589Y-85355990D01*
X149486842Y-85467932D01*
X149773740Y-85525000D01*
X150066260Y-85525000D01*
X150353158Y-85467932D01*
X150623411Y-85355990D01*
X150866632Y-85193475D01*
X151073475Y-84986632D01*
X151190000Y-84812240D01*
X151306525Y-84986632D01*
X151513368Y-85193475D01*
X151756589Y-85355990D01*
X152026842Y-85467932D01*
X152313740Y-85525000D01*
X152606260Y-85525000D01*
X152893158Y-85467932D01*
X153163411Y-85355990D01*
X153406632Y-85193475D01*
X153613475Y-84986632D01*
X153730000Y-84812240D01*
X153846525Y-84986632D01*
X154053368Y-85193475D01*
X154296589Y-85355990D01*
X154566842Y-85467932D01*
X154853740Y-85525000D01*
X155146260Y-85525000D01*
X155433158Y-85467932D01*
X155703411Y-85355990D01*
X155946632Y-85193475D01*
X156153475Y-84986632D01*
X156315990Y-84743411D01*
X156427932Y-84473158D01*
X156485000Y-84186260D01*
X156485000Y-83893740D01*
X156427932Y-83606842D01*
X156315990Y-83336589D01*
X156153475Y-83093368D01*
X156021620Y-82961513D01*
X156094180Y-82939502D01*
X156204494Y-82880537D01*
X156301185Y-82801185D01*
X156380537Y-82704494D01*
X156439502Y-82594180D01*
X156475812Y-82474482D01*
X156488072Y-82350000D01*
X156488072Y-80650000D01*
X156475812Y-80525518D01*
X156439502Y-80405820D01*
X156380537Y-80295506D01*
X156301185Y-80198815D01*
X156204494Y-80119463D01*
X156094180Y-80060498D01*
X155974482Y-80024188D01*
X155850000Y-80011928D01*
X154150000Y-80011928D01*
X154025518Y-80024188D01*
X153905820Y-80060498D01*
X153795506Y-80119463D01*
X153698815Y-80198815D01*
X153619463Y-80295506D01*
X153560498Y-80405820D01*
X153538487Y-80478380D01*
X153406632Y-80346525D01*
X153163411Y-80184010D01*
X152893158Y-80072068D01*
X152606260Y-80015000D01*
X152313740Y-80015000D01*
X152026842Y-80072068D01*
X151756589Y-80184010D01*
X151513368Y-80346525D01*
X151306525Y-80553368D01*
X151190000Y-80727760D01*
X151073475Y-80553368D01*
X150866632Y-80346525D01*
X150623411Y-80184010D01*
X150353158Y-80072068D01*
X150066260Y-80015000D01*
X149773740Y-80015000D01*
X149486842Y-80072068D01*
X149216589Y-80184010D01*
X148973368Y-80346525D01*
X148766525Y-80553368D01*
X148604010Y-80796589D01*
X148492068Y-81066842D01*
X148435000Y-81353740D01*
X147260000Y-81353740D01*
X147260000Y-68814801D01*
X151217911Y-64856890D01*
X152933524Y-64856890D01*
X153025648Y-65119858D01*
X153172504Y-65371193D01*
X153365571Y-65589049D01*
X153597430Y-65765053D01*
X153859170Y-65892442D01*
X154140733Y-65966320D01*
X154373000Y-65826165D01*
X154373000Y-64627000D01*
X153054845Y-64627000D01*
X152933524Y-64856890D01*
X151217911Y-64856890D01*
X153184550Y-62890252D01*
X153319866Y-63055134D01*
X153545986Y-63240706D01*
X153571722Y-63254462D01*
X153365571Y-63410951D01*
X153172504Y-63628807D01*
X153025648Y-63880142D01*
X152933524Y-64143110D01*
X153054845Y-64373000D01*
X154373000Y-64373000D01*
X154373000Y-64353000D01*
X154627000Y-64353000D01*
X154627000Y-64373000D01*
X154647000Y-64373000D01*
X154647000Y-64627000D01*
X154627000Y-64627000D01*
X154627000Y-65826165D01*
X154859267Y-65966320D01*
X155140830Y-65892442D01*
X155402570Y-65765053D01*
X155634429Y-65589049D01*
X155740000Y-65469923D01*
X155740000Y-66685198D01*
X155460199Y-66965000D01*
X155398061Y-66965000D01*
X155198102Y-67004774D01*
X155009744Y-67082795D01*
X154840226Y-67196063D01*
X154696063Y-67340226D01*
X154582795Y-67509744D01*
X154504774Y-67698102D01*
X154465000Y-67898061D01*
X154465000Y-68101939D01*
X154504774Y-68301898D01*
X154582795Y-68490256D01*
X154696063Y-68659774D01*
X154840226Y-68803937D01*
X155009744Y-68917205D01*
X155198102Y-68995226D01*
X155398061Y-69035000D01*
X155601939Y-69035000D01*
X155801898Y-68995226D01*
X155990256Y-68917205D01*
X156159774Y-68803937D01*
X156303937Y-68659774D01*
X156417205Y-68490256D01*
X156495226Y-68301898D01*
X156535000Y-68101939D01*
X156535000Y-68039801D01*
X156615000Y-67959801D01*
X156615001Y-93426313D01*
X155529387Y-94511928D01*
X155250000Y-94511928D01*
X155076746Y-94528992D01*
X154910150Y-94579528D01*
X154756614Y-94661595D01*
X154622038Y-94772038D01*
X154511595Y-94906614D01*
X154429528Y-95060150D01*
X154378992Y-95226746D01*
X154361928Y-95400000D01*
X154361928Y-96600000D01*
X154378992Y-96773254D01*
X154429528Y-96939850D01*
X154511595Y-97093386D01*
X154622038Y-97227962D01*
X154756614Y-97338405D01*
X154858593Y-97392914D01*
X154858205Y-97393198D01*
X154661336Y-97607954D01*
X154510146Y-97856991D01*
X154410446Y-98130739D01*
X154408524Y-98143110D01*
X154529845Y-98373000D01*
X155873000Y-98373000D01*
X155873000Y-98353000D01*
X156127000Y-98353000D01*
X156127000Y-98373000D01*
X157470155Y-98373000D01*
X157591476Y-98143110D01*
X157589554Y-98130739D01*
X157489854Y-97856991D01*
X157338664Y-97607954D01*
X157141795Y-97393198D01*
X157141407Y-97392914D01*
X157243386Y-97338405D01*
X157377962Y-97227962D01*
X157488405Y-97093386D01*
X157570472Y-96939850D01*
X157621008Y-96773254D01*
X157638072Y-96600000D01*
X157638072Y-96320613D01*
X158340000Y-95618686D01*
X158340000Y-101373000D01*
X141660000Y-101373000D01*
X141660000Y-56643110D01*
X143933524Y-56643110D01*
X144054845Y-56873000D01*
X145373000Y-56873000D01*
X145373000Y-55673835D01*
X145627000Y-55673835D01*
X145627000Y-56873000D01*
X146945155Y-56873000D01*
X147066476Y-56643110D01*
X146974352Y-56380142D01*
X146827496Y-56128807D01*
X146634429Y-55910951D01*
X146402570Y-55734947D01*
X146140830Y-55607558D01*
X145859267Y-55533680D01*
X145627000Y-55673835D01*
X145373000Y-55673835D01*
X145140733Y-55533680D01*
X144859170Y-55607558D01*
X144597430Y-55734947D01*
X144365571Y-55910951D01*
X144172504Y-56128807D01*
X144025648Y-56380142D01*
X143933524Y-56643110D01*
X141660000Y-56643110D01*
X141660000Y-53627000D01*
X158340001Y-53627000D01*
X158340001Y-57906315D01*
G37*
G04 #@! TD.AperFunction*
M02*
