G04 #@! TF.GenerationSoftware,KiCad,Pcbnew,5.1.9+dfsg1-1*
G04 #@! TF.CreationDate,2022-11-10T16:02:49+09:00*
G04 #@! TF.ProjectId,fan-expander,66616e2d-6578-4706-916e-6465722e6b69,rev?*
G04 #@! TF.SameCoordinates,Original*
G04 #@! TF.FileFunction,Legend,Top*
G04 #@! TF.FilePolarity,Positive*
%FSLAX46Y46*%
G04 Gerber Fmt 4.6, Leading zero omitted, Abs format (unit mm)*
G04 Created by KiCad (PCBNEW 5.1.9+dfsg1-1) date 2022-11-10 16:02:49*
%MOMM*%
%LPD*%
G01*
G04 APERTURE LIST*
%ADD10C,0.150000*%
%ADD11C,0.100000*%
%ADD12C,0.200000*%
%ADD13C,0.120000*%
%ADD14C,5.600000*%
%ADD15O,2.000000X1.700000*%
%ADD16O,1.700000X1.950000*%
%ADD17O,1.950000X1.700000*%
%ADD18R,1.700000X1.700000*%
%ADD19O,1.700000X1.700000*%
G04 APERTURE END LIST*
D10*
X157047619Y-70500000D02*
X158047619Y-70500000D01*
X158047619Y-70880952D01*
X158000000Y-70976190D01*
X157952380Y-71023809D01*
X157857142Y-71071428D01*
X157714285Y-71071428D01*
X157619047Y-71023809D01*
X157571428Y-70976190D01*
X157523809Y-70880952D01*
X157523809Y-70500000D01*
X158047619Y-71404761D02*
X157047619Y-71642857D01*
X157761904Y-71833333D01*
X157047619Y-72023809D01*
X158047619Y-72261904D01*
X157047619Y-72642857D02*
X158047619Y-72642857D01*
X157333333Y-72976190D01*
X158047619Y-73309523D01*
X157047619Y-73309523D01*
X156952380Y-73547619D02*
X156952380Y-74309523D01*
X157095238Y-74500000D02*
X157047619Y-74642857D01*
X157047619Y-74880952D01*
X157095238Y-74976190D01*
X157142857Y-75023809D01*
X157238095Y-75071428D01*
X157333333Y-75071428D01*
X157428571Y-75023809D01*
X157476190Y-74976190D01*
X157523809Y-74880952D01*
X157571428Y-74690476D01*
X157619047Y-74595238D01*
X157666666Y-74547619D01*
X157761904Y-74500000D01*
X157857142Y-74500000D01*
X157952380Y-74547619D01*
X158000000Y-74595238D01*
X158047619Y-74690476D01*
X158047619Y-74928571D01*
X158000000Y-75071428D01*
X157047619Y-75500000D02*
X158047619Y-75500000D01*
X158000000Y-76500000D02*
X158047619Y-76404761D01*
X158047619Y-76261904D01*
X158000000Y-76119047D01*
X157904761Y-76023809D01*
X157809523Y-75976190D01*
X157619047Y-75928571D01*
X157476190Y-75928571D01*
X157285714Y-75976190D01*
X157190476Y-76023809D01*
X157095238Y-76119047D01*
X157047619Y-76261904D01*
X157047619Y-76357142D01*
X157095238Y-76500000D01*
X157142857Y-76547619D01*
X157476190Y-76547619D01*
X157476190Y-76357142D01*
X148452380Y-76309523D02*
X148452380Y-75738095D01*
X149452380Y-76023809D02*
X148452380Y-76023809D01*
X149166666Y-75452380D02*
X149166666Y-74976190D01*
X149452380Y-75547619D02*
X148452380Y-75214285D01*
X149452380Y-74880952D01*
X149357142Y-73976190D02*
X149404761Y-74023809D01*
X149452380Y-74166666D01*
X149452380Y-74261904D01*
X149404761Y-74404761D01*
X149309523Y-74500000D01*
X149214285Y-74547619D01*
X149023809Y-74595238D01*
X148880952Y-74595238D01*
X148690476Y-74547619D01*
X148595238Y-74500000D01*
X148500000Y-74404761D01*
X148452380Y-74261904D01*
X148452380Y-74166666D01*
X148500000Y-74023809D01*
X148547619Y-73976190D01*
X149547619Y-73785714D02*
X149547619Y-73023809D01*
X149404761Y-72833333D02*
X149452380Y-72690476D01*
X149452380Y-72452380D01*
X149404761Y-72357142D01*
X149357142Y-72309523D01*
X149261904Y-72261904D01*
X149166666Y-72261904D01*
X149071428Y-72309523D01*
X149023809Y-72357142D01*
X148976190Y-72452380D01*
X148928571Y-72642857D01*
X148880952Y-72738095D01*
X148833333Y-72785714D01*
X148738095Y-72833333D01*
X148642857Y-72833333D01*
X148547619Y-72785714D01*
X148500000Y-72738095D01*
X148452380Y-72642857D01*
X148452380Y-72404761D01*
X148500000Y-72261904D01*
X149452380Y-71833333D02*
X148452380Y-71833333D01*
X148500000Y-70833333D02*
X148452380Y-70928571D01*
X148452380Y-71071428D01*
X148500000Y-71214285D01*
X148595238Y-71309523D01*
X148690476Y-71357142D01*
X148880952Y-71404761D01*
X149023809Y-71404761D01*
X149214285Y-71357142D01*
X149309523Y-71309523D01*
X149404761Y-71214285D01*
X149452380Y-71071428D01*
X149452380Y-70976190D01*
X149404761Y-70833333D01*
X149357142Y-70785714D01*
X149023809Y-70785714D01*
X149023809Y-70976190D01*
D11*
G36*
X157500000Y-70000000D02*
G01*
X157000000Y-69500000D01*
X157500000Y-69000000D01*
X157500000Y-70000000D01*
G37*
X157500000Y-70000000D02*
X157000000Y-69500000D01*
X157500000Y-69000000D01*
X157500000Y-70000000D01*
G36*
X149500000Y-69500000D02*
G01*
X149000000Y-70000000D01*
X149000000Y-69000000D01*
X149500000Y-69500000D01*
G37*
X149500000Y-69500000D02*
X149000000Y-70000000D01*
X149000000Y-69000000D01*
X149500000Y-69500000D01*
D10*
X146952380Y-70714285D02*
X146476190Y-71047619D01*
X146952380Y-71285714D02*
X145952380Y-71285714D01*
X145952380Y-70904761D01*
X146000000Y-70809523D01*
X146047619Y-70761904D01*
X146142857Y-70714285D01*
X146285714Y-70714285D01*
X146380952Y-70761904D01*
X146428571Y-70809523D01*
X146476190Y-70904761D01*
X146476190Y-71285714D01*
X146904761Y-69904761D02*
X146952380Y-70000000D01*
X146952380Y-70190476D01*
X146904761Y-70285714D01*
X146809523Y-70333333D01*
X146428571Y-70333333D01*
X146333333Y-70285714D01*
X146285714Y-70190476D01*
X146285714Y-70000000D01*
X146333333Y-69904761D01*
X146428571Y-69857142D01*
X146523809Y-69857142D01*
X146619047Y-70333333D01*
X146285714Y-69523809D02*
X146952380Y-69285714D01*
X146285714Y-69047619D01*
X146857142Y-68666666D02*
X146904761Y-68619047D01*
X146952380Y-68666666D01*
X146904761Y-68714285D01*
X146857142Y-68666666D01*
X146952380Y-68666666D01*
X146952380Y-67666666D02*
X146952380Y-68238095D01*
X146952380Y-67952380D02*
X145952380Y-67952380D01*
X146095238Y-68047619D01*
X146190476Y-68142857D01*
X146238095Y-68238095D01*
D12*
X142167857Y-78512857D02*
X142167857Y-79012857D01*
X142953571Y-79012857D02*
X141453571Y-79012857D01*
X141453571Y-78298571D01*
X142953571Y-77084285D02*
X142167857Y-77084285D01*
X142025000Y-77155714D01*
X141953571Y-77298571D01*
X141953571Y-77584285D01*
X142025000Y-77727142D01*
X142882142Y-77084285D02*
X142953571Y-77227142D01*
X142953571Y-77584285D01*
X142882142Y-77727142D01*
X142739285Y-77798571D01*
X142596428Y-77798571D01*
X142453571Y-77727142D01*
X142382142Y-77584285D01*
X142382142Y-77227142D01*
X142310714Y-77084285D01*
X141953571Y-76370000D02*
X142953571Y-76370000D01*
X142096428Y-76370000D02*
X142025000Y-76298571D01*
X141953571Y-76155714D01*
X141953571Y-75941428D01*
X142025000Y-75798571D01*
X142167857Y-75727142D01*
X142953571Y-75727142D01*
X145260714Y-78155714D02*
X145332142Y-78227142D01*
X145403571Y-78441428D01*
X145403571Y-78584285D01*
X145332142Y-78798571D01*
X145189285Y-78941428D01*
X145046428Y-79012857D01*
X144760714Y-79084285D01*
X144546428Y-79084285D01*
X144260714Y-79012857D01*
X144117857Y-78941428D01*
X143975000Y-78798571D01*
X143903571Y-78584285D01*
X143903571Y-78441428D01*
X143975000Y-78227142D01*
X144046428Y-78155714D01*
X145403571Y-77298571D02*
X145332142Y-77441428D01*
X145260714Y-77512857D01*
X145117857Y-77584285D01*
X144689285Y-77584285D01*
X144546428Y-77512857D01*
X144475000Y-77441428D01*
X144403571Y-77298571D01*
X144403571Y-77084285D01*
X144475000Y-76941428D01*
X144546428Y-76870000D01*
X144689285Y-76798571D01*
X145117857Y-76798571D01*
X145260714Y-76870000D01*
X145332142Y-76941428D01*
X145403571Y-77084285D01*
X145403571Y-77298571D01*
X144403571Y-76155714D02*
X145403571Y-76155714D01*
X144546428Y-76155714D02*
X144475000Y-76084285D01*
X144403571Y-75941428D01*
X144403571Y-75727142D01*
X144475000Y-75584285D01*
X144617857Y-75512857D01*
X145403571Y-75512857D01*
X144403571Y-75012857D02*
X144403571Y-74441428D01*
X143903571Y-74798571D02*
X145189285Y-74798571D01*
X145332142Y-74727142D01*
X145403571Y-74584285D01*
X145403571Y-74441428D01*
X145403571Y-73941428D02*
X144403571Y-73941428D01*
X144689285Y-73941428D02*
X144546428Y-73870000D01*
X144475000Y-73798571D01*
X144403571Y-73655714D01*
X144403571Y-73512857D01*
X145403571Y-72798571D02*
X145332142Y-72941428D01*
X145260714Y-73012857D01*
X145117857Y-73084285D01*
X144689285Y-73084285D01*
X144546428Y-73012857D01*
X144475000Y-72941428D01*
X144403571Y-72798571D01*
X144403571Y-72584285D01*
X144475000Y-72441428D01*
X144546428Y-72370000D01*
X144689285Y-72298571D01*
X145117857Y-72298571D01*
X145260714Y-72370000D01*
X145332142Y-72441428D01*
X145403571Y-72584285D01*
X145403571Y-72798571D01*
X145403571Y-71441428D02*
X145332142Y-71584285D01*
X145189285Y-71655714D01*
X143903571Y-71655714D01*
X145403571Y-70655714D02*
X145332142Y-70798571D01*
X145189285Y-70870000D01*
X143903571Y-70870000D01*
X145332142Y-69512857D02*
X145403571Y-69655714D01*
X145403571Y-69941428D01*
X145332142Y-70084285D01*
X145189285Y-70155714D01*
X144617857Y-70155714D01*
X144475000Y-70084285D01*
X144403571Y-69941428D01*
X144403571Y-69655714D01*
X144475000Y-69512857D01*
X144617857Y-69441428D01*
X144760714Y-69441428D01*
X144903571Y-70155714D01*
X145403571Y-68798571D02*
X144403571Y-68798571D01*
X144689285Y-68798571D02*
X144546428Y-68727142D01*
X144475000Y-68655714D01*
X144403571Y-68512857D01*
X144403571Y-68370000D01*
D11*
G36*
X148500000Y-84000000D02*
G01*
X148000000Y-84500000D01*
X148000000Y-83500000D01*
X148500000Y-84000000D01*
G37*
X148500000Y-84000000D02*
X148000000Y-84500000D01*
X148000000Y-83500000D01*
X148500000Y-84000000D01*
G36*
X148500000Y-81500000D02*
G01*
X148000000Y-82000000D01*
X148000000Y-81000000D01*
X148500000Y-81500000D01*
G37*
X148500000Y-81500000D02*
X148000000Y-82000000D01*
X148000000Y-81000000D01*
X148500000Y-81500000D01*
D13*
X152500000Y-79500000D02*
X152500000Y-80000000D01*
X150000000Y-79500000D02*
X152500000Y-79500000D01*
X150000000Y-80000000D02*
X150000000Y-79500000D01*
D10*
X154714285Y-78952380D02*
X154714285Y-77952380D01*
X155285714Y-78952380D01*
X155285714Y-77952380D01*
X156333333Y-78857142D02*
X156285714Y-78904761D01*
X156142857Y-78952380D01*
X156047619Y-78952380D01*
X155904761Y-78904761D01*
X155809523Y-78809523D01*
X155761904Y-78714285D01*
X155714285Y-78523809D01*
X155714285Y-78380952D01*
X155761904Y-78190476D01*
X155809523Y-78095238D01*
X155904761Y-78000000D01*
X156047619Y-77952380D01*
X156142857Y-77952380D01*
X156285714Y-78000000D01*
X156333333Y-78047619D01*
X148380952Y-78952380D02*
X148380952Y-77952380D01*
X148761904Y-77952380D01*
X148857142Y-78000000D01*
X148904761Y-78047619D01*
X148952380Y-78142857D01*
X148952380Y-78285714D01*
X148904761Y-78380952D01*
X148857142Y-78428571D01*
X148761904Y-78476190D01*
X148380952Y-78476190D01*
X149380952Y-77952380D02*
X149380952Y-78761904D01*
X149428571Y-78857142D01*
X149476190Y-78904761D01*
X149571428Y-78952380D01*
X149761904Y-78952380D01*
X149857142Y-78904761D01*
X149904761Y-78857142D01*
X149952380Y-78761904D01*
X149952380Y-77952380D01*
X150904761Y-78952380D02*
X150428571Y-78952380D01*
X150428571Y-77952380D01*
X151714285Y-78952380D02*
X151238095Y-78952380D01*
X151238095Y-77952380D01*
X152047619Y-77952380D02*
X152047619Y-78761904D01*
X152095238Y-78857142D01*
X152142857Y-78904761D01*
X152238095Y-78952380D01*
X152428571Y-78952380D01*
X152523809Y-78904761D01*
X152571428Y-78857142D01*
X152619047Y-78761904D01*
X152619047Y-77952380D01*
X153095238Y-78952380D02*
X153095238Y-77952380D01*
X153476190Y-77952380D01*
X153571428Y-78000000D01*
X153619047Y-78047619D01*
X153666666Y-78142857D01*
X153666666Y-78285714D01*
X153619047Y-78380952D01*
X153571428Y-78428571D01*
X153476190Y-78476190D01*
X153095238Y-78476190D01*
X144095238Y-81952380D02*
X144095238Y-80952380D01*
X144476190Y-80952380D01*
X144571428Y-81000000D01*
X144619047Y-81047619D01*
X144666666Y-81142857D01*
X144666666Y-81285714D01*
X144619047Y-81380952D01*
X144571428Y-81428571D01*
X144476190Y-81476190D01*
X144095238Y-81476190D01*
X145000000Y-80952380D02*
X145238095Y-81952380D01*
X145428571Y-81238095D01*
X145619047Y-81952380D01*
X145857142Y-80952380D01*
X146238095Y-81952380D02*
X146238095Y-80952380D01*
X146571428Y-81666666D01*
X146904761Y-80952380D01*
X146904761Y-81952380D01*
X144785714Y-83452380D02*
X145357142Y-83452380D01*
X145071428Y-84452380D02*
X145071428Y-83452380D01*
X145642857Y-84166666D02*
X146119047Y-84166666D01*
X145547619Y-84452380D02*
X145880952Y-83452380D01*
X146214285Y-84452380D01*
X147119047Y-84357142D02*
X147071428Y-84404761D01*
X146928571Y-84452380D01*
X146833333Y-84452380D01*
X146690476Y-84404761D01*
X146595238Y-84309523D01*
X146547619Y-84214285D01*
X146500000Y-84023809D01*
X146500000Y-83880952D01*
X146547619Y-83690476D01*
X146595238Y-83595238D01*
X146690476Y-83500000D01*
X146833333Y-83452380D01*
X146928571Y-83452380D01*
X147071428Y-83500000D01*
X147119047Y-83547619D01*
X149452380Y-94333333D02*
X148452380Y-94333333D01*
X148452380Y-93666666D02*
X148452380Y-93476190D01*
X148500000Y-93380952D01*
X148595238Y-93285714D01*
X148785714Y-93238095D01*
X149119047Y-93238095D01*
X149309523Y-93285714D01*
X149404761Y-93380952D01*
X149452380Y-93476190D01*
X149452380Y-93666666D01*
X149404761Y-93761904D01*
X149309523Y-93857142D01*
X149119047Y-93904761D01*
X148785714Y-93904761D01*
X148595238Y-93857142D01*
X148500000Y-93761904D01*
X148452380Y-93666666D01*
X149547619Y-93047619D02*
X149547619Y-92285714D01*
X148452380Y-92190476D02*
X149452380Y-91857142D01*
X148452380Y-91523809D01*
X149357142Y-90619047D02*
X149404761Y-90666666D01*
X149452380Y-90809523D01*
X149452380Y-90904761D01*
X149404761Y-91047619D01*
X149309523Y-91142857D01*
X149214285Y-91190476D01*
X149023809Y-91238095D01*
X148880952Y-91238095D01*
X148690476Y-91190476D01*
X148595238Y-91142857D01*
X148500000Y-91047619D01*
X148452380Y-90904761D01*
X148452380Y-90809523D01*
X148500000Y-90666666D01*
X148547619Y-90619047D01*
X149357142Y-89619047D02*
X149404761Y-89666666D01*
X149452380Y-89809523D01*
X149452380Y-89904761D01*
X149404761Y-90047619D01*
X149309523Y-90142857D01*
X149214285Y-90190476D01*
X149023809Y-90238095D01*
X148880952Y-90238095D01*
X148690476Y-90190476D01*
X148595238Y-90142857D01*
X148500000Y-90047619D01*
X148452380Y-89904761D01*
X148452380Y-89809523D01*
X148500000Y-89666666D01*
X148547619Y-89619047D01*
X145952380Y-94214285D02*
X145952380Y-93642857D01*
X146952380Y-93928571D02*
X145952380Y-93928571D01*
X146666666Y-93357142D02*
X146666666Y-92880952D01*
X146952380Y-93452380D02*
X145952380Y-93119047D01*
X146952380Y-92785714D01*
X146857142Y-91880952D02*
X146904761Y-91928571D01*
X146952380Y-92071428D01*
X146952380Y-92166666D01*
X146904761Y-92309523D01*
X146809523Y-92404761D01*
X146714285Y-92452380D01*
X146523809Y-92500000D01*
X146380952Y-92500000D01*
X146190476Y-92452380D01*
X146095238Y-92404761D01*
X146000000Y-92309523D01*
X145952380Y-92166666D01*
X145952380Y-92071428D01*
X146000000Y-91928571D01*
X146047619Y-91880952D01*
X144452380Y-94404761D02*
X143452380Y-94404761D01*
X143452380Y-94023809D01*
X143500000Y-93928571D01*
X143547619Y-93880952D01*
X143642857Y-93833333D01*
X143785714Y-93833333D01*
X143880952Y-93880952D01*
X143928571Y-93928571D01*
X143976190Y-94023809D01*
X143976190Y-94404761D01*
X143452380Y-93500000D02*
X144452380Y-93261904D01*
X143738095Y-93071428D01*
X144452380Y-92880952D01*
X143452380Y-92642857D01*
X144452380Y-92261904D02*
X143452380Y-92261904D01*
X144166666Y-91928571D01*
X143452380Y-91595238D01*
X144452380Y-91595238D01*
X144690476Y-102603571D02*
X144357142Y-102603571D01*
X144357142Y-103127380D02*
X144357142Y-102127380D01*
X144833333Y-102127380D01*
X145166666Y-102841666D02*
X145642857Y-102841666D01*
X145071428Y-103127380D02*
X145404761Y-102127380D01*
X145738095Y-103127380D01*
X146071428Y-103127380D02*
X146071428Y-102127380D01*
X146642857Y-103127380D01*
X146642857Y-102127380D01*
X144976190Y-104777380D02*
X144976190Y-103777380D01*
X145642857Y-103777380D02*
X145833333Y-103777380D01*
X145928571Y-103825000D01*
X146023809Y-103920238D01*
X146071428Y-104110714D01*
X146071428Y-104444047D01*
X146023809Y-104634523D01*
X145928571Y-104729761D01*
X145833333Y-104777380D01*
X145642857Y-104777380D01*
X145547619Y-104729761D01*
X145452380Y-104634523D01*
X145404761Y-104444047D01*
X145404761Y-104110714D01*
X145452380Y-103920238D01*
X145547619Y-103825000D01*
X145642857Y-103777380D01*
X158071428Y-92880952D02*
X158071428Y-92119047D01*
X158452380Y-92500000D02*
X157690476Y-92500000D01*
X158071428Y-102380952D02*
X158071428Y-101619047D01*
X154190476Y-102603571D02*
X153857142Y-102603571D01*
X153857142Y-103127380D02*
X153857142Y-102127380D01*
X154333333Y-102127380D01*
X154666666Y-102841666D02*
X155142857Y-102841666D01*
X154571428Y-103127380D02*
X154904761Y-102127380D01*
X155238095Y-103127380D01*
X155571428Y-103127380D02*
X155571428Y-102127380D01*
X156142857Y-103127380D01*
X156142857Y-102127380D01*
X153666666Y-104777380D02*
X153666666Y-103777380D01*
X154047619Y-103777380D01*
X154142857Y-103825000D01*
X154190476Y-103872619D01*
X154238095Y-103967857D01*
X154238095Y-104110714D01*
X154190476Y-104205952D01*
X154142857Y-104253571D01*
X154047619Y-104301190D01*
X153666666Y-104301190D01*
X154571428Y-103777380D02*
X154809523Y-104777380D01*
X155000000Y-104063095D01*
X155190476Y-104777380D01*
X155428571Y-103777380D01*
X156380952Y-104777380D02*
X156047619Y-104301190D01*
X155809523Y-104777380D02*
X155809523Y-103777380D01*
X156190476Y-103777380D01*
X156285714Y-103825000D01*
X156333333Y-103872619D01*
X156380952Y-103967857D01*
X156380952Y-104110714D01*
X156333333Y-104205952D01*
X156285714Y-104253571D01*
X156190476Y-104301190D01*
X155809523Y-104301190D01*
X141452380Y-66333333D02*
X142452380Y-66000000D01*
X141452380Y-65666666D01*
X142357142Y-64761904D02*
X142404761Y-64809523D01*
X142452380Y-64952380D01*
X142452380Y-65047619D01*
X142404761Y-65190476D01*
X142309523Y-65285714D01*
X142214285Y-65333333D01*
X142023809Y-65380952D01*
X141880952Y-65380952D01*
X141690476Y-65333333D01*
X141595238Y-65285714D01*
X141500000Y-65190476D01*
X141452380Y-65047619D01*
X141452380Y-64952380D01*
X141500000Y-64809523D01*
X141547619Y-64761904D01*
X142357142Y-63761904D02*
X142404761Y-63809523D01*
X142452380Y-63952380D01*
X142452380Y-64047619D01*
X142404761Y-64190476D01*
X142309523Y-64285714D01*
X142214285Y-64333333D01*
X142023809Y-64380952D01*
X141880952Y-64380952D01*
X141690476Y-64333333D01*
X141595238Y-64285714D01*
X141500000Y-64190476D01*
X141452380Y-64047619D01*
X141452380Y-63952380D01*
X141500000Y-63809523D01*
X141547619Y-63761904D01*
X158547619Y-55166666D02*
X157547619Y-55500000D01*
X158547619Y-55833333D01*
X157642857Y-56738095D02*
X157595238Y-56690476D01*
X157547619Y-56547619D01*
X157547619Y-56452380D01*
X157595238Y-56309523D01*
X157690476Y-56214285D01*
X157785714Y-56166666D01*
X157976190Y-56119047D01*
X158119047Y-56119047D01*
X158309523Y-56166666D01*
X158404761Y-56214285D01*
X158500000Y-56309523D01*
X158547619Y-56452380D01*
X158547619Y-56547619D01*
X158500000Y-56690476D01*
X158452380Y-56738095D01*
X157642857Y-57738095D02*
X157595238Y-57690476D01*
X157547619Y-57547619D01*
X157547619Y-57452380D01*
X157595238Y-57309523D01*
X157690476Y-57214285D01*
X157785714Y-57166666D01*
X157976190Y-57119047D01*
X158119047Y-57119047D01*
X158309523Y-57166666D01*
X158404761Y-57214285D01*
X158500000Y-57309523D01*
X158547619Y-57452380D01*
X158547619Y-57547619D01*
X158500000Y-57690476D01*
X158452380Y-57738095D01*
X157547619Y-59238095D02*
X158547619Y-59238095D01*
X158547619Y-59619047D01*
X158500000Y-59714285D01*
X158452380Y-59761904D01*
X158357142Y-59809523D01*
X158214285Y-59809523D01*
X158119047Y-59761904D01*
X158071428Y-59714285D01*
X158023809Y-59619047D01*
X158023809Y-59238095D01*
X142452380Y-62261904D02*
X141452380Y-62261904D01*
X141452380Y-61880952D01*
X141500000Y-61785714D01*
X141547619Y-61738095D01*
X141642857Y-61690476D01*
X141785714Y-61690476D01*
X141880952Y-61738095D01*
X141928571Y-61785714D01*
X141976190Y-61880952D01*
X141976190Y-62261904D01*
X158547619Y-62214285D02*
X158547619Y-62785714D01*
X157547619Y-62500000D02*
X158547619Y-62500000D01*
X141452380Y-59785714D02*
X141452380Y-59214285D01*
X142452380Y-59500000D02*
X141452380Y-59500000D01*
X158500000Y-64738095D02*
X158547619Y-64642857D01*
X158547619Y-64500000D01*
X158500000Y-64357142D01*
X158404761Y-64261904D01*
X158309523Y-64214285D01*
X158119047Y-64166666D01*
X157976190Y-64166666D01*
X157785714Y-64214285D01*
X157690476Y-64261904D01*
X157595238Y-64357142D01*
X157547619Y-64500000D01*
X157547619Y-64595238D01*
X157595238Y-64738095D01*
X157642857Y-64785714D01*
X157976190Y-64785714D01*
X157976190Y-64595238D01*
X157547619Y-65214285D02*
X158547619Y-65214285D01*
X157547619Y-65785714D01*
X158547619Y-65785714D01*
X157547619Y-66261904D02*
X158547619Y-66261904D01*
X158547619Y-66500000D01*
X158500000Y-66642857D01*
X158404761Y-66738095D01*
X158309523Y-66785714D01*
X158119047Y-66833333D01*
X157976190Y-66833333D01*
X157785714Y-66785714D01*
X157690476Y-66738095D01*
X157595238Y-66642857D01*
X157547619Y-66500000D01*
X157547619Y-66261904D01*
X141500000Y-57261904D02*
X141452380Y-57357142D01*
X141452380Y-57500000D01*
X141500000Y-57642857D01*
X141595238Y-57738095D01*
X141690476Y-57785714D01*
X141880952Y-57833333D01*
X142023809Y-57833333D01*
X142214285Y-57785714D01*
X142309523Y-57738095D01*
X142404761Y-57642857D01*
X142452380Y-57500000D01*
X142452380Y-57404761D01*
X142404761Y-57261904D01*
X142357142Y-57214285D01*
X142023809Y-57214285D01*
X142023809Y-57404761D01*
X142452380Y-56785714D02*
X141452380Y-56785714D01*
X142452380Y-56214285D01*
X141452380Y-56214285D01*
X142452380Y-55738095D02*
X141452380Y-55738095D01*
X141452380Y-55500000D01*
X141500000Y-55357142D01*
X141595238Y-55261904D01*
X141690476Y-55214285D01*
X141880952Y-55166666D01*
X142023809Y-55166666D01*
X142214285Y-55214285D01*
X142309523Y-55261904D01*
X142404761Y-55357142D01*
X142452380Y-55500000D01*
X142452380Y-55738095D01*
X149928571Y-64523809D02*
X149928571Y-64857142D01*
X150452380Y-64857142D02*
X149452380Y-64857142D01*
X149452380Y-64380952D01*
X150166666Y-64047619D02*
X150166666Y-63571428D01*
X150452380Y-64142857D02*
X149452380Y-63809523D01*
X150452380Y-63476190D01*
X150452380Y-63142857D02*
X149452380Y-63142857D01*
X150452380Y-62571428D01*
X149452380Y-62571428D01*
X149452380Y-61142857D02*
X149452380Y-60952380D01*
X149500000Y-60857142D01*
X149595238Y-60761904D01*
X149785714Y-60714285D01*
X150119047Y-60714285D01*
X150309523Y-60761904D01*
X150404761Y-60857142D01*
X150452380Y-60952380D01*
X150452380Y-61142857D01*
X150404761Y-61238095D01*
X150309523Y-61333333D01*
X150119047Y-61380952D01*
X149785714Y-61380952D01*
X149595238Y-61333333D01*
X149500000Y-61238095D01*
X149452380Y-61142857D01*
X149452380Y-60285714D02*
X150261904Y-60285714D01*
X150357142Y-60238095D01*
X150404761Y-60190476D01*
X150452380Y-60095238D01*
X150452380Y-59904761D01*
X150404761Y-59809523D01*
X150357142Y-59761904D01*
X150261904Y-59714285D01*
X149452380Y-59714285D01*
X149452380Y-59380952D02*
X149452380Y-58809523D01*
X150452380Y-59095238D02*
X149452380Y-59095238D01*
X150452380Y-58476190D02*
X149452380Y-58476190D01*
X149452380Y-58095238D01*
X149500000Y-58000000D01*
X149547619Y-57952380D01*
X149642857Y-57904761D01*
X149785714Y-57904761D01*
X149880952Y-57952380D01*
X149928571Y-58000000D01*
X149976190Y-58095238D01*
X149976190Y-58476190D01*
X149452380Y-57476190D02*
X150261904Y-57476190D01*
X150357142Y-57428571D01*
X150404761Y-57380952D01*
X150452380Y-57285714D01*
X150452380Y-57095238D01*
X150404761Y-57000000D01*
X150357142Y-56952380D01*
X150261904Y-56904761D01*
X149452380Y-56904761D01*
X149452380Y-56571428D02*
X149452380Y-56000000D01*
X150452380Y-56285714D02*
X149452380Y-56285714D01*
D11*
G36*
X150500000Y-55000000D02*
G01*
X150000000Y-55500000D01*
X150000000Y-54500000D01*
X150500000Y-55000000D01*
G37*
X150500000Y-55000000D02*
X150000000Y-55500000D01*
X150000000Y-54500000D01*
X150500000Y-55000000D01*
G36*
X150000000Y-67000000D02*
G01*
X149500000Y-66500000D01*
X150000000Y-66000000D01*
X150000000Y-67000000D01*
G37*
X150000000Y-67000000D02*
X149500000Y-66500000D01*
X150000000Y-66000000D01*
X150000000Y-67000000D01*
D13*
X156460000Y-71525000D02*
X156460000Y-68665000D01*
X156460000Y-68665000D02*
X154540000Y-68665000D01*
X154540000Y-68665000D02*
X154540000Y-71525000D01*
X158460000Y-93440000D02*
X152490000Y-93440000D01*
X152490000Y-93440000D02*
X152490000Y-101060000D01*
X152490000Y-101060000D02*
X158460000Y-101060000D01*
X158460000Y-101060000D02*
X158460000Y-93440000D01*
X158450000Y-96750000D02*
X157700000Y-96750000D01*
X157700000Y-96750000D02*
X157700000Y-97750000D01*
X157700000Y-97750000D02*
X158450000Y-97750000D01*
X158450000Y-97750000D02*
X158450000Y-96750000D01*
X158450000Y-93450000D02*
X157700000Y-93450000D01*
X157700000Y-93450000D02*
X157700000Y-95250000D01*
X157700000Y-95250000D02*
X158450000Y-95250000D01*
X158450000Y-95250000D02*
X158450000Y-93450000D01*
X158450000Y-99250000D02*
X157700000Y-99250000D01*
X157700000Y-99250000D02*
X157700000Y-101050000D01*
X157700000Y-101050000D02*
X158450000Y-101050000D01*
X158450000Y-101050000D02*
X158450000Y-99250000D01*
X156200000Y-93450000D02*
X156200000Y-94200000D01*
X156200000Y-94200000D02*
X153250000Y-94200000D01*
X153250000Y-94200000D02*
X153250000Y-97250000D01*
X156200000Y-101050000D02*
X156200000Y-100300000D01*
X156200000Y-100300000D02*
X153250000Y-100300000D01*
X153250000Y-100300000D02*
X153250000Y-97250000D01*
X158750000Y-94400000D02*
X158750000Y-93150000D01*
X158750000Y-93150000D02*
X157500000Y-93150000D01*
X151560000Y-100960000D02*
X151560000Y-94990000D01*
X151560000Y-94990000D02*
X141440000Y-94990000D01*
X141440000Y-94990000D02*
X141440000Y-100960000D01*
X141440000Y-100960000D02*
X151560000Y-100960000D01*
X148250000Y-100950000D02*
X148250000Y-100200000D01*
X148250000Y-100200000D02*
X144750000Y-100200000D01*
X144750000Y-100200000D02*
X144750000Y-100950000D01*
X144750000Y-100950000D02*
X148250000Y-100950000D01*
X151550000Y-100950000D02*
X151550000Y-100200000D01*
X151550000Y-100200000D02*
X149750000Y-100200000D01*
X149750000Y-100200000D02*
X149750000Y-100950000D01*
X149750000Y-100950000D02*
X151550000Y-100950000D01*
X143250000Y-100950000D02*
X143250000Y-100200000D01*
X143250000Y-100200000D02*
X141450000Y-100200000D01*
X141450000Y-100200000D02*
X141450000Y-100950000D01*
X141450000Y-100950000D02*
X143250000Y-100950000D01*
X151550000Y-98700000D02*
X150800000Y-98700000D01*
X150800000Y-98700000D02*
X150800000Y-95750000D01*
X150800000Y-95750000D02*
X146500000Y-95750000D01*
X141450000Y-98700000D02*
X142200000Y-98700000D01*
X142200000Y-98700000D02*
X142200000Y-95750000D01*
X142200000Y-95750000D02*
X146500000Y-95750000D01*
X150600000Y-101250000D02*
X151850000Y-101250000D01*
X151850000Y-101250000D02*
X151850000Y-100000000D01*
X143040000Y-67060000D02*
X149010000Y-67060000D01*
X149010000Y-67060000D02*
X149010000Y-54440000D01*
X149010000Y-54440000D02*
X143040000Y-54440000D01*
X143040000Y-54440000D02*
X143040000Y-67060000D01*
X143050000Y-63750000D02*
X143800000Y-63750000D01*
X143800000Y-63750000D02*
X143800000Y-57750000D01*
X143800000Y-57750000D02*
X143050000Y-57750000D01*
X143050000Y-57750000D02*
X143050000Y-63750000D01*
X143050000Y-67050000D02*
X143800000Y-67050000D01*
X143800000Y-67050000D02*
X143800000Y-65250000D01*
X143800000Y-65250000D02*
X143050000Y-65250000D01*
X143050000Y-65250000D02*
X143050000Y-67050000D01*
X143050000Y-56250000D02*
X143800000Y-56250000D01*
X143800000Y-56250000D02*
X143800000Y-54450000D01*
X143800000Y-54450000D02*
X143050000Y-54450000D01*
X143050000Y-54450000D02*
X143050000Y-56250000D01*
X145300000Y-67050000D02*
X145300000Y-66300000D01*
X145300000Y-66300000D02*
X148250000Y-66300000D01*
X148250000Y-66300000D02*
X148250000Y-60750000D01*
X145300000Y-54450000D02*
X145300000Y-55200000D01*
X145300000Y-55200000D02*
X148250000Y-55200000D01*
X148250000Y-55200000D02*
X148250000Y-60750000D01*
X142750000Y-66100000D02*
X142750000Y-67350000D01*
X142750000Y-67350000D02*
X144000000Y-67350000D01*
X157250000Y-54150000D02*
X156000000Y-54150000D01*
X157250000Y-55400000D02*
X157250000Y-54150000D01*
X151750000Y-66300000D02*
X151750000Y-60750000D01*
X154700000Y-66300000D02*
X151750000Y-66300000D01*
X154700000Y-67050000D02*
X154700000Y-66300000D01*
X151750000Y-55200000D02*
X151750000Y-60750000D01*
X154700000Y-55200000D02*
X151750000Y-55200000D01*
X154700000Y-54450000D02*
X154700000Y-55200000D01*
X156950000Y-67050000D02*
X156950000Y-65250000D01*
X156200000Y-67050000D02*
X156950000Y-67050000D01*
X156200000Y-65250000D02*
X156200000Y-67050000D01*
X156950000Y-65250000D02*
X156200000Y-65250000D01*
X156950000Y-56250000D02*
X156950000Y-54450000D01*
X156200000Y-56250000D02*
X156950000Y-56250000D01*
X156200000Y-54450000D02*
X156200000Y-56250000D01*
X156950000Y-54450000D02*
X156200000Y-54450000D01*
X156950000Y-63750000D02*
X156950000Y-57750000D01*
X156200000Y-63750000D02*
X156950000Y-63750000D01*
X156200000Y-57750000D02*
X156200000Y-63750000D01*
X156950000Y-57750000D02*
X156200000Y-57750000D01*
X156960000Y-67060000D02*
X156960000Y-54440000D01*
X150990000Y-67060000D02*
X156960000Y-67060000D01*
X150990000Y-54440000D02*
X150990000Y-67060000D01*
X156960000Y-54440000D02*
X150990000Y-54440000D01*
X154765000Y-74772936D02*
X154765000Y-75227064D01*
X156235000Y-74772936D02*
X156235000Y-75227064D01*
X144735000Y-88272936D02*
X144735000Y-88727064D01*
X143265000Y-88272936D02*
X143265000Y-88727064D01*
X147235000Y-88272936D02*
X147235000Y-88727064D01*
X145765000Y-88272936D02*
X145765000Y-88727064D01*
X148590000Y-80170000D02*
X148590000Y-85370000D01*
X153730000Y-80170000D02*
X148590000Y-80170000D01*
X156330000Y-85370000D02*
X148590000Y-85370000D01*
X153730000Y-80170000D02*
X153730000Y-82770000D01*
X153730000Y-82770000D02*
X156330000Y-82770000D01*
X156330000Y-82770000D02*
X156330000Y-85370000D01*
X155000000Y-80170000D02*
X156330000Y-80170000D01*
X156330000Y-80170000D02*
X156330000Y-81500000D01*
X151960000Y-71500000D02*
X151960000Y-68640000D01*
X151960000Y-68640000D02*
X150040000Y-68640000D01*
X150040000Y-68640000D02*
X150040000Y-71500000D01*
X151735000Y-74772936D02*
X151735000Y-75227064D01*
X150265000Y-74772936D02*
X150265000Y-75227064D01*
D10*
X154452380Y-71238095D02*
X153452380Y-71238095D01*
X153452380Y-71000000D01*
X153500000Y-70857142D01*
X153595238Y-70761904D01*
X153690476Y-70714285D01*
X153880952Y-70666666D01*
X154023809Y-70666666D01*
X154214285Y-70714285D01*
X154309523Y-70761904D01*
X154404761Y-70857142D01*
X154452380Y-71000000D01*
X154452380Y-71238095D01*
X154452380Y-69714285D02*
X154452380Y-70285714D01*
X154452380Y-70000000D02*
X153452380Y-70000000D01*
X153595238Y-70095238D01*
X153690476Y-70190476D01*
X153738095Y-70285714D01*
X153452380Y-99333333D02*
X154166666Y-99333333D01*
X154309523Y-99380952D01*
X154404761Y-99476190D01*
X154452380Y-99619047D01*
X154452380Y-99714285D01*
X154452380Y-98333333D02*
X154452380Y-98904761D01*
X154452380Y-98619047D02*
X153452380Y-98619047D01*
X153595238Y-98714285D01*
X153690476Y-98809523D01*
X153738095Y-98904761D01*
X142666666Y-95952380D02*
X142666666Y-96666666D01*
X142619047Y-96809523D01*
X142523809Y-96904761D01*
X142380952Y-96952380D01*
X142285714Y-96952380D01*
X143095238Y-96047619D02*
X143142857Y-96000000D01*
X143238095Y-95952380D01*
X143476190Y-95952380D01*
X143571428Y-96000000D01*
X143619047Y-96047619D01*
X143666666Y-96142857D01*
X143666666Y-96238095D01*
X143619047Y-96380952D01*
X143047619Y-96952380D01*
X143666666Y-96952380D01*
X146952380Y-65833333D02*
X147666666Y-65833333D01*
X147809523Y-65880952D01*
X147904761Y-65976190D01*
X147952380Y-66119047D01*
X147952380Y-66214285D01*
X146952380Y-65452380D02*
X146952380Y-64833333D01*
X147333333Y-65166666D01*
X147333333Y-65023809D01*
X147380952Y-64928571D01*
X147428571Y-64880952D01*
X147523809Y-64833333D01*
X147761904Y-64833333D01*
X147857142Y-64880952D01*
X147904761Y-64928571D01*
X147952380Y-65023809D01*
X147952380Y-65309523D01*
X147904761Y-65404761D01*
X147857142Y-65452380D01*
X151952380Y-56833333D02*
X152666666Y-56833333D01*
X152809523Y-56880952D01*
X152904761Y-56976190D01*
X152952380Y-57119047D01*
X152952380Y-57214285D01*
X152285714Y-55928571D02*
X152952380Y-55928571D01*
X151904761Y-56166666D02*
X152619047Y-56404761D01*
X152619047Y-55785714D01*
X154452380Y-75166666D02*
X153976190Y-75500000D01*
X154452380Y-75738095D02*
X153452380Y-75738095D01*
X153452380Y-75357142D01*
X153500000Y-75261904D01*
X153547619Y-75214285D01*
X153642857Y-75166666D01*
X153785714Y-75166666D01*
X153880952Y-75214285D01*
X153928571Y-75261904D01*
X153976190Y-75357142D01*
X153976190Y-75738095D01*
X154452380Y-74214285D02*
X154452380Y-74785714D01*
X154452380Y-74500000D02*
X153452380Y-74500000D01*
X153595238Y-74595238D01*
X153690476Y-74690476D01*
X153738095Y-74785714D01*
X142952380Y-87666666D02*
X142476190Y-88000000D01*
X142952380Y-88238095D02*
X141952380Y-88238095D01*
X141952380Y-87857142D01*
X142000000Y-87761904D01*
X142047619Y-87714285D01*
X142142857Y-87666666D01*
X142285714Y-87666666D01*
X142380952Y-87714285D01*
X142428571Y-87761904D01*
X142476190Y-87857142D01*
X142476190Y-88238095D01*
X142047619Y-87285714D02*
X142000000Y-87238095D01*
X141952380Y-87142857D01*
X141952380Y-86904761D01*
X142000000Y-86809523D01*
X142047619Y-86761904D01*
X142142857Y-86714285D01*
X142238095Y-86714285D01*
X142380952Y-86761904D01*
X142952380Y-87333333D01*
X142952380Y-86714285D01*
X148602380Y-87666666D02*
X148126190Y-88000000D01*
X148602380Y-88238095D02*
X147602380Y-88238095D01*
X147602380Y-87857142D01*
X147650000Y-87761904D01*
X147697619Y-87714285D01*
X147792857Y-87666666D01*
X147935714Y-87666666D01*
X148030952Y-87714285D01*
X148078571Y-87761904D01*
X148126190Y-87857142D01*
X148126190Y-88238095D01*
X147602380Y-87333333D02*
X147602380Y-86714285D01*
X147983333Y-87047619D01*
X147983333Y-86904761D01*
X148030952Y-86809523D01*
X148078571Y-86761904D01*
X148173809Y-86714285D01*
X148411904Y-86714285D01*
X148507142Y-86761904D01*
X148554761Y-86809523D01*
X148602380Y-86904761D01*
X148602380Y-87190476D01*
X148554761Y-87285714D01*
X148507142Y-87333333D01*
X153102380Y-71238095D02*
X152102380Y-71238095D01*
X152102380Y-71000000D01*
X152150000Y-70857142D01*
X152245238Y-70761904D01*
X152340476Y-70714285D01*
X152530952Y-70666666D01*
X152673809Y-70666666D01*
X152864285Y-70714285D01*
X152959523Y-70761904D01*
X153054761Y-70857142D01*
X153102380Y-71000000D01*
X153102380Y-71238095D01*
X152197619Y-70285714D02*
X152150000Y-70238095D01*
X152102380Y-70142857D01*
X152102380Y-69904761D01*
X152150000Y-69809523D01*
X152197619Y-69761904D01*
X152292857Y-69714285D01*
X152388095Y-69714285D01*
X152530952Y-69761904D01*
X153102380Y-70333333D01*
X153102380Y-69714285D01*
X153102380Y-75166666D02*
X152626190Y-75500000D01*
X153102380Y-75738095D02*
X152102380Y-75738095D01*
X152102380Y-75357142D01*
X152150000Y-75261904D01*
X152197619Y-75214285D01*
X152292857Y-75166666D01*
X152435714Y-75166666D01*
X152530952Y-75214285D01*
X152578571Y-75261904D01*
X152626190Y-75357142D01*
X152626190Y-75738095D01*
X152435714Y-74309523D02*
X153102380Y-74309523D01*
X152054761Y-74547619D02*
X152769047Y-74785714D01*
X152769047Y-74166666D01*
%LPC*%
D14*
X150000000Y-50000000D03*
X150000000Y-105000000D03*
G36*
G01*
X155049999Y-68925000D02*
X155950001Y-68925000D01*
G75*
G02*
X156200000Y-69174999I0J-249999D01*
G01*
X156200000Y-69825001D01*
G75*
G02*
X155950001Y-70075000I-249999J0D01*
G01*
X155049999Y-70075000D01*
G75*
G02*
X154800000Y-69825001I0J249999D01*
G01*
X154800000Y-69174999D01*
G75*
G02*
X155049999Y-68925000I249999J0D01*
G01*
G37*
G36*
G01*
X155049999Y-70975000D02*
X155950001Y-70975000D01*
G75*
G02*
X156200000Y-71224999I0J-249999D01*
G01*
X156200000Y-71875001D01*
G75*
G02*
X155950001Y-72125000I-249999J0D01*
G01*
X155049999Y-72125000D01*
G75*
G02*
X154800000Y-71875001I0J249999D01*
G01*
X154800000Y-71224999D01*
G75*
G02*
X155049999Y-70975000I249999J0D01*
G01*
G37*
G36*
G01*
X155250000Y-95150000D02*
X156750000Y-95150000D01*
G75*
G02*
X157000000Y-95400000I0J-250000D01*
G01*
X157000000Y-96600000D01*
G75*
G02*
X156750000Y-96850000I-250000J0D01*
G01*
X155250000Y-96850000D01*
G75*
G02*
X155000000Y-96600000I0J250000D01*
G01*
X155000000Y-95400000D01*
G75*
G02*
X155250000Y-95150000I250000J0D01*
G01*
G37*
D15*
X156000000Y-98500000D03*
G36*
G01*
X149850000Y-97775000D02*
X149850000Y-99225000D01*
G75*
G02*
X149600000Y-99475000I-250000J0D01*
G01*
X148400000Y-99475000D01*
G75*
G02*
X148150000Y-99225000I0J250000D01*
G01*
X148150000Y-97775000D01*
G75*
G02*
X148400000Y-97525000I250000J0D01*
G01*
X149600000Y-97525000D01*
G75*
G02*
X149850000Y-97775000I0J-250000D01*
G01*
G37*
D16*
X146500000Y-98500000D03*
X144000000Y-98500000D03*
G36*
G01*
X146225000Y-65350000D02*
X144775000Y-65350000D01*
G75*
G02*
X144525000Y-65100000I0J250000D01*
G01*
X144525000Y-63900000D01*
G75*
G02*
X144775000Y-63650000I250000J0D01*
G01*
X146225000Y-63650000D01*
G75*
G02*
X146475000Y-63900000I0J-250000D01*
G01*
X146475000Y-65100000D01*
G75*
G02*
X146225000Y-65350000I-250000J0D01*
G01*
G37*
D17*
X145500000Y-62000000D03*
X145500000Y-59500000D03*
X145500000Y-57000000D03*
X154500000Y-64500000D03*
X154500000Y-62000000D03*
X154500000Y-59500000D03*
G36*
G01*
X153775000Y-56150000D02*
X155225000Y-56150000D01*
G75*
G02*
X155475000Y-56400000I0J-250000D01*
G01*
X155475000Y-57600000D01*
G75*
G02*
X155225000Y-57850000I-250000J0D01*
G01*
X153775000Y-57850000D01*
G75*
G02*
X153525000Y-57600000I0J250000D01*
G01*
X153525000Y-56400000D01*
G75*
G02*
X153775000Y-56150000I250000J0D01*
G01*
G37*
G36*
G01*
X155049999Y-75400000D02*
X155950001Y-75400000D01*
G75*
G02*
X156200000Y-75649999I0J-249999D01*
G01*
X156200000Y-76350001D01*
G75*
G02*
X155950001Y-76600000I-249999J0D01*
G01*
X155049999Y-76600000D01*
G75*
G02*
X154800000Y-76350001I0J249999D01*
G01*
X154800000Y-75649999D01*
G75*
G02*
X155049999Y-75400000I249999J0D01*
G01*
G37*
G36*
G01*
X155049999Y-73400000D02*
X155950001Y-73400000D01*
G75*
G02*
X156200000Y-73649999I0J-249999D01*
G01*
X156200000Y-74350001D01*
G75*
G02*
X155950001Y-74600000I-249999J0D01*
G01*
X155049999Y-74600000D01*
G75*
G02*
X154800000Y-74350001I0J249999D01*
G01*
X154800000Y-73649999D01*
G75*
G02*
X155049999Y-73400000I249999J0D01*
G01*
G37*
G36*
G01*
X143549999Y-86900000D02*
X144450001Y-86900000D01*
G75*
G02*
X144700000Y-87149999I0J-249999D01*
G01*
X144700000Y-87850001D01*
G75*
G02*
X144450001Y-88100000I-249999J0D01*
G01*
X143549999Y-88100000D01*
G75*
G02*
X143300000Y-87850001I0J249999D01*
G01*
X143300000Y-87149999D01*
G75*
G02*
X143549999Y-86900000I249999J0D01*
G01*
G37*
G36*
G01*
X143549999Y-88900000D02*
X144450001Y-88900000D01*
G75*
G02*
X144700000Y-89149999I0J-249999D01*
G01*
X144700000Y-89850001D01*
G75*
G02*
X144450001Y-90100000I-249999J0D01*
G01*
X143549999Y-90100000D01*
G75*
G02*
X143300000Y-89850001I0J249999D01*
G01*
X143300000Y-89149999D01*
G75*
G02*
X143549999Y-88900000I249999J0D01*
G01*
G37*
G36*
G01*
X146049999Y-86900000D02*
X146950001Y-86900000D01*
G75*
G02*
X147200000Y-87149999I0J-249999D01*
G01*
X147200000Y-87850001D01*
G75*
G02*
X146950001Y-88100000I-249999J0D01*
G01*
X146049999Y-88100000D01*
G75*
G02*
X145800000Y-87850001I0J249999D01*
G01*
X145800000Y-87149999D01*
G75*
G02*
X146049999Y-86900000I249999J0D01*
G01*
G37*
G36*
G01*
X146049999Y-88900000D02*
X146950001Y-88900000D01*
G75*
G02*
X147200000Y-89149999I0J-249999D01*
G01*
X147200000Y-89850001D01*
G75*
G02*
X146950001Y-90100000I-249999J0D01*
G01*
X146049999Y-90100000D01*
G75*
G02*
X145800000Y-89850001I0J249999D01*
G01*
X145800000Y-89149999D01*
G75*
G02*
X146049999Y-88900000I249999J0D01*
G01*
G37*
D18*
X155000000Y-81500000D03*
D19*
X155000000Y-84040000D03*
X152460000Y-81500000D03*
X152460000Y-84040000D03*
X149920000Y-81500000D03*
X149920000Y-84040000D03*
G36*
G01*
X150549999Y-68900000D02*
X151450001Y-68900000D01*
G75*
G02*
X151700000Y-69149999I0J-249999D01*
G01*
X151700000Y-69800001D01*
G75*
G02*
X151450001Y-70050000I-249999J0D01*
G01*
X150549999Y-70050000D01*
G75*
G02*
X150300000Y-69800001I0J249999D01*
G01*
X150300000Y-69149999D01*
G75*
G02*
X150549999Y-68900000I249999J0D01*
G01*
G37*
G36*
G01*
X150549999Y-70950000D02*
X151450001Y-70950000D01*
G75*
G02*
X151700000Y-71199999I0J-249999D01*
G01*
X151700000Y-71850001D01*
G75*
G02*
X151450001Y-72100000I-249999J0D01*
G01*
X150549999Y-72100000D01*
G75*
G02*
X150300000Y-71850001I0J249999D01*
G01*
X150300000Y-71199999D01*
G75*
G02*
X150549999Y-70950000I249999J0D01*
G01*
G37*
G36*
G01*
X150549999Y-73400000D02*
X151450001Y-73400000D01*
G75*
G02*
X151700000Y-73649999I0J-249999D01*
G01*
X151700000Y-74350001D01*
G75*
G02*
X151450001Y-74600000I-249999J0D01*
G01*
X150549999Y-74600000D01*
G75*
G02*
X150300000Y-74350001I0J249999D01*
G01*
X150300000Y-73649999D01*
G75*
G02*
X150549999Y-73400000I249999J0D01*
G01*
G37*
G36*
G01*
X150549999Y-75400000D02*
X151450001Y-75400000D01*
G75*
G02*
X151700000Y-75649999I0J-249999D01*
G01*
X151700000Y-76350001D01*
G75*
G02*
X151450001Y-76600000I-249999J0D01*
G01*
X150549999Y-76600000D01*
G75*
G02*
X150300000Y-76350001I0J249999D01*
G01*
X150300000Y-75649999D01*
G75*
G02*
X150549999Y-75400000I249999J0D01*
G01*
G37*
M02*
