G04 #@! TF.GenerationSoftware,KiCad,Pcbnew,5.1.9+dfsg1-1*
G04 #@! TF.CreationDate,2022-11-10T16:02:49+09:00*
G04 #@! TF.ProjectId,fan-expander,66616e2d-6578-4706-916e-6465722e6b69,rev?*
G04 #@! TF.SameCoordinates,Original*
G04 #@! TF.FileFunction,Soldermask,Top*
G04 #@! TF.FilePolarity,Negative*
%FSLAX46Y46*%
G04 Gerber Fmt 4.6, Leading zero omitted, Abs format (unit mm)*
G04 Created by KiCad (PCBNEW 5.1.9+dfsg1-1) date 2022-11-10 16:02:49*
%MOMM*%
%LPD*%
G01*
G04 APERTURE LIST*
%ADD10C,5.600000*%
%ADD11O,2.000000X1.700000*%
%ADD12O,1.700000X1.950000*%
%ADD13O,1.950000X1.700000*%
%ADD14R,1.700000X1.700000*%
%ADD15O,1.700000X1.700000*%
G04 APERTURE END LIST*
D10*
X150000000Y-50000000D03*
X150000000Y-105000000D03*
G36*
G01*
X155049999Y-68925000D02*
X155950001Y-68925000D01*
G75*
G02*
X156200000Y-69174999I0J-249999D01*
G01*
X156200000Y-69825001D01*
G75*
G02*
X155950001Y-70075000I-249999J0D01*
G01*
X155049999Y-70075000D01*
G75*
G02*
X154800000Y-69825001I0J249999D01*
G01*
X154800000Y-69174999D01*
G75*
G02*
X155049999Y-68925000I249999J0D01*
G01*
G37*
G36*
G01*
X155049999Y-70975000D02*
X155950001Y-70975000D01*
G75*
G02*
X156200000Y-71224999I0J-249999D01*
G01*
X156200000Y-71875001D01*
G75*
G02*
X155950001Y-72125000I-249999J0D01*
G01*
X155049999Y-72125000D01*
G75*
G02*
X154800000Y-71875001I0J249999D01*
G01*
X154800000Y-71224999D01*
G75*
G02*
X155049999Y-70975000I249999J0D01*
G01*
G37*
G36*
G01*
X155250000Y-95150000D02*
X156750000Y-95150000D01*
G75*
G02*
X157000000Y-95400000I0J-250000D01*
G01*
X157000000Y-96600000D01*
G75*
G02*
X156750000Y-96850000I-250000J0D01*
G01*
X155250000Y-96850000D01*
G75*
G02*
X155000000Y-96600000I0J250000D01*
G01*
X155000000Y-95400000D01*
G75*
G02*
X155250000Y-95150000I250000J0D01*
G01*
G37*
D11*
X156000000Y-98500000D03*
G36*
G01*
X149850000Y-97775000D02*
X149850000Y-99225000D01*
G75*
G02*
X149600000Y-99475000I-250000J0D01*
G01*
X148400000Y-99475000D01*
G75*
G02*
X148150000Y-99225000I0J250000D01*
G01*
X148150000Y-97775000D01*
G75*
G02*
X148400000Y-97525000I250000J0D01*
G01*
X149600000Y-97525000D01*
G75*
G02*
X149850000Y-97775000I0J-250000D01*
G01*
G37*
D12*
X146500000Y-98500000D03*
X144000000Y-98500000D03*
G36*
G01*
X146225000Y-65350000D02*
X144775000Y-65350000D01*
G75*
G02*
X144525000Y-65100000I0J250000D01*
G01*
X144525000Y-63900000D01*
G75*
G02*
X144775000Y-63650000I250000J0D01*
G01*
X146225000Y-63650000D01*
G75*
G02*
X146475000Y-63900000I0J-250000D01*
G01*
X146475000Y-65100000D01*
G75*
G02*
X146225000Y-65350000I-250000J0D01*
G01*
G37*
D13*
X145500000Y-62000000D03*
X145500000Y-59500000D03*
X145500000Y-57000000D03*
X154500000Y-64500000D03*
X154500000Y-62000000D03*
X154500000Y-59500000D03*
G36*
G01*
X153775000Y-56150000D02*
X155225000Y-56150000D01*
G75*
G02*
X155475000Y-56400000I0J-250000D01*
G01*
X155475000Y-57600000D01*
G75*
G02*
X155225000Y-57850000I-250000J0D01*
G01*
X153775000Y-57850000D01*
G75*
G02*
X153525000Y-57600000I0J250000D01*
G01*
X153525000Y-56400000D01*
G75*
G02*
X153775000Y-56150000I250000J0D01*
G01*
G37*
G36*
G01*
X155049999Y-75400000D02*
X155950001Y-75400000D01*
G75*
G02*
X156200000Y-75649999I0J-249999D01*
G01*
X156200000Y-76350001D01*
G75*
G02*
X155950001Y-76600000I-249999J0D01*
G01*
X155049999Y-76600000D01*
G75*
G02*
X154800000Y-76350001I0J249999D01*
G01*
X154800000Y-75649999D01*
G75*
G02*
X155049999Y-75400000I249999J0D01*
G01*
G37*
G36*
G01*
X155049999Y-73400000D02*
X155950001Y-73400000D01*
G75*
G02*
X156200000Y-73649999I0J-249999D01*
G01*
X156200000Y-74350001D01*
G75*
G02*
X155950001Y-74600000I-249999J0D01*
G01*
X155049999Y-74600000D01*
G75*
G02*
X154800000Y-74350001I0J249999D01*
G01*
X154800000Y-73649999D01*
G75*
G02*
X155049999Y-73400000I249999J0D01*
G01*
G37*
G36*
G01*
X143549999Y-86900000D02*
X144450001Y-86900000D01*
G75*
G02*
X144700000Y-87149999I0J-249999D01*
G01*
X144700000Y-87850001D01*
G75*
G02*
X144450001Y-88100000I-249999J0D01*
G01*
X143549999Y-88100000D01*
G75*
G02*
X143300000Y-87850001I0J249999D01*
G01*
X143300000Y-87149999D01*
G75*
G02*
X143549999Y-86900000I249999J0D01*
G01*
G37*
G36*
G01*
X143549999Y-88900000D02*
X144450001Y-88900000D01*
G75*
G02*
X144700000Y-89149999I0J-249999D01*
G01*
X144700000Y-89850001D01*
G75*
G02*
X144450001Y-90100000I-249999J0D01*
G01*
X143549999Y-90100000D01*
G75*
G02*
X143300000Y-89850001I0J249999D01*
G01*
X143300000Y-89149999D01*
G75*
G02*
X143549999Y-88900000I249999J0D01*
G01*
G37*
G36*
G01*
X146049999Y-86900000D02*
X146950001Y-86900000D01*
G75*
G02*
X147200000Y-87149999I0J-249999D01*
G01*
X147200000Y-87850001D01*
G75*
G02*
X146950001Y-88100000I-249999J0D01*
G01*
X146049999Y-88100000D01*
G75*
G02*
X145800000Y-87850001I0J249999D01*
G01*
X145800000Y-87149999D01*
G75*
G02*
X146049999Y-86900000I249999J0D01*
G01*
G37*
G36*
G01*
X146049999Y-88900000D02*
X146950001Y-88900000D01*
G75*
G02*
X147200000Y-89149999I0J-249999D01*
G01*
X147200000Y-89850001D01*
G75*
G02*
X146950001Y-90100000I-249999J0D01*
G01*
X146049999Y-90100000D01*
G75*
G02*
X145800000Y-89850001I0J249999D01*
G01*
X145800000Y-89149999D01*
G75*
G02*
X146049999Y-88900000I249999J0D01*
G01*
G37*
D14*
X155000000Y-81500000D03*
D15*
X155000000Y-84040000D03*
X152460000Y-81500000D03*
X152460000Y-84040000D03*
X149920000Y-81500000D03*
X149920000Y-84040000D03*
G36*
G01*
X150549999Y-68900000D02*
X151450001Y-68900000D01*
G75*
G02*
X151700000Y-69149999I0J-249999D01*
G01*
X151700000Y-69800001D01*
G75*
G02*
X151450001Y-70050000I-249999J0D01*
G01*
X150549999Y-70050000D01*
G75*
G02*
X150300000Y-69800001I0J249999D01*
G01*
X150300000Y-69149999D01*
G75*
G02*
X150549999Y-68900000I249999J0D01*
G01*
G37*
G36*
G01*
X150549999Y-70950000D02*
X151450001Y-70950000D01*
G75*
G02*
X151700000Y-71199999I0J-249999D01*
G01*
X151700000Y-71850001D01*
G75*
G02*
X151450001Y-72100000I-249999J0D01*
G01*
X150549999Y-72100000D01*
G75*
G02*
X150300000Y-71850001I0J249999D01*
G01*
X150300000Y-71199999D01*
G75*
G02*
X150549999Y-70950000I249999J0D01*
G01*
G37*
G36*
G01*
X150549999Y-73400000D02*
X151450001Y-73400000D01*
G75*
G02*
X151700000Y-73649999I0J-249999D01*
G01*
X151700000Y-74350001D01*
G75*
G02*
X151450001Y-74600000I-249999J0D01*
G01*
X150549999Y-74600000D01*
G75*
G02*
X150300000Y-74350001I0J249999D01*
G01*
X150300000Y-73649999D01*
G75*
G02*
X150549999Y-73400000I249999J0D01*
G01*
G37*
G36*
G01*
X150549999Y-75400000D02*
X151450001Y-75400000D01*
G75*
G02*
X151700000Y-75649999I0J-249999D01*
G01*
X151700000Y-76350001D01*
G75*
G02*
X151450001Y-76600000I-249999J0D01*
G01*
X150549999Y-76600000D01*
G75*
G02*
X150300000Y-76350001I0J249999D01*
G01*
X150300000Y-75649999D01*
G75*
G02*
X150549999Y-75400000I249999J0D01*
G01*
G37*
M02*
