M48
; DRILL file {KiCad 5.1.9+dfsg1-1} date Thu Nov 10 16:02:54 2022
; FORMAT={-:-/ absolute / metric / decimal}
; #@! TF.CreationDate,2022-11-10T16:02:54+09:00
; #@! TF.GenerationSoftware,Kicad,Pcbnew,5.1.9+dfsg1-1
; #@! TF.FileFunction,Plated,1,2,PTH
FMAT,2
METRIC
T1C0.400
T2C0.950
T3C1.000
T4C3.200
%
G90
G05
T1
X155.5Y-68.0
T2
X144.0Y-98.5
X145.5Y-57.0
X145.5Y-59.5
X145.5Y-62.0
X145.5Y-64.5
X146.5Y-98.5
X149.0Y-98.5
X154.5Y-57.0
X154.5Y-59.5
X154.5Y-62.0
X154.5Y-64.5
T3
X149.92Y-81.5
X149.92Y-84.04
X152.46Y-81.5
X152.46Y-84.04
X155.0Y-81.5
X155.0Y-84.04
X156.0Y-96.0
X156.0Y-98.5
T4
X150.0Y-50.0
X150.0Y-105.0
T0
M30
