G04 #@! TF.GenerationSoftware,KiCad,Pcbnew,5.1.9+dfsg1-1*
G04 #@! TF.CreationDate,2023-03-08T14:18:00+09:00*
G04 #@! TF.ProjectId,mid,6d69642e-6b69-4636-9164-5f7063625858,rev?*
G04 #@! TF.SameCoordinates,Original*
G04 #@! TF.FileFunction,Legend,Top*
G04 #@! TF.FilePolarity,Positive*
%FSLAX46Y46*%
G04 Gerber Fmt 4.6, Leading zero omitted, Abs format (unit mm)*
G04 Created by KiCad (PCBNEW 5.1.9+dfsg1-1) date 2023-03-08 14:18:00*
%MOMM*%
%LPD*%
G01*
G04 APERTURE LIST*
%ADD10C,0.150000*%
%ADD11C,5.000000*%
%ADD12C,24.000000*%
%ADD13C,3.500000*%
G04 APERTURE END LIST*
D10*
X196666666Y-112952380D02*
X196666666Y-113666666D01*
X196619047Y-113809523D01*
X196523809Y-113904761D01*
X196380952Y-113952380D01*
X196285714Y-113952380D01*
X197666666Y-113952380D02*
X197095238Y-113952380D01*
X197380952Y-113952380D02*
X197380952Y-112952380D01*
X197285714Y-113095238D01*
X197190476Y-113190476D01*
X197095238Y-113238095D01*
X152666666Y-126952380D02*
X152666666Y-127666666D01*
X152619047Y-127809523D01*
X152523809Y-127904761D01*
X152380952Y-127952380D01*
X152285714Y-127952380D01*
X153095238Y-127047619D02*
X153142857Y-127000000D01*
X153238095Y-126952380D01*
X153476190Y-126952380D01*
X153571428Y-127000000D01*
X153619047Y-127047619D01*
X153666666Y-127142857D01*
X153666666Y-127238095D01*
X153619047Y-127380952D01*
X153047619Y-127952380D01*
X153666666Y-127952380D01*
X188666666Y-126952380D02*
X188666666Y-127666666D01*
X188619047Y-127809523D01*
X188523809Y-127904761D01*
X188380952Y-127952380D01*
X188285714Y-127952380D01*
X189047619Y-126952380D02*
X189666666Y-126952380D01*
X189333333Y-127333333D01*
X189476190Y-127333333D01*
X189571428Y-127380952D01*
X189619047Y-127428571D01*
X189666666Y-127523809D01*
X189666666Y-127761904D01*
X189619047Y-127857142D01*
X189571428Y-127904761D01*
X189476190Y-127952380D01*
X189190476Y-127952380D01*
X189095238Y-127904761D01*
X189047619Y-127857142D01*
X152666666Y-112952380D02*
X152666666Y-113666666D01*
X152619047Y-113809523D01*
X152523809Y-113904761D01*
X152380952Y-113952380D01*
X152285714Y-113952380D01*
X153571428Y-113285714D02*
X153571428Y-113952380D01*
X153333333Y-112904761D02*
X153095238Y-113619047D01*
X153714285Y-113619047D01*
X152916666Y-119952380D02*
X152916666Y-120666666D01*
X152869047Y-120809523D01*
X152773809Y-120904761D01*
X152630952Y-120952380D01*
X152535714Y-120952380D01*
X153869047Y-119952380D02*
X153392857Y-119952380D01*
X153345238Y-120428571D01*
X153392857Y-120380952D01*
X153488095Y-120333333D01*
X153726190Y-120333333D01*
X153821428Y-120380952D01*
X153869047Y-120428571D01*
X153916666Y-120523809D01*
X153916666Y-120761904D01*
X153869047Y-120857142D01*
X153821428Y-120904761D01*
X153726190Y-120952380D01*
X153488095Y-120952380D01*
X153392857Y-120904761D01*
X153345238Y-120857142D01*
X196416666Y-119952380D02*
X196416666Y-120666666D01*
X196369047Y-120809523D01*
X196273809Y-120904761D01*
X196130952Y-120952380D01*
X196035714Y-120952380D01*
X197321428Y-119952380D02*
X197130952Y-119952380D01*
X197035714Y-120000000D01*
X196988095Y-120047619D01*
X196892857Y-120190476D01*
X196845238Y-120380952D01*
X196845238Y-120761904D01*
X196892857Y-120857142D01*
X196940476Y-120904761D01*
X197035714Y-120952380D01*
X197226190Y-120952380D01*
X197321428Y-120904761D01*
X197369047Y-120857142D01*
X197416666Y-120761904D01*
X197416666Y-120523809D01*
X197369047Y-120428571D01*
X197321428Y-120380952D01*
X197226190Y-120333333D01*
X197035714Y-120333333D01*
X196940476Y-120380952D01*
X196892857Y-120428571D01*
X196845238Y-120523809D01*
X160666666Y-126952380D02*
X160666666Y-127666666D01*
X160619047Y-127809523D01*
X160523809Y-127904761D01*
X160380952Y-127952380D01*
X160285714Y-127952380D01*
X161285714Y-127380952D02*
X161190476Y-127333333D01*
X161142857Y-127285714D01*
X161095238Y-127190476D01*
X161095238Y-127142857D01*
X161142857Y-127047619D01*
X161190476Y-127000000D01*
X161285714Y-126952380D01*
X161476190Y-126952380D01*
X161571428Y-127000000D01*
X161619047Y-127047619D01*
X161666666Y-127142857D01*
X161666666Y-127190476D01*
X161619047Y-127285714D01*
X161571428Y-127333333D01*
X161476190Y-127380952D01*
X161285714Y-127380952D01*
X161190476Y-127428571D01*
X161142857Y-127476190D01*
X161095238Y-127571428D01*
X161095238Y-127761904D01*
X161142857Y-127857142D01*
X161190476Y-127904761D01*
X161285714Y-127952380D01*
X161476190Y-127952380D01*
X161571428Y-127904761D01*
X161619047Y-127857142D01*
X161666666Y-127761904D01*
X161666666Y-127571428D01*
X161619047Y-127476190D01*
X161571428Y-127428571D01*
X161476190Y-127380952D01*
X196666666Y-126952380D02*
X196666666Y-127666666D01*
X196619047Y-127809523D01*
X196523809Y-127904761D01*
X196380952Y-127952380D01*
X196285714Y-127952380D01*
X197190476Y-127952380D02*
X197380952Y-127952380D01*
X197476190Y-127904761D01*
X197523809Y-127857142D01*
X197619047Y-127714285D01*
X197666666Y-127523809D01*
X197666666Y-127142857D01*
X197619047Y-127047619D01*
X197571428Y-127000000D01*
X197476190Y-126952380D01*
X197285714Y-126952380D01*
X197190476Y-127000000D01*
X197142857Y-127047619D01*
X197095238Y-127142857D01*
X197095238Y-127380952D01*
X197142857Y-127476190D01*
X197190476Y-127523809D01*
X197285714Y-127571428D01*
X197476190Y-127571428D01*
X197571428Y-127523809D01*
X197619047Y-127476190D01*
X197666666Y-127380952D01*
X174730625Y-120202030D02*
X175235701Y-120707106D01*
X175303045Y-120841793D01*
X175303045Y-120976480D01*
X175235701Y-121111167D01*
X175168358Y-121178510D01*
X174999999Y-119932656D02*
X175471404Y-119461251D01*
X175875465Y-120471404D01*
%LPC*%
D11*
X197000000Y-113000000D03*
X153000000Y-127000000D03*
X189000000Y-127000000D03*
X153000000Y-113000000D03*
X153250000Y-120000000D03*
X196750000Y-120000000D03*
X161000000Y-127000000D03*
X197000000Y-127000000D03*
D12*
X175000000Y-120000000D03*
D13*
X180656854Y-114343146D03*
X169343146Y-114343146D03*
X169343146Y-125656854D03*
X180656854Y-125656854D03*
M02*
