G04 #@! TF.GenerationSoftware,KiCad,Pcbnew,5.1.9+dfsg1-1+deb11u1*
G04 #@! TF.CreationDate,2023-06-30T23:04:53+09:00*
G04 #@! TF.ProjectId,tablet-usb-adapter,7461626c-6574-42d7-9573-622d61646170,rev?*
G04 #@! TF.SameCoordinates,Original*
G04 #@! TF.FileFunction,Copper,L2,Bot*
G04 #@! TF.FilePolarity,Positive*
%FSLAX46Y46*%
G04 Gerber Fmt 4.6, Leading zero omitted, Abs format (unit mm)*
G04 Created by KiCad (PCBNEW 5.1.9+dfsg1-1+deb11u1) date 2023-06-30 23:04:53*
%MOMM*%
%LPD*%
G01*
G04 APERTURE LIST*
G04 #@! TA.AperFunction,ComponentPad*
%ADD10C,5.600000*%
G04 #@! TD*
G04 #@! TA.AperFunction,ComponentPad*
%ADD11R,1.700000X1.700000*%
G04 #@! TD*
G04 #@! TA.AperFunction,ComponentPad*
%ADD12O,1.700000X1.700000*%
G04 #@! TD*
G04 #@! TA.AperFunction,ComponentPad*
%ADD13O,1.700000X1.950000*%
G04 #@! TD*
G04 #@! TA.AperFunction,ComponentPad*
%ADD14C,3.500000*%
G04 #@! TD*
G04 #@! TA.AperFunction,ComponentPad*
%ADD15R,1.524000X1.524000*%
G04 #@! TD*
G04 #@! TA.AperFunction,ComponentPad*
%ADD16C,1.524000*%
G04 #@! TD*
G04 #@! TA.AperFunction,SMDPad,CuDef*
%ADD17R,3.800000X2.000000*%
G04 #@! TD*
G04 #@! TA.AperFunction,SMDPad,CuDef*
%ADD18R,1.500000X2.000000*%
G04 #@! TD*
G04 #@! TA.AperFunction,ComponentPad*
%ADD19R,1.600000X1.600000*%
G04 #@! TD*
G04 #@! TA.AperFunction,ComponentPad*
%ADD20O,1.600000X1.600000*%
G04 #@! TD*
G04 #@! TA.AperFunction,SMDPad,CuDef*
%ADD21R,0.900000X1.200000*%
G04 #@! TD*
G04 #@! TA.AperFunction,SMDPad,CuDef*
%ADD22C,0.100000*%
G04 #@! TD*
G04 #@! TA.AperFunction,ViaPad*
%ADD23C,0.800000*%
G04 #@! TD*
G04 #@! TA.AperFunction,Conductor*
%ADD24C,0.500000*%
G04 #@! TD*
G04 #@! TA.AperFunction,Conductor*
%ADD25C,0.250000*%
G04 #@! TD*
G04 #@! TA.AperFunction,Conductor*
%ADD26C,2.000000*%
G04 #@! TD*
G04 #@! TA.AperFunction,Conductor*
%ADD27C,0.254000*%
G04 #@! TD*
G04 #@! TA.AperFunction,Conductor*
%ADD28C,0.100000*%
G04 #@! TD*
G04 APERTURE END LIST*
D10*
X119000000Y-67500000D03*
X99500000Y-88000000D03*
X144000000Y-88000000D03*
X144000000Y-67500000D03*
X99500000Y-67500000D03*
G04 #@! TA.AperFunction,SMDPad,CuDef*
G36*
G01*
X145100000Y-81049999D02*
X145100000Y-81950001D01*
G75*
G02*
X144850001Y-82200000I-249999J0D01*
G01*
X144149999Y-82200000D01*
G75*
G02*
X143900000Y-81950001I0J249999D01*
G01*
X143900000Y-81049999D01*
G75*
G02*
X144149999Y-80800000I249999J0D01*
G01*
X144850001Y-80800000D01*
G75*
G02*
X145100000Y-81049999I0J-249999D01*
G01*
G37*
G04 #@! TD.AperFunction*
G04 #@! TA.AperFunction,SMDPad,CuDef*
G36*
G01*
X143100000Y-81049999D02*
X143100000Y-81950001D01*
G75*
G02*
X142850001Y-82200000I-249999J0D01*
G01*
X142149999Y-82200000D01*
G75*
G02*
X141900000Y-81950001I0J249999D01*
G01*
X141900000Y-81049999D01*
G75*
G02*
X142149999Y-80800000I249999J0D01*
G01*
X142850001Y-80800000D01*
G75*
G02*
X143100000Y-81049999I0J-249999D01*
G01*
G37*
G04 #@! TD.AperFunction*
G04 #@! TA.AperFunction,SMDPad,CuDef*
G36*
G01*
X134162500Y-78725000D02*
X134162500Y-77775000D01*
G75*
G02*
X134412500Y-77525000I250000J0D01*
G01*
X135087500Y-77525000D01*
G75*
G02*
X135337500Y-77775000I0J-250000D01*
G01*
X135337500Y-78725000D01*
G75*
G02*
X135087500Y-78975000I-250000J0D01*
G01*
X134412500Y-78975000D01*
G75*
G02*
X134162500Y-78725000I0J250000D01*
G01*
G37*
G04 #@! TD.AperFunction*
G04 #@! TA.AperFunction,SMDPad,CuDef*
G36*
G01*
X136237500Y-78725000D02*
X136237500Y-77775000D01*
G75*
G02*
X136487500Y-77525000I250000J0D01*
G01*
X137162500Y-77525000D01*
G75*
G02*
X137412500Y-77775000I0J-250000D01*
G01*
X137412500Y-78725000D01*
G75*
G02*
X137162500Y-78975000I-250000J0D01*
G01*
X136487500Y-78975000D01*
G75*
G02*
X136237500Y-78725000I0J250000D01*
G01*
G37*
G04 #@! TD.AperFunction*
D11*
X98500000Y-81620000D03*
D12*
X98500000Y-79080000D03*
X98500000Y-76540000D03*
X98500000Y-74000000D03*
G04 #@! TA.AperFunction,ComponentPad*
G36*
G01*
X119350000Y-80775000D02*
X119350000Y-82225000D01*
G75*
G02*
X119100000Y-82475000I-250000J0D01*
G01*
X117900000Y-82475000D01*
G75*
G02*
X117650000Y-82225000I0J250000D01*
G01*
X117650000Y-80775000D01*
G75*
G02*
X117900000Y-80525000I250000J0D01*
G01*
X119100000Y-80525000D01*
G75*
G02*
X119350000Y-80775000I0J-250000D01*
G01*
G37*
G04 #@! TD.AperFunction*
D13*
X116000000Y-81500000D03*
X113500000Y-81500000D03*
X111000000Y-81500000D03*
X108500000Y-81500000D03*
X106000000Y-81500000D03*
D14*
X138000000Y-67500000D03*
X124860000Y-67500000D03*
D15*
X127930000Y-70210000D03*
D16*
X130430000Y-70210000D03*
X132430000Y-70210000D03*
X134930000Y-70210000D03*
D17*
X143500000Y-72500000D03*
D18*
X143500000Y-78800000D03*
X141200000Y-78800000D03*
X145800000Y-78800000D03*
G04 #@! TA.AperFunction,SMDPad,CuDef*
G36*
G01*
X143100000Y-83049999D02*
X143100000Y-83950001D01*
G75*
G02*
X142850001Y-84200000I-249999J0D01*
G01*
X142149999Y-84200000D01*
G75*
G02*
X141900000Y-83950001I0J249999D01*
G01*
X141900000Y-83049999D01*
G75*
G02*
X142149999Y-82800000I249999J0D01*
G01*
X142850001Y-82800000D01*
G75*
G02*
X143100000Y-83049999I0J-249999D01*
G01*
G37*
G04 #@! TD.AperFunction*
G04 #@! TA.AperFunction,SMDPad,CuDef*
G36*
G01*
X145100000Y-83049999D02*
X145100000Y-83950001D01*
G75*
G02*
X144850001Y-84200000I-249999J0D01*
G01*
X144149999Y-84200000D01*
G75*
G02*
X143900000Y-83950001I0J249999D01*
G01*
X143900000Y-83049999D01*
G75*
G02*
X144149999Y-82800000I249999J0D01*
G01*
X144850001Y-82800000D01*
G75*
G02*
X145100000Y-83049999I0J-249999D01*
G01*
G37*
G04 #@! TD.AperFunction*
D19*
X138620000Y-81380000D03*
D20*
X131000000Y-89000000D03*
X138620000Y-83920000D03*
X131000000Y-86460000D03*
X138620000Y-86460000D03*
X131000000Y-83920000D03*
X138620000Y-89000000D03*
X131000000Y-81380000D03*
D21*
X129200000Y-78250000D03*
X132500000Y-78250000D03*
D16*
X122920000Y-81500000D03*
X128000000Y-81500000D03*
X122920000Y-86580000D03*
X128000000Y-89120000D03*
G04 #@! TA.AperFunction,SMDPad,CuDef*
D22*
G36*
X124750000Y-77500000D02*
G01*
X125250000Y-77500000D01*
X125250000Y-77500602D01*
X125274534Y-77500602D01*
X125323365Y-77505412D01*
X125371490Y-77514984D01*
X125418445Y-77529228D01*
X125463778Y-77548005D01*
X125507051Y-77571136D01*
X125547850Y-77598396D01*
X125585779Y-77629524D01*
X125620476Y-77664221D01*
X125651604Y-77702150D01*
X125678864Y-77742949D01*
X125701995Y-77786222D01*
X125720772Y-77831555D01*
X125735016Y-77878510D01*
X125744588Y-77926635D01*
X125749398Y-77975466D01*
X125749398Y-78000000D01*
X125750000Y-78000000D01*
X125750000Y-78500000D01*
X125749398Y-78500000D01*
X125749398Y-78524534D01*
X125744588Y-78573365D01*
X125735016Y-78621490D01*
X125720772Y-78668445D01*
X125701995Y-78713778D01*
X125678864Y-78757051D01*
X125651604Y-78797850D01*
X125620476Y-78835779D01*
X125585779Y-78870476D01*
X125547850Y-78901604D01*
X125507051Y-78928864D01*
X125463778Y-78951995D01*
X125418445Y-78970772D01*
X125371490Y-78985016D01*
X125323365Y-78994588D01*
X125274534Y-78999398D01*
X125250000Y-78999398D01*
X125250000Y-79000000D01*
X124750000Y-79000000D01*
X124750000Y-77500000D01*
G37*
G04 #@! TD.AperFunction*
G04 #@! TA.AperFunction,SMDPad,CuDef*
G36*
X123950000Y-78999398D02*
G01*
X123925466Y-78999398D01*
X123876635Y-78994588D01*
X123828510Y-78985016D01*
X123781555Y-78970772D01*
X123736222Y-78951995D01*
X123692949Y-78928864D01*
X123652150Y-78901604D01*
X123614221Y-78870476D01*
X123579524Y-78835779D01*
X123548396Y-78797850D01*
X123521136Y-78757051D01*
X123498005Y-78713778D01*
X123479228Y-78668445D01*
X123464984Y-78621490D01*
X123455412Y-78573365D01*
X123450602Y-78524534D01*
X123450602Y-78500000D01*
X123450000Y-78500000D01*
X123450000Y-78000000D01*
X123450602Y-78000000D01*
X123450602Y-77975466D01*
X123455412Y-77926635D01*
X123464984Y-77878510D01*
X123479228Y-77831555D01*
X123498005Y-77786222D01*
X123521136Y-77742949D01*
X123548396Y-77702150D01*
X123579524Y-77664221D01*
X123614221Y-77629524D01*
X123652150Y-77598396D01*
X123692949Y-77571136D01*
X123736222Y-77548005D01*
X123781555Y-77529228D01*
X123828510Y-77514984D01*
X123876635Y-77505412D01*
X123925466Y-77500602D01*
X123950000Y-77500602D01*
X123950000Y-77500000D01*
X124450000Y-77500000D01*
X124450000Y-79000000D01*
X123950000Y-79000000D01*
X123950000Y-78999398D01*
G37*
G04 #@! TD.AperFunction*
D23*
X128000000Y-84380000D03*
D24*
X98500000Y-76540000D02*
X102040000Y-73000000D01*
X127640000Y-73000000D02*
X130430000Y-70210000D01*
X102040000Y-73000000D02*
X127640000Y-73000000D01*
D25*
X127930000Y-69500000D02*
X127930000Y-69570000D01*
D24*
X98500000Y-81620000D02*
X98500000Y-81500000D01*
X98500000Y-81500000D02*
X106000000Y-74000000D01*
X131140000Y-74000000D02*
X134930000Y-70210000D01*
X106000000Y-74000000D02*
X131140000Y-74000000D01*
D26*
X106000000Y-81500000D02*
X106000000Y-78000000D01*
X106000000Y-78000000D02*
X108000000Y-76000000D01*
X108000000Y-76000000D02*
X116500000Y-76000000D01*
X118500000Y-78000000D02*
X118500000Y-81500000D01*
X116500000Y-76000000D02*
X118500000Y-78000000D01*
D25*
X128000000Y-84380000D02*
X128000000Y-89120000D01*
X131000000Y-81380000D02*
X128000000Y-84380000D01*
X132500000Y-78250000D02*
X134750000Y-78250000D01*
X132500000Y-79880000D02*
X131000000Y-81380000D01*
X132500000Y-78250000D02*
X132500000Y-79880000D01*
X116000000Y-81500000D02*
X116000000Y-82000000D01*
D26*
X108500000Y-81500000D02*
X108500000Y-79500000D01*
X108500000Y-79500000D02*
X109500000Y-78500000D01*
X109500000Y-78500000D02*
X115000000Y-78500000D01*
X116000000Y-79500000D02*
X116000000Y-81500000D01*
X115000000Y-78500000D02*
X116000000Y-79500000D01*
D25*
X143500000Y-76500000D02*
X143500000Y-78800000D01*
X143500000Y-76500000D02*
X143500000Y-72500000D01*
X130950000Y-76500000D02*
X143500000Y-76500000D01*
X129200000Y-78250000D02*
X130950000Y-76500000D01*
X128000000Y-79450000D02*
X129200000Y-78250000D01*
X128000000Y-81500000D02*
X128000000Y-79450000D01*
X123950000Y-78250000D02*
X118950000Y-83250000D01*
X115250000Y-83250000D02*
X113500000Y-81500000D01*
X118950000Y-83250000D02*
X115250000Y-83250000D01*
X111000000Y-81500000D02*
X113750000Y-84250000D01*
X120170000Y-84250000D02*
X122920000Y-81500000D01*
X113750000Y-84250000D02*
X120170000Y-84250000D01*
X125250000Y-79170000D02*
X125250000Y-78250000D01*
X122920000Y-81500000D02*
X125250000Y-79170000D01*
X144500000Y-83500000D02*
X144500000Y-81500000D01*
X145800000Y-80200000D02*
X144500000Y-81500000D01*
X145800000Y-78800000D02*
X145800000Y-80200000D01*
X138620000Y-83920000D02*
X140080000Y-83920000D01*
X140080000Y-83920000D02*
X140500000Y-83500000D01*
X140500000Y-83500000D02*
X142500000Y-83500000D01*
D27*
X139873000Y-66120932D02*
X139669609Y-66009997D01*
X138179605Y-67500000D01*
X139669609Y-68990003D01*
X139873000Y-68879068D01*
X139873000Y-70873000D01*
X136161979Y-70873000D01*
X136252756Y-70679952D01*
X136319023Y-70412865D01*
X136331910Y-70137983D01*
X136290922Y-69865867D01*
X136197636Y-69606977D01*
X136135656Y-69491020D01*
X135895565Y-69424040D01*
X135109605Y-70210000D01*
X135123748Y-70224143D01*
X134944143Y-70403748D01*
X134930000Y-70389605D01*
X134915858Y-70403748D01*
X134736253Y-70224143D01*
X134750395Y-70210000D01*
X133964435Y-69424040D01*
X133724344Y-69491020D01*
X133681782Y-69581533D01*
X133668005Y-69548273D01*
X133515120Y-69319465D01*
X133440090Y-69244435D01*
X134144040Y-69244435D01*
X134930000Y-70030395D01*
X135715960Y-69244435D01*
X135695086Y-69169609D01*
X136509997Y-69169609D01*
X136696073Y-69510766D01*
X137113409Y-69726513D01*
X137564815Y-69856696D01*
X138032946Y-69896313D01*
X138499811Y-69843842D01*
X138947468Y-69701297D01*
X139303927Y-69510766D01*
X139490003Y-69169609D01*
X138000000Y-67679605D01*
X136509997Y-69169609D01*
X135695086Y-69169609D01*
X135648980Y-69004344D01*
X135399952Y-68887244D01*
X135132865Y-68820977D01*
X134857983Y-68808090D01*
X134585867Y-68849078D01*
X134326977Y-68942364D01*
X134211020Y-69004344D01*
X134144040Y-69244435D01*
X133440090Y-69244435D01*
X133320535Y-69124880D01*
X133091727Y-68971995D01*
X132837490Y-68866686D01*
X132567592Y-68813000D01*
X132292408Y-68813000D01*
X132022510Y-68866686D01*
X131768273Y-68971995D01*
X131539465Y-69124880D01*
X131430000Y-69234345D01*
X131320535Y-69124880D01*
X131091727Y-68971995D01*
X130837490Y-68866686D01*
X130567592Y-68813000D01*
X130292408Y-68813000D01*
X130022510Y-68866686D01*
X129768273Y-68971995D01*
X129539465Y-69124880D01*
X129344880Y-69319465D01*
X129320941Y-69355292D01*
X129317812Y-69323518D01*
X129281502Y-69203820D01*
X129222537Y-69093506D01*
X129143185Y-68996815D01*
X129046494Y-68917463D01*
X128936180Y-68858498D01*
X128816482Y-68822188D01*
X128692000Y-68809928D01*
X128251195Y-68809928D01*
X128222246Y-68794454D01*
X128078985Y-68750997D01*
X127930000Y-68736323D01*
X127781014Y-68750997D01*
X127637753Y-68794454D01*
X127608804Y-68809928D01*
X127168000Y-68809928D01*
X127043518Y-68822188D01*
X126923820Y-68858498D01*
X126813506Y-68917463D01*
X126716815Y-68996815D01*
X126637463Y-69093506D01*
X126578498Y-69203820D01*
X126542188Y-69323518D01*
X126529928Y-69448000D01*
X126529928Y-70873000D01*
X123127000Y-70873000D01*
X123127000Y-69169609D01*
X123369997Y-69169609D01*
X123556073Y-69510766D01*
X123973409Y-69726513D01*
X124424815Y-69856696D01*
X124892946Y-69896313D01*
X125359811Y-69843842D01*
X125807468Y-69701297D01*
X126163927Y-69510766D01*
X126350003Y-69169609D01*
X124860000Y-67679605D01*
X123369997Y-69169609D01*
X123127000Y-69169609D01*
X123127000Y-68955428D01*
X123190391Y-68990003D01*
X124680395Y-67500000D01*
X125039605Y-67500000D01*
X126529609Y-68990003D01*
X126870766Y-68803927D01*
X127086513Y-68386591D01*
X127216696Y-67935185D01*
X127250736Y-67532946D01*
X135603687Y-67532946D01*
X135656158Y-67999811D01*
X135798703Y-68447468D01*
X135989234Y-68803927D01*
X136330391Y-68990003D01*
X137820395Y-67500000D01*
X136330391Y-66009997D01*
X135989234Y-66196073D01*
X135773487Y-66613409D01*
X135643304Y-67064815D01*
X135603687Y-67532946D01*
X127250736Y-67532946D01*
X127256313Y-67467054D01*
X127203842Y-67000189D01*
X127061297Y-66552532D01*
X126870766Y-66196073D01*
X126529609Y-66009997D01*
X125039605Y-67500000D01*
X124680395Y-67500000D01*
X123190391Y-66009997D01*
X123127000Y-66044572D01*
X123127000Y-65830391D01*
X123369997Y-65830391D01*
X124860000Y-67320395D01*
X126350003Y-65830391D01*
X136509997Y-65830391D01*
X138000000Y-67320395D01*
X139490003Y-65830391D01*
X139303927Y-65489234D01*
X138886591Y-65273487D01*
X138435185Y-65143304D01*
X137967054Y-65103687D01*
X137500189Y-65156158D01*
X137052532Y-65298703D01*
X136696073Y-65489234D01*
X136509997Y-65830391D01*
X126350003Y-65830391D01*
X126163927Y-65489234D01*
X125746591Y-65273487D01*
X125295185Y-65143304D01*
X124827054Y-65103687D01*
X124360189Y-65156158D01*
X123912532Y-65298703D01*
X123556073Y-65489234D01*
X123369997Y-65830391D01*
X123127000Y-65830391D01*
X123127000Y-64660000D01*
X139873000Y-64660000D01*
X139873000Y-66120932D01*
G04 #@! TA.AperFunction,Conductor*
D28*
G36*
X139873000Y-66120932D02*
G01*
X139669609Y-66009997D01*
X138179605Y-67500000D01*
X139669609Y-68990003D01*
X139873000Y-68879068D01*
X139873000Y-70873000D01*
X136161979Y-70873000D01*
X136252756Y-70679952D01*
X136319023Y-70412865D01*
X136331910Y-70137983D01*
X136290922Y-69865867D01*
X136197636Y-69606977D01*
X136135656Y-69491020D01*
X135895565Y-69424040D01*
X135109605Y-70210000D01*
X135123748Y-70224143D01*
X134944143Y-70403748D01*
X134930000Y-70389605D01*
X134915858Y-70403748D01*
X134736253Y-70224143D01*
X134750395Y-70210000D01*
X133964435Y-69424040D01*
X133724344Y-69491020D01*
X133681782Y-69581533D01*
X133668005Y-69548273D01*
X133515120Y-69319465D01*
X133440090Y-69244435D01*
X134144040Y-69244435D01*
X134930000Y-70030395D01*
X135715960Y-69244435D01*
X135695086Y-69169609D01*
X136509997Y-69169609D01*
X136696073Y-69510766D01*
X137113409Y-69726513D01*
X137564815Y-69856696D01*
X138032946Y-69896313D01*
X138499811Y-69843842D01*
X138947468Y-69701297D01*
X139303927Y-69510766D01*
X139490003Y-69169609D01*
X138000000Y-67679605D01*
X136509997Y-69169609D01*
X135695086Y-69169609D01*
X135648980Y-69004344D01*
X135399952Y-68887244D01*
X135132865Y-68820977D01*
X134857983Y-68808090D01*
X134585867Y-68849078D01*
X134326977Y-68942364D01*
X134211020Y-69004344D01*
X134144040Y-69244435D01*
X133440090Y-69244435D01*
X133320535Y-69124880D01*
X133091727Y-68971995D01*
X132837490Y-68866686D01*
X132567592Y-68813000D01*
X132292408Y-68813000D01*
X132022510Y-68866686D01*
X131768273Y-68971995D01*
X131539465Y-69124880D01*
X131430000Y-69234345D01*
X131320535Y-69124880D01*
X131091727Y-68971995D01*
X130837490Y-68866686D01*
X130567592Y-68813000D01*
X130292408Y-68813000D01*
X130022510Y-68866686D01*
X129768273Y-68971995D01*
X129539465Y-69124880D01*
X129344880Y-69319465D01*
X129320941Y-69355292D01*
X129317812Y-69323518D01*
X129281502Y-69203820D01*
X129222537Y-69093506D01*
X129143185Y-68996815D01*
X129046494Y-68917463D01*
X128936180Y-68858498D01*
X128816482Y-68822188D01*
X128692000Y-68809928D01*
X128251195Y-68809928D01*
X128222246Y-68794454D01*
X128078985Y-68750997D01*
X127930000Y-68736323D01*
X127781014Y-68750997D01*
X127637753Y-68794454D01*
X127608804Y-68809928D01*
X127168000Y-68809928D01*
X127043518Y-68822188D01*
X126923820Y-68858498D01*
X126813506Y-68917463D01*
X126716815Y-68996815D01*
X126637463Y-69093506D01*
X126578498Y-69203820D01*
X126542188Y-69323518D01*
X126529928Y-69448000D01*
X126529928Y-70873000D01*
X123127000Y-70873000D01*
X123127000Y-69169609D01*
X123369997Y-69169609D01*
X123556073Y-69510766D01*
X123973409Y-69726513D01*
X124424815Y-69856696D01*
X124892946Y-69896313D01*
X125359811Y-69843842D01*
X125807468Y-69701297D01*
X126163927Y-69510766D01*
X126350003Y-69169609D01*
X124860000Y-67679605D01*
X123369997Y-69169609D01*
X123127000Y-69169609D01*
X123127000Y-68955428D01*
X123190391Y-68990003D01*
X124680395Y-67500000D01*
X125039605Y-67500000D01*
X126529609Y-68990003D01*
X126870766Y-68803927D01*
X127086513Y-68386591D01*
X127216696Y-67935185D01*
X127250736Y-67532946D01*
X135603687Y-67532946D01*
X135656158Y-67999811D01*
X135798703Y-68447468D01*
X135989234Y-68803927D01*
X136330391Y-68990003D01*
X137820395Y-67500000D01*
X136330391Y-66009997D01*
X135989234Y-66196073D01*
X135773487Y-66613409D01*
X135643304Y-67064815D01*
X135603687Y-67532946D01*
X127250736Y-67532946D01*
X127256313Y-67467054D01*
X127203842Y-67000189D01*
X127061297Y-66552532D01*
X126870766Y-66196073D01*
X126529609Y-66009997D01*
X125039605Y-67500000D01*
X124680395Y-67500000D01*
X123190391Y-66009997D01*
X123127000Y-66044572D01*
X123127000Y-65830391D01*
X123369997Y-65830391D01*
X124860000Y-67320395D01*
X126350003Y-65830391D01*
X136509997Y-65830391D01*
X138000000Y-67320395D01*
X139490003Y-65830391D01*
X139303927Y-65489234D01*
X138886591Y-65273487D01*
X138435185Y-65143304D01*
X137967054Y-65103687D01*
X137500189Y-65156158D01*
X137052532Y-65298703D01*
X136696073Y-65489234D01*
X136509997Y-65830391D01*
X126350003Y-65830391D01*
X126163927Y-65489234D01*
X125746591Y-65273487D01*
X125295185Y-65143304D01*
X124827054Y-65103687D01*
X124360189Y-65156158D01*
X123912532Y-65298703D01*
X123556073Y-65489234D01*
X123369997Y-65830391D01*
X123127000Y-65830391D01*
X123127000Y-64660000D01*
X139873000Y-64660000D01*
X139873000Y-66120932D01*
G37*
G04 #@! TD.AperFunction*
D27*
X116810315Y-64831862D02*
X116331862Y-65310315D01*
X115955943Y-65872918D01*
X115697006Y-66498048D01*
X115565000Y-67161682D01*
X115565000Y-67838318D01*
X115697006Y-68501952D01*
X115955943Y-69127082D01*
X116331862Y-69689685D01*
X116810315Y-70168138D01*
X117372918Y-70544057D01*
X117998048Y-70802994D01*
X118661682Y-70935000D01*
X119338318Y-70935000D01*
X120001952Y-70802994D01*
X120627082Y-70544057D01*
X121189685Y-70168138D01*
X121668138Y-69689685D01*
X121873000Y-69383087D01*
X121873000Y-72000000D01*
X121875440Y-72024776D01*
X121882667Y-72048601D01*
X121894403Y-72070557D01*
X121910197Y-72089803D01*
X121929443Y-72105597D01*
X121947034Y-72115000D01*
X102083466Y-72115000D01*
X102039999Y-72110719D01*
X101996533Y-72115000D01*
X101996523Y-72115000D01*
X101866510Y-72127805D01*
X101699687Y-72178411D01*
X101545941Y-72260589D01*
X101545939Y-72260590D01*
X101545940Y-72260590D01*
X101444953Y-72343468D01*
X101444951Y-72343470D01*
X101411183Y-72371183D01*
X101383470Y-72404951D01*
X99976652Y-73811770D01*
X99927932Y-73566842D01*
X99815990Y-73296589D01*
X99653475Y-73053368D01*
X99446632Y-72846525D01*
X99203411Y-72684010D01*
X98933158Y-72572068D01*
X98646260Y-72515000D01*
X98353740Y-72515000D01*
X98066842Y-72572068D01*
X97796589Y-72684010D01*
X97553368Y-72846525D01*
X97346525Y-73053368D01*
X97184010Y-73296589D01*
X97072068Y-73566842D01*
X97015000Y-73853740D01*
X97015000Y-74146260D01*
X97072068Y-74433158D01*
X97184010Y-74703411D01*
X97346525Y-74946632D01*
X97553368Y-75153475D01*
X97727760Y-75270000D01*
X97553368Y-75386525D01*
X97346525Y-75593368D01*
X97184010Y-75836589D01*
X97072068Y-76106842D01*
X97015000Y-76393740D01*
X97015000Y-76686260D01*
X97072068Y-76973158D01*
X97184010Y-77243411D01*
X97346525Y-77486632D01*
X97553368Y-77693475D01*
X97727760Y-77810000D01*
X97553368Y-77926525D01*
X97346525Y-78133368D01*
X97184010Y-78376589D01*
X97072068Y-78646842D01*
X97015000Y-78933740D01*
X97015000Y-79226260D01*
X97072068Y-79513158D01*
X97184010Y-79783411D01*
X97346525Y-80026632D01*
X97478380Y-80158487D01*
X97405820Y-80180498D01*
X97295506Y-80239463D01*
X97198815Y-80318815D01*
X97119463Y-80415506D01*
X97060498Y-80525820D01*
X97024188Y-80645518D01*
X97011928Y-80770000D01*
X97011928Y-82470000D01*
X97024188Y-82594482D01*
X97060498Y-82714180D01*
X97119463Y-82824494D01*
X97198815Y-82921185D01*
X97295506Y-83000537D01*
X97405820Y-83059502D01*
X97525518Y-83095812D01*
X97650000Y-83108072D01*
X99350000Y-83108072D01*
X99474482Y-83095812D01*
X99594180Y-83059502D01*
X99704494Y-83000537D01*
X99801185Y-82921185D01*
X99880537Y-82824494D01*
X99939502Y-82714180D01*
X99975812Y-82594482D01*
X99988072Y-82470000D01*
X99988072Y-81263506D01*
X106366579Y-74885000D01*
X106799949Y-74885000D01*
X106787080Y-74900682D01*
X104900682Y-76787080D01*
X104838287Y-76838286D01*
X104665511Y-77048815D01*
X104633970Y-77087248D01*
X104482148Y-77371286D01*
X104388658Y-77679484D01*
X104357089Y-78000000D01*
X104365001Y-78080329D01*
X104365000Y-81580321D01*
X104388657Y-81820515D01*
X104482148Y-82128714D01*
X104633969Y-82412751D01*
X104838286Y-82661714D01*
X105087248Y-82866031D01*
X105371285Y-83017852D01*
X105679484Y-83111343D01*
X106000000Y-83142911D01*
X106320515Y-83111343D01*
X106628714Y-83017852D01*
X106912751Y-82866031D01*
X107161714Y-82661714D01*
X107301950Y-82490836D01*
X107410951Y-82634429D01*
X107628807Y-82827496D01*
X107880142Y-82974352D01*
X108143110Y-83066476D01*
X108373000Y-82945155D01*
X108373000Y-81627000D01*
X108353000Y-81627000D01*
X108353000Y-81373000D01*
X108373000Y-81373000D01*
X108373000Y-80054845D01*
X108143110Y-79933524D01*
X107880142Y-80025648D01*
X107635000Y-80168885D01*
X107635000Y-78677238D01*
X108677239Y-77635000D01*
X115822762Y-77635000D01*
X116865000Y-78677239D01*
X116865001Y-80168886D01*
X116619858Y-80025648D01*
X116356890Y-79933524D01*
X116127000Y-80054845D01*
X116127000Y-81373000D01*
X116147000Y-81373000D01*
X116147000Y-81627000D01*
X116127000Y-81627000D01*
X116127000Y-81647000D01*
X115873000Y-81647000D01*
X115873000Y-81627000D01*
X115853000Y-81627000D01*
X115853000Y-81373000D01*
X115873000Y-81373000D01*
X115873000Y-80054845D01*
X115643110Y-79933524D01*
X115380142Y-80025648D01*
X115128807Y-80172504D01*
X114910951Y-80365571D01*
X114754462Y-80571722D01*
X114740706Y-80545986D01*
X114555134Y-80319866D01*
X114329014Y-80134294D01*
X114071034Y-79996401D01*
X113791111Y-79911487D01*
X113500000Y-79882815D01*
X113208890Y-79911487D01*
X112928967Y-79996401D01*
X112670987Y-80134294D01*
X112444866Y-80319866D01*
X112259294Y-80545986D01*
X112250000Y-80563374D01*
X112240706Y-80545986D01*
X112055134Y-80319866D01*
X111829014Y-80134294D01*
X111571034Y-79996401D01*
X111291111Y-79911487D01*
X111000000Y-79882815D01*
X110708890Y-79911487D01*
X110428967Y-79996401D01*
X110170987Y-80134294D01*
X109944866Y-80319866D01*
X109759294Y-80545986D01*
X109745538Y-80571722D01*
X109589049Y-80365571D01*
X109371193Y-80172504D01*
X109119858Y-80025648D01*
X108856890Y-79933524D01*
X108627000Y-80054845D01*
X108627000Y-81373000D01*
X108647000Y-81373000D01*
X108647000Y-81627000D01*
X108627000Y-81627000D01*
X108627000Y-82945155D01*
X108856890Y-83066476D01*
X109119858Y-82974352D01*
X109371193Y-82827496D01*
X109589049Y-82634429D01*
X109745538Y-82428278D01*
X109759294Y-82454013D01*
X109944866Y-82680134D01*
X110170986Y-82865706D01*
X110428966Y-83003599D01*
X110708889Y-83088513D01*
X111000000Y-83117185D01*
X111291110Y-83088513D01*
X111461902Y-83036704D01*
X113186201Y-84761003D01*
X113209999Y-84790001D01*
X113325724Y-84884974D01*
X113457753Y-84955546D01*
X113601014Y-84999003D01*
X113712667Y-85010000D01*
X113712676Y-85010000D01*
X113749999Y-85013676D01*
X113787322Y-85010000D01*
X120132678Y-85010000D01*
X120170000Y-85013676D01*
X120207322Y-85010000D01*
X120207333Y-85010000D01*
X120318986Y-84999003D01*
X120462247Y-84955546D01*
X120594276Y-84884974D01*
X120710001Y-84790001D01*
X120733804Y-84760997D01*
X122628430Y-82866372D01*
X122782408Y-82897000D01*
X123057592Y-82897000D01*
X123327490Y-82843314D01*
X123581727Y-82738005D01*
X123810535Y-82585120D01*
X124005120Y-82390535D01*
X124158005Y-82161727D01*
X124263314Y-81907490D01*
X124317000Y-81637592D01*
X124317000Y-81362408D01*
X124286372Y-81208430D01*
X125761004Y-79733798D01*
X125790001Y-79710001D01*
X125884974Y-79594276D01*
X125955546Y-79462247D01*
X125985025Y-79365065D01*
X126018382Y-79337690D01*
X126087690Y-79268382D01*
X126167042Y-79171691D01*
X126221498Y-79090192D01*
X126280464Y-78979875D01*
X126317973Y-78889319D01*
X126354282Y-78769623D01*
X126373404Y-78673490D01*
X126385664Y-78549009D01*
X126385664Y-78524450D01*
X126388072Y-78500000D01*
X126388072Y-78000000D01*
X126385664Y-77975550D01*
X126385664Y-77950991D01*
X126373404Y-77826510D01*
X126354282Y-77730377D01*
X126317973Y-77610681D01*
X126280464Y-77520125D01*
X126221498Y-77409808D01*
X126167042Y-77328309D01*
X126087690Y-77231618D01*
X126018382Y-77162310D01*
X125921691Y-77082958D01*
X125840192Y-77028502D01*
X125729875Y-76969536D01*
X125639319Y-76932027D01*
X125519623Y-76895718D01*
X125423490Y-76876596D01*
X125299009Y-76864336D01*
X125274450Y-76864336D01*
X125250000Y-76861928D01*
X124750000Y-76861928D01*
X124625518Y-76874188D01*
X124600000Y-76881929D01*
X124574482Y-76874188D01*
X124450000Y-76861928D01*
X123950000Y-76861928D01*
X123925550Y-76864336D01*
X123900991Y-76864336D01*
X123776510Y-76876596D01*
X123680377Y-76895718D01*
X123560681Y-76932027D01*
X123470125Y-76969536D01*
X123359808Y-77028502D01*
X123278309Y-77082958D01*
X123181618Y-77162310D01*
X123112310Y-77231618D01*
X123032958Y-77328309D01*
X122978502Y-77409808D01*
X122919536Y-77520125D01*
X122882027Y-77610681D01*
X122845718Y-77730377D01*
X122826596Y-77826510D01*
X122814336Y-77950991D01*
X122814336Y-77975550D01*
X122811928Y-78000000D01*
X122811928Y-78313270D01*
X120135000Y-80990199D01*
X120135000Y-78080319D01*
X120142911Y-77999999D01*
X120128727Y-77855990D01*
X120111343Y-77679484D01*
X120017852Y-77371285D01*
X119866031Y-77087248D01*
X119661714Y-76838286D01*
X119599320Y-76787081D01*
X117712925Y-74900687D01*
X117700051Y-74885000D01*
X131096531Y-74885000D01*
X131140000Y-74889281D01*
X131183469Y-74885000D01*
X131183477Y-74885000D01*
X131313490Y-74872195D01*
X131480313Y-74821589D01*
X131634059Y-74739411D01*
X131768817Y-74628817D01*
X131796534Y-74595044D01*
X134264579Y-72127000D01*
X140961928Y-72127000D01*
X140961928Y-73500000D01*
X140974188Y-73624482D01*
X141010498Y-73744180D01*
X141069463Y-73854494D01*
X141148815Y-73951185D01*
X141245506Y-74030537D01*
X141355820Y-74089502D01*
X141475518Y-74125812D01*
X141600000Y-74138072D01*
X142740001Y-74138072D01*
X142740000Y-75740000D01*
X130987325Y-75740000D01*
X130950000Y-75736324D01*
X130912675Y-75740000D01*
X130912667Y-75740000D01*
X130801014Y-75750997D01*
X130657753Y-75794454D01*
X130525724Y-75865026D01*
X130409999Y-75959999D01*
X130386201Y-75988997D01*
X129363271Y-77011928D01*
X128750000Y-77011928D01*
X128625518Y-77024188D01*
X128505820Y-77060498D01*
X128395506Y-77119463D01*
X128298815Y-77198815D01*
X128219463Y-77295506D01*
X128160498Y-77405820D01*
X128124188Y-77525518D01*
X128111928Y-77650000D01*
X128111928Y-78263270D01*
X127488998Y-78886201D01*
X127460000Y-78909999D01*
X127436202Y-78938997D01*
X127436201Y-78938998D01*
X127365026Y-79025724D01*
X127294454Y-79157754D01*
X127250998Y-79301015D01*
X127236324Y-79450000D01*
X127240001Y-79487332D01*
X127240001Y-80327659D01*
X127109465Y-80414880D01*
X126914880Y-80609465D01*
X126761995Y-80838273D01*
X126656686Y-81092510D01*
X126603000Y-81362408D01*
X126603000Y-81637592D01*
X126656686Y-81907490D01*
X126761995Y-82161727D01*
X126914880Y-82390535D01*
X127109465Y-82585120D01*
X127338273Y-82738005D01*
X127592510Y-82843314D01*
X127862408Y-82897000D01*
X128137592Y-82897000D01*
X128407490Y-82843314D01*
X128500348Y-82804851D01*
X127960199Y-83345000D01*
X127898061Y-83345000D01*
X127698102Y-83384774D01*
X127509744Y-83462795D01*
X127340226Y-83576063D01*
X127196063Y-83720226D01*
X127082795Y-83889744D01*
X127004774Y-84078102D01*
X126965000Y-84278061D01*
X126965000Y-84481939D01*
X127004774Y-84681898D01*
X127082795Y-84870256D01*
X127196063Y-85039774D01*
X127240000Y-85083711D01*
X127240001Y-87947659D01*
X127109465Y-88034880D01*
X126914880Y-88229465D01*
X126761995Y-88458273D01*
X126656686Y-88712510D01*
X126603000Y-88982408D01*
X126603000Y-89257592D01*
X126656686Y-89527490D01*
X126761995Y-89781727D01*
X126914880Y-90010535D01*
X127109465Y-90205120D01*
X127338273Y-90358005D01*
X127592510Y-90463314D01*
X127862408Y-90517000D01*
X128137592Y-90517000D01*
X128407490Y-90463314D01*
X128661727Y-90358005D01*
X128890535Y-90205120D01*
X129085120Y-90010535D01*
X129238005Y-89781727D01*
X129343314Y-89527490D01*
X129397000Y-89257592D01*
X129397000Y-88982408D01*
X129343314Y-88712510D01*
X129238005Y-88458273D01*
X129085120Y-88229465D01*
X128890535Y-88034880D01*
X128760000Y-87947659D01*
X128760000Y-85083711D01*
X128803937Y-85039774D01*
X128917205Y-84870256D01*
X128995226Y-84681898D01*
X129035000Y-84481939D01*
X129035000Y-84419801D01*
X129565000Y-83889801D01*
X129565000Y-84061335D01*
X129620147Y-84338574D01*
X129728320Y-84599727D01*
X129885363Y-84834759D01*
X130085241Y-85034637D01*
X130317759Y-85190000D01*
X130085241Y-85345363D01*
X129885363Y-85545241D01*
X129728320Y-85780273D01*
X129620147Y-86041426D01*
X129565000Y-86318665D01*
X129565000Y-86601335D01*
X129620147Y-86878574D01*
X129728320Y-87139727D01*
X129885363Y-87374759D01*
X130085241Y-87574637D01*
X130317759Y-87730000D01*
X130085241Y-87885363D01*
X129885363Y-88085241D01*
X129728320Y-88320273D01*
X129620147Y-88581426D01*
X129565000Y-88858665D01*
X129565000Y-89141335D01*
X129620147Y-89418574D01*
X129728320Y-89679727D01*
X129885363Y-89914759D01*
X130085241Y-90114637D01*
X130320273Y-90271680D01*
X130581426Y-90379853D01*
X130858665Y-90435000D01*
X131141335Y-90435000D01*
X131418574Y-90379853D01*
X131679727Y-90271680D01*
X131914759Y-90114637D01*
X132114637Y-89914759D01*
X132271680Y-89679727D01*
X132379853Y-89418574D01*
X132393684Y-89349039D01*
X137228096Y-89349039D01*
X137268754Y-89483087D01*
X137388963Y-89737420D01*
X137556481Y-89963414D01*
X137764869Y-90152385D01*
X138006119Y-90297070D01*
X138270960Y-90391909D01*
X138493000Y-90270624D01*
X138493000Y-89127000D01*
X138747000Y-89127000D01*
X138747000Y-90270624D01*
X138969040Y-90391909D01*
X139233881Y-90297070D01*
X139475131Y-90152385D01*
X139683519Y-89963414D01*
X139851037Y-89737420D01*
X139971246Y-89483087D01*
X140011904Y-89349039D01*
X139889915Y-89127000D01*
X138747000Y-89127000D01*
X138493000Y-89127000D01*
X137350085Y-89127000D01*
X137228096Y-89349039D01*
X132393684Y-89349039D01*
X132435000Y-89141335D01*
X132435000Y-88858665D01*
X132379853Y-88581426D01*
X132271680Y-88320273D01*
X132114637Y-88085241D01*
X131914759Y-87885363D01*
X131682241Y-87730000D01*
X131914759Y-87574637D01*
X132114637Y-87374759D01*
X132271680Y-87139727D01*
X132379853Y-86878574D01*
X132435000Y-86601335D01*
X132435000Y-86318665D01*
X132379853Y-86041426D01*
X132271680Y-85780273D01*
X132114637Y-85545241D01*
X131914759Y-85345363D01*
X131682241Y-85190000D01*
X131914759Y-85034637D01*
X132114637Y-84834759D01*
X132271680Y-84599727D01*
X132379853Y-84338574D01*
X132435000Y-84061335D01*
X132435000Y-83778665D01*
X132379853Y-83501426D01*
X132271680Y-83240273D01*
X132114637Y-83005241D01*
X131914759Y-82805363D01*
X131682241Y-82650000D01*
X131914759Y-82494637D01*
X132114637Y-82294759D01*
X132271680Y-82059727D01*
X132379853Y-81798574D01*
X132435000Y-81521335D01*
X132435000Y-81238665D01*
X132398688Y-81056114D01*
X133011003Y-80443799D01*
X133040001Y-80420001D01*
X133134974Y-80304276D01*
X133205546Y-80172247D01*
X133249003Y-80028986D01*
X133260000Y-79917333D01*
X133260000Y-79917324D01*
X133263676Y-79880001D01*
X133260000Y-79842678D01*
X133260000Y-79800000D01*
X139811928Y-79800000D01*
X139824188Y-79924482D01*
X139860498Y-80044180D01*
X139919463Y-80154494D01*
X139998815Y-80251185D01*
X140095506Y-80330537D01*
X140205820Y-80389502D01*
X140325518Y-80425812D01*
X140450000Y-80438072D01*
X140914250Y-80435000D01*
X141073000Y-80276250D01*
X141073000Y-78927000D01*
X139973750Y-78927000D01*
X139815000Y-79085750D01*
X139811928Y-79800000D01*
X133260000Y-79800000D01*
X133260000Y-79404320D01*
X133304494Y-79380537D01*
X133401185Y-79301185D01*
X133480537Y-79204494D01*
X133539502Y-79094180D01*
X133565038Y-79010000D01*
X133575390Y-79010000D01*
X133592028Y-79064850D01*
X133674095Y-79218386D01*
X133784538Y-79352962D01*
X133919114Y-79463405D01*
X134072650Y-79545472D01*
X134239246Y-79596008D01*
X134412500Y-79613072D01*
X135087500Y-79613072D01*
X135260754Y-79596008D01*
X135427350Y-79545472D01*
X135580886Y-79463405D01*
X135715462Y-79352962D01*
X135720842Y-79346406D01*
X135786315Y-79426185D01*
X135883006Y-79505537D01*
X135993320Y-79564502D01*
X136113018Y-79600812D01*
X136237500Y-79613072D01*
X136539250Y-79610000D01*
X136698000Y-79451250D01*
X136698000Y-78377000D01*
X136952000Y-78377000D01*
X136952000Y-79451250D01*
X137110750Y-79610000D01*
X137412500Y-79613072D01*
X137536982Y-79600812D01*
X137656680Y-79564502D01*
X137766994Y-79505537D01*
X137863685Y-79426185D01*
X137943037Y-79329494D01*
X138002002Y-79219180D01*
X138038312Y-79099482D01*
X138050572Y-78975000D01*
X138047500Y-78535750D01*
X137888750Y-78377000D01*
X136952000Y-78377000D01*
X136698000Y-78377000D01*
X136678000Y-78377000D01*
X136678000Y-78123000D01*
X136698000Y-78123000D01*
X136698000Y-78103000D01*
X136952000Y-78103000D01*
X136952000Y-78123000D01*
X137888750Y-78123000D01*
X138047500Y-77964250D01*
X138050572Y-77525000D01*
X138038312Y-77400518D01*
X138002002Y-77280820D01*
X137990873Y-77260000D01*
X140113210Y-77260000D01*
X140095506Y-77269463D01*
X139998815Y-77348815D01*
X139919463Y-77445506D01*
X139860498Y-77555820D01*
X139824188Y-77675518D01*
X139811928Y-77800000D01*
X139815000Y-78514250D01*
X139973750Y-78673000D01*
X141073000Y-78673000D01*
X141073000Y-78653000D01*
X141327000Y-78653000D01*
X141327000Y-78673000D01*
X141347000Y-78673000D01*
X141347000Y-78927000D01*
X141327000Y-78927000D01*
X141327000Y-80276250D01*
X141426615Y-80375865D01*
X141369463Y-80445506D01*
X141310498Y-80555820D01*
X141274188Y-80675518D01*
X141261928Y-80800000D01*
X141265000Y-81214250D01*
X141423750Y-81373000D01*
X142373000Y-81373000D01*
X142373000Y-81353000D01*
X142627000Y-81353000D01*
X142627000Y-81373000D01*
X142647000Y-81373000D01*
X142647000Y-81627000D01*
X142627000Y-81627000D01*
X142627000Y-81647000D01*
X142373000Y-81647000D01*
X142373000Y-81627000D01*
X141423750Y-81627000D01*
X141265000Y-81785750D01*
X141261928Y-82200000D01*
X141274188Y-82324482D01*
X141310498Y-82444180D01*
X141369463Y-82554494D01*
X141395663Y-82586419D01*
X141329528Y-82710149D01*
X141320473Y-82740000D01*
X140537325Y-82740000D01*
X140500000Y-82736324D01*
X140462675Y-82740000D01*
X140462667Y-82740000D01*
X140351014Y-82750997D01*
X140207753Y-82794454D01*
X140075724Y-82865026D01*
X139959999Y-82959999D01*
X139936196Y-82989003D01*
X139808866Y-83116333D01*
X139734637Y-83005241D01*
X139536039Y-82806643D01*
X139544482Y-82805812D01*
X139664180Y-82769502D01*
X139774494Y-82710537D01*
X139871185Y-82631185D01*
X139950537Y-82534494D01*
X140009502Y-82424180D01*
X140045812Y-82304482D01*
X140058072Y-82180000D01*
X140058072Y-80580000D01*
X140045812Y-80455518D01*
X140009502Y-80335820D01*
X139950537Y-80225506D01*
X139871185Y-80128815D01*
X139774494Y-80049463D01*
X139664180Y-79990498D01*
X139544482Y-79954188D01*
X139420000Y-79941928D01*
X137820000Y-79941928D01*
X137695518Y-79954188D01*
X137575820Y-79990498D01*
X137465506Y-80049463D01*
X137368815Y-80128815D01*
X137289463Y-80225506D01*
X137230498Y-80335820D01*
X137194188Y-80455518D01*
X137181928Y-80580000D01*
X137181928Y-82180000D01*
X137194188Y-82304482D01*
X137230498Y-82424180D01*
X137289463Y-82534494D01*
X137368815Y-82631185D01*
X137465506Y-82710537D01*
X137575820Y-82769502D01*
X137695518Y-82805812D01*
X137703961Y-82806643D01*
X137505363Y-83005241D01*
X137348320Y-83240273D01*
X137240147Y-83501426D01*
X137185000Y-83778665D01*
X137185000Y-84061335D01*
X137240147Y-84338574D01*
X137348320Y-84599727D01*
X137505363Y-84834759D01*
X137705241Y-85034637D01*
X137937759Y-85190000D01*
X137705241Y-85345363D01*
X137505363Y-85545241D01*
X137348320Y-85780273D01*
X137240147Y-86041426D01*
X137185000Y-86318665D01*
X137185000Y-86601335D01*
X137240147Y-86878574D01*
X137348320Y-87139727D01*
X137505363Y-87374759D01*
X137705241Y-87574637D01*
X137940273Y-87731680D01*
X137950865Y-87736067D01*
X137764869Y-87847615D01*
X137556481Y-88036586D01*
X137388963Y-88262580D01*
X137268754Y-88516913D01*
X137228096Y-88650961D01*
X137350085Y-88873000D01*
X138493000Y-88873000D01*
X138493000Y-88853000D01*
X138747000Y-88853000D01*
X138747000Y-88873000D01*
X139889915Y-88873000D01*
X140011904Y-88650961D01*
X139971246Y-88516913D01*
X139851037Y-88262580D01*
X139683519Y-88036586D01*
X139475131Y-87847615D01*
X139289135Y-87736067D01*
X139299727Y-87731680D01*
X139534759Y-87574637D01*
X139734637Y-87374759D01*
X139891680Y-87139727D01*
X139999853Y-86878574D01*
X140055000Y-86601335D01*
X140055000Y-86318665D01*
X139999853Y-86041426D01*
X139891680Y-85780273D01*
X139734637Y-85545241D01*
X139534759Y-85345363D01*
X139302241Y-85190000D01*
X139534759Y-85034637D01*
X139734637Y-84834759D01*
X139838043Y-84680000D01*
X140042678Y-84680000D01*
X140080000Y-84683676D01*
X140117322Y-84680000D01*
X140117333Y-84680000D01*
X140228986Y-84669003D01*
X140372247Y-84625546D01*
X140504276Y-84554974D01*
X140620001Y-84460001D01*
X140643804Y-84430997D01*
X140814801Y-84260000D01*
X141320473Y-84260000D01*
X141329528Y-84289851D01*
X141411595Y-84443387D01*
X141522038Y-84577962D01*
X141656613Y-84688405D01*
X141810149Y-84770472D01*
X141976745Y-84821008D01*
X142149999Y-84838072D01*
X142657484Y-84838072D01*
X142372918Y-84955943D01*
X141810315Y-85331862D01*
X141331862Y-85810315D01*
X140955943Y-86372918D01*
X140697006Y-86998048D01*
X140565000Y-87661682D01*
X140565000Y-88338318D01*
X140697006Y-89001952D01*
X140955943Y-89627082D01*
X141331862Y-90189685D01*
X141810315Y-90668138D01*
X142067525Y-90840000D01*
X101432475Y-90840000D01*
X101689685Y-90668138D01*
X102168138Y-90189685D01*
X102544057Y-89627082D01*
X102802994Y-89001952D01*
X102935000Y-88338318D01*
X102935000Y-87661682D01*
X102802994Y-86998048D01*
X102572841Y-86442408D01*
X121523000Y-86442408D01*
X121523000Y-86717592D01*
X121576686Y-86987490D01*
X121681995Y-87241727D01*
X121834880Y-87470535D01*
X122029465Y-87665120D01*
X122258273Y-87818005D01*
X122512510Y-87923314D01*
X122782408Y-87977000D01*
X123057592Y-87977000D01*
X123327490Y-87923314D01*
X123581727Y-87818005D01*
X123810535Y-87665120D01*
X124005120Y-87470535D01*
X124158005Y-87241727D01*
X124263314Y-86987490D01*
X124317000Y-86717592D01*
X124317000Y-86442408D01*
X124263314Y-86172510D01*
X124158005Y-85918273D01*
X124005120Y-85689465D01*
X123810535Y-85494880D01*
X123581727Y-85341995D01*
X123327490Y-85236686D01*
X123057592Y-85183000D01*
X122782408Y-85183000D01*
X122512510Y-85236686D01*
X122258273Y-85341995D01*
X122029465Y-85494880D01*
X121834880Y-85689465D01*
X121681995Y-85918273D01*
X121576686Y-86172510D01*
X121523000Y-86442408D01*
X102572841Y-86442408D01*
X102544057Y-86372918D01*
X102168138Y-85810315D01*
X101689685Y-85331862D01*
X101127082Y-84955943D01*
X100501952Y-84697006D01*
X99838318Y-84565000D01*
X99161682Y-84565000D01*
X98498048Y-84697006D01*
X97872918Y-84955943D01*
X97310315Y-85331862D01*
X96831862Y-85810315D01*
X96660000Y-86067525D01*
X96660000Y-69432475D01*
X96831862Y-69689685D01*
X97310315Y-70168138D01*
X97872918Y-70544057D01*
X98498048Y-70802994D01*
X99161682Y-70935000D01*
X99838318Y-70935000D01*
X100501952Y-70802994D01*
X101127082Y-70544057D01*
X101689685Y-70168138D01*
X102168138Y-69689685D01*
X102544057Y-69127082D01*
X102802994Y-68501952D01*
X102935000Y-67838318D01*
X102935000Y-67161682D01*
X102802994Y-66498048D01*
X102544057Y-65872918D01*
X102168138Y-65310315D01*
X101689685Y-64831862D01*
X101432475Y-64660000D01*
X117067525Y-64660000D01*
X116810315Y-64831862D01*
G04 #@! TA.AperFunction,Conductor*
D28*
G36*
X116810315Y-64831862D02*
G01*
X116331862Y-65310315D01*
X115955943Y-65872918D01*
X115697006Y-66498048D01*
X115565000Y-67161682D01*
X115565000Y-67838318D01*
X115697006Y-68501952D01*
X115955943Y-69127082D01*
X116331862Y-69689685D01*
X116810315Y-70168138D01*
X117372918Y-70544057D01*
X117998048Y-70802994D01*
X118661682Y-70935000D01*
X119338318Y-70935000D01*
X120001952Y-70802994D01*
X120627082Y-70544057D01*
X121189685Y-70168138D01*
X121668138Y-69689685D01*
X121873000Y-69383087D01*
X121873000Y-72000000D01*
X121875440Y-72024776D01*
X121882667Y-72048601D01*
X121894403Y-72070557D01*
X121910197Y-72089803D01*
X121929443Y-72105597D01*
X121947034Y-72115000D01*
X102083466Y-72115000D01*
X102039999Y-72110719D01*
X101996533Y-72115000D01*
X101996523Y-72115000D01*
X101866510Y-72127805D01*
X101699687Y-72178411D01*
X101545941Y-72260589D01*
X101545939Y-72260590D01*
X101545940Y-72260590D01*
X101444953Y-72343468D01*
X101444951Y-72343470D01*
X101411183Y-72371183D01*
X101383470Y-72404951D01*
X99976652Y-73811770D01*
X99927932Y-73566842D01*
X99815990Y-73296589D01*
X99653475Y-73053368D01*
X99446632Y-72846525D01*
X99203411Y-72684010D01*
X98933158Y-72572068D01*
X98646260Y-72515000D01*
X98353740Y-72515000D01*
X98066842Y-72572068D01*
X97796589Y-72684010D01*
X97553368Y-72846525D01*
X97346525Y-73053368D01*
X97184010Y-73296589D01*
X97072068Y-73566842D01*
X97015000Y-73853740D01*
X97015000Y-74146260D01*
X97072068Y-74433158D01*
X97184010Y-74703411D01*
X97346525Y-74946632D01*
X97553368Y-75153475D01*
X97727760Y-75270000D01*
X97553368Y-75386525D01*
X97346525Y-75593368D01*
X97184010Y-75836589D01*
X97072068Y-76106842D01*
X97015000Y-76393740D01*
X97015000Y-76686260D01*
X97072068Y-76973158D01*
X97184010Y-77243411D01*
X97346525Y-77486632D01*
X97553368Y-77693475D01*
X97727760Y-77810000D01*
X97553368Y-77926525D01*
X97346525Y-78133368D01*
X97184010Y-78376589D01*
X97072068Y-78646842D01*
X97015000Y-78933740D01*
X97015000Y-79226260D01*
X97072068Y-79513158D01*
X97184010Y-79783411D01*
X97346525Y-80026632D01*
X97478380Y-80158487D01*
X97405820Y-80180498D01*
X97295506Y-80239463D01*
X97198815Y-80318815D01*
X97119463Y-80415506D01*
X97060498Y-80525820D01*
X97024188Y-80645518D01*
X97011928Y-80770000D01*
X97011928Y-82470000D01*
X97024188Y-82594482D01*
X97060498Y-82714180D01*
X97119463Y-82824494D01*
X97198815Y-82921185D01*
X97295506Y-83000537D01*
X97405820Y-83059502D01*
X97525518Y-83095812D01*
X97650000Y-83108072D01*
X99350000Y-83108072D01*
X99474482Y-83095812D01*
X99594180Y-83059502D01*
X99704494Y-83000537D01*
X99801185Y-82921185D01*
X99880537Y-82824494D01*
X99939502Y-82714180D01*
X99975812Y-82594482D01*
X99988072Y-82470000D01*
X99988072Y-81263506D01*
X106366579Y-74885000D01*
X106799949Y-74885000D01*
X106787080Y-74900682D01*
X104900682Y-76787080D01*
X104838287Y-76838286D01*
X104665511Y-77048815D01*
X104633970Y-77087248D01*
X104482148Y-77371286D01*
X104388658Y-77679484D01*
X104357089Y-78000000D01*
X104365001Y-78080329D01*
X104365000Y-81580321D01*
X104388657Y-81820515D01*
X104482148Y-82128714D01*
X104633969Y-82412751D01*
X104838286Y-82661714D01*
X105087248Y-82866031D01*
X105371285Y-83017852D01*
X105679484Y-83111343D01*
X106000000Y-83142911D01*
X106320515Y-83111343D01*
X106628714Y-83017852D01*
X106912751Y-82866031D01*
X107161714Y-82661714D01*
X107301950Y-82490836D01*
X107410951Y-82634429D01*
X107628807Y-82827496D01*
X107880142Y-82974352D01*
X108143110Y-83066476D01*
X108373000Y-82945155D01*
X108373000Y-81627000D01*
X108353000Y-81627000D01*
X108353000Y-81373000D01*
X108373000Y-81373000D01*
X108373000Y-80054845D01*
X108143110Y-79933524D01*
X107880142Y-80025648D01*
X107635000Y-80168885D01*
X107635000Y-78677238D01*
X108677239Y-77635000D01*
X115822762Y-77635000D01*
X116865000Y-78677239D01*
X116865001Y-80168886D01*
X116619858Y-80025648D01*
X116356890Y-79933524D01*
X116127000Y-80054845D01*
X116127000Y-81373000D01*
X116147000Y-81373000D01*
X116147000Y-81627000D01*
X116127000Y-81627000D01*
X116127000Y-81647000D01*
X115873000Y-81647000D01*
X115873000Y-81627000D01*
X115853000Y-81627000D01*
X115853000Y-81373000D01*
X115873000Y-81373000D01*
X115873000Y-80054845D01*
X115643110Y-79933524D01*
X115380142Y-80025648D01*
X115128807Y-80172504D01*
X114910951Y-80365571D01*
X114754462Y-80571722D01*
X114740706Y-80545986D01*
X114555134Y-80319866D01*
X114329014Y-80134294D01*
X114071034Y-79996401D01*
X113791111Y-79911487D01*
X113500000Y-79882815D01*
X113208890Y-79911487D01*
X112928967Y-79996401D01*
X112670987Y-80134294D01*
X112444866Y-80319866D01*
X112259294Y-80545986D01*
X112250000Y-80563374D01*
X112240706Y-80545986D01*
X112055134Y-80319866D01*
X111829014Y-80134294D01*
X111571034Y-79996401D01*
X111291111Y-79911487D01*
X111000000Y-79882815D01*
X110708890Y-79911487D01*
X110428967Y-79996401D01*
X110170987Y-80134294D01*
X109944866Y-80319866D01*
X109759294Y-80545986D01*
X109745538Y-80571722D01*
X109589049Y-80365571D01*
X109371193Y-80172504D01*
X109119858Y-80025648D01*
X108856890Y-79933524D01*
X108627000Y-80054845D01*
X108627000Y-81373000D01*
X108647000Y-81373000D01*
X108647000Y-81627000D01*
X108627000Y-81627000D01*
X108627000Y-82945155D01*
X108856890Y-83066476D01*
X109119858Y-82974352D01*
X109371193Y-82827496D01*
X109589049Y-82634429D01*
X109745538Y-82428278D01*
X109759294Y-82454013D01*
X109944866Y-82680134D01*
X110170986Y-82865706D01*
X110428966Y-83003599D01*
X110708889Y-83088513D01*
X111000000Y-83117185D01*
X111291110Y-83088513D01*
X111461902Y-83036704D01*
X113186201Y-84761003D01*
X113209999Y-84790001D01*
X113325724Y-84884974D01*
X113457753Y-84955546D01*
X113601014Y-84999003D01*
X113712667Y-85010000D01*
X113712676Y-85010000D01*
X113749999Y-85013676D01*
X113787322Y-85010000D01*
X120132678Y-85010000D01*
X120170000Y-85013676D01*
X120207322Y-85010000D01*
X120207333Y-85010000D01*
X120318986Y-84999003D01*
X120462247Y-84955546D01*
X120594276Y-84884974D01*
X120710001Y-84790001D01*
X120733804Y-84760997D01*
X122628430Y-82866372D01*
X122782408Y-82897000D01*
X123057592Y-82897000D01*
X123327490Y-82843314D01*
X123581727Y-82738005D01*
X123810535Y-82585120D01*
X124005120Y-82390535D01*
X124158005Y-82161727D01*
X124263314Y-81907490D01*
X124317000Y-81637592D01*
X124317000Y-81362408D01*
X124286372Y-81208430D01*
X125761004Y-79733798D01*
X125790001Y-79710001D01*
X125884974Y-79594276D01*
X125955546Y-79462247D01*
X125985025Y-79365065D01*
X126018382Y-79337690D01*
X126087690Y-79268382D01*
X126167042Y-79171691D01*
X126221498Y-79090192D01*
X126280464Y-78979875D01*
X126317973Y-78889319D01*
X126354282Y-78769623D01*
X126373404Y-78673490D01*
X126385664Y-78549009D01*
X126385664Y-78524450D01*
X126388072Y-78500000D01*
X126388072Y-78000000D01*
X126385664Y-77975550D01*
X126385664Y-77950991D01*
X126373404Y-77826510D01*
X126354282Y-77730377D01*
X126317973Y-77610681D01*
X126280464Y-77520125D01*
X126221498Y-77409808D01*
X126167042Y-77328309D01*
X126087690Y-77231618D01*
X126018382Y-77162310D01*
X125921691Y-77082958D01*
X125840192Y-77028502D01*
X125729875Y-76969536D01*
X125639319Y-76932027D01*
X125519623Y-76895718D01*
X125423490Y-76876596D01*
X125299009Y-76864336D01*
X125274450Y-76864336D01*
X125250000Y-76861928D01*
X124750000Y-76861928D01*
X124625518Y-76874188D01*
X124600000Y-76881929D01*
X124574482Y-76874188D01*
X124450000Y-76861928D01*
X123950000Y-76861928D01*
X123925550Y-76864336D01*
X123900991Y-76864336D01*
X123776510Y-76876596D01*
X123680377Y-76895718D01*
X123560681Y-76932027D01*
X123470125Y-76969536D01*
X123359808Y-77028502D01*
X123278309Y-77082958D01*
X123181618Y-77162310D01*
X123112310Y-77231618D01*
X123032958Y-77328309D01*
X122978502Y-77409808D01*
X122919536Y-77520125D01*
X122882027Y-77610681D01*
X122845718Y-77730377D01*
X122826596Y-77826510D01*
X122814336Y-77950991D01*
X122814336Y-77975550D01*
X122811928Y-78000000D01*
X122811928Y-78313270D01*
X120135000Y-80990199D01*
X120135000Y-78080319D01*
X120142911Y-77999999D01*
X120128727Y-77855990D01*
X120111343Y-77679484D01*
X120017852Y-77371285D01*
X119866031Y-77087248D01*
X119661714Y-76838286D01*
X119599320Y-76787081D01*
X117712925Y-74900687D01*
X117700051Y-74885000D01*
X131096531Y-74885000D01*
X131140000Y-74889281D01*
X131183469Y-74885000D01*
X131183477Y-74885000D01*
X131313490Y-74872195D01*
X131480313Y-74821589D01*
X131634059Y-74739411D01*
X131768817Y-74628817D01*
X131796534Y-74595044D01*
X134264579Y-72127000D01*
X140961928Y-72127000D01*
X140961928Y-73500000D01*
X140974188Y-73624482D01*
X141010498Y-73744180D01*
X141069463Y-73854494D01*
X141148815Y-73951185D01*
X141245506Y-74030537D01*
X141355820Y-74089502D01*
X141475518Y-74125812D01*
X141600000Y-74138072D01*
X142740001Y-74138072D01*
X142740000Y-75740000D01*
X130987325Y-75740000D01*
X130950000Y-75736324D01*
X130912675Y-75740000D01*
X130912667Y-75740000D01*
X130801014Y-75750997D01*
X130657753Y-75794454D01*
X130525724Y-75865026D01*
X130409999Y-75959999D01*
X130386201Y-75988997D01*
X129363271Y-77011928D01*
X128750000Y-77011928D01*
X128625518Y-77024188D01*
X128505820Y-77060498D01*
X128395506Y-77119463D01*
X128298815Y-77198815D01*
X128219463Y-77295506D01*
X128160498Y-77405820D01*
X128124188Y-77525518D01*
X128111928Y-77650000D01*
X128111928Y-78263270D01*
X127488998Y-78886201D01*
X127460000Y-78909999D01*
X127436202Y-78938997D01*
X127436201Y-78938998D01*
X127365026Y-79025724D01*
X127294454Y-79157754D01*
X127250998Y-79301015D01*
X127236324Y-79450000D01*
X127240001Y-79487332D01*
X127240001Y-80327659D01*
X127109465Y-80414880D01*
X126914880Y-80609465D01*
X126761995Y-80838273D01*
X126656686Y-81092510D01*
X126603000Y-81362408D01*
X126603000Y-81637592D01*
X126656686Y-81907490D01*
X126761995Y-82161727D01*
X126914880Y-82390535D01*
X127109465Y-82585120D01*
X127338273Y-82738005D01*
X127592510Y-82843314D01*
X127862408Y-82897000D01*
X128137592Y-82897000D01*
X128407490Y-82843314D01*
X128500348Y-82804851D01*
X127960199Y-83345000D01*
X127898061Y-83345000D01*
X127698102Y-83384774D01*
X127509744Y-83462795D01*
X127340226Y-83576063D01*
X127196063Y-83720226D01*
X127082795Y-83889744D01*
X127004774Y-84078102D01*
X126965000Y-84278061D01*
X126965000Y-84481939D01*
X127004774Y-84681898D01*
X127082795Y-84870256D01*
X127196063Y-85039774D01*
X127240000Y-85083711D01*
X127240001Y-87947659D01*
X127109465Y-88034880D01*
X126914880Y-88229465D01*
X126761995Y-88458273D01*
X126656686Y-88712510D01*
X126603000Y-88982408D01*
X126603000Y-89257592D01*
X126656686Y-89527490D01*
X126761995Y-89781727D01*
X126914880Y-90010535D01*
X127109465Y-90205120D01*
X127338273Y-90358005D01*
X127592510Y-90463314D01*
X127862408Y-90517000D01*
X128137592Y-90517000D01*
X128407490Y-90463314D01*
X128661727Y-90358005D01*
X128890535Y-90205120D01*
X129085120Y-90010535D01*
X129238005Y-89781727D01*
X129343314Y-89527490D01*
X129397000Y-89257592D01*
X129397000Y-88982408D01*
X129343314Y-88712510D01*
X129238005Y-88458273D01*
X129085120Y-88229465D01*
X128890535Y-88034880D01*
X128760000Y-87947659D01*
X128760000Y-85083711D01*
X128803937Y-85039774D01*
X128917205Y-84870256D01*
X128995226Y-84681898D01*
X129035000Y-84481939D01*
X129035000Y-84419801D01*
X129565000Y-83889801D01*
X129565000Y-84061335D01*
X129620147Y-84338574D01*
X129728320Y-84599727D01*
X129885363Y-84834759D01*
X130085241Y-85034637D01*
X130317759Y-85190000D01*
X130085241Y-85345363D01*
X129885363Y-85545241D01*
X129728320Y-85780273D01*
X129620147Y-86041426D01*
X129565000Y-86318665D01*
X129565000Y-86601335D01*
X129620147Y-86878574D01*
X129728320Y-87139727D01*
X129885363Y-87374759D01*
X130085241Y-87574637D01*
X130317759Y-87730000D01*
X130085241Y-87885363D01*
X129885363Y-88085241D01*
X129728320Y-88320273D01*
X129620147Y-88581426D01*
X129565000Y-88858665D01*
X129565000Y-89141335D01*
X129620147Y-89418574D01*
X129728320Y-89679727D01*
X129885363Y-89914759D01*
X130085241Y-90114637D01*
X130320273Y-90271680D01*
X130581426Y-90379853D01*
X130858665Y-90435000D01*
X131141335Y-90435000D01*
X131418574Y-90379853D01*
X131679727Y-90271680D01*
X131914759Y-90114637D01*
X132114637Y-89914759D01*
X132271680Y-89679727D01*
X132379853Y-89418574D01*
X132393684Y-89349039D01*
X137228096Y-89349039D01*
X137268754Y-89483087D01*
X137388963Y-89737420D01*
X137556481Y-89963414D01*
X137764869Y-90152385D01*
X138006119Y-90297070D01*
X138270960Y-90391909D01*
X138493000Y-90270624D01*
X138493000Y-89127000D01*
X138747000Y-89127000D01*
X138747000Y-90270624D01*
X138969040Y-90391909D01*
X139233881Y-90297070D01*
X139475131Y-90152385D01*
X139683519Y-89963414D01*
X139851037Y-89737420D01*
X139971246Y-89483087D01*
X140011904Y-89349039D01*
X139889915Y-89127000D01*
X138747000Y-89127000D01*
X138493000Y-89127000D01*
X137350085Y-89127000D01*
X137228096Y-89349039D01*
X132393684Y-89349039D01*
X132435000Y-89141335D01*
X132435000Y-88858665D01*
X132379853Y-88581426D01*
X132271680Y-88320273D01*
X132114637Y-88085241D01*
X131914759Y-87885363D01*
X131682241Y-87730000D01*
X131914759Y-87574637D01*
X132114637Y-87374759D01*
X132271680Y-87139727D01*
X132379853Y-86878574D01*
X132435000Y-86601335D01*
X132435000Y-86318665D01*
X132379853Y-86041426D01*
X132271680Y-85780273D01*
X132114637Y-85545241D01*
X131914759Y-85345363D01*
X131682241Y-85190000D01*
X131914759Y-85034637D01*
X132114637Y-84834759D01*
X132271680Y-84599727D01*
X132379853Y-84338574D01*
X132435000Y-84061335D01*
X132435000Y-83778665D01*
X132379853Y-83501426D01*
X132271680Y-83240273D01*
X132114637Y-83005241D01*
X131914759Y-82805363D01*
X131682241Y-82650000D01*
X131914759Y-82494637D01*
X132114637Y-82294759D01*
X132271680Y-82059727D01*
X132379853Y-81798574D01*
X132435000Y-81521335D01*
X132435000Y-81238665D01*
X132398688Y-81056114D01*
X133011003Y-80443799D01*
X133040001Y-80420001D01*
X133134974Y-80304276D01*
X133205546Y-80172247D01*
X133249003Y-80028986D01*
X133260000Y-79917333D01*
X133260000Y-79917324D01*
X133263676Y-79880001D01*
X133260000Y-79842678D01*
X133260000Y-79800000D01*
X139811928Y-79800000D01*
X139824188Y-79924482D01*
X139860498Y-80044180D01*
X139919463Y-80154494D01*
X139998815Y-80251185D01*
X140095506Y-80330537D01*
X140205820Y-80389502D01*
X140325518Y-80425812D01*
X140450000Y-80438072D01*
X140914250Y-80435000D01*
X141073000Y-80276250D01*
X141073000Y-78927000D01*
X139973750Y-78927000D01*
X139815000Y-79085750D01*
X139811928Y-79800000D01*
X133260000Y-79800000D01*
X133260000Y-79404320D01*
X133304494Y-79380537D01*
X133401185Y-79301185D01*
X133480537Y-79204494D01*
X133539502Y-79094180D01*
X133565038Y-79010000D01*
X133575390Y-79010000D01*
X133592028Y-79064850D01*
X133674095Y-79218386D01*
X133784538Y-79352962D01*
X133919114Y-79463405D01*
X134072650Y-79545472D01*
X134239246Y-79596008D01*
X134412500Y-79613072D01*
X135087500Y-79613072D01*
X135260754Y-79596008D01*
X135427350Y-79545472D01*
X135580886Y-79463405D01*
X135715462Y-79352962D01*
X135720842Y-79346406D01*
X135786315Y-79426185D01*
X135883006Y-79505537D01*
X135993320Y-79564502D01*
X136113018Y-79600812D01*
X136237500Y-79613072D01*
X136539250Y-79610000D01*
X136698000Y-79451250D01*
X136698000Y-78377000D01*
X136952000Y-78377000D01*
X136952000Y-79451250D01*
X137110750Y-79610000D01*
X137412500Y-79613072D01*
X137536982Y-79600812D01*
X137656680Y-79564502D01*
X137766994Y-79505537D01*
X137863685Y-79426185D01*
X137943037Y-79329494D01*
X138002002Y-79219180D01*
X138038312Y-79099482D01*
X138050572Y-78975000D01*
X138047500Y-78535750D01*
X137888750Y-78377000D01*
X136952000Y-78377000D01*
X136698000Y-78377000D01*
X136678000Y-78377000D01*
X136678000Y-78123000D01*
X136698000Y-78123000D01*
X136698000Y-78103000D01*
X136952000Y-78103000D01*
X136952000Y-78123000D01*
X137888750Y-78123000D01*
X138047500Y-77964250D01*
X138050572Y-77525000D01*
X138038312Y-77400518D01*
X138002002Y-77280820D01*
X137990873Y-77260000D01*
X140113210Y-77260000D01*
X140095506Y-77269463D01*
X139998815Y-77348815D01*
X139919463Y-77445506D01*
X139860498Y-77555820D01*
X139824188Y-77675518D01*
X139811928Y-77800000D01*
X139815000Y-78514250D01*
X139973750Y-78673000D01*
X141073000Y-78673000D01*
X141073000Y-78653000D01*
X141327000Y-78653000D01*
X141327000Y-78673000D01*
X141347000Y-78673000D01*
X141347000Y-78927000D01*
X141327000Y-78927000D01*
X141327000Y-80276250D01*
X141426615Y-80375865D01*
X141369463Y-80445506D01*
X141310498Y-80555820D01*
X141274188Y-80675518D01*
X141261928Y-80800000D01*
X141265000Y-81214250D01*
X141423750Y-81373000D01*
X142373000Y-81373000D01*
X142373000Y-81353000D01*
X142627000Y-81353000D01*
X142627000Y-81373000D01*
X142647000Y-81373000D01*
X142647000Y-81627000D01*
X142627000Y-81627000D01*
X142627000Y-81647000D01*
X142373000Y-81647000D01*
X142373000Y-81627000D01*
X141423750Y-81627000D01*
X141265000Y-81785750D01*
X141261928Y-82200000D01*
X141274188Y-82324482D01*
X141310498Y-82444180D01*
X141369463Y-82554494D01*
X141395663Y-82586419D01*
X141329528Y-82710149D01*
X141320473Y-82740000D01*
X140537325Y-82740000D01*
X140500000Y-82736324D01*
X140462675Y-82740000D01*
X140462667Y-82740000D01*
X140351014Y-82750997D01*
X140207753Y-82794454D01*
X140075724Y-82865026D01*
X139959999Y-82959999D01*
X139936196Y-82989003D01*
X139808866Y-83116333D01*
X139734637Y-83005241D01*
X139536039Y-82806643D01*
X139544482Y-82805812D01*
X139664180Y-82769502D01*
X139774494Y-82710537D01*
X139871185Y-82631185D01*
X139950537Y-82534494D01*
X140009502Y-82424180D01*
X140045812Y-82304482D01*
X140058072Y-82180000D01*
X140058072Y-80580000D01*
X140045812Y-80455518D01*
X140009502Y-80335820D01*
X139950537Y-80225506D01*
X139871185Y-80128815D01*
X139774494Y-80049463D01*
X139664180Y-79990498D01*
X139544482Y-79954188D01*
X139420000Y-79941928D01*
X137820000Y-79941928D01*
X137695518Y-79954188D01*
X137575820Y-79990498D01*
X137465506Y-80049463D01*
X137368815Y-80128815D01*
X137289463Y-80225506D01*
X137230498Y-80335820D01*
X137194188Y-80455518D01*
X137181928Y-80580000D01*
X137181928Y-82180000D01*
X137194188Y-82304482D01*
X137230498Y-82424180D01*
X137289463Y-82534494D01*
X137368815Y-82631185D01*
X137465506Y-82710537D01*
X137575820Y-82769502D01*
X137695518Y-82805812D01*
X137703961Y-82806643D01*
X137505363Y-83005241D01*
X137348320Y-83240273D01*
X137240147Y-83501426D01*
X137185000Y-83778665D01*
X137185000Y-84061335D01*
X137240147Y-84338574D01*
X137348320Y-84599727D01*
X137505363Y-84834759D01*
X137705241Y-85034637D01*
X137937759Y-85190000D01*
X137705241Y-85345363D01*
X137505363Y-85545241D01*
X137348320Y-85780273D01*
X137240147Y-86041426D01*
X137185000Y-86318665D01*
X137185000Y-86601335D01*
X137240147Y-86878574D01*
X137348320Y-87139727D01*
X137505363Y-87374759D01*
X137705241Y-87574637D01*
X137940273Y-87731680D01*
X137950865Y-87736067D01*
X137764869Y-87847615D01*
X137556481Y-88036586D01*
X137388963Y-88262580D01*
X137268754Y-88516913D01*
X137228096Y-88650961D01*
X137350085Y-88873000D01*
X138493000Y-88873000D01*
X138493000Y-88853000D01*
X138747000Y-88853000D01*
X138747000Y-88873000D01*
X139889915Y-88873000D01*
X140011904Y-88650961D01*
X139971246Y-88516913D01*
X139851037Y-88262580D01*
X139683519Y-88036586D01*
X139475131Y-87847615D01*
X139289135Y-87736067D01*
X139299727Y-87731680D01*
X139534759Y-87574637D01*
X139734637Y-87374759D01*
X139891680Y-87139727D01*
X139999853Y-86878574D01*
X140055000Y-86601335D01*
X140055000Y-86318665D01*
X139999853Y-86041426D01*
X139891680Y-85780273D01*
X139734637Y-85545241D01*
X139534759Y-85345363D01*
X139302241Y-85190000D01*
X139534759Y-85034637D01*
X139734637Y-84834759D01*
X139838043Y-84680000D01*
X140042678Y-84680000D01*
X140080000Y-84683676D01*
X140117322Y-84680000D01*
X140117333Y-84680000D01*
X140228986Y-84669003D01*
X140372247Y-84625546D01*
X140504276Y-84554974D01*
X140620001Y-84460001D01*
X140643804Y-84430997D01*
X140814801Y-84260000D01*
X141320473Y-84260000D01*
X141329528Y-84289851D01*
X141411595Y-84443387D01*
X141522038Y-84577962D01*
X141656613Y-84688405D01*
X141810149Y-84770472D01*
X141976745Y-84821008D01*
X142149999Y-84838072D01*
X142657484Y-84838072D01*
X142372918Y-84955943D01*
X141810315Y-85331862D01*
X141331862Y-85810315D01*
X140955943Y-86372918D01*
X140697006Y-86998048D01*
X140565000Y-87661682D01*
X140565000Y-88338318D01*
X140697006Y-89001952D01*
X140955943Y-89627082D01*
X141331862Y-90189685D01*
X141810315Y-90668138D01*
X142067525Y-90840000D01*
X101432475Y-90840000D01*
X101689685Y-90668138D01*
X102168138Y-90189685D01*
X102544057Y-89627082D01*
X102802994Y-89001952D01*
X102935000Y-88338318D01*
X102935000Y-87661682D01*
X102802994Y-86998048D01*
X102572841Y-86442408D01*
X121523000Y-86442408D01*
X121523000Y-86717592D01*
X121576686Y-86987490D01*
X121681995Y-87241727D01*
X121834880Y-87470535D01*
X122029465Y-87665120D01*
X122258273Y-87818005D01*
X122512510Y-87923314D01*
X122782408Y-87977000D01*
X123057592Y-87977000D01*
X123327490Y-87923314D01*
X123581727Y-87818005D01*
X123810535Y-87665120D01*
X124005120Y-87470535D01*
X124158005Y-87241727D01*
X124263314Y-86987490D01*
X124317000Y-86717592D01*
X124317000Y-86442408D01*
X124263314Y-86172510D01*
X124158005Y-85918273D01*
X124005120Y-85689465D01*
X123810535Y-85494880D01*
X123581727Y-85341995D01*
X123327490Y-85236686D01*
X123057592Y-85183000D01*
X122782408Y-85183000D01*
X122512510Y-85236686D01*
X122258273Y-85341995D01*
X122029465Y-85494880D01*
X121834880Y-85689465D01*
X121681995Y-85918273D01*
X121576686Y-86172510D01*
X121523000Y-86442408D01*
X102572841Y-86442408D01*
X102544057Y-86372918D01*
X102168138Y-85810315D01*
X101689685Y-85331862D01*
X101127082Y-84955943D01*
X100501952Y-84697006D01*
X99838318Y-84565000D01*
X99161682Y-84565000D01*
X98498048Y-84697006D01*
X97872918Y-84955943D01*
X97310315Y-85331862D01*
X96831862Y-85810315D01*
X96660000Y-86067525D01*
X96660000Y-69432475D01*
X96831862Y-69689685D01*
X97310315Y-70168138D01*
X97872918Y-70544057D01*
X98498048Y-70802994D01*
X99161682Y-70935000D01*
X99838318Y-70935000D01*
X100501952Y-70802994D01*
X101127082Y-70544057D01*
X101689685Y-70168138D01*
X102168138Y-69689685D01*
X102544057Y-69127082D01*
X102802994Y-68501952D01*
X102935000Y-67838318D01*
X102935000Y-67161682D01*
X102802994Y-66498048D01*
X102544057Y-65872918D01*
X102168138Y-65310315D01*
X101689685Y-64831862D01*
X101432475Y-64660000D01*
X117067525Y-64660000D01*
X116810315Y-64831862D01*
G37*
G04 #@! TD.AperFunction*
M02*
