G04 #@! TF.GenerationSoftware,KiCad,Pcbnew,5.1.9+dfsg1-1+deb11u1*
G04 #@! TF.CreationDate,2023-06-30T23:04:53+09:00*
G04 #@! TF.ProjectId,tablet-usb-adapter,7461626c-6574-42d7-9573-622d61646170,rev?*
G04 #@! TF.SameCoordinates,Original*
G04 #@! TF.FileFunction,Soldermask,Top*
G04 #@! TF.FilePolarity,Negative*
%FSLAX46Y46*%
G04 Gerber Fmt 4.6, Leading zero omitted, Abs format (unit mm)*
G04 Created by KiCad (PCBNEW 5.1.9+dfsg1-1+deb11u1) date 2023-06-30 23:04:53*
%MOMM*%
%LPD*%
G01*
G04 APERTURE LIST*
%ADD10C,5.600000*%
%ADD11R,1.700000X1.700000*%
%ADD12O,1.700000X1.700000*%
%ADD13O,1.700000X1.950000*%
%ADD14C,3.500000*%
%ADD15R,1.524000X1.524000*%
%ADD16C,1.524000*%
%ADD17R,1.600000X1.600000*%
%ADD18O,1.600000X1.600000*%
G04 APERTURE END LIST*
D10*
X119000000Y-67500000D03*
X99500000Y-88000000D03*
X144000000Y-88000000D03*
X144000000Y-67500000D03*
X99500000Y-67500000D03*
D11*
X98500000Y-81620000D03*
D12*
X98500000Y-79080000D03*
X98500000Y-76540000D03*
X98500000Y-74000000D03*
G36*
G01*
X119350000Y-80775000D02*
X119350000Y-82225000D01*
G75*
G02*
X119100000Y-82475000I-250000J0D01*
G01*
X117900000Y-82475000D01*
G75*
G02*
X117650000Y-82225000I0J250000D01*
G01*
X117650000Y-80775000D01*
G75*
G02*
X117900000Y-80525000I250000J0D01*
G01*
X119100000Y-80525000D01*
G75*
G02*
X119350000Y-80775000I0J-250000D01*
G01*
G37*
D13*
X116000000Y-81500000D03*
X113500000Y-81500000D03*
X111000000Y-81500000D03*
X108500000Y-81500000D03*
X106000000Y-81500000D03*
D14*
X138000000Y-67500000D03*
X124860000Y-67500000D03*
D15*
X127930000Y-70210000D03*
D16*
X130430000Y-70210000D03*
X132430000Y-70210000D03*
X134930000Y-70210000D03*
D17*
X138620000Y-81380000D03*
D18*
X131000000Y-89000000D03*
X138620000Y-83920000D03*
X131000000Y-86460000D03*
X138620000Y-86460000D03*
X131000000Y-83920000D03*
X138620000Y-89000000D03*
X131000000Y-81380000D03*
D16*
X122920000Y-81500000D03*
X128000000Y-81500000D03*
X122920000Y-86580000D03*
X128000000Y-89120000D03*
M02*
