M48
; DRILL file {KiCad 5.1.9+dfsg1-1+deb11u1} date Fri Jun 30 23:04:56 2023
; FORMAT={-:-/ absolute / metric / decimal}
; #@! TF.CreationDate,2023-06-30T23:04:56+09:00
; #@! TF.GenerationSoftware,Kicad,Pcbnew,5.1.9+dfsg1-1+deb11u1
; #@! TF.FileFunction,Plated,1,2,PTH
FMAT,2
METRIC
T1C0.400
T2C0.762
T3C0.800
T4C0.920
T5C0.950
T6C1.000
T7C2.300
T8C3.200
%
G90
G05
T1
X128.0Y-84.38
T2
X122.92Y-81.5
X122.92Y-86.58
X128.0Y-81.5
X128.0Y-89.12
T3
X131.0Y-81.38
X131.0Y-83.92
X131.0Y-86.46
X131.0Y-89.0
X138.62Y-81.38
X138.62Y-83.92
X138.62Y-86.46
X138.62Y-89.0
T4
X127.93Y-70.21
X130.43Y-70.21
X132.43Y-70.21
X134.93Y-70.21
T5
X106.0Y-81.5
X108.5Y-81.5
X111.0Y-81.5
X113.5Y-81.5
X116.0Y-81.5
X118.5Y-81.5
T6
X98.5Y-74.0
X98.5Y-76.54
X98.5Y-79.08
X98.5Y-81.62
T7
X124.86Y-67.5
X138.0Y-67.5
T8
X99.5Y-67.5
X99.5Y-88.0
X119.0Y-67.5
X144.0Y-67.5
X144.0Y-88.0
T0
M30
