%TF.GenerationSoftware,KiCad,Pcbnew,5.0.2+dfsg1-1*%
%TF.CreationDate,2022-03-26T23:48:13+09:00*%
%TF.ProjectId,tablet-psu,7461626c-6574-42d7-9073-752e6b696361,rev?*%
%TF.SameCoordinates,Original*%
%TF.FileFunction,Legend,Top*%
%TF.FilePolarity,Positive*%
%FSLAX46Y46*%
G04 Gerber Fmt 4.6, Leading zero omitted, Abs format (unit mm)*
G04 Created by KiCad (PCBNEW 5.0.2+dfsg1-1) date Sat 26 Mar 2022 11:48:13 PM JST*
%MOMM*%
%LPD*%
G01*
G04 APERTURE LIST*
%ADD10C,0.150000*%
%ADD11C,0.120000*%
G04 APERTURE END LIST*
D10*
X138176000Y-70104000D02*
X138176000Y-122428000D01*
X96520000Y-70104000D02*
X138176000Y-70104000D01*
X96520000Y-122428000D02*
X138176000Y-122428000D01*
X96520000Y-70104000D02*
X96520000Y-122428000D01*
D11*
X121210000Y-75454252D02*
X121210000Y-74931748D01*
X122630000Y-75454252D02*
X122630000Y-74931748D01*
X109784000Y-83337000D02*
X109784000Y-86197000D01*
X109784000Y-86197000D02*
X111704000Y-86197000D01*
X111704000Y-86197000D02*
X111704000Y-83337000D01*
X109784000Y-109900000D02*
X109784000Y-112760000D01*
X111704000Y-109900000D02*
X109784000Y-109900000D01*
X111704000Y-112760000D02*
X111704000Y-109900000D01*
X117438752Y-76330000D02*
X113031248Y-76330000D01*
X117438752Y-70990000D02*
X113031248Y-70990000D01*
X108272000Y-73492000D02*
X107672000Y-73192000D01*
X108272000Y-72892000D02*
X108272000Y-73492000D01*
X107672000Y-73192000D02*
X108272000Y-72892000D01*
X102972000Y-75942000D02*
X102972000Y-75442000D01*
X97472000Y-75942000D02*
X102972000Y-75942000D01*
X97472000Y-75442000D02*
X97472000Y-75942000D01*
X102972000Y-75442000D02*
X97472000Y-75442000D01*
X102972000Y-73442000D02*
X102972000Y-72942000D01*
X97472000Y-73442000D02*
X102972000Y-73442000D01*
X97472000Y-72942000D02*
X97472000Y-73442000D01*
X102972000Y-72942000D02*
X97472000Y-72942000D01*
X104082000Y-76832000D02*
X104082000Y-74442000D01*
X108582000Y-76832000D02*
X104082000Y-76832000D01*
X108582000Y-78252000D02*
X108582000Y-76832000D01*
X96862000Y-78252000D02*
X108582000Y-78252000D01*
X96862000Y-74442000D02*
X96862000Y-78252000D01*
X104082000Y-72052000D02*
X104082000Y-74442000D01*
X108582000Y-72052000D02*
X104082000Y-72052000D01*
X108582000Y-70632000D02*
X108582000Y-72052000D01*
X96862000Y-70632000D02*
X108582000Y-70632000D01*
X96862000Y-74442000D02*
X96862000Y-70632000D01*
X96862000Y-91166000D02*
X96862000Y-87356000D01*
X96862000Y-87356000D02*
X108582000Y-87356000D01*
X108582000Y-87356000D02*
X108582000Y-88776000D01*
X108582000Y-88776000D02*
X104082000Y-88776000D01*
X104082000Y-88776000D02*
X104082000Y-91166000D01*
X96862000Y-91166000D02*
X96862000Y-94976000D01*
X96862000Y-94976000D02*
X108582000Y-94976000D01*
X108582000Y-94976000D02*
X108582000Y-93556000D01*
X108582000Y-93556000D02*
X104082000Y-93556000D01*
X104082000Y-93556000D02*
X104082000Y-91166000D01*
X102972000Y-89666000D02*
X97472000Y-89666000D01*
X97472000Y-89666000D02*
X97472000Y-90166000D01*
X97472000Y-90166000D02*
X102972000Y-90166000D01*
X102972000Y-90166000D02*
X102972000Y-89666000D01*
X102972000Y-92166000D02*
X97472000Y-92166000D01*
X97472000Y-92166000D02*
X97472000Y-92666000D01*
X97472000Y-92666000D02*
X102972000Y-92666000D01*
X102972000Y-92666000D02*
X102972000Y-92166000D01*
X107672000Y-89916000D02*
X108272000Y-89616000D01*
X108272000Y-89616000D02*
X108272000Y-90216000D01*
X108272000Y-90216000D02*
X107672000Y-89916000D01*
X108272000Y-100376000D02*
X107672000Y-100076000D01*
X108272000Y-99776000D02*
X108272000Y-100376000D01*
X107672000Y-100076000D02*
X108272000Y-99776000D01*
X102972000Y-102826000D02*
X102972000Y-102326000D01*
X97472000Y-102826000D02*
X102972000Y-102826000D01*
X97472000Y-102326000D02*
X97472000Y-102826000D01*
X102972000Y-102326000D02*
X97472000Y-102326000D01*
X102972000Y-100326000D02*
X102972000Y-99826000D01*
X97472000Y-100326000D02*
X102972000Y-100326000D01*
X97472000Y-99826000D02*
X97472000Y-100326000D01*
X102972000Y-99826000D02*
X97472000Y-99826000D01*
X104082000Y-103716000D02*
X104082000Y-101326000D01*
X108582000Y-103716000D02*
X104082000Y-103716000D01*
X108582000Y-105136000D02*
X108582000Y-103716000D01*
X96862000Y-105136000D02*
X108582000Y-105136000D01*
X96862000Y-101326000D02*
X96862000Y-105136000D01*
X104082000Y-98936000D02*
X104082000Y-101326000D01*
X108582000Y-98936000D02*
X104082000Y-98936000D01*
X108582000Y-97516000D02*
X108582000Y-98936000D01*
X96862000Y-97516000D02*
X108582000Y-97516000D01*
X96862000Y-101326000D02*
X96862000Y-97516000D01*
X96862000Y-118090000D02*
X96862000Y-114280000D01*
X96862000Y-114280000D02*
X108582000Y-114280000D01*
X108582000Y-114280000D02*
X108582000Y-115700000D01*
X108582000Y-115700000D02*
X104082000Y-115700000D01*
X104082000Y-115700000D02*
X104082000Y-118090000D01*
X96862000Y-118090000D02*
X96862000Y-121900000D01*
X96862000Y-121900000D02*
X108582000Y-121900000D01*
X108582000Y-121900000D02*
X108582000Y-120480000D01*
X108582000Y-120480000D02*
X104082000Y-120480000D01*
X104082000Y-120480000D02*
X104082000Y-118090000D01*
X102972000Y-116590000D02*
X97472000Y-116590000D01*
X97472000Y-116590000D02*
X97472000Y-117090000D01*
X97472000Y-117090000D02*
X102972000Y-117090000D01*
X102972000Y-117090000D02*
X102972000Y-116590000D01*
X102972000Y-119090000D02*
X97472000Y-119090000D01*
X97472000Y-119090000D02*
X97472000Y-119590000D01*
X97472000Y-119590000D02*
X102972000Y-119590000D01*
X102972000Y-119590000D02*
X102972000Y-119090000D01*
X107672000Y-116840000D02*
X108272000Y-116540000D01*
X108272000Y-116540000D02*
X108272000Y-117140000D01*
X108272000Y-117140000D02*
X107672000Y-116840000D01*
X111454000Y-79503748D02*
X111454000Y-80026252D01*
X110034000Y-79503748D02*
X110034000Y-80026252D01*
X110034000Y-115562748D02*
X110034000Y-116085252D01*
X111454000Y-115562748D02*
X111454000Y-116085252D01*
D10*
X123190000Y-98806000D02*
X113030000Y-98806000D01*
X123190000Y-78994000D02*
X123190000Y-98806000D01*
X113030000Y-78994000D02*
X113030000Y-98806000D01*
X123190000Y-78994000D02*
X113030000Y-78994000D01*
X126282000Y-70698000D02*
X126282000Y-90948000D01*
X125782000Y-86948000D02*
X125782000Y-89448000D01*
X125782000Y-81948000D02*
X125782000Y-84198000D01*
X125782000Y-76948000D02*
X125782000Y-79448000D01*
X125782000Y-71948000D02*
X125782000Y-74448000D01*
X125282000Y-70698000D02*
X137782000Y-70698000D01*
X137782000Y-90948000D02*
X137782000Y-70698000D01*
X125282000Y-90948000D02*
X125282000Y-70698000D01*
X125282000Y-90948000D02*
X137782000Y-90948000D01*
X123654000Y-121834000D02*
X123654000Y-101584000D01*
X124154000Y-105584000D02*
X124154000Y-103084000D01*
X124154000Y-110584000D02*
X124154000Y-108334000D01*
X124154000Y-115584000D02*
X124154000Y-113084000D01*
X124154000Y-120584000D02*
X124154000Y-118084000D01*
X124654000Y-121834000D02*
X112154000Y-121834000D01*
X112154000Y-101584000D02*
X112154000Y-121834000D01*
X124654000Y-101584000D02*
X124654000Y-121834000D01*
X124654000Y-101584000D02*
X112154000Y-101584000D01*
X137782000Y-101584000D02*
X125282000Y-101584000D01*
X137782000Y-101584000D02*
X137782000Y-121834000D01*
X125282000Y-101584000D02*
X125282000Y-121834000D01*
X137782000Y-121834000D02*
X125282000Y-121834000D01*
X137282000Y-120584000D02*
X137282000Y-118084000D01*
X137282000Y-115584000D02*
X137282000Y-113084000D01*
X137282000Y-110584000D02*
X137282000Y-108334000D01*
X137282000Y-105584000D02*
X137282000Y-103084000D01*
X136782000Y-121834000D02*
X136782000Y-101584000D01*
D11*
X111454000Y-120134748D02*
X111454000Y-120657252D01*
X110034000Y-120134748D02*
X110034000Y-120657252D01*
D10*
X122277142Y-78407666D02*
X122324761Y-78455285D01*
X122372380Y-78598142D01*
X122372380Y-78693380D01*
X122324761Y-78836238D01*
X122229523Y-78931476D01*
X122134285Y-78979095D01*
X121943809Y-79026714D01*
X121800952Y-79026714D01*
X121610476Y-78979095D01*
X121515238Y-78931476D01*
X121420000Y-78836238D01*
X121372380Y-78693380D01*
X121372380Y-78598142D01*
X121420000Y-78455285D01*
X121467619Y-78407666D01*
X121467619Y-78026714D02*
X121420000Y-77979095D01*
X121372380Y-77883857D01*
X121372380Y-77645761D01*
X121420000Y-77550523D01*
X121467619Y-77502904D01*
X121562857Y-77455285D01*
X121658095Y-77455285D01*
X121800952Y-77502904D01*
X122372380Y-78074333D01*
X122372380Y-77455285D01*
X112720380Y-85075095D02*
X111720380Y-85075095D01*
X111720380Y-84837000D01*
X111768000Y-84694142D01*
X111863238Y-84598904D01*
X111958476Y-84551285D01*
X112148952Y-84503666D01*
X112291809Y-84503666D01*
X112482285Y-84551285D01*
X112577523Y-84598904D01*
X112672761Y-84694142D01*
X112720380Y-84837000D01*
X112720380Y-85075095D01*
X112720380Y-83551285D02*
X112720380Y-84122714D01*
X112720380Y-83837000D02*
X111720380Y-83837000D01*
X111863238Y-83932238D01*
X111958476Y-84027476D01*
X112006095Y-84122714D01*
X113736380Y-112498095D02*
X112736380Y-112498095D01*
X112736380Y-112260000D01*
X112784000Y-112117142D01*
X112879238Y-112021904D01*
X112974476Y-111974285D01*
X113164952Y-111926666D01*
X113307809Y-111926666D01*
X113498285Y-111974285D01*
X113593523Y-112021904D01*
X113688761Y-112117142D01*
X113736380Y-112260000D01*
X113736380Y-112498095D01*
X112831619Y-111545714D02*
X112784000Y-111498095D01*
X112736380Y-111402857D01*
X112736380Y-111164761D01*
X112784000Y-111069523D01*
X112831619Y-111021904D01*
X112926857Y-110974285D01*
X113022095Y-110974285D01*
X113164952Y-111021904D01*
X113736380Y-111593333D01*
X113736380Y-110974285D01*
X114901666Y-77268571D02*
X114568333Y-77268571D01*
X114568333Y-77792380D02*
X114568333Y-76792380D01*
X115044523Y-76792380D01*
X115949285Y-77792380D02*
X115377857Y-77792380D01*
X115663571Y-77792380D02*
X115663571Y-76792380D01*
X115568333Y-76935238D01*
X115473095Y-77030476D01*
X115377857Y-77078095D01*
X109124380Y-74775333D02*
X109838666Y-74775333D01*
X109981523Y-74822952D01*
X110076761Y-74918190D01*
X110124380Y-75061047D01*
X110124380Y-75156285D01*
X110124380Y-73775333D02*
X110124380Y-74346761D01*
X110124380Y-74061047D02*
X109124380Y-74061047D01*
X109267238Y-74156285D01*
X109362476Y-74251523D01*
X109410095Y-74346761D01*
X102576380Y-94313333D02*
X103290666Y-94313333D01*
X103433523Y-94360952D01*
X103528761Y-94456190D01*
X103576380Y-94599047D01*
X103576380Y-94694285D01*
X102671619Y-93884761D02*
X102624000Y-93837142D01*
X102576380Y-93741904D01*
X102576380Y-93503809D01*
X102624000Y-93408571D01*
X102671619Y-93360952D01*
X102766857Y-93313333D01*
X102862095Y-93313333D01*
X103004952Y-93360952D01*
X103576380Y-93932380D01*
X103576380Y-93313333D01*
X102068380Y-104473333D02*
X102782666Y-104473333D01*
X102925523Y-104520952D01*
X103020761Y-104616190D01*
X103068380Y-104759047D01*
X103068380Y-104854285D01*
X102068380Y-104092380D02*
X102068380Y-103473333D01*
X102449333Y-103806666D01*
X102449333Y-103663809D01*
X102496952Y-103568571D01*
X102544571Y-103520952D01*
X102639809Y-103473333D01*
X102877904Y-103473333D01*
X102973142Y-103520952D01*
X103020761Y-103568571D01*
X103068380Y-103663809D01*
X103068380Y-103949523D01*
X103020761Y-104044761D01*
X102973142Y-104092380D01*
X102068380Y-121237333D02*
X102782666Y-121237333D01*
X102925523Y-121284952D01*
X103020761Y-121380190D01*
X103068380Y-121523047D01*
X103068380Y-121618285D01*
X102401714Y-120332571D02*
X103068380Y-120332571D01*
X102020761Y-120570666D02*
X102735047Y-120808761D01*
X102735047Y-120189714D01*
X112846380Y-79931666D02*
X112370190Y-80265000D01*
X112846380Y-80503095D02*
X111846380Y-80503095D01*
X111846380Y-80122142D01*
X111894000Y-80026904D01*
X111941619Y-79979285D01*
X112036857Y-79931666D01*
X112179714Y-79931666D01*
X112274952Y-79979285D01*
X112322571Y-80026904D01*
X112370190Y-80122142D01*
X112370190Y-80503095D01*
X112846380Y-78979285D02*
X112846380Y-79550714D01*
X112846380Y-79265000D02*
X111846380Y-79265000D01*
X111989238Y-79360238D01*
X112084476Y-79455476D01*
X112132095Y-79550714D01*
X113736380Y-115990666D02*
X113260190Y-116324000D01*
X113736380Y-116562095D02*
X112736380Y-116562095D01*
X112736380Y-116181142D01*
X112784000Y-116085904D01*
X112831619Y-116038285D01*
X112926857Y-115990666D01*
X113069714Y-115990666D01*
X113164952Y-116038285D01*
X113212571Y-116085904D01*
X113260190Y-116181142D01*
X113260190Y-116562095D01*
X112831619Y-115609714D02*
X112784000Y-115562095D01*
X112736380Y-115466857D01*
X112736380Y-115228761D01*
X112784000Y-115133523D01*
X112831619Y-115085904D01*
X112926857Y-115038285D01*
X113022095Y-115038285D01*
X113164952Y-115085904D01*
X113736380Y-115657333D01*
X113736380Y-115038285D01*
X117856095Y-77684380D02*
X117856095Y-78493904D01*
X117903714Y-78589142D01*
X117951333Y-78636761D01*
X118046571Y-78684380D01*
X118237047Y-78684380D01*
X118332285Y-78636761D01*
X118379904Y-78589142D01*
X118427523Y-78493904D01*
X118427523Y-77684380D01*
X119427523Y-78684380D02*
X118856095Y-78684380D01*
X119141809Y-78684380D02*
X119141809Y-77684380D01*
X119046571Y-77827238D01*
X118951333Y-77922476D01*
X118856095Y-77970095D01*
X113752380Y-85835904D02*
X114752380Y-85502571D01*
X113752380Y-85169238D01*
X113752380Y-84645428D02*
X113752380Y-84454952D01*
X113800000Y-84359714D01*
X113895238Y-84264476D01*
X114085714Y-84216857D01*
X114419047Y-84216857D01*
X114609523Y-84264476D01*
X114704761Y-84359714D01*
X114752380Y-84454952D01*
X114752380Y-84645428D01*
X114704761Y-84740666D01*
X114609523Y-84835904D01*
X114419047Y-84883523D01*
X114085714Y-84883523D01*
X113895238Y-84835904D01*
X113800000Y-84740666D01*
X113752380Y-84645428D01*
X113752380Y-83788285D02*
X114561904Y-83788285D01*
X114657142Y-83740666D01*
X114704761Y-83693047D01*
X114752380Y-83597809D01*
X114752380Y-83407333D01*
X114704761Y-83312095D01*
X114657142Y-83264476D01*
X114561904Y-83216857D01*
X113752380Y-83216857D01*
X113752380Y-82883523D02*
X113752380Y-82312095D01*
X114752380Y-82597809D02*
X113752380Y-82597809D01*
X116340000Y-84327904D02*
X116292380Y-84423142D01*
X116292380Y-84566000D01*
X116340000Y-84708857D01*
X116435238Y-84804095D01*
X116530476Y-84851714D01*
X116720952Y-84899333D01*
X116863809Y-84899333D01*
X117054285Y-84851714D01*
X117149523Y-84804095D01*
X117244761Y-84708857D01*
X117292380Y-84566000D01*
X117292380Y-84470761D01*
X117244761Y-84327904D01*
X117197142Y-84280285D01*
X116863809Y-84280285D01*
X116863809Y-84470761D01*
X117292380Y-83851714D02*
X116292380Y-83851714D01*
X117292380Y-83280285D01*
X116292380Y-83280285D01*
X117292380Y-82804095D02*
X116292380Y-82804095D01*
X116292380Y-82566000D01*
X116340000Y-82423142D01*
X116435238Y-82327904D01*
X116530476Y-82280285D01*
X116720952Y-82232666D01*
X116863809Y-82232666D01*
X117054285Y-82280285D01*
X117149523Y-82327904D01*
X117244761Y-82423142D01*
X117292380Y-82566000D01*
X117292380Y-82804095D01*
X118832380Y-84407238D02*
X119832380Y-84073904D01*
X118832380Y-83740571D01*
X119832380Y-83407238D02*
X118832380Y-83407238D01*
X119832380Y-82931047D02*
X118832380Y-82931047D01*
X119832380Y-82359619D01*
X118832380Y-82359619D01*
X121848571Y-83796095D02*
X121848571Y-83462761D01*
X122372380Y-83319904D02*
X122372380Y-83796095D01*
X121372380Y-83796095D01*
X121372380Y-83319904D01*
X122372380Y-82891333D02*
X121372380Y-82891333D01*
X122372380Y-82319904D01*
X121372380Y-82319904D01*
X131365333Y-90273142D02*
X131317714Y-90320761D01*
X131174857Y-90368380D01*
X131079619Y-90368380D01*
X130936761Y-90320761D01*
X130841523Y-90225523D01*
X130793904Y-90130285D01*
X130746285Y-89939809D01*
X130746285Y-89796952D01*
X130793904Y-89606476D01*
X130841523Y-89511238D01*
X130936761Y-89416000D01*
X131079619Y-89368380D01*
X131174857Y-89368380D01*
X131317714Y-89416000D01*
X131365333Y-89463619D01*
X132317714Y-90368380D02*
X131746285Y-90368380D01*
X132032000Y-90368380D02*
X132032000Y-89368380D01*
X131936761Y-89511238D01*
X131841523Y-89606476D01*
X131746285Y-89654095D01*
X118705333Y-102973142D02*
X118657714Y-103020761D01*
X118514857Y-103068380D01*
X118419619Y-103068380D01*
X118276761Y-103020761D01*
X118181523Y-102925523D01*
X118133904Y-102830285D01*
X118086285Y-102639809D01*
X118086285Y-102496952D01*
X118133904Y-102306476D01*
X118181523Y-102211238D01*
X118276761Y-102116000D01*
X118419619Y-102068380D01*
X118514857Y-102068380D01*
X118657714Y-102116000D01*
X118705333Y-102163619D01*
X119038666Y-102068380D02*
X119657714Y-102068380D01*
X119324380Y-102449333D01*
X119467238Y-102449333D01*
X119562476Y-102496952D01*
X119610095Y-102544571D01*
X119657714Y-102639809D01*
X119657714Y-102877904D01*
X119610095Y-102973142D01*
X119562476Y-103020761D01*
X119467238Y-103068380D01*
X119181523Y-103068380D01*
X119086285Y-103020761D01*
X119038666Y-102973142D01*
X131405333Y-102973142D02*
X131357714Y-103020761D01*
X131214857Y-103068380D01*
X131119619Y-103068380D01*
X130976761Y-103020761D01*
X130881523Y-102925523D01*
X130833904Y-102830285D01*
X130786285Y-102639809D01*
X130786285Y-102496952D01*
X130833904Y-102306476D01*
X130881523Y-102211238D01*
X130976761Y-102116000D01*
X131119619Y-102068380D01*
X131214857Y-102068380D01*
X131357714Y-102116000D01*
X131405333Y-102163619D01*
X132262476Y-102401714D02*
X132262476Y-103068380D01*
X132024380Y-102020761D02*
X131786285Y-102735047D01*
X132405333Y-102735047D01*
X113641142Y-120562666D02*
X113688761Y-120610285D01*
X113736380Y-120753142D01*
X113736380Y-120848380D01*
X113688761Y-120991238D01*
X113593523Y-121086476D01*
X113498285Y-121134095D01*
X113307809Y-121181714D01*
X113164952Y-121181714D01*
X112974476Y-121134095D01*
X112879238Y-121086476D01*
X112784000Y-120991238D01*
X112736380Y-120848380D01*
X112736380Y-120753142D01*
X112784000Y-120610285D01*
X112831619Y-120562666D01*
X112736380Y-120229333D02*
X112736380Y-119562666D01*
X113736380Y-119991238D01*
X99758666Y-79456380D02*
X99425333Y-78980190D01*
X99187238Y-79456380D02*
X99187238Y-78456380D01*
X99568190Y-78456380D01*
X99663428Y-78504000D01*
X99711047Y-78551619D01*
X99758666Y-78646857D01*
X99758666Y-78789714D01*
X99711047Y-78884952D01*
X99663428Y-78932571D01*
X99568190Y-78980190D01*
X99187238Y-78980190D01*
X100187238Y-78932571D02*
X100520571Y-78932571D01*
X100663428Y-79456380D02*
X100187238Y-79456380D01*
X100187238Y-78456380D01*
X100663428Y-78456380D01*
X101425333Y-78932571D02*
X101092000Y-78932571D01*
X101092000Y-79456380D02*
X101092000Y-78456380D01*
X101568190Y-78456380D01*
X102092000Y-78456380D02*
X102092000Y-78694476D01*
X101853904Y-78599238D02*
X102092000Y-78694476D01*
X102330095Y-78599238D01*
X101949142Y-78884952D02*
X102092000Y-78694476D01*
X102234857Y-78884952D01*
X102853904Y-78456380D02*
X102853904Y-78694476D01*
X102615809Y-78599238D02*
X102853904Y-78694476D01*
X103092000Y-78599238D01*
X102711047Y-78884952D02*
X102853904Y-78694476D01*
X102996761Y-78884952D01*
X99758666Y-106380380D02*
X99425333Y-105904190D01*
X99187238Y-106380380D02*
X99187238Y-105380380D01*
X99568190Y-105380380D01*
X99663428Y-105428000D01*
X99711047Y-105475619D01*
X99758666Y-105570857D01*
X99758666Y-105713714D01*
X99711047Y-105808952D01*
X99663428Y-105856571D01*
X99568190Y-105904190D01*
X99187238Y-105904190D01*
X100187238Y-105856571D02*
X100520571Y-105856571D01*
X100663428Y-106380380D02*
X100187238Y-106380380D01*
X100187238Y-105380380D01*
X100663428Y-105380380D01*
X101425333Y-105856571D02*
X101092000Y-105856571D01*
X101092000Y-106380380D02*
X101092000Y-105380380D01*
X101568190Y-105380380D01*
X102092000Y-105380380D02*
X102092000Y-105618476D01*
X101853904Y-105523238D02*
X102092000Y-105618476D01*
X102330095Y-105523238D01*
X101949142Y-105808952D02*
X102092000Y-105618476D01*
X102234857Y-105808952D01*
X102853904Y-105380380D02*
X102853904Y-105618476D01*
X102615809Y-105523238D02*
X102853904Y-105618476D01*
X103092000Y-105523238D01*
X102711047Y-105808952D02*
X102853904Y-105618476D01*
X102996761Y-105808952D01*
X130238666Y-92918380D02*
X129905333Y-92442190D01*
X129667238Y-92918380D02*
X129667238Y-91918380D01*
X130048190Y-91918380D01*
X130143428Y-91966000D01*
X130191047Y-92013619D01*
X130238666Y-92108857D01*
X130238666Y-92251714D01*
X130191047Y-92346952D01*
X130143428Y-92394571D01*
X130048190Y-92442190D01*
X129667238Y-92442190D01*
X130667238Y-92394571D02*
X131000571Y-92394571D01*
X131143428Y-92918380D02*
X130667238Y-92918380D01*
X130667238Y-91918380D01*
X131143428Y-91918380D01*
X131905333Y-92394571D02*
X131572000Y-92394571D01*
X131572000Y-92918380D02*
X131572000Y-91918380D01*
X132048190Y-91918380D01*
X132572000Y-91918380D02*
X132572000Y-92156476D01*
X132333904Y-92061238D02*
X132572000Y-92156476D01*
X132810095Y-92061238D01*
X132429142Y-92346952D02*
X132572000Y-92156476D01*
X132714857Y-92346952D01*
X133333904Y-91918380D02*
X133333904Y-92156476D01*
X133095809Y-92061238D02*
X133333904Y-92156476D01*
X133572000Y-92061238D01*
X133191047Y-92346952D02*
X133333904Y-92156476D01*
X133476761Y-92346952D01*
M02*
