M48
;DRILL file {KiCad 5.0.2+dfsg1-1} date Sat 26 Mar 2022 11:48:09 PM JST
;FORMAT={-:-/ absolute / inch / decimal}
FMAT,2
INCH,TZ
T1C0.0300
T2C0.0394
T3C0.1260
%
G90
G05
T1
X5.08Y-3.62
X4.5631Y-3.96
X4.76Y-3.96
X5.08Y-3.96
X5.2769Y-3.96
X5.2769Y-3.62
X4.5Y-3.16
X4.6Y-3.16
X4.7Y-3.16
X4.8Y-3.16
T2
X4.18Y-4.6
X4.18Y-4.6984
X4.18Y-2.8816
X4.18Y-2.98
X4.18Y-3.54
X4.18Y-3.6384
X4.18Y-3.94
X4.18Y-4.0384
T3
X3.98Y-4.32
X3.98Y-3.26
X5.18Y-3.79
T0
M30
