%TF.GenerationSoftware,KiCad,Pcbnew,5.0.2+dfsg1-1*%
%TF.CreationDate,2022-03-26T23:48:13+09:00*%
%TF.ProjectId,tablet-psu,7461626c-6574-42d7-9073-752e6b696361,rev?*%
%TF.SameCoordinates,Original*%
%TF.FileFunction,Copper,L2,Bot*%
%TF.FilePolarity,Positive*%
%FSLAX46Y46*%
G04 Gerber Fmt 4.6, Leading zero omitted, Abs format (unit mm)*
G04 Created by KiCad (PCBNEW 5.0.2+dfsg1-1) date Sat 26 Mar 2022 11:48:13 PM JST*
%MOMM*%
%LPD*%
G01*
G04 APERTURE LIST*
%ADD10C,0.150000*%
%ADD11O,2.000000X1.700000*%
%ADD12C,0.100000*%
%ADD13C,1.700000*%
%ADD14C,1.524000*%
%ADD15C,5.600000*%
%ADD16C,0.254000*%
G04 APERTURE END LIST*
D10*
X138176000Y-70104000D02*
X138176000Y-122428000D01*
X96520000Y-70104000D02*
X138176000Y-70104000D01*
X96520000Y-122428000D02*
X138176000Y-122428000D01*
X96520000Y-70104000D02*
X96520000Y-122428000D01*
D11*
X106172000Y-75692000D03*
D12*
G36*
X106946504Y-72343204D02*
X106970773Y-72346804D01*
X106994571Y-72352765D01*
X107017671Y-72361030D01*
X107039849Y-72371520D01*
X107060893Y-72384133D01*
X107080598Y-72398747D01*
X107098777Y-72415223D01*
X107115253Y-72433402D01*
X107129867Y-72453107D01*
X107142480Y-72474151D01*
X107152970Y-72496329D01*
X107161235Y-72519429D01*
X107167196Y-72543227D01*
X107170796Y-72567496D01*
X107172000Y-72592000D01*
X107172000Y-73792000D01*
X107170796Y-73816504D01*
X107167196Y-73840773D01*
X107161235Y-73864571D01*
X107152970Y-73887671D01*
X107142480Y-73909849D01*
X107129867Y-73930893D01*
X107115253Y-73950598D01*
X107098777Y-73968777D01*
X107080598Y-73985253D01*
X107060893Y-73999867D01*
X107039849Y-74012480D01*
X107017671Y-74022970D01*
X106994571Y-74031235D01*
X106970773Y-74037196D01*
X106946504Y-74040796D01*
X106922000Y-74042000D01*
X105422000Y-74042000D01*
X105397496Y-74040796D01*
X105373227Y-74037196D01*
X105349429Y-74031235D01*
X105326329Y-74022970D01*
X105304151Y-74012480D01*
X105283107Y-73999867D01*
X105263402Y-73985253D01*
X105245223Y-73968777D01*
X105228747Y-73950598D01*
X105214133Y-73930893D01*
X105201520Y-73909849D01*
X105191030Y-73887671D01*
X105182765Y-73864571D01*
X105176804Y-73840773D01*
X105173204Y-73816504D01*
X105172000Y-73792000D01*
X105172000Y-72592000D01*
X105173204Y-72567496D01*
X105176804Y-72543227D01*
X105182765Y-72519429D01*
X105191030Y-72496329D01*
X105201520Y-72474151D01*
X105214133Y-72453107D01*
X105228747Y-72433402D01*
X105245223Y-72415223D01*
X105263402Y-72398747D01*
X105283107Y-72384133D01*
X105304151Y-72371520D01*
X105326329Y-72361030D01*
X105349429Y-72352765D01*
X105373227Y-72346804D01*
X105397496Y-72343204D01*
X105422000Y-72342000D01*
X106922000Y-72342000D01*
X106946504Y-72343204D01*
X106946504Y-72343204D01*
G37*
D13*
X106172000Y-73192000D03*
D12*
G36*
X106946504Y-89067204D02*
X106970773Y-89070804D01*
X106994571Y-89076765D01*
X107017671Y-89085030D01*
X107039849Y-89095520D01*
X107060893Y-89108133D01*
X107080598Y-89122747D01*
X107098777Y-89139223D01*
X107115253Y-89157402D01*
X107129867Y-89177107D01*
X107142480Y-89198151D01*
X107152970Y-89220329D01*
X107161235Y-89243429D01*
X107167196Y-89267227D01*
X107170796Y-89291496D01*
X107172000Y-89316000D01*
X107172000Y-90516000D01*
X107170796Y-90540504D01*
X107167196Y-90564773D01*
X107161235Y-90588571D01*
X107152970Y-90611671D01*
X107142480Y-90633849D01*
X107129867Y-90654893D01*
X107115253Y-90674598D01*
X107098777Y-90692777D01*
X107080598Y-90709253D01*
X107060893Y-90723867D01*
X107039849Y-90736480D01*
X107017671Y-90746970D01*
X106994571Y-90755235D01*
X106970773Y-90761196D01*
X106946504Y-90764796D01*
X106922000Y-90766000D01*
X105422000Y-90766000D01*
X105397496Y-90764796D01*
X105373227Y-90761196D01*
X105349429Y-90755235D01*
X105326329Y-90746970D01*
X105304151Y-90736480D01*
X105283107Y-90723867D01*
X105263402Y-90709253D01*
X105245223Y-90692777D01*
X105228747Y-90674598D01*
X105214133Y-90654893D01*
X105201520Y-90633849D01*
X105191030Y-90611671D01*
X105182765Y-90588571D01*
X105176804Y-90564773D01*
X105173204Y-90540504D01*
X105172000Y-90516000D01*
X105172000Y-89316000D01*
X105173204Y-89291496D01*
X105176804Y-89267227D01*
X105182765Y-89243429D01*
X105191030Y-89220329D01*
X105201520Y-89198151D01*
X105214133Y-89177107D01*
X105228747Y-89157402D01*
X105245223Y-89139223D01*
X105263402Y-89122747D01*
X105283107Y-89108133D01*
X105304151Y-89095520D01*
X105326329Y-89085030D01*
X105349429Y-89076765D01*
X105373227Y-89070804D01*
X105397496Y-89067204D01*
X105422000Y-89066000D01*
X106922000Y-89066000D01*
X106946504Y-89067204D01*
X106946504Y-89067204D01*
G37*
D13*
X106172000Y-89916000D03*
D11*
X106172000Y-92416000D03*
X106172000Y-102576000D03*
D12*
G36*
X106946504Y-99227204D02*
X106970773Y-99230804D01*
X106994571Y-99236765D01*
X107017671Y-99245030D01*
X107039849Y-99255520D01*
X107060893Y-99268133D01*
X107080598Y-99282747D01*
X107098777Y-99299223D01*
X107115253Y-99317402D01*
X107129867Y-99337107D01*
X107142480Y-99358151D01*
X107152970Y-99380329D01*
X107161235Y-99403429D01*
X107167196Y-99427227D01*
X107170796Y-99451496D01*
X107172000Y-99476000D01*
X107172000Y-100676000D01*
X107170796Y-100700504D01*
X107167196Y-100724773D01*
X107161235Y-100748571D01*
X107152970Y-100771671D01*
X107142480Y-100793849D01*
X107129867Y-100814893D01*
X107115253Y-100834598D01*
X107098777Y-100852777D01*
X107080598Y-100869253D01*
X107060893Y-100883867D01*
X107039849Y-100896480D01*
X107017671Y-100906970D01*
X106994571Y-100915235D01*
X106970773Y-100921196D01*
X106946504Y-100924796D01*
X106922000Y-100926000D01*
X105422000Y-100926000D01*
X105397496Y-100924796D01*
X105373227Y-100921196D01*
X105349429Y-100915235D01*
X105326329Y-100906970D01*
X105304151Y-100896480D01*
X105283107Y-100883867D01*
X105263402Y-100869253D01*
X105245223Y-100852777D01*
X105228747Y-100834598D01*
X105214133Y-100814893D01*
X105201520Y-100793849D01*
X105191030Y-100771671D01*
X105182765Y-100748571D01*
X105176804Y-100724773D01*
X105173204Y-100700504D01*
X105172000Y-100676000D01*
X105172000Y-99476000D01*
X105173204Y-99451496D01*
X105176804Y-99427227D01*
X105182765Y-99403429D01*
X105191030Y-99380329D01*
X105201520Y-99358151D01*
X105214133Y-99337107D01*
X105228747Y-99317402D01*
X105245223Y-99299223D01*
X105263402Y-99282747D01*
X105283107Y-99268133D01*
X105304151Y-99255520D01*
X105326329Y-99245030D01*
X105349429Y-99236765D01*
X105373227Y-99230804D01*
X105397496Y-99227204D01*
X105422000Y-99226000D01*
X106922000Y-99226000D01*
X106946504Y-99227204D01*
X106946504Y-99227204D01*
G37*
D13*
X106172000Y-100076000D03*
D12*
G36*
X106946504Y-115991204D02*
X106970773Y-115994804D01*
X106994571Y-116000765D01*
X107017671Y-116009030D01*
X107039849Y-116019520D01*
X107060893Y-116032133D01*
X107080598Y-116046747D01*
X107098777Y-116063223D01*
X107115253Y-116081402D01*
X107129867Y-116101107D01*
X107142480Y-116122151D01*
X107152970Y-116144329D01*
X107161235Y-116167429D01*
X107167196Y-116191227D01*
X107170796Y-116215496D01*
X107172000Y-116240000D01*
X107172000Y-117440000D01*
X107170796Y-117464504D01*
X107167196Y-117488773D01*
X107161235Y-117512571D01*
X107152970Y-117535671D01*
X107142480Y-117557849D01*
X107129867Y-117578893D01*
X107115253Y-117598598D01*
X107098777Y-117616777D01*
X107080598Y-117633253D01*
X107060893Y-117647867D01*
X107039849Y-117660480D01*
X107017671Y-117670970D01*
X106994571Y-117679235D01*
X106970773Y-117685196D01*
X106946504Y-117688796D01*
X106922000Y-117690000D01*
X105422000Y-117690000D01*
X105397496Y-117688796D01*
X105373227Y-117685196D01*
X105349429Y-117679235D01*
X105326329Y-117670970D01*
X105304151Y-117660480D01*
X105283107Y-117647867D01*
X105263402Y-117633253D01*
X105245223Y-117616777D01*
X105228747Y-117598598D01*
X105214133Y-117578893D01*
X105201520Y-117557849D01*
X105191030Y-117535671D01*
X105182765Y-117512571D01*
X105176804Y-117488773D01*
X105173204Y-117464504D01*
X105172000Y-117440000D01*
X105172000Y-116240000D01*
X105173204Y-116215496D01*
X105176804Y-116191227D01*
X105182765Y-116167429D01*
X105191030Y-116144329D01*
X105201520Y-116122151D01*
X105214133Y-116101107D01*
X105228747Y-116081402D01*
X105245223Y-116063223D01*
X105263402Y-116046747D01*
X105283107Y-116032133D01*
X105304151Y-116019520D01*
X105326329Y-116009030D01*
X105349429Y-116000765D01*
X105373227Y-115994804D01*
X105397496Y-115991204D01*
X105422000Y-115990000D01*
X106922000Y-115990000D01*
X106946504Y-115991204D01*
X106946504Y-115991204D01*
G37*
D13*
X106172000Y-116840000D03*
D11*
X106172000Y-119340000D03*
D14*
X114300000Y-80264000D03*
X116840000Y-80264000D03*
X119380000Y-80264000D03*
X121920000Y-80264000D03*
X134032000Y-91948000D03*
X129032000Y-91948000D03*
X115904000Y-100584000D03*
X120904000Y-100584000D03*
X134032000Y-100584000D03*
X129032000Y-100584000D03*
D15*
X101092000Y-82804000D03*
X101092000Y-109728000D03*
X131572000Y-96266000D03*
D16*
G36*
X137466001Y-121718000D02*
X97230000Y-121718000D01*
X97230000Y-119340000D01*
X104507908Y-119340000D01*
X104623161Y-119919418D01*
X104951375Y-120410625D01*
X105442582Y-120738839D01*
X105875744Y-120825000D01*
X106468256Y-120825000D01*
X106901418Y-120738839D01*
X107392625Y-120410625D01*
X107720839Y-119919418D01*
X107836092Y-119340000D01*
X107720839Y-118760582D01*
X107401291Y-118282344D01*
X107531699Y-118228327D01*
X107710327Y-118049698D01*
X107807000Y-117816309D01*
X107807000Y-117125750D01*
X107648250Y-116967000D01*
X106299000Y-116967000D01*
X106299000Y-116987000D01*
X106045000Y-116987000D01*
X106045000Y-116967000D01*
X104695750Y-116967000D01*
X104537000Y-117125750D01*
X104537000Y-117816309D01*
X104633673Y-118049698D01*
X104812301Y-118228327D01*
X104942709Y-118282344D01*
X104623161Y-118760582D01*
X104507908Y-119340000D01*
X97230000Y-119340000D01*
X97230000Y-115863691D01*
X104537000Y-115863691D01*
X104537000Y-116554250D01*
X104695750Y-116713000D01*
X106045000Y-116713000D01*
X106045000Y-115513750D01*
X106299000Y-115513750D01*
X106299000Y-116713000D01*
X107648250Y-116713000D01*
X107807000Y-116554250D01*
X107807000Y-115863691D01*
X107710327Y-115630302D01*
X107531699Y-115451673D01*
X107298310Y-115355000D01*
X106457750Y-115355000D01*
X106299000Y-115513750D01*
X106045000Y-115513750D01*
X105886250Y-115355000D01*
X105045690Y-115355000D01*
X104812301Y-115451673D01*
X104633673Y-115630302D01*
X104537000Y-115863691D01*
X97230000Y-115863691D01*
X97230000Y-109044736D01*
X97657000Y-109044736D01*
X97657000Y-110411264D01*
X98179947Y-111673771D01*
X99146229Y-112640053D01*
X100408736Y-113163000D01*
X101775264Y-113163000D01*
X103037771Y-112640053D01*
X104004053Y-111673771D01*
X104527000Y-110411264D01*
X104527000Y-109044736D01*
X104004053Y-107782229D01*
X103037771Y-106815947D01*
X101775264Y-106293000D01*
X100408736Y-106293000D01*
X99146229Y-106815947D01*
X98179947Y-107782229D01*
X97657000Y-109044736D01*
X97230000Y-109044736D01*
X97230000Y-102576000D01*
X104507908Y-102576000D01*
X104623161Y-103155418D01*
X104951375Y-103646625D01*
X105442582Y-103974839D01*
X105875744Y-104061000D01*
X106468256Y-104061000D01*
X106901418Y-103974839D01*
X107392625Y-103646625D01*
X107720839Y-103155418D01*
X107836092Y-102576000D01*
X107720839Y-101996582D01*
X107401291Y-101518344D01*
X107531699Y-101464327D01*
X107710327Y-101285698D01*
X107807000Y-101052309D01*
X107807000Y-100361750D01*
X107751369Y-100306119D01*
X114507000Y-100306119D01*
X114507000Y-100861881D01*
X114719680Y-101375337D01*
X115112663Y-101768320D01*
X115626119Y-101981000D01*
X116181881Y-101981000D01*
X116695337Y-101768320D01*
X116899444Y-101564213D01*
X120103392Y-101564213D01*
X120172857Y-101806397D01*
X120696302Y-101993144D01*
X121251368Y-101965362D01*
X121635143Y-101806397D01*
X121704608Y-101564213D01*
X120904000Y-100763605D01*
X120103392Y-101564213D01*
X116899444Y-101564213D01*
X117088320Y-101375337D01*
X117301000Y-100861881D01*
X117301000Y-100376302D01*
X119494856Y-100376302D01*
X119522638Y-100931368D01*
X119681603Y-101315143D01*
X119923787Y-101384608D01*
X120724395Y-100584000D01*
X121083605Y-100584000D01*
X121884213Y-101384608D01*
X122126397Y-101315143D01*
X122313144Y-100791698D01*
X122288840Y-100306119D01*
X127635000Y-100306119D01*
X127635000Y-100861881D01*
X127847680Y-101375337D01*
X128240663Y-101768320D01*
X128754119Y-101981000D01*
X129309881Y-101981000D01*
X129823337Y-101768320D01*
X130027444Y-101564213D01*
X133231392Y-101564213D01*
X133300857Y-101806397D01*
X133824302Y-101993144D01*
X134379368Y-101965362D01*
X134763143Y-101806397D01*
X134832608Y-101564213D01*
X134032000Y-100763605D01*
X133231392Y-101564213D01*
X130027444Y-101564213D01*
X130216320Y-101375337D01*
X130429000Y-100861881D01*
X130429000Y-100376302D01*
X132622856Y-100376302D01*
X132650638Y-100931368D01*
X132809603Y-101315143D01*
X133051787Y-101384608D01*
X133852395Y-100584000D01*
X134211605Y-100584000D01*
X135012213Y-101384608D01*
X135254397Y-101315143D01*
X135441144Y-100791698D01*
X135413362Y-100236632D01*
X135254397Y-99852857D01*
X135012213Y-99783392D01*
X134211605Y-100584000D01*
X133852395Y-100584000D01*
X133051787Y-99783392D01*
X132809603Y-99852857D01*
X132622856Y-100376302D01*
X130429000Y-100376302D01*
X130429000Y-100306119D01*
X130216320Y-99792663D01*
X129823337Y-99399680D01*
X129309881Y-99187000D01*
X128754119Y-99187000D01*
X128240663Y-99399680D01*
X127847680Y-99792663D01*
X127635000Y-100306119D01*
X122288840Y-100306119D01*
X122285362Y-100236632D01*
X122126397Y-99852857D01*
X121884213Y-99783392D01*
X121083605Y-100584000D01*
X120724395Y-100584000D01*
X119923787Y-99783392D01*
X119681603Y-99852857D01*
X119494856Y-100376302D01*
X117301000Y-100376302D01*
X117301000Y-100306119D01*
X117088320Y-99792663D01*
X116899444Y-99603787D01*
X120103392Y-99603787D01*
X120904000Y-100404395D01*
X121704608Y-99603787D01*
X121635143Y-99361603D01*
X121111698Y-99174856D01*
X120556632Y-99202638D01*
X120172857Y-99361603D01*
X120103392Y-99603787D01*
X116899444Y-99603787D01*
X116695337Y-99399680D01*
X116181881Y-99187000D01*
X115626119Y-99187000D01*
X115112663Y-99399680D01*
X114719680Y-99792663D01*
X114507000Y-100306119D01*
X107751369Y-100306119D01*
X107648250Y-100203000D01*
X106299000Y-100203000D01*
X106299000Y-100223000D01*
X106045000Y-100223000D01*
X106045000Y-100203000D01*
X104695750Y-100203000D01*
X104537000Y-100361750D01*
X104537000Y-101052309D01*
X104633673Y-101285698D01*
X104812301Y-101464327D01*
X104942709Y-101518344D01*
X104623161Y-101996582D01*
X104507908Y-102576000D01*
X97230000Y-102576000D01*
X97230000Y-99099691D01*
X104537000Y-99099691D01*
X104537000Y-99790250D01*
X104695750Y-99949000D01*
X106045000Y-99949000D01*
X106045000Y-98749750D01*
X106299000Y-98749750D01*
X106299000Y-99949000D01*
X107648250Y-99949000D01*
X107807000Y-99790250D01*
X107807000Y-99099691D01*
X107710327Y-98866302D01*
X107531699Y-98687673D01*
X107298310Y-98591000D01*
X106457750Y-98591000D01*
X106299000Y-98749750D01*
X106045000Y-98749750D01*
X105886250Y-98591000D01*
X105045690Y-98591000D01*
X104812301Y-98687673D01*
X104633673Y-98866302D01*
X104537000Y-99099691D01*
X97230000Y-99099691D01*
X97230000Y-95582736D01*
X128137000Y-95582736D01*
X128137000Y-96949264D01*
X128659947Y-98211771D01*
X129626229Y-99178053D01*
X130888736Y-99701000D01*
X132255264Y-99701000D01*
X132489957Y-99603787D01*
X133231392Y-99603787D01*
X134032000Y-100404395D01*
X134832608Y-99603787D01*
X134763143Y-99361603D01*
X134239698Y-99174856D01*
X133684632Y-99202638D01*
X133300857Y-99361603D01*
X133231392Y-99603787D01*
X132489957Y-99603787D01*
X133517771Y-99178053D01*
X134484053Y-98211771D01*
X135007000Y-96949264D01*
X135007000Y-95582736D01*
X134484053Y-94320229D01*
X133517771Y-93353947D01*
X132255264Y-92831000D01*
X130888736Y-92831000D01*
X129626229Y-93353947D01*
X128659947Y-94320229D01*
X128137000Y-95582736D01*
X97230000Y-95582736D01*
X97230000Y-92416000D01*
X104507908Y-92416000D01*
X104623161Y-92995418D01*
X104951375Y-93486625D01*
X105442582Y-93814839D01*
X105875744Y-93901000D01*
X106468256Y-93901000D01*
X106901418Y-93814839D01*
X107392625Y-93486625D01*
X107720839Y-92995418D01*
X107734206Y-92928213D01*
X128231392Y-92928213D01*
X128300857Y-93170397D01*
X128824302Y-93357144D01*
X129379368Y-93329362D01*
X129763143Y-93170397D01*
X129832608Y-92928213D01*
X129032000Y-92127605D01*
X128231392Y-92928213D01*
X107734206Y-92928213D01*
X107836092Y-92416000D01*
X107720839Y-91836582D01*
X107656507Y-91740302D01*
X127622856Y-91740302D01*
X127650638Y-92295368D01*
X127809603Y-92679143D01*
X128051787Y-92748608D01*
X128852395Y-91948000D01*
X129211605Y-91948000D01*
X130012213Y-92748608D01*
X130254397Y-92679143D01*
X130441144Y-92155698D01*
X130416840Y-91670119D01*
X132635000Y-91670119D01*
X132635000Y-92225881D01*
X132847680Y-92739337D01*
X133240663Y-93132320D01*
X133754119Y-93345000D01*
X134309881Y-93345000D01*
X134823337Y-93132320D01*
X135216320Y-92739337D01*
X135429000Y-92225881D01*
X135429000Y-91670119D01*
X135216320Y-91156663D01*
X134823337Y-90763680D01*
X134309881Y-90551000D01*
X133754119Y-90551000D01*
X133240663Y-90763680D01*
X132847680Y-91156663D01*
X132635000Y-91670119D01*
X130416840Y-91670119D01*
X130413362Y-91600632D01*
X130254397Y-91216857D01*
X130012213Y-91147392D01*
X129211605Y-91948000D01*
X128852395Y-91948000D01*
X128051787Y-91147392D01*
X127809603Y-91216857D01*
X127622856Y-91740302D01*
X107656507Y-91740302D01*
X107401291Y-91358344D01*
X107531699Y-91304327D01*
X107710327Y-91125698D01*
X107775735Y-90967787D01*
X128231392Y-90967787D01*
X129032000Y-91768395D01*
X129832608Y-90967787D01*
X129763143Y-90725603D01*
X129239698Y-90538856D01*
X128684632Y-90566638D01*
X128300857Y-90725603D01*
X128231392Y-90967787D01*
X107775735Y-90967787D01*
X107807000Y-90892309D01*
X107807000Y-90201750D01*
X107648250Y-90043000D01*
X106299000Y-90043000D01*
X106299000Y-90063000D01*
X106045000Y-90063000D01*
X106045000Y-90043000D01*
X104695750Y-90043000D01*
X104537000Y-90201750D01*
X104537000Y-90892309D01*
X104633673Y-91125698D01*
X104812301Y-91304327D01*
X104942709Y-91358344D01*
X104623161Y-91836582D01*
X104507908Y-92416000D01*
X97230000Y-92416000D01*
X97230000Y-88939691D01*
X104537000Y-88939691D01*
X104537000Y-89630250D01*
X104695750Y-89789000D01*
X106045000Y-89789000D01*
X106045000Y-88589750D01*
X106299000Y-88589750D01*
X106299000Y-89789000D01*
X107648250Y-89789000D01*
X107807000Y-89630250D01*
X107807000Y-88939691D01*
X107710327Y-88706302D01*
X107531699Y-88527673D01*
X107298310Y-88431000D01*
X106457750Y-88431000D01*
X106299000Y-88589750D01*
X106045000Y-88589750D01*
X105886250Y-88431000D01*
X105045690Y-88431000D01*
X104812301Y-88527673D01*
X104633673Y-88706302D01*
X104537000Y-88939691D01*
X97230000Y-88939691D01*
X97230000Y-82120736D01*
X97657000Y-82120736D01*
X97657000Y-83487264D01*
X98179947Y-84749771D01*
X99146229Y-85716053D01*
X100408736Y-86239000D01*
X101775264Y-86239000D01*
X103037771Y-85716053D01*
X104004053Y-84749771D01*
X104527000Y-83487264D01*
X104527000Y-82120736D01*
X104004053Y-80858229D01*
X103131943Y-79986119D01*
X112903000Y-79986119D01*
X112903000Y-80541881D01*
X113115680Y-81055337D01*
X113508663Y-81448320D01*
X114022119Y-81661000D01*
X114577881Y-81661000D01*
X115091337Y-81448320D01*
X115295444Y-81244213D01*
X116039392Y-81244213D01*
X116108857Y-81486397D01*
X116632302Y-81673144D01*
X117187368Y-81645362D01*
X117571143Y-81486397D01*
X117640608Y-81244213D01*
X116840000Y-80443605D01*
X116039392Y-81244213D01*
X115295444Y-81244213D01*
X115484320Y-81055337D01*
X115563428Y-80864353D01*
X115617603Y-80995143D01*
X115859787Y-81064608D01*
X116660395Y-80264000D01*
X117019605Y-80264000D01*
X117820213Y-81064608D01*
X118062397Y-80995143D01*
X118112535Y-80854607D01*
X118195680Y-81055337D01*
X118588663Y-81448320D01*
X119102119Y-81661000D01*
X119657881Y-81661000D01*
X120171337Y-81448320D01*
X120564320Y-81055337D01*
X120650000Y-80848487D01*
X120735680Y-81055337D01*
X121128663Y-81448320D01*
X121642119Y-81661000D01*
X122197881Y-81661000D01*
X122711337Y-81448320D01*
X123104320Y-81055337D01*
X123317000Y-80541881D01*
X123317000Y-79986119D01*
X123104320Y-79472663D01*
X122711337Y-79079680D01*
X122197881Y-78867000D01*
X121642119Y-78867000D01*
X121128663Y-79079680D01*
X120735680Y-79472663D01*
X120650000Y-79679513D01*
X120564320Y-79472663D01*
X120171337Y-79079680D01*
X119657881Y-78867000D01*
X119102119Y-78867000D01*
X118588663Y-79079680D01*
X118195680Y-79472663D01*
X118116572Y-79663647D01*
X118062397Y-79532857D01*
X117820213Y-79463392D01*
X117019605Y-80264000D01*
X116660395Y-80264000D01*
X115859787Y-79463392D01*
X115617603Y-79532857D01*
X115567465Y-79673393D01*
X115484320Y-79472663D01*
X115295444Y-79283787D01*
X116039392Y-79283787D01*
X116840000Y-80084395D01*
X117640608Y-79283787D01*
X117571143Y-79041603D01*
X117047698Y-78854856D01*
X116492632Y-78882638D01*
X116108857Y-79041603D01*
X116039392Y-79283787D01*
X115295444Y-79283787D01*
X115091337Y-79079680D01*
X114577881Y-78867000D01*
X114022119Y-78867000D01*
X113508663Y-79079680D01*
X113115680Y-79472663D01*
X112903000Y-79986119D01*
X103131943Y-79986119D01*
X103037771Y-79891947D01*
X101775264Y-79369000D01*
X100408736Y-79369000D01*
X99146229Y-79891947D01*
X98179947Y-80858229D01*
X97657000Y-82120736D01*
X97230000Y-82120736D01*
X97230000Y-75692000D01*
X104507908Y-75692000D01*
X104623161Y-76271418D01*
X104951375Y-76762625D01*
X105442582Y-77090839D01*
X105875744Y-77177000D01*
X106468256Y-77177000D01*
X106901418Y-77090839D01*
X107392625Y-76762625D01*
X107720839Y-76271418D01*
X107836092Y-75692000D01*
X107720839Y-75112582D01*
X107401291Y-74634344D01*
X107531699Y-74580327D01*
X107710327Y-74401698D01*
X107807000Y-74168309D01*
X107807000Y-73477750D01*
X107648250Y-73319000D01*
X106299000Y-73319000D01*
X106299000Y-73339000D01*
X106045000Y-73339000D01*
X106045000Y-73319000D01*
X104695750Y-73319000D01*
X104537000Y-73477750D01*
X104537000Y-74168309D01*
X104633673Y-74401698D01*
X104812301Y-74580327D01*
X104942709Y-74634344D01*
X104623161Y-75112582D01*
X104507908Y-75692000D01*
X97230000Y-75692000D01*
X97230000Y-72215691D01*
X104537000Y-72215691D01*
X104537000Y-72906250D01*
X104695750Y-73065000D01*
X106045000Y-73065000D01*
X106045000Y-71865750D01*
X106299000Y-71865750D01*
X106299000Y-73065000D01*
X107648250Y-73065000D01*
X107807000Y-72906250D01*
X107807000Y-72215691D01*
X107710327Y-71982302D01*
X107531699Y-71803673D01*
X107298310Y-71707000D01*
X106457750Y-71707000D01*
X106299000Y-71865750D01*
X106045000Y-71865750D01*
X105886250Y-71707000D01*
X105045690Y-71707000D01*
X104812301Y-71803673D01*
X104633673Y-71982302D01*
X104537000Y-72215691D01*
X97230000Y-72215691D01*
X97230000Y-70814000D01*
X137466000Y-70814000D01*
X137466001Y-121718000D01*
X137466001Y-121718000D01*
G37*
X137466001Y-121718000D02*
X97230000Y-121718000D01*
X97230000Y-119340000D01*
X104507908Y-119340000D01*
X104623161Y-119919418D01*
X104951375Y-120410625D01*
X105442582Y-120738839D01*
X105875744Y-120825000D01*
X106468256Y-120825000D01*
X106901418Y-120738839D01*
X107392625Y-120410625D01*
X107720839Y-119919418D01*
X107836092Y-119340000D01*
X107720839Y-118760582D01*
X107401291Y-118282344D01*
X107531699Y-118228327D01*
X107710327Y-118049698D01*
X107807000Y-117816309D01*
X107807000Y-117125750D01*
X107648250Y-116967000D01*
X106299000Y-116967000D01*
X106299000Y-116987000D01*
X106045000Y-116987000D01*
X106045000Y-116967000D01*
X104695750Y-116967000D01*
X104537000Y-117125750D01*
X104537000Y-117816309D01*
X104633673Y-118049698D01*
X104812301Y-118228327D01*
X104942709Y-118282344D01*
X104623161Y-118760582D01*
X104507908Y-119340000D01*
X97230000Y-119340000D01*
X97230000Y-115863691D01*
X104537000Y-115863691D01*
X104537000Y-116554250D01*
X104695750Y-116713000D01*
X106045000Y-116713000D01*
X106045000Y-115513750D01*
X106299000Y-115513750D01*
X106299000Y-116713000D01*
X107648250Y-116713000D01*
X107807000Y-116554250D01*
X107807000Y-115863691D01*
X107710327Y-115630302D01*
X107531699Y-115451673D01*
X107298310Y-115355000D01*
X106457750Y-115355000D01*
X106299000Y-115513750D01*
X106045000Y-115513750D01*
X105886250Y-115355000D01*
X105045690Y-115355000D01*
X104812301Y-115451673D01*
X104633673Y-115630302D01*
X104537000Y-115863691D01*
X97230000Y-115863691D01*
X97230000Y-109044736D01*
X97657000Y-109044736D01*
X97657000Y-110411264D01*
X98179947Y-111673771D01*
X99146229Y-112640053D01*
X100408736Y-113163000D01*
X101775264Y-113163000D01*
X103037771Y-112640053D01*
X104004053Y-111673771D01*
X104527000Y-110411264D01*
X104527000Y-109044736D01*
X104004053Y-107782229D01*
X103037771Y-106815947D01*
X101775264Y-106293000D01*
X100408736Y-106293000D01*
X99146229Y-106815947D01*
X98179947Y-107782229D01*
X97657000Y-109044736D01*
X97230000Y-109044736D01*
X97230000Y-102576000D01*
X104507908Y-102576000D01*
X104623161Y-103155418D01*
X104951375Y-103646625D01*
X105442582Y-103974839D01*
X105875744Y-104061000D01*
X106468256Y-104061000D01*
X106901418Y-103974839D01*
X107392625Y-103646625D01*
X107720839Y-103155418D01*
X107836092Y-102576000D01*
X107720839Y-101996582D01*
X107401291Y-101518344D01*
X107531699Y-101464327D01*
X107710327Y-101285698D01*
X107807000Y-101052309D01*
X107807000Y-100361750D01*
X107751369Y-100306119D01*
X114507000Y-100306119D01*
X114507000Y-100861881D01*
X114719680Y-101375337D01*
X115112663Y-101768320D01*
X115626119Y-101981000D01*
X116181881Y-101981000D01*
X116695337Y-101768320D01*
X116899444Y-101564213D01*
X120103392Y-101564213D01*
X120172857Y-101806397D01*
X120696302Y-101993144D01*
X121251368Y-101965362D01*
X121635143Y-101806397D01*
X121704608Y-101564213D01*
X120904000Y-100763605D01*
X120103392Y-101564213D01*
X116899444Y-101564213D01*
X117088320Y-101375337D01*
X117301000Y-100861881D01*
X117301000Y-100376302D01*
X119494856Y-100376302D01*
X119522638Y-100931368D01*
X119681603Y-101315143D01*
X119923787Y-101384608D01*
X120724395Y-100584000D01*
X121083605Y-100584000D01*
X121884213Y-101384608D01*
X122126397Y-101315143D01*
X122313144Y-100791698D01*
X122288840Y-100306119D01*
X127635000Y-100306119D01*
X127635000Y-100861881D01*
X127847680Y-101375337D01*
X128240663Y-101768320D01*
X128754119Y-101981000D01*
X129309881Y-101981000D01*
X129823337Y-101768320D01*
X130027444Y-101564213D01*
X133231392Y-101564213D01*
X133300857Y-101806397D01*
X133824302Y-101993144D01*
X134379368Y-101965362D01*
X134763143Y-101806397D01*
X134832608Y-101564213D01*
X134032000Y-100763605D01*
X133231392Y-101564213D01*
X130027444Y-101564213D01*
X130216320Y-101375337D01*
X130429000Y-100861881D01*
X130429000Y-100376302D01*
X132622856Y-100376302D01*
X132650638Y-100931368D01*
X132809603Y-101315143D01*
X133051787Y-101384608D01*
X133852395Y-100584000D01*
X134211605Y-100584000D01*
X135012213Y-101384608D01*
X135254397Y-101315143D01*
X135441144Y-100791698D01*
X135413362Y-100236632D01*
X135254397Y-99852857D01*
X135012213Y-99783392D01*
X134211605Y-100584000D01*
X133852395Y-100584000D01*
X133051787Y-99783392D01*
X132809603Y-99852857D01*
X132622856Y-100376302D01*
X130429000Y-100376302D01*
X130429000Y-100306119D01*
X130216320Y-99792663D01*
X129823337Y-99399680D01*
X129309881Y-99187000D01*
X128754119Y-99187000D01*
X128240663Y-99399680D01*
X127847680Y-99792663D01*
X127635000Y-100306119D01*
X122288840Y-100306119D01*
X122285362Y-100236632D01*
X122126397Y-99852857D01*
X121884213Y-99783392D01*
X121083605Y-100584000D01*
X120724395Y-100584000D01*
X119923787Y-99783392D01*
X119681603Y-99852857D01*
X119494856Y-100376302D01*
X117301000Y-100376302D01*
X117301000Y-100306119D01*
X117088320Y-99792663D01*
X116899444Y-99603787D01*
X120103392Y-99603787D01*
X120904000Y-100404395D01*
X121704608Y-99603787D01*
X121635143Y-99361603D01*
X121111698Y-99174856D01*
X120556632Y-99202638D01*
X120172857Y-99361603D01*
X120103392Y-99603787D01*
X116899444Y-99603787D01*
X116695337Y-99399680D01*
X116181881Y-99187000D01*
X115626119Y-99187000D01*
X115112663Y-99399680D01*
X114719680Y-99792663D01*
X114507000Y-100306119D01*
X107751369Y-100306119D01*
X107648250Y-100203000D01*
X106299000Y-100203000D01*
X106299000Y-100223000D01*
X106045000Y-100223000D01*
X106045000Y-100203000D01*
X104695750Y-100203000D01*
X104537000Y-100361750D01*
X104537000Y-101052309D01*
X104633673Y-101285698D01*
X104812301Y-101464327D01*
X104942709Y-101518344D01*
X104623161Y-101996582D01*
X104507908Y-102576000D01*
X97230000Y-102576000D01*
X97230000Y-99099691D01*
X104537000Y-99099691D01*
X104537000Y-99790250D01*
X104695750Y-99949000D01*
X106045000Y-99949000D01*
X106045000Y-98749750D01*
X106299000Y-98749750D01*
X106299000Y-99949000D01*
X107648250Y-99949000D01*
X107807000Y-99790250D01*
X107807000Y-99099691D01*
X107710327Y-98866302D01*
X107531699Y-98687673D01*
X107298310Y-98591000D01*
X106457750Y-98591000D01*
X106299000Y-98749750D01*
X106045000Y-98749750D01*
X105886250Y-98591000D01*
X105045690Y-98591000D01*
X104812301Y-98687673D01*
X104633673Y-98866302D01*
X104537000Y-99099691D01*
X97230000Y-99099691D01*
X97230000Y-95582736D01*
X128137000Y-95582736D01*
X128137000Y-96949264D01*
X128659947Y-98211771D01*
X129626229Y-99178053D01*
X130888736Y-99701000D01*
X132255264Y-99701000D01*
X132489957Y-99603787D01*
X133231392Y-99603787D01*
X134032000Y-100404395D01*
X134832608Y-99603787D01*
X134763143Y-99361603D01*
X134239698Y-99174856D01*
X133684632Y-99202638D01*
X133300857Y-99361603D01*
X133231392Y-99603787D01*
X132489957Y-99603787D01*
X133517771Y-99178053D01*
X134484053Y-98211771D01*
X135007000Y-96949264D01*
X135007000Y-95582736D01*
X134484053Y-94320229D01*
X133517771Y-93353947D01*
X132255264Y-92831000D01*
X130888736Y-92831000D01*
X129626229Y-93353947D01*
X128659947Y-94320229D01*
X128137000Y-95582736D01*
X97230000Y-95582736D01*
X97230000Y-92416000D01*
X104507908Y-92416000D01*
X104623161Y-92995418D01*
X104951375Y-93486625D01*
X105442582Y-93814839D01*
X105875744Y-93901000D01*
X106468256Y-93901000D01*
X106901418Y-93814839D01*
X107392625Y-93486625D01*
X107720839Y-92995418D01*
X107734206Y-92928213D01*
X128231392Y-92928213D01*
X128300857Y-93170397D01*
X128824302Y-93357144D01*
X129379368Y-93329362D01*
X129763143Y-93170397D01*
X129832608Y-92928213D01*
X129032000Y-92127605D01*
X128231392Y-92928213D01*
X107734206Y-92928213D01*
X107836092Y-92416000D01*
X107720839Y-91836582D01*
X107656507Y-91740302D01*
X127622856Y-91740302D01*
X127650638Y-92295368D01*
X127809603Y-92679143D01*
X128051787Y-92748608D01*
X128852395Y-91948000D01*
X129211605Y-91948000D01*
X130012213Y-92748608D01*
X130254397Y-92679143D01*
X130441144Y-92155698D01*
X130416840Y-91670119D01*
X132635000Y-91670119D01*
X132635000Y-92225881D01*
X132847680Y-92739337D01*
X133240663Y-93132320D01*
X133754119Y-93345000D01*
X134309881Y-93345000D01*
X134823337Y-93132320D01*
X135216320Y-92739337D01*
X135429000Y-92225881D01*
X135429000Y-91670119D01*
X135216320Y-91156663D01*
X134823337Y-90763680D01*
X134309881Y-90551000D01*
X133754119Y-90551000D01*
X133240663Y-90763680D01*
X132847680Y-91156663D01*
X132635000Y-91670119D01*
X130416840Y-91670119D01*
X130413362Y-91600632D01*
X130254397Y-91216857D01*
X130012213Y-91147392D01*
X129211605Y-91948000D01*
X128852395Y-91948000D01*
X128051787Y-91147392D01*
X127809603Y-91216857D01*
X127622856Y-91740302D01*
X107656507Y-91740302D01*
X107401291Y-91358344D01*
X107531699Y-91304327D01*
X107710327Y-91125698D01*
X107775735Y-90967787D01*
X128231392Y-90967787D01*
X129032000Y-91768395D01*
X129832608Y-90967787D01*
X129763143Y-90725603D01*
X129239698Y-90538856D01*
X128684632Y-90566638D01*
X128300857Y-90725603D01*
X128231392Y-90967787D01*
X107775735Y-90967787D01*
X107807000Y-90892309D01*
X107807000Y-90201750D01*
X107648250Y-90043000D01*
X106299000Y-90043000D01*
X106299000Y-90063000D01*
X106045000Y-90063000D01*
X106045000Y-90043000D01*
X104695750Y-90043000D01*
X104537000Y-90201750D01*
X104537000Y-90892309D01*
X104633673Y-91125698D01*
X104812301Y-91304327D01*
X104942709Y-91358344D01*
X104623161Y-91836582D01*
X104507908Y-92416000D01*
X97230000Y-92416000D01*
X97230000Y-88939691D01*
X104537000Y-88939691D01*
X104537000Y-89630250D01*
X104695750Y-89789000D01*
X106045000Y-89789000D01*
X106045000Y-88589750D01*
X106299000Y-88589750D01*
X106299000Y-89789000D01*
X107648250Y-89789000D01*
X107807000Y-89630250D01*
X107807000Y-88939691D01*
X107710327Y-88706302D01*
X107531699Y-88527673D01*
X107298310Y-88431000D01*
X106457750Y-88431000D01*
X106299000Y-88589750D01*
X106045000Y-88589750D01*
X105886250Y-88431000D01*
X105045690Y-88431000D01*
X104812301Y-88527673D01*
X104633673Y-88706302D01*
X104537000Y-88939691D01*
X97230000Y-88939691D01*
X97230000Y-82120736D01*
X97657000Y-82120736D01*
X97657000Y-83487264D01*
X98179947Y-84749771D01*
X99146229Y-85716053D01*
X100408736Y-86239000D01*
X101775264Y-86239000D01*
X103037771Y-85716053D01*
X104004053Y-84749771D01*
X104527000Y-83487264D01*
X104527000Y-82120736D01*
X104004053Y-80858229D01*
X103131943Y-79986119D01*
X112903000Y-79986119D01*
X112903000Y-80541881D01*
X113115680Y-81055337D01*
X113508663Y-81448320D01*
X114022119Y-81661000D01*
X114577881Y-81661000D01*
X115091337Y-81448320D01*
X115295444Y-81244213D01*
X116039392Y-81244213D01*
X116108857Y-81486397D01*
X116632302Y-81673144D01*
X117187368Y-81645362D01*
X117571143Y-81486397D01*
X117640608Y-81244213D01*
X116840000Y-80443605D01*
X116039392Y-81244213D01*
X115295444Y-81244213D01*
X115484320Y-81055337D01*
X115563428Y-80864353D01*
X115617603Y-80995143D01*
X115859787Y-81064608D01*
X116660395Y-80264000D01*
X117019605Y-80264000D01*
X117820213Y-81064608D01*
X118062397Y-80995143D01*
X118112535Y-80854607D01*
X118195680Y-81055337D01*
X118588663Y-81448320D01*
X119102119Y-81661000D01*
X119657881Y-81661000D01*
X120171337Y-81448320D01*
X120564320Y-81055337D01*
X120650000Y-80848487D01*
X120735680Y-81055337D01*
X121128663Y-81448320D01*
X121642119Y-81661000D01*
X122197881Y-81661000D01*
X122711337Y-81448320D01*
X123104320Y-81055337D01*
X123317000Y-80541881D01*
X123317000Y-79986119D01*
X123104320Y-79472663D01*
X122711337Y-79079680D01*
X122197881Y-78867000D01*
X121642119Y-78867000D01*
X121128663Y-79079680D01*
X120735680Y-79472663D01*
X120650000Y-79679513D01*
X120564320Y-79472663D01*
X120171337Y-79079680D01*
X119657881Y-78867000D01*
X119102119Y-78867000D01*
X118588663Y-79079680D01*
X118195680Y-79472663D01*
X118116572Y-79663647D01*
X118062397Y-79532857D01*
X117820213Y-79463392D01*
X117019605Y-80264000D01*
X116660395Y-80264000D01*
X115859787Y-79463392D01*
X115617603Y-79532857D01*
X115567465Y-79673393D01*
X115484320Y-79472663D01*
X115295444Y-79283787D01*
X116039392Y-79283787D01*
X116840000Y-80084395D01*
X117640608Y-79283787D01*
X117571143Y-79041603D01*
X117047698Y-78854856D01*
X116492632Y-78882638D01*
X116108857Y-79041603D01*
X116039392Y-79283787D01*
X115295444Y-79283787D01*
X115091337Y-79079680D01*
X114577881Y-78867000D01*
X114022119Y-78867000D01*
X113508663Y-79079680D01*
X113115680Y-79472663D01*
X112903000Y-79986119D01*
X103131943Y-79986119D01*
X103037771Y-79891947D01*
X101775264Y-79369000D01*
X100408736Y-79369000D01*
X99146229Y-79891947D01*
X98179947Y-80858229D01*
X97657000Y-82120736D01*
X97230000Y-82120736D01*
X97230000Y-75692000D01*
X104507908Y-75692000D01*
X104623161Y-76271418D01*
X104951375Y-76762625D01*
X105442582Y-77090839D01*
X105875744Y-77177000D01*
X106468256Y-77177000D01*
X106901418Y-77090839D01*
X107392625Y-76762625D01*
X107720839Y-76271418D01*
X107836092Y-75692000D01*
X107720839Y-75112582D01*
X107401291Y-74634344D01*
X107531699Y-74580327D01*
X107710327Y-74401698D01*
X107807000Y-74168309D01*
X107807000Y-73477750D01*
X107648250Y-73319000D01*
X106299000Y-73319000D01*
X106299000Y-73339000D01*
X106045000Y-73339000D01*
X106045000Y-73319000D01*
X104695750Y-73319000D01*
X104537000Y-73477750D01*
X104537000Y-74168309D01*
X104633673Y-74401698D01*
X104812301Y-74580327D01*
X104942709Y-74634344D01*
X104623161Y-75112582D01*
X104507908Y-75692000D01*
X97230000Y-75692000D01*
X97230000Y-72215691D01*
X104537000Y-72215691D01*
X104537000Y-72906250D01*
X104695750Y-73065000D01*
X106045000Y-73065000D01*
X106045000Y-71865750D01*
X106299000Y-71865750D01*
X106299000Y-73065000D01*
X107648250Y-73065000D01*
X107807000Y-72906250D01*
X107807000Y-72215691D01*
X107710327Y-71982302D01*
X107531699Y-71803673D01*
X107298310Y-71707000D01*
X106457750Y-71707000D01*
X106299000Y-71865750D01*
X106045000Y-71865750D01*
X105886250Y-71707000D01*
X105045690Y-71707000D01*
X104812301Y-71803673D01*
X104633673Y-71982302D01*
X104537000Y-72215691D01*
X97230000Y-72215691D01*
X97230000Y-70814000D01*
X137466000Y-70814000D01*
X137466001Y-121718000D01*
M02*
