%TF.GenerationSoftware,KiCad,Pcbnew,5.0.2+dfsg1-1*%
%TF.CreationDate,2022-03-26T23:48:13+09:00*%
%TF.ProjectId,tablet-psu,7461626c-6574-42d7-9073-752e6b696361,rev?*%
%TF.SameCoordinates,Original*%
%TF.FileFunction,Copper,L1,Top*%
%TF.FilePolarity,Positive*%
%FSLAX46Y46*%
G04 Gerber Fmt 4.6, Leading zero omitted, Abs format (unit mm)*
G04 Created by KiCad (PCBNEW 5.0.2+dfsg1-1) date Sat 26 Mar 2022 11:48:13 PM JST*
%MOMM*%
%LPD*%
G01*
G04 APERTURE LIST*
%ADD10C,0.150000*%
%ADD11C,0.100000*%
%ADD12C,1.150000*%
%ADD13C,2.100000*%
%ADD14O,2.000000X1.700000*%
%ADD15C,1.700000*%
%ADD16C,1.524000*%
%ADD17C,5.600000*%
%ADD18C,1.000000*%
%ADD19C,2.000000*%
%ADD20C,0.250000*%
%ADD21C,0.254000*%
G04 APERTURE END LIST*
D10*
X138176000Y-70104000D02*
X138176000Y-122428000D01*
X96520000Y-70104000D02*
X138176000Y-70104000D01*
X96520000Y-122428000D02*
X138176000Y-122428000D01*
X96520000Y-70104000D02*
X96520000Y-122428000D01*
D11*
G36*
X122394505Y-75644204D02*
X122418773Y-75647804D01*
X122442572Y-75653765D01*
X122465671Y-75662030D01*
X122487850Y-75672520D01*
X122508893Y-75685132D01*
X122528599Y-75699747D01*
X122546777Y-75716223D01*
X122563253Y-75734401D01*
X122577868Y-75754107D01*
X122590480Y-75775150D01*
X122600970Y-75797329D01*
X122609235Y-75820428D01*
X122615196Y-75844227D01*
X122618796Y-75868495D01*
X122620000Y-75892999D01*
X122620000Y-76543001D01*
X122618796Y-76567505D01*
X122615196Y-76591773D01*
X122609235Y-76615572D01*
X122600970Y-76638671D01*
X122590480Y-76660850D01*
X122577868Y-76681893D01*
X122563253Y-76701599D01*
X122546777Y-76719777D01*
X122528599Y-76736253D01*
X122508893Y-76750868D01*
X122487850Y-76763480D01*
X122465671Y-76773970D01*
X122442572Y-76782235D01*
X122418773Y-76788196D01*
X122394505Y-76791796D01*
X122370001Y-76793000D01*
X121469999Y-76793000D01*
X121445495Y-76791796D01*
X121421227Y-76788196D01*
X121397428Y-76782235D01*
X121374329Y-76773970D01*
X121352150Y-76763480D01*
X121331107Y-76750868D01*
X121311401Y-76736253D01*
X121293223Y-76719777D01*
X121276747Y-76701599D01*
X121262132Y-76681893D01*
X121249520Y-76660850D01*
X121239030Y-76638671D01*
X121230765Y-76615572D01*
X121224804Y-76591773D01*
X121221204Y-76567505D01*
X121220000Y-76543001D01*
X121220000Y-75892999D01*
X121221204Y-75868495D01*
X121224804Y-75844227D01*
X121230765Y-75820428D01*
X121239030Y-75797329D01*
X121249520Y-75775150D01*
X121262132Y-75754107D01*
X121276747Y-75734401D01*
X121293223Y-75716223D01*
X121311401Y-75699747D01*
X121331107Y-75685132D01*
X121352150Y-75672520D01*
X121374329Y-75662030D01*
X121397428Y-75653765D01*
X121421227Y-75647804D01*
X121445495Y-75644204D01*
X121469999Y-75643000D01*
X122370001Y-75643000D01*
X122394505Y-75644204D01*
X122394505Y-75644204D01*
G37*
D12*
X121920000Y-76218000D03*
D11*
G36*
X122394505Y-73594204D02*
X122418773Y-73597804D01*
X122442572Y-73603765D01*
X122465671Y-73612030D01*
X122487850Y-73622520D01*
X122508893Y-73635132D01*
X122528599Y-73649747D01*
X122546777Y-73666223D01*
X122563253Y-73684401D01*
X122577868Y-73704107D01*
X122590480Y-73725150D01*
X122600970Y-73747329D01*
X122609235Y-73770428D01*
X122615196Y-73794227D01*
X122618796Y-73818495D01*
X122620000Y-73842999D01*
X122620000Y-74493001D01*
X122618796Y-74517505D01*
X122615196Y-74541773D01*
X122609235Y-74565572D01*
X122600970Y-74588671D01*
X122590480Y-74610850D01*
X122577868Y-74631893D01*
X122563253Y-74651599D01*
X122546777Y-74669777D01*
X122528599Y-74686253D01*
X122508893Y-74700868D01*
X122487850Y-74713480D01*
X122465671Y-74723970D01*
X122442572Y-74732235D01*
X122418773Y-74738196D01*
X122394505Y-74741796D01*
X122370001Y-74743000D01*
X121469999Y-74743000D01*
X121445495Y-74741796D01*
X121421227Y-74738196D01*
X121397428Y-74732235D01*
X121374329Y-74723970D01*
X121352150Y-74713480D01*
X121331107Y-74700868D01*
X121311401Y-74686253D01*
X121293223Y-74669777D01*
X121276747Y-74651599D01*
X121262132Y-74631893D01*
X121249520Y-74610850D01*
X121239030Y-74588671D01*
X121230765Y-74565572D01*
X121224804Y-74541773D01*
X121221204Y-74517505D01*
X121220000Y-74493001D01*
X121220000Y-73842999D01*
X121221204Y-73818495D01*
X121224804Y-73794227D01*
X121230765Y-73770428D01*
X121239030Y-73747329D01*
X121249520Y-73725150D01*
X121262132Y-73704107D01*
X121276747Y-73684401D01*
X121293223Y-73666223D01*
X121311401Y-73649747D01*
X121331107Y-73635132D01*
X121352150Y-73622520D01*
X121374329Y-73612030D01*
X121397428Y-73603765D01*
X121421227Y-73597804D01*
X121445495Y-73594204D01*
X121469999Y-73593000D01*
X122370001Y-73593000D01*
X122394505Y-73594204D01*
X122394505Y-73594204D01*
G37*
D12*
X121920000Y-74168000D03*
D11*
G36*
X111218505Y-84788204D02*
X111242773Y-84791804D01*
X111266572Y-84797765D01*
X111289671Y-84806030D01*
X111311850Y-84816520D01*
X111332893Y-84829132D01*
X111352599Y-84843747D01*
X111370777Y-84860223D01*
X111387253Y-84878401D01*
X111401868Y-84898107D01*
X111414480Y-84919150D01*
X111424970Y-84941329D01*
X111433235Y-84964428D01*
X111439196Y-84988227D01*
X111442796Y-85012495D01*
X111444000Y-85036999D01*
X111444000Y-85687001D01*
X111442796Y-85711505D01*
X111439196Y-85735773D01*
X111433235Y-85759572D01*
X111424970Y-85782671D01*
X111414480Y-85804850D01*
X111401868Y-85825893D01*
X111387253Y-85845599D01*
X111370777Y-85863777D01*
X111352599Y-85880253D01*
X111332893Y-85894868D01*
X111311850Y-85907480D01*
X111289671Y-85917970D01*
X111266572Y-85926235D01*
X111242773Y-85932196D01*
X111218505Y-85935796D01*
X111194001Y-85937000D01*
X110293999Y-85937000D01*
X110269495Y-85935796D01*
X110245227Y-85932196D01*
X110221428Y-85926235D01*
X110198329Y-85917970D01*
X110176150Y-85907480D01*
X110155107Y-85894868D01*
X110135401Y-85880253D01*
X110117223Y-85863777D01*
X110100747Y-85845599D01*
X110086132Y-85825893D01*
X110073520Y-85804850D01*
X110063030Y-85782671D01*
X110054765Y-85759572D01*
X110048804Y-85735773D01*
X110045204Y-85711505D01*
X110044000Y-85687001D01*
X110044000Y-85036999D01*
X110045204Y-85012495D01*
X110048804Y-84988227D01*
X110054765Y-84964428D01*
X110063030Y-84941329D01*
X110073520Y-84919150D01*
X110086132Y-84898107D01*
X110100747Y-84878401D01*
X110117223Y-84860223D01*
X110135401Y-84843747D01*
X110155107Y-84829132D01*
X110176150Y-84816520D01*
X110198329Y-84806030D01*
X110221428Y-84797765D01*
X110245227Y-84791804D01*
X110269495Y-84788204D01*
X110293999Y-84787000D01*
X111194001Y-84787000D01*
X111218505Y-84788204D01*
X111218505Y-84788204D01*
G37*
D12*
X110744000Y-85362000D03*
D11*
G36*
X111218505Y-82738204D02*
X111242773Y-82741804D01*
X111266572Y-82747765D01*
X111289671Y-82756030D01*
X111311850Y-82766520D01*
X111332893Y-82779132D01*
X111352599Y-82793747D01*
X111370777Y-82810223D01*
X111387253Y-82828401D01*
X111401868Y-82848107D01*
X111414480Y-82869150D01*
X111424970Y-82891329D01*
X111433235Y-82914428D01*
X111439196Y-82938227D01*
X111442796Y-82962495D01*
X111444000Y-82986999D01*
X111444000Y-83637001D01*
X111442796Y-83661505D01*
X111439196Y-83685773D01*
X111433235Y-83709572D01*
X111424970Y-83732671D01*
X111414480Y-83754850D01*
X111401868Y-83775893D01*
X111387253Y-83795599D01*
X111370777Y-83813777D01*
X111352599Y-83830253D01*
X111332893Y-83844868D01*
X111311850Y-83857480D01*
X111289671Y-83867970D01*
X111266572Y-83876235D01*
X111242773Y-83882196D01*
X111218505Y-83885796D01*
X111194001Y-83887000D01*
X110293999Y-83887000D01*
X110269495Y-83885796D01*
X110245227Y-83882196D01*
X110221428Y-83876235D01*
X110198329Y-83867970D01*
X110176150Y-83857480D01*
X110155107Y-83844868D01*
X110135401Y-83830253D01*
X110117223Y-83813777D01*
X110100747Y-83795599D01*
X110086132Y-83775893D01*
X110073520Y-83754850D01*
X110063030Y-83732671D01*
X110054765Y-83709572D01*
X110048804Y-83685773D01*
X110045204Y-83661505D01*
X110044000Y-83637001D01*
X110044000Y-82986999D01*
X110045204Y-82962495D01*
X110048804Y-82938227D01*
X110054765Y-82914428D01*
X110063030Y-82891329D01*
X110073520Y-82869150D01*
X110086132Y-82848107D01*
X110100747Y-82828401D01*
X110117223Y-82810223D01*
X110135401Y-82793747D01*
X110155107Y-82779132D01*
X110176150Y-82766520D01*
X110198329Y-82756030D01*
X110221428Y-82747765D01*
X110245227Y-82741804D01*
X110269495Y-82738204D01*
X110293999Y-82737000D01*
X111194001Y-82737000D01*
X111218505Y-82738204D01*
X111218505Y-82738204D01*
G37*
D12*
X110744000Y-83312000D03*
D11*
G36*
X111218505Y-112211204D02*
X111242773Y-112214804D01*
X111266572Y-112220765D01*
X111289671Y-112229030D01*
X111311850Y-112239520D01*
X111332893Y-112252132D01*
X111352599Y-112266747D01*
X111370777Y-112283223D01*
X111387253Y-112301401D01*
X111401868Y-112321107D01*
X111414480Y-112342150D01*
X111424970Y-112364329D01*
X111433235Y-112387428D01*
X111439196Y-112411227D01*
X111442796Y-112435495D01*
X111444000Y-112459999D01*
X111444000Y-113110001D01*
X111442796Y-113134505D01*
X111439196Y-113158773D01*
X111433235Y-113182572D01*
X111424970Y-113205671D01*
X111414480Y-113227850D01*
X111401868Y-113248893D01*
X111387253Y-113268599D01*
X111370777Y-113286777D01*
X111352599Y-113303253D01*
X111332893Y-113317868D01*
X111311850Y-113330480D01*
X111289671Y-113340970D01*
X111266572Y-113349235D01*
X111242773Y-113355196D01*
X111218505Y-113358796D01*
X111194001Y-113360000D01*
X110293999Y-113360000D01*
X110269495Y-113358796D01*
X110245227Y-113355196D01*
X110221428Y-113349235D01*
X110198329Y-113340970D01*
X110176150Y-113330480D01*
X110155107Y-113317868D01*
X110135401Y-113303253D01*
X110117223Y-113286777D01*
X110100747Y-113268599D01*
X110086132Y-113248893D01*
X110073520Y-113227850D01*
X110063030Y-113205671D01*
X110054765Y-113182572D01*
X110048804Y-113158773D01*
X110045204Y-113134505D01*
X110044000Y-113110001D01*
X110044000Y-112459999D01*
X110045204Y-112435495D01*
X110048804Y-112411227D01*
X110054765Y-112387428D01*
X110063030Y-112364329D01*
X110073520Y-112342150D01*
X110086132Y-112321107D01*
X110100747Y-112301401D01*
X110117223Y-112283223D01*
X110135401Y-112266747D01*
X110155107Y-112252132D01*
X110176150Y-112239520D01*
X110198329Y-112229030D01*
X110221428Y-112220765D01*
X110245227Y-112214804D01*
X110269495Y-112211204D01*
X110293999Y-112210000D01*
X111194001Y-112210000D01*
X111218505Y-112211204D01*
X111218505Y-112211204D01*
G37*
D12*
X110744000Y-112785000D03*
D11*
G36*
X111218505Y-110161204D02*
X111242773Y-110164804D01*
X111266572Y-110170765D01*
X111289671Y-110179030D01*
X111311850Y-110189520D01*
X111332893Y-110202132D01*
X111352599Y-110216747D01*
X111370777Y-110233223D01*
X111387253Y-110251401D01*
X111401868Y-110271107D01*
X111414480Y-110292150D01*
X111424970Y-110314329D01*
X111433235Y-110337428D01*
X111439196Y-110361227D01*
X111442796Y-110385495D01*
X111444000Y-110409999D01*
X111444000Y-111060001D01*
X111442796Y-111084505D01*
X111439196Y-111108773D01*
X111433235Y-111132572D01*
X111424970Y-111155671D01*
X111414480Y-111177850D01*
X111401868Y-111198893D01*
X111387253Y-111218599D01*
X111370777Y-111236777D01*
X111352599Y-111253253D01*
X111332893Y-111267868D01*
X111311850Y-111280480D01*
X111289671Y-111290970D01*
X111266572Y-111299235D01*
X111242773Y-111305196D01*
X111218505Y-111308796D01*
X111194001Y-111310000D01*
X110293999Y-111310000D01*
X110269495Y-111308796D01*
X110245227Y-111305196D01*
X110221428Y-111299235D01*
X110198329Y-111290970D01*
X110176150Y-111280480D01*
X110155107Y-111267868D01*
X110135401Y-111253253D01*
X110117223Y-111236777D01*
X110100747Y-111218599D01*
X110086132Y-111198893D01*
X110073520Y-111177850D01*
X110063030Y-111155671D01*
X110054765Y-111132572D01*
X110048804Y-111108773D01*
X110045204Y-111084505D01*
X110044000Y-111060001D01*
X110044000Y-110409999D01*
X110045204Y-110385495D01*
X110048804Y-110361227D01*
X110054765Y-110337428D01*
X110063030Y-110314329D01*
X110073520Y-110292150D01*
X110086132Y-110271107D01*
X110100747Y-110251401D01*
X110117223Y-110233223D01*
X110135401Y-110216747D01*
X110155107Y-110202132D01*
X110176150Y-110189520D01*
X110198329Y-110179030D01*
X110221428Y-110170765D01*
X110245227Y-110164804D01*
X110269495Y-110161204D01*
X110293999Y-110160000D01*
X111194001Y-110160000D01*
X111218505Y-110161204D01*
X111218505Y-110161204D01*
G37*
D12*
X110744000Y-110735000D03*
D11*
G36*
X119534504Y-70936204D02*
X119558773Y-70939804D01*
X119582571Y-70945765D01*
X119605671Y-70954030D01*
X119627849Y-70964520D01*
X119648893Y-70977133D01*
X119668598Y-70991747D01*
X119686777Y-71008223D01*
X119703253Y-71026402D01*
X119717867Y-71046107D01*
X119730480Y-71067151D01*
X119740970Y-71089329D01*
X119749235Y-71112429D01*
X119755196Y-71136227D01*
X119758796Y-71160496D01*
X119760000Y-71185000D01*
X119760000Y-76135000D01*
X119758796Y-76159504D01*
X119755196Y-76183773D01*
X119749235Y-76207571D01*
X119740970Y-76230671D01*
X119730480Y-76252849D01*
X119717867Y-76273893D01*
X119703253Y-76293598D01*
X119686777Y-76311777D01*
X119668598Y-76328253D01*
X119648893Y-76342867D01*
X119627849Y-76355480D01*
X119605671Y-76365970D01*
X119582571Y-76374235D01*
X119558773Y-76380196D01*
X119534504Y-76383796D01*
X119510000Y-76385000D01*
X117910000Y-76385000D01*
X117885496Y-76383796D01*
X117861227Y-76380196D01*
X117837429Y-76374235D01*
X117814329Y-76365970D01*
X117792151Y-76355480D01*
X117771107Y-76342867D01*
X117751402Y-76328253D01*
X117733223Y-76311777D01*
X117716747Y-76293598D01*
X117702133Y-76273893D01*
X117689520Y-76252849D01*
X117679030Y-76230671D01*
X117670765Y-76207571D01*
X117664804Y-76183773D01*
X117661204Y-76159504D01*
X117660000Y-76135000D01*
X117660000Y-71185000D01*
X117661204Y-71160496D01*
X117664804Y-71136227D01*
X117670765Y-71112429D01*
X117679030Y-71089329D01*
X117689520Y-71067151D01*
X117702133Y-71046107D01*
X117716747Y-71026402D01*
X117733223Y-71008223D01*
X117751402Y-70991747D01*
X117771107Y-70977133D01*
X117792151Y-70964520D01*
X117814329Y-70954030D01*
X117837429Y-70945765D01*
X117861227Y-70939804D01*
X117885496Y-70936204D01*
X117910000Y-70935000D01*
X119510000Y-70935000D01*
X119534504Y-70936204D01*
X119534504Y-70936204D01*
G37*
D13*
X118710000Y-73660000D03*
D11*
G36*
X112584504Y-70936204D02*
X112608773Y-70939804D01*
X112632571Y-70945765D01*
X112655671Y-70954030D01*
X112677849Y-70964520D01*
X112698893Y-70977133D01*
X112718598Y-70991747D01*
X112736777Y-71008223D01*
X112753253Y-71026402D01*
X112767867Y-71046107D01*
X112780480Y-71067151D01*
X112790970Y-71089329D01*
X112799235Y-71112429D01*
X112805196Y-71136227D01*
X112808796Y-71160496D01*
X112810000Y-71185000D01*
X112810000Y-76135000D01*
X112808796Y-76159504D01*
X112805196Y-76183773D01*
X112799235Y-76207571D01*
X112790970Y-76230671D01*
X112780480Y-76252849D01*
X112767867Y-76273893D01*
X112753253Y-76293598D01*
X112736777Y-76311777D01*
X112718598Y-76328253D01*
X112698893Y-76342867D01*
X112677849Y-76355480D01*
X112655671Y-76365970D01*
X112632571Y-76374235D01*
X112608773Y-76380196D01*
X112584504Y-76383796D01*
X112560000Y-76385000D01*
X110960000Y-76385000D01*
X110935496Y-76383796D01*
X110911227Y-76380196D01*
X110887429Y-76374235D01*
X110864329Y-76365970D01*
X110842151Y-76355480D01*
X110821107Y-76342867D01*
X110801402Y-76328253D01*
X110783223Y-76311777D01*
X110766747Y-76293598D01*
X110752133Y-76273893D01*
X110739520Y-76252849D01*
X110729030Y-76230671D01*
X110720765Y-76207571D01*
X110714804Y-76183773D01*
X110711204Y-76159504D01*
X110710000Y-76135000D01*
X110710000Y-71185000D01*
X110711204Y-71160496D01*
X110714804Y-71136227D01*
X110720765Y-71112429D01*
X110729030Y-71089329D01*
X110739520Y-71067151D01*
X110752133Y-71046107D01*
X110766747Y-71026402D01*
X110783223Y-71008223D01*
X110801402Y-70991747D01*
X110821107Y-70977133D01*
X110842151Y-70964520D01*
X110864329Y-70954030D01*
X110887429Y-70945765D01*
X110911227Y-70939804D01*
X110935496Y-70936204D01*
X110960000Y-70935000D01*
X112560000Y-70935000D01*
X112584504Y-70936204D01*
X112584504Y-70936204D01*
G37*
D13*
X111760000Y-73660000D03*
D14*
X106172000Y-75692000D03*
D11*
G36*
X106946504Y-72343204D02*
X106970773Y-72346804D01*
X106994571Y-72352765D01*
X107017671Y-72361030D01*
X107039849Y-72371520D01*
X107060893Y-72384133D01*
X107080598Y-72398747D01*
X107098777Y-72415223D01*
X107115253Y-72433402D01*
X107129867Y-72453107D01*
X107142480Y-72474151D01*
X107152970Y-72496329D01*
X107161235Y-72519429D01*
X107167196Y-72543227D01*
X107170796Y-72567496D01*
X107172000Y-72592000D01*
X107172000Y-73792000D01*
X107170796Y-73816504D01*
X107167196Y-73840773D01*
X107161235Y-73864571D01*
X107152970Y-73887671D01*
X107142480Y-73909849D01*
X107129867Y-73930893D01*
X107115253Y-73950598D01*
X107098777Y-73968777D01*
X107080598Y-73985253D01*
X107060893Y-73999867D01*
X107039849Y-74012480D01*
X107017671Y-74022970D01*
X106994571Y-74031235D01*
X106970773Y-74037196D01*
X106946504Y-74040796D01*
X106922000Y-74042000D01*
X105422000Y-74042000D01*
X105397496Y-74040796D01*
X105373227Y-74037196D01*
X105349429Y-74031235D01*
X105326329Y-74022970D01*
X105304151Y-74012480D01*
X105283107Y-73999867D01*
X105263402Y-73985253D01*
X105245223Y-73968777D01*
X105228747Y-73950598D01*
X105214133Y-73930893D01*
X105201520Y-73909849D01*
X105191030Y-73887671D01*
X105182765Y-73864571D01*
X105176804Y-73840773D01*
X105173204Y-73816504D01*
X105172000Y-73792000D01*
X105172000Y-72592000D01*
X105173204Y-72567496D01*
X105176804Y-72543227D01*
X105182765Y-72519429D01*
X105191030Y-72496329D01*
X105201520Y-72474151D01*
X105214133Y-72453107D01*
X105228747Y-72433402D01*
X105245223Y-72415223D01*
X105263402Y-72398747D01*
X105283107Y-72384133D01*
X105304151Y-72371520D01*
X105326329Y-72361030D01*
X105349429Y-72352765D01*
X105373227Y-72346804D01*
X105397496Y-72343204D01*
X105422000Y-72342000D01*
X106922000Y-72342000D01*
X106946504Y-72343204D01*
X106946504Y-72343204D01*
G37*
D15*
X106172000Y-73192000D03*
D11*
G36*
X106946504Y-89067204D02*
X106970773Y-89070804D01*
X106994571Y-89076765D01*
X107017671Y-89085030D01*
X107039849Y-89095520D01*
X107060893Y-89108133D01*
X107080598Y-89122747D01*
X107098777Y-89139223D01*
X107115253Y-89157402D01*
X107129867Y-89177107D01*
X107142480Y-89198151D01*
X107152970Y-89220329D01*
X107161235Y-89243429D01*
X107167196Y-89267227D01*
X107170796Y-89291496D01*
X107172000Y-89316000D01*
X107172000Y-90516000D01*
X107170796Y-90540504D01*
X107167196Y-90564773D01*
X107161235Y-90588571D01*
X107152970Y-90611671D01*
X107142480Y-90633849D01*
X107129867Y-90654893D01*
X107115253Y-90674598D01*
X107098777Y-90692777D01*
X107080598Y-90709253D01*
X107060893Y-90723867D01*
X107039849Y-90736480D01*
X107017671Y-90746970D01*
X106994571Y-90755235D01*
X106970773Y-90761196D01*
X106946504Y-90764796D01*
X106922000Y-90766000D01*
X105422000Y-90766000D01*
X105397496Y-90764796D01*
X105373227Y-90761196D01*
X105349429Y-90755235D01*
X105326329Y-90746970D01*
X105304151Y-90736480D01*
X105283107Y-90723867D01*
X105263402Y-90709253D01*
X105245223Y-90692777D01*
X105228747Y-90674598D01*
X105214133Y-90654893D01*
X105201520Y-90633849D01*
X105191030Y-90611671D01*
X105182765Y-90588571D01*
X105176804Y-90564773D01*
X105173204Y-90540504D01*
X105172000Y-90516000D01*
X105172000Y-89316000D01*
X105173204Y-89291496D01*
X105176804Y-89267227D01*
X105182765Y-89243429D01*
X105191030Y-89220329D01*
X105201520Y-89198151D01*
X105214133Y-89177107D01*
X105228747Y-89157402D01*
X105245223Y-89139223D01*
X105263402Y-89122747D01*
X105283107Y-89108133D01*
X105304151Y-89095520D01*
X105326329Y-89085030D01*
X105349429Y-89076765D01*
X105373227Y-89070804D01*
X105397496Y-89067204D01*
X105422000Y-89066000D01*
X106922000Y-89066000D01*
X106946504Y-89067204D01*
X106946504Y-89067204D01*
G37*
D15*
X106172000Y-89916000D03*
D14*
X106172000Y-92416000D03*
X106172000Y-102576000D03*
D11*
G36*
X106946504Y-99227204D02*
X106970773Y-99230804D01*
X106994571Y-99236765D01*
X107017671Y-99245030D01*
X107039849Y-99255520D01*
X107060893Y-99268133D01*
X107080598Y-99282747D01*
X107098777Y-99299223D01*
X107115253Y-99317402D01*
X107129867Y-99337107D01*
X107142480Y-99358151D01*
X107152970Y-99380329D01*
X107161235Y-99403429D01*
X107167196Y-99427227D01*
X107170796Y-99451496D01*
X107172000Y-99476000D01*
X107172000Y-100676000D01*
X107170796Y-100700504D01*
X107167196Y-100724773D01*
X107161235Y-100748571D01*
X107152970Y-100771671D01*
X107142480Y-100793849D01*
X107129867Y-100814893D01*
X107115253Y-100834598D01*
X107098777Y-100852777D01*
X107080598Y-100869253D01*
X107060893Y-100883867D01*
X107039849Y-100896480D01*
X107017671Y-100906970D01*
X106994571Y-100915235D01*
X106970773Y-100921196D01*
X106946504Y-100924796D01*
X106922000Y-100926000D01*
X105422000Y-100926000D01*
X105397496Y-100924796D01*
X105373227Y-100921196D01*
X105349429Y-100915235D01*
X105326329Y-100906970D01*
X105304151Y-100896480D01*
X105283107Y-100883867D01*
X105263402Y-100869253D01*
X105245223Y-100852777D01*
X105228747Y-100834598D01*
X105214133Y-100814893D01*
X105201520Y-100793849D01*
X105191030Y-100771671D01*
X105182765Y-100748571D01*
X105176804Y-100724773D01*
X105173204Y-100700504D01*
X105172000Y-100676000D01*
X105172000Y-99476000D01*
X105173204Y-99451496D01*
X105176804Y-99427227D01*
X105182765Y-99403429D01*
X105191030Y-99380329D01*
X105201520Y-99358151D01*
X105214133Y-99337107D01*
X105228747Y-99317402D01*
X105245223Y-99299223D01*
X105263402Y-99282747D01*
X105283107Y-99268133D01*
X105304151Y-99255520D01*
X105326329Y-99245030D01*
X105349429Y-99236765D01*
X105373227Y-99230804D01*
X105397496Y-99227204D01*
X105422000Y-99226000D01*
X106922000Y-99226000D01*
X106946504Y-99227204D01*
X106946504Y-99227204D01*
G37*
D15*
X106172000Y-100076000D03*
D11*
G36*
X106946504Y-115991204D02*
X106970773Y-115994804D01*
X106994571Y-116000765D01*
X107017671Y-116009030D01*
X107039849Y-116019520D01*
X107060893Y-116032133D01*
X107080598Y-116046747D01*
X107098777Y-116063223D01*
X107115253Y-116081402D01*
X107129867Y-116101107D01*
X107142480Y-116122151D01*
X107152970Y-116144329D01*
X107161235Y-116167429D01*
X107167196Y-116191227D01*
X107170796Y-116215496D01*
X107172000Y-116240000D01*
X107172000Y-117440000D01*
X107170796Y-117464504D01*
X107167196Y-117488773D01*
X107161235Y-117512571D01*
X107152970Y-117535671D01*
X107142480Y-117557849D01*
X107129867Y-117578893D01*
X107115253Y-117598598D01*
X107098777Y-117616777D01*
X107080598Y-117633253D01*
X107060893Y-117647867D01*
X107039849Y-117660480D01*
X107017671Y-117670970D01*
X106994571Y-117679235D01*
X106970773Y-117685196D01*
X106946504Y-117688796D01*
X106922000Y-117690000D01*
X105422000Y-117690000D01*
X105397496Y-117688796D01*
X105373227Y-117685196D01*
X105349429Y-117679235D01*
X105326329Y-117670970D01*
X105304151Y-117660480D01*
X105283107Y-117647867D01*
X105263402Y-117633253D01*
X105245223Y-117616777D01*
X105228747Y-117598598D01*
X105214133Y-117578893D01*
X105201520Y-117557849D01*
X105191030Y-117535671D01*
X105182765Y-117512571D01*
X105176804Y-117488773D01*
X105173204Y-117464504D01*
X105172000Y-117440000D01*
X105172000Y-116240000D01*
X105173204Y-116215496D01*
X105176804Y-116191227D01*
X105182765Y-116167429D01*
X105191030Y-116144329D01*
X105201520Y-116122151D01*
X105214133Y-116101107D01*
X105228747Y-116081402D01*
X105245223Y-116063223D01*
X105263402Y-116046747D01*
X105283107Y-116032133D01*
X105304151Y-116019520D01*
X105326329Y-116009030D01*
X105349429Y-116000765D01*
X105373227Y-115994804D01*
X105397496Y-115991204D01*
X105422000Y-115990000D01*
X106922000Y-115990000D01*
X106946504Y-115991204D01*
X106946504Y-115991204D01*
G37*
D15*
X106172000Y-116840000D03*
D14*
X106172000Y-119340000D03*
D11*
G36*
X111218505Y-78166204D02*
X111242773Y-78169804D01*
X111266572Y-78175765D01*
X111289671Y-78184030D01*
X111311850Y-78194520D01*
X111332893Y-78207132D01*
X111352599Y-78221747D01*
X111370777Y-78238223D01*
X111387253Y-78256401D01*
X111401868Y-78276107D01*
X111414480Y-78297150D01*
X111424970Y-78319329D01*
X111433235Y-78342428D01*
X111439196Y-78366227D01*
X111442796Y-78390495D01*
X111444000Y-78414999D01*
X111444000Y-79065001D01*
X111442796Y-79089505D01*
X111439196Y-79113773D01*
X111433235Y-79137572D01*
X111424970Y-79160671D01*
X111414480Y-79182850D01*
X111401868Y-79203893D01*
X111387253Y-79223599D01*
X111370777Y-79241777D01*
X111352599Y-79258253D01*
X111332893Y-79272868D01*
X111311850Y-79285480D01*
X111289671Y-79295970D01*
X111266572Y-79304235D01*
X111242773Y-79310196D01*
X111218505Y-79313796D01*
X111194001Y-79315000D01*
X110293999Y-79315000D01*
X110269495Y-79313796D01*
X110245227Y-79310196D01*
X110221428Y-79304235D01*
X110198329Y-79295970D01*
X110176150Y-79285480D01*
X110155107Y-79272868D01*
X110135401Y-79258253D01*
X110117223Y-79241777D01*
X110100747Y-79223599D01*
X110086132Y-79203893D01*
X110073520Y-79182850D01*
X110063030Y-79160671D01*
X110054765Y-79137572D01*
X110048804Y-79113773D01*
X110045204Y-79089505D01*
X110044000Y-79065001D01*
X110044000Y-78414999D01*
X110045204Y-78390495D01*
X110048804Y-78366227D01*
X110054765Y-78342428D01*
X110063030Y-78319329D01*
X110073520Y-78297150D01*
X110086132Y-78276107D01*
X110100747Y-78256401D01*
X110117223Y-78238223D01*
X110135401Y-78221747D01*
X110155107Y-78207132D01*
X110176150Y-78194520D01*
X110198329Y-78184030D01*
X110221428Y-78175765D01*
X110245227Y-78169804D01*
X110269495Y-78166204D01*
X110293999Y-78165000D01*
X111194001Y-78165000D01*
X111218505Y-78166204D01*
X111218505Y-78166204D01*
G37*
D12*
X110744000Y-78740000D03*
D11*
G36*
X111218505Y-80216204D02*
X111242773Y-80219804D01*
X111266572Y-80225765D01*
X111289671Y-80234030D01*
X111311850Y-80244520D01*
X111332893Y-80257132D01*
X111352599Y-80271747D01*
X111370777Y-80288223D01*
X111387253Y-80306401D01*
X111401868Y-80326107D01*
X111414480Y-80347150D01*
X111424970Y-80369329D01*
X111433235Y-80392428D01*
X111439196Y-80416227D01*
X111442796Y-80440495D01*
X111444000Y-80464999D01*
X111444000Y-81115001D01*
X111442796Y-81139505D01*
X111439196Y-81163773D01*
X111433235Y-81187572D01*
X111424970Y-81210671D01*
X111414480Y-81232850D01*
X111401868Y-81253893D01*
X111387253Y-81273599D01*
X111370777Y-81291777D01*
X111352599Y-81308253D01*
X111332893Y-81322868D01*
X111311850Y-81335480D01*
X111289671Y-81345970D01*
X111266572Y-81354235D01*
X111242773Y-81360196D01*
X111218505Y-81363796D01*
X111194001Y-81365000D01*
X110293999Y-81365000D01*
X110269495Y-81363796D01*
X110245227Y-81360196D01*
X110221428Y-81354235D01*
X110198329Y-81345970D01*
X110176150Y-81335480D01*
X110155107Y-81322868D01*
X110135401Y-81308253D01*
X110117223Y-81291777D01*
X110100747Y-81273599D01*
X110086132Y-81253893D01*
X110073520Y-81232850D01*
X110063030Y-81210671D01*
X110054765Y-81187572D01*
X110048804Y-81163773D01*
X110045204Y-81139505D01*
X110044000Y-81115001D01*
X110044000Y-80464999D01*
X110045204Y-80440495D01*
X110048804Y-80416227D01*
X110054765Y-80392428D01*
X110063030Y-80369329D01*
X110073520Y-80347150D01*
X110086132Y-80326107D01*
X110100747Y-80306401D01*
X110117223Y-80288223D01*
X110135401Y-80271747D01*
X110155107Y-80257132D01*
X110176150Y-80244520D01*
X110198329Y-80234030D01*
X110221428Y-80225765D01*
X110245227Y-80219804D01*
X110269495Y-80216204D01*
X110293999Y-80215000D01*
X111194001Y-80215000D01*
X111218505Y-80216204D01*
X111218505Y-80216204D01*
G37*
D12*
X110744000Y-80790000D03*
D11*
G36*
X111218505Y-116275204D02*
X111242773Y-116278804D01*
X111266572Y-116284765D01*
X111289671Y-116293030D01*
X111311850Y-116303520D01*
X111332893Y-116316132D01*
X111352599Y-116330747D01*
X111370777Y-116347223D01*
X111387253Y-116365401D01*
X111401868Y-116385107D01*
X111414480Y-116406150D01*
X111424970Y-116428329D01*
X111433235Y-116451428D01*
X111439196Y-116475227D01*
X111442796Y-116499495D01*
X111444000Y-116523999D01*
X111444000Y-117174001D01*
X111442796Y-117198505D01*
X111439196Y-117222773D01*
X111433235Y-117246572D01*
X111424970Y-117269671D01*
X111414480Y-117291850D01*
X111401868Y-117312893D01*
X111387253Y-117332599D01*
X111370777Y-117350777D01*
X111352599Y-117367253D01*
X111332893Y-117381868D01*
X111311850Y-117394480D01*
X111289671Y-117404970D01*
X111266572Y-117413235D01*
X111242773Y-117419196D01*
X111218505Y-117422796D01*
X111194001Y-117424000D01*
X110293999Y-117424000D01*
X110269495Y-117422796D01*
X110245227Y-117419196D01*
X110221428Y-117413235D01*
X110198329Y-117404970D01*
X110176150Y-117394480D01*
X110155107Y-117381868D01*
X110135401Y-117367253D01*
X110117223Y-117350777D01*
X110100747Y-117332599D01*
X110086132Y-117312893D01*
X110073520Y-117291850D01*
X110063030Y-117269671D01*
X110054765Y-117246572D01*
X110048804Y-117222773D01*
X110045204Y-117198505D01*
X110044000Y-117174001D01*
X110044000Y-116523999D01*
X110045204Y-116499495D01*
X110048804Y-116475227D01*
X110054765Y-116451428D01*
X110063030Y-116428329D01*
X110073520Y-116406150D01*
X110086132Y-116385107D01*
X110100747Y-116365401D01*
X110117223Y-116347223D01*
X110135401Y-116330747D01*
X110155107Y-116316132D01*
X110176150Y-116303520D01*
X110198329Y-116293030D01*
X110221428Y-116284765D01*
X110245227Y-116278804D01*
X110269495Y-116275204D01*
X110293999Y-116274000D01*
X111194001Y-116274000D01*
X111218505Y-116275204D01*
X111218505Y-116275204D01*
G37*
D12*
X110744000Y-116849000D03*
D11*
G36*
X111218505Y-114225204D02*
X111242773Y-114228804D01*
X111266572Y-114234765D01*
X111289671Y-114243030D01*
X111311850Y-114253520D01*
X111332893Y-114266132D01*
X111352599Y-114280747D01*
X111370777Y-114297223D01*
X111387253Y-114315401D01*
X111401868Y-114335107D01*
X111414480Y-114356150D01*
X111424970Y-114378329D01*
X111433235Y-114401428D01*
X111439196Y-114425227D01*
X111442796Y-114449495D01*
X111444000Y-114473999D01*
X111444000Y-115124001D01*
X111442796Y-115148505D01*
X111439196Y-115172773D01*
X111433235Y-115196572D01*
X111424970Y-115219671D01*
X111414480Y-115241850D01*
X111401868Y-115262893D01*
X111387253Y-115282599D01*
X111370777Y-115300777D01*
X111352599Y-115317253D01*
X111332893Y-115331868D01*
X111311850Y-115344480D01*
X111289671Y-115354970D01*
X111266572Y-115363235D01*
X111242773Y-115369196D01*
X111218505Y-115372796D01*
X111194001Y-115374000D01*
X110293999Y-115374000D01*
X110269495Y-115372796D01*
X110245227Y-115369196D01*
X110221428Y-115363235D01*
X110198329Y-115354970D01*
X110176150Y-115344480D01*
X110155107Y-115331868D01*
X110135401Y-115317253D01*
X110117223Y-115300777D01*
X110100747Y-115282599D01*
X110086132Y-115262893D01*
X110073520Y-115241850D01*
X110063030Y-115219671D01*
X110054765Y-115196572D01*
X110048804Y-115172773D01*
X110045204Y-115148505D01*
X110044000Y-115124001D01*
X110044000Y-114473999D01*
X110045204Y-114449495D01*
X110048804Y-114425227D01*
X110054765Y-114401428D01*
X110063030Y-114378329D01*
X110073520Y-114356150D01*
X110086132Y-114335107D01*
X110100747Y-114315401D01*
X110117223Y-114297223D01*
X110135401Y-114280747D01*
X110155107Y-114266132D01*
X110176150Y-114253520D01*
X110198329Y-114243030D01*
X110221428Y-114234765D01*
X110245227Y-114228804D01*
X110269495Y-114225204D01*
X110293999Y-114224000D01*
X111194001Y-114224000D01*
X111218505Y-114225204D01*
X111218505Y-114225204D01*
G37*
D12*
X110744000Y-114799000D03*
D16*
X114300000Y-80264000D03*
X116840000Y-80264000D03*
X119380000Y-80264000D03*
X121920000Y-80264000D03*
X134032000Y-91948000D03*
X129032000Y-91948000D03*
X115904000Y-100584000D03*
X120904000Y-100584000D03*
X134032000Y-100584000D03*
X129032000Y-100584000D03*
D11*
G36*
X111218505Y-118797204D02*
X111242773Y-118800804D01*
X111266572Y-118806765D01*
X111289671Y-118815030D01*
X111311850Y-118825520D01*
X111332893Y-118838132D01*
X111352599Y-118852747D01*
X111370777Y-118869223D01*
X111387253Y-118887401D01*
X111401868Y-118907107D01*
X111414480Y-118928150D01*
X111424970Y-118950329D01*
X111433235Y-118973428D01*
X111439196Y-118997227D01*
X111442796Y-119021495D01*
X111444000Y-119045999D01*
X111444000Y-119696001D01*
X111442796Y-119720505D01*
X111439196Y-119744773D01*
X111433235Y-119768572D01*
X111424970Y-119791671D01*
X111414480Y-119813850D01*
X111401868Y-119834893D01*
X111387253Y-119854599D01*
X111370777Y-119872777D01*
X111352599Y-119889253D01*
X111332893Y-119903868D01*
X111311850Y-119916480D01*
X111289671Y-119926970D01*
X111266572Y-119935235D01*
X111242773Y-119941196D01*
X111218505Y-119944796D01*
X111194001Y-119946000D01*
X110293999Y-119946000D01*
X110269495Y-119944796D01*
X110245227Y-119941196D01*
X110221428Y-119935235D01*
X110198329Y-119926970D01*
X110176150Y-119916480D01*
X110155107Y-119903868D01*
X110135401Y-119889253D01*
X110117223Y-119872777D01*
X110100747Y-119854599D01*
X110086132Y-119834893D01*
X110073520Y-119813850D01*
X110063030Y-119791671D01*
X110054765Y-119768572D01*
X110048804Y-119744773D01*
X110045204Y-119720505D01*
X110044000Y-119696001D01*
X110044000Y-119045999D01*
X110045204Y-119021495D01*
X110048804Y-118997227D01*
X110054765Y-118973428D01*
X110063030Y-118950329D01*
X110073520Y-118928150D01*
X110086132Y-118907107D01*
X110100747Y-118887401D01*
X110117223Y-118869223D01*
X110135401Y-118852747D01*
X110155107Y-118838132D01*
X110176150Y-118825520D01*
X110198329Y-118815030D01*
X110221428Y-118806765D01*
X110245227Y-118800804D01*
X110269495Y-118797204D01*
X110293999Y-118796000D01*
X111194001Y-118796000D01*
X111218505Y-118797204D01*
X111218505Y-118797204D01*
G37*
D12*
X110744000Y-119371000D03*
D11*
G36*
X111218505Y-120847204D02*
X111242773Y-120850804D01*
X111266572Y-120856765D01*
X111289671Y-120865030D01*
X111311850Y-120875520D01*
X111332893Y-120888132D01*
X111352599Y-120902747D01*
X111370777Y-120919223D01*
X111387253Y-120937401D01*
X111401868Y-120957107D01*
X111414480Y-120978150D01*
X111424970Y-121000329D01*
X111433235Y-121023428D01*
X111439196Y-121047227D01*
X111442796Y-121071495D01*
X111444000Y-121095999D01*
X111444000Y-121746001D01*
X111442796Y-121770505D01*
X111439196Y-121794773D01*
X111433235Y-121818572D01*
X111424970Y-121841671D01*
X111414480Y-121863850D01*
X111401868Y-121884893D01*
X111387253Y-121904599D01*
X111370777Y-121922777D01*
X111352599Y-121939253D01*
X111332893Y-121953868D01*
X111311850Y-121966480D01*
X111289671Y-121976970D01*
X111266572Y-121985235D01*
X111242773Y-121991196D01*
X111218505Y-121994796D01*
X111194001Y-121996000D01*
X110293999Y-121996000D01*
X110269495Y-121994796D01*
X110245227Y-121991196D01*
X110221428Y-121985235D01*
X110198329Y-121976970D01*
X110176150Y-121966480D01*
X110155107Y-121953868D01*
X110135401Y-121939253D01*
X110117223Y-121922777D01*
X110100747Y-121904599D01*
X110086132Y-121884893D01*
X110073520Y-121863850D01*
X110063030Y-121841671D01*
X110054765Y-121818572D01*
X110048804Y-121794773D01*
X110045204Y-121770505D01*
X110044000Y-121746001D01*
X110044000Y-121095999D01*
X110045204Y-121071495D01*
X110048804Y-121047227D01*
X110054765Y-121023428D01*
X110063030Y-121000329D01*
X110073520Y-120978150D01*
X110086132Y-120957107D01*
X110100747Y-120937401D01*
X110117223Y-120919223D01*
X110135401Y-120902747D01*
X110155107Y-120888132D01*
X110176150Y-120875520D01*
X110198329Y-120865030D01*
X110221428Y-120856765D01*
X110245227Y-120850804D01*
X110269495Y-120847204D01*
X110293999Y-120846000D01*
X111194001Y-120846000D01*
X111218505Y-120847204D01*
X111218505Y-120847204D01*
G37*
D12*
X110744000Y-121421000D03*
D17*
X101092000Y-82804000D03*
X101092000Y-109728000D03*
X131572000Y-96266000D03*
D18*
X104172000Y-92416000D02*
X103124000Y-93464000D01*
X106172000Y-92416000D02*
X104172000Y-92416000D01*
X104172000Y-102576000D02*
X106172000Y-102576000D01*
X103124000Y-101528000D02*
X104172000Y-102576000D01*
X103124000Y-93464000D02*
X103124000Y-101528000D01*
D19*
X119380000Y-74330000D02*
X118710000Y-73660000D01*
D18*
X133270001Y-91186001D02*
X134032000Y-91948000D01*
X127428000Y-85344000D02*
X133270001Y-91186001D01*
X124460000Y-85344000D02*
X127428000Y-85344000D01*
X119380000Y-80264000D02*
X124460000Y-85344000D01*
X108172000Y-92416000D02*
X108712000Y-91876000D01*
X106172000Y-92416000D02*
X108172000Y-92416000D01*
X109944000Y-78740000D02*
X110744000Y-78740000D01*
X108712000Y-79972000D02*
X109944000Y-78740000D01*
X108712000Y-91876000D02*
X108712000Y-79972000D01*
X111367372Y-78116628D02*
X119264628Y-78116628D01*
X110744000Y-78740000D02*
X111367372Y-78116628D01*
X119264628Y-78116628D02*
X119380000Y-78232000D01*
D19*
X119380000Y-80264000D02*
X119380000Y-78232000D01*
D18*
X119870000Y-76218000D02*
X119380000Y-76708000D01*
X121920000Y-76218000D02*
X119870000Y-76218000D01*
D19*
X119380000Y-78232000D02*
X119380000Y-76708000D01*
X119380000Y-76708000D02*
X119380000Y-74330000D01*
X110713000Y-119340000D02*
X110744000Y-119371000D01*
X106172000Y-119340000D02*
X110713000Y-119340000D01*
X110744000Y-119371000D02*
X110744000Y-116849000D01*
X115904000Y-101661630D02*
X115904000Y-100584000D01*
X111544000Y-116849000D02*
X115904000Y-112489000D01*
X110744000Y-116849000D02*
X111544000Y-116849000D01*
X115904000Y-112489000D02*
X115904000Y-105156000D01*
X114300000Y-98980000D02*
X115904000Y-100584000D01*
X114300000Y-80264000D02*
X114300000Y-98980000D01*
X129032000Y-100584000D02*
X125730000Y-103886000D01*
X115904000Y-105156000D02*
X115904000Y-103886000D01*
X125730000Y-103886000D02*
X115904000Y-103886000D01*
X115904000Y-103886000D02*
X115904000Y-101661630D01*
D20*
X110744000Y-80790000D02*
X110744000Y-83312000D01*
X110744000Y-112785000D02*
X110744000Y-114799000D01*
D19*
X109728000Y-75692000D02*
X111760000Y-73660000D01*
X106172000Y-75692000D02*
X109728000Y-75692000D01*
D21*
G36*
X110130874Y-70841565D02*
X110062560Y-71185000D01*
X110062560Y-73045201D01*
X109050762Y-74057000D01*
X107807000Y-74057000D01*
X107807000Y-73477750D01*
X107648250Y-73319000D01*
X106299000Y-73319000D01*
X106299000Y-73339000D01*
X106045000Y-73339000D01*
X106045000Y-73319000D01*
X104695750Y-73319000D01*
X104537000Y-73477750D01*
X104537000Y-74168309D01*
X104633673Y-74401698D01*
X104812301Y-74580327D01*
X104918897Y-74624480D01*
X104631864Y-75054055D01*
X104504969Y-75692000D01*
X104631864Y-76329945D01*
X104993231Y-76870769D01*
X105534055Y-77232136D01*
X106010969Y-77327000D01*
X109566970Y-77327000D01*
X109728000Y-77359031D01*
X109889030Y-77327000D01*
X109889031Y-77327000D01*
X110365945Y-77232136D01*
X110732529Y-76987193D01*
X110960000Y-77032440D01*
X111000138Y-77032440D01*
X110980788Y-77036289D01*
X110924517Y-77047482D01*
X110549083Y-77298339D01*
X110485759Y-77393110D01*
X110361309Y-77517560D01*
X110293999Y-77517560D01*
X109955094Y-77584972D01*
X109943999Y-77582765D01*
X109501145Y-77670854D01*
X109125711Y-77921711D01*
X109062389Y-78016479D01*
X107988480Y-79090389D01*
X107893712Y-79153711D01*
X107740912Y-79382392D01*
X107642854Y-79529146D01*
X107554765Y-79972000D01*
X107577001Y-80083788D01*
X107577000Y-88572975D01*
X107531699Y-88527673D01*
X107298310Y-88431000D01*
X106457750Y-88431000D01*
X106299000Y-88589750D01*
X106299000Y-89789000D01*
X106319000Y-89789000D01*
X106319000Y-90043000D01*
X106299000Y-90043000D01*
X106299000Y-90063000D01*
X106045000Y-90063000D01*
X106045000Y-90043000D01*
X104695750Y-90043000D01*
X104537000Y-90201750D01*
X104537000Y-90892309D01*
X104633673Y-91125698D01*
X104788974Y-91281000D01*
X104283783Y-91281000D01*
X104172000Y-91258765D01*
X103736580Y-91345375D01*
X103729145Y-91346854D01*
X103353711Y-91597711D01*
X103290389Y-91692479D01*
X102400481Y-92582387D01*
X102305711Y-92645711D01*
X102072045Y-92995418D01*
X102054854Y-93021146D01*
X101966765Y-93464000D01*
X101989000Y-93575783D01*
X101989001Y-101416212D01*
X101966765Y-101528000D01*
X102054854Y-101970854D01*
X102069748Y-101993144D01*
X102305712Y-102346289D01*
X102400479Y-102409611D01*
X103290389Y-103299521D01*
X103353711Y-103394289D01*
X103729145Y-103645146D01*
X104172000Y-103733235D01*
X104283783Y-103711000D01*
X105047719Y-103711000D01*
X105442582Y-103974839D01*
X105875744Y-104061000D01*
X106468256Y-104061000D01*
X106901418Y-103974839D01*
X107392625Y-103646625D01*
X107720839Y-103155418D01*
X107836092Y-102576000D01*
X107720839Y-101996582D01*
X107401291Y-101518344D01*
X107531699Y-101464327D01*
X107710327Y-101285698D01*
X107807000Y-101052309D01*
X107807000Y-100361750D01*
X107648250Y-100203000D01*
X106299000Y-100203000D01*
X106299000Y-100223000D01*
X106045000Y-100223000D01*
X106045000Y-100203000D01*
X104695750Y-100203000D01*
X104537000Y-100361750D01*
X104537000Y-101052309D01*
X104633673Y-101285698D01*
X104788974Y-101441000D01*
X104642132Y-101441000D01*
X104259000Y-101057869D01*
X104259000Y-99099691D01*
X104537000Y-99099691D01*
X104537000Y-99790250D01*
X104695750Y-99949000D01*
X106045000Y-99949000D01*
X106045000Y-98749750D01*
X106299000Y-98749750D01*
X106299000Y-99949000D01*
X107648250Y-99949000D01*
X107807000Y-99790250D01*
X107807000Y-99099691D01*
X107710327Y-98866302D01*
X107531699Y-98687673D01*
X107298310Y-98591000D01*
X106457750Y-98591000D01*
X106299000Y-98749750D01*
X106045000Y-98749750D01*
X105886250Y-98591000D01*
X105045690Y-98591000D01*
X104812301Y-98687673D01*
X104633673Y-98866302D01*
X104537000Y-99099691D01*
X104259000Y-99099691D01*
X104259000Y-93934131D01*
X104642132Y-93551000D01*
X105047719Y-93551000D01*
X105442582Y-93814839D01*
X105875744Y-93901000D01*
X106468256Y-93901000D01*
X106901418Y-93814839D01*
X107296281Y-93551000D01*
X108060217Y-93551000D01*
X108172000Y-93573235D01*
X108283783Y-93551000D01*
X108614855Y-93485146D01*
X108990289Y-93234289D01*
X109053613Y-93139518D01*
X109435519Y-92757612D01*
X109530289Y-92694289D01*
X109781146Y-92318855D01*
X109847000Y-91987783D01*
X109847000Y-91987782D01*
X109869235Y-91876001D01*
X109847000Y-91764219D01*
X109847000Y-86542719D01*
X109917690Y-86572000D01*
X110458250Y-86572000D01*
X110617000Y-86413250D01*
X110617000Y-85489000D01*
X110871000Y-85489000D01*
X110871000Y-86413250D01*
X111029750Y-86572000D01*
X111570310Y-86572000D01*
X111803699Y-86475327D01*
X111982327Y-86296698D01*
X112079000Y-86063309D01*
X112079000Y-85647750D01*
X111920250Y-85489000D01*
X110871000Y-85489000D01*
X110617000Y-85489000D01*
X110597000Y-85489000D01*
X110597000Y-85235000D01*
X110617000Y-85235000D01*
X110617000Y-85215000D01*
X110871000Y-85215000D01*
X110871000Y-85235000D01*
X111920250Y-85235000D01*
X112079000Y-85076250D01*
X112079000Y-84660691D01*
X111982327Y-84427302D01*
X111827403Y-84272377D01*
X111828586Y-84271586D01*
X112023127Y-83980436D01*
X112091440Y-83637001D01*
X112091440Y-82986999D01*
X112023127Y-82643564D01*
X111828586Y-82352414D01*
X111537436Y-82157873D01*
X111504000Y-82151222D01*
X111504000Y-81950778D01*
X111537436Y-81944127D01*
X111828586Y-81749586D01*
X112023127Y-81458436D01*
X112091440Y-81115001D01*
X112091440Y-80464999D01*
X112023127Y-80121564D01*
X111828586Y-79830414D01*
X111730687Y-79765000D01*
X111828586Y-79699586D01*
X112023127Y-79408436D01*
X112054318Y-79251628D01*
X113010048Y-79251628D01*
X112759864Y-79626056D01*
X112665000Y-80102970D01*
X112665001Y-98818965D01*
X112632969Y-98980000D01*
X112744708Y-99541746D01*
X112759865Y-99617945D01*
X113121232Y-100158769D01*
X113257747Y-100249986D01*
X114269000Y-101261239D01*
X114269000Y-101822660D01*
X114269001Y-101822664D01*
X114269000Y-103724968D01*
X114236969Y-103886000D01*
X114269000Y-104047030D01*
X114269000Y-105317030D01*
X114269001Y-105317035D01*
X114269000Y-111811761D01*
X111993916Y-114086846D01*
X111828586Y-113839414D01*
X111757626Y-113792000D01*
X111828586Y-113744586D01*
X112023127Y-113453436D01*
X112091440Y-113110001D01*
X112091440Y-112459999D01*
X112023127Y-112116564D01*
X111828586Y-111825414D01*
X111827403Y-111824623D01*
X111982327Y-111669698D01*
X112079000Y-111436309D01*
X112079000Y-111020750D01*
X111920250Y-110862000D01*
X110871000Y-110862000D01*
X110871000Y-110882000D01*
X110617000Y-110882000D01*
X110617000Y-110862000D01*
X109567750Y-110862000D01*
X109409000Y-111020750D01*
X109409000Y-111436309D01*
X109505673Y-111669698D01*
X109660597Y-111824623D01*
X109659414Y-111825414D01*
X109464873Y-112116564D01*
X109396560Y-112459999D01*
X109396560Y-113110001D01*
X109464873Y-113453436D01*
X109659414Y-113744586D01*
X109730374Y-113792000D01*
X109659414Y-113839414D01*
X109464873Y-114130564D01*
X109396560Y-114473999D01*
X109396560Y-115124001D01*
X109464873Y-115467436D01*
X109589529Y-115653996D01*
X109565231Y-115670231D01*
X109203864Y-116211055D01*
X109076969Y-116849000D01*
X109109001Y-117010035D01*
X109109001Y-117705000D01*
X107807000Y-117705000D01*
X107807000Y-117125750D01*
X107648250Y-116967000D01*
X106299000Y-116967000D01*
X106299000Y-116987000D01*
X106045000Y-116987000D01*
X106045000Y-116967000D01*
X104695750Y-116967000D01*
X104537000Y-117125750D01*
X104537000Y-117816309D01*
X104633673Y-118049698D01*
X104812301Y-118228327D01*
X104918897Y-118272480D01*
X104631864Y-118702055D01*
X104504969Y-119340000D01*
X104631864Y-119977945D01*
X104993231Y-120518769D01*
X105534055Y-120880136D01*
X106010969Y-120975000D01*
X109409000Y-120975000D01*
X109409000Y-121135250D01*
X109567750Y-121294000D01*
X110617000Y-121294000D01*
X110617000Y-121274000D01*
X110871000Y-121274000D01*
X110871000Y-121294000D01*
X111920250Y-121294000D01*
X112079000Y-121135250D01*
X112079000Y-120719691D01*
X111982327Y-120486302D01*
X111972046Y-120476021D01*
X112284136Y-120008945D01*
X112411031Y-119371000D01*
X112379000Y-119209969D01*
X112379000Y-118257468D01*
X112722769Y-118027769D01*
X112813988Y-117891250D01*
X116946253Y-113758986D01*
X117082769Y-113667769D01*
X117444136Y-113126945D01*
X117539000Y-112650031D01*
X117539000Y-112650030D01*
X117571031Y-112489001D01*
X117539000Y-112327971D01*
X117539000Y-105521000D01*
X125568970Y-105521000D01*
X125730000Y-105553031D01*
X125891030Y-105521000D01*
X125891031Y-105521000D01*
X126367945Y-105426136D01*
X126908769Y-105064769D01*
X126999988Y-104928250D01*
X130301985Y-101626254D01*
X130343439Y-101564213D01*
X133231392Y-101564213D01*
X133300857Y-101806397D01*
X133824302Y-101993144D01*
X134379368Y-101965362D01*
X134763143Y-101806397D01*
X134832608Y-101564213D01*
X134032000Y-100763605D01*
X133231392Y-101564213D01*
X130343439Y-101564213D01*
X130572135Y-101221946D01*
X130699030Y-100584001D01*
X130657717Y-100376302D01*
X132622856Y-100376302D01*
X132650638Y-100931368D01*
X132809603Y-101315143D01*
X133051787Y-101384608D01*
X133852395Y-100584000D01*
X134211605Y-100584000D01*
X135012213Y-101384608D01*
X135254397Y-101315143D01*
X135441144Y-100791698D01*
X135413362Y-100236632D01*
X135254397Y-99852857D01*
X135012213Y-99783392D01*
X134211605Y-100584000D01*
X133852395Y-100584000D01*
X133051787Y-99783392D01*
X132809603Y-99852857D01*
X132622856Y-100376302D01*
X130657717Y-100376302D01*
X130572135Y-99946055D01*
X130224575Y-99425896D01*
X130888736Y-99701000D01*
X132255264Y-99701000D01*
X132489957Y-99603787D01*
X133231392Y-99603787D01*
X134032000Y-100404395D01*
X134832608Y-99603787D01*
X134763143Y-99361603D01*
X134239698Y-99174856D01*
X133684632Y-99202638D01*
X133300857Y-99361603D01*
X133231392Y-99603787D01*
X132489957Y-99603787D01*
X133517771Y-99178053D01*
X134484053Y-98211771D01*
X135007000Y-96949264D01*
X135007000Y-95582736D01*
X134484053Y-94320229D01*
X133517771Y-93353947D01*
X132255264Y-92831000D01*
X130888736Y-92831000D01*
X129626229Y-93353947D01*
X128659947Y-94320229D01*
X128137000Y-95582736D01*
X128137000Y-96949264D01*
X128659947Y-98211771D01*
X129447867Y-98999691D01*
X129031999Y-98916970D01*
X128394054Y-99043865D01*
X127989746Y-99314015D01*
X125052762Y-102251000D01*
X117539000Y-102251000D01*
X117539000Y-101564213D01*
X120103392Y-101564213D01*
X120172857Y-101806397D01*
X120696302Y-101993144D01*
X121251368Y-101965362D01*
X121635143Y-101806397D01*
X121704608Y-101564213D01*
X120904000Y-100763605D01*
X120103392Y-101564213D01*
X117539000Y-101564213D01*
X117539000Y-100745031D01*
X117571031Y-100584000D01*
X117529718Y-100376302D01*
X119494856Y-100376302D01*
X119522638Y-100931368D01*
X119681603Y-101315143D01*
X119923787Y-101384608D01*
X120724395Y-100584000D01*
X121083605Y-100584000D01*
X121884213Y-101384608D01*
X122126397Y-101315143D01*
X122313144Y-100791698D01*
X122285362Y-100236632D01*
X122126397Y-99852857D01*
X121884213Y-99783392D01*
X121083605Y-100584000D01*
X120724395Y-100584000D01*
X119923787Y-99783392D01*
X119681603Y-99852857D01*
X119494856Y-100376302D01*
X117529718Y-100376302D01*
X117444136Y-99946054D01*
X117215441Y-99603787D01*
X120103392Y-99603787D01*
X120904000Y-100404395D01*
X121704608Y-99603787D01*
X121635143Y-99361603D01*
X121111698Y-99174856D01*
X120556632Y-99202638D01*
X120172857Y-99361603D01*
X120103392Y-99603787D01*
X117215441Y-99603787D01*
X117173986Y-99541746D01*
X117173984Y-99541744D01*
X117082769Y-99405231D01*
X116946255Y-99314015D01*
X115935000Y-98302761D01*
X115935000Y-92928213D01*
X128231392Y-92928213D01*
X128300857Y-93170397D01*
X128824302Y-93357144D01*
X129379368Y-93329362D01*
X129763143Y-93170397D01*
X129832608Y-92928213D01*
X129032000Y-92127605D01*
X128231392Y-92928213D01*
X115935000Y-92928213D01*
X115935000Y-91740302D01*
X127622856Y-91740302D01*
X127650638Y-92295368D01*
X127809603Y-92679143D01*
X128051787Y-92748608D01*
X128852395Y-91948000D01*
X129211605Y-91948000D01*
X130012213Y-92748608D01*
X130254397Y-92679143D01*
X130441144Y-92155698D01*
X130413362Y-91600632D01*
X130254397Y-91216857D01*
X130012213Y-91147392D01*
X129211605Y-91948000D01*
X128852395Y-91948000D01*
X128051787Y-91147392D01*
X127809603Y-91216857D01*
X127622856Y-91740302D01*
X115935000Y-91740302D01*
X115935000Y-90967787D01*
X128231392Y-90967787D01*
X129032000Y-91768395D01*
X129832608Y-90967787D01*
X129763143Y-90725603D01*
X129239698Y-90538856D01*
X128684632Y-90566638D01*
X128300857Y-90725603D01*
X128231392Y-90967787D01*
X115935000Y-90967787D01*
X115935000Y-81348608D01*
X116039393Y-81244215D01*
X116108857Y-81486397D01*
X116632302Y-81673144D01*
X117187368Y-81645362D01*
X117571143Y-81486397D01*
X117640608Y-81244213D01*
X116840000Y-80443605D01*
X116825858Y-80457748D01*
X116646253Y-80278143D01*
X116660395Y-80264000D01*
X115859787Y-79463392D01*
X115752089Y-79494283D01*
X115589952Y-79251628D01*
X116048616Y-79251628D01*
X116039392Y-79283787D01*
X116840000Y-80084395D01*
X116854143Y-80070253D01*
X117033748Y-80249858D01*
X117019605Y-80264000D01*
X117820213Y-81064608D01*
X117927912Y-81033717D01*
X118201231Y-81442769D01*
X118742055Y-81804136D01*
X119380000Y-81931031D01*
X119431630Y-81920761D01*
X123578389Y-86067521D01*
X123641711Y-86162289D01*
X124017145Y-86413146D01*
X124460000Y-86501235D01*
X124571783Y-86479000D01*
X126957869Y-86479000D01*
X132546477Y-92067609D01*
X132546479Y-92067611D01*
X132635000Y-92156131D01*
X132635000Y-92225881D01*
X132847680Y-92739337D01*
X133240663Y-93132320D01*
X133754119Y-93345000D01*
X134309881Y-93345000D01*
X134823337Y-93132320D01*
X135216320Y-92739337D01*
X135429000Y-92225881D01*
X135429000Y-91670119D01*
X135216320Y-91156663D01*
X134823337Y-90763680D01*
X134309881Y-90551000D01*
X134240131Y-90551000D01*
X134151611Y-90462479D01*
X134151609Y-90462477D01*
X128309613Y-84620482D01*
X128246289Y-84525711D01*
X127870855Y-84274854D01*
X127539783Y-84209000D01*
X127428000Y-84186765D01*
X127316217Y-84209000D01*
X124930132Y-84209000D01*
X122328166Y-81607034D01*
X122711337Y-81448320D01*
X123104320Y-81055337D01*
X123317000Y-80541881D01*
X123317000Y-79986119D01*
X123104320Y-79472663D01*
X122711337Y-79079680D01*
X122197881Y-78867000D01*
X121642119Y-78867000D01*
X121128663Y-79079680D01*
X121015000Y-79193343D01*
X121015000Y-77353000D01*
X121097939Y-77353000D01*
X121126564Y-77372127D01*
X121469999Y-77440440D01*
X122370001Y-77440440D01*
X122713436Y-77372127D01*
X123004586Y-77177586D01*
X123199127Y-76886436D01*
X123267440Y-76543001D01*
X123267440Y-75892999D01*
X123199127Y-75549564D01*
X123004586Y-75258414D01*
X123003403Y-75257623D01*
X123158327Y-75102698D01*
X123255000Y-74869309D01*
X123255000Y-74453750D01*
X123096250Y-74295000D01*
X122047000Y-74295000D01*
X122047000Y-74315000D01*
X121793000Y-74315000D01*
X121793000Y-74295000D01*
X121773000Y-74295000D01*
X121773000Y-74041000D01*
X121793000Y-74041000D01*
X121793000Y-73116750D01*
X122047000Y-73116750D01*
X122047000Y-74041000D01*
X123096250Y-74041000D01*
X123255000Y-73882250D01*
X123255000Y-73466691D01*
X123158327Y-73233302D01*
X122979699Y-73054673D01*
X122746310Y-72958000D01*
X122205750Y-72958000D01*
X122047000Y-73116750D01*
X121793000Y-73116750D01*
X121634250Y-72958000D01*
X121093690Y-72958000D01*
X120860301Y-73054673D01*
X120681673Y-73233302D01*
X120655625Y-73296187D01*
X120558769Y-73151231D01*
X120422250Y-73060012D01*
X120407440Y-73045202D01*
X120407440Y-71185000D01*
X120339126Y-70841565D01*
X120320708Y-70814000D01*
X137466000Y-70814000D01*
X137466001Y-121718000D01*
X112079000Y-121718000D01*
X112079000Y-121706750D01*
X111920250Y-121548000D01*
X110871000Y-121548000D01*
X110871000Y-121568000D01*
X110617000Y-121568000D01*
X110617000Y-121548000D01*
X109567750Y-121548000D01*
X109409000Y-121706750D01*
X109409000Y-121718000D01*
X97230000Y-121718000D01*
X97230000Y-115863691D01*
X104537000Y-115863691D01*
X104537000Y-116554250D01*
X104695750Y-116713000D01*
X106045000Y-116713000D01*
X106045000Y-115513750D01*
X106299000Y-115513750D01*
X106299000Y-116713000D01*
X107648250Y-116713000D01*
X107807000Y-116554250D01*
X107807000Y-115863691D01*
X107710327Y-115630302D01*
X107531699Y-115451673D01*
X107298310Y-115355000D01*
X106457750Y-115355000D01*
X106299000Y-115513750D01*
X106045000Y-115513750D01*
X105886250Y-115355000D01*
X105045690Y-115355000D01*
X104812301Y-115451673D01*
X104633673Y-115630302D01*
X104537000Y-115863691D01*
X97230000Y-115863691D01*
X97230000Y-109044736D01*
X97657000Y-109044736D01*
X97657000Y-110411264D01*
X98179947Y-111673771D01*
X99146229Y-112640053D01*
X100408736Y-113163000D01*
X101775264Y-113163000D01*
X103037771Y-112640053D01*
X104004053Y-111673771D01*
X104527000Y-110411264D01*
X104527000Y-110033691D01*
X109409000Y-110033691D01*
X109409000Y-110449250D01*
X109567750Y-110608000D01*
X110617000Y-110608000D01*
X110617000Y-109683750D01*
X110871000Y-109683750D01*
X110871000Y-110608000D01*
X111920250Y-110608000D01*
X112079000Y-110449250D01*
X112079000Y-110033691D01*
X111982327Y-109800302D01*
X111803699Y-109621673D01*
X111570310Y-109525000D01*
X111029750Y-109525000D01*
X110871000Y-109683750D01*
X110617000Y-109683750D01*
X110458250Y-109525000D01*
X109917690Y-109525000D01*
X109684301Y-109621673D01*
X109505673Y-109800302D01*
X109409000Y-110033691D01*
X104527000Y-110033691D01*
X104527000Y-109044736D01*
X104004053Y-107782229D01*
X103037771Y-106815947D01*
X101775264Y-106293000D01*
X100408736Y-106293000D01*
X99146229Y-106815947D01*
X98179947Y-107782229D01*
X97657000Y-109044736D01*
X97230000Y-109044736D01*
X97230000Y-88939691D01*
X104537000Y-88939691D01*
X104537000Y-89630250D01*
X104695750Y-89789000D01*
X106045000Y-89789000D01*
X106045000Y-88589750D01*
X105886250Y-88431000D01*
X105045690Y-88431000D01*
X104812301Y-88527673D01*
X104633673Y-88706302D01*
X104537000Y-88939691D01*
X97230000Y-88939691D01*
X97230000Y-82120736D01*
X97657000Y-82120736D01*
X97657000Y-83487264D01*
X98179947Y-84749771D01*
X99146229Y-85716053D01*
X100408736Y-86239000D01*
X101775264Y-86239000D01*
X103037771Y-85716053D01*
X104004053Y-84749771D01*
X104527000Y-83487264D01*
X104527000Y-82120736D01*
X104004053Y-80858229D01*
X103037771Y-79891947D01*
X101775264Y-79369000D01*
X100408736Y-79369000D01*
X99146229Y-79891947D01*
X98179947Y-80858229D01*
X97657000Y-82120736D01*
X97230000Y-82120736D01*
X97230000Y-72215691D01*
X104537000Y-72215691D01*
X104537000Y-72906250D01*
X104695750Y-73065000D01*
X106045000Y-73065000D01*
X106045000Y-71865750D01*
X106299000Y-71865750D01*
X106299000Y-73065000D01*
X107648250Y-73065000D01*
X107807000Y-72906250D01*
X107807000Y-72215691D01*
X107710327Y-71982302D01*
X107531699Y-71803673D01*
X107298310Y-71707000D01*
X106457750Y-71707000D01*
X106299000Y-71865750D01*
X106045000Y-71865750D01*
X105886250Y-71707000D01*
X105045690Y-71707000D01*
X104812301Y-71803673D01*
X104633673Y-71982302D01*
X104537000Y-72215691D01*
X97230000Y-72215691D01*
X97230000Y-70814000D01*
X110149292Y-70814000D01*
X110130874Y-70841565D01*
X110130874Y-70841565D01*
G37*
X110130874Y-70841565D02*
X110062560Y-71185000D01*
X110062560Y-73045201D01*
X109050762Y-74057000D01*
X107807000Y-74057000D01*
X107807000Y-73477750D01*
X107648250Y-73319000D01*
X106299000Y-73319000D01*
X106299000Y-73339000D01*
X106045000Y-73339000D01*
X106045000Y-73319000D01*
X104695750Y-73319000D01*
X104537000Y-73477750D01*
X104537000Y-74168309D01*
X104633673Y-74401698D01*
X104812301Y-74580327D01*
X104918897Y-74624480D01*
X104631864Y-75054055D01*
X104504969Y-75692000D01*
X104631864Y-76329945D01*
X104993231Y-76870769D01*
X105534055Y-77232136D01*
X106010969Y-77327000D01*
X109566970Y-77327000D01*
X109728000Y-77359031D01*
X109889030Y-77327000D01*
X109889031Y-77327000D01*
X110365945Y-77232136D01*
X110732529Y-76987193D01*
X110960000Y-77032440D01*
X111000138Y-77032440D01*
X110980788Y-77036289D01*
X110924517Y-77047482D01*
X110549083Y-77298339D01*
X110485759Y-77393110D01*
X110361309Y-77517560D01*
X110293999Y-77517560D01*
X109955094Y-77584972D01*
X109943999Y-77582765D01*
X109501145Y-77670854D01*
X109125711Y-77921711D01*
X109062389Y-78016479D01*
X107988480Y-79090389D01*
X107893712Y-79153711D01*
X107740912Y-79382392D01*
X107642854Y-79529146D01*
X107554765Y-79972000D01*
X107577001Y-80083788D01*
X107577000Y-88572975D01*
X107531699Y-88527673D01*
X107298310Y-88431000D01*
X106457750Y-88431000D01*
X106299000Y-88589750D01*
X106299000Y-89789000D01*
X106319000Y-89789000D01*
X106319000Y-90043000D01*
X106299000Y-90043000D01*
X106299000Y-90063000D01*
X106045000Y-90063000D01*
X106045000Y-90043000D01*
X104695750Y-90043000D01*
X104537000Y-90201750D01*
X104537000Y-90892309D01*
X104633673Y-91125698D01*
X104788974Y-91281000D01*
X104283783Y-91281000D01*
X104172000Y-91258765D01*
X103736580Y-91345375D01*
X103729145Y-91346854D01*
X103353711Y-91597711D01*
X103290389Y-91692479D01*
X102400481Y-92582387D01*
X102305711Y-92645711D01*
X102072045Y-92995418D01*
X102054854Y-93021146D01*
X101966765Y-93464000D01*
X101989000Y-93575783D01*
X101989001Y-101416212D01*
X101966765Y-101528000D01*
X102054854Y-101970854D01*
X102069748Y-101993144D01*
X102305712Y-102346289D01*
X102400479Y-102409611D01*
X103290389Y-103299521D01*
X103353711Y-103394289D01*
X103729145Y-103645146D01*
X104172000Y-103733235D01*
X104283783Y-103711000D01*
X105047719Y-103711000D01*
X105442582Y-103974839D01*
X105875744Y-104061000D01*
X106468256Y-104061000D01*
X106901418Y-103974839D01*
X107392625Y-103646625D01*
X107720839Y-103155418D01*
X107836092Y-102576000D01*
X107720839Y-101996582D01*
X107401291Y-101518344D01*
X107531699Y-101464327D01*
X107710327Y-101285698D01*
X107807000Y-101052309D01*
X107807000Y-100361750D01*
X107648250Y-100203000D01*
X106299000Y-100203000D01*
X106299000Y-100223000D01*
X106045000Y-100223000D01*
X106045000Y-100203000D01*
X104695750Y-100203000D01*
X104537000Y-100361750D01*
X104537000Y-101052309D01*
X104633673Y-101285698D01*
X104788974Y-101441000D01*
X104642132Y-101441000D01*
X104259000Y-101057869D01*
X104259000Y-99099691D01*
X104537000Y-99099691D01*
X104537000Y-99790250D01*
X104695750Y-99949000D01*
X106045000Y-99949000D01*
X106045000Y-98749750D01*
X106299000Y-98749750D01*
X106299000Y-99949000D01*
X107648250Y-99949000D01*
X107807000Y-99790250D01*
X107807000Y-99099691D01*
X107710327Y-98866302D01*
X107531699Y-98687673D01*
X107298310Y-98591000D01*
X106457750Y-98591000D01*
X106299000Y-98749750D01*
X106045000Y-98749750D01*
X105886250Y-98591000D01*
X105045690Y-98591000D01*
X104812301Y-98687673D01*
X104633673Y-98866302D01*
X104537000Y-99099691D01*
X104259000Y-99099691D01*
X104259000Y-93934131D01*
X104642132Y-93551000D01*
X105047719Y-93551000D01*
X105442582Y-93814839D01*
X105875744Y-93901000D01*
X106468256Y-93901000D01*
X106901418Y-93814839D01*
X107296281Y-93551000D01*
X108060217Y-93551000D01*
X108172000Y-93573235D01*
X108283783Y-93551000D01*
X108614855Y-93485146D01*
X108990289Y-93234289D01*
X109053613Y-93139518D01*
X109435519Y-92757612D01*
X109530289Y-92694289D01*
X109781146Y-92318855D01*
X109847000Y-91987783D01*
X109847000Y-91987782D01*
X109869235Y-91876001D01*
X109847000Y-91764219D01*
X109847000Y-86542719D01*
X109917690Y-86572000D01*
X110458250Y-86572000D01*
X110617000Y-86413250D01*
X110617000Y-85489000D01*
X110871000Y-85489000D01*
X110871000Y-86413250D01*
X111029750Y-86572000D01*
X111570310Y-86572000D01*
X111803699Y-86475327D01*
X111982327Y-86296698D01*
X112079000Y-86063309D01*
X112079000Y-85647750D01*
X111920250Y-85489000D01*
X110871000Y-85489000D01*
X110617000Y-85489000D01*
X110597000Y-85489000D01*
X110597000Y-85235000D01*
X110617000Y-85235000D01*
X110617000Y-85215000D01*
X110871000Y-85215000D01*
X110871000Y-85235000D01*
X111920250Y-85235000D01*
X112079000Y-85076250D01*
X112079000Y-84660691D01*
X111982327Y-84427302D01*
X111827403Y-84272377D01*
X111828586Y-84271586D01*
X112023127Y-83980436D01*
X112091440Y-83637001D01*
X112091440Y-82986999D01*
X112023127Y-82643564D01*
X111828586Y-82352414D01*
X111537436Y-82157873D01*
X111504000Y-82151222D01*
X111504000Y-81950778D01*
X111537436Y-81944127D01*
X111828586Y-81749586D01*
X112023127Y-81458436D01*
X112091440Y-81115001D01*
X112091440Y-80464999D01*
X112023127Y-80121564D01*
X111828586Y-79830414D01*
X111730687Y-79765000D01*
X111828586Y-79699586D01*
X112023127Y-79408436D01*
X112054318Y-79251628D01*
X113010048Y-79251628D01*
X112759864Y-79626056D01*
X112665000Y-80102970D01*
X112665001Y-98818965D01*
X112632969Y-98980000D01*
X112744708Y-99541746D01*
X112759865Y-99617945D01*
X113121232Y-100158769D01*
X113257747Y-100249986D01*
X114269000Y-101261239D01*
X114269000Y-101822660D01*
X114269001Y-101822664D01*
X114269000Y-103724968D01*
X114236969Y-103886000D01*
X114269000Y-104047030D01*
X114269000Y-105317030D01*
X114269001Y-105317035D01*
X114269000Y-111811761D01*
X111993916Y-114086846D01*
X111828586Y-113839414D01*
X111757626Y-113792000D01*
X111828586Y-113744586D01*
X112023127Y-113453436D01*
X112091440Y-113110001D01*
X112091440Y-112459999D01*
X112023127Y-112116564D01*
X111828586Y-111825414D01*
X111827403Y-111824623D01*
X111982327Y-111669698D01*
X112079000Y-111436309D01*
X112079000Y-111020750D01*
X111920250Y-110862000D01*
X110871000Y-110862000D01*
X110871000Y-110882000D01*
X110617000Y-110882000D01*
X110617000Y-110862000D01*
X109567750Y-110862000D01*
X109409000Y-111020750D01*
X109409000Y-111436309D01*
X109505673Y-111669698D01*
X109660597Y-111824623D01*
X109659414Y-111825414D01*
X109464873Y-112116564D01*
X109396560Y-112459999D01*
X109396560Y-113110001D01*
X109464873Y-113453436D01*
X109659414Y-113744586D01*
X109730374Y-113792000D01*
X109659414Y-113839414D01*
X109464873Y-114130564D01*
X109396560Y-114473999D01*
X109396560Y-115124001D01*
X109464873Y-115467436D01*
X109589529Y-115653996D01*
X109565231Y-115670231D01*
X109203864Y-116211055D01*
X109076969Y-116849000D01*
X109109001Y-117010035D01*
X109109001Y-117705000D01*
X107807000Y-117705000D01*
X107807000Y-117125750D01*
X107648250Y-116967000D01*
X106299000Y-116967000D01*
X106299000Y-116987000D01*
X106045000Y-116987000D01*
X106045000Y-116967000D01*
X104695750Y-116967000D01*
X104537000Y-117125750D01*
X104537000Y-117816309D01*
X104633673Y-118049698D01*
X104812301Y-118228327D01*
X104918897Y-118272480D01*
X104631864Y-118702055D01*
X104504969Y-119340000D01*
X104631864Y-119977945D01*
X104993231Y-120518769D01*
X105534055Y-120880136D01*
X106010969Y-120975000D01*
X109409000Y-120975000D01*
X109409000Y-121135250D01*
X109567750Y-121294000D01*
X110617000Y-121294000D01*
X110617000Y-121274000D01*
X110871000Y-121274000D01*
X110871000Y-121294000D01*
X111920250Y-121294000D01*
X112079000Y-121135250D01*
X112079000Y-120719691D01*
X111982327Y-120486302D01*
X111972046Y-120476021D01*
X112284136Y-120008945D01*
X112411031Y-119371000D01*
X112379000Y-119209969D01*
X112379000Y-118257468D01*
X112722769Y-118027769D01*
X112813988Y-117891250D01*
X116946253Y-113758986D01*
X117082769Y-113667769D01*
X117444136Y-113126945D01*
X117539000Y-112650031D01*
X117539000Y-112650030D01*
X117571031Y-112489001D01*
X117539000Y-112327971D01*
X117539000Y-105521000D01*
X125568970Y-105521000D01*
X125730000Y-105553031D01*
X125891030Y-105521000D01*
X125891031Y-105521000D01*
X126367945Y-105426136D01*
X126908769Y-105064769D01*
X126999988Y-104928250D01*
X130301985Y-101626254D01*
X130343439Y-101564213D01*
X133231392Y-101564213D01*
X133300857Y-101806397D01*
X133824302Y-101993144D01*
X134379368Y-101965362D01*
X134763143Y-101806397D01*
X134832608Y-101564213D01*
X134032000Y-100763605D01*
X133231392Y-101564213D01*
X130343439Y-101564213D01*
X130572135Y-101221946D01*
X130699030Y-100584001D01*
X130657717Y-100376302D01*
X132622856Y-100376302D01*
X132650638Y-100931368D01*
X132809603Y-101315143D01*
X133051787Y-101384608D01*
X133852395Y-100584000D01*
X134211605Y-100584000D01*
X135012213Y-101384608D01*
X135254397Y-101315143D01*
X135441144Y-100791698D01*
X135413362Y-100236632D01*
X135254397Y-99852857D01*
X135012213Y-99783392D01*
X134211605Y-100584000D01*
X133852395Y-100584000D01*
X133051787Y-99783392D01*
X132809603Y-99852857D01*
X132622856Y-100376302D01*
X130657717Y-100376302D01*
X130572135Y-99946055D01*
X130224575Y-99425896D01*
X130888736Y-99701000D01*
X132255264Y-99701000D01*
X132489957Y-99603787D01*
X133231392Y-99603787D01*
X134032000Y-100404395D01*
X134832608Y-99603787D01*
X134763143Y-99361603D01*
X134239698Y-99174856D01*
X133684632Y-99202638D01*
X133300857Y-99361603D01*
X133231392Y-99603787D01*
X132489957Y-99603787D01*
X133517771Y-99178053D01*
X134484053Y-98211771D01*
X135007000Y-96949264D01*
X135007000Y-95582736D01*
X134484053Y-94320229D01*
X133517771Y-93353947D01*
X132255264Y-92831000D01*
X130888736Y-92831000D01*
X129626229Y-93353947D01*
X128659947Y-94320229D01*
X128137000Y-95582736D01*
X128137000Y-96949264D01*
X128659947Y-98211771D01*
X129447867Y-98999691D01*
X129031999Y-98916970D01*
X128394054Y-99043865D01*
X127989746Y-99314015D01*
X125052762Y-102251000D01*
X117539000Y-102251000D01*
X117539000Y-101564213D01*
X120103392Y-101564213D01*
X120172857Y-101806397D01*
X120696302Y-101993144D01*
X121251368Y-101965362D01*
X121635143Y-101806397D01*
X121704608Y-101564213D01*
X120904000Y-100763605D01*
X120103392Y-101564213D01*
X117539000Y-101564213D01*
X117539000Y-100745031D01*
X117571031Y-100584000D01*
X117529718Y-100376302D01*
X119494856Y-100376302D01*
X119522638Y-100931368D01*
X119681603Y-101315143D01*
X119923787Y-101384608D01*
X120724395Y-100584000D01*
X121083605Y-100584000D01*
X121884213Y-101384608D01*
X122126397Y-101315143D01*
X122313144Y-100791698D01*
X122285362Y-100236632D01*
X122126397Y-99852857D01*
X121884213Y-99783392D01*
X121083605Y-100584000D01*
X120724395Y-100584000D01*
X119923787Y-99783392D01*
X119681603Y-99852857D01*
X119494856Y-100376302D01*
X117529718Y-100376302D01*
X117444136Y-99946054D01*
X117215441Y-99603787D01*
X120103392Y-99603787D01*
X120904000Y-100404395D01*
X121704608Y-99603787D01*
X121635143Y-99361603D01*
X121111698Y-99174856D01*
X120556632Y-99202638D01*
X120172857Y-99361603D01*
X120103392Y-99603787D01*
X117215441Y-99603787D01*
X117173986Y-99541746D01*
X117173984Y-99541744D01*
X117082769Y-99405231D01*
X116946255Y-99314015D01*
X115935000Y-98302761D01*
X115935000Y-92928213D01*
X128231392Y-92928213D01*
X128300857Y-93170397D01*
X128824302Y-93357144D01*
X129379368Y-93329362D01*
X129763143Y-93170397D01*
X129832608Y-92928213D01*
X129032000Y-92127605D01*
X128231392Y-92928213D01*
X115935000Y-92928213D01*
X115935000Y-91740302D01*
X127622856Y-91740302D01*
X127650638Y-92295368D01*
X127809603Y-92679143D01*
X128051787Y-92748608D01*
X128852395Y-91948000D01*
X129211605Y-91948000D01*
X130012213Y-92748608D01*
X130254397Y-92679143D01*
X130441144Y-92155698D01*
X130413362Y-91600632D01*
X130254397Y-91216857D01*
X130012213Y-91147392D01*
X129211605Y-91948000D01*
X128852395Y-91948000D01*
X128051787Y-91147392D01*
X127809603Y-91216857D01*
X127622856Y-91740302D01*
X115935000Y-91740302D01*
X115935000Y-90967787D01*
X128231392Y-90967787D01*
X129032000Y-91768395D01*
X129832608Y-90967787D01*
X129763143Y-90725603D01*
X129239698Y-90538856D01*
X128684632Y-90566638D01*
X128300857Y-90725603D01*
X128231392Y-90967787D01*
X115935000Y-90967787D01*
X115935000Y-81348608D01*
X116039393Y-81244215D01*
X116108857Y-81486397D01*
X116632302Y-81673144D01*
X117187368Y-81645362D01*
X117571143Y-81486397D01*
X117640608Y-81244213D01*
X116840000Y-80443605D01*
X116825858Y-80457748D01*
X116646253Y-80278143D01*
X116660395Y-80264000D01*
X115859787Y-79463392D01*
X115752089Y-79494283D01*
X115589952Y-79251628D01*
X116048616Y-79251628D01*
X116039392Y-79283787D01*
X116840000Y-80084395D01*
X116854143Y-80070253D01*
X117033748Y-80249858D01*
X117019605Y-80264000D01*
X117820213Y-81064608D01*
X117927912Y-81033717D01*
X118201231Y-81442769D01*
X118742055Y-81804136D01*
X119380000Y-81931031D01*
X119431630Y-81920761D01*
X123578389Y-86067521D01*
X123641711Y-86162289D01*
X124017145Y-86413146D01*
X124460000Y-86501235D01*
X124571783Y-86479000D01*
X126957869Y-86479000D01*
X132546477Y-92067609D01*
X132546479Y-92067611D01*
X132635000Y-92156131D01*
X132635000Y-92225881D01*
X132847680Y-92739337D01*
X133240663Y-93132320D01*
X133754119Y-93345000D01*
X134309881Y-93345000D01*
X134823337Y-93132320D01*
X135216320Y-92739337D01*
X135429000Y-92225881D01*
X135429000Y-91670119D01*
X135216320Y-91156663D01*
X134823337Y-90763680D01*
X134309881Y-90551000D01*
X134240131Y-90551000D01*
X134151611Y-90462479D01*
X134151609Y-90462477D01*
X128309613Y-84620482D01*
X128246289Y-84525711D01*
X127870855Y-84274854D01*
X127539783Y-84209000D01*
X127428000Y-84186765D01*
X127316217Y-84209000D01*
X124930132Y-84209000D01*
X122328166Y-81607034D01*
X122711337Y-81448320D01*
X123104320Y-81055337D01*
X123317000Y-80541881D01*
X123317000Y-79986119D01*
X123104320Y-79472663D01*
X122711337Y-79079680D01*
X122197881Y-78867000D01*
X121642119Y-78867000D01*
X121128663Y-79079680D01*
X121015000Y-79193343D01*
X121015000Y-77353000D01*
X121097939Y-77353000D01*
X121126564Y-77372127D01*
X121469999Y-77440440D01*
X122370001Y-77440440D01*
X122713436Y-77372127D01*
X123004586Y-77177586D01*
X123199127Y-76886436D01*
X123267440Y-76543001D01*
X123267440Y-75892999D01*
X123199127Y-75549564D01*
X123004586Y-75258414D01*
X123003403Y-75257623D01*
X123158327Y-75102698D01*
X123255000Y-74869309D01*
X123255000Y-74453750D01*
X123096250Y-74295000D01*
X122047000Y-74295000D01*
X122047000Y-74315000D01*
X121793000Y-74315000D01*
X121793000Y-74295000D01*
X121773000Y-74295000D01*
X121773000Y-74041000D01*
X121793000Y-74041000D01*
X121793000Y-73116750D01*
X122047000Y-73116750D01*
X122047000Y-74041000D01*
X123096250Y-74041000D01*
X123255000Y-73882250D01*
X123255000Y-73466691D01*
X123158327Y-73233302D01*
X122979699Y-73054673D01*
X122746310Y-72958000D01*
X122205750Y-72958000D01*
X122047000Y-73116750D01*
X121793000Y-73116750D01*
X121634250Y-72958000D01*
X121093690Y-72958000D01*
X120860301Y-73054673D01*
X120681673Y-73233302D01*
X120655625Y-73296187D01*
X120558769Y-73151231D01*
X120422250Y-73060012D01*
X120407440Y-73045202D01*
X120407440Y-71185000D01*
X120339126Y-70841565D01*
X120320708Y-70814000D01*
X137466000Y-70814000D01*
X137466001Y-121718000D01*
X112079000Y-121718000D01*
X112079000Y-121706750D01*
X111920250Y-121548000D01*
X110871000Y-121548000D01*
X110871000Y-121568000D01*
X110617000Y-121568000D01*
X110617000Y-121548000D01*
X109567750Y-121548000D01*
X109409000Y-121706750D01*
X109409000Y-121718000D01*
X97230000Y-121718000D01*
X97230000Y-115863691D01*
X104537000Y-115863691D01*
X104537000Y-116554250D01*
X104695750Y-116713000D01*
X106045000Y-116713000D01*
X106045000Y-115513750D01*
X106299000Y-115513750D01*
X106299000Y-116713000D01*
X107648250Y-116713000D01*
X107807000Y-116554250D01*
X107807000Y-115863691D01*
X107710327Y-115630302D01*
X107531699Y-115451673D01*
X107298310Y-115355000D01*
X106457750Y-115355000D01*
X106299000Y-115513750D01*
X106045000Y-115513750D01*
X105886250Y-115355000D01*
X105045690Y-115355000D01*
X104812301Y-115451673D01*
X104633673Y-115630302D01*
X104537000Y-115863691D01*
X97230000Y-115863691D01*
X97230000Y-109044736D01*
X97657000Y-109044736D01*
X97657000Y-110411264D01*
X98179947Y-111673771D01*
X99146229Y-112640053D01*
X100408736Y-113163000D01*
X101775264Y-113163000D01*
X103037771Y-112640053D01*
X104004053Y-111673771D01*
X104527000Y-110411264D01*
X104527000Y-110033691D01*
X109409000Y-110033691D01*
X109409000Y-110449250D01*
X109567750Y-110608000D01*
X110617000Y-110608000D01*
X110617000Y-109683750D01*
X110871000Y-109683750D01*
X110871000Y-110608000D01*
X111920250Y-110608000D01*
X112079000Y-110449250D01*
X112079000Y-110033691D01*
X111982327Y-109800302D01*
X111803699Y-109621673D01*
X111570310Y-109525000D01*
X111029750Y-109525000D01*
X110871000Y-109683750D01*
X110617000Y-109683750D01*
X110458250Y-109525000D01*
X109917690Y-109525000D01*
X109684301Y-109621673D01*
X109505673Y-109800302D01*
X109409000Y-110033691D01*
X104527000Y-110033691D01*
X104527000Y-109044736D01*
X104004053Y-107782229D01*
X103037771Y-106815947D01*
X101775264Y-106293000D01*
X100408736Y-106293000D01*
X99146229Y-106815947D01*
X98179947Y-107782229D01*
X97657000Y-109044736D01*
X97230000Y-109044736D01*
X97230000Y-88939691D01*
X104537000Y-88939691D01*
X104537000Y-89630250D01*
X104695750Y-89789000D01*
X106045000Y-89789000D01*
X106045000Y-88589750D01*
X105886250Y-88431000D01*
X105045690Y-88431000D01*
X104812301Y-88527673D01*
X104633673Y-88706302D01*
X104537000Y-88939691D01*
X97230000Y-88939691D01*
X97230000Y-82120736D01*
X97657000Y-82120736D01*
X97657000Y-83487264D01*
X98179947Y-84749771D01*
X99146229Y-85716053D01*
X100408736Y-86239000D01*
X101775264Y-86239000D01*
X103037771Y-85716053D01*
X104004053Y-84749771D01*
X104527000Y-83487264D01*
X104527000Y-82120736D01*
X104004053Y-80858229D01*
X103037771Y-79891947D01*
X101775264Y-79369000D01*
X100408736Y-79369000D01*
X99146229Y-79891947D01*
X98179947Y-80858229D01*
X97657000Y-82120736D01*
X97230000Y-82120736D01*
X97230000Y-72215691D01*
X104537000Y-72215691D01*
X104537000Y-72906250D01*
X104695750Y-73065000D01*
X106045000Y-73065000D01*
X106045000Y-71865750D01*
X106299000Y-71865750D01*
X106299000Y-73065000D01*
X107648250Y-73065000D01*
X107807000Y-72906250D01*
X107807000Y-72215691D01*
X107710327Y-71982302D01*
X107531699Y-71803673D01*
X107298310Y-71707000D01*
X106457750Y-71707000D01*
X106299000Y-71865750D01*
X106045000Y-71865750D01*
X105886250Y-71707000D01*
X105045690Y-71707000D01*
X104812301Y-71803673D01*
X104633673Y-71982302D01*
X104537000Y-72215691D01*
X97230000Y-72215691D01*
X97230000Y-70814000D01*
X110149292Y-70814000D01*
X110130874Y-70841565D01*
M02*
