G04 #@! TF.GenerationSoftware,KiCad,Pcbnew,5.1.9+dfsg1-1*
G04 #@! TF.CreationDate,2023-02-08T10:37:42+09:00*
G04 #@! TF.ProjectId,pixel-battery-breakout,70697865-6c2d-4626-9174-746572792d62,rev?*
G04 #@! TF.SameCoordinates,Original*
G04 #@! TF.FileFunction,Legend,Top*
G04 #@! TF.FilePolarity,Positive*
%FSLAX46Y46*%
G04 Gerber Fmt 4.6, Leading zero omitted, Abs format (unit mm)*
G04 Created by KiCad (PCBNEW 5.1.9+dfsg1-1) date 2023-02-08 10:37:42*
%MOMM*%
%LPD*%
G01*
G04 APERTURE LIST*
%ADD10C,0.150000*%
%ADD11C,0.120000*%
%ADD12R,4.000000X2.000000*%
%ADD13O,2.000000X1.700000*%
%ADD14O,1.950000X1.700000*%
%ADD15C,0.100000*%
G04 APERTURE END LIST*
D10*
X154202380Y-57011904D02*
X153202380Y-57011904D01*
X153678571Y-57011904D02*
X153678571Y-56440476D01*
X154202380Y-56440476D02*
X153202380Y-56440476D01*
X153916666Y-56011904D02*
X153916666Y-55535714D01*
X154202380Y-56107142D02*
X153202380Y-55773809D01*
X154202380Y-55440476D01*
X154202380Y-54535714D02*
X153726190Y-54869047D01*
X154202380Y-55107142D02*
X153202380Y-55107142D01*
X153202380Y-54726190D01*
X153250000Y-54630952D01*
X153297619Y-54583333D01*
X153392857Y-54535714D01*
X153535714Y-54535714D01*
X153630952Y-54583333D01*
X153678571Y-54630952D01*
X153726190Y-54726190D01*
X153726190Y-55107142D01*
X154202380Y-54107142D02*
X153202380Y-54107142D01*
X153202380Y-53869047D01*
X153250000Y-53726190D01*
X153345238Y-53630952D01*
X153440476Y-53583333D01*
X153630952Y-53535714D01*
X153773809Y-53535714D01*
X153964285Y-53583333D01*
X154059523Y-53630952D01*
X154154761Y-53726190D01*
X154202380Y-53869047D01*
X154202380Y-54107142D01*
X154107142Y-51773809D02*
X154154761Y-51821428D01*
X154202380Y-51964285D01*
X154202380Y-52059523D01*
X154154761Y-52202380D01*
X154059523Y-52297619D01*
X153964285Y-52345238D01*
X153773809Y-52392857D01*
X153630952Y-52392857D01*
X153440476Y-52345238D01*
X153345238Y-52297619D01*
X153250000Y-52202380D01*
X153202380Y-52059523D01*
X153202380Y-51964285D01*
X153250000Y-51821428D01*
X153297619Y-51773809D01*
X153202380Y-51154761D02*
X153202380Y-50964285D01*
X153250000Y-50869047D01*
X153345238Y-50773809D01*
X153535714Y-50726190D01*
X153869047Y-50726190D01*
X154059523Y-50773809D01*
X154154761Y-50869047D01*
X154202380Y-50964285D01*
X154202380Y-51154761D01*
X154154761Y-51250000D01*
X154059523Y-51345238D01*
X153869047Y-51392857D01*
X153535714Y-51392857D01*
X153345238Y-51345238D01*
X153250000Y-51250000D01*
X153202380Y-51154761D01*
X153202380Y-50440476D02*
X154202380Y-50107142D01*
X153202380Y-49773809D01*
X153678571Y-49440476D02*
X153678571Y-49107142D01*
X154202380Y-48964285D02*
X154202380Y-49440476D01*
X153202380Y-49440476D01*
X153202380Y-48964285D01*
X154202380Y-47964285D02*
X153726190Y-48297619D01*
X154202380Y-48535714D02*
X153202380Y-48535714D01*
X153202380Y-48154761D01*
X153250000Y-48059523D01*
X153297619Y-48011904D01*
X153392857Y-47964285D01*
X153535714Y-47964285D01*
X153630952Y-48011904D01*
X153678571Y-48059523D01*
X153726190Y-48154761D01*
X153726190Y-48535714D01*
X154202380Y-46773809D02*
X153202380Y-46773809D01*
X154202380Y-46202380D01*
X153202380Y-46202380D01*
X153678571Y-45726190D02*
X153678571Y-45392857D01*
X154202380Y-45250000D02*
X154202380Y-45726190D01*
X153202380Y-45726190D01*
X153202380Y-45250000D01*
X153678571Y-44821428D02*
X153678571Y-44488095D01*
X154202380Y-44345238D02*
X154202380Y-44821428D01*
X153202380Y-44821428D01*
X153202380Y-44345238D01*
X154202380Y-43916666D02*
X153202380Y-43916666D01*
X153202380Y-43678571D01*
X153250000Y-43535714D01*
X153345238Y-43440476D01*
X153440476Y-43392857D01*
X153630952Y-43345238D01*
X153773809Y-43345238D01*
X153964285Y-43392857D01*
X154059523Y-43440476D01*
X154154761Y-43535714D01*
X154202380Y-43678571D01*
X154202380Y-43916666D01*
X153678571Y-42916666D02*
X153678571Y-42583333D01*
X154202380Y-42440476D02*
X154202380Y-42916666D01*
X153202380Y-42916666D01*
X153202380Y-42440476D01*
X154202380Y-42011904D02*
X153202380Y-42011904D01*
X153202380Y-41773809D01*
X153250000Y-41630952D01*
X153345238Y-41535714D01*
X153440476Y-41488095D01*
X153630952Y-41440476D01*
X153773809Y-41440476D01*
X153964285Y-41488095D01*
X154059523Y-41535714D01*
X154154761Y-41630952D01*
X154202380Y-41773809D01*
X154202380Y-42011904D01*
X143107142Y-56130952D02*
X143154761Y-56083333D01*
X143202380Y-56130952D01*
X143154761Y-56178571D01*
X143107142Y-56130952D01*
X143202380Y-56130952D01*
X142821428Y-56130952D02*
X142250000Y-56178571D01*
X142202380Y-56130952D01*
X142250000Y-56083333D01*
X142821428Y-56130952D01*
X142202380Y-56130952D01*
X143107142Y-55654761D02*
X143154761Y-55607142D01*
X143202380Y-55654761D01*
X143154761Y-55702380D01*
X143107142Y-55654761D01*
X143202380Y-55654761D01*
X142821428Y-55654761D02*
X142250000Y-55702380D01*
X142202380Y-55654761D01*
X142250000Y-55607142D01*
X142821428Y-55654761D01*
X142202380Y-55654761D01*
X143107142Y-55178571D02*
X143154761Y-55130952D01*
X143202380Y-55178571D01*
X143154761Y-55226190D01*
X143107142Y-55178571D01*
X143202380Y-55178571D01*
X142821428Y-55178571D02*
X142250000Y-55226190D01*
X142202380Y-55178571D01*
X142250000Y-55130952D01*
X142821428Y-55178571D01*
X142202380Y-55178571D01*
X143107142Y-53369047D02*
X143154761Y-53416666D01*
X143202380Y-53559523D01*
X143202380Y-53654761D01*
X143154761Y-53797619D01*
X143059523Y-53892857D01*
X142964285Y-53940476D01*
X142773809Y-53988095D01*
X142630952Y-53988095D01*
X142440476Y-53940476D01*
X142345238Y-53892857D01*
X142250000Y-53797619D01*
X142202380Y-53654761D01*
X142202380Y-53559523D01*
X142250000Y-53416666D01*
X142297619Y-53369047D01*
X142202380Y-52940476D02*
X143011904Y-52940476D01*
X143107142Y-52892857D01*
X143154761Y-52845238D01*
X143202380Y-52750000D01*
X143202380Y-52559523D01*
X143154761Y-52464285D01*
X143107142Y-52416666D01*
X143011904Y-52369047D01*
X142202380Y-52369047D01*
X142202380Y-52035714D02*
X142202380Y-51464285D01*
X143202380Y-51750000D02*
X142202380Y-51750000D01*
X143202380Y-49892857D02*
X143202380Y-50369047D01*
X142202380Y-50369047D01*
X142678571Y-49559523D02*
X142678571Y-49226190D01*
X143202380Y-49083333D02*
X143202380Y-49559523D01*
X142202380Y-49559523D01*
X142202380Y-49083333D01*
X142250000Y-48130952D02*
X142202380Y-48226190D01*
X142202380Y-48369047D01*
X142250000Y-48511904D01*
X142345238Y-48607142D01*
X142440476Y-48654761D01*
X142630952Y-48702380D01*
X142773809Y-48702380D01*
X142964285Y-48654761D01*
X143059523Y-48607142D01*
X143154761Y-48511904D01*
X143202380Y-48369047D01*
X143202380Y-48273809D01*
X143154761Y-48130952D01*
X143107142Y-48083333D01*
X142773809Y-48083333D01*
X142773809Y-48273809D01*
X143154761Y-46940476D02*
X143202380Y-46797619D01*
X143202380Y-46559523D01*
X143154761Y-46464285D01*
X143107142Y-46416666D01*
X143011904Y-46369047D01*
X142916666Y-46369047D01*
X142821428Y-46416666D01*
X142773809Y-46464285D01*
X142726190Y-46559523D01*
X142678571Y-46750000D01*
X142630952Y-46845238D01*
X142583333Y-46892857D01*
X142488095Y-46940476D01*
X142392857Y-46940476D01*
X142297619Y-46892857D01*
X142250000Y-46845238D01*
X142202380Y-46750000D01*
X142202380Y-46511904D01*
X142250000Y-46369047D01*
X143202380Y-45940476D02*
X142202380Y-45940476D01*
X142678571Y-45940476D02*
X142678571Y-45369047D01*
X143202380Y-45369047D02*
X142202380Y-45369047D01*
X142202380Y-44702380D02*
X142202380Y-44511904D01*
X142250000Y-44416666D01*
X142345238Y-44321428D01*
X142535714Y-44273809D01*
X142869047Y-44273809D01*
X143059523Y-44321428D01*
X143154761Y-44416666D01*
X143202380Y-44511904D01*
X143202380Y-44702380D01*
X143154761Y-44797619D01*
X143059523Y-44892857D01*
X142869047Y-44940476D01*
X142535714Y-44940476D01*
X142345238Y-44892857D01*
X142250000Y-44797619D01*
X142202380Y-44702380D01*
X143202380Y-43273809D02*
X142726190Y-43607142D01*
X143202380Y-43845238D02*
X142202380Y-43845238D01*
X142202380Y-43464285D01*
X142250000Y-43369047D01*
X142297619Y-43321428D01*
X142392857Y-43273809D01*
X142535714Y-43273809D01*
X142630952Y-43321428D01*
X142678571Y-43369047D01*
X142726190Y-43464285D01*
X142726190Y-43845238D01*
X142202380Y-42988095D02*
X142202380Y-42416666D01*
X143202380Y-42702380D02*
X142202380Y-42702380D01*
X143107142Y-41321428D02*
X143154761Y-41273809D01*
X143202380Y-41321428D01*
X143154761Y-41369047D01*
X143107142Y-41321428D01*
X143202380Y-41321428D01*
X142821428Y-41321428D02*
X142250000Y-41369047D01*
X142202380Y-41321428D01*
X142250000Y-41273809D01*
X142821428Y-41321428D01*
X142202380Y-41321428D01*
X143107142Y-40845238D02*
X143154761Y-40797619D01*
X143202380Y-40845238D01*
X143154761Y-40892857D01*
X143107142Y-40845238D01*
X143202380Y-40845238D01*
X142821428Y-40845238D02*
X142250000Y-40892857D01*
X142202380Y-40845238D01*
X142250000Y-40797619D01*
X142821428Y-40845238D01*
X142202380Y-40845238D01*
X143107142Y-40369047D02*
X143154761Y-40321428D01*
X143202380Y-40369047D01*
X143154761Y-40416666D01*
X143107142Y-40369047D01*
X143202380Y-40369047D01*
X142821428Y-40369047D02*
X142250000Y-40416666D01*
X142202380Y-40369047D01*
X142250000Y-40321428D01*
X142821428Y-40369047D01*
X142202380Y-40369047D01*
X139702380Y-28535714D02*
X139702380Y-27964285D01*
X140702380Y-28250000D02*
X139702380Y-28250000D01*
X140702380Y-27630952D02*
X139702380Y-27630952D01*
X139702380Y-27250000D01*
X139750000Y-27154761D01*
X139797619Y-27107142D01*
X139892857Y-27059523D01*
X140035714Y-27059523D01*
X140130952Y-27107142D01*
X140178571Y-27154761D01*
X140226190Y-27250000D01*
X140226190Y-27630952D01*
X172011904Y-23178571D02*
X172154761Y-23226190D01*
X172202380Y-23273809D01*
X172250000Y-23369047D01*
X172250000Y-23511904D01*
X172202380Y-23607142D01*
X172154761Y-23654761D01*
X172059523Y-23702380D01*
X171678571Y-23702380D01*
X171678571Y-22702380D01*
X172011904Y-22702380D01*
X172107142Y-22750000D01*
X172154761Y-22797619D01*
X172202380Y-22892857D01*
X172202380Y-22988095D01*
X172154761Y-23083333D01*
X172107142Y-23130952D01*
X172011904Y-23178571D01*
X171678571Y-23178571D01*
X172630952Y-23416666D02*
X173107142Y-23416666D01*
X172535714Y-23702380D02*
X172869047Y-22702380D01*
X173202380Y-23702380D01*
X173392857Y-22702380D02*
X173964285Y-22702380D01*
X173678571Y-23702380D02*
X173678571Y-22702380D01*
X174154761Y-22702380D02*
X174726190Y-22702380D01*
X174440476Y-23702380D02*
X174440476Y-22702380D01*
X175059523Y-23321428D02*
X175821428Y-23321428D01*
X175440476Y-23702380D02*
X175440476Y-22940476D01*
X146261904Y-23178571D02*
X146404761Y-23226190D01*
X146452380Y-23273809D01*
X146500000Y-23369047D01*
X146500000Y-23511904D01*
X146452380Y-23607142D01*
X146404761Y-23654761D01*
X146309523Y-23702380D01*
X145928571Y-23702380D01*
X145928571Y-22702380D01*
X146261904Y-22702380D01*
X146357142Y-22750000D01*
X146404761Y-22797619D01*
X146452380Y-22892857D01*
X146452380Y-22988095D01*
X146404761Y-23083333D01*
X146357142Y-23130952D01*
X146261904Y-23178571D01*
X145928571Y-23178571D01*
X146880952Y-23416666D02*
X147357142Y-23416666D01*
X146785714Y-23702380D02*
X147119047Y-22702380D01*
X147452380Y-23702380D01*
X147642857Y-22702380D02*
X148214285Y-22702380D01*
X147928571Y-23702380D02*
X147928571Y-22702380D01*
X148404761Y-22702380D02*
X148976190Y-22702380D01*
X148690476Y-23702380D02*
X148690476Y-22702380D01*
X149309523Y-23321428D02*
X150071428Y-23321428D01*
X136261904Y-22750000D02*
X136166666Y-22702380D01*
X136023809Y-22702380D01*
X135880952Y-22750000D01*
X135785714Y-22845238D01*
X135738095Y-22940476D01*
X135690476Y-23130952D01*
X135690476Y-23273809D01*
X135738095Y-23464285D01*
X135785714Y-23559523D01*
X135880952Y-23654761D01*
X136023809Y-23702380D01*
X136119047Y-23702380D01*
X136261904Y-23654761D01*
X136309523Y-23607142D01*
X136309523Y-23273809D01*
X136119047Y-23273809D01*
X136738095Y-23702380D02*
X136738095Y-22702380D01*
X137309523Y-23702380D01*
X137309523Y-22702380D01*
X137785714Y-23702380D02*
X137785714Y-22702380D01*
X138023809Y-22702380D01*
X138166666Y-22750000D01*
X138261904Y-22845238D01*
X138309523Y-22940476D01*
X138357142Y-23130952D01*
X138357142Y-23273809D01*
X138309523Y-23464285D01*
X138261904Y-23559523D01*
X138166666Y-23654761D01*
X138023809Y-23702380D01*
X137785714Y-23702380D01*
X138547619Y-23797619D02*
X139309523Y-23797619D01*
X139500000Y-23654761D02*
X139642857Y-23702380D01*
X139880952Y-23702380D01*
X139976190Y-23654761D01*
X140023809Y-23607142D01*
X140071428Y-23511904D01*
X140071428Y-23416666D01*
X140023809Y-23321428D01*
X139976190Y-23273809D01*
X139880952Y-23226190D01*
X139690476Y-23178571D01*
X139595238Y-23130952D01*
X139547619Y-23083333D01*
X139500000Y-22988095D01*
X139500000Y-22892857D01*
X139547619Y-22797619D01*
X139595238Y-22750000D01*
X139690476Y-22702380D01*
X139928571Y-22702380D01*
X140071428Y-22750000D01*
X140500000Y-23702380D02*
X140500000Y-22702380D01*
X140500000Y-23178571D02*
X141071428Y-23178571D01*
X141071428Y-23702380D02*
X141071428Y-22702380D01*
X141547619Y-23702380D02*
X141547619Y-22702380D01*
X142023809Y-23178571D02*
X142357142Y-23178571D01*
X142500000Y-23702380D02*
X142023809Y-23702380D01*
X142023809Y-22702380D01*
X142500000Y-22702380D01*
X143404761Y-23702380D02*
X142928571Y-23702380D01*
X142928571Y-22702380D01*
X143738095Y-23702380D02*
X143738095Y-22702380D01*
X143976190Y-22702380D01*
X144119047Y-22750000D01*
X144214285Y-22845238D01*
X144261904Y-22940476D01*
X144309523Y-23130952D01*
X144309523Y-23273809D01*
X144261904Y-23464285D01*
X144214285Y-23559523D01*
X144119047Y-23654761D01*
X143976190Y-23702380D01*
X143738095Y-23702380D01*
D11*
X155500000Y-61500000D02*
X141500000Y-61500000D01*
X155500000Y-36500000D02*
X155500000Y-61500000D01*
X141500000Y-36500000D02*
X155500000Y-36500000D01*
X141500000Y-61500000D02*
X141500000Y-36500000D01*
X146500000Y-31150000D02*
X146500000Y-32550000D01*
X145800000Y-33250000D02*
X145200000Y-33250000D01*
X144500000Y-32550000D02*
X144500000Y-31150000D01*
X145200000Y-30450000D02*
X145800000Y-30450000D01*
X146500000Y-32550000D02*
G75*
G02*
X145800000Y-33250000I-700000J0D01*
G01*
X145200000Y-33250000D02*
G75*
G02*
X144500000Y-32550000I0J700000D01*
G01*
X144500000Y-31150000D02*
G75*
G02*
X145200000Y-30450000I700000J0D01*
G01*
X145800000Y-30450000D02*
G75*
G02*
X146500000Y-31150000I0J-700000D01*
G01*
X148985000Y-31977064D02*
X148985000Y-31522936D01*
X147515000Y-31977064D02*
X147515000Y-31522936D01*
D10*
X144952380Y-29583333D02*
X145666666Y-29583333D01*
X145809523Y-29630952D01*
X145904761Y-29726190D01*
X145952380Y-29869047D01*
X145952380Y-29964285D01*
X145952380Y-29107142D02*
X144952380Y-29107142D01*
X144952380Y-28726190D01*
X145000000Y-28630952D01*
X145047619Y-28583333D01*
X145142857Y-28535714D01*
X145285714Y-28535714D01*
X145380952Y-28583333D01*
X145428571Y-28630952D01*
X145476190Y-28726190D01*
X145476190Y-29107142D01*
X145952380Y-27583333D02*
X145952380Y-28154761D01*
X145952380Y-27869047D02*
X144952380Y-27869047D01*
X145095238Y-27964285D01*
X145190476Y-28059523D01*
X145238095Y-28154761D01*
X148702380Y-28666666D02*
X148226190Y-29000000D01*
X148702380Y-29238095D02*
X147702380Y-29238095D01*
X147702380Y-28857142D01*
X147750000Y-28761904D01*
X147797619Y-28714285D01*
X147892857Y-28666666D01*
X148035714Y-28666666D01*
X148130952Y-28714285D01*
X148178571Y-28761904D01*
X148226190Y-28857142D01*
X148226190Y-29238095D01*
X148702380Y-27714285D02*
X148702380Y-28285714D01*
X148702380Y-28000000D02*
X147702380Y-28000000D01*
X147845238Y-28095238D01*
X147940476Y-28190476D01*
X147988095Y-28285714D01*
%LPC*%
D12*
X173500000Y-21250000D03*
X147500000Y-21250000D03*
X140500000Y-21250000D03*
G36*
G01*
X149000000Y-58350000D02*
X147500000Y-58350000D01*
G75*
G02*
X147250000Y-58100000I0J250000D01*
G01*
X147250000Y-56900000D01*
G75*
G02*
X147500000Y-56650000I250000J0D01*
G01*
X149000000Y-56650000D01*
G75*
G02*
X149250000Y-56900000I0J-250000D01*
G01*
X149250000Y-58100000D01*
G75*
G02*
X149000000Y-58350000I-250000J0D01*
G01*
G37*
D13*
X148250000Y-55000000D03*
G36*
G01*
X148975000Y-48850000D02*
X147525000Y-48850000D01*
G75*
G02*
X147275000Y-48600000I0J250000D01*
G01*
X147275000Y-47400000D01*
G75*
G02*
X147525000Y-47150000I250000J0D01*
G01*
X148975000Y-47150000D01*
G75*
G02*
X149225000Y-47400000I0J-250000D01*
G01*
X149225000Y-48600000D01*
G75*
G02*
X148975000Y-48850000I-250000J0D01*
G01*
G37*
D14*
X148250000Y-45500000D03*
X148250000Y-43000000D03*
X148250000Y-40500000D03*
D15*
G36*
X144750000Y-31700000D02*
G01*
X144750000Y-31200000D01*
X144750602Y-31200000D01*
X144750602Y-31175466D01*
X144755412Y-31126635D01*
X144764984Y-31078510D01*
X144779228Y-31031555D01*
X144798005Y-30986222D01*
X144821136Y-30942949D01*
X144848396Y-30902150D01*
X144879524Y-30864221D01*
X144914221Y-30829524D01*
X144952150Y-30798396D01*
X144992949Y-30771136D01*
X145036222Y-30748005D01*
X145081555Y-30729228D01*
X145128510Y-30714984D01*
X145176635Y-30705412D01*
X145225466Y-30700602D01*
X145250000Y-30700602D01*
X145250000Y-30700000D01*
X145750000Y-30700000D01*
X145750000Y-30700602D01*
X145774534Y-30700602D01*
X145823365Y-30705412D01*
X145871490Y-30714984D01*
X145918445Y-30729228D01*
X145963778Y-30748005D01*
X146007051Y-30771136D01*
X146047850Y-30798396D01*
X146085779Y-30829524D01*
X146120476Y-30864221D01*
X146151604Y-30902150D01*
X146178864Y-30942949D01*
X146201995Y-30986222D01*
X146220772Y-31031555D01*
X146235016Y-31078510D01*
X146244588Y-31126635D01*
X146249398Y-31175466D01*
X146249398Y-31200000D01*
X146250000Y-31200000D01*
X146250000Y-31700000D01*
X144750000Y-31700000D01*
G37*
G36*
X146249398Y-32500000D02*
G01*
X146249398Y-32524534D01*
X146244588Y-32573365D01*
X146235016Y-32621490D01*
X146220772Y-32668445D01*
X146201995Y-32713778D01*
X146178864Y-32757051D01*
X146151604Y-32797850D01*
X146120476Y-32835779D01*
X146085779Y-32870476D01*
X146047850Y-32901604D01*
X146007051Y-32928864D01*
X145963778Y-32951995D01*
X145918445Y-32970772D01*
X145871490Y-32985016D01*
X145823365Y-32994588D01*
X145774534Y-32999398D01*
X145750000Y-32999398D01*
X145750000Y-33000000D01*
X145250000Y-33000000D01*
X145250000Y-32999398D01*
X145225466Y-32999398D01*
X145176635Y-32994588D01*
X145128510Y-32985016D01*
X145081555Y-32970772D01*
X145036222Y-32951995D01*
X144992949Y-32928864D01*
X144952150Y-32901604D01*
X144914221Y-32870476D01*
X144879524Y-32835779D01*
X144848396Y-32797850D01*
X144821136Y-32757051D01*
X144798005Y-32713778D01*
X144779228Y-32668445D01*
X144764984Y-32621490D01*
X144755412Y-32573365D01*
X144750602Y-32524534D01*
X144750602Y-32500000D01*
X144750000Y-32500000D01*
X144750000Y-32000000D01*
X146250000Y-32000000D01*
X146250000Y-32500000D01*
X146249398Y-32500000D01*
G37*
G36*
G01*
X148700001Y-33350000D02*
X147799999Y-33350000D01*
G75*
G02*
X147550000Y-33100001I0J249999D01*
G01*
X147550000Y-32399999D01*
G75*
G02*
X147799999Y-32150000I249999J0D01*
G01*
X148700001Y-32150000D01*
G75*
G02*
X148950000Y-32399999I0J-249999D01*
G01*
X148950000Y-33100001D01*
G75*
G02*
X148700001Y-33350000I-249999J0D01*
G01*
G37*
G36*
G01*
X148700001Y-31350000D02*
X147799999Y-31350000D01*
G75*
G02*
X147550000Y-31100001I0J249999D01*
G01*
X147550000Y-30399999D01*
G75*
G02*
X147799999Y-30150000I249999J0D01*
G01*
X148700001Y-30150000D01*
G75*
G02*
X148950000Y-30399999I0J-249999D01*
G01*
X148950000Y-31100001D01*
G75*
G02*
X148700001Y-31350000I-249999J0D01*
G01*
G37*
D12*
X140500000Y-30250000D03*
X140500000Y-33250000D03*
M02*
