G04 #@! TF.GenerationSoftware,KiCad,Pcbnew,5.1.9+dfsg1-1*
G04 #@! TF.CreationDate,2023-02-08T10:37:42+09:00*
G04 #@! TF.ProjectId,pixel-battery-breakout,70697865-6c2d-4626-9174-746572792d62,rev?*
G04 #@! TF.SameCoordinates,Original*
G04 #@! TF.FileFunction,Soldermask,Top*
G04 #@! TF.FilePolarity,Negative*
%FSLAX46Y46*%
G04 Gerber Fmt 4.6, Leading zero omitted, Abs format (unit mm)*
G04 Created by KiCad (PCBNEW 5.1.9+dfsg1-1) date 2023-02-08 10:37:42*
%MOMM*%
%LPD*%
G01*
G04 APERTURE LIST*
%ADD10R,4.000000X2.000000*%
%ADD11O,2.000000X1.700000*%
%ADD12O,1.950000X1.700000*%
%ADD13C,0.100000*%
G04 APERTURE END LIST*
D10*
X173500000Y-21250000D03*
X147500000Y-21250000D03*
X140500000Y-21250000D03*
G36*
G01*
X149000000Y-58350000D02*
X147500000Y-58350000D01*
G75*
G02*
X147250000Y-58100000I0J250000D01*
G01*
X147250000Y-56900000D01*
G75*
G02*
X147500000Y-56650000I250000J0D01*
G01*
X149000000Y-56650000D01*
G75*
G02*
X149250000Y-56900000I0J-250000D01*
G01*
X149250000Y-58100000D01*
G75*
G02*
X149000000Y-58350000I-250000J0D01*
G01*
G37*
D11*
X148250000Y-55000000D03*
G36*
G01*
X148975000Y-48850000D02*
X147525000Y-48850000D01*
G75*
G02*
X147275000Y-48600000I0J250000D01*
G01*
X147275000Y-47400000D01*
G75*
G02*
X147525000Y-47150000I250000J0D01*
G01*
X148975000Y-47150000D01*
G75*
G02*
X149225000Y-47400000I0J-250000D01*
G01*
X149225000Y-48600000D01*
G75*
G02*
X148975000Y-48850000I-250000J0D01*
G01*
G37*
D12*
X148250000Y-45500000D03*
X148250000Y-43000000D03*
X148250000Y-40500000D03*
D13*
G36*
X144750000Y-31700000D02*
G01*
X144750000Y-31200000D01*
X144750602Y-31200000D01*
X144750602Y-31175466D01*
X144755412Y-31126635D01*
X144764984Y-31078510D01*
X144779228Y-31031555D01*
X144798005Y-30986222D01*
X144821136Y-30942949D01*
X144848396Y-30902150D01*
X144879524Y-30864221D01*
X144914221Y-30829524D01*
X144952150Y-30798396D01*
X144992949Y-30771136D01*
X145036222Y-30748005D01*
X145081555Y-30729228D01*
X145128510Y-30714984D01*
X145176635Y-30705412D01*
X145225466Y-30700602D01*
X145250000Y-30700602D01*
X145250000Y-30700000D01*
X145750000Y-30700000D01*
X145750000Y-30700602D01*
X145774534Y-30700602D01*
X145823365Y-30705412D01*
X145871490Y-30714984D01*
X145918445Y-30729228D01*
X145963778Y-30748005D01*
X146007051Y-30771136D01*
X146047850Y-30798396D01*
X146085779Y-30829524D01*
X146120476Y-30864221D01*
X146151604Y-30902150D01*
X146178864Y-30942949D01*
X146201995Y-30986222D01*
X146220772Y-31031555D01*
X146235016Y-31078510D01*
X146244588Y-31126635D01*
X146249398Y-31175466D01*
X146249398Y-31200000D01*
X146250000Y-31200000D01*
X146250000Y-31700000D01*
X144750000Y-31700000D01*
G37*
G36*
X146249398Y-32500000D02*
G01*
X146249398Y-32524534D01*
X146244588Y-32573365D01*
X146235016Y-32621490D01*
X146220772Y-32668445D01*
X146201995Y-32713778D01*
X146178864Y-32757051D01*
X146151604Y-32797850D01*
X146120476Y-32835779D01*
X146085779Y-32870476D01*
X146047850Y-32901604D01*
X146007051Y-32928864D01*
X145963778Y-32951995D01*
X145918445Y-32970772D01*
X145871490Y-32985016D01*
X145823365Y-32994588D01*
X145774534Y-32999398D01*
X145750000Y-32999398D01*
X145750000Y-33000000D01*
X145250000Y-33000000D01*
X145250000Y-32999398D01*
X145225466Y-32999398D01*
X145176635Y-32994588D01*
X145128510Y-32985016D01*
X145081555Y-32970772D01*
X145036222Y-32951995D01*
X144992949Y-32928864D01*
X144952150Y-32901604D01*
X144914221Y-32870476D01*
X144879524Y-32835779D01*
X144848396Y-32797850D01*
X144821136Y-32757051D01*
X144798005Y-32713778D01*
X144779228Y-32668445D01*
X144764984Y-32621490D01*
X144755412Y-32573365D01*
X144750602Y-32524534D01*
X144750602Y-32500000D01*
X144750000Y-32500000D01*
X144750000Y-32000000D01*
X146250000Y-32000000D01*
X146250000Y-32500000D01*
X146249398Y-32500000D01*
G37*
G36*
G01*
X148700001Y-33350000D02*
X147799999Y-33350000D01*
G75*
G02*
X147550000Y-33100001I0J249999D01*
G01*
X147550000Y-32399999D01*
G75*
G02*
X147799999Y-32150000I249999J0D01*
G01*
X148700001Y-32150000D01*
G75*
G02*
X148950000Y-32399999I0J-249999D01*
G01*
X148950000Y-33100001D01*
G75*
G02*
X148700001Y-33350000I-249999J0D01*
G01*
G37*
G36*
G01*
X148700001Y-31350000D02*
X147799999Y-31350000D01*
G75*
G02*
X147550000Y-31100001I0J249999D01*
G01*
X147550000Y-30399999D01*
G75*
G02*
X147799999Y-30150000I249999J0D01*
G01*
X148700001Y-30150000D01*
G75*
G02*
X148950000Y-30399999I0J-249999D01*
G01*
X148950000Y-31100001D01*
G75*
G02*
X148700001Y-31350000I-249999J0D01*
G01*
G37*
D10*
X140500000Y-30250000D03*
X140500000Y-33250000D03*
M02*
