G04 #@! TF.GenerationSoftware,KiCad,Pcbnew,5.1.9+dfsg1-1+deb11u1*
G04 #@! TF.CreationDate,2023-02-14T20:28:48+09:00*
G04 #@! TF.ProjectId,zenfone-max-m2-battery-breakout,7a656e66-6f6e-4652-9d6d-61782d6d322d,rev?*
G04 #@! TF.SameCoordinates,Original*
G04 #@! TF.FileFunction,Legend,Bot*
G04 #@! TF.FilePolarity,Positive*
%FSLAX46Y46*%
G04 Gerber Fmt 4.6, Leading zero omitted, Abs format (unit mm)*
G04 Created by KiCad (PCBNEW 5.1.9+dfsg1-1+deb11u1) date 2023-02-14 20:28:48*
%MOMM*%
%LPD*%
G01*
G04 APERTURE LIST*
%ADD10C,0.010000*%
G04 APERTURE END LIST*
D10*
G36*
X196590533Y-129587934D02*
G01*
X196920733Y-129587934D01*
X196920733Y-129257734D01*
X196590533Y-129257734D01*
X196590533Y-129587934D01*
G37*
X196590533Y-129587934D02*
X196920733Y-129587934D01*
X196920733Y-129257734D01*
X196590533Y-129257734D01*
X196590533Y-129587934D01*
G36*
X196954600Y-129587934D02*
G01*
X197284800Y-129587934D01*
X197284800Y-129257734D01*
X196954600Y-129257734D01*
X196954600Y-129587934D01*
G37*
X196954600Y-129587934D02*
X197284800Y-129587934D01*
X197284800Y-129257734D01*
X196954600Y-129257734D01*
X196954600Y-129587934D01*
G36*
X197318666Y-129587934D02*
G01*
X197648866Y-129587934D01*
X197648866Y-129257734D01*
X197318666Y-129257734D01*
X197318666Y-129587934D01*
G37*
X197318666Y-129587934D02*
X197648866Y-129587934D01*
X197648866Y-129257734D01*
X197318666Y-129257734D01*
X197318666Y-129587934D01*
G36*
X200231200Y-129587934D02*
G01*
X200561400Y-129587934D01*
X200561400Y-129257734D01*
X200231200Y-129257734D01*
X200231200Y-129587934D01*
G37*
X200231200Y-129587934D02*
X200561400Y-129587934D01*
X200561400Y-129257734D01*
X200231200Y-129257734D01*
X200231200Y-129587934D01*
G36*
X196590533Y-129952000D02*
G01*
X196920733Y-129952000D01*
X196920733Y-129621800D01*
X196590533Y-129621800D01*
X196590533Y-129952000D01*
G37*
X196590533Y-129952000D02*
X196920733Y-129952000D01*
X196920733Y-129621800D01*
X196590533Y-129621800D01*
X196590533Y-129952000D01*
G36*
X197318666Y-129952000D02*
G01*
X197648866Y-129952000D01*
X197648866Y-129621800D01*
X197318666Y-129621800D01*
X197318666Y-129952000D01*
G37*
X197318666Y-129952000D02*
X197648866Y-129952000D01*
X197648866Y-129621800D01*
X197318666Y-129621800D01*
X197318666Y-129952000D01*
G36*
X199867133Y-129952000D02*
G01*
X200197333Y-129952000D01*
X200197333Y-129621800D01*
X199867133Y-129621800D01*
X199867133Y-129952000D01*
G37*
X199867133Y-129952000D02*
X200197333Y-129952000D01*
X200197333Y-129621800D01*
X199867133Y-129621800D01*
X199867133Y-129952000D01*
G36*
X200595266Y-129952000D02*
G01*
X200925466Y-129952000D01*
X200925466Y-129621800D01*
X200595266Y-129621800D01*
X200595266Y-129952000D01*
G37*
X200595266Y-129952000D02*
X200925466Y-129952000D01*
X200925466Y-129621800D01*
X200595266Y-129621800D01*
X200595266Y-129952000D01*
G36*
X195862400Y-130316067D02*
G01*
X196192600Y-130316067D01*
X196192600Y-129985867D01*
X195862400Y-129985867D01*
X195862400Y-130316067D01*
G37*
X195862400Y-130316067D02*
X196192600Y-130316067D01*
X196192600Y-129985867D01*
X195862400Y-129985867D01*
X195862400Y-130316067D01*
G36*
X196226466Y-130316067D02*
G01*
X196556666Y-130316067D01*
X196556666Y-129985867D01*
X196226466Y-129985867D01*
X196226466Y-130316067D01*
G37*
X196226466Y-130316067D02*
X196556666Y-130316067D01*
X196556666Y-129985867D01*
X196226466Y-129985867D01*
X196226466Y-130316067D01*
G36*
X196590533Y-130316067D02*
G01*
X196920733Y-130316067D01*
X196920733Y-129985867D01*
X196590533Y-129985867D01*
X196590533Y-130316067D01*
G37*
X196590533Y-130316067D02*
X196920733Y-130316067D01*
X196920733Y-129985867D01*
X196590533Y-129985867D01*
X196590533Y-130316067D01*
G36*
X197318666Y-130316067D02*
G01*
X197648866Y-130316067D01*
X197648866Y-129985867D01*
X197318666Y-129985867D01*
X197318666Y-130316067D01*
G37*
X197318666Y-130316067D02*
X197648866Y-130316067D01*
X197648866Y-129985867D01*
X197318666Y-129985867D01*
X197318666Y-130316067D01*
G36*
X197682733Y-130316067D02*
G01*
X198012933Y-130316067D01*
X198012933Y-129985867D01*
X197682733Y-129985867D01*
X197682733Y-130316067D01*
G37*
X197682733Y-130316067D02*
X198012933Y-130316067D01*
X198012933Y-129985867D01*
X197682733Y-129985867D01*
X197682733Y-130316067D01*
G36*
X198046800Y-130316067D02*
G01*
X198377000Y-130316067D01*
X198377000Y-129985867D01*
X198046800Y-129985867D01*
X198046800Y-130316067D01*
G37*
X198046800Y-130316067D02*
X198377000Y-130316067D01*
X198377000Y-129985867D01*
X198046800Y-129985867D01*
X198046800Y-130316067D01*
G36*
X199503067Y-130316067D02*
G01*
X199833267Y-130316067D01*
X199833267Y-129985867D01*
X199503067Y-129985867D01*
X199503067Y-130316067D01*
G37*
X199503067Y-130316067D02*
X199833267Y-130316067D01*
X199833267Y-129985867D01*
X199503067Y-129985867D01*
X199503067Y-130316067D01*
G36*
X201687466Y-130316067D02*
G01*
X202017666Y-130316067D01*
X202017666Y-129985867D01*
X201687466Y-129985867D01*
X201687466Y-130316067D01*
G37*
X201687466Y-130316067D02*
X202017666Y-130316067D01*
X202017666Y-129985867D01*
X201687466Y-129985867D01*
X201687466Y-130316067D01*
G36*
X202415600Y-130316067D02*
G01*
X202745800Y-130316067D01*
X202745800Y-129985867D01*
X202415600Y-129985867D01*
X202415600Y-130316067D01*
G37*
X202415600Y-130316067D02*
X202745800Y-130316067D01*
X202745800Y-129985867D01*
X202415600Y-129985867D01*
X202415600Y-130316067D01*
G36*
X198046800Y-130680133D02*
G01*
X198377000Y-130680133D01*
X198377000Y-130349934D01*
X198046800Y-130349934D01*
X198046800Y-130680133D01*
G37*
X198046800Y-130680133D02*
X198377000Y-130680133D01*
X198377000Y-130349934D01*
X198046800Y-130349934D01*
X198046800Y-130680133D01*
G36*
X199139000Y-130680133D02*
G01*
X199469200Y-130680133D01*
X199469200Y-130349934D01*
X199139000Y-130349934D01*
X199139000Y-130680133D01*
G37*
X199139000Y-130680133D02*
X199469200Y-130680133D01*
X199469200Y-130349934D01*
X199139000Y-130349934D01*
X199139000Y-130680133D01*
G36*
X200595266Y-130680133D02*
G01*
X200925466Y-130680133D01*
X200925466Y-130349934D01*
X200595266Y-130349934D01*
X200595266Y-130680133D01*
G37*
X200595266Y-130680133D02*
X200925466Y-130680133D01*
X200925466Y-130349934D01*
X200595266Y-130349934D01*
X200595266Y-130680133D01*
G36*
X201323400Y-130680133D02*
G01*
X201653600Y-130680133D01*
X201653600Y-130349934D01*
X201323400Y-130349934D01*
X201323400Y-130680133D01*
G37*
X201323400Y-130680133D02*
X201653600Y-130680133D01*
X201653600Y-130349934D01*
X201323400Y-130349934D01*
X201323400Y-130680133D01*
G36*
X202779667Y-130680133D02*
G01*
X203109867Y-130680133D01*
X203109867Y-130349934D01*
X202779667Y-130349934D01*
X202779667Y-130680133D01*
G37*
X202779667Y-130680133D02*
X203109867Y-130680133D01*
X203109867Y-130349934D01*
X202779667Y-130349934D01*
X202779667Y-130680133D01*
G36*
X195862400Y-130688600D02*
G01*
X196192600Y-130688600D01*
X196192600Y-130358400D01*
X195862400Y-130358400D01*
X195862400Y-130688600D01*
G37*
X195862400Y-130688600D02*
X196192600Y-130688600D01*
X196192600Y-130358400D01*
X195862400Y-130358400D01*
X195862400Y-130688600D01*
G36*
X195862400Y-131044200D02*
G01*
X196192600Y-131044200D01*
X196192600Y-130714000D01*
X195862400Y-130714000D01*
X195862400Y-131044200D01*
G37*
X195862400Y-131044200D02*
X196192600Y-131044200D01*
X196192600Y-130714000D01*
X195862400Y-130714000D01*
X195862400Y-131044200D01*
G36*
X196226466Y-131044200D02*
G01*
X196556666Y-131044200D01*
X196556666Y-130714000D01*
X196226466Y-130714000D01*
X196226466Y-131044200D01*
G37*
X196226466Y-131044200D02*
X196556666Y-131044200D01*
X196556666Y-130714000D01*
X196226466Y-130714000D01*
X196226466Y-131044200D01*
G36*
X196590533Y-131044200D02*
G01*
X196920733Y-131044200D01*
X196920733Y-130714000D01*
X196590533Y-130714000D01*
X196590533Y-131044200D01*
G37*
X196590533Y-131044200D02*
X196920733Y-131044200D01*
X196920733Y-130714000D01*
X196590533Y-130714000D01*
X196590533Y-131044200D01*
G36*
X197318666Y-131044200D02*
G01*
X197648866Y-131044200D01*
X197648866Y-130714000D01*
X197318666Y-130714000D01*
X197318666Y-131044200D01*
G37*
X197318666Y-131044200D02*
X197648866Y-131044200D01*
X197648866Y-130714000D01*
X197318666Y-130714000D01*
X197318666Y-131044200D01*
G36*
X197682733Y-131044200D02*
G01*
X198012933Y-131044200D01*
X198012933Y-130714000D01*
X197682733Y-130714000D01*
X197682733Y-131044200D01*
G37*
X197682733Y-131044200D02*
X198012933Y-131044200D01*
X198012933Y-130714000D01*
X197682733Y-130714000D01*
X197682733Y-131044200D01*
G36*
X198046800Y-131044200D02*
G01*
X198377000Y-131044200D01*
X198377000Y-130714000D01*
X198046800Y-130714000D01*
X198046800Y-131044200D01*
G37*
X198046800Y-131044200D02*
X198377000Y-131044200D01*
X198377000Y-130714000D01*
X198046800Y-130714000D01*
X198046800Y-131044200D01*
G36*
X198774933Y-131044200D02*
G01*
X199105133Y-131044200D01*
X199105133Y-130714000D01*
X198774933Y-130714000D01*
X198774933Y-131044200D01*
G37*
X198774933Y-131044200D02*
X199105133Y-131044200D01*
X199105133Y-130714000D01*
X198774933Y-130714000D01*
X198774933Y-131044200D01*
G36*
X200959333Y-131044200D02*
G01*
X201289533Y-131044200D01*
X201289533Y-130714000D01*
X200959333Y-130714000D01*
X200959333Y-131044200D01*
G37*
X200959333Y-131044200D02*
X201289533Y-131044200D01*
X201289533Y-130714000D01*
X200959333Y-130714000D01*
X200959333Y-131044200D01*
G36*
X203143733Y-131044200D02*
G01*
X203473933Y-131044200D01*
X203473933Y-130714000D01*
X203143733Y-130714000D01*
X203143733Y-131044200D01*
G37*
X203143733Y-131044200D02*
X203473933Y-131044200D01*
X203473933Y-130714000D01*
X203143733Y-130714000D01*
X203143733Y-131044200D01*
G36*
X196590533Y-131408267D02*
G01*
X196920733Y-131408267D01*
X196920733Y-131078067D01*
X196590533Y-131078067D01*
X196590533Y-131408267D01*
G37*
X196590533Y-131408267D02*
X196920733Y-131408267D01*
X196920733Y-131078067D01*
X196590533Y-131078067D01*
X196590533Y-131408267D01*
G36*
X197318666Y-131408267D02*
G01*
X197648866Y-131408267D01*
X197648866Y-131078067D01*
X197318666Y-131078067D01*
X197318666Y-131408267D01*
G37*
X197318666Y-131408267D02*
X197648866Y-131408267D01*
X197648866Y-131078067D01*
X197318666Y-131078067D01*
X197318666Y-131408267D01*
G36*
X198410867Y-131408267D02*
G01*
X198741067Y-131408267D01*
X198741067Y-131078067D01*
X198410867Y-131078067D01*
X198410867Y-131408267D01*
G37*
X198410867Y-131408267D02*
X198741067Y-131408267D01*
X198741067Y-131078067D01*
X198410867Y-131078067D01*
X198410867Y-131408267D01*
G36*
X203507800Y-131408267D02*
G01*
X203838000Y-131408267D01*
X203838000Y-131078067D01*
X203507800Y-131078067D01*
X203507800Y-131408267D01*
G37*
X203507800Y-131408267D02*
X203838000Y-131408267D01*
X203838000Y-131078067D01*
X203507800Y-131078067D01*
X203507800Y-131408267D01*
G36*
X196590533Y-131772334D02*
G01*
X196920733Y-131772334D01*
X196920733Y-131442134D01*
X196590533Y-131442134D01*
X196590533Y-131772334D01*
G37*
X196590533Y-131772334D02*
X196920733Y-131772334D01*
X196920733Y-131442134D01*
X196590533Y-131442134D01*
X196590533Y-131772334D01*
G36*
X196954600Y-131772334D02*
G01*
X197284800Y-131772334D01*
X197284800Y-131442134D01*
X196954600Y-131442134D01*
X196954600Y-131772334D01*
G37*
X196954600Y-131772334D02*
X197284800Y-131772334D01*
X197284800Y-131442134D01*
X196954600Y-131442134D01*
X196954600Y-131772334D01*
G36*
X197318666Y-131772334D02*
G01*
X197648866Y-131772334D01*
X197648866Y-131442134D01*
X197318666Y-131442134D01*
X197318666Y-131772334D01*
G37*
X197318666Y-131772334D02*
X197648866Y-131772334D01*
X197648866Y-131442134D01*
X197318666Y-131442134D01*
X197318666Y-131772334D01*
G36*
X198774933Y-131772334D02*
G01*
X199105133Y-131772334D01*
X199105133Y-131442134D01*
X198774933Y-131442134D01*
X198774933Y-131772334D01*
G37*
X198774933Y-131772334D02*
X199105133Y-131772334D01*
X199105133Y-131442134D01*
X198774933Y-131442134D01*
X198774933Y-131772334D01*
G36*
X199503067Y-131772334D02*
G01*
X199833267Y-131772334D01*
X199833267Y-131442134D01*
X199503067Y-131442134D01*
X199503067Y-131772334D01*
G37*
X199503067Y-131772334D02*
X199833267Y-131772334D01*
X199833267Y-131442134D01*
X199503067Y-131442134D01*
X199503067Y-131772334D01*
G36*
X203871866Y-131772334D02*
G01*
X204202066Y-131772334D01*
X204202066Y-131442134D01*
X203871866Y-131442134D01*
X203871866Y-131772334D01*
G37*
X203871866Y-131772334D02*
X204202066Y-131772334D01*
X204202066Y-131442134D01*
X203871866Y-131442134D01*
X203871866Y-131772334D01*
G36*
X199867133Y-132136400D02*
G01*
X200197333Y-132136400D01*
X200197333Y-131806200D01*
X199867133Y-131806200D01*
X199867133Y-132136400D01*
G37*
X199867133Y-132136400D02*
X200197333Y-132136400D01*
X200197333Y-131806200D01*
X199867133Y-131806200D01*
X199867133Y-132136400D01*
G36*
X204235933Y-132136400D02*
G01*
X204566133Y-132136400D01*
X204566133Y-131806200D01*
X204235933Y-131806200D01*
X204235933Y-132136400D01*
G37*
X204235933Y-132136400D02*
X204566133Y-132136400D01*
X204566133Y-131806200D01*
X204235933Y-131806200D01*
X204235933Y-132136400D01*
G36*
X194406133Y-132500467D02*
G01*
X194736333Y-132500467D01*
X194736333Y-132170267D01*
X194406133Y-132170267D01*
X194406133Y-132500467D01*
G37*
X194406133Y-132500467D02*
X194736333Y-132500467D01*
X194736333Y-132170267D01*
X194406133Y-132170267D01*
X194406133Y-132500467D01*
G36*
X196954600Y-132500467D02*
G01*
X197284800Y-132500467D01*
X197284800Y-132170267D01*
X196954600Y-132170267D01*
X196954600Y-132500467D01*
G37*
X196954600Y-132500467D02*
X197284800Y-132500467D01*
X197284800Y-132170267D01*
X196954600Y-132170267D01*
X196954600Y-132500467D01*
G36*
X197318666Y-132500467D02*
G01*
X197648866Y-132500467D01*
X197648866Y-132170267D01*
X197318666Y-132170267D01*
X197318666Y-132500467D01*
G37*
X197318666Y-132500467D02*
X197648866Y-132500467D01*
X197648866Y-132170267D01*
X197318666Y-132170267D01*
X197318666Y-132500467D01*
G36*
X197682733Y-132500467D02*
G01*
X198012933Y-132500467D01*
X198012933Y-132170267D01*
X197682733Y-132170267D01*
X197682733Y-132500467D01*
G37*
X197682733Y-132500467D02*
X198012933Y-132500467D01*
X198012933Y-132170267D01*
X197682733Y-132170267D01*
X197682733Y-132500467D01*
G36*
X198046800Y-132500467D02*
G01*
X198377000Y-132500467D01*
X198377000Y-132170267D01*
X198046800Y-132170267D01*
X198046800Y-132500467D01*
G37*
X198046800Y-132500467D02*
X198377000Y-132500467D01*
X198377000Y-132170267D01*
X198046800Y-132170267D01*
X198046800Y-132500467D01*
G36*
X198410867Y-132500467D02*
G01*
X198741067Y-132500467D01*
X198741067Y-132170267D01*
X198410867Y-132170267D01*
X198410867Y-132500467D01*
G37*
X198410867Y-132500467D02*
X198741067Y-132500467D01*
X198741067Y-132170267D01*
X198410867Y-132170267D01*
X198410867Y-132500467D01*
G36*
X199503067Y-132500467D02*
G01*
X199833267Y-132500467D01*
X199833267Y-132170267D01*
X199503067Y-132170267D01*
X199503067Y-132500467D01*
G37*
X199503067Y-132500467D02*
X199833267Y-132500467D01*
X199833267Y-132170267D01*
X199503067Y-132170267D01*
X199503067Y-132500467D01*
G36*
X204600000Y-132500467D02*
G01*
X204930200Y-132500467D01*
X204930200Y-132170267D01*
X204600000Y-132170267D01*
X204600000Y-132500467D01*
G37*
X204600000Y-132500467D02*
X204930200Y-132500467D01*
X204930200Y-132170267D01*
X204600000Y-132170267D01*
X204600000Y-132500467D01*
G36*
X190765467Y-132864533D02*
G01*
X191095667Y-132864533D01*
X191095667Y-132534333D01*
X190765467Y-132534333D01*
X190765467Y-132864533D01*
G37*
X190765467Y-132864533D02*
X191095667Y-132864533D01*
X191095667Y-132534333D01*
X190765467Y-132534333D01*
X190765467Y-132864533D01*
G36*
X191129533Y-132864533D02*
G01*
X191459733Y-132864533D01*
X191459733Y-132534333D01*
X191129533Y-132534333D01*
X191129533Y-132864533D01*
G37*
X191129533Y-132864533D02*
X191459733Y-132864533D01*
X191459733Y-132534333D01*
X191129533Y-132534333D01*
X191129533Y-132864533D01*
G36*
X191493600Y-132864533D02*
G01*
X191823800Y-132864533D01*
X191823800Y-132534333D01*
X191493600Y-132534333D01*
X191493600Y-132864533D01*
G37*
X191493600Y-132864533D02*
X191823800Y-132864533D01*
X191823800Y-132534333D01*
X191493600Y-132534333D01*
X191493600Y-132864533D01*
G36*
X192585800Y-132864533D02*
G01*
X192916000Y-132864533D01*
X192916000Y-132534333D01*
X192585800Y-132534333D01*
X192585800Y-132864533D01*
G37*
X192585800Y-132864533D02*
X192916000Y-132864533D01*
X192916000Y-132534333D01*
X192585800Y-132534333D01*
X192585800Y-132864533D01*
G36*
X192949867Y-132864533D02*
G01*
X193280067Y-132864533D01*
X193280067Y-132534333D01*
X192949867Y-132534333D01*
X192949867Y-132864533D01*
G37*
X192949867Y-132864533D02*
X193280067Y-132864533D01*
X193280067Y-132534333D01*
X192949867Y-132534333D01*
X192949867Y-132864533D01*
G36*
X193313933Y-132864533D02*
G01*
X193644133Y-132864533D01*
X193644133Y-132534333D01*
X193313933Y-132534333D01*
X193313933Y-132864533D01*
G37*
X193313933Y-132864533D02*
X193644133Y-132864533D01*
X193644133Y-132534333D01*
X193313933Y-132534333D01*
X193313933Y-132864533D01*
G36*
X195134266Y-132864533D02*
G01*
X195464466Y-132864533D01*
X195464466Y-132534333D01*
X195134266Y-132534333D01*
X195134266Y-132864533D01*
G37*
X195134266Y-132864533D02*
X195464466Y-132864533D01*
X195464466Y-132534333D01*
X195134266Y-132534333D01*
X195134266Y-132864533D01*
G36*
X196226466Y-132864533D02*
G01*
X196556666Y-132864533D01*
X196556666Y-132534333D01*
X196226466Y-132534333D01*
X196226466Y-132864533D01*
G37*
X196226466Y-132864533D02*
X196556666Y-132864533D01*
X196556666Y-132534333D01*
X196226466Y-132534333D01*
X196226466Y-132864533D01*
G36*
X197682733Y-132864533D02*
G01*
X198012933Y-132864533D01*
X198012933Y-132534333D01*
X197682733Y-132534333D01*
X197682733Y-132864533D01*
G37*
X197682733Y-132864533D02*
X198012933Y-132864533D01*
X198012933Y-132534333D01*
X197682733Y-132534333D01*
X197682733Y-132864533D01*
G36*
X199139000Y-132864533D02*
G01*
X199469200Y-132864533D01*
X199469200Y-132534333D01*
X199139000Y-132534333D01*
X199139000Y-132864533D01*
G37*
X199139000Y-132864533D02*
X199469200Y-132864533D01*
X199469200Y-132534333D01*
X199139000Y-132534333D01*
X199139000Y-132864533D01*
G36*
X203871866Y-132864533D02*
G01*
X204202066Y-132864533D01*
X204202066Y-132534333D01*
X203871866Y-132534333D01*
X203871866Y-132864533D01*
G37*
X203871866Y-132864533D02*
X204202066Y-132864533D01*
X204202066Y-132534333D01*
X203871866Y-132534333D01*
X203871866Y-132864533D01*
G36*
X204964067Y-132864533D02*
G01*
X205294266Y-132864533D01*
X205294266Y-132534333D01*
X204964067Y-132534333D01*
X204964067Y-132864533D01*
G37*
X204964067Y-132864533D02*
X205294266Y-132864533D01*
X205294266Y-132534333D01*
X204964067Y-132534333D01*
X204964067Y-132864533D01*
G36*
X190401400Y-133228600D02*
G01*
X190731600Y-133228600D01*
X190731600Y-132898400D01*
X190401400Y-132898400D01*
X190401400Y-133228600D01*
G37*
X190401400Y-133228600D02*
X190731600Y-133228600D01*
X190731600Y-132898400D01*
X190401400Y-132898400D01*
X190401400Y-133228600D01*
G36*
X191857667Y-133228600D02*
G01*
X192187867Y-133228600D01*
X192187867Y-132898400D01*
X191857667Y-132898400D01*
X191857667Y-133228600D01*
G37*
X191857667Y-133228600D02*
X192187867Y-133228600D01*
X192187867Y-132898400D01*
X191857667Y-132898400D01*
X191857667Y-133228600D01*
G36*
X193678000Y-133228600D02*
G01*
X194008200Y-133228600D01*
X194008200Y-132898400D01*
X193678000Y-132898400D01*
X193678000Y-133228600D01*
G37*
X193678000Y-133228600D02*
X194008200Y-133228600D01*
X194008200Y-132898400D01*
X193678000Y-132898400D01*
X193678000Y-133228600D01*
G36*
X194406133Y-133228600D02*
G01*
X194736333Y-133228600D01*
X194736333Y-132898400D01*
X194406133Y-132898400D01*
X194406133Y-133228600D01*
G37*
X194406133Y-133228600D02*
X194736333Y-133228600D01*
X194736333Y-132898400D01*
X194406133Y-132898400D01*
X194406133Y-133228600D01*
G36*
X195134266Y-133228600D02*
G01*
X195464466Y-133228600D01*
X195464466Y-132898400D01*
X195134266Y-132898400D01*
X195134266Y-133228600D01*
G37*
X195134266Y-133228600D02*
X195464466Y-133228600D01*
X195464466Y-132898400D01*
X195134266Y-132898400D01*
X195134266Y-133228600D01*
G36*
X196226466Y-133228600D02*
G01*
X196556666Y-133228600D01*
X196556666Y-132898400D01*
X196226466Y-132898400D01*
X196226466Y-133228600D01*
G37*
X196226466Y-133228600D02*
X196556666Y-133228600D01*
X196556666Y-132898400D01*
X196226466Y-132898400D01*
X196226466Y-133228600D01*
G36*
X197682733Y-133228600D02*
G01*
X198012933Y-133228600D01*
X198012933Y-132898400D01*
X197682733Y-132898400D01*
X197682733Y-133228600D01*
G37*
X197682733Y-133228600D02*
X198012933Y-133228600D01*
X198012933Y-132898400D01*
X197682733Y-132898400D01*
X197682733Y-133228600D01*
G36*
X200231200Y-133228600D02*
G01*
X200561400Y-133228600D01*
X200561400Y-132898400D01*
X200231200Y-132898400D01*
X200231200Y-133228600D01*
G37*
X200231200Y-133228600D02*
X200561400Y-133228600D01*
X200561400Y-132898400D01*
X200231200Y-132898400D01*
X200231200Y-133228600D01*
G36*
X200595266Y-133228600D02*
G01*
X200925466Y-133228600D01*
X200925466Y-132898400D01*
X200595266Y-132898400D01*
X200595266Y-133228600D01*
G37*
X200595266Y-133228600D02*
X200925466Y-133228600D01*
X200925466Y-132898400D01*
X200595266Y-132898400D01*
X200595266Y-133228600D01*
G36*
X200959333Y-133228600D02*
G01*
X201289533Y-133228600D01*
X201289533Y-132898400D01*
X200959333Y-132898400D01*
X200959333Y-133228600D01*
G37*
X200959333Y-133228600D02*
X201289533Y-133228600D01*
X201289533Y-132898400D01*
X200959333Y-132898400D01*
X200959333Y-133228600D01*
G36*
X201323400Y-133228600D02*
G01*
X201653600Y-133228600D01*
X201653600Y-132898400D01*
X201323400Y-132898400D01*
X201323400Y-133228600D01*
G37*
X201323400Y-133228600D02*
X201653600Y-133228600D01*
X201653600Y-132898400D01*
X201323400Y-132898400D01*
X201323400Y-133228600D01*
G36*
X201687466Y-133228600D02*
G01*
X202017666Y-133228600D01*
X202017666Y-132898400D01*
X201687466Y-132898400D01*
X201687466Y-133228600D01*
G37*
X201687466Y-133228600D02*
X202017666Y-133228600D01*
X202017666Y-132898400D01*
X201687466Y-132898400D01*
X201687466Y-133228600D01*
G36*
X202779667Y-133228600D02*
G01*
X203109867Y-133228600D01*
X203109867Y-132898400D01*
X202779667Y-132898400D01*
X202779667Y-133228600D01*
G37*
X202779667Y-133228600D02*
X203109867Y-133228600D01*
X203109867Y-132898400D01*
X202779667Y-132898400D01*
X202779667Y-133228600D01*
G36*
X203143733Y-133228600D02*
G01*
X203473933Y-133228600D01*
X203473933Y-132898400D01*
X203143733Y-132898400D01*
X203143733Y-133228600D01*
G37*
X203143733Y-133228600D02*
X203473933Y-133228600D01*
X203473933Y-132898400D01*
X203143733Y-132898400D01*
X203143733Y-133228600D01*
G36*
X203507800Y-133228600D02*
G01*
X203838000Y-133228600D01*
X203838000Y-132898400D01*
X203507800Y-132898400D01*
X203507800Y-133228600D01*
G37*
X203507800Y-133228600D02*
X203838000Y-133228600D01*
X203838000Y-132898400D01*
X203507800Y-132898400D01*
X203507800Y-133228600D01*
G36*
X204235933Y-133228600D02*
G01*
X204566133Y-133228600D01*
X204566133Y-132898400D01*
X204235933Y-132898400D01*
X204235933Y-133228600D01*
G37*
X204235933Y-133228600D02*
X204566133Y-133228600D01*
X204566133Y-132898400D01*
X204235933Y-132898400D01*
X204235933Y-133228600D01*
G36*
X204600000Y-133228600D02*
G01*
X204930200Y-133228600D01*
X204930200Y-132898400D01*
X204600000Y-132898400D01*
X204600000Y-133228600D01*
G37*
X204600000Y-133228600D02*
X204930200Y-133228600D01*
X204930200Y-132898400D01*
X204600000Y-132898400D01*
X204600000Y-133228600D01*
G36*
X205328133Y-133228600D02*
G01*
X205658333Y-133228600D01*
X205658333Y-132898400D01*
X205328133Y-132898400D01*
X205328133Y-133228600D01*
G37*
X205328133Y-133228600D02*
X205658333Y-133228600D01*
X205658333Y-132898400D01*
X205328133Y-132898400D01*
X205328133Y-133228600D01*
G36*
X190765467Y-133592667D02*
G01*
X191095667Y-133592667D01*
X191095667Y-133262467D01*
X190765467Y-133262467D01*
X190765467Y-133592667D01*
G37*
X190765467Y-133592667D02*
X191095667Y-133592667D01*
X191095667Y-133262467D01*
X190765467Y-133262467D01*
X190765467Y-133592667D01*
G36*
X191129533Y-133592667D02*
G01*
X191459733Y-133592667D01*
X191459733Y-133262467D01*
X191129533Y-133262467D01*
X191129533Y-133592667D01*
G37*
X191129533Y-133592667D02*
X191459733Y-133592667D01*
X191459733Y-133262467D01*
X191129533Y-133262467D01*
X191129533Y-133592667D01*
G36*
X191493600Y-133592667D02*
G01*
X191823800Y-133592667D01*
X191823800Y-133262467D01*
X191493600Y-133262467D01*
X191493600Y-133592667D01*
G37*
X191493600Y-133592667D02*
X191823800Y-133592667D01*
X191823800Y-133262467D01*
X191493600Y-133262467D01*
X191493600Y-133592667D01*
G36*
X191857667Y-133592667D02*
G01*
X192187867Y-133592667D01*
X192187867Y-133262467D01*
X191857667Y-133262467D01*
X191857667Y-133592667D01*
G37*
X191857667Y-133592667D02*
X192187867Y-133592667D01*
X192187867Y-133262467D01*
X191857667Y-133262467D01*
X191857667Y-133592667D01*
G36*
X193678000Y-133592667D02*
G01*
X194008200Y-133592667D01*
X194008200Y-133262467D01*
X193678000Y-133262467D01*
X193678000Y-133592667D01*
G37*
X193678000Y-133592667D02*
X194008200Y-133592667D01*
X194008200Y-133262467D01*
X193678000Y-133262467D01*
X193678000Y-133592667D01*
G36*
X194406133Y-133592667D02*
G01*
X194736333Y-133592667D01*
X194736333Y-133262467D01*
X194406133Y-133262467D01*
X194406133Y-133592667D01*
G37*
X194406133Y-133592667D02*
X194736333Y-133592667D01*
X194736333Y-133262467D01*
X194406133Y-133262467D01*
X194406133Y-133592667D01*
G36*
X195134266Y-133592667D02*
G01*
X195464466Y-133592667D01*
X195464466Y-133262467D01*
X195134266Y-133262467D01*
X195134266Y-133592667D01*
G37*
X195134266Y-133592667D02*
X195464466Y-133592667D01*
X195464466Y-133262467D01*
X195134266Y-133262467D01*
X195134266Y-133592667D01*
G36*
X196226466Y-133592667D02*
G01*
X196556666Y-133592667D01*
X196556666Y-133262467D01*
X196226466Y-133262467D01*
X196226466Y-133592667D01*
G37*
X196226466Y-133592667D02*
X196556666Y-133592667D01*
X196556666Y-133262467D01*
X196226466Y-133262467D01*
X196226466Y-133592667D01*
G36*
X197682733Y-133592667D02*
G01*
X198012933Y-133592667D01*
X198012933Y-133262467D01*
X197682733Y-133262467D01*
X197682733Y-133592667D01*
G37*
X197682733Y-133592667D02*
X198012933Y-133592667D01*
X198012933Y-133262467D01*
X197682733Y-133262467D01*
X197682733Y-133592667D01*
G36*
X199139000Y-133592667D02*
G01*
X199469200Y-133592667D01*
X199469200Y-133262467D01*
X199139000Y-133262467D01*
X199139000Y-133592667D01*
G37*
X199139000Y-133592667D02*
X199469200Y-133592667D01*
X199469200Y-133262467D01*
X199139000Y-133262467D01*
X199139000Y-133592667D01*
G36*
X199867133Y-133592667D02*
G01*
X200197333Y-133592667D01*
X200197333Y-133262467D01*
X199867133Y-133262467D01*
X199867133Y-133592667D01*
G37*
X199867133Y-133592667D02*
X200197333Y-133592667D01*
X200197333Y-133262467D01*
X199867133Y-133262467D01*
X199867133Y-133592667D01*
G36*
X202051533Y-133592667D02*
G01*
X202381733Y-133592667D01*
X202381733Y-133262467D01*
X202051533Y-133262467D01*
X202051533Y-133592667D01*
G37*
X202051533Y-133592667D02*
X202381733Y-133592667D01*
X202381733Y-133262467D01*
X202051533Y-133262467D01*
X202051533Y-133592667D01*
G36*
X202415600Y-133592667D02*
G01*
X202745800Y-133592667D01*
X202745800Y-133262467D01*
X202415600Y-133262467D01*
X202415600Y-133592667D01*
G37*
X202415600Y-133592667D02*
X202745800Y-133592667D01*
X202745800Y-133262467D01*
X202415600Y-133262467D01*
X202415600Y-133592667D01*
G36*
X205692200Y-133592667D02*
G01*
X206022400Y-133592667D01*
X206022400Y-133262467D01*
X205692200Y-133262467D01*
X205692200Y-133592667D01*
G37*
X205692200Y-133592667D02*
X206022400Y-133592667D01*
X206022400Y-133262467D01*
X205692200Y-133262467D01*
X205692200Y-133592667D01*
G36*
X191857667Y-133956734D02*
G01*
X192187867Y-133956734D01*
X192187867Y-133626534D01*
X191857667Y-133626534D01*
X191857667Y-133956734D01*
G37*
X191857667Y-133956734D02*
X192187867Y-133956734D01*
X192187867Y-133626534D01*
X191857667Y-133626534D01*
X191857667Y-133956734D01*
G36*
X193678000Y-133956734D02*
G01*
X194008200Y-133956734D01*
X194008200Y-133626534D01*
X193678000Y-133626534D01*
X193678000Y-133956734D01*
G37*
X193678000Y-133956734D02*
X194008200Y-133956734D01*
X194008200Y-133626534D01*
X193678000Y-133626534D01*
X193678000Y-133956734D01*
G36*
X194406133Y-133956734D02*
G01*
X194736333Y-133956734D01*
X194736333Y-133626534D01*
X194406133Y-133626534D01*
X194406133Y-133956734D01*
G37*
X194406133Y-133956734D02*
X194736333Y-133956734D01*
X194736333Y-133626534D01*
X194406133Y-133626534D01*
X194406133Y-133956734D01*
G36*
X195134266Y-133956734D02*
G01*
X195464466Y-133956734D01*
X195464466Y-133626534D01*
X195134266Y-133626534D01*
X195134266Y-133956734D01*
G37*
X195134266Y-133956734D02*
X195464466Y-133956734D01*
X195464466Y-133626534D01*
X195134266Y-133626534D01*
X195134266Y-133956734D01*
G36*
X196226466Y-133956734D02*
G01*
X196556666Y-133956734D01*
X196556666Y-133626534D01*
X196226466Y-133626534D01*
X196226466Y-133956734D01*
G37*
X196226466Y-133956734D02*
X196556666Y-133956734D01*
X196556666Y-133626534D01*
X196226466Y-133626534D01*
X196226466Y-133956734D01*
G36*
X197682733Y-133956734D02*
G01*
X198012933Y-133956734D01*
X198012933Y-133626534D01*
X197682733Y-133626534D01*
X197682733Y-133956734D01*
G37*
X197682733Y-133956734D02*
X198012933Y-133956734D01*
X198012933Y-133626534D01*
X197682733Y-133626534D01*
X197682733Y-133956734D01*
G36*
X199503067Y-133956734D02*
G01*
X199833267Y-133956734D01*
X199833267Y-133626534D01*
X199503067Y-133626534D01*
X199503067Y-133956734D01*
G37*
X199503067Y-133956734D02*
X199833267Y-133956734D01*
X199833267Y-133626534D01*
X199503067Y-133626534D01*
X199503067Y-133956734D01*
G36*
X200959333Y-133956734D02*
G01*
X201289533Y-133956734D01*
X201289533Y-133626534D01*
X200959333Y-133626534D01*
X200959333Y-133956734D01*
G37*
X200959333Y-133956734D02*
X201289533Y-133956734D01*
X201289533Y-133626534D01*
X200959333Y-133626534D01*
X200959333Y-133956734D01*
G36*
X204235933Y-133956734D02*
G01*
X204566133Y-133956734D01*
X204566133Y-133626534D01*
X204235933Y-133626534D01*
X204235933Y-133956734D01*
G37*
X204235933Y-133956734D02*
X204566133Y-133956734D01*
X204566133Y-133626534D01*
X204235933Y-133626534D01*
X204235933Y-133956734D01*
G36*
X190765467Y-134320800D02*
G01*
X191095667Y-134320800D01*
X191095667Y-133990600D01*
X190765467Y-133990600D01*
X190765467Y-134320800D01*
G37*
X190765467Y-134320800D02*
X191095667Y-134320800D01*
X191095667Y-133990600D01*
X190765467Y-133990600D01*
X190765467Y-134320800D01*
G36*
X191129533Y-134320800D02*
G01*
X191459733Y-134320800D01*
X191459733Y-133990600D01*
X191129533Y-133990600D01*
X191129533Y-134320800D01*
G37*
X191129533Y-134320800D02*
X191459733Y-134320800D01*
X191459733Y-133990600D01*
X191129533Y-133990600D01*
X191129533Y-134320800D01*
G36*
X191493600Y-134320800D02*
G01*
X191823800Y-134320800D01*
X191823800Y-133990600D01*
X191493600Y-133990600D01*
X191493600Y-134320800D01*
G37*
X191493600Y-134320800D02*
X191823800Y-134320800D01*
X191823800Y-133990600D01*
X191493600Y-133990600D01*
X191493600Y-134320800D01*
G36*
X192585800Y-134320800D02*
G01*
X192916000Y-134320800D01*
X192916000Y-133990600D01*
X192585800Y-133990600D01*
X192585800Y-134320800D01*
G37*
X192585800Y-134320800D02*
X192916000Y-134320800D01*
X192916000Y-133990600D01*
X192585800Y-133990600D01*
X192585800Y-134320800D01*
G36*
X192949867Y-134320800D02*
G01*
X193280067Y-134320800D01*
X193280067Y-133990600D01*
X192949867Y-133990600D01*
X192949867Y-134320800D01*
G37*
X192949867Y-134320800D02*
X193280067Y-134320800D01*
X193280067Y-133990600D01*
X192949867Y-133990600D01*
X192949867Y-134320800D01*
G36*
X193313933Y-134320800D02*
G01*
X193644133Y-134320800D01*
X193644133Y-133990600D01*
X193313933Y-133990600D01*
X193313933Y-134320800D01*
G37*
X193313933Y-134320800D02*
X193644133Y-134320800D01*
X193644133Y-133990600D01*
X193313933Y-133990600D01*
X193313933Y-134320800D01*
G36*
X194406133Y-134320800D02*
G01*
X194736333Y-134320800D01*
X194736333Y-133990600D01*
X194406133Y-133990600D01*
X194406133Y-134320800D01*
G37*
X194406133Y-134320800D02*
X194736333Y-134320800D01*
X194736333Y-133990600D01*
X194406133Y-133990600D01*
X194406133Y-134320800D01*
G36*
X195134266Y-134320800D02*
G01*
X195464466Y-134320800D01*
X195464466Y-133990600D01*
X195134266Y-133990600D01*
X195134266Y-134320800D01*
G37*
X195134266Y-134320800D02*
X195464466Y-134320800D01*
X195464466Y-133990600D01*
X195134266Y-133990600D01*
X195134266Y-134320800D01*
G36*
X195498333Y-134320800D02*
G01*
X195828533Y-134320800D01*
X195828533Y-133990600D01*
X195498333Y-133990600D01*
X195498333Y-134320800D01*
G37*
X195498333Y-134320800D02*
X195828533Y-134320800D01*
X195828533Y-133990600D01*
X195498333Y-133990600D01*
X195498333Y-134320800D01*
G36*
X195862400Y-134320800D02*
G01*
X196192600Y-134320800D01*
X196192600Y-133990600D01*
X195862400Y-133990600D01*
X195862400Y-134320800D01*
G37*
X195862400Y-134320800D02*
X196192600Y-134320800D01*
X196192600Y-133990600D01*
X195862400Y-133990600D01*
X195862400Y-134320800D01*
G36*
X196590533Y-134320800D02*
G01*
X196920733Y-134320800D01*
X196920733Y-133990600D01*
X196590533Y-133990600D01*
X196590533Y-134320800D01*
G37*
X196590533Y-134320800D02*
X196920733Y-134320800D01*
X196920733Y-133990600D01*
X196590533Y-133990600D01*
X196590533Y-134320800D01*
G36*
X198046800Y-134320800D02*
G01*
X198377000Y-134320800D01*
X198377000Y-133990600D01*
X198046800Y-133990600D01*
X198046800Y-134320800D01*
G37*
X198046800Y-134320800D02*
X198377000Y-134320800D01*
X198377000Y-133990600D01*
X198046800Y-133990600D01*
X198046800Y-134320800D01*
G36*
X198410867Y-134320800D02*
G01*
X198741067Y-134320800D01*
X198741067Y-133990600D01*
X198410867Y-133990600D01*
X198410867Y-134320800D01*
G37*
X198410867Y-134320800D02*
X198741067Y-134320800D01*
X198741067Y-133990600D01*
X198410867Y-133990600D01*
X198410867Y-134320800D01*
G36*
X199867133Y-134320800D02*
G01*
X200197333Y-134320800D01*
X200197333Y-133990600D01*
X199867133Y-133990600D01*
X199867133Y-134320800D01*
G37*
X199867133Y-134320800D02*
X200197333Y-134320800D01*
X200197333Y-133990600D01*
X199867133Y-133990600D01*
X199867133Y-134320800D01*
G36*
X202779667Y-134320800D02*
G01*
X203109867Y-134320800D01*
X203109867Y-133990600D01*
X202779667Y-133990600D01*
X202779667Y-134320800D01*
G37*
X202779667Y-134320800D02*
X203109867Y-134320800D01*
X203109867Y-133990600D01*
X202779667Y-133990600D01*
X202779667Y-134320800D01*
G36*
X204600000Y-134320800D02*
G01*
X204930200Y-134320800D01*
X204930200Y-133990600D01*
X204600000Y-133990600D01*
X204600000Y-134320800D01*
G37*
X204600000Y-134320800D02*
X204930200Y-134320800D01*
X204930200Y-133990600D01*
X204600000Y-133990600D01*
X204600000Y-134320800D01*
G36*
X205692200Y-134320800D02*
G01*
X206022400Y-134320800D01*
X206022400Y-133990600D01*
X205692200Y-133990600D01*
X205692200Y-134320800D01*
G37*
X205692200Y-134320800D02*
X206022400Y-134320800D01*
X206022400Y-133990600D01*
X205692200Y-133990600D01*
X205692200Y-134320800D01*
G36*
X200231200Y-134684867D02*
G01*
X200561400Y-134684867D01*
X200561400Y-134354667D01*
X200231200Y-134354667D01*
X200231200Y-134684867D01*
G37*
X200231200Y-134684867D02*
X200561400Y-134684867D01*
X200561400Y-134354667D01*
X200231200Y-134354667D01*
X200231200Y-134684867D01*
G36*
X202415600Y-134684867D02*
G01*
X202745800Y-134684867D01*
X202745800Y-134354667D01*
X202415600Y-134354667D01*
X202415600Y-134684867D01*
G37*
X202415600Y-134684867D02*
X202745800Y-134684867D01*
X202745800Y-134354667D01*
X202415600Y-134354667D01*
X202415600Y-134684867D01*
G36*
X203143733Y-134684867D02*
G01*
X203473933Y-134684867D01*
X203473933Y-134354667D01*
X203143733Y-134354667D01*
X203143733Y-134684867D01*
G37*
X203143733Y-134684867D02*
X203473933Y-134684867D01*
X203473933Y-134354667D01*
X203143733Y-134354667D01*
X203143733Y-134684867D01*
G36*
X205328133Y-134684867D02*
G01*
X205658333Y-134684867D01*
X205658333Y-134354667D01*
X205328133Y-134354667D01*
X205328133Y-134684867D01*
G37*
X205328133Y-134684867D02*
X205658333Y-134684867D01*
X205658333Y-134354667D01*
X205328133Y-134354667D01*
X205328133Y-134684867D01*
G36*
X197682733Y-135048934D02*
G01*
X198012933Y-135048934D01*
X198012933Y-134718734D01*
X197682733Y-134718734D01*
X197682733Y-135048934D01*
G37*
X197682733Y-135048934D02*
X198012933Y-135048934D01*
X198012933Y-134718734D01*
X197682733Y-134718734D01*
X197682733Y-135048934D01*
G36*
X198774933Y-135048934D02*
G01*
X199105133Y-135048934D01*
X199105133Y-134718734D01*
X198774933Y-134718734D01*
X198774933Y-135048934D01*
G37*
X198774933Y-135048934D02*
X199105133Y-135048934D01*
X199105133Y-134718734D01*
X198774933Y-134718734D01*
X198774933Y-135048934D01*
G36*
X199139000Y-135048934D02*
G01*
X199469200Y-135048934D01*
X199469200Y-134718734D01*
X199139000Y-134718734D01*
X199139000Y-135048934D01*
G37*
X199139000Y-135048934D02*
X199469200Y-135048934D01*
X199469200Y-134718734D01*
X199139000Y-134718734D01*
X199139000Y-135048934D01*
G36*
X199503067Y-135048934D02*
G01*
X199833267Y-135048934D01*
X199833267Y-134718734D01*
X199503067Y-134718734D01*
X199503067Y-135048934D01*
G37*
X199503067Y-135048934D02*
X199833267Y-135048934D01*
X199833267Y-134718734D01*
X199503067Y-134718734D01*
X199503067Y-135048934D01*
G36*
X200595266Y-135048934D02*
G01*
X200925466Y-135048934D01*
X200925466Y-134718734D01*
X200595266Y-134718734D01*
X200595266Y-135048934D01*
G37*
X200595266Y-135048934D02*
X200925466Y-135048934D01*
X200925466Y-134718734D01*
X200595266Y-134718734D01*
X200595266Y-135048934D01*
G36*
X202779667Y-135048934D02*
G01*
X203109867Y-135048934D01*
X203109867Y-134718734D01*
X202779667Y-134718734D01*
X202779667Y-135048934D01*
G37*
X202779667Y-135048934D02*
X203109867Y-135048934D01*
X203109867Y-134718734D01*
X202779667Y-134718734D01*
X202779667Y-135048934D01*
G36*
X204964067Y-135048934D02*
G01*
X205294266Y-135048934D01*
X205294266Y-134718734D01*
X204964067Y-134718734D01*
X204964067Y-135048934D01*
G37*
X204964067Y-135048934D02*
X205294266Y-135048934D01*
X205294266Y-134718734D01*
X204964067Y-134718734D01*
X204964067Y-135048934D01*
G36*
X193678000Y-135413000D02*
G01*
X194008200Y-135413000D01*
X194008200Y-135082800D01*
X193678000Y-135082800D01*
X193678000Y-135413000D01*
G37*
X193678000Y-135413000D02*
X194008200Y-135413000D01*
X194008200Y-135082800D01*
X193678000Y-135082800D01*
X193678000Y-135413000D01*
G36*
X194042066Y-135413000D02*
G01*
X194372266Y-135413000D01*
X194372266Y-135082800D01*
X194042066Y-135082800D01*
X194042066Y-135413000D01*
G37*
X194042066Y-135413000D02*
X194372266Y-135413000D01*
X194372266Y-135082800D01*
X194042066Y-135082800D01*
X194042066Y-135413000D01*
G36*
X194406133Y-135413000D02*
G01*
X194736333Y-135413000D01*
X194736333Y-135082800D01*
X194406133Y-135082800D01*
X194406133Y-135413000D01*
G37*
X194406133Y-135413000D02*
X194736333Y-135413000D01*
X194736333Y-135082800D01*
X194406133Y-135082800D01*
X194406133Y-135413000D01*
G36*
X195498333Y-135413000D02*
G01*
X195828533Y-135413000D01*
X195828533Y-135082800D01*
X195498333Y-135082800D01*
X195498333Y-135413000D01*
G37*
X195498333Y-135413000D02*
X195828533Y-135413000D01*
X195828533Y-135082800D01*
X195498333Y-135082800D01*
X195498333Y-135413000D01*
G36*
X196590533Y-135413000D02*
G01*
X196920733Y-135413000D01*
X196920733Y-135082800D01*
X196590533Y-135082800D01*
X196590533Y-135413000D01*
G37*
X196590533Y-135413000D02*
X196920733Y-135413000D01*
X196920733Y-135082800D01*
X196590533Y-135082800D01*
X196590533Y-135413000D01*
G36*
X197682733Y-135413000D02*
G01*
X198012933Y-135413000D01*
X198012933Y-135082800D01*
X197682733Y-135082800D01*
X197682733Y-135413000D01*
G37*
X197682733Y-135413000D02*
X198012933Y-135413000D01*
X198012933Y-135082800D01*
X197682733Y-135082800D01*
X197682733Y-135413000D01*
G36*
X198410867Y-135413000D02*
G01*
X198741067Y-135413000D01*
X198741067Y-135082800D01*
X198410867Y-135082800D01*
X198410867Y-135413000D01*
G37*
X198410867Y-135413000D02*
X198741067Y-135413000D01*
X198741067Y-135082800D01*
X198410867Y-135082800D01*
X198410867Y-135413000D01*
G36*
X199503067Y-135413000D02*
G01*
X199833267Y-135413000D01*
X199833267Y-135082800D01*
X199503067Y-135082800D01*
X199503067Y-135413000D01*
G37*
X199503067Y-135413000D02*
X199833267Y-135413000D01*
X199833267Y-135082800D01*
X199503067Y-135082800D01*
X199503067Y-135413000D01*
G36*
X200959333Y-135413000D02*
G01*
X201289533Y-135413000D01*
X201289533Y-135082800D01*
X200959333Y-135082800D01*
X200959333Y-135413000D01*
G37*
X200959333Y-135413000D02*
X201289533Y-135413000D01*
X201289533Y-135082800D01*
X200959333Y-135082800D01*
X200959333Y-135413000D01*
G36*
X204600000Y-135413000D02*
G01*
X204930200Y-135413000D01*
X204930200Y-135082800D01*
X204600000Y-135082800D01*
X204600000Y-135413000D01*
G37*
X204600000Y-135413000D02*
X204930200Y-135413000D01*
X204930200Y-135082800D01*
X204600000Y-135082800D01*
X204600000Y-135413000D01*
G36*
X194770200Y-135777067D02*
G01*
X195100400Y-135777067D01*
X195100400Y-135446867D01*
X194770200Y-135446867D01*
X194770200Y-135777067D01*
G37*
X194770200Y-135777067D02*
X195100400Y-135777067D01*
X195100400Y-135446867D01*
X194770200Y-135446867D01*
X194770200Y-135777067D01*
G36*
X195498333Y-135777067D02*
G01*
X195828533Y-135777067D01*
X195828533Y-135446867D01*
X195498333Y-135446867D01*
X195498333Y-135777067D01*
G37*
X195498333Y-135777067D02*
X195828533Y-135777067D01*
X195828533Y-135446867D01*
X195498333Y-135446867D01*
X195498333Y-135777067D01*
G36*
X196590533Y-135777067D02*
G01*
X196920733Y-135777067D01*
X196920733Y-135446867D01*
X196590533Y-135446867D01*
X196590533Y-135777067D01*
G37*
X196590533Y-135777067D02*
X196920733Y-135777067D01*
X196920733Y-135446867D01*
X196590533Y-135446867D01*
X196590533Y-135777067D01*
G36*
X197682733Y-135777067D02*
G01*
X198012933Y-135777067D01*
X198012933Y-135446867D01*
X197682733Y-135446867D01*
X197682733Y-135777067D01*
G37*
X197682733Y-135777067D02*
X198012933Y-135777067D01*
X198012933Y-135446867D01*
X197682733Y-135446867D01*
X197682733Y-135777067D01*
G36*
X198410867Y-135777067D02*
G01*
X198741067Y-135777067D01*
X198741067Y-135446867D01*
X198410867Y-135446867D01*
X198410867Y-135777067D01*
G37*
X198410867Y-135777067D02*
X198741067Y-135777067D01*
X198741067Y-135446867D01*
X198410867Y-135446867D01*
X198410867Y-135777067D01*
G36*
X199503067Y-135777067D02*
G01*
X199833267Y-135777067D01*
X199833267Y-135446867D01*
X199503067Y-135446867D01*
X199503067Y-135777067D01*
G37*
X199503067Y-135777067D02*
X199833267Y-135777067D01*
X199833267Y-135446867D01*
X199503067Y-135446867D01*
X199503067Y-135777067D01*
G36*
X201323400Y-135777067D02*
G01*
X201653600Y-135777067D01*
X201653600Y-135446867D01*
X201323400Y-135446867D01*
X201323400Y-135777067D01*
G37*
X201323400Y-135777067D02*
X201653600Y-135777067D01*
X201653600Y-135446867D01*
X201323400Y-135446867D01*
X201323400Y-135777067D01*
G36*
X204235933Y-135777067D02*
G01*
X204566133Y-135777067D01*
X204566133Y-135446867D01*
X204235933Y-135446867D01*
X204235933Y-135777067D01*
G37*
X204235933Y-135777067D02*
X204566133Y-135777067D01*
X204566133Y-135446867D01*
X204235933Y-135446867D01*
X204235933Y-135777067D01*
G36*
X194042066Y-136141133D02*
G01*
X194372266Y-136141133D01*
X194372266Y-135810933D01*
X194042066Y-135810933D01*
X194042066Y-136141133D01*
G37*
X194042066Y-136141133D02*
X194372266Y-136141133D01*
X194372266Y-135810933D01*
X194042066Y-135810933D01*
X194042066Y-136141133D01*
G36*
X194406133Y-136141133D02*
G01*
X194736333Y-136141133D01*
X194736333Y-135810933D01*
X194406133Y-135810933D01*
X194406133Y-136141133D01*
G37*
X194406133Y-136141133D02*
X194736333Y-136141133D01*
X194736333Y-135810933D01*
X194406133Y-135810933D01*
X194406133Y-136141133D01*
G36*
X195498333Y-136141133D02*
G01*
X195828533Y-136141133D01*
X195828533Y-135810933D01*
X195498333Y-135810933D01*
X195498333Y-136141133D01*
G37*
X195498333Y-136141133D02*
X195828533Y-136141133D01*
X195828533Y-135810933D01*
X195498333Y-135810933D01*
X195498333Y-136141133D01*
G36*
X196590533Y-136141133D02*
G01*
X196920733Y-136141133D01*
X196920733Y-135810933D01*
X196590533Y-135810933D01*
X196590533Y-136141133D01*
G37*
X196590533Y-136141133D02*
X196920733Y-136141133D01*
X196920733Y-135810933D01*
X196590533Y-135810933D01*
X196590533Y-136141133D01*
G36*
X197682733Y-136141133D02*
G01*
X198012933Y-136141133D01*
X198012933Y-135810933D01*
X197682733Y-135810933D01*
X197682733Y-136141133D01*
G37*
X197682733Y-136141133D02*
X198012933Y-136141133D01*
X198012933Y-135810933D01*
X197682733Y-135810933D01*
X197682733Y-136141133D01*
G36*
X198774933Y-136141133D02*
G01*
X199105133Y-136141133D01*
X199105133Y-135810933D01*
X198774933Y-135810933D01*
X198774933Y-136141133D01*
G37*
X198774933Y-136141133D02*
X199105133Y-136141133D01*
X199105133Y-135810933D01*
X198774933Y-135810933D01*
X198774933Y-136141133D01*
G36*
X199139000Y-136141133D02*
G01*
X199469200Y-136141133D01*
X199469200Y-135810933D01*
X199139000Y-135810933D01*
X199139000Y-136141133D01*
G37*
X199139000Y-136141133D02*
X199469200Y-136141133D01*
X199469200Y-135810933D01*
X199139000Y-135810933D01*
X199139000Y-136141133D01*
G36*
X199503067Y-136141133D02*
G01*
X199833267Y-136141133D01*
X199833267Y-135810933D01*
X199503067Y-135810933D01*
X199503067Y-136141133D01*
G37*
X199503067Y-136141133D02*
X199833267Y-136141133D01*
X199833267Y-135810933D01*
X199503067Y-135810933D01*
X199503067Y-136141133D01*
G36*
X201687466Y-136141133D02*
G01*
X202017666Y-136141133D01*
X202017666Y-135810933D01*
X201687466Y-135810933D01*
X201687466Y-136141133D01*
G37*
X201687466Y-136141133D02*
X202017666Y-136141133D01*
X202017666Y-135810933D01*
X201687466Y-135810933D01*
X201687466Y-136141133D01*
G36*
X202779667Y-136141133D02*
G01*
X203109867Y-136141133D01*
X203109867Y-135810933D01*
X202779667Y-135810933D01*
X202779667Y-136141133D01*
G37*
X202779667Y-136141133D02*
X203109867Y-136141133D01*
X203109867Y-135810933D01*
X202779667Y-135810933D01*
X202779667Y-136141133D01*
G36*
X203871866Y-136141133D02*
G01*
X204202066Y-136141133D01*
X204202066Y-135810933D01*
X203871866Y-135810933D01*
X203871866Y-136141133D01*
G37*
X203871866Y-136141133D02*
X204202066Y-136141133D01*
X204202066Y-135810933D01*
X203871866Y-135810933D01*
X203871866Y-136141133D01*
G36*
X193678000Y-136505200D02*
G01*
X194008200Y-136505200D01*
X194008200Y-136175000D01*
X193678000Y-136175000D01*
X193678000Y-136505200D01*
G37*
X193678000Y-136505200D02*
X194008200Y-136505200D01*
X194008200Y-136175000D01*
X193678000Y-136175000D01*
X193678000Y-136505200D01*
G36*
X195498333Y-136505200D02*
G01*
X195828533Y-136505200D01*
X195828533Y-136175000D01*
X195498333Y-136175000D01*
X195498333Y-136505200D01*
G37*
X195498333Y-136505200D02*
X195828533Y-136505200D01*
X195828533Y-136175000D01*
X195498333Y-136175000D01*
X195498333Y-136505200D01*
G36*
X196590533Y-136505200D02*
G01*
X196920733Y-136505200D01*
X196920733Y-136175000D01*
X196590533Y-136175000D01*
X196590533Y-136505200D01*
G37*
X196590533Y-136505200D02*
X196920733Y-136505200D01*
X196920733Y-136175000D01*
X196590533Y-136175000D01*
X196590533Y-136505200D01*
G36*
X197682733Y-136505200D02*
G01*
X198012933Y-136505200D01*
X198012933Y-136175000D01*
X197682733Y-136175000D01*
X197682733Y-136505200D01*
G37*
X197682733Y-136505200D02*
X198012933Y-136505200D01*
X198012933Y-136175000D01*
X197682733Y-136175000D01*
X197682733Y-136505200D01*
G36*
X199503067Y-136505200D02*
G01*
X199833267Y-136505200D01*
X199833267Y-136175000D01*
X199503067Y-136175000D01*
X199503067Y-136505200D01*
G37*
X199503067Y-136505200D02*
X199833267Y-136505200D01*
X199833267Y-136175000D01*
X199503067Y-136175000D01*
X199503067Y-136505200D01*
G36*
X202051533Y-136505200D02*
G01*
X202381733Y-136505200D01*
X202381733Y-136175000D01*
X202051533Y-136175000D01*
X202051533Y-136505200D01*
G37*
X202051533Y-136505200D02*
X202381733Y-136505200D01*
X202381733Y-136175000D01*
X202051533Y-136175000D01*
X202051533Y-136505200D01*
G36*
X203507800Y-136505200D02*
G01*
X203838000Y-136505200D01*
X203838000Y-136175000D01*
X203507800Y-136175000D01*
X203507800Y-136505200D01*
G37*
X203507800Y-136505200D02*
X203838000Y-136505200D01*
X203838000Y-136175000D01*
X203507800Y-136175000D01*
X203507800Y-136505200D01*
G36*
X194042066Y-136869267D02*
G01*
X194372266Y-136869267D01*
X194372266Y-136539067D01*
X194042066Y-136539067D01*
X194042066Y-136869267D01*
G37*
X194042066Y-136869267D02*
X194372266Y-136869267D01*
X194372266Y-136539067D01*
X194042066Y-136539067D01*
X194042066Y-136869267D01*
G36*
X194406133Y-136869267D02*
G01*
X194736333Y-136869267D01*
X194736333Y-136539067D01*
X194406133Y-136539067D01*
X194406133Y-136869267D01*
G37*
X194406133Y-136869267D02*
X194736333Y-136869267D01*
X194736333Y-136539067D01*
X194406133Y-136539067D01*
X194406133Y-136869267D01*
G36*
X194770200Y-136869267D02*
G01*
X195100400Y-136869267D01*
X195100400Y-136539067D01*
X194770200Y-136539067D01*
X194770200Y-136869267D01*
G37*
X194770200Y-136869267D02*
X195100400Y-136869267D01*
X195100400Y-136539067D01*
X194770200Y-136539067D01*
X194770200Y-136869267D01*
G36*
X195498333Y-136869267D02*
G01*
X195828533Y-136869267D01*
X195828533Y-136539067D01*
X195498333Y-136539067D01*
X195498333Y-136869267D01*
G37*
X195498333Y-136869267D02*
X195828533Y-136869267D01*
X195828533Y-136539067D01*
X195498333Y-136539067D01*
X195498333Y-136869267D01*
G36*
X195862400Y-136869267D02*
G01*
X196192600Y-136869267D01*
X196192600Y-136539067D01*
X195862400Y-136539067D01*
X195862400Y-136869267D01*
G37*
X195862400Y-136869267D02*
X196192600Y-136869267D01*
X196192600Y-136539067D01*
X195862400Y-136539067D01*
X195862400Y-136869267D01*
G36*
X196226466Y-136869267D02*
G01*
X196556666Y-136869267D01*
X196556666Y-136539067D01*
X196226466Y-136539067D01*
X196226466Y-136869267D01*
G37*
X196226466Y-136869267D02*
X196556666Y-136869267D01*
X196556666Y-136539067D01*
X196226466Y-136539067D01*
X196226466Y-136869267D01*
G36*
X197318666Y-136869267D02*
G01*
X197648866Y-136869267D01*
X197648866Y-136539067D01*
X197318666Y-136539067D01*
X197318666Y-136869267D01*
G37*
X197318666Y-136869267D02*
X197648866Y-136869267D01*
X197648866Y-136539067D01*
X197318666Y-136539067D01*
X197318666Y-136869267D01*
G36*
X197682733Y-136869267D02*
G01*
X198012933Y-136869267D01*
X198012933Y-136539067D01*
X197682733Y-136539067D01*
X197682733Y-136869267D01*
G37*
X197682733Y-136869267D02*
X198012933Y-136869267D01*
X198012933Y-136539067D01*
X197682733Y-136539067D01*
X197682733Y-136869267D01*
G36*
X199503067Y-136869267D02*
G01*
X199833267Y-136869267D01*
X199833267Y-136539067D01*
X199503067Y-136539067D01*
X199503067Y-136869267D01*
G37*
X199503067Y-136869267D02*
X199833267Y-136869267D01*
X199833267Y-136539067D01*
X199503067Y-136539067D01*
X199503067Y-136869267D01*
G36*
X202415600Y-136869267D02*
G01*
X202745800Y-136869267D01*
X202745800Y-136539067D01*
X202415600Y-136539067D01*
X202415600Y-136869267D01*
G37*
X202415600Y-136869267D02*
X202745800Y-136869267D01*
X202745800Y-136539067D01*
X202415600Y-136539067D01*
X202415600Y-136869267D01*
G36*
X203143733Y-136869267D02*
G01*
X203473933Y-136869267D01*
X203473933Y-136539067D01*
X203143733Y-136539067D01*
X203143733Y-136869267D01*
G37*
X203143733Y-136869267D02*
X203473933Y-136869267D01*
X203473933Y-136539067D01*
X203143733Y-136539067D01*
X203143733Y-136869267D01*
%LPC*%
M02*
