G04 #@! TF.GenerationSoftware,KiCad,Pcbnew,5.1.9+dfsg1-1+deb11u1*
G04 #@! TF.CreationDate,2023-02-14T20:28:48+09:00*
G04 #@! TF.ProjectId,zenfone-max-m2-battery-breakout,7a656e66-6f6e-4652-9d6d-61782d6d322d,rev?*
G04 #@! TF.SameCoordinates,Original*
G04 #@! TF.FileFunction,Legend,Top*
G04 #@! TF.FilePolarity,Positive*
%FSLAX46Y46*%
G04 Gerber Fmt 4.6, Leading zero omitted, Abs format (unit mm)*
G04 Created by KiCad (PCBNEW 5.1.9+dfsg1-1+deb11u1) date 2023-02-14 20:28:48*
%MOMM*%
%LPD*%
G01*
G04 APERTURE LIST*
%ADD10C,0.150000*%
%ADD11C,0.010000*%
%ADD12C,0.120000*%
%ADD13R,1.270000X2.919999*%
%ADD14R,3.430001X1.650000*%
%ADD15R,4.000000X2.000000*%
G04 APERTURE END LIST*
D10*
X165785714Y-83702380D02*
X165452380Y-83226190D01*
X165214285Y-83702380D02*
X165214285Y-82702380D01*
X165595238Y-82702380D01*
X165690476Y-82750000D01*
X165738095Y-82797619D01*
X165785714Y-82892857D01*
X165785714Y-83035714D01*
X165738095Y-83130952D01*
X165690476Y-83178571D01*
X165595238Y-83226190D01*
X165214285Y-83226190D01*
X166595238Y-83654761D02*
X166500000Y-83702380D01*
X166309523Y-83702380D01*
X166214285Y-83654761D01*
X166166666Y-83559523D01*
X166166666Y-83178571D01*
X166214285Y-83083333D01*
X166309523Y-83035714D01*
X166500000Y-83035714D01*
X166595238Y-83083333D01*
X166642857Y-83178571D01*
X166642857Y-83273809D01*
X166166666Y-83369047D01*
X166976190Y-83035714D02*
X167214285Y-83702380D01*
X167452380Y-83035714D01*
X167833333Y-83607142D02*
X167880952Y-83654761D01*
X167833333Y-83702380D01*
X167785714Y-83654761D01*
X167833333Y-83607142D01*
X167833333Y-83702380D01*
X168833333Y-83702380D02*
X168261904Y-83702380D01*
X168547619Y-83702380D02*
X168547619Y-82702380D01*
X168452380Y-82845238D01*
X168357142Y-82940476D01*
X168261904Y-82988095D01*
X179904761Y-89904761D02*
X179952380Y-89761904D01*
X179952380Y-89523809D01*
X179904761Y-89428571D01*
X179857142Y-89380952D01*
X179761904Y-89333333D01*
X179666666Y-89333333D01*
X179571428Y-89380952D01*
X179523809Y-89428571D01*
X179476190Y-89523809D01*
X179428571Y-89714285D01*
X179380952Y-89809523D01*
X179333333Y-89857142D01*
X179238095Y-89904761D01*
X179142857Y-89904761D01*
X179047619Y-89857142D01*
X179000000Y-89809523D01*
X178952380Y-89714285D01*
X178952380Y-89476190D01*
X179000000Y-89333333D01*
X179952380Y-88904761D02*
X178952380Y-88904761D01*
X179428571Y-88904761D02*
X179428571Y-88333333D01*
X179952380Y-88333333D02*
X178952380Y-88333333D01*
X179952380Y-87857142D02*
X178952380Y-87857142D01*
X179428571Y-87380952D02*
X179428571Y-87047619D01*
X179952380Y-86904761D02*
X179952380Y-87380952D01*
X178952380Y-87380952D01*
X178952380Y-86904761D01*
X179952380Y-86000000D02*
X179952380Y-86476190D01*
X178952380Y-86476190D01*
X179952380Y-85666666D02*
X178952380Y-85666666D01*
X178952380Y-85428571D01*
X179000000Y-85285714D01*
X179095238Y-85190476D01*
X179190476Y-85142857D01*
X179380952Y-85095238D01*
X179523809Y-85095238D01*
X179714285Y-85142857D01*
X179809523Y-85190476D01*
X179904761Y-85285714D01*
X179952380Y-85428571D01*
X179952380Y-85666666D01*
X176428571Y-89488095D02*
X176476190Y-89345238D01*
X176523809Y-89297619D01*
X176619047Y-89250000D01*
X176761904Y-89250000D01*
X176857142Y-89297619D01*
X176904761Y-89345238D01*
X176952380Y-89440476D01*
X176952380Y-89821428D01*
X175952380Y-89821428D01*
X175952380Y-89488095D01*
X176000000Y-89392857D01*
X176047619Y-89345238D01*
X176142857Y-89297619D01*
X176238095Y-89297619D01*
X176333333Y-89345238D01*
X176380952Y-89392857D01*
X176428571Y-89488095D01*
X176428571Y-89821428D01*
X176666666Y-88869047D02*
X176666666Y-88392857D01*
X176952380Y-88964285D02*
X175952380Y-88630952D01*
X176952380Y-88297619D01*
X175952380Y-88107142D02*
X175952380Y-87535714D01*
X176952380Y-87821428D02*
X175952380Y-87821428D01*
X175952380Y-87345238D02*
X175952380Y-86773809D01*
X176952380Y-87059523D02*
X175952380Y-87059523D01*
X176571428Y-86440476D02*
X176571428Y-85678571D01*
X173678571Y-89488095D02*
X173726190Y-89345238D01*
X173773809Y-89297619D01*
X173869047Y-89250000D01*
X174011904Y-89250000D01*
X174107142Y-89297619D01*
X174154761Y-89345238D01*
X174202380Y-89440476D01*
X174202380Y-89821428D01*
X173202380Y-89821428D01*
X173202380Y-89488095D01*
X173250000Y-89392857D01*
X173297619Y-89345238D01*
X173392857Y-89297619D01*
X173488095Y-89297619D01*
X173583333Y-89345238D01*
X173630952Y-89392857D01*
X173678571Y-89488095D01*
X173678571Y-89821428D01*
X173916666Y-88869047D02*
X173916666Y-88392857D01*
X174202380Y-88964285D02*
X173202380Y-88630952D01*
X174202380Y-88297619D01*
X173202380Y-88107142D02*
X173202380Y-87535714D01*
X174202380Y-87821428D02*
X173202380Y-87821428D01*
X173202380Y-87345238D02*
X173202380Y-86773809D01*
X174202380Y-87059523D02*
X173202380Y-87059523D01*
X173821428Y-86440476D02*
X173821428Y-85678571D01*
X170428571Y-89331071D02*
X170476190Y-89188214D01*
X170523809Y-89140595D01*
X170619047Y-89092976D01*
X170761904Y-89092976D01*
X170857142Y-89140595D01*
X170904761Y-89188214D01*
X170952380Y-89283452D01*
X170952380Y-89664404D01*
X169952380Y-89664404D01*
X169952380Y-89331071D01*
X170000000Y-89235833D01*
X170047619Y-89188214D01*
X170142857Y-89140595D01*
X170238095Y-89140595D01*
X170333333Y-89188214D01*
X170380952Y-89235833D01*
X170428571Y-89331071D01*
X170428571Y-89664404D01*
X170666666Y-88712023D02*
X170666666Y-88235833D01*
X170952380Y-88807261D02*
X169952380Y-88473928D01*
X170952380Y-88140595D01*
X169952380Y-87950119D02*
X169952380Y-87378690D01*
X170952380Y-87664404D02*
X169952380Y-87664404D01*
X169952380Y-87188214D02*
X169952380Y-86616785D01*
X170952380Y-86902500D02*
X169952380Y-86902500D01*
X170571428Y-86283452D02*
X170571428Y-85521547D01*
X170952380Y-85902500D02*
X170190476Y-85902500D01*
X199511904Y-64250000D02*
X199416666Y-64202380D01*
X199273809Y-64202380D01*
X199130952Y-64250000D01*
X199035714Y-64345238D01*
X198988095Y-64440476D01*
X198940476Y-64630952D01*
X198940476Y-64773809D01*
X198988095Y-64964285D01*
X199035714Y-65059523D01*
X199130952Y-65154761D01*
X199273809Y-65202380D01*
X199369047Y-65202380D01*
X199511904Y-65154761D01*
X199559523Y-65107142D01*
X199559523Y-64773809D01*
X199369047Y-64773809D01*
X199988095Y-65202380D02*
X199988095Y-64202380D01*
X200559523Y-65202380D01*
X200559523Y-64202380D01*
X201035714Y-65202380D02*
X201035714Y-64202380D01*
X201273809Y-64202380D01*
X201416666Y-64250000D01*
X201511904Y-64345238D01*
X201559523Y-64440476D01*
X201607142Y-64630952D01*
X201607142Y-64773809D01*
X201559523Y-64964285D01*
X201511904Y-65059523D01*
X201416666Y-65154761D01*
X201273809Y-65202380D01*
X201035714Y-65202380D01*
X201797619Y-65297619D02*
X202559523Y-65297619D01*
X202750000Y-65154761D02*
X202892857Y-65202380D01*
X203130952Y-65202380D01*
X203226190Y-65154761D01*
X203273809Y-65107142D01*
X203321428Y-65011904D01*
X203321428Y-64916666D01*
X203273809Y-64821428D01*
X203226190Y-64773809D01*
X203130952Y-64726190D01*
X202940476Y-64678571D01*
X202845238Y-64630952D01*
X202797619Y-64583333D01*
X202750000Y-64488095D01*
X202750000Y-64392857D01*
X202797619Y-64297619D01*
X202845238Y-64250000D01*
X202940476Y-64202380D01*
X203178571Y-64202380D01*
X203321428Y-64250000D01*
X203750000Y-65202380D02*
X203750000Y-64202380D01*
X203750000Y-64678571D02*
X204321428Y-64678571D01*
X204321428Y-65202380D02*
X204321428Y-64202380D01*
X204797619Y-65202380D02*
X204797619Y-64202380D01*
X205273809Y-64678571D02*
X205607142Y-64678571D01*
X205750000Y-65202380D02*
X205273809Y-65202380D01*
X205273809Y-64202380D01*
X205750000Y-64202380D01*
X206654761Y-65202380D02*
X206178571Y-65202380D01*
X206178571Y-64202380D01*
X206988095Y-65202380D02*
X206988095Y-64202380D01*
X207226190Y-64202380D01*
X207369047Y-64250000D01*
X207464285Y-64345238D01*
X207511904Y-64440476D01*
X207559523Y-64630952D01*
X207559523Y-64773809D01*
X207511904Y-64964285D01*
X207464285Y-65059523D01*
X207369047Y-65154761D01*
X207226190Y-65202380D01*
X206988095Y-65202380D01*
X160511904Y-64678571D02*
X160654761Y-64726190D01*
X160702380Y-64773809D01*
X160750000Y-64869047D01*
X160750000Y-65011904D01*
X160702380Y-65107142D01*
X160654761Y-65154761D01*
X160559523Y-65202380D01*
X160178571Y-65202380D01*
X160178571Y-64202380D01*
X160511904Y-64202380D01*
X160607142Y-64250000D01*
X160654761Y-64297619D01*
X160702380Y-64392857D01*
X160702380Y-64488095D01*
X160654761Y-64583333D01*
X160607142Y-64630952D01*
X160511904Y-64678571D01*
X160178571Y-64678571D01*
X161130952Y-64916666D02*
X161607142Y-64916666D01*
X161035714Y-65202380D02*
X161369047Y-64202380D01*
X161702380Y-65202380D01*
X161892857Y-64202380D02*
X162464285Y-64202380D01*
X162178571Y-65202380D02*
X162178571Y-64202380D01*
X162654761Y-64202380D02*
X163226190Y-64202380D01*
X162940476Y-65202380D02*
X162940476Y-64202380D01*
X163559523Y-64821428D02*
X164321428Y-64821428D01*
X176761904Y-64678571D02*
X176904761Y-64726190D01*
X176952380Y-64773809D01*
X177000000Y-64869047D01*
X177000000Y-65011904D01*
X176952380Y-65107142D01*
X176904761Y-65154761D01*
X176809523Y-65202380D01*
X176428571Y-65202380D01*
X176428571Y-64202380D01*
X176761904Y-64202380D01*
X176857142Y-64250000D01*
X176904761Y-64297619D01*
X176952380Y-64392857D01*
X176952380Y-64488095D01*
X176904761Y-64583333D01*
X176857142Y-64630952D01*
X176761904Y-64678571D01*
X176428571Y-64678571D01*
X177380952Y-64916666D02*
X177857142Y-64916666D01*
X177285714Y-65202380D02*
X177619047Y-64202380D01*
X177952380Y-65202380D01*
X178142857Y-64202380D02*
X178714285Y-64202380D01*
X178428571Y-65202380D02*
X178428571Y-64202380D01*
X178904761Y-64202380D02*
X179476190Y-64202380D01*
X179190476Y-65202380D02*
X179190476Y-64202380D01*
X179809523Y-64821428D02*
X180571428Y-64821428D01*
X180190476Y-65202380D02*
X180190476Y-64440476D01*
D11*
G36*
X143909200Y-58404066D02*
G01*
X143578999Y-58404066D01*
X143578999Y-58073866D01*
X143909200Y-58073866D01*
X143909200Y-58404066D01*
G37*
X143909200Y-58404066D02*
X143578999Y-58404066D01*
X143578999Y-58073866D01*
X143909200Y-58073866D01*
X143909200Y-58404066D01*
G36*
X144273266Y-58404066D02*
G01*
X143943066Y-58404066D01*
X143943066Y-58073866D01*
X144273266Y-58073866D01*
X144273266Y-58404066D01*
G37*
X144273266Y-58404066D02*
X143943066Y-58404066D01*
X143943066Y-58073866D01*
X144273266Y-58073866D01*
X144273266Y-58404066D01*
G36*
X144637333Y-58404066D02*
G01*
X144307133Y-58404066D01*
X144307133Y-58073866D01*
X144637333Y-58073866D01*
X144637333Y-58404066D01*
G37*
X144637333Y-58404066D02*
X144307133Y-58404066D01*
X144307133Y-58073866D01*
X144637333Y-58073866D01*
X144637333Y-58404066D01*
G36*
X145365466Y-58404066D02*
G01*
X145035266Y-58404066D01*
X145035266Y-58073866D01*
X145365466Y-58073866D01*
X145365466Y-58404066D01*
G37*
X145365466Y-58404066D02*
X145035266Y-58404066D01*
X145035266Y-58073866D01*
X145365466Y-58073866D01*
X145365466Y-58404066D01*
G36*
X145729533Y-58404066D02*
G01*
X145399333Y-58404066D01*
X145399333Y-58073866D01*
X145729533Y-58073866D01*
X145729533Y-58404066D01*
G37*
X145729533Y-58404066D02*
X145399333Y-58404066D01*
X145399333Y-58073866D01*
X145729533Y-58073866D01*
X145729533Y-58404066D01*
G36*
X146821733Y-58404066D02*
G01*
X146491533Y-58404066D01*
X146491533Y-58073866D01*
X146821733Y-58073866D01*
X146821733Y-58404066D01*
G37*
X146821733Y-58404066D02*
X146491533Y-58404066D01*
X146491533Y-58073866D01*
X146821733Y-58073866D01*
X146821733Y-58404066D01*
G36*
X147185799Y-58404066D02*
G01*
X146855599Y-58404066D01*
X146855599Y-58073866D01*
X147185799Y-58073866D01*
X147185799Y-58404066D01*
G37*
X147185799Y-58404066D02*
X146855599Y-58404066D01*
X146855599Y-58073866D01*
X147185799Y-58073866D01*
X147185799Y-58404066D01*
G36*
X144637333Y-58040000D02*
G01*
X144307133Y-58040000D01*
X144307133Y-57709800D01*
X144637333Y-57709800D01*
X144637333Y-58040000D01*
G37*
X144637333Y-58040000D02*
X144307133Y-58040000D01*
X144307133Y-57709800D01*
X144637333Y-57709800D01*
X144637333Y-58040000D01*
G36*
X145001399Y-58040000D02*
G01*
X144671200Y-58040000D01*
X144671200Y-57709800D01*
X145001399Y-57709800D01*
X145001399Y-58040000D01*
G37*
X145001399Y-58040000D02*
X144671200Y-58040000D01*
X144671200Y-57709800D01*
X145001399Y-57709800D01*
X145001399Y-58040000D01*
G36*
X145365466Y-58040000D02*
G01*
X145035266Y-58040000D01*
X145035266Y-57709800D01*
X145365466Y-57709800D01*
X145365466Y-58040000D01*
G37*
X145365466Y-58040000D02*
X145035266Y-58040000D01*
X145035266Y-57709800D01*
X145365466Y-57709800D01*
X145365466Y-58040000D01*
G36*
X146093600Y-58040000D02*
G01*
X145763400Y-58040000D01*
X145763400Y-57709800D01*
X146093600Y-57709800D01*
X146093600Y-58040000D01*
G37*
X146093600Y-58040000D02*
X145763400Y-58040000D01*
X145763400Y-57709800D01*
X146093600Y-57709800D01*
X146093600Y-58040000D01*
G36*
X146457666Y-58040000D02*
G01*
X146127466Y-58040000D01*
X146127466Y-57709800D01*
X146457666Y-57709800D01*
X146457666Y-58040000D01*
G37*
X146457666Y-58040000D02*
X146127466Y-58040000D01*
X146127466Y-57709800D01*
X146457666Y-57709800D01*
X146457666Y-58040000D01*
G36*
X146821733Y-58040000D02*
G01*
X146491533Y-58040000D01*
X146491533Y-57709800D01*
X146821733Y-57709800D01*
X146821733Y-58040000D01*
G37*
X146821733Y-58040000D02*
X146491533Y-58040000D01*
X146491533Y-57709800D01*
X146821733Y-57709800D01*
X146821733Y-58040000D01*
G36*
X147549866Y-58040000D02*
G01*
X147219666Y-58040000D01*
X147219666Y-57709800D01*
X147549866Y-57709800D01*
X147549866Y-58040000D01*
G37*
X147549866Y-58040000D02*
X147219666Y-58040000D01*
X147219666Y-57709800D01*
X147549866Y-57709800D01*
X147549866Y-58040000D01*
G36*
X144637333Y-57675933D02*
G01*
X144307133Y-57675933D01*
X144307133Y-57345733D01*
X144637333Y-57345733D01*
X144637333Y-57675933D01*
G37*
X144637333Y-57675933D02*
X144307133Y-57675933D01*
X144307133Y-57345733D01*
X144637333Y-57345733D01*
X144637333Y-57675933D01*
G36*
X147549866Y-57675933D02*
G01*
X147219666Y-57675933D01*
X147219666Y-57345733D01*
X147549866Y-57345733D01*
X147549866Y-57675933D01*
G37*
X147549866Y-57675933D02*
X147219666Y-57675933D01*
X147219666Y-57345733D01*
X147549866Y-57345733D01*
X147549866Y-57675933D01*
G36*
X145001399Y-57311866D02*
G01*
X144671200Y-57311866D01*
X144671200Y-56981666D01*
X145001399Y-56981666D01*
X145001399Y-57311866D01*
G37*
X145001399Y-57311866D02*
X144671200Y-57311866D01*
X144671200Y-56981666D01*
X145001399Y-56981666D01*
X145001399Y-57311866D01*
G36*
X147549866Y-57311866D02*
G01*
X147219666Y-57311866D01*
X147219666Y-56981666D01*
X147549866Y-56981666D01*
X147549866Y-57311866D01*
G37*
X147549866Y-57311866D02*
X147219666Y-57311866D01*
X147219666Y-56981666D01*
X147549866Y-56981666D01*
X147549866Y-57311866D01*
G36*
X145001399Y-56947800D02*
G01*
X144671200Y-56947800D01*
X144671200Y-56617600D01*
X145001399Y-56617600D01*
X145001399Y-56947800D01*
G37*
X145001399Y-56947800D02*
X144671200Y-56947800D01*
X144671200Y-56617600D01*
X145001399Y-56617600D01*
X145001399Y-56947800D01*
G36*
X147549866Y-56947800D02*
G01*
X147219666Y-56947800D01*
X147219666Y-56617600D01*
X147549866Y-56617600D01*
X147549866Y-56947800D01*
G37*
X147549866Y-56947800D02*
X147219666Y-56947800D01*
X147219666Y-56617600D01*
X147549866Y-56617600D01*
X147549866Y-56947800D01*
G36*
X145001399Y-56583733D02*
G01*
X144671200Y-56583733D01*
X144671200Y-56253533D01*
X145001399Y-56253533D01*
X145001399Y-56583733D01*
G37*
X145001399Y-56583733D02*
X144671200Y-56583733D01*
X144671200Y-56253533D01*
X145001399Y-56253533D01*
X145001399Y-56583733D01*
G36*
X147549866Y-56583733D02*
G01*
X147219666Y-56583733D01*
X147219666Y-56253533D01*
X147549866Y-56253533D01*
X147549866Y-56583733D01*
G37*
X147549866Y-56583733D02*
X147219666Y-56583733D01*
X147219666Y-56253533D01*
X147549866Y-56253533D01*
X147549866Y-56583733D01*
G36*
X145001399Y-56219666D02*
G01*
X144671200Y-56219666D01*
X144671200Y-55889466D01*
X145001399Y-55889466D01*
X145001399Y-56219666D01*
G37*
X145001399Y-56219666D02*
X144671200Y-56219666D01*
X144671200Y-55889466D01*
X145001399Y-55889466D01*
X145001399Y-56219666D01*
G36*
X147549866Y-56219666D02*
G01*
X147219666Y-56219666D01*
X147219666Y-55889466D01*
X147549866Y-55889466D01*
X147549866Y-56219666D01*
G37*
X147549866Y-56219666D02*
X147219666Y-56219666D01*
X147219666Y-55889466D01*
X147549866Y-55889466D01*
X147549866Y-56219666D01*
G36*
X145001399Y-55855599D02*
G01*
X144671200Y-55855599D01*
X144671200Y-55525400D01*
X145001399Y-55525400D01*
X145001399Y-55855599D01*
G37*
X145001399Y-55855599D02*
X144671200Y-55855599D01*
X144671200Y-55525400D01*
X145001399Y-55525400D01*
X145001399Y-55855599D01*
G36*
X147549866Y-55855599D02*
G01*
X147219666Y-55855599D01*
X147219666Y-55525400D01*
X147549866Y-55525400D01*
X147549866Y-55855599D01*
G37*
X147549866Y-55855599D02*
X147219666Y-55855599D01*
X147219666Y-55525400D01*
X147549866Y-55525400D01*
X147549866Y-55855599D01*
G36*
X145001399Y-55491533D02*
G01*
X144671200Y-55491533D01*
X144671200Y-55161333D01*
X145001399Y-55161333D01*
X145001399Y-55491533D01*
G37*
X145001399Y-55491533D02*
X144671200Y-55491533D01*
X144671200Y-55161333D01*
X145001399Y-55161333D01*
X145001399Y-55491533D01*
G36*
X147549866Y-55491533D02*
G01*
X147219666Y-55491533D01*
X147219666Y-55161333D01*
X147549866Y-55161333D01*
X147549866Y-55491533D01*
G37*
X147549866Y-55491533D02*
X147219666Y-55491533D01*
X147219666Y-55161333D01*
X147549866Y-55161333D01*
X147549866Y-55491533D01*
G36*
X147913933Y-55491533D02*
G01*
X147583733Y-55491533D01*
X147583733Y-55161333D01*
X147913933Y-55161333D01*
X147913933Y-55491533D01*
G37*
X147913933Y-55491533D02*
X147583733Y-55491533D01*
X147583733Y-55161333D01*
X147913933Y-55161333D01*
X147913933Y-55491533D01*
G36*
X148278000Y-55491533D02*
G01*
X147947800Y-55491533D01*
X147947800Y-55161333D01*
X148278000Y-55161333D01*
X148278000Y-55491533D01*
G37*
X148278000Y-55491533D02*
X147947800Y-55491533D01*
X147947800Y-55161333D01*
X148278000Y-55161333D01*
X148278000Y-55491533D01*
G36*
X145001399Y-55127466D02*
G01*
X144671200Y-55127466D01*
X144671200Y-54797266D01*
X145001399Y-54797266D01*
X145001399Y-55127466D01*
G37*
X145001399Y-55127466D02*
X144671200Y-55127466D01*
X144671200Y-54797266D01*
X145001399Y-54797266D01*
X145001399Y-55127466D01*
G36*
X148642066Y-55127466D02*
G01*
X148311866Y-55127466D01*
X148311866Y-54797266D01*
X148642066Y-54797266D01*
X148642066Y-55127466D01*
G37*
X148642066Y-55127466D02*
X148311866Y-55127466D01*
X148311866Y-54797266D01*
X148642066Y-54797266D01*
X148642066Y-55127466D01*
G36*
X149006133Y-55127466D02*
G01*
X148675933Y-55127466D01*
X148675933Y-54797266D01*
X149006133Y-54797266D01*
X149006133Y-55127466D01*
G37*
X149006133Y-55127466D02*
X148675933Y-55127466D01*
X148675933Y-54797266D01*
X149006133Y-54797266D01*
X149006133Y-55127466D01*
G36*
X145001399Y-54763400D02*
G01*
X144671200Y-54763400D01*
X144671200Y-54433200D01*
X145001399Y-54433200D01*
X145001399Y-54763400D01*
G37*
X145001399Y-54763400D02*
X144671200Y-54763400D01*
X144671200Y-54433200D01*
X145001399Y-54433200D01*
X145001399Y-54763400D01*
G36*
X149370200Y-54763400D02*
G01*
X149040000Y-54763400D01*
X149040000Y-54433200D01*
X149370200Y-54433200D01*
X149370200Y-54763400D01*
G37*
X149370200Y-54763400D02*
X149040000Y-54763400D01*
X149040000Y-54433200D01*
X149370200Y-54433200D01*
X149370200Y-54763400D01*
G36*
X145001399Y-54399333D02*
G01*
X144671200Y-54399333D01*
X144671200Y-54069133D01*
X145001399Y-54069133D01*
X145001399Y-54399333D01*
G37*
X145001399Y-54399333D02*
X144671200Y-54399333D01*
X144671200Y-54069133D01*
X145001399Y-54069133D01*
X145001399Y-54399333D01*
G36*
X146457666Y-54399333D02*
G01*
X146127466Y-54399333D01*
X146127466Y-54069133D01*
X146457666Y-54069133D01*
X146457666Y-54399333D01*
G37*
X146457666Y-54399333D02*
X146127466Y-54399333D01*
X146127466Y-54069133D01*
X146457666Y-54069133D01*
X146457666Y-54399333D01*
G36*
X146821733Y-54399333D02*
G01*
X146491533Y-54399333D01*
X146491533Y-54069133D01*
X146821733Y-54069133D01*
X146821733Y-54399333D01*
G37*
X146821733Y-54399333D02*
X146491533Y-54399333D01*
X146491533Y-54069133D01*
X146821733Y-54069133D01*
X146821733Y-54399333D01*
G36*
X147185799Y-54399333D02*
G01*
X146855599Y-54399333D01*
X146855599Y-54069133D01*
X147185799Y-54069133D01*
X147185799Y-54399333D01*
G37*
X147185799Y-54399333D02*
X146855599Y-54399333D01*
X146855599Y-54069133D01*
X147185799Y-54069133D01*
X147185799Y-54399333D01*
G36*
X147549866Y-54399333D02*
G01*
X147219666Y-54399333D01*
X147219666Y-54069133D01*
X147549866Y-54069133D01*
X147549866Y-54399333D01*
G37*
X147549866Y-54399333D02*
X147219666Y-54399333D01*
X147219666Y-54069133D01*
X147549866Y-54069133D01*
X147549866Y-54399333D01*
G36*
X149370200Y-54399333D02*
G01*
X149040000Y-54399333D01*
X149040000Y-54069133D01*
X149370200Y-54069133D01*
X149370200Y-54399333D01*
G37*
X149370200Y-54399333D02*
X149040000Y-54399333D01*
X149040000Y-54069133D01*
X149370200Y-54069133D01*
X149370200Y-54399333D01*
G36*
X145001399Y-54035266D02*
G01*
X144671200Y-54035266D01*
X144671200Y-53705066D01*
X145001399Y-53705066D01*
X145001399Y-54035266D01*
G37*
X145001399Y-54035266D02*
X144671200Y-54035266D01*
X144671200Y-53705066D01*
X145001399Y-53705066D01*
X145001399Y-54035266D01*
G36*
X146093600Y-54035266D02*
G01*
X145763400Y-54035266D01*
X145763400Y-53705066D01*
X146093600Y-53705066D01*
X146093600Y-54035266D01*
G37*
X146093600Y-54035266D02*
X145763400Y-54035266D01*
X145763400Y-53705066D01*
X146093600Y-53705066D01*
X146093600Y-54035266D01*
G36*
X146821733Y-54035266D02*
G01*
X146491533Y-54035266D01*
X146491533Y-53705066D01*
X146821733Y-53705066D01*
X146821733Y-54035266D01*
G37*
X146821733Y-54035266D02*
X146491533Y-54035266D01*
X146491533Y-53705066D01*
X146821733Y-53705066D01*
X146821733Y-54035266D01*
G36*
X147185799Y-54035266D02*
G01*
X146855599Y-54035266D01*
X146855599Y-53705066D01*
X147185799Y-53705066D01*
X147185799Y-54035266D01*
G37*
X147185799Y-54035266D02*
X146855599Y-54035266D01*
X146855599Y-53705066D01*
X147185799Y-53705066D01*
X147185799Y-54035266D01*
G36*
X147913933Y-54035266D02*
G01*
X147583733Y-54035266D01*
X147583733Y-53705066D01*
X147913933Y-53705066D01*
X147913933Y-54035266D01*
G37*
X147913933Y-54035266D02*
X147583733Y-54035266D01*
X147583733Y-53705066D01*
X147913933Y-53705066D01*
X147913933Y-54035266D01*
G36*
X149370200Y-54035266D02*
G01*
X149040000Y-54035266D01*
X149040000Y-53705066D01*
X149370200Y-53705066D01*
X149370200Y-54035266D01*
G37*
X149370200Y-54035266D02*
X149040000Y-54035266D01*
X149040000Y-53705066D01*
X149370200Y-53705066D01*
X149370200Y-54035266D01*
G36*
X145001399Y-53671200D02*
G01*
X144671200Y-53671200D01*
X144671200Y-53340999D01*
X145001399Y-53340999D01*
X145001399Y-53671200D01*
G37*
X145001399Y-53671200D02*
X144671200Y-53671200D01*
X144671200Y-53340999D01*
X145001399Y-53340999D01*
X145001399Y-53671200D01*
G36*
X146457666Y-53671200D02*
G01*
X146127466Y-53671200D01*
X146127466Y-53340999D01*
X146457666Y-53340999D01*
X146457666Y-53671200D01*
G37*
X146457666Y-53671200D02*
X146127466Y-53671200D01*
X146127466Y-53340999D01*
X146457666Y-53340999D01*
X146457666Y-53671200D01*
G36*
X146821733Y-53671200D02*
G01*
X146491533Y-53671200D01*
X146491533Y-53340999D01*
X146821733Y-53340999D01*
X146821733Y-53671200D01*
G37*
X146821733Y-53671200D02*
X146491533Y-53671200D01*
X146491533Y-53340999D01*
X146821733Y-53340999D01*
X146821733Y-53671200D01*
G36*
X147185799Y-53671200D02*
G01*
X146855599Y-53671200D01*
X146855599Y-53340999D01*
X147185799Y-53340999D01*
X147185799Y-53671200D01*
G37*
X147185799Y-53671200D02*
X146855599Y-53671200D01*
X146855599Y-53340999D01*
X147185799Y-53340999D01*
X147185799Y-53671200D01*
G36*
X147549866Y-53671200D02*
G01*
X147219666Y-53671200D01*
X147219666Y-53340999D01*
X147549866Y-53340999D01*
X147549866Y-53671200D01*
G37*
X147549866Y-53671200D02*
X147219666Y-53671200D01*
X147219666Y-53340999D01*
X147549866Y-53340999D01*
X147549866Y-53671200D01*
G36*
X149370200Y-53671200D02*
G01*
X149040000Y-53671200D01*
X149040000Y-53340999D01*
X149370200Y-53340999D01*
X149370200Y-53671200D01*
G37*
X149370200Y-53671200D02*
X149040000Y-53671200D01*
X149040000Y-53340999D01*
X149370200Y-53340999D01*
X149370200Y-53671200D01*
G36*
X145365466Y-53307133D02*
G01*
X145035266Y-53307133D01*
X145035266Y-52976933D01*
X145365466Y-52976933D01*
X145365466Y-53307133D01*
G37*
X145365466Y-53307133D02*
X145035266Y-53307133D01*
X145035266Y-52976933D01*
X145365466Y-52976933D01*
X145365466Y-53307133D01*
G36*
X149006133Y-53307133D02*
G01*
X148675933Y-53307133D01*
X148675933Y-52976933D01*
X149006133Y-52976933D01*
X149006133Y-53307133D01*
G37*
X149006133Y-53307133D02*
X148675933Y-53307133D01*
X148675933Y-52976933D01*
X149006133Y-52976933D01*
X149006133Y-53307133D01*
G36*
X145729533Y-52943066D02*
G01*
X145399333Y-52943066D01*
X145399333Y-52612866D01*
X145729533Y-52612866D01*
X145729533Y-52943066D01*
G37*
X145729533Y-52943066D02*
X145399333Y-52943066D01*
X145399333Y-52612866D01*
X145729533Y-52612866D01*
X145729533Y-52943066D01*
G36*
X146093600Y-52943066D02*
G01*
X145763400Y-52943066D01*
X145763400Y-52612866D01*
X146093600Y-52612866D01*
X146093600Y-52943066D01*
G37*
X146093600Y-52943066D02*
X145763400Y-52943066D01*
X145763400Y-52612866D01*
X146093600Y-52612866D01*
X146093600Y-52943066D01*
G36*
X146457666Y-52943066D02*
G01*
X146127466Y-52943066D01*
X146127466Y-52612866D01*
X146457666Y-52612866D01*
X146457666Y-52943066D01*
G37*
X146457666Y-52943066D02*
X146127466Y-52943066D01*
X146127466Y-52612866D01*
X146457666Y-52612866D01*
X146457666Y-52943066D01*
G36*
X146821733Y-52943066D02*
G01*
X146491533Y-52943066D01*
X146491533Y-52612866D01*
X146821733Y-52612866D01*
X146821733Y-52943066D01*
G37*
X146821733Y-52943066D02*
X146491533Y-52943066D01*
X146491533Y-52612866D01*
X146821733Y-52612866D01*
X146821733Y-52943066D01*
G36*
X147185799Y-52943066D02*
G01*
X146855599Y-52943066D01*
X146855599Y-52612866D01*
X147185799Y-52612866D01*
X147185799Y-52943066D01*
G37*
X147185799Y-52943066D02*
X146855599Y-52943066D01*
X146855599Y-52612866D01*
X147185799Y-52612866D01*
X147185799Y-52943066D01*
G36*
X147549866Y-52943066D02*
G01*
X147219666Y-52943066D01*
X147219666Y-52612866D01*
X147549866Y-52612866D01*
X147549866Y-52943066D01*
G37*
X147549866Y-52943066D02*
X147219666Y-52943066D01*
X147219666Y-52612866D01*
X147549866Y-52612866D01*
X147549866Y-52943066D01*
G36*
X147913933Y-52943066D02*
G01*
X147583733Y-52943066D01*
X147583733Y-52612866D01*
X147913933Y-52612866D01*
X147913933Y-52943066D01*
G37*
X147913933Y-52943066D02*
X147583733Y-52943066D01*
X147583733Y-52612866D01*
X147913933Y-52612866D01*
X147913933Y-52943066D01*
G36*
X148278000Y-52943066D02*
G01*
X147947800Y-52943066D01*
X147947800Y-52612866D01*
X148278000Y-52612866D01*
X148278000Y-52943066D01*
G37*
X148278000Y-52943066D02*
X147947800Y-52943066D01*
X147947800Y-52612866D01*
X148278000Y-52612866D01*
X148278000Y-52943066D01*
G36*
X148642066Y-52943066D02*
G01*
X148311866Y-52943066D01*
X148311866Y-52612866D01*
X148642066Y-52612866D01*
X148642066Y-52943066D01*
G37*
X148642066Y-52943066D02*
X148311866Y-52943066D01*
X148311866Y-52612866D01*
X148642066Y-52612866D01*
X148642066Y-52943066D01*
G36*
X147106267Y-135869267D02*
G01*
X146776067Y-135869267D01*
X146776067Y-135539067D01*
X147106267Y-135539067D01*
X147106267Y-135869267D01*
G37*
X147106267Y-135869267D02*
X146776067Y-135869267D01*
X146776067Y-135539067D01*
X147106267Y-135539067D01*
X147106267Y-135869267D01*
G36*
X147834400Y-135869267D02*
G01*
X147504200Y-135869267D01*
X147504200Y-135539067D01*
X147834400Y-135539067D01*
X147834400Y-135869267D01*
G37*
X147834400Y-135869267D02*
X147504200Y-135869267D01*
X147504200Y-135539067D01*
X147834400Y-135539067D01*
X147834400Y-135869267D01*
G36*
X150746933Y-135869267D02*
G01*
X150416733Y-135869267D01*
X150416733Y-135539067D01*
X150746933Y-135539067D01*
X150746933Y-135869267D01*
G37*
X150746933Y-135869267D02*
X150416733Y-135869267D01*
X150416733Y-135539067D01*
X150746933Y-135539067D01*
X150746933Y-135869267D01*
G36*
X152567267Y-135869267D02*
G01*
X152237067Y-135869267D01*
X152237067Y-135539067D01*
X152567267Y-135539067D01*
X152567267Y-135869267D01*
G37*
X152567267Y-135869267D02*
X152237067Y-135869267D01*
X152237067Y-135539067D01*
X152567267Y-135539067D01*
X152567267Y-135869267D01*
G36*
X152931334Y-135869267D02*
G01*
X152601134Y-135869267D01*
X152601134Y-135539067D01*
X152931334Y-135539067D01*
X152931334Y-135869267D01*
G37*
X152931334Y-135869267D02*
X152601134Y-135869267D01*
X152601134Y-135539067D01*
X152931334Y-135539067D01*
X152931334Y-135869267D01*
G36*
X154023534Y-135869267D02*
G01*
X153693334Y-135869267D01*
X153693334Y-135539067D01*
X154023534Y-135539067D01*
X154023534Y-135869267D01*
G37*
X154023534Y-135869267D02*
X153693334Y-135869267D01*
X153693334Y-135539067D01*
X154023534Y-135539067D01*
X154023534Y-135869267D01*
G36*
X154387600Y-135869267D02*
G01*
X154057400Y-135869267D01*
X154057400Y-135539067D01*
X154387600Y-135539067D01*
X154387600Y-135869267D01*
G37*
X154387600Y-135869267D02*
X154057400Y-135869267D01*
X154057400Y-135539067D01*
X154387600Y-135539067D01*
X154387600Y-135869267D01*
G36*
X154751667Y-135869267D02*
G01*
X154421467Y-135869267D01*
X154421467Y-135539067D01*
X154751667Y-135539067D01*
X154751667Y-135869267D01*
G37*
X154751667Y-135869267D02*
X154421467Y-135869267D01*
X154421467Y-135539067D01*
X154751667Y-135539067D01*
X154751667Y-135869267D01*
G36*
X155479800Y-135869267D02*
G01*
X155149600Y-135869267D01*
X155149600Y-135539067D01*
X155479800Y-135539067D01*
X155479800Y-135869267D01*
G37*
X155479800Y-135869267D02*
X155149600Y-135869267D01*
X155149600Y-135539067D01*
X155479800Y-135539067D01*
X155479800Y-135869267D01*
G36*
X155843867Y-135869267D02*
G01*
X155513667Y-135869267D01*
X155513667Y-135539067D01*
X155843867Y-135539067D01*
X155843867Y-135869267D01*
G37*
X155843867Y-135869267D02*
X155513667Y-135869267D01*
X155513667Y-135539067D01*
X155843867Y-135539067D01*
X155843867Y-135869267D01*
G36*
X156207934Y-135869267D02*
G01*
X155877734Y-135869267D01*
X155877734Y-135539067D01*
X156207934Y-135539067D01*
X156207934Y-135869267D01*
G37*
X156207934Y-135869267D02*
X155877734Y-135869267D01*
X155877734Y-135539067D01*
X156207934Y-135539067D01*
X156207934Y-135869267D01*
G36*
X146742200Y-135505200D02*
G01*
X146412000Y-135505200D01*
X146412000Y-135175000D01*
X146742200Y-135175000D01*
X146742200Y-135505200D01*
G37*
X146742200Y-135505200D02*
X146412000Y-135505200D01*
X146412000Y-135175000D01*
X146742200Y-135175000D01*
X146742200Y-135505200D01*
G36*
X148198467Y-135505200D02*
G01*
X147868267Y-135505200D01*
X147868267Y-135175000D01*
X148198467Y-135175000D01*
X148198467Y-135505200D01*
G37*
X148198467Y-135505200D02*
X147868267Y-135505200D01*
X147868267Y-135175000D01*
X148198467Y-135175000D01*
X148198467Y-135505200D01*
G36*
X150746933Y-135505200D02*
G01*
X150416733Y-135505200D01*
X150416733Y-135175000D01*
X150746933Y-135175000D01*
X150746933Y-135505200D01*
G37*
X150746933Y-135505200D02*
X150416733Y-135505200D01*
X150416733Y-135175000D01*
X150746933Y-135175000D01*
X150746933Y-135505200D01*
G36*
X152567267Y-135505200D02*
G01*
X152237067Y-135505200D01*
X152237067Y-135175000D01*
X152567267Y-135175000D01*
X152567267Y-135505200D01*
G37*
X152567267Y-135505200D02*
X152237067Y-135505200D01*
X152237067Y-135175000D01*
X152567267Y-135175000D01*
X152567267Y-135505200D01*
G36*
X153659467Y-135505200D02*
G01*
X153329267Y-135505200D01*
X153329267Y-135175000D01*
X153659467Y-135175000D01*
X153659467Y-135505200D01*
G37*
X153659467Y-135505200D02*
X153329267Y-135505200D01*
X153329267Y-135175000D01*
X153659467Y-135175000D01*
X153659467Y-135505200D01*
G36*
X154751667Y-135505200D02*
G01*
X154421467Y-135505200D01*
X154421467Y-135175000D01*
X154751667Y-135175000D01*
X154751667Y-135505200D01*
G37*
X154751667Y-135505200D02*
X154421467Y-135505200D01*
X154421467Y-135175000D01*
X154751667Y-135175000D01*
X154751667Y-135505200D01*
G36*
X156572000Y-135505200D02*
G01*
X156241800Y-135505200D01*
X156241800Y-135175000D01*
X156572000Y-135175000D01*
X156572000Y-135505200D01*
G37*
X156572000Y-135505200D02*
X156241800Y-135505200D01*
X156241800Y-135175000D01*
X156572000Y-135175000D01*
X156572000Y-135505200D01*
G36*
X146378134Y-135141133D02*
G01*
X146047934Y-135141133D01*
X146047934Y-134810933D01*
X146378134Y-134810933D01*
X146378134Y-135141133D01*
G37*
X146378134Y-135141133D02*
X146047934Y-135141133D01*
X146047934Y-134810933D01*
X146378134Y-134810933D01*
X146378134Y-135141133D01*
G36*
X147470333Y-135141133D02*
G01*
X147140133Y-135141133D01*
X147140133Y-134810933D01*
X147470333Y-134810933D01*
X147470333Y-135141133D01*
G37*
X147470333Y-135141133D02*
X147140133Y-135141133D01*
X147140133Y-134810933D01*
X147470333Y-134810933D01*
X147470333Y-135141133D01*
G36*
X148562534Y-135141133D02*
G01*
X148232334Y-135141133D01*
X148232334Y-134810933D01*
X148562534Y-134810933D01*
X148562534Y-135141133D01*
G37*
X148562534Y-135141133D02*
X148232334Y-135141133D01*
X148232334Y-134810933D01*
X148562534Y-134810933D01*
X148562534Y-135141133D01*
G36*
X150746933Y-135141133D02*
G01*
X150416733Y-135141133D01*
X150416733Y-134810933D01*
X150746933Y-134810933D01*
X150746933Y-135141133D01*
G37*
X150746933Y-135141133D02*
X150416733Y-135141133D01*
X150416733Y-134810933D01*
X150746933Y-134810933D01*
X150746933Y-135141133D01*
G36*
X151111000Y-135141133D02*
G01*
X150780800Y-135141133D01*
X150780800Y-134810933D01*
X151111000Y-134810933D01*
X151111000Y-135141133D01*
G37*
X151111000Y-135141133D02*
X150780800Y-135141133D01*
X150780800Y-134810933D01*
X151111000Y-134810933D01*
X151111000Y-135141133D01*
G36*
X151475067Y-135141133D02*
G01*
X151144867Y-135141133D01*
X151144867Y-134810933D01*
X151475067Y-134810933D01*
X151475067Y-135141133D01*
G37*
X151475067Y-135141133D02*
X151144867Y-135141133D01*
X151144867Y-134810933D01*
X151475067Y-134810933D01*
X151475067Y-135141133D01*
G36*
X152567267Y-135141133D02*
G01*
X152237067Y-135141133D01*
X152237067Y-134810933D01*
X152567267Y-134810933D01*
X152567267Y-135141133D01*
G37*
X152567267Y-135141133D02*
X152237067Y-135141133D01*
X152237067Y-134810933D01*
X152567267Y-134810933D01*
X152567267Y-135141133D01*
G36*
X153659467Y-135141133D02*
G01*
X153329267Y-135141133D01*
X153329267Y-134810933D01*
X153659467Y-134810933D01*
X153659467Y-135141133D01*
G37*
X153659467Y-135141133D02*
X153329267Y-135141133D01*
X153329267Y-134810933D01*
X153659467Y-134810933D01*
X153659467Y-135141133D01*
G36*
X154751667Y-135141133D02*
G01*
X154421467Y-135141133D01*
X154421467Y-134810933D01*
X154751667Y-134810933D01*
X154751667Y-135141133D01*
G37*
X154751667Y-135141133D02*
X154421467Y-135141133D01*
X154421467Y-134810933D01*
X154751667Y-134810933D01*
X154751667Y-135141133D01*
G36*
X155843867Y-135141133D02*
G01*
X155513667Y-135141133D01*
X155513667Y-134810933D01*
X155843867Y-134810933D01*
X155843867Y-135141133D01*
G37*
X155843867Y-135141133D02*
X155513667Y-135141133D01*
X155513667Y-134810933D01*
X155843867Y-134810933D01*
X155843867Y-135141133D01*
G36*
X156207934Y-135141133D02*
G01*
X155877734Y-135141133D01*
X155877734Y-134810933D01*
X156207934Y-134810933D01*
X156207934Y-135141133D01*
G37*
X156207934Y-135141133D02*
X155877734Y-135141133D01*
X155877734Y-134810933D01*
X156207934Y-134810933D01*
X156207934Y-135141133D01*
G36*
X146014067Y-134777067D02*
G01*
X145683867Y-134777067D01*
X145683867Y-134446867D01*
X146014067Y-134446867D01*
X146014067Y-134777067D01*
G37*
X146014067Y-134777067D02*
X145683867Y-134777067D01*
X145683867Y-134446867D01*
X146014067Y-134446867D01*
X146014067Y-134777067D01*
G36*
X148926600Y-134777067D02*
G01*
X148596400Y-134777067D01*
X148596400Y-134446867D01*
X148926600Y-134446867D01*
X148926600Y-134777067D01*
G37*
X148926600Y-134777067D02*
X148596400Y-134777067D01*
X148596400Y-134446867D01*
X148926600Y-134446867D01*
X148926600Y-134777067D01*
G36*
X150746933Y-134777067D02*
G01*
X150416733Y-134777067D01*
X150416733Y-134446867D01*
X150746933Y-134446867D01*
X150746933Y-134777067D01*
G37*
X150746933Y-134777067D02*
X150416733Y-134777067D01*
X150416733Y-134446867D01*
X150746933Y-134446867D01*
X150746933Y-134777067D01*
G36*
X151839133Y-134777067D02*
G01*
X151508933Y-134777067D01*
X151508933Y-134446867D01*
X151839133Y-134446867D01*
X151839133Y-134777067D01*
G37*
X151839133Y-134777067D02*
X151508933Y-134777067D01*
X151508933Y-134446867D01*
X151839133Y-134446867D01*
X151839133Y-134777067D01*
G36*
X152567267Y-134777067D02*
G01*
X152237067Y-134777067D01*
X152237067Y-134446867D01*
X152567267Y-134446867D01*
X152567267Y-134777067D01*
G37*
X152567267Y-134777067D02*
X152237067Y-134777067D01*
X152237067Y-134446867D01*
X152567267Y-134446867D01*
X152567267Y-134777067D01*
G36*
X153659467Y-134777067D02*
G01*
X153329267Y-134777067D01*
X153329267Y-134446867D01*
X153659467Y-134446867D01*
X153659467Y-134777067D01*
G37*
X153659467Y-134777067D02*
X153329267Y-134777067D01*
X153329267Y-134446867D01*
X153659467Y-134446867D01*
X153659467Y-134777067D01*
G36*
X154751667Y-134777067D02*
G01*
X154421467Y-134777067D01*
X154421467Y-134446867D01*
X154751667Y-134446867D01*
X154751667Y-134777067D01*
G37*
X154751667Y-134777067D02*
X154421467Y-134777067D01*
X154421467Y-134446867D01*
X154751667Y-134446867D01*
X154751667Y-134777067D01*
G36*
X155479800Y-134777067D02*
G01*
X155149600Y-134777067D01*
X155149600Y-134446867D01*
X155479800Y-134446867D01*
X155479800Y-134777067D01*
G37*
X155479800Y-134777067D02*
X155149600Y-134777067D01*
X155149600Y-134446867D01*
X155479800Y-134446867D01*
X155479800Y-134777067D01*
G36*
X145650000Y-134413000D02*
G01*
X145319800Y-134413000D01*
X145319800Y-134082800D01*
X145650000Y-134082800D01*
X145650000Y-134413000D01*
G37*
X145650000Y-134413000D02*
X145319800Y-134413000D01*
X145319800Y-134082800D01*
X145650000Y-134082800D01*
X145650000Y-134413000D01*
G36*
X149290667Y-134413000D02*
G01*
X148960467Y-134413000D01*
X148960467Y-134082800D01*
X149290667Y-134082800D01*
X149290667Y-134413000D01*
G37*
X149290667Y-134413000D02*
X148960467Y-134413000D01*
X148960467Y-134082800D01*
X149290667Y-134082800D01*
X149290667Y-134413000D01*
G36*
X150746933Y-134413000D02*
G01*
X150416733Y-134413000D01*
X150416733Y-134082800D01*
X150746933Y-134082800D01*
X150746933Y-134413000D01*
G37*
X150746933Y-134413000D02*
X150416733Y-134413000D01*
X150416733Y-134082800D01*
X150746933Y-134082800D01*
X150746933Y-134413000D01*
G36*
X151839133Y-134413000D02*
G01*
X151508933Y-134413000D01*
X151508933Y-134082800D01*
X151839133Y-134082800D01*
X151839133Y-134413000D01*
G37*
X151839133Y-134413000D02*
X151508933Y-134413000D01*
X151508933Y-134082800D01*
X151839133Y-134082800D01*
X151839133Y-134413000D01*
G36*
X152567267Y-134413000D02*
G01*
X152237067Y-134413000D01*
X152237067Y-134082800D01*
X152567267Y-134082800D01*
X152567267Y-134413000D01*
G37*
X152567267Y-134413000D02*
X152237067Y-134413000D01*
X152237067Y-134082800D01*
X152567267Y-134082800D01*
X152567267Y-134413000D01*
G36*
X153659467Y-134413000D02*
G01*
X153329267Y-134413000D01*
X153329267Y-134082800D01*
X153659467Y-134082800D01*
X153659467Y-134413000D01*
G37*
X153659467Y-134413000D02*
X153329267Y-134413000D01*
X153329267Y-134082800D01*
X153659467Y-134082800D01*
X153659467Y-134413000D01*
G36*
X154751667Y-134413000D02*
G01*
X154421467Y-134413000D01*
X154421467Y-134082800D01*
X154751667Y-134082800D01*
X154751667Y-134413000D01*
G37*
X154751667Y-134413000D02*
X154421467Y-134413000D01*
X154421467Y-134082800D01*
X154751667Y-134082800D01*
X154751667Y-134413000D01*
G36*
X155843867Y-134413000D02*
G01*
X155513667Y-134413000D01*
X155513667Y-134082800D01*
X155843867Y-134082800D01*
X155843867Y-134413000D01*
G37*
X155843867Y-134413000D02*
X155513667Y-134413000D01*
X155513667Y-134082800D01*
X155843867Y-134082800D01*
X155843867Y-134413000D01*
G36*
X156207934Y-134413000D02*
G01*
X155877734Y-134413000D01*
X155877734Y-134082800D01*
X156207934Y-134082800D01*
X156207934Y-134413000D01*
G37*
X156207934Y-134413000D02*
X155877734Y-134413000D01*
X155877734Y-134082800D01*
X156207934Y-134082800D01*
X156207934Y-134413000D01*
G36*
X156572000Y-134413000D02*
G01*
X156241800Y-134413000D01*
X156241800Y-134082800D01*
X156572000Y-134082800D01*
X156572000Y-134413000D01*
G37*
X156572000Y-134413000D02*
X156241800Y-134413000D01*
X156241800Y-134082800D01*
X156572000Y-134082800D01*
X156572000Y-134413000D01*
G36*
X145285933Y-134048934D02*
G01*
X144955734Y-134048934D01*
X144955734Y-133718734D01*
X145285933Y-133718734D01*
X145285933Y-134048934D01*
G37*
X145285933Y-134048934D02*
X144955734Y-134048934D01*
X144955734Y-133718734D01*
X145285933Y-133718734D01*
X145285933Y-134048934D01*
G36*
X147470333Y-134048934D02*
G01*
X147140133Y-134048934D01*
X147140133Y-133718734D01*
X147470333Y-133718734D01*
X147470333Y-134048934D01*
G37*
X147470333Y-134048934D02*
X147140133Y-134048934D01*
X147140133Y-133718734D01*
X147470333Y-133718734D01*
X147470333Y-134048934D01*
G36*
X149654734Y-134048934D02*
G01*
X149324534Y-134048934D01*
X149324534Y-133718734D01*
X149654734Y-133718734D01*
X149654734Y-134048934D01*
G37*
X149654734Y-134048934D02*
X149324534Y-134048934D01*
X149324534Y-133718734D01*
X149654734Y-133718734D01*
X149654734Y-134048934D01*
G36*
X150746933Y-134048934D02*
G01*
X150416733Y-134048934D01*
X150416733Y-133718734D01*
X150746933Y-133718734D01*
X150746933Y-134048934D01*
G37*
X150746933Y-134048934D02*
X150416733Y-134048934D01*
X150416733Y-133718734D01*
X150746933Y-133718734D01*
X150746933Y-134048934D01*
G36*
X151111000Y-134048934D02*
G01*
X150780800Y-134048934D01*
X150780800Y-133718734D01*
X151111000Y-133718734D01*
X151111000Y-134048934D01*
G37*
X151111000Y-134048934D02*
X150780800Y-134048934D01*
X150780800Y-133718734D01*
X151111000Y-133718734D01*
X151111000Y-134048934D01*
G36*
X151475067Y-134048934D02*
G01*
X151144867Y-134048934D01*
X151144867Y-133718734D01*
X151475067Y-133718734D01*
X151475067Y-134048934D01*
G37*
X151475067Y-134048934D02*
X151144867Y-134048934D01*
X151144867Y-133718734D01*
X151475067Y-133718734D01*
X151475067Y-134048934D01*
G36*
X152567267Y-134048934D02*
G01*
X152237067Y-134048934D01*
X152237067Y-133718734D01*
X152567267Y-133718734D01*
X152567267Y-134048934D01*
G37*
X152567267Y-134048934D02*
X152237067Y-134048934D01*
X152237067Y-133718734D01*
X152567267Y-133718734D01*
X152567267Y-134048934D01*
G36*
X144921867Y-133684867D02*
G01*
X144591667Y-133684867D01*
X144591667Y-133354667D01*
X144921867Y-133354667D01*
X144921867Y-133684867D01*
G37*
X144921867Y-133684867D02*
X144591667Y-133684867D01*
X144591667Y-133354667D01*
X144921867Y-133354667D01*
X144921867Y-133684867D01*
G36*
X147106267Y-133684867D02*
G01*
X146776067Y-133684867D01*
X146776067Y-133354667D01*
X147106267Y-133354667D01*
X147106267Y-133684867D01*
G37*
X147106267Y-133684867D02*
X146776067Y-133684867D01*
X146776067Y-133354667D01*
X147106267Y-133354667D01*
X147106267Y-133684867D01*
G36*
X147834400Y-133684867D02*
G01*
X147504200Y-133684867D01*
X147504200Y-133354667D01*
X147834400Y-133354667D01*
X147834400Y-133684867D01*
G37*
X147834400Y-133684867D02*
X147504200Y-133684867D01*
X147504200Y-133354667D01*
X147834400Y-133354667D01*
X147834400Y-133684867D01*
G36*
X150018800Y-133684867D02*
G01*
X149688600Y-133684867D01*
X149688600Y-133354667D01*
X150018800Y-133354667D01*
X150018800Y-133684867D01*
G37*
X150018800Y-133684867D02*
X149688600Y-133684867D01*
X149688600Y-133354667D01*
X150018800Y-133354667D01*
X150018800Y-133684867D01*
G36*
X144557800Y-133320800D02*
G01*
X144227600Y-133320800D01*
X144227600Y-132990600D01*
X144557800Y-132990600D01*
X144557800Y-133320800D01*
G37*
X144557800Y-133320800D02*
X144227600Y-133320800D01*
X144227600Y-132990600D01*
X144557800Y-132990600D01*
X144557800Y-133320800D01*
G36*
X145650000Y-133320800D02*
G01*
X145319800Y-133320800D01*
X145319800Y-132990600D01*
X145650000Y-132990600D01*
X145650000Y-133320800D01*
G37*
X145650000Y-133320800D02*
X145319800Y-133320800D01*
X145319800Y-132990600D01*
X145650000Y-132990600D01*
X145650000Y-133320800D01*
G36*
X147470333Y-133320800D02*
G01*
X147140133Y-133320800D01*
X147140133Y-132990600D01*
X147470333Y-132990600D01*
X147470333Y-133320800D01*
G37*
X147470333Y-133320800D02*
X147140133Y-133320800D01*
X147140133Y-132990600D01*
X147470333Y-132990600D01*
X147470333Y-133320800D01*
G36*
X150382867Y-133320800D02*
G01*
X150052667Y-133320800D01*
X150052667Y-132990600D01*
X150382867Y-132990600D01*
X150382867Y-133320800D01*
G37*
X150382867Y-133320800D02*
X150052667Y-133320800D01*
X150052667Y-132990600D01*
X150382867Y-132990600D01*
X150382867Y-133320800D01*
G36*
X151839133Y-133320800D02*
G01*
X151508933Y-133320800D01*
X151508933Y-132990600D01*
X151839133Y-132990600D01*
X151839133Y-133320800D01*
G37*
X151839133Y-133320800D02*
X151508933Y-133320800D01*
X151508933Y-132990600D01*
X151839133Y-132990600D01*
X151839133Y-133320800D01*
G36*
X152203200Y-133320800D02*
G01*
X151873000Y-133320800D01*
X151873000Y-132990600D01*
X152203200Y-132990600D01*
X152203200Y-133320800D01*
G37*
X152203200Y-133320800D02*
X151873000Y-133320800D01*
X151873000Y-132990600D01*
X152203200Y-132990600D01*
X152203200Y-133320800D01*
G36*
X153659467Y-133320800D02*
G01*
X153329267Y-133320800D01*
X153329267Y-132990600D01*
X153659467Y-132990600D01*
X153659467Y-133320800D01*
G37*
X153659467Y-133320800D02*
X153329267Y-133320800D01*
X153329267Y-132990600D01*
X153659467Y-132990600D01*
X153659467Y-133320800D01*
G36*
X154387600Y-133320800D02*
G01*
X154057400Y-133320800D01*
X154057400Y-132990600D01*
X154387600Y-132990600D01*
X154387600Y-133320800D01*
G37*
X154387600Y-133320800D02*
X154057400Y-133320800D01*
X154057400Y-132990600D01*
X154387600Y-132990600D01*
X154387600Y-133320800D01*
G36*
X154751667Y-133320800D02*
G01*
X154421467Y-133320800D01*
X154421467Y-132990600D01*
X154751667Y-132990600D01*
X154751667Y-133320800D01*
G37*
X154751667Y-133320800D02*
X154421467Y-133320800D01*
X154421467Y-132990600D01*
X154751667Y-132990600D01*
X154751667Y-133320800D01*
G36*
X155115734Y-133320800D02*
G01*
X154785534Y-133320800D01*
X154785534Y-132990600D01*
X155115734Y-132990600D01*
X155115734Y-133320800D01*
G37*
X155115734Y-133320800D02*
X154785534Y-133320800D01*
X154785534Y-132990600D01*
X155115734Y-132990600D01*
X155115734Y-133320800D01*
G36*
X155843867Y-133320800D02*
G01*
X155513667Y-133320800D01*
X155513667Y-132990600D01*
X155843867Y-132990600D01*
X155843867Y-133320800D01*
G37*
X155843867Y-133320800D02*
X155513667Y-133320800D01*
X155513667Y-132990600D01*
X155843867Y-132990600D01*
X155843867Y-133320800D01*
G36*
X156936067Y-133320800D02*
G01*
X156605867Y-133320800D01*
X156605867Y-132990600D01*
X156936067Y-132990600D01*
X156936067Y-133320800D01*
G37*
X156936067Y-133320800D02*
X156605867Y-133320800D01*
X156605867Y-132990600D01*
X156936067Y-132990600D01*
X156936067Y-133320800D01*
G36*
X157300133Y-133320800D02*
G01*
X156969933Y-133320800D01*
X156969933Y-132990600D01*
X157300133Y-132990600D01*
X157300133Y-133320800D01*
G37*
X157300133Y-133320800D02*
X156969933Y-133320800D01*
X156969933Y-132990600D01*
X157300133Y-132990600D01*
X157300133Y-133320800D01*
G36*
X157664200Y-133320800D02*
G01*
X157334000Y-133320800D01*
X157334000Y-132990600D01*
X157664200Y-132990600D01*
X157664200Y-133320800D01*
G37*
X157664200Y-133320800D02*
X157334000Y-133320800D01*
X157334000Y-132990600D01*
X157664200Y-132990600D01*
X157664200Y-133320800D01*
G36*
X158756400Y-133320800D02*
G01*
X158426200Y-133320800D01*
X158426200Y-132990600D01*
X158756400Y-132990600D01*
X158756400Y-133320800D01*
G37*
X158756400Y-133320800D02*
X158426200Y-133320800D01*
X158426200Y-132990600D01*
X158756400Y-132990600D01*
X158756400Y-133320800D01*
G36*
X159120467Y-133320800D02*
G01*
X158790267Y-133320800D01*
X158790267Y-132990600D01*
X159120467Y-132990600D01*
X159120467Y-133320800D01*
G37*
X159120467Y-133320800D02*
X158790267Y-133320800D01*
X158790267Y-132990600D01*
X159120467Y-132990600D01*
X159120467Y-133320800D01*
G36*
X159484533Y-133320800D02*
G01*
X159154333Y-133320800D01*
X159154333Y-132990600D01*
X159484533Y-132990600D01*
X159484533Y-133320800D01*
G37*
X159484533Y-133320800D02*
X159154333Y-133320800D01*
X159154333Y-132990600D01*
X159484533Y-132990600D01*
X159484533Y-133320800D01*
G36*
X146014067Y-132956734D02*
G01*
X145683867Y-132956734D01*
X145683867Y-132626534D01*
X146014067Y-132626534D01*
X146014067Y-132956734D01*
G37*
X146014067Y-132956734D02*
X145683867Y-132956734D01*
X145683867Y-132626534D01*
X146014067Y-132626534D01*
X146014067Y-132956734D01*
G36*
X149290667Y-132956734D02*
G01*
X148960467Y-132956734D01*
X148960467Y-132626534D01*
X149290667Y-132626534D01*
X149290667Y-132956734D01*
G37*
X149290667Y-132956734D02*
X148960467Y-132956734D01*
X148960467Y-132626534D01*
X149290667Y-132626534D01*
X149290667Y-132956734D01*
G36*
X150746933Y-132956734D02*
G01*
X150416733Y-132956734D01*
X150416733Y-132626534D01*
X150746933Y-132626534D01*
X150746933Y-132956734D01*
G37*
X150746933Y-132956734D02*
X150416733Y-132956734D01*
X150416733Y-132626534D01*
X150746933Y-132626534D01*
X150746933Y-132956734D01*
G36*
X152567267Y-132956734D02*
G01*
X152237067Y-132956734D01*
X152237067Y-132626534D01*
X152567267Y-132626534D01*
X152567267Y-132956734D01*
G37*
X152567267Y-132956734D02*
X152237067Y-132956734D01*
X152237067Y-132626534D01*
X152567267Y-132626534D01*
X152567267Y-132956734D01*
G36*
X154023534Y-132956734D02*
G01*
X153693334Y-132956734D01*
X153693334Y-132626534D01*
X154023534Y-132626534D01*
X154023534Y-132956734D01*
G37*
X154023534Y-132956734D02*
X153693334Y-132956734D01*
X153693334Y-132626534D01*
X154023534Y-132626534D01*
X154023534Y-132956734D01*
G36*
X155115734Y-132956734D02*
G01*
X154785534Y-132956734D01*
X154785534Y-132626534D01*
X155115734Y-132626534D01*
X155115734Y-132956734D01*
G37*
X155115734Y-132956734D02*
X154785534Y-132956734D01*
X154785534Y-132626534D01*
X155115734Y-132626534D01*
X155115734Y-132956734D01*
G36*
X155843867Y-132956734D02*
G01*
X155513667Y-132956734D01*
X155513667Y-132626534D01*
X155843867Y-132626534D01*
X155843867Y-132956734D01*
G37*
X155843867Y-132956734D02*
X155513667Y-132956734D01*
X155513667Y-132626534D01*
X155843867Y-132626534D01*
X155843867Y-132956734D01*
G36*
X156572000Y-132956734D02*
G01*
X156241800Y-132956734D01*
X156241800Y-132626534D01*
X156572000Y-132626534D01*
X156572000Y-132956734D01*
G37*
X156572000Y-132956734D02*
X156241800Y-132956734D01*
X156241800Y-132626534D01*
X156572000Y-132626534D01*
X156572000Y-132956734D01*
G36*
X158392333Y-132956734D02*
G01*
X158062133Y-132956734D01*
X158062133Y-132626534D01*
X158392333Y-132626534D01*
X158392333Y-132956734D01*
G37*
X158392333Y-132956734D02*
X158062133Y-132956734D01*
X158062133Y-132626534D01*
X158392333Y-132626534D01*
X158392333Y-132956734D01*
G36*
X144557800Y-132592667D02*
G01*
X144227600Y-132592667D01*
X144227600Y-132262467D01*
X144557800Y-132262467D01*
X144557800Y-132592667D01*
G37*
X144557800Y-132592667D02*
X144227600Y-132592667D01*
X144227600Y-132262467D01*
X144557800Y-132262467D01*
X144557800Y-132592667D01*
G36*
X147834400Y-132592667D02*
G01*
X147504200Y-132592667D01*
X147504200Y-132262467D01*
X147834400Y-132262467D01*
X147834400Y-132592667D01*
G37*
X147834400Y-132592667D02*
X147504200Y-132592667D01*
X147504200Y-132262467D01*
X147834400Y-132262467D01*
X147834400Y-132592667D01*
G36*
X148198467Y-132592667D02*
G01*
X147868267Y-132592667D01*
X147868267Y-132262467D01*
X148198467Y-132262467D01*
X148198467Y-132592667D01*
G37*
X148198467Y-132592667D02*
X147868267Y-132592667D01*
X147868267Y-132262467D01*
X148198467Y-132262467D01*
X148198467Y-132592667D01*
G36*
X150382867Y-132592667D02*
G01*
X150052667Y-132592667D01*
X150052667Y-132262467D01*
X150382867Y-132262467D01*
X150382867Y-132592667D01*
G37*
X150382867Y-132592667D02*
X150052667Y-132592667D01*
X150052667Y-132262467D01*
X150382867Y-132262467D01*
X150382867Y-132592667D01*
G36*
X151111000Y-132592667D02*
G01*
X150780800Y-132592667D01*
X150780800Y-132262467D01*
X151111000Y-132262467D01*
X151111000Y-132592667D01*
G37*
X151111000Y-132592667D02*
X150780800Y-132592667D01*
X150780800Y-132262467D01*
X151111000Y-132262467D01*
X151111000Y-132592667D01*
G36*
X152567267Y-132592667D02*
G01*
X152237067Y-132592667D01*
X152237067Y-132262467D01*
X152567267Y-132262467D01*
X152567267Y-132592667D01*
G37*
X152567267Y-132592667D02*
X152237067Y-132592667D01*
X152237067Y-132262467D01*
X152567267Y-132262467D01*
X152567267Y-132592667D01*
G36*
X154023534Y-132592667D02*
G01*
X153693334Y-132592667D01*
X153693334Y-132262467D01*
X154023534Y-132262467D01*
X154023534Y-132592667D01*
G37*
X154023534Y-132592667D02*
X153693334Y-132592667D01*
X153693334Y-132262467D01*
X154023534Y-132262467D01*
X154023534Y-132592667D01*
G36*
X155115734Y-132592667D02*
G01*
X154785534Y-132592667D01*
X154785534Y-132262467D01*
X155115734Y-132262467D01*
X155115734Y-132592667D01*
G37*
X155115734Y-132592667D02*
X154785534Y-132592667D01*
X154785534Y-132262467D01*
X155115734Y-132262467D01*
X155115734Y-132592667D01*
G36*
X155843867Y-132592667D02*
G01*
X155513667Y-132592667D01*
X155513667Y-132262467D01*
X155843867Y-132262467D01*
X155843867Y-132592667D01*
G37*
X155843867Y-132592667D02*
X155513667Y-132592667D01*
X155513667Y-132262467D01*
X155843867Y-132262467D01*
X155843867Y-132592667D01*
G36*
X156572000Y-132592667D02*
G01*
X156241800Y-132592667D01*
X156241800Y-132262467D01*
X156572000Y-132262467D01*
X156572000Y-132592667D01*
G37*
X156572000Y-132592667D02*
X156241800Y-132592667D01*
X156241800Y-132262467D01*
X156572000Y-132262467D01*
X156572000Y-132592667D01*
G36*
X158392333Y-132592667D02*
G01*
X158062133Y-132592667D01*
X158062133Y-132262467D01*
X158392333Y-132262467D01*
X158392333Y-132592667D01*
G37*
X158392333Y-132592667D02*
X158062133Y-132592667D01*
X158062133Y-132262467D01*
X158392333Y-132262467D01*
X158392333Y-132592667D01*
G36*
X158756400Y-132592667D02*
G01*
X158426200Y-132592667D01*
X158426200Y-132262467D01*
X158756400Y-132262467D01*
X158756400Y-132592667D01*
G37*
X158756400Y-132592667D02*
X158426200Y-132592667D01*
X158426200Y-132262467D01*
X158756400Y-132262467D01*
X158756400Y-132592667D01*
G36*
X159120467Y-132592667D02*
G01*
X158790267Y-132592667D01*
X158790267Y-132262467D01*
X159120467Y-132262467D01*
X159120467Y-132592667D01*
G37*
X159120467Y-132592667D02*
X158790267Y-132592667D01*
X158790267Y-132262467D01*
X159120467Y-132262467D01*
X159120467Y-132592667D01*
G36*
X159484533Y-132592667D02*
G01*
X159154333Y-132592667D01*
X159154333Y-132262467D01*
X159484533Y-132262467D01*
X159484533Y-132592667D01*
G37*
X159484533Y-132592667D02*
X159154333Y-132592667D01*
X159154333Y-132262467D01*
X159484533Y-132262467D01*
X159484533Y-132592667D01*
G36*
X144921867Y-132228600D02*
G01*
X144591667Y-132228600D01*
X144591667Y-131898400D01*
X144921867Y-131898400D01*
X144921867Y-132228600D01*
G37*
X144921867Y-132228600D02*
X144591667Y-132228600D01*
X144591667Y-131898400D01*
X144921867Y-131898400D01*
X144921867Y-132228600D01*
G36*
X145650000Y-132228600D02*
G01*
X145319800Y-132228600D01*
X145319800Y-131898400D01*
X145650000Y-131898400D01*
X145650000Y-132228600D01*
G37*
X145650000Y-132228600D02*
X145319800Y-132228600D01*
X145319800Y-131898400D01*
X145650000Y-131898400D01*
X145650000Y-132228600D01*
G36*
X146014067Y-132228600D02*
G01*
X145683867Y-132228600D01*
X145683867Y-131898400D01*
X146014067Y-131898400D01*
X146014067Y-132228600D01*
G37*
X146014067Y-132228600D02*
X145683867Y-132228600D01*
X145683867Y-131898400D01*
X146014067Y-131898400D01*
X146014067Y-132228600D01*
G36*
X146742200Y-132228600D02*
G01*
X146412000Y-132228600D01*
X146412000Y-131898400D01*
X146742200Y-131898400D01*
X146742200Y-132228600D01*
G37*
X146742200Y-132228600D02*
X146412000Y-132228600D01*
X146412000Y-131898400D01*
X146742200Y-131898400D01*
X146742200Y-132228600D01*
G36*
X147106267Y-132228600D02*
G01*
X146776067Y-132228600D01*
X146776067Y-131898400D01*
X147106267Y-131898400D01*
X147106267Y-132228600D01*
G37*
X147106267Y-132228600D02*
X146776067Y-132228600D01*
X146776067Y-131898400D01*
X147106267Y-131898400D01*
X147106267Y-132228600D01*
G36*
X147470333Y-132228600D02*
G01*
X147140133Y-132228600D01*
X147140133Y-131898400D01*
X147470333Y-131898400D01*
X147470333Y-132228600D01*
G37*
X147470333Y-132228600D02*
X147140133Y-132228600D01*
X147140133Y-131898400D01*
X147470333Y-131898400D01*
X147470333Y-132228600D01*
G36*
X148562534Y-132228600D02*
G01*
X148232334Y-132228600D01*
X148232334Y-131898400D01*
X148562534Y-131898400D01*
X148562534Y-132228600D01*
G37*
X148562534Y-132228600D02*
X148232334Y-132228600D01*
X148232334Y-131898400D01*
X148562534Y-131898400D01*
X148562534Y-132228600D01*
G36*
X148926600Y-132228600D02*
G01*
X148596400Y-132228600D01*
X148596400Y-131898400D01*
X148926600Y-131898400D01*
X148926600Y-132228600D01*
G37*
X148926600Y-132228600D02*
X148596400Y-132228600D01*
X148596400Y-131898400D01*
X148926600Y-131898400D01*
X148926600Y-132228600D01*
G36*
X149290667Y-132228600D02*
G01*
X148960467Y-132228600D01*
X148960467Y-131898400D01*
X149290667Y-131898400D01*
X149290667Y-132228600D01*
G37*
X149290667Y-132228600D02*
X148960467Y-132228600D01*
X148960467Y-131898400D01*
X149290667Y-131898400D01*
X149290667Y-132228600D01*
G36*
X149654734Y-132228600D02*
G01*
X149324534Y-132228600D01*
X149324534Y-131898400D01*
X149654734Y-131898400D01*
X149654734Y-132228600D01*
G37*
X149654734Y-132228600D02*
X149324534Y-132228600D01*
X149324534Y-131898400D01*
X149654734Y-131898400D01*
X149654734Y-132228600D01*
G36*
X150018800Y-132228600D02*
G01*
X149688600Y-132228600D01*
X149688600Y-131898400D01*
X150018800Y-131898400D01*
X150018800Y-132228600D01*
G37*
X150018800Y-132228600D02*
X149688600Y-132228600D01*
X149688600Y-131898400D01*
X150018800Y-131898400D01*
X150018800Y-132228600D01*
G36*
X152567267Y-132228600D02*
G01*
X152237067Y-132228600D01*
X152237067Y-131898400D01*
X152567267Y-131898400D01*
X152567267Y-132228600D01*
G37*
X152567267Y-132228600D02*
X152237067Y-132228600D01*
X152237067Y-131898400D01*
X152567267Y-131898400D01*
X152567267Y-132228600D01*
G36*
X154023534Y-132228600D02*
G01*
X153693334Y-132228600D01*
X153693334Y-131898400D01*
X154023534Y-131898400D01*
X154023534Y-132228600D01*
G37*
X154023534Y-132228600D02*
X153693334Y-132228600D01*
X153693334Y-131898400D01*
X154023534Y-131898400D01*
X154023534Y-132228600D01*
G36*
X155115734Y-132228600D02*
G01*
X154785534Y-132228600D01*
X154785534Y-131898400D01*
X155115734Y-131898400D01*
X155115734Y-132228600D01*
G37*
X155115734Y-132228600D02*
X154785534Y-132228600D01*
X154785534Y-131898400D01*
X155115734Y-131898400D01*
X155115734Y-132228600D01*
G36*
X155843867Y-132228600D02*
G01*
X155513667Y-132228600D01*
X155513667Y-131898400D01*
X155843867Y-131898400D01*
X155843867Y-132228600D01*
G37*
X155843867Y-132228600D02*
X155513667Y-132228600D01*
X155513667Y-131898400D01*
X155843867Y-131898400D01*
X155843867Y-132228600D01*
G36*
X156572000Y-132228600D02*
G01*
X156241800Y-132228600D01*
X156241800Y-131898400D01*
X156572000Y-131898400D01*
X156572000Y-132228600D01*
G37*
X156572000Y-132228600D02*
X156241800Y-132228600D01*
X156241800Y-131898400D01*
X156572000Y-131898400D01*
X156572000Y-132228600D01*
G36*
X158392333Y-132228600D02*
G01*
X158062133Y-132228600D01*
X158062133Y-131898400D01*
X158392333Y-131898400D01*
X158392333Y-132228600D01*
G37*
X158392333Y-132228600D02*
X158062133Y-132228600D01*
X158062133Y-131898400D01*
X158392333Y-131898400D01*
X158392333Y-132228600D01*
G36*
X159848600Y-132228600D02*
G01*
X159518400Y-132228600D01*
X159518400Y-131898400D01*
X159848600Y-131898400D01*
X159848600Y-132228600D01*
G37*
X159848600Y-132228600D02*
X159518400Y-132228600D01*
X159518400Y-131898400D01*
X159848600Y-131898400D01*
X159848600Y-132228600D01*
G36*
X145285933Y-131864533D02*
G01*
X144955734Y-131864533D01*
X144955734Y-131534333D01*
X145285933Y-131534333D01*
X145285933Y-131864533D01*
G37*
X145285933Y-131864533D02*
X144955734Y-131864533D01*
X144955734Y-131534333D01*
X145285933Y-131534333D01*
X145285933Y-131864533D01*
G36*
X146378134Y-131864533D02*
G01*
X146047934Y-131864533D01*
X146047934Y-131534333D01*
X146378134Y-131534333D01*
X146378134Y-131864533D01*
G37*
X146378134Y-131864533D02*
X146047934Y-131864533D01*
X146047934Y-131534333D01*
X146378134Y-131534333D01*
X146378134Y-131864533D01*
G36*
X151111000Y-131864533D02*
G01*
X150780800Y-131864533D01*
X150780800Y-131534333D01*
X151111000Y-131534333D01*
X151111000Y-131864533D01*
G37*
X151111000Y-131864533D02*
X150780800Y-131864533D01*
X150780800Y-131534333D01*
X151111000Y-131534333D01*
X151111000Y-131864533D01*
G36*
X152567267Y-131864533D02*
G01*
X152237067Y-131864533D01*
X152237067Y-131534333D01*
X152567267Y-131534333D01*
X152567267Y-131864533D01*
G37*
X152567267Y-131864533D02*
X152237067Y-131864533D01*
X152237067Y-131534333D01*
X152567267Y-131534333D01*
X152567267Y-131864533D01*
G36*
X154023534Y-131864533D02*
G01*
X153693334Y-131864533D01*
X153693334Y-131534333D01*
X154023534Y-131534333D01*
X154023534Y-131864533D01*
G37*
X154023534Y-131864533D02*
X153693334Y-131864533D01*
X153693334Y-131534333D01*
X154023534Y-131534333D01*
X154023534Y-131864533D01*
G36*
X155115734Y-131864533D02*
G01*
X154785534Y-131864533D01*
X154785534Y-131534333D01*
X155115734Y-131534333D01*
X155115734Y-131864533D01*
G37*
X155115734Y-131864533D02*
X154785534Y-131864533D01*
X154785534Y-131534333D01*
X155115734Y-131534333D01*
X155115734Y-131864533D01*
G36*
X156936067Y-131864533D02*
G01*
X156605867Y-131864533D01*
X156605867Y-131534333D01*
X156936067Y-131534333D01*
X156936067Y-131864533D01*
G37*
X156936067Y-131864533D02*
X156605867Y-131864533D01*
X156605867Y-131534333D01*
X156936067Y-131534333D01*
X156936067Y-131864533D01*
G36*
X157300133Y-131864533D02*
G01*
X156969933Y-131864533D01*
X156969933Y-131534333D01*
X157300133Y-131534333D01*
X157300133Y-131864533D01*
G37*
X157300133Y-131864533D02*
X156969933Y-131864533D01*
X156969933Y-131534333D01*
X157300133Y-131534333D01*
X157300133Y-131864533D01*
G36*
X157664200Y-131864533D02*
G01*
X157334000Y-131864533D01*
X157334000Y-131534333D01*
X157664200Y-131534333D01*
X157664200Y-131864533D01*
G37*
X157664200Y-131864533D02*
X157334000Y-131864533D01*
X157334000Y-131534333D01*
X157664200Y-131534333D01*
X157664200Y-131864533D01*
G36*
X158756400Y-131864533D02*
G01*
X158426200Y-131864533D01*
X158426200Y-131534333D01*
X158756400Y-131534333D01*
X158756400Y-131864533D01*
G37*
X158756400Y-131864533D02*
X158426200Y-131864533D01*
X158426200Y-131534333D01*
X158756400Y-131534333D01*
X158756400Y-131864533D01*
G36*
X159120467Y-131864533D02*
G01*
X158790267Y-131864533D01*
X158790267Y-131534333D01*
X159120467Y-131534333D01*
X159120467Y-131864533D01*
G37*
X159120467Y-131864533D02*
X158790267Y-131864533D01*
X158790267Y-131534333D01*
X159120467Y-131534333D01*
X159120467Y-131864533D01*
G36*
X159484533Y-131864533D02*
G01*
X159154333Y-131864533D01*
X159154333Y-131534333D01*
X159484533Y-131534333D01*
X159484533Y-131864533D01*
G37*
X159484533Y-131864533D02*
X159154333Y-131864533D01*
X159154333Y-131534333D01*
X159484533Y-131534333D01*
X159484533Y-131864533D01*
G36*
X145650000Y-131500467D02*
G01*
X145319800Y-131500467D01*
X145319800Y-131170267D01*
X145650000Y-131170267D01*
X145650000Y-131500467D01*
G37*
X145650000Y-131500467D02*
X145319800Y-131500467D01*
X145319800Y-131170267D01*
X145650000Y-131170267D01*
X145650000Y-131500467D01*
G36*
X150746933Y-131500467D02*
G01*
X150416733Y-131500467D01*
X150416733Y-131170267D01*
X150746933Y-131170267D01*
X150746933Y-131500467D01*
G37*
X150746933Y-131500467D02*
X150416733Y-131500467D01*
X150416733Y-131170267D01*
X150746933Y-131170267D01*
X150746933Y-131500467D01*
G36*
X151839133Y-131500467D02*
G01*
X151508933Y-131500467D01*
X151508933Y-131170267D01*
X151839133Y-131170267D01*
X151839133Y-131500467D01*
G37*
X151839133Y-131500467D02*
X151508933Y-131500467D01*
X151508933Y-131170267D01*
X151839133Y-131170267D01*
X151839133Y-131500467D01*
G36*
X152203200Y-131500467D02*
G01*
X151873000Y-131500467D01*
X151873000Y-131170267D01*
X152203200Y-131170267D01*
X152203200Y-131500467D01*
G37*
X152203200Y-131500467D02*
X151873000Y-131500467D01*
X151873000Y-131170267D01*
X152203200Y-131170267D01*
X152203200Y-131500467D01*
G36*
X152567267Y-131500467D02*
G01*
X152237067Y-131500467D01*
X152237067Y-131170267D01*
X152567267Y-131170267D01*
X152567267Y-131500467D01*
G37*
X152567267Y-131500467D02*
X152237067Y-131500467D01*
X152237067Y-131170267D01*
X152567267Y-131170267D01*
X152567267Y-131500467D01*
G36*
X152931334Y-131500467D02*
G01*
X152601134Y-131500467D01*
X152601134Y-131170267D01*
X152931334Y-131170267D01*
X152931334Y-131500467D01*
G37*
X152931334Y-131500467D02*
X152601134Y-131500467D01*
X152601134Y-131170267D01*
X152931334Y-131170267D01*
X152931334Y-131500467D01*
G36*
X153295400Y-131500467D02*
G01*
X152965200Y-131500467D01*
X152965200Y-131170267D01*
X153295400Y-131170267D01*
X153295400Y-131500467D01*
G37*
X153295400Y-131500467D02*
X152965200Y-131500467D01*
X152965200Y-131170267D01*
X153295400Y-131170267D01*
X153295400Y-131500467D01*
G36*
X155843867Y-131500467D02*
G01*
X155513667Y-131500467D01*
X155513667Y-131170267D01*
X155843867Y-131170267D01*
X155843867Y-131500467D01*
G37*
X155843867Y-131500467D02*
X155513667Y-131500467D01*
X155513667Y-131170267D01*
X155843867Y-131170267D01*
X155843867Y-131500467D01*
G36*
X146014067Y-131136400D02*
G01*
X145683867Y-131136400D01*
X145683867Y-130806200D01*
X146014067Y-130806200D01*
X146014067Y-131136400D01*
G37*
X146014067Y-131136400D02*
X145683867Y-131136400D01*
X145683867Y-130806200D01*
X146014067Y-130806200D01*
X146014067Y-131136400D01*
G36*
X150382867Y-131136400D02*
G01*
X150052667Y-131136400D01*
X150052667Y-130806200D01*
X150382867Y-130806200D01*
X150382867Y-131136400D01*
G37*
X150382867Y-131136400D02*
X150052667Y-131136400D01*
X150052667Y-130806200D01*
X150382867Y-130806200D01*
X150382867Y-131136400D01*
G36*
X146378134Y-130772334D02*
G01*
X146047934Y-130772334D01*
X146047934Y-130442134D01*
X146378134Y-130442134D01*
X146378134Y-130772334D01*
G37*
X146378134Y-130772334D02*
X146047934Y-130772334D01*
X146047934Y-130442134D01*
X146378134Y-130442134D01*
X146378134Y-130772334D01*
G36*
X150746933Y-130772334D02*
G01*
X150416733Y-130772334D01*
X150416733Y-130442134D01*
X150746933Y-130442134D01*
X150746933Y-130772334D01*
G37*
X150746933Y-130772334D02*
X150416733Y-130772334D01*
X150416733Y-130442134D01*
X150746933Y-130442134D01*
X150746933Y-130772334D01*
G36*
X151475067Y-130772334D02*
G01*
X151144867Y-130772334D01*
X151144867Y-130442134D01*
X151475067Y-130442134D01*
X151475067Y-130772334D01*
G37*
X151475067Y-130772334D02*
X151144867Y-130772334D01*
X151144867Y-130442134D01*
X151475067Y-130442134D01*
X151475067Y-130772334D01*
G36*
X152931334Y-130772334D02*
G01*
X152601134Y-130772334D01*
X152601134Y-130442134D01*
X152931334Y-130442134D01*
X152931334Y-130772334D01*
G37*
X152931334Y-130772334D02*
X152601134Y-130772334D01*
X152601134Y-130442134D01*
X152931334Y-130442134D01*
X152931334Y-130772334D01*
G36*
X153295400Y-130772334D02*
G01*
X152965200Y-130772334D01*
X152965200Y-130442134D01*
X153295400Y-130442134D01*
X153295400Y-130772334D01*
G37*
X153295400Y-130772334D02*
X152965200Y-130772334D01*
X152965200Y-130442134D01*
X153295400Y-130442134D01*
X153295400Y-130772334D01*
G36*
X153659467Y-130772334D02*
G01*
X153329267Y-130772334D01*
X153329267Y-130442134D01*
X153659467Y-130442134D01*
X153659467Y-130772334D01*
G37*
X153659467Y-130772334D02*
X153329267Y-130772334D01*
X153329267Y-130442134D01*
X153659467Y-130442134D01*
X153659467Y-130772334D01*
G36*
X146742200Y-130408267D02*
G01*
X146412000Y-130408267D01*
X146412000Y-130078067D01*
X146742200Y-130078067D01*
X146742200Y-130408267D01*
G37*
X146742200Y-130408267D02*
X146412000Y-130408267D01*
X146412000Y-130078067D01*
X146742200Y-130078067D01*
X146742200Y-130408267D01*
G36*
X151839133Y-130408267D02*
G01*
X151508933Y-130408267D01*
X151508933Y-130078067D01*
X151839133Y-130078067D01*
X151839133Y-130408267D01*
G37*
X151839133Y-130408267D02*
X151508933Y-130408267D01*
X151508933Y-130078067D01*
X151839133Y-130078067D01*
X151839133Y-130408267D01*
G36*
X152931334Y-130408267D02*
G01*
X152601134Y-130408267D01*
X152601134Y-130078067D01*
X152931334Y-130078067D01*
X152931334Y-130408267D01*
G37*
X152931334Y-130408267D02*
X152601134Y-130408267D01*
X152601134Y-130078067D01*
X152931334Y-130078067D01*
X152931334Y-130408267D01*
G36*
X153659467Y-130408267D02*
G01*
X153329267Y-130408267D01*
X153329267Y-130078067D01*
X153659467Y-130078067D01*
X153659467Y-130408267D01*
G37*
X153659467Y-130408267D02*
X153329267Y-130408267D01*
X153329267Y-130078067D01*
X153659467Y-130078067D01*
X153659467Y-130408267D01*
G36*
X147106267Y-130044200D02*
G01*
X146776067Y-130044200D01*
X146776067Y-129714000D01*
X147106267Y-129714000D01*
X147106267Y-130044200D01*
G37*
X147106267Y-130044200D02*
X146776067Y-130044200D01*
X146776067Y-129714000D01*
X147106267Y-129714000D01*
X147106267Y-130044200D01*
G36*
X149290667Y-130044200D02*
G01*
X148960467Y-130044200D01*
X148960467Y-129714000D01*
X149290667Y-129714000D01*
X149290667Y-130044200D01*
G37*
X149290667Y-130044200D02*
X148960467Y-130044200D01*
X148960467Y-129714000D01*
X149290667Y-129714000D01*
X149290667Y-130044200D01*
G36*
X151475067Y-130044200D02*
G01*
X151144867Y-130044200D01*
X151144867Y-129714000D01*
X151475067Y-129714000D01*
X151475067Y-130044200D01*
G37*
X151475067Y-130044200D02*
X151144867Y-130044200D01*
X151144867Y-129714000D01*
X151475067Y-129714000D01*
X151475067Y-130044200D01*
G36*
X152203200Y-130044200D02*
G01*
X151873000Y-130044200D01*
X151873000Y-129714000D01*
X152203200Y-129714000D01*
X152203200Y-130044200D01*
G37*
X152203200Y-130044200D02*
X151873000Y-130044200D01*
X151873000Y-129714000D01*
X152203200Y-129714000D01*
X152203200Y-130044200D01*
G36*
X152567267Y-130044200D02*
G01*
X152237067Y-130044200D01*
X152237067Y-129714000D01*
X152567267Y-129714000D01*
X152567267Y-130044200D01*
G37*
X152567267Y-130044200D02*
X152237067Y-130044200D01*
X152237067Y-129714000D01*
X152567267Y-129714000D01*
X152567267Y-130044200D01*
G36*
X152931334Y-130044200D02*
G01*
X152601134Y-130044200D01*
X152601134Y-129714000D01*
X152931334Y-129714000D01*
X152931334Y-130044200D01*
G37*
X152931334Y-130044200D02*
X152601134Y-130044200D01*
X152601134Y-129714000D01*
X152931334Y-129714000D01*
X152931334Y-130044200D01*
G36*
X153659467Y-130044200D02*
G01*
X153329267Y-130044200D01*
X153329267Y-129714000D01*
X153659467Y-129714000D01*
X153659467Y-130044200D01*
G37*
X153659467Y-130044200D02*
X153329267Y-130044200D01*
X153329267Y-129714000D01*
X153659467Y-129714000D01*
X153659467Y-130044200D01*
G36*
X154023534Y-130044200D02*
G01*
X153693334Y-130044200D01*
X153693334Y-129714000D01*
X154023534Y-129714000D01*
X154023534Y-130044200D01*
G37*
X154023534Y-130044200D02*
X153693334Y-130044200D01*
X153693334Y-129714000D01*
X154023534Y-129714000D01*
X154023534Y-130044200D01*
G36*
X154387600Y-130044200D02*
G01*
X154057400Y-130044200D01*
X154057400Y-129714000D01*
X154387600Y-129714000D01*
X154387600Y-130044200D01*
G37*
X154387600Y-130044200D02*
X154057400Y-130044200D01*
X154057400Y-129714000D01*
X154387600Y-129714000D01*
X154387600Y-130044200D01*
G36*
X154387600Y-129688600D02*
G01*
X154057400Y-129688600D01*
X154057400Y-129358400D01*
X154387600Y-129358400D01*
X154387600Y-129688600D01*
G37*
X154387600Y-129688600D02*
X154057400Y-129688600D01*
X154057400Y-129358400D01*
X154387600Y-129358400D01*
X154387600Y-129688600D01*
G36*
X147470333Y-129680133D02*
G01*
X147140133Y-129680133D01*
X147140133Y-129349934D01*
X147470333Y-129349934D01*
X147470333Y-129680133D01*
G37*
X147470333Y-129680133D02*
X147140133Y-129680133D01*
X147140133Y-129349934D01*
X147470333Y-129349934D01*
X147470333Y-129680133D01*
G36*
X148926600Y-129680133D02*
G01*
X148596400Y-129680133D01*
X148596400Y-129349934D01*
X148926600Y-129349934D01*
X148926600Y-129680133D01*
G37*
X148926600Y-129680133D02*
X148596400Y-129680133D01*
X148596400Y-129349934D01*
X148926600Y-129349934D01*
X148926600Y-129680133D01*
G36*
X149654734Y-129680133D02*
G01*
X149324534Y-129680133D01*
X149324534Y-129349934D01*
X149654734Y-129349934D01*
X149654734Y-129680133D01*
G37*
X149654734Y-129680133D02*
X149324534Y-129680133D01*
X149324534Y-129349934D01*
X149654734Y-129349934D01*
X149654734Y-129680133D01*
G36*
X151111000Y-129680133D02*
G01*
X150780800Y-129680133D01*
X150780800Y-129349934D01*
X151111000Y-129349934D01*
X151111000Y-129680133D01*
G37*
X151111000Y-129680133D02*
X150780800Y-129680133D01*
X150780800Y-129349934D01*
X151111000Y-129349934D01*
X151111000Y-129680133D01*
G36*
X152203200Y-129680133D02*
G01*
X151873000Y-129680133D01*
X151873000Y-129349934D01*
X152203200Y-129349934D01*
X152203200Y-129680133D01*
G37*
X152203200Y-129680133D02*
X151873000Y-129680133D01*
X151873000Y-129349934D01*
X152203200Y-129349934D01*
X152203200Y-129680133D01*
G36*
X147834400Y-129316067D02*
G01*
X147504200Y-129316067D01*
X147504200Y-128985867D01*
X147834400Y-128985867D01*
X147834400Y-129316067D01*
G37*
X147834400Y-129316067D02*
X147504200Y-129316067D01*
X147504200Y-128985867D01*
X147834400Y-128985867D01*
X147834400Y-129316067D01*
G36*
X148562534Y-129316067D02*
G01*
X148232334Y-129316067D01*
X148232334Y-128985867D01*
X148562534Y-128985867D01*
X148562534Y-129316067D01*
G37*
X148562534Y-129316067D02*
X148232334Y-129316067D01*
X148232334Y-128985867D01*
X148562534Y-128985867D01*
X148562534Y-129316067D01*
G36*
X150746933Y-129316067D02*
G01*
X150416733Y-129316067D01*
X150416733Y-128985867D01*
X150746933Y-128985867D01*
X150746933Y-129316067D01*
G37*
X150746933Y-129316067D02*
X150416733Y-129316067D01*
X150416733Y-128985867D01*
X150746933Y-128985867D01*
X150746933Y-129316067D01*
G36*
X152203200Y-129316067D02*
G01*
X151873000Y-129316067D01*
X151873000Y-128985867D01*
X152203200Y-128985867D01*
X152203200Y-129316067D01*
G37*
X152203200Y-129316067D02*
X151873000Y-129316067D01*
X151873000Y-128985867D01*
X152203200Y-128985867D01*
X152203200Y-129316067D01*
G36*
X152567267Y-129316067D02*
G01*
X152237067Y-129316067D01*
X152237067Y-128985867D01*
X152567267Y-128985867D01*
X152567267Y-129316067D01*
G37*
X152567267Y-129316067D02*
X152237067Y-129316067D01*
X152237067Y-128985867D01*
X152567267Y-128985867D01*
X152567267Y-129316067D01*
G36*
X152931334Y-129316067D02*
G01*
X152601134Y-129316067D01*
X152601134Y-128985867D01*
X152931334Y-128985867D01*
X152931334Y-129316067D01*
G37*
X152931334Y-129316067D02*
X152601134Y-129316067D01*
X152601134Y-128985867D01*
X152931334Y-128985867D01*
X152931334Y-129316067D01*
G36*
X153659467Y-129316067D02*
G01*
X153329267Y-129316067D01*
X153329267Y-128985867D01*
X153659467Y-128985867D01*
X153659467Y-129316067D01*
G37*
X153659467Y-129316067D02*
X153329267Y-129316067D01*
X153329267Y-128985867D01*
X153659467Y-128985867D01*
X153659467Y-129316067D01*
G36*
X154023534Y-129316067D02*
G01*
X153693334Y-129316067D01*
X153693334Y-128985867D01*
X154023534Y-128985867D01*
X154023534Y-129316067D01*
G37*
X154023534Y-129316067D02*
X153693334Y-129316067D01*
X153693334Y-128985867D01*
X154023534Y-128985867D01*
X154023534Y-129316067D01*
G36*
X154387600Y-129316067D02*
G01*
X154057400Y-129316067D01*
X154057400Y-128985867D01*
X154387600Y-128985867D01*
X154387600Y-129316067D01*
G37*
X154387600Y-129316067D02*
X154057400Y-129316067D01*
X154057400Y-128985867D01*
X154387600Y-128985867D01*
X154387600Y-129316067D01*
G36*
X149654734Y-128952000D02*
G01*
X149324534Y-128952000D01*
X149324534Y-128621800D01*
X149654734Y-128621800D01*
X149654734Y-128952000D01*
G37*
X149654734Y-128952000D02*
X149324534Y-128952000D01*
X149324534Y-128621800D01*
X149654734Y-128621800D01*
X149654734Y-128952000D01*
G36*
X150382867Y-128952000D02*
G01*
X150052667Y-128952000D01*
X150052667Y-128621800D01*
X150382867Y-128621800D01*
X150382867Y-128952000D01*
G37*
X150382867Y-128952000D02*
X150052667Y-128952000D01*
X150052667Y-128621800D01*
X150382867Y-128621800D01*
X150382867Y-128952000D01*
G36*
X152931334Y-128952000D02*
G01*
X152601134Y-128952000D01*
X152601134Y-128621800D01*
X152931334Y-128621800D01*
X152931334Y-128952000D01*
G37*
X152931334Y-128952000D02*
X152601134Y-128952000D01*
X152601134Y-128621800D01*
X152931334Y-128621800D01*
X152931334Y-128952000D01*
G36*
X153659467Y-128952000D02*
G01*
X153329267Y-128952000D01*
X153329267Y-128621800D01*
X153659467Y-128621800D01*
X153659467Y-128952000D01*
G37*
X153659467Y-128952000D02*
X153329267Y-128952000D01*
X153329267Y-128621800D01*
X153659467Y-128621800D01*
X153659467Y-128952000D01*
G36*
X150018800Y-128587934D02*
G01*
X149688600Y-128587934D01*
X149688600Y-128257734D01*
X150018800Y-128257734D01*
X150018800Y-128587934D01*
G37*
X150018800Y-128587934D02*
X149688600Y-128587934D01*
X149688600Y-128257734D01*
X150018800Y-128257734D01*
X150018800Y-128587934D01*
G36*
X152931334Y-128587934D02*
G01*
X152601134Y-128587934D01*
X152601134Y-128257734D01*
X152931334Y-128257734D01*
X152931334Y-128587934D01*
G37*
X152931334Y-128587934D02*
X152601134Y-128587934D01*
X152601134Y-128257734D01*
X152931334Y-128257734D01*
X152931334Y-128587934D01*
G36*
X153295400Y-128587934D02*
G01*
X152965200Y-128587934D01*
X152965200Y-128257734D01*
X153295400Y-128257734D01*
X153295400Y-128587934D01*
G37*
X153295400Y-128587934D02*
X152965200Y-128587934D01*
X152965200Y-128257734D01*
X153295400Y-128257734D01*
X153295400Y-128587934D01*
G36*
X153659467Y-128587934D02*
G01*
X153329267Y-128587934D01*
X153329267Y-128257734D01*
X153659467Y-128257734D01*
X153659467Y-128587934D01*
G37*
X153659467Y-128587934D02*
X153329267Y-128587934D01*
X153329267Y-128257734D01*
X153659467Y-128257734D01*
X153659467Y-128587934D01*
D12*
X185078979Y-71750000D02*
X186348979Y-71115000D01*
X186348979Y-71115000D02*
X186348979Y-72385000D01*
X186348979Y-72385000D02*
X185078979Y-71750000D01*
X165175018Y-71119999D02*
X165175018Y-76074972D01*
X165175018Y-81820000D02*
X184824979Y-81820000D01*
X184824979Y-81820000D02*
X184824979Y-78365052D01*
X184824979Y-71119999D02*
X180455039Y-71119999D01*
X178544959Y-71119999D02*
X177455040Y-71119999D01*
X175544960Y-71119999D02*
X174455040Y-71119999D01*
X172544960Y-71119999D02*
X171455041Y-71119999D01*
X169544961Y-71119999D02*
X165175018Y-71119999D01*
X184824979Y-76074972D02*
X184824979Y-71119999D01*
X165175018Y-78365052D02*
X165175018Y-81820000D01*
D10*
X181666666Y-68202380D02*
X181666666Y-68916666D01*
X181619047Y-69059523D01*
X181523809Y-69154761D01*
X181380952Y-69202380D01*
X181285714Y-69202380D01*
X182666666Y-69202380D02*
X182095238Y-69202380D01*
X182380952Y-69202380D02*
X182380952Y-68202380D01*
X182285714Y-68345238D01*
X182190476Y-68440476D01*
X182095238Y-68488095D01*
%LPC*%
D13*
X179499999Y-71750000D03*
X176500000Y-71750000D03*
X173500000Y-71750000D03*
X170500001Y-71750000D03*
D14*
X183385004Y-77220012D03*
X166614996Y-77220012D03*
D15*
X161750000Y-62250000D03*
X178210000Y-62250000D03*
X204210000Y-62250000D03*
M02*
