G04 #@! TF.GenerationSoftware,KiCad,Pcbnew,5.1.9+dfsg1-1*
G04 #@! TF.CreationDate,2023-03-06T16:39:16+09:00*
G04 #@! TF.ProjectId,tablet-usb-adapter,7461626c-6574-42d7-9573-622d61646170,rev?*
G04 #@! TF.SameCoordinates,Original*
G04 #@! TF.FileFunction,Copper,L1,Top*
G04 #@! TF.FilePolarity,Positive*
%FSLAX46Y46*%
G04 Gerber Fmt 4.6, Leading zero omitted, Abs format (unit mm)*
G04 Created by KiCad (PCBNEW 5.1.9+dfsg1-1) date 2023-03-06 16:39:16*
%MOMM*%
%LPD*%
G01*
G04 APERTURE LIST*
G04 #@! TA.AperFunction,ComponentPad*
%ADD10C,5.600000*%
G04 #@! TD*
G04 #@! TA.AperFunction,ComponentPad*
%ADD11R,1.700000X1.700000*%
G04 #@! TD*
G04 #@! TA.AperFunction,ComponentPad*
%ADD12O,1.700000X1.700000*%
G04 #@! TD*
G04 #@! TA.AperFunction,ComponentPad*
%ADD13C,3.500000*%
G04 #@! TD*
G04 #@! TA.AperFunction,ComponentPad*
%ADD14R,1.524000X1.524000*%
G04 #@! TD*
G04 #@! TA.AperFunction,ComponentPad*
%ADD15C,1.524000*%
G04 #@! TD*
G04 #@! TA.AperFunction,SMDPad,CuDef*
%ADD16C,0.100000*%
G04 #@! TD*
G04 #@! TA.AperFunction,ComponentPad*
%ADD17C,2.100000*%
G04 #@! TD*
G04 #@! TA.AperFunction,ComponentPad*
%ADD18C,1.750000*%
G04 #@! TD*
G04 #@! TA.AperFunction,Conductor*
%ADD19C,0.500000*%
G04 #@! TD*
G04 #@! TA.AperFunction,Conductor*
%ADD20C,0.254000*%
G04 #@! TD*
G04 #@! TA.AperFunction,Conductor*
%ADD21C,0.100000*%
G04 #@! TD*
G04 APERTURE END LIST*
D10*
X151500000Y-117500000D03*
X160000000Y-120000000D03*
X160000000Y-110000000D03*
X120000000Y-120000000D03*
X120000000Y-110000000D03*
D11*
X152790000Y-122500000D03*
D12*
X150250000Y-122500000D03*
D11*
X126500000Y-122500000D03*
D12*
X129040000Y-122500000D03*
X131580000Y-122500000D03*
X134120000Y-122500000D03*
X136660000Y-122500000D03*
X139200000Y-122500000D03*
D13*
X126430000Y-115290000D03*
X139570000Y-115290000D03*
D14*
X136500000Y-118000000D03*
D15*
X134000000Y-118000000D03*
X132000000Y-118000000D03*
X129500000Y-118000000D03*
G04 #@! TA.AperFunction,SMDPad,CuDef*
D16*
G36*
X144450000Y-123250000D02*
G01*
X143950000Y-123250000D01*
X143950000Y-123249398D01*
X143925466Y-123249398D01*
X143876635Y-123244588D01*
X143828510Y-123235016D01*
X143781555Y-123220772D01*
X143736222Y-123201995D01*
X143692949Y-123178864D01*
X143652150Y-123151604D01*
X143614221Y-123120476D01*
X143579524Y-123085779D01*
X143548396Y-123047850D01*
X143521136Y-123007051D01*
X143498005Y-122963778D01*
X143479228Y-122918445D01*
X143464984Y-122871490D01*
X143455412Y-122823365D01*
X143450602Y-122774534D01*
X143450602Y-122750000D01*
X143450000Y-122750000D01*
X143450000Y-122250000D01*
X143450602Y-122250000D01*
X143450602Y-122225466D01*
X143455412Y-122176635D01*
X143464984Y-122128510D01*
X143479228Y-122081555D01*
X143498005Y-122036222D01*
X143521136Y-121992949D01*
X143548396Y-121952150D01*
X143579524Y-121914221D01*
X143614221Y-121879524D01*
X143652150Y-121848396D01*
X143692949Y-121821136D01*
X143736222Y-121798005D01*
X143781555Y-121779228D01*
X143828510Y-121764984D01*
X143876635Y-121755412D01*
X143925466Y-121750602D01*
X143950000Y-121750602D01*
X143950000Y-121750000D01*
X144450000Y-121750000D01*
X144450000Y-123250000D01*
G37*
G04 #@! TD.AperFunction*
G04 #@! TA.AperFunction,SMDPad,CuDef*
G36*
X145250000Y-121750602D02*
G01*
X145274534Y-121750602D01*
X145323365Y-121755412D01*
X145371490Y-121764984D01*
X145418445Y-121779228D01*
X145463778Y-121798005D01*
X145507051Y-121821136D01*
X145547850Y-121848396D01*
X145585779Y-121879524D01*
X145620476Y-121914221D01*
X145651604Y-121952150D01*
X145678864Y-121992949D01*
X145701995Y-122036222D01*
X145720772Y-122081555D01*
X145735016Y-122128510D01*
X145744588Y-122176635D01*
X145749398Y-122225466D01*
X145749398Y-122250000D01*
X145750000Y-122250000D01*
X145750000Y-122750000D01*
X145749398Y-122750000D01*
X145749398Y-122774534D01*
X145744588Y-122823365D01*
X145735016Y-122871490D01*
X145720772Y-122918445D01*
X145701995Y-122963778D01*
X145678864Y-123007051D01*
X145651604Y-123047850D01*
X145620476Y-123085779D01*
X145585779Y-123120476D01*
X145547850Y-123151604D01*
X145507051Y-123178864D01*
X145463778Y-123201995D01*
X145418445Y-123220772D01*
X145371490Y-123235016D01*
X145323365Y-123244588D01*
X145274534Y-123249398D01*
X145250000Y-123249398D01*
X145250000Y-123250000D01*
X144750000Y-123250000D01*
X144750000Y-121750000D01*
X145250000Y-121750000D01*
X145250000Y-121750602D01*
G37*
G04 #@! TD.AperFunction*
G04 #@! TA.AperFunction,SMDPad,CuDef*
G36*
G01*
X142900000Y-118950001D02*
X142900000Y-118049999D01*
G75*
G02*
X143149999Y-117800000I249999J0D01*
G01*
X143850001Y-117800000D01*
G75*
G02*
X144100000Y-118049999I0J-249999D01*
G01*
X144100000Y-118950001D01*
G75*
G02*
X143850001Y-119200000I-249999J0D01*
G01*
X143149999Y-119200000D01*
G75*
G02*
X142900000Y-118950001I0J249999D01*
G01*
G37*
G04 #@! TD.AperFunction*
G04 #@! TA.AperFunction,SMDPad,CuDef*
G36*
G01*
X144900000Y-118950001D02*
X144900000Y-118049999D01*
G75*
G02*
X145149999Y-117800000I249999J0D01*
G01*
X145850001Y-117800000D01*
G75*
G02*
X146100000Y-118049999I0J-249999D01*
G01*
X146100000Y-118950001D01*
G75*
G02*
X145850001Y-119200000I-249999J0D01*
G01*
X145149999Y-119200000D01*
G75*
G02*
X144900000Y-118950001I0J249999D01*
G01*
G37*
G04 #@! TD.AperFunction*
D17*
X155010000Y-112240000D03*
D18*
X153750000Y-109750000D03*
X149250000Y-109750000D03*
D17*
X148000000Y-112240000D03*
G04 #@! TA.AperFunction,SMDPad,CuDef*
G36*
G01*
X146100000Y-114049999D02*
X146100000Y-114950001D01*
G75*
G02*
X145850001Y-115200000I-249999J0D01*
G01*
X145149999Y-115200000D01*
G75*
G02*
X144900000Y-114950001I0J249999D01*
G01*
X144900000Y-114049999D01*
G75*
G02*
X145149999Y-113800000I249999J0D01*
G01*
X145850001Y-113800000D01*
G75*
G02*
X146100000Y-114049999I0J-249999D01*
G01*
G37*
G04 #@! TD.AperFunction*
G04 #@! TA.AperFunction,SMDPad,CuDef*
G36*
G01*
X144100000Y-114049999D02*
X144100000Y-114950001D01*
G75*
G02*
X143850001Y-115200000I-249999J0D01*
G01*
X143149999Y-115200000D01*
G75*
G02*
X142900000Y-114950001I0J249999D01*
G01*
X142900000Y-114049999D01*
G75*
G02*
X143149999Y-113800000I249999J0D01*
G01*
X143850001Y-113800000D01*
G75*
G02*
X144100000Y-114049999I0J-249999D01*
G01*
G37*
G04 #@! TD.AperFunction*
D19*
X145500000Y-122250000D02*
X145250000Y-122500000D01*
X145500000Y-118500000D02*
X145500000Y-122250000D01*
X131580000Y-122500000D02*
X133580000Y-120500000D01*
X133580000Y-120500000D02*
X143500000Y-120500000D01*
X143500000Y-120500000D02*
X143500000Y-118500000D01*
X145500000Y-114500000D02*
X145500000Y-115500000D01*
X145500000Y-115500000D02*
X143500000Y-117500000D01*
X143500000Y-117500000D02*
X143500000Y-118500000D01*
X143500000Y-122050000D02*
X143950000Y-122500000D01*
X143500000Y-120500000D02*
X143500000Y-122050000D01*
X136500000Y-118000000D02*
X141250000Y-118000000D01*
X143500000Y-115750000D02*
X143500000Y-114500000D01*
X141250000Y-118000000D02*
X143500000Y-115750000D01*
D20*
X163259659Y-105688625D02*
X163509429Y-105764035D01*
X163739792Y-105886522D01*
X163941980Y-106051422D01*
X164108286Y-106252450D01*
X164232378Y-106481954D01*
X164309531Y-106731195D01*
X164340000Y-107021089D01*
X164340001Y-122967711D01*
X164311375Y-123259660D01*
X164235965Y-123509429D01*
X164113477Y-123739794D01*
X163948579Y-123941979D01*
X163747546Y-124108288D01*
X163518046Y-124232378D01*
X163268805Y-124309531D01*
X162978911Y-124340000D01*
X117032279Y-124340000D01*
X116740340Y-124311375D01*
X116490571Y-124235965D01*
X116260206Y-124113477D01*
X116058021Y-123948579D01*
X115891712Y-123747546D01*
X115767622Y-123518046D01*
X115690469Y-123268805D01*
X115660000Y-122978911D01*
X115660000Y-119661682D01*
X116565000Y-119661682D01*
X116565000Y-120338318D01*
X116697006Y-121001952D01*
X116955943Y-121627082D01*
X117331862Y-122189685D01*
X117810315Y-122668138D01*
X118372918Y-123044057D01*
X118998048Y-123302994D01*
X119661682Y-123435000D01*
X120338318Y-123435000D01*
X120765638Y-123350000D01*
X125011928Y-123350000D01*
X125024188Y-123474482D01*
X125060498Y-123594180D01*
X125119463Y-123704494D01*
X125198815Y-123801185D01*
X125295506Y-123880537D01*
X125405820Y-123939502D01*
X125525518Y-123975812D01*
X125650000Y-123988072D01*
X126214250Y-123985000D01*
X126373000Y-123826250D01*
X126373000Y-122627000D01*
X126627000Y-122627000D01*
X126627000Y-123826250D01*
X126785750Y-123985000D01*
X127350000Y-123988072D01*
X127474482Y-123975812D01*
X127594180Y-123939502D01*
X127704494Y-123880537D01*
X127801185Y-123801185D01*
X127880537Y-123704494D01*
X127939502Y-123594180D01*
X127963966Y-123513534D01*
X128039731Y-123597588D01*
X128273080Y-123771641D01*
X128535901Y-123896825D01*
X128683110Y-123941476D01*
X128913000Y-123820155D01*
X128913000Y-122627000D01*
X126627000Y-122627000D01*
X126373000Y-122627000D01*
X125173750Y-122627000D01*
X125015000Y-122785750D01*
X125011928Y-123350000D01*
X120765638Y-123350000D01*
X121001952Y-123302994D01*
X121627082Y-123044057D01*
X122189685Y-122668138D01*
X122668138Y-122189685D01*
X123028743Y-121650000D01*
X125011928Y-121650000D01*
X125015000Y-122214250D01*
X125173750Y-122373000D01*
X126373000Y-122373000D01*
X126373000Y-121173750D01*
X126627000Y-121173750D01*
X126627000Y-122373000D01*
X128913000Y-122373000D01*
X128913000Y-121179845D01*
X129167000Y-121179845D01*
X129167000Y-122373000D01*
X129187000Y-122373000D01*
X129187000Y-122627000D01*
X129167000Y-122627000D01*
X129167000Y-123820155D01*
X129396890Y-123941476D01*
X129544099Y-123896825D01*
X129806920Y-123771641D01*
X130040269Y-123597588D01*
X130235178Y-123381355D01*
X130304805Y-123264466D01*
X130426525Y-123446632D01*
X130633368Y-123653475D01*
X130876589Y-123815990D01*
X131146842Y-123927932D01*
X131433740Y-123985000D01*
X131726260Y-123985000D01*
X132013158Y-123927932D01*
X132283411Y-123815990D01*
X132526632Y-123653475D01*
X132733475Y-123446632D01*
X132850000Y-123272240D01*
X132966525Y-123446632D01*
X133173368Y-123653475D01*
X133416589Y-123815990D01*
X133686842Y-123927932D01*
X133973740Y-123985000D01*
X134266260Y-123985000D01*
X134553158Y-123927932D01*
X134823411Y-123815990D01*
X135066632Y-123653475D01*
X135273475Y-123446632D01*
X135390000Y-123272240D01*
X135506525Y-123446632D01*
X135713368Y-123653475D01*
X135956589Y-123815990D01*
X136226842Y-123927932D01*
X136513740Y-123985000D01*
X136806260Y-123985000D01*
X137093158Y-123927932D01*
X137363411Y-123815990D01*
X137606632Y-123653475D01*
X137813475Y-123446632D01*
X137930000Y-123272240D01*
X138046525Y-123446632D01*
X138253368Y-123653475D01*
X138496589Y-123815990D01*
X138766842Y-123927932D01*
X139053740Y-123985000D01*
X139346260Y-123985000D01*
X139633158Y-123927932D01*
X139903411Y-123815990D01*
X140146632Y-123653475D01*
X140353475Y-123446632D01*
X140515990Y-123203411D01*
X140627932Y-122933158D01*
X140685000Y-122646260D01*
X140685000Y-122353740D01*
X140627932Y-122066842D01*
X140515990Y-121796589D01*
X140353475Y-121553368D01*
X140185107Y-121385000D01*
X142615001Y-121385000D01*
X142615001Y-122006521D01*
X142610719Y-122050000D01*
X142627805Y-122223490D01*
X142678412Y-122390313D01*
X142760590Y-122544059D01*
X142811928Y-122606614D01*
X142811928Y-122750000D01*
X142814336Y-122774450D01*
X142814336Y-122799009D01*
X142826596Y-122923490D01*
X142845718Y-123019623D01*
X142882027Y-123139319D01*
X142919536Y-123229875D01*
X142978502Y-123340192D01*
X143032958Y-123421691D01*
X143112310Y-123518382D01*
X143181618Y-123587690D01*
X143278309Y-123667042D01*
X143359808Y-123721498D01*
X143470125Y-123780464D01*
X143560681Y-123817973D01*
X143680377Y-123854282D01*
X143776510Y-123873404D01*
X143900991Y-123885664D01*
X143925550Y-123885664D01*
X143950000Y-123888072D01*
X144450000Y-123888072D01*
X144574482Y-123875812D01*
X144694180Y-123839502D01*
X144804494Y-123780537D01*
X144901185Y-123701185D01*
X144980537Y-123604494D01*
X145039502Y-123494180D01*
X145075812Y-123374482D01*
X145088072Y-123250000D01*
X145088072Y-122353740D01*
X148765000Y-122353740D01*
X148765000Y-122646260D01*
X148822068Y-122933158D01*
X148934010Y-123203411D01*
X149096525Y-123446632D01*
X149303368Y-123653475D01*
X149546589Y-123815990D01*
X149816842Y-123927932D01*
X150103740Y-123985000D01*
X150396260Y-123985000D01*
X150683158Y-123927932D01*
X150953411Y-123815990D01*
X151196632Y-123653475D01*
X151328487Y-123521620D01*
X151350498Y-123594180D01*
X151409463Y-123704494D01*
X151488815Y-123801185D01*
X151585506Y-123880537D01*
X151695820Y-123939502D01*
X151815518Y-123975812D01*
X151940000Y-123988072D01*
X153640000Y-123988072D01*
X153764482Y-123975812D01*
X153884180Y-123939502D01*
X153994494Y-123880537D01*
X154091185Y-123801185D01*
X154170537Y-123704494D01*
X154229502Y-123594180D01*
X154265812Y-123474482D01*
X154278072Y-123350000D01*
X154278072Y-121650000D01*
X154265812Y-121525518D01*
X154229502Y-121405820D01*
X154170537Y-121295506D01*
X154091185Y-121198815D01*
X153994494Y-121119463D01*
X153884180Y-121060498D01*
X153764482Y-121024188D01*
X153640000Y-121011928D01*
X151940000Y-121011928D01*
X151815518Y-121024188D01*
X151695820Y-121060498D01*
X151585506Y-121119463D01*
X151488815Y-121198815D01*
X151409463Y-121295506D01*
X151350498Y-121405820D01*
X151328487Y-121478380D01*
X151196632Y-121346525D01*
X150953411Y-121184010D01*
X150683158Y-121072068D01*
X150396260Y-121015000D01*
X150103740Y-121015000D01*
X149816842Y-121072068D01*
X149546589Y-121184010D01*
X149303368Y-121346525D01*
X149096525Y-121553368D01*
X148934010Y-121796589D01*
X148822068Y-122066842D01*
X148765000Y-122353740D01*
X145088072Y-122353740D01*
X145088072Y-121750000D01*
X145075812Y-121625518D01*
X145039502Y-121505820D01*
X144980537Y-121395506D01*
X144901185Y-121298815D01*
X144804494Y-121219463D01*
X144694180Y-121160498D01*
X144574482Y-121124188D01*
X144450000Y-121111928D01*
X144385000Y-121111928D01*
X144385000Y-120543476D01*
X144389282Y-120500000D01*
X144385000Y-120456523D01*
X144385000Y-119654254D01*
X144424637Y-119621724D01*
X144448815Y-119651185D01*
X144545506Y-119730537D01*
X144655820Y-119789502D01*
X144775518Y-119825812D01*
X144900000Y-119838072D01*
X145214250Y-119835000D01*
X145373000Y-119676250D01*
X145373000Y-118627000D01*
X145627000Y-118627000D01*
X145627000Y-119676250D01*
X145785750Y-119835000D01*
X146100000Y-119838072D01*
X146224482Y-119825812D01*
X146344180Y-119789502D01*
X146454494Y-119730537D01*
X146551185Y-119651185D01*
X146630537Y-119554494D01*
X146689502Y-119444180D01*
X146725812Y-119324482D01*
X146738072Y-119200000D01*
X146735000Y-118785750D01*
X146576250Y-118627000D01*
X145627000Y-118627000D01*
X145373000Y-118627000D01*
X145353000Y-118627000D01*
X145353000Y-118373000D01*
X145373000Y-118373000D01*
X145373000Y-117323750D01*
X145627000Y-117323750D01*
X145627000Y-118373000D01*
X146576250Y-118373000D01*
X146735000Y-118214250D01*
X146738072Y-117800000D01*
X146725812Y-117675518D01*
X146689502Y-117555820D01*
X146630537Y-117445506D01*
X146551185Y-117348815D01*
X146454494Y-117269463D01*
X146344180Y-117210498D01*
X146224482Y-117174188D01*
X146100000Y-117161928D01*
X145785750Y-117165000D01*
X145627000Y-117323750D01*
X145373000Y-117323750D01*
X145214250Y-117165000D01*
X145087814Y-117163764D01*
X145089896Y-117161682D01*
X148065000Y-117161682D01*
X148065000Y-117838318D01*
X148197006Y-118501952D01*
X148455943Y-119127082D01*
X148831862Y-119689685D01*
X149310315Y-120168138D01*
X149872918Y-120544057D01*
X150498048Y-120802994D01*
X151161682Y-120935000D01*
X151838318Y-120935000D01*
X152501952Y-120802994D01*
X153127082Y-120544057D01*
X153689685Y-120168138D01*
X154168138Y-119689685D01*
X154186848Y-119661682D01*
X156565000Y-119661682D01*
X156565000Y-120338318D01*
X156697006Y-121001952D01*
X156955943Y-121627082D01*
X157331862Y-122189685D01*
X157810315Y-122668138D01*
X158372918Y-123044057D01*
X158998048Y-123302994D01*
X159661682Y-123435000D01*
X160338318Y-123435000D01*
X161001952Y-123302994D01*
X161627082Y-123044057D01*
X162189685Y-122668138D01*
X162668138Y-122189685D01*
X163044057Y-121627082D01*
X163302994Y-121001952D01*
X163435000Y-120338318D01*
X163435000Y-119661682D01*
X163302994Y-118998048D01*
X163044057Y-118372918D01*
X162668138Y-117810315D01*
X162189685Y-117331862D01*
X161627082Y-116955943D01*
X161001952Y-116697006D01*
X160338318Y-116565000D01*
X159661682Y-116565000D01*
X158998048Y-116697006D01*
X158372918Y-116955943D01*
X157810315Y-117331862D01*
X157331862Y-117810315D01*
X156955943Y-118372918D01*
X156697006Y-118998048D01*
X156565000Y-119661682D01*
X154186848Y-119661682D01*
X154544057Y-119127082D01*
X154802994Y-118501952D01*
X154935000Y-117838318D01*
X154935000Y-117161682D01*
X154802994Y-116498048D01*
X154544057Y-115872918D01*
X154168138Y-115310315D01*
X153689685Y-114831862D01*
X153127082Y-114455943D01*
X152501952Y-114197006D01*
X151838318Y-114065000D01*
X151161682Y-114065000D01*
X150498048Y-114197006D01*
X149872918Y-114455943D01*
X149310315Y-114831862D01*
X148831862Y-115310315D01*
X148455943Y-115872918D01*
X148197006Y-116498048D01*
X148065000Y-117161682D01*
X145089896Y-117161682D01*
X146095049Y-116156530D01*
X146128817Y-116128817D01*
X146239411Y-115994059D01*
X146321589Y-115840313D01*
X146372195Y-115673490D01*
X146373130Y-115663995D01*
X146477962Y-115577962D01*
X146588405Y-115443387D01*
X146670472Y-115289851D01*
X146721008Y-115123255D01*
X146738072Y-114950001D01*
X146738072Y-114049999D01*
X146721008Y-113876745D01*
X146670472Y-113710149D01*
X146588405Y-113556613D01*
X146477962Y-113422038D01*
X146343387Y-113311595D01*
X146189851Y-113229528D01*
X146023255Y-113178992D01*
X145850001Y-113161928D01*
X145149999Y-113161928D01*
X144976745Y-113178992D01*
X144810149Y-113229528D01*
X144656613Y-113311595D01*
X144522038Y-113422038D01*
X144500000Y-113448891D01*
X144477962Y-113422038D01*
X144343387Y-113311595D01*
X144189851Y-113229528D01*
X144023255Y-113178992D01*
X143850001Y-113161928D01*
X143149999Y-113161928D01*
X142976745Y-113178992D01*
X142810149Y-113229528D01*
X142656613Y-113311595D01*
X142522038Y-113422038D01*
X142411595Y-113556613D01*
X142329528Y-113710149D01*
X142278992Y-113876745D01*
X142261928Y-114049999D01*
X142261928Y-114950001D01*
X142278992Y-115123255D01*
X142329528Y-115289851D01*
X142411595Y-115443387D01*
X142476251Y-115522170D01*
X141769417Y-116229004D01*
X141796513Y-116176591D01*
X141926696Y-115725185D01*
X141966313Y-115257054D01*
X141913842Y-114790189D01*
X141771297Y-114342532D01*
X141580766Y-113986073D01*
X141239609Y-113799997D01*
X139749605Y-115290000D01*
X139763748Y-115304142D01*
X139584142Y-115483748D01*
X139570000Y-115469605D01*
X138079997Y-116959609D01*
X138164751Y-117115000D01*
X137887958Y-117115000D01*
X137887812Y-117113518D01*
X137851502Y-116993820D01*
X137792537Y-116883506D01*
X137713185Y-116786815D01*
X137616494Y-116707463D01*
X137506180Y-116648498D01*
X137386482Y-116612188D01*
X137262000Y-116599928D01*
X135738000Y-116599928D01*
X135613518Y-116612188D01*
X135493820Y-116648498D01*
X135383506Y-116707463D01*
X135286815Y-116786815D01*
X135207463Y-116883506D01*
X135148498Y-116993820D01*
X135112188Y-117113518D01*
X135109059Y-117145292D01*
X135085120Y-117109465D01*
X134890535Y-116914880D01*
X134661727Y-116761995D01*
X134407490Y-116656686D01*
X134137592Y-116603000D01*
X133862408Y-116603000D01*
X133592510Y-116656686D01*
X133338273Y-116761995D01*
X133109465Y-116914880D01*
X133000000Y-117024345D01*
X132890535Y-116914880D01*
X132661727Y-116761995D01*
X132407490Y-116656686D01*
X132137592Y-116603000D01*
X131862408Y-116603000D01*
X131592510Y-116656686D01*
X131338273Y-116761995D01*
X131109465Y-116914880D01*
X130914880Y-117109465D01*
X130761995Y-117338273D01*
X130750758Y-117365401D01*
X130705656Y-117281020D01*
X130465565Y-117214040D01*
X129679605Y-118000000D01*
X130465565Y-118785960D01*
X130705656Y-118718980D01*
X130748218Y-118628467D01*
X130761995Y-118661727D01*
X130914880Y-118890535D01*
X131109465Y-119085120D01*
X131338273Y-119238005D01*
X131592510Y-119343314D01*
X131862408Y-119397000D01*
X132137592Y-119397000D01*
X132407490Y-119343314D01*
X132661727Y-119238005D01*
X132890535Y-119085120D01*
X133000000Y-118975655D01*
X133109465Y-119085120D01*
X133338273Y-119238005D01*
X133592510Y-119343314D01*
X133862408Y-119397000D01*
X134137592Y-119397000D01*
X134407490Y-119343314D01*
X134661727Y-119238005D01*
X134890535Y-119085120D01*
X135085120Y-118890535D01*
X135109059Y-118854708D01*
X135112188Y-118886482D01*
X135148498Y-119006180D01*
X135207463Y-119116494D01*
X135286815Y-119213185D01*
X135383506Y-119292537D01*
X135493820Y-119351502D01*
X135613518Y-119387812D01*
X135738000Y-119400072D01*
X137262000Y-119400072D01*
X137386482Y-119387812D01*
X137506180Y-119351502D01*
X137616494Y-119292537D01*
X137713185Y-119213185D01*
X137792537Y-119116494D01*
X137851502Y-119006180D01*
X137887812Y-118886482D01*
X137887958Y-118885000D01*
X141206531Y-118885000D01*
X141250000Y-118889281D01*
X141293469Y-118885000D01*
X141293477Y-118885000D01*
X141423490Y-118872195D01*
X141590313Y-118821589D01*
X141744059Y-118739411D01*
X141878817Y-118628817D01*
X141906534Y-118595044D01*
X142261928Y-118239650D01*
X142261928Y-118950001D01*
X142278992Y-119123255D01*
X142329528Y-119289851D01*
X142411595Y-119443387D01*
X142522038Y-119577962D01*
X142567169Y-119615000D01*
X133623465Y-119615000D01*
X133579999Y-119610719D01*
X133536533Y-119615000D01*
X133536523Y-119615000D01*
X133406510Y-119627805D01*
X133239687Y-119678411D01*
X133085941Y-119760589D01*
X133085939Y-119760590D01*
X133085940Y-119760590D01*
X132984953Y-119843468D01*
X132984951Y-119843470D01*
X132951183Y-119871183D01*
X132923470Y-119904951D01*
X131798960Y-121029461D01*
X131726260Y-121015000D01*
X131433740Y-121015000D01*
X131146842Y-121072068D01*
X130876589Y-121184010D01*
X130633368Y-121346525D01*
X130426525Y-121553368D01*
X130304805Y-121735534D01*
X130235178Y-121618645D01*
X130040269Y-121402412D01*
X129806920Y-121228359D01*
X129544099Y-121103175D01*
X129396890Y-121058524D01*
X129167000Y-121179845D01*
X128913000Y-121179845D01*
X128683110Y-121058524D01*
X128535901Y-121103175D01*
X128273080Y-121228359D01*
X128039731Y-121402412D01*
X127963966Y-121486466D01*
X127939502Y-121405820D01*
X127880537Y-121295506D01*
X127801185Y-121198815D01*
X127704494Y-121119463D01*
X127594180Y-121060498D01*
X127474482Y-121024188D01*
X127350000Y-121011928D01*
X126785750Y-121015000D01*
X126627000Y-121173750D01*
X126373000Y-121173750D01*
X126214250Y-121015000D01*
X125650000Y-121011928D01*
X125525518Y-121024188D01*
X125405820Y-121060498D01*
X125295506Y-121119463D01*
X125198815Y-121198815D01*
X125119463Y-121295506D01*
X125060498Y-121405820D01*
X125024188Y-121525518D01*
X125011928Y-121650000D01*
X123028743Y-121650000D01*
X123044057Y-121627082D01*
X123302994Y-121001952D01*
X123435000Y-120338318D01*
X123435000Y-119661682D01*
X123302994Y-118998048D01*
X123289540Y-118965565D01*
X128714040Y-118965565D01*
X128781020Y-119205656D01*
X129030048Y-119322756D01*
X129297135Y-119389023D01*
X129572017Y-119401910D01*
X129844133Y-119360922D01*
X130103023Y-119267636D01*
X130218980Y-119205656D01*
X130285960Y-118965565D01*
X129500000Y-118179605D01*
X128714040Y-118965565D01*
X123289540Y-118965565D01*
X123044057Y-118372918D01*
X122843002Y-118072017D01*
X128098090Y-118072017D01*
X128139078Y-118344133D01*
X128232364Y-118603023D01*
X128294344Y-118718980D01*
X128534435Y-118785960D01*
X129320395Y-118000000D01*
X128534435Y-117214040D01*
X128294344Y-117281020D01*
X128177244Y-117530048D01*
X128110977Y-117797135D01*
X128098090Y-118072017D01*
X122843002Y-118072017D01*
X122668138Y-117810315D01*
X122189685Y-117331862D01*
X121632569Y-116959609D01*
X124939997Y-116959609D01*
X125126073Y-117300766D01*
X125543409Y-117516513D01*
X125994815Y-117646696D01*
X126462946Y-117686313D01*
X126929811Y-117633842D01*
X127377468Y-117491297D01*
X127733927Y-117300766D01*
X127879190Y-117034435D01*
X128714040Y-117034435D01*
X129500000Y-117820395D01*
X130285960Y-117034435D01*
X130218980Y-116794344D01*
X129969952Y-116677244D01*
X129702865Y-116610977D01*
X129427983Y-116598090D01*
X129155867Y-116639078D01*
X128896977Y-116732364D01*
X128781020Y-116794344D01*
X128714040Y-117034435D01*
X127879190Y-117034435D01*
X127920003Y-116959609D01*
X126430000Y-115469605D01*
X124939997Y-116959609D01*
X121632569Y-116959609D01*
X121627082Y-116955943D01*
X121001952Y-116697006D01*
X120338318Y-116565000D01*
X119661682Y-116565000D01*
X118998048Y-116697006D01*
X118372918Y-116955943D01*
X117810315Y-117331862D01*
X117331862Y-117810315D01*
X116955943Y-118372918D01*
X116697006Y-118998048D01*
X116565000Y-119661682D01*
X115660000Y-119661682D01*
X115660000Y-115322946D01*
X124033687Y-115322946D01*
X124086158Y-115789811D01*
X124228703Y-116237468D01*
X124419234Y-116593927D01*
X124760391Y-116780003D01*
X126250395Y-115290000D01*
X126609605Y-115290000D01*
X128099609Y-116780003D01*
X128440766Y-116593927D01*
X128656513Y-116176591D01*
X128786696Y-115725185D01*
X128820736Y-115322946D01*
X137173687Y-115322946D01*
X137226158Y-115789811D01*
X137368703Y-116237468D01*
X137559234Y-116593927D01*
X137900391Y-116780003D01*
X139390395Y-115290000D01*
X137900391Y-113799997D01*
X137559234Y-113986073D01*
X137343487Y-114403409D01*
X137213304Y-114854815D01*
X137173687Y-115322946D01*
X128820736Y-115322946D01*
X128826313Y-115257054D01*
X128773842Y-114790189D01*
X128631297Y-114342532D01*
X128440766Y-113986073D01*
X128099609Y-113799997D01*
X126609605Y-115290000D01*
X126250395Y-115290000D01*
X124760391Y-113799997D01*
X124419234Y-113986073D01*
X124203487Y-114403409D01*
X124073304Y-114854815D01*
X124033687Y-115322946D01*
X115660000Y-115322946D01*
X115660000Y-113620391D01*
X124939997Y-113620391D01*
X126430000Y-115110395D01*
X127920003Y-113620391D01*
X138079997Y-113620391D01*
X139570000Y-115110395D01*
X141060003Y-113620391D01*
X140873927Y-113279234D01*
X140456591Y-113063487D01*
X140005185Y-112933304D01*
X139537054Y-112893687D01*
X139070189Y-112946158D01*
X138622532Y-113088703D01*
X138266073Y-113279234D01*
X138079997Y-113620391D01*
X127920003Y-113620391D01*
X127733927Y-113279234D01*
X127316591Y-113063487D01*
X126865185Y-112933304D01*
X126397054Y-112893687D01*
X125930189Y-112946158D01*
X125482532Y-113088703D01*
X125126073Y-113279234D01*
X124939997Y-113620391D01*
X115660000Y-113620391D01*
X115660000Y-109661682D01*
X116565000Y-109661682D01*
X116565000Y-110338318D01*
X116697006Y-111001952D01*
X116955943Y-111627082D01*
X117331862Y-112189685D01*
X117810315Y-112668138D01*
X118372918Y-113044057D01*
X118998048Y-113302994D01*
X119661682Y-113435000D01*
X120338318Y-113435000D01*
X121001952Y-113302994D01*
X121627082Y-113044057D01*
X122189685Y-112668138D01*
X122668138Y-112189685D01*
X122745408Y-112074042D01*
X146315000Y-112074042D01*
X146315000Y-112405958D01*
X146379754Y-112731496D01*
X146506772Y-113038147D01*
X146691175Y-113314125D01*
X146925875Y-113548825D01*
X147201853Y-113733228D01*
X147508504Y-113860246D01*
X147834042Y-113925000D01*
X148165958Y-113925000D01*
X148491496Y-113860246D01*
X148798147Y-113733228D01*
X149074125Y-113548825D01*
X149308825Y-113314125D01*
X149493228Y-113038147D01*
X149620246Y-112731496D01*
X149685000Y-112405958D01*
X149685000Y-112074042D01*
X149620246Y-111748504D01*
X149493228Y-111441853D01*
X149371717Y-111260000D01*
X149398722Y-111260000D01*
X149690451Y-111201971D01*
X149965253Y-111088144D01*
X150212569Y-110922893D01*
X150422893Y-110712569D01*
X150588144Y-110465253D01*
X150701971Y-110190451D01*
X150760000Y-109898722D01*
X150760000Y-109601278D01*
X152240000Y-109601278D01*
X152240000Y-109898722D01*
X152298029Y-110190451D01*
X152411856Y-110465253D01*
X152577107Y-110712569D01*
X152787431Y-110922893D01*
X153034747Y-111088144D01*
X153309549Y-111201971D01*
X153601278Y-111260000D01*
X153638283Y-111260000D01*
X153516772Y-111441853D01*
X153389754Y-111748504D01*
X153325000Y-112074042D01*
X153325000Y-112405958D01*
X153389754Y-112731496D01*
X153516772Y-113038147D01*
X153701175Y-113314125D01*
X153935875Y-113548825D01*
X154211853Y-113733228D01*
X154518504Y-113860246D01*
X154844042Y-113925000D01*
X155175958Y-113925000D01*
X155501496Y-113860246D01*
X155808147Y-113733228D01*
X156084125Y-113548825D01*
X156318825Y-113314125D01*
X156503228Y-113038147D01*
X156630246Y-112731496D01*
X156695000Y-112405958D01*
X156695000Y-112074042D01*
X156630246Y-111748504D01*
X156503228Y-111441853D01*
X156318825Y-111165875D01*
X156084125Y-110931175D01*
X155808147Y-110746772D01*
X155501496Y-110619754D01*
X155175958Y-110555000D01*
X155028177Y-110555000D01*
X155088144Y-110465253D01*
X155201971Y-110190451D01*
X155260000Y-109898722D01*
X155260000Y-109661682D01*
X156565000Y-109661682D01*
X156565000Y-110338318D01*
X156697006Y-111001952D01*
X156955943Y-111627082D01*
X157331862Y-112189685D01*
X157810315Y-112668138D01*
X158372918Y-113044057D01*
X158998048Y-113302994D01*
X159661682Y-113435000D01*
X160338318Y-113435000D01*
X161001952Y-113302994D01*
X161627082Y-113044057D01*
X162189685Y-112668138D01*
X162668138Y-112189685D01*
X163044057Y-111627082D01*
X163302994Y-111001952D01*
X163435000Y-110338318D01*
X163435000Y-109661682D01*
X163302994Y-108998048D01*
X163044057Y-108372918D01*
X162668138Y-107810315D01*
X162189685Y-107331862D01*
X161627082Y-106955943D01*
X161001952Y-106697006D01*
X160338318Y-106565000D01*
X159661682Y-106565000D01*
X158998048Y-106697006D01*
X158372918Y-106955943D01*
X157810315Y-107331862D01*
X157331862Y-107810315D01*
X156955943Y-108372918D01*
X156697006Y-108998048D01*
X156565000Y-109661682D01*
X155260000Y-109661682D01*
X155260000Y-109601278D01*
X155201971Y-109309549D01*
X155088144Y-109034747D01*
X154922893Y-108787431D01*
X154712569Y-108577107D01*
X154465253Y-108411856D01*
X154190451Y-108298029D01*
X153898722Y-108240000D01*
X153601278Y-108240000D01*
X153309549Y-108298029D01*
X153034747Y-108411856D01*
X152787431Y-108577107D01*
X152577107Y-108787431D01*
X152411856Y-109034747D01*
X152298029Y-109309549D01*
X152240000Y-109601278D01*
X150760000Y-109601278D01*
X150701971Y-109309549D01*
X150588144Y-109034747D01*
X150422893Y-108787431D01*
X150212569Y-108577107D01*
X149965253Y-108411856D01*
X149690451Y-108298029D01*
X149398722Y-108240000D01*
X149101278Y-108240000D01*
X148809549Y-108298029D01*
X148534747Y-108411856D01*
X148287431Y-108577107D01*
X148077107Y-108787431D01*
X147911856Y-109034747D01*
X147798029Y-109309549D01*
X147740000Y-109601278D01*
X147740000Y-109898722D01*
X147798029Y-110190451D01*
X147911856Y-110465253D01*
X147971823Y-110555000D01*
X147834042Y-110555000D01*
X147508504Y-110619754D01*
X147201853Y-110746772D01*
X146925875Y-110931175D01*
X146691175Y-111165875D01*
X146506772Y-111441853D01*
X146379754Y-111748504D01*
X146315000Y-112074042D01*
X122745408Y-112074042D01*
X123044057Y-111627082D01*
X123302994Y-111001952D01*
X123435000Y-110338318D01*
X123435000Y-109661682D01*
X123302994Y-108998048D01*
X123044057Y-108372918D01*
X122668138Y-107810315D01*
X122189685Y-107331862D01*
X121627082Y-106955943D01*
X121001952Y-106697006D01*
X120338318Y-106565000D01*
X119661682Y-106565000D01*
X118998048Y-106697006D01*
X118372918Y-106955943D01*
X117810315Y-107331862D01*
X117331862Y-107810315D01*
X116955943Y-108372918D01*
X116697006Y-108998048D01*
X116565000Y-109661682D01*
X115660000Y-109661682D01*
X115660000Y-107032279D01*
X115688625Y-106740341D01*
X115764035Y-106490571D01*
X115886522Y-106260208D01*
X116051422Y-106058020D01*
X116252450Y-105891714D01*
X116481954Y-105767622D01*
X116731195Y-105690469D01*
X117021088Y-105660000D01*
X162967721Y-105660000D01*
X163259659Y-105688625D01*
G04 #@! TA.AperFunction,Conductor*
D21*
G36*
X163259659Y-105688625D02*
G01*
X163509429Y-105764035D01*
X163739792Y-105886522D01*
X163941980Y-106051422D01*
X164108286Y-106252450D01*
X164232378Y-106481954D01*
X164309531Y-106731195D01*
X164340000Y-107021089D01*
X164340001Y-122967711D01*
X164311375Y-123259660D01*
X164235965Y-123509429D01*
X164113477Y-123739794D01*
X163948579Y-123941979D01*
X163747546Y-124108288D01*
X163518046Y-124232378D01*
X163268805Y-124309531D01*
X162978911Y-124340000D01*
X117032279Y-124340000D01*
X116740340Y-124311375D01*
X116490571Y-124235965D01*
X116260206Y-124113477D01*
X116058021Y-123948579D01*
X115891712Y-123747546D01*
X115767622Y-123518046D01*
X115690469Y-123268805D01*
X115660000Y-122978911D01*
X115660000Y-119661682D01*
X116565000Y-119661682D01*
X116565000Y-120338318D01*
X116697006Y-121001952D01*
X116955943Y-121627082D01*
X117331862Y-122189685D01*
X117810315Y-122668138D01*
X118372918Y-123044057D01*
X118998048Y-123302994D01*
X119661682Y-123435000D01*
X120338318Y-123435000D01*
X120765638Y-123350000D01*
X125011928Y-123350000D01*
X125024188Y-123474482D01*
X125060498Y-123594180D01*
X125119463Y-123704494D01*
X125198815Y-123801185D01*
X125295506Y-123880537D01*
X125405820Y-123939502D01*
X125525518Y-123975812D01*
X125650000Y-123988072D01*
X126214250Y-123985000D01*
X126373000Y-123826250D01*
X126373000Y-122627000D01*
X126627000Y-122627000D01*
X126627000Y-123826250D01*
X126785750Y-123985000D01*
X127350000Y-123988072D01*
X127474482Y-123975812D01*
X127594180Y-123939502D01*
X127704494Y-123880537D01*
X127801185Y-123801185D01*
X127880537Y-123704494D01*
X127939502Y-123594180D01*
X127963966Y-123513534D01*
X128039731Y-123597588D01*
X128273080Y-123771641D01*
X128535901Y-123896825D01*
X128683110Y-123941476D01*
X128913000Y-123820155D01*
X128913000Y-122627000D01*
X126627000Y-122627000D01*
X126373000Y-122627000D01*
X125173750Y-122627000D01*
X125015000Y-122785750D01*
X125011928Y-123350000D01*
X120765638Y-123350000D01*
X121001952Y-123302994D01*
X121627082Y-123044057D01*
X122189685Y-122668138D01*
X122668138Y-122189685D01*
X123028743Y-121650000D01*
X125011928Y-121650000D01*
X125015000Y-122214250D01*
X125173750Y-122373000D01*
X126373000Y-122373000D01*
X126373000Y-121173750D01*
X126627000Y-121173750D01*
X126627000Y-122373000D01*
X128913000Y-122373000D01*
X128913000Y-121179845D01*
X129167000Y-121179845D01*
X129167000Y-122373000D01*
X129187000Y-122373000D01*
X129187000Y-122627000D01*
X129167000Y-122627000D01*
X129167000Y-123820155D01*
X129396890Y-123941476D01*
X129544099Y-123896825D01*
X129806920Y-123771641D01*
X130040269Y-123597588D01*
X130235178Y-123381355D01*
X130304805Y-123264466D01*
X130426525Y-123446632D01*
X130633368Y-123653475D01*
X130876589Y-123815990D01*
X131146842Y-123927932D01*
X131433740Y-123985000D01*
X131726260Y-123985000D01*
X132013158Y-123927932D01*
X132283411Y-123815990D01*
X132526632Y-123653475D01*
X132733475Y-123446632D01*
X132850000Y-123272240D01*
X132966525Y-123446632D01*
X133173368Y-123653475D01*
X133416589Y-123815990D01*
X133686842Y-123927932D01*
X133973740Y-123985000D01*
X134266260Y-123985000D01*
X134553158Y-123927932D01*
X134823411Y-123815990D01*
X135066632Y-123653475D01*
X135273475Y-123446632D01*
X135390000Y-123272240D01*
X135506525Y-123446632D01*
X135713368Y-123653475D01*
X135956589Y-123815990D01*
X136226842Y-123927932D01*
X136513740Y-123985000D01*
X136806260Y-123985000D01*
X137093158Y-123927932D01*
X137363411Y-123815990D01*
X137606632Y-123653475D01*
X137813475Y-123446632D01*
X137930000Y-123272240D01*
X138046525Y-123446632D01*
X138253368Y-123653475D01*
X138496589Y-123815990D01*
X138766842Y-123927932D01*
X139053740Y-123985000D01*
X139346260Y-123985000D01*
X139633158Y-123927932D01*
X139903411Y-123815990D01*
X140146632Y-123653475D01*
X140353475Y-123446632D01*
X140515990Y-123203411D01*
X140627932Y-122933158D01*
X140685000Y-122646260D01*
X140685000Y-122353740D01*
X140627932Y-122066842D01*
X140515990Y-121796589D01*
X140353475Y-121553368D01*
X140185107Y-121385000D01*
X142615001Y-121385000D01*
X142615001Y-122006521D01*
X142610719Y-122050000D01*
X142627805Y-122223490D01*
X142678412Y-122390313D01*
X142760590Y-122544059D01*
X142811928Y-122606614D01*
X142811928Y-122750000D01*
X142814336Y-122774450D01*
X142814336Y-122799009D01*
X142826596Y-122923490D01*
X142845718Y-123019623D01*
X142882027Y-123139319D01*
X142919536Y-123229875D01*
X142978502Y-123340192D01*
X143032958Y-123421691D01*
X143112310Y-123518382D01*
X143181618Y-123587690D01*
X143278309Y-123667042D01*
X143359808Y-123721498D01*
X143470125Y-123780464D01*
X143560681Y-123817973D01*
X143680377Y-123854282D01*
X143776510Y-123873404D01*
X143900991Y-123885664D01*
X143925550Y-123885664D01*
X143950000Y-123888072D01*
X144450000Y-123888072D01*
X144574482Y-123875812D01*
X144694180Y-123839502D01*
X144804494Y-123780537D01*
X144901185Y-123701185D01*
X144980537Y-123604494D01*
X145039502Y-123494180D01*
X145075812Y-123374482D01*
X145088072Y-123250000D01*
X145088072Y-122353740D01*
X148765000Y-122353740D01*
X148765000Y-122646260D01*
X148822068Y-122933158D01*
X148934010Y-123203411D01*
X149096525Y-123446632D01*
X149303368Y-123653475D01*
X149546589Y-123815990D01*
X149816842Y-123927932D01*
X150103740Y-123985000D01*
X150396260Y-123985000D01*
X150683158Y-123927932D01*
X150953411Y-123815990D01*
X151196632Y-123653475D01*
X151328487Y-123521620D01*
X151350498Y-123594180D01*
X151409463Y-123704494D01*
X151488815Y-123801185D01*
X151585506Y-123880537D01*
X151695820Y-123939502D01*
X151815518Y-123975812D01*
X151940000Y-123988072D01*
X153640000Y-123988072D01*
X153764482Y-123975812D01*
X153884180Y-123939502D01*
X153994494Y-123880537D01*
X154091185Y-123801185D01*
X154170537Y-123704494D01*
X154229502Y-123594180D01*
X154265812Y-123474482D01*
X154278072Y-123350000D01*
X154278072Y-121650000D01*
X154265812Y-121525518D01*
X154229502Y-121405820D01*
X154170537Y-121295506D01*
X154091185Y-121198815D01*
X153994494Y-121119463D01*
X153884180Y-121060498D01*
X153764482Y-121024188D01*
X153640000Y-121011928D01*
X151940000Y-121011928D01*
X151815518Y-121024188D01*
X151695820Y-121060498D01*
X151585506Y-121119463D01*
X151488815Y-121198815D01*
X151409463Y-121295506D01*
X151350498Y-121405820D01*
X151328487Y-121478380D01*
X151196632Y-121346525D01*
X150953411Y-121184010D01*
X150683158Y-121072068D01*
X150396260Y-121015000D01*
X150103740Y-121015000D01*
X149816842Y-121072068D01*
X149546589Y-121184010D01*
X149303368Y-121346525D01*
X149096525Y-121553368D01*
X148934010Y-121796589D01*
X148822068Y-122066842D01*
X148765000Y-122353740D01*
X145088072Y-122353740D01*
X145088072Y-121750000D01*
X145075812Y-121625518D01*
X145039502Y-121505820D01*
X144980537Y-121395506D01*
X144901185Y-121298815D01*
X144804494Y-121219463D01*
X144694180Y-121160498D01*
X144574482Y-121124188D01*
X144450000Y-121111928D01*
X144385000Y-121111928D01*
X144385000Y-120543476D01*
X144389282Y-120500000D01*
X144385000Y-120456523D01*
X144385000Y-119654254D01*
X144424637Y-119621724D01*
X144448815Y-119651185D01*
X144545506Y-119730537D01*
X144655820Y-119789502D01*
X144775518Y-119825812D01*
X144900000Y-119838072D01*
X145214250Y-119835000D01*
X145373000Y-119676250D01*
X145373000Y-118627000D01*
X145627000Y-118627000D01*
X145627000Y-119676250D01*
X145785750Y-119835000D01*
X146100000Y-119838072D01*
X146224482Y-119825812D01*
X146344180Y-119789502D01*
X146454494Y-119730537D01*
X146551185Y-119651185D01*
X146630537Y-119554494D01*
X146689502Y-119444180D01*
X146725812Y-119324482D01*
X146738072Y-119200000D01*
X146735000Y-118785750D01*
X146576250Y-118627000D01*
X145627000Y-118627000D01*
X145373000Y-118627000D01*
X145353000Y-118627000D01*
X145353000Y-118373000D01*
X145373000Y-118373000D01*
X145373000Y-117323750D01*
X145627000Y-117323750D01*
X145627000Y-118373000D01*
X146576250Y-118373000D01*
X146735000Y-118214250D01*
X146738072Y-117800000D01*
X146725812Y-117675518D01*
X146689502Y-117555820D01*
X146630537Y-117445506D01*
X146551185Y-117348815D01*
X146454494Y-117269463D01*
X146344180Y-117210498D01*
X146224482Y-117174188D01*
X146100000Y-117161928D01*
X145785750Y-117165000D01*
X145627000Y-117323750D01*
X145373000Y-117323750D01*
X145214250Y-117165000D01*
X145087814Y-117163764D01*
X145089896Y-117161682D01*
X148065000Y-117161682D01*
X148065000Y-117838318D01*
X148197006Y-118501952D01*
X148455943Y-119127082D01*
X148831862Y-119689685D01*
X149310315Y-120168138D01*
X149872918Y-120544057D01*
X150498048Y-120802994D01*
X151161682Y-120935000D01*
X151838318Y-120935000D01*
X152501952Y-120802994D01*
X153127082Y-120544057D01*
X153689685Y-120168138D01*
X154168138Y-119689685D01*
X154186848Y-119661682D01*
X156565000Y-119661682D01*
X156565000Y-120338318D01*
X156697006Y-121001952D01*
X156955943Y-121627082D01*
X157331862Y-122189685D01*
X157810315Y-122668138D01*
X158372918Y-123044057D01*
X158998048Y-123302994D01*
X159661682Y-123435000D01*
X160338318Y-123435000D01*
X161001952Y-123302994D01*
X161627082Y-123044057D01*
X162189685Y-122668138D01*
X162668138Y-122189685D01*
X163044057Y-121627082D01*
X163302994Y-121001952D01*
X163435000Y-120338318D01*
X163435000Y-119661682D01*
X163302994Y-118998048D01*
X163044057Y-118372918D01*
X162668138Y-117810315D01*
X162189685Y-117331862D01*
X161627082Y-116955943D01*
X161001952Y-116697006D01*
X160338318Y-116565000D01*
X159661682Y-116565000D01*
X158998048Y-116697006D01*
X158372918Y-116955943D01*
X157810315Y-117331862D01*
X157331862Y-117810315D01*
X156955943Y-118372918D01*
X156697006Y-118998048D01*
X156565000Y-119661682D01*
X154186848Y-119661682D01*
X154544057Y-119127082D01*
X154802994Y-118501952D01*
X154935000Y-117838318D01*
X154935000Y-117161682D01*
X154802994Y-116498048D01*
X154544057Y-115872918D01*
X154168138Y-115310315D01*
X153689685Y-114831862D01*
X153127082Y-114455943D01*
X152501952Y-114197006D01*
X151838318Y-114065000D01*
X151161682Y-114065000D01*
X150498048Y-114197006D01*
X149872918Y-114455943D01*
X149310315Y-114831862D01*
X148831862Y-115310315D01*
X148455943Y-115872918D01*
X148197006Y-116498048D01*
X148065000Y-117161682D01*
X145089896Y-117161682D01*
X146095049Y-116156530D01*
X146128817Y-116128817D01*
X146239411Y-115994059D01*
X146321589Y-115840313D01*
X146372195Y-115673490D01*
X146373130Y-115663995D01*
X146477962Y-115577962D01*
X146588405Y-115443387D01*
X146670472Y-115289851D01*
X146721008Y-115123255D01*
X146738072Y-114950001D01*
X146738072Y-114049999D01*
X146721008Y-113876745D01*
X146670472Y-113710149D01*
X146588405Y-113556613D01*
X146477962Y-113422038D01*
X146343387Y-113311595D01*
X146189851Y-113229528D01*
X146023255Y-113178992D01*
X145850001Y-113161928D01*
X145149999Y-113161928D01*
X144976745Y-113178992D01*
X144810149Y-113229528D01*
X144656613Y-113311595D01*
X144522038Y-113422038D01*
X144500000Y-113448891D01*
X144477962Y-113422038D01*
X144343387Y-113311595D01*
X144189851Y-113229528D01*
X144023255Y-113178992D01*
X143850001Y-113161928D01*
X143149999Y-113161928D01*
X142976745Y-113178992D01*
X142810149Y-113229528D01*
X142656613Y-113311595D01*
X142522038Y-113422038D01*
X142411595Y-113556613D01*
X142329528Y-113710149D01*
X142278992Y-113876745D01*
X142261928Y-114049999D01*
X142261928Y-114950001D01*
X142278992Y-115123255D01*
X142329528Y-115289851D01*
X142411595Y-115443387D01*
X142476251Y-115522170D01*
X141769417Y-116229004D01*
X141796513Y-116176591D01*
X141926696Y-115725185D01*
X141966313Y-115257054D01*
X141913842Y-114790189D01*
X141771297Y-114342532D01*
X141580766Y-113986073D01*
X141239609Y-113799997D01*
X139749605Y-115290000D01*
X139763748Y-115304142D01*
X139584142Y-115483748D01*
X139570000Y-115469605D01*
X138079997Y-116959609D01*
X138164751Y-117115000D01*
X137887958Y-117115000D01*
X137887812Y-117113518D01*
X137851502Y-116993820D01*
X137792537Y-116883506D01*
X137713185Y-116786815D01*
X137616494Y-116707463D01*
X137506180Y-116648498D01*
X137386482Y-116612188D01*
X137262000Y-116599928D01*
X135738000Y-116599928D01*
X135613518Y-116612188D01*
X135493820Y-116648498D01*
X135383506Y-116707463D01*
X135286815Y-116786815D01*
X135207463Y-116883506D01*
X135148498Y-116993820D01*
X135112188Y-117113518D01*
X135109059Y-117145292D01*
X135085120Y-117109465D01*
X134890535Y-116914880D01*
X134661727Y-116761995D01*
X134407490Y-116656686D01*
X134137592Y-116603000D01*
X133862408Y-116603000D01*
X133592510Y-116656686D01*
X133338273Y-116761995D01*
X133109465Y-116914880D01*
X133000000Y-117024345D01*
X132890535Y-116914880D01*
X132661727Y-116761995D01*
X132407490Y-116656686D01*
X132137592Y-116603000D01*
X131862408Y-116603000D01*
X131592510Y-116656686D01*
X131338273Y-116761995D01*
X131109465Y-116914880D01*
X130914880Y-117109465D01*
X130761995Y-117338273D01*
X130750758Y-117365401D01*
X130705656Y-117281020D01*
X130465565Y-117214040D01*
X129679605Y-118000000D01*
X130465565Y-118785960D01*
X130705656Y-118718980D01*
X130748218Y-118628467D01*
X130761995Y-118661727D01*
X130914880Y-118890535D01*
X131109465Y-119085120D01*
X131338273Y-119238005D01*
X131592510Y-119343314D01*
X131862408Y-119397000D01*
X132137592Y-119397000D01*
X132407490Y-119343314D01*
X132661727Y-119238005D01*
X132890535Y-119085120D01*
X133000000Y-118975655D01*
X133109465Y-119085120D01*
X133338273Y-119238005D01*
X133592510Y-119343314D01*
X133862408Y-119397000D01*
X134137592Y-119397000D01*
X134407490Y-119343314D01*
X134661727Y-119238005D01*
X134890535Y-119085120D01*
X135085120Y-118890535D01*
X135109059Y-118854708D01*
X135112188Y-118886482D01*
X135148498Y-119006180D01*
X135207463Y-119116494D01*
X135286815Y-119213185D01*
X135383506Y-119292537D01*
X135493820Y-119351502D01*
X135613518Y-119387812D01*
X135738000Y-119400072D01*
X137262000Y-119400072D01*
X137386482Y-119387812D01*
X137506180Y-119351502D01*
X137616494Y-119292537D01*
X137713185Y-119213185D01*
X137792537Y-119116494D01*
X137851502Y-119006180D01*
X137887812Y-118886482D01*
X137887958Y-118885000D01*
X141206531Y-118885000D01*
X141250000Y-118889281D01*
X141293469Y-118885000D01*
X141293477Y-118885000D01*
X141423490Y-118872195D01*
X141590313Y-118821589D01*
X141744059Y-118739411D01*
X141878817Y-118628817D01*
X141906534Y-118595044D01*
X142261928Y-118239650D01*
X142261928Y-118950001D01*
X142278992Y-119123255D01*
X142329528Y-119289851D01*
X142411595Y-119443387D01*
X142522038Y-119577962D01*
X142567169Y-119615000D01*
X133623465Y-119615000D01*
X133579999Y-119610719D01*
X133536533Y-119615000D01*
X133536523Y-119615000D01*
X133406510Y-119627805D01*
X133239687Y-119678411D01*
X133085941Y-119760589D01*
X133085939Y-119760590D01*
X133085940Y-119760590D01*
X132984953Y-119843468D01*
X132984951Y-119843470D01*
X132951183Y-119871183D01*
X132923470Y-119904951D01*
X131798960Y-121029461D01*
X131726260Y-121015000D01*
X131433740Y-121015000D01*
X131146842Y-121072068D01*
X130876589Y-121184010D01*
X130633368Y-121346525D01*
X130426525Y-121553368D01*
X130304805Y-121735534D01*
X130235178Y-121618645D01*
X130040269Y-121402412D01*
X129806920Y-121228359D01*
X129544099Y-121103175D01*
X129396890Y-121058524D01*
X129167000Y-121179845D01*
X128913000Y-121179845D01*
X128683110Y-121058524D01*
X128535901Y-121103175D01*
X128273080Y-121228359D01*
X128039731Y-121402412D01*
X127963966Y-121486466D01*
X127939502Y-121405820D01*
X127880537Y-121295506D01*
X127801185Y-121198815D01*
X127704494Y-121119463D01*
X127594180Y-121060498D01*
X127474482Y-121024188D01*
X127350000Y-121011928D01*
X126785750Y-121015000D01*
X126627000Y-121173750D01*
X126373000Y-121173750D01*
X126214250Y-121015000D01*
X125650000Y-121011928D01*
X125525518Y-121024188D01*
X125405820Y-121060498D01*
X125295506Y-121119463D01*
X125198815Y-121198815D01*
X125119463Y-121295506D01*
X125060498Y-121405820D01*
X125024188Y-121525518D01*
X125011928Y-121650000D01*
X123028743Y-121650000D01*
X123044057Y-121627082D01*
X123302994Y-121001952D01*
X123435000Y-120338318D01*
X123435000Y-119661682D01*
X123302994Y-118998048D01*
X123289540Y-118965565D01*
X128714040Y-118965565D01*
X128781020Y-119205656D01*
X129030048Y-119322756D01*
X129297135Y-119389023D01*
X129572017Y-119401910D01*
X129844133Y-119360922D01*
X130103023Y-119267636D01*
X130218980Y-119205656D01*
X130285960Y-118965565D01*
X129500000Y-118179605D01*
X128714040Y-118965565D01*
X123289540Y-118965565D01*
X123044057Y-118372918D01*
X122843002Y-118072017D01*
X128098090Y-118072017D01*
X128139078Y-118344133D01*
X128232364Y-118603023D01*
X128294344Y-118718980D01*
X128534435Y-118785960D01*
X129320395Y-118000000D01*
X128534435Y-117214040D01*
X128294344Y-117281020D01*
X128177244Y-117530048D01*
X128110977Y-117797135D01*
X128098090Y-118072017D01*
X122843002Y-118072017D01*
X122668138Y-117810315D01*
X122189685Y-117331862D01*
X121632569Y-116959609D01*
X124939997Y-116959609D01*
X125126073Y-117300766D01*
X125543409Y-117516513D01*
X125994815Y-117646696D01*
X126462946Y-117686313D01*
X126929811Y-117633842D01*
X127377468Y-117491297D01*
X127733927Y-117300766D01*
X127879190Y-117034435D01*
X128714040Y-117034435D01*
X129500000Y-117820395D01*
X130285960Y-117034435D01*
X130218980Y-116794344D01*
X129969952Y-116677244D01*
X129702865Y-116610977D01*
X129427983Y-116598090D01*
X129155867Y-116639078D01*
X128896977Y-116732364D01*
X128781020Y-116794344D01*
X128714040Y-117034435D01*
X127879190Y-117034435D01*
X127920003Y-116959609D01*
X126430000Y-115469605D01*
X124939997Y-116959609D01*
X121632569Y-116959609D01*
X121627082Y-116955943D01*
X121001952Y-116697006D01*
X120338318Y-116565000D01*
X119661682Y-116565000D01*
X118998048Y-116697006D01*
X118372918Y-116955943D01*
X117810315Y-117331862D01*
X117331862Y-117810315D01*
X116955943Y-118372918D01*
X116697006Y-118998048D01*
X116565000Y-119661682D01*
X115660000Y-119661682D01*
X115660000Y-115322946D01*
X124033687Y-115322946D01*
X124086158Y-115789811D01*
X124228703Y-116237468D01*
X124419234Y-116593927D01*
X124760391Y-116780003D01*
X126250395Y-115290000D01*
X126609605Y-115290000D01*
X128099609Y-116780003D01*
X128440766Y-116593927D01*
X128656513Y-116176591D01*
X128786696Y-115725185D01*
X128820736Y-115322946D01*
X137173687Y-115322946D01*
X137226158Y-115789811D01*
X137368703Y-116237468D01*
X137559234Y-116593927D01*
X137900391Y-116780003D01*
X139390395Y-115290000D01*
X137900391Y-113799997D01*
X137559234Y-113986073D01*
X137343487Y-114403409D01*
X137213304Y-114854815D01*
X137173687Y-115322946D01*
X128820736Y-115322946D01*
X128826313Y-115257054D01*
X128773842Y-114790189D01*
X128631297Y-114342532D01*
X128440766Y-113986073D01*
X128099609Y-113799997D01*
X126609605Y-115290000D01*
X126250395Y-115290000D01*
X124760391Y-113799997D01*
X124419234Y-113986073D01*
X124203487Y-114403409D01*
X124073304Y-114854815D01*
X124033687Y-115322946D01*
X115660000Y-115322946D01*
X115660000Y-113620391D01*
X124939997Y-113620391D01*
X126430000Y-115110395D01*
X127920003Y-113620391D01*
X138079997Y-113620391D01*
X139570000Y-115110395D01*
X141060003Y-113620391D01*
X140873927Y-113279234D01*
X140456591Y-113063487D01*
X140005185Y-112933304D01*
X139537054Y-112893687D01*
X139070189Y-112946158D01*
X138622532Y-113088703D01*
X138266073Y-113279234D01*
X138079997Y-113620391D01*
X127920003Y-113620391D01*
X127733927Y-113279234D01*
X127316591Y-113063487D01*
X126865185Y-112933304D01*
X126397054Y-112893687D01*
X125930189Y-112946158D01*
X125482532Y-113088703D01*
X125126073Y-113279234D01*
X124939997Y-113620391D01*
X115660000Y-113620391D01*
X115660000Y-109661682D01*
X116565000Y-109661682D01*
X116565000Y-110338318D01*
X116697006Y-111001952D01*
X116955943Y-111627082D01*
X117331862Y-112189685D01*
X117810315Y-112668138D01*
X118372918Y-113044057D01*
X118998048Y-113302994D01*
X119661682Y-113435000D01*
X120338318Y-113435000D01*
X121001952Y-113302994D01*
X121627082Y-113044057D01*
X122189685Y-112668138D01*
X122668138Y-112189685D01*
X122745408Y-112074042D01*
X146315000Y-112074042D01*
X146315000Y-112405958D01*
X146379754Y-112731496D01*
X146506772Y-113038147D01*
X146691175Y-113314125D01*
X146925875Y-113548825D01*
X147201853Y-113733228D01*
X147508504Y-113860246D01*
X147834042Y-113925000D01*
X148165958Y-113925000D01*
X148491496Y-113860246D01*
X148798147Y-113733228D01*
X149074125Y-113548825D01*
X149308825Y-113314125D01*
X149493228Y-113038147D01*
X149620246Y-112731496D01*
X149685000Y-112405958D01*
X149685000Y-112074042D01*
X149620246Y-111748504D01*
X149493228Y-111441853D01*
X149371717Y-111260000D01*
X149398722Y-111260000D01*
X149690451Y-111201971D01*
X149965253Y-111088144D01*
X150212569Y-110922893D01*
X150422893Y-110712569D01*
X150588144Y-110465253D01*
X150701971Y-110190451D01*
X150760000Y-109898722D01*
X150760000Y-109601278D01*
X152240000Y-109601278D01*
X152240000Y-109898722D01*
X152298029Y-110190451D01*
X152411856Y-110465253D01*
X152577107Y-110712569D01*
X152787431Y-110922893D01*
X153034747Y-111088144D01*
X153309549Y-111201971D01*
X153601278Y-111260000D01*
X153638283Y-111260000D01*
X153516772Y-111441853D01*
X153389754Y-111748504D01*
X153325000Y-112074042D01*
X153325000Y-112405958D01*
X153389754Y-112731496D01*
X153516772Y-113038147D01*
X153701175Y-113314125D01*
X153935875Y-113548825D01*
X154211853Y-113733228D01*
X154518504Y-113860246D01*
X154844042Y-113925000D01*
X155175958Y-113925000D01*
X155501496Y-113860246D01*
X155808147Y-113733228D01*
X156084125Y-113548825D01*
X156318825Y-113314125D01*
X156503228Y-113038147D01*
X156630246Y-112731496D01*
X156695000Y-112405958D01*
X156695000Y-112074042D01*
X156630246Y-111748504D01*
X156503228Y-111441853D01*
X156318825Y-111165875D01*
X156084125Y-110931175D01*
X155808147Y-110746772D01*
X155501496Y-110619754D01*
X155175958Y-110555000D01*
X155028177Y-110555000D01*
X155088144Y-110465253D01*
X155201971Y-110190451D01*
X155260000Y-109898722D01*
X155260000Y-109661682D01*
X156565000Y-109661682D01*
X156565000Y-110338318D01*
X156697006Y-111001952D01*
X156955943Y-111627082D01*
X157331862Y-112189685D01*
X157810315Y-112668138D01*
X158372918Y-113044057D01*
X158998048Y-113302994D01*
X159661682Y-113435000D01*
X160338318Y-113435000D01*
X161001952Y-113302994D01*
X161627082Y-113044057D01*
X162189685Y-112668138D01*
X162668138Y-112189685D01*
X163044057Y-111627082D01*
X163302994Y-111001952D01*
X163435000Y-110338318D01*
X163435000Y-109661682D01*
X163302994Y-108998048D01*
X163044057Y-108372918D01*
X162668138Y-107810315D01*
X162189685Y-107331862D01*
X161627082Y-106955943D01*
X161001952Y-106697006D01*
X160338318Y-106565000D01*
X159661682Y-106565000D01*
X158998048Y-106697006D01*
X158372918Y-106955943D01*
X157810315Y-107331862D01*
X157331862Y-107810315D01*
X156955943Y-108372918D01*
X156697006Y-108998048D01*
X156565000Y-109661682D01*
X155260000Y-109661682D01*
X155260000Y-109601278D01*
X155201971Y-109309549D01*
X155088144Y-109034747D01*
X154922893Y-108787431D01*
X154712569Y-108577107D01*
X154465253Y-108411856D01*
X154190451Y-108298029D01*
X153898722Y-108240000D01*
X153601278Y-108240000D01*
X153309549Y-108298029D01*
X153034747Y-108411856D01*
X152787431Y-108577107D01*
X152577107Y-108787431D01*
X152411856Y-109034747D01*
X152298029Y-109309549D01*
X152240000Y-109601278D01*
X150760000Y-109601278D01*
X150701971Y-109309549D01*
X150588144Y-109034747D01*
X150422893Y-108787431D01*
X150212569Y-108577107D01*
X149965253Y-108411856D01*
X149690451Y-108298029D01*
X149398722Y-108240000D01*
X149101278Y-108240000D01*
X148809549Y-108298029D01*
X148534747Y-108411856D01*
X148287431Y-108577107D01*
X148077107Y-108787431D01*
X147911856Y-109034747D01*
X147798029Y-109309549D01*
X147740000Y-109601278D01*
X147740000Y-109898722D01*
X147798029Y-110190451D01*
X147911856Y-110465253D01*
X147971823Y-110555000D01*
X147834042Y-110555000D01*
X147508504Y-110619754D01*
X147201853Y-110746772D01*
X146925875Y-110931175D01*
X146691175Y-111165875D01*
X146506772Y-111441853D01*
X146379754Y-111748504D01*
X146315000Y-112074042D01*
X122745408Y-112074042D01*
X123044057Y-111627082D01*
X123302994Y-111001952D01*
X123435000Y-110338318D01*
X123435000Y-109661682D01*
X123302994Y-108998048D01*
X123044057Y-108372918D01*
X122668138Y-107810315D01*
X122189685Y-107331862D01*
X121627082Y-106955943D01*
X121001952Y-106697006D01*
X120338318Y-106565000D01*
X119661682Y-106565000D01*
X118998048Y-106697006D01*
X118372918Y-106955943D01*
X117810315Y-107331862D01*
X117331862Y-107810315D01*
X116955943Y-108372918D01*
X116697006Y-108998048D01*
X116565000Y-109661682D01*
X115660000Y-109661682D01*
X115660000Y-107032279D01*
X115688625Y-106740341D01*
X115764035Y-106490571D01*
X115886522Y-106260208D01*
X116051422Y-106058020D01*
X116252450Y-105891714D01*
X116481954Y-105767622D01*
X116731195Y-105690469D01*
X117021088Y-105660000D01*
X162967721Y-105660000D01*
X163259659Y-105688625D01*
G37*
G04 #@! TD.AperFunction*
M02*
