M48
; DRILL file {KiCad 5.1.9+dfsg1-1} date Wed Mar  8 16:13:57 2023
; FORMAT={-:-/ absolute / metric / decimal}
; #@! TF.CreationDate,2023-03-08T16:13:57+09:00
; #@! TF.GenerationSoftware,Kicad,Pcbnew,5.1.9+dfsg1-1
; #@! TF.FileFunction,Plated,1,2,PTH
FMAT,2
METRIC
T1C0.400
T2C0.920
T3C0.990
T4C1.000
T5C1.300
T6C2.300
T7C3.200
%
G90
G05
T1
X141.5Y-118.0
X141.5Y-120.0
T2
X129.5Y-118.0
X132.0Y-118.0
X134.0Y-118.0
X136.5Y-118.0
T3
X149.25Y-109.75
X153.75Y-109.75
T4
X126.5Y-122.5
X129.04Y-122.5
X131.58Y-122.5
X134.12Y-122.5
X136.66Y-122.5
X139.2Y-122.5
X150.25Y-122.5
X152.79Y-122.5
T5
X148.0Y-112.24
X155.01Y-112.24
T6
X126.43Y-115.29
X139.57Y-115.29
T7
X120.0Y-110.0
X120.0Y-120.0
X151.5Y-117.5
X160.0Y-110.0
X160.0Y-120.0
T0
M30
