G04 #@! TF.GenerationSoftware,KiCad,Pcbnew,5.1.9+dfsg1-1*
G04 #@! TF.CreationDate,2022-11-10T16:00:35+09:00*
G04 #@! TF.ProjectId,esp32-button,65737033-322d-4627-9574-746f6e2e6b69,rev?*
G04 #@! TF.SameCoordinates,Original*
G04 #@! TF.FileFunction,Copper,L1,Top*
G04 #@! TF.FilePolarity,Positive*
%FSLAX46Y46*%
G04 Gerber Fmt 4.6, Leading zero omitted, Abs format (unit mm)*
G04 Created by KiCad (PCBNEW 5.1.9+dfsg1-1) date 2022-11-10 16:00:35*
%MOMM*%
%LPD*%
G01*
G04 APERTURE LIST*
G04 #@! TA.AperFunction,SMDPad,CuDef*
%ADD10R,1.550000X1.300000*%
G04 #@! TD*
G04 #@! TA.AperFunction,ViaPad*
%ADD11C,0.800000*%
G04 #@! TD*
G04 #@! TA.AperFunction,Conductor*
%ADD12C,0.250000*%
G04 #@! TD*
G04 #@! TA.AperFunction,Conductor*
%ADD13C,0.254000*%
G04 #@! TD*
G04 #@! TA.AperFunction,Conductor*
%ADD14C,0.100000*%
G04 #@! TD*
G04 APERTURE END LIST*
D10*
X147950000Y-122000000D03*
X147950000Y-117500000D03*
X140000000Y-117500000D03*
X140000000Y-122000000D03*
X140000000Y-112000000D03*
X140000000Y-107500000D03*
X147950000Y-107500000D03*
X147950000Y-112000000D03*
X140000000Y-102000000D03*
X140000000Y-97500000D03*
X147950000Y-97500000D03*
X147950000Y-102000000D03*
X147950000Y-92000000D03*
X147950000Y-87500000D03*
X140000000Y-87500000D03*
X140000000Y-92000000D03*
X140000000Y-82000000D03*
X140000000Y-77500000D03*
X147950000Y-77500000D03*
X147950000Y-82000000D03*
X147975000Y-72000000D03*
X147975000Y-67500000D03*
X140025000Y-67500000D03*
X140025000Y-72000000D03*
D11*
X140000000Y-99500000D03*
X140000000Y-119500000D03*
X140000000Y-109500000D03*
X148000000Y-109500000D03*
X140000000Y-89500000D03*
X140000000Y-79500000D03*
X140000000Y-69500000D03*
X148000000Y-69500000D03*
X148000000Y-99500000D03*
X148000000Y-119500000D03*
X138500000Y-122000000D03*
X138500000Y-112000000D03*
X138500000Y-102000000D03*
X138500000Y-92000000D03*
X138500000Y-82000000D03*
X138500000Y-72000000D03*
D12*
X140000000Y-122000000D02*
X138500000Y-122000000D01*
X147950000Y-122000000D02*
X140000000Y-122000000D01*
X147950000Y-112000000D02*
X140000000Y-112000000D01*
X140000000Y-112000000D02*
X138500000Y-112000000D01*
X147950000Y-102000000D02*
X140000000Y-102000000D01*
X140000000Y-102000000D02*
X138500000Y-102000000D01*
X138500000Y-102000000D02*
X138500000Y-102000000D01*
X147950000Y-92000000D02*
X140000000Y-92000000D01*
X140000000Y-92000000D02*
X138500000Y-92000000D01*
X147950000Y-82000000D02*
X140000000Y-82000000D01*
X140000000Y-82000000D02*
X138500000Y-82000000D01*
X147975000Y-72000000D02*
X140025000Y-72000000D01*
X140025000Y-72000000D02*
X138500000Y-72000000D01*
D13*
X152759659Y-65688625D02*
X153009429Y-65764035D01*
X153239792Y-65886522D01*
X153441980Y-66051422D01*
X153608286Y-66252450D01*
X153732378Y-66481954D01*
X153809531Y-66731195D01*
X153840001Y-67021098D01*
X153840000Y-122967721D01*
X153811375Y-123259660D01*
X153735965Y-123509429D01*
X153613477Y-123739794D01*
X153448579Y-123941979D01*
X153247546Y-124108288D01*
X153018046Y-124232378D01*
X152768805Y-124309531D01*
X152478911Y-124340000D01*
X134532279Y-124340000D01*
X134240340Y-124311375D01*
X133990571Y-124235965D01*
X133760206Y-124113477D01*
X133558021Y-123948579D01*
X133391712Y-123747546D01*
X133267622Y-123518046D01*
X133190469Y-123268805D01*
X133160000Y-122978911D01*
X133160000Y-121898061D01*
X137465000Y-121898061D01*
X137465000Y-122101939D01*
X137504774Y-122301898D01*
X137582795Y-122490256D01*
X137696063Y-122659774D01*
X137840226Y-122803937D01*
X138009744Y-122917205D01*
X138198102Y-122995226D01*
X138398061Y-123035000D01*
X138601939Y-123035000D01*
X138703001Y-123014898D01*
X138773815Y-123101185D01*
X138870506Y-123180537D01*
X138980820Y-123239502D01*
X139100518Y-123275812D01*
X139225000Y-123288072D01*
X140775000Y-123288072D01*
X140899482Y-123275812D01*
X141019180Y-123239502D01*
X141129494Y-123180537D01*
X141226185Y-123101185D01*
X141305537Y-123004494D01*
X141364502Y-122894180D01*
X141400812Y-122774482D01*
X141402238Y-122760000D01*
X146547762Y-122760000D01*
X146549188Y-122774482D01*
X146585498Y-122894180D01*
X146644463Y-123004494D01*
X146723815Y-123101185D01*
X146820506Y-123180537D01*
X146930820Y-123239502D01*
X147050518Y-123275812D01*
X147175000Y-123288072D01*
X148725000Y-123288072D01*
X148849482Y-123275812D01*
X148969180Y-123239502D01*
X149079494Y-123180537D01*
X149176185Y-123101185D01*
X149255537Y-123004494D01*
X149314502Y-122894180D01*
X149350812Y-122774482D01*
X149363072Y-122650000D01*
X149363072Y-121350000D01*
X149350812Y-121225518D01*
X149314502Y-121105820D01*
X149255537Y-120995506D01*
X149176185Y-120898815D01*
X149079494Y-120819463D01*
X148969180Y-120760498D01*
X148849482Y-120724188D01*
X148725000Y-120711928D01*
X147175000Y-120711928D01*
X147050518Y-120724188D01*
X146930820Y-120760498D01*
X146820506Y-120819463D01*
X146723815Y-120898815D01*
X146644463Y-120995506D01*
X146585498Y-121105820D01*
X146549188Y-121225518D01*
X146547762Y-121240000D01*
X141402238Y-121240000D01*
X141400812Y-121225518D01*
X141364502Y-121105820D01*
X141305537Y-120995506D01*
X141226185Y-120898815D01*
X141129494Y-120819463D01*
X141019180Y-120760498D01*
X140899482Y-120724188D01*
X140775000Y-120711928D01*
X139225000Y-120711928D01*
X139100518Y-120724188D01*
X138980820Y-120760498D01*
X138870506Y-120819463D01*
X138773815Y-120898815D01*
X138703001Y-120985102D01*
X138601939Y-120965000D01*
X138398061Y-120965000D01*
X138198102Y-121004774D01*
X138009744Y-121082795D01*
X137840226Y-121196063D01*
X137696063Y-121340226D01*
X137582795Y-121509744D01*
X137504774Y-121698102D01*
X137465000Y-121898061D01*
X133160000Y-121898061D01*
X133160000Y-118150000D01*
X138586928Y-118150000D01*
X138599188Y-118274482D01*
X138635498Y-118394180D01*
X138694463Y-118504494D01*
X138773815Y-118601185D01*
X138870506Y-118680537D01*
X138980820Y-118739502D01*
X139100518Y-118775812D01*
X139225000Y-118788072D01*
X139714250Y-118785000D01*
X139873000Y-118626250D01*
X139873000Y-117627000D01*
X140127000Y-117627000D01*
X140127000Y-118626250D01*
X140285750Y-118785000D01*
X140775000Y-118788072D01*
X140899482Y-118775812D01*
X141019180Y-118739502D01*
X141129494Y-118680537D01*
X141226185Y-118601185D01*
X141305537Y-118504494D01*
X141364502Y-118394180D01*
X141400812Y-118274482D01*
X141413072Y-118150000D01*
X146536928Y-118150000D01*
X146549188Y-118274482D01*
X146585498Y-118394180D01*
X146644463Y-118504494D01*
X146723815Y-118601185D01*
X146820506Y-118680537D01*
X146930820Y-118739502D01*
X147050518Y-118775812D01*
X147175000Y-118788072D01*
X147664250Y-118785000D01*
X147823000Y-118626250D01*
X147823000Y-117627000D01*
X148077000Y-117627000D01*
X148077000Y-118626250D01*
X148235750Y-118785000D01*
X148725000Y-118788072D01*
X148849482Y-118775812D01*
X148969180Y-118739502D01*
X149079494Y-118680537D01*
X149176185Y-118601185D01*
X149255537Y-118504494D01*
X149314502Y-118394180D01*
X149350812Y-118274482D01*
X149363072Y-118150000D01*
X149360000Y-117785750D01*
X149201250Y-117627000D01*
X148077000Y-117627000D01*
X147823000Y-117627000D01*
X146698750Y-117627000D01*
X146540000Y-117785750D01*
X146536928Y-118150000D01*
X141413072Y-118150000D01*
X141410000Y-117785750D01*
X141251250Y-117627000D01*
X140127000Y-117627000D01*
X139873000Y-117627000D01*
X138748750Y-117627000D01*
X138590000Y-117785750D01*
X138586928Y-118150000D01*
X133160000Y-118150000D01*
X133160000Y-116850000D01*
X138586928Y-116850000D01*
X138590000Y-117214250D01*
X138748750Y-117373000D01*
X139873000Y-117373000D01*
X139873000Y-116373750D01*
X140127000Y-116373750D01*
X140127000Y-117373000D01*
X141251250Y-117373000D01*
X141410000Y-117214250D01*
X141413072Y-116850000D01*
X146536928Y-116850000D01*
X146540000Y-117214250D01*
X146698750Y-117373000D01*
X147823000Y-117373000D01*
X147823000Y-116373750D01*
X148077000Y-116373750D01*
X148077000Y-117373000D01*
X149201250Y-117373000D01*
X149360000Y-117214250D01*
X149363072Y-116850000D01*
X149350812Y-116725518D01*
X149314502Y-116605820D01*
X149255537Y-116495506D01*
X149176185Y-116398815D01*
X149079494Y-116319463D01*
X148969180Y-116260498D01*
X148849482Y-116224188D01*
X148725000Y-116211928D01*
X148235750Y-116215000D01*
X148077000Y-116373750D01*
X147823000Y-116373750D01*
X147664250Y-116215000D01*
X147175000Y-116211928D01*
X147050518Y-116224188D01*
X146930820Y-116260498D01*
X146820506Y-116319463D01*
X146723815Y-116398815D01*
X146644463Y-116495506D01*
X146585498Y-116605820D01*
X146549188Y-116725518D01*
X146536928Y-116850000D01*
X141413072Y-116850000D01*
X141400812Y-116725518D01*
X141364502Y-116605820D01*
X141305537Y-116495506D01*
X141226185Y-116398815D01*
X141129494Y-116319463D01*
X141019180Y-116260498D01*
X140899482Y-116224188D01*
X140775000Y-116211928D01*
X140285750Y-116215000D01*
X140127000Y-116373750D01*
X139873000Y-116373750D01*
X139714250Y-116215000D01*
X139225000Y-116211928D01*
X139100518Y-116224188D01*
X138980820Y-116260498D01*
X138870506Y-116319463D01*
X138773815Y-116398815D01*
X138694463Y-116495506D01*
X138635498Y-116605820D01*
X138599188Y-116725518D01*
X138586928Y-116850000D01*
X133160000Y-116850000D01*
X133160000Y-111898061D01*
X137465000Y-111898061D01*
X137465000Y-112101939D01*
X137504774Y-112301898D01*
X137582795Y-112490256D01*
X137696063Y-112659774D01*
X137840226Y-112803937D01*
X138009744Y-112917205D01*
X138198102Y-112995226D01*
X138398061Y-113035000D01*
X138601939Y-113035000D01*
X138703001Y-113014898D01*
X138773815Y-113101185D01*
X138870506Y-113180537D01*
X138980820Y-113239502D01*
X139100518Y-113275812D01*
X139225000Y-113288072D01*
X140775000Y-113288072D01*
X140899482Y-113275812D01*
X141019180Y-113239502D01*
X141129494Y-113180537D01*
X141226185Y-113101185D01*
X141305537Y-113004494D01*
X141364502Y-112894180D01*
X141400812Y-112774482D01*
X141402238Y-112760000D01*
X146547762Y-112760000D01*
X146549188Y-112774482D01*
X146585498Y-112894180D01*
X146644463Y-113004494D01*
X146723815Y-113101185D01*
X146820506Y-113180537D01*
X146930820Y-113239502D01*
X147050518Y-113275812D01*
X147175000Y-113288072D01*
X148725000Y-113288072D01*
X148849482Y-113275812D01*
X148969180Y-113239502D01*
X149079494Y-113180537D01*
X149176185Y-113101185D01*
X149255537Y-113004494D01*
X149314502Y-112894180D01*
X149350812Y-112774482D01*
X149363072Y-112650000D01*
X149363072Y-111350000D01*
X149350812Y-111225518D01*
X149314502Y-111105820D01*
X149255537Y-110995506D01*
X149176185Y-110898815D01*
X149079494Y-110819463D01*
X148969180Y-110760498D01*
X148849482Y-110724188D01*
X148725000Y-110711928D01*
X147175000Y-110711928D01*
X147050518Y-110724188D01*
X146930820Y-110760498D01*
X146820506Y-110819463D01*
X146723815Y-110898815D01*
X146644463Y-110995506D01*
X146585498Y-111105820D01*
X146549188Y-111225518D01*
X146547762Y-111240000D01*
X141402238Y-111240000D01*
X141400812Y-111225518D01*
X141364502Y-111105820D01*
X141305537Y-110995506D01*
X141226185Y-110898815D01*
X141129494Y-110819463D01*
X141019180Y-110760498D01*
X140899482Y-110724188D01*
X140775000Y-110711928D01*
X139225000Y-110711928D01*
X139100518Y-110724188D01*
X138980820Y-110760498D01*
X138870506Y-110819463D01*
X138773815Y-110898815D01*
X138703001Y-110985102D01*
X138601939Y-110965000D01*
X138398061Y-110965000D01*
X138198102Y-111004774D01*
X138009744Y-111082795D01*
X137840226Y-111196063D01*
X137696063Y-111340226D01*
X137582795Y-111509744D01*
X137504774Y-111698102D01*
X137465000Y-111898061D01*
X133160000Y-111898061D01*
X133160000Y-108150000D01*
X138586928Y-108150000D01*
X138599188Y-108274482D01*
X138635498Y-108394180D01*
X138694463Y-108504494D01*
X138773815Y-108601185D01*
X138870506Y-108680537D01*
X138980820Y-108739502D01*
X139100518Y-108775812D01*
X139225000Y-108788072D01*
X139714250Y-108785000D01*
X139873000Y-108626250D01*
X139873000Y-107627000D01*
X140127000Y-107627000D01*
X140127000Y-108626250D01*
X140285750Y-108785000D01*
X140775000Y-108788072D01*
X140899482Y-108775812D01*
X141019180Y-108739502D01*
X141129494Y-108680537D01*
X141226185Y-108601185D01*
X141305537Y-108504494D01*
X141364502Y-108394180D01*
X141400812Y-108274482D01*
X141413072Y-108150000D01*
X146536928Y-108150000D01*
X146549188Y-108274482D01*
X146585498Y-108394180D01*
X146644463Y-108504494D01*
X146723815Y-108601185D01*
X146820506Y-108680537D01*
X146930820Y-108739502D01*
X147050518Y-108775812D01*
X147175000Y-108788072D01*
X147664250Y-108785000D01*
X147823000Y-108626250D01*
X147823000Y-107627000D01*
X148077000Y-107627000D01*
X148077000Y-108626250D01*
X148235750Y-108785000D01*
X148725000Y-108788072D01*
X148849482Y-108775812D01*
X148969180Y-108739502D01*
X149079494Y-108680537D01*
X149176185Y-108601185D01*
X149255537Y-108504494D01*
X149314502Y-108394180D01*
X149350812Y-108274482D01*
X149363072Y-108150000D01*
X149360000Y-107785750D01*
X149201250Y-107627000D01*
X148077000Y-107627000D01*
X147823000Y-107627000D01*
X146698750Y-107627000D01*
X146540000Y-107785750D01*
X146536928Y-108150000D01*
X141413072Y-108150000D01*
X141410000Y-107785750D01*
X141251250Y-107627000D01*
X140127000Y-107627000D01*
X139873000Y-107627000D01*
X138748750Y-107627000D01*
X138590000Y-107785750D01*
X138586928Y-108150000D01*
X133160000Y-108150000D01*
X133160000Y-106850000D01*
X138586928Y-106850000D01*
X138590000Y-107214250D01*
X138748750Y-107373000D01*
X139873000Y-107373000D01*
X139873000Y-106373750D01*
X140127000Y-106373750D01*
X140127000Y-107373000D01*
X141251250Y-107373000D01*
X141410000Y-107214250D01*
X141413072Y-106850000D01*
X146536928Y-106850000D01*
X146540000Y-107214250D01*
X146698750Y-107373000D01*
X147823000Y-107373000D01*
X147823000Y-106373750D01*
X148077000Y-106373750D01*
X148077000Y-107373000D01*
X149201250Y-107373000D01*
X149360000Y-107214250D01*
X149363072Y-106850000D01*
X149350812Y-106725518D01*
X149314502Y-106605820D01*
X149255537Y-106495506D01*
X149176185Y-106398815D01*
X149079494Y-106319463D01*
X148969180Y-106260498D01*
X148849482Y-106224188D01*
X148725000Y-106211928D01*
X148235750Y-106215000D01*
X148077000Y-106373750D01*
X147823000Y-106373750D01*
X147664250Y-106215000D01*
X147175000Y-106211928D01*
X147050518Y-106224188D01*
X146930820Y-106260498D01*
X146820506Y-106319463D01*
X146723815Y-106398815D01*
X146644463Y-106495506D01*
X146585498Y-106605820D01*
X146549188Y-106725518D01*
X146536928Y-106850000D01*
X141413072Y-106850000D01*
X141400812Y-106725518D01*
X141364502Y-106605820D01*
X141305537Y-106495506D01*
X141226185Y-106398815D01*
X141129494Y-106319463D01*
X141019180Y-106260498D01*
X140899482Y-106224188D01*
X140775000Y-106211928D01*
X140285750Y-106215000D01*
X140127000Y-106373750D01*
X139873000Y-106373750D01*
X139714250Y-106215000D01*
X139225000Y-106211928D01*
X139100518Y-106224188D01*
X138980820Y-106260498D01*
X138870506Y-106319463D01*
X138773815Y-106398815D01*
X138694463Y-106495506D01*
X138635498Y-106605820D01*
X138599188Y-106725518D01*
X138586928Y-106850000D01*
X133160000Y-106850000D01*
X133160000Y-101898061D01*
X137465000Y-101898061D01*
X137465000Y-102101939D01*
X137504774Y-102301898D01*
X137582795Y-102490256D01*
X137696063Y-102659774D01*
X137840226Y-102803937D01*
X138009744Y-102917205D01*
X138198102Y-102995226D01*
X138398061Y-103035000D01*
X138601939Y-103035000D01*
X138703001Y-103014898D01*
X138773815Y-103101185D01*
X138870506Y-103180537D01*
X138980820Y-103239502D01*
X139100518Y-103275812D01*
X139225000Y-103288072D01*
X140775000Y-103288072D01*
X140899482Y-103275812D01*
X141019180Y-103239502D01*
X141129494Y-103180537D01*
X141226185Y-103101185D01*
X141305537Y-103004494D01*
X141364502Y-102894180D01*
X141400812Y-102774482D01*
X141402238Y-102760000D01*
X146547762Y-102760000D01*
X146549188Y-102774482D01*
X146585498Y-102894180D01*
X146644463Y-103004494D01*
X146723815Y-103101185D01*
X146820506Y-103180537D01*
X146930820Y-103239502D01*
X147050518Y-103275812D01*
X147175000Y-103288072D01*
X148725000Y-103288072D01*
X148849482Y-103275812D01*
X148969180Y-103239502D01*
X149079494Y-103180537D01*
X149176185Y-103101185D01*
X149255537Y-103004494D01*
X149314502Y-102894180D01*
X149350812Y-102774482D01*
X149363072Y-102650000D01*
X149363072Y-101350000D01*
X149350812Y-101225518D01*
X149314502Y-101105820D01*
X149255537Y-100995506D01*
X149176185Y-100898815D01*
X149079494Y-100819463D01*
X148969180Y-100760498D01*
X148849482Y-100724188D01*
X148725000Y-100711928D01*
X147175000Y-100711928D01*
X147050518Y-100724188D01*
X146930820Y-100760498D01*
X146820506Y-100819463D01*
X146723815Y-100898815D01*
X146644463Y-100995506D01*
X146585498Y-101105820D01*
X146549188Y-101225518D01*
X146547762Y-101240000D01*
X141402238Y-101240000D01*
X141400812Y-101225518D01*
X141364502Y-101105820D01*
X141305537Y-100995506D01*
X141226185Y-100898815D01*
X141129494Y-100819463D01*
X141019180Y-100760498D01*
X140899482Y-100724188D01*
X140775000Y-100711928D01*
X139225000Y-100711928D01*
X139100518Y-100724188D01*
X138980820Y-100760498D01*
X138870506Y-100819463D01*
X138773815Y-100898815D01*
X138703001Y-100985102D01*
X138601939Y-100965000D01*
X138398061Y-100965000D01*
X138198102Y-101004774D01*
X138009744Y-101082795D01*
X137840226Y-101196063D01*
X137696063Y-101340226D01*
X137582795Y-101509744D01*
X137504774Y-101698102D01*
X137465000Y-101898061D01*
X133160000Y-101898061D01*
X133160000Y-98150000D01*
X138586928Y-98150000D01*
X138599188Y-98274482D01*
X138635498Y-98394180D01*
X138694463Y-98504494D01*
X138773815Y-98601185D01*
X138870506Y-98680537D01*
X138980820Y-98739502D01*
X139100518Y-98775812D01*
X139225000Y-98788072D01*
X139714250Y-98785000D01*
X139873000Y-98626250D01*
X139873000Y-97627000D01*
X140127000Y-97627000D01*
X140127000Y-98626250D01*
X140285750Y-98785000D01*
X140775000Y-98788072D01*
X140899482Y-98775812D01*
X141019180Y-98739502D01*
X141129494Y-98680537D01*
X141226185Y-98601185D01*
X141305537Y-98504494D01*
X141364502Y-98394180D01*
X141400812Y-98274482D01*
X141413072Y-98150000D01*
X146536928Y-98150000D01*
X146549188Y-98274482D01*
X146585498Y-98394180D01*
X146644463Y-98504494D01*
X146723815Y-98601185D01*
X146820506Y-98680537D01*
X146930820Y-98739502D01*
X147050518Y-98775812D01*
X147175000Y-98788072D01*
X147664250Y-98785000D01*
X147823000Y-98626250D01*
X147823000Y-97627000D01*
X148077000Y-97627000D01*
X148077000Y-98626250D01*
X148235750Y-98785000D01*
X148725000Y-98788072D01*
X148849482Y-98775812D01*
X148969180Y-98739502D01*
X149079494Y-98680537D01*
X149176185Y-98601185D01*
X149255537Y-98504494D01*
X149314502Y-98394180D01*
X149350812Y-98274482D01*
X149363072Y-98150000D01*
X149360000Y-97785750D01*
X149201250Y-97627000D01*
X148077000Y-97627000D01*
X147823000Y-97627000D01*
X146698750Y-97627000D01*
X146540000Y-97785750D01*
X146536928Y-98150000D01*
X141413072Y-98150000D01*
X141410000Y-97785750D01*
X141251250Y-97627000D01*
X140127000Y-97627000D01*
X139873000Y-97627000D01*
X138748750Y-97627000D01*
X138590000Y-97785750D01*
X138586928Y-98150000D01*
X133160000Y-98150000D01*
X133160000Y-96850000D01*
X138586928Y-96850000D01*
X138590000Y-97214250D01*
X138748750Y-97373000D01*
X139873000Y-97373000D01*
X139873000Y-96373750D01*
X140127000Y-96373750D01*
X140127000Y-97373000D01*
X141251250Y-97373000D01*
X141410000Y-97214250D01*
X141413072Y-96850000D01*
X146536928Y-96850000D01*
X146540000Y-97214250D01*
X146698750Y-97373000D01*
X147823000Y-97373000D01*
X147823000Y-96373750D01*
X148077000Y-96373750D01*
X148077000Y-97373000D01*
X149201250Y-97373000D01*
X149360000Y-97214250D01*
X149363072Y-96850000D01*
X149350812Y-96725518D01*
X149314502Y-96605820D01*
X149255537Y-96495506D01*
X149176185Y-96398815D01*
X149079494Y-96319463D01*
X148969180Y-96260498D01*
X148849482Y-96224188D01*
X148725000Y-96211928D01*
X148235750Y-96215000D01*
X148077000Y-96373750D01*
X147823000Y-96373750D01*
X147664250Y-96215000D01*
X147175000Y-96211928D01*
X147050518Y-96224188D01*
X146930820Y-96260498D01*
X146820506Y-96319463D01*
X146723815Y-96398815D01*
X146644463Y-96495506D01*
X146585498Y-96605820D01*
X146549188Y-96725518D01*
X146536928Y-96850000D01*
X141413072Y-96850000D01*
X141400812Y-96725518D01*
X141364502Y-96605820D01*
X141305537Y-96495506D01*
X141226185Y-96398815D01*
X141129494Y-96319463D01*
X141019180Y-96260498D01*
X140899482Y-96224188D01*
X140775000Y-96211928D01*
X140285750Y-96215000D01*
X140127000Y-96373750D01*
X139873000Y-96373750D01*
X139714250Y-96215000D01*
X139225000Y-96211928D01*
X139100518Y-96224188D01*
X138980820Y-96260498D01*
X138870506Y-96319463D01*
X138773815Y-96398815D01*
X138694463Y-96495506D01*
X138635498Y-96605820D01*
X138599188Y-96725518D01*
X138586928Y-96850000D01*
X133160000Y-96850000D01*
X133160000Y-91898061D01*
X137465000Y-91898061D01*
X137465000Y-92101939D01*
X137504774Y-92301898D01*
X137582795Y-92490256D01*
X137696063Y-92659774D01*
X137840226Y-92803937D01*
X138009744Y-92917205D01*
X138198102Y-92995226D01*
X138398061Y-93035000D01*
X138601939Y-93035000D01*
X138703001Y-93014898D01*
X138773815Y-93101185D01*
X138870506Y-93180537D01*
X138980820Y-93239502D01*
X139100518Y-93275812D01*
X139225000Y-93288072D01*
X140775000Y-93288072D01*
X140899482Y-93275812D01*
X141019180Y-93239502D01*
X141129494Y-93180537D01*
X141226185Y-93101185D01*
X141305537Y-93004494D01*
X141364502Y-92894180D01*
X141400812Y-92774482D01*
X141402238Y-92760000D01*
X146547762Y-92760000D01*
X146549188Y-92774482D01*
X146585498Y-92894180D01*
X146644463Y-93004494D01*
X146723815Y-93101185D01*
X146820506Y-93180537D01*
X146930820Y-93239502D01*
X147050518Y-93275812D01*
X147175000Y-93288072D01*
X148725000Y-93288072D01*
X148849482Y-93275812D01*
X148969180Y-93239502D01*
X149079494Y-93180537D01*
X149176185Y-93101185D01*
X149255537Y-93004494D01*
X149314502Y-92894180D01*
X149350812Y-92774482D01*
X149363072Y-92650000D01*
X149363072Y-91350000D01*
X149350812Y-91225518D01*
X149314502Y-91105820D01*
X149255537Y-90995506D01*
X149176185Y-90898815D01*
X149079494Y-90819463D01*
X148969180Y-90760498D01*
X148849482Y-90724188D01*
X148725000Y-90711928D01*
X147175000Y-90711928D01*
X147050518Y-90724188D01*
X146930820Y-90760498D01*
X146820506Y-90819463D01*
X146723815Y-90898815D01*
X146644463Y-90995506D01*
X146585498Y-91105820D01*
X146549188Y-91225518D01*
X146547762Y-91240000D01*
X141402238Y-91240000D01*
X141400812Y-91225518D01*
X141364502Y-91105820D01*
X141305537Y-90995506D01*
X141226185Y-90898815D01*
X141129494Y-90819463D01*
X141019180Y-90760498D01*
X140899482Y-90724188D01*
X140775000Y-90711928D01*
X139225000Y-90711928D01*
X139100518Y-90724188D01*
X138980820Y-90760498D01*
X138870506Y-90819463D01*
X138773815Y-90898815D01*
X138703001Y-90985102D01*
X138601939Y-90965000D01*
X138398061Y-90965000D01*
X138198102Y-91004774D01*
X138009744Y-91082795D01*
X137840226Y-91196063D01*
X137696063Y-91340226D01*
X137582795Y-91509744D01*
X137504774Y-91698102D01*
X137465000Y-91898061D01*
X133160000Y-91898061D01*
X133160000Y-88150000D01*
X138586928Y-88150000D01*
X138599188Y-88274482D01*
X138635498Y-88394180D01*
X138694463Y-88504494D01*
X138773815Y-88601185D01*
X138870506Y-88680537D01*
X138980820Y-88739502D01*
X139100518Y-88775812D01*
X139225000Y-88788072D01*
X139714250Y-88785000D01*
X139873000Y-88626250D01*
X139873000Y-87627000D01*
X140127000Y-87627000D01*
X140127000Y-88626250D01*
X140285750Y-88785000D01*
X140775000Y-88788072D01*
X140899482Y-88775812D01*
X141019180Y-88739502D01*
X141129494Y-88680537D01*
X141226185Y-88601185D01*
X141305537Y-88504494D01*
X141364502Y-88394180D01*
X141400812Y-88274482D01*
X141413072Y-88150000D01*
X146536928Y-88150000D01*
X146549188Y-88274482D01*
X146585498Y-88394180D01*
X146644463Y-88504494D01*
X146723815Y-88601185D01*
X146820506Y-88680537D01*
X146930820Y-88739502D01*
X147050518Y-88775812D01*
X147175000Y-88788072D01*
X147664250Y-88785000D01*
X147823000Y-88626250D01*
X147823000Y-87627000D01*
X148077000Y-87627000D01*
X148077000Y-88626250D01*
X148235750Y-88785000D01*
X148725000Y-88788072D01*
X148849482Y-88775812D01*
X148969180Y-88739502D01*
X149079494Y-88680537D01*
X149176185Y-88601185D01*
X149255537Y-88504494D01*
X149314502Y-88394180D01*
X149350812Y-88274482D01*
X149363072Y-88150000D01*
X149360000Y-87785750D01*
X149201250Y-87627000D01*
X148077000Y-87627000D01*
X147823000Y-87627000D01*
X146698750Y-87627000D01*
X146540000Y-87785750D01*
X146536928Y-88150000D01*
X141413072Y-88150000D01*
X141410000Y-87785750D01*
X141251250Y-87627000D01*
X140127000Y-87627000D01*
X139873000Y-87627000D01*
X138748750Y-87627000D01*
X138590000Y-87785750D01*
X138586928Y-88150000D01*
X133160000Y-88150000D01*
X133160000Y-86850000D01*
X138586928Y-86850000D01*
X138590000Y-87214250D01*
X138748750Y-87373000D01*
X139873000Y-87373000D01*
X139873000Y-86373750D01*
X140127000Y-86373750D01*
X140127000Y-87373000D01*
X141251250Y-87373000D01*
X141410000Y-87214250D01*
X141413072Y-86850000D01*
X146536928Y-86850000D01*
X146540000Y-87214250D01*
X146698750Y-87373000D01*
X147823000Y-87373000D01*
X147823000Y-86373750D01*
X148077000Y-86373750D01*
X148077000Y-87373000D01*
X149201250Y-87373000D01*
X149360000Y-87214250D01*
X149363072Y-86850000D01*
X149350812Y-86725518D01*
X149314502Y-86605820D01*
X149255537Y-86495506D01*
X149176185Y-86398815D01*
X149079494Y-86319463D01*
X148969180Y-86260498D01*
X148849482Y-86224188D01*
X148725000Y-86211928D01*
X148235750Y-86215000D01*
X148077000Y-86373750D01*
X147823000Y-86373750D01*
X147664250Y-86215000D01*
X147175000Y-86211928D01*
X147050518Y-86224188D01*
X146930820Y-86260498D01*
X146820506Y-86319463D01*
X146723815Y-86398815D01*
X146644463Y-86495506D01*
X146585498Y-86605820D01*
X146549188Y-86725518D01*
X146536928Y-86850000D01*
X141413072Y-86850000D01*
X141400812Y-86725518D01*
X141364502Y-86605820D01*
X141305537Y-86495506D01*
X141226185Y-86398815D01*
X141129494Y-86319463D01*
X141019180Y-86260498D01*
X140899482Y-86224188D01*
X140775000Y-86211928D01*
X140285750Y-86215000D01*
X140127000Y-86373750D01*
X139873000Y-86373750D01*
X139714250Y-86215000D01*
X139225000Y-86211928D01*
X139100518Y-86224188D01*
X138980820Y-86260498D01*
X138870506Y-86319463D01*
X138773815Y-86398815D01*
X138694463Y-86495506D01*
X138635498Y-86605820D01*
X138599188Y-86725518D01*
X138586928Y-86850000D01*
X133160000Y-86850000D01*
X133160000Y-81898061D01*
X137465000Y-81898061D01*
X137465000Y-82101939D01*
X137504774Y-82301898D01*
X137582795Y-82490256D01*
X137696063Y-82659774D01*
X137840226Y-82803937D01*
X138009744Y-82917205D01*
X138198102Y-82995226D01*
X138398061Y-83035000D01*
X138601939Y-83035000D01*
X138703001Y-83014898D01*
X138773815Y-83101185D01*
X138870506Y-83180537D01*
X138980820Y-83239502D01*
X139100518Y-83275812D01*
X139225000Y-83288072D01*
X140775000Y-83288072D01*
X140899482Y-83275812D01*
X141019180Y-83239502D01*
X141129494Y-83180537D01*
X141226185Y-83101185D01*
X141305537Y-83004494D01*
X141364502Y-82894180D01*
X141400812Y-82774482D01*
X141402238Y-82760000D01*
X146547762Y-82760000D01*
X146549188Y-82774482D01*
X146585498Y-82894180D01*
X146644463Y-83004494D01*
X146723815Y-83101185D01*
X146820506Y-83180537D01*
X146930820Y-83239502D01*
X147050518Y-83275812D01*
X147175000Y-83288072D01*
X148725000Y-83288072D01*
X148849482Y-83275812D01*
X148969180Y-83239502D01*
X149079494Y-83180537D01*
X149176185Y-83101185D01*
X149255537Y-83004494D01*
X149314502Y-82894180D01*
X149350812Y-82774482D01*
X149363072Y-82650000D01*
X149363072Y-81350000D01*
X149350812Y-81225518D01*
X149314502Y-81105820D01*
X149255537Y-80995506D01*
X149176185Y-80898815D01*
X149079494Y-80819463D01*
X148969180Y-80760498D01*
X148849482Y-80724188D01*
X148725000Y-80711928D01*
X147175000Y-80711928D01*
X147050518Y-80724188D01*
X146930820Y-80760498D01*
X146820506Y-80819463D01*
X146723815Y-80898815D01*
X146644463Y-80995506D01*
X146585498Y-81105820D01*
X146549188Y-81225518D01*
X146547762Y-81240000D01*
X141402238Y-81240000D01*
X141400812Y-81225518D01*
X141364502Y-81105820D01*
X141305537Y-80995506D01*
X141226185Y-80898815D01*
X141129494Y-80819463D01*
X141019180Y-80760498D01*
X140899482Y-80724188D01*
X140775000Y-80711928D01*
X139225000Y-80711928D01*
X139100518Y-80724188D01*
X138980820Y-80760498D01*
X138870506Y-80819463D01*
X138773815Y-80898815D01*
X138703001Y-80985102D01*
X138601939Y-80965000D01*
X138398061Y-80965000D01*
X138198102Y-81004774D01*
X138009744Y-81082795D01*
X137840226Y-81196063D01*
X137696063Y-81340226D01*
X137582795Y-81509744D01*
X137504774Y-81698102D01*
X137465000Y-81898061D01*
X133160000Y-81898061D01*
X133160000Y-78150000D01*
X138586928Y-78150000D01*
X138599188Y-78274482D01*
X138635498Y-78394180D01*
X138694463Y-78504494D01*
X138773815Y-78601185D01*
X138870506Y-78680537D01*
X138980820Y-78739502D01*
X139100518Y-78775812D01*
X139225000Y-78788072D01*
X139714250Y-78785000D01*
X139873000Y-78626250D01*
X139873000Y-77627000D01*
X140127000Y-77627000D01*
X140127000Y-78626250D01*
X140285750Y-78785000D01*
X140775000Y-78788072D01*
X140899482Y-78775812D01*
X141019180Y-78739502D01*
X141129494Y-78680537D01*
X141226185Y-78601185D01*
X141305537Y-78504494D01*
X141364502Y-78394180D01*
X141400812Y-78274482D01*
X141413072Y-78150000D01*
X146536928Y-78150000D01*
X146549188Y-78274482D01*
X146585498Y-78394180D01*
X146644463Y-78504494D01*
X146723815Y-78601185D01*
X146820506Y-78680537D01*
X146930820Y-78739502D01*
X147050518Y-78775812D01*
X147175000Y-78788072D01*
X147664250Y-78785000D01*
X147823000Y-78626250D01*
X147823000Y-77627000D01*
X148077000Y-77627000D01*
X148077000Y-78626250D01*
X148235750Y-78785000D01*
X148725000Y-78788072D01*
X148849482Y-78775812D01*
X148969180Y-78739502D01*
X149079494Y-78680537D01*
X149176185Y-78601185D01*
X149255537Y-78504494D01*
X149314502Y-78394180D01*
X149350812Y-78274482D01*
X149363072Y-78150000D01*
X149360000Y-77785750D01*
X149201250Y-77627000D01*
X148077000Y-77627000D01*
X147823000Y-77627000D01*
X146698750Y-77627000D01*
X146540000Y-77785750D01*
X146536928Y-78150000D01*
X141413072Y-78150000D01*
X141410000Y-77785750D01*
X141251250Y-77627000D01*
X140127000Y-77627000D01*
X139873000Y-77627000D01*
X138748750Y-77627000D01*
X138590000Y-77785750D01*
X138586928Y-78150000D01*
X133160000Y-78150000D01*
X133160000Y-76850000D01*
X138586928Y-76850000D01*
X138590000Y-77214250D01*
X138748750Y-77373000D01*
X139873000Y-77373000D01*
X139873000Y-76373750D01*
X140127000Y-76373750D01*
X140127000Y-77373000D01*
X141251250Y-77373000D01*
X141410000Y-77214250D01*
X141413072Y-76850000D01*
X146536928Y-76850000D01*
X146540000Y-77214250D01*
X146698750Y-77373000D01*
X147823000Y-77373000D01*
X147823000Y-76373750D01*
X148077000Y-76373750D01*
X148077000Y-77373000D01*
X149201250Y-77373000D01*
X149360000Y-77214250D01*
X149363072Y-76850000D01*
X149350812Y-76725518D01*
X149314502Y-76605820D01*
X149255537Y-76495506D01*
X149176185Y-76398815D01*
X149079494Y-76319463D01*
X148969180Y-76260498D01*
X148849482Y-76224188D01*
X148725000Y-76211928D01*
X148235750Y-76215000D01*
X148077000Y-76373750D01*
X147823000Y-76373750D01*
X147664250Y-76215000D01*
X147175000Y-76211928D01*
X147050518Y-76224188D01*
X146930820Y-76260498D01*
X146820506Y-76319463D01*
X146723815Y-76398815D01*
X146644463Y-76495506D01*
X146585498Y-76605820D01*
X146549188Y-76725518D01*
X146536928Y-76850000D01*
X141413072Y-76850000D01*
X141400812Y-76725518D01*
X141364502Y-76605820D01*
X141305537Y-76495506D01*
X141226185Y-76398815D01*
X141129494Y-76319463D01*
X141019180Y-76260498D01*
X140899482Y-76224188D01*
X140775000Y-76211928D01*
X140285750Y-76215000D01*
X140127000Y-76373750D01*
X139873000Y-76373750D01*
X139714250Y-76215000D01*
X139225000Y-76211928D01*
X139100518Y-76224188D01*
X138980820Y-76260498D01*
X138870506Y-76319463D01*
X138773815Y-76398815D01*
X138694463Y-76495506D01*
X138635498Y-76605820D01*
X138599188Y-76725518D01*
X138586928Y-76850000D01*
X133160000Y-76850000D01*
X133160000Y-71898061D01*
X137465000Y-71898061D01*
X137465000Y-72101939D01*
X137504774Y-72301898D01*
X137582795Y-72490256D01*
X137696063Y-72659774D01*
X137840226Y-72803937D01*
X138009744Y-72917205D01*
X138198102Y-72995226D01*
X138398061Y-73035000D01*
X138601939Y-73035000D01*
X138724493Y-73010623D01*
X138798815Y-73101185D01*
X138895506Y-73180537D01*
X139005820Y-73239502D01*
X139125518Y-73275812D01*
X139250000Y-73288072D01*
X140800000Y-73288072D01*
X140924482Y-73275812D01*
X141044180Y-73239502D01*
X141154494Y-73180537D01*
X141251185Y-73101185D01*
X141330537Y-73004494D01*
X141389502Y-72894180D01*
X141425812Y-72774482D01*
X141427238Y-72760000D01*
X146572762Y-72760000D01*
X146574188Y-72774482D01*
X146610498Y-72894180D01*
X146669463Y-73004494D01*
X146748815Y-73101185D01*
X146845506Y-73180537D01*
X146955820Y-73239502D01*
X147075518Y-73275812D01*
X147200000Y-73288072D01*
X148750000Y-73288072D01*
X148874482Y-73275812D01*
X148994180Y-73239502D01*
X149104494Y-73180537D01*
X149201185Y-73101185D01*
X149280537Y-73004494D01*
X149339502Y-72894180D01*
X149375812Y-72774482D01*
X149388072Y-72650000D01*
X149388072Y-71350000D01*
X149375812Y-71225518D01*
X149339502Y-71105820D01*
X149280537Y-70995506D01*
X149201185Y-70898815D01*
X149104494Y-70819463D01*
X148994180Y-70760498D01*
X148874482Y-70724188D01*
X148750000Y-70711928D01*
X147200000Y-70711928D01*
X147075518Y-70724188D01*
X146955820Y-70760498D01*
X146845506Y-70819463D01*
X146748815Y-70898815D01*
X146669463Y-70995506D01*
X146610498Y-71105820D01*
X146574188Y-71225518D01*
X146572762Y-71240000D01*
X141427238Y-71240000D01*
X141425812Y-71225518D01*
X141389502Y-71105820D01*
X141330537Y-70995506D01*
X141251185Y-70898815D01*
X141154494Y-70819463D01*
X141044180Y-70760498D01*
X140924482Y-70724188D01*
X140800000Y-70711928D01*
X139250000Y-70711928D01*
X139125518Y-70724188D01*
X139005820Y-70760498D01*
X138895506Y-70819463D01*
X138798815Y-70898815D01*
X138724493Y-70989377D01*
X138601939Y-70965000D01*
X138398061Y-70965000D01*
X138198102Y-71004774D01*
X138009744Y-71082795D01*
X137840226Y-71196063D01*
X137696063Y-71340226D01*
X137582795Y-71509744D01*
X137504774Y-71698102D01*
X137465000Y-71898061D01*
X133160000Y-71898061D01*
X133160000Y-68150000D01*
X138611928Y-68150000D01*
X138624188Y-68274482D01*
X138660498Y-68394180D01*
X138719463Y-68504494D01*
X138798815Y-68601185D01*
X138895506Y-68680537D01*
X139005820Y-68739502D01*
X139125518Y-68775812D01*
X139250000Y-68788072D01*
X139739250Y-68785000D01*
X139898000Y-68626250D01*
X139898000Y-67627000D01*
X140152000Y-67627000D01*
X140152000Y-68626250D01*
X140310750Y-68785000D01*
X140800000Y-68788072D01*
X140924482Y-68775812D01*
X141044180Y-68739502D01*
X141154494Y-68680537D01*
X141251185Y-68601185D01*
X141330537Y-68504494D01*
X141389502Y-68394180D01*
X141425812Y-68274482D01*
X141438072Y-68150000D01*
X146561928Y-68150000D01*
X146574188Y-68274482D01*
X146610498Y-68394180D01*
X146669463Y-68504494D01*
X146748815Y-68601185D01*
X146845506Y-68680537D01*
X146955820Y-68739502D01*
X147075518Y-68775812D01*
X147200000Y-68788072D01*
X147689250Y-68785000D01*
X147848000Y-68626250D01*
X147848000Y-67627000D01*
X148102000Y-67627000D01*
X148102000Y-68626250D01*
X148260750Y-68785000D01*
X148750000Y-68788072D01*
X148874482Y-68775812D01*
X148994180Y-68739502D01*
X149104494Y-68680537D01*
X149201185Y-68601185D01*
X149280537Y-68504494D01*
X149339502Y-68394180D01*
X149375812Y-68274482D01*
X149388072Y-68150000D01*
X149385000Y-67785750D01*
X149226250Y-67627000D01*
X148102000Y-67627000D01*
X147848000Y-67627000D01*
X146723750Y-67627000D01*
X146565000Y-67785750D01*
X146561928Y-68150000D01*
X141438072Y-68150000D01*
X141435000Y-67785750D01*
X141276250Y-67627000D01*
X140152000Y-67627000D01*
X139898000Y-67627000D01*
X138773750Y-67627000D01*
X138615000Y-67785750D01*
X138611928Y-68150000D01*
X133160000Y-68150000D01*
X133160000Y-67032279D01*
X133177872Y-66850000D01*
X138611928Y-66850000D01*
X138615000Y-67214250D01*
X138773750Y-67373000D01*
X139898000Y-67373000D01*
X139898000Y-66373750D01*
X140152000Y-66373750D01*
X140152000Y-67373000D01*
X141276250Y-67373000D01*
X141435000Y-67214250D01*
X141438072Y-66850000D01*
X146561928Y-66850000D01*
X146565000Y-67214250D01*
X146723750Y-67373000D01*
X147848000Y-67373000D01*
X147848000Y-66373750D01*
X148102000Y-66373750D01*
X148102000Y-67373000D01*
X149226250Y-67373000D01*
X149385000Y-67214250D01*
X149388072Y-66850000D01*
X149375812Y-66725518D01*
X149339502Y-66605820D01*
X149280537Y-66495506D01*
X149201185Y-66398815D01*
X149104494Y-66319463D01*
X148994180Y-66260498D01*
X148874482Y-66224188D01*
X148750000Y-66211928D01*
X148260750Y-66215000D01*
X148102000Y-66373750D01*
X147848000Y-66373750D01*
X147689250Y-66215000D01*
X147200000Y-66211928D01*
X147075518Y-66224188D01*
X146955820Y-66260498D01*
X146845506Y-66319463D01*
X146748815Y-66398815D01*
X146669463Y-66495506D01*
X146610498Y-66605820D01*
X146574188Y-66725518D01*
X146561928Y-66850000D01*
X141438072Y-66850000D01*
X141425812Y-66725518D01*
X141389502Y-66605820D01*
X141330537Y-66495506D01*
X141251185Y-66398815D01*
X141154494Y-66319463D01*
X141044180Y-66260498D01*
X140924482Y-66224188D01*
X140800000Y-66211928D01*
X140310750Y-66215000D01*
X140152000Y-66373750D01*
X139898000Y-66373750D01*
X139739250Y-66215000D01*
X139250000Y-66211928D01*
X139125518Y-66224188D01*
X139005820Y-66260498D01*
X138895506Y-66319463D01*
X138798815Y-66398815D01*
X138719463Y-66495506D01*
X138660498Y-66605820D01*
X138624188Y-66725518D01*
X138611928Y-66850000D01*
X133177872Y-66850000D01*
X133188625Y-66740341D01*
X133264035Y-66490571D01*
X133386522Y-66260208D01*
X133551422Y-66058020D01*
X133752450Y-65891714D01*
X133981954Y-65767622D01*
X134231195Y-65690469D01*
X134521088Y-65660000D01*
X152467721Y-65660000D01*
X152759659Y-65688625D01*
G04 #@! TA.AperFunction,Conductor*
D14*
G36*
X152759659Y-65688625D02*
G01*
X153009429Y-65764035D01*
X153239792Y-65886522D01*
X153441980Y-66051422D01*
X153608286Y-66252450D01*
X153732378Y-66481954D01*
X153809531Y-66731195D01*
X153840001Y-67021098D01*
X153840000Y-122967721D01*
X153811375Y-123259660D01*
X153735965Y-123509429D01*
X153613477Y-123739794D01*
X153448579Y-123941979D01*
X153247546Y-124108288D01*
X153018046Y-124232378D01*
X152768805Y-124309531D01*
X152478911Y-124340000D01*
X134532279Y-124340000D01*
X134240340Y-124311375D01*
X133990571Y-124235965D01*
X133760206Y-124113477D01*
X133558021Y-123948579D01*
X133391712Y-123747546D01*
X133267622Y-123518046D01*
X133190469Y-123268805D01*
X133160000Y-122978911D01*
X133160000Y-121898061D01*
X137465000Y-121898061D01*
X137465000Y-122101939D01*
X137504774Y-122301898D01*
X137582795Y-122490256D01*
X137696063Y-122659774D01*
X137840226Y-122803937D01*
X138009744Y-122917205D01*
X138198102Y-122995226D01*
X138398061Y-123035000D01*
X138601939Y-123035000D01*
X138703001Y-123014898D01*
X138773815Y-123101185D01*
X138870506Y-123180537D01*
X138980820Y-123239502D01*
X139100518Y-123275812D01*
X139225000Y-123288072D01*
X140775000Y-123288072D01*
X140899482Y-123275812D01*
X141019180Y-123239502D01*
X141129494Y-123180537D01*
X141226185Y-123101185D01*
X141305537Y-123004494D01*
X141364502Y-122894180D01*
X141400812Y-122774482D01*
X141402238Y-122760000D01*
X146547762Y-122760000D01*
X146549188Y-122774482D01*
X146585498Y-122894180D01*
X146644463Y-123004494D01*
X146723815Y-123101185D01*
X146820506Y-123180537D01*
X146930820Y-123239502D01*
X147050518Y-123275812D01*
X147175000Y-123288072D01*
X148725000Y-123288072D01*
X148849482Y-123275812D01*
X148969180Y-123239502D01*
X149079494Y-123180537D01*
X149176185Y-123101185D01*
X149255537Y-123004494D01*
X149314502Y-122894180D01*
X149350812Y-122774482D01*
X149363072Y-122650000D01*
X149363072Y-121350000D01*
X149350812Y-121225518D01*
X149314502Y-121105820D01*
X149255537Y-120995506D01*
X149176185Y-120898815D01*
X149079494Y-120819463D01*
X148969180Y-120760498D01*
X148849482Y-120724188D01*
X148725000Y-120711928D01*
X147175000Y-120711928D01*
X147050518Y-120724188D01*
X146930820Y-120760498D01*
X146820506Y-120819463D01*
X146723815Y-120898815D01*
X146644463Y-120995506D01*
X146585498Y-121105820D01*
X146549188Y-121225518D01*
X146547762Y-121240000D01*
X141402238Y-121240000D01*
X141400812Y-121225518D01*
X141364502Y-121105820D01*
X141305537Y-120995506D01*
X141226185Y-120898815D01*
X141129494Y-120819463D01*
X141019180Y-120760498D01*
X140899482Y-120724188D01*
X140775000Y-120711928D01*
X139225000Y-120711928D01*
X139100518Y-120724188D01*
X138980820Y-120760498D01*
X138870506Y-120819463D01*
X138773815Y-120898815D01*
X138703001Y-120985102D01*
X138601939Y-120965000D01*
X138398061Y-120965000D01*
X138198102Y-121004774D01*
X138009744Y-121082795D01*
X137840226Y-121196063D01*
X137696063Y-121340226D01*
X137582795Y-121509744D01*
X137504774Y-121698102D01*
X137465000Y-121898061D01*
X133160000Y-121898061D01*
X133160000Y-118150000D01*
X138586928Y-118150000D01*
X138599188Y-118274482D01*
X138635498Y-118394180D01*
X138694463Y-118504494D01*
X138773815Y-118601185D01*
X138870506Y-118680537D01*
X138980820Y-118739502D01*
X139100518Y-118775812D01*
X139225000Y-118788072D01*
X139714250Y-118785000D01*
X139873000Y-118626250D01*
X139873000Y-117627000D01*
X140127000Y-117627000D01*
X140127000Y-118626250D01*
X140285750Y-118785000D01*
X140775000Y-118788072D01*
X140899482Y-118775812D01*
X141019180Y-118739502D01*
X141129494Y-118680537D01*
X141226185Y-118601185D01*
X141305537Y-118504494D01*
X141364502Y-118394180D01*
X141400812Y-118274482D01*
X141413072Y-118150000D01*
X146536928Y-118150000D01*
X146549188Y-118274482D01*
X146585498Y-118394180D01*
X146644463Y-118504494D01*
X146723815Y-118601185D01*
X146820506Y-118680537D01*
X146930820Y-118739502D01*
X147050518Y-118775812D01*
X147175000Y-118788072D01*
X147664250Y-118785000D01*
X147823000Y-118626250D01*
X147823000Y-117627000D01*
X148077000Y-117627000D01*
X148077000Y-118626250D01*
X148235750Y-118785000D01*
X148725000Y-118788072D01*
X148849482Y-118775812D01*
X148969180Y-118739502D01*
X149079494Y-118680537D01*
X149176185Y-118601185D01*
X149255537Y-118504494D01*
X149314502Y-118394180D01*
X149350812Y-118274482D01*
X149363072Y-118150000D01*
X149360000Y-117785750D01*
X149201250Y-117627000D01*
X148077000Y-117627000D01*
X147823000Y-117627000D01*
X146698750Y-117627000D01*
X146540000Y-117785750D01*
X146536928Y-118150000D01*
X141413072Y-118150000D01*
X141410000Y-117785750D01*
X141251250Y-117627000D01*
X140127000Y-117627000D01*
X139873000Y-117627000D01*
X138748750Y-117627000D01*
X138590000Y-117785750D01*
X138586928Y-118150000D01*
X133160000Y-118150000D01*
X133160000Y-116850000D01*
X138586928Y-116850000D01*
X138590000Y-117214250D01*
X138748750Y-117373000D01*
X139873000Y-117373000D01*
X139873000Y-116373750D01*
X140127000Y-116373750D01*
X140127000Y-117373000D01*
X141251250Y-117373000D01*
X141410000Y-117214250D01*
X141413072Y-116850000D01*
X146536928Y-116850000D01*
X146540000Y-117214250D01*
X146698750Y-117373000D01*
X147823000Y-117373000D01*
X147823000Y-116373750D01*
X148077000Y-116373750D01*
X148077000Y-117373000D01*
X149201250Y-117373000D01*
X149360000Y-117214250D01*
X149363072Y-116850000D01*
X149350812Y-116725518D01*
X149314502Y-116605820D01*
X149255537Y-116495506D01*
X149176185Y-116398815D01*
X149079494Y-116319463D01*
X148969180Y-116260498D01*
X148849482Y-116224188D01*
X148725000Y-116211928D01*
X148235750Y-116215000D01*
X148077000Y-116373750D01*
X147823000Y-116373750D01*
X147664250Y-116215000D01*
X147175000Y-116211928D01*
X147050518Y-116224188D01*
X146930820Y-116260498D01*
X146820506Y-116319463D01*
X146723815Y-116398815D01*
X146644463Y-116495506D01*
X146585498Y-116605820D01*
X146549188Y-116725518D01*
X146536928Y-116850000D01*
X141413072Y-116850000D01*
X141400812Y-116725518D01*
X141364502Y-116605820D01*
X141305537Y-116495506D01*
X141226185Y-116398815D01*
X141129494Y-116319463D01*
X141019180Y-116260498D01*
X140899482Y-116224188D01*
X140775000Y-116211928D01*
X140285750Y-116215000D01*
X140127000Y-116373750D01*
X139873000Y-116373750D01*
X139714250Y-116215000D01*
X139225000Y-116211928D01*
X139100518Y-116224188D01*
X138980820Y-116260498D01*
X138870506Y-116319463D01*
X138773815Y-116398815D01*
X138694463Y-116495506D01*
X138635498Y-116605820D01*
X138599188Y-116725518D01*
X138586928Y-116850000D01*
X133160000Y-116850000D01*
X133160000Y-111898061D01*
X137465000Y-111898061D01*
X137465000Y-112101939D01*
X137504774Y-112301898D01*
X137582795Y-112490256D01*
X137696063Y-112659774D01*
X137840226Y-112803937D01*
X138009744Y-112917205D01*
X138198102Y-112995226D01*
X138398061Y-113035000D01*
X138601939Y-113035000D01*
X138703001Y-113014898D01*
X138773815Y-113101185D01*
X138870506Y-113180537D01*
X138980820Y-113239502D01*
X139100518Y-113275812D01*
X139225000Y-113288072D01*
X140775000Y-113288072D01*
X140899482Y-113275812D01*
X141019180Y-113239502D01*
X141129494Y-113180537D01*
X141226185Y-113101185D01*
X141305537Y-113004494D01*
X141364502Y-112894180D01*
X141400812Y-112774482D01*
X141402238Y-112760000D01*
X146547762Y-112760000D01*
X146549188Y-112774482D01*
X146585498Y-112894180D01*
X146644463Y-113004494D01*
X146723815Y-113101185D01*
X146820506Y-113180537D01*
X146930820Y-113239502D01*
X147050518Y-113275812D01*
X147175000Y-113288072D01*
X148725000Y-113288072D01*
X148849482Y-113275812D01*
X148969180Y-113239502D01*
X149079494Y-113180537D01*
X149176185Y-113101185D01*
X149255537Y-113004494D01*
X149314502Y-112894180D01*
X149350812Y-112774482D01*
X149363072Y-112650000D01*
X149363072Y-111350000D01*
X149350812Y-111225518D01*
X149314502Y-111105820D01*
X149255537Y-110995506D01*
X149176185Y-110898815D01*
X149079494Y-110819463D01*
X148969180Y-110760498D01*
X148849482Y-110724188D01*
X148725000Y-110711928D01*
X147175000Y-110711928D01*
X147050518Y-110724188D01*
X146930820Y-110760498D01*
X146820506Y-110819463D01*
X146723815Y-110898815D01*
X146644463Y-110995506D01*
X146585498Y-111105820D01*
X146549188Y-111225518D01*
X146547762Y-111240000D01*
X141402238Y-111240000D01*
X141400812Y-111225518D01*
X141364502Y-111105820D01*
X141305537Y-110995506D01*
X141226185Y-110898815D01*
X141129494Y-110819463D01*
X141019180Y-110760498D01*
X140899482Y-110724188D01*
X140775000Y-110711928D01*
X139225000Y-110711928D01*
X139100518Y-110724188D01*
X138980820Y-110760498D01*
X138870506Y-110819463D01*
X138773815Y-110898815D01*
X138703001Y-110985102D01*
X138601939Y-110965000D01*
X138398061Y-110965000D01*
X138198102Y-111004774D01*
X138009744Y-111082795D01*
X137840226Y-111196063D01*
X137696063Y-111340226D01*
X137582795Y-111509744D01*
X137504774Y-111698102D01*
X137465000Y-111898061D01*
X133160000Y-111898061D01*
X133160000Y-108150000D01*
X138586928Y-108150000D01*
X138599188Y-108274482D01*
X138635498Y-108394180D01*
X138694463Y-108504494D01*
X138773815Y-108601185D01*
X138870506Y-108680537D01*
X138980820Y-108739502D01*
X139100518Y-108775812D01*
X139225000Y-108788072D01*
X139714250Y-108785000D01*
X139873000Y-108626250D01*
X139873000Y-107627000D01*
X140127000Y-107627000D01*
X140127000Y-108626250D01*
X140285750Y-108785000D01*
X140775000Y-108788072D01*
X140899482Y-108775812D01*
X141019180Y-108739502D01*
X141129494Y-108680537D01*
X141226185Y-108601185D01*
X141305537Y-108504494D01*
X141364502Y-108394180D01*
X141400812Y-108274482D01*
X141413072Y-108150000D01*
X146536928Y-108150000D01*
X146549188Y-108274482D01*
X146585498Y-108394180D01*
X146644463Y-108504494D01*
X146723815Y-108601185D01*
X146820506Y-108680537D01*
X146930820Y-108739502D01*
X147050518Y-108775812D01*
X147175000Y-108788072D01*
X147664250Y-108785000D01*
X147823000Y-108626250D01*
X147823000Y-107627000D01*
X148077000Y-107627000D01*
X148077000Y-108626250D01*
X148235750Y-108785000D01*
X148725000Y-108788072D01*
X148849482Y-108775812D01*
X148969180Y-108739502D01*
X149079494Y-108680537D01*
X149176185Y-108601185D01*
X149255537Y-108504494D01*
X149314502Y-108394180D01*
X149350812Y-108274482D01*
X149363072Y-108150000D01*
X149360000Y-107785750D01*
X149201250Y-107627000D01*
X148077000Y-107627000D01*
X147823000Y-107627000D01*
X146698750Y-107627000D01*
X146540000Y-107785750D01*
X146536928Y-108150000D01*
X141413072Y-108150000D01*
X141410000Y-107785750D01*
X141251250Y-107627000D01*
X140127000Y-107627000D01*
X139873000Y-107627000D01*
X138748750Y-107627000D01*
X138590000Y-107785750D01*
X138586928Y-108150000D01*
X133160000Y-108150000D01*
X133160000Y-106850000D01*
X138586928Y-106850000D01*
X138590000Y-107214250D01*
X138748750Y-107373000D01*
X139873000Y-107373000D01*
X139873000Y-106373750D01*
X140127000Y-106373750D01*
X140127000Y-107373000D01*
X141251250Y-107373000D01*
X141410000Y-107214250D01*
X141413072Y-106850000D01*
X146536928Y-106850000D01*
X146540000Y-107214250D01*
X146698750Y-107373000D01*
X147823000Y-107373000D01*
X147823000Y-106373750D01*
X148077000Y-106373750D01*
X148077000Y-107373000D01*
X149201250Y-107373000D01*
X149360000Y-107214250D01*
X149363072Y-106850000D01*
X149350812Y-106725518D01*
X149314502Y-106605820D01*
X149255537Y-106495506D01*
X149176185Y-106398815D01*
X149079494Y-106319463D01*
X148969180Y-106260498D01*
X148849482Y-106224188D01*
X148725000Y-106211928D01*
X148235750Y-106215000D01*
X148077000Y-106373750D01*
X147823000Y-106373750D01*
X147664250Y-106215000D01*
X147175000Y-106211928D01*
X147050518Y-106224188D01*
X146930820Y-106260498D01*
X146820506Y-106319463D01*
X146723815Y-106398815D01*
X146644463Y-106495506D01*
X146585498Y-106605820D01*
X146549188Y-106725518D01*
X146536928Y-106850000D01*
X141413072Y-106850000D01*
X141400812Y-106725518D01*
X141364502Y-106605820D01*
X141305537Y-106495506D01*
X141226185Y-106398815D01*
X141129494Y-106319463D01*
X141019180Y-106260498D01*
X140899482Y-106224188D01*
X140775000Y-106211928D01*
X140285750Y-106215000D01*
X140127000Y-106373750D01*
X139873000Y-106373750D01*
X139714250Y-106215000D01*
X139225000Y-106211928D01*
X139100518Y-106224188D01*
X138980820Y-106260498D01*
X138870506Y-106319463D01*
X138773815Y-106398815D01*
X138694463Y-106495506D01*
X138635498Y-106605820D01*
X138599188Y-106725518D01*
X138586928Y-106850000D01*
X133160000Y-106850000D01*
X133160000Y-101898061D01*
X137465000Y-101898061D01*
X137465000Y-102101939D01*
X137504774Y-102301898D01*
X137582795Y-102490256D01*
X137696063Y-102659774D01*
X137840226Y-102803937D01*
X138009744Y-102917205D01*
X138198102Y-102995226D01*
X138398061Y-103035000D01*
X138601939Y-103035000D01*
X138703001Y-103014898D01*
X138773815Y-103101185D01*
X138870506Y-103180537D01*
X138980820Y-103239502D01*
X139100518Y-103275812D01*
X139225000Y-103288072D01*
X140775000Y-103288072D01*
X140899482Y-103275812D01*
X141019180Y-103239502D01*
X141129494Y-103180537D01*
X141226185Y-103101185D01*
X141305537Y-103004494D01*
X141364502Y-102894180D01*
X141400812Y-102774482D01*
X141402238Y-102760000D01*
X146547762Y-102760000D01*
X146549188Y-102774482D01*
X146585498Y-102894180D01*
X146644463Y-103004494D01*
X146723815Y-103101185D01*
X146820506Y-103180537D01*
X146930820Y-103239502D01*
X147050518Y-103275812D01*
X147175000Y-103288072D01*
X148725000Y-103288072D01*
X148849482Y-103275812D01*
X148969180Y-103239502D01*
X149079494Y-103180537D01*
X149176185Y-103101185D01*
X149255537Y-103004494D01*
X149314502Y-102894180D01*
X149350812Y-102774482D01*
X149363072Y-102650000D01*
X149363072Y-101350000D01*
X149350812Y-101225518D01*
X149314502Y-101105820D01*
X149255537Y-100995506D01*
X149176185Y-100898815D01*
X149079494Y-100819463D01*
X148969180Y-100760498D01*
X148849482Y-100724188D01*
X148725000Y-100711928D01*
X147175000Y-100711928D01*
X147050518Y-100724188D01*
X146930820Y-100760498D01*
X146820506Y-100819463D01*
X146723815Y-100898815D01*
X146644463Y-100995506D01*
X146585498Y-101105820D01*
X146549188Y-101225518D01*
X146547762Y-101240000D01*
X141402238Y-101240000D01*
X141400812Y-101225518D01*
X141364502Y-101105820D01*
X141305537Y-100995506D01*
X141226185Y-100898815D01*
X141129494Y-100819463D01*
X141019180Y-100760498D01*
X140899482Y-100724188D01*
X140775000Y-100711928D01*
X139225000Y-100711928D01*
X139100518Y-100724188D01*
X138980820Y-100760498D01*
X138870506Y-100819463D01*
X138773815Y-100898815D01*
X138703001Y-100985102D01*
X138601939Y-100965000D01*
X138398061Y-100965000D01*
X138198102Y-101004774D01*
X138009744Y-101082795D01*
X137840226Y-101196063D01*
X137696063Y-101340226D01*
X137582795Y-101509744D01*
X137504774Y-101698102D01*
X137465000Y-101898061D01*
X133160000Y-101898061D01*
X133160000Y-98150000D01*
X138586928Y-98150000D01*
X138599188Y-98274482D01*
X138635498Y-98394180D01*
X138694463Y-98504494D01*
X138773815Y-98601185D01*
X138870506Y-98680537D01*
X138980820Y-98739502D01*
X139100518Y-98775812D01*
X139225000Y-98788072D01*
X139714250Y-98785000D01*
X139873000Y-98626250D01*
X139873000Y-97627000D01*
X140127000Y-97627000D01*
X140127000Y-98626250D01*
X140285750Y-98785000D01*
X140775000Y-98788072D01*
X140899482Y-98775812D01*
X141019180Y-98739502D01*
X141129494Y-98680537D01*
X141226185Y-98601185D01*
X141305537Y-98504494D01*
X141364502Y-98394180D01*
X141400812Y-98274482D01*
X141413072Y-98150000D01*
X146536928Y-98150000D01*
X146549188Y-98274482D01*
X146585498Y-98394180D01*
X146644463Y-98504494D01*
X146723815Y-98601185D01*
X146820506Y-98680537D01*
X146930820Y-98739502D01*
X147050518Y-98775812D01*
X147175000Y-98788072D01*
X147664250Y-98785000D01*
X147823000Y-98626250D01*
X147823000Y-97627000D01*
X148077000Y-97627000D01*
X148077000Y-98626250D01*
X148235750Y-98785000D01*
X148725000Y-98788072D01*
X148849482Y-98775812D01*
X148969180Y-98739502D01*
X149079494Y-98680537D01*
X149176185Y-98601185D01*
X149255537Y-98504494D01*
X149314502Y-98394180D01*
X149350812Y-98274482D01*
X149363072Y-98150000D01*
X149360000Y-97785750D01*
X149201250Y-97627000D01*
X148077000Y-97627000D01*
X147823000Y-97627000D01*
X146698750Y-97627000D01*
X146540000Y-97785750D01*
X146536928Y-98150000D01*
X141413072Y-98150000D01*
X141410000Y-97785750D01*
X141251250Y-97627000D01*
X140127000Y-97627000D01*
X139873000Y-97627000D01*
X138748750Y-97627000D01*
X138590000Y-97785750D01*
X138586928Y-98150000D01*
X133160000Y-98150000D01*
X133160000Y-96850000D01*
X138586928Y-96850000D01*
X138590000Y-97214250D01*
X138748750Y-97373000D01*
X139873000Y-97373000D01*
X139873000Y-96373750D01*
X140127000Y-96373750D01*
X140127000Y-97373000D01*
X141251250Y-97373000D01*
X141410000Y-97214250D01*
X141413072Y-96850000D01*
X146536928Y-96850000D01*
X146540000Y-97214250D01*
X146698750Y-97373000D01*
X147823000Y-97373000D01*
X147823000Y-96373750D01*
X148077000Y-96373750D01*
X148077000Y-97373000D01*
X149201250Y-97373000D01*
X149360000Y-97214250D01*
X149363072Y-96850000D01*
X149350812Y-96725518D01*
X149314502Y-96605820D01*
X149255537Y-96495506D01*
X149176185Y-96398815D01*
X149079494Y-96319463D01*
X148969180Y-96260498D01*
X148849482Y-96224188D01*
X148725000Y-96211928D01*
X148235750Y-96215000D01*
X148077000Y-96373750D01*
X147823000Y-96373750D01*
X147664250Y-96215000D01*
X147175000Y-96211928D01*
X147050518Y-96224188D01*
X146930820Y-96260498D01*
X146820506Y-96319463D01*
X146723815Y-96398815D01*
X146644463Y-96495506D01*
X146585498Y-96605820D01*
X146549188Y-96725518D01*
X146536928Y-96850000D01*
X141413072Y-96850000D01*
X141400812Y-96725518D01*
X141364502Y-96605820D01*
X141305537Y-96495506D01*
X141226185Y-96398815D01*
X141129494Y-96319463D01*
X141019180Y-96260498D01*
X140899482Y-96224188D01*
X140775000Y-96211928D01*
X140285750Y-96215000D01*
X140127000Y-96373750D01*
X139873000Y-96373750D01*
X139714250Y-96215000D01*
X139225000Y-96211928D01*
X139100518Y-96224188D01*
X138980820Y-96260498D01*
X138870506Y-96319463D01*
X138773815Y-96398815D01*
X138694463Y-96495506D01*
X138635498Y-96605820D01*
X138599188Y-96725518D01*
X138586928Y-96850000D01*
X133160000Y-96850000D01*
X133160000Y-91898061D01*
X137465000Y-91898061D01*
X137465000Y-92101939D01*
X137504774Y-92301898D01*
X137582795Y-92490256D01*
X137696063Y-92659774D01*
X137840226Y-92803937D01*
X138009744Y-92917205D01*
X138198102Y-92995226D01*
X138398061Y-93035000D01*
X138601939Y-93035000D01*
X138703001Y-93014898D01*
X138773815Y-93101185D01*
X138870506Y-93180537D01*
X138980820Y-93239502D01*
X139100518Y-93275812D01*
X139225000Y-93288072D01*
X140775000Y-93288072D01*
X140899482Y-93275812D01*
X141019180Y-93239502D01*
X141129494Y-93180537D01*
X141226185Y-93101185D01*
X141305537Y-93004494D01*
X141364502Y-92894180D01*
X141400812Y-92774482D01*
X141402238Y-92760000D01*
X146547762Y-92760000D01*
X146549188Y-92774482D01*
X146585498Y-92894180D01*
X146644463Y-93004494D01*
X146723815Y-93101185D01*
X146820506Y-93180537D01*
X146930820Y-93239502D01*
X147050518Y-93275812D01*
X147175000Y-93288072D01*
X148725000Y-93288072D01*
X148849482Y-93275812D01*
X148969180Y-93239502D01*
X149079494Y-93180537D01*
X149176185Y-93101185D01*
X149255537Y-93004494D01*
X149314502Y-92894180D01*
X149350812Y-92774482D01*
X149363072Y-92650000D01*
X149363072Y-91350000D01*
X149350812Y-91225518D01*
X149314502Y-91105820D01*
X149255537Y-90995506D01*
X149176185Y-90898815D01*
X149079494Y-90819463D01*
X148969180Y-90760498D01*
X148849482Y-90724188D01*
X148725000Y-90711928D01*
X147175000Y-90711928D01*
X147050518Y-90724188D01*
X146930820Y-90760498D01*
X146820506Y-90819463D01*
X146723815Y-90898815D01*
X146644463Y-90995506D01*
X146585498Y-91105820D01*
X146549188Y-91225518D01*
X146547762Y-91240000D01*
X141402238Y-91240000D01*
X141400812Y-91225518D01*
X141364502Y-91105820D01*
X141305537Y-90995506D01*
X141226185Y-90898815D01*
X141129494Y-90819463D01*
X141019180Y-90760498D01*
X140899482Y-90724188D01*
X140775000Y-90711928D01*
X139225000Y-90711928D01*
X139100518Y-90724188D01*
X138980820Y-90760498D01*
X138870506Y-90819463D01*
X138773815Y-90898815D01*
X138703001Y-90985102D01*
X138601939Y-90965000D01*
X138398061Y-90965000D01*
X138198102Y-91004774D01*
X138009744Y-91082795D01*
X137840226Y-91196063D01*
X137696063Y-91340226D01*
X137582795Y-91509744D01*
X137504774Y-91698102D01*
X137465000Y-91898061D01*
X133160000Y-91898061D01*
X133160000Y-88150000D01*
X138586928Y-88150000D01*
X138599188Y-88274482D01*
X138635498Y-88394180D01*
X138694463Y-88504494D01*
X138773815Y-88601185D01*
X138870506Y-88680537D01*
X138980820Y-88739502D01*
X139100518Y-88775812D01*
X139225000Y-88788072D01*
X139714250Y-88785000D01*
X139873000Y-88626250D01*
X139873000Y-87627000D01*
X140127000Y-87627000D01*
X140127000Y-88626250D01*
X140285750Y-88785000D01*
X140775000Y-88788072D01*
X140899482Y-88775812D01*
X141019180Y-88739502D01*
X141129494Y-88680537D01*
X141226185Y-88601185D01*
X141305537Y-88504494D01*
X141364502Y-88394180D01*
X141400812Y-88274482D01*
X141413072Y-88150000D01*
X146536928Y-88150000D01*
X146549188Y-88274482D01*
X146585498Y-88394180D01*
X146644463Y-88504494D01*
X146723815Y-88601185D01*
X146820506Y-88680537D01*
X146930820Y-88739502D01*
X147050518Y-88775812D01*
X147175000Y-88788072D01*
X147664250Y-88785000D01*
X147823000Y-88626250D01*
X147823000Y-87627000D01*
X148077000Y-87627000D01*
X148077000Y-88626250D01*
X148235750Y-88785000D01*
X148725000Y-88788072D01*
X148849482Y-88775812D01*
X148969180Y-88739502D01*
X149079494Y-88680537D01*
X149176185Y-88601185D01*
X149255537Y-88504494D01*
X149314502Y-88394180D01*
X149350812Y-88274482D01*
X149363072Y-88150000D01*
X149360000Y-87785750D01*
X149201250Y-87627000D01*
X148077000Y-87627000D01*
X147823000Y-87627000D01*
X146698750Y-87627000D01*
X146540000Y-87785750D01*
X146536928Y-88150000D01*
X141413072Y-88150000D01*
X141410000Y-87785750D01*
X141251250Y-87627000D01*
X140127000Y-87627000D01*
X139873000Y-87627000D01*
X138748750Y-87627000D01*
X138590000Y-87785750D01*
X138586928Y-88150000D01*
X133160000Y-88150000D01*
X133160000Y-86850000D01*
X138586928Y-86850000D01*
X138590000Y-87214250D01*
X138748750Y-87373000D01*
X139873000Y-87373000D01*
X139873000Y-86373750D01*
X140127000Y-86373750D01*
X140127000Y-87373000D01*
X141251250Y-87373000D01*
X141410000Y-87214250D01*
X141413072Y-86850000D01*
X146536928Y-86850000D01*
X146540000Y-87214250D01*
X146698750Y-87373000D01*
X147823000Y-87373000D01*
X147823000Y-86373750D01*
X148077000Y-86373750D01*
X148077000Y-87373000D01*
X149201250Y-87373000D01*
X149360000Y-87214250D01*
X149363072Y-86850000D01*
X149350812Y-86725518D01*
X149314502Y-86605820D01*
X149255537Y-86495506D01*
X149176185Y-86398815D01*
X149079494Y-86319463D01*
X148969180Y-86260498D01*
X148849482Y-86224188D01*
X148725000Y-86211928D01*
X148235750Y-86215000D01*
X148077000Y-86373750D01*
X147823000Y-86373750D01*
X147664250Y-86215000D01*
X147175000Y-86211928D01*
X147050518Y-86224188D01*
X146930820Y-86260498D01*
X146820506Y-86319463D01*
X146723815Y-86398815D01*
X146644463Y-86495506D01*
X146585498Y-86605820D01*
X146549188Y-86725518D01*
X146536928Y-86850000D01*
X141413072Y-86850000D01*
X141400812Y-86725518D01*
X141364502Y-86605820D01*
X141305537Y-86495506D01*
X141226185Y-86398815D01*
X141129494Y-86319463D01*
X141019180Y-86260498D01*
X140899482Y-86224188D01*
X140775000Y-86211928D01*
X140285750Y-86215000D01*
X140127000Y-86373750D01*
X139873000Y-86373750D01*
X139714250Y-86215000D01*
X139225000Y-86211928D01*
X139100518Y-86224188D01*
X138980820Y-86260498D01*
X138870506Y-86319463D01*
X138773815Y-86398815D01*
X138694463Y-86495506D01*
X138635498Y-86605820D01*
X138599188Y-86725518D01*
X138586928Y-86850000D01*
X133160000Y-86850000D01*
X133160000Y-81898061D01*
X137465000Y-81898061D01*
X137465000Y-82101939D01*
X137504774Y-82301898D01*
X137582795Y-82490256D01*
X137696063Y-82659774D01*
X137840226Y-82803937D01*
X138009744Y-82917205D01*
X138198102Y-82995226D01*
X138398061Y-83035000D01*
X138601939Y-83035000D01*
X138703001Y-83014898D01*
X138773815Y-83101185D01*
X138870506Y-83180537D01*
X138980820Y-83239502D01*
X139100518Y-83275812D01*
X139225000Y-83288072D01*
X140775000Y-83288072D01*
X140899482Y-83275812D01*
X141019180Y-83239502D01*
X141129494Y-83180537D01*
X141226185Y-83101185D01*
X141305537Y-83004494D01*
X141364502Y-82894180D01*
X141400812Y-82774482D01*
X141402238Y-82760000D01*
X146547762Y-82760000D01*
X146549188Y-82774482D01*
X146585498Y-82894180D01*
X146644463Y-83004494D01*
X146723815Y-83101185D01*
X146820506Y-83180537D01*
X146930820Y-83239502D01*
X147050518Y-83275812D01*
X147175000Y-83288072D01*
X148725000Y-83288072D01*
X148849482Y-83275812D01*
X148969180Y-83239502D01*
X149079494Y-83180537D01*
X149176185Y-83101185D01*
X149255537Y-83004494D01*
X149314502Y-82894180D01*
X149350812Y-82774482D01*
X149363072Y-82650000D01*
X149363072Y-81350000D01*
X149350812Y-81225518D01*
X149314502Y-81105820D01*
X149255537Y-80995506D01*
X149176185Y-80898815D01*
X149079494Y-80819463D01*
X148969180Y-80760498D01*
X148849482Y-80724188D01*
X148725000Y-80711928D01*
X147175000Y-80711928D01*
X147050518Y-80724188D01*
X146930820Y-80760498D01*
X146820506Y-80819463D01*
X146723815Y-80898815D01*
X146644463Y-80995506D01*
X146585498Y-81105820D01*
X146549188Y-81225518D01*
X146547762Y-81240000D01*
X141402238Y-81240000D01*
X141400812Y-81225518D01*
X141364502Y-81105820D01*
X141305537Y-80995506D01*
X141226185Y-80898815D01*
X141129494Y-80819463D01*
X141019180Y-80760498D01*
X140899482Y-80724188D01*
X140775000Y-80711928D01*
X139225000Y-80711928D01*
X139100518Y-80724188D01*
X138980820Y-80760498D01*
X138870506Y-80819463D01*
X138773815Y-80898815D01*
X138703001Y-80985102D01*
X138601939Y-80965000D01*
X138398061Y-80965000D01*
X138198102Y-81004774D01*
X138009744Y-81082795D01*
X137840226Y-81196063D01*
X137696063Y-81340226D01*
X137582795Y-81509744D01*
X137504774Y-81698102D01*
X137465000Y-81898061D01*
X133160000Y-81898061D01*
X133160000Y-78150000D01*
X138586928Y-78150000D01*
X138599188Y-78274482D01*
X138635498Y-78394180D01*
X138694463Y-78504494D01*
X138773815Y-78601185D01*
X138870506Y-78680537D01*
X138980820Y-78739502D01*
X139100518Y-78775812D01*
X139225000Y-78788072D01*
X139714250Y-78785000D01*
X139873000Y-78626250D01*
X139873000Y-77627000D01*
X140127000Y-77627000D01*
X140127000Y-78626250D01*
X140285750Y-78785000D01*
X140775000Y-78788072D01*
X140899482Y-78775812D01*
X141019180Y-78739502D01*
X141129494Y-78680537D01*
X141226185Y-78601185D01*
X141305537Y-78504494D01*
X141364502Y-78394180D01*
X141400812Y-78274482D01*
X141413072Y-78150000D01*
X146536928Y-78150000D01*
X146549188Y-78274482D01*
X146585498Y-78394180D01*
X146644463Y-78504494D01*
X146723815Y-78601185D01*
X146820506Y-78680537D01*
X146930820Y-78739502D01*
X147050518Y-78775812D01*
X147175000Y-78788072D01*
X147664250Y-78785000D01*
X147823000Y-78626250D01*
X147823000Y-77627000D01*
X148077000Y-77627000D01*
X148077000Y-78626250D01*
X148235750Y-78785000D01*
X148725000Y-78788072D01*
X148849482Y-78775812D01*
X148969180Y-78739502D01*
X149079494Y-78680537D01*
X149176185Y-78601185D01*
X149255537Y-78504494D01*
X149314502Y-78394180D01*
X149350812Y-78274482D01*
X149363072Y-78150000D01*
X149360000Y-77785750D01*
X149201250Y-77627000D01*
X148077000Y-77627000D01*
X147823000Y-77627000D01*
X146698750Y-77627000D01*
X146540000Y-77785750D01*
X146536928Y-78150000D01*
X141413072Y-78150000D01*
X141410000Y-77785750D01*
X141251250Y-77627000D01*
X140127000Y-77627000D01*
X139873000Y-77627000D01*
X138748750Y-77627000D01*
X138590000Y-77785750D01*
X138586928Y-78150000D01*
X133160000Y-78150000D01*
X133160000Y-76850000D01*
X138586928Y-76850000D01*
X138590000Y-77214250D01*
X138748750Y-77373000D01*
X139873000Y-77373000D01*
X139873000Y-76373750D01*
X140127000Y-76373750D01*
X140127000Y-77373000D01*
X141251250Y-77373000D01*
X141410000Y-77214250D01*
X141413072Y-76850000D01*
X146536928Y-76850000D01*
X146540000Y-77214250D01*
X146698750Y-77373000D01*
X147823000Y-77373000D01*
X147823000Y-76373750D01*
X148077000Y-76373750D01*
X148077000Y-77373000D01*
X149201250Y-77373000D01*
X149360000Y-77214250D01*
X149363072Y-76850000D01*
X149350812Y-76725518D01*
X149314502Y-76605820D01*
X149255537Y-76495506D01*
X149176185Y-76398815D01*
X149079494Y-76319463D01*
X148969180Y-76260498D01*
X148849482Y-76224188D01*
X148725000Y-76211928D01*
X148235750Y-76215000D01*
X148077000Y-76373750D01*
X147823000Y-76373750D01*
X147664250Y-76215000D01*
X147175000Y-76211928D01*
X147050518Y-76224188D01*
X146930820Y-76260498D01*
X146820506Y-76319463D01*
X146723815Y-76398815D01*
X146644463Y-76495506D01*
X146585498Y-76605820D01*
X146549188Y-76725518D01*
X146536928Y-76850000D01*
X141413072Y-76850000D01*
X141400812Y-76725518D01*
X141364502Y-76605820D01*
X141305537Y-76495506D01*
X141226185Y-76398815D01*
X141129494Y-76319463D01*
X141019180Y-76260498D01*
X140899482Y-76224188D01*
X140775000Y-76211928D01*
X140285750Y-76215000D01*
X140127000Y-76373750D01*
X139873000Y-76373750D01*
X139714250Y-76215000D01*
X139225000Y-76211928D01*
X139100518Y-76224188D01*
X138980820Y-76260498D01*
X138870506Y-76319463D01*
X138773815Y-76398815D01*
X138694463Y-76495506D01*
X138635498Y-76605820D01*
X138599188Y-76725518D01*
X138586928Y-76850000D01*
X133160000Y-76850000D01*
X133160000Y-71898061D01*
X137465000Y-71898061D01*
X137465000Y-72101939D01*
X137504774Y-72301898D01*
X137582795Y-72490256D01*
X137696063Y-72659774D01*
X137840226Y-72803937D01*
X138009744Y-72917205D01*
X138198102Y-72995226D01*
X138398061Y-73035000D01*
X138601939Y-73035000D01*
X138724493Y-73010623D01*
X138798815Y-73101185D01*
X138895506Y-73180537D01*
X139005820Y-73239502D01*
X139125518Y-73275812D01*
X139250000Y-73288072D01*
X140800000Y-73288072D01*
X140924482Y-73275812D01*
X141044180Y-73239502D01*
X141154494Y-73180537D01*
X141251185Y-73101185D01*
X141330537Y-73004494D01*
X141389502Y-72894180D01*
X141425812Y-72774482D01*
X141427238Y-72760000D01*
X146572762Y-72760000D01*
X146574188Y-72774482D01*
X146610498Y-72894180D01*
X146669463Y-73004494D01*
X146748815Y-73101185D01*
X146845506Y-73180537D01*
X146955820Y-73239502D01*
X147075518Y-73275812D01*
X147200000Y-73288072D01*
X148750000Y-73288072D01*
X148874482Y-73275812D01*
X148994180Y-73239502D01*
X149104494Y-73180537D01*
X149201185Y-73101185D01*
X149280537Y-73004494D01*
X149339502Y-72894180D01*
X149375812Y-72774482D01*
X149388072Y-72650000D01*
X149388072Y-71350000D01*
X149375812Y-71225518D01*
X149339502Y-71105820D01*
X149280537Y-70995506D01*
X149201185Y-70898815D01*
X149104494Y-70819463D01*
X148994180Y-70760498D01*
X148874482Y-70724188D01*
X148750000Y-70711928D01*
X147200000Y-70711928D01*
X147075518Y-70724188D01*
X146955820Y-70760498D01*
X146845506Y-70819463D01*
X146748815Y-70898815D01*
X146669463Y-70995506D01*
X146610498Y-71105820D01*
X146574188Y-71225518D01*
X146572762Y-71240000D01*
X141427238Y-71240000D01*
X141425812Y-71225518D01*
X141389502Y-71105820D01*
X141330537Y-70995506D01*
X141251185Y-70898815D01*
X141154494Y-70819463D01*
X141044180Y-70760498D01*
X140924482Y-70724188D01*
X140800000Y-70711928D01*
X139250000Y-70711928D01*
X139125518Y-70724188D01*
X139005820Y-70760498D01*
X138895506Y-70819463D01*
X138798815Y-70898815D01*
X138724493Y-70989377D01*
X138601939Y-70965000D01*
X138398061Y-70965000D01*
X138198102Y-71004774D01*
X138009744Y-71082795D01*
X137840226Y-71196063D01*
X137696063Y-71340226D01*
X137582795Y-71509744D01*
X137504774Y-71698102D01*
X137465000Y-71898061D01*
X133160000Y-71898061D01*
X133160000Y-68150000D01*
X138611928Y-68150000D01*
X138624188Y-68274482D01*
X138660498Y-68394180D01*
X138719463Y-68504494D01*
X138798815Y-68601185D01*
X138895506Y-68680537D01*
X139005820Y-68739502D01*
X139125518Y-68775812D01*
X139250000Y-68788072D01*
X139739250Y-68785000D01*
X139898000Y-68626250D01*
X139898000Y-67627000D01*
X140152000Y-67627000D01*
X140152000Y-68626250D01*
X140310750Y-68785000D01*
X140800000Y-68788072D01*
X140924482Y-68775812D01*
X141044180Y-68739502D01*
X141154494Y-68680537D01*
X141251185Y-68601185D01*
X141330537Y-68504494D01*
X141389502Y-68394180D01*
X141425812Y-68274482D01*
X141438072Y-68150000D01*
X146561928Y-68150000D01*
X146574188Y-68274482D01*
X146610498Y-68394180D01*
X146669463Y-68504494D01*
X146748815Y-68601185D01*
X146845506Y-68680537D01*
X146955820Y-68739502D01*
X147075518Y-68775812D01*
X147200000Y-68788072D01*
X147689250Y-68785000D01*
X147848000Y-68626250D01*
X147848000Y-67627000D01*
X148102000Y-67627000D01*
X148102000Y-68626250D01*
X148260750Y-68785000D01*
X148750000Y-68788072D01*
X148874482Y-68775812D01*
X148994180Y-68739502D01*
X149104494Y-68680537D01*
X149201185Y-68601185D01*
X149280537Y-68504494D01*
X149339502Y-68394180D01*
X149375812Y-68274482D01*
X149388072Y-68150000D01*
X149385000Y-67785750D01*
X149226250Y-67627000D01*
X148102000Y-67627000D01*
X147848000Y-67627000D01*
X146723750Y-67627000D01*
X146565000Y-67785750D01*
X146561928Y-68150000D01*
X141438072Y-68150000D01*
X141435000Y-67785750D01*
X141276250Y-67627000D01*
X140152000Y-67627000D01*
X139898000Y-67627000D01*
X138773750Y-67627000D01*
X138615000Y-67785750D01*
X138611928Y-68150000D01*
X133160000Y-68150000D01*
X133160000Y-67032279D01*
X133177872Y-66850000D01*
X138611928Y-66850000D01*
X138615000Y-67214250D01*
X138773750Y-67373000D01*
X139898000Y-67373000D01*
X139898000Y-66373750D01*
X140152000Y-66373750D01*
X140152000Y-67373000D01*
X141276250Y-67373000D01*
X141435000Y-67214250D01*
X141438072Y-66850000D01*
X146561928Y-66850000D01*
X146565000Y-67214250D01*
X146723750Y-67373000D01*
X147848000Y-67373000D01*
X147848000Y-66373750D01*
X148102000Y-66373750D01*
X148102000Y-67373000D01*
X149226250Y-67373000D01*
X149385000Y-67214250D01*
X149388072Y-66850000D01*
X149375812Y-66725518D01*
X149339502Y-66605820D01*
X149280537Y-66495506D01*
X149201185Y-66398815D01*
X149104494Y-66319463D01*
X148994180Y-66260498D01*
X148874482Y-66224188D01*
X148750000Y-66211928D01*
X148260750Y-66215000D01*
X148102000Y-66373750D01*
X147848000Y-66373750D01*
X147689250Y-66215000D01*
X147200000Y-66211928D01*
X147075518Y-66224188D01*
X146955820Y-66260498D01*
X146845506Y-66319463D01*
X146748815Y-66398815D01*
X146669463Y-66495506D01*
X146610498Y-66605820D01*
X146574188Y-66725518D01*
X146561928Y-66850000D01*
X141438072Y-66850000D01*
X141425812Y-66725518D01*
X141389502Y-66605820D01*
X141330537Y-66495506D01*
X141251185Y-66398815D01*
X141154494Y-66319463D01*
X141044180Y-66260498D01*
X140924482Y-66224188D01*
X140800000Y-66211928D01*
X140310750Y-66215000D01*
X140152000Y-66373750D01*
X139898000Y-66373750D01*
X139739250Y-66215000D01*
X139250000Y-66211928D01*
X139125518Y-66224188D01*
X139005820Y-66260498D01*
X138895506Y-66319463D01*
X138798815Y-66398815D01*
X138719463Y-66495506D01*
X138660498Y-66605820D01*
X138624188Y-66725518D01*
X138611928Y-66850000D01*
X133177872Y-66850000D01*
X133188625Y-66740341D01*
X133264035Y-66490571D01*
X133386522Y-66260208D01*
X133551422Y-66058020D01*
X133752450Y-65891714D01*
X133981954Y-65767622D01*
X134231195Y-65690469D01*
X134521088Y-65660000D01*
X152467721Y-65660000D01*
X152759659Y-65688625D01*
G37*
G04 #@! TD.AperFunction*
M02*
