%FSLAX45Y45*%
G04 Gerber Fmt 4.5, Leading zero omitted, Abs format (unit mm)*
G04 Created by KiCad (PCBNEW 5.1.9+dfsg1-1) date 2022-11-10 16:00:45*
%MOMM*%
%LPD*%
G01*
G04 APERTURE LIST*
%TA.AperFunction,Profile*%
%ADD10C,0.050000*%
%TD*%
%ADD11C,0.200000*%
%ADD12C,0.300000*%
G04 APERTURE END LIST*
D10*
X15450000Y-12300000D02*
G75*
G02*
X15250000Y-12500000I-200000J0D01*
G01*
X15250000Y-6500000D02*
G75*
G02*
X15450000Y-6700000I0J-200000D01*
G01*
X13250000Y-6700000D02*
G75*
G02*
X13450000Y-6500000I200000J0D01*
G01*
X13450000Y-12500000D02*
G75*
G02*
X13250000Y-12300000I0J200000D01*
G01*
X15250000Y-6500000D02*
X13450000Y-6500000D01*
X15450000Y-12300000D02*
X15450000Y-6700000D01*
X13250000Y-12300000D02*
X13250000Y-6700000D01*
X13450000Y-12500000D02*
X15250000Y-12500000D01*
D11*
X13830000Y-7180000D02*
X13870000Y-7220000D01*
X13870000Y-7180000D02*
X13830000Y-7220000D01*
X13830000Y-8180000D02*
X13870000Y-8220000D01*
X13870000Y-8180000D02*
X13830000Y-8220000D01*
X13830000Y-9180000D02*
X13870000Y-9220000D01*
X13870000Y-9180000D02*
X13830000Y-9220000D01*
X13830000Y-10180000D02*
X13870000Y-10220000D01*
X13870000Y-10180000D02*
X13830000Y-10220000D01*
X13830000Y-11180000D02*
X13870000Y-11220000D01*
X13870000Y-11180000D02*
X13830000Y-11220000D01*
X13830000Y-12180000D02*
X13870000Y-12220000D01*
X13870000Y-12180000D02*
X13830000Y-12220000D01*
X13980000Y-6930000D02*
X14020000Y-6970000D01*
X14020000Y-6930000D02*
X13980000Y-6970000D01*
X13980000Y-7930000D02*
X14020000Y-7970000D01*
X14020000Y-7930000D02*
X13980000Y-7970000D01*
X13980000Y-8930000D02*
X14020000Y-8970000D01*
X14020000Y-8930000D02*
X13980000Y-8970000D01*
X13980000Y-9930000D02*
X14020000Y-9970000D01*
X14020000Y-9930000D02*
X13980000Y-9970000D01*
X13980000Y-10930000D02*
X14020000Y-10970000D01*
X14020000Y-10930000D02*
X13980000Y-10970000D01*
X13980000Y-11930000D02*
X14020000Y-11970000D01*
X14020000Y-11930000D02*
X13980000Y-11970000D01*
X14780000Y-6930000D02*
X14820000Y-6970000D01*
X14820000Y-6930000D02*
X14780000Y-6970000D01*
X14780000Y-9930000D02*
X14820000Y-9970000D01*
X14820000Y-9930000D02*
X14780000Y-9970000D01*
X14780000Y-10930000D02*
X14820000Y-10970000D01*
X14820000Y-10930000D02*
X14780000Y-10970000D01*
X14780000Y-11930000D02*
X14820000Y-11970000D01*
X14820000Y-11930000D02*
X14780000Y-11970000D01*
D12*
X13533928Y-12968214D02*
X13533928Y-12668214D01*
X13605357Y-12668214D01*
X13648214Y-12682500D01*
X13676786Y-12711071D01*
X13691071Y-12739643D01*
X13705357Y-12796786D01*
X13705357Y-12839643D01*
X13691071Y-12896786D01*
X13676786Y-12925357D01*
X13648214Y-12953929D01*
X13605357Y-12968214D01*
X13533928Y-12968214D01*
X13833928Y-12968214D02*
X13833928Y-12768214D01*
X13833928Y-12825357D02*
X13848214Y-12796786D01*
X13862500Y-12782500D01*
X13891071Y-12768214D01*
X13919643Y-12768214D01*
X14019643Y-12968214D02*
X14019643Y-12768214D01*
X14019643Y-12668214D02*
X14005357Y-12682500D01*
X14019643Y-12696786D01*
X14033928Y-12682500D01*
X14019643Y-12668214D01*
X14019643Y-12696786D01*
X14205357Y-12968214D02*
X14176786Y-12953929D01*
X14162500Y-12925357D01*
X14162500Y-12668214D01*
X14362500Y-12968214D02*
X14333928Y-12953929D01*
X14319643Y-12925357D01*
X14319643Y-12668214D01*
X14705357Y-12968214D02*
X14705357Y-12668214D01*
X14805357Y-12882500D01*
X14905357Y-12668214D01*
X14905357Y-12968214D01*
X15176786Y-12968214D02*
X15176786Y-12811071D01*
X15162500Y-12782500D01*
X15133928Y-12768214D01*
X15076786Y-12768214D01*
X15048214Y-12782500D01*
X15176786Y-12953929D02*
X15148214Y-12968214D01*
X15076786Y-12968214D01*
X15048214Y-12953929D01*
X15033928Y-12925357D01*
X15033928Y-12896786D01*
X15048214Y-12868214D01*
X15076786Y-12853929D01*
X15148214Y-12853929D01*
X15176786Y-12839643D01*
X15319643Y-12768214D02*
X15319643Y-13068214D01*
X15319643Y-12782500D02*
X15348214Y-12768214D01*
X15405357Y-12768214D01*
X15433928Y-12782500D01*
X15448214Y-12796786D01*
X15462500Y-12825357D01*
X15462500Y-12911071D01*
X15448214Y-12939643D01*
X15433928Y-12953929D01*
X15405357Y-12968214D01*
X15348214Y-12968214D01*
X15319643Y-12953929D01*
X15591071Y-12939643D02*
X15605357Y-12953929D01*
X15591071Y-12968214D01*
X15576786Y-12953929D01*
X15591071Y-12939643D01*
X15591071Y-12968214D01*
X15591071Y-12782500D02*
X15605357Y-12796786D01*
X15591071Y-12811071D01*
X15576786Y-12796786D01*
X15591071Y-12782500D01*
X15591071Y-12811071D01*
X13207500Y-13442500D02*
X13247500Y-13482500D01*
X13247500Y-13442500D02*
X13207500Y-13482500D01*
X13591071Y-13298214D02*
X13619643Y-13298214D01*
X13648214Y-13312500D01*
X13662500Y-13326786D01*
X13676786Y-13355357D01*
X13691071Y-13412500D01*
X13691071Y-13483929D01*
X13676786Y-13541071D01*
X13662500Y-13569643D01*
X13648214Y-13583929D01*
X13619643Y-13598214D01*
X13591071Y-13598214D01*
X13562500Y-13583929D01*
X13548214Y-13569643D01*
X13533928Y-13541071D01*
X13519643Y-13483929D01*
X13519643Y-13412500D01*
X13533928Y-13355357D01*
X13548214Y-13326786D01*
X13562500Y-13312500D01*
X13591071Y-13298214D01*
X13819643Y-13569643D02*
X13833928Y-13583929D01*
X13819643Y-13598214D01*
X13805357Y-13583929D01*
X13819643Y-13569643D01*
X13819643Y-13598214D01*
X14091071Y-13398214D02*
X14091071Y-13598214D01*
X14019643Y-13283929D02*
X13948214Y-13498214D01*
X14133928Y-13498214D01*
X14305357Y-13298214D02*
X14333928Y-13298214D01*
X14362500Y-13312500D01*
X14376786Y-13326786D01*
X14391071Y-13355357D01*
X14405357Y-13412500D01*
X14405357Y-13483929D01*
X14391071Y-13541071D01*
X14376786Y-13569643D01*
X14362500Y-13583929D01*
X14333928Y-13598214D01*
X14305357Y-13598214D01*
X14276786Y-13583929D01*
X14262500Y-13569643D01*
X14248214Y-13541071D01*
X14233928Y-13483929D01*
X14233928Y-13412500D01*
X14248214Y-13355357D01*
X14262500Y-13326786D01*
X14276786Y-13312500D01*
X14305357Y-13298214D01*
X14533928Y-13598214D02*
X14533928Y-13398214D01*
X14533928Y-13426786D02*
X14548214Y-13412500D01*
X14576786Y-13398214D01*
X14619643Y-13398214D01*
X14648214Y-13412500D01*
X14662500Y-13441071D01*
X14662500Y-13598214D01*
X14662500Y-13441071D02*
X14676786Y-13412500D01*
X14705357Y-13398214D01*
X14748214Y-13398214D01*
X14776786Y-13412500D01*
X14791071Y-13441071D01*
X14791071Y-13598214D01*
X14933928Y-13598214D02*
X14933928Y-13398214D01*
X14933928Y-13426786D02*
X14948214Y-13412500D01*
X14976786Y-13398214D01*
X15019643Y-13398214D01*
X15048214Y-13412500D01*
X15062500Y-13441071D01*
X15062500Y-13598214D01*
X15062500Y-13441071D02*
X15076786Y-13412500D01*
X15105357Y-13398214D01*
X15148214Y-13398214D01*
X15176786Y-13412500D01*
X15191071Y-13441071D01*
X15191071Y-13598214D01*
X15776786Y-13283929D02*
X15519643Y-13669643D01*
X16162500Y-13298214D02*
X16191071Y-13298214D01*
X16219643Y-13312500D01*
X16233928Y-13326786D01*
X16248214Y-13355357D01*
X16262500Y-13412500D01*
X16262500Y-13483929D01*
X16248214Y-13541071D01*
X16233928Y-13569643D01*
X16219643Y-13583929D01*
X16191071Y-13598214D01*
X16162500Y-13598214D01*
X16133928Y-13583929D01*
X16119643Y-13569643D01*
X16105357Y-13541071D01*
X16091071Y-13483929D01*
X16091071Y-13412500D01*
X16105357Y-13355357D01*
X16119643Y-13326786D01*
X16133928Y-13312500D01*
X16162500Y-13298214D01*
X16391071Y-13569643D02*
X16405357Y-13583929D01*
X16391071Y-13598214D01*
X16376786Y-13583929D01*
X16391071Y-13569643D01*
X16391071Y-13598214D01*
X16591071Y-13298214D02*
X16619643Y-13298214D01*
X16648214Y-13312500D01*
X16662500Y-13326786D01*
X16676786Y-13355357D01*
X16691071Y-13412500D01*
X16691071Y-13483929D01*
X16676786Y-13541071D01*
X16662500Y-13569643D01*
X16648214Y-13583929D01*
X16619643Y-13598214D01*
X16591071Y-13598214D01*
X16562500Y-13583929D01*
X16548214Y-13569643D01*
X16533928Y-13541071D01*
X16519643Y-13483929D01*
X16519643Y-13412500D01*
X16533928Y-13355357D01*
X16548214Y-13326786D01*
X16562500Y-13312500D01*
X16591071Y-13298214D01*
X16976786Y-13598214D02*
X16805357Y-13598214D01*
X16891071Y-13598214D02*
X16891071Y-13298214D01*
X16862500Y-13341071D01*
X16833928Y-13369643D01*
X16805357Y-13383929D01*
X17233928Y-13298214D02*
X17176786Y-13298214D01*
X17148214Y-13312500D01*
X17133928Y-13326786D01*
X17105357Y-13369643D01*
X17091071Y-13426786D01*
X17091071Y-13541071D01*
X17105357Y-13569643D01*
X17119643Y-13583929D01*
X17148214Y-13598214D01*
X17205357Y-13598214D01*
X17233928Y-13583929D01*
X17248214Y-13569643D01*
X17262500Y-13541071D01*
X17262500Y-13469643D01*
X17248214Y-13441071D01*
X17233928Y-13426786D01*
X17205357Y-13412500D01*
X17148214Y-13412500D01*
X17119643Y-13426786D01*
X17105357Y-13441071D01*
X17091071Y-13469643D01*
X17376786Y-13298214D02*
X17376786Y-13355357D01*
X17491071Y-13298214D02*
X17491071Y-13355357D01*
X17933928Y-13712500D02*
X17919643Y-13698214D01*
X17891071Y-13655357D01*
X17876786Y-13626786D01*
X17862500Y-13583929D01*
X17848214Y-13512500D01*
X17848214Y-13455357D01*
X17862500Y-13383929D01*
X17876786Y-13341071D01*
X17891071Y-13312500D01*
X17919643Y-13269643D01*
X17933928Y-13255357D01*
X18205357Y-13598214D02*
X18033928Y-13598214D01*
X18119643Y-13598214D02*
X18119643Y-13298214D01*
X18091071Y-13341071D01*
X18062500Y-13369643D01*
X18033928Y-13383929D01*
X18462500Y-13298214D02*
X18405357Y-13298214D01*
X18376786Y-13312500D01*
X18362500Y-13326786D01*
X18333928Y-13369643D01*
X18319643Y-13426786D01*
X18319643Y-13541071D01*
X18333928Y-13569643D01*
X18348214Y-13583929D01*
X18376786Y-13598214D01*
X18433928Y-13598214D01*
X18462500Y-13583929D01*
X18476786Y-13569643D01*
X18491071Y-13541071D01*
X18491071Y-13469643D01*
X18476786Y-13441071D01*
X18462500Y-13426786D01*
X18433928Y-13412500D01*
X18376786Y-13412500D01*
X18348214Y-13426786D01*
X18333928Y-13441071D01*
X18319643Y-13469643D01*
X18848214Y-13598214D02*
X18848214Y-13298214D01*
X18976786Y-13598214D02*
X18976786Y-13441071D01*
X18962500Y-13412500D01*
X18933928Y-13398214D01*
X18891071Y-13398214D01*
X18862500Y-13412500D01*
X18848214Y-13426786D01*
X19162500Y-13598214D02*
X19133928Y-13583929D01*
X19119643Y-13569643D01*
X19105357Y-13541071D01*
X19105357Y-13455357D01*
X19119643Y-13426786D01*
X19133928Y-13412500D01*
X19162500Y-13398214D01*
X19205357Y-13398214D01*
X19233928Y-13412500D01*
X19248214Y-13426786D01*
X19262500Y-13455357D01*
X19262500Y-13541071D01*
X19248214Y-13569643D01*
X19233928Y-13583929D01*
X19205357Y-13598214D01*
X19162500Y-13598214D01*
X19433928Y-13598214D02*
X19405357Y-13583929D01*
X19391071Y-13555357D01*
X19391071Y-13298214D01*
X19662500Y-13583929D02*
X19633928Y-13598214D01*
X19576786Y-13598214D01*
X19548214Y-13583929D01*
X19533928Y-13555357D01*
X19533928Y-13441071D01*
X19548214Y-13412500D01*
X19576786Y-13398214D01*
X19633928Y-13398214D01*
X19662500Y-13412500D01*
X19676786Y-13441071D01*
X19676786Y-13469643D01*
X19533928Y-13498214D01*
X19791071Y-13583929D02*
X19819643Y-13598214D01*
X19876786Y-13598214D01*
X19905357Y-13583929D01*
X19919643Y-13555357D01*
X19919643Y-13541071D01*
X19905357Y-13512500D01*
X19876786Y-13498214D01*
X19833928Y-13498214D01*
X19805357Y-13483929D01*
X19791071Y-13455357D01*
X19791071Y-13441071D01*
X19805357Y-13412500D01*
X19833928Y-13398214D01*
X19876786Y-13398214D01*
X19905357Y-13412500D01*
X20019643Y-13712500D02*
X20033928Y-13698214D01*
X20062500Y-13655357D01*
X20076786Y-13626786D01*
X20091071Y-13583929D01*
X20105357Y-13512500D01*
X20105357Y-13455357D01*
X20091071Y-13383929D01*
X20076786Y-13341071D01*
X20062500Y-13312500D01*
X20033928Y-13269643D01*
X20019643Y-13255357D01*
M02*
