%FSLAX45Y45*%
G04 Gerber Fmt 4.5, Leading zero omitted, Abs format (unit mm)*
G04 Created by KiCad (PCBNEW 5.1.9+dfsg1-1) date 2022-11-10 16:00:45*
%MOMM*%
%LPD*%
G01*
G04 APERTURE LIST*
%TA.AperFunction,Profile*%
%ADD10C,0.050000*%
%TD*%
%ADD11C,0.200000*%
%ADD12C,0.300000*%
G04 APERTURE END LIST*
D10*
X15450000Y-12300000D02*
G75*
G02*
X15250000Y-12500000I-200000J0D01*
G01*
X15250000Y-6500000D02*
G75*
G02*
X15450000Y-6700000I0J-200000D01*
G01*
X13250000Y-6700000D02*
G75*
G02*
X13450000Y-6500000I200000J0D01*
G01*
X13450000Y-12500000D02*
G75*
G02*
X13250000Y-12300000I0J200000D01*
G01*
X15250000Y-6500000D02*
X13450000Y-6500000D01*
X15450000Y-12300000D02*
X15450000Y-6700000D01*
X13250000Y-12300000D02*
X13250000Y-6700000D01*
X13450000Y-12500000D02*
X15250000Y-12500000D01*
D11*
D12*
X13533928Y-12968214D02*
X13533928Y-12668214D01*
X13605357Y-12668214D01*
X13648214Y-12682500D01*
X13676786Y-12711071D01*
X13691071Y-12739643D01*
X13705357Y-12796786D01*
X13705357Y-12839643D01*
X13691071Y-12896786D01*
X13676786Y-12925357D01*
X13648214Y-12953929D01*
X13605357Y-12968214D01*
X13533928Y-12968214D01*
X13833928Y-12968214D02*
X13833928Y-12768214D01*
X13833928Y-12825357D02*
X13848214Y-12796786D01*
X13862500Y-12782500D01*
X13891071Y-12768214D01*
X13919643Y-12768214D01*
X14019643Y-12968214D02*
X14019643Y-12768214D01*
X14019643Y-12668214D02*
X14005357Y-12682500D01*
X14019643Y-12696786D01*
X14033928Y-12682500D01*
X14019643Y-12668214D01*
X14019643Y-12696786D01*
X14205357Y-12968214D02*
X14176786Y-12953929D01*
X14162500Y-12925357D01*
X14162500Y-12668214D01*
X14362500Y-12968214D02*
X14333928Y-12953929D01*
X14319643Y-12925357D01*
X14319643Y-12668214D01*
X14705357Y-12968214D02*
X14705357Y-12668214D01*
X14805357Y-12882500D01*
X14905357Y-12668214D01*
X14905357Y-12968214D01*
X15176786Y-12968214D02*
X15176786Y-12811071D01*
X15162500Y-12782500D01*
X15133928Y-12768214D01*
X15076786Y-12768214D01*
X15048214Y-12782500D01*
X15176786Y-12953929D02*
X15148214Y-12968214D01*
X15076786Y-12968214D01*
X15048214Y-12953929D01*
X15033928Y-12925357D01*
X15033928Y-12896786D01*
X15048214Y-12868214D01*
X15076786Y-12853929D01*
X15148214Y-12853929D01*
X15176786Y-12839643D01*
X15319643Y-12768214D02*
X15319643Y-13068214D01*
X15319643Y-12782500D02*
X15348214Y-12768214D01*
X15405357Y-12768214D01*
X15433928Y-12782500D01*
X15448214Y-12796786D01*
X15462500Y-12825357D01*
X15462500Y-12911071D01*
X15448214Y-12939643D01*
X15433928Y-12953929D01*
X15405357Y-12968214D01*
X15348214Y-12968214D01*
X15319643Y-12953929D01*
X15591071Y-12939643D02*
X15605357Y-12953929D01*
X15591071Y-12968214D01*
X15576786Y-12953929D01*
X15591071Y-12939643D01*
X15591071Y-12968214D01*
X15591071Y-12782500D02*
X15605357Y-12796786D01*
X15591071Y-12811071D01*
X15576786Y-12796786D01*
X15591071Y-12782500D01*
X15591071Y-12811071D01*
M02*
