G04 #@! TF.GenerationSoftware,KiCad,Pcbnew,5.1.9+dfsg1-1*
G04 #@! TF.CreationDate,2022-11-10T16:00:35+09:00*
G04 #@! TF.ProjectId,esp32-button,65737033-322d-4627-9574-746f6e2e6b69,rev?*
G04 #@! TF.SameCoordinates,Original*
G04 #@! TF.FileFunction,Paste,Bot*
G04 #@! TF.FilePolarity,Positive*
%FSLAX46Y46*%
G04 Gerber Fmt 4.6, Leading zero omitted, Abs format (unit mm)*
G04 Created by KiCad (PCBNEW 5.1.9+dfsg1-1) date 2022-11-10 16:00:35*
%MOMM*%
%LPD*%
G01*
G04 APERTURE LIST*
%ADD10R,5.000000X3.000000*%
G04 APERTURE END LIST*
G36*
G01*
X145975000Y-101087500D02*
X145025000Y-101087500D01*
G75*
G02*
X144775000Y-100837500I0J250000D01*
G01*
X144775000Y-100162500D01*
G75*
G02*
X145025000Y-99912500I250000J0D01*
G01*
X145975000Y-99912500D01*
G75*
G02*
X146225000Y-100162500I0J-250000D01*
G01*
X146225000Y-100837500D01*
G75*
G02*
X145975000Y-101087500I-250000J0D01*
G01*
G37*
G36*
G01*
X145975000Y-99012500D02*
X145025000Y-99012500D01*
G75*
G02*
X144775000Y-98762500I0J250000D01*
G01*
X144775000Y-98087500D01*
G75*
G02*
X145025000Y-97837500I250000J0D01*
G01*
X145975000Y-97837500D01*
G75*
G02*
X146225000Y-98087500I0J-250000D01*
G01*
X146225000Y-98762500D01*
G75*
G02*
X145975000Y-99012500I-250000J0D01*
G01*
G37*
G36*
G01*
X142975000Y-99012500D02*
X142025000Y-99012500D01*
G75*
G02*
X141775000Y-98762500I0J250000D01*
G01*
X141775000Y-98087500D01*
G75*
G02*
X142025000Y-97837500I250000J0D01*
G01*
X142975000Y-97837500D01*
G75*
G02*
X143225000Y-98087500I0J-250000D01*
G01*
X143225000Y-98762500D01*
G75*
G02*
X142975000Y-99012500I-250000J0D01*
G01*
G37*
G36*
G01*
X142975000Y-101087500D02*
X142025000Y-101087500D01*
G75*
G02*
X141775000Y-100837500I0J250000D01*
G01*
X141775000Y-100162500D01*
G75*
G02*
X142025000Y-99912500I250000J0D01*
G01*
X142975000Y-99912500D01*
G75*
G02*
X143225000Y-100162500I0J-250000D01*
G01*
X143225000Y-100837500D01*
G75*
G02*
X142975000Y-101087500I-250000J0D01*
G01*
G37*
G36*
G01*
X152049999Y-68375000D02*
X152950001Y-68375000D01*
G75*
G02*
X153200000Y-68624999I0J-249999D01*
G01*
X153200000Y-69275001D01*
G75*
G02*
X152950001Y-69525000I-249999J0D01*
G01*
X152049999Y-69525000D01*
G75*
G02*
X151800000Y-69275001I0J249999D01*
G01*
X151800000Y-68624999D01*
G75*
G02*
X152049999Y-68375000I249999J0D01*
G01*
G37*
G36*
G01*
X152049999Y-70425000D02*
X152950001Y-70425000D01*
G75*
G02*
X153200000Y-70674999I0J-249999D01*
G01*
X153200000Y-71325001D01*
G75*
G02*
X152950001Y-71575000I-249999J0D01*
G01*
X152049999Y-71575000D01*
G75*
G02*
X151800000Y-71325001I0J249999D01*
G01*
X151800000Y-70674999D01*
G75*
G02*
X152049999Y-70425000I249999J0D01*
G01*
G37*
D10*
X144000000Y-88000000D03*
X144000000Y-91810000D03*
G36*
G01*
X152049999Y-75400000D02*
X152950001Y-75400000D01*
G75*
G02*
X153200000Y-75649999I0J-249999D01*
G01*
X153200000Y-76350001D01*
G75*
G02*
X152950001Y-76600000I-249999J0D01*
G01*
X152049999Y-76600000D01*
G75*
G02*
X151800000Y-76350001I0J249999D01*
G01*
X151800000Y-75649999D01*
G75*
G02*
X152049999Y-75400000I249999J0D01*
G01*
G37*
G36*
G01*
X152049999Y-73400000D02*
X152950001Y-73400000D01*
G75*
G02*
X153200000Y-73649999I0J-249999D01*
G01*
X153200000Y-74350001D01*
G75*
G02*
X152950001Y-74600000I-249999J0D01*
G01*
X152049999Y-74600000D01*
G75*
G02*
X151800000Y-74350001I0J249999D01*
G01*
X151800000Y-73649999D01*
G75*
G02*
X152049999Y-73400000I249999J0D01*
G01*
G37*
G36*
G01*
X133320000Y-120275000D02*
X133320000Y-119525000D01*
G75*
G02*
X133695000Y-119150000I375000J0D01*
G01*
X135445000Y-119150000D01*
G75*
G02*
X135820000Y-119525000I0J-375000D01*
G01*
X135820000Y-120275000D01*
G75*
G02*
X135445000Y-120650000I-375000J0D01*
G01*
X133695000Y-120650000D01*
G75*
G02*
X133320000Y-120275000I0J375000D01*
G01*
G37*
G36*
G01*
X133320000Y-117735000D02*
X133320000Y-116985000D01*
G75*
G02*
X133695000Y-116610000I375000J0D01*
G01*
X135445000Y-116610000D01*
G75*
G02*
X135820000Y-116985000I0J-375000D01*
G01*
X135820000Y-117735000D01*
G75*
G02*
X135445000Y-118110000I-375000J0D01*
G01*
X133695000Y-118110000D01*
G75*
G02*
X133320000Y-117735000I0J375000D01*
G01*
G37*
G36*
G01*
X133320000Y-115195000D02*
X133320000Y-114445000D01*
G75*
G02*
X133695000Y-114070000I375000J0D01*
G01*
X135445000Y-114070000D01*
G75*
G02*
X135820000Y-114445000I0J-375000D01*
G01*
X135820000Y-115195000D01*
G75*
G02*
X135445000Y-115570000I-375000J0D01*
G01*
X133695000Y-115570000D01*
G75*
G02*
X133320000Y-115195000I0J375000D01*
G01*
G37*
G36*
G01*
X133320000Y-112655000D02*
X133320000Y-111905000D01*
G75*
G02*
X133695000Y-111530000I375000J0D01*
G01*
X135445000Y-111530000D01*
G75*
G02*
X135820000Y-111905000I0J-375000D01*
G01*
X135820000Y-112655000D01*
G75*
G02*
X135445000Y-113030000I-375000J0D01*
G01*
X133695000Y-113030000D01*
G75*
G02*
X133320000Y-112655000I0J375000D01*
G01*
G37*
G36*
G01*
X133320000Y-110115000D02*
X133320000Y-109365000D01*
G75*
G02*
X133695000Y-108990000I375000J0D01*
G01*
X135445000Y-108990000D01*
G75*
G02*
X135820000Y-109365000I0J-375000D01*
G01*
X135820000Y-110115000D01*
G75*
G02*
X135445000Y-110490000I-375000J0D01*
G01*
X133695000Y-110490000D01*
G75*
G02*
X133320000Y-110115000I0J375000D01*
G01*
G37*
G36*
G01*
X133320000Y-107575000D02*
X133320000Y-106825000D01*
G75*
G02*
X133695000Y-106450000I375000J0D01*
G01*
X135445000Y-106450000D01*
G75*
G02*
X135820000Y-106825000I0J-375000D01*
G01*
X135820000Y-107575000D01*
G75*
G02*
X135445000Y-107950000I-375000J0D01*
G01*
X133695000Y-107950000D01*
G75*
G02*
X133320000Y-107575000I0J375000D01*
G01*
G37*
G36*
G01*
X133320000Y-105035000D02*
X133320000Y-104285000D01*
G75*
G02*
X133695000Y-103910000I375000J0D01*
G01*
X135445000Y-103910000D01*
G75*
G02*
X135820000Y-104285000I0J-375000D01*
G01*
X135820000Y-105035000D01*
G75*
G02*
X135445000Y-105410000I-375000J0D01*
G01*
X133695000Y-105410000D01*
G75*
G02*
X133320000Y-105035000I0J375000D01*
G01*
G37*
G36*
G01*
X151100000Y-105035000D02*
X151100000Y-104285000D01*
G75*
G02*
X151475000Y-103910000I375000J0D01*
G01*
X153225000Y-103910000D01*
G75*
G02*
X153600000Y-104285000I0J-375000D01*
G01*
X153600000Y-105035000D01*
G75*
G02*
X153225000Y-105410000I-375000J0D01*
G01*
X151475000Y-105410000D01*
G75*
G02*
X151100000Y-105035000I0J375000D01*
G01*
G37*
G36*
G01*
X151100000Y-107575000D02*
X151100000Y-106825000D01*
G75*
G02*
X151475000Y-106450000I375000J0D01*
G01*
X153225000Y-106450000D01*
G75*
G02*
X153600000Y-106825000I0J-375000D01*
G01*
X153600000Y-107575000D01*
G75*
G02*
X153225000Y-107950000I-375000J0D01*
G01*
X151475000Y-107950000D01*
G75*
G02*
X151100000Y-107575000I0J375000D01*
G01*
G37*
G36*
G01*
X151100000Y-110115000D02*
X151100000Y-109365000D01*
G75*
G02*
X151475000Y-108990000I375000J0D01*
G01*
X153225000Y-108990000D01*
G75*
G02*
X153600000Y-109365000I0J-375000D01*
G01*
X153600000Y-110115000D01*
G75*
G02*
X153225000Y-110490000I-375000J0D01*
G01*
X151475000Y-110490000D01*
G75*
G02*
X151100000Y-110115000I0J375000D01*
G01*
G37*
G36*
G01*
X151100000Y-112655000D02*
X151100000Y-111905000D01*
G75*
G02*
X151475000Y-111530000I375000J0D01*
G01*
X153225000Y-111530000D01*
G75*
G02*
X153600000Y-111905000I0J-375000D01*
G01*
X153600000Y-112655000D01*
G75*
G02*
X153225000Y-113030000I-375000J0D01*
G01*
X151475000Y-113030000D01*
G75*
G02*
X151100000Y-112655000I0J375000D01*
G01*
G37*
G36*
G01*
X151100000Y-115195000D02*
X151100000Y-114445000D01*
G75*
G02*
X151475000Y-114070000I375000J0D01*
G01*
X153225000Y-114070000D01*
G75*
G02*
X153600000Y-114445000I0J-375000D01*
G01*
X153600000Y-115195000D01*
G75*
G02*
X153225000Y-115570000I-375000J0D01*
G01*
X151475000Y-115570000D01*
G75*
G02*
X151100000Y-115195000I0J375000D01*
G01*
G37*
G36*
G01*
X151100000Y-117735000D02*
X151100000Y-116985000D01*
G75*
G02*
X151475000Y-116610000I375000J0D01*
G01*
X153225000Y-116610000D01*
G75*
G02*
X153600000Y-116985000I0J-375000D01*
G01*
X153600000Y-117735000D01*
G75*
G02*
X153225000Y-118110000I-375000J0D01*
G01*
X151475000Y-118110000D01*
G75*
G02*
X151100000Y-117735000I0J375000D01*
G01*
G37*
G36*
G01*
X151100000Y-120275000D02*
X151100000Y-119525000D01*
G75*
G02*
X151475000Y-119150000I375000J0D01*
G01*
X153225000Y-119150000D01*
G75*
G02*
X153600000Y-119525000I0J-375000D01*
G01*
X153600000Y-120275000D01*
G75*
G02*
X153225000Y-120650000I-375000J0D01*
G01*
X151475000Y-120650000D01*
G75*
G02*
X151100000Y-120275000I0J375000D01*
G01*
G37*
X144018000Y-77978000D03*
X144018000Y-81788000D03*
X144018000Y-71374000D03*
X144018000Y-67564000D03*
M02*
